<?xml version="1.0" encoding="utf-8"?>
<svg xmlns="http://www.w3.org/2000/svg" width="113" height="65" viewBox="0 0 113 65">
<rect width="100%" height="100%" fill="transparent" />
<rect x="103" y="4" width="3" height="3" fill="#39ff14" />
<rect x="52" y="7" width="3" height="3" fill="#39ff14" />
<rect x="100" y="7" width="3" height="3" fill="#39ff14" />
<rect x="106" y="7" width="3" height="3" fill="#39ff14" />
<rect x="22" y="10" width="3" height="3" fill="#39ff14" />
<rect x="28" y="10" width="3" height="3" fill="#39ff14" />
<rect x="49" y="10" width="3" height="3" fill="#39ff14" />
<rect x="67" y="10" width="3" height="3" fill="#39ff14" />
<rect x="70" y="10" width="3" height="3" fill="#39ff14" />
<rect x="97" y="10" width="3" height="3" fill="#39ff14" />
<rect x="22" y="13" width="3" height="3" fill="#39ff14" />
<rect x="37" y="13" width="3" height="3" fill="#39ff14" />
<rect x="52" y="13" width="3" height="3" fill="#39ff14" />
<rect x="58" y="13" width="3" height="3" fill="#39ff14" />
<rect x="61" y="13" width="3" height="3" fill="#39ff14" />
<rect x="64" y="13" width="3" height="3" fill="#39ff14" />
<rect x="67" y="13" width="3" height="3" fill="#39ff14" />
<rect x="70" y="13" width="3" height="3" fill="#39ff14" />
<rect x="73" y="13" width="3" height="3" fill="#39ff14" />
<rect x="88" y="13" width="3" height="3" fill="#39ff14" />
<rect x="91" y="13" width="3" height="3" fill="#39ff14" />
<rect x="22" y="16" width="3" height="3" fill="#39ff14" />
<rect x="28" y="16" width="3" height="3" fill="#39ff14" />
<rect x="31" y="16" width="3" height="3" fill="#39ff14" />
<rect x="34" y="16" width="3" height="3" fill="#39ff14" />
<rect x="37" y="16" width="3" height="3" fill="#39ff14" />
<rect x="40" y="16" width="3" height="3" fill="#39ff14" />
<rect x="43" y="16" width="3" height="3" fill="#39ff14" />
<rect x="46" y="16" width="3" height="3" fill="#39ff14" />
<rect x="49" y="16" width="3" height="3" fill="#39ff14" />
<rect x="82" y="16" width="3" height="3" fill="#39ff14" />
<rect x="91" y="16" width="3" height="3" fill="#39ff14" />
<rect x="97" y="16" width="3" height="3" fill="#39ff14" />
<rect x="100" y="16" width="3" height="3" fill="#39ff14" />
<rect x="103" y="16" width="3" height="3" fill="#39ff14" />
<rect x="31" y="19" width="3" height="3" fill="#39ff14" />
<rect x="49" y="19" width="3" height="3" fill="#39ff14" />
<rect x="73" y="19" width="3" height="3" fill="#39ff14" />
<rect x="76" y="19" width="3" height="3" fill="#39ff14" />
<rect x="79" y="19" width="3" height="3" fill="#39ff14" />
<rect x="82" y="19" width="3" height="3" fill="#39ff14" />
<rect x="97" y="19" width="3" height="3" fill="#39ff14" />
<rect x="100" y="19" width="3" height="3" fill="#39ff14" />
<rect x="103" y="19" width="3" height="3" fill="#39ff14" />
<rect x="16" y="22" width="3" height="3" fill="#39ff14" />
<rect x="19" y="22" width="3" height="3" fill="#39ff14" />
<rect x="73" y="22" width="3" height="3" fill="#39ff14" />
<rect x="76" y="22" width="3" height="3" fill="#39ff14" />
<rect x="79" y="22" width="3" height="3" fill="#39ff14" />
<rect x="85" y="22" width="3" height="3" fill="#39ff14" />
<rect x="7" y="25" width="3" height="3" fill="#39ff14" />
<rect x="16" y="25" width="3" height="3" fill="#39ff14" />
<rect x="19" y="25" width="3" height="3" fill="#39ff14" />
<rect x="43" y="25" width="3" height="3" fill="#39ff14" />
<rect x="46" y="25" width="3" height="3" fill="#39ff14" />
<rect x="73" y="25" width="3" height="3" fill="#39ff14" />
<rect x="76" y="25" width="3" height="3" fill="#39ff14" />
<rect x="7" y="28" width="3" height="3" fill="#39ff14" />
<rect x="16" y="28" width="3" height="3" fill="#39ff14" />
<rect x="4" y="31" width="3" height="3" fill="#39ff14" />
<rect x="7" y="34" width="3" height="3" fill="#39ff14" />
<rect x="16" y="34" width="3" height="3" fill="#39ff14" />
<rect x="7" y="37" width="3" height="3" fill="#39ff14" />
<rect x="16" y="37" width="3" height="3" fill="#39ff14" />
<rect x="19" y="37" width="3" height="3" fill="#39ff14" />
<rect x="43" y="37" width="3" height="3" fill="#39ff14" />
<rect x="46" y="37" width="3" height="3" fill="#39ff14" />
<rect x="73" y="37" width="3" height="3" fill="#39ff14" />
<rect x="76" y="37" width="3" height="3" fill="#39ff14" />
<rect x="16" y="40" width="3" height="3" fill="#39ff14" />
<rect x="19" y="40" width="3" height="3" fill="#39ff14" />
<rect x="73" y="40" width="3" height="3" fill="#39ff14" />
<rect x="76" y="40" width="3" height="3" fill="#39ff14" />
<rect x="79" y="40" width="3" height="3" fill="#39ff14" />
<rect x="85" y="40" width="3" height="3" fill="#39ff14" />
<rect x="31" y="43" width="3" height="3" fill="#39ff14" />
<rect x="49" y="43" width="3" height="3" fill="#39ff14" />
<rect x="73" y="43" width="3" height="3" fill="#39ff14" />
<rect x="76" y="43" width="3" height="3" fill="#39ff14" />
<rect x="79" y="43" width="3" height="3" fill="#39ff14" />
<rect x="82" y="43" width="3" height="3" fill="#39ff14" />
<rect x="97" y="43" width="3" height="3" fill="#39ff14" />
<rect x="100" y="43" width="3" height="3" fill="#39ff14" />
<rect x="103" y="43" width="3" height="3" fill="#39ff14" />
<rect x="22" y="46" width="3" height="3" fill="#39ff14" />
<rect x="28" y="46" width="3" height="3" fill="#39ff14" />
<rect x="31" y="46" width="3" height="3" fill="#39ff14" />
<rect x="34" y="46" width="3" height="3" fill="#39ff14" />
<rect x="37" y="46" width="3" height="3" fill="#39ff14" />
<rect x="40" y="46" width="3" height="3" fill="#39ff14" />
<rect x="43" y="46" width="3" height="3" fill="#39ff14" />
<rect x="46" y="46" width="3" height="3" fill="#39ff14" />
<rect x="49" y="46" width="3" height="3" fill="#39ff14" />
<rect x="82" y="46" width="3" height="3" fill="#39ff14" />
<rect x="91" y="46" width="3" height="3" fill="#39ff14" />
<rect x="97" y="46" width="3" height="3" fill="#39ff14" />
<rect x="100" y="46" width="3" height="3" fill="#39ff14" />
<rect x="103" y="46" width="3" height="3" fill="#39ff14" />
<rect x="22" y="49" width="3" height="3" fill="#39ff14" />
<rect x="37" y="49" width="3" height="3" fill="#39ff14" />
<rect x="52" y="49" width="3" height="3" fill="#39ff14" />
<rect x="58" y="49" width="3" height="3" fill="#39ff14" />
<rect x="61" y="49" width="3" height="3" fill="#39ff14" />
<rect x="64" y="49" width="3" height="3" fill="#39ff14" />
<rect x="67" y="49" width="3" height="3" fill="#39ff14" />
<rect x="70" y="49" width="3" height="3" fill="#39ff14" />
<rect x="73" y="49" width="3" height="3" fill="#39ff14" />
<rect x="88" y="49" width="3" height="3" fill="#39ff14" />
<rect x="91" y="49" width="3" height="3" fill="#39ff14" />
<rect x="22" y="52" width="3" height="3" fill="#39ff14" />
<rect x="28" y="52" width="3" height="3" fill="#39ff14" />
<rect x="49" y="52" width="3" height="3" fill="#39ff14" />
<rect x="67" y="52" width="3" height="3" fill="#39ff14" />
<rect x="70" y="52" width="3" height="3" fill="#39ff14" />
<rect x="97" y="52" width="3" height="3" fill="#39ff14" />
<rect x="52" y="55" width="3" height="3" fill="#39ff14" />
<rect x="100" y="55" width="3" height="3" fill="#39ff14" />
<rect x="106" y="55" width="3" height="3" fill="#39ff14" />
<rect x="103" y="58" width="3" height="3" fill="#39ff14" />
</svg>