<?xml version="1.0" encoding="utf-8"?>
<svg xmlns="http://www.w3.org/2000/svg" width="100" height="112" viewBox="0 0 100 112">
<rect width="100%" height="100%" fill="transparent" />
<rect x="40" y="4" width="4" height="4" fill="#39ff14" />
<rect x="48" y="4" width="4" height="4" fill="#39ff14" />
<rect x="52" y="4" width="4" height="4" fill="#39ff14" />
<rect x="72" y="4" width="4" height="4" fill="#39ff14" />
<rect x="40" y="8" width="4" height="4" fill="#39ff14" />
<rect x="44" y="8" width="4" height="4" fill="#39ff14" />
<rect x="52" y="8" width="4" height="4" fill="#39ff14" />
<rect x="68" y="8" width="4" height="4" fill="#39ff14" />
<rect x="76" y="8" width="4" height="4" fill="#39ff14" />
<rect x="68" y="12" width="4" height="4" fill="#39ff14" />
<rect x="76" y="12" width="4" height="4" fill="#39ff14" />
<rect x="32" y="16" width="4" height="4" fill="#39ff14" />
<rect x="36" y="16" width="4" height="4" fill="#39ff14" />
<rect x="40" y="16" width="4" height="4" fill="#39ff14" />
<rect x="44" y="16" width="4" height="4" fill="#39ff14" />
<rect x="48" y="16" width="4" height="4" fill="#39ff14" />
<rect x="64" y="16" width="4" height="4" fill="#39ff14" />
<rect x="68" y="16" width="4" height="4" fill="#39ff14" />
<rect x="76" y="16" width="4" height="4" fill="#39ff14" />
<rect x="80" y="16" width="4" height="4" fill="#39ff14" />
<rect x="84" y="16" width="4" height="4" fill="#39ff14" />
<rect x="28" y="20" width="4" height="4" fill="#39ff14" />
<rect x="40" y="20" width="4" height="4" fill="#39ff14" />
<rect x="52" y="20" width="4" height="4" fill="#39ff14" />
<rect x="88" y="20" width="4" height="4" fill="#39ff14" />
<rect x="28" y="24" width="4" height="4" fill="#39ff14" />
<rect x="32" y="24" width="4" height="4" fill="#39ff14" />
<rect x="48" y="24" width="4" height="4" fill="#39ff14" />
<rect x="52" y="24" width="4" height="4" fill="#39ff14" />
<rect x="64" y="24" width="4" height="4" fill="#39ff14" />
<rect x="68" y="24" width="4" height="4" fill="#39ff14" />
<rect x="76" y="24" width="4" height="4" fill="#39ff14" />
<rect x="80" y="24" width="4" height="4" fill="#39ff14" />
<rect x="84" y="24" width="4" height="4" fill="#39ff14" />
<rect x="64" y="28" width="4" height="4" fill="#39ff14" />
<rect x="68" y="28" width="4" height="4" fill="#39ff14" />
<rect x="76" y="28" width="4" height="4" fill="#39ff14" />
<rect x="92" y="32" width="4" height="4" fill="#39ff14" />
<rect x="84" y="36" width="4" height="4" fill="#39ff14" />
<rect x="88" y="36" width="4" height="4" fill="#39ff14" />
<rect x="92" y="36" width="4" height="4" fill="#39ff14" />
<rect x="80" y="40" width="4" height="4" fill="#39ff14" />
<rect x="80" y="44" width="4" height="4" fill="#39ff14" />
<rect x="84" y="44" width="4" height="4" fill="#39ff14" />
<rect x="8" y="48" width="4" height="4" fill="#39ff14" />
<rect x="12" y="48" width="4" height="4" fill="#39ff14" />
<rect x="16" y="48" width="4" height="4" fill="#39ff14" />
<rect x="20" y="48" width="4" height="4" fill="#39ff14" />
<rect x="24" y="48" width="4" height="4" fill="#39ff14" />
<rect x="4" y="52" width="4" height="4" fill="#39ff14" />
<rect x="24" y="52" width="4" height="4" fill="#39ff14" />
<rect x="24" y="56" width="4" height="4" fill="#39ff14" />
<rect x="4" y="60" width="4" height="4" fill="#39ff14" />
<rect x="20" y="60" width="4" height="4" fill="#39ff14" />
<rect x="12" y="64" width="4" height="4" fill="#39ff14" />
<rect x="68" y="64" width="4" height="4" fill="#39ff14" />
<rect x="72" y="64" width="4" height="4" fill="#39ff14" />
<rect x="64" y="68" width="4" height="4" fill="#39ff14" />
<rect x="76" y="68" width="4" height="4" fill="#39ff14" />
<rect x="68" y="72" width="4" height="4" fill="#39ff14" />
<rect x="72" y="72" width="4" height="4" fill="#39ff14" />
<rect x="36" y="76" width="4" height="4" fill="#39ff14" />
<rect x="40" y="76" width="4" height="4" fill="#39ff14" />
<rect x="32" y="80" width="4" height="4" fill="#39ff14" />
<rect x="40" y="80" width="4" height="4" fill="#39ff14" />
<rect x="32" y="84" width="4" height="4" fill="#39ff14" />
<rect x="28" y="88" width="4" height="4" fill="#39ff14" />
<rect x="32" y="88" width="4" height="4" fill="#39ff14" />
<rect x="80" y="92" width="4" height="4" fill="#39ff14" />
<rect x="84" y="92" width="4" height="4" fill="#39ff14" />
<rect x="80" y="96" width="4" height="4" fill="#39ff14" />
<rect x="84" y="100" width="4" height="4" fill="#39ff14" />
<rect x="88" y="100" width="4" height="4" fill="#39ff14" />
<rect x="92" y="100" width="4" height="4" fill="#39ff14" />
<rect x="92" y="104" width="4" height="4" fill="#39ff14" />
</svg>