<?xml version="1.0" encoding="utf-8"?>
<svg xmlns="http://www.w3.org/2000/svg" width="122" height="74" viewBox="0 0 122 74">
<rect width="100%" height="100%" fill="transparent" />
<rect x="34" y="4" width="6" height="6" fill="#39ff14" />
<rect x="82" y="4" width="6" height="6" fill="#39ff14" />
<rect x="22" y="10" width="6" height="6" fill="#39ff14" />
<rect x="28" y="10" width="6" height="6" fill="#39ff14" />
<rect x="40" y="10" width="6" height="6" fill="#39ff14" />
<rect x="46" y="10" width="6" height="6" fill="#39ff14" />
<rect x="70" y="10" width="6" height="6" fill="#39ff14" />
<rect x="76" y="10" width="6" height="6" fill="#39ff14" />
<rect x="88" y="10" width="6" height="6" fill="#39ff14" />
<rect x="94" y="10" width="6" height="6" fill="#39ff14" />
<rect x="40" y="16" width="6" height="6" fill="#39ff14" />
<rect x="46" y="16" width="6" height="6" fill="#39ff14" />
<rect x="70" y="16" width="6" height="6" fill="#39ff14" />
<rect x="76" y="16" width="6" height="6" fill="#39ff14" />
<rect x="52" y="22" width="6" height="6" fill="#39ff14" />
<rect x="64" y="22" width="6" height="6" fill="#39ff14" />
<rect x="10" y="28" width="6" height="6" fill="#39ff14" />
<rect x="40" y="28" width="6" height="6" fill="#39ff14" />
<rect x="52" y="28" width="6" height="6" fill="#39ff14" />
<rect x="64" y="28" width="6" height="6" fill="#39ff14" />
<rect x="76" y="28" width="6" height="6" fill="#39ff14" />
<rect x="106" y="28" width="6" height="6" fill="#39ff14" />
<rect x="4" y="34" width="6" height="6" fill="#39ff14" />
<rect x="10" y="34" width="6" height="6" fill="#39ff14" />
<rect x="16" y="34" width="6" height="6" fill="#39ff14" />
<rect x="52" y="34" width="6" height="6" fill="#39ff14" />
<rect x="64" y="34" width="6" height="6" fill="#39ff14" />
<rect x="100" y="34" width="6" height="6" fill="#39ff14" />
<rect x="106" y="34" width="6" height="6" fill="#39ff14" />
<rect x="112" y="34" width="6" height="6" fill="#39ff14" />
<rect x="4" y="40" width="6" height="6" fill="#39ff14" />
<rect x="40" y="40" width="6" height="6" fill="#39ff14" />
<rect x="52" y="40" width="6" height="6" fill="#39ff14" />
<rect x="64" y="40" width="6" height="6" fill="#39ff14" />
<rect x="76" y="40" width="6" height="6" fill="#39ff14" />
<rect x="112" y="40" width="6" height="6" fill="#39ff14" />
<rect x="16" y="46" width="6" height="6" fill="#39ff14" />
<rect x="34" y="46" width="6" height="6" fill="#39ff14" />
<rect x="52" y="46" width="6" height="6" fill="#39ff14" />
<rect x="64" y="46" width="6" height="6" fill="#39ff14" />
<rect x="82" y="46" width="6" height="6" fill="#39ff14" />
<rect x="100" y="46" width="6" height="6" fill="#39ff14" />
<rect x="16" y="52" width="6" height="6" fill="#39ff14" />
<rect x="22" y="52" width="6" height="6" fill="#39ff14" />
<rect x="46" y="52" width="6" height="6" fill="#39ff14" />
<rect x="52" y="52" width="6" height="6" fill="#39ff14" />
<rect x="64" y="52" width="6" height="6" fill="#39ff14" />
<rect x="70" y="52" width="6" height="6" fill="#39ff14" />
<rect x="94" y="52" width="6" height="6" fill="#39ff14" />
<rect x="100" y="52" width="6" height="6" fill="#39ff14" />
<rect x="4" y="58" width="6" height="6" fill="#39ff14" />
<rect x="52" y="58" width="6" height="6" fill="#39ff14" />
<rect x="64" y="58" width="6" height="6" fill="#39ff14" />
<rect x="112" y="58" width="6" height="6" fill="#39ff14" />
<rect x="4" y="64" width="6" height="6" fill="#39ff14" />
<rect x="46" y="64" width="6" height="6" fill="#39ff14" />
<rect x="52" y="64" width="6" height="6" fill="#39ff14" />
<rect x="64" y="64" width="6" height="6" fill="#39ff14" />
<rect x="70" y="64" width="6" height="6" fill="#39ff14" />
<rect x="112" y="64" width="6" height="6" fill="#39ff14" />
</svg>