<?xml version="1.0" encoding="utf-8"?>
<svg xmlns="http://www.w3.org/2000/svg" width="82" height="114" viewBox="0 0 82 114">
<rect width="100%" height="100%" fill="transparent" />
<rect x="10" y="4" width="2" height="2" fill="#39ff14" />
<rect x="16" y="4" width="2" height="2" fill="#39ff14" />
<rect x="22" y="4" width="2" height="2" fill="#39ff14" />
<rect x="28" y="4" width="2" height="2" fill="#39ff14" />
<rect x="34" y="4" width="2" height="2" fill="#39ff14" />
<rect x="40" y="4" width="2" height="2" fill="#39ff14" />
<rect x="46" y="4" width="2" height="2" fill="#39ff14" />
<rect x="52" y="4" width="2" height="2" fill="#39ff14" />
<rect x="58" y="4" width="2" height="2" fill="#39ff14" />
<rect x="64" y="4" width="2" height="2" fill="#39ff14" />
<rect x="70" y="4" width="2" height="2" fill="#39ff14" />
<rect x="6" y="6" width="2" height="2" fill="#39ff14" />
<rect x="8" y="6" width="2" height="2" fill="#39ff14" />
<rect x="10" y="6" width="2" height="2" fill="#39ff14" />
<rect x="12" y="6" width="2" height="2" fill="#39ff14" />
<rect x="14" y="6" width="2" height="2" fill="#39ff14" />
<rect x="16" y="6" width="2" height="2" fill="#39ff14" />
<rect x="18" y="6" width="2" height="2" fill="#39ff14" />
<rect x="20" y="6" width="2" height="2" fill="#39ff14" />
<rect x="22" y="6" width="2" height="2" fill="#39ff14" />
<rect x="24" y="6" width="2" height="2" fill="#39ff14" />
<rect x="26" y="6" width="2" height="2" fill="#39ff14" />
<rect x="28" y="6" width="2" height="2" fill="#39ff14" />
<rect x="30" y="6" width="2" height="2" fill="#39ff14" />
<rect x="32" y="6" width="2" height="2" fill="#39ff14" />
<rect x="34" y="6" width="2" height="2" fill="#39ff14" />
<rect x="36" y="6" width="2" height="2" fill="#39ff14" />
<rect x="38" y="6" width="2" height="2" fill="#39ff14" />
<rect x="40" y="6" width="2" height="2" fill="#39ff14" />
<rect x="42" y="6" width="2" height="2" fill="#39ff14" />
<rect x="44" y="6" width="2" height="2" fill="#39ff14" />
<rect x="46" y="6" width="2" height="2" fill="#39ff14" />
<rect x="48" y="6" width="2" height="2" fill="#39ff14" />
<rect x="50" y="6" width="2" height="2" fill="#39ff14" />
<rect x="52" y="6" width="2" height="2" fill="#39ff14" />
<rect x="54" y="6" width="2" height="2" fill="#39ff14" />
<rect x="56" y="6" width="2" height="2" fill="#39ff14" />
<rect x="58" y="6" width="2" height="2" fill="#39ff14" />
<rect x="60" y="6" width="2" height="2" fill="#39ff14" />
<rect x="62" y="6" width="2" height="2" fill="#39ff14" />
<rect x="64" y="6" width="2" height="2" fill="#39ff14" />
<rect x="66" y="6" width="2" height="2" fill="#39ff14" />
<rect x="68" y="6" width="2" height="2" fill="#39ff14" />
<rect x="70" y="6" width="2" height="2" fill="#39ff14" />
<rect x="72" y="6" width="2" height="2" fill="#39ff14" />
<rect x="74" y="6" width="2" height="2" fill="#39ff14" />
<rect x="4" y="8" width="2" height="2" fill="#39ff14" />
<rect x="76" y="8" width="2" height="2" fill="#39ff14" />
<rect x="6" y="10" width="2" height="2" fill="#39ff14" />
<rect x="8" y="10" width="2" height="2" fill="#39ff14" />
<rect x="10" y="10" width="2" height="2" fill="#39ff14" />
<rect x="12" y="10" width="2" height="2" fill="#39ff14" />
<rect x="14" y="10" width="2" height="2" fill="#39ff14" />
<rect x="16" y="10" width="2" height="2" fill="#39ff14" />
<rect x="18" y="10" width="2" height="2" fill="#39ff14" />
<rect x="20" y="10" width="2" height="2" fill="#39ff14" />
<rect x="22" y="10" width="2" height="2" fill="#39ff14" />
<rect x="24" y="10" width="2" height="2" fill="#39ff14" />
<rect x="26" y="10" width="2" height="2" fill="#39ff14" />
<rect x="28" y="10" width="2" height="2" fill="#39ff14" />
<rect x="30" y="10" width="2" height="2" fill="#39ff14" />
<rect x="32" y="10" width="2" height="2" fill="#39ff14" />
<rect x="34" y="10" width="2" height="2" fill="#39ff14" />
<rect x="36" y="10" width="2" height="2" fill="#39ff14" />
<rect x="38" y="10" width="2" height="2" fill="#39ff14" />
<rect x="40" y="10" width="2" height="2" fill="#39ff14" />
<rect x="42" y="10" width="2" height="2" fill="#39ff14" />
<rect x="44" y="10" width="2" height="2" fill="#39ff14" />
<rect x="46" y="10" width="2" height="2" fill="#39ff14" />
<rect x="48" y="10" width="2" height="2" fill="#39ff14" />
<rect x="50" y="10" width="2" height="2" fill="#39ff14" />
<rect x="52" y="10" width="2" height="2" fill="#39ff14" />
<rect x="54" y="10" width="2" height="2" fill="#39ff14" />
<rect x="56" y="10" width="2" height="2" fill="#39ff14" />
<rect x="58" y="10" width="2" height="2" fill="#39ff14" />
<rect x="60" y="10" width="2" height="2" fill="#39ff14" />
<rect x="62" y="10" width="2" height="2" fill="#39ff14" />
<rect x="64" y="10" width="2" height="2" fill="#39ff14" />
<rect x="66" y="10" width="2" height="2" fill="#39ff14" />
<rect x="68" y="10" width="2" height="2" fill="#39ff14" />
<rect x="70" y="10" width="2" height="2" fill="#39ff14" />
<rect x="72" y="10" width="2" height="2" fill="#39ff14" />
<rect x="74" y="10" width="2" height="2" fill="#39ff14" />
<rect x="6" y="14" width="2" height="2" fill="#39ff14" />
<rect x="8" y="14" width="2" height="2" fill="#39ff14" />
<rect x="10" y="14" width="2" height="2" fill="#39ff14" />
<rect x="12" y="14" width="2" height="2" fill="#39ff14" />
<rect x="14" y="14" width="2" height="2" fill="#39ff14" />
<rect x="16" y="14" width="2" height="2" fill="#39ff14" />
<rect x="18" y="14" width="2" height="2" fill="#39ff14" />
<rect x="20" y="14" width="2" height="2" fill="#39ff14" />
<rect x="22" y="14" width="2" height="2" fill="#39ff14" />
<rect x="24" y="14" width="2" height="2" fill="#39ff14" />
<rect x="26" y="14" width="2" height="2" fill="#39ff14" />
<rect x="28" y="14" width="2" height="2" fill="#39ff14" />
<rect x="30" y="14" width="2" height="2" fill="#39ff14" />
<rect x="32" y="14" width="2" height="2" fill="#39ff14" />
<rect x="34" y="14" width="2" height="2" fill="#39ff14" />
<rect x="36" y="14" width="2" height="2" fill="#39ff14" />
<rect x="38" y="14" width="2" height="2" fill="#39ff14" />
<rect x="40" y="14" width="2" height="2" fill="#39ff14" />
<rect x="42" y="14" width="2" height="2" fill="#39ff14" />
<rect x="44" y="14" width="2" height="2" fill="#39ff14" />
<rect x="46" y="14" width="2" height="2" fill="#39ff14" />
<rect x="48" y="14" width="2" height="2" fill="#39ff14" />
<rect x="50" y="14" width="2" height="2" fill="#39ff14" />
<rect x="52" y="14" width="2" height="2" fill="#39ff14" />
<rect x="54" y="14" width="2" height="2" fill="#39ff14" />
<rect x="56" y="14" width="2" height="2" fill="#39ff14" />
<rect x="58" y="14" width="2" height="2" fill="#39ff14" />
<rect x="60" y="14" width="2" height="2" fill="#39ff14" />
<rect x="62" y="14" width="2" height="2" fill="#39ff14" />
<rect x="64" y="14" width="2" height="2" fill="#39ff14" />
<rect x="66" y="14" width="2" height="2" fill="#39ff14" />
<rect x="68" y="14" width="2" height="2" fill="#39ff14" />
<rect x="70" y="14" width="2" height="2" fill="#39ff14" />
<rect x="72" y="14" width="2" height="2" fill="#39ff14" />
<rect x="74" y="14" width="2" height="2" fill="#39ff14" />
<rect x="4" y="16" width="2" height="2" fill="#39ff14" />
<rect x="76" y="16" width="2" height="2" fill="#39ff14" />
<rect x="6" y="18" width="2" height="2" fill="#39ff14" />
<rect x="8" y="18" width="2" height="2" fill="#39ff14" />
<rect x="10" y="18" width="2" height="2" fill="#39ff14" />
<rect x="12" y="18" width="2" height="2" fill="#39ff14" />
<rect x="14" y="18" width="2" height="2" fill="#39ff14" />
<rect x="16" y="18" width="2" height="2" fill="#39ff14" />
<rect x="18" y="18" width="2" height="2" fill="#39ff14" />
<rect x="20" y="18" width="2" height="2" fill="#39ff14" />
<rect x="22" y="18" width="2" height="2" fill="#39ff14" />
<rect x="24" y="18" width="2" height="2" fill="#39ff14" />
<rect x="26" y="18" width="2" height="2" fill="#39ff14" />
<rect x="28" y="18" width="2" height="2" fill="#39ff14" />
<rect x="30" y="18" width="2" height="2" fill="#39ff14" />
<rect x="32" y="18" width="2" height="2" fill="#39ff14" />
<rect x="34" y="18" width="2" height="2" fill="#39ff14" />
<rect x="36" y="18" width="2" height="2" fill="#39ff14" />
<rect x="38" y="18" width="2" height="2" fill="#39ff14" />
<rect x="40" y="18" width="2" height="2" fill="#39ff14" />
<rect x="42" y="18" width="2" height="2" fill="#39ff14" />
<rect x="44" y="18" width="2" height="2" fill="#39ff14" />
<rect x="46" y="18" width="2" height="2" fill="#39ff14" />
<rect x="48" y="18" width="2" height="2" fill="#39ff14" />
<rect x="50" y="18" width="2" height="2" fill="#39ff14" />
<rect x="52" y="18" width="2" height="2" fill="#39ff14" />
<rect x="54" y="18" width="2" height="2" fill="#39ff14" />
<rect x="56" y="18" width="2" height="2" fill="#39ff14" />
<rect x="58" y="18" width="2" height="2" fill="#39ff14" />
<rect x="60" y="18" width="2" height="2" fill="#39ff14" />
<rect x="62" y="18" width="2" height="2" fill="#39ff14" />
<rect x="64" y="18" width="2" height="2" fill="#39ff14" />
<rect x="66" y="18" width="2" height="2" fill="#39ff14" />
<rect x="68" y="18" width="2" height="2" fill="#39ff14" />
<rect x="70" y="18" width="2" height="2" fill="#39ff14" />
<rect x="72" y="18" width="2" height="2" fill="#39ff14" />
<rect x="74" y="18" width="2" height="2" fill="#39ff14" />
<rect x="6" y="22" width="2" height="2" fill="#39ff14" />
<rect x="8" y="22" width="2" height="2" fill="#39ff14" />
<rect x="10" y="22" width="2" height="2" fill="#39ff14" />
<rect x="12" y="22" width="2" height="2" fill="#39ff14" />
<rect x="14" y="22" width="2" height="2" fill="#39ff14" />
<rect x="16" y="22" width="2" height="2" fill="#39ff14" />
<rect x="18" y="22" width="2" height="2" fill="#39ff14" />
<rect x="20" y="22" width="2" height="2" fill="#39ff14" />
<rect x="22" y="22" width="2" height="2" fill="#39ff14" />
<rect x="24" y="22" width="2" height="2" fill="#39ff14" />
<rect x="26" y="22" width="2" height="2" fill="#39ff14" />
<rect x="28" y="22" width="2" height="2" fill="#39ff14" />
<rect x="30" y="22" width="2" height="2" fill="#39ff14" />
<rect x="32" y="22" width="2" height="2" fill="#39ff14" />
<rect x="34" y="22" width="2" height="2" fill="#39ff14" />
<rect x="36" y="22" width="2" height="2" fill="#39ff14" />
<rect x="38" y="22" width="2" height="2" fill="#39ff14" />
<rect x="40" y="22" width="2" height="2" fill="#39ff14" />
<rect x="42" y="22" width="2" height="2" fill="#39ff14" />
<rect x="44" y="22" width="2" height="2" fill="#39ff14" />
<rect x="46" y="22" width="2" height="2" fill="#39ff14" />
<rect x="48" y="22" width="2" height="2" fill="#39ff14" />
<rect x="50" y="22" width="2" height="2" fill="#39ff14" />
<rect x="52" y="22" width="2" height="2" fill="#39ff14" />
<rect x="54" y="22" width="2" height="2" fill="#39ff14" />
<rect x="56" y="22" width="2" height="2" fill="#39ff14" />
<rect x="58" y="22" width="2" height="2" fill="#39ff14" />
<rect x="60" y="22" width="2" height="2" fill="#39ff14" />
<rect x="62" y="22" width="2" height="2" fill="#39ff14" />
<rect x="64" y="22" width="2" height="2" fill="#39ff14" />
<rect x="66" y="22" width="2" height="2" fill="#39ff14" />
<rect x="68" y="22" width="2" height="2" fill="#39ff14" />
<rect x="70" y="22" width="2" height="2" fill="#39ff14" />
<rect x="72" y="22" width="2" height="2" fill="#39ff14" />
<rect x="74" y="22" width="2" height="2" fill="#39ff14" />
<rect x="4" y="24" width="2" height="2" fill="#39ff14" />
<rect x="76" y="24" width="2" height="2" fill="#39ff14" />
<rect x="6" y="26" width="2" height="2" fill="#39ff14" />
<rect x="8" y="26" width="2" height="2" fill="#39ff14" />
<rect x="10" y="26" width="2" height="2" fill="#39ff14" />
<rect x="12" y="26" width="2" height="2" fill="#39ff14" />
<rect x="14" y="26" width="2" height="2" fill="#39ff14" />
<rect x="16" y="26" width="2" height="2" fill="#39ff14" />
<rect x="18" y="26" width="2" height="2" fill="#39ff14" />
<rect x="20" y="26" width="2" height="2" fill="#39ff14" />
<rect x="22" y="26" width="2" height="2" fill="#39ff14" />
<rect x="24" y="26" width="2" height="2" fill="#39ff14" />
<rect x="26" y="26" width="2" height="2" fill="#39ff14" />
<rect x="28" y="26" width="2" height="2" fill="#39ff14" />
<rect x="30" y="26" width="2" height="2" fill="#39ff14" />
<rect x="32" y="26" width="2" height="2" fill="#39ff14" />
<rect x="34" y="26" width="2" height="2" fill="#39ff14" />
<rect x="36" y="26" width="2" height="2" fill="#39ff14" />
<rect x="38" y="26" width="2" height="2" fill="#39ff14" />
<rect x="40" y="26" width="2" height="2" fill="#39ff14" />
<rect x="42" y="26" width="2" height="2" fill="#39ff14" />
<rect x="44" y="26" width="2" height="2" fill="#39ff14" />
<rect x="46" y="26" width="2" height="2" fill="#39ff14" />
<rect x="48" y="26" width="2" height="2" fill="#39ff14" />
<rect x="50" y="26" width="2" height="2" fill="#39ff14" />
<rect x="52" y="26" width="2" height="2" fill="#39ff14" />
<rect x="54" y="26" width="2" height="2" fill="#39ff14" />
<rect x="56" y="26" width="2" height="2" fill="#39ff14" />
<rect x="58" y="26" width="2" height="2" fill="#39ff14" />
<rect x="60" y="26" width="2" height="2" fill="#39ff14" />
<rect x="62" y="26" width="2" height="2" fill="#39ff14" />
<rect x="64" y="26" width="2" height="2" fill="#39ff14" />
<rect x="66" y="26" width="2" height="2" fill="#39ff14" />
<rect x="68" y="26" width="2" height="2" fill="#39ff14" />
<rect x="70" y="26" width="2" height="2" fill="#39ff14" />
<rect x="72" y="26" width="2" height="2" fill="#39ff14" />
<rect x="74" y="26" width="2" height="2" fill="#39ff14" />
<rect x="6" y="30" width="2" height="2" fill="#39ff14" />
<rect x="8" y="30" width="2" height="2" fill="#39ff14" />
<rect x="10" y="30" width="2" height="2" fill="#39ff14" />
<rect x="12" y="30" width="2" height="2" fill="#39ff14" />
<rect x="14" y="30" width="2" height="2" fill="#39ff14" />
<rect x="16" y="30" width="2" height="2" fill="#39ff14" />
<rect x="18" y="30" width="2" height="2" fill="#39ff14" />
<rect x="20" y="30" width="2" height="2" fill="#39ff14" />
<rect x="22" y="30" width="2" height="2" fill="#39ff14" />
<rect x="24" y="30" width="2" height="2" fill="#39ff14" />
<rect x="26" y="30" width="2" height="2" fill="#39ff14" />
<rect x="28" y="30" width="2" height="2" fill="#39ff14" />
<rect x="30" y="30" width="2" height="2" fill="#39ff14" />
<rect x="32" y="30" width="2" height="2" fill="#39ff14" />
<rect x="34" y="30" width="2" height="2" fill="#39ff14" />
<rect x="36" y="30" width="2" height="2" fill="#39ff14" />
<rect x="38" y="30" width="2" height="2" fill="#39ff14" />
<rect x="40" y="30" width="2" height="2" fill="#39ff14" />
<rect x="42" y="30" width="2" height="2" fill="#39ff14" />
<rect x="44" y="30" width="2" height="2" fill="#39ff14" />
<rect x="46" y="30" width="2" height="2" fill="#39ff14" />
<rect x="48" y="30" width="2" height="2" fill="#39ff14" />
<rect x="50" y="30" width="2" height="2" fill="#39ff14" />
<rect x="52" y="30" width="2" height="2" fill="#39ff14" />
<rect x="54" y="30" width="2" height="2" fill="#39ff14" />
<rect x="56" y="30" width="2" height="2" fill="#39ff14" />
<rect x="58" y="30" width="2" height="2" fill="#39ff14" />
<rect x="60" y="30" width="2" height="2" fill="#39ff14" />
<rect x="62" y="30" width="2" height="2" fill="#39ff14" />
<rect x="64" y="30" width="2" height="2" fill="#39ff14" />
<rect x="66" y="30" width="2" height="2" fill="#39ff14" />
<rect x="68" y="30" width="2" height="2" fill="#39ff14" />
<rect x="70" y="30" width="2" height="2" fill="#39ff14" />
<rect x="72" y="30" width="2" height="2" fill="#39ff14" />
<rect x="74" y="30" width="2" height="2" fill="#39ff14" />
<rect x="4" y="32" width="2" height="2" fill="#39ff14" />
<rect x="76" y="32" width="2" height="2" fill="#39ff14" />
<rect x="6" y="34" width="2" height="2" fill="#39ff14" />
<rect x="8" y="34" width="2" height="2" fill="#39ff14" />
<rect x="10" y="34" width="2" height="2" fill="#39ff14" />
<rect x="12" y="34" width="2" height="2" fill="#39ff14" />
<rect x="14" y="34" width="2" height="2" fill="#39ff14" />
<rect x="16" y="34" width="2" height="2" fill="#39ff14" />
<rect x="18" y="34" width="2" height="2" fill="#39ff14" />
<rect x="20" y="34" width="2" height="2" fill="#39ff14" />
<rect x="22" y="34" width="2" height="2" fill="#39ff14" />
<rect x="24" y="34" width="2" height="2" fill="#39ff14" />
<rect x="26" y="34" width="2" height="2" fill="#39ff14" />
<rect x="28" y="34" width="2" height="2" fill="#39ff14" />
<rect x="30" y="34" width="2" height="2" fill="#39ff14" />
<rect x="32" y="34" width="2" height="2" fill="#39ff14" />
<rect x="34" y="34" width="2" height="2" fill="#39ff14" />
<rect x="36" y="34" width="2" height="2" fill="#39ff14" />
<rect x="38" y="34" width="2" height="2" fill="#39ff14" />
<rect x="44" y="34" width="2" height="2" fill="#39ff14" />
<rect x="46" y="34" width="2" height="2" fill="#39ff14" />
<rect x="48" y="34" width="2" height="2" fill="#39ff14" />
<rect x="50" y="34" width="2" height="2" fill="#39ff14" />
<rect x="52" y="34" width="2" height="2" fill="#39ff14" />
<rect x="54" y="34" width="2" height="2" fill="#39ff14" />
<rect x="56" y="34" width="2" height="2" fill="#39ff14" />
<rect x="58" y="34" width="2" height="2" fill="#39ff14" />
<rect x="60" y="34" width="2" height="2" fill="#39ff14" />
<rect x="62" y="34" width="2" height="2" fill="#39ff14" />
<rect x="64" y="34" width="2" height="2" fill="#39ff14" />
<rect x="66" y="34" width="2" height="2" fill="#39ff14" />
<rect x="68" y="34" width="2" height="2" fill="#39ff14" />
<rect x="70" y="34" width="2" height="2" fill="#39ff14" />
<rect x="72" y="34" width="2" height="2" fill="#39ff14" />
<rect x="74" y="34" width="2" height="2" fill="#39ff14" />
<rect x="6" y="38" width="2" height="2" fill="#39ff14" />
<rect x="8" y="38" width="2" height="2" fill="#39ff14" />
<rect x="10" y="38" width="2" height="2" fill="#39ff14" />
<rect x="12" y="38" width="2" height="2" fill="#39ff14" />
<rect x="14" y="38" width="2" height="2" fill="#39ff14" />
<rect x="16" y="38" width="2" height="2" fill="#39ff14" />
<rect x="18" y="38" width="2" height="2" fill="#39ff14" />
<rect x="20" y="38" width="2" height="2" fill="#39ff14" />
<rect x="22" y="38" width="2" height="2" fill="#39ff14" />
<rect x="24" y="38" width="2" height="2" fill="#39ff14" />
<rect x="26" y="38" width="2" height="2" fill="#39ff14" />
<rect x="28" y="38" width="2" height="2" fill="#39ff14" />
<rect x="30" y="38" width="2" height="2" fill="#39ff14" />
<rect x="32" y="38" width="2" height="2" fill="#39ff14" />
<rect x="34" y="38" width="2" height="2" fill="#39ff14" />
<rect x="48" y="38" width="2" height="2" fill="#39ff14" />
<rect x="50" y="38" width="2" height="2" fill="#39ff14" />
<rect x="52" y="38" width="2" height="2" fill="#39ff14" />
<rect x="54" y="38" width="2" height="2" fill="#39ff14" />
<rect x="56" y="38" width="2" height="2" fill="#39ff14" />
<rect x="58" y="38" width="2" height="2" fill="#39ff14" />
<rect x="60" y="38" width="2" height="2" fill="#39ff14" />
<rect x="62" y="38" width="2" height="2" fill="#39ff14" />
<rect x="64" y="38" width="2" height="2" fill="#39ff14" />
<rect x="66" y="38" width="2" height="2" fill="#39ff14" />
<rect x="68" y="38" width="2" height="2" fill="#39ff14" />
<rect x="70" y="38" width="2" height="2" fill="#39ff14" />
<rect x="72" y="38" width="2" height="2" fill="#39ff14" />
<rect x="74" y="38" width="2" height="2" fill="#39ff14" />
<rect x="4" y="40" width="2" height="2" fill="#39ff14" />
<rect x="36" y="40" width="2" height="2" fill="#39ff14" />
<rect x="46" y="40" width="2" height="2" fill="#39ff14" />
<rect x="76" y="40" width="2" height="2" fill="#39ff14" />
<rect x="6" y="42" width="2" height="2" fill="#39ff14" />
<rect x="8" y="42" width="2" height="2" fill="#39ff14" />
<rect x="10" y="42" width="2" height="2" fill="#39ff14" />
<rect x="12" y="42" width="2" height="2" fill="#39ff14" />
<rect x="14" y="42" width="2" height="2" fill="#39ff14" />
<rect x="16" y="42" width="2" height="2" fill="#39ff14" />
<rect x="18" y="42" width="2" height="2" fill="#39ff14" />
<rect x="20" y="42" width="2" height="2" fill="#39ff14" />
<rect x="22" y="42" width="2" height="2" fill="#39ff14" />
<rect x="24" y="42" width="2" height="2" fill="#39ff14" />
<rect x="26" y="42" width="2" height="2" fill="#39ff14" />
<rect x="28" y="42" width="2" height="2" fill="#39ff14" />
<rect x="30" y="42" width="2" height="2" fill="#39ff14" />
<rect x="32" y="42" width="2" height="2" fill="#39ff14" />
<rect x="34" y="42" width="2" height="2" fill="#39ff14" />
<rect x="36" y="42" width="2" height="2" fill="#39ff14" />
<rect x="46" y="42" width="2" height="2" fill="#39ff14" />
<rect x="48" y="42" width="2" height="2" fill="#39ff14" />
<rect x="50" y="42" width="2" height="2" fill="#39ff14" />
<rect x="52" y="42" width="2" height="2" fill="#39ff14" />
<rect x="54" y="42" width="2" height="2" fill="#39ff14" />
<rect x="56" y="42" width="2" height="2" fill="#39ff14" />
<rect x="58" y="42" width="2" height="2" fill="#39ff14" />
<rect x="60" y="42" width="2" height="2" fill="#39ff14" />
<rect x="62" y="42" width="2" height="2" fill="#39ff14" />
<rect x="64" y="42" width="2" height="2" fill="#39ff14" />
<rect x="66" y="42" width="2" height="2" fill="#39ff14" />
<rect x="68" y="42" width="2" height="2" fill="#39ff14" />
<rect x="70" y="42" width="2" height="2" fill="#39ff14" />
<rect x="72" y="42" width="2" height="2" fill="#39ff14" />
<rect x="74" y="42" width="2" height="2" fill="#39ff14" />
<rect x="6" y="46" width="2" height="2" fill="#39ff14" />
<rect x="8" y="46" width="2" height="2" fill="#39ff14" />
<rect x="10" y="46" width="2" height="2" fill="#39ff14" />
<rect x="12" y="46" width="2" height="2" fill="#39ff14" />
<rect x="14" y="46" width="2" height="2" fill="#39ff14" />
<rect x="16" y="46" width="2" height="2" fill="#39ff14" />
<rect x="18" y="46" width="2" height="2" fill="#39ff14" />
<rect x="20" y="46" width="2" height="2" fill="#39ff14" />
<rect x="22" y="46" width="2" height="2" fill="#39ff14" />
<rect x="24" y="46" width="2" height="2" fill="#39ff14" />
<rect x="26" y="46" width="2" height="2" fill="#39ff14" />
<rect x="28" y="46" width="2" height="2" fill="#39ff14" />
<rect x="30" y="46" width="2" height="2" fill="#39ff14" />
<rect x="38" y="46" width="2" height="2" fill="#39ff14" />
<rect x="40" y="46" width="2" height="2" fill="#39ff14" />
<rect x="42" y="46" width="2" height="2" fill="#39ff14" />
<rect x="44" y="46" width="2" height="2" fill="#39ff14" />
<rect x="52" y="46" width="2" height="2" fill="#39ff14" />
<rect x="54" y="46" width="2" height="2" fill="#39ff14" />
<rect x="56" y="46" width="2" height="2" fill="#39ff14" />
<rect x="58" y="46" width="2" height="2" fill="#39ff14" />
<rect x="60" y="46" width="2" height="2" fill="#39ff14" />
<rect x="62" y="46" width="2" height="2" fill="#39ff14" />
<rect x="64" y="46" width="2" height="2" fill="#39ff14" />
<rect x="66" y="46" width="2" height="2" fill="#39ff14" />
<rect x="68" y="46" width="2" height="2" fill="#39ff14" />
<rect x="70" y="46" width="2" height="2" fill="#39ff14" />
<rect x="72" y="46" width="2" height="2" fill="#39ff14" />
<rect x="74" y="46" width="2" height="2" fill="#39ff14" />
<rect x="4" y="48" width="2" height="2" fill="#39ff14" />
<rect x="40" y="48" width="2" height="2" fill="#39ff14" />
<rect x="42" y="48" width="2" height="2" fill="#39ff14" />
<rect x="76" y="48" width="2" height="2" fill="#39ff14" />
<rect x="6" y="50" width="2" height="2" fill="#39ff14" />
<rect x="8" y="50" width="2" height="2" fill="#39ff14" />
<rect x="10" y="50" width="2" height="2" fill="#39ff14" />
<rect x="12" y="50" width="2" height="2" fill="#39ff14" />
<rect x="14" y="50" width="2" height="2" fill="#39ff14" />
<rect x="16" y="50" width="2" height="2" fill="#39ff14" />
<rect x="18" y="50" width="2" height="2" fill="#39ff14" />
<rect x="20" y="50" width="2" height="2" fill="#39ff14" />
<rect x="22" y="50" width="2" height="2" fill="#39ff14" />
<rect x="24" y="50" width="2" height="2" fill="#39ff14" />
<rect x="26" y="50" width="2" height="2" fill="#39ff14" />
<rect x="28" y="50" width="2" height="2" fill="#39ff14" />
<rect x="54" y="50" width="2" height="2" fill="#39ff14" />
<rect x="56" y="50" width="2" height="2" fill="#39ff14" />
<rect x="58" y="50" width="2" height="2" fill="#39ff14" />
<rect x="60" y="50" width="2" height="2" fill="#39ff14" />
<rect x="62" y="50" width="2" height="2" fill="#39ff14" />
<rect x="64" y="50" width="2" height="2" fill="#39ff14" />
<rect x="66" y="50" width="2" height="2" fill="#39ff14" />
<rect x="68" y="50" width="2" height="2" fill="#39ff14" />
<rect x="70" y="50" width="2" height="2" fill="#39ff14" />
<rect x="72" y="50" width="2" height="2" fill="#39ff14" />
<rect x="74" y="50" width="2" height="2" fill="#39ff14" />
<rect x="30" y="52" width="2" height="2" fill="#39ff14" />
<rect x="52" y="52" width="2" height="2" fill="#39ff14" />
<rect x="6" y="54" width="2" height="2" fill="#39ff14" />
<rect x="8" y="54" width="2" height="2" fill="#39ff14" />
<rect x="10" y="54" width="2" height="2" fill="#39ff14" />
<rect x="12" y="54" width="2" height="2" fill="#39ff14" />
<rect x="14" y="54" width="2" height="2" fill="#39ff14" />
<rect x="16" y="54" width="2" height="2" fill="#39ff14" />
<rect x="18" y="54" width="2" height="2" fill="#39ff14" />
<rect x="20" y="54" width="2" height="2" fill="#39ff14" />
<rect x="22" y="54" width="2" height="2" fill="#39ff14" />
<rect x="24" y="54" width="2" height="2" fill="#39ff14" />
<rect x="26" y="54" width="2" height="2" fill="#39ff14" />
<rect x="28" y="54" width="2" height="2" fill="#39ff14" />
<rect x="30" y="54" width="2" height="2" fill="#39ff14" />
<rect x="32" y="54" width="2" height="2" fill="#39ff14" />
<rect x="50" y="54" width="2" height="2" fill="#39ff14" />
<rect x="52" y="54" width="2" height="2" fill="#39ff14" />
<rect x="54" y="54" width="2" height="2" fill="#39ff14" />
<rect x="56" y="54" width="2" height="2" fill="#39ff14" />
<rect x="58" y="54" width="2" height="2" fill="#39ff14" />
<rect x="60" y="54" width="2" height="2" fill="#39ff14" />
<rect x="62" y="54" width="2" height="2" fill="#39ff14" />
<rect x="64" y="54" width="2" height="2" fill="#39ff14" />
<rect x="66" y="54" width="2" height="2" fill="#39ff14" />
<rect x="68" y="54" width="2" height="2" fill="#39ff14" />
<rect x="70" y="54" width="2" height="2" fill="#39ff14" />
<rect x="72" y="54" width="2" height="2" fill="#39ff14" />
<rect x="74" y="54" width="2" height="2" fill="#39ff14" />
<rect x="4" y="56" width="2" height="2" fill="#39ff14" />
<rect x="34" y="56" width="2" height="2" fill="#39ff14" />
<rect x="48" y="56" width="2" height="2" fill="#39ff14" />
<rect x="76" y="56" width="2" height="2" fill="#39ff14" />
<rect x="6" y="58" width="2" height="2" fill="#39ff14" />
<rect x="8" y="58" width="2" height="2" fill="#39ff14" />
<rect x="10" y="58" width="2" height="2" fill="#39ff14" />
<rect x="12" y="58" width="2" height="2" fill="#39ff14" />
<rect x="14" y="58" width="2" height="2" fill="#39ff14" />
<rect x="16" y="58" width="2" height="2" fill="#39ff14" />
<rect x="18" y="58" width="2" height="2" fill="#39ff14" />
<rect x="20" y="58" width="2" height="2" fill="#39ff14" />
<rect x="22" y="58" width="2" height="2" fill="#39ff14" />
<rect x="24" y="58" width="2" height="2" fill="#39ff14" />
<rect x="26" y="58" width="2" height="2" fill="#39ff14" />
<rect x="28" y="58" width="2" height="2" fill="#39ff14" />
<rect x="30" y="58" width="2" height="2" fill="#39ff14" />
<rect x="32" y="58" width="2" height="2" fill="#39ff14" />
<rect x="34" y="58" width="2" height="2" fill="#39ff14" />
<rect x="48" y="58" width="2" height="2" fill="#39ff14" />
<rect x="50" y="58" width="2" height="2" fill="#39ff14" />
<rect x="52" y="58" width="2" height="2" fill="#39ff14" />
<rect x="54" y="58" width="2" height="2" fill="#39ff14" />
<rect x="56" y="58" width="2" height="2" fill="#39ff14" />
<rect x="58" y="58" width="2" height="2" fill="#39ff14" />
<rect x="60" y="58" width="2" height="2" fill="#39ff14" />
<rect x="62" y="58" width="2" height="2" fill="#39ff14" />
<rect x="64" y="58" width="2" height="2" fill="#39ff14" />
<rect x="66" y="58" width="2" height="2" fill="#39ff14" />
<rect x="68" y="58" width="2" height="2" fill="#39ff14" />
<rect x="70" y="58" width="2" height="2" fill="#39ff14" />
<rect x="72" y="58" width="2" height="2" fill="#39ff14" />
<rect x="74" y="58" width="2" height="2" fill="#39ff14" />
<rect x="24" y="60" width="2" height="2" fill="#39ff14" />
<rect x="26" y="60" width="2" height="2" fill="#39ff14" />
<rect x="36" y="60" width="2" height="2" fill="#39ff14" />
<rect x="46" y="60" width="2" height="2" fill="#39ff14" />
<rect x="56" y="60" width="2" height="2" fill="#39ff14" />
<rect x="58" y="60" width="2" height="2" fill="#39ff14" />
<rect x="6" y="62" width="2" height="2" fill="#39ff14" />
<rect x="8" y="62" width="2" height="2" fill="#39ff14" />
<rect x="10" y="62" width="2" height="2" fill="#39ff14" />
<rect x="12" y="62" width="2" height="2" fill="#39ff14" />
<rect x="14" y="62" width="2" height="2" fill="#39ff14" />
<rect x="16" y="62" width="2" height="2" fill="#39ff14" />
<rect x="18" y="62" width="2" height="2" fill="#39ff14" />
<rect x="32" y="62" width="2" height="2" fill="#39ff14" />
<rect x="34" y="62" width="2" height="2" fill="#39ff14" />
<rect x="36" y="62" width="2" height="2" fill="#39ff14" />
<rect x="38" y="62" width="2" height="2" fill="#39ff14" />
<rect x="44" y="62" width="2" height="2" fill="#39ff14" />
<rect x="46" y="62" width="2" height="2" fill="#39ff14" />
<rect x="48" y="62" width="2" height="2" fill="#39ff14" />
<rect x="50" y="62" width="2" height="2" fill="#39ff14" />
<rect x="64" y="62" width="2" height="2" fill="#39ff14" />
<rect x="66" y="62" width="2" height="2" fill="#39ff14" />
<rect x="68" y="62" width="2" height="2" fill="#39ff14" />
<rect x="70" y="62" width="2" height="2" fill="#39ff14" />
<rect x="72" y="62" width="2" height="2" fill="#39ff14" />
<rect x="74" y="62" width="2" height="2" fill="#39ff14" />
<rect x="4" y="64" width="2" height="2" fill="#39ff14" />
<rect x="20" y="64" width="2" height="2" fill="#39ff14" />
<rect x="28" y="64" width="2" height="2" fill="#39ff14" />
<rect x="30" y="64" width="2" height="2" fill="#39ff14" />
<rect x="38" y="64" width="2" height="2" fill="#39ff14" />
<rect x="44" y="64" width="2" height="2" fill="#39ff14" />
<rect x="52" y="64" width="2" height="2" fill="#39ff14" />
<rect x="54" y="64" width="2" height="2" fill="#39ff14" />
<rect x="62" y="64" width="2" height="2" fill="#39ff14" />
<rect x="76" y="64" width="2" height="2" fill="#39ff14" />
<rect x="6" y="66" width="2" height="2" fill="#39ff14" />
<rect x="8" y="66" width="2" height="2" fill="#39ff14" />
<rect x="10" y="66" width="2" height="2" fill="#39ff14" />
<rect x="12" y="66" width="2" height="2" fill="#39ff14" />
<rect x="14" y="66" width="2" height="2" fill="#39ff14" />
<rect x="16" y="66" width="2" height="2" fill="#39ff14" />
<rect x="18" y="66" width="2" height="2" fill="#39ff14" />
<rect x="38" y="66" width="2" height="2" fill="#39ff14" />
<rect x="44" y="66" width="2" height="2" fill="#39ff14" />
<rect x="64" y="66" width="2" height="2" fill="#39ff14" />
<rect x="66" y="66" width="2" height="2" fill="#39ff14" />
<rect x="68" y="66" width="2" height="2" fill="#39ff14" />
<rect x="70" y="66" width="2" height="2" fill="#39ff14" />
<rect x="72" y="66" width="2" height="2" fill="#39ff14" />
<rect x="74" y="66" width="2" height="2" fill="#39ff14" />
<rect x="22" y="68" width="2" height="2" fill="#39ff14" />
<rect x="34" y="68" width="2" height="2" fill="#39ff14" />
<rect x="48" y="68" width="2" height="2" fill="#39ff14" />
<rect x="60" y="68" width="2" height="2" fill="#39ff14" />
<rect x="6" y="70" width="2" height="2" fill="#39ff14" />
<rect x="8" y="70" width="2" height="2" fill="#39ff14" />
<rect x="10" y="70" width="2" height="2" fill="#39ff14" />
<rect x="12" y="70" width="2" height="2" fill="#39ff14" />
<rect x="14" y="70" width="2" height="2" fill="#39ff14" />
<rect x="16" y="70" width="2" height="2" fill="#39ff14" />
<rect x="18" y="70" width="2" height="2" fill="#39ff14" />
<rect x="20" y="70" width="2" height="2" fill="#39ff14" />
<rect x="22" y="70" width="2" height="2" fill="#39ff14" />
<rect x="36" y="70" width="2" height="2" fill="#39ff14" />
<rect x="46" y="70" width="2" height="2" fill="#39ff14" />
<rect x="60" y="70" width="2" height="2" fill="#39ff14" />
<rect x="62" y="70" width="2" height="2" fill="#39ff14" />
<rect x="64" y="70" width="2" height="2" fill="#39ff14" />
<rect x="66" y="70" width="2" height="2" fill="#39ff14" />
<rect x="68" y="70" width="2" height="2" fill="#39ff14" />
<rect x="70" y="70" width="2" height="2" fill="#39ff14" />
<rect x="72" y="70" width="2" height="2" fill="#39ff14" />
<rect x="74" y="70" width="2" height="2" fill="#39ff14" />
<rect x="4" y="72" width="2" height="2" fill="#39ff14" />
<rect x="24" y="72" width="2" height="2" fill="#39ff14" />
<rect x="34" y="72" width="2" height="2" fill="#39ff14" />
<rect x="36" y="72" width="2" height="2" fill="#39ff14" />
<rect x="40" y="72" width="2" height="2" fill="#39ff14" />
<rect x="42" y="72" width="2" height="2" fill="#39ff14" />
<rect x="46" y="72" width="2" height="2" fill="#39ff14" />
<rect x="48" y="72" width="2" height="2" fill="#39ff14" />
<rect x="58" y="72" width="2" height="2" fill="#39ff14" />
<rect x="76" y="72" width="2" height="2" fill="#39ff14" />
<rect x="6" y="74" width="2" height="2" fill="#39ff14" />
<rect x="8" y="74" width="2" height="2" fill="#39ff14" />
<rect x="10" y="74" width="2" height="2" fill="#39ff14" />
<rect x="12" y="74" width="2" height="2" fill="#39ff14" />
<rect x="14" y="74" width="2" height="2" fill="#39ff14" />
<rect x="16" y="74" width="2" height="2" fill="#39ff14" />
<rect x="18" y="74" width="2" height="2" fill="#39ff14" />
<rect x="20" y="74" width="2" height="2" fill="#39ff14" />
<rect x="22" y="74" width="2" height="2" fill="#39ff14" />
<rect x="24" y="74" width="2" height="2" fill="#39ff14" />
<rect x="26" y="74" width="2" height="2" fill="#39ff14" />
<rect x="36" y="74" width="2" height="2" fill="#39ff14" />
<rect x="46" y="74" width="2" height="2" fill="#39ff14" />
<rect x="56" y="74" width="2" height="2" fill="#39ff14" />
<rect x="58" y="74" width="2" height="2" fill="#39ff14" />
<rect x="60" y="74" width="2" height="2" fill="#39ff14" />
<rect x="62" y="74" width="2" height="2" fill="#39ff14" />
<rect x="64" y="74" width="2" height="2" fill="#39ff14" />
<rect x="66" y="74" width="2" height="2" fill="#39ff14" />
<rect x="68" y="74" width="2" height="2" fill="#39ff14" />
<rect x="70" y="74" width="2" height="2" fill="#39ff14" />
<rect x="72" y="74" width="2" height="2" fill="#39ff14" />
<rect x="74" y="74" width="2" height="2" fill="#39ff14" />
<rect x="28" y="76" width="2" height="2" fill="#39ff14" />
<rect x="30" y="76" width="2" height="2" fill="#39ff14" />
<rect x="40" y="76" width="2" height="2" fill="#39ff14" />
<rect x="42" y="76" width="2" height="2" fill="#39ff14" />
<rect x="52" y="76" width="2" height="2" fill="#39ff14" />
<rect x="54" y="76" width="2" height="2" fill="#39ff14" />
<rect x="6" y="78" width="2" height="2" fill="#39ff14" />
<rect x="8" y="78" width="2" height="2" fill="#39ff14" />
<rect x="10" y="78" width="2" height="2" fill="#39ff14" />
<rect x="12" y="78" width="2" height="2" fill="#39ff14" />
<rect x="14" y="78" width="2" height="2" fill="#39ff14" />
<rect x="16" y="78" width="2" height="2" fill="#39ff14" />
<rect x="18" y="78" width="2" height="2" fill="#39ff14" />
<rect x="24" y="78" width="2" height="2" fill="#39ff14" />
<rect x="26" y="78" width="2" height="2" fill="#39ff14" />
<rect x="28" y="78" width="2" height="2" fill="#39ff14" />
<rect x="32" y="78" width="2" height="2" fill="#39ff14" />
<rect x="38" y="78" width="2" height="2" fill="#39ff14" />
<rect x="44" y="78" width="2" height="2" fill="#39ff14" />
<rect x="50" y="78" width="2" height="2" fill="#39ff14" />
<rect x="54" y="78" width="2" height="2" fill="#39ff14" />
<rect x="56" y="78" width="2" height="2" fill="#39ff14" />
<rect x="58" y="78" width="2" height="2" fill="#39ff14" />
<rect x="64" y="78" width="2" height="2" fill="#39ff14" />
<rect x="66" y="78" width="2" height="2" fill="#39ff14" />
<rect x="68" y="78" width="2" height="2" fill="#39ff14" />
<rect x="70" y="78" width="2" height="2" fill="#39ff14" />
<rect x="72" y="78" width="2" height="2" fill="#39ff14" />
<rect x="74" y="78" width="2" height="2" fill="#39ff14" />
<rect x="4" y="80" width="2" height="2" fill="#39ff14" />
<rect x="34" y="80" width="2" height="2" fill="#39ff14" />
<rect x="36" y="80" width="2" height="2" fill="#39ff14" />
<rect x="38" y="80" width="2" height="2" fill="#39ff14" />
<rect x="44" y="80" width="2" height="2" fill="#39ff14" />
<rect x="46" y="80" width="2" height="2" fill="#39ff14" />
<rect x="48" y="80" width="2" height="2" fill="#39ff14" />
<rect x="76" y="80" width="2" height="2" fill="#39ff14" />
<rect x="6" y="82" width="2" height="2" fill="#39ff14" />
<rect x="8" y="82" width="2" height="2" fill="#39ff14" />
<rect x="10" y="82" width="2" height="2" fill="#39ff14" />
<rect x="12" y="82" width="2" height="2" fill="#39ff14" />
<rect x="14" y="82" width="2" height="2" fill="#39ff14" />
<rect x="28" y="82" width="2" height="2" fill="#39ff14" />
<rect x="30" y="82" width="2" height="2" fill="#39ff14" />
<rect x="32" y="82" width="2" height="2" fill="#39ff14" />
<rect x="36" y="82" width="2" height="2" fill="#39ff14" />
<rect x="46" y="82" width="2" height="2" fill="#39ff14" />
<rect x="50" y="82" width="2" height="2" fill="#39ff14" />
<rect x="52" y="82" width="2" height="2" fill="#39ff14" />
<rect x="54" y="82" width="2" height="2" fill="#39ff14" />
<rect x="68" y="82" width="2" height="2" fill="#39ff14" />
<rect x="70" y="82" width="2" height="2" fill="#39ff14" />
<rect x="72" y="82" width="2" height="2" fill="#39ff14" />
<rect x="74" y="82" width="2" height="2" fill="#39ff14" />
<rect x="16" y="84" width="2" height="2" fill="#39ff14" />
<rect x="26" y="84" width="2" height="2" fill="#39ff14" />
<rect x="56" y="84" width="2" height="2" fill="#39ff14" />
<rect x="66" y="84" width="2" height="2" fill="#39ff14" />
<rect x="6" y="86" width="2" height="2" fill="#39ff14" />
<rect x="8" y="86" width="2" height="2" fill="#39ff14" />
<rect x="10" y="86" width="2" height="2" fill="#39ff14" />
<rect x="12" y="86" width="2" height="2" fill="#39ff14" />
<rect x="14" y="86" width="2" height="2" fill="#39ff14" />
<rect x="16" y="86" width="2" height="2" fill="#39ff14" />
<rect x="34" y="86" width="2" height="2" fill="#39ff14" />
<rect x="48" y="86" width="2" height="2" fill="#39ff14" />
<rect x="66" y="86" width="2" height="2" fill="#39ff14" />
<rect x="68" y="86" width="2" height="2" fill="#39ff14" />
<rect x="70" y="86" width="2" height="2" fill="#39ff14" />
<rect x="72" y="86" width="2" height="2" fill="#39ff14" />
<rect x="74" y="86" width="2" height="2" fill="#39ff14" />
<rect x="4" y="88" width="2" height="2" fill="#39ff14" />
<rect x="18" y="88" width="2" height="2" fill="#39ff14" />
<rect x="26" y="88" width="2" height="2" fill="#39ff14" />
<rect x="28" y="88" width="2" height="2" fill="#39ff14" />
<rect x="34" y="88" width="2" height="2" fill="#39ff14" />
<rect x="40" y="88" width="2" height="2" fill="#39ff14" />
<rect x="42" y="88" width="2" height="2" fill="#39ff14" />
<rect x="48" y="88" width="2" height="2" fill="#39ff14" />
<rect x="54" y="88" width="2" height="2" fill="#39ff14" />
<rect x="56" y="88" width="2" height="2" fill="#39ff14" />
<rect x="64" y="88" width="2" height="2" fill="#39ff14" />
<rect x="76" y="88" width="2" height="2" fill="#39ff14" />
<rect x="6" y="90" width="2" height="2" fill="#39ff14" />
<rect x="8" y="90" width="2" height="2" fill="#39ff14" />
<rect x="10" y="90" width="2" height="2" fill="#39ff14" />
<rect x="12" y="90" width="2" height="2" fill="#39ff14" />
<rect x="14" y="90" width="2" height="2" fill="#39ff14" />
<rect x="16" y="90" width="2" height="2" fill="#39ff14" />
<rect x="18" y="90" width="2" height="2" fill="#39ff14" />
<rect x="20" y="90" width="2" height="2" fill="#39ff14" />
<rect x="32" y="90" width="2" height="2" fill="#39ff14" />
<rect x="36" y="90" width="2" height="2" fill="#39ff14" />
<rect x="38" y="90" width="2" height="2" fill="#39ff14" />
<rect x="44" y="90" width="2" height="2" fill="#39ff14" />
<rect x="46" y="90" width="2" height="2" fill="#39ff14" />
<rect x="50" y="90" width="2" height="2" fill="#39ff14" />
<rect x="62" y="90" width="2" height="2" fill="#39ff14" />
<rect x="64" y="90" width="2" height="2" fill="#39ff14" />
<rect x="66" y="90" width="2" height="2" fill="#39ff14" />
<rect x="68" y="90" width="2" height="2" fill="#39ff14" />
<rect x="70" y="90" width="2" height="2" fill="#39ff14" />
<rect x="72" y="90" width="2" height="2" fill="#39ff14" />
<rect x="74" y="90" width="2" height="2" fill="#39ff14" />
<rect x="22" y="92" width="2" height="2" fill="#39ff14" />
<rect x="28" y="92" width="2" height="2" fill="#39ff14" />
<rect x="32" y="92" width="2" height="2" fill="#39ff14" />
<rect x="34" y="92" width="2" height="2" fill="#39ff14" />
<rect x="48" y="92" width="2" height="2" fill="#39ff14" />
<rect x="50" y="92" width="2" height="2" fill="#39ff14" />
<rect x="54" y="92" width="2" height="2" fill="#39ff14" />
<rect x="60" y="92" width="2" height="2" fill="#39ff14" />
<rect x="6" y="94" width="2" height="2" fill="#39ff14" />
<rect x="8" y="94" width="2" height="2" fill="#39ff14" />
<rect x="10" y="94" width="2" height="2" fill="#39ff14" />
<rect x="12" y="94" width="2" height="2" fill="#39ff14" />
<rect x="14" y="94" width="2" height="2" fill="#39ff14" />
<rect x="16" y="94" width="2" height="2" fill="#39ff14" />
<rect x="18" y="94" width="2" height="2" fill="#39ff14" />
<rect x="20" y="94" width="2" height="2" fill="#39ff14" />
<rect x="22" y="94" width="2" height="2" fill="#39ff14" />
<rect x="30" y="94" width="2" height="2" fill="#39ff14" />
<rect x="32" y="94" width="2" height="2" fill="#39ff14" />
<rect x="50" y="94" width="2" height="2" fill="#39ff14" />
<rect x="52" y="94" width="2" height="2" fill="#39ff14" />
<rect x="60" y="94" width="2" height="2" fill="#39ff14" />
<rect x="62" y="94" width="2" height="2" fill="#39ff14" />
<rect x="64" y="94" width="2" height="2" fill="#39ff14" />
<rect x="66" y="94" width="2" height="2" fill="#39ff14" />
<rect x="68" y="94" width="2" height="2" fill="#39ff14" />
<rect x="70" y="94" width="2" height="2" fill="#39ff14" />
<rect x="72" y="94" width="2" height="2" fill="#39ff14" />
<rect x="74" y="94" width="2" height="2" fill="#39ff14" />
<rect x="4" y="96" width="2" height="2" fill="#39ff14" />
<rect x="26" y="96" width="2" height="2" fill="#39ff14" />
<rect x="56" y="96" width="2" height="2" fill="#39ff14" />
<rect x="76" y="96" width="2" height="2" fill="#39ff14" />
<rect x="6" y="98" width="2" height="2" fill="#39ff14" />
<rect x="8" y="98" width="2" height="2" fill="#39ff14" />
<rect x="10" y="98" width="2" height="2" fill="#39ff14" />
<rect x="12" y="98" width="2" height="2" fill="#39ff14" />
<rect x="14" y="98" width="2" height="2" fill="#39ff14" />
<rect x="16" y="98" width="2" height="2" fill="#39ff14" />
<rect x="18" y="98" width="2" height="2" fill="#39ff14" />
<rect x="20" y="98" width="2" height="2" fill="#39ff14" />
<rect x="22" y="98" width="2" height="2" fill="#39ff14" />
<rect x="24" y="98" width="2" height="2" fill="#39ff14" />
<rect x="26" y="98" width="2" height="2" fill="#39ff14" />
<rect x="28" y="98" width="2" height="2" fill="#39ff14" />
<rect x="30" y="98" width="2" height="2" fill="#39ff14" />
<rect x="32" y="98" width="2" height="2" fill="#39ff14" />
<rect x="34" y="98" width="2" height="2" fill="#39ff14" />
<rect x="36" y="98" width="2" height="2" fill="#39ff14" />
<rect x="46" y="98" width="2" height="2" fill="#39ff14" />
<rect x="48" y="98" width="2" height="2" fill="#39ff14" />
<rect x="50" y="98" width="2" height="2" fill="#39ff14" />
<rect x="52" y="98" width="2" height="2" fill="#39ff14" />
<rect x="54" y="98" width="2" height="2" fill="#39ff14" />
<rect x="56" y="98" width="2" height="2" fill="#39ff14" />
<rect x="58" y="98" width="2" height="2" fill="#39ff14" />
<rect x="60" y="98" width="2" height="2" fill="#39ff14" />
<rect x="62" y="98" width="2" height="2" fill="#39ff14" />
<rect x="64" y="98" width="2" height="2" fill="#39ff14" />
<rect x="66" y="98" width="2" height="2" fill="#39ff14" />
<rect x="68" y="98" width="2" height="2" fill="#39ff14" />
<rect x="70" y="98" width="2" height="2" fill="#39ff14" />
<rect x="72" y="98" width="2" height="2" fill="#39ff14" />
<rect x="74" y="98" width="2" height="2" fill="#39ff14" />
<rect x="38" y="100" width="2" height="2" fill="#39ff14" />
<rect x="40" y="100" width="2" height="2" fill="#39ff14" />
<rect x="42" y="100" width="2" height="2" fill="#39ff14" />
<rect x="44" y="100" width="2" height="2" fill="#39ff14" />
<rect x="6" y="102" width="2" height="2" fill="#39ff14" />
<rect x="8" y="102" width="2" height="2" fill="#39ff14" />
<rect x="10" y="102" width="2" height="2" fill="#39ff14" />
<rect x="12" y="102" width="2" height="2" fill="#39ff14" />
<rect x="14" y="102" width="2" height="2" fill="#39ff14" />
<rect x="16" y="102" width="2" height="2" fill="#39ff14" />
<rect x="18" y="102" width="2" height="2" fill="#39ff14" />
<rect x="20" y="102" width="2" height="2" fill="#39ff14" />
<rect x="22" y="102" width="2" height="2" fill="#39ff14" />
<rect x="24" y="102" width="2" height="2" fill="#39ff14" />
<rect x="26" y="102" width="2" height="2" fill="#39ff14" />
<rect x="28" y="102" width="2" height="2" fill="#39ff14" />
<rect x="30" y="102" width="2" height="2" fill="#39ff14" />
<rect x="32" y="102" width="2" height="2" fill="#39ff14" />
<rect x="34" y="102" width="2" height="2" fill="#39ff14" />
<rect x="36" y="102" width="2" height="2" fill="#39ff14" />
<rect x="38" y="102" width="2" height="2" fill="#39ff14" />
<rect x="44" y="102" width="2" height="2" fill="#39ff14" />
<rect x="46" y="102" width="2" height="2" fill="#39ff14" />
<rect x="48" y="102" width="2" height="2" fill="#39ff14" />
<rect x="50" y="102" width="2" height="2" fill="#39ff14" />
<rect x="52" y="102" width="2" height="2" fill="#39ff14" />
<rect x="54" y="102" width="2" height="2" fill="#39ff14" />
<rect x="56" y="102" width="2" height="2" fill="#39ff14" />
<rect x="58" y="102" width="2" height="2" fill="#39ff14" />
<rect x="60" y="102" width="2" height="2" fill="#39ff14" />
<rect x="62" y="102" width="2" height="2" fill="#39ff14" />
<rect x="64" y="102" width="2" height="2" fill="#39ff14" />
<rect x="66" y="102" width="2" height="2" fill="#39ff14" />
<rect x="68" y="102" width="2" height="2" fill="#39ff14" />
<rect x="70" y="102" width="2" height="2" fill="#39ff14" />
<rect x="72" y="102" width="2" height="2" fill="#39ff14" />
<rect x="74" y="102" width="2" height="2" fill="#39ff14" />
<rect x="4" y="104" width="2" height="2" fill="#39ff14" />
<rect x="76" y="104" width="2" height="2" fill="#39ff14" />
<rect x="6" y="106" width="2" height="2" fill="#39ff14" />
<rect x="8" y="106" width="2" height="2" fill="#39ff14" />
<rect x="10" y="106" width="2" height="2" fill="#39ff14" />
<rect x="12" y="106" width="2" height="2" fill="#39ff14" />
<rect x="14" y="106" width="2" height="2" fill="#39ff14" />
<rect x="16" y="106" width="2" height="2" fill="#39ff14" />
<rect x="18" y="106" width="2" height="2" fill="#39ff14" />
<rect x="20" y="106" width="2" height="2" fill="#39ff14" />
<rect x="22" y="106" width="2" height="2" fill="#39ff14" />
<rect x="24" y="106" width="2" height="2" fill="#39ff14" />
<rect x="26" y="106" width="2" height="2" fill="#39ff14" />
<rect x="28" y="106" width="2" height="2" fill="#39ff14" />
<rect x="30" y="106" width="2" height="2" fill="#39ff14" />
<rect x="32" y="106" width="2" height="2" fill="#39ff14" />
<rect x="34" y="106" width="2" height="2" fill="#39ff14" />
<rect x="36" y="106" width="2" height="2" fill="#39ff14" />
<rect x="38" y="106" width="2" height="2" fill="#39ff14" />
<rect x="40" y="106" width="2" height="2" fill="#39ff14" />
<rect x="42" y="106" width="2" height="2" fill="#39ff14" />
<rect x="44" y="106" width="2" height="2" fill="#39ff14" />
<rect x="46" y="106" width="2" height="2" fill="#39ff14" />
<rect x="48" y="106" width="2" height="2" fill="#39ff14" />
<rect x="50" y="106" width="2" height="2" fill="#39ff14" />
<rect x="52" y="106" width="2" height="2" fill="#39ff14" />
<rect x="54" y="106" width="2" height="2" fill="#39ff14" />
<rect x="56" y="106" width="2" height="2" fill="#39ff14" />
<rect x="58" y="106" width="2" height="2" fill="#39ff14" />
<rect x="60" y="106" width="2" height="2" fill="#39ff14" />
<rect x="62" y="106" width="2" height="2" fill="#39ff14" />
<rect x="64" y="106" width="2" height="2" fill="#39ff14" />
<rect x="66" y="106" width="2" height="2" fill="#39ff14" />
<rect x="68" y="106" width="2" height="2" fill="#39ff14" />
<rect x="70" y="106" width="2" height="2" fill="#39ff14" />
<rect x="72" y="106" width="2" height="2" fill="#39ff14" />
<rect x="74" y="106" width="2" height="2" fill="#39ff14" />
<rect x="10" y="108" width="2" height="2" fill="#39ff14" />
<rect x="16" y="108" width="2" height="2" fill="#39ff14" />
<rect x="22" y="108" width="2" height="2" fill="#39ff14" />
<rect x="28" y="108" width="2" height="2" fill="#39ff14" />
<rect x="34" y="108" width="2" height="2" fill="#39ff14" />
<rect x="40" y="108" width="2" height="2" fill="#39ff14" />
<rect x="46" y="108" width="2" height="2" fill="#39ff14" />
<rect x="52" y="108" width="2" height="2" fill="#39ff14" />
<rect x="58" y="108" width="2" height="2" fill="#39ff14" />
<rect x="64" y="108" width="2" height="2" fill="#39ff14" />
<rect x="70" y="108" width="2" height="2" fill="#39ff14" />
</svg>