<?xml version="1.0" encoding="utf-8"?>
<svg xmlns="http://www.w3.org/2000/svg" width="119" height="119" viewBox="0 0 119 119">
<rect width="100%" height="100%" fill="transparent" />
<rect x="37" y="4" width="3" height="3" fill="#39ff14" />
<rect x="40" y="4" width="3" height="3" fill="#39ff14" />
<rect x="76" y="4" width="3" height="3" fill="#39ff14" />
<rect x="79" y="4" width="3" height="3" fill="#39ff14" />
<rect x="37" y="7" width="3" height="3" fill="#39ff14" />
<rect x="40" y="7" width="3" height="3" fill="#39ff14" />
<rect x="76" y="7" width="3" height="3" fill="#39ff14" />
<rect x="79" y="7" width="3" height="3" fill="#39ff14" />
<rect x="22" y="16" width="3" height="3" fill="#39ff14" />
<rect x="94" y="16" width="3" height="3" fill="#39ff14" />
<rect x="19" y="19" width="3" height="3" fill="#39ff14" />
<rect x="25" y="19" width="3" height="3" fill="#39ff14" />
<rect x="43" y="19" width="3" height="3" fill="#39ff14" />
<rect x="73" y="19" width="3" height="3" fill="#39ff14" />
<rect x="91" y="19" width="3" height="3" fill="#39ff14" />
<rect x="97" y="19" width="3" height="3" fill="#39ff14" />
<rect x="16" y="22" width="3" height="3" fill="#39ff14" />
<rect x="25" y="22" width="3" height="3" fill="#39ff14" />
<rect x="43" y="22" width="3" height="3" fill="#39ff14" />
<rect x="49" y="22" width="3" height="3" fill="#39ff14" />
<rect x="52" y="22" width="3" height="3" fill="#39ff14" />
<rect x="64" y="22" width="3" height="3" fill="#39ff14" />
<rect x="67" y="22" width="3" height="3" fill="#39ff14" />
<rect x="73" y="22" width="3" height="3" fill="#39ff14" />
<rect x="91" y="22" width="3" height="3" fill="#39ff14" />
<rect x="100" y="22" width="3" height="3" fill="#39ff14" />
<rect x="19" y="25" width="3" height="3" fill="#39ff14" />
<rect x="22" y="25" width="3" height="3" fill="#39ff14" />
<rect x="55" y="25" width="3" height="3" fill="#39ff14" />
<rect x="61" y="25" width="3" height="3" fill="#39ff14" />
<rect x="94" y="25" width="3" height="3" fill="#39ff14" />
<rect x="97" y="25" width="3" height="3" fill="#39ff14" />
<rect x="49" y="28" width="3" height="3" fill="#39ff14" />
<rect x="55" y="28" width="3" height="3" fill="#39ff14" />
<rect x="61" y="28" width="3" height="3" fill="#39ff14" />
<rect x="67" y="28" width="3" height="3" fill="#39ff14" />
<rect x="52" y="31" width="3" height="3" fill="#39ff14" />
<rect x="64" y="31" width="3" height="3" fill="#39ff14" />
<rect x="4" y="37" width="3" height="3" fill="#39ff14" />
<rect x="7" y="37" width="3" height="3" fill="#39ff14" />
<rect x="109" y="37" width="3" height="3" fill="#39ff14" />
<rect x="112" y="37" width="3" height="3" fill="#39ff14" />
<rect x="4" y="40" width="3" height="3" fill="#39ff14" />
<rect x="7" y="40" width="3" height="3" fill="#39ff14" />
<rect x="109" y="40" width="3" height="3" fill="#39ff14" />
<rect x="112" y="40" width="3" height="3" fill="#39ff14" />
<rect x="19" y="43" width="3" height="3" fill="#39ff14" />
<rect x="22" y="43" width="3" height="3" fill="#39ff14" />
<rect x="94" y="43" width="3" height="3" fill="#39ff14" />
<rect x="97" y="43" width="3" height="3" fill="#39ff14" />
<rect x="22" y="49" width="3" height="3" fill="#39ff14" />
<rect x="28" y="49" width="3" height="3" fill="#39ff14" />
<rect x="88" y="49" width="3" height="3" fill="#39ff14" />
<rect x="94" y="49" width="3" height="3" fill="#39ff14" />
<rect x="22" y="52" width="3" height="3" fill="#39ff14" />
<rect x="31" y="52" width="3" height="3" fill="#39ff14" />
<rect x="85" y="52" width="3" height="3" fill="#39ff14" />
<rect x="94" y="52" width="3" height="3" fill="#39ff14" />
<rect x="25" y="55" width="3" height="3" fill="#39ff14" />
<rect x="28" y="55" width="3" height="3" fill="#39ff14" />
<rect x="88" y="55" width="3" height="3" fill="#39ff14" />
<rect x="91" y="55" width="3" height="3" fill="#39ff14" />
<rect x="25" y="61" width="3" height="3" fill="#39ff14" />
<rect x="28" y="61" width="3" height="3" fill="#39ff14" />
<rect x="88" y="61" width="3" height="3" fill="#39ff14" />
<rect x="91" y="61" width="3" height="3" fill="#39ff14" />
<rect x="22" y="64" width="3" height="3" fill="#39ff14" />
<rect x="31" y="64" width="3" height="3" fill="#39ff14" />
<rect x="85" y="64" width="3" height="3" fill="#39ff14" />
<rect x="94" y="64" width="3" height="3" fill="#39ff14" />
<rect x="22" y="67" width="3" height="3" fill="#39ff14" />
<rect x="28" y="67" width="3" height="3" fill="#39ff14" />
<rect x="88" y="67" width="3" height="3" fill="#39ff14" />
<rect x="94" y="67" width="3" height="3" fill="#39ff14" />
<rect x="19" y="73" width="3" height="3" fill="#39ff14" />
<rect x="22" y="73" width="3" height="3" fill="#39ff14" />
<rect x="94" y="73" width="3" height="3" fill="#39ff14" />
<rect x="97" y="73" width="3" height="3" fill="#39ff14" />
<rect x="4" y="76" width="3" height="3" fill="#39ff14" />
<rect x="7" y="76" width="3" height="3" fill="#39ff14" />
<rect x="109" y="76" width="3" height="3" fill="#39ff14" />
<rect x="112" y="76" width="3" height="3" fill="#39ff14" />
<rect x="4" y="79" width="3" height="3" fill="#39ff14" />
<rect x="7" y="79" width="3" height="3" fill="#39ff14" />
<rect x="109" y="79" width="3" height="3" fill="#39ff14" />
<rect x="112" y="79" width="3" height="3" fill="#39ff14" />
<rect x="52" y="85" width="3" height="3" fill="#39ff14" />
<rect x="64" y="85" width="3" height="3" fill="#39ff14" />
<rect x="49" y="88" width="3" height="3" fill="#39ff14" />
<rect x="55" y="88" width="3" height="3" fill="#39ff14" />
<rect x="61" y="88" width="3" height="3" fill="#39ff14" />
<rect x="67" y="88" width="3" height="3" fill="#39ff14" />
<rect x="19" y="91" width="3" height="3" fill="#39ff14" />
<rect x="22" y="91" width="3" height="3" fill="#39ff14" />
<rect x="55" y="91" width="3" height="3" fill="#39ff14" />
<rect x="61" y="91" width="3" height="3" fill="#39ff14" />
<rect x="94" y="91" width="3" height="3" fill="#39ff14" />
<rect x="97" y="91" width="3" height="3" fill="#39ff14" />
<rect x="16" y="94" width="3" height="3" fill="#39ff14" />
<rect x="25" y="94" width="3" height="3" fill="#39ff14" />
<rect x="43" y="94" width="3" height="3" fill="#39ff14" />
<rect x="49" y="94" width="3" height="3" fill="#39ff14" />
<rect x="52" y="94" width="3" height="3" fill="#39ff14" />
<rect x="64" y="94" width="3" height="3" fill="#39ff14" />
<rect x="67" y="94" width="3" height="3" fill="#39ff14" />
<rect x="73" y="94" width="3" height="3" fill="#39ff14" />
<rect x="91" y="94" width="3" height="3" fill="#39ff14" />
<rect x="100" y="94" width="3" height="3" fill="#39ff14" />
<rect x="19" y="97" width="3" height="3" fill="#39ff14" />
<rect x="25" y="97" width="3" height="3" fill="#39ff14" />
<rect x="43" y="97" width="3" height="3" fill="#39ff14" />
<rect x="73" y="97" width="3" height="3" fill="#39ff14" />
<rect x="91" y="97" width="3" height="3" fill="#39ff14" />
<rect x="97" y="97" width="3" height="3" fill="#39ff14" />
<rect x="22" y="100" width="3" height="3" fill="#39ff14" />
<rect x="94" y="100" width="3" height="3" fill="#39ff14" />
<rect x="37" y="109" width="3" height="3" fill="#39ff14" />
<rect x="40" y="109" width="3" height="3" fill="#39ff14" />
<rect x="76" y="109" width="3" height="3" fill="#39ff14" />
<rect x="79" y="109" width="3" height="3" fill="#39ff14" />
<rect x="37" y="112" width="3" height="3" fill="#39ff14" />
<rect x="40" y="112" width="3" height="3" fill="#39ff14" />
<rect x="76" y="112" width="3" height="3" fill="#39ff14" />
<rect x="79" y="112" width="3" height="3" fill="#39ff14" />
</svg>