<?xml version="1.0" encoding="utf-8"?>
<svg xmlns="http://www.w3.org/2000/svg" width="124" height="66" viewBox="0 0 124 66">
<rect width="100%" height="100%" fill="transparent" />
<rect x="26" y="4" width="2" height="2" fill="#39ff14" />
<rect x="30" y="4" width="2" height="2" fill="#39ff14" />
<rect x="56" y="4" width="2" height="2" fill="#39ff14" />
<rect x="58" y="4" width="2" height="2" fill="#39ff14" />
<rect x="24" y="6" width="2" height="2" fill="#39ff14" />
<rect x="30" y="6" width="2" height="2" fill="#39ff14" />
<rect x="52" y="6" width="2" height="2" fill="#39ff14" />
<rect x="62" y="6" width="2" height="2" fill="#39ff14" />
<rect x="22" y="8" width="2" height="2" fill="#39ff14" />
<rect x="24" y="8" width="2" height="2" fill="#39ff14" />
<rect x="40" y="8" width="2" height="2" fill="#39ff14" />
<rect x="50" y="8" width="2" height="2" fill="#39ff14" />
<rect x="20" y="10" width="2" height="2" fill="#39ff14" />
<rect x="34" y="10" width="2" height="2" fill="#39ff14" />
<rect x="36" y="10" width="2" height="2" fill="#39ff14" />
<rect x="40" y="10" width="2" height="2" fill="#39ff14" />
<rect x="50" y="10" width="2" height="2" fill="#39ff14" />
<rect x="62" y="10" width="2" height="2" fill="#39ff14" />
<rect x="18" y="12" width="2" height="2" fill="#39ff14" />
<rect x="20" y="12" width="2" height="2" fill="#39ff14" />
<rect x="22" y="12" width="2" height="2" fill="#39ff14" />
<rect x="24" y="12" width="2" height="2" fill="#39ff14" />
<rect x="26" y="12" width="2" height="2" fill="#39ff14" />
<rect x="28" y="12" width="2" height="2" fill="#39ff14" />
<rect x="34" y="12" width="2" height="2" fill="#39ff14" />
<rect x="50" y="12" width="2" height="2" fill="#39ff14" />
<rect x="52" y="12" width="2" height="2" fill="#39ff14" />
<rect x="54" y="12" width="2" height="2" fill="#39ff14" />
<rect x="56" y="12" width="2" height="2" fill="#39ff14" />
<rect x="58" y="12" width="2" height="2" fill="#39ff14" />
<rect x="60" y="12" width="2" height="2" fill="#39ff14" />
<rect x="12" y="14" width="2" height="2" fill="#39ff14" />
<rect x="14" y="14" width="2" height="2" fill="#39ff14" />
<rect x="30" y="14" width="2" height="2" fill="#39ff14" />
<rect x="38" y="14" width="2" height="2" fill="#39ff14" />
<rect x="40" y="14" width="2" height="2" fill="#39ff14" />
<rect x="42" y="14" width="2" height="2" fill="#39ff14" />
<rect x="44" y="14" width="2" height="2" fill="#39ff14" />
<rect x="10" y="16" width="2" height="2" fill="#39ff14" />
<rect x="18" y="16" width="2" height="2" fill="#39ff14" />
<rect x="20" y="16" width="2" height="2" fill="#39ff14" />
<rect x="22" y="16" width="2" height="2" fill="#39ff14" />
<rect x="26" y="16" width="2" height="2" fill="#39ff14" />
<rect x="36" y="16" width="2" height="2" fill="#39ff14" />
<rect x="8" y="18" width="2" height="2" fill="#39ff14" />
<rect x="16" y="18" width="2" height="2" fill="#39ff14" />
<rect x="24" y="18" width="2" height="2" fill="#39ff14" />
<rect x="26" y="18" width="2" height="2" fill="#39ff14" />
<rect x="30" y="18" width="2" height="2" fill="#39ff14" />
<rect x="36" y="18" width="2" height="2" fill="#39ff14" />
<rect x="38" y="18" width="2" height="2" fill="#39ff14" />
<rect x="42" y="18" width="2" height="2" fill="#39ff14" />
<rect x="48" y="18" width="2" height="2" fill="#39ff14" />
<rect x="8" y="20" width="2" height="2" fill="#39ff14" />
<rect x="20" y="20" width="2" height="2" fill="#39ff14" />
<rect x="22" y="20" width="2" height="2" fill="#39ff14" />
<rect x="30" y="20" width="2" height="2" fill="#39ff14" />
<rect x="42" y="20" width="2" height="2" fill="#39ff14" />
<rect x="8" y="22" width="2" height="2" fill="#39ff14" />
<rect x="10" y="22" width="2" height="2" fill="#39ff14" />
<rect x="12" y="22" width="2" height="2" fill="#39ff14" />
<rect x="20" y="22" width="2" height="2" fill="#39ff14" />
<rect x="22" y="22" width="2" height="2" fill="#39ff14" />
<rect x="24" y="22" width="2" height="2" fill="#39ff14" />
<rect x="26" y="22" width="2" height="2" fill="#39ff14" />
<rect x="30" y="22" width="2" height="2" fill="#39ff14" />
<rect x="46" y="22" width="2" height="2" fill="#39ff14" />
<rect x="50" y="22" width="2" height="2" fill="#39ff14" />
<rect x="52" y="22" width="2" height="2" fill="#39ff14" />
<rect x="26" y="24" width="2" height="2" fill="#39ff14" />
<rect x="46" y="24" width="2" height="2" fill="#39ff14" />
<rect x="52" y="24" width="2" height="2" fill="#39ff14" />
<rect x="66" y="24" width="2" height="2" fill="#39ff14" />
<rect x="8" y="26" width="2" height="2" fill="#39ff14" />
<rect x="10" y="26" width="2" height="2" fill="#39ff14" />
<rect x="12" y="26" width="2" height="2" fill="#39ff14" />
<rect x="26" y="26" width="2" height="2" fill="#39ff14" />
<rect x="30" y="26" width="2" height="2" fill="#39ff14" />
<rect x="46" y="26" width="2" height="2" fill="#39ff14" />
<rect x="52" y="26" width="2" height="2" fill="#39ff14" />
<rect x="62" y="26" width="2" height="2" fill="#39ff14" />
<rect x="66" y="26" width="2" height="2" fill="#39ff14" />
<rect x="6" y="28" width="2" height="2" fill="#39ff14" />
<rect x="18" y="28" width="2" height="2" fill="#39ff14" />
<rect x="30" y="28" width="2" height="2" fill="#39ff14" />
<rect x="48" y="28" width="2" height="2" fill="#39ff14" />
<rect x="50" y="28" width="2" height="2" fill="#39ff14" />
<rect x="64" y="28" width="2" height="2" fill="#39ff14" />
<rect x="66" y="28" width="2" height="2" fill="#39ff14" />
<rect x="78" y="28" width="2" height="2" fill="#39ff14" />
<rect x="84" y="28" width="2" height="2" fill="#39ff14" />
<rect x="86" y="28" width="2" height="2" fill="#39ff14" />
<rect x="92" y="28" width="2" height="2" fill="#39ff14" />
<rect x="94" y="28" width="2" height="2" fill="#39ff14" />
<rect x="100" y="28" width="2" height="2" fill="#39ff14" />
<rect x="102" y="28" width="2" height="2" fill="#39ff14" />
<rect x="108" y="28" width="2" height="2" fill="#39ff14" />
<rect x="110" y="28" width="2" height="2" fill="#39ff14" />
<rect x="116" y="28" width="2" height="2" fill="#39ff14" />
<rect x="118" y="28" width="2" height="2" fill="#39ff14" />
<rect x="4" y="30" width="2" height="2" fill="#39ff14" />
<rect x="12" y="30" width="2" height="2" fill="#39ff14" />
<rect x="14" y="30" width="2" height="2" fill="#39ff14" />
<rect x="18" y="30" width="2" height="2" fill="#39ff14" />
<rect x="26" y="30" width="2" height="2" fill="#39ff14" />
<rect x="28" y="30" width="2" height="2" fill="#39ff14" />
<rect x="76" y="30" width="2" height="2" fill="#39ff14" />
<rect x="78" y="30" width="2" height="2" fill="#39ff14" />
<rect x="84" y="30" width="2" height="2" fill="#39ff14" />
<rect x="86" y="30" width="2" height="2" fill="#39ff14" />
<rect x="92" y="30" width="2" height="2" fill="#39ff14" />
<rect x="94" y="30" width="2" height="2" fill="#39ff14" />
<rect x="100" y="30" width="2" height="2" fill="#39ff14" />
<rect x="102" y="30" width="2" height="2" fill="#39ff14" />
<rect x="108" y="30" width="2" height="2" fill="#39ff14" />
<rect x="110" y="30" width="2" height="2" fill="#39ff14" />
<rect x="116" y="30" width="2" height="2" fill="#39ff14" />
<rect x="118" y="30" width="2" height="2" fill="#39ff14" />
<rect x="4" y="32" width="2" height="2" fill="#39ff14" />
<rect x="12" y="32" width="2" height="2" fill="#39ff14" />
<rect x="26" y="32" width="2" height="2" fill="#39ff14" />
<rect x="28" y="32" width="2" height="2" fill="#39ff14" />
<rect x="30" y="32" width="2" height="2" fill="#39ff14" />
<rect x="4" y="34" width="2" height="2" fill="#39ff14" />
<rect x="12" y="34" width="2" height="2" fill="#39ff14" />
<rect x="14" y="34" width="2" height="2" fill="#39ff14" />
<rect x="18" y="34" width="2" height="2" fill="#39ff14" />
<rect x="26" y="34" width="2" height="2" fill="#39ff14" />
<rect x="28" y="34" width="2" height="2" fill="#39ff14" />
<rect x="76" y="34" width="2" height="2" fill="#39ff14" />
<rect x="78" y="34" width="2" height="2" fill="#39ff14" />
<rect x="84" y="34" width="2" height="2" fill="#39ff14" />
<rect x="86" y="34" width="2" height="2" fill="#39ff14" />
<rect x="92" y="34" width="2" height="2" fill="#39ff14" />
<rect x="94" y="34" width="2" height="2" fill="#39ff14" />
<rect x="100" y="34" width="2" height="2" fill="#39ff14" />
<rect x="102" y="34" width="2" height="2" fill="#39ff14" />
<rect x="108" y="34" width="2" height="2" fill="#39ff14" />
<rect x="110" y="34" width="2" height="2" fill="#39ff14" />
<rect x="116" y="34" width="2" height="2" fill="#39ff14" />
<rect x="118" y="34" width="2" height="2" fill="#39ff14" />
<rect x="6" y="36" width="2" height="2" fill="#39ff14" />
<rect x="18" y="36" width="2" height="2" fill="#39ff14" />
<rect x="30" y="36" width="2" height="2" fill="#39ff14" />
<rect x="48" y="36" width="2" height="2" fill="#39ff14" />
<rect x="50" y="36" width="2" height="2" fill="#39ff14" />
<rect x="64" y="36" width="2" height="2" fill="#39ff14" />
<rect x="66" y="36" width="2" height="2" fill="#39ff14" />
<rect x="78" y="36" width="2" height="2" fill="#39ff14" />
<rect x="84" y="36" width="2" height="2" fill="#39ff14" />
<rect x="86" y="36" width="2" height="2" fill="#39ff14" />
<rect x="92" y="36" width="2" height="2" fill="#39ff14" />
<rect x="94" y="36" width="2" height="2" fill="#39ff14" />
<rect x="100" y="36" width="2" height="2" fill="#39ff14" />
<rect x="102" y="36" width="2" height="2" fill="#39ff14" />
<rect x="108" y="36" width="2" height="2" fill="#39ff14" />
<rect x="110" y="36" width="2" height="2" fill="#39ff14" />
<rect x="116" y="36" width="2" height="2" fill="#39ff14" />
<rect x="118" y="36" width="2" height="2" fill="#39ff14" />
<rect x="8" y="38" width="2" height="2" fill="#39ff14" />
<rect x="10" y="38" width="2" height="2" fill="#39ff14" />
<rect x="12" y="38" width="2" height="2" fill="#39ff14" />
<rect x="26" y="38" width="2" height="2" fill="#39ff14" />
<rect x="30" y="38" width="2" height="2" fill="#39ff14" />
<rect x="46" y="38" width="2" height="2" fill="#39ff14" />
<rect x="52" y="38" width="2" height="2" fill="#39ff14" />
<rect x="62" y="38" width="2" height="2" fill="#39ff14" />
<rect x="66" y="38" width="2" height="2" fill="#39ff14" />
<rect x="26" y="40" width="2" height="2" fill="#39ff14" />
<rect x="46" y="40" width="2" height="2" fill="#39ff14" />
<rect x="52" y="40" width="2" height="2" fill="#39ff14" />
<rect x="66" y="40" width="2" height="2" fill="#39ff14" />
<rect x="8" y="42" width="2" height="2" fill="#39ff14" />
<rect x="10" y="42" width="2" height="2" fill="#39ff14" />
<rect x="12" y="42" width="2" height="2" fill="#39ff14" />
<rect x="20" y="42" width="2" height="2" fill="#39ff14" />
<rect x="22" y="42" width="2" height="2" fill="#39ff14" />
<rect x="24" y="42" width="2" height="2" fill="#39ff14" />
<rect x="26" y="42" width="2" height="2" fill="#39ff14" />
<rect x="30" y="42" width="2" height="2" fill="#39ff14" />
<rect x="46" y="42" width="2" height="2" fill="#39ff14" />
<rect x="50" y="42" width="2" height="2" fill="#39ff14" />
<rect x="52" y="42" width="2" height="2" fill="#39ff14" />
<rect x="8" y="44" width="2" height="2" fill="#39ff14" />
<rect x="20" y="44" width="2" height="2" fill="#39ff14" />
<rect x="22" y="44" width="2" height="2" fill="#39ff14" />
<rect x="30" y="44" width="2" height="2" fill="#39ff14" />
<rect x="42" y="44" width="2" height="2" fill="#39ff14" />
<rect x="8" y="46" width="2" height="2" fill="#39ff14" />
<rect x="16" y="46" width="2" height="2" fill="#39ff14" />
<rect x="24" y="46" width="2" height="2" fill="#39ff14" />
<rect x="26" y="46" width="2" height="2" fill="#39ff14" />
<rect x="30" y="46" width="2" height="2" fill="#39ff14" />
<rect x="36" y="46" width="2" height="2" fill="#39ff14" />
<rect x="38" y="46" width="2" height="2" fill="#39ff14" />
<rect x="42" y="46" width="2" height="2" fill="#39ff14" />
<rect x="48" y="46" width="2" height="2" fill="#39ff14" />
<rect x="10" y="48" width="2" height="2" fill="#39ff14" />
<rect x="18" y="48" width="2" height="2" fill="#39ff14" />
<rect x="20" y="48" width="2" height="2" fill="#39ff14" />
<rect x="22" y="48" width="2" height="2" fill="#39ff14" />
<rect x="26" y="48" width="2" height="2" fill="#39ff14" />
<rect x="36" y="48" width="2" height="2" fill="#39ff14" />
<rect x="12" y="50" width="2" height="2" fill="#39ff14" />
<rect x="14" y="50" width="2" height="2" fill="#39ff14" />
<rect x="30" y="50" width="2" height="2" fill="#39ff14" />
<rect x="38" y="50" width="2" height="2" fill="#39ff14" />
<rect x="40" y="50" width="2" height="2" fill="#39ff14" />
<rect x="42" y="50" width="2" height="2" fill="#39ff14" />
<rect x="44" y="50" width="2" height="2" fill="#39ff14" />
<rect x="18" y="52" width="2" height="2" fill="#39ff14" />
<rect x="20" y="52" width="2" height="2" fill="#39ff14" />
<rect x="22" y="52" width="2" height="2" fill="#39ff14" />
<rect x="24" y="52" width="2" height="2" fill="#39ff14" />
<rect x="26" y="52" width="2" height="2" fill="#39ff14" />
<rect x="28" y="52" width="2" height="2" fill="#39ff14" />
<rect x="34" y="52" width="2" height="2" fill="#39ff14" />
<rect x="50" y="52" width="2" height="2" fill="#39ff14" />
<rect x="52" y="52" width="2" height="2" fill="#39ff14" />
<rect x="54" y="52" width="2" height="2" fill="#39ff14" />
<rect x="56" y="52" width="2" height="2" fill="#39ff14" />
<rect x="58" y="52" width="2" height="2" fill="#39ff14" />
<rect x="60" y="52" width="2" height="2" fill="#39ff14" />
<rect x="20" y="54" width="2" height="2" fill="#39ff14" />
<rect x="34" y="54" width="2" height="2" fill="#39ff14" />
<rect x="36" y="54" width="2" height="2" fill="#39ff14" />
<rect x="40" y="54" width="2" height="2" fill="#39ff14" />
<rect x="50" y="54" width="2" height="2" fill="#39ff14" />
<rect x="62" y="54" width="2" height="2" fill="#39ff14" />
<rect x="22" y="56" width="2" height="2" fill="#39ff14" />
<rect x="24" y="56" width="2" height="2" fill="#39ff14" />
<rect x="40" y="56" width="2" height="2" fill="#39ff14" />
<rect x="50" y="56" width="2" height="2" fill="#39ff14" />
<rect x="24" y="58" width="2" height="2" fill="#39ff14" />
<rect x="30" y="58" width="2" height="2" fill="#39ff14" />
<rect x="52" y="58" width="2" height="2" fill="#39ff14" />
<rect x="62" y="58" width="2" height="2" fill="#39ff14" />
<rect x="26" y="60" width="2" height="2" fill="#39ff14" />
<rect x="30" y="60" width="2" height="2" fill="#39ff14" />
<rect x="56" y="60" width="2" height="2" fill="#39ff14" />
<rect x="58" y="60" width="2" height="2" fill="#39ff14" />
</svg>