<?xml version="1.0" encoding="utf-8"?>
<svg xmlns="http://www.w3.org/2000/svg" width="43" height="113" viewBox="0 0 43 113">
<rect width="100%" height="100%" fill="transparent" />
<rect x="9" y="4" width="5" height="5" fill="#39ff14" />
<rect x="4" y="9" width="5" height="5" fill="#39ff14" />
<rect x="14" y="9" width="5" height="5" fill="#39ff14" />
<rect x="4" y="14" width="5" height="5" fill="#39ff14" />
<rect x="19" y="14" width="5" height="5" fill="#39ff14" />
<rect x="9" y="19" width="5" height="5" fill="#39ff14" />
<rect x="14" y="19" width="5" height="5" fill="#39ff14" />
<rect x="24" y="19" width="5" height="5" fill="#39ff14" />
<rect x="19" y="24" width="5" height="5" fill="#39ff14" />
<rect x="29" y="24" width="5" height="5" fill="#39ff14" />
<rect x="19" y="29" width="5" height="5" fill="#39ff14" />
<rect x="34" y="29" width="5" height="5" fill="#39ff14" />
<rect x="24" y="34" width="5" height="5" fill="#39ff14" />
<rect x="29" y="34" width="5" height="5" fill="#39ff14" />
<rect x="14" y="39" width="5" height="5" fill="#39ff14" />
<rect x="9" y="44" width="5" height="5" fill="#39ff14" />
<rect x="19" y="44" width="5" height="5" fill="#39ff14" />
<rect x="4" y="49" width="5" height="5" fill="#39ff14" />
<rect x="19" y="49" width="5" height="5" fill="#39ff14" />
<rect x="9" y="54" width="5" height="5" fill="#39ff14" />
<rect x="14" y="54" width="5" height="5" fill="#39ff14" />
<rect x="24" y="54" width="5" height="5" fill="#39ff14" />
<rect x="29" y="54" width="5" height="5" fill="#39ff14" />
<rect x="19" y="59" width="5" height="5" fill="#39ff14" />
<rect x="34" y="59" width="5" height="5" fill="#39ff14" />
<rect x="19" y="64" width="5" height="5" fill="#39ff14" />
<rect x="29" y="64" width="5" height="5" fill="#39ff14" />
<rect x="24" y="69" width="5" height="5" fill="#39ff14" />
<rect x="14" y="74" width="5" height="5" fill="#39ff14" />
<rect x="9" y="79" width="5" height="5" fill="#39ff14" />
<rect x="19" y="79" width="5" height="5" fill="#39ff14" />
<rect x="4" y="84" width="5" height="5" fill="#39ff14" />
<rect x="19" y="84" width="5" height="5" fill="#39ff14" />
<rect x="9" y="89" width="5" height="5" fill="#39ff14" />
<rect x="14" y="89" width="5" height="5" fill="#39ff14" />
<rect x="4" y="94" width="5" height="5" fill="#39ff14" />
<rect x="19" y="94" width="5" height="5" fill="#39ff14" />
<rect x="4" y="99" width="5" height="5" fill="#39ff14" />
<rect x="14" y="99" width="5" height="5" fill="#39ff14" />
<rect x="9" y="104" width="5" height="5" fill="#39ff14" />
</svg>