<?xml version="1.0" encoding="utf-8"?>
<svg xmlns="http://www.w3.org/2000/svg" width="116" height="68" viewBox="0 0 116 68">
<rect width="100%" height="100%" fill="transparent" />
<rect x="44" y="4" width="4" height="4" fill="#39ff14" />
<rect x="48" y="4" width="4" height="4" fill="#39ff14" />
<rect x="52" y="4" width="4" height="4" fill="#39ff14" />
<rect x="56" y="4" width="4" height="4" fill="#39ff14" />
<rect x="44" y="8" width="4" height="4" fill="#39ff14" />
<rect x="60" y="8" width="4" height="4" fill="#39ff14" />
<rect x="44" y="12" width="4" height="4" fill="#39ff14" />
<rect x="8" y="16" width="4" height="4" fill="#39ff14" />
<rect x="12" y="16" width="4" height="4" fill="#39ff14" />
<rect x="48" y="16" width="4" height="4" fill="#39ff14" />
<rect x="60" y="16" width="4" height="4" fill="#39ff14" />
<rect x="4" y="20" width="4" height="4" fill="#39ff14" />
<rect x="8" y="20" width="4" height="4" fill="#39ff14" />
<rect x="16" y="20" width="4" height="4" fill="#39ff14" />
<rect x="20" y="20" width="4" height="4" fill="#39ff14" />
<rect x="8" y="24" width="4" height="4" fill="#39ff14" />
<rect x="12" y="24" width="4" height="4" fill="#39ff14" />
<rect x="16" y="24" width="4" height="4" fill="#39ff14" />
<rect x="20" y="24" width="4" height="4" fill="#39ff14" />
<rect x="36" y="24" width="4" height="4" fill="#39ff14" />
<rect x="12" y="28" width="4" height="4" fill="#39ff14" />
<rect x="16" y="28" width="4" height="4" fill="#39ff14" />
<rect x="32" y="28" width="4" height="4" fill="#39ff14" />
<rect x="40" y="28" width="4" height="4" fill="#39ff14" />
<rect x="44" y="28" width="4" height="4" fill="#39ff14" />
<rect x="80" y="28" width="4" height="4" fill="#39ff14" />
<rect x="100" y="28" width="4" height="4" fill="#39ff14" />
<rect x="104" y="28" width="4" height="4" fill="#39ff14" />
<rect x="108" y="28" width="4" height="4" fill="#39ff14" />
<rect x="28" y="32" width="4" height="4" fill="#39ff14" />
<rect x="44" y="32" width="4" height="4" fill="#39ff14" />
<rect x="80" y="32" width="4" height="4" fill="#39ff14" />
<rect x="100" y="32" width="4" height="4" fill="#39ff14" />
<rect x="108" y="32" width="4" height="4" fill="#39ff14" />
<rect x="12" y="36" width="4" height="4" fill="#39ff14" />
<rect x="16" y="36" width="4" height="4" fill="#39ff14" />
<rect x="32" y="36" width="4" height="4" fill="#39ff14" />
<rect x="40" y="36" width="4" height="4" fill="#39ff14" />
<rect x="44" y="36" width="4" height="4" fill="#39ff14" />
<rect x="80" y="36" width="4" height="4" fill="#39ff14" />
<rect x="100" y="36" width="4" height="4" fill="#39ff14" />
<rect x="104" y="36" width="4" height="4" fill="#39ff14" />
<rect x="108" y="36" width="4" height="4" fill="#39ff14" />
<rect x="8" y="40" width="4" height="4" fill="#39ff14" />
<rect x="12" y="40" width="4" height="4" fill="#39ff14" />
<rect x="16" y="40" width="4" height="4" fill="#39ff14" />
<rect x="20" y="40" width="4" height="4" fill="#39ff14" />
<rect x="36" y="40" width="4" height="4" fill="#39ff14" />
<rect x="4" y="44" width="4" height="4" fill="#39ff14" />
<rect x="8" y="44" width="4" height="4" fill="#39ff14" />
<rect x="16" y="44" width="4" height="4" fill="#39ff14" />
<rect x="20" y="44" width="4" height="4" fill="#39ff14" />
<rect x="8" y="48" width="4" height="4" fill="#39ff14" />
<rect x="12" y="48" width="4" height="4" fill="#39ff14" />
<rect x="48" y="48" width="4" height="4" fill="#39ff14" />
<rect x="60" y="48" width="4" height="4" fill="#39ff14" />
<rect x="44" y="52" width="4" height="4" fill="#39ff14" />
<rect x="44" y="56" width="4" height="4" fill="#39ff14" />
<rect x="60" y="56" width="4" height="4" fill="#39ff14" />
<rect x="44" y="60" width="4" height="4" fill="#39ff14" />
<rect x="48" y="60" width="4" height="4" fill="#39ff14" />
<rect x="52" y="60" width="4" height="4" fill="#39ff14" />
<rect x="56" y="60" width="4" height="4" fill="#39ff14" />
</svg>