<?xml version="1.0" encoding="utf-8"?>
<svg xmlns="http://www.w3.org/2000/svg" width="122" height="98" viewBox="0 0 122 98">
<rect width="100%" height="100%" fill="transparent" />
<rect x="16" y="4" width="2" height="2" fill="#39ff14" />
<rect x="18" y="6" width="2" height="2" fill="#39ff14" />
<rect x="14" y="8" width="2" height="2" fill="#39ff14" />
<rect x="16" y="8" width="2" height="2" fill="#39ff14" />
<rect x="18" y="8" width="2" height="2" fill="#39ff14" />
<rect x="36" y="24" width="2" height="2" fill="#39ff14" />
<rect x="32" y="26" width="2" height="2" fill="#39ff14" />
<rect x="36" y="26" width="2" height="2" fill="#39ff14" />
<rect x="24" y="28" width="2" height="2" fill="#39ff14" />
<rect x="26" y="28" width="2" height="2" fill="#39ff14" />
<rect x="34" y="28" width="2" height="2" fill="#39ff14" />
<rect x="36" y="28" width="2" height="2" fill="#39ff14" />
<rect x="26" y="30" width="2" height="2" fill="#39ff14" />
<rect x="28" y="30" width="2" height="2" fill="#39ff14" />
<rect x="24" y="32" width="2" height="2" fill="#39ff14" />
<rect x="46" y="32" width="2" height="2" fill="#39ff14" />
<rect x="50" y="32" width="2" height="2" fill="#39ff14" />
<rect x="52" y="32" width="2" height="2" fill="#39ff14" />
<rect x="46" y="34" width="2" height="2" fill="#39ff14" />
<rect x="48" y="34" width="2" height="2" fill="#39ff14" />
<rect x="52" y="34" width="2" height="2" fill="#39ff14" />
<rect x="6" y="46" width="2" height="2" fill="#39ff14" />
<rect x="6" y="48" width="2" height="2" fill="#39ff14" />
<rect x="8" y="48" width="2" height="2" fill="#39ff14" />
<rect x="4" y="50" width="2" height="2" fill="#39ff14" />
<rect x="8" y="50" width="2" height="2" fill="#39ff14" />
<rect x="100" y="52" width="2" height="2" fill="#39ff14" />
<rect x="100" y="54" width="2" height="2" fill="#39ff14" />
<rect x="102" y="54" width="2" height="2" fill="#39ff14" />
<rect x="104" y="54" width="2" height="2" fill="#39ff14" />
<rect x="106" y="56" width="2" height="2" fill="#39ff14" />
<rect x="104" y="58" width="2" height="2" fill="#39ff14" />
<rect x="106" y="58" width="2" height="2" fill="#39ff14" />
<rect x="8" y="68" width="2" height="2" fill="#39ff14" />
<rect x="4" y="70" width="2" height="2" fill="#39ff14" />
<rect x="12" y="70" width="2" height="2" fill="#39ff14" />
<rect x="106" y="70" width="2" height="2" fill="#39ff14" />
<rect x="14" y="72" width="2" height="2" fill="#39ff14" />
<rect x="76" y="72" width="2" height="2" fill="#39ff14" />
<rect x="78" y="72" width="2" height="2" fill="#39ff14" />
<rect x="80" y="72" width="2" height="2" fill="#39ff14" />
<rect x="82" y="72" width="2" height="2" fill="#39ff14" />
<rect x="84" y="72" width="2" height="2" fill="#39ff14" />
<rect x="108" y="72" width="2" height="2" fill="#39ff14" />
<rect x="4" y="74" width="2" height="2" fill="#39ff14" />
<rect x="14" y="74" width="2" height="2" fill="#39ff14" />
<rect x="74" y="74" width="2" height="2" fill="#39ff14" />
<rect x="84" y="74" width="2" height="2" fill="#39ff14" />
<rect x="104" y="74" width="2" height="2" fill="#39ff14" />
<rect x="106" y="74" width="2" height="2" fill="#39ff14" />
<rect x="108" y="74" width="2" height="2" fill="#39ff14" />
<rect x="6" y="76" width="2" height="2" fill="#39ff14" />
<rect x="8" y="76" width="2" height="2" fill="#39ff14" />
<rect x="10" y="76" width="2" height="2" fill="#39ff14" />
<rect x="12" y="76" width="2" height="2" fill="#39ff14" />
<rect x="14" y="76" width="2" height="2" fill="#39ff14" />
<rect x="84" y="76" width="2" height="2" fill="#39ff14" />
<rect x="74" y="78" width="2" height="2" fill="#39ff14" />
<rect x="82" y="78" width="2" height="2" fill="#39ff14" />
<rect x="78" y="80" width="2" height="2" fill="#39ff14" />
<rect x="114" y="86" width="2" height="2" fill="#39ff14" />
<rect x="116" y="86" width="2" height="2" fill="#39ff14" />
<rect x="116" y="88" width="2" height="2" fill="#39ff14" />
<rect x="114" y="90" width="2" height="2" fill="#39ff14" />
<rect x="114" y="92" width="2" height="2" fill="#39ff14" />
<rect x="116" y="92" width="2" height="2" fill="#39ff14" />
</svg>