<?xml version="1.0" encoding="utf-8"?>
<svg xmlns="http://www.w3.org/2000/svg" width="122" height="89" viewBox="0 0 122 89">
<rect width="100%" height="100%" fill="transparent" />
<rect x="85" y="4" width="3" height="3" fill="#39ff14" />
<rect x="10" y="7" width="3" height="3" fill="#39ff14" />
<rect x="82" y="7" width="3" height="3" fill="#39ff14" />
<rect x="88" y="7" width="3" height="3" fill="#39ff14" />
<rect x="10" y="10" width="3" height="3" fill="#39ff14" />
<rect x="82" y="10" width="3" height="3" fill="#39ff14" />
<rect x="88" y="10" width="3" height="3" fill="#39ff14" />
<rect x="4" y="13" width="3" height="3" fill="#39ff14" />
<rect x="7" y="13" width="3" height="3" fill="#39ff14" />
<rect x="10" y="13" width="3" height="3" fill="#39ff14" />
<rect x="40" y="13" width="3" height="3" fill="#39ff14" />
<rect x="43" y="13" width="3" height="3" fill="#39ff14" />
<rect x="79" y="13" width="3" height="3" fill="#39ff14" />
<rect x="82" y="13" width="3" height="3" fill="#39ff14" />
<rect x="88" y="13" width="3" height="3" fill="#39ff14" />
<rect x="91" y="13" width="3" height="3" fill="#39ff14" />
<rect x="94" y="13" width="3" height="3" fill="#39ff14" />
<rect x="4" y="16" width="3" height="3" fill="#39ff14" />
<rect x="40" y="16" width="3" height="3" fill="#39ff14" />
<rect x="43" y="16" width="3" height="3" fill="#39ff14" />
<rect x="97" y="16" width="3" height="3" fill="#39ff14" />
<rect x="79" y="19" width="3" height="3" fill="#39ff14" />
<rect x="82" y="19" width="3" height="3" fill="#39ff14" />
<rect x="88" y="19" width="3" height="3" fill="#39ff14" />
<rect x="91" y="19" width="3" height="3" fill="#39ff14" />
<rect x="94" y="19" width="3" height="3" fill="#39ff14" />
<rect x="79" y="22" width="3" height="3" fill="#39ff14" />
<rect x="82" y="22" width="3" height="3" fill="#39ff14" />
<rect x="88" y="22" width="3" height="3" fill="#39ff14" />
<rect x="112" y="49" width="3" height="3" fill="#39ff14" />
<rect x="115" y="49" width="3" height="3" fill="#39ff14" />
<rect x="112" y="52" width="3" height="3" fill="#39ff14" />
<rect x="115" y="52" width="3" height="3" fill="#39ff14" />
<rect x="31" y="58" width="3" height="3" fill="#39ff14" />
<rect x="31" y="61" width="3" height="3" fill="#39ff14" />
<rect x="37" y="61" width="3" height="3" fill="#39ff14" />
<rect x="31" y="64" width="3" height="3" fill="#39ff14" />
<rect x="34" y="64" width="3" height="3" fill="#39ff14" />
<rect x="37" y="64" width="3" height="3" fill="#39ff14" />
<rect x="37" y="67" width="3" height="3" fill="#39ff14" />
<rect x="73" y="73" width="3" height="3" fill="#39ff14" />
<rect x="76" y="73" width="3" height="3" fill="#39ff14" />
<rect x="73" y="76" width="3" height="3" fill="#39ff14" />
<rect x="76" y="79" width="3" height="3" fill="#39ff14" />
<rect x="79" y="79" width="3" height="3" fill="#39ff14" />
<rect x="82" y="79" width="3" height="3" fill="#39ff14" />
<rect x="82" y="82" width="3" height="3" fill="#39ff14" />
</svg>