<?xml version="1.0" encoding="utf-8"?>
<svg xmlns="http://www.w3.org/2000/svg" width="122" height="29" viewBox="0 0 122 29">
<rect width="100%" height="100%" fill="transparent" />
<rect x="103" y="4" width="3" height="3" fill="#39ff14" />
<rect x="115" y="4" width="3" height="3" fill="#39ff14" />
<rect x="4" y="7" width="3" height="3" fill="#39ff14" />
<rect x="7" y="7" width="3" height="3" fill="#39ff14" />
<rect x="19" y="7" width="3" height="3" fill="#39ff14" />
<rect x="22" y="7" width="3" height="3" fill="#39ff14" />
<rect x="103" y="7" width="3" height="3" fill="#39ff14" />
<rect x="106" y="7" width="3" height="3" fill="#39ff14" />
<rect x="109" y="7" width="3" height="3" fill="#39ff14" />
<rect x="112" y="7" width="3" height="3" fill="#39ff14" />
<rect x="115" y="7" width="3" height="3" fill="#39ff14" />
<rect x="7" y="10" width="3" height="3" fill="#39ff14" />
<rect x="13" y="10" width="3" height="3" fill="#39ff14" />
<rect x="19" y="10" width="3" height="3" fill="#39ff14" />
<rect x="31" y="10" width="3" height="3" fill="#39ff14" />
<rect x="40" y="10" width="3" height="3" fill="#39ff14" />
<rect x="61" y="10" width="3" height="3" fill="#39ff14" />
<rect x="64" y="10" width="3" height="3" fill="#39ff14" />
<rect x="76" y="10" width="3" height="3" fill="#39ff14" />
<rect x="85" y="10" width="3" height="3" fill="#39ff14" />
<rect x="109" y="10" width="3" height="3" fill="#39ff14" />
<rect x="7" y="13" width="3" height="3" fill="#39ff14" />
<rect x="10" y="13" width="3" height="3" fill="#39ff14" />
<rect x="16" y="13" width="3" height="3" fill="#39ff14" />
<rect x="19" y="13" width="3" height="3" fill="#39ff14" />
<rect x="28" y="13" width="3" height="3" fill="#39ff14" />
<rect x="31" y="13" width="3" height="3" fill="#39ff14" />
<rect x="43" y="13" width="3" height="3" fill="#39ff14" />
<rect x="46" y="13" width="3" height="3" fill="#39ff14" />
<rect x="61" y="13" width="3" height="3" fill="#39ff14" />
<rect x="64" y="13" width="3" height="3" fill="#39ff14" />
<rect x="73" y="13" width="3" height="3" fill="#39ff14" />
<rect x="76" y="13" width="3" height="3" fill="#39ff14" />
<rect x="88" y="13" width="3" height="3" fill="#39ff14" />
<rect x="91" y="13" width="3" height="3" fill="#39ff14" />
<rect x="106" y="13" width="3" height="3" fill="#39ff14" />
<rect x="112" y="13" width="3" height="3" fill="#39ff14" />
<rect x="7" y="16" width="3" height="3" fill="#39ff14" />
<rect x="13" y="16" width="3" height="3" fill="#39ff14" />
<rect x="19" y="16" width="3" height="3" fill="#39ff14" />
<rect x="31" y="16" width="3" height="3" fill="#39ff14" />
<rect x="40" y="16" width="3" height="3" fill="#39ff14" />
<rect x="61" y="16" width="3" height="3" fill="#39ff14" />
<rect x="64" y="16" width="3" height="3" fill="#39ff14" />
<rect x="76" y="16" width="3" height="3" fill="#39ff14" />
<rect x="85" y="16" width="3" height="3" fill="#39ff14" />
<rect x="109" y="16" width="3" height="3" fill="#39ff14" />
<rect x="4" y="19" width="3" height="3" fill="#39ff14" />
<rect x="7" y="19" width="3" height="3" fill="#39ff14" />
<rect x="19" y="19" width="3" height="3" fill="#39ff14" />
<rect x="22" y="19" width="3" height="3" fill="#39ff14" />
<rect x="103" y="19" width="3" height="3" fill="#39ff14" />
<rect x="106" y="19" width="3" height="3" fill="#39ff14" />
<rect x="109" y="19" width="3" height="3" fill="#39ff14" />
<rect x="112" y="19" width="3" height="3" fill="#39ff14" />
<rect x="115" y="19" width="3" height="3" fill="#39ff14" />
<rect x="103" y="22" width="3" height="3" fill="#39ff14" />
<rect x="115" y="22" width="3" height="3" fill="#39ff14" />
</svg>