<?xml version="1.0" encoding="utf-8"?>
<svg xmlns="http://www.w3.org/2000/svg" width="128" height="22" viewBox="0 0 128 22">
<rect width="100%" height="100%" fill="transparent" />
<rect x="4" y="4" width="2" height="2" fill="#39ff14" />
<rect x="6" y="4" width="2" height="2" fill="#39ff14" />
<rect x="22" y="4" width="2" height="2" fill="#39ff14" />
<rect x="24" y="4" width="2" height="2" fill="#39ff14" />
<rect x="30" y="4" width="2" height="2" fill="#39ff14" />
<rect x="32" y="4" width="2" height="2" fill="#39ff14" />
<rect x="38" y="4" width="2" height="2" fill="#39ff14" />
<rect x="40" y="4" width="2" height="2" fill="#39ff14" />
<rect x="46" y="4" width="2" height="2" fill="#39ff14" />
<rect x="48" y="4" width="2" height="2" fill="#39ff14" />
<rect x="54" y="4" width="2" height="2" fill="#39ff14" />
<rect x="56" y="4" width="2" height="2" fill="#39ff14" />
<rect x="62" y="4" width="2" height="2" fill="#39ff14" />
<rect x="64" y="4" width="2" height="2" fill="#39ff14" />
<rect x="70" y="4" width="2" height="2" fill="#39ff14" />
<rect x="72" y="4" width="2" height="2" fill="#39ff14" />
<rect x="78" y="4" width="2" height="2" fill="#39ff14" />
<rect x="80" y="4" width="2" height="2" fill="#39ff14" />
<rect x="86" y="4" width="2" height="2" fill="#39ff14" />
<rect x="88" y="4" width="2" height="2" fill="#39ff14" />
<rect x="94" y="4" width="2" height="2" fill="#39ff14" />
<rect x="96" y="4" width="2" height="2" fill="#39ff14" />
<rect x="102" y="4" width="2" height="2" fill="#39ff14" />
<rect x="104" y="4" width="2" height="2" fill="#39ff14" />
<rect x="110" y="4" width="2" height="2" fill="#39ff14" />
<rect x="112" y="4" width="2" height="2" fill="#39ff14" />
<rect x="4" y="6" width="2" height="2" fill="#39ff14" />
<rect x="6" y="6" width="2" height="2" fill="#39ff14" />
<rect x="16" y="6" width="2" height="2" fill="#39ff14" />
<rect x="20" y="6" width="2" height="2" fill="#39ff14" />
<rect x="22" y="6" width="2" height="2" fill="#39ff14" />
<rect x="24" y="6" width="2" height="2" fill="#39ff14" />
<rect x="30" y="6" width="2" height="2" fill="#39ff14" />
<rect x="32" y="6" width="2" height="2" fill="#39ff14" />
<rect x="38" y="6" width="2" height="2" fill="#39ff14" />
<rect x="40" y="6" width="2" height="2" fill="#39ff14" />
<rect x="46" y="6" width="2" height="2" fill="#39ff14" />
<rect x="48" y="6" width="2" height="2" fill="#39ff14" />
<rect x="54" y="6" width="2" height="2" fill="#39ff14" />
<rect x="56" y="6" width="2" height="2" fill="#39ff14" />
<rect x="62" y="6" width="2" height="2" fill="#39ff14" />
<rect x="64" y="6" width="2" height="2" fill="#39ff14" />
<rect x="70" y="6" width="2" height="2" fill="#39ff14" />
<rect x="72" y="6" width="2" height="2" fill="#39ff14" />
<rect x="78" y="6" width="2" height="2" fill="#39ff14" />
<rect x="80" y="6" width="2" height="2" fill="#39ff14" />
<rect x="86" y="6" width="2" height="2" fill="#39ff14" />
<rect x="88" y="6" width="2" height="2" fill="#39ff14" />
<rect x="94" y="6" width="2" height="2" fill="#39ff14" />
<rect x="96" y="6" width="2" height="2" fill="#39ff14" />
<rect x="102" y="6" width="2" height="2" fill="#39ff14" />
<rect x="104" y="6" width="2" height="2" fill="#39ff14" />
<rect x="110" y="6" width="2" height="2" fill="#39ff14" />
<rect x="112" y="6" width="2" height="2" fill="#39ff14" />
<rect x="120" y="6" width="2" height="2" fill="#39ff14" />
<rect x="122" y="6" width="2" height="2" fill="#39ff14" />
<rect x="12" y="8" width="2" height="2" fill="#39ff14" />
<rect x="14" y="8" width="2" height="2" fill="#39ff14" />
<rect x="18" y="8" width="2" height="2" fill="#39ff14" />
<rect x="118" y="8" width="2" height="2" fill="#39ff14" />
<rect x="122" y="8" width="2" height="2" fill="#39ff14" />
<rect x="12" y="10" width="2" height="2" fill="#39ff14" />
<rect x="14" y="10" width="2" height="2" fill="#39ff14" />
<rect x="22" y="10" width="2" height="2" fill="#39ff14" />
<rect x="24" y="10" width="2" height="2" fill="#39ff14" />
<rect x="26" y="10" width="2" height="2" fill="#39ff14" />
<rect x="28" y="10" width="2" height="2" fill="#39ff14" />
<rect x="30" y="10" width="2" height="2" fill="#39ff14" />
<rect x="32" y="10" width="2" height="2" fill="#39ff14" />
<rect x="34" y="10" width="2" height="2" fill="#39ff14" />
<rect x="36" y="10" width="2" height="2" fill="#39ff14" />
<rect x="38" y="10" width="2" height="2" fill="#39ff14" />
<rect x="40" y="10" width="2" height="2" fill="#39ff14" />
<rect x="42" y="10" width="2" height="2" fill="#39ff14" />
<rect x="44" y="10" width="2" height="2" fill="#39ff14" />
<rect x="46" y="10" width="2" height="2" fill="#39ff14" />
<rect x="48" y="10" width="2" height="2" fill="#39ff14" />
<rect x="50" y="10" width="2" height="2" fill="#39ff14" />
<rect x="52" y="10" width="2" height="2" fill="#39ff14" />
<rect x="54" y="10" width="2" height="2" fill="#39ff14" />
<rect x="56" y="10" width="2" height="2" fill="#39ff14" />
<rect x="58" y="10" width="2" height="2" fill="#39ff14" />
<rect x="60" y="10" width="2" height="2" fill="#39ff14" />
<rect x="62" y="10" width="2" height="2" fill="#39ff14" />
<rect x="64" y="10" width="2" height="2" fill="#39ff14" />
<rect x="66" y="10" width="2" height="2" fill="#39ff14" />
<rect x="68" y="10" width="2" height="2" fill="#39ff14" />
<rect x="70" y="10" width="2" height="2" fill="#39ff14" />
<rect x="72" y="10" width="2" height="2" fill="#39ff14" />
<rect x="74" y="10" width="2" height="2" fill="#39ff14" />
<rect x="76" y="10" width="2" height="2" fill="#39ff14" />
<rect x="78" y="10" width="2" height="2" fill="#39ff14" />
<rect x="80" y="10" width="2" height="2" fill="#39ff14" />
<rect x="82" y="10" width="2" height="2" fill="#39ff14" />
<rect x="84" y="10" width="2" height="2" fill="#39ff14" />
<rect x="86" y="10" width="2" height="2" fill="#39ff14" />
<rect x="88" y="10" width="2" height="2" fill="#39ff14" />
<rect x="90" y="10" width="2" height="2" fill="#39ff14" />
<rect x="92" y="10" width="2" height="2" fill="#39ff14" />
<rect x="94" y="10" width="2" height="2" fill="#39ff14" />
<rect x="96" y="10" width="2" height="2" fill="#39ff14" />
<rect x="98" y="10" width="2" height="2" fill="#39ff14" />
<rect x="100" y="10" width="2" height="2" fill="#39ff14" />
<rect x="102" y="10" width="2" height="2" fill="#39ff14" />
<rect x="104" y="10" width="2" height="2" fill="#39ff14" />
<rect x="106" y="10" width="2" height="2" fill="#39ff14" />
<rect x="108" y="10" width="2" height="2" fill="#39ff14" />
<rect x="110" y="10" width="2" height="2" fill="#39ff14" />
<rect x="112" y="10" width="2" height="2" fill="#39ff14" />
<rect x="114" y="10" width="2" height="2" fill="#39ff14" />
<rect x="116" y="10" width="2" height="2" fill="#39ff14" />
<rect x="118" y="10" width="2" height="2" fill="#39ff14" />
<rect x="12" y="12" width="2" height="2" fill="#39ff14" />
<rect x="14" y="12" width="2" height="2" fill="#39ff14" />
<rect x="18" y="12" width="2" height="2" fill="#39ff14" />
<rect x="120" y="12" width="2" height="2" fill="#39ff14" />
<rect x="4" y="14" width="2" height="2" fill="#39ff14" />
<rect x="6" y="14" width="2" height="2" fill="#39ff14" />
<rect x="16" y="14" width="2" height="2" fill="#39ff14" />
<rect x="20" y="14" width="2" height="2" fill="#39ff14" />
<rect x="22" y="14" width="2" height="2" fill="#39ff14" />
<rect x="24" y="14" width="2" height="2" fill="#39ff14" />
<rect x="30" y="14" width="2" height="2" fill="#39ff14" />
<rect x="32" y="14" width="2" height="2" fill="#39ff14" />
<rect x="38" y="14" width="2" height="2" fill="#39ff14" />
<rect x="40" y="14" width="2" height="2" fill="#39ff14" />
<rect x="46" y="14" width="2" height="2" fill="#39ff14" />
<rect x="48" y="14" width="2" height="2" fill="#39ff14" />
<rect x="54" y="14" width="2" height="2" fill="#39ff14" />
<rect x="56" y="14" width="2" height="2" fill="#39ff14" />
<rect x="62" y="14" width="2" height="2" fill="#39ff14" />
<rect x="64" y="14" width="2" height="2" fill="#39ff14" />
<rect x="70" y="14" width="2" height="2" fill="#39ff14" />
<rect x="72" y="14" width="2" height="2" fill="#39ff14" />
<rect x="78" y="14" width="2" height="2" fill="#39ff14" />
<rect x="80" y="14" width="2" height="2" fill="#39ff14" />
<rect x="86" y="14" width="2" height="2" fill="#39ff14" />
<rect x="88" y="14" width="2" height="2" fill="#39ff14" />
<rect x="94" y="14" width="2" height="2" fill="#39ff14" />
<rect x="96" y="14" width="2" height="2" fill="#39ff14" />
<rect x="102" y="14" width="2" height="2" fill="#39ff14" />
<rect x="104" y="14" width="2" height="2" fill="#39ff14" />
<rect x="110" y="14" width="2" height="2" fill="#39ff14" />
<rect x="112" y="14" width="2" height="2" fill="#39ff14" />
<rect x="118" y="14" width="2" height="2" fill="#39ff14" />
<rect x="120" y="14" width="2" height="2" fill="#39ff14" />
<rect x="4" y="16" width="2" height="2" fill="#39ff14" />
<rect x="6" y="16" width="2" height="2" fill="#39ff14" />
<rect x="22" y="16" width="2" height="2" fill="#39ff14" />
<rect x="24" y="16" width="2" height="2" fill="#39ff14" />
<rect x="30" y="16" width="2" height="2" fill="#39ff14" />
<rect x="32" y="16" width="2" height="2" fill="#39ff14" />
<rect x="38" y="16" width="2" height="2" fill="#39ff14" />
<rect x="40" y="16" width="2" height="2" fill="#39ff14" />
<rect x="46" y="16" width="2" height="2" fill="#39ff14" />
<rect x="48" y="16" width="2" height="2" fill="#39ff14" />
<rect x="54" y="16" width="2" height="2" fill="#39ff14" />
<rect x="56" y="16" width="2" height="2" fill="#39ff14" />
<rect x="62" y="16" width="2" height="2" fill="#39ff14" />
<rect x="64" y="16" width="2" height="2" fill="#39ff14" />
<rect x="70" y="16" width="2" height="2" fill="#39ff14" />
<rect x="72" y="16" width="2" height="2" fill="#39ff14" />
<rect x="78" y="16" width="2" height="2" fill="#39ff14" />
<rect x="80" y="16" width="2" height="2" fill="#39ff14" />
<rect x="86" y="16" width="2" height="2" fill="#39ff14" />
<rect x="88" y="16" width="2" height="2" fill="#39ff14" />
<rect x="94" y="16" width="2" height="2" fill="#39ff14" />
<rect x="96" y="16" width="2" height="2" fill="#39ff14" />
<rect x="102" y="16" width="2" height="2" fill="#39ff14" />
<rect x="104" y="16" width="2" height="2" fill="#39ff14" />
<rect x="110" y="16" width="2" height="2" fill="#39ff14" />
<rect x="112" y="16" width="2" height="2" fill="#39ff14" />
</svg>