<?xml version="1.0" encoding="utf-8"?>
<svg xmlns="http://www.w3.org/2000/svg" width="71" height="120" viewBox="0 0 71 120">
<rect width="100%" height="100%" fill="transparent" />
<rect x="32" y="4" width="7" height="7" fill="#39ff14" />
<rect x="39" y="4" width="7" height="7" fill="#39ff14" />
<rect x="4" y="11" width="7" height="7" fill="#39ff14" />
<rect x="11" y="11" width="7" height="7" fill="#39ff14" />
<rect x="25" y="11" width="7" height="7" fill="#39ff14" />
<rect x="39" y="11" width="7" height="7" fill="#39ff14" />
<rect x="4" y="18" width="7" height="7" fill="#39ff14" />
<rect x="11" y="18" width="7" height="7" fill="#39ff14" />
<rect x="25" y="18" width="7" height="7" fill="#39ff14" />
<rect x="25" y="25" width="7" height="7" fill="#39ff14" />
<rect x="25" y="32" width="7" height="7" fill="#39ff14" />
<rect x="46" y="32" width="7" height="7" fill="#39ff14" />
<rect x="32" y="39" width="7" height="7" fill="#39ff14" />
<rect x="39" y="39" width="7" height="7" fill="#39ff14" />
<rect x="53" y="39" width="7" height="7" fill="#39ff14" />
<rect x="53" y="46" width="7" height="7" fill="#39ff14" />
<rect x="53" y="53" width="7" height="7" fill="#39ff14" />
<rect x="60" y="53" width="7" height="7" fill="#39ff14" />
<rect x="32" y="60" width="7" height="7" fill="#39ff14" />
<rect x="39" y="60" width="7" height="7" fill="#39ff14" />
<rect x="25" y="67" width="7" height="7" fill="#39ff14" />
<rect x="39" y="67" width="7" height="7" fill="#39ff14" />
<rect x="25" y="74" width="7" height="7" fill="#39ff14" />
<rect x="4" y="81" width="7" height="7" fill="#39ff14" />
<rect x="11" y="81" width="7" height="7" fill="#39ff14" />
<rect x="25" y="81" width="7" height="7" fill="#39ff14" />
<rect x="4" y="88" width="7" height="7" fill="#39ff14" />
<rect x="11" y="88" width="7" height="7" fill="#39ff14" />
<rect x="25" y="88" width="7" height="7" fill="#39ff14" />
<rect x="46" y="88" width="7" height="7" fill="#39ff14" />
<rect x="25" y="95" width="7" height="7" fill="#39ff14" />
<rect x="39" y="95" width="7" height="7" fill="#39ff14" />
<rect x="46" y="95" width="7" height="7" fill="#39ff14" />
<rect x="25" y="102" width="7" height="7" fill="#39ff14" />
<rect x="18" y="109" width="7" height="7" fill="#39ff14" />
<rect x="25" y="109" width="7" height="7" fill="#39ff14" />
</svg>