<?xml version="1.0" encoding="utf-8"?>
<svg xmlns="http://www.w3.org/2000/svg" width="116" height="74" viewBox="0 0 116 74">
<rect width="100%" height="100%" fill="transparent" />
<rect x="10" y="4" width="6" height="6" fill="#39ff14" />
<rect x="100" y="4" width="6" height="6" fill="#39ff14" />
<rect x="4" y="10" width="6" height="6" fill="#39ff14" />
<rect x="16" y="10" width="6" height="6" fill="#39ff14" />
<rect x="46" y="10" width="6" height="6" fill="#39ff14" />
<rect x="94" y="10" width="6" height="6" fill="#39ff14" />
<rect x="106" y="10" width="6" height="6" fill="#39ff14" />
<rect x="10" y="16" width="6" height="6" fill="#39ff14" />
<rect x="34" y="16" width="6" height="6" fill="#39ff14" />
<rect x="40" y="16" width="6" height="6" fill="#39ff14" />
<rect x="52" y="16" width="6" height="6" fill="#39ff14" />
<rect x="58" y="16" width="6" height="6" fill="#39ff14" />
<rect x="100" y="16" width="6" height="6" fill="#39ff14" />
<rect x="46" y="22" width="6" height="6" fill="#39ff14" />
<rect x="46" y="46" width="6" height="6" fill="#39ff14" />
<rect x="10" y="52" width="6" height="6" fill="#39ff14" />
<rect x="34" y="52" width="6" height="6" fill="#39ff14" />
<rect x="40" y="52" width="6" height="6" fill="#39ff14" />
<rect x="52" y="52" width="6" height="6" fill="#39ff14" />
<rect x="58" y="52" width="6" height="6" fill="#39ff14" />
<rect x="100" y="52" width="6" height="6" fill="#39ff14" />
<rect x="4" y="58" width="6" height="6" fill="#39ff14" />
<rect x="16" y="58" width="6" height="6" fill="#39ff14" />
<rect x="46" y="58" width="6" height="6" fill="#39ff14" />
<rect x="94" y="58" width="6" height="6" fill="#39ff14" />
<rect x="106" y="58" width="6" height="6" fill="#39ff14" />
<rect x="10" y="64" width="6" height="6" fill="#39ff14" />
<rect x="100" y="64" width="6" height="6" fill="#39ff14" />
</svg>