<?xml version="1.0" encoding="utf-8"?>
<svg xmlns="http://www.w3.org/2000/svg" width="98" height="52" viewBox="0 0 98 52">
<rect width="100%" height="100%" fill="transparent" />
<rect x="48" y="4" width="2" height="2" fill="#39ff14" />
<rect x="50" y="4" width="2" height="2" fill="#39ff14" />
<rect x="50" y="6" width="2" height="2" fill="#39ff14" />
<rect x="24" y="8" width="2" height="2" fill="#39ff14" />
<rect x="48" y="8" width="2" height="2" fill="#39ff14" />
<rect x="24" y="10" width="2" height="2" fill="#39ff14" />
<rect x="26" y="10" width="2" height="2" fill="#39ff14" />
<rect x="28" y="10" width="2" height="2" fill="#39ff14" />
<rect x="48" y="10" width="2" height="2" fill="#39ff14" />
<rect x="50" y="10" width="2" height="2" fill="#39ff14" />
<rect x="30" y="12" width="2" height="2" fill="#39ff14" />
<rect x="4" y="14" width="2" height="2" fill="#39ff14" />
<rect x="6" y="14" width="2" height="2" fill="#39ff14" />
<rect x="28" y="14" width="2" height="2" fill="#39ff14" />
<rect x="30" y="14" width="2" height="2" fill="#39ff14" />
<rect x="6" y="16" width="2" height="2" fill="#39ff14" />
<rect x="6" y="18" width="2" height="2" fill="#39ff14" />
<rect x="10" y="18" width="2" height="2" fill="#39ff14" />
<rect x="8" y="20" width="2" height="2" fill="#39ff14" />
<rect x="10" y="20" width="2" height="2" fill="#39ff14" />
<rect x="54" y="22" width="2" height="2" fill="#39ff14" />
<rect x="56" y="22" width="2" height="2" fill="#39ff14" />
<rect x="88" y="22" width="2" height="2" fill="#39ff14" />
<rect x="54" y="24" width="2" height="2" fill="#39ff14" />
<rect x="56" y="24" width="2" height="2" fill="#39ff14" />
<rect x="88" y="24" width="2" height="2" fill="#39ff14" />
<rect x="88" y="26" width="2" height="2" fill="#39ff14" />
<rect x="90" y="26" width="2" height="2" fill="#39ff14" />
<rect x="92" y="26" width="2" height="2" fill="#39ff14" />
<rect x="92" y="28" width="2" height="2" fill="#39ff14" />
<rect x="8" y="34" width="2" height="2" fill="#39ff14" />
<rect x="8" y="36" width="2" height="2" fill="#39ff14" />
<rect x="12" y="36" width="2" height="2" fill="#39ff14" />
<rect x="8" y="38" width="2" height="2" fill="#39ff14" />
<rect x="10" y="38" width="2" height="2" fill="#39ff14" />
<rect x="12" y="38" width="2" height="2" fill="#39ff14" />
<rect x="12" y="40" width="2" height="2" fill="#39ff14" />
<rect x="36" y="40" width="2" height="2" fill="#39ff14" />
<rect x="38" y="40" width="2" height="2" fill="#39ff14" />
<rect x="36" y="42" width="2" height="2" fill="#39ff14" />
<rect x="38" y="44" width="2" height="2" fill="#39ff14" />
<rect x="40" y="44" width="2" height="2" fill="#39ff14" />
<rect x="42" y="44" width="2" height="2" fill="#39ff14" />
<rect x="42" y="46" width="2" height="2" fill="#39ff14" />
</svg>