<?xml version="1.0" encoding="utf-8"?>
<svg xmlns="http://www.w3.org/2000/svg" width="110" height="68" viewBox="0 0 110 68">
<rect width="100%" height="100%" fill="transparent" />
<rect x="10" y="4" width="3" height="3" fill="#39ff14" />
<rect x="7" y="7" width="3" height="3" fill="#39ff14" />
<rect x="13" y="7" width="3" height="3" fill="#39ff14" />
<rect x="7" y="10" width="3" height="3" fill="#39ff14" />
<rect x="13" y="10" width="3" height="3" fill="#39ff14" />
<rect x="82" y="10" width="3" height="3" fill="#39ff14" />
<rect x="88" y="10" width="3" height="3" fill="#39ff14" />
<rect x="100" y="10" width="3" height="3" fill="#39ff14" />
<rect x="7" y="13" width="3" height="3" fill="#39ff14" />
<rect x="79" y="13" width="3" height="3" fill="#39ff14" />
<rect x="82" y="13" width="3" height="3" fill="#39ff14" />
<rect x="88" y="13" width="3" height="3" fill="#39ff14" />
<rect x="94" y="13" width="3" height="3" fill="#39ff14" />
<rect x="103" y="13" width="3" height="3" fill="#39ff14" />
<rect x="37" y="16" width="3" height="3" fill="#39ff14" />
<rect x="40" y="16" width="3" height="3" fill="#39ff14" />
<rect x="43" y="16" width="3" height="3" fill="#39ff14" />
<rect x="70" y="16" width="3" height="3" fill="#39ff14" />
<rect x="100" y="16" width="3" height="3" fill="#39ff14" />
<rect x="4" y="19" width="3" height="3" fill="#39ff14" />
<rect x="7" y="19" width="3" height="3" fill="#39ff14" />
<rect x="37" y="19" width="3" height="3" fill="#39ff14" />
<rect x="40" y="19" width="3" height="3" fill="#39ff14" />
<rect x="49" y="19" width="3" height="3" fill="#39ff14" />
<rect x="55" y="19" width="3" height="3" fill="#39ff14" />
<rect x="58" y="19" width="3" height="3" fill="#39ff14" />
<rect x="70" y="19" width="3" height="3" fill="#39ff14" />
<rect x="79" y="19" width="3" height="3" fill="#39ff14" />
<rect x="82" y="19" width="3" height="3" fill="#39ff14" />
<rect x="85" y="19" width="3" height="3" fill="#39ff14" />
<rect x="88" y="19" width="3" height="3" fill="#39ff14" />
<rect x="7" y="22" width="3" height="3" fill="#39ff14" />
<rect x="13" y="22" width="3" height="3" fill="#39ff14" />
<rect x="43" y="22" width="3" height="3" fill="#39ff14" />
<rect x="46" y="22" width="3" height="3" fill="#39ff14" />
<rect x="49" y="22" width="3" height="3" fill="#39ff14" />
<rect x="52" y="22" width="3" height="3" fill="#39ff14" />
<rect x="61" y="22" width="3" height="3" fill="#39ff14" />
<rect x="67" y="22" width="3" height="3" fill="#39ff14" />
<rect x="76" y="22" width="3" height="3" fill="#39ff14" />
<rect x="79" y="22" width="3" height="3" fill="#39ff14" />
<rect x="94" y="22" width="3" height="3" fill="#39ff14" />
<rect x="97" y="22" width="3" height="3" fill="#39ff14" />
<rect x="7" y="25" width="3" height="3" fill="#39ff14" />
<rect x="10" y="25" width="3" height="3" fill="#39ff14" />
<rect x="37" y="25" width="3" height="3" fill="#39ff14" />
<rect x="46" y="25" width="3" height="3" fill="#39ff14" />
<rect x="58" y="25" width="3" height="3" fill="#39ff14" />
<rect x="61" y="25" width="3" height="3" fill="#39ff14" />
<rect x="64" y="25" width="3" height="3" fill="#39ff14" />
<rect x="82" y="25" width="3" height="3" fill="#39ff14" />
<rect x="85" y="25" width="3" height="3" fill="#39ff14" />
<rect x="88" y="25" width="3" height="3" fill="#39ff14" />
<rect x="10" y="28" width="3" height="3" fill="#39ff14" />
<rect x="34" y="28" width="3" height="3" fill="#39ff14" />
<rect x="49" y="28" width="3" height="3" fill="#39ff14" />
<rect x="58" y="28" width="3" height="3" fill="#39ff14" />
<rect x="61" y="28" width="3" height="3" fill="#39ff14" />
<rect x="70" y="28" width="3" height="3" fill="#39ff14" />
<rect x="73" y="28" width="3" height="3" fill="#39ff14" />
<rect x="82" y="28" width="3" height="3" fill="#39ff14" />
<rect x="91" y="28" width="3" height="3" fill="#39ff14" />
<rect x="13" y="31" width="3" height="3" fill="#39ff14" />
<rect x="22" y="31" width="3" height="3" fill="#39ff14" />
<rect x="34" y="31" width="3" height="3" fill="#39ff14" />
<rect x="49" y="31" width="3" height="3" fill="#39ff14" />
<rect x="58" y="31" width="3" height="3" fill="#39ff14" />
<rect x="61" y="31" width="3" height="3" fill="#39ff14" />
<rect x="64" y="31" width="3" height="3" fill="#39ff14" />
<rect x="70" y="31" width="3" height="3" fill="#39ff14" />
<rect x="76" y="31" width="3" height="3" fill="#39ff14" />
<rect x="91" y="31" width="3" height="3" fill="#39ff14" />
<rect x="94" y="31" width="3" height="3" fill="#39ff14" />
<rect x="25" y="34" width="3" height="3" fill="#39ff14" />
<rect x="31" y="34" width="3" height="3" fill="#39ff14" />
<rect x="34" y="34" width="3" height="3" fill="#39ff14" />
<rect x="49" y="34" width="3" height="3" fill="#39ff14" />
<rect x="58" y="34" width="3" height="3" fill="#39ff14" />
<rect x="61" y="34" width="3" height="3" fill="#39ff14" />
<rect x="64" y="34" width="3" height="3" fill="#39ff14" />
<rect x="67" y="34" width="3" height="3" fill="#39ff14" />
<rect x="85" y="34" width="3" height="3" fill="#39ff14" />
<rect x="16" y="37" width="3" height="3" fill="#39ff14" />
<rect x="19" y="37" width="3" height="3" fill="#39ff14" />
<rect x="31" y="37" width="3" height="3" fill="#39ff14" />
<rect x="34" y="37" width="3" height="3" fill="#39ff14" />
<rect x="49" y="37" width="3" height="3" fill="#39ff14" />
<rect x="58" y="37" width="3" height="3" fill="#39ff14" />
<rect x="61" y="37" width="3" height="3" fill="#39ff14" />
<rect x="64" y="37" width="3" height="3" fill="#39ff14" />
<rect x="67" y="37" width="3" height="3" fill="#39ff14" />
<rect x="85" y="37" width="3" height="3" fill="#39ff14" />
<rect x="16" y="40" width="3" height="3" fill="#39ff14" />
<rect x="22" y="40" width="3" height="3" fill="#39ff14" />
<rect x="34" y="40" width="3" height="3" fill="#39ff14" />
<rect x="49" y="40" width="3" height="3" fill="#39ff14" />
<rect x="58" y="40" width="3" height="3" fill="#39ff14" />
<rect x="61" y="40" width="3" height="3" fill="#39ff14" />
<rect x="64" y="40" width="3" height="3" fill="#39ff14" />
<rect x="70" y="40" width="3" height="3" fill="#39ff14" />
<rect x="76" y="40" width="3" height="3" fill="#39ff14" />
<rect x="91" y="40" width="3" height="3" fill="#39ff14" />
<rect x="94" y="40" width="3" height="3" fill="#39ff14" />
<rect x="13" y="43" width="3" height="3" fill="#39ff14" />
<rect x="16" y="43" width="3" height="3" fill="#39ff14" />
<rect x="34" y="43" width="3" height="3" fill="#39ff14" />
<rect x="49" y="43" width="3" height="3" fill="#39ff14" />
<rect x="58" y="43" width="3" height="3" fill="#39ff14" />
<rect x="61" y="43" width="3" height="3" fill="#39ff14" />
<rect x="70" y="43" width="3" height="3" fill="#39ff14" />
<rect x="73" y="43" width="3" height="3" fill="#39ff14" />
<rect x="82" y="43" width="3" height="3" fill="#39ff14" />
<rect x="91" y="43" width="3" height="3" fill="#39ff14" />
<rect x="16" y="46" width="3" height="3" fill="#39ff14" />
<rect x="22" y="46" width="3" height="3" fill="#39ff14" />
<rect x="37" y="46" width="3" height="3" fill="#39ff14" />
<rect x="46" y="46" width="3" height="3" fill="#39ff14" />
<rect x="58" y="46" width="3" height="3" fill="#39ff14" />
<rect x="61" y="46" width="3" height="3" fill="#39ff14" />
<rect x="64" y="46" width="3" height="3" fill="#39ff14" />
<rect x="82" y="46" width="3" height="3" fill="#39ff14" />
<rect x="85" y="46" width="3" height="3" fill="#39ff14" />
<rect x="88" y="46" width="3" height="3" fill="#39ff14" />
<rect x="19" y="49" width="3" height="3" fill="#39ff14" />
<rect x="43" y="49" width="3" height="3" fill="#39ff14" />
<rect x="46" y="49" width="3" height="3" fill="#39ff14" />
<rect x="49" y="49" width="3" height="3" fill="#39ff14" />
<rect x="52" y="49" width="3" height="3" fill="#39ff14" />
<rect x="61" y="49" width="3" height="3" fill="#39ff14" />
<rect x="67" y="49" width="3" height="3" fill="#39ff14" />
<rect x="76" y="49" width="3" height="3" fill="#39ff14" />
<rect x="79" y="49" width="3" height="3" fill="#39ff14" />
<rect x="94" y="49" width="3" height="3" fill="#39ff14" />
<rect x="97" y="49" width="3" height="3" fill="#39ff14" />
<rect x="37" y="52" width="3" height="3" fill="#39ff14" />
<rect x="40" y="52" width="3" height="3" fill="#39ff14" />
<rect x="49" y="52" width="3" height="3" fill="#39ff14" />
<rect x="55" y="52" width="3" height="3" fill="#39ff14" />
<rect x="58" y="52" width="3" height="3" fill="#39ff14" />
<rect x="70" y="52" width="3" height="3" fill="#39ff14" />
<rect x="79" y="52" width="3" height="3" fill="#39ff14" />
<rect x="82" y="52" width="3" height="3" fill="#39ff14" />
<rect x="85" y="52" width="3" height="3" fill="#39ff14" />
<rect x="88" y="52" width="3" height="3" fill="#39ff14" />
<rect x="37" y="55" width="3" height="3" fill="#39ff14" />
<rect x="40" y="55" width="3" height="3" fill="#39ff14" />
<rect x="43" y="55" width="3" height="3" fill="#39ff14" />
<rect x="70" y="55" width="3" height="3" fill="#39ff14" />
<rect x="100" y="55" width="3" height="3" fill="#39ff14" />
<rect x="79" y="58" width="3" height="3" fill="#39ff14" />
<rect x="82" y="58" width="3" height="3" fill="#39ff14" />
<rect x="88" y="58" width="3" height="3" fill="#39ff14" />
<rect x="94" y="58" width="3" height="3" fill="#39ff14" />
<rect x="103" y="58" width="3" height="3" fill="#39ff14" />
<rect x="82" y="61" width="3" height="3" fill="#39ff14" />
<rect x="88" y="61" width="3" height="3" fill="#39ff14" />
<rect x="100" y="61" width="3" height="3" fill="#39ff14" />
</svg>