<?xml version="1.0" encoding="utf-8"?>
<svg xmlns="http://www.w3.org/2000/svg" width="128" height="104" viewBox="0 0 128 104">
<rect width="100%" height="100%" fill="transparent" />
<rect x="40" y="4" width="4" height="4" fill="#39ff14" />
<rect x="40" y="8" width="4" height="4" fill="#39ff14" />
<rect x="48" y="8" width="4" height="4" fill="#39ff14" />
<rect x="40" y="12" width="4" height="4" fill="#39ff14" />
<rect x="44" y="12" width="4" height="4" fill="#39ff14" />
<rect x="48" y="12" width="4" height="4" fill="#39ff14" />
<rect x="48" y="16" width="4" height="4" fill="#39ff14" />
<rect x="12" y="36" width="4" height="4" fill="#39ff14" />
<rect x="16" y="36" width="4" height="4" fill="#39ff14" />
<rect x="44" y="36" width="4" height="4" fill="#39ff14" />
<rect x="48" y="36" width="4" height="4" fill="#39ff14" />
<rect x="16" y="40" width="4" height="4" fill="#39ff14" />
<rect x="48" y="40" width="4" height="4" fill="#39ff14" />
<rect x="4" y="44" width="4" height="4" fill="#39ff14" />
<rect x="8" y="44" width="4" height="4" fill="#39ff14" />
<rect x="12" y="44" width="4" height="4" fill="#39ff14" />
<rect x="36" y="44" width="4" height="4" fill="#39ff14" />
<rect x="40" y="44" width="4" height="4" fill="#39ff14" />
<rect x="44" y="44" width="4" height="4" fill="#39ff14" />
<rect x="4" y="48" width="4" height="4" fill="#39ff14" />
<rect x="36" y="48" width="4" height="4" fill="#39ff14" />
<rect x="76" y="64" width="4" height="4" fill="#39ff14" />
<rect x="80" y="64" width="4" height="4" fill="#39ff14" />
<rect x="56" y="68" width="4" height="4" fill="#39ff14" />
<rect x="60" y="68" width="4" height="4" fill="#39ff14" />
<rect x="76" y="68" width="4" height="4" fill="#39ff14" />
<rect x="80" y="68" width="4" height="4" fill="#39ff14" />
<rect x="56" y="72" width="4" height="4" fill="#39ff14" />
<rect x="60" y="72" width="4" height="4" fill="#39ff14" />
<rect x="52" y="84" width="4" height="4" fill="#39ff14" />
<rect x="56" y="84" width="4" height="4" fill="#39ff14" />
<rect x="108" y="84" width="4" height="4" fill="#39ff14" />
<rect x="112" y="84" width="4" height="4" fill="#39ff14" />
<rect x="56" y="88" width="4" height="4" fill="#39ff14" />
<rect x="76" y="88" width="4" height="4" fill="#39ff14" />
<rect x="80" y="88" width="4" height="4" fill="#39ff14" />
<rect x="108" y="88" width="4" height="4" fill="#39ff14" />
<rect x="44" y="92" width="4" height="4" fill="#39ff14" />
<rect x="48" y="92" width="4" height="4" fill="#39ff14" />
<rect x="52" y="92" width="4" height="4" fill="#39ff14" />
<rect x="76" y="92" width="4" height="4" fill="#39ff14" />
<rect x="80" y="92" width="4" height="4" fill="#39ff14" />
<rect x="112" y="92" width="4" height="4" fill="#39ff14" />
<rect x="116" y="92" width="4" height="4" fill="#39ff14" />
<rect x="120" y="92" width="4" height="4" fill="#39ff14" />
<rect x="44" y="96" width="4" height="4" fill="#39ff14" />
<rect x="120" y="96" width="4" height="4" fill="#39ff14" />
</svg>