<?xml version="1.0" encoding="utf-8"?>
<svg xmlns="http://www.w3.org/2000/svg" width="124" height="128" viewBox="0 0 124 128">
<rect width="100%" height="100%" fill="transparent" />
<rect x="8" y="4" width="4" height="4" fill="#39ff14" />
<rect x="12" y="8" width="4" height="4" fill="#39ff14" />
<rect x="56" y="8" width="4" height="4" fill="#39ff14" />
<rect x="60" y="8" width="4" height="4" fill="#39ff14" />
<rect x="4" y="12" width="4" height="4" fill="#39ff14" />
<rect x="8" y="12" width="4" height="4" fill="#39ff14" />
<rect x="12" y="12" width="4" height="4" fill="#39ff14" />
<rect x="52" y="12" width="4" height="4" fill="#39ff14" />
<rect x="56" y="12" width="4" height="4" fill="#39ff14" />
<rect x="60" y="12" width="4" height="4" fill="#39ff14" />
<rect x="52" y="16" width="4" height="4" fill="#39ff14" />
<rect x="56" y="16" width="4" height="4" fill="#39ff14" />
<rect x="64" y="16" width="4" height="4" fill="#39ff14" />
<rect x="24" y="20" width="4" height="4" fill="#39ff14" />
<rect x="56" y="20" width="4" height="4" fill="#39ff14" />
<rect x="60" y="20" width="4" height="4" fill="#39ff14" />
<rect x="64" y="20" width="4" height="4" fill="#39ff14" />
<rect x="16" y="24" width="4" height="4" fill="#39ff14" />
<rect x="24" y="24" width="4" height="4" fill="#39ff14" />
<rect x="60" y="24" width="4" height="4" fill="#39ff14" />
<rect x="20" y="28" width="4" height="4" fill="#39ff14" />
<rect x="24" y="28" width="4" height="4" fill="#39ff14" />
<rect x="92" y="36" width="4" height="4" fill="#39ff14" />
<rect x="96" y="36" width="4" height="4" fill="#39ff14" />
<rect x="100" y="36" width="4" height="4" fill="#39ff14" />
<rect x="104" y="36" width="4" height="4" fill="#39ff14" />
<rect x="88" y="40" width="4" height="4" fill="#39ff14" />
<rect x="92" y="40" width="4" height="4" fill="#39ff14" />
<rect x="96" y="40" width="4" height="4" fill="#39ff14" />
<rect x="100" y="40" width="4" height="4" fill="#39ff14" />
<rect x="104" y="40" width="4" height="4" fill="#39ff14" />
<rect x="108" y="40" width="4" height="4" fill="#39ff14" />
<rect x="84" y="44" width="4" height="4" fill="#39ff14" />
<rect x="88" y="44" width="4" height="4" fill="#39ff14" />
<rect x="92" y="44" width="4" height="4" fill="#39ff14" />
<rect x="96" y="44" width="4" height="4" fill="#39ff14" />
<rect x="100" y="44" width="4" height="4" fill="#39ff14" />
<rect x="104" y="44" width="4" height="4" fill="#39ff14" />
<rect x="108" y="44" width="4" height="4" fill="#39ff14" />
<rect x="112" y="44" width="4" height="4" fill="#39ff14" />
<rect x="52" y="48" width="4" height="4" fill="#39ff14" />
<rect x="80" y="48" width="4" height="4" fill="#39ff14" />
<rect x="84" y="48" width="4" height="4" fill="#39ff14" />
<rect x="112" y="48" width="4" height="4" fill="#39ff14" />
<rect x="116" y="48" width="4" height="4" fill="#39ff14" />
<rect x="16" y="52" width="4" height="4" fill="#39ff14" />
<rect x="20" y="52" width="4" height="4" fill="#39ff14" />
<rect x="44" y="52" width="4" height="4" fill="#39ff14" />
<rect x="52" y="52" width="4" height="4" fill="#39ff14" />
<rect x="84" y="52" width="4" height="4" fill="#39ff14" />
<rect x="88" y="52" width="4" height="4" fill="#39ff14" />
<rect x="92" y="52" width="4" height="4" fill="#39ff14" />
<rect x="96" y="52" width="4" height="4" fill="#39ff14" />
<rect x="100" y="52" width="4" height="4" fill="#39ff14" />
<rect x="104" y="52" width="4" height="4" fill="#39ff14" />
<rect x="108" y="52" width="4" height="4" fill="#39ff14" />
<rect x="112" y="52" width="4" height="4" fill="#39ff14" />
<rect x="8" y="56" width="4" height="4" fill="#39ff14" />
<rect x="12" y="56" width="4" height="4" fill="#39ff14" />
<rect x="20" y="56" width="4" height="4" fill="#39ff14" />
<rect x="24" y="56" width="4" height="4" fill="#39ff14" />
<rect x="48" y="56" width="4" height="4" fill="#39ff14" />
<rect x="52" y="56" width="4" height="4" fill="#39ff14" />
<rect x="88" y="56" width="4" height="4" fill="#39ff14" />
<rect x="92" y="56" width="4" height="4" fill="#39ff14" />
<rect x="96" y="56" width="4" height="4" fill="#39ff14" />
<rect x="100" y="56" width="4" height="4" fill="#39ff14" />
<rect x="104" y="56" width="4" height="4" fill="#39ff14" />
<rect x="108" y="56" width="4" height="4" fill="#39ff14" />
<rect x="8" y="60" width="4" height="4" fill="#39ff14" />
<rect x="12" y="60" width="4" height="4" fill="#39ff14" />
<rect x="16" y="60" width="4" height="4" fill="#39ff14" />
<rect x="20" y="60" width="4" height="4" fill="#39ff14" />
<rect x="64" y="60" width="4" height="4" fill="#39ff14" />
<rect x="92" y="60" width="4" height="4" fill="#39ff14" />
<rect x="96" y="60" width="4" height="4" fill="#39ff14" />
<rect x="100" y="60" width="4" height="4" fill="#39ff14" />
<rect x="104" y="60" width="4" height="4" fill="#39ff14" />
<rect x="12" y="64" width="4" height="4" fill="#39ff14" />
<rect x="16" y="64" width="4" height="4" fill="#39ff14" />
<rect x="68" y="64" width="4" height="4" fill="#39ff14" />
<rect x="60" y="68" width="4" height="4" fill="#39ff14" />
<rect x="64" y="68" width="4" height="4" fill="#39ff14" />
<rect x="68" y="68" width="4" height="4" fill="#39ff14" />
<rect x="24" y="84" width="4" height="4" fill="#39ff14" />
<rect x="28" y="84" width="4" height="4" fill="#39ff14" />
<rect x="32" y="84" width="4" height="4" fill="#39ff14" />
<rect x="36" y="84" width="4" height="4" fill="#39ff14" />
<rect x="40" y="84" width="4" height="4" fill="#39ff14" />
<rect x="44" y="84" width="4" height="4" fill="#39ff14" />
<rect x="48" y="84" width="4" height="4" fill="#39ff14" />
<rect x="16" y="88" width="4" height="4" fill="#39ff14" />
<rect x="20" y="88" width="4" height="4" fill="#39ff14" />
<rect x="24" y="88" width="4" height="4" fill="#39ff14" />
<rect x="32" y="88" width="4" height="4" fill="#39ff14" />
<rect x="36" y="88" width="4" height="4" fill="#39ff14" />
<rect x="40" y="88" width="4" height="4" fill="#39ff14" />
<rect x="48" y="88" width="4" height="4" fill="#39ff14" />
<rect x="52" y="88" width="4" height="4" fill="#39ff14" />
<rect x="56" y="88" width="4" height="4" fill="#39ff14" />
<rect x="12" y="92" width="4" height="4" fill="#39ff14" />
<rect x="32" y="92" width="4" height="4" fill="#39ff14" />
<rect x="36" y="92" width="4" height="4" fill="#39ff14" />
<rect x="40" y="92" width="4" height="4" fill="#39ff14" />
<rect x="60" y="92" width="4" height="4" fill="#39ff14" />
<rect x="16" y="96" width="4" height="4" fill="#39ff14" />
<rect x="20" y="96" width="4" height="4" fill="#39ff14" />
<rect x="24" y="96" width="4" height="4" fill="#39ff14" />
<rect x="28" y="96" width="4" height="4" fill="#39ff14" />
<rect x="36" y="96" width="4" height="4" fill="#39ff14" />
<rect x="44" y="96" width="4" height="4" fill="#39ff14" />
<rect x="48" y="96" width="4" height="4" fill="#39ff14" />
<rect x="52" y="96" width="4" height="4" fill="#39ff14" />
<rect x="60" y="96" width="4" height="4" fill="#39ff14" />
<rect x="56" y="100" width="4" height="4" fill="#39ff14" />
<rect x="12" y="104" width="4" height="4" fill="#39ff14" />
<rect x="20" y="104" width="4" height="4" fill="#39ff14" />
<rect x="24" y="104" width="4" height="4" fill="#39ff14" />
<rect x="32" y="104" width="4" height="4" fill="#39ff14" />
<rect x="40" y="104" width="4" height="4" fill="#39ff14" />
<rect x="48" y="104" width="4" height="4" fill="#39ff14" />
<rect x="12" y="108" width="4" height="4" fill="#39ff14" />
<rect x="16" y="108" width="4" height="4" fill="#39ff14" />
<rect x="24" y="108" width="4" height="4" fill="#39ff14" />
<rect x="32" y="108" width="4" height="4" fill="#39ff14" />
<rect x="40" y="108" width="4" height="4" fill="#39ff14" />
<rect x="48" y="108" width="4" height="4" fill="#39ff14" />
<rect x="52" y="108" width="4" height="4" fill="#39ff14" />
<rect x="28" y="112" width="4" height="4" fill="#39ff14" />
<rect x="40" y="112" width="4" height="4" fill="#39ff14" />
<rect x="48" y="112" width="4" height="4" fill="#39ff14" />
<rect x="32" y="116" width="4" height="4" fill="#39ff14" />
<rect x="36" y="116" width="4" height="4" fill="#39ff14" />
<rect x="48" y="116" width="4" height="4" fill="#39ff14" />
<rect x="48" y="120" width="4" height="4" fill="#39ff14" />
<rect x="52" y="120" width="4" height="4" fill="#39ff14" />
</svg>