<?xml version="1.0" encoding="utf-8"?>
<svg xmlns="http://www.w3.org/2000/svg" width="108" height="113" viewBox="0 0 108 113">
<rect width="100%" height="100%" fill="transparent" />
<rect x="49" y="4" width="5" height="5" fill="#39ff14" />
<rect x="54" y="4" width="5" height="5" fill="#39ff14" />
<rect x="44" y="9" width="5" height="5" fill="#39ff14" />
<rect x="49" y="9" width="5" height="5" fill="#39ff14" />
<rect x="59" y="9" width="5" height="5" fill="#39ff14" />
<rect x="64" y="9" width="5" height="5" fill="#39ff14" />
<rect x="69" y="9" width="5" height="5" fill="#39ff14" />
<rect x="74" y="9" width="5" height="5" fill="#39ff14" />
<rect x="9" y="14" width="5" height="5" fill="#39ff14" />
<rect x="49" y="14" width="5" height="5" fill="#39ff14" />
<rect x="54" y="14" width="5" height="5" fill="#39ff14" />
<rect x="59" y="14" width="5" height="5" fill="#39ff14" />
<rect x="64" y="14" width="5" height="5" fill="#39ff14" />
<rect x="69" y="14" width="5" height="5" fill="#39ff14" />
<rect x="74" y="14" width="5" height="5" fill="#39ff14" />
<rect x="4" y="19" width="5" height="5" fill="#39ff14" />
<rect x="54" y="19" width="5" height="5" fill="#39ff14" />
<rect x="59" y="19" width="5" height="5" fill="#39ff14" />
<rect x="64" y="19" width="5" height="5" fill="#39ff14" />
<rect x="69" y="19" width="5" height="5" fill="#39ff14" />
<rect x="4" y="24" width="5" height="5" fill="#39ff14" />
<rect x="9" y="24" width="5" height="5" fill="#39ff14" />
<rect x="14" y="24" width="5" height="5" fill="#39ff14" />
<rect x="19" y="49" width="5" height="5" fill="#39ff14" />
<rect x="9" y="54" width="5" height="5" fill="#39ff14" />
<rect x="29" y="54" width="5" height="5" fill="#39ff14" />
<rect x="4" y="59" width="5" height="5" fill="#39ff14" />
<rect x="4" y="64" width="5" height="5" fill="#39ff14" />
<rect x="29" y="64" width="5" height="5" fill="#39ff14" />
<rect x="4" y="69" width="5" height="5" fill="#39ff14" />
<rect x="9" y="69" width="5" height="5" fill="#39ff14" />
<rect x="14" y="69" width="5" height="5" fill="#39ff14" />
<rect x="19" y="69" width="5" height="5" fill="#39ff14" />
<rect x="24" y="69" width="5" height="5" fill="#39ff14" />
<rect x="69" y="84" width="5" height="5" fill="#39ff14" />
<rect x="74" y="84" width="5" height="5" fill="#39ff14" />
<rect x="79" y="84" width="5" height="5" fill="#39ff14" />
<rect x="84" y="84" width="5" height="5" fill="#39ff14" />
<rect x="89" y="84" width="5" height="5" fill="#39ff14" />
<rect x="94" y="84" width="5" height="5" fill="#39ff14" />
<rect x="69" y="89" width="5" height="5" fill="#39ff14" />
<rect x="99" y="89" width="5" height="5" fill="#39ff14" />
<rect x="69" y="94" width="5" height="5" fill="#39ff14" />
<rect x="74" y="99" width="5" height="5" fill="#39ff14" />
<rect x="99" y="99" width="5" height="5" fill="#39ff14" />
<rect x="84" y="104" width="5" height="5" fill="#39ff14" />
<rect x="89" y="104" width="5" height="5" fill="#39ff14" />
</svg>