<?xml version="1.0" encoding="utf-8"?>
<svg xmlns="http://www.w3.org/2000/svg" width="128" height="128" viewBox="0 0 128 128">
<rect width="100%" height="100%" fill="transparent" />
<rect x="64" y="4" width="6" height="6" fill="#39ff14" />
<rect x="70" y="4" width="6" height="6" fill="#39ff14" />
<rect x="64" y="10" width="6" height="6" fill="#39ff14" />
<rect x="28" y="16" width="6" height="6" fill="#39ff14" />
<rect x="34" y="16" width="6" height="6" fill="#39ff14" />
<rect x="46" y="16" width="6" height="6" fill="#39ff14" />
<rect x="52" y="16" width="6" height="6" fill="#39ff14" />
<rect x="64" y="16" width="6" height="6" fill="#39ff14" />
<rect x="94" y="16" width="6" height="6" fill="#39ff14" />
<rect x="100" y="16" width="6" height="6" fill="#39ff14" />
<rect x="16" y="22" width="6" height="6" fill="#39ff14" />
<rect x="34" y="22" width="6" height="6" fill="#39ff14" />
<rect x="46" y="22" width="6" height="6" fill="#39ff14" />
<rect x="58" y="22" width="6" height="6" fill="#39ff14" />
<rect x="94" y="22" width="6" height="6" fill="#39ff14" />
<rect x="16" y="28" width="6" height="6" fill="#39ff14" />
<rect x="22" y="28" width="6" height="6" fill="#39ff14" />
<rect x="52" y="28" width="6" height="6" fill="#39ff14" />
<rect x="106" y="28" width="6" height="6" fill="#39ff14" />
<rect x="100" y="34" width="6" height="6" fill="#39ff14" />
<rect x="106" y="34" width="6" height="6" fill="#39ff14" />
<rect x="100" y="46" width="6" height="6" fill="#39ff14" />
<rect x="106" y="46" width="6" height="6" fill="#39ff14" />
<rect x="4" y="52" width="6" height="6" fill="#39ff14" />
<rect x="64" y="52" width="6" height="6" fill="#39ff14" />
<rect x="70" y="52" width="6" height="6" fill="#39ff14" />
<rect x="76" y="52" width="6" height="6" fill="#39ff14" />
<rect x="94" y="52" width="6" height="6" fill="#39ff14" />
<rect x="106" y="52" width="6" height="6" fill="#39ff14" />
<rect x="4" y="58" width="6" height="6" fill="#39ff14" />
<rect x="10" y="58" width="6" height="6" fill="#39ff14" />
<rect x="16" y="58" width="6" height="6" fill="#39ff14" />
<rect x="64" y="58" width="6" height="6" fill="#39ff14" />
<rect x="76" y="58" width="6" height="6" fill="#39ff14" />
<rect x="100" y="58" width="6" height="6" fill="#39ff14" />
<rect x="22" y="64" width="6" height="6" fill="#39ff14" />
<rect x="64" y="64" width="6" height="6" fill="#39ff14" />
<rect x="76" y="64" width="6" height="6" fill="#39ff14" />
<rect x="106" y="64" width="6" height="6" fill="#39ff14" />
<rect x="112" y="64" width="6" height="6" fill="#39ff14" />
<rect x="118" y="64" width="6" height="6" fill="#39ff14" />
<rect x="16" y="70" width="6" height="6" fill="#39ff14" />
<rect x="28" y="70" width="6" height="6" fill="#39ff14" />
<rect x="118" y="70" width="6" height="6" fill="#39ff14" />
<rect x="16" y="76" width="6" height="6" fill="#39ff14" />
<rect x="22" y="76" width="6" height="6" fill="#39ff14" />
<rect x="16" y="88" width="6" height="6" fill="#39ff14" />
<rect x="22" y="88" width="6" height="6" fill="#39ff14" />
<rect x="16" y="94" width="6" height="6" fill="#39ff14" />
<rect x="70" y="94" width="6" height="6" fill="#39ff14" />
<rect x="100" y="94" width="6" height="6" fill="#39ff14" />
<rect x="106" y="94" width="6" height="6" fill="#39ff14" />
<rect x="28" y="100" width="6" height="6" fill="#39ff14" />
<rect x="64" y="100" width="6" height="6" fill="#39ff14" />
<rect x="76" y="100" width="6" height="6" fill="#39ff14" />
<rect x="88" y="100" width="6" height="6" fill="#39ff14" />
<rect x="106" y="100" width="6" height="6" fill="#39ff14" />
<rect x="22" y="106" width="6" height="6" fill="#39ff14" />
<rect x="28" y="106" width="6" height="6" fill="#39ff14" />
<rect x="58" y="106" width="6" height="6" fill="#39ff14" />
<rect x="70" y="106" width="6" height="6" fill="#39ff14" />
<rect x="76" y="106" width="6" height="6" fill="#39ff14" />
<rect x="88" y="106" width="6" height="6" fill="#39ff14" />
<rect x="94" y="106" width="6" height="6" fill="#39ff14" />
<rect x="58" y="112" width="6" height="6" fill="#39ff14" />
<rect x="52" y="118" width="6" height="6" fill="#39ff14" />
<rect x="58" y="118" width="6" height="6" fill="#39ff14" />
</svg>