<?xml version="1.0" encoding="utf-8"?>
<svg xmlns="http://www.w3.org/2000/svg" width="102" height="96" viewBox="0 0 102 96">
<rect width="100%" height="100%" fill="transparent" />
<rect x="62" y="4" width="2" height="2" fill="#39ff14" />
<rect x="64" y="4" width="2" height="2" fill="#39ff14" />
<rect x="62" y="6" width="2" height="2" fill="#39ff14" />
<rect x="64" y="6" width="2" height="2" fill="#39ff14" />
<rect x="76" y="6" width="2" height="2" fill="#39ff14" />
<rect x="78" y="6" width="2" height="2" fill="#39ff14" />
<rect x="76" y="8" width="2" height="2" fill="#39ff14" />
<rect x="78" y="8" width="2" height="2" fill="#39ff14" />
<rect x="34" y="14" width="2" height="2" fill="#39ff14" />
<rect x="36" y="14" width="2" height="2" fill="#39ff14" />
<rect x="72" y="14" width="2" height="2" fill="#39ff14" />
<rect x="74" y="14" width="2" height="2" fill="#39ff14" />
<rect x="36" y="16" width="2" height="2" fill="#39ff14" />
<rect x="72" y="16" width="2" height="2" fill="#39ff14" />
<rect x="74" y="16" width="2" height="2" fill="#39ff14" />
<rect x="36" y="18" width="2" height="2" fill="#39ff14" />
<rect x="40" y="18" width="2" height="2" fill="#39ff14" />
<rect x="84" y="18" width="2" height="2" fill="#39ff14" />
<rect x="86" y="18" width="2" height="2" fill="#39ff14" />
<rect x="38" y="20" width="2" height="2" fill="#39ff14" />
<rect x="40" y="20" width="2" height="2" fill="#39ff14" />
<rect x="84" y="20" width="2" height="2" fill="#39ff14" />
<rect x="86" y="20" width="2" height="2" fill="#39ff14" />
<rect x="44" y="28" width="2" height="2" fill="#39ff14" />
<rect x="44" y="30" width="2" height="2" fill="#39ff14" />
<rect x="48" y="30" width="2" height="2" fill="#39ff14" />
<rect x="44" y="32" width="2" height="2" fill="#39ff14" />
<rect x="46" y="32" width="2" height="2" fill="#39ff14" />
<rect x="48" y="32" width="2" height="2" fill="#39ff14" />
<rect x="48" y="34" width="2" height="2" fill="#39ff14" />
<rect x="10" y="48" width="2" height="2" fill="#39ff14" />
<rect x="12" y="48" width="2" height="2" fill="#39ff14" />
<rect x="68" y="48" width="2" height="2" fill="#39ff14" />
<rect x="70" y="48" width="2" height="2" fill="#39ff14" />
<rect x="72" y="48" width="2" height="2" fill="#39ff14" />
<rect x="8" y="50" width="2" height="2" fill="#39ff14" />
<rect x="12" y="50" width="2" height="2" fill="#39ff14" />
<rect x="68" y="50" width="2" height="2" fill="#39ff14" />
<rect x="10" y="52" width="2" height="2" fill="#39ff14" />
<rect x="66" y="52" width="2" height="2" fill="#39ff14" />
<rect x="68" y="52" width="2" height="2" fill="#39ff14" />
<rect x="94" y="66" width="2" height="2" fill="#39ff14" />
<rect x="96" y="66" width="2" height="2" fill="#39ff14" />
<rect x="6" y="68" width="2" height="2" fill="#39ff14" />
<rect x="94" y="68" width="2" height="2" fill="#39ff14" />
<rect x="96" y="68" width="2" height="2" fill="#39ff14" />
<rect x="4" y="70" width="2" height="2" fill="#39ff14" />
<rect x="8" y="70" width="2" height="2" fill="#39ff14" />
<rect x="42" y="70" width="2" height="2" fill="#39ff14" />
<rect x="44" y="70" width="2" height="2" fill="#39ff14" />
<rect x="48" y="70" width="2" height="2" fill="#39ff14" />
<rect x="4" y="72" width="2" height="2" fill="#39ff14" />
<rect x="8" y="72" width="2" height="2" fill="#39ff14" />
<rect x="42" y="72" width="2" height="2" fill="#39ff14" />
<rect x="44" y="72" width="2" height="2" fill="#39ff14" />
<rect x="48" y="72" width="2" height="2" fill="#39ff14" />
<rect x="50" y="72" width="2" height="2" fill="#39ff14" />
<rect x="52" y="72" width="2" height="2" fill="#39ff14" />
<rect x="6" y="74" width="2" height="2" fill="#39ff14" />
<rect x="52" y="74" width="2" height="2" fill="#39ff14" />
<rect x="52" y="76" width="2" height="2" fill="#39ff14" />
<rect x="84" y="76" width="2" height="2" fill="#39ff14" />
<rect x="86" y="76" width="2" height="2" fill="#39ff14" />
<rect x="84" y="78" width="2" height="2" fill="#39ff14" />
<rect x="86" y="78" width="2" height="2" fill="#39ff14" />
<rect x="12" y="80" width="2" height="2" fill="#39ff14" />
<rect x="16" y="80" width="2" height="2" fill="#39ff14" />
<rect x="92" y="80" width="2" height="2" fill="#39ff14" />
<rect x="94" y="80" width="2" height="2" fill="#39ff14" />
<rect x="18" y="82" width="2" height="2" fill="#39ff14" />
<rect x="92" y="82" width="2" height="2" fill="#39ff14" />
<rect x="94" y="82" width="2" height="2" fill="#39ff14" />
<rect x="10" y="84" width="2" height="2" fill="#39ff14" />
<rect x="18" y="84" width="2" height="2" fill="#39ff14" />
<rect x="18" y="86" width="2" height="2" fill="#39ff14" />
<rect x="12" y="88" width="2" height="2" fill="#39ff14" />
<rect x="18" y="88" width="2" height="2" fill="#39ff14" />
<rect x="80" y="88" width="2" height="2" fill="#39ff14" />
<rect x="82" y="88" width="2" height="2" fill="#39ff14" />
<rect x="14" y="90" width="2" height="2" fill="#39ff14" />
<rect x="16" y="90" width="2" height="2" fill="#39ff14" />
<rect x="18" y="90" width="2" height="2" fill="#39ff14" />
<rect x="80" y="90" width="2" height="2" fill="#39ff14" />
<rect x="82" y="90" width="2" height="2" fill="#39ff14" />
</svg>