<?xml version="1.0" encoding="utf-8"?>
<svg xmlns="http://www.w3.org/2000/svg" width="101" height="83" viewBox="0 0 101 83">
<rect width="100%" height="100%" fill="transparent" />
<rect x="91" y="4" width="3" height="3" fill="#39ff14" />
<rect x="88" y="7" width="3" height="3" fill="#39ff14" />
<rect x="88" y="10" width="3" height="3" fill="#39ff14" />
<rect x="91" y="10" width="3" height="3" fill="#39ff14" />
<rect x="94" y="10" width="3" height="3" fill="#39ff14" />
<rect x="64" y="34" width="3" height="3" fill="#39ff14" />
<rect x="67" y="34" width="3" height="3" fill="#39ff14" />
<rect x="61" y="37" width="3" height="3" fill="#39ff14" />
<rect x="70" y="37" width="3" height="3" fill="#39ff14" />
<rect x="61" y="40" width="3" height="3" fill="#39ff14" />
<rect x="67" y="40" width="3" height="3" fill="#39ff14" />
<rect x="55" y="43" width="3" height="3" fill="#39ff14" />
<rect x="58" y="43" width="3" height="3" fill="#39ff14" />
<rect x="64" y="43" width="3" height="3" fill="#39ff14" />
<rect x="28" y="46" width="3" height="3" fill="#39ff14" />
<rect x="52" y="46" width="3" height="3" fill="#39ff14" />
<rect x="61" y="46" width="3" height="3" fill="#39ff14" />
<rect x="22" y="49" width="3" height="3" fill="#39ff14" />
<rect x="25" y="49" width="3" height="3" fill="#39ff14" />
<rect x="52" y="49" width="3" height="3" fill="#39ff14" />
<rect x="58" y="49" width="3" height="3" fill="#39ff14" />
<rect x="25" y="52" width="3" height="3" fill="#39ff14" />
<rect x="28" y="52" width="3" height="3" fill="#39ff14" />
<rect x="55" y="52" width="3" height="3" fill="#39ff14" />
<rect x="16" y="58" width="3" height="3" fill="#39ff14" />
<rect x="19" y="58" width="3" height="3" fill="#39ff14" />
<rect x="13" y="61" width="3" height="3" fill="#39ff14" />
<rect x="22" y="61" width="3" height="3" fill="#39ff14" />
<rect x="13" y="64" width="3" height="3" fill="#39ff14" />
<rect x="19" y="64" width="3" height="3" fill="#39ff14" />
<rect x="7" y="67" width="3" height="3" fill="#39ff14" />
<rect x="10" y="67" width="3" height="3" fill="#39ff14" />
<rect x="16" y="67" width="3" height="3" fill="#39ff14" />
<rect x="4" y="70" width="3" height="3" fill="#39ff14" />
<rect x="13" y="70" width="3" height="3" fill="#39ff14" />
<rect x="4" y="73" width="3" height="3" fill="#39ff14" />
<rect x="10" y="73" width="3" height="3" fill="#39ff14" />
<rect x="7" y="76" width="3" height="3" fill="#39ff14" />
</svg>