<?xml version="1.0" encoding="utf-8"?>
<svg xmlns="http://www.w3.org/2000/svg" width="108" height="74" viewBox="0 0 108 74">
<rect width="100%" height="100%" fill="transparent" />
<rect x="98" y="4" width="2" height="2" fill="#39ff14" />
<rect x="102" y="4" width="2" height="2" fill="#39ff14" />
<rect x="80" y="6" width="2" height="2" fill="#39ff14" />
<rect x="82" y="6" width="2" height="2" fill="#39ff14" />
<rect x="98" y="6" width="2" height="2" fill="#39ff14" />
<rect x="100" y="6" width="2" height="2" fill="#39ff14" />
<rect x="80" y="8" width="2" height="2" fill="#39ff14" />
<rect x="82" y="8" width="2" height="2" fill="#39ff14" />
<rect x="100" y="8" width="2" height="2" fill="#39ff14" />
<rect x="10" y="10" width="2" height="2" fill="#39ff14" />
<rect x="12" y="10" width="2" height="2" fill="#39ff14" />
<rect x="10" y="12" width="2" height="2" fill="#39ff14" />
<rect x="12" y="14" width="2" height="2" fill="#39ff14" />
<rect x="10" y="16" width="2" height="2" fill="#39ff14" />
<rect x="12" y="16" width="2" height="2" fill="#39ff14" />
<rect x="28" y="18" width="2" height="2" fill="#39ff14" />
<rect x="30" y="18" width="2" height="2" fill="#39ff14" />
<rect x="26" y="20" width="2" height="2" fill="#39ff14" />
<rect x="30" y="20" width="2" height="2" fill="#39ff14" />
<rect x="28" y="22" width="2" height="2" fill="#39ff14" />
<rect x="90" y="22" width="2" height="2" fill="#39ff14" />
<rect x="80" y="24" width="2" height="2" fill="#39ff14" />
<rect x="82" y="24" width="2" height="2" fill="#39ff14" />
<rect x="90" y="24" width="2" height="2" fill="#39ff14" />
<rect x="94" y="24" width="2" height="2" fill="#39ff14" />
<rect x="78" y="26" width="2" height="2" fill="#39ff14" />
<rect x="84" y="26" width="2" height="2" fill="#39ff14" />
<rect x="90" y="26" width="2" height="2" fill="#39ff14" />
<rect x="92" y="26" width="2" height="2" fill="#39ff14" />
<rect x="4" y="28" width="2" height="2" fill="#39ff14" />
<rect x="6" y="28" width="2" height="2" fill="#39ff14" />
<rect x="80" y="28" width="2" height="2" fill="#39ff14" />
<rect x="82" y="28" width="2" height="2" fill="#39ff14" />
<rect x="4" y="30" width="2" height="2" fill="#39ff14" />
<rect x="6" y="30" width="2" height="2" fill="#39ff14" />
<rect x="66" y="30" width="2" height="2" fill="#39ff14" />
<rect x="68" y="30" width="2" height="2" fill="#39ff14" />
<rect x="66" y="32" width="2" height="2" fill="#39ff14" />
<rect x="68" y="32" width="2" height="2" fill="#39ff14" />
<rect x="92" y="46" width="2" height="2" fill="#39ff14" />
<rect x="94" y="46" width="2" height="2" fill="#39ff14" />
<rect x="92" y="48" width="2" height="2" fill="#39ff14" />
<rect x="94" y="48" width="2" height="2" fill="#39ff14" />
<rect x="84" y="50" width="2" height="2" fill="#39ff14" />
<rect x="86" y="50" width="2" height="2" fill="#39ff14" />
<rect x="84" y="52" width="2" height="2" fill="#39ff14" />
<rect x="88" y="52" width="2" height="2" fill="#39ff14" />
<rect x="88" y="54" width="2" height="2" fill="#39ff14" />
<rect x="88" y="56" width="2" height="2" fill="#39ff14" />
<rect x="90" y="56" width="2" height="2" fill="#39ff14" />
<rect x="62" y="58" width="2" height="2" fill="#39ff14" />
<rect x="64" y="58" width="2" height="2" fill="#39ff14" />
<rect x="62" y="60" width="2" height="2" fill="#39ff14" />
<rect x="64" y="60" width="2" height="2" fill="#39ff14" />
<rect x="58" y="66" width="2" height="2" fill="#39ff14" />
<rect x="60" y="66" width="2" height="2" fill="#39ff14" />
<rect x="58" y="68" width="2" height="2" fill="#39ff14" />
<rect x="60" y="68" width="2" height="2" fill="#39ff14" />
</svg>