<?xml version="1.0" encoding="utf-8"?>
<svg xmlns="http://www.w3.org/2000/svg" width="96" height="116" viewBox="0 0 96 116">
<rect width="100%" height="100%" fill="transparent" />
<rect x="48" y="4" width="2" height="2" fill="#39ff14" />
<rect x="72" y="4" width="2" height="2" fill="#39ff14" />
<rect x="48" y="6" width="2" height="2" fill="#39ff14" />
<rect x="50" y="6" width="2" height="2" fill="#39ff14" />
<rect x="52" y="6" width="2" height="2" fill="#39ff14" />
<rect x="68" y="6" width="2" height="2" fill="#39ff14" />
<rect x="72" y="6" width="2" height="2" fill="#39ff14" />
<rect x="22" y="8" width="2" height="2" fill="#39ff14" />
<rect x="24" y="8" width="2" height="2" fill="#39ff14" />
<rect x="32" y="8" width="2" height="2" fill="#39ff14" />
<rect x="34" y="8" width="2" height="2" fill="#39ff14" />
<rect x="54" y="8" width="2" height="2" fill="#39ff14" />
<rect x="70" y="8" width="2" height="2" fill="#39ff14" />
<rect x="72" y="8" width="2" height="2" fill="#39ff14" />
<rect x="22" y="10" width="2" height="2" fill="#39ff14" />
<rect x="24" y="10" width="2" height="2" fill="#39ff14" />
<rect x="32" y="10" width="2" height="2" fill="#39ff14" />
<rect x="34" y="10" width="2" height="2" fill="#39ff14" />
<rect x="52" y="10" width="2" height="2" fill="#39ff14" />
<rect x="54" y="10" width="2" height="2" fill="#39ff14" />
<rect x="8" y="16" width="2" height="2" fill="#39ff14" />
<rect x="10" y="16" width="2" height="2" fill="#39ff14" />
<rect x="10" y="18" width="2" height="2" fill="#39ff14" />
<rect x="10" y="20" width="2" height="2" fill="#39ff14" />
<rect x="14" y="20" width="2" height="2" fill="#39ff14" />
<rect x="12" y="22" width="2" height="2" fill="#39ff14" />
<rect x="14" y="22" width="2" height="2" fill="#39ff14" />
<rect x="18" y="36" width="2" height="2" fill="#39ff14" />
<rect x="20" y="36" width="2" height="2" fill="#39ff14" />
<rect x="20" y="38" width="2" height="2" fill="#39ff14" />
<rect x="14" y="40" width="2" height="2" fill="#39ff14" />
<rect x="16" y="40" width="2" height="2" fill="#39ff14" />
<rect x="18" y="40" width="2" height="2" fill="#39ff14" />
<rect x="14" y="42" width="2" height="2" fill="#39ff14" />
<rect x="44" y="56" width="2" height="2" fill="#39ff14" />
<rect x="46" y="56" width="2" height="2" fill="#39ff14" />
<rect x="44" y="58" width="2" height="2" fill="#39ff14" />
<rect x="46" y="58" width="2" height="2" fill="#39ff14" />
<rect x="28" y="60" width="2" height="2" fill="#39ff14" />
<rect x="30" y="60" width="2" height="2" fill="#39ff14" />
<rect x="30" y="62" width="2" height="2" fill="#39ff14" />
<rect x="4" y="64" width="2" height="2" fill="#39ff14" />
<rect x="24" y="64" width="2" height="2" fill="#39ff14" />
<rect x="26" y="64" width="2" height="2" fill="#39ff14" />
<rect x="28" y="64" width="2" height="2" fill="#39ff14" />
<rect x="4" y="66" width="2" height="2" fill="#39ff14" />
<rect x="6" y="66" width="2" height="2" fill="#39ff14" />
<rect x="8" y="66" width="2" height="2" fill="#39ff14" />
<rect x="24" y="66" width="2" height="2" fill="#39ff14" />
<rect x="10" y="68" width="2" height="2" fill="#39ff14" />
<rect x="8" y="70" width="2" height="2" fill="#39ff14" />
<rect x="10" y="70" width="2" height="2" fill="#39ff14" />
<rect x="26" y="80" width="2" height="2" fill="#39ff14" />
<rect x="50" y="80" width="2" height="2" fill="#39ff14" />
<rect x="52" y="80" width="2" height="2" fill="#39ff14" />
<rect x="84" y="80" width="2" height="2" fill="#39ff14" />
<rect x="86" y="80" width="2" height="2" fill="#39ff14" />
<rect x="22" y="82" width="2" height="2" fill="#39ff14" />
<rect x="24" y="82" width="2" height="2" fill="#39ff14" />
<rect x="26" y="82" width="2" height="2" fill="#39ff14" />
<rect x="48" y="82" width="2" height="2" fill="#39ff14" />
<rect x="52" y="82" width="2" height="2" fill="#39ff14" />
<rect x="84" y="82" width="2" height="2" fill="#39ff14" />
<rect x="86" y="82" width="2" height="2" fill="#39ff14" />
<rect x="22" y="84" width="2" height="2" fill="#39ff14" />
<rect x="26" y="84" width="2" height="2" fill="#39ff14" />
<rect x="52" y="84" width="2" height="2" fill="#39ff14" />
<rect x="22" y="86" width="2" height="2" fill="#39ff14" />
<rect x="66" y="86" width="2" height="2" fill="#39ff14" />
<rect x="68" y="86" width="2" height="2" fill="#39ff14" />
<rect x="72" y="86" width="2" height="2" fill="#39ff14" />
<rect x="88" y="86" width="2" height="2" fill="#39ff14" />
<rect x="66" y="88" width="2" height="2" fill="#39ff14" />
<rect x="70" y="88" width="2" height="2" fill="#39ff14" />
<rect x="72" y="88" width="2" height="2" fill="#39ff14" />
<rect x="86" y="88" width="2" height="2" fill="#39ff14" />
<rect x="88" y="88" width="2" height="2" fill="#39ff14" />
<rect x="90" y="88" width="2" height="2" fill="#39ff14" />
<rect x="84" y="90" width="2" height="2" fill="#39ff14" />
<rect x="86" y="90" width="2" height="2" fill="#39ff14" />
<rect x="90" y="90" width="2" height="2" fill="#39ff14" />
<rect x="62" y="94" width="2" height="2" fill="#39ff14" />
<rect x="64" y="94" width="2" height="2" fill="#39ff14" />
<rect x="62" y="96" width="2" height="2" fill="#39ff14" />
<rect x="64" y="96" width="2" height="2" fill="#39ff14" />
<rect x="50" y="98" width="2" height="2" fill="#39ff14" />
<rect x="52" y="98" width="2" height="2" fill="#39ff14" />
<rect x="50" y="100" width="2" height="2" fill="#39ff14" />
<rect x="52" y="100" width="2" height="2" fill="#39ff14" />
<rect x="54" y="106" width="2" height="2" fill="#39ff14" />
<rect x="56" y="106" width="2" height="2" fill="#39ff14" />
<rect x="40" y="108" width="2" height="2" fill="#39ff14" />
<rect x="42" y="108" width="2" height="2" fill="#39ff14" />
<rect x="54" y="108" width="2" height="2" fill="#39ff14" />
<rect x="56" y="108" width="2" height="2" fill="#39ff14" />
<rect x="40" y="110" width="2" height="2" fill="#39ff14" />
<rect x="42" y="110" width="2" height="2" fill="#39ff14" />
</svg>