<?xml version="1.0" encoding="utf-8"?>
<svg xmlns="http://www.w3.org/2000/svg" width="86" height="122" viewBox="0 0 86 122">
<rect width="100%" height="100%" fill="transparent" />
<rect x="10" y="4" width="6" height="6" fill="#39ff14" />
<rect x="16" y="4" width="6" height="6" fill="#39ff14" />
<rect x="58" y="4" width="6" height="6" fill="#39ff14" />
<rect x="64" y="4" width="6" height="6" fill="#39ff14" />
<rect x="4" y="10" width="6" height="6" fill="#39ff14" />
<rect x="22" y="10" width="6" height="6" fill="#39ff14" />
<rect x="52" y="10" width="6" height="6" fill="#39ff14" />
<rect x="70" y="10" width="6" height="6" fill="#39ff14" />
<rect x="4" y="16" width="6" height="6" fill="#39ff14" />
<rect x="22" y="16" width="6" height="6" fill="#39ff14" />
<rect x="52" y="16" width="6" height="6" fill="#39ff14" />
<rect x="70" y="16" width="6" height="6" fill="#39ff14" />
<rect x="4" y="22" width="6" height="6" fill="#39ff14" />
<rect x="22" y="22" width="6" height="6" fill="#39ff14" />
<rect x="52" y="22" width="6" height="6" fill="#39ff14" />
<rect x="70" y="22" width="6" height="6" fill="#39ff14" />
<rect x="10" y="28" width="6" height="6" fill="#39ff14" />
<rect x="16" y="28" width="6" height="6" fill="#39ff14" />
<rect x="58" y="28" width="6" height="6" fill="#39ff14" />
<rect x="64" y="28" width="6" height="6" fill="#39ff14" />
<rect x="46" y="46" width="6" height="6" fill="#39ff14" />
<rect x="34" y="52" width="6" height="6" fill="#39ff14" />
<rect x="52" y="52" width="6" height="6" fill="#39ff14" />
<rect x="64" y="52" width="6" height="6" fill="#39ff14" />
<rect x="70" y="52" width="6" height="6" fill="#39ff14" />
<rect x="40" y="58" width="6" height="6" fill="#39ff14" />
<rect x="46" y="58" width="6" height="6" fill="#39ff14" />
<rect x="64" y="58" width="6" height="6" fill="#39ff14" />
<rect x="70" y="58" width="6" height="6" fill="#39ff14" />
<rect x="40" y="76" width="6" height="6" fill="#39ff14" />
<rect x="46" y="76" width="6" height="6" fill="#39ff14" />
<rect x="52" y="76" width="6" height="6" fill="#39ff14" />
<rect x="58" y="76" width="6" height="6" fill="#39ff14" />
<rect x="34" y="82" width="6" height="6" fill="#39ff14" />
<rect x="40" y="82" width="6" height="6" fill="#39ff14" />
<rect x="46" y="82" width="6" height="6" fill="#39ff14" />
<rect x="52" y="82" width="6" height="6" fill="#39ff14" />
<rect x="58" y="82" width="6" height="6" fill="#39ff14" />
<rect x="64" y="82" width="6" height="6" fill="#39ff14" />
<rect x="28" y="88" width="6" height="6" fill="#39ff14" />
<rect x="34" y="88" width="6" height="6" fill="#39ff14" />
<rect x="40" y="88" width="6" height="6" fill="#39ff14" />
<rect x="46" y="88" width="6" height="6" fill="#39ff14" />
<rect x="52" y="88" width="6" height="6" fill="#39ff14" />
<rect x="58" y="88" width="6" height="6" fill="#39ff14" />
<rect x="64" y="88" width="6" height="6" fill="#39ff14" />
<rect x="70" y="88" width="6" height="6" fill="#39ff14" />
<rect x="22" y="94" width="6" height="6" fill="#39ff14" />
<rect x="28" y="94" width="6" height="6" fill="#39ff14" />
<rect x="70" y="94" width="6" height="6" fill="#39ff14" />
<rect x="76" y="94" width="6" height="6" fill="#39ff14" />
<rect x="28" y="100" width="6" height="6" fill="#39ff14" />
<rect x="34" y="100" width="6" height="6" fill="#39ff14" />
<rect x="40" y="100" width="6" height="6" fill="#39ff14" />
<rect x="46" y="100" width="6" height="6" fill="#39ff14" />
<rect x="52" y="100" width="6" height="6" fill="#39ff14" />
<rect x="58" y="100" width="6" height="6" fill="#39ff14" />
<rect x="64" y="100" width="6" height="6" fill="#39ff14" />
<rect x="70" y="100" width="6" height="6" fill="#39ff14" />
<rect x="34" y="106" width="6" height="6" fill="#39ff14" />
<rect x="40" y="106" width="6" height="6" fill="#39ff14" />
<rect x="46" y="106" width="6" height="6" fill="#39ff14" />
<rect x="52" y="106" width="6" height="6" fill="#39ff14" />
<rect x="58" y="106" width="6" height="6" fill="#39ff14" />
<rect x="64" y="106" width="6" height="6" fill="#39ff14" />
<rect x="40" y="112" width="6" height="6" fill="#39ff14" />
<rect x="46" y="112" width="6" height="6" fill="#39ff14" />
<rect x="52" y="112" width="6" height="6" fill="#39ff14" />
<rect x="58" y="112" width="6" height="6" fill="#39ff14" />
</svg>