<?xml version="1.0" encoding="utf-8"?>
<svg xmlns="http://www.w3.org/2000/svg" width="56" height="92" viewBox="0 0 56 92">
<rect width="100%" height="100%" fill="transparent" />
<rect x="34" y="4" width="2" height="2" fill="#39ff14" />
<rect x="36" y="4" width="2" height="2" fill="#39ff14" />
<rect x="34" y="6" width="2" height="2" fill="#39ff14" />
<rect x="30" y="8" width="2" height="2" fill="#39ff14" />
<rect x="32" y="8" width="2" height="2" fill="#39ff14" />
<rect x="34" y="8" width="2" height="2" fill="#39ff14" />
<rect x="30" y="40" width="2" height="2" fill="#39ff14" />
<rect x="32" y="40" width="2" height="2" fill="#39ff14" />
<rect x="30" y="42" width="2" height="2" fill="#39ff14" />
<rect x="32" y="42" width="2" height="2" fill="#39ff14" />
<rect x="12" y="44" width="2" height="2" fill="#39ff14" />
<rect x="14" y="44" width="2" height="2" fill="#39ff14" />
<rect x="12" y="46" width="2" height="2" fill="#39ff14" />
<rect x="18" y="46" width="2" height="2" fill="#39ff14" />
<rect x="4" y="48" width="2" height="2" fill="#39ff14" />
<rect x="6" y="48" width="2" height="2" fill="#39ff14" />
<rect x="16" y="48" width="2" height="2" fill="#39ff14" />
<rect x="18" y="48" width="2" height="2" fill="#39ff14" />
<rect x="6" y="50" width="2" height="2" fill="#39ff14" />
<rect x="48" y="50" width="2" height="2" fill="#39ff14" />
<rect x="50" y="50" width="2" height="2" fill="#39ff14" />
<rect x="6" y="52" width="2" height="2" fill="#39ff14" />
<rect x="10" y="52" width="2" height="2" fill="#39ff14" />
<rect x="48" y="52" width="2" height="2" fill="#39ff14" />
<rect x="8" y="54" width="2" height="2" fill="#39ff14" />
<rect x="10" y="54" width="2" height="2" fill="#39ff14" />
<rect x="44" y="54" width="2" height="2" fill="#39ff14" />
<rect x="48" y="54" width="2" height="2" fill="#39ff14" />
<rect x="44" y="56" width="2" height="2" fill="#39ff14" />
<rect x="46" y="56" width="2" height="2" fill="#39ff14" />
<rect x="8" y="68" width="2" height="2" fill="#39ff14" />
<rect x="8" y="70" width="2" height="2" fill="#39ff14" />
<rect x="12" y="70" width="2" height="2" fill="#39ff14" />
<rect x="8" y="72" width="2" height="2" fill="#39ff14" />
<rect x="10" y="72" width="2" height="2" fill="#39ff14" />
<rect x="12" y="72" width="2" height="2" fill="#39ff14" />
<rect x="12" y="74" width="2" height="2" fill="#39ff14" />
<rect x="32" y="78" width="2" height="2" fill="#39ff14" />
<rect x="34" y="78" width="2" height="2" fill="#39ff14" />
<rect x="32" y="80" width="2" height="2" fill="#39ff14" />
<rect x="34" y="80" width="2" height="2" fill="#39ff14" />
<rect x="40" y="80" width="2" height="2" fill="#39ff14" />
<rect x="42" y="80" width="2" height="2" fill="#39ff14" />
<rect x="40" y="82" width="2" height="2" fill="#39ff14" />
<rect x="44" y="82" width="2" height="2" fill="#39ff14" />
<rect x="44" y="84" width="2" height="2" fill="#39ff14" />
<rect x="44" y="86" width="2" height="2" fill="#39ff14" />
<rect x="46" y="86" width="2" height="2" fill="#39ff14" />
</svg>