<?xml version="1.0" encoding="utf-8"?>
<svg xmlns="http://www.w3.org/2000/svg" width="98" height="116" viewBox="0 0 98 116">
<rect width="100%" height="100%" fill="transparent" />
<rect x="64" y="4" width="6" height="6" fill="#39ff14" />
<rect x="70" y="4" width="6" height="6" fill="#39ff14" />
<rect x="76" y="4" width="6" height="6" fill="#39ff14" />
<rect x="64" y="10" width="6" height="6" fill="#39ff14" />
<rect x="64" y="16" width="6" height="6" fill="#39ff14" />
<rect x="88" y="16" width="6" height="6" fill="#39ff14" />
<rect x="70" y="22" width="6" height="6" fill="#39ff14" />
<rect x="88" y="22" width="6" height="6" fill="#39ff14" />
<rect x="76" y="28" width="6" height="6" fill="#39ff14" />
<rect x="82" y="28" width="6" height="6" fill="#39ff14" />
<rect x="88" y="28" width="6" height="6" fill="#39ff14" />
<rect x="10" y="40" width="6" height="6" fill="#39ff14" />
<rect x="4" y="46" width="6" height="6" fill="#39ff14" />
<rect x="16" y="46" width="6" height="6" fill="#39ff14" />
<rect x="10" y="52" width="6" height="6" fill="#39ff14" />
<rect x="64" y="58" width="6" height="6" fill="#39ff14" />
<rect x="70" y="58" width="6" height="6" fill="#39ff14" />
<rect x="76" y="58" width="6" height="6" fill="#39ff14" />
<rect x="70" y="70" width="6" height="6" fill="#39ff14" />
<rect x="76" y="70" width="6" height="6" fill="#39ff14" />
<rect x="88" y="70" width="6" height="6" fill="#39ff14" />
<rect x="76" y="76" width="6" height="6" fill="#39ff14" />
<rect x="88" y="76" width="6" height="6" fill="#39ff14" />
<rect x="88" y="82" width="6" height="6" fill="#39ff14" />
<rect x="10" y="94" width="6" height="6" fill="#39ff14" />
<rect x="4" y="100" width="6" height="6" fill="#39ff14" />
<rect x="16" y="100" width="6" height="6" fill="#39ff14" />
<rect x="10" y="106" width="6" height="6" fill="#39ff14" />
</svg>