<?xml version="1.0" encoding="utf-8"?>
<svg xmlns="http://www.w3.org/2000/svg" width="125" height="53" viewBox="0 0 125 53">
<rect width="100%" height="100%" fill="transparent" />
<rect x="13" y="4" width="9" height="9" fill="#39ff14" />
<rect x="22" y="4" width="9" height="9" fill="#39ff14" />
<rect x="31" y="4" width="9" height="9" fill="#39ff14" />
<rect x="40" y="4" width="9" height="9" fill="#39ff14" />
<rect x="4" y="13" width="9" height="9" fill="#39ff14" />
<rect x="40" y="13" width="9" height="9" fill="#39ff14" />
<rect x="40" y="22" width="9" height="9" fill="#39ff14" />
<rect x="94" y="22" width="9" height="9" fill="#39ff14" />
<rect x="103" y="22" width="9" height="9" fill="#39ff14" />
<rect x="112" y="22" width="9" height="9" fill="#39ff14" />
<rect x="4" y="31" width="9" height="9" fill="#39ff14" />
<rect x="31" y="31" width="9" height="9" fill="#39ff14" />
<rect x="94" y="31" width="9" height="9" fill="#39ff14" />
<rect x="103" y="40" width="9" height="9" fill="#39ff14" />
</svg>