<?xml version="1.0" encoding="utf-8"?>
<svg xmlns="http://www.w3.org/2000/svg" width="64" height="120" viewBox="0 0 64 120">
<rect width="100%" height="100%" fill="transparent" />
<rect x="12" y="4" width="8" height="8" fill="#39ff14" />
<rect x="36" y="4" width="8" height="8" fill="#39ff14" />
<rect x="4" y="12" width="8" height="8" fill="#39ff14" />
<rect x="4" y="20" width="8" height="8" fill="#39ff14" />
<rect x="36" y="20" width="8" height="8" fill="#39ff14" />
<rect x="4" y="28" width="8" height="8" fill="#39ff14" />
<rect x="12" y="28" width="8" height="8" fill="#39ff14" />
<rect x="20" y="28" width="8" height="8" fill="#39ff14" />
<rect x="28" y="28" width="8" height="8" fill="#39ff14" />
<rect x="12" y="36" width="8" height="8" fill="#39ff14" />
<rect x="4" y="44" width="8" height="8" fill="#39ff14" />
<rect x="4" y="52" width="8" height="8" fill="#39ff14" />
<rect x="12" y="52" width="8" height="8" fill="#39ff14" />
<rect x="20" y="52" width="8" height="8" fill="#39ff14" />
<rect x="44" y="60" width="8" height="8" fill="#39ff14" />
<rect x="52" y="60" width="8" height="8" fill="#39ff14" />
<rect x="36" y="68" width="8" height="8" fill="#39ff14" />
<rect x="44" y="68" width="8" height="8" fill="#39ff14" />
<rect x="52" y="76" width="8" height="8" fill="#39ff14" />
<rect x="20" y="92" width="8" height="8" fill="#39ff14" />
<rect x="28" y="92" width="8" height="8" fill="#39ff14" />
<rect x="28" y="100" width="8" height="8" fill="#39ff14" />
<rect x="36" y="100" width="8" height="8" fill="#39ff14" />
<rect x="20" y="108" width="8" height="8" fill="#39ff14" />
</svg>