<?xml version="1.0" encoding="utf-8"?>
<svg xmlns="http://www.w3.org/2000/svg" width="44" height="69" viewBox="0 0 44 69">
<rect width="100%" height="100%" fill="transparent" />
<rect x="25" y="4" width="1" height="1" fill="#39ff14" />
<rect x="26" y="4" width="1" height="1" fill="#39ff14" />
<rect x="26" y="5" width="1" height="1" fill="#39ff14" />
<rect x="26" y="6" width="1" height="1" fill="#39ff14" />
<rect x="27" y="6" width="1" height="1" fill="#39ff14" />
<rect x="28" y="6" width="1" height="1" fill="#39ff14" />
<rect x="27" y="22" width="1" height="1" fill="#39ff14" />
<rect x="28" y="22" width="1" height="1" fill="#39ff14" />
<rect x="27" y="23" width="1" height="1" fill="#39ff14" />
<rect x="28" y="23" width="1" height="1" fill="#39ff14" />
<rect x="34" y="25" width="1" height="1" fill="#39ff14" />
<rect x="36" y="25" width="1" height="1" fill="#39ff14" />
<rect x="37" y="25" width="1" height="1" fill="#39ff14" />
<rect x="34" y="26" width="1" height="1" fill="#39ff14" />
<rect x="35" y="26" width="1" height="1" fill="#39ff14" />
<rect x="37" y="26" width="1" height="1" fill="#39ff14" />
<rect x="18" y="29" width="1" height="1" fill="#39ff14" />
<rect x="20" y="29" width="1" height="1" fill="#39ff14" />
<rect x="21" y="29" width="1" height="1" fill="#39ff14" />
<rect x="18" y="30" width="1" height="1" fill="#39ff14" />
<rect x="19" y="30" width="1" height="1" fill="#39ff14" />
<rect x="21" y="30" width="1" height="1" fill="#39ff14" />
<rect x="36" y="41" width="1" height="1" fill="#39ff14" />
<rect x="37" y="41" width="1" height="1" fill="#39ff14" />
<rect x="36" y="42" width="1" height="1" fill="#39ff14" />
<rect x="38" y="42" width="1" height="1" fill="#39ff14" />
<rect x="5" y="43" width="1" height="1" fill="#39ff14" />
<rect x="6" y="43" width="1" height="1" fill="#39ff14" />
<rect x="38" y="43" width="1" height="1" fill="#39ff14" />
<rect x="4" y="44" width="1" height="1" fill="#39ff14" />
<rect x="5" y="44" width="1" height="1" fill="#39ff14" />
<rect x="6" y="44" width="1" height="1" fill="#39ff14" />
<rect x="8" y="44" width="1" height="1" fill="#39ff14" />
<rect x="9" y="44" width="1" height="1" fill="#39ff14" />
<rect x="38" y="44" width="1" height="1" fill="#39ff14" />
<rect x="39" y="44" width="1" height="1" fill="#39ff14" />
<rect x="5" y="45" width="1" height="1" fill="#39ff14" />
<rect x="6" y="45" width="1" height="1" fill="#39ff14" />
<rect x="8" y="45" width="1" height="1" fill="#39ff14" />
<rect x="9" y="45" width="1" height="1" fill="#39ff14" />
<rect x="10" y="45" width="1" height="1" fill="#39ff14" />
<rect x="12" y="45" width="1" height="1" fill="#39ff14" />
<rect x="13" y="45" width="1" height="1" fill="#39ff14" />
<rect x="4" y="46" width="1" height="1" fill="#39ff14" />
<rect x="5" y="46" width="1" height="1" fill="#39ff14" />
<rect x="6" y="46" width="1" height="1" fill="#39ff14" />
<rect x="8" y="46" width="1" height="1" fill="#39ff14" />
<rect x="9" y="46" width="1" height="1" fill="#39ff14" />
<rect x="12" y="46" width="1" height="1" fill="#39ff14" />
<rect x="13" y="46" width="1" height="1" fill="#39ff14" />
<rect x="4" y="47" width="1" height="1" fill="#39ff14" />
<rect x="5" y="47" width="1" height="1" fill="#39ff14" />
<rect x="36" y="51" width="1" height="1" fill="#39ff14" />
<rect x="37" y="51" width="1" height="1" fill="#39ff14" />
<rect x="36" y="52" width="1" height="1" fill="#39ff14" />
<rect x="37" y="52" width="1" height="1" fill="#39ff14" />
<rect x="10" y="54" width="1" height="1" fill="#39ff14" />
<rect x="11" y="54" width="1" height="1" fill="#39ff14" />
<rect x="11" y="55" width="1" height="1" fill="#39ff14" />
<rect x="8" y="56" width="1" height="1" fill="#39ff14" />
<rect x="9" y="56" width="1" height="1" fill="#39ff14" />
<rect x="10" y="56" width="1" height="1" fill="#39ff14" />
<rect x="36" y="56" width="1" height="1" fill="#39ff14" />
<rect x="37" y="56" width="1" height="1" fill="#39ff14" />
<rect x="8" y="57" width="1" height="1" fill="#39ff14" />
<rect x="36" y="57" width="1" height="1" fill="#39ff14" />
<rect x="37" y="57" width="1" height="1" fill="#39ff14" />
<rect x="22" y="58" width="1" height="1" fill="#39ff14" />
<rect x="23" y="58" width="1" height="1" fill="#39ff14" />
<rect x="21" y="59" width="1" height="1" fill="#39ff14" />
<rect x="23" y="59" width="1" height="1" fill="#39ff14" />
<rect x="21" y="60" width="1" height="1" fill="#39ff14" />
<rect x="20" y="61" width="1" height="1" fill="#39ff14" />
<rect x="21" y="61" width="1" height="1" fill="#39ff14" />
<rect x="30" y="61" width="1" height="1" fill="#39ff14" />
<rect x="31" y="61" width="1" height="1" fill="#39ff14" />
<rect x="30" y="62" width="1" height="1" fill="#39ff14" />
<rect x="31" y="63" width="1" height="1" fill="#39ff14" />
<rect x="32" y="63" width="1" height="1" fill="#39ff14" />
<rect x="33" y="63" width="1" height="1" fill="#39ff14" />
<rect x="33" y="64" width="1" height="1" fill="#39ff14" />
</svg>