<?xml version="1.0" encoding="utf-8"?>
<svg xmlns="http://www.w3.org/2000/svg" width="100" height="62" viewBox="0 0 100 62">
<rect width="100%" height="100%" fill="transparent" />
<rect x="14" y="4" width="2" height="2" fill="#39ff14" />
<rect x="16" y="4" width="2" height="2" fill="#39ff14" />
<rect x="82" y="4" width="2" height="2" fill="#39ff14" />
<rect x="84" y="4" width="2" height="2" fill="#39ff14" />
<rect x="14" y="6" width="2" height="2" fill="#39ff14" />
<rect x="16" y="6" width="2" height="2" fill="#39ff14" />
<rect x="82" y="6" width="2" height="2" fill="#39ff14" />
<rect x="84" y="6" width="2" height="2" fill="#39ff14" />
<rect x="54" y="12" width="2" height="2" fill="#39ff14" />
<rect x="4" y="14" width="2" height="2" fill="#39ff14" />
<rect x="6" y="14" width="2" height="2" fill="#39ff14" />
<rect x="16" y="14" width="2" height="2" fill="#39ff14" />
<rect x="18" y="14" width="2" height="2" fill="#39ff14" />
<rect x="56" y="14" width="2" height="2" fill="#39ff14" />
<rect x="80" y="14" width="2" height="2" fill="#39ff14" />
<rect x="82" y="14" width="2" height="2" fill="#39ff14" />
<rect x="92" y="14" width="2" height="2" fill="#39ff14" />
<rect x="94" y="14" width="2" height="2" fill="#39ff14" />
<rect x="4" y="16" width="2" height="2" fill="#39ff14" />
<rect x="6" y="16" width="2" height="2" fill="#39ff14" />
<rect x="14" y="16" width="2" height="2" fill="#39ff14" />
<rect x="20" y="16" width="2" height="2" fill="#39ff14" />
<rect x="54" y="16" width="2" height="2" fill="#39ff14" />
<rect x="56" y="16" width="2" height="2" fill="#39ff14" />
<rect x="78" y="16" width="2" height="2" fill="#39ff14" />
<rect x="84" y="16" width="2" height="2" fill="#39ff14" />
<rect x="92" y="16" width="2" height="2" fill="#39ff14" />
<rect x="94" y="16" width="2" height="2" fill="#39ff14" />
<rect x="14" y="18" width="2" height="2" fill="#39ff14" />
<rect x="18" y="18" width="2" height="2" fill="#39ff14" />
<rect x="42" y="18" width="2" height="2" fill="#39ff14" />
<rect x="44" y="18" width="2" height="2" fill="#39ff14" />
<rect x="46" y="18" width="2" height="2" fill="#39ff14" />
<rect x="48" y="18" width="2" height="2" fill="#39ff14" />
<rect x="50" y="18" width="2" height="2" fill="#39ff14" />
<rect x="52" y="18" width="2" height="2" fill="#39ff14" />
<rect x="54" y="18" width="2" height="2" fill="#39ff14" />
<rect x="80" y="18" width="2" height="2" fill="#39ff14" />
<rect x="84" y="18" width="2" height="2" fill="#39ff14" />
<rect x="16" y="20" width="2" height="2" fill="#39ff14" />
<rect x="40" y="20" width="2" height="2" fill="#39ff14" />
<rect x="42" y="20" width="2" height="2" fill="#39ff14" />
<rect x="44" y="20" width="2" height="2" fill="#39ff14" />
<rect x="50" y="20" width="2" height="2" fill="#39ff14" />
<rect x="82" y="20" width="2" height="2" fill="#39ff14" />
<rect x="40" y="22" width="2" height="2" fill="#39ff14" />
<rect x="46" y="22" width="2" height="2" fill="#39ff14" />
<rect x="48" y="22" width="2" height="2" fill="#39ff14" />
<rect x="52" y="22" width="2" height="2" fill="#39ff14" />
<rect x="10" y="24" width="2" height="2" fill="#39ff14" />
<rect x="48" y="24" width="2" height="2" fill="#39ff14" />
<rect x="52" y="24" width="2" height="2" fill="#39ff14" />
<rect x="88" y="24" width="2" height="2" fill="#39ff14" />
<rect x="8" y="26" width="2" height="2" fill="#39ff14" />
<rect x="12" y="26" width="2" height="2" fill="#39ff14" />
<rect x="44" y="26" width="2" height="2" fill="#39ff14" />
<rect x="46" y="26" width="2" height="2" fill="#39ff14" />
<rect x="50" y="26" width="2" height="2" fill="#39ff14" />
<rect x="52" y="26" width="2" height="2" fill="#39ff14" />
<rect x="86" y="26" width="2" height="2" fill="#39ff14" />
<rect x="90" y="26" width="2" height="2" fill="#39ff14" />
<rect x="8" y="28" width="2" height="2" fill="#39ff14" />
<rect x="10" y="28" width="2" height="2" fill="#39ff14" />
<rect x="44" y="28" width="2" height="2" fill="#39ff14" />
<rect x="46" y="28" width="2" height="2" fill="#39ff14" />
<rect x="48" y="28" width="2" height="2" fill="#39ff14" />
<rect x="50" y="28" width="2" height="2" fill="#39ff14" />
<rect x="88" y="28" width="2" height="2" fill="#39ff14" />
<rect x="90" y="28" width="2" height="2" fill="#39ff14" />
<rect x="8" y="32" width="2" height="2" fill="#39ff14" />
<rect x="10" y="32" width="2" height="2" fill="#39ff14" />
<rect x="44" y="32" width="2" height="2" fill="#39ff14" />
<rect x="46" y="32" width="2" height="2" fill="#39ff14" />
<rect x="48" y="32" width="2" height="2" fill="#39ff14" />
<rect x="50" y="32" width="2" height="2" fill="#39ff14" />
<rect x="88" y="32" width="2" height="2" fill="#39ff14" />
<rect x="90" y="32" width="2" height="2" fill="#39ff14" />
<rect x="8" y="34" width="2" height="2" fill="#39ff14" />
<rect x="12" y="34" width="2" height="2" fill="#39ff14" />
<rect x="44" y="34" width="2" height="2" fill="#39ff14" />
<rect x="46" y="34" width="2" height="2" fill="#39ff14" />
<rect x="50" y="34" width="2" height="2" fill="#39ff14" />
<rect x="52" y="34" width="2" height="2" fill="#39ff14" />
<rect x="86" y="34" width="2" height="2" fill="#39ff14" />
<rect x="90" y="34" width="2" height="2" fill="#39ff14" />
<rect x="10" y="36" width="2" height="2" fill="#39ff14" />
<rect x="48" y="36" width="2" height="2" fill="#39ff14" />
<rect x="52" y="36" width="2" height="2" fill="#39ff14" />
<rect x="88" y="36" width="2" height="2" fill="#39ff14" />
<rect x="40" y="38" width="2" height="2" fill="#39ff14" />
<rect x="46" y="38" width="2" height="2" fill="#39ff14" />
<rect x="48" y="38" width="2" height="2" fill="#39ff14" />
<rect x="52" y="38" width="2" height="2" fill="#39ff14" />
<rect x="16" y="40" width="2" height="2" fill="#39ff14" />
<rect x="40" y="40" width="2" height="2" fill="#39ff14" />
<rect x="42" y="40" width="2" height="2" fill="#39ff14" />
<rect x="44" y="40" width="2" height="2" fill="#39ff14" />
<rect x="50" y="40" width="2" height="2" fill="#39ff14" />
<rect x="82" y="40" width="2" height="2" fill="#39ff14" />
<rect x="14" y="42" width="2" height="2" fill="#39ff14" />
<rect x="18" y="42" width="2" height="2" fill="#39ff14" />
<rect x="42" y="42" width="2" height="2" fill="#39ff14" />
<rect x="44" y="42" width="2" height="2" fill="#39ff14" />
<rect x="46" y="42" width="2" height="2" fill="#39ff14" />
<rect x="48" y="42" width="2" height="2" fill="#39ff14" />
<rect x="50" y="42" width="2" height="2" fill="#39ff14" />
<rect x="52" y="42" width="2" height="2" fill="#39ff14" />
<rect x="54" y="42" width="2" height="2" fill="#39ff14" />
<rect x="80" y="42" width="2" height="2" fill="#39ff14" />
<rect x="84" y="42" width="2" height="2" fill="#39ff14" />
<rect x="4" y="44" width="2" height="2" fill="#39ff14" />
<rect x="6" y="44" width="2" height="2" fill="#39ff14" />
<rect x="14" y="44" width="2" height="2" fill="#39ff14" />
<rect x="20" y="44" width="2" height="2" fill="#39ff14" />
<rect x="54" y="44" width="2" height="2" fill="#39ff14" />
<rect x="56" y="44" width="2" height="2" fill="#39ff14" />
<rect x="78" y="44" width="2" height="2" fill="#39ff14" />
<rect x="84" y="44" width="2" height="2" fill="#39ff14" />
<rect x="92" y="44" width="2" height="2" fill="#39ff14" />
<rect x="94" y="44" width="2" height="2" fill="#39ff14" />
<rect x="4" y="46" width="2" height="2" fill="#39ff14" />
<rect x="6" y="46" width="2" height="2" fill="#39ff14" />
<rect x="16" y="46" width="2" height="2" fill="#39ff14" />
<rect x="18" y="46" width="2" height="2" fill="#39ff14" />
<rect x="56" y="46" width="2" height="2" fill="#39ff14" />
<rect x="80" y="46" width="2" height="2" fill="#39ff14" />
<rect x="82" y="46" width="2" height="2" fill="#39ff14" />
<rect x="92" y="46" width="2" height="2" fill="#39ff14" />
<rect x="94" y="46" width="2" height="2" fill="#39ff14" />
<rect x="54" y="48" width="2" height="2" fill="#39ff14" />
<rect x="14" y="54" width="2" height="2" fill="#39ff14" />
<rect x="16" y="54" width="2" height="2" fill="#39ff14" />
<rect x="82" y="54" width="2" height="2" fill="#39ff14" />
<rect x="84" y="54" width="2" height="2" fill="#39ff14" />
<rect x="14" y="56" width="2" height="2" fill="#39ff14" />
<rect x="16" y="56" width="2" height="2" fill="#39ff14" />
<rect x="82" y="56" width="2" height="2" fill="#39ff14" />
<rect x="84" y="56" width="2" height="2" fill="#39ff14" />
</svg>