<?xml version="1.0" encoding="utf-8"?>
<svg xmlns="http://www.w3.org/2000/svg" width="128" height="123" viewBox="0 0 128 123">
<rect width="100%" height="100%" fill="transparent" />
<rect x="109" y="4" width="5" height="5" fill="#39ff14" />
<rect x="109" y="9" width="5" height="5" fill="#39ff14" />
<rect x="119" y="9" width="5" height="5" fill="#39ff14" />
<rect x="109" y="14" width="5" height="5" fill="#39ff14" />
<rect x="114" y="14" width="5" height="5" fill="#39ff14" />
<rect x="64" y="49" width="5" height="5" fill="#39ff14" />
<rect x="64" y="54" width="5" height="5" fill="#39ff14" />
<rect x="74" y="54" width="5" height="5" fill="#39ff14" />
<rect x="64" y="59" width="5" height="5" fill="#39ff14" />
<rect x="69" y="59" width="5" height="5" fill="#39ff14" />
<rect x="24" y="69" width="5" height="5" fill="#39ff14" />
<rect x="29" y="69" width="5" height="5" fill="#39ff14" />
<rect x="54" y="69" width="5" height="5" fill="#39ff14" />
<rect x="59" y="69" width="5" height="5" fill="#39ff14" />
<rect x="19" y="74" width="5" height="5" fill="#39ff14" />
<rect x="34" y="74" width="5" height="5" fill="#39ff14" />
<rect x="49" y="74" width="5" height="5" fill="#39ff14" />
<rect x="64" y="74" width="5" height="5" fill="#39ff14" />
<rect x="54" y="79" width="5" height="5" fill="#39ff14" />
<rect x="64" y="79" width="5" height="5" fill="#39ff14" />
<rect x="59" y="84" width="5" height="5" fill="#39ff14" />
<rect x="14" y="89" width="5" height="5" fill="#39ff14" />
<rect x="29" y="89" width="5" height="5" fill="#39ff14" />
<rect x="14" y="94" width="5" height="5" fill="#39ff14" />
<rect x="24" y="94" width="5" height="5" fill="#39ff14" />
<rect x="29" y="94" width="5" height="5" fill="#39ff14" />
<rect x="79" y="94" width="5" height="5" fill="#39ff14" />
<rect x="84" y="94" width="5" height="5" fill="#39ff14" />
<rect x="19" y="99" width="5" height="5" fill="#39ff14" />
<rect x="29" y="99" width="5" height="5" fill="#39ff14" />
<rect x="34" y="99" width="5" height="5" fill="#39ff14" />
<rect x="39" y="99" width="5" height="5" fill="#39ff14" />
<rect x="79" y="99" width="5" height="5" fill="#39ff14" />
<rect x="4" y="104" width="5" height="5" fill="#39ff14" />
<rect x="9" y="104" width="5" height="5" fill="#39ff14" />
<rect x="14" y="104" width="5" height="5" fill="#39ff14" />
<rect x="34" y="104" width="5" height="5" fill="#39ff14" />
<rect x="44" y="104" width="5" height="5" fill="#39ff14" />
<rect x="84" y="104" width="5" height="5" fill="#39ff14" />
<rect x="89" y="104" width="5" height="5" fill="#39ff14" />
<rect x="94" y="104" width="5" height="5" fill="#39ff14" />
<rect x="4" y="109" width="5" height="5" fill="#39ff14" />
<rect x="44" y="109" width="5" height="5" fill="#39ff14" />
<rect x="94" y="109" width="5" height="5" fill="#39ff14" />
<rect x="44" y="114" width="5" height="5" fill="#39ff14" />
<rect x="49" y="114" width="5" height="5" fill="#39ff14" />
</svg>