<?xml version="1.0" encoding="utf-8"?>
<svg xmlns="http://www.w3.org/2000/svg" width="113" height="122" viewBox="0 0 113 122">
<rect width="100%" height="100%" fill="transparent" />
<rect x="16" y="4" width="3" height="3" fill="#39ff14" />
<rect x="19" y="4" width="3" height="3" fill="#39ff14" />
<rect x="19" y="7" width="3" height="3" fill="#39ff14" />
<rect x="19" y="10" width="3" height="3" fill="#39ff14" />
<rect x="25" y="10" width="3" height="3" fill="#39ff14" />
<rect x="22" y="13" width="3" height="3" fill="#39ff14" />
<rect x="25" y="13" width="3" height="3" fill="#39ff14" />
<rect x="34" y="13" width="3" height="3" fill="#39ff14" />
<rect x="37" y="13" width="3" height="3" fill="#39ff14" />
<rect x="34" y="16" width="3" height="3" fill="#39ff14" />
<rect x="37" y="16" width="3" height="3" fill="#39ff14" />
<rect x="4" y="37" width="3" height="3" fill="#39ff14" />
<rect x="4" y="40" width="3" height="3" fill="#39ff14" />
<rect x="7" y="40" width="3" height="3" fill="#39ff14" />
<rect x="10" y="40" width="3" height="3" fill="#39ff14" />
<rect x="34" y="40" width="3" height="3" fill="#39ff14" />
<rect x="37" y="40" width="3" height="3" fill="#39ff14" />
<rect x="13" y="43" width="3" height="3" fill="#39ff14" />
<rect x="34" y="43" width="3" height="3" fill="#39ff14" />
<rect x="40" y="43" width="3" height="3" fill="#39ff14" />
<rect x="10" y="46" width="3" height="3" fill="#39ff14" />
<rect x="16" y="46" width="3" height="3" fill="#39ff14" />
<rect x="40" y="46" width="3" height="3" fill="#39ff14" />
<rect x="10" y="49" width="3" height="3" fill="#39ff14" />
<rect x="13" y="49" width="3" height="3" fill="#39ff14" />
<rect x="34" y="49" width="3" height="3" fill="#39ff14" />
<rect x="40" y="49" width="3" height="3" fill="#39ff14" />
<rect x="34" y="52" width="3" height="3" fill="#39ff14" />
<rect x="37" y="52" width="3" height="3" fill="#39ff14" />
<rect x="10" y="55" width="3" height="3" fill="#39ff14" />
<rect x="13" y="55" width="3" height="3" fill="#39ff14" />
<rect x="10" y="58" width="3" height="3" fill="#39ff14" />
<rect x="13" y="61" width="3" height="3" fill="#39ff14" />
<rect x="16" y="61" width="3" height="3" fill="#39ff14" />
<rect x="19" y="61" width="3" height="3" fill="#39ff14" />
<rect x="19" y="64" width="3" height="3" fill="#39ff14" />
<rect x="28" y="67" width="3" height="3" fill="#39ff14" />
<rect x="31" y="67" width="3" height="3" fill="#39ff14" />
<rect x="31" y="70" width="3" height="3" fill="#39ff14" />
<rect x="22" y="73" width="3" height="3" fill="#39ff14" />
<rect x="25" y="73" width="3" height="3" fill="#39ff14" />
<rect x="28" y="73" width="3" height="3" fill="#39ff14" />
<rect x="73" y="73" width="3" height="3" fill="#39ff14" />
<rect x="76" y="73" width="3" height="3" fill="#39ff14" />
<rect x="79" y="73" width="3" height="3" fill="#39ff14" />
<rect x="22" y="76" width="3" height="3" fill="#39ff14" />
<rect x="70" y="76" width="3" height="3" fill="#39ff14" />
<rect x="82" y="76" width="3" height="3" fill="#39ff14" />
<rect x="67" y="79" width="3" height="3" fill="#39ff14" />
<rect x="85" y="79" width="3" height="3" fill="#39ff14" />
<rect x="43" y="82" width="3" height="3" fill="#39ff14" />
<rect x="46" y="82" width="3" height="3" fill="#39ff14" />
<rect x="67" y="82" width="3" height="3" fill="#39ff14" />
<rect x="85" y="82" width="3" height="3" fill="#39ff14" />
<rect x="43" y="85" width="3" height="3" fill="#39ff14" />
<rect x="46" y="85" width="3" height="3" fill="#39ff14" />
<rect x="67" y="85" width="3" height="3" fill="#39ff14" />
<rect x="70" y="85" width="3" height="3" fill="#39ff14" />
<rect x="73" y="85" width="3" height="3" fill="#39ff14" />
<rect x="79" y="85" width="3" height="3" fill="#39ff14" />
<rect x="82" y="85" width="3" height="3" fill="#39ff14" />
<rect x="85" y="85" width="3" height="3" fill="#39ff14" />
<rect x="97" y="88" width="3" height="3" fill="#39ff14" />
<rect x="100" y="88" width="3" height="3" fill="#39ff14" />
<rect x="97" y="91" width="3" height="3" fill="#39ff14" />
<rect x="103" y="91" width="3" height="3" fill="#39ff14" />
<rect x="40" y="94" width="3" height="3" fill="#39ff14" />
<rect x="43" y="94" width="3" height="3" fill="#39ff14" />
<rect x="103" y="94" width="3" height="3" fill="#39ff14" />
<rect x="43" y="97" width="3" height="3" fill="#39ff14" />
<rect x="103" y="97" width="3" height="3" fill="#39ff14" />
<rect x="106" y="97" width="3" height="3" fill="#39ff14" />
<rect x="34" y="100" width="3" height="3" fill="#39ff14" />
<rect x="37" y="100" width="3" height="3" fill="#39ff14" />
<rect x="40" y="100" width="3" height="3" fill="#39ff14" />
<rect x="91" y="100" width="3" height="3" fill="#39ff14" />
<rect x="94" y="100" width="3" height="3" fill="#39ff14" />
<rect x="34" y="103" width="3" height="3" fill="#39ff14" />
<rect x="76" y="103" width="3" height="3" fill="#39ff14" />
<rect x="91" y="103" width="3" height="3" fill="#39ff14" />
<rect x="73" y="106" width="3" height="3" fill="#39ff14" />
<rect x="79" y="106" width="3" height="3" fill="#39ff14" />
<rect x="85" y="106" width="3" height="3" fill="#39ff14" />
<rect x="91" y="106" width="3" height="3" fill="#39ff14" />
<rect x="70" y="109" width="3" height="3" fill="#39ff14" />
<rect x="76" y="109" width="3" height="3" fill="#39ff14" />
<rect x="79" y="109" width="3" height="3" fill="#39ff14" />
<rect x="85" y="109" width="3" height="3" fill="#39ff14" />
<rect x="88" y="109" width="3" height="3" fill="#39ff14" />
<rect x="70" y="112" width="3" height="3" fill="#39ff14" />
<rect x="67" y="115" width="3" height="3" fill="#39ff14" />
<rect x="70" y="115" width="3" height="3" fill="#39ff14" />
</svg>