<?xml version="1.0" encoding="utf-8"?>
<svg xmlns="http://www.w3.org/2000/svg" width="124" height="124" viewBox="0 0 124 124">
<rect width="100%" height="100%" fill="transparent" />
<rect x="108" y="4" width="4" height="4" fill="#39ff14" />
<rect x="100" y="8" width="4" height="4" fill="#39ff14" />
<rect x="104" y="8" width="4" height="4" fill="#39ff14" />
<rect x="104" y="12" width="4" height="4" fill="#39ff14" />
<rect x="108" y="12" width="4" height="4" fill="#39ff14" />
<rect x="36" y="24" width="4" height="4" fill="#39ff14" />
<rect x="40" y="24" width="4" height="4" fill="#39ff14" />
<rect x="24" y="28" width="4" height="4" fill="#39ff14" />
<rect x="36" y="28" width="4" height="4" fill="#39ff14" />
<rect x="44" y="28" width="4" height="4" fill="#39ff14" />
<rect x="80" y="28" width="4" height="4" fill="#39ff14" />
<rect x="20" y="32" width="4" height="4" fill="#39ff14" />
<rect x="28" y="32" width="4" height="4" fill="#39ff14" />
<rect x="36" y="32" width="4" height="4" fill="#39ff14" />
<rect x="44" y="32" width="4" height="4" fill="#39ff14" />
<rect x="76" y="32" width="4" height="4" fill="#39ff14" />
<rect x="16" y="36" width="4" height="4" fill="#39ff14" />
<rect x="24" y="36" width="4" height="4" fill="#39ff14" />
<rect x="32" y="36" width="4" height="4" fill="#39ff14" />
<rect x="44" y="36" width="4" height="4" fill="#39ff14" />
<rect x="48" y="36" width="4" height="4" fill="#39ff14" />
<rect x="76" y="36" width="4" height="4" fill="#39ff14" />
<rect x="80" y="36" width="4" height="4" fill="#39ff14" />
<rect x="84" y="36" width="4" height="4" fill="#39ff14" />
<rect x="16" y="40" width="4" height="4" fill="#39ff14" />
<rect x="32" y="40" width="4" height="4" fill="#39ff14" />
<rect x="40" y="40" width="4" height="4" fill="#39ff14" />
<rect x="52" y="40" width="4" height="4" fill="#39ff14" />
<rect x="4" y="44" width="4" height="4" fill="#39ff14" />
<rect x="8" y="44" width="4" height="4" fill="#39ff14" />
<rect x="16" y="44" width="4" height="4" fill="#39ff14" />
<rect x="20" y="44" width="4" height="4" fill="#39ff14" />
<rect x="32" y="44" width="4" height="4" fill="#39ff14" />
<rect x="40" y="44" width="4" height="4" fill="#39ff14" />
<rect x="48" y="44" width="4" height="4" fill="#39ff14" />
<rect x="92" y="44" width="4" height="4" fill="#39ff14" />
<rect x="96" y="44" width="4" height="4" fill="#39ff14" />
<rect x="4" y="48" width="4" height="4" fill="#39ff14" />
<rect x="12" y="48" width="4" height="4" fill="#39ff14" />
<rect x="32" y="48" width="4" height="4" fill="#39ff14" />
<rect x="36" y="48" width="4" height="4" fill="#39ff14" />
<rect x="40" y="48" width="4" height="4" fill="#39ff14" />
<rect x="52" y="48" width="4" height="4" fill="#39ff14" />
<rect x="76" y="48" width="4" height="4" fill="#39ff14" />
<rect x="80" y="48" width="4" height="4" fill="#39ff14" />
<rect x="92" y="48" width="4" height="4" fill="#39ff14" />
<rect x="96" y="48" width="4" height="4" fill="#39ff14" />
<rect x="12" y="52" width="4" height="4" fill="#39ff14" />
<rect x="20" y="52" width="4" height="4" fill="#39ff14" />
<rect x="24" y="52" width="4" height="4" fill="#39ff14" />
<rect x="28" y="52" width="4" height="4" fill="#39ff14" />
<rect x="44" y="52" width="4" height="4" fill="#39ff14" />
<rect x="48" y="52" width="4" height="4" fill="#39ff14" />
<rect x="72" y="52" width="4" height="4" fill="#39ff14" />
<rect x="80" y="52" width="4" height="4" fill="#39ff14" />
<rect x="12" y="56" width="4" height="4" fill="#39ff14" />
<rect x="24" y="56" width="4" height="4" fill="#39ff14" />
<rect x="48" y="56" width="4" height="4" fill="#39ff14" />
<rect x="76" y="56" width="4" height="4" fill="#39ff14" />
<rect x="16" y="60" width="4" height="4" fill="#39ff14" />
<rect x="32" y="60" width="4" height="4" fill="#39ff14" />
<rect x="40" y="60" width="4" height="4" fill="#39ff14" />
<rect x="52" y="60" width="4" height="4" fill="#39ff14" />
<rect x="104" y="60" width="4" height="4" fill="#39ff14" />
<rect x="108" y="60" width="4" height="4" fill="#39ff14" />
<rect x="20" y="64" width="4" height="4" fill="#39ff14" />
<rect x="24" y="64" width="4" height="4" fill="#39ff14" />
<rect x="28" y="64" width="4" height="4" fill="#39ff14" />
<rect x="36" y="64" width="4" height="4" fill="#39ff14" />
<rect x="40" y="64" width="4" height="4" fill="#39ff14" />
<rect x="48" y="64" width="4" height="4" fill="#39ff14" />
<rect x="52" y="64" width="4" height="4" fill="#39ff14" />
<rect x="84" y="64" width="4" height="4" fill="#39ff14" />
<rect x="88" y="64" width="4" height="4" fill="#39ff14" />
<rect x="108" y="64" width="4" height="4" fill="#39ff14" />
<rect x="28" y="68" width="4" height="4" fill="#39ff14" />
<rect x="48" y="68" width="4" height="4" fill="#39ff14" />
<rect x="84" y="68" width="4" height="4" fill="#39ff14" />
<rect x="88" y="68" width="4" height="4" fill="#39ff14" />
<rect x="100" y="68" width="4" height="4" fill="#39ff14" />
<rect x="104" y="68" width="4" height="4" fill="#39ff14" />
<rect x="108" y="68" width="4" height="4" fill="#39ff14" />
<rect x="32" y="72" width="4" height="4" fill="#39ff14" />
<rect x="36" y="72" width="4" height="4" fill="#39ff14" />
<rect x="40" y="72" width="4" height="4" fill="#39ff14" />
<rect x="48" y="72" width="4" height="4" fill="#39ff14" />
<rect x="72" y="72" width="4" height="4" fill="#39ff14" />
<rect x="76" y="72" width="4" height="4" fill="#39ff14" />
<rect x="100" y="72" width="4" height="4" fill="#39ff14" />
<rect x="104" y="72" width="4" height="4" fill="#39ff14" />
<rect x="108" y="72" width="4" height="4" fill="#39ff14" />
<rect x="44" y="76" width="4" height="4" fill="#39ff14" />
<rect x="52" y="76" width="4" height="4" fill="#39ff14" />
<rect x="56" y="76" width="4" height="4" fill="#39ff14" />
<rect x="72" y="76" width="4" height="4" fill="#39ff14" />
<rect x="76" y="76" width="4" height="4" fill="#39ff14" />
<rect x="100" y="76" width="4" height="4" fill="#39ff14" />
<rect x="104" y="76" width="4" height="4" fill="#39ff14" />
<rect x="40" y="80" width="4" height="4" fill="#39ff14" />
<rect x="52" y="80" width="4" height="4" fill="#39ff14" />
<rect x="64" y="80" width="4" height="4" fill="#39ff14" />
<rect x="68" y="80" width="4" height="4" fill="#39ff14" />
<rect x="72" y="80" width="4" height="4" fill="#39ff14" />
<rect x="80" y="80" width="4" height="4" fill="#39ff14" />
<rect x="116" y="80" width="4" height="4" fill="#39ff14" />
<rect x="40" y="84" width="4" height="4" fill="#39ff14" />
<rect x="44" y="84" width="4" height="4" fill="#39ff14" />
<rect x="56" y="84" width="4" height="4" fill="#39ff14" />
<rect x="60" y="84" width="4" height="4" fill="#39ff14" />
<rect x="64" y="84" width="4" height="4" fill="#39ff14" />
<rect x="112" y="84" width="4" height="4" fill="#39ff14" />
<rect x="116" y="84" width="4" height="4" fill="#39ff14" />
<rect x="68" y="88" width="4" height="4" fill="#39ff14" />
<rect x="56" y="92" width="4" height="4" fill="#39ff14" />
<rect x="60" y="92" width="4" height="4" fill="#39ff14" />
<rect x="64" y="92" width="4" height="4" fill="#39ff14" />
<rect x="68" y="92" width="4" height="4" fill="#39ff14" />
<rect x="76" y="92" width="4" height="4" fill="#39ff14" />
<rect x="52" y="96" width="4" height="4" fill="#39ff14" />
<rect x="64" y="96" width="4" height="4" fill="#39ff14" />
<rect x="80" y="96" width="4" height="4" fill="#39ff14" />
<rect x="52" y="100" width="4" height="4" fill="#39ff14" />
<rect x="56" y="100" width="4" height="4" fill="#39ff14" />
<rect x="72" y="100" width="4" height="4" fill="#39ff14" />
<rect x="80" y="100" width="4" height="4" fill="#39ff14" />
<rect x="84" y="100" width="4" height="4" fill="#39ff14" />
<rect x="88" y="100" width="4" height="4" fill="#39ff14" />
<rect x="56" y="104" width="4" height="4" fill="#39ff14" />
<rect x="64" y="104" width="4" height="4" fill="#39ff14" />
<rect x="76" y="104" width="4" height="4" fill="#39ff14" />
<rect x="92" y="104" width="4" height="4" fill="#39ff14" />
<rect x="56" y="108" width="4" height="4" fill="#39ff14" />
<rect x="64" y="108" width="4" height="4" fill="#39ff14" />
<rect x="68" y="108" width="4" height="4" fill="#39ff14" />
<rect x="76" y="108" width="4" height="4" fill="#39ff14" />
<rect x="88" y="108" width="4" height="4" fill="#39ff14" />
<rect x="92" y="108" width="4" height="4" fill="#39ff14" />
<rect x="60" y="112" width="4" height="4" fill="#39ff14" />
<rect x="72" y="112" width="4" height="4" fill="#39ff14" />
<rect x="64" y="116" width="4" height="4" fill="#39ff14" />
<rect x="68" y="116" width="4" height="4" fill="#39ff14" />
</svg>