<?xml version="1.0" encoding="utf-8"?>
<svg xmlns="http://www.w3.org/2000/svg" width="124" height="76" viewBox="0 0 124 76">
<rect width="100%" height="100%" fill="transparent" />
<rect x="4" y="4" width="4" height="4" fill="#39ff14" />
<rect x="8" y="4" width="4" height="4" fill="#39ff14" />
<rect x="112" y="4" width="4" height="4" fill="#39ff14" />
<rect x="116" y="4" width="4" height="4" fill="#39ff14" />
<rect x="8" y="8" width="4" height="4" fill="#39ff14" />
<rect x="112" y="8" width="4" height="4" fill="#39ff14" />
<rect x="8" y="12" width="4" height="4" fill="#39ff14" />
<rect x="16" y="12" width="4" height="4" fill="#39ff14" />
<rect x="48" y="12" width="4" height="4" fill="#39ff14" />
<rect x="104" y="12" width="4" height="4" fill="#39ff14" />
<rect x="112" y="12" width="4" height="4" fill="#39ff14" />
<rect x="12" y="16" width="4" height="4" fill="#39ff14" />
<rect x="16" y="16" width="4" height="4" fill="#39ff14" />
<rect x="40" y="16" width="4" height="4" fill="#39ff14" />
<rect x="52" y="16" width="4" height="4" fill="#39ff14" />
<rect x="76" y="16" width="4" height="4" fill="#39ff14" />
<rect x="104" y="16" width="4" height="4" fill="#39ff14" />
<rect x="108" y="16" width="4" height="4" fill="#39ff14" />
<rect x="52" y="20" width="4" height="4" fill="#39ff14" />
<rect x="76" y="20" width="4" height="4" fill="#39ff14" />
<rect x="80" y="20" width="4" height="4" fill="#39ff14" />
<rect x="36" y="24" width="4" height="4" fill="#39ff14" />
<rect x="80" y="24" width="4" height="4" fill="#39ff14" />
<rect x="84" y="24" width="4" height="4" fill="#39ff14" />
<rect x="36" y="28" width="4" height="4" fill="#39ff14" />
<rect x="52" y="28" width="4" height="4" fill="#39ff14" />
<rect x="56" y="28" width="4" height="4" fill="#39ff14" />
<rect x="76" y="28" width="4" height="4" fill="#39ff14" />
<rect x="80" y="28" width="4" height="4" fill="#39ff14" />
<rect x="40" y="32" width="4" height="4" fill="#39ff14" />
<rect x="44" y="32" width="4" height="4" fill="#39ff14" />
<rect x="48" y="32" width="4" height="4" fill="#39ff14" />
<rect x="52" y="32" width="4" height="4" fill="#39ff14" />
<rect x="56" y="32" width="4" height="4" fill="#39ff14" />
<rect x="40" y="40" width="4" height="4" fill="#39ff14" />
<rect x="44" y="40" width="4" height="4" fill="#39ff14" />
<rect x="48" y="40" width="4" height="4" fill="#39ff14" />
<rect x="52" y="40" width="4" height="4" fill="#39ff14" />
<rect x="56" y="40" width="4" height="4" fill="#39ff14" />
<rect x="36" y="44" width="4" height="4" fill="#39ff14" />
<rect x="52" y="44" width="4" height="4" fill="#39ff14" />
<rect x="56" y="44" width="4" height="4" fill="#39ff14" />
<rect x="76" y="44" width="4" height="4" fill="#39ff14" />
<rect x="80" y="44" width="4" height="4" fill="#39ff14" />
<rect x="36" y="48" width="4" height="4" fill="#39ff14" />
<rect x="80" y="48" width="4" height="4" fill="#39ff14" />
<rect x="84" y="48" width="4" height="4" fill="#39ff14" />
<rect x="52" y="52" width="4" height="4" fill="#39ff14" />
<rect x="76" y="52" width="4" height="4" fill="#39ff14" />
<rect x="80" y="52" width="4" height="4" fill="#39ff14" />
<rect x="12" y="56" width="4" height="4" fill="#39ff14" />
<rect x="16" y="56" width="4" height="4" fill="#39ff14" />
<rect x="40" y="56" width="4" height="4" fill="#39ff14" />
<rect x="52" y="56" width="4" height="4" fill="#39ff14" />
<rect x="76" y="56" width="4" height="4" fill="#39ff14" />
<rect x="104" y="56" width="4" height="4" fill="#39ff14" />
<rect x="108" y="56" width="4" height="4" fill="#39ff14" />
<rect x="8" y="60" width="4" height="4" fill="#39ff14" />
<rect x="16" y="60" width="4" height="4" fill="#39ff14" />
<rect x="48" y="60" width="4" height="4" fill="#39ff14" />
<rect x="104" y="60" width="4" height="4" fill="#39ff14" />
<rect x="112" y="60" width="4" height="4" fill="#39ff14" />
<rect x="8" y="64" width="4" height="4" fill="#39ff14" />
<rect x="112" y="64" width="4" height="4" fill="#39ff14" />
<rect x="4" y="68" width="4" height="4" fill="#39ff14" />
<rect x="8" y="68" width="4" height="4" fill="#39ff14" />
<rect x="112" y="68" width="4" height="4" fill="#39ff14" />
<rect x="116" y="68" width="4" height="4" fill="#39ff14" />
</svg>