<?xml version="1.0" encoding="utf-8"?>
<svg xmlns="http://www.w3.org/2000/svg" width="83" height="122" viewBox="0 0 83 122">
<rect width="100%" height="100%" fill="transparent" />
<rect x="4" y="4" width="3" height="3" fill="#39ff14" />
<rect x="4" y="7" width="3" height="3" fill="#39ff14" />
<rect x="7" y="7" width="3" height="3" fill="#39ff14" />
<rect x="10" y="7" width="3" height="3" fill="#39ff14" />
<rect x="13" y="10" width="3" height="3" fill="#39ff14" />
<rect x="10" y="13" width="3" height="3" fill="#39ff14" />
<rect x="13" y="13" width="3" height="3" fill="#39ff14" />
<rect x="22" y="19" width="3" height="3" fill="#39ff14" />
<rect x="19" y="22" width="3" height="3" fill="#39ff14" />
<rect x="22" y="22" width="3" height="3" fill="#39ff14" />
<rect x="25" y="22" width="3" height="3" fill="#39ff14" />
<rect x="28" y="22" width="3" height="3" fill="#39ff14" />
<rect x="22" y="25" width="3" height="3" fill="#39ff14" />
<rect x="31" y="25" width="3" height="3" fill="#39ff14" />
<rect x="25" y="28" width="3" height="3" fill="#39ff14" />
<rect x="28" y="28" width="3" height="3" fill="#39ff14" />
<rect x="31" y="28" width="3" height="3" fill="#39ff14" />
<rect x="34" y="34" width="3" height="3" fill="#39ff14" />
<rect x="37" y="34" width="3" height="3" fill="#39ff14" />
<rect x="34" y="37" width="3" height="3" fill="#39ff14" />
<rect x="37" y="40" width="3" height="3" fill="#39ff14" />
<rect x="40" y="40" width="3" height="3" fill="#39ff14" />
<rect x="43" y="40" width="3" height="3" fill="#39ff14" />
<rect x="43" y="43" width="3" height="3" fill="#39ff14" />
<rect x="4" y="46" width="3" height="3" fill="#39ff14" />
<rect x="4" y="49" width="3" height="3" fill="#39ff14" />
<rect x="7" y="49" width="3" height="3" fill="#39ff14" />
<rect x="10" y="49" width="3" height="3" fill="#39ff14" />
<rect x="13" y="52" width="3" height="3" fill="#39ff14" />
<rect x="10" y="55" width="3" height="3" fill="#39ff14" />
<rect x="13" y="55" width="3" height="3" fill="#39ff14" />
<rect x="22" y="61" width="3" height="3" fill="#39ff14" />
<rect x="19" y="64" width="3" height="3" fill="#39ff14" />
<rect x="22" y="64" width="3" height="3" fill="#39ff14" />
<rect x="25" y="64" width="3" height="3" fill="#39ff14" />
<rect x="28" y="64" width="3" height="3" fill="#39ff14" />
<rect x="22" y="67" width="3" height="3" fill="#39ff14" />
<rect x="31" y="67" width="3" height="3" fill="#39ff14" />
<rect x="25" y="70" width="3" height="3" fill="#39ff14" />
<rect x="28" y="70" width="3" height="3" fill="#39ff14" />
<rect x="31" y="70" width="3" height="3" fill="#39ff14" />
<rect x="34" y="76" width="3" height="3" fill="#39ff14" />
<rect x="37" y="76" width="3" height="3" fill="#39ff14" />
<rect x="40" y="76" width="3" height="3" fill="#39ff14" />
<rect x="34" y="79" width="3" height="3" fill="#39ff14" />
<rect x="43" y="79" width="3" height="3" fill="#39ff14" />
<rect x="37" y="82" width="3" height="3" fill="#39ff14" />
<rect x="40" y="82" width="3" height="3" fill="#39ff14" />
<rect x="43" y="82" width="3" height="3" fill="#39ff14" />
<rect x="46" y="82" width="3" height="3" fill="#39ff14" />
<rect x="43" y="85" width="3" height="3" fill="#39ff14" />
<rect x="55" y="91" width="3" height="3" fill="#39ff14" />
<rect x="52" y="94" width="3" height="3" fill="#39ff14" />
<rect x="55" y="94" width="3" height="3" fill="#39ff14" />
<rect x="58" y="94" width="3" height="3" fill="#39ff14" />
<rect x="55" y="97" width="3" height="3" fill="#39ff14" />
<rect x="61" y="97" width="3" height="3" fill="#39ff14" />
<rect x="55" y="100" width="3" height="3" fill="#39ff14" />
<rect x="61" y="100" width="3" height="3" fill="#39ff14" />
<rect x="58" y="103" width="3" height="3" fill="#39ff14" />
<rect x="61" y="103" width="3" height="3" fill="#39ff14" />
<rect x="67" y="106" width="3" height="3" fill="#39ff14" />
<rect x="70" y="106" width="3" height="3" fill="#39ff14" />
<rect x="67" y="109" width="3" height="3" fill="#39ff14" />
<rect x="73" y="109" width="3" height="3" fill="#39ff14" />
<rect x="73" y="112" width="3" height="3" fill="#39ff14" />
<rect x="73" y="115" width="3" height="3" fill="#39ff14" />
<rect x="76" y="115" width="3" height="3" fill="#39ff14" />
</svg>