<?xml version="1.0" encoding="utf-8"?>
<svg xmlns="http://www.w3.org/2000/svg" width="125" height="89" viewBox="0 0 125 89">
<rect width="100%" height="100%" fill="transparent" />
<rect x="88" y="4" width="3" height="3" fill="#39ff14" />
<rect x="88" y="7" width="3" height="3" fill="#39ff14" />
<rect x="94" y="7" width="3" height="3" fill="#39ff14" />
<rect x="37" y="10" width="3" height="3" fill="#39ff14" />
<rect x="40" y="10" width="3" height="3" fill="#39ff14" />
<rect x="97" y="10" width="3" height="3" fill="#39ff14" />
<rect x="100" y="10" width="3" height="3" fill="#39ff14" />
<rect x="31" y="13" width="3" height="3" fill="#39ff14" />
<rect x="43" y="13" width="3" height="3" fill="#39ff14" />
<rect x="97" y="13" width="3" height="3" fill="#39ff14" />
<rect x="100" y="13" width="3" height="3" fill="#39ff14" />
<rect x="115" y="13" width="3" height="3" fill="#39ff14" />
<rect x="118" y="13" width="3" height="3" fill="#39ff14" />
<rect x="13" y="16" width="3" height="3" fill="#39ff14" />
<rect x="16" y="16" width="3" height="3" fill="#39ff14" />
<rect x="28" y="16" width="3" height="3" fill="#39ff14" />
<rect x="46" y="16" width="3" height="3" fill="#39ff14" />
<rect x="97" y="16" width="3" height="3" fill="#39ff14" />
<rect x="100" y="16" width="3" height="3" fill="#39ff14" />
<rect x="115" y="16" width="3" height="3" fill="#39ff14" />
<rect x="118" y="16" width="3" height="3" fill="#39ff14" />
<rect x="13" y="19" width="3" height="3" fill="#39ff14" />
<rect x="16" y="19" width="3" height="3" fill="#39ff14" />
<rect x="25" y="19" width="3" height="3" fill="#39ff14" />
<rect x="28" y="19" width="3" height="3" fill="#39ff14" />
<rect x="34" y="19" width="3" height="3" fill="#39ff14" />
<rect x="46" y="19" width="3" height="3" fill="#39ff14" />
<rect x="88" y="19" width="3" height="3" fill="#39ff14" />
<rect x="94" y="19" width="3" height="3" fill="#39ff14" />
<rect x="28" y="22" width="3" height="3" fill="#39ff14" />
<rect x="46" y="22" width="3" height="3" fill="#39ff14" />
<rect x="88" y="22" width="3" height="3" fill="#39ff14" />
<rect x="31" y="25" width="3" height="3" fill="#39ff14" />
<rect x="43" y="25" width="3" height="3" fill="#39ff14" />
<rect x="37" y="28" width="3" height="3" fill="#39ff14" />
<rect x="40" y="28" width="3" height="3" fill="#39ff14" />
<rect x="34" y="52" width="3" height="3" fill="#39ff14" />
<rect x="40" y="52" width="3" height="3" fill="#39ff14" />
<rect x="31" y="55" width="3" height="3" fill="#39ff14" />
<rect x="40" y="55" width="3" height="3" fill="#39ff14" />
<rect x="52" y="55" width="3" height="3" fill="#39ff14" />
<rect x="55" y="55" width="3" height="3" fill="#39ff14" />
<rect x="4" y="58" width="3" height="3" fill="#39ff14" />
<rect x="7" y="58" width="3" height="3" fill="#39ff14" />
<rect x="28" y="58" width="3" height="3" fill="#39ff14" />
<rect x="31" y="58" width="3" height="3" fill="#39ff14" />
<rect x="49" y="58" width="3" height="3" fill="#39ff14" />
<rect x="52" y="58" width="3" height="3" fill="#39ff14" />
<rect x="55" y="58" width="3" height="3" fill="#39ff14" />
<rect x="61" y="58" width="3" height="3" fill="#39ff14" />
<rect x="64" y="58" width="3" height="3" fill="#39ff14" />
<rect x="73" y="58" width="3" height="3" fill="#39ff14" />
<rect x="76" y="58" width="3" height="3" fill="#39ff14" />
<rect x="4" y="61" width="3" height="3" fill="#39ff14" />
<rect x="7" y="61" width="3" height="3" fill="#39ff14" />
<rect x="22" y="61" width="3" height="3" fill="#39ff14" />
<rect x="25" y="61" width="3" height="3" fill="#39ff14" />
<rect x="37" y="61" width="3" height="3" fill="#39ff14" />
<rect x="49" y="61" width="3" height="3" fill="#39ff14" />
<rect x="61" y="61" width="3" height="3" fill="#39ff14" />
<rect x="73" y="61" width="3" height="3" fill="#39ff14" />
<rect x="79" y="61" width="3" height="3" fill="#39ff14" />
<rect x="28" y="64" width="3" height="3" fill="#39ff14" />
<rect x="31" y="64" width="3" height="3" fill="#39ff14" />
<rect x="49" y="64" width="3" height="3" fill="#39ff14" />
<rect x="55" y="64" width="3" height="3" fill="#39ff14" />
<rect x="82" y="64" width="3" height="3" fill="#39ff14" />
<rect x="31" y="67" width="3" height="3" fill="#39ff14" />
<rect x="40" y="67" width="3" height="3" fill="#39ff14" />
<rect x="49" y="67" width="3" height="3" fill="#39ff14" />
<rect x="52" y="67" width="3" height="3" fill="#39ff14" />
<rect x="73" y="67" width="3" height="3" fill="#39ff14" />
<rect x="82" y="67" width="3" height="3" fill="#39ff14" />
<rect x="34" y="70" width="3" height="3" fill="#39ff14" />
<rect x="40" y="70" width="3" height="3" fill="#39ff14" />
<rect x="82" y="70" width="3" height="3" fill="#39ff14" />
<rect x="73" y="73" width="3" height="3" fill="#39ff14" />
<rect x="79" y="73" width="3" height="3" fill="#39ff14" />
<rect x="103" y="73" width="3" height="3" fill="#39ff14" />
<rect x="106" y="73" width="3" height="3" fill="#39ff14" />
<rect x="73" y="76" width="3" height="3" fill="#39ff14" />
<rect x="76" y="76" width="3" height="3" fill="#39ff14" />
<rect x="103" y="76" width="3" height="3" fill="#39ff14" />
<rect x="109" y="76" width="3" height="3" fill="#39ff14" />
<rect x="109" y="79" width="3" height="3" fill="#39ff14" />
<rect x="109" y="82" width="3" height="3" fill="#39ff14" />
<rect x="112" y="82" width="3" height="3" fill="#39ff14" />
</svg>