<?xml version="1.0" encoding="utf-8"?>
<svg xmlns="http://www.w3.org/2000/svg" width="100" height="108" viewBox="0 0 100 108">
<rect width="100%" height="100%" fill="transparent" />
<rect x="84" y="4" width="4" height="4" fill="#39ff14" />
<rect x="84" y="8" width="4" height="4" fill="#39ff14" />
<rect x="92" y="8" width="4" height="4" fill="#39ff14" />
<rect x="84" y="12" width="4" height="4" fill="#39ff14" />
<rect x="88" y="12" width="4" height="4" fill="#39ff14" />
<rect x="44" y="44" width="4" height="4" fill="#39ff14" />
<rect x="44" y="48" width="4" height="4" fill="#39ff14" />
<rect x="52" y="48" width="4" height="4" fill="#39ff14" />
<rect x="44" y="52" width="4" height="4" fill="#39ff14" />
<rect x="48" y="52" width="4" height="4" fill="#39ff14" />
<rect x="36" y="60" width="4" height="4" fill="#39ff14" />
<rect x="40" y="60" width="4" height="4" fill="#39ff14" />
<rect x="8" y="64" width="4" height="4" fill="#39ff14" />
<rect x="12" y="64" width="4" height="4" fill="#39ff14" />
<rect x="32" y="64" width="4" height="4" fill="#39ff14" />
<rect x="44" y="64" width="4" height="4" fill="#39ff14" />
<rect x="8" y="68" width="4" height="4" fill="#39ff14" />
<rect x="12" y="68" width="4" height="4" fill="#39ff14" />
<rect x="36" y="68" width="4" height="4" fill="#39ff14" />
<rect x="44" y="68" width="4" height="4" fill="#39ff14" />
<rect x="8" y="72" width="4" height="4" fill="#39ff14" />
<rect x="12" y="72" width="4" height="4" fill="#39ff14" />
<rect x="40" y="72" width="4" height="4" fill="#39ff14" />
<rect x="12" y="76" width="4" height="4" fill="#39ff14" />
<rect x="8" y="80" width="4" height="4" fill="#39ff14" />
<rect x="16" y="80" width="4" height="4" fill="#39ff14" />
<rect x="56" y="80" width="4" height="4" fill="#39ff14" />
<rect x="60" y="80" width="4" height="4" fill="#39ff14" />
<rect x="4" y="84" width="4" height="4" fill="#39ff14" />
<rect x="8" y="84" width="4" height="4" fill="#39ff14" />
<rect x="16" y="84" width="4" height="4" fill="#39ff14" />
<rect x="56" y="84" width="4" height="4" fill="#39ff14" />
<rect x="60" y="88" width="4" height="4" fill="#39ff14" />
<rect x="64" y="88" width="4" height="4" fill="#39ff14" />
<rect x="68" y="88" width="4" height="4" fill="#39ff14" />
<rect x="68" y="92" width="4" height="4" fill="#39ff14" />
<rect x="8" y="96" width="4" height="4" fill="#39ff14" />
<rect x="12" y="96" width="4" height="4" fill="#39ff14" />
<rect x="8" y="100" width="4" height="4" fill="#39ff14" />
<rect x="12" y="100" width="4" height="4" fill="#39ff14" />
</svg>