<?xml version="1.0" encoding="utf-8"?>
<svg xmlns="http://www.w3.org/2000/svg" width="98" height="118" viewBox="0 0 98 118">
<rect width="100%" height="100%" fill="transparent" />
<rect x="84" y="4" width="5" height="5" fill="#39ff14" />
<rect x="79" y="9" width="5" height="5" fill="#39ff14" />
<rect x="79" y="14" width="5" height="5" fill="#39ff14" />
<rect x="84" y="14" width="5" height="5" fill="#39ff14" />
<rect x="89" y="14" width="5" height="5" fill="#39ff14" />
<rect x="54" y="34" width="5" height="5" fill="#39ff14" />
<rect x="49" y="39" width="5" height="5" fill="#39ff14" />
<rect x="49" y="44" width="5" height="5" fill="#39ff14" />
<rect x="54" y="44" width="5" height="5" fill="#39ff14" />
<rect x="59" y="44" width="5" height="5" fill="#39ff14" />
<rect x="69" y="54" width="5" height="5" fill="#39ff14" />
<rect x="74" y="54" width="5" height="5" fill="#39ff14" />
<rect x="49" y="59" width="5" height="5" fill="#39ff14" />
<rect x="54" y="59" width="5" height="5" fill="#39ff14" />
<rect x="69" y="59" width="5" height="5" fill="#39ff14" />
<rect x="74" y="59" width="5" height="5" fill="#39ff14" />
<rect x="44" y="64" width="5" height="5" fill="#39ff14" />
<rect x="54" y="64" width="5" height="5" fill="#39ff14" />
<rect x="49" y="69" width="5" height="5" fill="#39ff14" />
<rect x="29" y="74" width="5" height="5" fill="#39ff14" />
<rect x="24" y="79" width="5" height="5" fill="#39ff14" />
<rect x="34" y="79" width="5" height="5" fill="#39ff14" />
<rect x="59" y="79" width="5" height="5" fill="#39ff14" />
<rect x="64" y="79" width="5" height="5" fill="#39ff14" />
<rect x="19" y="84" width="5" height="5" fill="#39ff14" />
<rect x="39" y="84" width="5" height="5" fill="#39ff14" />
<rect x="59" y="84" width="5" height="5" fill="#39ff14" />
<rect x="14" y="89" width="5" height="5" fill="#39ff14" />
<rect x="34" y="89" width="5" height="5" fill="#39ff14" />
<rect x="64" y="89" width="5" height="5" fill="#39ff14" />
<rect x="69" y="89" width="5" height="5" fill="#39ff14" />
<rect x="74" y="89" width="5" height="5" fill="#39ff14" />
<rect x="9" y="94" width="5" height="5" fill="#39ff14" />
<rect x="29" y="94" width="5" height="5" fill="#39ff14" />
<rect x="74" y="94" width="5" height="5" fill="#39ff14" />
<rect x="4" y="99" width="5" height="5" fill="#39ff14" />
<rect x="24" y="99" width="5" height="5" fill="#39ff14" />
<rect x="9" y="104" width="5" height="5" fill="#39ff14" />
<rect x="19" y="104" width="5" height="5" fill="#39ff14" />
<rect x="14" y="109" width="5" height="5" fill="#39ff14" />
</svg>