<?xml version="1.0" encoding="utf-8"?>
<svg xmlns="http://www.w3.org/2000/svg" width="86" height="101" viewBox="0 0 86 101">
<rect width="100%" height="100%" fill="transparent" />
<rect x="16" y="4" width="3" height="3" fill="#39ff14" />
<rect x="19" y="4" width="3" height="3" fill="#39ff14" />
<rect x="22" y="4" width="3" height="3" fill="#39ff14" />
<rect x="13" y="7" width="3" height="3" fill="#39ff14" />
<rect x="22" y="7" width="3" height="3" fill="#39ff14" />
<rect x="25" y="7" width="3" height="3" fill="#39ff14" />
<rect x="13" y="10" width="3" height="3" fill="#39ff14" />
<rect x="28" y="10" width="3" height="3" fill="#39ff14" />
<rect x="13" y="16" width="3" height="3" fill="#39ff14" />
<rect x="16" y="16" width="3" height="3" fill="#39ff14" />
<rect x="19" y="16" width="3" height="3" fill="#39ff14" />
<rect x="31" y="16" width="3" height="3" fill="#39ff14" />
<rect x="34" y="16" width="3" height="3" fill="#39ff14" />
<rect x="40" y="16" width="3" height="3" fill="#39ff14" />
<rect x="43" y="16" width="3" height="3" fill="#39ff14" />
<rect x="46" y="16" width="3" height="3" fill="#39ff14" />
<rect x="7" y="19" width="3" height="3" fill="#39ff14" />
<rect x="10" y="19" width="3" height="3" fill="#39ff14" />
<rect x="16" y="19" width="3" height="3" fill="#39ff14" />
<rect x="22" y="19" width="3" height="3" fill="#39ff14" />
<rect x="37" y="19" width="3" height="3" fill="#39ff14" />
<rect x="43" y="19" width="3" height="3" fill="#39ff14" />
<rect x="46" y="19" width="3" height="3" fill="#39ff14" />
<rect x="13" y="22" width="3" height="3" fill="#39ff14" />
<rect x="22" y="22" width="3" height="3" fill="#39ff14" />
<rect x="37" y="22" width="3" height="3" fill="#39ff14" />
<rect x="46" y="22" width="3" height="3" fill="#39ff14" />
<rect x="49" y="22" width="3" height="3" fill="#39ff14" />
<rect x="4" y="25" width="3" height="3" fill="#39ff14" />
<rect x="13" y="25" width="3" height="3" fill="#39ff14" />
<rect x="40" y="25" width="3" height="3" fill="#39ff14" />
<rect x="4" y="28" width="3" height="3" fill="#39ff14" />
<rect x="19" y="28" width="3" height="3" fill="#39ff14" />
<rect x="28" y="28" width="3" height="3" fill="#39ff14" />
<rect x="31" y="28" width="3" height="3" fill="#39ff14" />
<rect x="40" y="28" width="3" height="3" fill="#39ff14" />
<rect x="49" y="28" width="3" height="3" fill="#39ff14" />
<rect x="7" y="31" width="3" height="3" fill="#39ff14" />
<rect x="13" y="31" width="3" height="3" fill="#39ff14" />
<rect x="16" y="31" width="3" height="3" fill="#39ff14" />
<rect x="19" y="31" width="3" height="3" fill="#39ff14" />
<rect x="28" y="31" width="3" height="3" fill="#39ff14" />
<rect x="31" y="31" width="3" height="3" fill="#39ff14" />
<rect x="43" y="31" width="3" height="3" fill="#39ff14" />
<rect x="46" y="31" width="3" height="3" fill="#39ff14" />
<rect x="13" y="34" width="3" height="3" fill="#39ff14" />
<rect x="16" y="34" width="3" height="3" fill="#39ff14" />
<rect x="22" y="34" width="3" height="3" fill="#39ff14" />
<rect x="28" y="34" width="3" height="3" fill="#39ff14" />
<rect x="31" y="34" width="3" height="3" fill="#39ff14" />
<rect x="37" y="34" width="3" height="3" fill="#39ff14" />
<rect x="49" y="34" width="3" height="3" fill="#39ff14" />
<rect x="31" y="37" width="3" height="3" fill="#39ff14" />
<rect x="34" y="37" width="3" height="3" fill="#39ff14" />
<rect x="40" y="37" width="3" height="3" fill="#39ff14" />
<rect x="43" y="37" width="3" height="3" fill="#39ff14" />
<rect x="46" y="37" width="3" height="3" fill="#39ff14" />
<rect x="31" y="40" width="3" height="3" fill="#39ff14" />
<rect x="49" y="40" width="3" height="3" fill="#39ff14" />
<rect x="40" y="43" width="3" height="3" fill="#39ff14" />
<rect x="43" y="43" width="3" height="3" fill="#39ff14" />
<rect x="46" y="43" width="3" height="3" fill="#39ff14" />
<rect x="55" y="43" width="3" height="3" fill="#39ff14" />
<rect x="58" y="43" width="3" height="3" fill="#39ff14" />
<rect x="61" y="43" width="3" height="3" fill="#39ff14" />
<rect x="49" y="46" width="3" height="3" fill="#39ff14" />
<rect x="55" y="46" width="3" height="3" fill="#39ff14" />
<rect x="58" y="46" width="3" height="3" fill="#39ff14" />
<rect x="34" y="49" width="3" height="3" fill="#39ff14" />
<rect x="37" y="49" width="3" height="3" fill="#39ff14" />
<rect x="43" y="49" width="3" height="3" fill="#39ff14" />
<rect x="55" y="49" width="3" height="3" fill="#39ff14" />
<rect x="58" y="49" width="3" height="3" fill="#39ff14" />
<rect x="61" y="49" width="3" height="3" fill="#39ff14" />
<rect x="34" y="52" width="3" height="3" fill="#39ff14" />
<rect x="37" y="52" width="3" height="3" fill="#39ff14" />
<rect x="46" y="52" width="3" height="3" fill="#39ff14" />
<rect x="55" y="52" width="3" height="3" fill="#39ff14" />
<rect x="58" y="52" width="3" height="3" fill="#39ff14" />
<rect x="40" y="55" width="3" height="3" fill="#39ff14" />
<rect x="43" y="55" width="3" height="3" fill="#39ff14" />
<rect x="46" y="55" width="3" height="3" fill="#39ff14" />
<rect x="49" y="55" width="3" height="3" fill="#39ff14" />
<rect x="61" y="55" width="3" height="3" fill="#39ff14" />
<rect x="43" y="58" width="3" height="3" fill="#39ff14" />
<rect x="46" y="58" width="3" height="3" fill="#39ff14" />
<rect x="52" y="58" width="3" height="3" fill="#39ff14" />
<rect x="61" y="58" width="3" height="3" fill="#39ff14" />
<rect x="37" y="61" width="3" height="3" fill="#39ff14" />
<rect x="40" y="61" width="3" height="3" fill="#39ff14" />
<rect x="46" y="61" width="3" height="3" fill="#39ff14" />
<rect x="52" y="61" width="3" height="3" fill="#39ff14" />
<rect x="58" y="61" width="3" height="3" fill="#39ff14" />
<rect x="46" y="64" width="3" height="3" fill="#39ff14" />
<rect x="37" y="67" width="3" height="3" fill="#39ff14" />
<rect x="61" y="67" width="3" height="3" fill="#39ff14" />
<rect x="64" y="67" width="3" height="3" fill="#39ff14" />
<rect x="40" y="70" width="3" height="3" fill="#39ff14" />
<rect x="43" y="70" width="3" height="3" fill="#39ff14" />
<rect x="61" y="70" width="3" height="3" fill="#39ff14" />
<rect x="64" y="70" width="3" height="3" fill="#39ff14" />
<rect x="46" y="73" width="3" height="3" fill="#39ff14" />
<rect x="49" y="73" width="3" height="3" fill="#39ff14" />
<rect x="55" y="73" width="3" height="3" fill="#39ff14" />
<rect x="52" y="76" width="3" height="3" fill="#39ff14" />
<rect x="55" y="76" width="3" height="3" fill="#39ff14" />
<rect x="58" y="76" width="3" height="3" fill="#39ff14" />
<rect x="67" y="76" width="3" height="3" fill="#39ff14" />
<rect x="73" y="76" width="3" height="3" fill="#39ff14" />
<rect x="52" y="79" width="3" height="3" fill="#39ff14" />
<rect x="55" y="79" width="3" height="3" fill="#39ff14" />
<rect x="67" y="79" width="3" height="3" fill="#39ff14" />
<rect x="55" y="82" width="3" height="3" fill="#39ff14" />
<rect x="58" y="85" width="3" height="3" fill="#39ff14" />
<rect x="61" y="85" width="3" height="3" fill="#39ff14" />
<rect x="64" y="85" width="3" height="3" fill="#39ff14" />
<rect x="67" y="85" width="3" height="3" fill="#39ff14" />
<rect x="70" y="85" width="3" height="3" fill="#39ff14" />
<rect x="76" y="85" width="3" height="3" fill="#39ff14" />
<rect x="61" y="88" width="3" height="3" fill="#39ff14" />
<rect x="64" y="88" width="3" height="3" fill="#39ff14" />
<rect x="73" y="88" width="3" height="3" fill="#39ff14" />
<rect x="76" y="88" width="3" height="3" fill="#39ff14" />
<rect x="79" y="88" width="3" height="3" fill="#39ff14" />
<rect x="61" y="91" width="3" height="3" fill="#39ff14" />
<rect x="64" y="91" width="3" height="3" fill="#39ff14" />
<rect x="79" y="91" width="3" height="3" fill="#39ff14" />
<rect x="73" y="94" width="3" height="3" fill="#39ff14" />
<rect x="76" y="94" width="3" height="3" fill="#39ff14" />
</svg>