<?xml version="1.0" encoding="utf-8"?>
<svg xmlns="http://www.w3.org/2000/svg" width="110" height="72" viewBox="0 0 110 72">
<rect width="100%" height="100%" fill="transparent" />
<rect x="18" y="4" width="2" height="2" fill="#39ff14" />
<rect x="34" y="4" width="2" height="2" fill="#39ff14" />
<rect x="72" y="4" width="2" height="2" fill="#39ff14" />
<rect x="88" y="4" width="2" height="2" fill="#39ff14" />
<rect x="16" y="6" width="2" height="2" fill="#39ff14" />
<rect x="18" y="6" width="2" height="2" fill="#39ff14" />
<rect x="20" y="6" width="2" height="2" fill="#39ff14" />
<rect x="32" y="6" width="2" height="2" fill="#39ff14" />
<rect x="34" y="6" width="2" height="2" fill="#39ff14" />
<rect x="36" y="6" width="2" height="2" fill="#39ff14" />
<rect x="70" y="6" width="2" height="2" fill="#39ff14" />
<rect x="72" y="6" width="2" height="2" fill="#39ff14" />
<rect x="74" y="6" width="2" height="2" fill="#39ff14" />
<rect x="86" y="6" width="2" height="2" fill="#39ff14" />
<rect x="88" y="6" width="2" height="2" fill="#39ff14" />
<rect x="90" y="6" width="2" height="2" fill="#39ff14" />
<rect x="14" y="8" width="2" height="2" fill="#39ff14" />
<rect x="20" y="8" width="2" height="2" fill="#39ff14" />
<rect x="22" y="8" width="2" height="2" fill="#39ff14" />
<rect x="30" y="8" width="2" height="2" fill="#39ff14" />
<rect x="32" y="8" width="2" height="2" fill="#39ff14" />
<rect x="38" y="8" width="2" height="2" fill="#39ff14" />
<rect x="68" y="8" width="2" height="2" fill="#39ff14" />
<rect x="70" y="8" width="2" height="2" fill="#39ff14" />
<rect x="74" y="8" width="2" height="2" fill="#39ff14" />
<rect x="86" y="8" width="2" height="2" fill="#39ff14" />
<rect x="90" y="8" width="2" height="2" fill="#39ff14" />
<rect x="92" y="8" width="2" height="2" fill="#39ff14" />
<rect x="14" y="10" width="2" height="2" fill="#39ff14" />
<rect x="22" y="10" width="2" height="2" fill="#39ff14" />
<rect x="30" y="10" width="2" height="2" fill="#39ff14" />
<rect x="38" y="10" width="2" height="2" fill="#39ff14" />
<rect x="70" y="10" width="2" height="2" fill="#39ff14" />
<rect x="72" y="10" width="2" height="2" fill="#39ff14" />
<rect x="76" y="10" width="2" height="2" fill="#39ff14" />
<rect x="84" y="10" width="2" height="2" fill="#39ff14" />
<rect x="88" y="10" width="2" height="2" fill="#39ff14" />
<rect x="90" y="10" width="2" height="2" fill="#39ff14" />
<rect x="16" y="12" width="2" height="2" fill="#39ff14" />
<rect x="18" y="12" width="2" height="2" fill="#39ff14" />
<rect x="22" y="12" width="2" height="2" fill="#39ff14" />
<rect x="24" y="12" width="2" height="2" fill="#39ff14" />
<rect x="28" y="12" width="2" height="2" fill="#39ff14" />
<rect x="30" y="12" width="2" height="2" fill="#39ff14" />
<rect x="34" y="12" width="2" height="2" fill="#39ff14" />
<rect x="36" y="12" width="2" height="2" fill="#39ff14" />
<rect x="66" y="12" width="2" height="2" fill="#39ff14" />
<rect x="70" y="12" width="2" height="2" fill="#39ff14" />
<rect x="72" y="12" width="2" height="2" fill="#39ff14" />
<rect x="88" y="12" width="2" height="2" fill="#39ff14" />
<rect x="90" y="12" width="2" height="2" fill="#39ff14" />
<rect x="94" y="12" width="2" height="2" fill="#39ff14" />
<rect x="16" y="14" width="2" height="2" fill="#39ff14" />
<rect x="18" y="14" width="2" height="2" fill="#39ff14" />
<rect x="22" y="14" width="2" height="2" fill="#39ff14" />
<rect x="30" y="14" width="2" height="2" fill="#39ff14" />
<rect x="34" y="14" width="2" height="2" fill="#39ff14" />
<rect x="36" y="14" width="2" height="2" fill="#39ff14" />
<rect x="64" y="14" width="2" height="2" fill="#39ff14" />
<rect x="68" y="14" width="2" height="2" fill="#39ff14" />
<rect x="74" y="14" width="2" height="2" fill="#39ff14" />
<rect x="78" y="14" width="2" height="2" fill="#39ff14" />
<rect x="82" y="14" width="2" height="2" fill="#39ff14" />
<rect x="86" y="14" width="2" height="2" fill="#39ff14" />
<rect x="92" y="14" width="2" height="2" fill="#39ff14" />
<rect x="96" y="14" width="2" height="2" fill="#39ff14" />
<rect x="20" y="16" width="2" height="2" fill="#39ff14" />
<rect x="32" y="16" width="2" height="2" fill="#39ff14" />
<rect x="64" y="16" width="2" height="2" fill="#39ff14" />
<rect x="68" y="16" width="2" height="2" fill="#39ff14" />
<rect x="76" y="16" width="2" height="2" fill="#39ff14" />
<rect x="78" y="16" width="2" height="2" fill="#39ff14" />
<rect x="82" y="16" width="2" height="2" fill="#39ff14" />
<rect x="84" y="16" width="2" height="2" fill="#39ff14" />
<rect x="92" y="16" width="2" height="2" fill="#39ff14" />
<rect x="96" y="16" width="2" height="2" fill="#39ff14" />
<rect x="22" y="18" width="2" height="2" fill="#39ff14" />
<rect x="24" y="18" width="2" height="2" fill="#39ff14" />
<rect x="28" y="18" width="2" height="2" fill="#39ff14" />
<rect x="30" y="18" width="2" height="2" fill="#39ff14" />
<rect x="66" y="18" width="2" height="2" fill="#39ff14" />
<rect x="68" y="18" width="2" height="2" fill="#39ff14" />
<rect x="70" y="18" width="2" height="2" fill="#39ff14" />
<rect x="74" y="18" width="2" height="2" fill="#39ff14" />
<rect x="86" y="18" width="2" height="2" fill="#39ff14" />
<rect x="90" y="18" width="2" height="2" fill="#39ff14" />
<rect x="92" y="18" width="2" height="2" fill="#39ff14" />
<rect x="94" y="18" width="2" height="2" fill="#39ff14" />
<rect x="12" y="20" width="2" height="2" fill="#39ff14" />
<rect x="14" y="20" width="2" height="2" fill="#39ff14" />
<rect x="20" y="20" width="2" height="2" fill="#39ff14" />
<rect x="32" y="20" width="2" height="2" fill="#39ff14" />
<rect x="38" y="20" width="2" height="2" fill="#39ff14" />
<rect x="40" y="20" width="2" height="2" fill="#39ff14" />
<rect x="68" y="20" width="2" height="2" fill="#39ff14" />
<rect x="70" y="20" width="2" height="2" fill="#39ff14" />
<rect x="72" y="20" width="2" height="2" fill="#39ff14" />
<rect x="88" y="20" width="2" height="2" fill="#39ff14" />
<rect x="90" y="20" width="2" height="2" fill="#39ff14" />
<rect x="92" y="20" width="2" height="2" fill="#39ff14" />
<rect x="12" y="22" width="2" height="2" fill="#39ff14" />
<rect x="14" y="22" width="2" height="2" fill="#39ff14" />
<rect x="20" y="22" width="2" height="2" fill="#39ff14" />
<rect x="32" y="22" width="2" height="2" fill="#39ff14" />
<rect x="38" y="22" width="2" height="2" fill="#39ff14" />
<rect x="40" y="22" width="2" height="2" fill="#39ff14" />
<rect x="68" y="22" width="2" height="2" fill="#39ff14" />
<rect x="70" y="22" width="2" height="2" fill="#39ff14" />
<rect x="90" y="22" width="2" height="2" fill="#39ff14" />
<rect x="92" y="22" width="2" height="2" fill="#39ff14" />
<rect x="68" y="24" width="2" height="2" fill="#39ff14" />
<rect x="92" y="24" width="2" height="2" fill="#39ff14" />
<rect x="20" y="26" width="2" height="2" fill="#39ff14" />
<rect x="24" y="26" width="2" height="2" fill="#39ff14" />
<rect x="28" y="26" width="2" height="2" fill="#39ff14" />
<rect x="32" y="26" width="2" height="2" fill="#39ff14" />
<rect x="66" y="26" width="2" height="2" fill="#39ff14" />
<rect x="68" y="26" width="2" height="2" fill="#39ff14" />
<rect x="92" y="26" width="2" height="2" fill="#39ff14" />
<rect x="94" y="26" width="2" height="2" fill="#39ff14" />
<rect x="20" y="28" width="2" height="2" fill="#39ff14" />
<rect x="22" y="28" width="2" height="2" fill="#39ff14" />
<rect x="30" y="28" width="2" height="2" fill="#39ff14" />
<rect x="32" y="28" width="2" height="2" fill="#39ff14" />
<rect x="66" y="28" width="2" height="2" fill="#39ff14" />
<rect x="68" y="28" width="2" height="2" fill="#39ff14" />
<rect x="92" y="28" width="2" height="2" fill="#39ff14" />
<rect x="94" y="28" width="2" height="2" fill="#39ff14" />
<rect x="74" y="32" width="2" height="2" fill="#39ff14" />
<rect x="76" y="32" width="2" height="2" fill="#39ff14" />
<rect x="84" y="32" width="2" height="2" fill="#39ff14" />
<rect x="86" y="32" width="2" height="2" fill="#39ff14" />
<rect x="42" y="34" width="2" height="2" fill="#39ff14" />
<rect x="64" y="34" width="2" height="2" fill="#39ff14" />
<rect x="74" y="34" width="2" height="2" fill="#39ff14" />
<rect x="76" y="34" width="2" height="2" fill="#39ff14" />
<rect x="84" y="34" width="2" height="2" fill="#39ff14" />
<rect x="86" y="34" width="2" height="2" fill="#39ff14" />
<rect x="10" y="36" width="2" height="2" fill="#39ff14" />
<rect x="40" y="36" width="2" height="2" fill="#39ff14" />
<rect x="42" y="36" width="2" height="2" fill="#39ff14" />
<rect x="44" y="36" width="2" height="2" fill="#39ff14" />
<rect x="62" y="36" width="2" height="2" fill="#39ff14" />
<rect x="64" y="36" width="2" height="2" fill="#39ff14" />
<rect x="66" y="36" width="2" height="2" fill="#39ff14" />
<rect x="96" y="36" width="2" height="2" fill="#39ff14" />
<rect x="8" y="38" width="2" height="2" fill="#39ff14" />
<rect x="10" y="38" width="2" height="2" fill="#39ff14" />
<rect x="12" y="38" width="2" height="2" fill="#39ff14" />
<rect x="20" y="38" width="2" height="2" fill="#39ff14" />
<rect x="22" y="38" width="2" height="2" fill="#39ff14" />
<rect x="30" y="38" width="2" height="2" fill="#39ff14" />
<rect x="34" y="38" width="2" height="2" fill="#39ff14" />
<rect x="38" y="38" width="2" height="2" fill="#39ff14" />
<rect x="40" y="38" width="2" height="2" fill="#39ff14" />
<rect x="44" y="38" width="2" height="2" fill="#39ff14" />
<rect x="60" y="38" width="2" height="2" fill="#39ff14" />
<rect x="62" y="38" width="2" height="2" fill="#39ff14" />
<rect x="66" y="38" width="2" height="2" fill="#39ff14" />
<rect x="94" y="38" width="2" height="2" fill="#39ff14" />
<rect x="96" y="38" width="2" height="2" fill="#39ff14" />
<rect x="98" y="38" width="2" height="2" fill="#39ff14" />
<rect x="6" y="40" width="2" height="2" fill="#39ff14" />
<rect x="8" y="40" width="2" height="2" fill="#39ff14" />
<rect x="14" y="40" width="2" height="2" fill="#39ff14" />
<rect x="20" y="40" width="2" height="2" fill="#39ff14" />
<rect x="22" y="40" width="2" height="2" fill="#39ff14" />
<rect x="42" y="40" width="2" height="2" fill="#39ff14" />
<rect x="60" y="40" width="2" height="2" fill="#39ff14" />
<rect x="62" y="40" width="2" height="2" fill="#39ff14" />
<rect x="64" y="40" width="2" height="2" fill="#39ff14" />
<rect x="92" y="40" width="2" height="2" fill="#39ff14" />
<rect x="94" y="40" width="2" height="2" fill="#39ff14" />
<rect x="98" y="40" width="2" height="2" fill="#39ff14" />
<rect x="6" y="42" width="2" height="2" fill="#39ff14" />
<rect x="8" y="42" width="2" height="2" fill="#39ff14" />
<rect x="10" y="42" width="2" height="2" fill="#39ff14" />
<rect x="12" y="42" width="2" height="2" fill="#39ff14" />
<rect x="16" y="42" width="2" height="2" fill="#39ff14" />
<rect x="30" y="42" width="2" height="2" fill="#39ff14" />
<rect x="38" y="42" width="2" height="2" fill="#39ff14" />
<rect x="42" y="42" width="2" height="2" fill="#39ff14" />
<rect x="60" y="42" width="2" height="2" fill="#39ff14" />
<rect x="62" y="42" width="2" height="2" fill="#39ff14" />
<rect x="64" y="42" width="2" height="2" fill="#39ff14" />
<rect x="92" y="42" width="2" height="2" fill="#39ff14" />
<rect x="94" y="42" width="2" height="2" fill="#39ff14" />
<rect x="4" y="44" width="2" height="2" fill="#39ff14" />
<rect x="6" y="44" width="2" height="2" fill="#39ff14" />
<rect x="18" y="44" width="2" height="2" fill="#39ff14" />
<rect x="34" y="44" width="2" height="2" fill="#39ff14" />
<rect x="36" y="44" width="2" height="2" fill="#39ff14" />
<rect x="42" y="44" width="2" height="2" fill="#39ff14" />
<rect x="44" y="44" width="2" height="2" fill="#39ff14" />
<rect x="60" y="44" width="2" height="2" fill="#39ff14" />
<rect x="62" y="44" width="2" height="2" fill="#39ff14" />
<rect x="64" y="44" width="2" height="2" fill="#39ff14" />
<rect x="66" y="44" width="2" height="2" fill="#39ff14" />
<rect x="96" y="44" width="2" height="2" fill="#39ff14" />
<rect x="98" y="44" width="2" height="2" fill="#39ff14" />
<rect x="6" y="46" width="2" height="2" fill="#39ff14" />
<rect x="40" y="46" width="2" height="2" fill="#39ff14" />
<rect x="46" y="46" width="2" height="2" fill="#39ff14" />
<rect x="60" y="46" width="2" height="2" fill="#39ff14" />
<rect x="66" y="46" width="2" height="2" fill="#39ff14" />
<rect x="90" y="46" width="2" height="2" fill="#39ff14" />
<rect x="96" y="46" width="2" height="2" fill="#39ff14" />
<rect x="98" y="46" width="2" height="2" fill="#39ff14" />
<rect x="6" y="48" width="2" height="2" fill="#39ff14" />
<rect x="10" y="48" width="2" height="2" fill="#39ff14" />
<rect x="12" y="48" width="2" height="2" fill="#39ff14" />
<rect x="14" y="48" width="2" height="2" fill="#39ff14" />
<rect x="20" y="48" width="2" height="2" fill="#39ff14" />
<rect x="30" y="48" width="2" height="2" fill="#39ff14" />
<rect x="34" y="48" width="2" height="2" fill="#39ff14" />
<rect x="40" y="48" width="2" height="2" fill="#39ff14" />
<rect x="42" y="48" width="2" height="2" fill="#39ff14" />
<rect x="58" y="48" width="2" height="2" fill="#39ff14" />
<rect x="60" y="48" width="2" height="2" fill="#39ff14" />
<rect x="90" y="48" width="2" height="2" fill="#39ff14" />
<rect x="100" y="48" width="2" height="2" fill="#39ff14" />
<rect x="6" y="50" width="2" height="2" fill="#39ff14" />
<rect x="10" y="50" width="2" height="2" fill="#39ff14" />
<rect x="18" y="50" width="2" height="2" fill="#39ff14" />
<rect x="20" y="50" width="2" height="2" fill="#39ff14" />
<rect x="30" y="50" width="2" height="2" fill="#39ff14" />
<rect x="34" y="50" width="2" height="2" fill="#39ff14" />
<rect x="40" y="50" width="2" height="2" fill="#39ff14" />
<rect x="42" y="50" width="2" height="2" fill="#39ff14" />
<rect x="50" y="50" width="2" height="2" fill="#39ff14" />
<rect x="60" y="50" width="2" height="2" fill="#39ff14" />
<rect x="64" y="50" width="2" height="2" fill="#39ff14" />
<rect x="88" y="50" width="2" height="2" fill="#39ff14" />
<rect x="94" y="50" width="2" height="2" fill="#39ff14" />
<rect x="98" y="50" width="2" height="2" fill="#39ff14" />
<rect x="6" y="52" width="2" height="2" fill="#39ff14" />
<rect x="8" y="52" width="2" height="2" fill="#39ff14" />
<rect x="22" y="52" width="2" height="2" fill="#39ff14" />
<rect x="28" y="52" width="2" height="2" fill="#39ff14" />
<rect x="44" y="52" width="2" height="2" fill="#39ff14" />
<rect x="50" y="52" width="2" height="2" fill="#39ff14" />
<rect x="60" y="52" width="2" height="2" fill="#39ff14" />
<rect x="62" y="52" width="2" height="2" fill="#39ff14" />
<rect x="64" y="52" width="2" height="2" fill="#39ff14" />
<rect x="86" y="52" width="2" height="2" fill="#39ff14" />
<rect x="88" y="52" width="2" height="2" fill="#39ff14" />
<rect x="96" y="52" width="2" height="2" fill="#39ff14" />
<rect x="98" y="52" width="2" height="2" fill="#39ff14" />
<rect x="4" y="54" width="2" height="2" fill="#39ff14" />
<rect x="16" y="54" width="2" height="2" fill="#39ff14" />
<rect x="20" y="54" width="2" height="2" fill="#39ff14" />
<rect x="30" y="54" width="2" height="2" fill="#39ff14" />
<rect x="34" y="54" width="2" height="2" fill="#39ff14" />
<rect x="44" y="54" width="2" height="2" fill="#39ff14" />
<rect x="48" y="54" width="2" height="2" fill="#39ff14" />
<rect x="50" y="54" width="2" height="2" fill="#39ff14" />
<rect x="84" y="54" width="2" height="2" fill="#39ff14" />
<rect x="6" y="56" width="2" height="2" fill="#39ff14" />
<rect x="8" y="56" width="2" height="2" fill="#39ff14" />
<rect x="14" y="56" width="2" height="2" fill="#39ff14" />
<rect x="20" y="56" width="2" height="2" fill="#39ff14" />
<rect x="30" y="56" width="2" height="2" fill="#39ff14" />
<rect x="44" y="56" width="2" height="2" fill="#39ff14" />
<rect x="48" y="56" width="2" height="2" fill="#39ff14" />
<rect x="50" y="56" width="2" height="2" fill="#39ff14" />
<rect x="76" y="56" width="2" height="2" fill="#39ff14" />
<rect x="86" y="56" width="2" height="2" fill="#39ff14" />
<rect x="88" y="56" width="2" height="2" fill="#39ff14" />
<rect x="6" y="58" width="2" height="2" fill="#39ff14" />
<rect x="8" y="58" width="2" height="2" fill="#39ff14" />
<rect x="16" y="58" width="2" height="2" fill="#39ff14" />
<rect x="18" y="58" width="2" height="2" fill="#39ff14" />
<rect x="34" y="58" width="2" height="2" fill="#39ff14" />
<rect x="36" y="58" width="2" height="2" fill="#39ff14" />
<rect x="44" y="58" width="2" height="2" fill="#39ff14" />
<rect x="46" y="58" width="2" height="2" fill="#39ff14" />
<rect x="50" y="58" width="2" height="2" fill="#39ff14" />
<rect x="52" y="58" width="2" height="2" fill="#39ff14" />
<rect x="58" y="58" width="2" height="2" fill="#39ff14" />
<rect x="60" y="58" width="2" height="2" fill="#39ff14" />
<rect x="74" y="58" width="2" height="2" fill="#39ff14" />
<rect x="76" y="58" width="2" height="2" fill="#39ff14" />
<rect x="78" y="58" width="2" height="2" fill="#39ff14" />
<rect x="80" y="58" width="2" height="2" fill="#39ff14" />
<rect x="82" y="58" width="2" height="2" fill="#39ff14" />
<rect x="84" y="58" width="2" height="2" fill="#39ff14" />
<rect x="52" y="60" width="2" height="2" fill="#39ff14" />
<rect x="62" y="60" width="2" height="2" fill="#39ff14" />
<rect x="72" y="60" width="2" height="2" fill="#39ff14" />
<rect x="76" y="60" width="2" height="2" fill="#39ff14" />
<rect x="80" y="60" width="2" height="2" fill="#39ff14" />
<rect x="84" y="60" width="2" height="2" fill="#39ff14" />
<rect x="100" y="60" width="2" height="2" fill="#39ff14" />
<rect x="102" y="60" width="2" height="2" fill="#39ff14" />
<rect x="104" y="60" width="2" height="2" fill="#39ff14" />
<rect x="64" y="62" width="2" height="2" fill="#39ff14" />
<rect x="72" y="62" width="2" height="2" fill="#39ff14" />
<rect x="78" y="62" width="2" height="2" fill="#39ff14" />
<rect x="98" y="62" width="2" height="2" fill="#39ff14" />
<rect x="64" y="64" width="2" height="2" fill="#39ff14" />
<rect x="74" y="64" width="2" height="2" fill="#39ff14" />
<rect x="96" y="64" width="2" height="2" fill="#39ff14" />
<rect x="62" y="66" width="2" height="2" fill="#39ff14" />
<rect x="98" y="66" width="2" height="2" fill="#39ff14" />
<rect x="102" y="66" width="2" height="2" fill="#39ff14" />
</svg>