<?xml version="1.0" encoding="utf-8"?>
<svg xmlns="http://www.w3.org/2000/svg" width="116" height="116" viewBox="0 0 116 116">
<rect width="100%" height="100%" fill="transparent" />
<rect x="10" y="4" width="6" height="6" fill="#39ff14" />
<rect x="16" y="4" width="6" height="6" fill="#39ff14" />
<rect x="22" y="4" width="6" height="6" fill="#39ff14" />
<rect x="94" y="4" width="6" height="6" fill="#39ff14" />
<rect x="100" y="4" width="6" height="6" fill="#39ff14" />
<rect x="106" y="4" width="6" height="6" fill="#39ff14" />
<rect x="4" y="10" width="6" height="6" fill="#39ff14" />
<rect x="22" y="10" width="6" height="6" fill="#39ff14" />
<rect x="88" y="10" width="6" height="6" fill="#39ff14" />
<rect x="106" y="10" width="6" height="6" fill="#39ff14" />
<rect x="22" y="16" width="6" height="6" fill="#39ff14" />
<rect x="52" y="16" width="6" height="6" fill="#39ff14" />
<rect x="58" y="16" width="6" height="6" fill="#39ff14" />
<rect x="64" y="16" width="6" height="6" fill="#39ff14" />
<rect x="106" y="16" width="6" height="6" fill="#39ff14" />
<rect x="22" y="22" width="6" height="6" fill="#39ff14" />
<rect x="52" y="22" width="6" height="6" fill="#39ff14" />
<rect x="70" y="22" width="6" height="6" fill="#39ff14" />
<rect x="106" y="22" width="6" height="6" fill="#39ff14" />
<rect x="16" y="28" width="6" height="6" fill="#39ff14" />
<rect x="46" y="28" width="6" height="6" fill="#39ff14" />
<rect x="100" y="28" width="6" height="6" fill="#39ff14" />
<rect x="4" y="34" width="6" height="6" fill="#39ff14" />
<rect x="10" y="34" width="6" height="6" fill="#39ff14" />
<rect x="16" y="34" width="6" height="6" fill="#39ff14" />
<rect x="88" y="34" width="6" height="6" fill="#39ff14" />
<rect x="94" y="34" width="6" height="6" fill="#39ff14" />
<rect x="100" y="34" width="6" height="6" fill="#39ff14" />
<rect x="4" y="40" width="6" height="6" fill="#39ff14" />
<rect x="22" y="40" width="6" height="6" fill="#39ff14" />
<rect x="88" y="40" width="6" height="6" fill="#39ff14" />
<rect x="106" y="40" width="6" height="6" fill="#39ff14" />
<rect x="4" y="46" width="6" height="6" fill="#39ff14" />
<rect x="46" y="46" width="6" height="6" fill="#39ff14" />
<rect x="52" y="46" width="6" height="6" fill="#39ff14" />
<rect x="58" y="46" width="6" height="6" fill="#39ff14" />
<rect x="88" y="46" width="6" height="6" fill="#39ff14" />
<rect x="4" y="52" width="6" height="6" fill="#39ff14" />
<rect x="40" y="52" width="6" height="6" fill="#39ff14" />
<rect x="58" y="52" width="6" height="6" fill="#39ff14" />
<rect x="88" y="52" width="6" height="6" fill="#39ff14" />
<rect x="10" y="58" width="6" height="6" fill="#39ff14" />
<rect x="22" y="58" width="6" height="6" fill="#39ff14" />
<rect x="40" y="58" width="6" height="6" fill="#39ff14" />
<rect x="64" y="58" width="6" height="6" fill="#39ff14" />
<rect x="94" y="58" width="6" height="6" fill="#39ff14" />
<rect x="106" y="58" width="6" height="6" fill="#39ff14" />
<rect x="46" y="64" width="6" height="6" fill="#39ff14" />
<rect x="52" y="64" width="6" height="6" fill="#39ff14" />
<rect x="58" y="64" width="6" height="6" fill="#39ff14" />
<rect x="64" y="64" width="6" height="6" fill="#39ff14" />
<rect x="58" y="70" width="6" height="6" fill="#39ff14" />
<rect x="46" y="94" width="6" height="6" fill="#39ff14" />
<rect x="52" y="94" width="6" height="6" fill="#39ff14" />
<rect x="58" y="94" width="6" height="6" fill="#39ff14" />
<rect x="46" y="100" width="6" height="6" fill="#39ff14" />
<rect x="52" y="106" width="6" height="6" fill="#39ff14" />
</svg>