<?xml version="1.0" encoding="utf-8"?>
<svg xmlns="http://www.w3.org/2000/svg" width="125" height="116" viewBox="0 0 125 116">
<rect width="100%" height="100%" fill="transparent" />
<rect x="76" y="4" width="9" height="9" fill="#39ff14" />
<rect x="85" y="4" width="9" height="9" fill="#39ff14" />
<rect x="67" y="13" width="9" height="9" fill="#39ff14" />
<rect x="76" y="13" width="9" height="9" fill="#39ff14" />
<rect x="85" y="22" width="9" height="9" fill="#39ff14" />
<rect x="103" y="31" width="9" height="9" fill="#39ff14" />
<rect x="112" y="31" width="9" height="9" fill="#39ff14" />
<rect x="94" y="40" width="9" height="9" fill="#39ff14" />
<rect x="85" y="58" width="9" height="9" fill="#39ff14" />
<rect x="112" y="58" width="9" height="9" fill="#39ff14" />
<rect x="13" y="67" width="9" height="9" fill="#39ff14" />
<rect x="22" y="67" width="9" height="9" fill="#39ff14" />
<rect x="76" y="67" width="9" height="9" fill="#39ff14" />
<rect x="85" y="67" width="9" height="9" fill="#39ff14" />
<rect x="4" y="76" width="9" height="9" fill="#39ff14" />
<rect x="13" y="76" width="9" height="9" fill="#39ff14" />
<rect x="67" y="76" width="9" height="9" fill="#39ff14" />
<rect x="22" y="85" width="9" height="9" fill="#39ff14" />
<rect x="67" y="85" width="9" height="9" fill="#39ff14" />
<rect x="85" y="85" width="9" height="9" fill="#39ff14" />
<rect x="40" y="94" width="9" height="9" fill="#39ff14" />
<rect x="49" y="94" width="9" height="9" fill="#39ff14" />
<rect x="76" y="94" width="9" height="9" fill="#39ff14" />
<rect x="40" y="103" width="9" height="9" fill="#39ff14" />
<rect x="49" y="103" width="9" height="9" fill="#39ff14" />
</svg>