<?xml version="1.0" encoding="utf-8"?>
<svg xmlns="http://www.w3.org/2000/svg" width="119" height="122" viewBox="0 0 119 122">
<rect width="100%" height="100%" fill="transparent" />
<rect x="34" y="4" width="3" height="3" fill="#39ff14" />
<rect x="37" y="4" width="3" height="3" fill="#39ff14" />
<rect x="25" y="7" width="3" height="3" fill="#39ff14" />
<rect x="28" y="7" width="3" height="3" fill="#39ff14" />
<rect x="37" y="7" width="3" height="3" fill="#39ff14" />
<rect x="19" y="10" width="3" height="3" fill="#39ff14" />
<rect x="22" y="10" width="3" height="3" fill="#39ff14" />
<rect x="25" y="10" width="3" height="3" fill="#39ff14" />
<rect x="31" y="10" width="3" height="3" fill="#39ff14" />
<rect x="34" y="10" width="3" height="3" fill="#39ff14" />
<rect x="16" y="13" width="3" height="3" fill="#39ff14" />
<rect x="7" y="16" width="3" height="3" fill="#39ff14" />
<rect x="16" y="16" width="3" height="3" fill="#39ff14" />
<rect x="19" y="16" width="3" height="3" fill="#39ff14" />
<rect x="22" y="16" width="3" height="3" fill="#39ff14" />
<rect x="25" y="16" width="3" height="3" fill="#39ff14" />
<rect x="31" y="16" width="3" height="3" fill="#39ff14" />
<rect x="34" y="16" width="3" height="3" fill="#39ff14" />
<rect x="7" y="19" width="3" height="3" fill="#39ff14" />
<rect x="10" y="19" width="3" height="3" fill="#39ff14" />
<rect x="13" y="19" width="3" height="3" fill="#39ff14" />
<rect x="25" y="19" width="3" height="3" fill="#39ff14" />
<rect x="31" y="19" width="3" height="3" fill="#39ff14" />
<rect x="34" y="19" width="3" height="3" fill="#39ff14" />
<rect x="16" y="22" width="3" height="3" fill="#39ff14" />
<rect x="13" y="25" width="3" height="3" fill="#39ff14" />
<rect x="16" y="25" width="3" height="3" fill="#39ff14" />
<rect x="97" y="25" width="3" height="3" fill="#39ff14" />
<rect x="100" y="25" width="3" height="3" fill="#39ff14" />
<rect x="97" y="28" width="3" height="3" fill="#39ff14" />
<rect x="91" y="31" width="3" height="3" fill="#39ff14" />
<rect x="97" y="31" width="3" height="3" fill="#39ff14" />
<rect x="91" y="34" width="3" height="3" fill="#39ff14" />
<rect x="94" y="34" width="3" height="3" fill="#39ff14" />
<rect x="103" y="49" width="3" height="3" fill="#39ff14" />
<rect x="106" y="49" width="3" height="3" fill="#39ff14" />
<rect x="112" y="49" width="3" height="3" fill="#39ff14" />
<rect x="103" y="52" width="3" height="3" fill="#39ff14" />
<rect x="109" y="52" width="3" height="3" fill="#39ff14" />
<rect x="112" y="52" width="3" height="3" fill="#39ff14" />
<rect x="4" y="58" width="3" height="3" fill="#39ff14" />
<rect x="82" y="58" width="3" height="3" fill="#39ff14" />
<rect x="85" y="58" width="3" height="3" fill="#39ff14" />
<rect x="4" y="61" width="3" height="3" fill="#39ff14" />
<rect x="10" y="61" width="3" height="3" fill="#39ff14" />
<rect x="82" y="61" width="3" height="3" fill="#39ff14" />
<rect x="85" y="61" width="3" height="3" fill="#39ff14" />
<rect x="4" y="64" width="3" height="3" fill="#39ff14" />
<rect x="7" y="64" width="3" height="3" fill="#39ff14" />
<rect x="10" y="64" width="3" height="3" fill="#39ff14" />
<rect x="10" y="67" width="3" height="3" fill="#39ff14" />
<rect x="31" y="76" width="3" height="3" fill="#39ff14" />
<rect x="34" y="76" width="3" height="3" fill="#39ff14" />
<rect x="46" y="76" width="3" height="3" fill="#39ff14" />
<rect x="49" y="76" width="3" height="3" fill="#39ff14" />
<rect x="34" y="79" width="3" height="3" fill="#39ff14" />
<rect x="46" y="79" width="3" height="3" fill="#39ff14" />
<rect x="25" y="82" width="3" height="3" fill="#39ff14" />
<rect x="28" y="82" width="3" height="3" fill="#39ff14" />
<rect x="31" y="82" width="3" height="3" fill="#39ff14" />
<rect x="49" y="82" width="3" height="3" fill="#39ff14" />
<rect x="52" y="82" width="3" height="3" fill="#39ff14" />
<rect x="55" y="82" width="3" height="3" fill="#39ff14" />
<rect x="25" y="85" width="3" height="3" fill="#39ff14" />
<rect x="55" y="85" width="3" height="3" fill="#39ff14" />
<rect x="55" y="88" width="3" height="3" fill="#39ff14" />
<rect x="61" y="88" width="3" height="3" fill="#39ff14" />
<rect x="58" y="91" width="3" height="3" fill="#39ff14" />
<rect x="61" y="91" width="3" height="3" fill="#39ff14" />
<rect x="79" y="109" width="3" height="3" fill="#39ff14" />
<rect x="82" y="109" width="3" height="3" fill="#39ff14" />
<rect x="85" y="109" width="3" height="3" fill="#39ff14" />
<rect x="79" y="112" width="3" height="3" fill="#39ff14" />
<rect x="76" y="115" width="3" height="3" fill="#39ff14" />
<rect x="79" y="115" width="3" height="3" fill="#39ff14" />
</svg>