<?xml version="1.0" encoding="utf-8"?>
<svg xmlns="http://www.w3.org/2000/svg" width="113" height="29" viewBox="0 0 113 29">
<rect width="100%" height="100%" fill="transparent" />
<rect x="85" y="4" width="3" height="3" fill="#39ff14" />
<rect x="100" y="4" width="3" height="3" fill="#39ff14" />
<rect x="52" y="7" width="3" height="3" fill="#39ff14" />
<rect x="55" y="7" width="3" height="3" fill="#39ff14" />
<rect x="79" y="7" width="3" height="3" fill="#39ff14" />
<rect x="82" y="7" width="3" height="3" fill="#39ff14" />
<rect x="88" y="7" width="3" height="3" fill="#39ff14" />
<rect x="91" y="7" width="3" height="3" fill="#39ff14" />
<rect x="94" y="7" width="3" height="3" fill="#39ff14" />
<rect x="97" y="7" width="3" height="3" fill="#39ff14" />
<rect x="103" y="7" width="3" height="3" fill="#39ff14" />
<rect x="106" y="7" width="3" height="3" fill="#39ff14" />
<rect x="55" y="10" width="3" height="3" fill="#39ff14" />
<rect x="58" y="10" width="3" height="3" fill="#39ff14" />
<rect x="85" y="10" width="3" height="3" fill="#39ff14" />
<rect x="100" y="10" width="3" height="3" fill="#39ff14" />
<rect x="52" y="13" width="3" height="3" fill="#39ff14" />
<rect x="10" y="16" width="3" height="3" fill="#39ff14" />
<rect x="25" y="16" width="3" height="3" fill="#39ff14" />
<rect x="4" y="19" width="3" height="3" fill="#39ff14" />
<rect x="7" y="19" width="3" height="3" fill="#39ff14" />
<rect x="13" y="19" width="3" height="3" fill="#39ff14" />
<rect x="16" y="19" width="3" height="3" fill="#39ff14" />
<rect x="19" y="19" width="3" height="3" fill="#39ff14" />
<rect x="22" y="19" width="3" height="3" fill="#39ff14" />
<rect x="28" y="19" width="3" height="3" fill="#39ff14" />
<rect x="31" y="19" width="3" height="3" fill="#39ff14" />
<rect x="10" y="22" width="3" height="3" fill="#39ff14" />
<rect x="25" y="22" width="3" height="3" fill="#39ff14" />
</svg>