<?xml version="1.0" encoding="utf-8"?>
<svg xmlns="http://www.w3.org/2000/svg" width="110" height="113" viewBox="0 0 110 113">
<rect width="100%" height="100%" fill="transparent" />
<rect x="13" y="4" width="3" height="3" fill="#39ff14" />
<rect x="22" y="4" width="3" height="3" fill="#39ff14" />
<rect x="25" y="4" width="3" height="3" fill="#39ff14" />
<rect x="7" y="7" width="3" height="3" fill="#39ff14" />
<rect x="10" y="7" width="3" height="3" fill="#39ff14" />
<rect x="13" y="7" width="3" height="3" fill="#39ff14" />
<rect x="19" y="7" width="3" height="3" fill="#39ff14" />
<rect x="25" y="7" width="3" height="3" fill="#39ff14" />
<rect x="31" y="7" width="3" height="3" fill="#39ff14" />
<rect x="7" y="10" width="3" height="3" fill="#39ff14" />
<rect x="16" y="10" width="3" height="3" fill="#39ff14" />
<rect x="19" y="10" width="3" height="3" fill="#39ff14" />
<rect x="22" y="10" width="3" height="3" fill="#39ff14" />
<rect x="31" y="10" width="3" height="3" fill="#39ff14" />
<rect x="34" y="10" width="3" height="3" fill="#39ff14" />
<rect x="4" y="13" width="3" height="3" fill="#39ff14" />
<rect x="13" y="13" width="3" height="3" fill="#39ff14" />
<rect x="16" y="13" width="3" height="3" fill="#39ff14" />
<rect x="19" y="13" width="3" height="3" fill="#39ff14" />
<rect x="22" y="13" width="3" height="3" fill="#39ff14" />
<rect x="25" y="13" width="3" height="3" fill="#39ff14" />
<rect x="28" y="13" width="3" height="3" fill="#39ff14" />
<rect x="34" y="13" width="3" height="3" fill="#39ff14" />
<rect x="40" y="13" width="3" height="3" fill="#39ff14" />
<rect x="43" y="13" width="3" height="3" fill="#39ff14" />
<rect x="46" y="13" width="3" height="3" fill="#39ff14" />
<rect x="7" y="16" width="3" height="3" fill="#39ff14" />
<rect x="16" y="16" width="3" height="3" fill="#39ff14" />
<rect x="19" y="16" width="3" height="3" fill="#39ff14" />
<rect x="22" y="16" width="3" height="3" fill="#39ff14" />
<rect x="28" y="16" width="3" height="3" fill="#39ff14" />
<rect x="34" y="16" width="3" height="3" fill="#39ff14" />
<rect x="37" y="16" width="3" height="3" fill="#39ff14" />
<rect x="40" y="16" width="3" height="3" fill="#39ff14" />
<rect x="43" y="16" width="3" height="3" fill="#39ff14" />
<rect x="46" y="16" width="3" height="3" fill="#39ff14" />
<rect x="22" y="19" width="3" height="3" fill="#39ff14" />
<rect x="28" y="19" width="3" height="3" fill="#39ff14" />
<rect x="34" y="19" width="3" height="3" fill="#39ff14" />
<rect x="40" y="19" width="3" height="3" fill="#39ff14" />
<rect x="4" y="22" width="3" height="3" fill="#39ff14" />
<rect x="10" y="22" width="3" height="3" fill="#39ff14" />
<rect x="22" y="22" width="3" height="3" fill="#39ff14" />
<rect x="28" y="22" width="3" height="3" fill="#39ff14" />
<rect x="34" y="22" width="3" height="3" fill="#39ff14" />
<rect x="37" y="22" width="3" height="3" fill="#39ff14" />
<rect x="40" y="22" width="3" height="3" fill="#39ff14" />
<rect x="43" y="22" width="3" height="3" fill="#39ff14" />
<rect x="46" y="22" width="3" height="3" fill="#39ff14" />
<rect x="4" y="25" width="3" height="3" fill="#39ff14" />
<rect x="13" y="25" width="3" height="3" fill="#39ff14" />
<rect x="19" y="25" width="3" height="3" fill="#39ff14" />
<rect x="28" y="25" width="3" height="3" fill="#39ff14" />
<rect x="34" y="25" width="3" height="3" fill="#39ff14" />
<rect x="37" y="25" width="3" height="3" fill="#39ff14" />
<rect x="49" y="25" width="3" height="3" fill="#39ff14" />
<rect x="13" y="28" width="3" height="3" fill="#39ff14" />
<rect x="22" y="28" width="3" height="3" fill="#39ff14" />
<rect x="25" y="28" width="3" height="3" fill="#39ff14" />
<rect x="49" y="28" width="3" height="3" fill="#39ff14" />
<rect x="52" y="28" width="3" height="3" fill="#39ff14" />
<rect x="55" y="28" width="3" height="3" fill="#39ff14" />
<rect x="7" y="31" width="3" height="3" fill="#39ff14" />
<rect x="19" y="31" width="3" height="3" fill="#39ff14" />
<rect x="22" y="31" width="3" height="3" fill="#39ff14" />
<rect x="25" y="31" width="3" height="3" fill="#39ff14" />
<rect x="28" y="31" width="3" height="3" fill="#39ff14" />
<rect x="31" y="31" width="3" height="3" fill="#39ff14" />
<rect x="37" y="31" width="3" height="3" fill="#39ff14" />
<rect x="40" y="31" width="3" height="3" fill="#39ff14" />
<rect x="43" y="31" width="3" height="3" fill="#39ff14" />
<rect x="52" y="31" width="3" height="3" fill="#39ff14" />
<rect x="55" y="31" width="3" height="3" fill="#39ff14" />
<rect x="16" y="34" width="3" height="3" fill="#39ff14" />
<rect x="46" y="34" width="3" height="3" fill="#39ff14" />
<rect x="10" y="37" width="3" height="3" fill="#39ff14" />
<rect x="16" y="37" width="3" height="3" fill="#39ff14" />
<rect x="46" y="37" width="3" height="3" fill="#39ff14" />
<rect x="16" y="40" width="3" height="3" fill="#39ff14" />
<rect x="19" y="40" width="3" height="3" fill="#39ff14" />
<rect x="25" y="40" width="3" height="3" fill="#39ff14" />
<rect x="28" y="40" width="3" height="3" fill="#39ff14" />
<rect x="31" y="40" width="3" height="3" fill="#39ff14" />
<rect x="34" y="40" width="3" height="3" fill="#39ff14" />
<rect x="37" y="40" width="3" height="3" fill="#39ff14" />
<rect x="49" y="40" width="3" height="3" fill="#39ff14" />
<rect x="22" y="43" width="3" height="3" fill="#39ff14" />
<rect x="28" y="43" width="3" height="3" fill="#39ff14" />
<rect x="31" y="43" width="3" height="3" fill="#39ff14" />
<rect x="34" y="43" width="3" height="3" fill="#39ff14" />
<rect x="43" y="43" width="3" height="3" fill="#39ff14" />
<rect x="61" y="43" width="3" height="3" fill="#39ff14" />
<rect x="64" y="43" width="3" height="3" fill="#39ff14" />
<rect x="22" y="46" width="3" height="3" fill="#39ff14" />
<rect x="31" y="46" width="3" height="3" fill="#39ff14" />
<rect x="43" y="46" width="3" height="3" fill="#39ff14" />
<rect x="49" y="46" width="3" height="3" fill="#39ff14" />
<rect x="52" y="46" width="3" height="3" fill="#39ff14" />
<rect x="55" y="46" width="3" height="3" fill="#39ff14" />
<rect x="61" y="46" width="3" height="3" fill="#39ff14" />
<rect x="64" y="46" width="3" height="3" fill="#39ff14" />
<rect x="28" y="49" width="3" height="3" fill="#39ff14" />
<rect x="31" y="49" width="3" height="3" fill="#39ff14" />
<rect x="43" y="49" width="3" height="3" fill="#39ff14" />
<rect x="46" y="49" width="3" height="3" fill="#39ff14" />
<rect x="49" y="49" width="3" height="3" fill="#39ff14" />
<rect x="55" y="49" width="3" height="3" fill="#39ff14" />
<rect x="64" y="49" width="3" height="3" fill="#39ff14" />
<rect x="76" y="49" width="3" height="3" fill="#39ff14" />
<rect x="28" y="52" width="3" height="3" fill="#39ff14" />
<rect x="31" y="52" width="3" height="3" fill="#39ff14" />
<rect x="46" y="52" width="3" height="3" fill="#39ff14" />
<rect x="49" y="52" width="3" height="3" fill="#39ff14" />
<rect x="55" y="52" width="3" height="3" fill="#39ff14" />
<rect x="58" y="52" width="3" height="3" fill="#39ff14" />
<rect x="61" y="52" width="3" height="3" fill="#39ff14" />
<rect x="64" y="52" width="3" height="3" fill="#39ff14" />
<rect x="76" y="52" width="3" height="3" fill="#39ff14" />
<rect x="79" y="52" width="3" height="3" fill="#39ff14" />
<rect x="82" y="52" width="3" height="3" fill="#39ff14" />
<rect x="61" y="55" width="3" height="3" fill="#39ff14" />
<rect x="67" y="55" width="3" height="3" fill="#39ff14" />
<rect x="76" y="55" width="3" height="3" fill="#39ff14" />
<rect x="43" y="58" width="3" height="3" fill="#39ff14" />
<rect x="49" y="58" width="3" height="3" fill="#39ff14" />
<rect x="67" y="58" width="3" height="3" fill="#39ff14" />
<rect x="70" y="58" width="3" height="3" fill="#39ff14" />
<rect x="79" y="58" width="3" height="3" fill="#39ff14" />
<rect x="82" y="58" width="3" height="3" fill="#39ff14" />
<rect x="43" y="61" width="3" height="3" fill="#39ff14" />
<rect x="52" y="61" width="3" height="3" fill="#39ff14" />
<rect x="70" y="61" width="3" height="3" fill="#39ff14" />
<rect x="76" y="61" width="3" height="3" fill="#39ff14" />
<rect x="79" y="61" width="3" height="3" fill="#39ff14" />
<rect x="82" y="61" width="3" height="3" fill="#39ff14" />
<rect x="100" y="61" width="3" height="3" fill="#39ff14" />
<rect x="43" y="64" width="3" height="3" fill="#39ff14" />
<rect x="55" y="64" width="3" height="3" fill="#39ff14" />
<rect x="70" y="64" width="3" height="3" fill="#39ff14" />
<rect x="73" y="64" width="3" height="3" fill="#39ff14" />
<rect x="82" y="64" width="3" height="3" fill="#39ff14" />
<rect x="94" y="64" width="3" height="3" fill="#39ff14" />
<rect x="103" y="64" width="3" height="3" fill="#39ff14" />
<rect x="49" y="67" width="3" height="3" fill="#39ff14" />
<rect x="52" y="67" width="3" height="3" fill="#39ff14" />
<rect x="55" y="67" width="3" height="3" fill="#39ff14" />
<rect x="73" y="67" width="3" height="3" fill="#39ff14" />
<rect x="76" y="67" width="3" height="3" fill="#39ff14" />
<rect x="103" y="67" width="3" height="3" fill="#39ff14" />
<rect x="49" y="70" width="3" height="3" fill="#39ff14" />
<rect x="55" y="70" width="3" height="3" fill="#39ff14" />
<rect x="64" y="70" width="3" height="3" fill="#39ff14" />
<rect x="73" y="70" width="3" height="3" fill="#39ff14" />
<rect x="91" y="70" width="3" height="3" fill="#39ff14" />
<rect x="94" y="70" width="3" height="3" fill="#39ff14" />
<rect x="103" y="70" width="3" height="3" fill="#39ff14" />
<rect x="55" y="73" width="3" height="3" fill="#39ff14" />
<rect x="64" y="73" width="3" height="3" fill="#39ff14" />
<rect x="67" y="73" width="3" height="3" fill="#39ff14" />
<rect x="73" y="73" width="3" height="3" fill="#39ff14" />
<rect x="76" y="73" width="3" height="3" fill="#39ff14" />
<rect x="82" y="73" width="3" height="3" fill="#39ff14" />
<rect x="91" y="73" width="3" height="3" fill="#39ff14" />
<rect x="52" y="76" width="3" height="3" fill="#39ff14" />
<rect x="76" y="76" width="3" height="3" fill="#39ff14" />
<rect x="82" y="76" width="3" height="3" fill="#39ff14" />
<rect x="55" y="79" width="3" height="3" fill="#39ff14" />
<rect x="67" y="79" width="3" height="3" fill="#39ff14" />
<rect x="70" y="79" width="3" height="3" fill="#39ff14" />
<rect x="73" y="79" width="3" height="3" fill="#39ff14" />
<rect x="76" y="79" width="3" height="3" fill="#39ff14" />
<rect x="58" y="82" width="3" height="3" fill="#39ff14" />
<rect x="70" y="82" width="3" height="3" fill="#39ff14" />
<rect x="73" y="88" width="3" height="3" fill="#39ff14" />
<rect x="70" y="91" width="3" height="3" fill="#39ff14" />
<rect x="76" y="91" width="3" height="3" fill="#39ff14" />
<rect x="67" y="94" width="3" height="3" fill="#39ff14" />
<rect x="70" y="94" width="3" height="3" fill="#39ff14" />
<rect x="67" y="97" width="3" height="3" fill="#39ff14" />
<rect x="73" y="97" width="3" height="3" fill="#39ff14" />
<rect x="67" y="100" width="3" height="3" fill="#39ff14" />
<rect x="70" y="100" width="3" height="3" fill="#39ff14" />
<rect x="73" y="103" width="3" height="3" fill="#39ff14" />
<rect x="70" y="106" width="3" height="3" fill="#39ff14" />
</svg>