<?xml version="1.0" encoding="utf-8"?>
<svg xmlns="http://www.w3.org/2000/svg" width="116" height="119" viewBox="0 0 116 119">
<rect width="100%" height="100%" fill="transparent" />
<rect x="4" y="4" width="3" height="3" fill="#39ff14" />
<rect x="10" y="4" width="3" height="3" fill="#39ff14" />
<rect x="7" y="7" width="3" height="3" fill="#39ff14" />
<rect x="10" y="7" width="3" height="3" fill="#39ff14" />
<rect x="7" y="10" width="3" height="3" fill="#39ff14" />
<rect x="31" y="31" width="3" height="3" fill="#39ff14" />
<rect x="37" y="31" width="3" height="3" fill="#39ff14" />
<rect x="34" y="34" width="3" height="3" fill="#39ff14" />
<rect x="37" y="34" width="3" height="3" fill="#39ff14" />
<rect x="34" y="37" width="3" height="3" fill="#39ff14" />
<rect x="43" y="40" width="3" height="3" fill="#39ff14" />
<rect x="46" y="43" width="3" height="3" fill="#39ff14" />
<rect x="49" y="43" width="3" height="3" fill="#39ff14" />
<rect x="43" y="46" width="3" height="3" fill="#39ff14" />
<rect x="46" y="46" width="3" height="3" fill="#39ff14" />
<rect x="91" y="49" width="3" height="3" fill="#39ff14" />
<rect x="85" y="52" width="3" height="3" fill="#39ff14" />
<rect x="88" y="52" width="3" height="3" fill="#39ff14" />
<rect x="91" y="52" width="3" height="3" fill="#39ff14" />
<rect x="82" y="55" width="3" height="3" fill="#39ff14" />
<rect x="82" y="58" width="3" height="3" fill="#39ff14" />
<rect x="85" y="58" width="3" height="3" fill="#39ff14" />
<rect x="70" y="67" width="3" height="3" fill="#39ff14" />
<rect x="46" y="70" width="3" height="3" fill="#39ff14" />
<rect x="49" y="70" width="3" height="3" fill="#39ff14" />
<rect x="73" y="70" width="3" height="3" fill="#39ff14" />
<rect x="76" y="70" width="3" height="3" fill="#39ff14" />
<rect x="85" y="70" width="3" height="3" fill="#39ff14" />
<rect x="46" y="73" width="3" height="3" fill="#39ff14" />
<rect x="55" y="73" width="3" height="3" fill="#39ff14" />
<rect x="70" y="73" width="3" height="3" fill="#39ff14" />
<rect x="73" y="73" width="3" height="3" fill="#39ff14" />
<rect x="82" y="73" width="3" height="3" fill="#39ff14" />
<rect x="88" y="73" width="3" height="3" fill="#39ff14" />
<rect x="40" y="76" width="3" height="3" fill="#39ff14" />
<rect x="43" y="76" width="3" height="3" fill="#39ff14" />
<rect x="52" y="76" width="3" height="3" fill="#39ff14" />
<rect x="55" y="76" width="3" height="3" fill="#39ff14" />
<rect x="82" y="76" width="3" height="3" fill="#39ff14" />
<rect x="85" y="76" width="3" height="3" fill="#39ff14" />
<rect x="37" y="79" width="3" height="3" fill="#39ff14" />
<rect x="46" y="79" width="3" height="3" fill="#39ff14" />
<rect x="49" y="79" width="3" height="3" fill="#39ff14" />
<rect x="37" y="82" width="3" height="3" fill="#39ff14" />
<rect x="40" y="82" width="3" height="3" fill="#39ff14" />
<rect x="52" y="82" width="3" height="3" fill="#39ff14" />
<rect x="55" y="82" width="3" height="3" fill="#39ff14" />
<rect x="52" y="85" width="3" height="3" fill="#39ff14" />
<rect x="58" y="85" width="3" height="3" fill="#39ff14" />
<rect x="55" y="88" width="3" height="3" fill="#39ff14" />
<rect x="106" y="91" width="3" height="3" fill="#39ff14" />
<rect x="109" y="91" width="3" height="3" fill="#39ff14" />
<rect x="100" y="94" width="3" height="3" fill="#39ff14" />
<rect x="109" y="94" width="3" height="3" fill="#39ff14" />
<rect x="67" y="97" width="3" height="3" fill="#39ff14" />
<rect x="70" y="97" width="3" height="3" fill="#39ff14" />
<rect x="100" y="97" width="3" height="3" fill="#39ff14" />
<rect x="103" y="97" width="3" height="3" fill="#39ff14" />
<rect x="106" y="97" width="3" height="3" fill="#39ff14" />
<rect x="70" y="100" width="3" height="3" fill="#39ff14" />
<rect x="91" y="100" width="3" height="3" fill="#39ff14" />
<rect x="61" y="103" width="3" height="3" fill="#39ff14" />
<rect x="64" y="103" width="3" height="3" fill="#39ff14" />
<rect x="67" y="103" width="3" height="3" fill="#39ff14" />
<rect x="91" y="103" width="3" height="3" fill="#39ff14" />
<rect x="94" y="103" width="3" height="3" fill="#39ff14" />
<rect x="97" y="103" width="3" height="3" fill="#39ff14" />
<rect x="100" y="103" width="3" height="3" fill="#39ff14" />
<rect x="61" y="106" width="3" height="3" fill="#39ff14" />
<rect x="100" y="106" width="3" height="3" fill="#39ff14" />
<rect x="97" y="109" width="3" height="3" fill="#39ff14" />
<rect x="97" y="112" width="3" height="3" fill="#39ff14" />
<rect x="100" y="112" width="3" height="3" fill="#39ff14" />
</svg>