<?xml version="1.0" encoding="utf-8"?>
<svg xmlns="http://www.w3.org/2000/svg" width="76" height="96" viewBox="0 0 76 96">
<rect width="100%" height="100%" fill="transparent" />
<rect x="52" y="4" width="2" height="2" fill="#39ff14" />
<rect x="58" y="4" width="2" height="2" fill="#39ff14" />
<rect x="52" y="6" width="2" height="2" fill="#39ff14" />
<rect x="54" y="6" width="2" height="2" fill="#39ff14" />
<rect x="56" y="6" width="2" height="2" fill="#39ff14" />
<rect x="58" y="6" width="2" height="2" fill="#39ff14" />
<rect x="60" y="6" width="2" height="2" fill="#39ff14" />
<rect x="62" y="6" width="2" height="2" fill="#39ff14" />
<rect x="64" y="8" width="2" height="2" fill="#39ff14" />
<rect x="68" y="8" width="2" height="2" fill="#39ff14" />
<rect x="70" y="8" width="2" height="2" fill="#39ff14" />
<rect x="48" y="10" width="2" height="2" fill="#39ff14" />
<rect x="50" y="10" width="2" height="2" fill="#39ff14" />
<rect x="52" y="10" width="2" height="2" fill="#39ff14" />
<rect x="54" y="10" width="2" height="2" fill="#39ff14" />
<rect x="56" y="10" width="2" height="2" fill="#39ff14" />
<rect x="60" y="10" width="2" height="2" fill="#39ff14" />
<rect x="64" y="10" width="2" height="2" fill="#39ff14" />
<rect x="68" y="10" width="2" height="2" fill="#39ff14" />
<rect x="70" y="10" width="2" height="2" fill="#39ff14" />
<rect x="46" y="12" width="2" height="2" fill="#39ff14" />
<rect x="60" y="12" width="2" height="2" fill="#39ff14" />
<rect x="64" y="12" width="2" height="2" fill="#39ff14" />
<rect x="46" y="14" width="2" height="2" fill="#39ff14" />
<rect x="48" y="14" width="2" height="2" fill="#39ff14" />
<rect x="50" y="14" width="2" height="2" fill="#39ff14" />
<rect x="52" y="14" width="2" height="2" fill="#39ff14" />
<rect x="54" y="14" width="2" height="2" fill="#39ff14" />
<rect x="60" y="14" width="2" height="2" fill="#39ff14" />
<rect x="64" y="14" width="2" height="2" fill="#39ff14" />
<rect x="40" y="16" width="2" height="2" fill="#39ff14" />
<rect x="56" y="16" width="2" height="2" fill="#39ff14" />
<rect x="60" y="16" width="2" height="2" fill="#39ff14" />
<rect x="62" y="16" width="2" height="2" fill="#39ff14" />
<rect x="40" y="18" width="2" height="2" fill="#39ff14" />
<rect x="42" y="18" width="2" height="2" fill="#39ff14" />
<rect x="44" y="18" width="2" height="2" fill="#39ff14" />
<rect x="46" y="18" width="2" height="2" fill="#39ff14" />
<rect x="48" y="18" width="2" height="2" fill="#39ff14" />
<rect x="50" y="18" width="2" height="2" fill="#39ff14" />
<rect x="56" y="18" width="2" height="2" fill="#39ff14" />
<rect x="52" y="20" width="2" height="2" fill="#39ff14" />
<rect x="56" y="20" width="2" height="2" fill="#39ff14" />
<rect x="36" y="22" width="2" height="2" fill="#39ff14" />
<rect x="38" y="22" width="2" height="2" fill="#39ff14" />
<rect x="40" y="22" width="2" height="2" fill="#39ff14" />
<rect x="42" y="22" width="2" height="2" fill="#39ff14" />
<rect x="44" y="22" width="2" height="2" fill="#39ff14" />
<rect x="46" y="22" width="2" height="2" fill="#39ff14" />
<rect x="52" y="22" width="2" height="2" fill="#39ff14" />
<rect x="56" y="22" width="2" height="2" fill="#39ff14" />
<rect x="58" y="22" width="2" height="2" fill="#39ff14" />
<rect x="24" y="24" width="2" height="2" fill="#39ff14" />
<rect x="26" y="24" width="2" height="2" fill="#39ff14" />
<rect x="34" y="24" width="2" height="2" fill="#39ff14" />
<rect x="48" y="24" width="2" height="2" fill="#39ff14" />
<rect x="52" y="24" width="2" height="2" fill="#39ff14" />
<rect x="22" y="26" width="2" height="2" fill="#39ff14" />
<rect x="28" y="26" width="2" height="2" fill="#39ff14" />
<rect x="34" y="26" width="2" height="2" fill="#39ff14" />
<rect x="36" y="26" width="2" height="2" fill="#39ff14" />
<rect x="38" y="26" width="2" height="2" fill="#39ff14" />
<rect x="40" y="26" width="2" height="2" fill="#39ff14" />
<rect x="42" y="26" width="2" height="2" fill="#39ff14" />
<rect x="48" y="26" width="2" height="2" fill="#39ff14" />
<rect x="52" y="26" width="2" height="2" fill="#39ff14" />
<rect x="20" y="28" width="2" height="2" fill="#39ff14" />
<rect x="24" y="28" width="2" height="2" fill="#39ff14" />
<rect x="26" y="28" width="2" height="2" fill="#39ff14" />
<rect x="28" y="28" width="2" height="2" fill="#39ff14" />
<rect x="44" y="28" width="2" height="2" fill="#39ff14" />
<rect x="48" y="28" width="2" height="2" fill="#39ff14" />
<rect x="50" y="28" width="2" height="2" fill="#39ff14" />
<rect x="12" y="30" width="2" height="2" fill="#39ff14" />
<rect x="14" y="30" width="2" height="2" fill="#39ff14" />
<rect x="18" y="30" width="2" height="2" fill="#39ff14" />
<rect x="22" y="30" width="2" height="2" fill="#39ff14" />
<rect x="30" y="30" width="2" height="2" fill="#39ff14" />
<rect x="32" y="30" width="2" height="2" fill="#39ff14" />
<rect x="34" y="30" width="2" height="2" fill="#39ff14" />
<rect x="36" y="30" width="2" height="2" fill="#39ff14" />
<rect x="38" y="30" width="2" height="2" fill="#39ff14" />
<rect x="44" y="30" width="2" height="2" fill="#39ff14" />
<rect x="14" y="32" width="2" height="2" fill="#39ff14" />
<rect x="18" y="32" width="2" height="2" fill="#39ff14" />
<rect x="26" y="32" width="2" height="2" fill="#39ff14" />
<rect x="40" y="32" width="2" height="2" fill="#39ff14" />
<rect x="44" y="32" width="2" height="2" fill="#39ff14" />
<rect x="14" y="34" width="2" height="2" fill="#39ff14" />
<rect x="18" y="34" width="2" height="2" fill="#39ff14" />
<rect x="24" y="34" width="2" height="2" fill="#39ff14" />
<rect x="26" y="34" width="2" height="2" fill="#39ff14" />
<rect x="28" y="34" width="2" height="2" fill="#39ff14" />
<rect x="30" y="34" width="2" height="2" fill="#39ff14" />
<rect x="32" y="34" width="2" height="2" fill="#39ff14" />
<rect x="34" y="34" width="2" height="2" fill="#39ff14" />
<rect x="40" y="34" width="2" height="2" fill="#39ff14" />
<rect x="44" y="34" width="2" height="2" fill="#39ff14" />
<rect x="46" y="34" width="2" height="2" fill="#39ff14" />
<rect x="10" y="36" width="2" height="2" fill="#39ff14" />
<rect x="14" y="36" width="2" height="2" fill="#39ff14" />
<rect x="18" y="36" width="2" height="2" fill="#39ff14" />
<rect x="22" y="36" width="2" height="2" fill="#39ff14" />
<rect x="36" y="36" width="2" height="2" fill="#39ff14" />
<rect x="40" y="36" width="2" height="2" fill="#39ff14" />
<rect x="8" y="38" width="2" height="2" fill="#39ff14" />
<rect x="12" y="38" width="2" height="2" fill="#39ff14" />
<rect x="14" y="38" width="2" height="2" fill="#39ff14" />
<rect x="20" y="38" width="2" height="2" fill="#39ff14" />
<rect x="24" y="38" width="2" height="2" fill="#39ff14" />
<rect x="26" y="38" width="2" height="2" fill="#39ff14" />
<rect x="28" y="38" width="2" height="2" fill="#39ff14" />
<rect x="30" y="38" width="2" height="2" fill="#39ff14" />
<rect x="36" y="38" width="2" height="2" fill="#39ff14" />
<rect x="40" y="38" width="2" height="2" fill="#39ff14" />
<rect x="8" y="40" width="2" height="2" fill="#39ff14" />
<rect x="16" y="40" width="2" height="2" fill="#39ff14" />
<rect x="20" y="40" width="2" height="2" fill="#39ff14" />
<rect x="24" y="40" width="2" height="2" fill="#39ff14" />
<rect x="32" y="40" width="2" height="2" fill="#39ff14" />
<rect x="36" y="40" width="2" height="2" fill="#39ff14" />
<rect x="38" y="40" width="2" height="2" fill="#39ff14" />
<rect x="4" y="42" width="2" height="2" fill="#39ff14" />
<rect x="6" y="42" width="2" height="2" fill="#39ff14" />
<rect x="10" y="42" width="2" height="2" fill="#39ff14" />
<rect x="12" y="42" width="2" height="2" fill="#39ff14" />
<rect x="16" y="42" width="2" height="2" fill="#39ff14" />
<rect x="20" y="42" width="2" height="2" fill="#39ff14" />
<rect x="28" y="42" width="2" height="2" fill="#39ff14" />
<rect x="32" y="42" width="2" height="2" fill="#39ff14" />
<rect x="6" y="44" width="2" height="2" fill="#39ff14" />
<rect x="10" y="44" width="2" height="2" fill="#39ff14" />
<rect x="16" y="44" width="2" height="2" fill="#39ff14" />
<rect x="20" y="44" width="2" height="2" fill="#39ff14" />
<rect x="22" y="44" width="2" height="2" fill="#39ff14" />
<rect x="24" y="44" width="2" height="2" fill="#39ff14" />
<rect x="26" y="44" width="2" height="2" fill="#39ff14" />
<rect x="30" y="44" width="2" height="2" fill="#39ff14" />
<rect x="34" y="44" width="2" height="2" fill="#39ff14" />
<rect x="36" y="44" width="2" height="2" fill="#39ff14" />
<rect x="38" y="44" width="2" height="2" fill="#39ff14" />
<rect x="4" y="46" width="2" height="2" fill="#39ff14" />
<rect x="10" y="46" width="2" height="2" fill="#39ff14" />
<rect x="14" y="46" width="2" height="2" fill="#39ff14" />
<rect x="30" y="46" width="2" height="2" fill="#39ff14" />
<rect x="38" y="46" width="2" height="2" fill="#39ff14" />
<rect x="6" y="48" width="2" height="2" fill="#39ff14" />
<rect x="8" y="48" width="2" height="2" fill="#39ff14" />
<rect x="10" y="48" width="2" height="2" fill="#39ff14" />
<rect x="16" y="48" width="2" height="2" fill="#39ff14" />
<rect x="18" y="48" width="2" height="2" fill="#39ff14" />
<rect x="20" y="48" width="2" height="2" fill="#39ff14" />
<rect x="22" y="48" width="2" height="2" fill="#39ff14" />
<rect x="24" y="48" width="2" height="2" fill="#39ff14" />
<rect x="26" y="48" width="2" height="2" fill="#39ff14" />
<rect x="28" y="48" width="2" height="2" fill="#39ff14" />
<rect x="30" y="48" width="2" height="2" fill="#39ff14" />
<rect x="12" y="50" width="2" height="2" fill="#39ff14" />
<rect x="16" y="50" width="2" height="2" fill="#39ff14" />
<rect x="10" y="52" width="2" height="2" fill="#39ff14" />
<rect x="12" y="52" width="2" height="2" fill="#39ff14" />
<rect x="16" y="52" width="2" height="2" fill="#39ff14" />
<rect x="22" y="52" width="2" height="2" fill="#39ff14" />
<rect x="24" y="52" width="2" height="2" fill="#39ff14" />
<rect x="26" y="52" width="2" height="2" fill="#39ff14" />
<rect x="28" y="52" width="2" height="2" fill="#39ff14" />
<rect x="30" y="52" width="2" height="2" fill="#39ff14" />
<rect x="32" y="52" width="2" height="2" fill="#39ff14" />
<rect x="34" y="52" width="2" height="2" fill="#39ff14" />
<rect x="8" y="54" width="2" height="2" fill="#39ff14" />
<rect x="14" y="54" width="2" height="2" fill="#39ff14" />
<rect x="16" y="54" width="2" height="2" fill="#39ff14" />
<rect x="20" y="54" width="2" height="2" fill="#39ff14" />
<rect x="36" y="54" width="2" height="2" fill="#39ff14" />
<rect x="8" y="56" width="2" height="2" fill="#39ff14" />
<rect x="10" y="56" width="2" height="2" fill="#39ff14" />
<rect x="20" y="56" width="2" height="2" fill="#39ff14" />
<rect x="26" y="56" width="2" height="2" fill="#39ff14" />
<rect x="28" y="56" width="2" height="2" fill="#39ff14" />
<rect x="30" y="56" width="2" height="2" fill="#39ff14" />
<rect x="32" y="56" width="2" height="2" fill="#39ff14" />
<rect x="34" y="56" width="2" height="2" fill="#39ff14" />
<rect x="36" y="56" width="2" height="2" fill="#39ff14" />
<rect x="20" y="58" width="2" height="2" fill="#39ff14" />
<rect x="24" y="58" width="2" height="2" fill="#39ff14" />
<rect x="18" y="60" width="2" height="2" fill="#39ff14" />
<rect x="20" y="60" width="2" height="2" fill="#39ff14" />
<rect x="24" y="60" width="2" height="2" fill="#39ff14" />
<rect x="30" y="60" width="2" height="2" fill="#39ff14" />
<rect x="32" y="60" width="2" height="2" fill="#39ff14" />
<rect x="34" y="60" width="2" height="2" fill="#39ff14" />
<rect x="36" y="60" width="2" height="2" fill="#39ff14" />
<rect x="38" y="60" width="2" height="2" fill="#39ff14" />
<rect x="40" y="60" width="2" height="2" fill="#39ff14" />
<rect x="24" y="62" width="2" height="2" fill="#39ff14" />
<rect x="28" y="62" width="2" height="2" fill="#39ff14" />
<rect x="42" y="62" width="2" height="2" fill="#39ff14" />
<rect x="24" y="64" width="2" height="2" fill="#39ff14" />
<rect x="28" y="64" width="2" height="2" fill="#39ff14" />
<rect x="34" y="64" width="2" height="2" fill="#39ff14" />
<rect x="36" y="64" width="2" height="2" fill="#39ff14" />
<rect x="38" y="64" width="2" height="2" fill="#39ff14" />
<rect x="40" y="64" width="2" height="2" fill="#39ff14" />
<rect x="42" y="64" width="2" height="2" fill="#39ff14" />
<rect x="26" y="66" width="2" height="2" fill="#39ff14" />
<rect x="28" y="66" width="2" height="2" fill="#39ff14" />
<rect x="32" y="66" width="2" height="2" fill="#39ff14" />
<rect x="48" y="66" width="2" height="2" fill="#39ff14" />
<rect x="32" y="68" width="2" height="2" fill="#39ff14" />
<rect x="38" y="68" width="2" height="2" fill="#39ff14" />
<rect x="40" y="68" width="2" height="2" fill="#39ff14" />
<rect x="42" y="68" width="2" height="2" fill="#39ff14" />
<rect x="44" y="68" width="2" height="2" fill="#39ff14" />
<rect x="46" y="68" width="2" height="2" fill="#39ff14" />
<rect x="48" y="68" width="2" height="2" fill="#39ff14" />
<rect x="32" y="70" width="2" height="2" fill="#39ff14" />
<rect x="36" y="70" width="2" height="2" fill="#39ff14" />
<rect x="30" y="72" width="2" height="2" fill="#39ff14" />
<rect x="32" y="72" width="2" height="2" fill="#39ff14" />
<rect x="36" y="72" width="2" height="2" fill="#39ff14" />
<rect x="42" y="72" width="2" height="2" fill="#39ff14" />
<rect x="44" y="72" width="2" height="2" fill="#39ff14" />
<rect x="46" y="72" width="2" height="2" fill="#39ff14" />
<rect x="48" y="72" width="2" height="2" fill="#39ff14" />
<rect x="50" y="72" width="2" height="2" fill="#39ff14" />
<rect x="52" y="72" width="2" height="2" fill="#39ff14" />
<rect x="36" y="74" width="2" height="2" fill="#39ff14" />
<rect x="40" y="74" width="2" height="2" fill="#39ff14" />
<rect x="54" y="74" width="2" height="2" fill="#39ff14" />
<rect x="58" y="74" width="2" height="2" fill="#39ff14" />
<rect x="60" y="74" width="2" height="2" fill="#39ff14" />
<rect x="36" y="76" width="2" height="2" fill="#39ff14" />
<rect x="40" y="76" width="2" height="2" fill="#39ff14" />
<rect x="46" y="76" width="2" height="2" fill="#39ff14" />
<rect x="48" y="76" width="2" height="2" fill="#39ff14" />
<rect x="50" y="76" width="2" height="2" fill="#39ff14" />
<rect x="52" y="76" width="2" height="2" fill="#39ff14" />
<rect x="54" y="76" width="2" height="2" fill="#39ff14" />
<rect x="58" y="76" width="2" height="2" fill="#39ff14" />
<rect x="60" y="76" width="2" height="2" fill="#39ff14" />
<rect x="38" y="78" width="2" height="2" fill="#39ff14" />
<rect x="40" y="78" width="2" height="2" fill="#39ff14" />
<rect x="44" y="78" width="2" height="2" fill="#39ff14" />
<rect x="44" y="80" width="2" height="2" fill="#39ff14" />
<rect x="50" y="80" width="2" height="2" fill="#39ff14" />
<rect x="52" y="80" width="2" height="2" fill="#39ff14" />
<rect x="54" y="80" width="2" height="2" fill="#39ff14" />
<rect x="56" y="80" width="2" height="2" fill="#39ff14" />
<rect x="58" y="80" width="2" height="2" fill="#39ff14" />
<rect x="60" y="80" width="2" height="2" fill="#39ff14" />
<rect x="44" y="82" width="2" height="2" fill="#39ff14" />
<rect x="48" y="82" width="2" height="2" fill="#39ff14" />
<rect x="60" y="82" width="2" height="2" fill="#39ff14" />
<rect x="42" y="84" width="2" height="2" fill="#39ff14" />
<rect x="44" y="84" width="2" height="2" fill="#39ff14" />
<rect x="48" y="84" width="2" height="2" fill="#39ff14" />
<rect x="54" y="84" width="2" height="2" fill="#39ff14" />
<rect x="56" y="84" width="2" height="2" fill="#39ff14" />
<rect x="58" y="84" width="2" height="2" fill="#39ff14" />
<rect x="48" y="86" width="2" height="2" fill="#39ff14" />
<rect x="52" y="86" width="2" height="2" fill="#39ff14" />
<rect x="64" y="86" width="2" height="2" fill="#39ff14" />
<rect x="66" y="86" width="2" height="2" fill="#39ff14" />
<rect x="48" y="88" width="2" height="2" fill="#39ff14" />
<rect x="54" y="88" width="2" height="2" fill="#39ff14" />
<rect x="64" y="88" width="2" height="2" fill="#39ff14" />
<rect x="66" y="88" width="2" height="2" fill="#39ff14" />
<rect x="50" y="90" width="2" height="2" fill="#39ff14" />
<rect x="52" y="90" width="2" height="2" fill="#39ff14" />
</svg>