<?xml version="1.0" encoding="utf-8"?>
<svg xmlns="http://www.w3.org/2000/svg" width="122" height="71" viewBox="0 0 122 71">
<rect width="100%" height="100%" fill="transparent" />
<rect x="7" y="4" width="3" height="3" fill="#39ff14" />
<rect x="7" y="7" width="3" height="3" fill="#39ff14" />
<rect x="4" y="10" width="3" height="3" fill="#39ff14" />
<rect x="7" y="13" width="3" height="3" fill="#39ff14" />
<rect x="10" y="13" width="3" height="3" fill="#39ff14" />
<rect x="13" y="13" width="3" height="3" fill="#39ff14" />
<rect x="67" y="13" width="3" height="3" fill="#39ff14" />
<rect x="70" y="13" width="3" height="3" fill="#39ff14" />
<rect x="73" y="13" width="3" height="3" fill="#39ff14" />
<rect x="85" y="13" width="3" height="3" fill="#39ff14" />
<rect x="88" y="13" width="3" height="3" fill="#39ff14" />
<rect x="91" y="13" width="3" height="3" fill="#39ff14" />
<rect x="7" y="16" width="3" height="3" fill="#39ff14" />
<rect x="10" y="16" width="3" height="3" fill="#39ff14" />
<rect x="16" y="16" width="3" height="3" fill="#39ff14" />
<rect x="46" y="16" width="3" height="3" fill="#39ff14" />
<rect x="58" y="16" width="3" height="3" fill="#39ff14" />
<rect x="64" y="16" width="3" height="3" fill="#39ff14" />
<rect x="85" y="16" width="3" height="3" fill="#39ff14" />
<rect x="88" y="16" width="3" height="3" fill="#39ff14" />
<rect x="91" y="16" width="3" height="3" fill="#39ff14" />
<rect x="10" y="19" width="3" height="3" fill="#39ff14" />
<rect x="46" y="19" width="3" height="3" fill="#39ff14" />
<rect x="49" y="19" width="3" height="3" fill="#39ff14" />
<rect x="55" y="19" width="3" height="3" fill="#39ff14" />
<rect x="79" y="19" width="3" height="3" fill="#39ff14" />
<rect x="94" y="19" width="3" height="3" fill="#39ff14" />
<rect x="97" y="19" width="3" height="3" fill="#39ff14" />
<rect x="100" y="19" width="3" height="3" fill="#39ff14" />
<rect x="103" y="19" width="3" height="3" fill="#39ff14" />
<rect x="22" y="22" width="3" height="3" fill="#39ff14" />
<rect x="43" y="22" width="3" height="3" fill="#39ff14" />
<rect x="55" y="22" width="3" height="3" fill="#39ff14" />
<rect x="61" y="22" width="3" height="3" fill="#39ff14" />
<rect x="73" y="22" width="3" height="3" fill="#39ff14" />
<rect x="76" y="22" width="3" height="3" fill="#39ff14" />
<rect x="82" y="22" width="3" height="3" fill="#39ff14" />
<rect x="100" y="22" width="3" height="3" fill="#39ff14" />
<rect x="103" y="22" width="3" height="3" fill="#39ff14" />
<rect x="13" y="25" width="3" height="3" fill="#39ff14" />
<rect x="22" y="25" width="3" height="3" fill="#39ff14" />
<rect x="28" y="25" width="3" height="3" fill="#39ff14" />
<rect x="31" y="25" width="3" height="3" fill="#39ff14" />
<rect x="34" y="25" width="3" height="3" fill="#39ff14" />
<rect x="46" y="25" width="3" height="3" fill="#39ff14" />
<rect x="49" y="25" width="3" height="3" fill="#39ff14" />
<rect x="79" y="25" width="3" height="3" fill="#39ff14" />
<rect x="106" y="25" width="3" height="3" fill="#39ff14" />
<rect x="109" y="25" width="3" height="3" fill="#39ff14" />
<rect x="115" y="25" width="3" height="3" fill="#39ff14" />
<rect x="13" y="28" width="3" height="3" fill="#39ff14" />
<rect x="16" y="28" width="3" height="3" fill="#39ff14" />
<rect x="22" y="28" width="3" height="3" fill="#39ff14" />
<rect x="40" y="28" width="3" height="3" fill="#39ff14" />
<rect x="58" y="28" width="3" height="3" fill="#39ff14" />
<rect x="112" y="28" width="3" height="3" fill="#39ff14" />
<rect x="31" y="31" width="3" height="3" fill="#39ff14" />
<rect x="37" y="31" width="3" height="3" fill="#39ff14" />
<rect x="40" y="31" width="3" height="3" fill="#39ff14" />
<rect x="43" y="31" width="3" height="3" fill="#39ff14" />
<rect x="46" y="31" width="3" height="3" fill="#39ff14" />
<rect x="49" y="31" width="3" height="3" fill="#39ff14" />
<rect x="52" y="31" width="3" height="3" fill="#39ff14" />
<rect x="55" y="31" width="3" height="3" fill="#39ff14" />
<rect x="31" y="37" width="3" height="3" fill="#39ff14" />
<rect x="37" y="37" width="3" height="3" fill="#39ff14" />
<rect x="40" y="37" width="3" height="3" fill="#39ff14" />
<rect x="43" y="37" width="3" height="3" fill="#39ff14" />
<rect x="46" y="37" width="3" height="3" fill="#39ff14" />
<rect x="49" y="37" width="3" height="3" fill="#39ff14" />
<rect x="52" y="37" width="3" height="3" fill="#39ff14" />
<rect x="55" y="37" width="3" height="3" fill="#39ff14" />
<rect x="13" y="40" width="3" height="3" fill="#39ff14" />
<rect x="16" y="40" width="3" height="3" fill="#39ff14" />
<rect x="22" y="40" width="3" height="3" fill="#39ff14" />
<rect x="40" y="40" width="3" height="3" fill="#39ff14" />
<rect x="58" y="40" width="3" height="3" fill="#39ff14" />
<rect x="112" y="40" width="3" height="3" fill="#39ff14" />
<rect x="13" y="43" width="3" height="3" fill="#39ff14" />
<rect x="22" y="43" width="3" height="3" fill="#39ff14" />
<rect x="28" y="43" width="3" height="3" fill="#39ff14" />
<rect x="31" y="43" width="3" height="3" fill="#39ff14" />
<rect x="34" y="43" width="3" height="3" fill="#39ff14" />
<rect x="46" y="43" width="3" height="3" fill="#39ff14" />
<rect x="49" y="43" width="3" height="3" fill="#39ff14" />
<rect x="79" y="43" width="3" height="3" fill="#39ff14" />
<rect x="106" y="43" width="3" height="3" fill="#39ff14" />
<rect x="109" y="43" width="3" height="3" fill="#39ff14" />
<rect x="115" y="43" width="3" height="3" fill="#39ff14" />
<rect x="22" y="46" width="3" height="3" fill="#39ff14" />
<rect x="43" y="46" width="3" height="3" fill="#39ff14" />
<rect x="55" y="46" width="3" height="3" fill="#39ff14" />
<rect x="61" y="46" width="3" height="3" fill="#39ff14" />
<rect x="73" y="46" width="3" height="3" fill="#39ff14" />
<rect x="76" y="46" width="3" height="3" fill="#39ff14" />
<rect x="82" y="46" width="3" height="3" fill="#39ff14" />
<rect x="100" y="46" width="3" height="3" fill="#39ff14" />
<rect x="103" y="46" width="3" height="3" fill="#39ff14" />
<rect x="10" y="49" width="3" height="3" fill="#39ff14" />
<rect x="46" y="49" width="3" height="3" fill="#39ff14" />
<rect x="49" y="49" width="3" height="3" fill="#39ff14" />
<rect x="55" y="49" width="3" height="3" fill="#39ff14" />
<rect x="79" y="49" width="3" height="3" fill="#39ff14" />
<rect x="94" y="49" width="3" height="3" fill="#39ff14" />
<rect x="97" y="49" width="3" height="3" fill="#39ff14" />
<rect x="100" y="49" width="3" height="3" fill="#39ff14" />
<rect x="103" y="49" width="3" height="3" fill="#39ff14" />
<rect x="7" y="52" width="3" height="3" fill="#39ff14" />
<rect x="10" y="52" width="3" height="3" fill="#39ff14" />
<rect x="16" y="52" width="3" height="3" fill="#39ff14" />
<rect x="46" y="52" width="3" height="3" fill="#39ff14" />
<rect x="58" y="52" width="3" height="3" fill="#39ff14" />
<rect x="64" y="52" width="3" height="3" fill="#39ff14" />
<rect x="85" y="52" width="3" height="3" fill="#39ff14" />
<rect x="88" y="52" width="3" height="3" fill="#39ff14" />
<rect x="91" y="52" width="3" height="3" fill="#39ff14" />
<rect x="7" y="55" width="3" height="3" fill="#39ff14" />
<rect x="10" y="55" width="3" height="3" fill="#39ff14" />
<rect x="13" y="55" width="3" height="3" fill="#39ff14" />
<rect x="67" y="55" width="3" height="3" fill="#39ff14" />
<rect x="70" y="55" width="3" height="3" fill="#39ff14" />
<rect x="73" y="55" width="3" height="3" fill="#39ff14" />
<rect x="85" y="55" width="3" height="3" fill="#39ff14" />
<rect x="88" y="55" width="3" height="3" fill="#39ff14" />
<rect x="91" y="55" width="3" height="3" fill="#39ff14" />
<rect x="4" y="58" width="3" height="3" fill="#39ff14" />
<rect x="7" y="61" width="3" height="3" fill="#39ff14" />
<rect x="7" y="64" width="3" height="3" fill="#39ff14" />
</svg>