<?xml version="1.0" encoding="utf-8"?>
<svg xmlns="http://www.w3.org/2000/svg" width="110" height="112" viewBox="0 0 110 112">
<rect width="100%" height="100%" fill="transparent" />
<rect x="62" y="4" width="2" height="2" fill="#39ff14" />
<rect x="64" y="4" width="2" height="2" fill="#39ff14" />
<rect x="60" y="6" width="2" height="2" fill="#39ff14" />
<rect x="64" y="6" width="2" height="2" fill="#39ff14" />
<rect x="48" y="8" width="2" height="2" fill="#39ff14" />
<rect x="50" y="8" width="2" height="2" fill="#39ff14" />
<rect x="60" y="8" width="2" height="2" fill="#39ff14" />
<rect x="44" y="10" width="2" height="2" fill="#39ff14" />
<rect x="50" y="10" width="2" height="2" fill="#39ff14" />
<rect x="56" y="10" width="2" height="2" fill="#39ff14" />
<rect x="58" y="10" width="2" height="2" fill="#39ff14" />
<rect x="62" y="10" width="2" height="2" fill="#39ff14" />
<rect x="64" y="10" width="2" height="2" fill="#39ff14" />
<rect x="66" y="10" width="2" height="2" fill="#39ff14" />
<rect x="68" y="10" width="2" height="2" fill="#39ff14" />
<rect x="44" y="12" width="2" height="2" fill="#39ff14" />
<rect x="46" y="12" width="2" height="2" fill="#39ff14" />
<rect x="50" y="12" width="2" height="2" fill="#39ff14" />
<rect x="54" y="12" width="2" height="2" fill="#39ff14" />
<rect x="58" y="12" width="2" height="2" fill="#39ff14" />
<rect x="62" y="12" width="2" height="2" fill="#39ff14" />
<rect x="68" y="12" width="2" height="2" fill="#39ff14" />
<rect x="50" y="14" width="2" height="2" fill="#39ff14" />
<rect x="54" y="14" width="2" height="2" fill="#39ff14" />
<rect x="58" y="14" width="2" height="2" fill="#39ff14" />
<rect x="62" y="14" width="2" height="2" fill="#39ff14" />
<rect x="50" y="16" width="2" height="2" fill="#39ff14" />
<rect x="54" y="16" width="2" height="2" fill="#39ff14" />
<rect x="58" y="16" width="2" height="2" fill="#39ff14" />
<rect x="60" y="16" width="2" height="2" fill="#39ff14" />
<rect x="52" y="18" width="2" height="2" fill="#39ff14" />
<rect x="78" y="22" width="2" height="2" fill="#39ff14" />
<rect x="80" y="22" width="2" height="2" fill="#39ff14" />
<rect x="60" y="24" width="2" height="2" fill="#39ff14" />
<rect x="62" y="24" width="2" height="2" fill="#39ff14" />
<rect x="78" y="24" width="2" height="2" fill="#39ff14" />
<rect x="60" y="26" width="2" height="2" fill="#39ff14" />
<rect x="62" y="26" width="2" height="2" fill="#39ff14" />
<rect x="74" y="26" width="2" height="2" fill="#39ff14" />
<rect x="78" y="26" width="2" height="2" fill="#39ff14" />
<rect x="22" y="28" width="2" height="2" fill="#39ff14" />
<rect x="74" y="28" width="2" height="2" fill="#39ff14" />
<rect x="76" y="28" width="2" height="2" fill="#39ff14" />
<rect x="22" y="30" width="2" height="2" fill="#39ff14" />
<rect x="24" y="30" width="2" height="2" fill="#39ff14" />
<rect x="26" y="30" width="2" height="2" fill="#39ff14" />
<rect x="28" y="32" width="2" height="2" fill="#39ff14" />
<rect x="46" y="32" width="2" height="2" fill="#39ff14" />
<rect x="26" y="34" width="2" height="2" fill="#39ff14" />
<rect x="28" y="34" width="2" height="2" fill="#39ff14" />
<rect x="44" y="34" width="2" height="2" fill="#39ff14" />
<rect x="44" y="36" width="2" height="2" fill="#39ff14" />
<rect x="46" y="36" width="2" height="2" fill="#39ff14" />
<rect x="48" y="36" width="2" height="2" fill="#39ff14" />
<rect x="10" y="40" width="2" height="2" fill="#39ff14" />
<rect x="12" y="40" width="2" height="2" fill="#39ff14" />
<rect x="10" y="42" width="2" height="2" fill="#39ff14" />
<rect x="54" y="42" width="2" height="2" fill="#39ff14" />
<rect x="56" y="42" width="2" height="2" fill="#39ff14" />
<rect x="4" y="44" width="2" height="2" fill="#39ff14" />
<rect x="6" y="44" width="2" height="2" fill="#39ff14" />
<rect x="10" y="44" width="2" height="2" fill="#39ff14" />
<rect x="56" y="44" width="2" height="2" fill="#39ff14" />
<rect x="4" y="46" width="2" height="2" fill="#39ff14" />
<rect x="10" y="46" width="2" height="2" fill="#39ff14" />
<rect x="12" y="46" width="2" height="2" fill="#39ff14" />
<rect x="14" y="46" width="2" height="2" fill="#39ff14" />
<rect x="24" y="46" width="2" height="2" fill="#39ff14" />
<rect x="26" y="46" width="2" height="2" fill="#39ff14" />
<rect x="50" y="46" width="2" height="2" fill="#39ff14" />
<rect x="52" y="46" width="2" height="2" fill="#39ff14" />
<rect x="54" y="46" width="2" height="2" fill="#39ff14" />
<rect x="6" y="48" width="2" height="2" fill="#39ff14" />
<rect x="8" y="48" width="2" height="2" fill="#39ff14" />
<rect x="16" y="48" width="2" height="2" fill="#39ff14" />
<rect x="24" y="48" width="2" height="2" fill="#39ff14" />
<rect x="26" y="48" width="2" height="2" fill="#39ff14" />
<rect x="50" y="48" width="2" height="2" fill="#39ff14" />
<rect x="96" y="48" width="2" height="2" fill="#39ff14" />
<rect x="10" y="50" width="2" height="2" fill="#39ff14" />
<rect x="12" y="50" width="2" height="2" fill="#39ff14" />
<rect x="14" y="50" width="2" height="2" fill="#39ff14" />
<rect x="16" y="50" width="2" height="2" fill="#39ff14" />
<rect x="60" y="50" width="2" height="2" fill="#39ff14" />
<rect x="62" y="50" width="2" height="2" fill="#39ff14" />
<rect x="92" y="50" width="2" height="2" fill="#39ff14" />
<rect x="94" y="50" width="2" height="2" fill="#39ff14" />
<rect x="96" y="50" width="2" height="2" fill="#39ff14" />
<rect x="98" y="50" width="2" height="2" fill="#39ff14" />
<rect x="100" y="50" width="2" height="2" fill="#39ff14" />
<rect x="10" y="52" width="2" height="2" fill="#39ff14" />
<rect x="42" y="52" width="2" height="2" fill="#39ff14" />
<rect x="44" y="52" width="2" height="2" fill="#39ff14" />
<rect x="62" y="52" width="2" height="2" fill="#39ff14" />
<rect x="90" y="52" width="2" height="2" fill="#39ff14" />
<rect x="102" y="52" width="2" height="2" fill="#39ff14" />
<rect x="12" y="54" width="2" height="2" fill="#39ff14" />
<rect x="14" y="54" width="2" height="2" fill="#39ff14" />
<rect x="16" y="54" width="2" height="2" fill="#39ff14" />
<rect x="42" y="54" width="2" height="2" fill="#39ff14" />
<rect x="46" y="54" width="2" height="2" fill="#39ff14" />
<rect x="62" y="54" width="2" height="2" fill="#39ff14" />
<rect x="66" y="54" width="2" height="2" fill="#39ff14" />
<rect x="92" y="54" width="2" height="2" fill="#39ff14" />
<rect x="94" y="54" width="2" height="2" fill="#39ff14" />
<rect x="96" y="54" width="2" height="2" fill="#39ff14" />
<rect x="102" y="54" width="2" height="2" fill="#39ff14" />
<rect x="18" y="56" width="2" height="2" fill="#39ff14" />
<rect x="46" y="56" width="2" height="2" fill="#39ff14" />
<rect x="64" y="56" width="2" height="2" fill="#39ff14" />
<rect x="66" y="56" width="2" height="2" fill="#39ff14" />
<rect x="98" y="56" width="2" height="2" fill="#39ff14" />
<rect x="102" y="56" width="2" height="2" fill="#39ff14" />
<rect x="104" y="56" width="2" height="2" fill="#39ff14" />
<rect x="8" y="58" width="2" height="2" fill="#39ff14" />
<rect x="10" y="58" width="2" height="2" fill="#39ff14" />
<rect x="12" y="58" width="2" height="2" fill="#39ff14" />
<rect x="14" y="58" width="2" height="2" fill="#39ff14" />
<rect x="16" y="58" width="2" height="2" fill="#39ff14" />
<rect x="46" y="58" width="2" height="2" fill="#39ff14" />
<rect x="48" y="58" width="2" height="2" fill="#39ff14" />
<rect x="92" y="58" width="2" height="2" fill="#39ff14" />
<rect x="94" y="58" width="2" height="2" fill="#39ff14" />
<rect x="96" y="58" width="2" height="2" fill="#39ff14" />
<rect x="98" y="58" width="2" height="2" fill="#39ff14" />
<rect x="104" y="58" width="2" height="2" fill="#39ff14" />
<rect x="6" y="60" width="2" height="2" fill="#39ff14" />
<rect x="12" y="60" width="2" height="2" fill="#39ff14" />
<rect x="58" y="60" width="2" height="2" fill="#39ff14" />
<rect x="82" y="60" width="2" height="2" fill="#39ff14" />
<rect x="84" y="60" width="2" height="2" fill="#39ff14" />
<rect x="92" y="60" width="2" height="2" fill="#39ff14" />
<rect x="100" y="60" width="2" height="2" fill="#39ff14" />
<rect x="102" y="60" width="2" height="2" fill="#39ff14" />
<rect x="6" y="62" width="2" height="2" fill="#39ff14" />
<rect x="8" y="62" width="2" height="2" fill="#39ff14" />
<rect x="54" y="62" width="2" height="2" fill="#39ff14" />
<rect x="56" y="62" width="2" height="2" fill="#39ff14" />
<rect x="58" y="62" width="2" height="2" fill="#39ff14" />
<rect x="82" y="62" width="2" height="2" fill="#39ff14" />
<rect x="84" y="62" width="2" height="2" fill="#39ff14" />
<rect x="94" y="62" width="2" height="2" fill="#39ff14" />
<rect x="96" y="62" width="2" height="2" fill="#39ff14" />
<rect x="98" y="62" width="2" height="2" fill="#39ff14" />
<rect x="52" y="64" width="2" height="2" fill="#39ff14" />
<rect x="98" y="64" width="2" height="2" fill="#39ff14" />
<rect x="52" y="66" width="2" height="2" fill="#39ff14" />
<rect x="54" y="66" width="2" height="2" fill="#39ff14" />
<rect x="98" y="66" width="2" height="2" fill="#39ff14" />
<rect x="102" y="66" width="2" height="2" fill="#39ff14" />
<rect x="104" y="66" width="2" height="2" fill="#39ff14" />
<rect x="96" y="68" width="2" height="2" fill="#39ff14" />
<rect x="98" y="68" width="2" height="2" fill="#39ff14" />
<rect x="102" y="68" width="2" height="2" fill="#39ff14" />
<rect x="104" y="68" width="2" height="2" fill="#39ff14" />
<rect x="80" y="74" width="2" height="2" fill="#39ff14" />
<rect x="82" y="74" width="2" height="2" fill="#39ff14" />
<rect x="80" y="76" width="2" height="2" fill="#39ff14" />
<rect x="82" y="78" width="2" height="2" fill="#39ff14" />
<rect x="84" y="78" width="2" height="2" fill="#39ff14" />
<rect x="86" y="78" width="2" height="2" fill="#39ff14" />
<rect x="32" y="80" width="2" height="2" fill="#39ff14" />
<rect x="34" y="80" width="2" height="2" fill="#39ff14" />
<rect x="86" y="80" width="2" height="2" fill="#39ff14" />
<rect x="30" y="82" width="2" height="2" fill="#39ff14" />
<rect x="34" y="82" width="2" height="2" fill="#39ff14" />
<rect x="46" y="82" width="2" height="2" fill="#39ff14" />
<rect x="48" y="82" width="2" height="2" fill="#39ff14" />
<rect x="30" y="84" width="2" height="2" fill="#39ff14" />
<rect x="46" y="84" width="2" height="2" fill="#39ff14" />
<rect x="48" y="84" width="2" height="2" fill="#39ff14" />
<rect x="28" y="86" width="2" height="2" fill="#39ff14" />
<rect x="30" y="86" width="2" height="2" fill="#39ff14" />
<rect x="56" y="90" width="2" height="2" fill="#39ff14" />
<rect x="36" y="92" width="2" height="2" fill="#39ff14" />
<rect x="38" y="92" width="2" height="2" fill="#39ff14" />
<rect x="48" y="92" width="2" height="2" fill="#39ff14" />
<rect x="50" y="92" width="2" height="2" fill="#39ff14" />
<rect x="54" y="92" width="2" height="2" fill="#39ff14" />
<rect x="58" y="92" width="2" height="2" fill="#39ff14" />
<rect x="34" y="94" width="2" height="2" fill="#39ff14" />
<rect x="40" y="94" width="2" height="2" fill="#39ff14" />
<rect x="46" y="94" width="2" height="2" fill="#39ff14" />
<rect x="50" y="94" width="2" height="2" fill="#39ff14" />
<rect x="54" y="94" width="2" height="2" fill="#39ff14" />
<rect x="58" y="94" width="2" height="2" fill="#39ff14" />
<rect x="36" y="96" width="2" height="2" fill="#39ff14" />
<rect x="38" y="96" width="2" height="2" fill="#39ff14" />
<rect x="46" y="96" width="2" height="2" fill="#39ff14" />
<rect x="50" y="96" width="2" height="2" fill="#39ff14" />
<rect x="54" y="96" width="2" height="2" fill="#39ff14" />
<rect x="58" y="96" width="2" height="2" fill="#39ff14" />
<rect x="60" y="96" width="2" height="2" fill="#39ff14" />
<rect x="40" y="98" width="2" height="2" fill="#39ff14" />
<rect x="42" y="98" width="2" height="2" fill="#39ff14" />
<rect x="44" y="98" width="2" height="2" fill="#39ff14" />
<rect x="46" y="98" width="2" height="2" fill="#39ff14" />
<rect x="50" y="98" width="2" height="2" fill="#39ff14" />
<rect x="52" y="98" width="2" height="2" fill="#39ff14" />
<rect x="58" y="98" width="2" height="2" fill="#39ff14" />
<rect x="40" y="100" width="2" height="2" fill="#39ff14" />
<rect x="48" y="100" width="2" height="2" fill="#39ff14" />
<rect x="58" y="100" width="2" height="2" fill="#39ff14" />
<rect x="42" y="102" width="2" height="2" fill="#39ff14" />
<rect x="48" y="102" width="2" height="2" fill="#39ff14" />
<rect x="52" y="102" width="2" height="2" fill="#39ff14" />
<rect x="54" y="102" width="2" height="2" fill="#39ff14" />
<rect x="56" y="102" width="2" height="2" fill="#39ff14" />
<rect x="44" y="104" width="2" height="2" fill="#39ff14" />
<rect x="48" y="104" width="2" height="2" fill="#39ff14" />
<rect x="52" y="104" width="2" height="2" fill="#39ff14" />
<rect x="46" y="106" width="2" height="2" fill="#39ff14" />
</svg>