<?xml version="1.0" encoding="utf-8"?>
<svg xmlns="http://www.w3.org/2000/svg" width="116" height="116" viewBox="0 0 116 116">
<rect width="100%" height="100%" fill="transparent" />
<rect x="76" y="4" width="4" height="4" fill="#39ff14" />
<rect x="72" y="8" width="4" height="4" fill="#39ff14" />
<rect x="76" y="8" width="4" height="4" fill="#39ff14" />
<rect x="80" y="8" width="4" height="4" fill="#39ff14" />
<rect x="52" y="12" width="4" height="4" fill="#39ff14" />
<rect x="56" y="12" width="4" height="4" fill="#39ff14" />
<rect x="60" y="12" width="4" height="4" fill="#39ff14" />
<rect x="80" y="12" width="4" height="4" fill="#39ff14" />
<rect x="84" y="12" width="4" height="4" fill="#39ff14" />
<rect x="48" y="16" width="4" height="4" fill="#39ff14" />
<rect x="60" y="16" width="4" height="4" fill="#39ff14" />
<rect x="64" y="16" width="4" height="4" fill="#39ff14" />
<rect x="68" y="16" width="4" height="4" fill="#39ff14" />
<rect x="80" y="16" width="4" height="4" fill="#39ff14" />
<rect x="88" y="16" width="4" height="4" fill="#39ff14" />
<rect x="92" y="16" width="4" height="4" fill="#39ff14" />
<rect x="44" y="20" width="4" height="4" fill="#39ff14" />
<rect x="60" y="20" width="4" height="4" fill="#39ff14" />
<rect x="68" y="20" width="4" height="4" fill="#39ff14" />
<rect x="80" y="20" width="4" height="4" fill="#39ff14" />
<rect x="88" y="20" width="4" height="4" fill="#39ff14" />
<rect x="44" y="24" width="4" height="4" fill="#39ff14" />
<rect x="64" y="24" width="4" height="4" fill="#39ff14" />
<rect x="72" y="24" width="4" height="4" fill="#39ff14" />
<rect x="80" y="24" width="4" height="4" fill="#39ff14" />
<rect x="88" y="24" width="4" height="4" fill="#39ff14" />
<rect x="96" y="24" width="4" height="4" fill="#39ff14" />
<rect x="100" y="24" width="4" height="4" fill="#39ff14" />
<rect x="52" y="28" width="4" height="4" fill="#39ff14" />
<rect x="72" y="28" width="4" height="4" fill="#39ff14" />
<rect x="80" y="28" width="4" height="4" fill="#39ff14" />
<rect x="96" y="28" width="4" height="4" fill="#39ff14" />
<rect x="100" y="28" width="4" height="4" fill="#39ff14" />
<rect x="4" y="32" width="4" height="4" fill="#39ff14" />
<rect x="8" y="32" width="4" height="4" fill="#39ff14" />
<rect x="12" y="32" width="4" height="4" fill="#39ff14" />
<rect x="16" y="32" width="4" height="4" fill="#39ff14" />
<rect x="40" y="32" width="4" height="4" fill="#39ff14" />
<rect x="48" y="32" width="4" height="4" fill="#39ff14" />
<rect x="68" y="32" width="4" height="4" fill="#39ff14" />
<rect x="84" y="32" width="4" height="4" fill="#39ff14" />
<rect x="92" y="32" width="4" height="4" fill="#39ff14" />
<rect x="96" y="32" width="4" height="4" fill="#39ff14" />
<rect x="100" y="32" width="4" height="4" fill="#39ff14" />
<rect x="4" y="36" width="4" height="4" fill="#39ff14" />
<rect x="20" y="36" width="4" height="4" fill="#39ff14" />
<rect x="24" y="36" width="4" height="4" fill="#39ff14" />
<rect x="32" y="36" width="4" height="4" fill="#39ff14" />
<rect x="40" y="36" width="4" height="4" fill="#39ff14" />
<rect x="44" y="36" width="4" height="4" fill="#39ff14" />
<rect x="48" y="36" width="4" height="4" fill="#39ff14" />
<rect x="56" y="36" width="4" height="4" fill="#39ff14" />
<rect x="60" y="36" width="4" height="4" fill="#39ff14" />
<rect x="100" y="36" width="4" height="4" fill="#39ff14" />
<rect x="104" y="36" width="4" height="4" fill="#39ff14" />
<rect x="4" y="40" width="4" height="4" fill="#39ff14" />
<rect x="28" y="40" width="4" height="4" fill="#39ff14" />
<rect x="32" y="40" width="4" height="4" fill="#39ff14" />
<rect x="56" y="40" width="4" height="4" fill="#39ff14" />
<rect x="8" y="44" width="4" height="4" fill="#39ff14" />
<rect x="20" y="44" width="4" height="4" fill="#39ff14" />
<rect x="24" y="44" width="4" height="4" fill="#39ff14" />
<rect x="32" y="44" width="4" height="4" fill="#39ff14" />
<rect x="44" y="44" width="4" height="4" fill="#39ff14" />
<rect x="56" y="44" width="4" height="4" fill="#39ff14" />
<rect x="64" y="44" width="4" height="4" fill="#39ff14" />
<rect x="68" y="44" width="4" height="4" fill="#39ff14" />
<rect x="32" y="48" width="4" height="4" fill="#39ff14" />
<rect x="40" y="48" width="4" height="4" fill="#39ff14" />
<rect x="48" y="48" width="4" height="4" fill="#39ff14" />
<rect x="56" y="48" width="4" height="4" fill="#39ff14" />
<rect x="64" y="48" width="4" height="4" fill="#39ff14" />
<rect x="72" y="48" width="4" height="4" fill="#39ff14" />
<rect x="96" y="48" width="4" height="4" fill="#39ff14" />
<rect x="100" y="48" width="4" height="4" fill="#39ff14" />
<rect x="104" y="48" width="4" height="4" fill="#39ff14" />
<rect x="108" y="48" width="4" height="4" fill="#39ff14" />
<rect x="8" y="52" width="4" height="4" fill="#39ff14" />
<rect x="20" y="52" width="4" height="4" fill="#39ff14" />
<rect x="24" y="52" width="4" height="4" fill="#39ff14" />
<rect x="32" y="52" width="4" height="4" fill="#39ff14" />
<rect x="44" y="52" width="4" height="4" fill="#39ff14" />
<rect x="56" y="52" width="4" height="4" fill="#39ff14" />
<rect x="68" y="52" width="4" height="4" fill="#39ff14" />
<rect x="72" y="52" width="4" height="4" fill="#39ff14" />
<rect x="80" y="52" width="4" height="4" fill="#39ff14" />
<rect x="88" y="52" width="4" height="4" fill="#39ff14" />
<rect x="92" y="52" width="4" height="4" fill="#39ff14" />
<rect x="108" y="52" width="4" height="4" fill="#39ff14" />
<rect x="4" y="56" width="4" height="4" fill="#39ff14" />
<rect x="28" y="56" width="4" height="4" fill="#39ff14" />
<rect x="32" y="56" width="4" height="4" fill="#39ff14" />
<rect x="48" y="56" width="4" height="4" fill="#39ff14" />
<rect x="56" y="56" width="4" height="4" fill="#39ff14" />
<rect x="64" y="56" width="4" height="4" fill="#39ff14" />
<rect x="80" y="56" width="4" height="4" fill="#39ff14" />
<rect x="84" y="56" width="4" height="4" fill="#39ff14" />
<rect x="108" y="56" width="4" height="4" fill="#39ff14" />
<rect x="4" y="60" width="4" height="4" fill="#39ff14" />
<rect x="20" y="60" width="4" height="4" fill="#39ff14" />
<rect x="24" y="60" width="4" height="4" fill="#39ff14" />
<rect x="32" y="60" width="4" height="4" fill="#39ff14" />
<rect x="40" y="60" width="4" height="4" fill="#39ff14" />
<rect x="44" y="60" width="4" height="4" fill="#39ff14" />
<rect x="56" y="60" width="4" height="4" fill="#39ff14" />
<rect x="68" y="60" width="4" height="4" fill="#39ff14" />
<rect x="80" y="60" width="4" height="4" fill="#39ff14" />
<rect x="88" y="60" width="4" height="4" fill="#39ff14" />
<rect x="92" y="60" width="4" height="4" fill="#39ff14" />
<rect x="104" y="60" width="4" height="4" fill="#39ff14" />
<rect x="4" y="64" width="4" height="4" fill="#39ff14" />
<rect x="8" y="64" width="4" height="4" fill="#39ff14" />
<rect x="12" y="64" width="4" height="4" fill="#39ff14" />
<rect x="16" y="64" width="4" height="4" fill="#39ff14" />
<rect x="40" y="64" width="4" height="4" fill="#39ff14" />
<rect x="48" y="64" width="4" height="4" fill="#39ff14" />
<rect x="56" y="64" width="4" height="4" fill="#39ff14" />
<rect x="64" y="64" width="4" height="4" fill="#39ff14" />
<rect x="72" y="64" width="4" height="4" fill="#39ff14" />
<rect x="80" y="64" width="4" height="4" fill="#39ff14" />
<rect x="44" y="68" width="4" height="4" fill="#39ff14" />
<rect x="48" y="68" width="4" height="4" fill="#39ff14" />
<rect x="56" y="68" width="4" height="4" fill="#39ff14" />
<rect x="68" y="68" width="4" height="4" fill="#39ff14" />
<rect x="80" y="68" width="4" height="4" fill="#39ff14" />
<rect x="88" y="68" width="4" height="4" fill="#39ff14" />
<rect x="92" y="68" width="4" height="4" fill="#39ff14" />
<rect x="104" y="68" width="4" height="4" fill="#39ff14" />
<rect x="56" y="72" width="4" height="4" fill="#39ff14" />
<rect x="80" y="72" width="4" height="4" fill="#39ff14" />
<rect x="84" y="72" width="4" height="4" fill="#39ff14" />
<rect x="108" y="72" width="4" height="4" fill="#39ff14" />
<rect x="8" y="76" width="4" height="4" fill="#39ff14" />
<rect x="12" y="76" width="4" height="4" fill="#39ff14" />
<rect x="52" y="76" width="4" height="4" fill="#39ff14" />
<rect x="56" y="76" width="4" height="4" fill="#39ff14" />
<rect x="64" y="76" width="4" height="4" fill="#39ff14" />
<rect x="68" y="76" width="4" height="4" fill="#39ff14" />
<rect x="72" y="76" width="4" height="4" fill="#39ff14" />
<rect x="80" y="76" width="4" height="4" fill="#39ff14" />
<rect x="88" y="76" width="4" height="4" fill="#39ff14" />
<rect x="92" y="76" width="4" height="4" fill="#39ff14" />
<rect x="108" y="76" width="4" height="4" fill="#39ff14" />
<rect x="12" y="80" width="4" height="4" fill="#39ff14" />
<rect x="16" y="80" width="4" height="4" fill="#39ff14" />
<rect x="20" y="80" width="4" height="4" fill="#39ff14" />
<rect x="28" y="80" width="4" height="4" fill="#39ff14" />
<rect x="44" y="80" width="4" height="4" fill="#39ff14" />
<rect x="64" y="80" width="4" height="4" fill="#39ff14" />
<rect x="72" y="80" width="4" height="4" fill="#39ff14" />
<rect x="96" y="80" width="4" height="4" fill="#39ff14" />
<rect x="100" y="80" width="4" height="4" fill="#39ff14" />
<rect x="104" y="80" width="4" height="4" fill="#39ff14" />
<rect x="108" y="80" width="4" height="4" fill="#39ff14" />
<rect x="12" y="84" width="4" height="4" fill="#39ff14" />
<rect x="16" y="84" width="4" height="4" fill="#39ff14" />
<rect x="32" y="84" width="4" height="4" fill="#39ff14" />
<rect x="40" y="84" width="4" height="4" fill="#39ff14" />
<rect x="60" y="84" width="4" height="4" fill="#39ff14" />
<rect x="12" y="88" width="4" height="4" fill="#39ff14" />
<rect x="16" y="88" width="4" height="4" fill="#39ff14" />
<rect x="24" y="88" width="4" height="4" fill="#39ff14" />
<rect x="32" y="88" width="4" height="4" fill="#39ff14" />
<rect x="40" y="88" width="4" height="4" fill="#39ff14" />
<rect x="48" y="88" width="4" height="4" fill="#39ff14" />
<rect x="68" y="88" width="4" height="4" fill="#39ff14" />
<rect x="24" y="92" width="4" height="4" fill="#39ff14" />
<rect x="32" y="92" width="4" height="4" fill="#39ff14" />
<rect x="44" y="92" width="4" height="4" fill="#39ff14" />
<rect x="52" y="92" width="4" height="4" fill="#39ff14" />
<rect x="68" y="92" width="4" height="4" fill="#39ff14" />
<rect x="20" y="96" width="4" height="4" fill="#39ff14" />
<rect x="24" y="96" width="4" height="4" fill="#39ff14" />
<rect x="32" y="96" width="4" height="4" fill="#39ff14" />
<rect x="44" y="96" width="4" height="4" fill="#39ff14" />
<rect x="48" y="96" width="4" height="4" fill="#39ff14" />
<rect x="52" y="96" width="4" height="4" fill="#39ff14" />
<rect x="64" y="96" width="4" height="4" fill="#39ff14" />
<rect x="28" y="100" width="4" height="4" fill="#39ff14" />
<rect x="32" y="100" width="4" height="4" fill="#39ff14" />
<rect x="52" y="100" width="4" height="4" fill="#39ff14" />
<rect x="56" y="100" width="4" height="4" fill="#39ff14" />
<rect x="60" y="100" width="4" height="4" fill="#39ff14" />
<rect x="32" y="104" width="4" height="4" fill="#39ff14" />
<rect x="36" y="104" width="4" height="4" fill="#39ff14" />
<rect x="40" y="104" width="4" height="4" fill="#39ff14" />
<rect x="36" y="108" width="4" height="4" fill="#39ff14" />
</svg>