<?xml version="1.0" encoding="utf-8"?>
<svg xmlns="http://www.w3.org/2000/svg" width="112" height="68" viewBox="0 0 112 68">
<rect width="100%" height="100%" fill="transparent" />
<rect x="24" y="4" width="2" height="2" fill="#39ff14" />
<rect x="26" y="4" width="2" height="2" fill="#39ff14" />
<rect x="50" y="4" width="2" height="2" fill="#39ff14" />
<rect x="64" y="4" width="2" height="2" fill="#39ff14" />
<rect x="66" y="4" width="2" height="2" fill="#39ff14" />
<rect x="24" y="6" width="2" height="2" fill="#39ff14" />
<rect x="26" y="6" width="2" height="2" fill="#39ff14" />
<rect x="48" y="6" width="2" height="2" fill="#39ff14" />
<rect x="52" y="6" width="2" height="2" fill="#39ff14" />
<rect x="62" y="6" width="2" height="2" fill="#39ff14" />
<rect x="68" y="6" width="2" height="2" fill="#39ff14" />
<rect x="48" y="8" width="2" height="2" fill="#39ff14" />
<rect x="52" y="8" width="2" height="2" fill="#39ff14" />
<rect x="60" y="8" width="2" height="2" fill="#39ff14" />
<rect x="64" y="8" width="2" height="2" fill="#39ff14" />
<rect x="66" y="8" width="2" height="2" fill="#39ff14" />
<rect x="68" y="8" width="2" height="2" fill="#39ff14" />
<rect x="76" y="8" width="2" height="2" fill="#39ff14" />
<rect x="46" y="10" width="2" height="2" fill="#39ff14" />
<rect x="48" y="10" width="2" height="2" fill="#39ff14" />
<rect x="52" y="10" width="2" height="2" fill="#39ff14" />
<rect x="54" y="10" width="2" height="2" fill="#39ff14" />
<rect x="58" y="10" width="2" height="2" fill="#39ff14" />
<rect x="62" y="10" width="2" height="2" fill="#39ff14" />
<rect x="76" y="10" width="2" height="2" fill="#39ff14" />
<rect x="78" y="10" width="2" height="2" fill="#39ff14" />
<rect x="80" y="10" width="2" height="2" fill="#39ff14" />
<rect x="54" y="12" width="2" height="2" fill="#39ff14" />
<rect x="58" y="12" width="2" height="2" fill="#39ff14" />
<rect x="66" y="12" width="2" height="2" fill="#39ff14" />
<rect x="68" y="12" width="2" height="2" fill="#39ff14" />
<rect x="82" y="12" width="2" height="2" fill="#39ff14" />
<rect x="46" y="14" width="2" height="2" fill="#39ff14" />
<rect x="48" y="14" width="2" height="2" fill="#39ff14" />
<rect x="52" y="14" width="2" height="2" fill="#39ff14" />
<rect x="58" y="14" width="2" height="2" fill="#39ff14" />
<rect x="60" y="14" width="2" height="2" fill="#39ff14" />
<rect x="62" y="14" width="2" height="2" fill="#39ff14" />
<rect x="64" y="14" width="2" height="2" fill="#39ff14" />
<rect x="68" y="14" width="2" height="2" fill="#39ff14" />
<rect x="80" y="14" width="2" height="2" fill="#39ff14" />
<rect x="82" y="14" width="2" height="2" fill="#39ff14" />
<rect x="46" y="16" width="2" height="2" fill="#39ff14" />
<rect x="48" y="16" width="2" height="2" fill="#39ff14" />
<rect x="52" y="16" width="2" height="2" fill="#39ff14" />
<rect x="56" y="16" width="2" height="2" fill="#39ff14" />
<rect x="64" y="16" width="2" height="2" fill="#39ff14" />
<rect x="54" y="18" width="2" height="2" fill="#39ff14" />
<rect x="58" y="18" width="2" height="2" fill="#39ff14" />
<rect x="66" y="18" width="2" height="2" fill="#39ff14" />
<rect x="56" y="20" width="2" height="2" fill="#39ff14" />
<rect x="60" y="20" width="2" height="2" fill="#39ff14" />
<rect x="68" y="20" width="2" height="2" fill="#39ff14" />
<rect x="58" y="22" width="2" height="2" fill="#39ff14" />
<rect x="66" y="22" width="2" height="2" fill="#39ff14" />
<rect x="68" y="22" width="2" height="2" fill="#39ff14" />
<rect x="40" y="30" width="2" height="2" fill="#39ff14" />
<rect x="42" y="30" width="2" height="2" fill="#39ff14" />
<rect x="40" y="32" width="2" height="2" fill="#39ff14" />
<rect x="42" y="32" width="2" height="2" fill="#39ff14" />
<rect x="10" y="34" width="2" height="2" fill="#39ff14" />
<rect x="12" y="34" width="2" height="2" fill="#39ff14" />
<rect x="8" y="36" width="2" height="2" fill="#39ff14" />
<rect x="14" y="36" width="2" height="2" fill="#39ff14" />
<rect x="6" y="38" width="2" height="2" fill="#39ff14" />
<rect x="10" y="38" width="2" height="2" fill="#39ff14" />
<rect x="12" y="38" width="2" height="2" fill="#39ff14" />
<rect x="6" y="40" width="2" height="2" fill="#39ff14" />
<rect x="104" y="40" width="2" height="2" fill="#39ff14" />
<rect x="106" y="40" width="2" height="2" fill="#39ff14" />
<rect x="4" y="42" width="2" height="2" fill="#39ff14" />
<rect x="6" y="42" width="2" height="2" fill="#39ff14" />
<rect x="104" y="42" width="2" height="2" fill="#39ff14" />
<rect x="106" y="42" width="2" height="2" fill="#39ff14" />
<rect x="34" y="44" width="2" height="2" fill="#39ff14" />
<rect x="36" y="44" width="2" height="2" fill="#39ff14" />
<rect x="34" y="46" width="2" height="2" fill="#39ff14" />
<rect x="36" y="48" width="2" height="2" fill="#39ff14" />
<rect x="38" y="48" width="2" height="2" fill="#39ff14" />
<rect x="40" y="48" width="2" height="2" fill="#39ff14" />
<rect x="40" y="50" width="2" height="2" fill="#39ff14" />
<rect x="62" y="50" width="2" height="2" fill="#39ff14" />
<rect x="64" y="50" width="2" height="2" fill="#39ff14" />
<rect x="60" y="52" width="2" height="2" fill="#39ff14" />
<rect x="64" y="52" width="2" height="2" fill="#39ff14" />
<rect x="60" y="54" width="2" height="2" fill="#39ff14" />
<rect x="58" y="56" width="2" height="2" fill="#39ff14" />
<rect x="60" y="56" width="2" height="2" fill="#39ff14" />
<rect x="4" y="58" width="2" height="2" fill="#39ff14" />
<rect x="6" y="58" width="2" height="2" fill="#39ff14" />
<rect x="8" y="58" width="2" height="2" fill="#39ff14" />
<rect x="8" y="60" width="2" height="2" fill="#39ff14" />
<rect x="6" y="62" width="2" height="2" fill="#39ff14" />
</svg>