<?xml version="1.0" encoding="utf-8"?>
<svg xmlns="http://www.w3.org/2000/svg" width="128" height="128" viewBox="0 0 128 128">
<rect width="100%" height="100%" fill="transparent" />
<rect x="8" y="4" width="2" height="2" fill="#39ff14" />
<rect x="6" y="6" width="2" height="2" fill="#39ff14" />
<rect x="10" y="6" width="2" height="2" fill="#39ff14" />
<rect x="6" y="10" width="2" height="2" fill="#39ff14" />
<rect x="12" y="10" width="2" height="2" fill="#39ff14" />
<rect x="10" y="12" width="2" height="2" fill="#39ff14" />
<rect x="12" y="12" width="2" height="2" fill="#39ff14" />
<rect x="12" y="14" width="2" height="2" fill="#39ff14" />
<rect x="40" y="16" width="2" height="2" fill="#39ff14" />
<rect x="42" y="16" width="2" height="2" fill="#39ff14" />
<rect x="40" y="18" width="2" height="2" fill="#39ff14" />
<rect x="42" y="18" width="2" height="2" fill="#39ff14" />
<rect x="6" y="24" width="2" height="2" fill="#39ff14" />
<rect x="8" y="24" width="2" height="2" fill="#39ff14" />
<rect x="10" y="26" width="2" height="2" fill="#39ff14" />
<rect x="8" y="28" width="2" height="2" fill="#39ff14" />
<rect x="10" y="28" width="2" height="2" fill="#39ff14" />
<rect x="6" y="30" width="2" height="2" fill="#39ff14" />
<rect x="8" y="30" width="2" height="2" fill="#39ff14" />
<rect x="10" y="30" width="2" height="2" fill="#39ff14" />
<rect x="42" y="30" width="2" height="2" fill="#39ff14" />
<rect x="6" y="32" width="2" height="2" fill="#39ff14" />
<rect x="8" y="32" width="2" height="2" fill="#39ff14" />
<rect x="42" y="32" width="2" height="2" fill="#39ff14" />
<rect x="44" y="32" width="2" height="2" fill="#39ff14" />
<rect x="56" y="32" width="2" height="2" fill="#39ff14" />
<rect x="58" y="32" width="2" height="2" fill="#39ff14" />
<rect x="4" y="34" width="2" height="2" fill="#39ff14" />
<rect x="6" y="34" width="2" height="2" fill="#39ff14" />
<rect x="8" y="34" width="2" height="2" fill="#39ff14" />
<rect x="12" y="34" width="2" height="2" fill="#39ff14" />
<rect x="42" y="34" width="2" height="2" fill="#39ff14" />
<rect x="44" y="34" width="2" height="2" fill="#39ff14" />
<rect x="56" y="34" width="2" height="2" fill="#39ff14" />
<rect x="58" y="34" width="2" height="2" fill="#39ff14" />
<rect x="6" y="36" width="2" height="2" fill="#39ff14" />
<rect x="14" y="36" width="2" height="2" fill="#39ff14" />
<rect x="36" y="36" width="2" height="2" fill="#39ff14" />
<rect x="38" y="36" width="2" height="2" fill="#39ff14" />
<rect x="10" y="38" width="2" height="2" fill="#39ff14" />
<rect x="16" y="38" width="2" height="2" fill="#39ff14" />
<rect x="38" y="38" width="2" height="2" fill="#39ff14" />
<rect x="10" y="40" width="2" height="2" fill="#39ff14" />
<rect x="12" y="40" width="2" height="2" fill="#39ff14" />
<rect x="14" y="40" width="2" height="2" fill="#39ff14" />
<rect x="40" y="40" width="2" height="2" fill="#39ff14" />
<rect x="12" y="42" width="2" height="2" fill="#39ff14" />
<rect x="14" y="42" width="2" height="2" fill="#39ff14" />
<rect x="32" y="42" width="2" height="2" fill="#39ff14" />
<rect x="34" y="42" width="2" height="2" fill="#39ff14" />
<rect x="32" y="44" width="2" height="2" fill="#39ff14" />
<rect x="34" y="44" width="2" height="2" fill="#39ff14" />
<rect x="72" y="48" width="2" height="2" fill="#39ff14" />
<rect x="74" y="48" width="2" height="2" fill="#39ff14" />
<rect x="72" y="50" width="2" height="2" fill="#39ff14" />
<rect x="74" y="50" width="2" height="2" fill="#39ff14" />
<rect x="16" y="56" width="2" height="2" fill="#39ff14" />
<rect x="18" y="56" width="2" height="2" fill="#39ff14" />
<rect x="16" y="58" width="2" height="2" fill="#39ff14" />
<rect x="18" y="58" width="2" height="2" fill="#39ff14" />
<rect x="52" y="58" width="2" height="2" fill="#39ff14" />
<rect x="54" y="58" width="2" height="2" fill="#39ff14" />
<rect x="52" y="60" width="2" height="2" fill="#39ff14" />
<rect x="54" y="60" width="2" height="2" fill="#39ff14" />
<rect x="88" y="64" width="2" height="2" fill="#39ff14" />
<rect x="90" y="64" width="2" height="2" fill="#39ff14" />
<rect x="44" y="66" width="2" height="2" fill="#39ff14" />
<rect x="46" y="66" width="2" height="2" fill="#39ff14" />
<rect x="88" y="66" width="2" height="2" fill="#39ff14" />
<rect x="90" y="66" width="2" height="2" fill="#39ff14" />
<rect x="44" y="68" width="2" height="2" fill="#39ff14" />
<rect x="46" y="68" width="2" height="2" fill="#39ff14" />
<rect x="32" y="72" width="2" height="2" fill="#39ff14" />
<rect x="34" y="72" width="2" height="2" fill="#39ff14" />
<rect x="32" y="74" width="2" height="2" fill="#39ff14" />
<rect x="34" y="74" width="2" height="2" fill="#39ff14" />
<rect x="82" y="76" width="2" height="2" fill="#39ff14" />
<rect x="84" y="76" width="2" height="2" fill="#39ff14" />
<rect x="82" y="78" width="2" height="2" fill="#39ff14" />
<rect x="84" y="78" width="2" height="2" fill="#39ff14" />
<rect x="74" y="84" width="2" height="2" fill="#39ff14" />
<rect x="76" y="84" width="2" height="2" fill="#39ff14" />
<rect x="74" y="86" width="2" height="2" fill="#39ff14" />
<rect x="76" y="86" width="2" height="2" fill="#39ff14" />
<rect x="120" y="96" width="2" height="2" fill="#39ff14" />
<rect x="122" y="96" width="2" height="2" fill="#39ff14" />
<rect x="120" y="98" width="2" height="2" fill="#39ff14" />
<rect x="122" y="98" width="2" height="2" fill="#39ff14" />
<rect x="64" y="104" width="2" height="2" fill="#39ff14" />
<rect x="66" y="104" width="2" height="2" fill="#39ff14" />
<rect x="64" y="106" width="2" height="2" fill="#39ff14" />
<rect x="66" y="106" width="2" height="2" fill="#39ff14" />
<rect x="100" y="106" width="2" height="2" fill="#39ff14" />
<rect x="102" y="106" width="2" height="2" fill="#39ff14" />
<rect x="100" y="108" width="2" height="2" fill="#39ff14" />
<rect x="102" y="108" width="2" height="2" fill="#39ff14" />
<rect x="92" y="114" width="2" height="2" fill="#39ff14" />
<rect x="94" y="114" width="2" height="2" fill="#39ff14" />
<rect x="92" y="116" width="2" height="2" fill="#39ff14" />
<rect x="94" y="116" width="2" height="2" fill="#39ff14" />
<rect x="80" y="120" width="2" height="2" fill="#39ff14" />
<rect x="82" y="120" width="2" height="2" fill="#39ff14" />
<rect x="80" y="122" width="2" height="2" fill="#39ff14" />
<rect x="82" y="122" width="2" height="2" fill="#39ff14" />
</svg>