<?xml version="1.0" encoding="utf-8"?>
<svg xmlns="http://www.w3.org/2000/svg" width="104" height="104" viewBox="0 0 104 104">
<rect width="100%" height="100%" fill="transparent" />
<rect x="46" y="4" width="3" height="3" fill="#39ff14" />
<rect x="49" y="4" width="3" height="3" fill="#39ff14" />
<rect x="43" y="7" width="3" height="3" fill="#39ff14" />
<rect x="49" y="7" width="3" height="3" fill="#39ff14" />
<rect x="46" y="10" width="3" height="3" fill="#39ff14" />
<rect x="25" y="28" width="3" height="3" fill="#39ff14" />
<rect x="28" y="28" width="3" height="3" fill="#39ff14" />
<rect x="31" y="28" width="3" height="3" fill="#39ff14" />
<rect x="70" y="28" width="3" height="3" fill="#39ff14" />
<rect x="73" y="28" width="3" height="3" fill="#39ff14" />
<rect x="28" y="31" width="3" height="3" fill="#39ff14" />
<rect x="37" y="31" width="3" height="3" fill="#39ff14" />
<rect x="67" y="31" width="3" height="3" fill="#39ff14" />
<rect x="73" y="31" width="3" height="3" fill="#39ff14" />
<rect x="40" y="34" width="3" height="3" fill="#39ff14" />
<rect x="70" y="34" width="3" height="3" fill="#39ff14" />
<rect x="31" y="37" width="3" height="3" fill="#39ff14" />
<rect x="37" y="37" width="3" height="3" fill="#39ff14" />
<rect x="94" y="52" width="3" height="3" fill="#39ff14" />
<rect x="97" y="52" width="3" height="3" fill="#39ff14" />
<rect x="91" y="55" width="3" height="3" fill="#39ff14" />
<rect x="97" y="55" width="3" height="3" fill="#39ff14" />
<rect x="94" y="58" width="3" height="3" fill="#39ff14" />
<rect x="7" y="67" width="3" height="3" fill="#39ff14" />
<rect x="4" y="70" width="3" height="3" fill="#39ff14" />
<rect x="10" y="70" width="3" height="3" fill="#39ff14" />
<rect x="4" y="73" width="3" height="3" fill="#39ff14" />
<rect x="7" y="73" width="3" height="3" fill="#39ff14" />
<rect x="31" y="91" width="3" height="3" fill="#39ff14" />
<rect x="28" y="94" width="3" height="3" fill="#39ff14" />
<rect x="34" y="94" width="3" height="3" fill="#39ff14" />
<rect x="28" y="97" width="3" height="3" fill="#39ff14" />
<rect x="31" y="97" width="3" height="3" fill="#39ff14" />
</svg>