<?xml version="1.0" encoding="utf-8"?>
<svg xmlns="http://www.w3.org/2000/svg" width="112" height="60" viewBox="0 0 112 60">
<rect width="100%" height="100%" fill="transparent" />
<rect x="60" y="4" width="4" height="4" fill="#39ff14" />
<rect x="16" y="8" width="4" height="4" fill="#39ff14" />
<rect x="20" y="8" width="4" height="4" fill="#39ff14" />
<rect x="52" y="8" width="4" height="4" fill="#39ff14" />
<rect x="56" y="8" width="4" height="4" fill="#39ff14" />
<rect x="64" y="8" width="4" height="4" fill="#39ff14" />
<rect x="68" y="8" width="4" height="4" fill="#39ff14" />
<rect x="16" y="12" width="4" height="4" fill="#39ff14" />
<rect x="20" y="12" width="4" height="4" fill="#39ff14" />
<rect x="52" y="12" width="4" height="4" fill="#39ff14" />
<rect x="56" y="12" width="4" height="4" fill="#39ff14" />
<rect x="64" y="12" width="4" height="4" fill="#39ff14" />
<rect x="68" y="12" width="4" height="4" fill="#39ff14" />
<rect x="92" y="12" width="4" height="4" fill="#39ff14" />
<rect x="100" y="12" width="4" height="4" fill="#39ff14" />
<rect x="104" y="12" width="4" height="4" fill="#39ff14" />
<rect x="92" y="16" width="4" height="4" fill="#39ff14" />
<rect x="96" y="16" width="4" height="4" fill="#39ff14" />
<rect x="104" y="16" width="4" height="4" fill="#39ff14" />
<rect x="12" y="24" width="4" height="4" fill="#39ff14" />
<rect x="16" y="24" width="4" height="4" fill="#39ff14" />
<rect x="16" y="28" width="4" height="4" fill="#39ff14" />
<rect x="4" y="32" width="4" height="4" fill="#39ff14" />
<rect x="8" y="32" width="4" height="4" fill="#39ff14" />
<rect x="12" y="32" width="4" height="4" fill="#39ff14" />
<rect x="4" y="36" width="4" height="4" fill="#39ff14" />
<rect x="60" y="36" width="4" height="4" fill="#39ff14" />
<rect x="56" y="40" width="4" height="4" fill="#39ff14" />
<rect x="64" y="40" width="4" height="4" fill="#39ff14" />
<rect x="72" y="40" width="4" height="4" fill="#39ff14" />
<rect x="80" y="40" width="4" height="4" fill="#39ff14" />
<rect x="84" y="40" width="4" height="4" fill="#39ff14" />
<rect x="52" y="44" width="4" height="4" fill="#39ff14" />
<rect x="60" y="44" width="4" height="4" fill="#39ff14" />
<rect x="64" y="44" width="4" height="4" fill="#39ff14" />
<rect x="72" y="44" width="4" height="4" fill="#39ff14" />
<rect x="76" y="44" width="4" height="4" fill="#39ff14" />
<rect x="84" y="44" width="4" height="4" fill="#39ff14" />
<rect x="52" y="48" width="4" height="4" fill="#39ff14" />
<rect x="48" y="52" width="4" height="4" fill="#39ff14" />
<rect x="52" y="52" width="4" height="4" fill="#39ff14" />
</svg>