<?xml version="1.0" encoding="utf-8"?>
<svg xmlns="http://www.w3.org/2000/svg" width="102" height="24" viewBox="0 0 102 24">
<rect width="100%" height="100%" fill="transparent" />
<rect x="46" y="4" width="2" height="2" fill="#39ff14" />
<rect x="52" y="4" width="2" height="2" fill="#39ff14" />
<rect x="14" y="6" width="2" height="2" fill="#39ff14" />
<rect x="16" y="6" width="2" height="2" fill="#39ff14" />
<rect x="18" y="6" width="2" height="2" fill="#39ff14" />
<rect x="20" y="6" width="2" height="2" fill="#39ff14" />
<rect x="44" y="6" width="2" height="2" fill="#39ff14" />
<rect x="74" y="6" width="2" height="2" fill="#39ff14" />
<rect x="76" y="6" width="2" height="2" fill="#39ff14" />
<rect x="78" y="6" width="2" height="2" fill="#39ff14" />
<rect x="80" y="6" width="2" height="2" fill="#39ff14" />
<rect x="14" y="8" width="2" height="2" fill="#39ff14" />
<rect x="22" y="8" width="2" height="2" fill="#39ff14" />
<rect x="44" y="8" width="2" height="2" fill="#39ff14" />
<rect x="52" y="8" width="2" height="2" fill="#39ff14" />
<rect x="74" y="8" width="2" height="2" fill="#39ff14" />
<rect x="82" y="8" width="2" height="2" fill="#39ff14" />
<rect x="14" y="10" width="2" height="2" fill="#39ff14" />
<rect x="32" y="10" width="2" height="2" fill="#39ff14" />
<rect x="34" y="10" width="2" height="2" fill="#39ff14" />
<rect x="44" y="10" width="2" height="2" fill="#39ff14" />
<rect x="46" y="10" width="2" height="2" fill="#39ff14" />
<rect x="48" y="10" width="2" height="2" fill="#39ff14" />
<rect x="50" y="10" width="2" height="2" fill="#39ff14" />
<rect x="74" y="10" width="2" height="2" fill="#39ff14" />
<rect x="92" y="10" width="2" height="2" fill="#39ff14" />
<rect x="94" y="10" width="2" height="2" fill="#39ff14" />
<rect x="6" y="12" width="2" height="2" fill="#39ff14" />
<rect x="8" y="12" width="2" height="2" fill="#39ff14" />
<rect x="16" y="12" width="2" height="2" fill="#39ff14" />
<rect x="22" y="12" width="2" height="2" fill="#39ff14" />
<rect x="30" y="12" width="2" height="2" fill="#39ff14" />
<rect x="32" y="12" width="2" height="2" fill="#39ff14" />
<rect x="34" y="12" width="2" height="2" fill="#39ff14" />
<rect x="36" y="12" width="2" height="2" fill="#39ff14" />
<rect x="60" y="12" width="2" height="2" fill="#39ff14" />
<rect x="62" y="12" width="2" height="2" fill="#39ff14" />
<rect x="76" y="12" width="2" height="2" fill="#39ff14" />
<rect x="82" y="12" width="2" height="2" fill="#39ff14" />
<rect x="90" y="12" width="2" height="2" fill="#39ff14" />
<rect x="92" y="12" width="2" height="2" fill="#39ff14" />
<rect x="94" y="12" width="2" height="2" fill="#39ff14" />
<rect x="96" y="12" width="2" height="2" fill="#39ff14" />
<rect x="4" y="14" width="2" height="2" fill="#39ff14" />
<rect x="10" y="14" width="2" height="2" fill="#39ff14" />
<rect x="28" y="14" width="2" height="2" fill="#39ff14" />
<rect x="30" y="14" width="2" height="2" fill="#39ff14" />
<rect x="34" y="14" width="2" height="2" fill="#39ff14" />
<rect x="36" y="14" width="2" height="2" fill="#39ff14" />
<rect x="58" y="14" width="2" height="2" fill="#39ff14" />
<rect x="60" y="14" width="2" height="2" fill="#39ff14" />
<rect x="64" y="14" width="2" height="2" fill="#39ff14" />
<rect x="66" y="14" width="2" height="2" fill="#39ff14" />
<rect x="88" y="14" width="2" height="2" fill="#39ff14" />
<rect x="90" y="14" width="2" height="2" fill="#39ff14" />
<rect x="94" y="14" width="2" height="2" fill="#39ff14" />
<rect x="96" y="14" width="2" height="2" fill="#39ff14" />
<rect x="4" y="16" width="2" height="2" fill="#39ff14" />
<rect x="8" y="16" width="2" height="2" fill="#39ff14" />
<rect x="30" y="16" width="2" height="2" fill="#39ff14" />
<rect x="32" y="16" width="2" height="2" fill="#39ff14" />
<rect x="60" y="16" width="2" height="2" fill="#39ff14" />
<rect x="62" y="16" width="2" height="2" fill="#39ff14" />
<rect x="64" y="16" width="2" height="2" fill="#39ff14" />
<rect x="66" y="16" width="2" height="2" fill="#39ff14" />
<rect x="90" y="16" width="2" height="2" fill="#39ff14" />
<rect x="92" y="16" width="2" height="2" fill="#39ff14" />
<rect x="6" y="18" width="2" height="2" fill="#39ff14" />
<rect x="62" y="18" width="2" height="2" fill="#39ff14" />
<rect x="64" y="18" width="2" height="2" fill="#39ff14" />
</svg>