<?xml version="1.0" encoding="utf-8"?>
<svg xmlns="http://www.w3.org/2000/svg" width="104" height="104" viewBox="0 0 104 104">
<rect width="100%" height="100%" fill="transparent" />
<rect x="46" y="4" width="2" height="2" fill="#39ff14" />
<rect x="48" y="4" width="2" height="2" fill="#39ff14" />
<rect x="58" y="4" width="2" height="2" fill="#39ff14" />
<rect x="60" y="4" width="2" height="2" fill="#39ff14" />
<rect x="46" y="6" width="2" height="2" fill="#39ff14" />
<rect x="50" y="6" width="2" height="2" fill="#39ff14" />
<rect x="56" y="6" width="2" height="2" fill="#39ff14" />
<rect x="60" y="6" width="2" height="2" fill="#39ff14" />
<rect x="50" y="8" width="2" height="2" fill="#39ff14" />
<rect x="56" y="8" width="2" height="2" fill="#39ff14" />
<rect x="48" y="10" width="2" height="2" fill="#39ff14" />
<rect x="50" y="10" width="2" height="2" fill="#39ff14" />
<rect x="56" y="10" width="2" height="2" fill="#39ff14" />
<rect x="58" y="10" width="2" height="2" fill="#39ff14" />
<rect x="46" y="12" width="2" height="2" fill="#39ff14" />
<rect x="48" y="12" width="2" height="2" fill="#39ff14" />
<rect x="50" y="12" width="2" height="2" fill="#39ff14" />
<rect x="56" y="12" width="2" height="2" fill="#39ff14" />
<rect x="58" y="12" width="2" height="2" fill="#39ff14" />
<rect x="60" y="12" width="2" height="2" fill="#39ff14" />
<rect x="50" y="14" width="2" height="2" fill="#39ff14" />
<rect x="56" y="14" width="2" height="2" fill="#39ff14" />
<rect x="66" y="16" width="2" height="2" fill="#39ff14" />
<rect x="64" y="18" width="2" height="2" fill="#39ff14" />
<rect x="68" y="18" width="2" height="2" fill="#39ff14" />
<rect x="70" y="18" width="2" height="2" fill="#39ff14" />
<rect x="72" y="20" width="2" height="2" fill="#39ff14" />
<rect x="56" y="22" width="2" height="2" fill="#39ff14" />
<rect x="64" y="22" width="2" height="2" fill="#39ff14" />
<rect x="70" y="22" width="2" height="2" fill="#39ff14" />
<rect x="74" y="22" width="2" height="2" fill="#39ff14" />
<rect x="56" y="24" width="2" height="2" fill="#39ff14" />
<rect x="68" y="24" width="2" height="2" fill="#39ff14" />
<rect x="74" y="24" width="2" height="2" fill="#39ff14" />
<rect x="56" y="26" width="2" height="2" fill="#39ff14" />
<rect x="70" y="26" width="2" height="2" fill="#39ff14" />
<rect x="72" y="26" width="2" height="2" fill="#39ff14" />
<rect x="22" y="28" width="2" height="2" fill="#39ff14" />
<rect x="24" y="28" width="2" height="2" fill="#39ff14" />
<rect x="20" y="30" width="2" height="2" fill="#39ff14" />
<rect x="26" y="30" width="2" height="2" fill="#39ff14" />
<rect x="48" y="30" width="2" height="2" fill="#39ff14" />
<rect x="50" y="30" width="2" height="2" fill="#39ff14" />
<rect x="52" y="30" width="2" height="2" fill="#39ff14" />
<rect x="60" y="30" width="2" height="2" fill="#39ff14" />
<rect x="62" y="30" width="2" height="2" fill="#39ff14" />
<rect x="64" y="30" width="2" height="2" fill="#39ff14" />
<rect x="18" y="32" width="2" height="2" fill="#39ff14" />
<rect x="22" y="32" width="2" height="2" fill="#39ff14" />
<rect x="26" y="32" width="2" height="2" fill="#39ff14" />
<rect x="16" y="34" width="2" height="2" fill="#39ff14" />
<rect x="18" y="34" width="2" height="2" fill="#39ff14" />
<rect x="20" y="34" width="2" height="2" fill="#39ff14" />
<rect x="24" y="34" width="2" height="2" fill="#39ff14" />
<rect x="56" y="34" width="2" height="2" fill="#39ff14" />
<rect x="16" y="36" width="2" height="2" fill="#39ff14" />
<rect x="18" y="36" width="2" height="2" fill="#39ff14" />
<rect x="20" y="36" width="2" height="2" fill="#39ff14" />
<rect x="56" y="36" width="2" height="2" fill="#39ff14" />
<rect x="56" y="38" width="2" height="2" fill="#39ff14" />
<rect x="28" y="40" width="2" height="2" fill="#39ff14" />
<rect x="30" y="40" width="2" height="2" fill="#39ff14" />
<rect x="32" y="40" width="2" height="2" fill="#39ff14" />
<rect x="4" y="42" width="2" height="2" fill="#39ff14" />
<rect x="6" y="42" width="2" height="2" fill="#39ff14" />
<rect x="12" y="42" width="2" height="2" fill="#39ff14" />
<rect x="46" y="42" width="2" height="2" fill="#39ff14" />
<rect x="48" y="42" width="2" height="2" fill="#39ff14" />
<rect x="50" y="42" width="2" height="2" fill="#39ff14" />
<rect x="4" y="44" width="2" height="2" fill="#39ff14" />
<rect x="10" y="44" width="2" height="2" fill="#39ff14" />
<rect x="12" y="44" width="2" height="2" fill="#39ff14" />
<rect x="24" y="44" width="2" height="2" fill="#39ff14" />
<rect x="36" y="44" width="2" height="2" fill="#39ff14" />
<rect x="6" y="46" width="2" height="2" fill="#39ff14" />
<rect x="8" y="46" width="2" height="2" fill="#39ff14" />
<rect x="10" y="46" width="2" height="2" fill="#39ff14" />
<rect x="12" y="46" width="2" height="2" fill="#39ff14" />
<rect x="14" y="46" width="2" height="2" fill="#39ff14" />
<rect x="24" y="46" width="2" height="2" fill="#39ff14" />
<rect x="36" y="46" width="2" height="2" fill="#39ff14" />
<rect x="42" y="46" width="2" height="2" fill="#39ff14" />
<rect x="54" y="46" width="2" height="2" fill="#39ff14" />
<rect x="90" y="46" width="2" height="2" fill="#39ff14" />
<rect x="96" y="46" width="2" height="2" fill="#39ff14" />
<rect x="98" y="46" width="2" height="2" fill="#39ff14" />
<rect x="24" y="48" width="2" height="2" fill="#39ff14" />
<rect x="36" y="48" width="2" height="2" fill="#39ff14" />
<rect x="42" y="48" width="2" height="2" fill="#39ff14" />
<rect x="54" y="48" width="2" height="2" fill="#39ff14" />
<rect x="90" y="48" width="2" height="2" fill="#39ff14" />
<rect x="92" y="48" width="2" height="2" fill="#39ff14" />
<rect x="98" y="48" width="2" height="2" fill="#39ff14" />
<rect x="42" y="50" width="2" height="2" fill="#39ff14" />
<rect x="54" y="50" width="2" height="2" fill="#39ff14" />
<rect x="70" y="50" width="2" height="2" fill="#39ff14" />
<rect x="72" y="50" width="2" height="2" fill="#39ff14" />
<rect x="74" y="50" width="2" height="2" fill="#39ff14" />
<rect x="88" y="50" width="2" height="2" fill="#39ff14" />
<rect x="90" y="50" width="2" height="2" fill="#39ff14" />
<rect x="92" y="50" width="2" height="2" fill="#39ff14" />
<rect x="94" y="50" width="2" height="2" fill="#39ff14" />
<rect x="96" y="50" width="2" height="2" fill="#39ff14" />
<rect x="6" y="52" width="2" height="2" fill="#39ff14" />
<rect x="8" y="52" width="2" height="2" fill="#39ff14" />
<rect x="10" y="52" width="2" height="2" fill="#39ff14" />
<rect x="12" y="52" width="2" height="2" fill="#39ff14" />
<rect x="14" y="52" width="2" height="2" fill="#39ff14" />
<rect x="28" y="52" width="2" height="2" fill="#39ff14" />
<rect x="30" y="52" width="2" height="2" fill="#39ff14" />
<rect x="32" y="52" width="2" height="2" fill="#39ff14" />
<rect x="4" y="54" width="2" height="2" fill="#39ff14" />
<rect x="10" y="54" width="2" height="2" fill="#39ff14" />
<rect x="12" y="54" width="2" height="2" fill="#39ff14" />
<rect x="46" y="54" width="2" height="2" fill="#39ff14" />
<rect x="48" y="54" width="2" height="2" fill="#39ff14" />
<rect x="50" y="54" width="2" height="2" fill="#39ff14" />
<rect x="66" y="54" width="2" height="2" fill="#39ff14" />
<rect x="78" y="54" width="2" height="2" fill="#39ff14" />
<rect x="4" y="56" width="2" height="2" fill="#39ff14" />
<rect x="6" y="56" width="2" height="2" fill="#39ff14" />
<rect x="12" y="56" width="2" height="2" fill="#39ff14" />
<rect x="66" y="56" width="2" height="2" fill="#39ff14" />
<rect x="78" y="56" width="2" height="2" fill="#39ff14" />
<rect x="88" y="56" width="2" height="2" fill="#39ff14" />
<rect x="90" y="56" width="2" height="2" fill="#39ff14" />
<rect x="92" y="56" width="2" height="2" fill="#39ff14" />
<rect x="94" y="56" width="2" height="2" fill="#39ff14" />
<rect x="96" y="56" width="2" height="2" fill="#39ff14" />
<rect x="66" y="58" width="2" height="2" fill="#39ff14" />
<rect x="78" y="58" width="2" height="2" fill="#39ff14" />
<rect x="90" y="58" width="2" height="2" fill="#39ff14" />
<rect x="92" y="58" width="2" height="2" fill="#39ff14" />
<rect x="98" y="58" width="2" height="2" fill="#39ff14" />
<rect x="90" y="60" width="2" height="2" fill="#39ff14" />
<rect x="96" y="60" width="2" height="2" fill="#39ff14" />
<rect x="98" y="60" width="2" height="2" fill="#39ff14" />
<rect x="70" y="62" width="2" height="2" fill="#39ff14" />
<rect x="72" y="62" width="2" height="2" fill="#39ff14" />
<rect x="74" y="62" width="2" height="2" fill="#39ff14" />
<rect x="82" y="64" width="2" height="2" fill="#39ff14" />
<rect x="84" y="64" width="2" height="2" fill="#39ff14" />
<rect x="80" y="66" width="2" height="2" fill="#39ff14" />
<rect x="82" y="66" width="2" height="2" fill="#39ff14" />
<rect x="84" y="66" width="2" height="2" fill="#39ff14" />
<rect x="78" y="68" width="2" height="2" fill="#39ff14" />
<rect x="82" y="68" width="2" height="2" fill="#39ff14" />
<rect x="84" y="68" width="2" height="2" fill="#39ff14" />
<rect x="76" y="70" width="2" height="2" fill="#39ff14" />
<rect x="80" y="70" width="2" height="2" fill="#39ff14" />
<rect x="44" y="72" width="2" height="2" fill="#39ff14" />
<rect x="46" y="72" width="2" height="2" fill="#39ff14" />
<rect x="48" y="72" width="2" height="2" fill="#39ff14" />
<rect x="76" y="72" width="2" height="2" fill="#39ff14" />
<rect x="82" y="72" width="2" height="2" fill="#39ff14" />
<rect x="78" y="74" width="2" height="2" fill="#39ff14" />
<rect x="80" y="74" width="2" height="2" fill="#39ff14" />
<rect x="30" y="76" width="2" height="2" fill="#39ff14" />
<rect x="32" y="76" width="2" height="2" fill="#39ff14" />
<rect x="42" y="76" width="2" height="2" fill="#39ff14" />
<rect x="48" y="76" width="2" height="2" fill="#39ff14" />
<rect x="28" y="78" width="2" height="2" fill="#39ff14" />
<rect x="34" y="78" width="2" height="2" fill="#39ff14" />
<rect x="28" y="80" width="2" height="2" fill="#39ff14" />
<rect x="32" y="80" width="2" height="2" fill="#39ff14" />
<rect x="36" y="80" width="2" height="2" fill="#39ff14" />
<rect x="30" y="82" width="2" height="2" fill="#39ff14" />
<rect x="36" y="82" width="2" height="2" fill="#39ff14" />
<rect x="38" y="84" width="2" height="2" fill="#39ff14" />
<rect x="32" y="86" width="2" height="2" fill="#39ff14" />
<rect x="36" y="86" width="2" height="2" fill="#39ff14" />
<rect x="46" y="88" width="2" height="2" fill="#39ff14" />
<rect x="52" y="88" width="2" height="2" fill="#39ff14" />
<rect x="42" y="90" width="2" height="2" fill="#39ff14" />
<rect x="44" y="90" width="2" height="2" fill="#39ff14" />
<rect x="46" y="90" width="2" height="2" fill="#39ff14" />
<rect x="52" y="90" width="2" height="2" fill="#39ff14" />
<rect x="54" y="90" width="2" height="2" fill="#39ff14" />
<rect x="56" y="90" width="2" height="2" fill="#39ff14" />
<rect x="44" y="92" width="2" height="2" fill="#39ff14" />
<rect x="46" y="92" width="2" height="2" fill="#39ff14" />
<rect x="52" y="92" width="2" height="2" fill="#39ff14" />
<rect x="54" y="92" width="2" height="2" fill="#39ff14" />
<rect x="46" y="94" width="2" height="2" fill="#39ff14" />
<rect x="52" y="94" width="2" height="2" fill="#39ff14" />
<rect x="42" y="96" width="2" height="2" fill="#39ff14" />
<rect x="46" y="96" width="2" height="2" fill="#39ff14" />
<rect x="52" y="96" width="2" height="2" fill="#39ff14" />
<rect x="56" y="96" width="2" height="2" fill="#39ff14" />
<rect x="42" y="98" width="2" height="2" fill="#39ff14" />
<rect x="44" y="98" width="2" height="2" fill="#39ff14" />
<rect x="54" y="98" width="2" height="2" fill="#39ff14" />
<rect x="56" y="98" width="2" height="2" fill="#39ff14" />
</svg>