<?xml version="1.0" encoding="utf-8"?>
<svg xmlns="http://www.w3.org/2000/svg" width="63" height="69" viewBox="0 0 63 69">
<rect width="100%" height="100%" fill="transparent" />
<rect x="56" y="4" width="1" height="1" fill="#39ff14" />
<rect x="57" y="4" width="1" height="1" fill="#39ff14" />
<rect x="52" y="5" width="1" height="1" fill="#39ff14" />
<rect x="53" y="5" width="1" height="1" fill="#39ff14" />
<rect x="56" y="5" width="1" height="1" fill="#39ff14" />
<rect x="57" y="5" width="1" height="1" fill="#39ff14" />
<rect x="52" y="6" width="1" height="1" fill="#39ff14" />
<rect x="53" y="6" width="1" height="1" fill="#39ff14" />
<rect x="44" y="10" width="1" height="1" fill="#39ff14" />
<rect x="45" y="10" width="1" height="1" fill="#39ff14" />
<rect x="44" y="11" width="1" height="1" fill="#39ff14" />
<rect x="45" y="11" width="1" height="1" fill="#39ff14" />
<rect x="55" y="12" width="1" height="1" fill="#39ff14" />
<rect x="56" y="12" width="1" height="1" fill="#39ff14" />
<rect x="38" y="13" width="1" height="1" fill="#39ff14" />
<rect x="55" y="13" width="1" height="1" fill="#39ff14" />
<rect x="57" y="13" width="1" height="1" fill="#39ff14" />
<rect x="37" y="14" width="1" height="1" fill="#39ff14" />
<rect x="39" y="14" width="1" height="1" fill="#39ff14" />
<rect x="51" y="14" width="1" height="1" fill="#39ff14" />
<rect x="52" y="14" width="1" height="1" fill="#39ff14" />
<rect x="56" y="14" width="1" height="1" fill="#39ff14" />
<rect x="58" y="14" width="1" height="1" fill="#39ff14" />
<rect x="38" y="15" width="1" height="1" fill="#39ff14" />
<rect x="39" y="15" width="1" height="1" fill="#39ff14" />
<rect x="50" y="15" width="1" height="1" fill="#39ff14" />
<rect x="52" y="15" width="1" height="1" fill="#39ff14" />
<rect x="57" y="15" width="1" height="1" fill="#39ff14" />
<rect x="51" y="16" width="1" height="1" fill="#39ff14" />
<rect x="38" y="18" width="1" height="1" fill="#39ff14" />
<rect x="56" y="18" width="1" height="1" fill="#39ff14" />
<rect x="57" y="18" width="1" height="1" fill="#39ff14" />
<rect x="58" y="18" width="1" height="1" fill="#39ff14" />
<rect x="37" y="19" width="1" height="1" fill="#39ff14" />
<rect x="39" y="19" width="1" height="1" fill="#39ff14" />
<rect x="56" y="19" width="1" height="1" fill="#39ff14" />
<rect x="38" y="20" width="1" height="1" fill="#39ff14" />
<rect x="39" y="20" width="1" height="1" fill="#39ff14" />
<rect x="57" y="20" width="1" height="1" fill="#39ff14" />
<rect x="31" y="36" width="1" height="1" fill="#39ff14" />
<rect x="30" y="37" width="1" height="1" fill="#39ff14" />
<rect x="32" y="37" width="1" height="1" fill="#39ff14" />
<rect x="31" y="38" width="1" height="1" fill="#39ff14" />
<rect x="32" y="38" width="1" height="1" fill="#39ff14" />
<rect x="31" y="41" width="1" height="1" fill="#39ff14" />
<rect x="30" y="42" width="1" height="1" fill="#39ff14" />
<rect x="32" y="42" width="1" height="1" fill="#39ff14" />
<rect x="31" y="43" width="1" height="1" fill="#39ff14" />
<rect x="32" y="43" width="1" height="1" fill="#39ff14" />
<rect x="11" y="48" width="1" height="1" fill="#39ff14" />
<rect x="16" y="48" width="1" height="1" fill="#39ff14" />
<rect x="10" y="49" width="1" height="1" fill="#39ff14" />
<rect x="12" y="49" width="1" height="1" fill="#39ff14" />
<rect x="15" y="49" width="1" height="1" fill="#39ff14" />
<rect x="17" y="49" width="1" height="1" fill="#39ff14" />
<rect x="11" y="50" width="1" height="1" fill="#39ff14" />
<rect x="12" y="50" width="1" height="1" fill="#39ff14" />
<rect x="16" y="50" width="1" height="1" fill="#39ff14" />
<rect x="17" y="50" width="1" height="1" fill="#39ff14" />
<rect x="4" y="55" width="1" height="1" fill="#39ff14" />
<rect x="5" y="55" width="1" height="1" fill="#39ff14" />
<rect x="4" y="56" width="1" height="1" fill="#39ff14" />
<rect x="6" y="56" width="1" height="1" fill="#39ff14" />
<rect x="5" y="57" width="1" height="1" fill="#39ff14" />
<rect x="7" y="57" width="1" height="1" fill="#39ff14" />
<rect x="6" y="58" width="1" height="1" fill="#39ff14" />
<rect x="17" y="62" width="1" height="1" fill="#39ff14" />
<rect x="16" y="63" width="1" height="1" fill="#39ff14" />
<rect x="17" y="63" width="1" height="1" fill="#39ff14" />
<rect x="16" y="64" width="1" height="1" fill="#39ff14" />
<rect x="18" y="64" width="1" height="1" fill="#39ff14" />
</svg>