<?xml version="1.0" encoding="utf-8"?>
<svg xmlns="http://www.w3.org/2000/svg" width="116" height="76" viewBox="0 0 116 76">
<rect width="100%" height="100%" fill="transparent" />
<rect x="8" y="4" width="4" height="4" fill="#39ff14" />
<rect x="12" y="4" width="4" height="4" fill="#39ff14" />
<rect x="8" y="8" width="4" height="4" fill="#39ff14" />
<rect x="12" y="8" width="4" height="4" fill="#39ff14" />
<rect x="64" y="16" width="4" height="4" fill="#39ff14" />
<rect x="4" y="20" width="4" height="4" fill="#39ff14" />
<rect x="8" y="20" width="4" height="4" fill="#39ff14" />
<rect x="64" y="20" width="4" height="4" fill="#39ff14" />
<rect x="68" y="20" width="4" height="4" fill="#39ff14" />
<rect x="104" y="20" width="4" height="4" fill="#39ff14" />
<rect x="108" y="20" width="4" height="4" fill="#39ff14" />
<rect x="4" y="24" width="4" height="4" fill="#39ff14" />
<rect x="8" y="24" width="4" height="4" fill="#39ff14" />
<rect x="68" y="24" width="4" height="4" fill="#39ff14" />
<rect x="72" y="24" width="4" height="4" fill="#39ff14" />
<rect x="104" y="24" width="4" height="4" fill="#39ff14" />
<rect x="108" y="24" width="4" height="4" fill="#39ff14" />
<rect x="48" y="28" width="4" height="4" fill="#39ff14" />
<rect x="52" y="28" width="4" height="4" fill="#39ff14" />
<rect x="64" y="28" width="4" height="4" fill="#39ff14" />
<rect x="68" y="28" width="4" height="4" fill="#39ff14" />
<rect x="48" y="44" width="4" height="4" fill="#39ff14" />
<rect x="52" y="44" width="4" height="4" fill="#39ff14" />
<rect x="64" y="44" width="4" height="4" fill="#39ff14" />
<rect x="68" y="44" width="4" height="4" fill="#39ff14" />
<rect x="4" y="48" width="4" height="4" fill="#39ff14" />
<rect x="8" y="48" width="4" height="4" fill="#39ff14" />
<rect x="68" y="48" width="4" height="4" fill="#39ff14" />
<rect x="72" y="48" width="4" height="4" fill="#39ff14" />
<rect x="4" y="52" width="4" height="4" fill="#39ff14" />
<rect x="8" y="52" width="4" height="4" fill="#39ff14" />
<rect x="64" y="52" width="4" height="4" fill="#39ff14" />
<rect x="68" y="52" width="4" height="4" fill="#39ff14" />
<rect x="64" y="56" width="4" height="4" fill="#39ff14" />
<rect x="8" y="64" width="4" height="4" fill="#39ff14" />
<rect x="12" y="64" width="4" height="4" fill="#39ff14" />
<rect x="8" y="68" width="4" height="4" fill="#39ff14" />
<rect x="12" y="68" width="4" height="4" fill="#39ff14" />
</svg>