<?xml version="1.0" encoding="utf-8"?>
<svg xmlns="http://www.w3.org/2000/svg" width="106" height="40" viewBox="0 0 106 40">
<rect width="100%" height="100%" fill="transparent" />
<rect x="38" y="4" width="2" height="2" fill="#39ff14" />
<rect x="40" y="4" width="2" height="2" fill="#39ff14" />
<rect x="30" y="6" width="2" height="2" fill="#39ff14" />
<rect x="32" y="6" width="2" height="2" fill="#39ff14" />
<rect x="42" y="6" width="2" height="2" fill="#39ff14" />
<rect x="28" y="8" width="2" height="2" fill="#39ff14" />
<rect x="30" y="8" width="2" height="2" fill="#39ff14" />
<rect x="32" y="8" width="2" height="2" fill="#39ff14" />
<rect x="36" y="8" width="2" height="2" fill="#39ff14" />
<rect x="4" y="10" width="2" height="2" fill="#39ff14" />
<rect x="8" y="10" width="2" height="2" fill="#39ff14" />
<rect x="10" y="10" width="2" height="2" fill="#39ff14" />
<rect x="16" y="10" width="2" height="2" fill="#39ff14" />
<rect x="18" y="10" width="2" height="2" fill="#39ff14" />
<rect x="26" y="10" width="2" height="2" fill="#39ff14" />
<rect x="34" y="10" width="2" height="2" fill="#39ff14" />
<rect x="36" y="10" width="2" height="2" fill="#39ff14" />
<rect x="38" y="10" width="2" height="2" fill="#39ff14" />
<rect x="40" y="10" width="2" height="2" fill="#39ff14" />
<rect x="44" y="10" width="2" height="2" fill="#39ff14" />
<rect x="48" y="10" width="2" height="2" fill="#39ff14" />
<rect x="58" y="10" width="2" height="2" fill="#39ff14" />
<rect x="60" y="10" width="2" height="2" fill="#39ff14" />
<rect x="76" y="10" width="2" height="2" fill="#39ff14" />
<rect x="78" y="10" width="2" height="2" fill="#39ff14" />
<rect x="4" y="12" width="2" height="2" fill="#39ff14" />
<rect x="14" y="12" width="2" height="2" fill="#39ff14" />
<rect x="16" y="12" width="2" height="2" fill="#39ff14" />
<rect x="22" y="12" width="2" height="2" fill="#39ff14" />
<rect x="40" y="12" width="2" height="2" fill="#39ff14" />
<rect x="44" y="12" width="2" height="2" fill="#39ff14" />
<rect x="46" y="12" width="2" height="2" fill="#39ff14" />
<rect x="48" y="12" width="2" height="2" fill="#39ff14" />
<rect x="58" y="12" width="2" height="2" fill="#39ff14" />
<rect x="68" y="12" width="2" height="2" fill="#39ff14" />
<rect x="70" y="12" width="2" height="2" fill="#39ff14" />
<rect x="74" y="12" width="2" height="2" fill="#39ff14" />
<rect x="80" y="12" width="2" height="2" fill="#39ff14" />
<rect x="84" y="12" width="2" height="2" fill="#39ff14" />
<rect x="86" y="12" width="2" height="2" fill="#39ff14" />
<rect x="90" y="12" width="2" height="2" fill="#39ff14" />
<rect x="4" y="14" width="2" height="2" fill="#39ff14" />
<rect x="8" y="14" width="2" height="2" fill="#39ff14" />
<rect x="10" y="14" width="2" height="2" fill="#39ff14" />
<rect x="20" y="14" width="2" height="2" fill="#39ff14" />
<rect x="22" y="14" width="2" height="2" fill="#39ff14" />
<rect x="26" y="14" width="2" height="2" fill="#39ff14" />
<rect x="28" y="14" width="2" height="2" fill="#39ff14" />
<rect x="38" y="14" width="2" height="2" fill="#39ff14" />
<rect x="62" y="14" width="2" height="2" fill="#39ff14" />
<rect x="70" y="14" width="2" height="2" fill="#39ff14" />
<rect x="74" y="14" width="2" height="2" fill="#39ff14" />
<rect x="78" y="14" width="2" height="2" fill="#39ff14" />
<rect x="80" y="14" width="2" height="2" fill="#39ff14" />
<rect x="84" y="14" width="2" height="2" fill="#39ff14" />
<rect x="88" y="14" width="2" height="2" fill="#39ff14" />
<rect x="90" y="14" width="2" height="2" fill="#39ff14" />
<rect x="16" y="16" width="2" height="2" fill="#39ff14" />
<rect x="32" y="16" width="2" height="2" fill="#39ff14" />
<rect x="60" y="16" width="2" height="2" fill="#39ff14" />
<rect x="62" y="16" width="2" height="2" fill="#39ff14" />
<rect x="74" y="16" width="2" height="2" fill="#39ff14" />
<rect x="80" y="16" width="2" height="2" fill="#39ff14" />
<rect x="84" y="16" width="2" height="2" fill="#39ff14" />
<rect x="92" y="16" width="2" height="2" fill="#39ff14" />
<rect x="94" y="16" width="2" height="2" fill="#39ff14" />
<rect x="14" y="18" width="2" height="2" fill="#39ff14" />
<rect x="34" y="18" width="2" height="2" fill="#39ff14" />
<rect x="38" y="18" width="2" height="2" fill="#39ff14" />
<rect x="48" y="18" width="2" height="2" fill="#39ff14" />
<rect x="50" y="18" width="2" height="2" fill="#39ff14" />
<rect x="52" y="18" width="2" height="2" fill="#39ff14" />
<rect x="60" y="18" width="2" height="2" fill="#39ff14" />
<rect x="70" y="18" width="2" height="2" fill="#39ff14" />
<rect x="76" y="18" width="2" height="2" fill="#39ff14" />
<rect x="80" y="18" width="2" height="2" fill="#39ff14" />
<rect x="84" y="18" width="2" height="2" fill="#39ff14" />
<rect x="86" y="18" width="2" height="2" fill="#39ff14" />
<rect x="88" y="18" width="2" height="2" fill="#39ff14" />
<rect x="96" y="18" width="2" height="2" fill="#39ff14" />
<rect x="14" y="20" width="2" height="2" fill="#39ff14" />
<rect x="34" y="20" width="2" height="2" fill="#39ff14" />
<rect x="38" y="20" width="2" height="2" fill="#39ff14" />
<rect x="48" y="20" width="2" height="2" fill="#39ff14" />
<rect x="50" y="20" width="2" height="2" fill="#39ff14" />
<rect x="52" y="20" width="2" height="2" fill="#39ff14" />
<rect x="56" y="20" width="2" height="2" fill="#39ff14" />
<rect x="58" y="20" width="2" height="2" fill="#39ff14" />
<rect x="62" y="20" width="2" height="2" fill="#39ff14" />
<rect x="68" y="20" width="2" height="2" fill="#39ff14" />
<rect x="70" y="20" width="2" height="2" fill="#39ff14" />
<rect x="74" y="20" width="2" height="2" fill="#39ff14" />
<rect x="78" y="20" width="2" height="2" fill="#39ff14" />
<rect x="86" y="20" width="2" height="2" fill="#39ff14" />
<rect x="92" y="20" width="2" height="2" fill="#39ff14" />
<rect x="94" y="20" width="2" height="2" fill="#39ff14" />
<rect x="98" y="20" width="2" height="2" fill="#39ff14" />
<rect x="16" y="22" width="2" height="2" fill="#39ff14" />
<rect x="32" y="22" width="2" height="2" fill="#39ff14" />
<rect x="60" y="22" width="2" height="2" fill="#39ff14" />
<rect x="62" y="22" width="2" height="2" fill="#39ff14" />
<rect x="66" y="22" width="2" height="2" fill="#39ff14" />
<rect x="74" y="22" width="2" height="2" fill="#39ff14" />
<rect x="76" y="22" width="2" height="2" fill="#39ff14" />
<rect x="86" y="22" width="2" height="2" fill="#39ff14" />
<rect x="88" y="22" width="2" height="2" fill="#39ff14" />
<rect x="98" y="22" width="2" height="2" fill="#39ff14" />
<rect x="4" y="24" width="2" height="2" fill="#39ff14" />
<rect x="8" y="24" width="2" height="2" fill="#39ff14" />
<rect x="10" y="24" width="2" height="2" fill="#39ff14" />
<rect x="20" y="24" width="2" height="2" fill="#39ff14" />
<rect x="22" y="24" width="2" height="2" fill="#39ff14" />
<rect x="26" y="24" width="2" height="2" fill="#39ff14" />
<rect x="28" y="24" width="2" height="2" fill="#39ff14" />
<rect x="38" y="24" width="2" height="2" fill="#39ff14" />
<rect x="60" y="24" width="2" height="2" fill="#39ff14" />
<rect x="78" y="24" width="2" height="2" fill="#39ff14" />
<rect x="80" y="24" width="2" height="2" fill="#39ff14" />
<rect x="84" y="24" width="2" height="2" fill="#39ff14" />
<rect x="88" y="24" width="2" height="2" fill="#39ff14" />
<rect x="92" y="24" width="2" height="2" fill="#39ff14" />
<rect x="94" y="24" width="2" height="2" fill="#39ff14" />
<rect x="98" y="24" width="2" height="2" fill="#39ff14" />
<rect x="100" y="24" width="2" height="2" fill="#39ff14" />
<rect x="4" y="26" width="2" height="2" fill="#39ff14" />
<rect x="14" y="26" width="2" height="2" fill="#39ff14" />
<rect x="16" y="26" width="2" height="2" fill="#39ff14" />
<rect x="22" y="26" width="2" height="2" fill="#39ff14" />
<rect x="40" y="26" width="2" height="2" fill="#39ff14" />
<rect x="44" y="26" width="2" height="2" fill="#39ff14" />
<rect x="46" y="26" width="2" height="2" fill="#39ff14" />
<rect x="48" y="26" width="2" height="2" fill="#39ff14" />
<rect x="66" y="26" width="2" height="2" fill="#39ff14" />
<rect x="74" y="26" width="2" height="2" fill="#39ff14" />
<rect x="82" y="26" width="2" height="2" fill="#39ff14" />
<rect x="84" y="26" width="2" height="2" fill="#39ff14" />
<rect x="88" y="26" width="2" height="2" fill="#39ff14" />
<rect x="94" y="26" width="2" height="2" fill="#39ff14" />
<rect x="98" y="26" width="2" height="2" fill="#39ff14" />
<rect x="4" y="28" width="2" height="2" fill="#39ff14" />
<rect x="8" y="28" width="2" height="2" fill="#39ff14" />
<rect x="10" y="28" width="2" height="2" fill="#39ff14" />
<rect x="16" y="28" width="2" height="2" fill="#39ff14" />
<rect x="18" y="28" width="2" height="2" fill="#39ff14" />
<rect x="26" y="28" width="2" height="2" fill="#39ff14" />
<rect x="34" y="28" width="2" height="2" fill="#39ff14" />
<rect x="36" y="28" width="2" height="2" fill="#39ff14" />
<rect x="38" y="28" width="2" height="2" fill="#39ff14" />
<rect x="40" y="28" width="2" height="2" fill="#39ff14" />
<rect x="44" y="28" width="2" height="2" fill="#39ff14" />
<rect x="48" y="28" width="2" height="2" fill="#39ff14" />
<rect x="64" y="28" width="2" height="2" fill="#39ff14" />
<rect x="68" y="28" width="2" height="2" fill="#39ff14" />
<rect x="76" y="28" width="2" height="2" fill="#39ff14" />
<rect x="78" y="28" width="2" height="2" fill="#39ff14" />
<rect x="88" y="28" width="2" height="2" fill="#39ff14" />
<rect x="94" y="28" width="2" height="2" fill="#39ff14" />
<rect x="98" y="28" width="2" height="2" fill="#39ff14" />
<rect x="28" y="30" width="2" height="2" fill="#39ff14" />
<rect x="30" y="30" width="2" height="2" fill="#39ff14" />
<rect x="32" y="30" width="2" height="2" fill="#39ff14" />
<rect x="36" y="30" width="2" height="2" fill="#39ff14" />
<rect x="66" y="30" width="2" height="2" fill="#39ff14" />
<rect x="78" y="30" width="2" height="2" fill="#39ff14" />
<rect x="82" y="30" width="2" height="2" fill="#39ff14" />
<rect x="84" y="30" width="2" height="2" fill="#39ff14" />
<rect x="86" y="30" width="2" height="2" fill="#39ff14" />
<rect x="96" y="30" width="2" height="2" fill="#39ff14" />
<rect x="30" y="32" width="2" height="2" fill="#39ff14" />
<rect x="32" y="32" width="2" height="2" fill="#39ff14" />
<rect x="42" y="32" width="2" height="2" fill="#39ff14" />
<rect x="78" y="32" width="2" height="2" fill="#39ff14" />
<rect x="82" y="32" width="2" height="2" fill="#39ff14" />
<rect x="38" y="34" width="2" height="2" fill="#39ff14" />
<rect x="40" y="34" width="2" height="2" fill="#39ff14" />
<rect x="80" y="34" width="2" height="2" fill="#39ff14" />
</svg>