<?xml version="1.0" encoding="utf-8"?>
<svg xmlns="http://www.w3.org/2000/svg" width="98" height="118" viewBox="0 0 98 118">
<rect width="100%" height="100%" fill="transparent" />
<rect x="24" y="4" width="10" height="10" fill="#39ff14" />
<rect x="4" y="14" width="10" height="10" fill="#39ff14" />
<rect x="14" y="14" width="10" height="10" fill="#39ff14" />
<rect x="4" y="24" width="10" height="10" fill="#39ff14" />
<rect x="34" y="24" width="10" height="10" fill="#39ff14" />
<rect x="44" y="24" width="10" height="10" fill="#39ff14" />
<rect x="54" y="24" width="10" height="10" fill="#39ff14" />
<rect x="84" y="24" width="10" height="10" fill="#39ff14" />
<rect x="4" y="34" width="10" height="10" fill="#39ff14" />
<rect x="54" y="34" width="10" height="10" fill="#39ff14" />
<rect x="64" y="34" width="10" height="10" fill="#39ff14" />
<rect x="74" y="34" width="10" height="10" fill="#39ff14" />
<rect x="14" y="44" width="10" height="10" fill="#39ff14" />
<rect x="24" y="44" width="10" height="10" fill="#39ff14" />
<rect x="34" y="44" width="10" height="10" fill="#39ff14" />
<rect x="64" y="44" width="10" height="10" fill="#39ff14" />
<rect x="74" y="44" width="10" height="10" fill="#39ff14" />
<rect x="14" y="64" width="10" height="10" fill="#39ff14" />
<rect x="24" y="64" width="10" height="10" fill="#39ff14" />
<rect x="34" y="64" width="10" height="10" fill="#39ff14" />
<rect x="64" y="64" width="10" height="10" fill="#39ff14" />
<rect x="74" y="64" width="10" height="10" fill="#39ff14" />
<rect x="4" y="74" width="10" height="10" fill="#39ff14" />
<rect x="54" y="74" width="10" height="10" fill="#39ff14" />
<rect x="64" y="74" width="10" height="10" fill="#39ff14" />
<rect x="74" y="74" width="10" height="10" fill="#39ff14" />
<rect x="4" y="84" width="10" height="10" fill="#39ff14" />
<rect x="34" y="84" width="10" height="10" fill="#39ff14" />
<rect x="44" y="84" width="10" height="10" fill="#39ff14" />
<rect x="54" y="84" width="10" height="10" fill="#39ff14" />
<rect x="84" y="84" width="10" height="10" fill="#39ff14" />
<rect x="4" y="94" width="10" height="10" fill="#39ff14" />
<rect x="14" y="94" width="10" height="10" fill="#39ff14" />
<rect x="24" y="104" width="10" height="10" fill="#39ff14" />
</svg>