<?xml version="1.0" encoding="utf-8"?>
<svg xmlns="http://www.w3.org/2000/svg" width="80" height="40" viewBox="0 0 80 40">
<rect width="100%" height="100%" fill="transparent" />
<rect x="34" y="4" width="2" height="2" fill="#4aff6c" />
<rect x="38" y="4" width="2" height="2" fill="#4aff6c" />
<rect x="70" y="4" width="2" height="2" fill="#4aff6c" />
<rect x="34" y="6" width="2" height="2" fill="#4aff6c" />
<rect x="36" y="6" width="2" height="2" fill="#4aff6c" />
<rect x="68" y="6" width="2" height="2" fill="#4aff6c" />
<rect x="72" y="6" width="2" height="2" fill="#4aff6c" />
<rect x="36" y="8" width="2" height="2" fill="#4aff6c" />
<rect x="68" y="8" width="2" height="2" fill="#4aff6c" />
<rect x="74" y="8" width="2" height="2" fill="#4aff6c" />
<rect x="70" y="10" width="2" height="2" fill="#4aff6c" />
<rect x="72" y="10" width="2" height="2" fill="#4aff6c" />
<rect x="4" y="28" width="2" height="2" fill="#4aff6c" />
<rect x="4" y="30" width="2" height="2" fill="#4aff6c" />
<rect x="8" y="30" width="2" height="2" fill="#4aff6c" />
<rect x="4" y="32" width="2" height="2" fill="#4aff6c" />
<rect x="6" y="32" width="2" height="2" fill="#4aff6c" />
<rect x="8" y="32" width="2" height="2" fill="#4aff6c" />
<rect x="8" y="34" width="2" height="2" fill="#4aff6c" />
</svg>