<?xml version="1.0" encoding="utf-8"?>
<svg xmlns="http://www.w3.org/2000/svg" width="88" height="33" viewBox="0 0 88 33">
<rect width="100%" height="100%" fill="transparent" />
<rect x="39" y="4" width="5" height="5" fill="#4aff6c" />
<rect x="44" y="4" width="5" height="5" fill="#4aff6c" />
<rect x="54" y="4" width="5" height="5" fill="#4aff6c" />
<rect x="24" y="9" width="5" height="5" fill="#4aff6c" />
<rect x="29" y="9" width="5" height="5" fill="#4aff6c" />
<rect x="39" y="9" width="5" height="5" fill="#4aff6c" />
<rect x="49" y="9" width="5" height="5" fill="#4aff6c" />
<rect x="54" y="9" width="5" height="5" fill="#4aff6c" />
<rect x="64" y="9" width="5" height="5" fill="#4aff6c" />
<rect x="69" y="9" width="5" height="5" fill="#4aff6c" />
<rect x="74" y="9" width="5" height="5" fill="#4aff6c" />
<rect x="9" y="14" width="5" height="5" fill="#4aff6c" />
<rect x="14" y="14" width="5" height="5" fill="#4aff6c" />
<rect x="19" y="14" width="5" height="5" fill="#4aff6c" />
<rect x="24" y="14" width="5" height="5" fill="#4aff6c" />
<rect x="39" y="14" width="5" height="5" fill="#4aff6c" />
<rect x="44" y="14" width="5" height="5" fill="#4aff6c" />
<rect x="79" y="14" width="5" height="5" fill="#4aff6c" />
<rect x="4" y="19" width="5" height="5" fill="#4aff6c" />
<rect x="29" y="19" width="5" height="5" fill="#4aff6c" />
<rect x="49" y="19" width="5" height="5" fill="#4aff6c" />
<rect x="69" y="19" width="5" height="5" fill="#4aff6c" />
<rect x="74" y="19" width="5" height="5" fill="#4aff6c" />
<rect x="9" y="24" width="5" height="5" fill="#4aff6c" />
<rect x="14" y="24" width="5" height="5" fill="#4aff6c" />
</svg>