<?xml version="1.0" encoding="utf-8"?>
<svg xmlns="http://www.w3.org/2000/svg" width="77" height="86" viewBox="0 0 77 86">
<rect width="100%" height="100%" fill="transparent" />
<rect x="31" y="4" width="3" height="3" fill="#4aff6c" />
<rect x="37" y="4" width="3" height="3" fill="#4aff6c" />
<rect x="40" y="4" width="3" height="3" fill="#4aff6c" />
<rect x="55" y="4" width="3" height="3" fill="#4aff6c" />
<rect x="31" y="7" width="3" height="3" fill="#4aff6c" />
<rect x="34" y="7" width="3" height="3" fill="#4aff6c" />
<rect x="40" y="7" width="3" height="3" fill="#4aff6c" />
<rect x="52" y="7" width="3" height="3" fill="#4aff6c" />
<rect x="58" y="7" width="3" height="3" fill="#4aff6c" />
<rect x="52" y="10" width="3" height="3" fill="#4aff6c" />
<rect x="58" y="10" width="3" height="3" fill="#4aff6c" />
<rect x="25" y="13" width="3" height="3" fill="#4aff6c" />
<rect x="28" y="13" width="3" height="3" fill="#4aff6c" />
<rect x="31" y="13" width="3" height="3" fill="#4aff6c" />
<rect x="34" y="13" width="3" height="3" fill="#4aff6c" />
<rect x="37" y="13" width="3" height="3" fill="#4aff6c" />
<rect x="49" y="13" width="3" height="3" fill="#4aff6c" />
<rect x="52" y="13" width="3" height="3" fill="#4aff6c" />
<rect x="58" y="13" width="3" height="3" fill="#4aff6c" />
<rect x="61" y="13" width="3" height="3" fill="#4aff6c" />
<rect x="64" y="13" width="3" height="3" fill="#4aff6c" />
<rect x="22" y="16" width="3" height="3" fill="#4aff6c" />
<rect x="31" y="16" width="3" height="3" fill="#4aff6c" />
<rect x="40" y="16" width="3" height="3" fill="#4aff6c" />
<rect x="67" y="16" width="3" height="3" fill="#4aff6c" />
<rect x="22" y="19" width="3" height="3" fill="#4aff6c" />
<rect x="25" y="19" width="3" height="3" fill="#4aff6c" />
<rect x="37" y="19" width="3" height="3" fill="#4aff6c" />
<rect x="40" y="19" width="3" height="3" fill="#4aff6c" />
<rect x="49" y="19" width="3" height="3" fill="#4aff6c" />
<rect x="52" y="19" width="3" height="3" fill="#4aff6c" />
<rect x="58" y="19" width="3" height="3" fill="#4aff6c" />
<rect x="61" y="19" width="3" height="3" fill="#4aff6c" />
<rect x="64" y="19" width="3" height="3" fill="#4aff6c" />
<rect x="49" y="22" width="3" height="3" fill="#4aff6c" />
<rect x="52" y="22" width="3" height="3" fill="#4aff6c" />
<rect x="58" y="22" width="3" height="3" fill="#4aff6c" />
<rect x="70" y="25" width="3" height="3" fill="#4aff6c" />
<rect x="64" y="28" width="3" height="3" fill="#4aff6c" />
<rect x="67" y="28" width="3" height="3" fill="#4aff6c" />
<rect x="70" y="28" width="3" height="3" fill="#4aff6c" />
<rect x="61" y="31" width="3" height="3" fill="#4aff6c" />
<rect x="61" y="34" width="3" height="3" fill="#4aff6c" />
<rect x="64" y="34" width="3" height="3" fill="#4aff6c" />
<rect x="7" y="37" width="3" height="3" fill="#4aff6c" />
<rect x="10" y="37" width="3" height="3" fill="#4aff6c" />
<rect x="13" y="37" width="3" height="3" fill="#4aff6c" />
<rect x="16" y="37" width="3" height="3" fill="#4aff6c" />
<rect x="19" y="37" width="3" height="3" fill="#4aff6c" />
<rect x="4" y="40" width="3" height="3" fill="#4aff6c" />
<rect x="19" y="40" width="3" height="3" fill="#4aff6c" />
<rect x="19" y="43" width="3" height="3" fill="#4aff6c" />
<rect x="4" y="46" width="3" height="3" fill="#4aff6c" />
<rect x="16" y="46" width="3" height="3" fill="#4aff6c" />
<rect x="10" y="49" width="3" height="3" fill="#4aff6c" />
<rect x="52" y="49" width="3" height="3" fill="#4aff6c" />
<rect x="55" y="49" width="3" height="3" fill="#4aff6c" />
<rect x="49" y="52" width="3" height="3" fill="#4aff6c" />
<rect x="58" y="52" width="3" height="3" fill="#4aff6c" />
<rect x="52" y="55" width="3" height="3" fill="#4aff6c" />
<rect x="55" y="55" width="3" height="3" fill="#4aff6c" />
<rect x="28" y="58" width="3" height="3" fill="#4aff6c" />
<rect x="31" y="58" width="3" height="3" fill="#4aff6c" />
<rect x="25" y="61" width="3" height="3" fill="#4aff6c" />
<rect x="31" y="61" width="3" height="3" fill="#4aff6c" />
<rect x="25" y="64" width="3" height="3" fill="#4aff6c" />
<rect x="22" y="67" width="3" height="3" fill="#4aff6c" />
<rect x="25" y="67" width="3" height="3" fill="#4aff6c" />
<rect x="61" y="70" width="3" height="3" fill="#4aff6c" />
<rect x="64" y="70" width="3" height="3" fill="#4aff6c" />
<rect x="61" y="73" width="3" height="3" fill="#4aff6c" />
<rect x="64" y="76" width="3" height="3" fill="#4aff6c" />
<rect x="67" y="76" width="3" height="3" fill="#4aff6c" />
<rect x="70" y="76" width="3" height="3" fill="#4aff6c" />
<rect x="70" y="79" width="3" height="3" fill="#4aff6c" />
</svg>