<?xml version="1.0" encoding="utf-8"?>
<svg xmlns="http://www.w3.org/2000/svg" width="56" height="80" viewBox="0 0 56 80">
<rect width="100%" height="100%" fill="transparent" />
<rect x="8" y="4" width="4" height="4" fill="#4aff6c" />
<rect x="12" y="8" width="4" height="4" fill="#4aff6c" />
<rect x="4" y="12" width="4" height="4" fill="#4aff6c" />
<rect x="8" y="12" width="4" height="4" fill="#4aff6c" />
<rect x="12" y="12" width="4" height="4" fill="#4aff6c" />
<rect x="28" y="20" width="4" height="4" fill="#4aff6c" />
<rect x="24" y="24" width="4" height="4" fill="#4aff6c" />
<rect x="24" y="28" width="4" height="4" fill="#4aff6c" />
<rect x="28" y="28" width="4" height="4" fill="#4aff6c" />
<rect x="32" y="28" width="4" height="4" fill="#4aff6c" />
<rect x="28" y="40" width="4" height="4" fill="#4aff6c" />
<rect x="44" y="40" width="4" height="4" fill="#4aff6c" />
<rect x="48" y="40" width="4" height="4" fill="#4aff6c" />
<rect x="24" y="44" width="4" height="4" fill="#4aff6c" />
<rect x="32" y="44" width="4" height="4" fill="#4aff6c" />
<rect x="48" y="44" width="4" height="4" fill="#4aff6c" />
<rect x="24" y="48" width="4" height="4" fill="#4aff6c" />
<rect x="28" y="48" width="4" height="4" fill="#4aff6c" />
<rect x="44" y="48" width="4" height="4" fill="#4aff6c" />
<rect x="40" y="52" width="4" height="4" fill="#4aff6c" />
<rect x="24" y="56" width="4" height="4" fill="#4aff6c" />
<rect x="28" y="56" width="4" height="4" fill="#4aff6c" />
<rect x="32" y="56" width="4" height="4" fill="#4aff6c" />
<rect x="36" y="56" width="4" height="4" fill="#4aff6c" />
<rect x="40" y="56" width="4" height="4" fill="#4aff6c" />
<rect x="48" y="56" width="4" height="4" fill="#4aff6c" />
<rect x="24" y="60" width="4" height="4" fill="#4aff6c" />
<rect x="44" y="60" width="4" height="4" fill="#4aff6c" />
<rect x="48" y="60" width="4" height="4" fill="#4aff6c" />
<rect x="28" y="64" width="4" height="4" fill="#4aff6c" />
<rect x="32" y="64" width="4" height="4" fill="#4aff6c" />
<rect x="36" y="64" width="4" height="4" fill="#4aff6c" />
<rect x="36" y="68" width="4" height="4" fill="#4aff6c" />
<rect x="44" y="68" width="4" height="4" fill="#4aff6c" />
<rect x="48" y="68" width="4" height="4" fill="#4aff6c" />
<rect x="40" y="72" width="4" height="4" fill="#4aff6c" />
<rect x="48" y="72" width="4" height="4" fill="#4aff6c" />
</svg>