<?xml version="1.0" encoding="utf-8"?>
<svg xmlns="http://www.w3.org/2000/svg" width="82" height="82" viewBox="0 0 82 82">
<rect width="100%" height="100%" fill="transparent" />
<rect x="26" y="4" width="2" height="2" fill="#4aff6c" />
<rect x="28" y="4" width="2" height="2" fill="#4aff6c" />
<rect x="52" y="4" width="2" height="2" fill="#4aff6c" />
<rect x="54" y="4" width="2" height="2" fill="#4aff6c" />
<rect x="26" y="6" width="2" height="2" fill="#4aff6c" />
<rect x="28" y="6" width="2" height="2" fill="#4aff6c" />
<rect x="52" y="6" width="2" height="2" fill="#4aff6c" />
<rect x="54" y="6" width="2" height="2" fill="#4aff6c" />
<rect x="16" y="12" width="2" height="2" fill="#4aff6c" />
<rect x="64" y="12" width="2" height="2" fill="#4aff6c" />
<rect x="14" y="14" width="2" height="2" fill="#4aff6c" />
<rect x="18" y="14" width="2" height="2" fill="#4aff6c" />
<rect x="30" y="14" width="2" height="2" fill="#4aff6c" />
<rect x="50" y="14" width="2" height="2" fill="#4aff6c" />
<rect x="62" y="14" width="2" height="2" fill="#4aff6c" />
<rect x="66" y="14" width="2" height="2" fill="#4aff6c" />
<rect x="12" y="16" width="2" height="2" fill="#4aff6c" />
<rect x="18" y="16" width="2" height="2" fill="#4aff6c" />
<rect x="30" y="16" width="2" height="2" fill="#4aff6c" />
<rect x="34" y="16" width="2" height="2" fill="#4aff6c" />
<rect x="36" y="16" width="2" height="2" fill="#4aff6c" />
<rect x="44" y="16" width="2" height="2" fill="#4aff6c" />
<rect x="46" y="16" width="2" height="2" fill="#4aff6c" />
<rect x="50" y="16" width="2" height="2" fill="#4aff6c" />
<rect x="62" y="16" width="2" height="2" fill="#4aff6c" />
<rect x="68" y="16" width="2" height="2" fill="#4aff6c" />
<rect x="14" y="18" width="2" height="2" fill="#4aff6c" />
<rect x="16" y="18" width="2" height="2" fill="#4aff6c" />
<rect x="38" y="18" width="2" height="2" fill="#4aff6c" />
<rect x="42" y="18" width="2" height="2" fill="#4aff6c" />
<rect x="64" y="18" width="2" height="2" fill="#4aff6c" />
<rect x="66" y="18" width="2" height="2" fill="#4aff6c" />
<rect x="34" y="20" width="2" height="2" fill="#4aff6c" />
<rect x="38" y="20" width="2" height="2" fill="#4aff6c" />
<rect x="42" y="20" width="2" height="2" fill="#4aff6c" />
<rect x="46" y="20" width="2" height="2" fill="#4aff6c" />
<rect x="36" y="22" width="2" height="2" fill="#4aff6c" />
<rect x="44" y="22" width="2" height="2" fill="#4aff6c" />
<rect x="4" y="26" width="2" height="2" fill="#4aff6c" />
<rect x="6" y="26" width="2" height="2" fill="#4aff6c" />
<rect x="74" y="26" width="2" height="2" fill="#4aff6c" />
<rect x="76" y="26" width="2" height="2" fill="#4aff6c" />
<rect x="4" y="28" width="2" height="2" fill="#4aff6c" />
<rect x="6" y="28" width="2" height="2" fill="#4aff6c" />
<rect x="74" y="28" width="2" height="2" fill="#4aff6c" />
<rect x="76" y="28" width="2" height="2" fill="#4aff6c" />
<rect x="14" y="30" width="2" height="2" fill="#4aff6c" />
<rect x="16" y="30" width="2" height="2" fill="#4aff6c" />
<rect x="64" y="30" width="2" height="2" fill="#4aff6c" />
<rect x="66" y="30" width="2" height="2" fill="#4aff6c" />
<rect x="16" y="34" width="2" height="2" fill="#4aff6c" />
<rect x="20" y="34" width="2" height="2" fill="#4aff6c" />
<rect x="60" y="34" width="2" height="2" fill="#4aff6c" />
<rect x="64" y="34" width="2" height="2" fill="#4aff6c" />
<rect x="16" y="36" width="2" height="2" fill="#4aff6c" />
<rect x="22" y="36" width="2" height="2" fill="#4aff6c" />
<rect x="58" y="36" width="2" height="2" fill="#4aff6c" />
<rect x="64" y="36" width="2" height="2" fill="#4aff6c" />
<rect x="18" y="38" width="2" height="2" fill="#4aff6c" />
<rect x="20" y="38" width="2" height="2" fill="#4aff6c" />
<rect x="60" y="38" width="2" height="2" fill="#4aff6c" />
<rect x="62" y="38" width="2" height="2" fill="#4aff6c" />
<rect x="18" y="42" width="2" height="2" fill="#4aff6c" />
<rect x="20" y="42" width="2" height="2" fill="#4aff6c" />
<rect x="60" y="42" width="2" height="2" fill="#4aff6c" />
<rect x="62" y="42" width="2" height="2" fill="#4aff6c" />
<rect x="16" y="44" width="2" height="2" fill="#4aff6c" />
<rect x="22" y="44" width="2" height="2" fill="#4aff6c" />
<rect x="58" y="44" width="2" height="2" fill="#4aff6c" />
<rect x="64" y="44" width="2" height="2" fill="#4aff6c" />
<rect x="16" y="46" width="2" height="2" fill="#4aff6c" />
<rect x="20" y="46" width="2" height="2" fill="#4aff6c" />
<rect x="60" y="46" width="2" height="2" fill="#4aff6c" />
<rect x="64" y="46" width="2" height="2" fill="#4aff6c" />
<rect x="14" y="50" width="2" height="2" fill="#4aff6c" />
<rect x="16" y="50" width="2" height="2" fill="#4aff6c" />
<rect x="64" y="50" width="2" height="2" fill="#4aff6c" />
<rect x="66" y="50" width="2" height="2" fill="#4aff6c" />
<rect x="4" y="52" width="2" height="2" fill="#4aff6c" />
<rect x="6" y="52" width="2" height="2" fill="#4aff6c" />
<rect x="74" y="52" width="2" height="2" fill="#4aff6c" />
<rect x="76" y="52" width="2" height="2" fill="#4aff6c" />
<rect x="4" y="54" width="2" height="2" fill="#4aff6c" />
<rect x="6" y="54" width="2" height="2" fill="#4aff6c" />
<rect x="74" y="54" width="2" height="2" fill="#4aff6c" />
<rect x="76" y="54" width="2" height="2" fill="#4aff6c" />
<rect x="36" y="58" width="2" height="2" fill="#4aff6c" />
<rect x="44" y="58" width="2" height="2" fill="#4aff6c" />
<rect x="34" y="60" width="2" height="2" fill="#4aff6c" />
<rect x="38" y="60" width="2" height="2" fill="#4aff6c" />
<rect x="42" y="60" width="2" height="2" fill="#4aff6c" />
<rect x="46" y="60" width="2" height="2" fill="#4aff6c" />
<rect x="14" y="62" width="2" height="2" fill="#4aff6c" />
<rect x="16" y="62" width="2" height="2" fill="#4aff6c" />
<rect x="38" y="62" width="2" height="2" fill="#4aff6c" />
<rect x="42" y="62" width="2" height="2" fill="#4aff6c" />
<rect x="64" y="62" width="2" height="2" fill="#4aff6c" />
<rect x="66" y="62" width="2" height="2" fill="#4aff6c" />
<rect x="12" y="64" width="2" height="2" fill="#4aff6c" />
<rect x="18" y="64" width="2" height="2" fill="#4aff6c" />
<rect x="30" y="64" width="2" height="2" fill="#4aff6c" />
<rect x="34" y="64" width="2" height="2" fill="#4aff6c" />
<rect x="36" y="64" width="2" height="2" fill="#4aff6c" />
<rect x="44" y="64" width="2" height="2" fill="#4aff6c" />
<rect x="46" y="64" width="2" height="2" fill="#4aff6c" />
<rect x="50" y="64" width="2" height="2" fill="#4aff6c" />
<rect x="62" y="64" width="2" height="2" fill="#4aff6c" />
<rect x="68" y="64" width="2" height="2" fill="#4aff6c" />
<rect x="14" y="66" width="2" height="2" fill="#4aff6c" />
<rect x="18" y="66" width="2" height="2" fill="#4aff6c" />
<rect x="30" y="66" width="2" height="2" fill="#4aff6c" />
<rect x="50" y="66" width="2" height="2" fill="#4aff6c" />
<rect x="62" y="66" width="2" height="2" fill="#4aff6c" />
<rect x="66" y="66" width="2" height="2" fill="#4aff6c" />
<rect x="16" y="68" width="2" height="2" fill="#4aff6c" />
<rect x="64" y="68" width="2" height="2" fill="#4aff6c" />
<rect x="26" y="74" width="2" height="2" fill="#4aff6c" />
<rect x="28" y="74" width="2" height="2" fill="#4aff6c" />
<rect x="52" y="74" width="2" height="2" fill="#4aff6c" />
<rect x="54" y="74" width="2" height="2" fill="#4aff6c" />
<rect x="26" y="76" width="2" height="2" fill="#4aff6c" />
<rect x="28" y="76" width="2" height="2" fill="#4aff6c" />
<rect x="52" y="76" width="2" height="2" fill="#4aff6c" />
<rect x="54" y="76" width="2" height="2" fill="#4aff6c" />
</svg>