<?xml version="1.0" encoding="utf-8"?>
<svg xmlns="http://www.w3.org/2000/svg" width="80" height="50" viewBox="0 0 80 50">
<rect width="100%" height="100%" fill="transparent" />
<rect x="7" y="4" width="3" height="3" fill="#4aff6c" />
<rect x="10" y="4" width="3" height="3" fill="#4aff6c" />
<rect x="10" y="7" width="3" height="3" fill="#4aff6c" />
<rect x="7" y="10" width="3" height="3" fill="#4aff6c" />
<rect x="7" y="13" width="3" height="3" fill="#4aff6c" />
<rect x="10" y="13" width="3" height="3" fill="#4aff6c" />
<rect x="4" y="31" width="3" height="3" fill="#4aff6c" />
<rect x="16" y="31" width="3" height="3" fill="#4aff6c" />
<rect x="19" y="31" width="3" height="3" fill="#4aff6c" />
<rect x="67" y="31" width="3" height="3" fill="#4aff6c" />
<rect x="4" y="34" width="3" height="3" fill="#4aff6c" />
<rect x="7" y="34" width="3" height="3" fill="#4aff6c" />
<rect x="16" y="34" width="3" height="3" fill="#4aff6c" />
<rect x="19" y="34" width="3" height="3" fill="#4aff6c" />
<rect x="67" y="34" width="3" height="3" fill="#4aff6c" />
<rect x="7" y="37" width="3" height="3" fill="#4aff6c" />
<rect x="10" y="37" width="3" height="3" fill="#4aff6c" />
<rect x="67" y="37" width="3" height="3" fill="#4aff6c" />
<rect x="70" y="37" width="3" height="3" fill="#4aff6c" />
<rect x="73" y="37" width="3" height="3" fill="#4aff6c" />
<rect x="7" y="40" width="3" height="3" fill="#4aff6c" />
<rect x="73" y="40" width="3" height="3" fill="#4aff6c" />
<rect x="4" y="43" width="3" height="3" fill="#4aff6c" />
</svg>