<?xml version="1.0" encoding="utf-8"?>
<svg xmlns="http://www.w3.org/2000/svg" width="89" height="53" viewBox="0 0 89 53">
<rect width="100%" height="100%" fill="transparent" />
<rect x="34" y="4" width="3" height="3" fill="#4aff6c" />
<rect x="37" y="4" width="3" height="3" fill="#4aff6c" />
<rect x="40" y="4" width="3" height="3" fill="#4aff6c" />
<rect x="43" y="4" width="3" height="3" fill="#4aff6c" />
<rect x="34" y="7" width="3" height="3" fill="#4aff6c" />
<rect x="46" y="7" width="3" height="3" fill="#4aff6c" />
<rect x="34" y="10" width="3" height="3" fill="#4aff6c" />
<rect x="7" y="13" width="3" height="3" fill="#4aff6c" />
<rect x="10" y="13" width="3" height="3" fill="#4aff6c" />
<rect x="37" y="13" width="3" height="3" fill="#4aff6c" />
<rect x="46" y="13" width="3" height="3" fill="#4aff6c" />
<rect x="4" y="16" width="3" height="3" fill="#4aff6c" />
<rect x="7" y="16" width="3" height="3" fill="#4aff6c" />
<rect x="13" y="16" width="3" height="3" fill="#4aff6c" />
<rect x="16" y="16" width="3" height="3" fill="#4aff6c" />
<rect x="7" y="19" width="3" height="3" fill="#4aff6c" />
<rect x="10" y="19" width="3" height="3" fill="#4aff6c" />
<rect x="13" y="19" width="3" height="3" fill="#4aff6c" />
<rect x="16" y="19" width="3" height="3" fill="#4aff6c" />
<rect x="28" y="19" width="3" height="3" fill="#4aff6c" />
<rect x="10" y="22" width="3" height="3" fill="#4aff6c" />
<rect x="13" y="22" width="3" height="3" fill="#4aff6c" />
<rect x="25" y="22" width="3" height="3" fill="#4aff6c" />
<rect x="31" y="22" width="3" height="3" fill="#4aff6c" />
<rect x="34" y="22" width="3" height="3" fill="#4aff6c" />
<rect x="61" y="22" width="3" height="3" fill="#4aff6c" />
<rect x="76" y="22" width="3" height="3" fill="#4aff6c" />
<rect x="79" y="22" width="3" height="3" fill="#4aff6c" />
<rect x="82" y="22" width="3" height="3" fill="#4aff6c" />
<rect x="22" y="25" width="3" height="3" fill="#4aff6c" />
<rect x="34" y="25" width="3" height="3" fill="#4aff6c" />
<rect x="61" y="25" width="3" height="3" fill="#4aff6c" />
<rect x="76" y="25" width="3" height="3" fill="#4aff6c" />
<rect x="82" y="25" width="3" height="3" fill="#4aff6c" />
<rect x="10" y="28" width="3" height="3" fill="#4aff6c" />
<rect x="13" y="28" width="3" height="3" fill="#4aff6c" />
<rect x="25" y="28" width="3" height="3" fill="#4aff6c" />
<rect x="31" y="28" width="3" height="3" fill="#4aff6c" />
<rect x="34" y="28" width="3" height="3" fill="#4aff6c" />
<rect x="61" y="28" width="3" height="3" fill="#4aff6c" />
<rect x="76" y="28" width="3" height="3" fill="#4aff6c" />
<rect x="79" y="28" width="3" height="3" fill="#4aff6c" />
<rect x="82" y="28" width="3" height="3" fill="#4aff6c" />
<rect x="7" y="31" width="3" height="3" fill="#4aff6c" />
<rect x="10" y="31" width="3" height="3" fill="#4aff6c" />
<rect x="13" y="31" width="3" height="3" fill="#4aff6c" />
<rect x="16" y="31" width="3" height="3" fill="#4aff6c" />
<rect x="28" y="31" width="3" height="3" fill="#4aff6c" />
<rect x="4" y="34" width="3" height="3" fill="#4aff6c" />
<rect x="7" y="34" width="3" height="3" fill="#4aff6c" />
<rect x="13" y="34" width="3" height="3" fill="#4aff6c" />
<rect x="16" y="34" width="3" height="3" fill="#4aff6c" />
<rect x="7" y="37" width="3" height="3" fill="#4aff6c" />
<rect x="10" y="37" width="3" height="3" fill="#4aff6c" />
<rect x="37" y="37" width="3" height="3" fill="#4aff6c" />
<rect x="46" y="37" width="3" height="3" fill="#4aff6c" />
<rect x="34" y="40" width="3" height="3" fill="#4aff6c" />
<rect x="34" y="43" width="3" height="3" fill="#4aff6c" />
<rect x="46" y="43" width="3" height="3" fill="#4aff6c" />
<rect x="34" y="46" width="3" height="3" fill="#4aff6c" />
<rect x="37" y="46" width="3" height="3" fill="#4aff6c" />
<rect x="40" y="46" width="3" height="3" fill="#4aff6c" />
<rect x="43" y="46" width="3" height="3" fill="#4aff6c" />
</svg>