<?xml version="1.0" encoding="utf-8"?>
<svg xmlns="http://www.w3.org/2000/svg" width="96" height="72" viewBox="0 0 96 72">
<rect width="100%" height="100%" fill="transparent" />
<rect x="80" y="4" width="4" height="4" fill="#4aff6c" />
<rect x="88" y="4" width="4" height="4" fill="#4aff6c" />
<rect x="80" y="8" width="4" height="4" fill="#4aff6c" />
<rect x="84" y="8" width="4" height="4" fill="#4aff6c" />
<rect x="84" y="12" width="4" height="4" fill="#4aff6c" />
<rect x="16" y="28" width="4" height="4" fill="#4aff6c" />
<rect x="12" y="32" width="4" height="4" fill="#4aff6c" />
<rect x="12" y="36" width="4" height="4" fill="#4aff6c" />
<rect x="16" y="36" width="4" height="4" fill="#4aff6c" />
<rect x="20" y="36" width="4" height="4" fill="#4aff6c" />
<rect x="4" y="56" width="4" height="4" fill="#4aff6c" />
<rect x="8" y="56" width="4" height="4" fill="#4aff6c" />
<rect x="24" y="56" width="4" height="4" fill="#4aff6c" />
<rect x="4" y="60" width="4" height="4" fill="#4aff6c" />
<rect x="8" y="60" width="4" height="4" fill="#4aff6c" />
<rect x="24" y="60" width="4" height="4" fill="#4aff6c" />
<rect x="32" y="60" width="4" height="4" fill="#4aff6c" />
<rect x="24" y="64" width="4" height="4" fill="#4aff6c" />
<rect x="28" y="64" width="4" height="4" fill="#4aff6c" />
</svg>