<?xml version="1.0" encoding="utf-8"?>
<svg xmlns="http://www.w3.org/2000/svg" width="65" height="53" viewBox="0 0 65 53">
<rect width="100%" height="100%" fill="transparent" />
<rect x="10" y="4" width="1" height="1" fill="#4aff6c" />
<rect x="11" y="5" width="1" height="1" fill="#4aff6c" />
<rect x="9" y="6" width="1" height="1" fill="#4aff6c" />
<rect x="10" y="6" width="1" height="1" fill="#4aff6c" />
<rect x="11" y="6" width="1" height="1" fill="#4aff6c" />
<rect x="20" y="14" width="1" height="1" fill="#4aff6c" />
<rect x="18" y="15" width="1" height="1" fill="#4aff6c" />
<rect x="20" y="15" width="1" height="1" fill="#4aff6c" />
<rect x="14" y="16" width="1" height="1" fill="#4aff6c" />
<rect x="15" y="16" width="1" height="1" fill="#4aff6c" />
<rect x="19" y="16" width="1" height="1" fill="#4aff6c" />
<rect x="20" y="16" width="1" height="1" fill="#4aff6c" />
<rect x="15" y="17" width="1" height="1" fill="#4aff6c" />
<rect x="16" y="17" width="1" height="1" fill="#4aff6c" />
<rect x="14" y="18" width="1" height="1" fill="#4aff6c" />
<rect x="25" y="18" width="1" height="1" fill="#4aff6c" />
<rect x="27" y="18" width="1" height="1" fill="#4aff6c" />
<rect x="28" y="18" width="1" height="1" fill="#4aff6c" />
<rect x="25" y="19" width="1" height="1" fill="#4aff6c" />
<rect x="26" y="19" width="1" height="1" fill="#4aff6c" />
<rect x="28" y="19" width="1" height="1" fill="#4aff6c" />
<rect x="5" y="25" width="1" height="1" fill="#4aff6c" />
<rect x="5" y="26" width="1" height="1" fill="#4aff6c" />
<rect x="6" y="26" width="1" height="1" fill="#4aff6c" />
<rect x="4" y="27" width="1" height="1" fill="#4aff6c" />
<rect x="6" y="27" width="1" height="1" fill="#4aff6c" />
<rect x="52" y="28" width="1" height="1" fill="#4aff6c" />
<rect x="52" y="29" width="1" height="1" fill="#4aff6c" />
<rect x="53" y="29" width="1" height="1" fill="#4aff6c" />
<rect x="54" y="29" width="1" height="1" fill="#4aff6c" />
<rect x="55" y="30" width="1" height="1" fill="#4aff6c" />
<rect x="54" y="31" width="1" height="1" fill="#4aff6c" />
<rect x="55" y="31" width="1" height="1" fill="#4aff6c" />
<rect x="6" y="36" width="1" height="1" fill="#4aff6c" />
<rect x="4" y="37" width="1" height="1" fill="#4aff6c" />
<rect x="8" y="37" width="1" height="1" fill="#4aff6c" />
<rect x="55" y="37" width="1" height="1" fill="#4aff6c" />
<rect x="9" y="38" width="1" height="1" fill="#4aff6c" />
<rect x="40" y="38" width="1" height="1" fill="#4aff6c" />
<rect x="41" y="38" width="1" height="1" fill="#4aff6c" />
<rect x="42" y="38" width="1" height="1" fill="#4aff6c" />
<rect x="43" y="38" width="1" height="1" fill="#4aff6c" />
<rect x="44" y="38" width="1" height="1" fill="#4aff6c" />
<rect x="56" y="38" width="1" height="1" fill="#4aff6c" />
<rect x="4" y="39" width="1" height="1" fill="#4aff6c" />
<rect x="9" y="39" width="1" height="1" fill="#4aff6c" />
<rect x="39" y="39" width="1" height="1" fill="#4aff6c" />
<rect x="44" y="39" width="1" height="1" fill="#4aff6c" />
<rect x="54" y="39" width="1" height="1" fill="#4aff6c" />
<rect x="55" y="39" width="1" height="1" fill="#4aff6c" />
<rect x="56" y="39" width="1" height="1" fill="#4aff6c" />
<rect x="5" y="40" width="1" height="1" fill="#4aff6c" />
<rect x="6" y="40" width="1" height="1" fill="#4aff6c" />
<rect x="7" y="40" width="1" height="1" fill="#4aff6c" />
<rect x="8" y="40" width="1" height="1" fill="#4aff6c" />
<rect x="9" y="40" width="1" height="1" fill="#4aff6c" />
<rect x="44" y="40" width="1" height="1" fill="#4aff6c" />
<rect x="39" y="41" width="1" height="1" fill="#4aff6c" />
<rect x="43" y="41" width="1" height="1" fill="#4aff6c" />
<rect x="41" y="42" width="1" height="1" fill="#4aff6c" />
<rect x="59" y="45" width="1" height="1" fill="#4aff6c" />
<rect x="60" y="45" width="1" height="1" fill="#4aff6c" />
<rect x="60" y="46" width="1" height="1" fill="#4aff6c" />
<rect x="59" y="47" width="1" height="1" fill="#4aff6c" />
<rect x="59" y="48" width="1" height="1" fill="#4aff6c" />
<rect x="60" y="48" width="1" height="1" fill="#4aff6c" />
</svg>