<?xml version="1.0" encoding="utf-8"?>
<svg xmlns="http://www.w3.org/2000/svg" width="86" height="68" viewBox="0 0 86 68">
<rect width="100%" height="100%" fill="transparent" />
<rect x="70" y="4" width="6" height="6" fill="#4aff6c" />
<rect x="76" y="4" width="6" height="6" fill="#4aff6c" />
<rect x="16" y="10" width="6" height="6" fill="#4aff6c" />
<rect x="22" y="10" width="6" height="6" fill="#4aff6c" />
<rect x="70" y="10" width="6" height="6" fill="#4aff6c" />
<rect x="76" y="10" width="6" height="6" fill="#4aff6c" />
<rect x="16" y="16" width="6" height="6" fill="#4aff6c" />
<rect x="22" y="16" width="6" height="6" fill="#4aff6c" />
<rect x="4" y="34" width="6" height="6" fill="#4aff6c" />
<rect x="70" y="34" width="6" height="6" fill="#4aff6c" />
<rect x="10" y="40" width="6" height="6" fill="#4aff6c" />
<rect x="64" y="40" width="6" height="6" fill="#4aff6c" />
<rect x="76" y="40" width="6" height="6" fill="#4aff6c" />
<rect x="10" y="46" width="6" height="6" fill="#4aff6c" />
<rect x="16" y="46" width="6" height="6" fill="#4aff6c" />
<rect x="64" y="46" width="6" height="6" fill="#4aff6c" />
<rect x="76" y="46" width="6" height="6" fill="#4aff6c" />
<rect x="4" y="52" width="6" height="6" fill="#4aff6c" />
<rect x="10" y="52" width="6" height="6" fill="#4aff6c" />
<rect x="70" y="52" width="6" height="6" fill="#4aff6c" />
<rect x="4" y="58" width="6" height="6" fill="#4aff6c" />
</svg>