<?xml version="1.0" encoding="utf-8"?>
<svg xmlns="http://www.w3.org/2000/svg" width="59" height="50" viewBox="0 0 59 50">
<rect width="100%" height="100%" fill="transparent" />
<rect x="6" y="4" width="1" height="1" fill="#4aff6c" />
<rect x="4" y="5" width="1" height="1" fill="#4aff6c" />
<rect x="6" y="5" width="1" height="1" fill="#4aff6c" />
<rect x="5" y="6" width="1" height="1" fill="#4aff6c" />
<rect x="7" y="6" width="1" height="1" fill="#4aff6c" />
<rect x="5" y="7" width="1" height="1" fill="#4aff6c" />
<rect x="13" y="8" width="1" height="1" fill="#4aff6c" />
<rect x="22" y="8" width="1" height="1" fill="#4aff6c" />
<rect x="13" y="9" width="1" height="1" fill="#4aff6c" />
<rect x="14" y="9" width="1" height="1" fill="#4aff6c" />
<rect x="15" y="9" width="1" height="1" fill="#4aff6c" />
<rect x="22" y="9" width="1" height="1" fill="#4aff6c" />
<rect x="23" y="9" width="1" height="1" fill="#4aff6c" />
<rect x="24" y="9" width="1" height="1" fill="#4aff6c" />
<rect x="16" y="10" width="1" height="1" fill="#4aff6c" />
<rect x="25" y="10" width="1" height="1" fill="#4aff6c" />
<rect x="15" y="11" width="1" height="1" fill="#4aff6c" />
<rect x="16" y="11" width="1" height="1" fill="#4aff6c" />
<rect x="24" y="11" width="1" height="1" fill="#4aff6c" />
<rect x="25" y="11" width="1" height="1" fill="#4aff6c" />
<rect x="53" y="13" width="1" height="1" fill="#4aff6c" />
<rect x="52" y="14" width="1" height="1" fill="#4aff6c" />
<rect x="54" y="14" width="1" height="1" fill="#4aff6c" />
<rect x="52" y="15" width="1" height="1" fill="#4aff6c" />
<rect x="54" y="15" width="1" height="1" fill="#4aff6c" />
<rect x="53" y="16" width="1" height="1" fill="#4aff6c" />
<rect x="42" y="17" width="1" height="1" fill="#4aff6c" />
<rect x="16" y="18" width="1" height="1" fill="#4aff6c" />
<rect x="17" y="18" width="1" height="1" fill="#4aff6c" />
<rect x="42" y="18" width="1" height="1" fill="#4aff6c" />
<rect x="17" y="19" width="1" height="1" fill="#4aff6c" />
<rect x="42" y="19" width="1" height="1" fill="#4aff6c" />
<rect x="43" y="19" width="1" height="1" fill="#4aff6c" />
<rect x="44" y="19" width="1" height="1" fill="#4aff6c" />
<rect x="17" y="20" width="1" height="1" fill="#4aff6c" />
<rect x="19" y="20" width="1" height="1" fill="#4aff6c" />
<rect x="44" y="20" width="1" height="1" fill="#4aff6c" />
<rect x="18" y="21" width="1" height="1" fill="#4aff6c" />
<rect x="19" y="21" width="1" height="1" fill="#4aff6c" />
<rect x="12" y="24" width="1" height="1" fill="#4aff6c" />
<rect x="43" y="24" width="1" height="1" fill="#4aff6c" />
<rect x="44" y="24" width="1" height="1" fill="#4aff6c" />
<rect x="12" y="25" width="1" height="1" fill="#4aff6c" />
<rect x="13" y="25" width="1" height="1" fill="#4aff6c" />
<rect x="14" y="25" width="1" height="1" fill="#4aff6c" />
<rect x="39" y="25" width="1" height="1" fill="#4aff6c" />
<rect x="43" y="25" width="1" height="1" fill="#4aff6c" />
<rect x="44" y="25" width="1" height="1" fill="#4aff6c" />
<rect x="15" y="26" width="1" height="1" fill="#4aff6c" />
<rect x="38" y="26" width="1" height="1" fill="#4aff6c" />
<rect x="40" y="26" width="1" height="1" fill="#4aff6c" />
<rect x="14" y="27" width="1" height="1" fill="#4aff6c" />
<rect x="15" y="27" width="1" height="1" fill="#4aff6c" />
<rect x="37" y="27" width="1" height="1" fill="#4aff6c" />
<rect x="39" y="27" width="1" height="1" fill="#4aff6c" />
<rect x="37" y="28" width="1" height="1" fill="#4aff6c" />
<rect x="36" y="29" width="1" height="1" fill="#4aff6c" />
<rect x="37" y="29" width="1" height="1" fill="#4aff6c" />
<rect x="13" y="34" width="1" height="1" fill="#4aff6c" />
<rect x="13" y="35" width="1" height="1" fill="#4aff6c" />
<rect x="15" y="35" width="1" height="1" fill="#4aff6c" />
<rect x="13" y="36" width="1" height="1" fill="#4aff6c" />
<rect x="14" y="36" width="1" height="1" fill="#4aff6c" />
<rect x="15" y="36" width="1" height="1" fill="#4aff6c" />
<rect x="15" y="37" width="1" height="1" fill="#4aff6c" />
<rect x="22" y="39" width="1" height="1" fill="#4aff6c" />
<rect x="23" y="39" width="1" height="1" fill="#4aff6c" />
<rect x="27" y="39" width="1" height="1" fill="#4aff6c" />
<rect x="23" y="40" width="1" height="1" fill="#4aff6c" />
<rect x="28" y="40" width="1" height="1" fill="#4aff6c" />
<rect x="29" y="40" width="1" height="1" fill="#4aff6c" />
<rect x="20" y="41" width="1" height="1" fill="#4aff6c" />
<rect x="21" y="41" width="1" height="1" fill="#4aff6c" />
<rect x="22" y="41" width="1" height="1" fill="#4aff6c" />
<rect x="26" y="41" width="1" height="1" fill="#4aff6c" />
<rect x="27" y="41" width="1" height="1" fill="#4aff6c" />
<rect x="6" y="42" width="1" height="1" fill="#4aff6c" />
<rect x="7" y="42" width="1" height="1" fill="#4aff6c" />
<rect x="20" y="42" width="1" height="1" fill="#4aff6c" />
<rect x="28" y="42" width="1" height="1" fill="#4aff6c" />
<rect x="7" y="43" width="1" height="1" fill="#4aff6c" />
<rect x="4" y="44" width="1" height="1" fill="#4aff6c" />
<rect x="5" y="44" width="1" height="1" fill="#4aff6c" />
<rect x="6" y="44" width="1" height="1" fill="#4aff6c" />
<rect x="4" y="45" width="1" height="1" fill="#4aff6c" />
</svg>