<?xml version="1.0" encoding="utf-8"?>
<svg xmlns="http://www.w3.org/2000/svg" width="68" height="15" viewBox="0 0 68 15">
<rect width="100%" height="100%" fill="transparent" />
<rect x="4" y="4" width="1" height="1" fill="#4aff6c" />
<rect x="5" y="4" width="1" height="1" fill="#4aff6c" />
<rect x="13" y="4" width="1" height="1" fill="#4aff6c" />
<rect x="14" y="4" width="1" height="1" fill="#4aff6c" />
<rect x="17" y="4" width="1" height="1" fill="#4aff6c" />
<rect x="18" y="4" width="1" height="1" fill="#4aff6c" />
<rect x="21" y="4" width="1" height="1" fill="#4aff6c" />
<rect x="22" y="4" width="1" height="1" fill="#4aff6c" />
<rect x="25" y="4" width="1" height="1" fill="#4aff6c" />
<rect x="26" y="4" width="1" height="1" fill="#4aff6c" />
<rect x="29" y="4" width="1" height="1" fill="#4aff6c" />
<rect x="30" y="4" width="1" height="1" fill="#4aff6c" />
<rect x="33" y="4" width="1" height="1" fill="#4aff6c" />
<rect x="34" y="4" width="1" height="1" fill="#4aff6c" />
<rect x="37" y="4" width="1" height="1" fill="#4aff6c" />
<rect x="38" y="4" width="1" height="1" fill="#4aff6c" />
<rect x="41" y="4" width="1" height="1" fill="#4aff6c" />
<rect x="42" y="4" width="1" height="1" fill="#4aff6c" />
<rect x="45" y="4" width="1" height="1" fill="#4aff6c" />
<rect x="46" y="4" width="1" height="1" fill="#4aff6c" />
<rect x="49" y="4" width="1" height="1" fill="#4aff6c" />
<rect x="50" y="4" width="1" height="1" fill="#4aff6c" />
<rect x="53" y="4" width="1" height="1" fill="#4aff6c" />
<rect x="54" y="4" width="1" height="1" fill="#4aff6c" />
<rect x="57" y="4" width="1" height="1" fill="#4aff6c" />
<rect x="58" y="4" width="1" height="1" fill="#4aff6c" />
<rect x="4" y="5" width="1" height="1" fill="#4aff6c" />
<rect x="5" y="5" width="1" height="1" fill="#4aff6c" />
<rect x="10" y="5" width="1" height="1" fill="#4aff6c" />
<rect x="12" y="5" width="1" height="1" fill="#4aff6c" />
<rect x="13" y="5" width="1" height="1" fill="#4aff6c" />
<rect x="14" y="5" width="1" height="1" fill="#4aff6c" />
<rect x="17" y="5" width="1" height="1" fill="#4aff6c" />
<rect x="18" y="5" width="1" height="1" fill="#4aff6c" />
<rect x="21" y="5" width="1" height="1" fill="#4aff6c" />
<rect x="22" y="5" width="1" height="1" fill="#4aff6c" />
<rect x="25" y="5" width="1" height="1" fill="#4aff6c" />
<rect x="26" y="5" width="1" height="1" fill="#4aff6c" />
<rect x="29" y="5" width="1" height="1" fill="#4aff6c" />
<rect x="30" y="5" width="1" height="1" fill="#4aff6c" />
<rect x="33" y="5" width="1" height="1" fill="#4aff6c" />
<rect x="34" y="5" width="1" height="1" fill="#4aff6c" />
<rect x="37" y="5" width="1" height="1" fill="#4aff6c" />
<rect x="38" y="5" width="1" height="1" fill="#4aff6c" />
<rect x="41" y="5" width="1" height="1" fill="#4aff6c" />
<rect x="42" y="5" width="1" height="1" fill="#4aff6c" />
<rect x="45" y="5" width="1" height="1" fill="#4aff6c" />
<rect x="46" y="5" width="1" height="1" fill="#4aff6c" />
<rect x="49" y="5" width="1" height="1" fill="#4aff6c" />
<rect x="50" y="5" width="1" height="1" fill="#4aff6c" />
<rect x="53" y="5" width="1" height="1" fill="#4aff6c" />
<rect x="54" y="5" width="1" height="1" fill="#4aff6c" />
<rect x="57" y="5" width="1" height="1" fill="#4aff6c" />
<rect x="58" y="5" width="1" height="1" fill="#4aff6c" />
<rect x="62" y="5" width="1" height="1" fill="#4aff6c" />
<rect x="63" y="5" width="1" height="1" fill="#4aff6c" />
<rect x="8" y="6" width="1" height="1" fill="#4aff6c" />
<rect x="9" y="6" width="1" height="1" fill="#4aff6c" />
<rect x="11" y="6" width="1" height="1" fill="#4aff6c" />
<rect x="61" y="6" width="1" height="1" fill="#4aff6c" />
<rect x="63" y="6" width="1" height="1" fill="#4aff6c" />
<rect x="8" y="7" width="1" height="1" fill="#4aff6c" />
<rect x="9" y="7" width="1" height="1" fill="#4aff6c" />
<rect x="13" y="7" width="1" height="1" fill="#4aff6c" />
<rect x="14" y="7" width="1" height="1" fill="#4aff6c" />
<rect x="15" y="7" width="1" height="1" fill="#4aff6c" />
<rect x="16" y="7" width="1" height="1" fill="#4aff6c" />
<rect x="17" y="7" width="1" height="1" fill="#4aff6c" />
<rect x="18" y="7" width="1" height="1" fill="#4aff6c" />
<rect x="19" y="7" width="1" height="1" fill="#4aff6c" />
<rect x="20" y="7" width="1" height="1" fill="#4aff6c" />
<rect x="21" y="7" width="1" height="1" fill="#4aff6c" />
<rect x="22" y="7" width="1" height="1" fill="#4aff6c" />
<rect x="23" y="7" width="1" height="1" fill="#4aff6c" />
<rect x="24" y="7" width="1" height="1" fill="#4aff6c" />
<rect x="25" y="7" width="1" height="1" fill="#4aff6c" />
<rect x="26" y="7" width="1" height="1" fill="#4aff6c" />
<rect x="27" y="7" width="1" height="1" fill="#4aff6c" />
<rect x="28" y="7" width="1" height="1" fill="#4aff6c" />
<rect x="29" y="7" width="1" height="1" fill="#4aff6c" />
<rect x="30" y="7" width="1" height="1" fill="#4aff6c" />
<rect x="31" y="7" width="1" height="1" fill="#4aff6c" />
<rect x="32" y="7" width="1" height="1" fill="#4aff6c" />
<rect x="33" y="7" width="1" height="1" fill="#4aff6c" />
<rect x="34" y="7" width="1" height="1" fill="#4aff6c" />
<rect x="35" y="7" width="1" height="1" fill="#4aff6c" />
<rect x="36" y="7" width="1" height="1" fill="#4aff6c" />
<rect x="37" y="7" width="1" height="1" fill="#4aff6c" />
<rect x="38" y="7" width="1" height="1" fill="#4aff6c" />
<rect x="39" y="7" width="1" height="1" fill="#4aff6c" />
<rect x="40" y="7" width="1" height="1" fill="#4aff6c" />
<rect x="41" y="7" width="1" height="1" fill="#4aff6c" />
<rect x="42" y="7" width="1" height="1" fill="#4aff6c" />
<rect x="43" y="7" width="1" height="1" fill="#4aff6c" />
<rect x="44" y="7" width="1" height="1" fill="#4aff6c" />
<rect x="45" y="7" width="1" height="1" fill="#4aff6c" />
<rect x="46" y="7" width="1" height="1" fill="#4aff6c" />
<rect x="47" y="7" width="1" height="1" fill="#4aff6c" />
<rect x="48" y="7" width="1" height="1" fill="#4aff6c" />
<rect x="49" y="7" width="1" height="1" fill="#4aff6c" />
<rect x="50" y="7" width="1" height="1" fill="#4aff6c" />
<rect x="51" y="7" width="1" height="1" fill="#4aff6c" />
<rect x="52" y="7" width="1" height="1" fill="#4aff6c" />
<rect x="53" y="7" width="1" height="1" fill="#4aff6c" />
<rect x="54" y="7" width="1" height="1" fill="#4aff6c" />
<rect x="55" y="7" width="1" height="1" fill="#4aff6c" />
<rect x="56" y="7" width="1" height="1" fill="#4aff6c" />
<rect x="57" y="7" width="1" height="1" fill="#4aff6c" />
<rect x="58" y="7" width="1" height="1" fill="#4aff6c" />
<rect x="59" y="7" width="1" height="1" fill="#4aff6c" />
<rect x="60" y="7" width="1" height="1" fill="#4aff6c" />
<rect x="61" y="7" width="1" height="1" fill="#4aff6c" />
<rect x="8" y="8" width="1" height="1" fill="#4aff6c" />
<rect x="9" y="8" width="1" height="1" fill="#4aff6c" />
<rect x="11" y="8" width="1" height="1" fill="#4aff6c" />
<rect x="62" y="8" width="1" height="1" fill="#4aff6c" />
<rect x="4" y="9" width="1" height="1" fill="#4aff6c" />
<rect x="5" y="9" width="1" height="1" fill="#4aff6c" />
<rect x="10" y="9" width="1" height="1" fill="#4aff6c" />
<rect x="12" y="9" width="1" height="1" fill="#4aff6c" />
<rect x="13" y="9" width="1" height="1" fill="#4aff6c" />
<rect x="14" y="9" width="1" height="1" fill="#4aff6c" />
<rect x="17" y="9" width="1" height="1" fill="#4aff6c" />
<rect x="18" y="9" width="1" height="1" fill="#4aff6c" />
<rect x="21" y="9" width="1" height="1" fill="#4aff6c" />
<rect x="22" y="9" width="1" height="1" fill="#4aff6c" />
<rect x="25" y="9" width="1" height="1" fill="#4aff6c" />
<rect x="26" y="9" width="1" height="1" fill="#4aff6c" />
<rect x="29" y="9" width="1" height="1" fill="#4aff6c" />
<rect x="30" y="9" width="1" height="1" fill="#4aff6c" />
<rect x="33" y="9" width="1" height="1" fill="#4aff6c" />
<rect x="34" y="9" width="1" height="1" fill="#4aff6c" />
<rect x="37" y="9" width="1" height="1" fill="#4aff6c" />
<rect x="38" y="9" width="1" height="1" fill="#4aff6c" />
<rect x="41" y="9" width="1" height="1" fill="#4aff6c" />
<rect x="42" y="9" width="1" height="1" fill="#4aff6c" />
<rect x="45" y="9" width="1" height="1" fill="#4aff6c" />
<rect x="46" y="9" width="1" height="1" fill="#4aff6c" />
<rect x="49" y="9" width="1" height="1" fill="#4aff6c" />
<rect x="50" y="9" width="1" height="1" fill="#4aff6c" />
<rect x="53" y="9" width="1" height="1" fill="#4aff6c" />
<rect x="54" y="9" width="1" height="1" fill="#4aff6c" />
<rect x="57" y="9" width="1" height="1" fill="#4aff6c" />
<rect x="58" y="9" width="1" height="1" fill="#4aff6c" />
<rect x="61" y="9" width="1" height="1" fill="#4aff6c" />
<rect x="62" y="9" width="1" height="1" fill="#4aff6c" />
<rect x="4" y="10" width="1" height="1" fill="#4aff6c" />
<rect x="5" y="10" width="1" height="1" fill="#4aff6c" />
<rect x="13" y="10" width="1" height="1" fill="#4aff6c" />
<rect x="14" y="10" width="1" height="1" fill="#4aff6c" />
<rect x="17" y="10" width="1" height="1" fill="#4aff6c" />
<rect x="18" y="10" width="1" height="1" fill="#4aff6c" />
<rect x="21" y="10" width="1" height="1" fill="#4aff6c" />
<rect x="22" y="10" width="1" height="1" fill="#4aff6c" />
<rect x="25" y="10" width="1" height="1" fill="#4aff6c" />
<rect x="26" y="10" width="1" height="1" fill="#4aff6c" />
<rect x="29" y="10" width="1" height="1" fill="#4aff6c" />
<rect x="30" y="10" width="1" height="1" fill="#4aff6c" />
<rect x="33" y="10" width="1" height="1" fill="#4aff6c" />
<rect x="34" y="10" width="1" height="1" fill="#4aff6c" />
<rect x="37" y="10" width="1" height="1" fill="#4aff6c" />
<rect x="38" y="10" width="1" height="1" fill="#4aff6c" />
<rect x="41" y="10" width="1" height="1" fill="#4aff6c" />
<rect x="42" y="10" width="1" height="1" fill="#4aff6c" />
<rect x="45" y="10" width="1" height="1" fill="#4aff6c" />
<rect x="46" y="10" width="1" height="1" fill="#4aff6c" />
<rect x="49" y="10" width="1" height="1" fill="#4aff6c" />
<rect x="50" y="10" width="1" height="1" fill="#4aff6c" />
<rect x="53" y="10" width="1" height="1" fill="#4aff6c" />
<rect x="54" y="10" width="1" height="1" fill="#4aff6c" />
<rect x="57" y="10" width="1" height="1" fill="#4aff6c" />
<rect x="58" y="10" width="1" height="1" fill="#4aff6c" />
</svg>