<?xml version="1.0" encoding="utf-8"?>
<svg xmlns="http://www.w3.org/2000/svg" width="68" height="56" viewBox="0 0 68 56">
<rect width="100%" height="100%" fill="transparent" />
<rect x="6" y="4" width="2" height="2" fill="#4aff6c" />
<rect x="8" y="6" width="2" height="2" fill="#4aff6c" />
<rect x="36" y="6" width="2" height="2" fill="#4aff6c" />
<rect x="38" y="6" width="2" height="2" fill="#4aff6c" />
<rect x="4" y="8" width="2" height="2" fill="#4aff6c" />
<rect x="6" y="8" width="2" height="2" fill="#4aff6c" />
<rect x="8" y="8" width="2" height="2" fill="#4aff6c" />
<rect x="38" y="8" width="2" height="2" fill="#4aff6c" />
<rect x="34" y="10" width="2" height="2" fill="#4aff6c" />
<rect x="46" y="10" width="2" height="2" fill="#4aff6c" />
<rect x="48" y="10" width="2" height="2" fill="#4aff6c" />
<rect x="34" y="12" width="2" height="2" fill="#4aff6c" />
<rect x="36" y="12" width="2" height="2" fill="#4aff6c" />
<rect x="48" y="12" width="2" height="2" fill="#4aff6c" />
<rect x="48" y="14" width="2" height="2" fill="#4aff6c" />
<rect x="52" y="14" width="2" height="2" fill="#4aff6c" />
<rect x="54" y="14" width="2" height="2" fill="#4aff6c" />
<rect x="34" y="16" width="2" height="2" fill="#4aff6c" />
<rect x="36" y="16" width="2" height="2" fill="#4aff6c" />
<rect x="42" y="16" width="2" height="2" fill="#4aff6c" />
<rect x="44" y="16" width="2" height="2" fill="#4aff6c" />
<rect x="48" y="16" width="2" height="2" fill="#4aff6c" />
<rect x="54" y="16" width="2" height="2" fill="#4aff6c" />
<rect x="34" y="18" width="2" height="2" fill="#4aff6c" />
<rect x="36" y="18" width="2" height="2" fill="#4aff6c" />
<rect x="44" y="18" width="2" height="2" fill="#4aff6c" />
<rect x="48" y="18" width="2" height="2" fill="#4aff6c" />
<rect x="50" y="18" width="2" height="2" fill="#4aff6c" />
<rect x="44" y="20" width="2" height="2" fill="#4aff6c" />
<rect x="42" y="22" width="2" height="2" fill="#4aff6c" />
<rect x="44" y="22" width="2" height="2" fill="#4aff6c" />
<rect x="54" y="26" width="2" height="2" fill="#4aff6c" />
<rect x="56" y="26" width="2" height="2" fill="#4aff6c" />
<rect x="30" y="28" width="2" height="2" fill="#4aff6c" />
<rect x="56" y="28" width="2" height="2" fill="#4aff6c" />
<rect x="32" y="30" width="2" height="2" fill="#4aff6c" />
<rect x="56" y="30" width="2" height="2" fill="#4aff6c" />
<rect x="60" y="30" width="2" height="2" fill="#4aff6c" />
<rect x="62" y="30" width="2" height="2" fill="#4aff6c" />
<rect x="28" y="32" width="2" height="2" fill="#4aff6c" />
<rect x="30" y="32" width="2" height="2" fill="#4aff6c" />
<rect x="32" y="32" width="2" height="2" fill="#4aff6c" />
<rect x="40" y="32" width="2" height="2" fill="#4aff6c" />
<rect x="42" y="32" width="2" height="2" fill="#4aff6c" />
<rect x="52" y="32" width="2" height="2" fill="#4aff6c" />
<rect x="54" y="32" width="2" height="2" fill="#4aff6c" />
<rect x="56" y="32" width="2" height="2" fill="#4aff6c" />
<rect x="62" y="32" width="2" height="2" fill="#4aff6c" />
<rect x="40" y="34" width="2" height="2" fill="#4aff6c" />
<rect x="42" y="34" width="2" height="2" fill="#4aff6c" />
<rect x="50" y="34" width="2" height="2" fill="#4aff6c" />
<rect x="58" y="34" width="2" height="2" fill="#4aff6c" />
<rect x="60" y="34" width="2" height="2" fill="#4aff6c" />
<rect x="50" y="36" width="2" height="2" fill="#4aff6c" />
<rect x="52" y="36" width="2" height="2" fill="#4aff6c" />
<rect x="54" y="36" width="2" height="2" fill="#4aff6c" />
<rect x="56" y="36" width="2" height="2" fill="#4aff6c" />
<rect x="22" y="38" width="2" height="2" fill="#4aff6c" />
<rect x="24" y="38" width="2" height="2" fill="#4aff6c" />
<rect x="56" y="38" width="2" height="2" fill="#4aff6c" />
<rect x="20" y="40" width="2" height="2" fill="#4aff6c" />
<rect x="24" y="40" width="2" height="2" fill="#4aff6c" />
<rect x="50" y="40" width="2" height="2" fill="#4aff6c" />
<rect x="52" y="40" width="2" height="2" fill="#4aff6c" />
<rect x="54" y="40" width="2" height="2" fill="#4aff6c" />
<rect x="20" y="42" width="2" height="2" fill="#4aff6c" />
<rect x="48" y="42" width="2" height="2" fill="#4aff6c" />
<rect x="18" y="44" width="2" height="2" fill="#4aff6c" />
<rect x="20" y="44" width="2" height="2" fill="#4aff6c" />
<rect x="50" y="44" width="2" height="2" fill="#4aff6c" />
<rect x="52" y="44" width="2" height="2" fill="#4aff6c" />
<rect x="54" y="44" width="2" height="2" fill="#4aff6c" />
<rect x="56" y="44" width="2" height="2" fill="#4aff6c" />
<rect x="58" y="44" width="2" height="2" fill="#4aff6c" />
<rect x="58" y="46" width="2" height="2" fill="#4aff6c" />
<rect x="54" y="48" width="2" height="2" fill="#4aff6c" />
<rect x="54" y="50" width="2" height="2" fill="#4aff6c" />
<rect x="56" y="50" width="2" height="2" fill="#4aff6c" />
</svg>