<?xml version="1.0" encoding="utf-8"?>
<svg xmlns="http://www.w3.org/2000/svg" width="68" height="86" viewBox="0 0 68 86">
<rect width="100%" height="100%" fill="transparent" />
<rect x="7" y="4" width="3" height="3" fill="#4aff6c" />
<rect x="10" y="4" width="3" height="3" fill="#4aff6c" />
<rect x="4" y="7" width="3" height="3" fill="#4aff6c" />
<rect x="7" y="7" width="3" height="3" fill="#4aff6c" />
<rect x="10" y="10" width="3" height="3" fill="#4aff6c" />
<rect x="16" y="13" width="3" height="3" fill="#4aff6c" />
<rect x="19" y="13" width="3" height="3" fill="#4aff6c" />
<rect x="31" y="13" width="3" height="3" fill="#4aff6c" />
<rect x="16" y="16" width="3" height="3" fill="#4aff6c" />
<rect x="19" y="16" width="3" height="3" fill="#4aff6c" />
<rect x="28" y="16" width="3" height="3" fill="#4aff6c" />
<rect x="34" y="16" width="3" height="3" fill="#4aff6c" />
<rect x="25" y="19" width="3" height="3" fill="#4aff6c" />
<rect x="28" y="19" width="3" height="3" fill="#4aff6c" />
<rect x="34" y="19" width="3" height="3" fill="#4aff6c" />
<rect x="25" y="22" width="3" height="3" fill="#4aff6c" />
<rect x="28" y="22" width="3" height="3" fill="#4aff6c" />
<rect x="25" y="25" width="3" height="3" fill="#4aff6c" />
<rect x="28" y="25" width="3" height="3" fill="#4aff6c" />
<rect x="55" y="28" width="3" height="3" fill="#4aff6c" />
<rect x="58" y="28" width="3" height="3" fill="#4aff6c" />
<rect x="31" y="31" width="3" height="3" fill="#4aff6c" />
<rect x="46" y="31" width="3" height="3" fill="#4aff6c" />
<rect x="49" y="31" width="3" height="3" fill="#4aff6c" />
<rect x="55" y="31" width="3" height="3" fill="#4aff6c" />
<rect x="31" y="34" width="3" height="3" fill="#4aff6c" />
<rect x="34" y="34" width="3" height="3" fill="#4aff6c" />
<rect x="37" y="34" width="3" height="3" fill="#4aff6c" />
<rect x="46" y="34" width="3" height="3" fill="#4aff6c" />
<rect x="49" y="34" width="3" height="3" fill="#4aff6c" />
<rect x="31" y="37" width="3" height="3" fill="#4aff6c" />
<rect x="34" y="37" width="3" height="3" fill="#4aff6c" />
<rect x="37" y="37" width="3" height="3" fill="#4aff6c" />
<rect x="46" y="37" width="3" height="3" fill="#4aff6c" />
<rect x="49" y="37" width="3" height="3" fill="#4aff6c" />
<rect x="34" y="40" width="3" height="3" fill="#4aff6c" />
<rect x="37" y="40" width="3" height="3" fill="#4aff6c" />
<rect x="40" y="46" width="3" height="3" fill="#4aff6c" />
<rect x="37" y="49" width="3" height="3" fill="#4aff6c" />
<rect x="40" y="49" width="3" height="3" fill="#4aff6c" />
<rect x="37" y="52" width="3" height="3" fill="#4aff6c" />
<rect x="40" y="55" width="3" height="3" fill="#4aff6c" />
<rect x="43" y="61" width="3" height="3" fill="#4aff6c" />
<rect x="46" y="61" width="3" height="3" fill="#4aff6c" />
<rect x="46" y="64" width="3" height="3" fill="#4aff6c" />
<rect x="52" y="64" width="3" height="3" fill="#4aff6c" />
<rect x="55" y="64" width="3" height="3" fill="#4aff6c" />
<rect x="58" y="67" width="3" height="3" fill="#4aff6c" />
<rect x="49" y="70" width="3" height="3" fill="#4aff6c" />
<rect x="52" y="70" width="3" height="3" fill="#4aff6c" />
<rect x="49" y="73" width="3" height="3" fill="#4aff6c" />
<rect x="52" y="73" width="3" height="3" fill="#4aff6c" />
<rect x="55" y="76" width="3" height="3" fill="#4aff6c" />
<rect x="58" y="79" width="3" height="3" fill="#4aff6c" />
<rect x="61" y="79" width="3" height="3" fill="#4aff6c" />
</svg>