<?xml version="1.0" encoding="utf-8"?>
<svg xmlns="http://www.w3.org/2000/svg" width="83" height="58" viewBox="0 0 83 58">
<rect width="100%" height="100%" fill="transparent" />
<rect x="39" y="4" width="5" height="5" fill="#4aff6c" />
<rect x="34" y="9" width="5" height="5" fill="#4aff6c" />
<rect x="44" y="9" width="5" height="5" fill="#4aff6c" />
<rect x="29" y="14" width="5" height="5" fill="#4aff6c" />
<rect x="49" y="14" width="5" height="5" fill="#4aff6c" />
<rect x="34" y="19" width="5" height="5" fill="#4aff6c" />
<rect x="39" y="19" width="5" height="5" fill="#4aff6c" />
<rect x="44" y="19" width="5" height="5" fill="#4aff6c" />
<rect x="24" y="29" width="5" height="5" fill="#4aff6c" />
<rect x="29" y="29" width="5" height="5" fill="#4aff6c" />
<rect x="49" y="29" width="5" height="5" fill="#4aff6c" />
<rect x="54" y="29" width="5" height="5" fill="#4aff6c" />
<rect x="14" y="34" width="5" height="5" fill="#4aff6c" />
<rect x="34" y="34" width="5" height="5" fill="#4aff6c" />
<rect x="44" y="34" width="5" height="5" fill="#4aff6c" />
<rect x="64" y="34" width="5" height="5" fill="#4aff6c" />
<rect x="9" y="39" width="5" height="5" fill="#4aff6c" />
<rect x="14" y="39" width="5" height="5" fill="#4aff6c" />
<rect x="34" y="39" width="5" height="5" fill="#4aff6c" />
<rect x="44" y="39" width="5" height="5" fill="#4aff6c" />
<rect x="64" y="39" width="5" height="5" fill="#4aff6c" />
<rect x="69" y="39" width="5" height="5" fill="#4aff6c" />
<rect x="4" y="44" width="5" height="5" fill="#4aff6c" />
<rect x="34" y="44" width="5" height="5" fill="#4aff6c" />
<rect x="44" y="44" width="5" height="5" fill="#4aff6c" />
<rect x="74" y="44" width="5" height="5" fill="#4aff6c" />
<rect x="9" y="49" width="5" height="5" fill="#4aff6c" />
<rect x="19" y="49" width="5" height="5" fill="#4aff6c" />
<rect x="24" y="49" width="5" height="5" fill="#4aff6c" />
<rect x="34" y="49" width="5" height="5" fill="#4aff6c" />
<rect x="44" y="49" width="5" height="5" fill="#4aff6c" />
<rect x="54" y="49" width="5" height="5" fill="#4aff6c" />
<rect x="59" y="49" width="5" height="5" fill="#4aff6c" />
<rect x="69" y="49" width="5" height="5" fill="#4aff6c" />
</svg>