<?xml version="1.0" encoding="utf-8"?>
<svg xmlns="http://www.w3.org/2000/svg" width="88" height="43" viewBox="0 0 88 43">
<rect width="100%" height="100%" fill="transparent" />
<rect x="9" y="4" width="5" height="5" fill="#4aff6c" />
<rect x="14" y="4" width="5" height="5" fill="#4aff6c" />
<rect x="19" y="4" width="5" height="5" fill="#4aff6c" />
<rect x="24" y="4" width="5" height="5" fill="#4aff6c" />
<rect x="54" y="4" width="5" height="5" fill="#4aff6c" />
<rect x="59" y="4" width="5" height="5" fill="#4aff6c" />
<rect x="4" y="9" width="5" height="5" fill="#4aff6c" />
<rect x="24" y="9" width="5" height="5" fill="#4aff6c" />
<rect x="59" y="9" width="5" height="5" fill="#4aff6c" />
<rect x="64" y="9" width="5" height="5" fill="#4aff6c" />
<rect x="74" y="9" width="5" height="5" fill="#4aff6c" />
<rect x="79" y="9" width="5" height="5" fill="#4aff6c" />
<rect x="24" y="14" width="5" height="5" fill="#4aff6c" />
<rect x="59" y="14" width="5" height="5" fill="#4aff6c" />
<rect x="74" y="14" width="5" height="5" fill="#4aff6c" />
<rect x="79" y="14" width="5" height="5" fill="#4aff6c" />
<rect x="4" y="19" width="5" height="5" fill="#4aff6c" />
<rect x="19" y="19" width="5" height="5" fill="#4aff6c" />
<rect x="69" y="29" width="5" height="5" fill="#4aff6c" />
<rect x="74" y="29" width="5" height="5" fill="#4aff6c" />
<rect x="69" y="34" width="5" height="5" fill="#4aff6c" />
<rect x="74" y="34" width="5" height="5" fill="#4aff6c" />
</svg>