<?xml version="1.0" encoding="utf-8"?>
<svg xmlns="http://www.w3.org/2000/svg" width="58" height="23" viewBox="0 0 58 23">
<rect width="100%" height="100%" fill="transparent" />
<rect x="21" y="4" width="1" height="1" fill="#4aff6c" />
<rect x="21" y="5" width="1" height="1" fill="#4aff6c" />
<rect x="22" y="5" width="1" height="1" fill="#4aff6c" />
<rect x="22" y="6" width="1" height="1" fill="#4aff6c" />
<rect x="23" y="6" width="1" height="1" fill="#4aff6c" />
<rect x="21" y="7" width="1" height="1" fill="#4aff6c" />
<rect x="22" y="7" width="1" height="1" fill="#4aff6c" />
<rect x="36" y="8" width="1" height="1" fill="#4aff6c" />
<rect x="35" y="9" width="1" height="1" fill="#4aff6c" />
<rect x="36" y="9" width="1" height="1" fill="#4aff6c" />
<rect x="52" y="9" width="1" height="1" fill="#4aff6c" />
<rect x="53" y="9" width="1" height="1" fill="#4aff6c" />
<rect x="34" y="10" width="1" height="1" fill="#4aff6c" />
<rect x="35" y="10" width="1" height="1" fill="#4aff6c" />
<rect x="52" y="10" width="1" height="1" fill="#4aff6c" />
<rect x="53" y="10" width="1" height="1" fill="#4aff6c" />
<rect x="21" y="11" width="1" height="1" fill="#4aff6c" />
<rect x="22" y="11" width="1" height="1" fill="#4aff6c" />
<rect x="35" y="11" width="1" height="1" fill="#4aff6c" />
<rect x="36" y="11" width="1" height="1" fill="#4aff6c" />
<rect x="4" y="12" width="1" height="1" fill="#4aff6c" />
<rect x="5" y="12" width="1" height="1" fill="#4aff6c" />
<rect x="22" y="12" width="1" height="1" fill="#4aff6c" />
<rect x="23" y="12" width="1" height="1" fill="#4aff6c" />
<rect x="4" y="13" width="1" height="1" fill="#4aff6c" />
<rect x="5" y="13" width="1" height="1" fill="#4aff6c" />
<rect x="21" y="13" width="1" height="1" fill="#4aff6c" />
<rect x="22" y="13" width="1" height="1" fill="#4aff6c" />
<rect x="21" y="14" width="1" height="1" fill="#4aff6c" />
<rect x="35" y="15" width="1" height="1" fill="#4aff6c" />
<rect x="36" y="15" width="1" height="1" fill="#4aff6c" />
<rect x="34" y="16" width="1" height="1" fill="#4aff6c" />
<rect x="35" y="16" width="1" height="1" fill="#4aff6c" />
<rect x="35" y="17" width="1" height="1" fill="#4aff6c" />
<rect x="36" y="17" width="1" height="1" fill="#4aff6c" />
<rect x="36" y="18" width="1" height="1" fill="#4aff6c" />
</svg>