<?xml version="1.0" encoding="utf-8"?>
<svg xmlns="http://www.w3.org/2000/svg" width="88" height="74" viewBox="0 0 88 74">
<rect width="100%" height="100%" fill="transparent" />
<rect x="72" y="4" width="2" height="2" fill="#4aff6c" />
<rect x="20" y="6" width="2" height="2" fill="#4aff6c" />
<rect x="68" y="6" width="2" height="2" fill="#4aff6c" />
<rect x="70" y="6" width="2" height="2" fill="#4aff6c" />
<rect x="72" y="6" width="2" height="2" fill="#4aff6c" />
<rect x="76" y="6" width="2" height="2" fill="#4aff6c" />
<rect x="78" y="6" width="2" height="2" fill="#4aff6c" />
<rect x="80" y="6" width="2" height="2" fill="#4aff6c" />
<rect x="18" y="8" width="2" height="2" fill="#4aff6c" />
<rect x="20" y="8" width="2" height="2" fill="#4aff6c" />
<rect x="22" y="8" width="2" height="2" fill="#4aff6c" />
<rect x="24" y="8" width="2" height="2" fill="#4aff6c" />
<rect x="66" y="8" width="2" height="2" fill="#4aff6c" />
<rect x="68" y="8" width="2" height="2" fill="#4aff6c" />
<rect x="82" y="8" width="2" height="2" fill="#4aff6c" />
<rect x="8" y="10" width="2" height="2" fill="#4aff6c" />
<rect x="16" y="10" width="2" height="2" fill="#4aff6c" />
<rect x="24" y="10" width="2" height="2" fill="#4aff6c" />
<rect x="26" y="10" width="2" height="2" fill="#4aff6c" />
<rect x="30" y="10" width="2" height="2" fill="#4aff6c" />
<rect x="32" y="10" width="2" height="2" fill="#4aff6c" />
<rect x="56" y="10" width="2" height="2" fill="#4aff6c" />
<rect x="64" y="10" width="2" height="2" fill="#4aff6c" />
<rect x="70" y="10" width="2" height="2" fill="#4aff6c" />
<rect x="78" y="10" width="2" height="2" fill="#4aff6c" />
<rect x="80" y="10" width="2" height="2" fill="#4aff6c" />
<rect x="6" y="12" width="2" height="2" fill="#4aff6c" />
<rect x="8" y="12" width="2" height="2" fill="#4aff6c" />
<rect x="10" y="12" width="2" height="2" fill="#4aff6c" />
<rect x="12" y="12" width="2" height="2" fill="#4aff6c" />
<rect x="24" y="12" width="2" height="2" fill="#4aff6c" />
<rect x="30" y="12" width="2" height="2" fill="#4aff6c" />
<rect x="32" y="12" width="2" height="2" fill="#4aff6c" />
<rect x="54" y="12" width="2" height="2" fill="#4aff6c" />
<rect x="56" y="12" width="2" height="2" fill="#4aff6c" />
<rect x="58" y="12" width="2" height="2" fill="#4aff6c" />
<rect x="60" y="12" width="2" height="2" fill="#4aff6c" />
<rect x="4" y="14" width="2" height="2" fill="#4aff6c" />
<rect x="12" y="14" width="2" height="2" fill="#4aff6c" />
<rect x="28" y="14" width="2" height="2" fill="#4aff6c" />
<rect x="34" y="14" width="2" height="2" fill="#4aff6c" />
<rect x="52" y="14" width="2" height="2" fill="#4aff6c" />
<rect x="60" y="14" width="2" height="2" fill="#4aff6c" />
<rect x="6" y="16" width="2" height="2" fill="#4aff6c" />
<rect x="10" y="16" width="2" height="2" fill="#4aff6c" />
<rect x="16" y="16" width="2" height="2" fill="#4aff6c" />
<rect x="54" y="16" width="2" height="2" fill="#4aff6c" />
<rect x="58" y="16" width="2" height="2" fill="#4aff6c" />
<rect x="64" y="16" width="2" height="2" fill="#4aff6c" />
<rect x="14" y="18" width="2" height="2" fill="#4aff6c" />
<rect x="62" y="18" width="2" height="2" fill="#4aff6c" />
<rect x="36" y="20" width="2" height="2" fill="#4aff6c" />
<rect x="4" y="22" width="2" height="2" fill="#4aff6c" />
<rect x="34" y="22" width="2" height="2" fill="#4aff6c" />
<rect x="36" y="22" width="2" height="2" fill="#4aff6c" />
<rect x="38" y="22" width="2" height="2" fill="#4aff6c" />
<rect x="40" y="22" width="2" height="2" fill="#4aff6c" />
<rect x="4" y="24" width="2" height="2" fill="#4aff6c" />
<rect x="8" y="24" width="2" height="2" fill="#4aff6c" />
<rect x="24" y="24" width="2" height="2" fill="#4aff6c" />
<rect x="32" y="24" width="2" height="2" fill="#4aff6c" />
<rect x="40" y="24" width="2" height="2" fill="#4aff6c" />
<rect x="42" y="24" width="2" height="2" fill="#4aff6c" />
<rect x="46" y="24" width="2" height="2" fill="#4aff6c" />
<rect x="48" y="24" width="2" height="2" fill="#4aff6c" />
<rect x="4" y="26" width="2" height="2" fill="#4aff6c" />
<rect x="6" y="26" width="2" height="2" fill="#4aff6c" />
<rect x="8" y="26" width="2" height="2" fill="#4aff6c" />
<rect x="22" y="26" width="2" height="2" fill="#4aff6c" />
<rect x="24" y="26" width="2" height="2" fill="#4aff6c" />
<rect x="26" y="26" width="2" height="2" fill="#4aff6c" />
<rect x="28" y="26" width="2" height="2" fill="#4aff6c" />
<rect x="40" y="26" width="2" height="2" fill="#4aff6c" />
<rect x="46" y="26" width="2" height="2" fill="#4aff6c" />
<rect x="48" y="26" width="2" height="2" fill="#4aff6c" />
<rect x="8" y="28" width="2" height="2" fill="#4aff6c" />
<rect x="20" y="28" width="2" height="2" fill="#4aff6c" />
<rect x="28" y="28" width="2" height="2" fill="#4aff6c" />
<rect x="44" y="28" width="2" height="2" fill="#4aff6c" />
<rect x="50" y="28" width="2" height="2" fill="#4aff6c" />
<rect x="22" y="30" width="2" height="2" fill="#4aff6c" />
<rect x="26" y="30" width="2" height="2" fill="#4aff6c" />
<rect x="32" y="30" width="2" height="2" fill="#4aff6c" />
<rect x="30" y="32" width="2" height="2" fill="#4aff6c" />
<rect x="6" y="34" width="2" height="2" fill="#4aff6c" />
<rect x="8" y="34" width="2" height="2" fill="#4aff6c" />
<rect x="4" y="36" width="2" height="2" fill="#4aff6c" />
<rect x="10" y="36" width="2" height="2" fill="#4aff6c" />
<rect x="6" y="38" width="2" height="2" fill="#4aff6c" />
<rect x="8" y="38" width="2" height="2" fill="#4aff6c" />
<rect x="18" y="42" width="2" height="2" fill="#4aff6c" />
<rect x="22" y="42" width="2" height="2" fill="#4aff6c" />
<rect x="18" y="44" width="2" height="2" fill="#4aff6c" />
<rect x="18" y="46" width="2" height="2" fill="#4aff6c" />
<rect x="22" y="46" width="2" height="2" fill="#4aff6c" />
<rect x="28" y="46" width="2" height="2" fill="#4aff6c" />
<rect x="34" y="46" width="2" height="2" fill="#4aff6c" />
<rect x="24" y="48" width="2" height="2" fill="#4aff6c" />
<rect x="26" y="50" width="2" height="2" fill="#4aff6c" />
<rect x="30" y="50" width="2" height="2" fill="#4aff6c" />
<rect x="32" y="50" width="2" height="2" fill="#4aff6c" />
<rect x="36" y="50" width="2" height="2" fill="#4aff6c" />
<rect x="28" y="52" width="2" height="2" fill="#4aff6c" />
<rect x="30" y="52" width="2" height="2" fill="#4aff6c" />
<rect x="32" y="52" width="2" height="2" fill="#4aff6c" />
<rect x="36" y="52" width="2" height="2" fill="#4aff6c" />
<rect x="26" y="54" width="2" height="2" fill="#4aff6c" />
<rect x="36" y="54" width="2" height="2" fill="#4aff6c" />
<rect x="42" y="54" width="2" height="2" fill="#4aff6c" />
<rect x="46" y="54" width="2" height="2" fill="#4aff6c" />
<rect x="48" y="54" width="2" height="2" fill="#4aff6c" />
<rect x="20" y="56" width="2" height="2" fill="#4aff6c" />
<rect x="28" y="56" width="2" height="2" fill="#4aff6c" />
<rect x="30" y="56" width="2" height="2" fill="#4aff6c" />
<rect x="38" y="56" width="2" height="2" fill="#4aff6c" />
<rect x="42" y="56" width="2" height="2" fill="#4aff6c" />
<rect x="44" y="56" width="2" height="2" fill="#4aff6c" />
<rect x="46" y="56" width="2" height="2" fill="#4aff6c" />
<rect x="48" y="56" width="2" height="2" fill="#4aff6c" />
<rect x="20" y="58" width="2" height="2" fill="#4aff6c" />
<rect x="22" y="58" width="2" height="2" fill="#4aff6c" />
<rect x="28" y="58" width="2" height="2" fill="#4aff6c" />
<rect x="34" y="58" width="2" height="2" fill="#4aff6c" />
<rect x="38" y="58" width="2" height="2" fill="#4aff6c" />
<rect x="40" y="58" width="2" height="2" fill="#4aff6c" />
<rect x="50" y="58" width="2" height="2" fill="#4aff6c" />
<rect x="60" y="58" width="2" height="2" fill="#4aff6c" />
<rect x="20" y="60" width="2" height="2" fill="#4aff6c" />
<rect x="38" y="60" width="2" height="2" fill="#4aff6c" />
<rect x="40" y="60" width="2" height="2" fill="#4aff6c" />
<rect x="50" y="60" width="2" height="2" fill="#4aff6c" />
<rect x="56" y="60" width="2" height="2" fill="#4aff6c" />
<rect x="58" y="60" width="2" height="2" fill="#4aff6c" />
<rect x="60" y="60" width="2" height="2" fill="#4aff6c" />
<rect x="30" y="62" width="2" height="2" fill="#4aff6c" />
<rect x="32" y="62" width="2" height="2" fill="#4aff6c" />
<rect x="40" y="62" width="2" height="2" fill="#4aff6c" />
<rect x="42" y="62" width="2" height="2" fill="#4aff6c" />
<rect x="50" y="62" width="2" height="2" fill="#4aff6c" />
<rect x="56" y="62" width="2" height="2" fill="#4aff6c" />
<rect x="58" y="62" width="2" height="2" fill="#4aff6c" />
<rect x="6" y="64" width="2" height="2" fill="#4aff6c" />
<rect x="8" y="64" width="2" height="2" fill="#4aff6c" />
<rect x="4" y="66" width="2" height="2" fill="#4aff6c" />
<rect x="10" y="66" width="2" height="2" fill="#4aff6c" />
<rect x="6" y="68" width="2" height="2" fill="#4aff6c" />
<rect x="8" y="68" width="2" height="2" fill="#4aff6c" />
</svg>