<?xml version="1.0" encoding="utf-8"?>
<svg xmlns="http://www.w3.org/2000/svg" width="59" height="32" viewBox="0 0 59 32">
<rect width="100%" height="100%" fill="transparent" />
<rect x="27" y="4" width="1" height="1" fill="#4aff6c" />
<rect x="28" y="4" width="1" height="1" fill="#4aff6c" />
<rect x="53" y="4" width="1" height="1" fill="#4aff6c" />
<rect x="54" y="4" width="1" height="1" fill="#4aff6c" />
<rect x="27" y="5" width="1" height="1" fill="#4aff6c" />
<rect x="28" y="5" width="1" height="1" fill="#4aff6c" />
<rect x="53" y="5" width="1" height="1" fill="#4aff6c" />
<rect x="54" y="5" width="1" height="1" fill="#4aff6c" />
<rect x="45" y="6" width="1" height="1" fill="#4aff6c" />
<rect x="46" y="6" width="1" height="1" fill="#4aff6c" />
<rect x="44" y="7" width="1" height="1" fill="#4aff6c" />
<rect x="47" y="7" width="1" height="1" fill="#4aff6c" />
<rect x="45" y="8" width="1" height="1" fill="#4aff6c" />
<rect x="46" y="8" width="1" height="1" fill="#4aff6c" />
<rect x="40" y="10" width="1" height="1" fill="#4aff6c" />
<rect x="41" y="10" width="1" height="1" fill="#4aff6c" />
<rect x="42" y="10" width="1" height="1" fill="#4aff6c" />
<rect x="40" y="11" width="1" height="1" fill="#4aff6c" />
<rect x="42" y="11" width="1" height="1" fill="#4aff6c" />
<rect x="13" y="12" width="1" height="1" fill="#4aff6c" />
<rect x="14" y="12" width="1" height="1" fill="#4aff6c" />
<rect x="40" y="12" width="1" height="1" fill="#4aff6c" />
<rect x="41" y="12" width="1" height="1" fill="#4aff6c" />
<rect x="42" y="12" width="1" height="1" fill="#4aff6c" />
<rect x="13" y="13" width="1" height="1" fill="#4aff6c" />
<rect x="14" y="13" width="1" height="1" fill="#4aff6c" />
<rect x="40" y="13" width="1" height="1" fill="#4aff6c" />
<rect x="41" y="13" width="1" height="1" fill="#4aff6c" />
<rect x="12" y="14" width="1" height="1" fill="#4aff6c" />
<rect x="15" y="14" width="1" height="1" fill="#4aff6c" />
<rect x="39" y="14" width="1" height="1" fill="#4aff6c" />
<rect x="40" y="14" width="1" height="1" fill="#4aff6c" />
<rect x="41" y="14" width="1" height="1" fill="#4aff6c" />
<rect x="12" y="15" width="1" height="1" fill="#4aff6c" />
<rect x="15" y="15" width="1" height="1" fill="#4aff6c" />
<rect x="17" y="15" width="1" height="1" fill="#4aff6c" />
<rect x="18" y="15" width="1" height="1" fill="#4aff6c" />
<rect x="39" y="15" width="1" height="1" fill="#4aff6c" />
<rect x="41" y="15" width="1" height="1" fill="#4aff6c" />
<rect x="12" y="16" width="1" height="1" fill="#4aff6c" />
<rect x="17" y="16" width="1" height="1" fill="#4aff6c" />
<rect x="18" y="16" width="1" height="1" fill="#4aff6c" />
<rect x="39" y="16" width="1" height="1" fill="#4aff6c" />
<rect x="40" y="16" width="1" height="1" fill="#4aff6c" />
<rect x="41" y="16" width="1" height="1" fill="#4aff6c" />
<rect x="14" y="17" width="1" height="1" fill="#4aff6c" />
<rect x="15" y="17" width="1" height="1" fill="#4aff6c" />
<rect x="17" y="17" width="1" height="1" fill="#4aff6c" />
<rect x="18" y="17" width="1" height="1" fill="#4aff6c" />
<rect x="35" y="18" width="1" height="1" fill="#4aff6c" />
<rect x="36" y="18" width="1" height="1" fill="#4aff6c" />
<rect x="25" y="19" width="1" height="1" fill="#4aff6c" />
<rect x="26" y="19" width="1" height="1" fill="#4aff6c" />
<rect x="34" y="19" width="1" height="1" fill="#4aff6c" />
<rect x="37" y="19" width="1" height="1" fill="#4aff6c" />
<rect x="25" y="20" width="1" height="1" fill="#4aff6c" />
<rect x="26" y="20" width="1" height="1" fill="#4aff6c" />
<rect x="35" y="20" width="1" height="1" fill="#4aff6c" />
<rect x="36" y="20" width="1" height="1" fill="#4aff6c" />
<rect x="53" y="21" width="1" height="1" fill="#4aff6c" />
<rect x="54" y="21" width="1" height="1" fill="#4aff6c" />
<rect x="53" y="22" width="1" height="1" fill="#4aff6c" />
<rect x="54" y="22" width="1" height="1" fill="#4aff6c" />
<rect x="8" y="24" width="1" height="1" fill="#4aff6c" />
<rect x="9" y="24" width="1" height="1" fill="#4aff6c" />
<rect x="28" y="24" width="1" height="1" fill="#4aff6c" />
<rect x="4" y="25" width="1" height="1" fill="#4aff6c" />
<rect x="5" y="25" width="1" height="1" fill="#4aff6c" />
<rect x="10" y="25" width="1" height="1" fill="#4aff6c" />
<rect x="11" y="25" width="1" height="1" fill="#4aff6c" />
<rect x="12" y="25" width="1" height="1" fill="#4aff6c" />
<rect x="13" y="25" width="1" height="1" fill="#4aff6c" />
<rect x="24" y="25" width="1" height="1" fill="#4aff6c" />
<rect x="25" y="25" width="1" height="1" fill="#4aff6c" />
<rect x="28" y="25" width="1" height="1" fill="#4aff6c" />
<rect x="29" y="25" width="1" height="1" fill="#4aff6c" />
<rect x="31" y="25" width="1" height="1" fill="#4aff6c" />
<rect x="32" y="25" width="1" height="1" fill="#4aff6c" />
<rect x="33" y="25" width="1" height="1" fill="#4aff6c" />
<rect x="4" y="26" width="1" height="1" fill="#4aff6c" />
<rect x="5" y="26" width="1" height="1" fill="#4aff6c" />
<rect x="8" y="26" width="1" height="1" fill="#4aff6c" />
<rect x="9" y="26" width="1" height="1" fill="#4aff6c" />
<rect x="11" y="26" width="1" height="1" fill="#4aff6c" />
<rect x="12" y="26" width="1" height="1" fill="#4aff6c" />
<rect x="13" y="26" width="1" height="1" fill="#4aff6c" />
<rect x="24" y="26" width="1" height="1" fill="#4aff6c" />
<rect x="25" y="26" width="1" height="1" fill="#4aff6c" />
<rect x="30" y="26" width="1" height="1" fill="#4aff6c" />
<rect x="31" y="26" width="1" height="1" fill="#4aff6c" />
<rect x="32" y="26" width="1" height="1" fill="#4aff6c" />
<rect x="33" y="26" width="1" height="1" fill="#4aff6c" />
<rect x="8" y="27" width="1" height="1" fill="#4aff6c" />
<rect x="28" y="27" width="1" height="1" fill="#4aff6c" />
<rect x="29" y="27" width="1" height="1" fill="#4aff6c" />
</svg>