<?xml version="1.0" encoding="utf-8"?>
<svg xmlns="http://www.w3.org/2000/svg" width="74" height="54" viewBox="0 0 74 54">
<rect width="100%" height="100%" fill="transparent" />
<rect x="18" y="4" width="2" height="2" fill="#4aff6c" />
<rect x="54" y="4" width="2" height="2" fill="#4aff6c" />
<rect x="16" y="6" width="2" height="2" fill="#4aff6c" />
<rect x="18" y="6" width="2" height="2" fill="#4aff6c" />
<rect x="20" y="6" width="2" height="2" fill="#4aff6c" />
<rect x="52" y="6" width="2" height="2" fill="#4aff6c" />
<rect x="54" y="6" width="2" height="2" fill="#4aff6c" />
<rect x="56" y="6" width="2" height="2" fill="#4aff6c" />
<rect x="14" y="8" width="2" height="2" fill="#4aff6c" />
<rect x="16" y="8" width="2" height="2" fill="#4aff6c" />
<rect x="26" y="8" width="2" height="2" fill="#4aff6c" />
<rect x="28" y="8" width="2" height="2" fill="#4aff6c" />
<rect x="30" y="8" width="2" height="2" fill="#4aff6c" />
<rect x="42" y="8" width="2" height="2" fill="#4aff6c" />
<rect x="44" y="8" width="2" height="2" fill="#4aff6c" />
<rect x="46" y="8" width="2" height="2" fill="#4aff6c" />
<rect x="56" y="8" width="2" height="2" fill="#4aff6c" />
<rect x="58" y="8" width="2" height="2" fill="#4aff6c" />
<rect x="10" y="10" width="2" height="2" fill="#4aff6c" />
<rect x="12" y="10" width="2" height="2" fill="#4aff6c" />
<rect x="16" y="10" width="2" height="2" fill="#4aff6c" />
<rect x="22" y="10" width="2" height="2" fill="#4aff6c" />
<rect x="24" y="10" width="2" height="2" fill="#4aff6c" />
<rect x="26" y="10" width="2" height="2" fill="#4aff6c" />
<rect x="32" y="10" width="2" height="2" fill="#4aff6c" />
<rect x="40" y="10" width="2" height="2" fill="#4aff6c" />
<rect x="46" y="10" width="2" height="2" fill="#4aff6c" />
<rect x="48" y="10" width="2" height="2" fill="#4aff6c" />
<rect x="50" y="10" width="2" height="2" fill="#4aff6c" />
<rect x="56" y="10" width="2" height="2" fill="#4aff6c" />
<rect x="60" y="10" width="2" height="2" fill="#4aff6c" />
<rect x="62" y="10" width="2" height="2" fill="#4aff6c" />
<rect x="12" y="12" width="2" height="2" fill="#4aff6c" />
<rect x="16" y="12" width="2" height="2" fill="#4aff6c" />
<rect x="22" y="12" width="2" height="2" fill="#4aff6c" />
<rect x="26" y="12" width="2" height="2" fill="#4aff6c" />
<rect x="34" y="12" width="2" height="2" fill="#4aff6c" />
<rect x="38" y="12" width="2" height="2" fill="#4aff6c" />
<rect x="46" y="12" width="2" height="2" fill="#4aff6c" />
<rect x="50" y="12" width="2" height="2" fill="#4aff6c" />
<rect x="56" y="12" width="2" height="2" fill="#4aff6c" />
<rect x="60" y="12" width="2" height="2" fill="#4aff6c" />
<rect x="6" y="14" width="2" height="2" fill="#4aff6c" />
<rect x="8" y="14" width="2" height="2" fill="#4aff6c" />
<rect x="12" y="14" width="2" height="2" fill="#4aff6c" />
<rect x="16" y="14" width="2" height="2" fill="#4aff6c" />
<rect x="20" y="14" width="2" height="2" fill="#4aff6c" />
<rect x="24" y="14" width="2" height="2" fill="#4aff6c" />
<rect x="34" y="14" width="2" height="2" fill="#4aff6c" />
<rect x="38" y="14" width="2" height="2" fill="#4aff6c" />
<rect x="48" y="14" width="2" height="2" fill="#4aff6c" />
<rect x="52" y="14" width="2" height="2" fill="#4aff6c" />
<rect x="56" y="14" width="2" height="2" fill="#4aff6c" />
<rect x="60" y="14" width="2" height="2" fill="#4aff6c" />
<rect x="64" y="14" width="2" height="2" fill="#4aff6c" />
<rect x="66" y="14" width="2" height="2" fill="#4aff6c" />
<rect x="6" y="16" width="2" height="2" fill="#4aff6c" />
<rect x="8" y="16" width="2" height="2" fill="#4aff6c" />
<rect x="16" y="16" width="2" height="2" fill="#4aff6c" />
<rect x="20" y="16" width="2" height="2" fill="#4aff6c" />
<rect x="30" y="16" width="2" height="2" fill="#4aff6c" />
<rect x="42" y="16" width="2" height="2" fill="#4aff6c" />
<rect x="52" y="16" width="2" height="2" fill="#4aff6c" />
<rect x="56" y="16" width="2" height="2" fill="#4aff6c" />
<rect x="64" y="16" width="2" height="2" fill="#4aff6c" />
<rect x="66" y="16" width="2" height="2" fill="#4aff6c" />
<rect x="6" y="18" width="2" height="2" fill="#4aff6c" />
<rect x="8" y="18" width="2" height="2" fill="#4aff6c" />
<rect x="10" y="18" width="2" height="2" fill="#4aff6c" />
<rect x="14" y="18" width="2" height="2" fill="#4aff6c" />
<rect x="22" y="18" width="2" height="2" fill="#4aff6c" />
<rect x="32" y="18" width="2" height="2" fill="#4aff6c" />
<rect x="36" y="18" width="2" height="2" fill="#4aff6c" />
<rect x="40" y="18" width="2" height="2" fill="#4aff6c" />
<rect x="50" y="18" width="2" height="2" fill="#4aff6c" />
<rect x="58" y="18" width="2" height="2" fill="#4aff6c" />
<rect x="62" y="18" width="2" height="2" fill="#4aff6c" />
<rect x="64" y="18" width="2" height="2" fill="#4aff6c" />
<rect x="66" y="18" width="2" height="2" fill="#4aff6c" />
<rect x="4" y="20" width="2" height="2" fill="#4aff6c" />
<rect x="6" y="20" width="2" height="2" fill="#4aff6c" />
<rect x="26" y="20" width="2" height="2" fill="#4aff6c" />
<rect x="28" y="20" width="2" height="2" fill="#4aff6c" />
<rect x="32" y="20" width="2" height="2" fill="#4aff6c" />
<rect x="36" y="20" width="2" height="2" fill="#4aff6c" />
<rect x="40" y="20" width="2" height="2" fill="#4aff6c" />
<rect x="44" y="20" width="2" height="2" fill="#4aff6c" />
<rect x="46" y="20" width="2" height="2" fill="#4aff6c" />
<rect x="66" y="20" width="2" height="2" fill="#4aff6c" />
<rect x="68" y="20" width="2" height="2" fill="#4aff6c" />
<rect x="28" y="22" width="2" height="2" fill="#4aff6c" />
<rect x="44" y="22" width="2" height="2" fill="#4aff6c" />
<rect x="22" y="24" width="2" height="2" fill="#4aff6c" />
<rect x="24" y="24" width="2" height="2" fill="#4aff6c" />
<rect x="28" y="24" width="2" height="2" fill="#4aff6c" />
<rect x="44" y="24" width="2" height="2" fill="#4aff6c" />
<rect x="48" y="24" width="2" height="2" fill="#4aff6c" />
<rect x="50" y="24" width="2" height="2" fill="#4aff6c" />
<rect x="24" y="26" width="2" height="2" fill="#4aff6c" />
<rect x="48" y="26" width="2" height="2" fill="#4aff6c" />
<rect x="18" y="28" width="2" height="2" fill="#4aff6c" />
<rect x="20" y="28" width="2" height="2" fill="#4aff6c" />
<rect x="24" y="28" width="2" height="2" fill="#4aff6c" />
<rect x="48" y="28" width="2" height="2" fill="#4aff6c" />
<rect x="52" y="28" width="2" height="2" fill="#4aff6c" />
<rect x="54" y="28" width="2" height="2" fill="#4aff6c" />
<rect x="18" y="30" width="2" height="2" fill="#4aff6c" />
<rect x="20" y="30" width="2" height="2" fill="#4aff6c" />
<rect x="52" y="30" width="2" height="2" fill="#4aff6c" />
<rect x="54" y="30" width="2" height="2" fill="#4aff6c" />
<rect x="18" y="32" width="2" height="2" fill="#4aff6c" />
<rect x="22" y="32" width="2" height="2" fill="#4aff6c" />
<rect x="26" y="32" width="2" height="2" fill="#4aff6c" />
<rect x="30" y="32" width="2" height="2" fill="#4aff6c" />
<rect x="32" y="32" width="2" height="2" fill="#4aff6c" />
<rect x="34" y="32" width="2" height="2" fill="#4aff6c" />
<rect x="38" y="32" width="2" height="2" fill="#4aff6c" />
<rect x="40" y="32" width="2" height="2" fill="#4aff6c" />
<rect x="42" y="32" width="2" height="2" fill="#4aff6c" />
<rect x="46" y="32" width="2" height="2" fill="#4aff6c" />
<rect x="50" y="32" width="2" height="2" fill="#4aff6c" />
<rect x="54" y="32" width="2" height="2" fill="#4aff6c" />
<rect x="16" y="34" width="2" height="2" fill="#4aff6c" />
<rect x="18" y="34" width="2" height="2" fill="#4aff6c" />
<rect x="26" y="34" width="2" height="2" fill="#4aff6c" />
<rect x="34" y="34" width="2" height="2" fill="#4aff6c" />
<rect x="38" y="34" width="2" height="2" fill="#4aff6c" />
<rect x="46" y="34" width="2" height="2" fill="#4aff6c" />
<rect x="54" y="34" width="2" height="2" fill="#4aff6c" />
<rect x="56" y="34" width="2" height="2" fill="#4aff6c" />
<rect x="16" y="36" width="2" height="2" fill="#4aff6c" />
<rect x="22" y="36" width="2" height="2" fill="#4aff6c" />
<rect x="30" y="36" width="2" height="2" fill="#4aff6c" />
<rect x="34" y="36" width="2" height="2" fill="#4aff6c" />
<rect x="38" y="36" width="2" height="2" fill="#4aff6c" />
<rect x="42" y="36" width="2" height="2" fill="#4aff6c" />
<rect x="50" y="36" width="2" height="2" fill="#4aff6c" />
<rect x="56" y="36" width="2" height="2" fill="#4aff6c" />
<rect x="22" y="38" width="2" height="2" fill="#4aff6c" />
<rect x="24" y="38" width="2" height="2" fill="#4aff6c" />
<rect x="34" y="38" width="2" height="2" fill="#4aff6c" />
<rect x="38" y="38" width="2" height="2" fill="#4aff6c" />
<rect x="48" y="38" width="2" height="2" fill="#4aff6c" />
<rect x="50" y="38" width="2" height="2" fill="#4aff6c" />
<rect x="14" y="40" width="2" height="2" fill="#4aff6c" />
<rect x="16" y="40" width="2" height="2" fill="#4aff6c" />
<rect x="26" y="40" width="2" height="2" fill="#4aff6c" />
<rect x="34" y="40" width="2" height="2" fill="#4aff6c" />
<rect x="38" y="40" width="2" height="2" fill="#4aff6c" />
<rect x="46" y="40" width="2" height="2" fill="#4aff6c" />
<rect x="56" y="40" width="2" height="2" fill="#4aff6c" />
<rect x="58" y="40" width="2" height="2" fill="#4aff6c" />
<rect x="22" y="42" width="2" height="2" fill="#4aff6c" />
<rect x="26" y="42" width="2" height="2" fill="#4aff6c" />
<rect x="28" y="42" width="2" height="2" fill="#4aff6c" />
<rect x="32" y="42" width="2" height="2" fill="#4aff6c" />
<rect x="40" y="42" width="2" height="2" fill="#4aff6c" />
<rect x="44" y="42" width="2" height="2" fill="#4aff6c" />
<rect x="46" y="42" width="2" height="2" fill="#4aff6c" />
<rect x="50" y="42" width="2" height="2" fill="#4aff6c" />
<rect x="24" y="44" width="2" height="2" fill="#4aff6c" />
<rect x="28" y="44" width="2" height="2" fill="#4aff6c" />
<rect x="32" y="44" width="2" height="2" fill="#4aff6c" />
<rect x="36" y="44" width="2" height="2" fill="#4aff6c" />
<rect x="40" y="44" width="2" height="2" fill="#4aff6c" />
<rect x="44" y="44" width="2" height="2" fill="#4aff6c" />
<rect x="48" y="44" width="2" height="2" fill="#4aff6c" />
<rect x="28" y="46" width="2" height="2" fill="#4aff6c" />
<rect x="34" y="46" width="2" height="2" fill="#4aff6c" />
<rect x="38" y="46" width="2" height="2" fill="#4aff6c" />
<rect x="44" y="46" width="2" height="2" fill="#4aff6c" />
<rect x="26" y="48" width="2" height="2" fill="#4aff6c" />
<rect x="30" y="48" width="2" height="2" fill="#4aff6c" />
<rect x="42" y="48" width="2" height="2" fill="#4aff6c" />
<rect x="46" y="48" width="2" height="2" fill="#4aff6c" />
</svg>