<?xml version="1.0" encoding="utf-8"?>
<svg xmlns="http://www.w3.org/2000/svg" width="65" height="45" viewBox="0 0 65 45">
<rect width="100%" height="100%" fill="transparent" />
<rect x="13" y="4" width="1" height="1" fill="#4aff6c" />
<rect x="14" y="4" width="1" height="1" fill="#4aff6c" />
<rect x="37" y="4" width="1" height="1" fill="#4aff6c" />
<rect x="38" y="4" width="1" height="1" fill="#4aff6c" />
<rect x="13" y="5" width="1" height="1" fill="#4aff6c" />
<rect x="14" y="5" width="1" height="1" fill="#4aff6c" />
<rect x="37" y="5" width="1" height="1" fill="#4aff6c" />
<rect x="38" y="5" width="1" height="1" fill="#4aff6c" />
<rect x="9" y="8" width="1" height="1" fill="#4aff6c" />
<rect x="10" y="8" width="1" height="1" fill="#4aff6c" />
<rect x="18" y="8" width="1" height="1" fill="#4aff6c" />
<rect x="19" y="8" width="1" height="1" fill="#4aff6c" />
<rect x="33" y="8" width="1" height="1" fill="#4aff6c" />
<rect x="34" y="8" width="1" height="1" fill="#4aff6c" />
<rect x="42" y="8" width="1" height="1" fill="#4aff6c" />
<rect x="43" y="8" width="1" height="1" fill="#4aff6c" />
<rect x="57" y="8" width="1" height="1" fill="#4aff6c" />
<rect x="58" y="8" width="1" height="1" fill="#4aff6c" />
<rect x="5" y="9" width="1" height="1" fill="#4aff6c" />
<rect x="6" y="9" width="1" height="1" fill="#4aff6c" />
<rect x="9" y="9" width="1" height="1" fill="#4aff6c" />
<rect x="10" y="9" width="1" height="1" fill="#4aff6c" />
<rect x="18" y="9" width="1" height="1" fill="#4aff6c" />
<rect x="19" y="9" width="1" height="1" fill="#4aff6c" />
<rect x="29" y="9" width="1" height="1" fill="#4aff6c" />
<rect x="30" y="9" width="1" height="1" fill="#4aff6c" />
<rect x="33" y="9" width="1" height="1" fill="#4aff6c" />
<rect x="34" y="9" width="1" height="1" fill="#4aff6c" />
<rect x="42" y="9" width="1" height="1" fill="#4aff6c" />
<rect x="43" y="9" width="1" height="1" fill="#4aff6c" />
<rect x="53" y="9" width="1" height="1" fill="#4aff6c" />
<rect x="54" y="9" width="1" height="1" fill="#4aff6c" />
<rect x="57" y="9" width="1" height="1" fill="#4aff6c" />
<rect x="58" y="9" width="1" height="1" fill="#4aff6c" />
<rect x="5" y="10" width="1" height="1" fill="#4aff6c" />
<rect x="6" y="10" width="1" height="1" fill="#4aff6c" />
<rect x="23" y="10" width="1" height="1" fill="#4aff6c" />
<rect x="24" y="10" width="1" height="1" fill="#4aff6c" />
<rect x="29" y="10" width="1" height="1" fill="#4aff6c" />
<rect x="30" y="10" width="1" height="1" fill="#4aff6c" />
<rect x="47" y="10" width="1" height="1" fill="#4aff6c" />
<rect x="48" y="10" width="1" height="1" fill="#4aff6c" />
<rect x="53" y="10" width="1" height="1" fill="#4aff6c" />
<rect x="54" y="10" width="1" height="1" fill="#4aff6c" />
<rect x="23" y="11" width="1" height="1" fill="#4aff6c" />
<rect x="24" y="11" width="1" height="1" fill="#4aff6c" />
<rect x="47" y="11" width="1" height="1" fill="#4aff6c" />
<rect x="48" y="11" width="1" height="1" fill="#4aff6c" />
<rect x="16" y="16" width="1" height="1" fill="#4aff6c" />
<rect x="17" y="16" width="1" height="1" fill="#4aff6c" />
<rect x="22" y="16" width="1" height="1" fill="#4aff6c" />
<rect x="23" y="16" width="1" height="1" fill="#4aff6c" />
<rect x="40" y="16" width="1" height="1" fill="#4aff6c" />
<rect x="41" y="16" width="1" height="1" fill="#4aff6c" />
<rect x="46" y="16" width="1" height="1" fill="#4aff6c" />
<rect x="47" y="16" width="1" height="1" fill="#4aff6c" />
<rect x="16" y="17" width="1" height="1" fill="#4aff6c" />
<rect x="17" y="17" width="1" height="1" fill="#4aff6c" />
<rect x="22" y="17" width="1" height="1" fill="#4aff6c" />
<rect x="23" y="17" width="1" height="1" fill="#4aff6c" />
<rect x="40" y="17" width="1" height="1" fill="#4aff6c" />
<rect x="41" y="17" width="1" height="1" fill="#4aff6c" />
<rect x="46" y="17" width="1" height="1" fill="#4aff6c" />
<rect x="47" y="17" width="1" height="1" fill="#4aff6c" />
<rect x="4" y="27" width="1" height="1" fill="#4aff6c" />
<rect x="5" y="27" width="1" height="1" fill="#4aff6c" />
<rect x="10" y="27" width="1" height="1" fill="#4aff6c" />
<rect x="11" y="27" width="1" height="1" fill="#4aff6c" />
<rect x="28" y="27" width="1" height="1" fill="#4aff6c" />
<rect x="29" y="27" width="1" height="1" fill="#4aff6c" />
<rect x="34" y="27" width="1" height="1" fill="#4aff6c" />
<rect x="35" y="27" width="1" height="1" fill="#4aff6c" />
<rect x="52" y="27" width="1" height="1" fill="#4aff6c" />
<rect x="53" y="27" width="1" height="1" fill="#4aff6c" />
<rect x="58" y="27" width="1" height="1" fill="#4aff6c" />
<rect x="59" y="27" width="1" height="1" fill="#4aff6c" />
<rect x="4" y="28" width="1" height="1" fill="#4aff6c" />
<rect x="5" y="28" width="1" height="1" fill="#4aff6c" />
<rect x="10" y="28" width="1" height="1" fill="#4aff6c" />
<rect x="11" y="28" width="1" height="1" fill="#4aff6c" />
<rect x="28" y="28" width="1" height="1" fill="#4aff6c" />
<rect x="29" y="28" width="1" height="1" fill="#4aff6c" />
<rect x="34" y="28" width="1" height="1" fill="#4aff6c" />
<rect x="35" y="28" width="1" height="1" fill="#4aff6c" />
<rect x="52" y="28" width="1" height="1" fill="#4aff6c" />
<rect x="53" y="28" width="1" height="1" fill="#4aff6c" />
<rect x="58" y="28" width="1" height="1" fill="#4aff6c" />
<rect x="59" y="28" width="1" height="1" fill="#4aff6c" />
<rect x="5" y="33" width="1" height="1" fill="#4aff6c" />
<rect x="6" y="33" width="1" height="1" fill="#4aff6c" />
<rect x="11" y="33" width="1" height="1" fill="#4aff6c" />
<rect x="12" y="33" width="1" height="1" fill="#4aff6c" />
<rect x="35" y="33" width="1" height="1" fill="#4aff6c" />
<rect x="36" y="33" width="1" height="1" fill="#4aff6c" />
<rect x="59" y="33" width="1" height="1" fill="#4aff6c" />
<rect x="60" y="33" width="1" height="1" fill="#4aff6c" />
<rect x="4" y="34" width="1" height="1" fill="#4aff6c" />
<rect x="6" y="34" width="1" height="1" fill="#4aff6c" />
<rect x="11" y="34" width="1" height="1" fill="#4aff6c" />
<rect x="12" y="34" width="1" height="1" fill="#4aff6c" />
<rect x="17" y="34" width="1" height="1" fill="#4aff6c" />
<rect x="18" y="34" width="1" height="1" fill="#4aff6c" />
<rect x="35" y="34" width="1" height="1" fill="#4aff6c" />
<rect x="36" y="34" width="1" height="1" fill="#4aff6c" />
<rect x="41" y="34" width="1" height="1" fill="#4aff6c" />
<rect x="42" y="34" width="1" height="1" fill="#4aff6c" />
<rect x="59" y="34" width="1" height="1" fill="#4aff6c" />
<rect x="60" y="34" width="1" height="1" fill="#4aff6c" />
<rect x="6" y="35" width="1" height="1" fill="#4aff6c" />
<rect x="17" y="35" width="1" height="1" fill="#4aff6c" />
<rect x="18" y="35" width="1" height="1" fill="#4aff6c" />
<rect x="21" y="35" width="1" height="1" fill="#4aff6c" />
<rect x="22" y="35" width="1" height="1" fill="#4aff6c" />
<rect x="30" y="35" width="1" height="1" fill="#4aff6c" />
<rect x="31" y="35" width="1" height="1" fill="#4aff6c" />
<rect x="41" y="35" width="1" height="1" fill="#4aff6c" />
<rect x="42" y="35" width="1" height="1" fill="#4aff6c" />
<rect x="45" y="35" width="1" height="1" fill="#4aff6c" />
<rect x="46" y="35" width="1" height="1" fill="#4aff6c" />
<rect x="54" y="35" width="1" height="1" fill="#4aff6c" />
<rect x="55" y="35" width="1" height="1" fill="#4aff6c" />
<rect x="21" y="36" width="1" height="1" fill="#4aff6c" />
<rect x="22" y="36" width="1" height="1" fill="#4aff6c" />
<rect x="30" y="36" width="1" height="1" fill="#4aff6c" />
<rect x="31" y="36" width="1" height="1" fill="#4aff6c" />
<rect x="45" y="36" width="1" height="1" fill="#4aff6c" />
<rect x="46" y="36" width="1" height="1" fill="#4aff6c" />
<rect x="54" y="36" width="1" height="1" fill="#4aff6c" />
<rect x="55" y="36" width="1" height="1" fill="#4aff6c" />
<rect x="25" y="39" width="1" height="1" fill="#4aff6c" />
<rect x="26" y="39" width="1" height="1" fill="#4aff6c" />
<rect x="49" y="39" width="1" height="1" fill="#4aff6c" />
<rect x="50" y="39" width="1" height="1" fill="#4aff6c" />
<rect x="25" y="40" width="1" height="1" fill="#4aff6c" />
<rect x="26" y="40" width="1" height="1" fill="#4aff6c" />
<rect x="49" y="40" width="1" height="1" fill="#4aff6c" />
<rect x="50" y="40" width="1" height="1" fill="#4aff6c" />
</svg>