<?xml version="1.0" encoding="utf-8"?>
<svg xmlns="http://www.w3.org/2000/svg" width="68" height="68" viewBox="0 0 68 68">
<rect width="100%" height="100%" fill="transparent" />
<rect x="22" y="4" width="2" height="2" fill="#4aff6c" />
<rect x="32" y="4" width="2" height="2" fill="#4aff6c" />
<rect x="34" y="4" width="2" height="2" fill="#4aff6c" />
<rect x="20" y="6" width="2" height="2" fill="#4aff6c" />
<rect x="24" y="6" width="2" height="2" fill="#4aff6c" />
<rect x="30" y="6" width="2" height="2" fill="#4aff6c" />
<rect x="34" y="6" width="2" height="2" fill="#4aff6c" />
<rect x="50" y="6" width="2" height="2" fill="#4aff6c" />
<rect x="52" y="6" width="2" height="2" fill="#4aff6c" />
<rect x="18" y="8" width="2" height="2" fill="#4aff6c" />
<rect x="24" y="8" width="2" height="2" fill="#4aff6c" />
<rect x="26" y="8" width="2" height="2" fill="#4aff6c" />
<rect x="28" y="8" width="2" height="2" fill="#4aff6c" />
<rect x="30" y="8" width="2" height="2" fill="#4aff6c" />
<rect x="50" y="8" width="2" height="2" fill="#4aff6c" />
<rect x="18" y="10" width="2" height="2" fill="#4aff6c" />
<rect x="22" y="10" width="2" height="2" fill="#4aff6c" />
<rect x="32" y="10" width="2" height="2" fill="#4aff6c" />
<rect x="46" y="10" width="2" height="2" fill="#4aff6c" />
<rect x="50" y="10" width="2" height="2" fill="#4aff6c" />
<rect x="14" y="12" width="2" height="2" fill="#4aff6c" />
<rect x="16" y="12" width="2" height="2" fill="#4aff6c" />
<rect x="18" y="12" width="2" height="2" fill="#4aff6c" />
<rect x="22" y="12" width="2" height="2" fill="#4aff6c" />
<rect x="24" y="12" width="2" height="2" fill="#4aff6c" />
<rect x="30" y="12" width="2" height="2" fill="#4aff6c" />
<rect x="32" y="12" width="2" height="2" fill="#4aff6c" />
<rect x="46" y="12" width="2" height="2" fill="#4aff6c" />
<rect x="48" y="12" width="2" height="2" fill="#4aff6c" />
<rect x="12" y="14" width="2" height="2" fill="#4aff6c" />
<rect x="6" y="16" width="2" height="2" fill="#4aff6c" />
<rect x="12" y="16" width="2" height="2" fill="#4aff6c" />
<rect x="14" y="16" width="2" height="2" fill="#4aff6c" />
<rect x="16" y="16" width="2" height="2" fill="#4aff6c" />
<rect x="18" y="16" width="2" height="2" fill="#4aff6c" />
<rect x="22" y="16" width="2" height="2" fill="#4aff6c" />
<rect x="24" y="16" width="2" height="2" fill="#4aff6c" />
<rect x="6" y="18" width="2" height="2" fill="#4aff6c" />
<rect x="8" y="18" width="2" height="2" fill="#4aff6c" />
<rect x="10" y="18" width="2" height="2" fill="#4aff6c" />
<rect x="18" y="18" width="2" height="2" fill="#4aff6c" />
<rect x="22" y="18" width="2" height="2" fill="#4aff6c" />
<rect x="24" y="18" width="2" height="2" fill="#4aff6c" />
<rect x="12" y="20" width="2" height="2" fill="#4aff6c" />
<rect x="10" y="22" width="2" height="2" fill="#4aff6c" />
<rect x="12" y="22" width="2" height="2" fill="#4aff6c" />
<rect x="62" y="36" width="2" height="2" fill="#4aff6c" />
<rect x="58" y="38" width="2" height="2" fill="#4aff6c" />
<rect x="60" y="38" width="2" height="2" fill="#4aff6c" />
<rect x="62" y="38" width="2" height="2" fill="#4aff6c" />
<rect x="58" y="40" width="2" height="2" fill="#4aff6c" />
<rect x="58" y="42" width="2" height="2" fill="#4aff6c" />
<rect x="4" y="44" width="2" height="2" fill="#4aff6c" />
<rect x="4" y="46" width="2" height="2" fill="#4aff6c" />
<rect x="8" y="46" width="2" height="2" fill="#4aff6c" />
<rect x="4" y="48" width="2" height="2" fill="#4aff6c" />
<rect x="6" y="48" width="2" height="2" fill="#4aff6c" />
<rect x="8" y="48" width="2" height="2" fill="#4aff6c" />
<rect x="8" y="50" width="2" height="2" fill="#4aff6c" />
<rect x="34" y="54" width="2" height="2" fill="#4aff6c" />
<rect x="36" y="54" width="2" height="2" fill="#4aff6c" />
<rect x="22" y="56" width="2" height="2" fill="#4aff6c" />
<rect x="24" y="56" width="2" height="2" fill="#4aff6c" />
<rect x="34" y="56" width="2" height="2" fill="#4aff6c" />
<rect x="38" y="56" width="2" height="2" fill="#4aff6c" />
<rect x="24" y="58" width="2" height="2" fill="#4aff6c" />
<rect x="38" y="58" width="2" height="2" fill="#4aff6c" />
<rect x="18" y="60" width="2" height="2" fill="#4aff6c" />
<rect x="20" y="60" width="2" height="2" fill="#4aff6c" />
<rect x="22" y="60" width="2" height="2" fill="#4aff6c" />
<rect x="38" y="60" width="2" height="2" fill="#4aff6c" />
<rect x="40" y="60" width="2" height="2" fill="#4aff6c" />
<rect x="18" y="62" width="2" height="2" fill="#4aff6c" />
</svg>