<?xml version="1.0" encoding="utf-8"?>
<svg xmlns="http://www.w3.org/2000/svg" width="38" height="69" viewBox="0 0 38 69">
<rect width="100%" height="100%" fill="transparent" />
<rect x="5" y="4" width="1" height="1" fill="#4aff6c" />
<rect x="5" y="5" width="1" height="1" fill="#4aff6c" />
<rect x="6" y="5" width="1" height="1" fill="#4aff6c" />
<rect x="7" y="5" width="1" height="1" fill="#4aff6c" />
<rect x="8" y="6" width="1" height="1" fill="#4aff6c" />
<rect x="7" y="7" width="1" height="1" fill="#4aff6c" />
<rect x="8" y="7" width="1" height="1" fill="#4aff6c" />
<rect x="20" y="7" width="1" height="1" fill="#4aff6c" />
<rect x="21" y="7" width="1" height="1" fill="#4aff6c" />
<rect x="33" y="7" width="1" height="1" fill="#4aff6c" />
<rect x="20" y="8" width="1" height="1" fill="#4aff6c" />
<rect x="21" y="8" width="1" height="1" fill="#4aff6c" />
<rect x="31" y="8" width="1" height="1" fill="#4aff6c" />
<rect x="32" y="8" width="1" height="1" fill="#4aff6c" />
<rect x="33" y="8" width="1" height="1" fill="#4aff6c" />
<rect x="31" y="9" width="1" height="1" fill="#4aff6c" />
<rect x="31" y="10" width="1" height="1" fill="#4aff6c" />
<rect x="6" y="14" width="1" height="1" fill="#4aff6c" />
<rect x="6" y="15" width="1" height="1" fill="#4aff6c" />
<rect x="8" y="15" width="1" height="1" fill="#4aff6c" />
<rect x="6" y="16" width="1" height="1" fill="#4aff6c" />
<rect x="7" y="16" width="1" height="1" fill="#4aff6c" />
<rect x="8" y="16" width="1" height="1" fill="#4aff6c" />
<rect x="8" y="17" width="1" height="1" fill="#4aff6c" />
<rect x="16" y="23" width="1" height="1" fill="#4aff6c" />
<rect x="17" y="23" width="1" height="1" fill="#4aff6c" />
<rect x="24" y="23" width="1" height="1" fill="#4aff6c" />
<rect x="25" y="23" width="1" height="1" fill="#4aff6c" />
<rect x="15" y="24" width="1" height="1" fill="#4aff6c" />
<rect x="18" y="24" width="1" height="1" fill="#4aff6c" />
<rect x="24" y="24" width="1" height="1" fill="#4aff6c" />
<rect x="25" y="24" width="1" height="1" fill="#4aff6c" />
<rect x="15" y="25" width="1" height="1" fill="#4aff6c" />
<rect x="18" y="25" width="1" height="1" fill="#4aff6c" />
<rect x="16" y="26" width="1" height="1" fill="#4aff6c" />
<rect x="17" y="26" width="1" height="1" fill="#4aff6c" />
<rect x="4" y="42" width="1" height="1" fill="#4aff6c" />
<rect x="4" y="43" width="1" height="1" fill="#4aff6c" />
<rect x="5" y="43" width="1" height="1" fill="#4aff6c" />
<rect x="6" y="43" width="1" height="1" fill="#4aff6c" />
<rect x="7" y="44" width="1" height="1" fill="#4aff6c" />
<rect x="6" y="45" width="1" height="1" fill="#4aff6c" />
<rect x="7" y="45" width="1" height="1" fill="#4aff6c" />
<rect x="19" y="45" width="1" height="1" fill="#4aff6c" />
<rect x="20" y="45" width="1" height="1" fill="#4aff6c" />
<rect x="32" y="45" width="1" height="1" fill="#4aff6c" />
<rect x="19" y="46" width="1" height="1" fill="#4aff6c" />
<rect x="20" y="46" width="1" height="1" fill="#4aff6c" />
<rect x="30" y="46" width="1" height="1" fill="#4aff6c" />
<rect x="31" y="46" width="1" height="1" fill="#4aff6c" />
<rect x="32" y="46" width="1" height="1" fill="#4aff6c" />
<rect x="30" y="47" width="1" height="1" fill="#4aff6c" />
<rect x="30" y="48" width="1" height="1" fill="#4aff6c" />
<rect x="5" y="52" width="1" height="1" fill="#4aff6c" />
<rect x="5" y="53" width="1" height="1" fill="#4aff6c" />
<rect x="7" y="53" width="1" height="1" fill="#4aff6c" />
<rect x="5" y="54" width="1" height="1" fill="#4aff6c" />
<rect x="6" y="54" width="1" height="1" fill="#4aff6c" />
<rect x="7" y="54" width="1" height="1" fill="#4aff6c" />
<rect x="7" y="55" width="1" height="1" fill="#4aff6c" />
<rect x="20" y="61" width="1" height="1" fill="#4aff6c" />
<rect x="21" y="61" width="1" height="1" fill="#4aff6c" />
<rect x="20" y="62" width="1" height="1" fill="#4aff6c" />
<rect x="22" y="62" width="1" height="1" fill="#4aff6c" />
<rect x="22" y="63" width="1" height="1" fill="#4aff6c" />
<rect x="22" y="64" width="1" height="1" fill="#4aff6c" />
<rect x="23" y="64" width="1" height="1" fill="#4aff6c" />
</svg>