<?xml version="1.0" encoding="utf-8"?>
<svg xmlns="http://www.w3.org/2000/svg" width="80" height="52" viewBox="0 0 80 52">
<rect width="100%" height="100%" fill="transparent" />
<rect x="20" y="4" width="4" height="4" fill="#4aff6c" />
<rect x="56" y="4" width="4" height="4" fill="#4aff6c" />
<rect x="12" y="8" width="4" height="4" fill="#4aff6c" />
<rect x="16" y="8" width="4" height="4" fill="#4aff6c" />
<rect x="20" y="8" width="4" height="4" fill="#4aff6c" />
<rect x="56" y="8" width="4" height="4" fill="#4aff6c" />
<rect x="60" y="8" width="4" height="4" fill="#4aff6c" />
<rect x="64" y="8" width="4" height="4" fill="#4aff6c" />
<rect x="8" y="12" width="4" height="4" fill="#4aff6c" />
<rect x="68" y="12" width="4" height="4" fill="#4aff6c" />
<rect x="8" y="16" width="4" height="4" fill="#4aff6c" />
<rect x="20" y="16" width="4" height="4" fill="#4aff6c" />
<rect x="24" y="16" width="4" height="4" fill="#4aff6c" />
<rect x="28" y="16" width="4" height="4" fill="#4aff6c" />
<rect x="48" y="16" width="4" height="4" fill="#4aff6c" />
<rect x="52" y="16" width="4" height="4" fill="#4aff6c" />
<rect x="56" y="16" width="4" height="4" fill="#4aff6c" />
<rect x="68" y="16" width="4" height="4" fill="#4aff6c" />
<rect x="4" y="20" width="4" height="4" fill="#4aff6c" />
<rect x="8" y="20" width="4" height="4" fill="#4aff6c" />
<rect x="16" y="20" width="4" height="4" fill="#4aff6c" />
<rect x="32" y="20" width="4" height="4" fill="#4aff6c" />
<rect x="44" y="20" width="4" height="4" fill="#4aff6c" />
<rect x="60" y="20" width="4" height="4" fill="#4aff6c" />
<rect x="68" y="20" width="4" height="4" fill="#4aff6c" />
<rect x="72" y="20" width="4" height="4" fill="#4aff6c" />
<rect x="16" y="24" width="4" height="4" fill="#4aff6c" />
<rect x="32" y="24" width="4" height="4" fill="#4aff6c" />
<rect x="36" y="24" width="4" height="4" fill="#4aff6c" />
<rect x="40" y="24" width="4" height="4" fill="#4aff6c" />
<rect x="44" y="24" width="4" height="4" fill="#4aff6c" />
<rect x="60" y="24" width="4" height="4" fill="#4aff6c" />
<rect x="16" y="28" width="4" height="4" fill="#4aff6c" />
<rect x="32" y="28" width="4" height="4" fill="#4aff6c" />
<rect x="44" y="28" width="4" height="4" fill="#4aff6c" />
<rect x="60" y="28" width="4" height="4" fill="#4aff6c" />
<rect x="20" y="32" width="4" height="4" fill="#4aff6c" />
<rect x="24" y="32" width="4" height="4" fill="#4aff6c" />
<rect x="28" y="32" width="4" height="4" fill="#4aff6c" />
<rect x="48" y="32" width="4" height="4" fill="#4aff6c" />
<rect x="52" y="32" width="4" height="4" fill="#4aff6c" />
<rect x="56" y="32" width="4" height="4" fill="#4aff6c" />
<rect x="20" y="40" width="4" height="4" fill="#4aff6c" />
<rect x="24" y="40" width="4" height="4" fill="#4aff6c" />
<rect x="32" y="40" width="4" height="4" fill="#4aff6c" />
<rect x="44" y="40" width="4" height="4" fill="#4aff6c" />
<rect x="52" y="40" width="4" height="4" fill="#4aff6c" />
<rect x="56" y="40" width="4" height="4" fill="#4aff6c" />
<rect x="20" y="44" width="4" height="4" fill="#4aff6c" />
<rect x="28" y="44" width="4" height="4" fill="#4aff6c" />
<rect x="32" y="44" width="4" height="4" fill="#4aff6c" />
<rect x="44" y="44" width="4" height="4" fill="#4aff6c" />
<rect x="48" y="44" width="4" height="4" fill="#4aff6c" />
<rect x="56" y="44" width="4" height="4" fill="#4aff6c" />
</svg>