<?xml version="1.0" encoding="utf-8"?>
<svg xmlns="http://www.w3.org/2000/svg" width="83" height="68" viewBox="0 0 83 68">
<rect width="100%" height="100%" fill="transparent" />
<rect x="31" y="4" width="3" height="3" fill="#4aff6c" />
<rect x="34" y="4" width="3" height="3" fill="#4aff6c" />
<rect x="31" y="7" width="3" height="3" fill="#4aff6c" />
<rect x="34" y="7" width="3" height="3" fill="#4aff6c" />
<rect x="34" y="13" width="3" height="3" fill="#4aff6c" />
<rect x="31" y="16" width="3" height="3" fill="#4aff6c" />
<rect x="37" y="16" width="3" height="3" fill="#4aff6c" />
<rect x="31" y="19" width="3" height="3" fill="#4aff6c" />
<rect x="37" y="19" width="3" height="3" fill="#4aff6c" />
<rect x="34" y="22" width="3" height="3" fill="#4aff6c" />
<rect x="25" y="31" width="3" height="3" fill="#4aff6c" />
<rect x="28" y="31" width="3" height="3" fill="#4aff6c" />
<rect x="34" y="31" width="3" height="3" fill="#4aff6c" />
<rect x="40" y="31" width="3" height="3" fill="#4aff6c" />
<rect x="43" y="31" width="3" height="3" fill="#4aff6c" />
<rect x="25" y="34" width="3" height="3" fill="#4aff6c" />
<rect x="43" y="34" width="3" height="3" fill="#4aff6c" />
<rect x="28" y="37" width="3" height="3" fill="#4aff6c" />
<rect x="40" y="37" width="3" height="3" fill="#4aff6c" />
<rect x="7" y="40" width="3" height="3" fill="#4aff6c" />
<rect x="31" y="40" width="3" height="3" fill="#4aff6c" />
<rect x="34" y="40" width="3" height="3" fill="#4aff6c" />
<rect x="37" y="40" width="3" height="3" fill="#4aff6c" />
<rect x="10" y="43" width="3" height="3" fill="#4aff6c" />
<rect x="4" y="46" width="3" height="3" fill="#4aff6c" />
<rect x="7" y="46" width="3" height="3" fill="#4aff6c" />
<rect x="10" y="46" width="3" height="3" fill="#4aff6c" />
<rect x="55" y="55" width="3" height="3" fill="#4aff6c" />
<rect x="70" y="55" width="3" height="3" fill="#4aff6c" />
<rect x="49" y="58" width="3" height="3" fill="#4aff6c" />
<rect x="52" y="58" width="3" height="3" fill="#4aff6c" />
<rect x="58" y="58" width="3" height="3" fill="#4aff6c" />
<rect x="61" y="58" width="3" height="3" fill="#4aff6c" />
<rect x="64" y="58" width="3" height="3" fill="#4aff6c" />
<rect x="67" y="58" width="3" height="3" fill="#4aff6c" />
<rect x="73" y="58" width="3" height="3" fill="#4aff6c" />
<rect x="76" y="58" width="3" height="3" fill="#4aff6c" />
<rect x="55" y="61" width="3" height="3" fill="#4aff6c" />
<rect x="70" y="61" width="3" height="3" fill="#4aff6c" />
</svg>