<?xml version="1.0" encoding="utf-8"?>
<svg xmlns="http://www.w3.org/2000/svg" width="84" height="80" viewBox="0 0 84 80">
<rect width="100%" height="100%" fill="transparent" />
<rect x="28" y="4" width="4" height="4" fill="#4aff6c" />
<rect x="32" y="4" width="4" height="4" fill="#4aff6c" />
<rect x="24" y="8" width="4" height="4" fill="#4aff6c" />
<rect x="32" y="8" width="4" height="4" fill="#4aff6c" />
<rect x="16" y="12" width="4" height="4" fill="#4aff6c" />
<rect x="20" y="12" width="4" height="4" fill="#4aff6c" />
<rect x="24" y="12" width="4" height="4" fill="#4aff6c" />
<rect x="12" y="16" width="4" height="4" fill="#4aff6c" />
<rect x="28" y="16" width="4" height="4" fill="#4aff6c" />
<rect x="56" y="16" width="4" height="4" fill="#4aff6c" />
<rect x="12" y="20" width="4" height="4" fill="#4aff6c" />
<rect x="16" y="20" width="4" height="4" fill="#4aff6c" />
<rect x="24" y="20" width="4" height="4" fill="#4aff6c" />
<rect x="28" y="20" width="4" height="4" fill="#4aff6c" />
<rect x="56" y="20" width="4" height="4" fill="#4aff6c" />
<rect x="60" y="20" width="4" height="4" fill="#4aff6c" />
<rect x="64" y="20" width="4" height="4" fill="#4aff6c" />
<rect x="56" y="24" width="4" height="4" fill="#4aff6c" />
<rect x="64" y="24" width="4" height="4" fill="#4aff6c" />
<rect x="64" y="28" width="4" height="4" fill="#4aff6c" />
<rect x="4" y="40" width="4" height="4" fill="#4aff6c" />
<rect x="8" y="40" width="4" height="4" fill="#4aff6c" />
<rect x="16" y="40" width="4" height="4" fill="#4aff6c" />
<rect x="4" y="44" width="4" height="4" fill="#4aff6c" />
<rect x="12" y="44" width="4" height="4" fill="#4aff6c" />
<rect x="16" y="44" width="4" height="4" fill="#4aff6c" />
<rect x="64" y="60" width="4" height="4" fill="#4aff6c" />
<rect x="68" y="60" width="4" height="4" fill="#4aff6c" />
<rect x="64" y="64" width="4" height="4" fill="#4aff6c" />
<rect x="68" y="68" width="4" height="4" fill="#4aff6c" />
<rect x="72" y="68" width="4" height="4" fill="#4aff6c" />
<rect x="76" y="68" width="4" height="4" fill="#4aff6c" />
<rect x="76" y="72" width="4" height="4" fill="#4aff6c" />
</svg>