<?xml version="1.0" encoding="utf-8"?>
<svg xmlns="http://www.w3.org/2000/svg" width="68" height="88" viewBox="0 0 68 88">
<rect width="100%" height="100%" fill="transparent" />
<rect x="4" y="4" width="2" height="2" fill="#4aff6c" />
<rect x="6" y="4" width="2" height="2" fill="#4aff6c" />
<rect x="8" y="4" width="2" height="2" fill="#4aff6c" />
<rect x="10" y="4" width="2" height="2" fill="#4aff6c" />
<rect x="22" y="4" width="2" height="2" fill="#4aff6c" />
<rect x="28" y="4" width="2" height="2" fill="#4aff6c" />
<rect x="4" y="6" width="2" height="2" fill="#4aff6c" />
<rect x="12" y="6" width="2" height="2" fill="#4aff6c" />
<rect x="20" y="6" width="2" height="2" fill="#4aff6c" />
<rect x="4" y="8" width="2" height="2" fill="#4aff6c" />
<rect x="20" y="8" width="2" height="2" fill="#4aff6c" />
<rect x="28" y="8" width="2" height="2" fill="#4aff6c" />
<rect x="6" y="10" width="2" height="2" fill="#4aff6c" />
<rect x="12" y="10" width="2" height="2" fill="#4aff6c" />
<rect x="20" y="10" width="2" height="2" fill="#4aff6c" />
<rect x="22" y="10" width="2" height="2" fill="#4aff6c" />
<rect x="24" y="10" width="2" height="2" fill="#4aff6c" />
<rect x="26" y="10" width="2" height="2" fill="#4aff6c" />
<rect x="14" y="14" width="2" height="2" fill="#4aff6c" />
<rect x="16" y="14" width="2" height="2" fill="#4aff6c" />
<rect x="14" y="16" width="2" height="2" fill="#4aff6c" />
<rect x="16" y="16" width="2" height="2" fill="#4aff6c" />
<rect x="14" y="18" width="2" height="2" fill="#4aff6c" />
<rect x="16" y="18" width="2" height="2" fill="#4aff6c" />
<rect x="6" y="22" width="2" height="2" fill="#4aff6c" />
<rect x="12" y="22" width="2" height="2" fill="#4aff6c" />
<rect x="20" y="22" width="2" height="2" fill="#4aff6c" />
<rect x="22" y="22" width="2" height="2" fill="#4aff6c" />
<rect x="24" y="22" width="2" height="2" fill="#4aff6c" />
<rect x="26" y="22" width="2" height="2" fill="#4aff6c" />
<rect x="4" y="24" width="2" height="2" fill="#4aff6c" />
<rect x="20" y="24" width="2" height="2" fill="#4aff6c" />
<rect x="28" y="24" width="2" height="2" fill="#4aff6c" />
<rect x="4" y="26" width="2" height="2" fill="#4aff6c" />
<rect x="12" y="26" width="2" height="2" fill="#4aff6c" />
<rect x="20" y="26" width="2" height="2" fill="#4aff6c" />
<rect x="4" y="28" width="2" height="2" fill="#4aff6c" />
<rect x="6" y="28" width="2" height="2" fill="#4aff6c" />
<rect x="8" y="28" width="2" height="2" fill="#4aff6c" />
<rect x="10" y="28" width="2" height="2" fill="#4aff6c" />
<rect x="22" y="28" width="2" height="2" fill="#4aff6c" />
<rect x="28" y="28" width="2" height="2" fill="#4aff6c" />
<rect x="22" y="30" width="2" height="2" fill="#4aff6c" />
<rect x="26" y="30" width="2" height="2" fill="#4aff6c" />
<rect x="20" y="32" width="2" height="2" fill="#4aff6c" />
<rect x="26" y="32" width="2" height="2" fill="#4aff6c" />
<rect x="18" y="34" width="2" height="2" fill="#4aff6c" />
<rect x="20" y="34" width="2" height="2" fill="#4aff6c" />
<rect x="16" y="36" width="2" height="2" fill="#4aff6c" />
<rect x="24" y="36" width="2" height="2" fill="#4aff6c" />
<rect x="14" y="38" width="2" height="2" fill="#4aff6c" />
<rect x="16" y="38" width="2" height="2" fill="#4aff6c" />
<rect x="18" y="38" width="2" height="2" fill="#4aff6c" />
<rect x="22" y="38" width="2" height="2" fill="#4aff6c" />
<rect x="8" y="40" width="2" height="2" fill="#4aff6c" />
<rect x="10" y="40" width="2" height="2" fill="#4aff6c" />
<rect x="6" y="42" width="2" height="2" fill="#4aff6c" />
<rect x="14" y="42" width="2" height="2" fill="#4aff6c" />
<rect x="16" y="42" width="2" height="2" fill="#4aff6c" />
<rect x="18" y="42" width="2" height="2" fill="#4aff6c" />
<rect x="20" y="42" width="2" height="2" fill="#4aff6c" />
<rect x="22" y="42" width="2" height="2" fill="#4aff6c" />
<rect x="38" y="42" width="2" height="2" fill="#4aff6c" />
<rect x="40" y="42" width="2" height="2" fill="#4aff6c" />
<rect x="42" y="42" width="2" height="2" fill="#4aff6c" />
<rect x="44" y="42" width="2" height="2" fill="#4aff6c" />
<rect x="56" y="42" width="2" height="2" fill="#4aff6c" />
<rect x="62" y="42" width="2" height="2" fill="#4aff6c" />
<rect x="4" y="44" width="2" height="2" fill="#4aff6c" />
<rect x="12" y="44" width="2" height="2" fill="#4aff6c" />
<rect x="38" y="44" width="2" height="2" fill="#4aff6c" />
<rect x="46" y="44" width="2" height="2" fill="#4aff6c" />
<rect x="54" y="44" width="2" height="2" fill="#4aff6c" />
<rect x="4" y="46" width="2" height="2" fill="#4aff6c" />
<rect x="16" y="46" width="2" height="2" fill="#4aff6c" />
<rect x="18" y="46" width="2" height="2" fill="#4aff6c" />
<rect x="38" y="46" width="2" height="2" fill="#4aff6c" />
<rect x="54" y="46" width="2" height="2" fill="#4aff6c" />
<rect x="62" y="46" width="2" height="2" fill="#4aff6c" />
<rect x="4" y="48" width="2" height="2" fill="#4aff6c" />
<rect x="6" y="48" width="2" height="2" fill="#4aff6c" />
<rect x="8" y="48" width="2" height="2" fill="#4aff6c" />
<rect x="16" y="48" width="2" height="2" fill="#4aff6c" />
<rect x="18" y="48" width="2" height="2" fill="#4aff6c" />
<rect x="20" y="48" width="2" height="2" fill="#4aff6c" />
<rect x="22" y="48" width="2" height="2" fill="#4aff6c" />
<rect x="40" y="48" width="2" height="2" fill="#4aff6c" />
<rect x="46" y="48" width="2" height="2" fill="#4aff6c" />
<rect x="54" y="48" width="2" height="2" fill="#4aff6c" />
<rect x="56" y="48" width="2" height="2" fill="#4aff6c" />
<rect x="58" y="48" width="2" height="2" fill="#4aff6c" />
<rect x="60" y="48" width="2" height="2" fill="#4aff6c" />
<rect x="6" y="50" width="2" height="2" fill="#4aff6c" />
<rect x="22" y="50" width="2" height="2" fill="#4aff6c" />
<rect x="6" y="52" width="2" height="2" fill="#4aff6c" />
<rect x="8" y="52" width="2" height="2" fill="#4aff6c" />
<rect x="48" y="52" width="2" height="2" fill="#4aff6c" />
<rect x="50" y="52" width="2" height="2" fill="#4aff6c" />
<rect x="6" y="54" width="2" height="2" fill="#4aff6c" />
<rect x="10" y="54" width="2" height="2" fill="#4aff6c" />
<rect x="48" y="54" width="2" height="2" fill="#4aff6c" />
<rect x="50" y="54" width="2" height="2" fill="#4aff6c" />
<rect x="6" y="56" width="2" height="2" fill="#4aff6c" />
<rect x="8" y="56" width="2" height="2" fill="#4aff6c" />
<rect x="14" y="56" width="2" height="2" fill="#4aff6c" />
<rect x="16" y="56" width="2" height="2" fill="#4aff6c" />
<rect x="20" y="56" width="2" height="2" fill="#4aff6c" />
<rect x="38" y="56" width="2" height="2" fill="#4aff6c" />
<rect x="42" y="56" width="2" height="2" fill="#4aff6c" />
<rect x="48" y="56" width="2" height="2" fill="#4aff6c" />
<rect x="50" y="56" width="2" height="2" fill="#4aff6c" />
<rect x="8" y="58" width="2" height="2" fill="#4aff6c" />
<rect x="12" y="58" width="2" height="2" fill="#4aff6c" />
<rect x="14" y="58" width="2" height="2" fill="#4aff6c" />
<rect x="16" y="58" width="2" height="2" fill="#4aff6c" />
<rect x="20" y="58" width="2" height="2" fill="#4aff6c" />
<rect x="28" y="58" width="2" height="2" fill="#4aff6c" />
<rect x="32" y="58" width="2" height="2" fill="#4aff6c" />
<rect x="34" y="58" width="2" height="2" fill="#4aff6c" />
<rect x="36" y="58" width="2" height="2" fill="#4aff6c" />
<rect x="38" y="58" width="2" height="2" fill="#4aff6c" />
<rect x="42" y="58" width="2" height="2" fill="#4aff6c" />
<rect x="48" y="58" width="2" height="2" fill="#4aff6c" />
<rect x="50" y="58" width="2" height="2" fill="#4aff6c" />
<rect x="22" y="60" width="2" height="2" fill="#4aff6c" />
<rect x="24" y="60" width="2" height="2" fill="#4aff6c" />
<rect x="28" y="60" width="2" height="2" fill="#4aff6c" />
<rect x="32" y="60" width="2" height="2" fill="#4aff6c" />
<rect x="34" y="60" width="2" height="2" fill="#4aff6c" />
<rect x="40" y="60" width="2" height="2" fill="#4aff6c" />
<rect x="48" y="60" width="2" height="2" fill="#4aff6c" />
<rect x="50" y="60" width="2" height="2" fill="#4aff6c" />
<rect x="58" y="60" width="2" height="2" fill="#4aff6c" />
<rect x="60" y="60" width="2" height="2" fill="#4aff6c" />
<rect x="62" y="60" width="2" height="2" fill="#4aff6c" />
<rect x="12" y="62" width="2" height="2" fill="#4aff6c" />
<rect x="14" y="62" width="2" height="2" fill="#4aff6c" />
<rect x="16" y="62" width="2" height="2" fill="#4aff6c" />
<rect x="18" y="62" width="2" height="2" fill="#4aff6c" />
<rect x="20" y="62" width="2" height="2" fill="#4aff6c" />
<rect x="22" y="62" width="2" height="2" fill="#4aff6c" />
<rect x="26" y="62" width="2" height="2" fill="#4aff6c" />
<rect x="28" y="62" width="2" height="2" fill="#4aff6c" />
<rect x="36" y="62" width="2" height="2" fill="#4aff6c" />
<rect x="38" y="62" width="2" height="2" fill="#4aff6c" />
<rect x="40" y="62" width="2" height="2" fill="#4aff6c" />
<rect x="42" y="62" width="2" height="2" fill="#4aff6c" />
<rect x="48" y="62" width="2" height="2" fill="#4aff6c" />
<rect x="50" y="62" width="2" height="2" fill="#4aff6c" />
<rect x="58" y="62" width="2" height="2" fill="#4aff6c" />
<rect x="60" y="62" width="2" height="2" fill="#4aff6c" />
<rect x="62" y="62" width="2" height="2" fill="#4aff6c" />
<rect x="14" y="64" width="2" height="2" fill="#4aff6c" />
<rect x="24" y="64" width="2" height="2" fill="#4aff6c" />
<rect x="26" y="64" width="2" height="2" fill="#4aff6c" />
<rect x="28" y="64" width="2" height="2" fill="#4aff6c" />
<rect x="42" y="64" width="2" height="2" fill="#4aff6c" />
<rect x="48" y="64" width="2" height="2" fill="#4aff6c" />
<rect x="50" y="64" width="2" height="2" fill="#4aff6c" />
<rect x="58" y="64" width="2" height="2" fill="#4aff6c" />
<rect x="60" y="64" width="2" height="2" fill="#4aff6c" />
<rect x="62" y="64" width="2" height="2" fill="#4aff6c" />
<rect x="16" y="66" width="2" height="2" fill="#4aff6c" />
<rect x="18" y="66" width="2" height="2" fill="#4aff6c" />
<rect x="30" y="66" width="2" height="2" fill="#4aff6c" />
<rect x="32" y="66" width="2" height="2" fill="#4aff6c" />
<rect x="38" y="66" width="2" height="2" fill="#4aff6c" />
<rect x="40" y="66" width="2" height="2" fill="#4aff6c" />
<rect x="48" y="66" width="2" height="2" fill="#4aff6c" />
<rect x="50" y="66" width="2" height="2" fill="#4aff6c" />
<rect x="18" y="68" width="2" height="2" fill="#4aff6c" />
<rect x="24" y="68" width="2" height="2" fill="#4aff6c" />
<rect x="36" y="68" width="2" height="2" fill="#4aff6c" />
<rect x="38" y="68" width="2" height="2" fill="#4aff6c" />
<rect x="40" y="68" width="2" height="2" fill="#4aff6c" />
<rect x="42" y="68" width="2" height="2" fill="#4aff6c" />
<rect x="48" y="68" width="2" height="2" fill="#4aff6c" />
<rect x="50" y="68" width="2" height="2" fill="#4aff6c" />
<rect x="20" y="70" width="2" height="2" fill="#4aff6c" />
<rect x="24" y="70" width="2" height="2" fill="#4aff6c" />
<rect x="28" y="70" width="2" height="2" fill="#4aff6c" />
<rect x="30" y="70" width="2" height="2" fill="#4aff6c" />
<rect x="42" y="70" width="2" height="2" fill="#4aff6c" />
<rect x="48" y="70" width="2" height="2" fill="#4aff6c" />
<rect x="50" y="70" width="2" height="2" fill="#4aff6c" />
<rect x="48" y="72" width="2" height="2" fill="#4aff6c" />
<rect x="50" y="72" width="2" height="2" fill="#4aff6c" />
<rect x="40" y="76" width="2" height="2" fill="#4aff6c" />
<rect x="46" y="76" width="2" height="2" fill="#4aff6c" />
<rect x="54" y="76" width="2" height="2" fill="#4aff6c" />
<rect x="56" y="76" width="2" height="2" fill="#4aff6c" />
<rect x="58" y="76" width="2" height="2" fill="#4aff6c" />
<rect x="60" y="76" width="2" height="2" fill="#4aff6c" />
<rect x="38" y="78" width="2" height="2" fill="#4aff6c" />
<rect x="54" y="78" width="2" height="2" fill="#4aff6c" />
<rect x="62" y="78" width="2" height="2" fill="#4aff6c" />
<rect x="38" y="80" width="2" height="2" fill="#4aff6c" />
<rect x="46" y="80" width="2" height="2" fill="#4aff6c" />
<rect x="54" y="80" width="2" height="2" fill="#4aff6c" />
<rect x="38" y="82" width="2" height="2" fill="#4aff6c" />
<rect x="40" y="82" width="2" height="2" fill="#4aff6c" />
<rect x="42" y="82" width="2" height="2" fill="#4aff6c" />
<rect x="44" y="82" width="2" height="2" fill="#4aff6c" />
<rect x="56" y="82" width="2" height="2" fill="#4aff6c" />
<rect x="62" y="82" width="2" height="2" fill="#4aff6c" />
</svg>