<?xml version="1.0" encoding="utf-8"?>
<svg xmlns="http://www.w3.org/2000/svg" width="86" height="32" viewBox="0 0 86 32">
<rect width="100%" height="100%" fill="transparent" />
<rect x="16" y="4" width="2" height="2" fill="#4aff6c" />
<rect x="12" y="6" width="2" height="2" fill="#4aff6c" />
<rect x="16" y="6" width="2" height="2" fill="#4aff6c" />
<rect x="18" y="6" width="2" height="2" fill="#4aff6c" />
<rect x="12" y="8" width="2" height="2" fill="#4aff6c" />
<rect x="16" y="8" width="2" height="2" fill="#4aff6c" />
<rect x="12" y="10" width="2" height="2" fill="#4aff6c" />
<rect x="8" y="12" width="2" height="2" fill="#4aff6c" />
<rect x="4" y="14" width="2" height="2" fill="#4aff6c" />
<rect x="8" y="14" width="2" height="2" fill="#4aff6c" />
<rect x="4" y="16" width="2" height="2" fill="#4aff6c" />
<rect x="6" y="16" width="2" height="2" fill="#4aff6c" />
<rect x="8" y="16" width="2" height="2" fill="#4aff6c" />
<rect x="12" y="16" width="2" height="2" fill="#4aff6c" />
<rect x="4" y="18" width="2" height="2" fill="#4aff6c" />
<rect x="10" y="20" width="2" height="2" fill="#4aff6c" />
<rect x="12" y="20" width="2" height="2" fill="#4aff6c" />
<rect x="6" y="22" width="2" height="2" fill="#4aff6c" />
<rect x="8" y="22" width="2" height="2" fill="#4aff6c" />
<rect x="12" y="22" width="2" height="2" fill="#4aff6c" />
<rect x="4" y="24" width="2" height="2" fill="#4aff6c" />
<rect x="8" y="24" width="2" height="2" fill="#4aff6c" />
<rect x="12" y="24" width="2" height="2" fill="#4aff6c" />
<rect x="4" y="26" width="2" height="2" fill="#4aff6c" />
<rect x="6" y="26" width="2" height="2" fill="#4aff6c" />
<rect x="8" y="26" width="2" height="2" fill="#4aff6c" />
<rect x="10" y="26" width="2" height="2" fill="#4aff6c" />
<rect x="12" y="26" width="2" height="2" fill="#4aff6c" />
<rect x="14" y="26" width="2" height="2" fill="#4aff6c" />
<rect x="16" y="26" width="2" height="2" fill="#4aff6c" />
<rect x="18" y="26" width="2" height="2" fill="#4aff6c" />
<rect x="22" y="26" width="2" height="2" fill="#4aff6c" />
<rect x="24" y="26" width="2" height="2" fill="#4aff6c" />
<rect x="26" y="26" width="2" height="2" fill="#4aff6c" />
<rect x="28" y="26" width="2" height="2" fill="#4aff6c" />
<rect x="30" y="26" width="2" height="2" fill="#4aff6c" />
<rect x="38" y="26" width="2" height="2" fill="#4aff6c" />
<rect x="40" y="26" width="2" height="2" fill="#4aff6c" />
<rect x="42" y="26" width="2" height="2" fill="#4aff6c" />
<rect x="56" y="26" width="2" height="2" fill="#4aff6c" />
<rect x="58" y="26" width="2" height="2" fill="#4aff6c" />
<rect x="60" y="26" width="2" height="2" fill="#4aff6c" />
<rect x="62" y="26" width="2" height="2" fill="#4aff6c" />
<rect x="64" y="26" width="2" height="2" fill="#4aff6c" />
<rect x="66" y="26" width="2" height="2" fill="#4aff6c" />
<rect x="68" y="26" width="2" height="2" fill="#4aff6c" />
<rect x="72" y="26" width="2" height="2" fill="#4aff6c" />
<rect x="74" y="26" width="2" height="2" fill="#4aff6c" />
<rect x="76" y="26" width="2" height="2" fill="#4aff6c" />
<rect x="78" y="26" width="2" height="2" fill="#4aff6c" />
<rect x="80" y="26" width="2" height="2" fill="#4aff6c" />
</svg>