<?xml version="1.0" encoding="utf-8"?>
<svg xmlns="http://www.w3.org/2000/svg" width="92" height="50" viewBox="0 0 92 50">
<rect width="100%" height="100%" fill="transparent" />
<rect x="16" y="4" width="6" height="6" fill="#4aff6c" />
<rect x="22" y="4" width="6" height="6" fill="#4aff6c" />
<rect x="28" y="4" width="6" height="6" fill="#4aff6c" />
<rect x="58" y="4" width="6" height="6" fill="#4aff6c" />
<rect x="64" y="4" width="6" height="6" fill="#4aff6c" />
<rect x="70" y="4" width="6" height="6" fill="#4aff6c" />
<rect x="4" y="16" width="6" height="6" fill="#4aff6c" />
<rect x="82" y="16" width="6" height="6" fill="#4aff6c" />
<rect x="4" y="22" width="6" height="6" fill="#4aff6c" />
<rect x="82" y="22" width="6" height="6" fill="#4aff6c" />
<rect x="4" y="28" width="6" height="6" fill="#4aff6c" />
<rect x="82" y="28" width="6" height="6" fill="#4aff6c" />
<rect x="16" y="40" width="6" height="6" fill="#4aff6c" />
<rect x="22" y="40" width="6" height="6" fill="#4aff6c" />
<rect x="28" y="40" width="6" height="6" fill="#4aff6c" />
<rect x="58" y="40" width="6" height="6" fill="#4aff6c" />
<rect x="64" y="40" width="6" height="6" fill="#4aff6c" />
<rect x="70" y="40" width="6" height="6" fill="#4aff6c" />
</svg>