<?xml version="1.0" encoding="utf-8"?>
<svg xmlns="http://www.w3.org/2000/svg" width="60" height="84" viewBox="0 0 60 84">
<rect width="100%" height="100%" fill="transparent" />
<rect x="8" y="4" width="4" height="4" fill="#4aff6c" />
<rect x="12" y="4" width="4" height="4" fill="#4aff6c" />
<rect x="40" y="4" width="4" height="4" fill="#4aff6c" />
<rect x="44" y="4" width="4" height="4" fill="#4aff6c" />
<rect x="4" y="8" width="4" height="4" fill="#4aff6c" />
<rect x="16" y="8" width="4" height="4" fill="#4aff6c" />
<rect x="36" y="8" width="4" height="4" fill="#4aff6c" />
<rect x="48" y="8" width="4" height="4" fill="#4aff6c" />
<rect x="4" y="12" width="4" height="4" fill="#4aff6c" />
<rect x="16" y="12" width="4" height="4" fill="#4aff6c" />
<rect x="36" y="12" width="4" height="4" fill="#4aff6c" />
<rect x="48" y="12" width="4" height="4" fill="#4aff6c" />
<rect x="4" y="16" width="4" height="4" fill="#4aff6c" />
<rect x="16" y="16" width="4" height="4" fill="#4aff6c" />
<rect x="36" y="16" width="4" height="4" fill="#4aff6c" />
<rect x="48" y="16" width="4" height="4" fill="#4aff6c" />
<rect x="8" y="20" width="4" height="4" fill="#4aff6c" />
<rect x="12" y="20" width="4" height="4" fill="#4aff6c" />
<rect x="40" y="20" width="4" height="4" fill="#4aff6c" />
<rect x="44" y="20" width="4" height="4" fill="#4aff6c" />
<rect x="32" y="32" width="4" height="4" fill="#4aff6c" />
<rect x="24" y="36" width="4" height="4" fill="#4aff6c" />
<rect x="36" y="36" width="4" height="4" fill="#4aff6c" />
<rect x="44" y="36" width="4" height="4" fill="#4aff6c" />
<rect x="48" y="36" width="4" height="4" fill="#4aff6c" />
<rect x="28" y="40" width="4" height="4" fill="#4aff6c" />
<rect x="32" y="40" width="4" height="4" fill="#4aff6c" />
<rect x="44" y="40" width="4" height="4" fill="#4aff6c" />
<rect x="48" y="40" width="4" height="4" fill="#4aff6c" />
<rect x="28" y="52" width="4" height="4" fill="#4aff6c" />
<rect x="32" y="52" width="4" height="4" fill="#4aff6c" />
<rect x="36" y="52" width="4" height="4" fill="#4aff6c" />
<rect x="40" y="52" width="4" height="4" fill="#4aff6c" />
<rect x="24" y="56" width="4" height="4" fill="#4aff6c" />
<rect x="28" y="56" width="4" height="4" fill="#4aff6c" />
<rect x="32" y="56" width="4" height="4" fill="#4aff6c" />
<rect x="36" y="56" width="4" height="4" fill="#4aff6c" />
<rect x="40" y="56" width="4" height="4" fill="#4aff6c" />
<rect x="44" y="56" width="4" height="4" fill="#4aff6c" />
<rect x="20" y="60" width="4" height="4" fill="#4aff6c" />
<rect x="24" y="60" width="4" height="4" fill="#4aff6c" />
<rect x="28" y="60" width="4" height="4" fill="#4aff6c" />
<rect x="32" y="60" width="4" height="4" fill="#4aff6c" />
<rect x="36" y="60" width="4" height="4" fill="#4aff6c" />
<rect x="40" y="60" width="4" height="4" fill="#4aff6c" />
<rect x="44" y="60" width="4" height="4" fill="#4aff6c" />
<rect x="48" y="60" width="4" height="4" fill="#4aff6c" />
<rect x="16" y="64" width="4" height="4" fill="#4aff6c" />
<rect x="20" y="64" width="4" height="4" fill="#4aff6c" />
<rect x="48" y="64" width="4" height="4" fill="#4aff6c" />
<rect x="52" y="64" width="4" height="4" fill="#4aff6c" />
<rect x="20" y="68" width="4" height="4" fill="#4aff6c" />
<rect x="24" y="68" width="4" height="4" fill="#4aff6c" />
<rect x="28" y="68" width="4" height="4" fill="#4aff6c" />
<rect x="32" y="68" width="4" height="4" fill="#4aff6c" />
<rect x="36" y="68" width="4" height="4" fill="#4aff6c" />
<rect x="40" y="68" width="4" height="4" fill="#4aff6c" />
<rect x="44" y="68" width="4" height="4" fill="#4aff6c" />
<rect x="48" y="68" width="4" height="4" fill="#4aff6c" />
<rect x="24" y="72" width="4" height="4" fill="#4aff6c" />
<rect x="28" y="72" width="4" height="4" fill="#4aff6c" />
<rect x="32" y="72" width="4" height="4" fill="#4aff6c" />
<rect x="36" y="72" width="4" height="4" fill="#4aff6c" />
<rect x="40" y="72" width="4" height="4" fill="#4aff6c" />
<rect x="44" y="72" width="4" height="4" fill="#4aff6c" />
<rect x="28" y="76" width="4" height="4" fill="#4aff6c" />
<rect x="32" y="76" width="4" height="4" fill="#4aff6c" />
<rect x="36" y="76" width="4" height="4" fill="#4aff6c" />
<rect x="40" y="76" width="4" height="4" fill="#4aff6c" />
</svg>