<?xml version="1.0" encoding="utf-8"?>
<svg xmlns="http://www.w3.org/2000/svg" width="55" height="44" viewBox="0 0 55 44">
<rect width="100%" height="100%" fill="transparent" />
<rect x="20" y="4" width="1" height="1" fill="#4aff6c" />
<rect x="20" y="5" width="1" height="1" fill="#4aff6c" />
<rect x="21" y="5" width="1" height="1" fill="#4aff6c" />
<rect x="22" y="5" width="1" height="1" fill="#4aff6c" />
<rect x="28" y="5" width="1" height="1" fill="#4aff6c" />
<rect x="29" y="5" width="1" height="1" fill="#4aff6c" />
<rect x="23" y="6" width="1" height="1" fill="#4aff6c" />
<rect x="28" y="6" width="1" height="1" fill="#4aff6c" />
<rect x="29" y="6" width="1" height="1" fill="#4aff6c" />
<rect x="22" y="7" width="1" height="1" fill="#4aff6c" />
<rect x="23" y="7" width="1" height="1" fill="#4aff6c" />
<rect x="36" y="13" width="1" height="1" fill="#4aff6c" />
<rect x="37" y="13" width="1" height="1" fill="#4aff6c" />
<rect x="35" y="14" width="1" height="1" fill="#4aff6c" />
<rect x="37" y="14" width="1" height="1" fill="#4aff6c" />
<rect x="36" y="15" width="1" height="1" fill="#4aff6c" />
<rect x="11" y="18" width="1" height="1" fill="#4aff6c" />
<rect x="12" y="18" width="1" height="1" fill="#4aff6c" />
<rect x="12" y="19" width="1" height="1" fill="#4aff6c" />
<rect x="12" y="20" width="1" height="1" fill="#4aff6c" />
<rect x="14" y="20" width="1" height="1" fill="#4aff6c" />
<rect x="13" y="21" width="1" height="1" fill="#4aff6c" />
<rect x="14" y="21" width="1" height="1" fill="#4aff6c" />
<rect x="13" y="28" width="1" height="1" fill="#4aff6c" />
<rect x="49" y="28" width="1" height="1" fill="#4aff6c" />
<rect x="50" y="28" width="1" height="1" fill="#4aff6c" />
<rect x="13" y="29" width="1" height="1" fill="#4aff6c" />
<rect x="15" y="29" width="1" height="1" fill="#4aff6c" />
<rect x="49" y="29" width="1" height="1" fill="#4aff6c" />
<rect x="50" y="29" width="1" height="1" fill="#4aff6c" />
<rect x="13" y="30" width="1" height="1" fill="#4aff6c" />
<rect x="14" y="30" width="1" height="1" fill="#4aff6c" />
<rect x="15" y="30" width="1" height="1" fill="#4aff6c" />
<rect x="15" y="31" width="1" height="1" fill="#4aff6c" />
<rect x="30" y="34" width="1" height="1" fill="#4aff6c" />
<rect x="31" y="34" width="1" height="1" fill="#4aff6c" />
<rect x="30" y="35" width="1" height="1" fill="#4aff6c" />
<rect x="31" y="35" width="1" height="1" fill="#4aff6c" />
<rect x="6" y="36" width="1" height="1" fill="#4aff6c" />
<rect x="7" y="36" width="1" height="1" fill="#4aff6c" />
<rect x="7" y="37" width="1" height="1" fill="#4aff6c" />
<rect x="4" y="38" width="1" height="1" fill="#4aff6c" />
<rect x="5" y="38" width="1" height="1" fill="#4aff6c" />
<rect x="6" y="38" width="1" height="1" fill="#4aff6c" />
<rect x="16" y="38" width="1" height="1" fill="#4aff6c" />
<rect x="17" y="38" width="1" height="1" fill="#4aff6c" />
<rect x="4" y="39" width="1" height="1" fill="#4aff6c" />
<rect x="16" y="39" width="1" height="1" fill="#4aff6c" />
<rect x="17" y="39" width="1" height="1" fill="#4aff6c" />
</svg>