<?xml version="1.0" encoding="utf-8"?>
<svg xmlns="http://www.w3.org/2000/svg" width="68" height="80" viewBox="0 0 68 80">
<rect width="100%" height="100%" fill="transparent" />
<rect x="44" y="4" width="4" height="4" fill="#4aff6c" />
<rect x="48" y="4" width="4" height="4" fill="#4aff6c" />
<rect x="52" y="4" width="4" height="4" fill="#4aff6c" />
<rect x="44" y="8" width="4" height="4" fill="#4aff6c" />
<rect x="44" y="12" width="4" height="4" fill="#4aff6c" />
<rect x="60" y="12" width="4" height="4" fill="#4aff6c" />
<rect x="48" y="16" width="4" height="4" fill="#4aff6c" />
<rect x="60" y="16" width="4" height="4" fill="#4aff6c" />
<rect x="52" y="20" width="4" height="4" fill="#4aff6c" />
<rect x="56" y="20" width="4" height="4" fill="#4aff6c" />
<rect x="60" y="20" width="4" height="4" fill="#4aff6c" />
<rect x="8" y="28" width="4" height="4" fill="#4aff6c" />
<rect x="4" y="32" width="4" height="4" fill="#4aff6c" />
<rect x="12" y="32" width="4" height="4" fill="#4aff6c" />
<rect x="8" y="36" width="4" height="4" fill="#4aff6c" />
<rect x="44" y="40" width="4" height="4" fill="#4aff6c" />
<rect x="48" y="40" width="4" height="4" fill="#4aff6c" />
<rect x="52" y="40" width="4" height="4" fill="#4aff6c" />
<rect x="48" y="48" width="4" height="4" fill="#4aff6c" />
<rect x="52" y="48" width="4" height="4" fill="#4aff6c" />
<rect x="60" y="48" width="4" height="4" fill="#4aff6c" />
<rect x="52" y="52" width="4" height="4" fill="#4aff6c" />
<rect x="60" y="52" width="4" height="4" fill="#4aff6c" />
<rect x="60" y="56" width="4" height="4" fill="#4aff6c" />
<rect x="8" y="64" width="4" height="4" fill="#4aff6c" />
<rect x="4" y="68" width="4" height="4" fill="#4aff6c" />
<rect x="12" y="68" width="4" height="4" fill="#4aff6c" />
<rect x="8" y="72" width="4" height="4" fill="#4aff6c" />
</svg>