<?xml version="1.0" encoding="utf-8"?>
<svg xmlns="http://www.w3.org/2000/svg" width="76" height="76" viewBox="0 0 76 76">
<rect width="100%" height="100%" fill="transparent" />
<rect x="36" y="4" width="2" height="2" fill="#4aff6c" />
<rect x="34" y="6" width="2" height="2" fill="#4aff6c" />
<rect x="36" y="6" width="2" height="2" fill="#4aff6c" />
<rect x="38" y="6" width="2" height="2" fill="#4aff6c" />
<rect x="34" y="12" width="2" height="2" fill="#4aff6c" />
<rect x="36" y="12" width="2" height="2" fill="#4aff6c" />
<rect x="38" y="12" width="2" height="2" fill="#4aff6c" />
<rect x="34" y="16" width="2" height="2" fill="#4aff6c" />
<rect x="38" y="16" width="2" height="2" fill="#4aff6c" />
<rect x="34" y="18" width="2" height="2" fill="#4aff6c" />
<rect x="38" y="18" width="2" height="2" fill="#4aff6c" />
<rect x="34" y="22" width="2" height="2" fill="#4aff6c" />
<rect x="36" y="22" width="2" height="2" fill="#4aff6c" />
<rect x="38" y="22" width="2" height="2" fill="#4aff6c" />
<rect x="34" y="28" width="2" height="2" fill="#4aff6c" />
<rect x="36" y="28" width="2" height="2" fill="#4aff6c" />
<rect x="38" y="28" width="2" height="2" fill="#4aff6c" />
<rect x="36" y="30" width="2" height="2" fill="#4aff6c" />
<rect x="6" y="34" width="2" height="2" fill="#4aff6c" />
<rect x="12" y="34" width="2" height="2" fill="#4aff6c" />
<rect x="16" y="34" width="2" height="2" fill="#4aff6c" />
<rect x="18" y="34" width="2" height="2" fill="#4aff6c" />
<rect x="22" y="34" width="2" height="2" fill="#4aff6c" />
<rect x="28" y="34" width="2" height="2" fill="#4aff6c" />
<rect x="60" y="34" width="2" height="2" fill="#4aff6c" />
<rect x="62" y="34" width="2" height="2" fill="#4aff6c" />
<rect x="4" y="36" width="2" height="2" fill="#4aff6c" />
<rect x="6" y="36" width="2" height="2" fill="#4aff6c" />
<rect x="12" y="36" width="2" height="2" fill="#4aff6c" />
<rect x="22" y="36" width="2" height="2" fill="#4aff6c" />
<rect x="28" y="36" width="2" height="2" fill="#4aff6c" />
<rect x="30" y="36" width="2" height="2" fill="#4aff6c" />
<rect x="38" y="36" width="2" height="2" fill="#4aff6c" />
<rect x="40" y="36" width="2" height="2" fill="#4aff6c" />
<rect x="56" y="36" width="2" height="2" fill="#4aff6c" />
<rect x="66" y="36" width="2" height="2" fill="#4aff6c" />
<rect x="6" y="38" width="2" height="2" fill="#4aff6c" />
<rect x="12" y="38" width="2" height="2" fill="#4aff6c" />
<rect x="16" y="38" width="2" height="2" fill="#4aff6c" />
<rect x="18" y="38" width="2" height="2" fill="#4aff6c" />
<rect x="22" y="38" width="2" height="2" fill="#4aff6c" />
<rect x="28" y="38" width="2" height="2" fill="#4aff6c" />
<rect x="36" y="38" width="2" height="2" fill="#4aff6c" />
<rect x="42" y="38" width="2" height="2" fill="#4aff6c" />
<rect x="54" y="38" width="2" height="2" fill="#4aff6c" />
<rect x="68" y="38" width="2" height="2" fill="#4aff6c" />
<rect x="36" y="40" width="2" height="2" fill="#4aff6c" />
<rect x="40" y="40" width="2" height="2" fill="#4aff6c" />
<rect x="52" y="40" width="2" height="2" fill="#4aff6c" />
<rect x="70" y="40" width="2" height="2" fill="#4aff6c" />
<rect x="38" y="42" width="2" height="2" fill="#4aff6c" />
<rect x="52" y="42" width="2" height="2" fill="#4aff6c" />
<rect x="70" y="42" width="2" height="2" fill="#4aff6c" />
<rect x="52" y="44" width="2" height="2" fill="#4aff6c" />
<rect x="70" y="44" width="2" height="2" fill="#4aff6c" />
<rect x="54" y="46" width="2" height="2" fill="#4aff6c" />
<rect x="68" y="46" width="2" height="2" fill="#4aff6c" />
<rect x="56" y="48" width="2" height="2" fill="#4aff6c" />
<rect x="66" y="48" width="2" height="2" fill="#4aff6c" />
<rect x="60" y="50" width="2" height="2" fill="#4aff6c" />
<rect x="62" y="50" width="2" height="2" fill="#4aff6c" />
<rect x="40" y="52" width="2" height="2" fill="#4aff6c" />
<rect x="42" y="52" width="2" height="2" fill="#4aff6c" />
<rect x="44" y="52" width="2" height="2" fill="#4aff6c" />
<rect x="38" y="54" width="2" height="2" fill="#4aff6c" />
<rect x="46" y="54" width="2" height="2" fill="#4aff6c" />
<rect x="36" y="56" width="2" height="2" fill="#4aff6c" />
<rect x="48" y="56" width="2" height="2" fill="#4aff6c" />
<rect x="34" y="60" width="2" height="2" fill="#4aff6c" />
<rect x="50" y="60" width="2" height="2" fill="#4aff6c" />
<rect x="34" y="62" width="2" height="2" fill="#4aff6c" />
<rect x="50" y="62" width="2" height="2" fill="#4aff6c" />
<rect x="36" y="66" width="2" height="2" fill="#4aff6c" />
<rect x="48" y="66" width="2" height="2" fill="#4aff6c" />
<rect x="38" y="68" width="2" height="2" fill="#4aff6c" />
<rect x="46" y="68" width="2" height="2" fill="#4aff6c" />
<rect x="40" y="70" width="2" height="2" fill="#4aff6c" />
<rect x="42" y="70" width="2" height="2" fill="#4aff6c" />
<rect x="44" y="70" width="2" height="2" fill="#4aff6c" />
</svg>