<?xml version="1.0" encoding="utf-8"?>
<svg xmlns="http://www.w3.org/2000/svg" width="76" height="88" viewBox="0 0 76 88">
<rect width="100%" height="100%" fill="transparent" />
<rect x="6" y="4" width="2" height="2" fill="#4aff6c" />
<rect x="8" y="4" width="2" height="2" fill="#4aff6c" />
<rect x="14" y="4" width="2" height="2" fill="#4aff6c" />
<rect x="18" y="4" width="2" height="2" fill="#4aff6c" />
<rect x="20" y="4" width="2" height="2" fill="#4aff6c" />
<rect x="4" y="6" width="2" height="2" fill="#4aff6c" />
<rect x="10" y="6" width="2" height="2" fill="#4aff6c" />
<rect x="16" y="6" width="2" height="2" fill="#4aff6c" />
<rect x="18" y="6" width="2" height="2" fill="#4aff6c" />
<rect x="6" y="8" width="2" height="2" fill="#4aff6c" />
<rect x="10" y="8" width="2" height="2" fill="#4aff6c" />
<rect x="8" y="10" width="2" height="2" fill="#4aff6c" />
<rect x="20" y="12" width="2" height="2" fill="#4aff6c" />
<rect x="16" y="14" width="2" height="2" fill="#4aff6c" />
<rect x="18" y="14" width="2" height="2" fill="#4aff6c" />
<rect x="20" y="14" width="2" height="2" fill="#4aff6c" />
<rect x="14" y="16" width="2" height="2" fill="#4aff6c" />
<rect x="16" y="18" width="2" height="2" fill="#4aff6c" />
<rect x="18" y="20" width="2" height="2" fill="#4aff6c" />
<rect x="20" y="20" width="2" height="2" fill="#4aff6c" />
<rect x="70" y="22" width="2" height="2" fill="#4aff6c" />
<rect x="66" y="24" width="2" height="2" fill="#4aff6c" />
<rect x="68" y="24" width="2" height="2" fill="#4aff6c" />
<rect x="68" y="26" width="2" height="2" fill="#4aff6c" />
<rect x="70" y="26" width="2" height="2" fill="#4aff6c" />
<rect x="22" y="28" width="2" height="2" fill="#4aff6c" />
<rect x="6" y="30" width="2" height="2" fill="#4aff6c" />
<rect x="24" y="30" width="2" height="2" fill="#4aff6c" />
<rect x="8" y="32" width="2" height="2" fill="#4aff6c" />
<rect x="20" y="32" width="2" height="2" fill="#4aff6c" />
<rect x="22" y="32" width="2" height="2" fill="#4aff6c" />
<rect x="24" y="32" width="2" height="2" fill="#4aff6c" />
<rect x="4" y="34" width="2" height="2" fill="#4aff6c" />
<rect x="6" y="34" width="2" height="2" fill="#4aff6c" />
<rect x="8" y="34" width="2" height="2" fill="#4aff6c" />
<rect x="14" y="40" width="2" height="2" fill="#4aff6c" />
<rect x="16" y="42" width="2" height="2" fill="#4aff6c" />
<rect x="12" y="44" width="2" height="2" fill="#4aff6c" />
<rect x="14" y="44" width="2" height="2" fill="#4aff6c" />
<rect x="16" y="44" width="2" height="2" fill="#4aff6c" />
<rect x="52" y="46" width="2" height="2" fill="#4aff6c" />
<rect x="56" y="46" width="2" height="2" fill="#4aff6c" />
<rect x="54" y="48" width="2" height="2" fill="#4aff6c" />
<rect x="56" y="48" width="2" height="2" fill="#4aff6c" />
<rect x="54" y="50" width="2" height="2" fill="#4aff6c" />
<rect x="58" y="54" width="2" height="2" fill="#4aff6c" />
<rect x="62" y="54" width="2" height="2" fill="#4aff6c" />
<rect x="58" y="56" width="2" height="2" fill="#4aff6c" />
<rect x="60" y="56" width="2" height="2" fill="#4aff6c" />
<rect x="60" y="58" width="2" height="2" fill="#4aff6c" />
<rect x="66" y="60" width="2" height="2" fill="#4aff6c" />
<rect x="68" y="60" width="2" height="2" fill="#4aff6c" />
<rect x="70" y="60" width="2" height="2" fill="#4aff6c" />
<rect x="66" y="62" width="2" height="2" fill="#4aff6c" />
<rect x="68" y="64" width="2" height="2" fill="#4aff6c" />
<rect x="14" y="78" width="2" height="2" fill="#4aff6c" />
<rect x="16" y="78" width="2" height="2" fill="#4aff6c" />
<rect x="16" y="80" width="2" height="2" fill="#4aff6c" />
<rect x="18" y="80" width="2" height="2" fill="#4aff6c" />
<rect x="14" y="82" width="2" height="2" fill="#4aff6c" />
</svg>