<?xml version="1.0" encoding="utf-8"?>
<svg xmlns="http://www.w3.org/2000/svg" width="93" height="83" viewBox="0 0 93 83">
<rect width="100%" height="100%" fill="transparent" />
<rect x="19" y="4" width="5" height="5" fill="#4aff6c" />
<rect x="24" y="4" width="5" height="5" fill="#4aff6c" />
<rect x="24" y="9" width="5" height="5" fill="#4aff6c" />
<rect x="14" y="14" width="5" height="5" fill="#4aff6c" />
<rect x="24" y="14" width="5" height="5" fill="#4aff6c" />
<rect x="34" y="14" width="5" height="5" fill="#4aff6c" />
<rect x="39" y="14" width="5" height="5" fill="#4aff6c" />
<rect x="9" y="19" width="5" height="5" fill="#4aff6c" />
<rect x="19" y="19" width="5" height="5" fill="#4aff6c" />
<rect x="29" y="19" width="5" height="5" fill="#4aff6c" />
<rect x="39" y="19" width="5" height="5" fill="#4aff6c" />
<rect x="59" y="19" width="5" height="5" fill="#4aff6c" />
<rect x="64" y="19" width="5" height="5" fill="#4aff6c" />
<rect x="9" y="24" width="5" height="5" fill="#4aff6c" />
<rect x="19" y="24" width="5" height="5" fill="#4aff6c" />
<rect x="64" y="24" width="5" height="5" fill="#4aff6c" />
<rect x="4" y="29" width="5" height="5" fill="#4aff6c" />
<rect x="9" y="29" width="5" height="5" fill="#4aff6c" />
<rect x="19" y="29" width="5" height="5" fill="#4aff6c" />
<rect x="64" y="29" width="5" height="5" fill="#4aff6c" />
<rect x="74" y="29" width="5" height="5" fill="#4aff6c" />
<rect x="79" y="29" width="5" height="5" fill="#4aff6c" />
<rect x="19" y="34" width="5" height="5" fill="#4aff6c" />
<rect x="29" y="34" width="5" height="5" fill="#4aff6c" />
<rect x="34" y="34" width="5" height="5" fill="#4aff6c" />
<rect x="59" y="34" width="5" height="5" fill="#4aff6c" />
<rect x="64" y="34" width="5" height="5" fill="#4aff6c" />
<rect x="74" y="34" width="5" height="5" fill="#4aff6c" />
<rect x="19" y="39" width="5" height="5" fill="#4aff6c" />
<rect x="74" y="39" width="5" height="5" fill="#4aff6c" />
<rect x="4" y="44" width="5" height="5" fill="#4aff6c" />
<rect x="9" y="44" width="5" height="5" fill="#4aff6c" />
<rect x="19" y="44" width="5" height="5" fill="#4aff6c" />
<rect x="29" y="44" width="5" height="5" fill="#4aff6c" />
<rect x="59" y="44" width="5" height="5" fill="#4aff6c" />
<rect x="64" y="44" width="5" height="5" fill="#4aff6c" />
<rect x="69" y="44" width="5" height="5" fill="#4aff6c" />
<rect x="79" y="44" width="5" height="5" fill="#4aff6c" />
<rect x="84" y="44" width="5" height="5" fill="#4aff6c" />
<rect x="4" y="49" width="5" height="5" fill="#4aff6c" />
<rect x="19" y="49" width="5" height="5" fill="#4aff6c" />
<rect x="29" y="49" width="5" height="5" fill="#4aff6c" />
<rect x="39" y="49" width="5" height="5" fill="#4aff6c" />
<rect x="54" y="49" width="5" height="5" fill="#4aff6c" />
<rect x="69" y="49" width="5" height="5" fill="#4aff6c" />
<rect x="79" y="49" width="5" height="5" fill="#4aff6c" />
<rect x="14" y="54" width="5" height="5" fill="#4aff6c" />
<rect x="29" y="54" width="5" height="5" fill="#4aff6c" />
<rect x="39" y="54" width="5" height="5" fill="#4aff6c" />
<rect x="44" y="54" width="5" height="5" fill="#4aff6c" />
<rect x="49" y="54" width="5" height="5" fill="#4aff6c" />
<rect x="54" y="54" width="5" height="5" fill="#4aff6c" />
<rect x="64" y="54" width="5" height="5" fill="#4aff6c" />
<rect x="79" y="54" width="5" height="5" fill="#4aff6c" />
<rect x="19" y="59" width="5" height="5" fill="#4aff6c" />
<rect x="24" y="59" width="5" height="5" fill="#4aff6c" />
<rect x="34" y="59" width="5" height="5" fill="#4aff6c" />
<rect x="59" y="59" width="5" height="5" fill="#4aff6c" />
<rect x="64" y="59" width="5" height="5" fill="#4aff6c" />
<rect x="74" y="59" width="5" height="5" fill="#4aff6c" />
<rect x="34" y="64" width="5" height="5" fill="#4aff6c" />
<rect x="49" y="64" width="5" height="5" fill="#4aff6c" />
<rect x="69" y="64" width="5" height="5" fill="#4aff6c" />
<rect x="34" y="69" width="5" height="5" fill="#4aff6c" />
<rect x="44" y="69" width="5" height="5" fill="#4aff6c" />
<rect x="54" y="69" width="5" height="5" fill="#4aff6c" />
<rect x="59" y="69" width="5" height="5" fill="#4aff6c" />
<rect x="64" y="69" width="5" height="5" fill="#4aff6c" />
<rect x="39" y="74" width="5" height="5" fill="#4aff6c" />
<rect x="44" y="74" width="5" height="5" fill="#4aff6c" />
<rect x="54" y="74" width="5" height="5" fill="#4aff6c" />
</svg>