<?xml version="1.0" encoding="utf-8"?>
<svg xmlns="http://www.w3.org/2000/svg" width="44" height="92" viewBox="0 0 44 92">
<rect width="100%" height="100%" fill="transparent" />
<rect x="16" y="4" width="4" height="4" fill="#4aff6c" />
<rect x="20" y="8" width="4" height="4" fill="#4aff6c" />
<rect x="24" y="8" width="4" height="4" fill="#4aff6c" />
<rect x="16" y="12" width="4" height="4" fill="#4aff6c" />
<rect x="20" y="12" width="4" height="4" fill="#4aff6c" />
<rect x="24" y="24" width="4" height="4" fill="#4aff6c" />
<rect x="16" y="28" width="4" height="4" fill="#4aff6c" />
<rect x="24" y="28" width="4" height="4" fill="#4aff6c" />
<rect x="20" y="32" width="4" height="4" fill="#4aff6c" />
<rect x="24" y="32" width="4" height="4" fill="#4aff6c" />
<rect x="28" y="52" width="4" height="4" fill="#4aff6c" />
<rect x="32" y="52" width="4" height="4" fill="#4aff6c" />
<rect x="36" y="52" width="4" height="4" fill="#4aff6c" />
<rect x="36" y="56" width="4" height="4" fill="#4aff6c" />
<rect x="32" y="60" width="4" height="4" fill="#4aff6c" />
<rect x="4" y="76" width="4" height="4" fill="#4aff6c" />
<rect x="8" y="76" width="4" height="4" fill="#4aff6c" />
<rect x="12" y="76" width="4" height="4" fill="#4aff6c" />
<rect x="12" y="80" width="4" height="4" fill="#4aff6c" />
<rect x="8" y="84" width="4" height="4" fill="#4aff6c" />
</svg>