<?xml version="1.0" encoding="utf-8"?>
<svg xmlns="http://www.w3.org/2000/svg" width="92" height="92" viewBox="0 0 92 92">
<rect width="100%" height="100%" fill="transparent" />
<rect x="46" y="4" width="7" height="7" fill="#4aff6c" />
<rect x="53" y="4" width="7" height="7" fill="#4aff6c" />
<rect x="60" y="4" width="7" height="7" fill="#4aff6c" />
<rect x="67" y="4" width="7" height="7" fill="#4aff6c" />
<rect x="74" y="4" width="7" height="7" fill="#4aff6c" />
<rect x="81" y="4" width="7" height="7" fill="#4aff6c" />
<rect x="11" y="11" width="7" height="7" fill="#4aff6c" />
<rect x="18" y="11" width="7" height="7" fill="#4aff6c" />
<rect x="25" y="11" width="7" height="7" fill="#4aff6c" />
<rect x="32" y="11" width="7" height="7" fill="#4aff6c" />
<rect x="46" y="11" width="7" height="7" fill="#4aff6c" />
<rect x="81" y="11" width="7" height="7" fill="#4aff6c" />
<rect x="11" y="18" width="7" height="7" fill="#4aff6c" />
<rect x="32" y="18" width="7" height="7" fill="#4aff6c" />
<rect x="46" y="18" width="7" height="7" fill="#4aff6c" />
<rect x="60" y="18" width="7" height="7" fill="#4aff6c" />
<rect x="67" y="18" width="7" height="7" fill="#4aff6c" />
<rect x="81" y="18" width="7" height="7" fill="#4aff6c" />
<rect x="11" y="25" width="7" height="7" fill="#4aff6c" />
<rect x="32" y="25" width="7" height="7" fill="#4aff6c" />
<rect x="46" y="25" width="7" height="7" fill="#4aff6c" />
<rect x="60" y="25" width="7" height="7" fill="#4aff6c" />
<rect x="67" y="25" width="7" height="7" fill="#4aff6c" />
<rect x="81" y="25" width="7" height="7" fill="#4aff6c" />
<rect x="11" y="32" width="7" height="7" fill="#4aff6c" />
<rect x="18" y="32" width="7" height="7" fill="#4aff6c" />
<rect x="25" y="32" width="7" height="7" fill="#4aff6c" />
<rect x="32" y="32" width="7" height="7" fill="#4aff6c" />
<rect x="46" y="32" width="7" height="7" fill="#4aff6c" />
<rect x="81" y="32" width="7" height="7" fill="#4aff6c" />
<rect x="46" y="39" width="7" height="7" fill="#4aff6c" />
<rect x="53" y="39" width="7" height="7" fill="#4aff6c" />
<rect x="60" y="39" width="7" height="7" fill="#4aff6c" />
<rect x="67" y="39" width="7" height="7" fill="#4aff6c" />
<rect x="74" y="39" width="7" height="7" fill="#4aff6c" />
<rect x="81" y="39" width="7" height="7" fill="#4aff6c" />
<rect x="4" y="46" width="7" height="7" fill="#4aff6c" />
<rect x="11" y="46" width="7" height="7" fill="#4aff6c" />
<rect x="18" y="46" width="7" height="7" fill="#4aff6c" />
<rect x="25" y="46" width="7" height="7" fill="#4aff6c" />
<rect x="32" y="46" width="7" height="7" fill="#4aff6c" />
<rect x="39" y="46" width="7" height="7" fill="#4aff6c" />
<rect x="4" y="53" width="7" height="7" fill="#4aff6c" />
<rect x="39" y="53" width="7" height="7" fill="#4aff6c" />
<rect x="53" y="53" width="7" height="7" fill="#4aff6c" />
<rect x="60" y="53" width="7" height="7" fill="#4aff6c" />
<rect x="67" y="53" width="7" height="7" fill="#4aff6c" />
<rect x="74" y="53" width="7" height="7" fill="#4aff6c" />
<rect x="4" y="60" width="7" height="7" fill="#4aff6c" />
<rect x="18" y="60" width="7" height="7" fill="#4aff6c" />
<rect x="25" y="60" width="7" height="7" fill="#4aff6c" />
<rect x="39" y="60" width="7" height="7" fill="#4aff6c" />
<rect x="53" y="60" width="7" height="7" fill="#4aff6c" />
<rect x="74" y="60" width="7" height="7" fill="#4aff6c" />
<rect x="4" y="67" width="7" height="7" fill="#4aff6c" />
<rect x="18" y="67" width="7" height="7" fill="#4aff6c" />
<rect x="25" y="67" width="7" height="7" fill="#4aff6c" />
<rect x="39" y="67" width="7" height="7" fill="#4aff6c" />
<rect x="53" y="67" width="7" height="7" fill="#4aff6c" />
<rect x="74" y="67" width="7" height="7" fill="#4aff6c" />
<rect x="4" y="74" width="7" height="7" fill="#4aff6c" />
<rect x="39" y="74" width="7" height="7" fill="#4aff6c" />
<rect x="53" y="74" width="7" height="7" fill="#4aff6c" />
<rect x="60" y="74" width="7" height="7" fill="#4aff6c" />
<rect x="67" y="74" width="7" height="7" fill="#4aff6c" />
<rect x="74" y="74" width="7" height="7" fill="#4aff6c" />
<rect x="4" y="81" width="7" height="7" fill="#4aff6c" />
<rect x="11" y="81" width="7" height="7" fill="#4aff6c" />
<rect x="18" y="81" width="7" height="7" fill="#4aff6c" />
<rect x="25" y="81" width="7" height="7" fill="#4aff6c" />
<rect x="32" y="81" width="7" height="7" fill="#4aff6c" />
<rect x="39" y="81" width="7" height="7" fill="#4aff6c" />
</svg>