<?xml version="1.0" encoding="utf-8"?>
<svg xmlns="http://www.w3.org/2000/svg" width="70" height="66" viewBox="0 0 70 66">
<rect width="100%" height="100%" fill="transparent" />
<rect x="60" y="4" width="2" height="2" fill="#4aff6c" />
<rect x="64" y="4" width="2" height="2" fill="#4aff6c" />
<rect x="60" y="6" width="2" height="2" fill="#4aff6c" />
<rect x="62" y="6" width="2" height="2" fill="#4aff6c" />
<rect x="62" y="8" width="2" height="2" fill="#4aff6c" />
<rect x="38" y="26" width="2" height="2" fill="#4aff6c" />
<rect x="38" y="28" width="2" height="2" fill="#4aff6c" />
<rect x="42" y="28" width="2" height="2" fill="#4aff6c" />
<rect x="38" y="30" width="2" height="2" fill="#4aff6c" />
<rect x="40" y="30" width="2" height="2" fill="#4aff6c" />
<rect x="34" y="34" width="2" height="2" fill="#4aff6c" />
<rect x="36" y="34" width="2" height="2" fill="#4aff6c" />
<rect x="6" y="36" width="2" height="2" fill="#4aff6c" />
<rect x="8" y="36" width="2" height="2" fill="#4aff6c" />
<rect x="12" y="36" width="2" height="2" fill="#4aff6c" />
<rect x="14" y="36" width="2" height="2" fill="#4aff6c" />
<rect x="18" y="36" width="2" height="2" fill="#4aff6c" />
<rect x="20" y="36" width="2" height="2" fill="#4aff6c" />
<rect x="32" y="36" width="2" height="2" fill="#4aff6c" />
<rect x="38" y="36" width="2" height="2" fill="#4aff6c" />
<rect x="6" y="38" width="2" height="2" fill="#4aff6c" />
<rect x="8" y="38" width="2" height="2" fill="#4aff6c" />
<rect x="18" y="38" width="2" height="2" fill="#4aff6c" />
<rect x="20" y="38" width="2" height="2" fill="#4aff6c" />
<rect x="34" y="38" width="2" height="2" fill="#4aff6c" />
<rect x="38" y="38" width="2" height="2" fill="#4aff6c" />
<rect x="6" y="40" width="2" height="2" fill="#4aff6c" />
<rect x="8" y="40" width="2" height="2" fill="#4aff6c" />
<rect x="12" y="40" width="2" height="2" fill="#4aff6c" />
<rect x="14" y="40" width="2" height="2" fill="#4aff6c" />
<rect x="18" y="40" width="2" height="2" fill="#4aff6c" />
<rect x="20" y="40" width="2" height="2" fill="#4aff6c" />
<rect x="36" y="40" width="2" height="2" fill="#4aff6c" />
<rect x="12" y="44" width="2" height="2" fill="#4aff6c" />
<rect x="14" y="44" width="2" height="2" fill="#4aff6c" />
<rect x="44" y="44" width="2" height="2" fill="#4aff6c" />
<rect x="46" y="44" width="2" height="2" fill="#4aff6c" />
<rect x="8" y="46" width="2" height="2" fill="#4aff6c" />
<rect x="18" y="46" width="2" height="2" fill="#4aff6c" />
<rect x="44" y="46" width="2" height="2" fill="#4aff6c" />
<rect x="6" y="48" width="2" height="2" fill="#4aff6c" />
<rect x="20" y="48" width="2" height="2" fill="#4aff6c" />
<rect x="46" y="48" width="2" height="2" fill="#4aff6c" />
<rect x="48" y="48" width="2" height="2" fill="#4aff6c" />
<rect x="50" y="48" width="2" height="2" fill="#4aff6c" />
<rect x="4" y="50" width="2" height="2" fill="#4aff6c" />
<rect x="22" y="50" width="2" height="2" fill="#4aff6c" />
<rect x="50" y="50" width="2" height="2" fill="#4aff6c" />
<rect x="4" y="52" width="2" height="2" fill="#4aff6c" />
<rect x="22" y="52" width="2" height="2" fill="#4aff6c" />
<rect x="4" y="54" width="2" height="2" fill="#4aff6c" />
<rect x="22" y="54" width="2" height="2" fill="#4aff6c" />
<rect x="6" y="56" width="2" height="2" fill="#4aff6c" />
<rect x="20" y="56" width="2" height="2" fill="#4aff6c" />
<rect x="8" y="58" width="2" height="2" fill="#4aff6c" />
<rect x="18" y="58" width="2" height="2" fill="#4aff6c" />
<rect x="12" y="60" width="2" height="2" fill="#4aff6c" />
<rect x="14" y="60" width="2" height="2" fill="#4aff6c" />
</svg>