<?xml version="1.0" encoding="utf-8"?>
<svg xmlns="http://www.w3.org/2000/svg" width="80" height="77" viewBox="0 0 80 77">
<rect width="100%" height="100%" fill="transparent" />
<rect x="67" y="4" width="3" height="3" fill="#4aff6c" />
<rect x="67" y="7" width="3" height="3" fill="#4aff6c" />
<rect x="73" y="7" width="3" height="3" fill="#4aff6c" />
<rect x="67" y="10" width="3" height="3" fill="#4aff6c" />
<rect x="70" y="10" width="3" height="3" fill="#4aff6c" />
<rect x="40" y="31" width="3" height="3" fill="#4aff6c" />
<rect x="40" y="34" width="3" height="3" fill="#4aff6c" />
<rect x="46" y="34" width="3" height="3" fill="#4aff6c" />
<rect x="40" y="37" width="3" height="3" fill="#4aff6c" />
<rect x="43" y="37" width="3" height="3" fill="#4aff6c" />
<rect x="16" y="43" width="3" height="3" fill="#4aff6c" />
<rect x="19" y="43" width="3" height="3" fill="#4aff6c" />
<rect x="34" y="43" width="3" height="3" fill="#4aff6c" />
<rect x="37" y="43" width="3" height="3" fill="#4aff6c" />
<rect x="13" y="46" width="3" height="3" fill="#4aff6c" />
<rect x="22" y="46" width="3" height="3" fill="#4aff6c" />
<rect x="31" y="46" width="3" height="3" fill="#4aff6c" />
<rect x="40" y="46" width="3" height="3" fill="#4aff6c" />
<rect x="34" y="49" width="3" height="3" fill="#4aff6c" />
<rect x="40" y="49" width="3" height="3" fill="#4aff6c" />
<rect x="37" y="52" width="3" height="3" fill="#4aff6c" />
<rect x="10" y="55" width="3" height="3" fill="#4aff6c" />
<rect x="19" y="55" width="3" height="3" fill="#4aff6c" />
<rect x="10" y="58" width="3" height="3" fill="#4aff6c" />
<rect x="16" y="58" width="3" height="3" fill="#4aff6c" />
<rect x="19" y="58" width="3" height="3" fill="#4aff6c" />
<rect x="49" y="58" width="3" height="3" fill="#4aff6c" />
<rect x="52" y="58" width="3" height="3" fill="#4aff6c" />
<rect x="13" y="61" width="3" height="3" fill="#4aff6c" />
<rect x="19" y="61" width="3" height="3" fill="#4aff6c" />
<rect x="22" y="61" width="3" height="3" fill="#4aff6c" />
<rect x="25" y="61" width="3" height="3" fill="#4aff6c" />
<rect x="49" y="61" width="3" height="3" fill="#4aff6c" />
<rect x="4" y="64" width="3" height="3" fill="#4aff6c" />
<rect x="7" y="64" width="3" height="3" fill="#4aff6c" />
<rect x="10" y="64" width="3" height="3" fill="#4aff6c" />
<rect x="22" y="64" width="3" height="3" fill="#4aff6c" />
<rect x="28" y="64" width="3" height="3" fill="#4aff6c" />
<rect x="52" y="64" width="3" height="3" fill="#4aff6c" />
<rect x="55" y="64" width="3" height="3" fill="#4aff6c" />
<rect x="58" y="64" width="3" height="3" fill="#4aff6c" />
<rect x="4" y="67" width="3" height="3" fill="#4aff6c" />
<rect x="28" y="67" width="3" height="3" fill="#4aff6c" />
<rect x="58" y="67" width="3" height="3" fill="#4aff6c" />
<rect x="28" y="70" width="3" height="3" fill="#4aff6c" />
<rect x="31" y="70" width="3" height="3" fill="#4aff6c" />
</svg>