<?xml version="1.0" encoding="utf-8"?>
<svg xmlns="http://www.w3.org/2000/svg" width="53" height="49" viewBox="0 0 53 49">
<rect width="100%" height="100%" fill="transparent" />
<rect x="21" y="4" width="1" height="1" fill="#4aff6c" />
<rect x="22" y="4" width="1" height="1" fill="#4aff6c" />
<rect x="34" y="4" width="1" height="1" fill="#4aff6c" />
<rect x="35" y="4" width="1" height="1" fill="#4aff6c" />
<rect x="20" y="5" width="1" height="1" fill="#4aff6c" />
<rect x="23" y="5" width="1" height="1" fill="#4aff6c" />
<rect x="33" y="5" width="1" height="1" fill="#4aff6c" />
<rect x="36" y="5" width="1" height="1" fill="#4aff6c" />
<rect x="20" y="6" width="1" height="1" fill="#4aff6c" />
<rect x="22" y="6" width="1" height="1" fill="#4aff6c" />
<rect x="26" y="6" width="1" height="1" fill="#4aff6c" />
<rect x="27" y="6" width="1" height="1" fill="#4aff6c" />
<rect x="29" y="6" width="1" height="1" fill="#4aff6c" />
<rect x="30" y="6" width="1" height="1" fill="#4aff6c" />
<rect x="34" y="6" width="1" height="1" fill="#4aff6c" />
<rect x="36" y="6" width="1" height="1" fill="#4aff6c" />
<rect x="18" y="7" width="1" height="1" fill="#4aff6c" />
<rect x="19" y="7" width="1" height="1" fill="#4aff6c" />
<rect x="22" y="7" width="1" height="1" fill="#4aff6c" />
<rect x="24" y="7" width="1" height="1" fill="#4aff6c" />
<rect x="32" y="7" width="1" height="1" fill="#4aff6c" />
<rect x="34" y="7" width="1" height="1" fill="#4aff6c" />
<rect x="37" y="7" width="1" height="1" fill="#4aff6c" />
<rect x="38" y="7" width="1" height="1" fill="#4aff6c" />
<rect x="19" y="8" width="1" height="1" fill="#4aff6c" />
<rect x="21" y="8" width="1" height="1" fill="#4aff6c" />
<rect x="23" y="8" width="1" height="1" fill="#4aff6c" />
<rect x="28" y="8" width="1" height="1" fill="#4aff6c" />
<rect x="33" y="8" width="1" height="1" fill="#4aff6c" />
<rect x="35" y="8" width="1" height="1" fill="#4aff6c" />
<rect x="37" y="8" width="1" height="1" fill="#4aff6c" />
<rect x="18" y="9" width="1" height="1" fill="#4aff6c" />
<rect x="21" y="9" width="1" height="1" fill="#4aff6c" />
<rect x="22" y="9" width="1" height="1" fill="#4aff6c" />
<rect x="25" y="9" width="1" height="1" fill="#4aff6c" />
<rect x="26" y="9" width="1" height="1" fill="#4aff6c" />
<rect x="27" y="9" width="1" height="1" fill="#4aff6c" />
<rect x="28" y="9" width="1" height="1" fill="#4aff6c" />
<rect x="29" y="9" width="1" height="1" fill="#4aff6c" />
<rect x="30" y="9" width="1" height="1" fill="#4aff6c" />
<rect x="31" y="9" width="1" height="1" fill="#4aff6c" />
<rect x="34" y="9" width="1" height="1" fill="#4aff6c" />
<rect x="35" y="9" width="1" height="1" fill="#4aff6c" />
<rect x="38" y="9" width="1" height="1" fill="#4aff6c" />
<rect x="18" y="10" width="1" height="1" fill="#4aff6c" />
<rect x="19" y="10" width="1" height="1" fill="#4aff6c" />
<rect x="25" y="10" width="1" height="1" fill="#4aff6c" />
<rect x="27" y="10" width="1" height="1" fill="#4aff6c" />
<rect x="29" y="10" width="1" height="1" fill="#4aff6c" />
<rect x="31" y="10" width="1" height="1" fill="#4aff6c" />
<rect x="37" y="10" width="1" height="1" fill="#4aff6c" />
<rect x="38" y="10" width="1" height="1" fill="#4aff6c" />
<rect x="27" y="11" width="1" height="1" fill="#4aff6c" />
<rect x="29" y="11" width="1" height="1" fill="#4aff6c" />
<rect x="9" y="12" width="1" height="1" fill="#4aff6c" />
<rect x="12" y="12" width="1" height="1" fill="#4aff6c" />
<rect x="13" y="12" width="1" height="1" fill="#4aff6c" />
<rect x="23" y="12" width="1" height="1" fill="#4aff6c" />
<rect x="24" y="12" width="1" height="1" fill="#4aff6c" />
<rect x="25" y="12" width="1" height="1" fill="#4aff6c" />
<rect x="31" y="12" width="1" height="1" fill="#4aff6c" />
<rect x="32" y="12" width="1" height="1" fill="#4aff6c" />
<rect x="33" y="12" width="1" height="1" fill="#4aff6c" />
<rect x="8" y="13" width="1" height="1" fill="#4aff6c" />
<rect x="10" y="13" width="1" height="1" fill="#4aff6c" />
<rect x="13" y="13" width="1" height="1" fill="#4aff6c" />
<rect x="16" y="13" width="1" height="1" fill="#4aff6c" />
<rect x="22" y="13" width="1" height="1" fill="#4aff6c" />
<rect x="24" y="13" width="1" height="1" fill="#4aff6c" />
<rect x="26" y="13" width="1" height="1" fill="#4aff6c" />
<rect x="30" y="13" width="1" height="1" fill="#4aff6c" />
<rect x="32" y="13" width="1" height="1" fill="#4aff6c" />
<rect x="34" y="13" width="1" height="1" fill="#4aff6c" />
<rect x="8" y="14" width="1" height="1" fill="#4aff6c" />
<rect x="10" y="14" width="1" height="1" fill="#4aff6c" />
<rect x="11" y="14" width="1" height="1" fill="#4aff6c" />
<rect x="13" y="14" width="1" height="1" fill="#4aff6c" />
<rect x="15" y="14" width="1" height="1" fill="#4aff6c" />
<rect x="17" y="14" width="1" height="1" fill="#4aff6c" />
<rect x="22" y="14" width="1" height="1" fill="#4aff6c" />
<rect x="23" y="14" width="1" height="1" fill="#4aff6c" />
<rect x="26" y="14" width="1" height="1" fill="#4aff6c" />
<rect x="27" y="14" width="1" height="1" fill="#4aff6c" />
<rect x="28" y="14" width="1" height="1" fill="#4aff6c" />
<rect x="29" y="14" width="1" height="1" fill="#4aff6c" />
<rect x="30" y="14" width="1" height="1" fill="#4aff6c" />
<rect x="33" y="14" width="1" height="1" fill="#4aff6c" />
<rect x="34" y="14" width="1" height="1" fill="#4aff6c" />
<rect x="7" y="15" width="1" height="1" fill="#4aff6c" />
<rect x="8" y="15" width="1" height="1" fill="#4aff6c" />
<rect x="10" y="15" width="1" height="1" fill="#4aff6c" />
<rect x="13" y="15" width="1" height="1" fill="#4aff6c" />
<rect x="15" y="15" width="1" height="1" fill="#4aff6c" />
<rect x="18" y="15" width="1" height="1" fill="#4aff6c" />
<rect x="7" y="16" width="1" height="1" fill="#4aff6c" />
<rect x="10" y="16" width="1" height="1" fill="#4aff6c" />
<rect x="12" y="16" width="1" height="1" fill="#4aff6c" />
<rect x="13" y="16" width="1" height="1" fill="#4aff6c" />
<rect x="16" y="16" width="1" height="1" fill="#4aff6c" />
<rect x="8" y="17" width="1" height="1" fill="#4aff6c" />
<rect x="9" y="17" width="1" height="1" fill="#4aff6c" />
<rect x="10" y="17" width="1" height="1" fill="#4aff6c" />
<rect x="12" y="17" width="1" height="1" fill="#4aff6c" />
<rect x="14" y="17" width="1" height="1" fill="#4aff6c" />
<rect x="18" y="17" width="1" height="1" fill="#4aff6c" />
<rect x="19" y="17" width="1" height="1" fill="#4aff6c" />
<rect x="20" y="17" width="1" height="1" fill="#4aff6c" />
<rect x="10" y="18" width="1" height="1" fill="#4aff6c" />
<rect x="11" y="18" width="1" height="1" fill="#4aff6c" />
<rect x="13" y="18" width="1" height="1" fill="#4aff6c" />
<rect x="19" y="18" width="1" height="1" fill="#4aff6c" />
<rect x="20" y="18" width="1" height="1" fill="#4aff6c" />
<rect x="6" y="19" width="1" height="1" fill="#4aff6c" />
<rect x="8" y="19" width="1" height="1" fill="#4aff6c" />
<rect x="11" y="19" width="1" height="1" fill="#4aff6c" />
<rect x="13" y="19" width="1" height="1" fill="#4aff6c" />
<rect x="17" y="19" width="1" height="1" fill="#4aff6c" />
<rect x="20" y="19" width="1" height="1" fill="#4aff6c" />
<rect x="25" y="19" width="1" height="1" fill="#4aff6c" />
<rect x="27" y="19" width="1" height="1" fill="#4aff6c" />
<rect x="29" y="19" width="1" height="1" fill="#4aff6c" />
<rect x="6" y="20" width="1" height="1" fill="#4aff6c" />
<rect x="7" y="20" width="1" height="1" fill="#4aff6c" />
<rect x="10" y="20" width="1" height="1" fill="#4aff6c" />
<rect x="11" y="20" width="1" height="1" fill="#4aff6c" />
<rect x="13" y="20" width="1" height="1" fill="#4aff6c" />
<rect x="15" y="20" width="1" height="1" fill="#4aff6c" />
<rect x="16" y="20" width="1" height="1" fill="#4aff6c" />
<rect x="19" y="20" width="1" height="1" fill="#4aff6c" />
<rect x="20" y="20" width="1" height="1" fill="#4aff6c" />
<rect x="21" y="20" width="1" height="1" fill="#4aff6c" />
<rect x="26" y="20" width="1" height="1" fill="#4aff6c" />
<rect x="27" y="20" width="1" height="1" fill="#4aff6c" />
<rect x="28" y="20" width="1" height="1" fill="#4aff6c" />
<rect x="42" y="20" width="1" height="1" fill="#4aff6c" />
<rect x="43" y="20" width="1" height="1" fill="#4aff6c" />
<rect x="12" y="21" width="1" height="1" fill="#4aff6c" />
<rect x="13" y="21" width="1" height="1" fill="#4aff6c" />
<rect x="15" y="21" width="1" height="1" fill="#4aff6c" />
<rect x="19" y="21" width="1" height="1" fill="#4aff6c" />
<rect x="20" y="21" width="1" height="1" fill="#4aff6c" />
<rect x="27" y="21" width="1" height="1" fill="#4aff6c" />
<rect x="41" y="21" width="1" height="1" fill="#4aff6c" />
<rect x="44" y="21" width="1" height="1" fill="#4aff6c" />
<rect x="6" y="22" width="1" height="1" fill="#4aff6c" />
<rect x="7" y="22" width="1" height="1" fill="#4aff6c" />
<rect x="8" y="22" width="1" height="1" fill="#4aff6c" />
<rect x="9" y="22" width="1" height="1" fill="#4aff6c" />
<rect x="10" y="22" width="1" height="1" fill="#4aff6c" />
<rect x="15" y="22" width="1" height="1" fill="#4aff6c" />
<rect x="40" y="22" width="1" height="1" fill="#4aff6c" />
<rect x="41" y="22" width="1" height="1" fill="#4aff6c" />
<rect x="5" y="23" width="1" height="1" fill="#4aff6c" />
<rect x="10" y="23" width="1" height="1" fill="#4aff6c" />
<rect x="12" y="23" width="1" height="1" fill="#4aff6c" />
<rect x="13" y="23" width="1" height="1" fill="#4aff6c" />
<rect x="14" y="23" width="1" height="1" fill="#4aff6c" />
<rect x="32" y="23" width="1" height="1" fill="#4aff6c" />
<rect x="33" y="23" width="1" height="1" fill="#4aff6c" />
<rect x="39" y="23" width="1" height="1" fill="#4aff6c" />
<rect x="40" y="23" width="1" height="1" fill="#4aff6c" />
<rect x="41" y="23" width="1" height="1" fill="#4aff6c" />
<rect x="47" y="23" width="1" height="1" fill="#4aff6c" />
<rect x="5" y="24" width="1" height="1" fill="#4aff6c" />
<rect x="7" y="24" width="1" height="1" fill="#4aff6c" />
<rect x="8" y="24" width="1" height="1" fill="#4aff6c" />
<rect x="10" y="24" width="1" height="1" fill="#4aff6c" />
<rect x="12" y="24" width="1" height="1" fill="#4aff6c" />
<rect x="19" y="24" width="1" height="1" fill="#4aff6c" />
<rect x="20" y="24" width="1" height="1" fill="#4aff6c" />
<rect x="28" y="24" width="1" height="1" fill="#4aff6c" />
<rect x="32" y="24" width="1" height="1" fill="#4aff6c" />
<rect x="34" y="24" width="1" height="1" fill="#4aff6c" />
<rect x="39" y="24" width="1" height="1" fill="#4aff6c" />
<rect x="42" y="24" width="1" height="1" fill="#4aff6c" />
<rect x="46" y="24" width="1" height="1" fill="#4aff6c" />
<rect x="48" y="24" width="1" height="1" fill="#4aff6c" />
<rect x="4" y="25" width="1" height="1" fill="#4aff6c" />
<rect x="5" y="25" width="1" height="1" fill="#4aff6c" />
<rect x="7" y="25" width="1" height="1" fill="#4aff6c" />
<rect x="10" y="25" width="1" height="1" fill="#4aff6c" />
<rect x="17" y="25" width="1" height="1" fill="#4aff6c" />
<rect x="18" y="25" width="1" height="1" fill="#4aff6c" />
<rect x="19" y="25" width="1" height="1" fill="#4aff6c" />
<rect x="20" y="25" width="1" height="1" fill="#4aff6c" />
<rect x="29" y="25" width="1" height="1" fill="#4aff6c" />
<rect x="34" y="25" width="1" height="1" fill="#4aff6c" />
<rect x="40" y="25" width="1" height="1" fill="#4aff6c" />
<rect x="41" y="25" width="1" height="1" fill="#4aff6c" />
<rect x="42" y="25" width="1" height="1" fill="#4aff6c" />
<rect x="46" y="25" width="1" height="1" fill="#4aff6c" />
<rect x="47" y="25" width="1" height="1" fill="#4aff6c" />
<rect x="5" y="26" width="1" height="1" fill="#4aff6c" />
<rect x="7" y="26" width="1" height="1" fill="#4aff6c" />
<rect x="9" y="26" width="1" height="1" fill="#4aff6c" />
<rect x="11" y="26" width="1" height="1" fill="#4aff6c" />
<rect x="17" y="26" width="1" height="1" fill="#4aff6c" />
<rect x="18" y="26" width="1" height="1" fill="#4aff6c" />
<rect x="21" y="26" width="1" height="1" fill="#4aff6c" />
<rect x="27" y="26" width="1" height="1" fill="#4aff6c" />
<rect x="28" y="26" width="1" height="1" fill="#4aff6c" />
<rect x="29" y="26" width="1" height="1" fill="#4aff6c" />
<rect x="34" y="26" width="1" height="1" fill="#4aff6c" />
<rect x="35" y="26" width="1" height="1" fill="#4aff6c" />
<rect x="5" y="27" width="1" height="1" fill="#4aff6c" />
<rect x="7" y="27" width="1" height="1" fill="#4aff6c" />
<rect x="9" y="27" width="1" height="1" fill="#4aff6c" />
<rect x="10" y="27" width="1" height="1" fill="#4aff6c" />
<rect x="12" y="27" width="1" height="1" fill="#4aff6c" />
<rect x="15" y="27" width="1" height="1" fill="#4aff6c" />
<rect x="40" y="27" width="1" height="1" fill="#4aff6c" />
<rect x="41" y="27" width="1" height="1" fill="#4aff6c" />
<rect x="42" y="27" width="1" height="1" fill="#4aff6c" />
<rect x="46" y="27" width="1" height="1" fill="#4aff6c" />
<rect x="47" y="27" width="1" height="1" fill="#4aff6c" />
<rect x="4" y="28" width="1" height="1" fill="#4aff6c" />
<rect x="5" y="28" width="1" height="1" fill="#4aff6c" />
<rect x="7" y="28" width="1" height="1" fill="#4aff6c" />
<rect x="8" y="28" width="1" height="1" fill="#4aff6c" />
<rect x="11" y="28" width="1" height="1" fill="#4aff6c" />
<rect x="12" y="28" width="1" height="1" fill="#4aff6c" />
<rect x="16" y="28" width="1" height="1" fill="#4aff6c" />
<rect x="17" y="28" width="1" height="1" fill="#4aff6c" />
<rect x="18" y="28" width="1" height="1" fill="#4aff6c" />
<rect x="19" y="28" width="1" height="1" fill="#4aff6c" />
<rect x="39" y="28" width="1" height="1" fill="#4aff6c" />
<rect x="42" y="28" width="1" height="1" fill="#4aff6c" />
<rect x="46" y="28" width="1" height="1" fill="#4aff6c" />
<rect x="48" y="28" width="1" height="1" fill="#4aff6c" />
<rect x="7" y="29" width="1" height="1" fill="#4aff6c" />
<rect x="10" y="29" width="1" height="1" fill="#4aff6c" />
<rect x="11" y="29" width="1" height="1" fill="#4aff6c" />
<rect x="12" y="29" width="1" height="1" fill="#4aff6c" />
<rect x="15" y="29" width="1" height="1" fill="#4aff6c" />
<rect x="18" y="29" width="1" height="1" fill="#4aff6c" />
<rect x="19" y="29" width="1" height="1" fill="#4aff6c" />
<rect x="24" y="29" width="1" height="1" fill="#4aff6c" />
<rect x="39" y="29" width="1" height="1" fill="#4aff6c" />
<rect x="40" y="29" width="1" height="1" fill="#4aff6c" />
<rect x="41" y="29" width="1" height="1" fill="#4aff6c" />
<rect x="47" y="29" width="1" height="1" fill="#4aff6c" />
<rect x="7" y="30" width="1" height="1" fill="#4aff6c" />
<rect x="9" y="30" width="1" height="1" fill="#4aff6c" />
<rect x="11" y="30" width="1" height="1" fill="#4aff6c" />
<rect x="12" y="30" width="1" height="1" fill="#4aff6c" />
<rect x="18" y="30" width="1" height="1" fill="#4aff6c" />
<rect x="23" y="30" width="1" height="1" fill="#4aff6c" />
<rect x="25" y="30" width="1" height="1" fill="#4aff6c" />
<rect x="34" y="30" width="1" height="1" fill="#4aff6c" />
<rect x="40" y="30" width="1" height="1" fill="#4aff6c" />
<rect x="41" y="30" width="1" height="1" fill="#4aff6c" />
<rect x="6" y="31" width="1" height="1" fill="#4aff6c" />
<rect x="7" y="31" width="1" height="1" fill="#4aff6c" />
<rect x="9" y="31" width="1" height="1" fill="#4aff6c" />
<rect x="12" y="31" width="1" height="1" fill="#4aff6c" />
<rect x="13" y="31" width="1" height="1" fill="#4aff6c" />
<rect x="15" y="31" width="1" height="1" fill="#4aff6c" />
<rect x="18" y="31" width="1" height="1" fill="#4aff6c" />
<rect x="22" y="31" width="1" height="1" fill="#4aff6c" />
<rect x="26" y="31" width="1" height="1" fill="#4aff6c" />
<rect x="35" y="31" width="1" height="1" fill="#4aff6c" />
<rect x="41" y="31" width="1" height="1" fill="#4aff6c" />
<rect x="44" y="31" width="1" height="1" fill="#4aff6c" />
<rect x="8" y="32" width="1" height="1" fill="#4aff6c" />
<rect x="12" y="32" width="1" height="1" fill="#4aff6c" />
<rect x="13" y="32" width="1" height="1" fill="#4aff6c" />
<rect x="16" y="32" width="1" height="1" fill="#4aff6c" />
<rect x="19" y="32" width="1" height="1" fill="#4aff6c" />
<rect x="23" y="32" width="1" height="1" fill="#4aff6c" />
<rect x="25" y="32" width="1" height="1" fill="#4aff6c" />
<rect x="33" y="32" width="1" height="1" fill="#4aff6c" />
<rect x="34" y="32" width="1" height="1" fill="#4aff6c" />
<rect x="35" y="32" width="1" height="1" fill="#4aff6c" />
<rect x="42" y="32" width="1" height="1" fill="#4aff6c" />
<rect x="43" y="32" width="1" height="1" fill="#4aff6c" />
<rect x="8" y="33" width="1" height="1" fill="#4aff6c" />
<rect x="10" y="33" width="1" height="1" fill="#4aff6c" />
<rect x="18" y="33" width="1" height="1" fill="#4aff6c" />
<rect x="24" y="33" width="1" height="1" fill="#4aff6c" />
<rect x="7" y="34" width="1" height="1" fill="#4aff6c" />
<rect x="8" y="34" width="1" height="1" fill="#4aff6c" />
<rect x="10" y="34" width="1" height="1" fill="#4aff6c" />
<rect x="11" y="34" width="1" height="1" fill="#4aff6c" />
<rect x="22" y="34" width="1" height="1" fill="#4aff6c" />
<rect x="23" y="34" width="1" height="1" fill="#4aff6c" />
<rect x="24" y="34" width="1" height="1" fill="#4aff6c" />
<rect x="14" y="35" width="1" height="1" fill="#4aff6c" />
<rect x="15" y="35" width="1" height="1" fill="#4aff6c" />
<rect x="20" y="35" width="1" height="1" fill="#4aff6c" />
<rect x="21" y="35" width="1" height="1" fill="#4aff6c" />
<rect x="22" y="35" width="1" height="1" fill="#4aff6c" />
<rect x="23" y="35" width="1" height="1" fill="#4aff6c" />
<rect x="24" y="35" width="1" height="1" fill="#4aff6c" />
<rect x="25" y="35" width="1" height="1" fill="#4aff6c" />
<rect x="26" y="35" width="1" height="1" fill="#4aff6c" />
<rect x="31" y="35" width="1" height="1" fill="#4aff6c" />
<rect x="32" y="35" width="1" height="1" fill="#4aff6c" />
<rect x="14" y="36" width="1" height="1" fill="#4aff6c" />
<rect x="17" y="36" width="1" height="1" fill="#4aff6c" />
<rect x="20" y="36" width="1" height="1" fill="#4aff6c" />
<rect x="21" y="36" width="1" height="1" fill="#4aff6c" />
<rect x="23" y="36" width="1" height="1" fill="#4aff6c" />
<rect x="25" y="36" width="1" height="1" fill="#4aff6c" />
<rect x="26" y="36" width="1" height="1" fill="#4aff6c" />
<rect x="29" y="36" width="1" height="1" fill="#4aff6c" />
<rect x="32" y="36" width="1" height="1" fill="#4aff6c" />
<rect x="15" y="37" width="1" height="1" fill="#4aff6c" />
<rect x="16" y="37" width="1" height="1" fill="#4aff6c" />
<rect x="18" y="37" width="1" height="1" fill="#4aff6c" />
<rect x="19" y="37" width="1" height="1" fill="#4aff6c" />
<rect x="20" y="37" width="1" height="1" fill="#4aff6c" />
<rect x="21" y="37" width="1" height="1" fill="#4aff6c" />
<rect x="25" y="37" width="1" height="1" fill="#4aff6c" />
<rect x="26" y="37" width="1" height="1" fill="#4aff6c" />
<rect x="27" y="37" width="1" height="1" fill="#4aff6c" />
<rect x="28" y="37" width="1" height="1" fill="#4aff6c" />
<rect x="30" y="37" width="1" height="1" fill="#4aff6c" />
<rect x="31" y="37" width="1" height="1" fill="#4aff6c" />
<rect x="12" y="38" width="1" height="1" fill="#4aff6c" />
<rect x="13" y="38" width="1" height="1" fill="#4aff6c" />
<rect x="14" y="38" width="1" height="1" fill="#4aff6c" />
<rect x="17" y="38" width="1" height="1" fill="#4aff6c" />
<rect x="29" y="38" width="1" height="1" fill="#4aff6c" />
<rect x="32" y="38" width="1" height="1" fill="#4aff6c" />
<rect x="33" y="38" width="1" height="1" fill="#4aff6c" />
<rect x="34" y="38" width="1" height="1" fill="#4aff6c" />
<rect x="11" y="39" width="1" height="1" fill="#4aff6c" />
<rect x="15" y="39" width="1" height="1" fill="#4aff6c" />
<rect x="16" y="39" width="1" height="1" fill="#4aff6c" />
<rect x="18" y="39" width="1" height="1" fill="#4aff6c" />
<rect x="19" y="39" width="1" height="1" fill="#4aff6c" />
<rect x="27" y="39" width="1" height="1" fill="#4aff6c" />
<rect x="28" y="39" width="1" height="1" fill="#4aff6c" />
<rect x="30" y="39" width="1" height="1" fill="#4aff6c" />
<rect x="31" y="39" width="1" height="1" fill="#4aff6c" />
<rect x="35" y="39" width="1" height="1" fill="#4aff6c" />
<rect x="11" y="40" width="1" height="1" fill="#4aff6c" />
<rect x="12" y="40" width="1" height="1" fill="#4aff6c" />
<rect x="14" y="40" width="1" height="1" fill="#4aff6c" />
<rect x="18" y="40" width="1" height="1" fill="#4aff6c" />
<rect x="19" y="40" width="1" height="1" fill="#4aff6c" />
<rect x="27" y="40" width="1" height="1" fill="#4aff6c" />
<rect x="28" y="40" width="1" height="1" fill="#4aff6c" />
<rect x="32" y="40" width="1" height="1" fill="#4aff6c" />
<rect x="34" y="40" width="1" height="1" fill="#4aff6c" />
<rect x="35" y="40" width="1" height="1" fill="#4aff6c" />
<rect x="12" y="41" width="1" height="1" fill="#4aff6c" />
<rect x="14" y="41" width="1" height="1" fill="#4aff6c" />
<rect x="15" y="41" width="1" height="1" fill="#4aff6c" />
<rect x="16" y="41" width="1" height="1" fill="#4aff6c" />
<rect x="20" y="41" width="1" height="1" fill="#4aff6c" />
<rect x="26" y="41" width="1" height="1" fill="#4aff6c" />
<rect x="30" y="41" width="1" height="1" fill="#4aff6c" />
<rect x="31" y="41" width="1" height="1" fill="#4aff6c" />
<rect x="32" y="41" width="1" height="1" fill="#4aff6c" />
<rect x="34" y="41" width="1" height="1" fill="#4aff6c" />
<rect x="11" y="42" width="1" height="1" fill="#4aff6c" />
<rect x="18" y="42" width="1" height="1" fill="#4aff6c" />
<rect x="19" y="42" width="1" height="1" fill="#4aff6c" />
<rect x="27" y="42" width="1" height="1" fill="#4aff6c" />
<rect x="28" y="42" width="1" height="1" fill="#4aff6c" />
<rect x="35" y="42" width="1" height="1" fill="#4aff6c" />
<rect x="46" y="42" width="1" height="1" fill="#4aff6c" />
<rect x="12" y="43" width="1" height="1" fill="#4aff6c" />
<rect x="13" y="43" width="1" height="1" fill="#4aff6c" />
<rect x="14" y="43" width="1" height="1" fill="#4aff6c" />
<rect x="15" y="43" width="1" height="1" fill="#4aff6c" />
<rect x="16" y="43" width="1" height="1" fill="#4aff6c" />
<rect x="17" y="43" width="1" height="1" fill="#4aff6c" />
<rect x="29" y="43" width="1" height="1" fill="#4aff6c" />
<rect x="30" y="43" width="1" height="1" fill="#4aff6c" />
<rect x="31" y="43" width="1" height="1" fill="#4aff6c" />
<rect x="32" y="43" width="1" height="1" fill="#4aff6c" />
<rect x="33" y="43" width="1" height="1" fill="#4aff6c" />
<rect x="34" y="43" width="1" height="1" fill="#4aff6c" />
<rect x="47" y="43" width="1" height="1" fill="#4aff6c" />
<rect x="14" y="44" width="1" height="1" fill="#4aff6c" />
<rect x="17" y="44" width="1" height="1" fill="#4aff6c" />
<rect x="29" y="44" width="1" height="1" fill="#4aff6c" />
<rect x="32" y="44" width="1" height="1" fill="#4aff6c" />
<rect x="45" y="44" width="1" height="1" fill="#4aff6c" />
<rect x="46" y="44" width="1" height="1" fill="#4aff6c" />
<rect x="47" y="44" width="1" height="1" fill="#4aff6c" />
</svg>