<?xml version="1.0" encoding="utf-8"?>
<svg xmlns="http://www.w3.org/2000/svg" width="95" height="74" viewBox="0 0 95 74">
<rect width="100%" height="100%" fill="transparent" />
<rect x="88" y="4" width="3" height="3" fill="#4aff6c" />
<rect x="82" y="7" width="3" height="3" fill="#4aff6c" />
<rect x="85" y="7" width="3" height="3" fill="#4aff6c" />
<rect x="85" y="10" width="3" height="3" fill="#4aff6c" />
<rect x="88" y="10" width="3" height="3" fill="#4aff6c" />
<rect x="13" y="31" width="3" height="3" fill="#4aff6c" />
<rect x="16" y="31" width="3" height="3" fill="#4aff6c" />
<rect x="25" y="31" width="3" height="3" fill="#4aff6c" />
<rect x="58" y="31" width="3" height="3" fill="#4aff6c" />
<rect x="13" y="34" width="3" height="3" fill="#4aff6c" />
<rect x="22" y="34" width="3" height="3" fill="#4aff6c" />
<rect x="28" y="34" width="3" height="3" fill="#4aff6c" />
<rect x="58" y="34" width="3" height="3" fill="#4aff6c" />
<rect x="64" y="34" width="3" height="3" fill="#4aff6c" />
<rect x="16" y="37" width="3" height="3" fill="#4aff6c" />
<rect x="22" y="37" width="3" height="3" fill="#4aff6c" />
<rect x="28" y="37" width="3" height="3" fill="#4aff6c" />
<rect x="58" y="37" width="3" height="3" fill="#4aff6c" />
<rect x="61" y="37" width="3" height="3" fill="#4aff6c" />
<rect x="13" y="40" width="3" height="3" fill="#4aff6c" />
<rect x="16" y="40" width="3" height="3" fill="#4aff6c" />
<rect x="22" y="40" width="3" height="3" fill="#4aff6c" />
<rect x="28" y="40" width="3" height="3" fill="#4aff6c" />
<rect x="31" y="40" width="3" height="3" fill="#4aff6c" />
<rect x="10" y="43" width="3" height="3" fill="#4aff6c" />
<rect x="22" y="43" width="3" height="3" fill="#4aff6c" />
<rect x="25" y="43" width="3" height="3" fill="#4aff6c" />
<rect x="34" y="43" width="3" height="3" fill="#4aff6c" />
<rect x="52" y="43" width="3" height="3" fill="#4aff6c" />
<rect x="55" y="43" width="3" height="3" fill="#4aff6c" />
<rect x="7" y="46" width="3" height="3" fill="#4aff6c" />
<rect x="16" y="46" width="3" height="3" fill="#4aff6c" />
<rect x="19" y="46" width="3" height="3" fill="#4aff6c" />
<rect x="31" y="46" width="3" height="3" fill="#4aff6c" />
<rect x="34" y="46" width="3" height="3" fill="#4aff6c" />
<rect x="37" y="46" width="3" height="3" fill="#4aff6c" />
<rect x="49" y="46" width="3" height="3" fill="#4aff6c" />
<rect x="58" y="46" width="3" height="3" fill="#4aff6c" />
<rect x="7" y="49" width="3" height="3" fill="#4aff6c" />
<rect x="13" y="49" width="3" height="3" fill="#4aff6c" />
<rect x="19" y="49" width="3" height="3" fill="#4aff6c" />
<rect x="22" y="49" width="3" height="3" fill="#4aff6c" />
<rect x="31" y="49" width="3" height="3" fill="#4aff6c" />
<rect x="34" y="49" width="3" height="3" fill="#4aff6c" />
<rect x="37" y="49" width="3" height="3" fill="#4aff6c" />
<rect x="52" y="49" width="3" height="3" fill="#4aff6c" />
<rect x="58" y="49" width="3" height="3" fill="#4aff6c" />
<rect x="10" y="52" width="3" height="3" fill="#4aff6c" />
<rect x="16" y="52" width="3" height="3" fill="#4aff6c" />
<rect x="19" y="52" width="3" height="3" fill="#4aff6c" />
<rect x="31" y="52" width="3" height="3" fill="#4aff6c" />
<rect x="34" y="52" width="3" height="3" fill="#4aff6c" />
<rect x="37" y="52" width="3" height="3" fill="#4aff6c" />
<rect x="55" y="52" width="3" height="3" fill="#4aff6c" />
<rect x="22" y="55" width="3" height="3" fill="#4aff6c" />
<rect x="25" y="55" width="3" height="3" fill="#4aff6c" />
<rect x="34" y="55" width="3" height="3" fill="#4aff6c" />
<rect x="4" y="58" width="3" height="3" fill="#4aff6c" />
<rect x="7" y="58" width="3" height="3" fill="#4aff6c" />
<rect x="10" y="58" width="3" height="3" fill="#4aff6c" />
<rect x="13" y="58" width="3" height="3" fill="#4aff6c" />
<rect x="16" y="58" width="3" height="3" fill="#4aff6c" />
<rect x="22" y="58" width="3" height="3" fill="#4aff6c" />
<rect x="28" y="58" width="3" height="3" fill="#4aff6c" />
<rect x="31" y="58" width="3" height="3" fill="#4aff6c" />
<rect x="67" y="58" width="3" height="3" fill="#4aff6c" />
<rect x="70" y="58" width="3" height="3" fill="#4aff6c" />
<rect x="4" y="61" width="3" height="3" fill="#4aff6c" />
<rect x="13" y="61" width="3" height="3" fill="#4aff6c" />
<rect x="22" y="61" width="3" height="3" fill="#4aff6c" />
<rect x="28" y="61" width="3" height="3" fill="#4aff6c" />
<rect x="67" y="61" width="3" height="3" fill="#4aff6c" />
<rect x="19" y="64" width="3" height="3" fill="#4aff6c" />
<rect x="28" y="64" width="3" height="3" fill="#4aff6c" />
<rect x="70" y="64" width="3" height="3" fill="#4aff6c" />
<rect x="73" y="64" width="3" height="3" fill="#4aff6c" />
<rect x="76" y="64" width="3" height="3" fill="#4aff6c" />
<rect x="22" y="67" width="3" height="3" fill="#4aff6c" />
<rect x="25" y="67" width="3" height="3" fill="#4aff6c" />
<rect x="76" y="67" width="3" height="3" fill="#4aff6c" />
</svg>