<?xml version="1.0" encoding="utf-8"?>
<svg xmlns="http://www.w3.org/2000/svg" width="95" height="59" viewBox="0 0 95 59">
<rect width="100%" height="100%" fill="transparent" />
<rect x="4" y="4" width="3" height="3" fill="#4aff6c" />
<rect x="7" y="4" width="3" height="3" fill="#4aff6c" />
<rect x="85" y="4" width="3" height="3" fill="#4aff6c" />
<rect x="88" y="4" width="3" height="3" fill="#4aff6c" />
<rect x="7" y="7" width="3" height="3" fill="#4aff6c" />
<rect x="85" y="7" width="3" height="3" fill="#4aff6c" />
<rect x="7" y="10" width="3" height="3" fill="#4aff6c" />
<rect x="13" y="10" width="3" height="3" fill="#4aff6c" />
<rect x="37" y="10" width="3" height="3" fill="#4aff6c" />
<rect x="79" y="10" width="3" height="3" fill="#4aff6c" />
<rect x="85" y="10" width="3" height="3" fill="#4aff6c" />
<rect x="10" y="13" width="3" height="3" fill="#4aff6c" />
<rect x="13" y="13" width="3" height="3" fill="#4aff6c" />
<rect x="31" y="13" width="3" height="3" fill="#4aff6c" />
<rect x="40" y="13" width="3" height="3" fill="#4aff6c" />
<rect x="58" y="13" width="3" height="3" fill="#4aff6c" />
<rect x="79" y="13" width="3" height="3" fill="#4aff6c" />
<rect x="82" y="13" width="3" height="3" fill="#4aff6c" />
<rect x="40" y="16" width="3" height="3" fill="#4aff6c" />
<rect x="58" y="16" width="3" height="3" fill="#4aff6c" />
<rect x="61" y="16" width="3" height="3" fill="#4aff6c" />
<rect x="28" y="19" width="3" height="3" fill="#4aff6c" />
<rect x="61" y="19" width="3" height="3" fill="#4aff6c" />
<rect x="64" y="19" width="3" height="3" fill="#4aff6c" />
<rect x="28" y="22" width="3" height="3" fill="#4aff6c" />
<rect x="40" y="22" width="3" height="3" fill="#4aff6c" />
<rect x="43" y="22" width="3" height="3" fill="#4aff6c" />
<rect x="58" y="22" width="3" height="3" fill="#4aff6c" />
<rect x="61" y="22" width="3" height="3" fill="#4aff6c" />
<rect x="31" y="25" width="3" height="3" fill="#4aff6c" />
<rect x="34" y="25" width="3" height="3" fill="#4aff6c" />
<rect x="37" y="25" width="3" height="3" fill="#4aff6c" />
<rect x="40" y="25" width="3" height="3" fill="#4aff6c" />
<rect x="43" y="25" width="3" height="3" fill="#4aff6c" />
<rect x="31" y="31" width="3" height="3" fill="#4aff6c" />
<rect x="34" y="31" width="3" height="3" fill="#4aff6c" />
<rect x="37" y="31" width="3" height="3" fill="#4aff6c" />
<rect x="40" y="31" width="3" height="3" fill="#4aff6c" />
<rect x="43" y="31" width="3" height="3" fill="#4aff6c" />
<rect x="28" y="34" width="3" height="3" fill="#4aff6c" />
<rect x="40" y="34" width="3" height="3" fill="#4aff6c" />
<rect x="43" y="34" width="3" height="3" fill="#4aff6c" />
<rect x="58" y="34" width="3" height="3" fill="#4aff6c" />
<rect x="61" y="34" width="3" height="3" fill="#4aff6c" />
<rect x="28" y="37" width="3" height="3" fill="#4aff6c" />
<rect x="61" y="37" width="3" height="3" fill="#4aff6c" />
<rect x="64" y="37" width="3" height="3" fill="#4aff6c" />
<rect x="40" y="40" width="3" height="3" fill="#4aff6c" />
<rect x="58" y="40" width="3" height="3" fill="#4aff6c" />
<rect x="61" y="40" width="3" height="3" fill="#4aff6c" />
<rect x="10" y="43" width="3" height="3" fill="#4aff6c" />
<rect x="13" y="43" width="3" height="3" fill="#4aff6c" />
<rect x="31" y="43" width="3" height="3" fill="#4aff6c" />
<rect x="40" y="43" width="3" height="3" fill="#4aff6c" />
<rect x="58" y="43" width="3" height="3" fill="#4aff6c" />
<rect x="79" y="43" width="3" height="3" fill="#4aff6c" />
<rect x="82" y="43" width="3" height="3" fill="#4aff6c" />
<rect x="7" y="46" width="3" height="3" fill="#4aff6c" />
<rect x="13" y="46" width="3" height="3" fill="#4aff6c" />
<rect x="37" y="46" width="3" height="3" fill="#4aff6c" />
<rect x="79" y="46" width="3" height="3" fill="#4aff6c" />
<rect x="85" y="46" width="3" height="3" fill="#4aff6c" />
<rect x="7" y="49" width="3" height="3" fill="#4aff6c" />
<rect x="85" y="49" width="3" height="3" fill="#4aff6c" />
<rect x="4" y="52" width="3" height="3" fill="#4aff6c" />
<rect x="7" y="52" width="3" height="3" fill="#4aff6c" />
<rect x="85" y="52" width="3" height="3" fill="#4aff6c" />
<rect x="88" y="52" width="3" height="3" fill="#4aff6c" />
</svg>