<?xml version="1.0" encoding="utf-8"?>
<svg xmlns="http://www.w3.org/2000/svg" width="83" height="47" viewBox="0 0 83 47">
<rect width="100%" height="100%" fill="transparent" />
<rect x="22" y="4" width="3" height="3" fill="#4aff6c" />
<rect x="16" y="7" width="3" height="3" fill="#4aff6c" />
<rect x="22" y="7" width="3" height="3" fill="#4aff6c" />
<rect x="46" y="7" width="3" height="3" fill="#4aff6c" />
<rect x="49" y="7" width="3" height="3" fill="#4aff6c" />
<rect x="67" y="7" width="3" height="3" fill="#4aff6c" />
<rect x="70" y="7" width="3" height="3" fill="#4aff6c" />
<rect x="19" y="10" width="3" height="3" fill="#4aff6c" />
<rect x="22" y="10" width="3" height="3" fill="#4aff6c" />
<rect x="43" y="10" width="3" height="3" fill="#4aff6c" />
<rect x="52" y="10" width="3" height="3" fill="#4aff6c" />
<rect x="64" y="10" width="3" height="3" fill="#4aff6c" />
<rect x="73" y="10" width="3" height="3" fill="#4aff6c" />
<rect x="25" y="16" width="3" height="3" fill="#4aff6c" />
<rect x="28" y="16" width="3" height="3" fill="#4aff6c" />
<rect x="52" y="16" width="3" height="3" fill="#4aff6c" />
<rect x="64" y="16" width="3" height="3" fill="#4aff6c" />
<rect x="22" y="19" width="3" height="3" fill="#4aff6c" />
<rect x="31" y="19" width="3" height="3" fill="#4aff6c" />
<rect x="46" y="19" width="3" height="3" fill="#4aff6c" />
<rect x="70" y="19" width="3" height="3" fill="#4aff6c" />
<rect x="22" y="22" width="3" height="3" fill="#4aff6c" />
<rect x="28" y="22" width="3" height="3" fill="#4aff6c" />
<rect x="46" y="22" width="3" height="3" fill="#4aff6c" />
<rect x="49" y="22" width="3" height="3" fill="#4aff6c" />
<rect x="67" y="22" width="3" height="3" fill="#4aff6c" />
<rect x="70" y="22" width="3" height="3" fill="#4aff6c" />
<rect x="25" y="25" width="3" height="3" fill="#4aff6c" />
<rect x="55" y="25" width="3" height="3" fill="#4aff6c" />
<rect x="61" y="25" width="3" height="3" fill="#4aff6c" />
<rect x="43" y="28" width="3" height="3" fill="#4aff6c" />
<rect x="52" y="28" width="3" height="3" fill="#4aff6c" />
<rect x="55" y="28" width="3" height="3" fill="#4aff6c" />
<rect x="61" y="28" width="3" height="3" fill="#4aff6c" />
<rect x="64" y="28" width="3" height="3" fill="#4aff6c" />
<rect x="73" y="28" width="3" height="3" fill="#4aff6c" />
<rect x="10" y="31" width="3" height="3" fill="#4aff6c" />
<rect x="13" y="31" width="3" height="3" fill="#4aff6c" />
<rect x="40" y="31" width="3" height="3" fill="#4aff6c" />
<rect x="46" y="31" width="3" height="3" fill="#4aff6c" />
<rect x="55" y="31" width="3" height="3" fill="#4aff6c" />
<rect x="61" y="31" width="3" height="3" fill="#4aff6c" />
<rect x="70" y="31" width="3" height="3" fill="#4aff6c" />
<rect x="76" y="31" width="3" height="3" fill="#4aff6c" />
<rect x="13" y="34" width="3" height="3" fill="#4aff6c" />
<rect x="40" y="34" width="3" height="3" fill="#4aff6c" />
<rect x="49" y="34" width="3" height="3" fill="#4aff6c" />
<rect x="55" y="34" width="3" height="3" fill="#4aff6c" />
<rect x="61" y="34" width="3" height="3" fill="#4aff6c" />
<rect x="67" y="34" width="3" height="3" fill="#4aff6c" />
<rect x="76" y="34" width="3" height="3" fill="#4aff6c" />
<rect x="4" y="37" width="3" height="3" fill="#4aff6c" />
<rect x="7" y="37" width="3" height="3" fill="#4aff6c" />
<rect x="10" y="37" width="3" height="3" fill="#4aff6c" />
<rect x="52" y="37" width="3" height="3" fill="#4aff6c" />
<rect x="64" y="37" width="3" height="3" fill="#4aff6c" />
<rect x="4" y="40" width="3" height="3" fill="#4aff6c" />
</svg>