<?xml version="1.0" encoding="utf-8"?>
<svg xmlns="http://www.w3.org/2000/svg" width="38" height="53" viewBox="0 0 38 53">
<rect width="100%" height="100%" fill="transparent" />
<rect x="10" y="4" width="1" height="1" fill="#4aff6c" />
<rect x="24" y="4" width="1" height="1" fill="#4aff6c" />
<rect x="9" y="5" width="1" height="1" fill="#4aff6c" />
<rect x="10" y="5" width="1" height="1" fill="#4aff6c" />
<rect x="11" y="5" width="1" height="1" fill="#4aff6c" />
<rect x="23" y="5" width="1" height="1" fill="#4aff6c" />
<rect x="24" y="5" width="1" height="1" fill="#4aff6c" />
<rect x="25" y="5" width="1" height="1" fill="#4aff6c" />
<rect x="7" y="6" width="1" height="1" fill="#4aff6c" />
<rect x="8" y="6" width="1" height="1" fill="#4aff6c" />
<rect x="10" y="6" width="1" height="1" fill="#4aff6c" />
<rect x="11" y="6" width="1" height="1" fill="#4aff6c" />
<rect x="12" y="6" width="1" height="1" fill="#4aff6c" />
<rect x="22" y="6" width="1" height="1" fill="#4aff6c" />
<rect x="23" y="6" width="1" height="1" fill="#4aff6c" />
<rect x="24" y="6" width="1" height="1" fill="#4aff6c" />
<rect x="26" y="6" width="1" height="1" fill="#4aff6c" />
<rect x="27" y="6" width="1" height="1" fill="#4aff6c" />
<rect x="8" y="7" width="1" height="1" fill="#4aff6c" />
<rect x="11" y="7" width="1" height="1" fill="#4aff6c" />
<rect x="13" y="7" width="1" height="1" fill="#4aff6c" />
<rect x="14" y="7" width="1" height="1" fill="#4aff6c" />
<rect x="20" y="7" width="1" height="1" fill="#4aff6c" />
<rect x="21" y="7" width="1" height="1" fill="#4aff6c" />
<rect x="23" y="7" width="1" height="1" fill="#4aff6c" />
<rect x="26" y="7" width="1" height="1" fill="#4aff6c" />
<rect x="5" y="8" width="1" height="1" fill="#4aff6c" />
<rect x="6" y="8" width="1" height="1" fill="#4aff6c" />
<rect x="8" y="8" width="1" height="1" fill="#4aff6c" />
<rect x="13" y="8" width="1" height="1" fill="#4aff6c" />
<rect x="15" y="8" width="1" height="1" fill="#4aff6c" />
<rect x="19" y="8" width="1" height="1" fill="#4aff6c" />
<rect x="21" y="8" width="1" height="1" fill="#4aff6c" />
<rect x="26" y="8" width="1" height="1" fill="#4aff6c" />
<rect x="28" y="8" width="1" height="1" fill="#4aff6c" />
<rect x="29" y="8" width="1" height="1" fill="#4aff6c" />
<rect x="5" y="9" width="1" height="1" fill="#4aff6c" />
<rect x="6" y="9" width="1" height="1" fill="#4aff6c" />
<rect x="8" y="9" width="1" height="1" fill="#4aff6c" />
<rect x="10" y="9" width="1" height="1" fill="#4aff6c" />
<rect x="13" y="9" width="1" height="1" fill="#4aff6c" />
<rect x="15" y="9" width="1" height="1" fill="#4aff6c" />
<rect x="16" y="9" width="1" height="1" fill="#4aff6c" />
<rect x="18" y="9" width="1" height="1" fill="#4aff6c" />
<rect x="19" y="9" width="1" height="1" fill="#4aff6c" />
<rect x="21" y="9" width="1" height="1" fill="#4aff6c" />
<rect x="24" y="9" width="1" height="1" fill="#4aff6c" />
<rect x="26" y="9" width="1" height="1" fill="#4aff6c" />
<rect x="28" y="9" width="1" height="1" fill="#4aff6c" />
<rect x="29" y="9" width="1" height="1" fill="#4aff6c" />
<rect x="5" y="10" width="1" height="1" fill="#4aff6c" />
<rect x="14" y="10" width="1" height="1" fill="#4aff6c" />
<rect x="16" y="10" width="1" height="1" fill="#4aff6c" />
<rect x="18" y="10" width="1" height="1" fill="#4aff6c" />
<rect x="20" y="10" width="1" height="1" fill="#4aff6c" />
<rect x="29" y="10" width="1" height="1" fill="#4aff6c" />
<rect x="4" y="11" width="1" height="1" fill="#4aff6c" />
<rect x="5" y="11" width="1" height="1" fill="#4aff6c" />
<rect x="13" y="11" width="1" height="1" fill="#4aff6c" />
<rect x="14" y="11" width="1" height="1" fill="#4aff6c" />
<rect x="16" y="11" width="1" height="1" fill="#4aff6c" />
<rect x="18" y="11" width="1" height="1" fill="#4aff6c" />
<rect x="20" y="11" width="1" height="1" fill="#4aff6c" />
<rect x="21" y="11" width="1" height="1" fill="#4aff6c" />
<rect x="29" y="11" width="1" height="1" fill="#4aff6c" />
<rect x="30" y="11" width="1" height="1" fill="#4aff6c" />
<rect x="16" y="12" width="1" height="1" fill="#4aff6c" />
<rect x="18" y="12" width="1" height="1" fill="#4aff6c" />
<rect x="11" y="13" width="1" height="1" fill="#4aff6c" />
<rect x="12" y="13" width="1" height="1" fill="#4aff6c" />
<rect x="13" y="13" width="1" height="1" fill="#4aff6c" />
<rect x="15" y="13" width="1" height="1" fill="#4aff6c" />
<rect x="19" y="13" width="1" height="1" fill="#4aff6c" />
<rect x="21" y="13" width="1" height="1" fill="#4aff6c" />
<rect x="22" y="13" width="1" height="1" fill="#4aff6c" />
<rect x="23" y="13" width="1" height="1" fill="#4aff6c" />
<rect x="10" y="14" width="1" height="1" fill="#4aff6c" />
<rect x="11" y="14" width="1" height="1" fill="#4aff6c" />
<rect x="23" y="14" width="1" height="1" fill="#4aff6c" />
<rect x="24" y="14" width="1" height="1" fill="#4aff6c" />
<rect x="10" y="15" width="1" height="1" fill="#4aff6c" />
<rect x="16" y="15" width="1" height="1" fill="#4aff6c" />
<rect x="21" y="15" width="1" height="1" fill="#4aff6c" />
<rect x="22" y="15" width="1" height="1" fill="#4aff6c" />
<rect x="25" y="15" width="1" height="1" fill="#4aff6c" />
<rect x="9" y="16" width="1" height="1" fill="#4aff6c" />
<rect x="10" y="16" width="1" height="1" fill="#4aff6c" />
<rect x="15" y="16" width="1" height="1" fill="#4aff6c" />
<rect x="16" y="16" width="1" height="1" fill="#4aff6c" />
<rect x="17" y="16" width="1" height="1" fill="#4aff6c" />
<rect x="21" y="16" width="1" height="1" fill="#4aff6c" />
<rect x="22" y="16" width="1" height="1" fill="#4aff6c" />
<rect x="25" y="16" width="1" height="1" fill="#4aff6c" />
<rect x="15" y="17" width="1" height="1" fill="#4aff6c" />
<rect x="17" y="17" width="1" height="1" fill="#4aff6c" />
<rect x="18" y="17" width="1" height="1" fill="#4aff6c" />
<rect x="22" y="17" width="1" height="1" fill="#4aff6c" />
<rect x="23" y="17" width="1" height="1" fill="#4aff6c" />
<rect x="24" y="17" width="1" height="1" fill="#4aff6c" />
<rect x="16" y="18" width="1" height="1" fill="#4aff6c" />
<rect x="17" y="18" width="1" height="1" fill="#4aff6c" />
<rect x="18" y="18" width="1" height="1" fill="#4aff6c" />
<rect x="23" y="18" width="1" height="1" fill="#4aff6c" />
<rect x="16" y="19" width="1" height="1" fill="#4aff6c" />
<rect x="17" y="19" width="1" height="1" fill="#4aff6c" />
<rect x="18" y="19" width="1" height="1" fill="#4aff6c" />
<rect x="16" y="20" width="1" height="1" fill="#4aff6c" />
<rect x="17" y="20" width="1" height="1" fill="#4aff6c" />
<rect x="18" y="20" width="1" height="1" fill="#4aff6c" />
<rect x="16" y="21" width="1" height="1" fill="#4aff6c" />
<rect x="17" y="21" width="1" height="1" fill="#4aff6c" />
<rect x="23" y="23" width="1" height="1" fill="#4aff6c" />
<rect x="25" y="23" width="1" height="1" fill="#4aff6c" />
<rect x="24" y="24" width="1" height="1" fill="#4aff6c" />
<rect x="25" y="24" width="1" height="1" fill="#4aff6c" />
<rect x="19" y="25" width="1" height="1" fill="#4aff6c" />
<rect x="20" y="25" width="1" height="1" fill="#4aff6c" />
<rect x="24" y="25" width="1" height="1" fill="#4aff6c" />
<rect x="12" y="26" width="1" height="1" fill="#4aff6c" />
<rect x="13" y="26" width="1" height="1" fill="#4aff6c" />
<rect x="20" y="26" width="1" height="1" fill="#4aff6c" />
<rect x="21" y="26" width="1" height="1" fill="#4aff6c" />
<rect x="11" y="27" width="1" height="1" fill="#4aff6c" />
<rect x="12" y="27" width="1" height="1" fill="#4aff6c" />
<rect x="19" y="27" width="1" height="1" fill="#4aff6c" />
<rect x="13" y="28" width="1" height="1" fill="#4aff6c" />
<rect x="21" y="31" width="1" height="1" fill="#4aff6c" />
<rect x="22" y="31" width="1" height="1" fill="#4aff6c" />
<rect x="14" y="32" width="1" height="1" fill="#4aff6c" />
<rect x="21" y="32" width="1" height="1" fill="#4aff6c" />
<rect x="22" y="32" width="1" height="1" fill="#4aff6c" />
<rect x="23" y="32" width="1" height="1" fill="#4aff6c" />
<rect x="13" y="33" width="1" height="1" fill="#4aff6c" />
<rect x="14" y="33" width="1" height="1" fill="#4aff6c" />
<rect x="15" y="33" width="1" height="1" fill="#4aff6c" />
<rect x="17" y="33" width="1" height="1" fill="#4aff6c" />
<rect x="21" y="33" width="1" height="1" fill="#4aff6c" />
<rect x="22" y="33" width="1" height="1" fill="#4aff6c" />
<rect x="23" y="33" width="1" height="1" fill="#4aff6c" />
<rect x="12" y="34" width="1" height="1" fill="#4aff6c" />
<rect x="13" y="34" width="1" height="1" fill="#4aff6c" />
<rect x="15" y="34" width="1" height="1" fill="#4aff6c" />
<rect x="21" y="34" width="1" height="1" fill="#4aff6c" />
<rect x="22" y="34" width="1" height="1" fill="#4aff6c" />
<rect x="23" y="34" width="1" height="1" fill="#4aff6c" />
<rect x="12" y="35" width="1" height="1" fill="#4aff6c" />
<rect x="13" y="35" width="1" height="1" fill="#4aff6c" />
<rect x="20" y="35" width="1" height="1" fill="#4aff6c" />
<rect x="22" y="35" width="1" height="1" fill="#4aff6c" />
<rect x="23" y="35" width="1" height="1" fill="#4aff6c" />
<rect x="12" y="36" width="1" height="1" fill="#4aff6c" />
<rect x="13" y="36" width="1" height="1" fill="#4aff6c" />
<rect x="20" y="36" width="1" height="1" fill="#4aff6c" />
<rect x="21" y="36" width="1" height="1" fill="#4aff6c" />
<rect x="22" y="36" width="1" height="1" fill="#4aff6c" />
<rect x="27" y="36" width="1" height="1" fill="#4aff6c" />
<rect x="28" y="36" width="1" height="1" fill="#4aff6c" />
<rect x="12" y="37" width="1" height="1" fill="#4aff6c" />
<rect x="13" y="37" width="1" height="1" fill="#4aff6c" />
<rect x="15" y="37" width="1" height="1" fill="#4aff6c" />
<rect x="16" y="37" width="1" height="1" fill="#4aff6c" />
<rect x="21" y="37" width="1" height="1" fill="#4aff6c" />
<rect x="27" y="37" width="1" height="1" fill="#4aff6c" />
<rect x="13" y="38" width="1" height="1" fill="#4aff6c" />
<rect x="14" y="38" width="1" height="1" fill="#4aff6c" />
<rect x="26" y="38" width="1" height="1" fill="#4aff6c" />
<rect x="27" y="38" width="1" height="1" fill="#4aff6c" />
<rect x="14" y="39" width="1" height="1" fill="#4aff6c" />
<rect x="15" y="39" width="1" height="1" fill="#4aff6c" />
<rect x="16" y="39" width="1" height="1" fill="#4aff6c" />
<rect x="18" y="39" width="1" height="1" fill="#4aff6c" />
<rect x="22" y="39" width="1" height="1" fill="#4aff6c" />
<rect x="24" y="39" width="1" height="1" fill="#4aff6c" />
<rect x="25" y="39" width="1" height="1" fill="#4aff6c" />
<rect x="26" y="39" width="1" height="1" fill="#4aff6c" />
<rect x="19" y="40" width="1" height="1" fill="#4aff6c" />
<rect x="21" y="40" width="1" height="1" fill="#4aff6c" />
<rect x="7" y="41" width="1" height="1" fill="#4aff6c" />
<rect x="8" y="41" width="1" height="1" fill="#4aff6c" />
<rect x="16" y="41" width="1" height="1" fill="#4aff6c" />
<rect x="17" y="41" width="1" height="1" fill="#4aff6c" />
<rect x="19" y="41" width="1" height="1" fill="#4aff6c" />
<rect x="21" y="41" width="1" height="1" fill="#4aff6c" />
<rect x="23" y="41" width="1" height="1" fill="#4aff6c" />
<rect x="24" y="41" width="1" height="1" fill="#4aff6c" />
<rect x="32" y="41" width="1" height="1" fill="#4aff6c" />
<rect x="33" y="41" width="1" height="1" fill="#4aff6c" />
<rect x="8" y="42" width="1" height="1" fill="#4aff6c" />
<rect x="17" y="42" width="1" height="1" fill="#4aff6c" />
<rect x="19" y="42" width="1" height="1" fill="#4aff6c" />
<rect x="21" y="42" width="1" height="1" fill="#4aff6c" />
<rect x="23" y="42" width="1" height="1" fill="#4aff6c" />
<rect x="32" y="42" width="1" height="1" fill="#4aff6c" />
<rect x="8" y="43" width="1" height="1" fill="#4aff6c" />
<rect x="9" y="43" width="1" height="1" fill="#4aff6c" />
<rect x="11" y="43" width="1" height="1" fill="#4aff6c" />
<rect x="13" y="43" width="1" height="1" fill="#4aff6c" />
<rect x="16" y="43" width="1" height="1" fill="#4aff6c" />
<rect x="18" y="43" width="1" height="1" fill="#4aff6c" />
<rect x="19" y="43" width="1" height="1" fill="#4aff6c" />
<rect x="21" y="43" width="1" height="1" fill="#4aff6c" />
<rect x="22" y="43" width="1" height="1" fill="#4aff6c" />
<rect x="24" y="43" width="1" height="1" fill="#4aff6c" />
<rect x="27" y="43" width="1" height="1" fill="#4aff6c" />
<rect x="29" y="43" width="1" height="1" fill="#4aff6c" />
<rect x="31" y="43" width="1" height="1" fill="#4aff6c" />
<rect x="32" y="43" width="1" height="1" fill="#4aff6c" />
<rect x="8" y="44" width="1" height="1" fill="#4aff6c" />
<rect x="9" y="44" width="1" height="1" fill="#4aff6c" />
<rect x="11" y="44" width="1" height="1" fill="#4aff6c" />
<rect x="16" y="44" width="1" height="1" fill="#4aff6c" />
<rect x="18" y="44" width="1" height="1" fill="#4aff6c" />
<rect x="22" y="44" width="1" height="1" fill="#4aff6c" />
<rect x="24" y="44" width="1" height="1" fill="#4aff6c" />
<rect x="29" y="44" width="1" height="1" fill="#4aff6c" />
<rect x="31" y="44" width="1" height="1" fill="#4aff6c" />
<rect x="32" y="44" width="1" height="1" fill="#4aff6c" />
<rect x="11" y="45" width="1" height="1" fill="#4aff6c" />
<rect x="14" y="45" width="1" height="1" fill="#4aff6c" />
<rect x="16" y="45" width="1" height="1" fill="#4aff6c" />
<rect x="17" y="45" width="1" height="1" fill="#4aff6c" />
<rect x="23" y="45" width="1" height="1" fill="#4aff6c" />
<rect x="24" y="45" width="1" height="1" fill="#4aff6c" />
<rect x="26" y="45" width="1" height="1" fill="#4aff6c" />
<rect x="29" y="45" width="1" height="1" fill="#4aff6c" />
<rect x="10" y="46" width="1" height="1" fill="#4aff6c" />
<rect x="11" y="46" width="1" height="1" fill="#4aff6c" />
<rect x="13" y="46" width="1" height="1" fill="#4aff6c" />
<rect x="14" y="46" width="1" height="1" fill="#4aff6c" />
<rect x="15" y="46" width="1" height="1" fill="#4aff6c" />
<rect x="25" y="46" width="1" height="1" fill="#4aff6c" />
<rect x="26" y="46" width="1" height="1" fill="#4aff6c" />
<rect x="27" y="46" width="1" height="1" fill="#4aff6c" />
<rect x="29" y="46" width="1" height="1" fill="#4aff6c" />
<rect x="30" y="46" width="1" height="1" fill="#4aff6c" />
<rect x="12" y="47" width="1" height="1" fill="#4aff6c" />
<rect x="13" y="47" width="1" height="1" fill="#4aff6c" />
<rect x="14" y="47" width="1" height="1" fill="#4aff6c" />
<rect x="26" y="47" width="1" height="1" fill="#4aff6c" />
<rect x="27" y="47" width="1" height="1" fill="#4aff6c" />
<rect x="28" y="47" width="1" height="1" fill="#4aff6c" />
<rect x="13" y="48" width="1" height="1" fill="#4aff6c" />
<rect x="27" y="48" width="1" height="1" fill="#4aff6c" />
</svg>