<?xml version="1.0" encoding="utf-8"?>
<svg xmlns="http://www.w3.org/2000/svg" width="86" height="80" viewBox="0 0 86 80">
<rect width="100%" height="100%" fill="transparent" />
<rect x="70" y="4" width="6" height="6" fill="#4aff6c" />
<rect x="76" y="4" width="6" height="6" fill="#4aff6c" />
<rect x="70" y="10" width="6" height="6" fill="#4aff6c" />
<rect x="58" y="16" width="6" height="6" fill="#4aff6c" />
<rect x="70" y="16" width="6" height="6" fill="#4aff6c" />
<rect x="58" y="22" width="6" height="6" fill="#4aff6c" />
<rect x="64" y="22" width="6" height="6" fill="#4aff6c" />
<rect x="34" y="28" width="6" height="6" fill="#4aff6c" />
<rect x="40" y="28" width="6" height="6" fill="#4aff6c" />
<rect x="40" y="34" width="6" height="6" fill="#4aff6c" />
<rect x="40" y="40" width="6" height="6" fill="#4aff6c" />
<rect x="40" y="46" width="6" height="6" fill="#4aff6c" />
<rect x="46" y="46" width="6" height="6" fill="#4aff6c" />
<rect x="16" y="52" width="6" height="6" fill="#4aff6c" />
<rect x="22" y="52" width="6" height="6" fill="#4aff6c" />
<rect x="10" y="58" width="6" height="6" fill="#4aff6c" />
<rect x="22" y="58" width="6" height="6" fill="#4aff6c" />
<rect x="10" y="64" width="6" height="6" fill="#4aff6c" />
<rect x="4" y="70" width="6" height="6" fill="#4aff6c" />
<rect x="10" y="70" width="6" height="6" fill="#4aff6c" />
</svg>