<?xml version="1.0" encoding="utf-8"?>
<svg xmlns="http://www.w3.org/2000/svg" width="80" height="80" viewBox="0 0 80 80">
<rect width="100%" height="100%" fill="transparent" />
<rect x="24" y="4" width="2" height="2" fill="#4aff6c" />
<rect x="22" y="6" width="2" height="2" fill="#4aff6c" />
<rect x="26" y="6" width="2" height="2" fill="#4aff6c" />
<rect x="28" y="6" width="2" height="2" fill="#4aff6c" />
<rect x="8" y="8" width="2" height="2" fill="#4aff6c" />
<rect x="10" y="8" width="2" height="2" fill="#4aff6c" />
<rect x="30" y="8" width="2" height="2" fill="#4aff6c" />
<rect x="8" y="10" width="2" height="2" fill="#4aff6c" />
<rect x="22" y="10" width="2" height="2" fill="#4aff6c" />
<rect x="28" y="10" width="2" height="2" fill="#4aff6c" />
<rect x="32" y="10" width="2" height="2" fill="#4aff6c" />
<rect x="18" y="12" width="2" height="2" fill="#4aff6c" />
<rect x="26" y="12" width="2" height="2" fill="#4aff6c" />
<rect x="32" y="12" width="2" height="2" fill="#4aff6c" />
<rect x="4" y="14" width="2" height="2" fill="#4aff6c" />
<rect x="6" y="14" width="2" height="2" fill="#4aff6c" />
<rect x="8" y="14" width="2" height="2" fill="#4aff6c" />
<rect x="10" y="14" width="2" height="2" fill="#4aff6c" />
<rect x="12" y="14" width="2" height="2" fill="#4aff6c" />
<rect x="14" y="14" width="2" height="2" fill="#4aff6c" />
<rect x="18" y="14" width="2" height="2" fill="#4aff6c" />
<rect x="28" y="14" width="2" height="2" fill="#4aff6c" />
<rect x="30" y="14" width="2" height="2" fill="#4aff6c" />
<rect x="4" y="16" width="2" height="2" fill="#4aff6c" />
<rect x="6" y="18" width="2" height="2" fill="#4aff6c" />
<rect x="8" y="18" width="2" height="2" fill="#4aff6c" />
<rect x="12" y="18" width="2" height="2" fill="#4aff6c" />
<rect x="14" y="18" width="2" height="2" fill="#4aff6c" />
<rect x="22" y="18" width="2" height="2" fill="#4aff6c" />
<rect x="24" y="18" width="2" height="2" fill="#4aff6c" />
<rect x="8" y="20" width="2" height="2" fill="#4aff6c" />
<rect x="12" y="20" width="2" height="2" fill="#4aff6c" />
<rect x="22" y="20" width="2" height="2" fill="#4aff6c" />
<rect x="26" y="20" width="2" height="2" fill="#4aff6c" />
<rect x="8" y="22" width="2" height="2" fill="#4aff6c" />
<rect x="12" y="22" width="2" height="2" fill="#4aff6c" />
<rect x="26" y="22" width="2" height="2" fill="#4aff6c" />
<rect x="10" y="24" width="2" height="2" fill="#4aff6c" />
<rect x="26" y="24" width="2" height="2" fill="#4aff6c" />
<rect x="28" y="24" width="2" height="2" fill="#4aff6c" />
<rect x="20" y="26" width="2" height="2" fill="#4aff6c" />
<rect x="18" y="28" width="2" height="2" fill="#4aff6c" />
<rect x="20" y="28" width="2" height="2" fill="#4aff6c" />
<rect x="22" y="28" width="2" height="2" fill="#4aff6c" />
<rect x="26" y="28" width="2" height="2" fill="#4aff6c" />
<rect x="28" y="28" width="2" height="2" fill="#4aff6c" />
<rect x="16" y="30" width="2" height="2" fill="#4aff6c" />
<rect x="18" y="30" width="2" height="2" fill="#4aff6c" />
<rect x="26" y="30" width="2" height="2" fill="#4aff6c" />
<rect x="30" y="30" width="2" height="2" fill="#4aff6c" />
<rect x="32" y="30" width="2" height="2" fill="#4aff6c" />
<rect x="14" y="32" width="2" height="2" fill="#4aff6c" />
<rect x="16" y="32" width="2" height="2" fill="#4aff6c" />
<rect x="22" y="32" width="2" height="2" fill="#4aff6c" />
<rect x="34" y="32" width="2" height="2" fill="#4aff6c" />
<rect x="16" y="34" width="2" height="2" fill="#4aff6c" />
<rect x="28" y="34" width="2" height="2" fill="#4aff6c" />
<rect x="36" y="34" width="2" height="2" fill="#4aff6c" />
<rect x="40" y="34" width="2" height="2" fill="#4aff6c" />
<rect x="42" y="34" width="2" height="2" fill="#4aff6c" />
<rect x="44" y="34" width="2" height="2" fill="#4aff6c" />
<rect x="14" y="36" width="2" height="2" fill="#4aff6c" />
<rect x="16" y="36" width="2" height="2" fill="#4aff6c" />
<rect x="28" y="36" width="2" height="2" fill="#4aff6c" />
<rect x="36" y="36" width="2" height="2" fill="#4aff6c" />
<rect x="40" y="36" width="2" height="2" fill="#4aff6c" />
<rect x="46" y="36" width="2" height="2" fill="#4aff6c" />
<rect x="10" y="38" width="2" height="2" fill="#4aff6c" />
<rect x="12" y="38" width="2" height="2" fill="#4aff6c" />
<rect x="16" y="38" width="2" height="2" fill="#4aff6c" />
<rect x="20" y="38" width="2" height="2" fill="#4aff6c" />
<rect x="22" y="38" width="2" height="2" fill="#4aff6c" />
<rect x="32" y="38" width="2" height="2" fill="#4aff6c" />
<rect x="36" y="38" width="2" height="2" fill="#4aff6c" />
<rect x="40" y="38" width="2" height="2" fill="#4aff6c" />
<rect x="48" y="38" width="2" height="2" fill="#4aff6c" />
<rect x="12" y="40" width="2" height="2" fill="#4aff6c" />
<rect x="16" y="40" width="2" height="2" fill="#4aff6c" />
<rect x="22" y="40" width="2" height="2" fill="#4aff6c" />
<rect x="24" y="40" width="2" height="2" fill="#4aff6c" />
<rect x="48" y="40" width="2" height="2" fill="#4aff6c" />
<rect x="6" y="42" width="2" height="2" fill="#4aff6c" />
<rect x="8" y="42" width="2" height="2" fill="#4aff6c" />
<rect x="12" y="42" width="2" height="2" fill="#4aff6c" />
<rect x="18" y="42" width="2" height="2" fill="#4aff6c" />
<rect x="24" y="42" width="2" height="2" fill="#4aff6c" />
<rect x="44" y="42" width="2" height="2" fill="#4aff6c" />
<rect x="6" y="44" width="2" height="2" fill="#4aff6c" />
<rect x="8" y="44" width="2" height="2" fill="#4aff6c" />
<rect x="12" y="44" width="2" height="2" fill="#4aff6c" />
<rect x="24" y="44" width="2" height="2" fill="#4aff6c" />
<rect x="26" y="44" width="2" height="2" fill="#4aff6c" />
<rect x="46" y="44" width="2" height="2" fill="#4aff6c" />
<rect x="50" y="44" width="2" height="2" fill="#4aff6c" />
<rect x="52" y="44" width="2" height="2" fill="#4aff6c" />
<rect x="54" y="44" width="2" height="2" fill="#4aff6c" />
<rect x="6" y="46" width="2" height="2" fill="#4aff6c" />
<rect x="10" y="46" width="2" height="2" fill="#4aff6c" />
<rect x="38" y="46" width="2" height="2" fill="#4aff6c" />
<rect x="40" y="46" width="2" height="2" fill="#4aff6c" />
<rect x="42" y="46" width="2" height="2" fill="#4aff6c" />
<rect x="46" y="46" width="2" height="2" fill="#4aff6c" />
<rect x="50" y="46" width="2" height="2" fill="#4aff6c" />
<rect x="54" y="46" width="2" height="2" fill="#4aff6c" />
<rect x="56" y="46" width="2" height="2" fill="#4aff6c" />
<rect x="4" y="48" width="2" height="2" fill="#4aff6c" />
<rect x="6" y="48" width="2" height="2" fill="#4aff6c" />
<rect x="10" y="48" width="2" height="2" fill="#4aff6c" />
<rect x="12" y="48" width="2" height="2" fill="#4aff6c" />
<rect x="36" y="48" width="2" height="2" fill="#4aff6c" />
<rect x="38" y="48" width="2" height="2" fill="#4aff6c" />
<rect x="42" y="48" width="2" height="2" fill="#4aff6c" />
<rect x="48" y="48" width="2" height="2" fill="#4aff6c" />
<rect x="52" y="48" width="2" height="2" fill="#4aff6c" />
<rect x="56" y="48" width="2" height="2" fill="#4aff6c" />
<rect x="32" y="50" width="2" height="2" fill="#4aff6c" />
<rect x="34" y="50" width="2" height="2" fill="#4aff6c" />
<rect x="38" y="50" width="2" height="2" fill="#4aff6c" />
<rect x="46" y="50" width="2" height="2" fill="#4aff6c" />
<rect x="48" y="50" width="2" height="2" fill="#4aff6c" />
<rect x="50" y="50" width="2" height="2" fill="#4aff6c" />
<rect x="56" y="50" width="2" height="2" fill="#4aff6c" />
<rect x="58" y="50" width="2" height="2" fill="#4aff6c" />
<rect x="70" y="50" width="2" height="2" fill="#4aff6c" />
<rect x="72" y="50" width="2" height="2" fill="#4aff6c" />
<rect x="30" y="52" width="2" height="2" fill="#4aff6c" />
<rect x="38" y="52" width="2" height="2" fill="#4aff6c" />
<rect x="52" y="52" width="2" height="2" fill="#4aff6c" />
<rect x="70" y="52" width="2" height="2" fill="#4aff6c" />
<rect x="74" y="52" width="2" height="2" fill="#4aff6c" />
<rect x="28" y="54" width="2" height="2" fill="#4aff6c" />
<rect x="40" y="54" width="2" height="2" fill="#4aff6c" />
<rect x="46" y="54" width="2" height="2" fill="#4aff6c" />
<rect x="48" y="54" width="2" height="2" fill="#4aff6c" />
<rect x="52" y="54" width="2" height="2" fill="#4aff6c" />
<rect x="56" y="54" width="2" height="2" fill="#4aff6c" />
<rect x="58" y="54" width="2" height="2" fill="#4aff6c" />
<rect x="70" y="54" width="2" height="2" fill="#4aff6c" />
<rect x="26" y="56" width="2" height="2" fill="#4aff6c" />
<rect x="32" y="56" width="2" height="2" fill="#4aff6c" />
<rect x="36" y="56" width="2" height="2" fill="#4aff6c" />
<rect x="50" y="56" width="2" height="2" fill="#4aff6c" />
<rect x="54" y="56" width="2" height="2" fill="#4aff6c" />
<rect x="26" y="58" width="2" height="2" fill="#4aff6c" />
<rect x="38" y="58" width="2" height="2" fill="#4aff6c" />
<rect x="40" y="58" width="2" height="2" fill="#4aff6c" />
<rect x="50" y="58" width="2" height="2" fill="#4aff6c" />
<rect x="52" y="58" width="2" height="2" fill="#4aff6c" />
<rect x="54" y="58" width="2" height="2" fill="#4aff6c" />
<rect x="30" y="60" width="2" height="2" fill="#4aff6c" />
<rect x="52" y="60" width="2" height="2" fill="#4aff6c" />
<rect x="24" y="62" width="2" height="2" fill="#4aff6c" />
<rect x="28" y="62" width="2" height="2" fill="#4aff6c" />
<rect x="52" y="62" width="2" height="2" fill="#4aff6c" />
<rect x="22" y="64" width="2" height="2" fill="#4aff6c" />
<rect x="24" y="64" width="2" height="2" fill="#4aff6c" />
<rect x="28" y="64" width="2" height="2" fill="#4aff6c" />
<rect x="32" y="64" width="2" height="2" fill="#4aff6c" />
<rect x="34" y="64" width="2" height="2" fill="#4aff6c" />
<rect x="36" y="64" width="2" height="2" fill="#4aff6c" />
<rect x="20" y="66" width="2" height="2" fill="#4aff6c" />
<rect x="24" y="66" width="2" height="2" fill="#4aff6c" />
<rect x="28" y="66" width="2" height="2" fill="#4aff6c" />
<rect x="36" y="66" width="2" height="2" fill="#4aff6c" />
<rect x="18" y="68" width="2" height="2" fill="#4aff6c" />
<rect x="20" y="68" width="2" height="2" fill="#4aff6c" />
<rect x="24" y="68" width="2" height="2" fill="#4aff6c" />
<rect x="16" y="70" width="2" height="2" fill="#4aff6c" />
<rect x="24" y="70" width="2" height="2" fill="#4aff6c" />
<rect x="36" y="70" width="2" height="2" fill="#4aff6c" />
<rect x="38" y="70" width="2" height="2" fill="#4aff6c" />
<rect x="16" y="74" width="2" height="2" fill="#4aff6c" />
<rect x="18" y="74" width="2" height="2" fill="#4aff6c" />
<rect x="22" y="74" width="2" height="2" fill="#4aff6c" />
<rect x="24" y="74" width="2" height="2" fill="#4aff6c" />
</svg>