<?xml version="1.0" encoding="utf-8"?>
<svg xmlns="http://www.w3.org/2000/svg" width="67" height="67" viewBox="0 0 67 67">
<rect width="100%" height="100%" fill="transparent" />
<rect x="18" y="4" width="1" height="1" fill="#4aff6c" />
<rect x="19" y="4" width="1" height="1" fill="#4aff6c" />
<rect x="24" y="4" width="1" height="1" fill="#4aff6c" />
<rect x="25" y="4" width="1" height="1" fill="#4aff6c" />
<rect x="30" y="4" width="1" height="1" fill="#4aff6c" />
<rect x="31" y="4" width="1" height="1" fill="#4aff6c" />
<rect x="17" y="5" width="1" height="1" fill="#4aff6c" />
<rect x="20" y="5" width="1" height="1" fill="#4aff6c" />
<rect x="22" y="5" width="1" height="1" fill="#4aff6c" />
<rect x="27" y="5" width="1" height="1" fill="#4aff6c" />
<rect x="29" y="5" width="1" height="1" fill="#4aff6c" />
<rect x="32" y="5" width="1" height="1" fill="#4aff6c" />
<rect x="17" y="6" width="1" height="1" fill="#4aff6c" />
<rect x="18" y="6" width="1" height="1" fill="#4aff6c" />
<rect x="19" y="6" width="1" height="1" fill="#4aff6c" />
<rect x="30" y="6" width="1" height="1" fill="#4aff6c" />
<rect x="31" y="6" width="1" height="1" fill="#4aff6c" />
<rect x="32" y="6" width="1" height="1" fill="#4aff6c" />
<rect x="20" y="7" width="1" height="1" fill="#4aff6c" />
<rect x="21" y="7" width="1" height="1" fill="#4aff6c" />
<rect x="28" y="7" width="1" height="1" fill="#4aff6c" />
<rect x="29" y="7" width="1" height="1" fill="#4aff6c" />
<rect x="19" y="8" width="1" height="1" fill="#4aff6c" />
<rect x="22" y="8" width="1" height="1" fill="#4aff6c" />
<rect x="23" y="8" width="1" height="1" fill="#4aff6c" />
<rect x="24" y="8" width="1" height="1" fill="#4aff6c" />
<rect x="25" y="8" width="1" height="1" fill="#4aff6c" />
<rect x="26" y="8" width="1" height="1" fill="#4aff6c" />
<rect x="27" y="8" width="1" height="1" fill="#4aff6c" />
<rect x="30" y="8" width="1" height="1" fill="#4aff6c" />
<rect x="19" y="9" width="1" height="1" fill="#4aff6c" />
<rect x="20" y="9" width="1" height="1" fill="#4aff6c" />
<rect x="29" y="9" width="1" height="1" fill="#4aff6c" />
<rect x="30" y="9" width="1" height="1" fill="#4aff6c" />
<rect x="12" y="11" width="1" height="1" fill="#4aff6c" />
<rect x="42" y="11" width="1" height="1" fill="#4aff6c" />
<rect x="43" y="11" width="1" height="1" fill="#4aff6c" />
<rect x="54" y="11" width="1" height="1" fill="#4aff6c" />
<rect x="11" y="12" width="1" height="1" fill="#4aff6c" />
<rect x="15" y="12" width="1" height="1" fill="#4aff6c" />
<rect x="16" y="12" width="1" height="1" fill="#4aff6c" />
<rect x="17" y="12" width="1" height="1" fill="#4aff6c" />
<rect x="24" y="12" width="1" height="1" fill="#4aff6c" />
<rect x="34" y="12" width="1" height="1" fill="#4aff6c" />
<rect x="42" y="12" width="1" height="1" fill="#4aff6c" />
<rect x="43" y="12" width="1" height="1" fill="#4aff6c" />
<rect x="53" y="12" width="1" height="1" fill="#4aff6c" />
<rect x="55" y="12" width="1" height="1" fill="#4aff6c" />
<rect x="12" y="13" width="1" height="1" fill="#4aff6c" />
<rect x="14" y="13" width="1" height="1" fill="#4aff6c" />
<rect x="15" y="13" width="1" height="1" fill="#4aff6c" />
<rect x="16" y="13" width="1" height="1" fill="#4aff6c" />
<rect x="17" y="13" width="1" height="1" fill="#4aff6c" />
<rect x="18" y="13" width="1" height="1" fill="#4aff6c" />
<rect x="29" y="13" width="1" height="1" fill="#4aff6c" />
<rect x="30" y="13" width="1" height="1" fill="#4aff6c" />
<rect x="31" y="13" width="1" height="1" fill="#4aff6c" />
<rect x="35" y="13" width="1" height="1" fill="#4aff6c" />
<rect x="16" y="14" width="1" height="1" fill="#4aff6c" />
<rect x="20" y="14" width="1" height="1" fill="#4aff6c" />
<rect x="26" y="14" width="1" height="1" fill="#4aff6c" />
<rect x="28" y="14" width="1" height="1" fill="#4aff6c" />
<rect x="29" y="14" width="1" height="1" fill="#4aff6c" />
<rect x="30" y="14" width="1" height="1" fill="#4aff6c" />
<rect x="31" y="14" width="1" height="1" fill="#4aff6c" />
<rect x="32" y="14" width="1" height="1" fill="#4aff6c" />
<rect x="34" y="14" width="1" height="1" fill="#4aff6c" />
<rect x="53" y="14" width="1" height="1" fill="#4aff6c" />
<rect x="16" y="15" width="1" height="1" fill="#4aff6c" />
<rect x="17" y="15" width="1" height="1" fill="#4aff6c" />
<rect x="22" y="15" width="1" height="1" fill="#4aff6c" />
<rect x="23" y="15" width="1" height="1" fill="#4aff6c" />
<rect x="24" y="15" width="1" height="1" fill="#4aff6c" />
<rect x="30" y="15" width="1" height="1" fill="#4aff6c" />
<rect x="53" y="15" width="1" height="1" fill="#4aff6c" />
<rect x="54" y="15" width="1" height="1" fill="#4aff6c" />
<rect x="16" y="16" width="1" height="1" fill="#4aff6c" />
<rect x="17" y="16" width="1" height="1" fill="#4aff6c" />
<rect x="22" y="16" width="1" height="1" fill="#4aff6c" />
<rect x="23" y="16" width="1" height="1" fill="#4aff6c" />
<rect x="24" y="16" width="1" height="1" fill="#4aff6c" />
<rect x="29" y="16" width="1" height="1" fill="#4aff6c" />
<rect x="30" y="16" width="1" height="1" fill="#4aff6c" />
<rect x="50" y="16" width="1" height="1" fill="#4aff6c" />
<rect x="51" y="16" width="1" height="1" fill="#4aff6c" />
<rect x="52" y="16" width="1" height="1" fill="#4aff6c" />
<rect x="53" y="16" width="1" height="1" fill="#4aff6c" />
<rect x="54" y="16" width="1" height="1" fill="#4aff6c" />
<rect x="23" y="17" width="1" height="1" fill="#4aff6c" />
<rect x="29" y="17" width="1" height="1" fill="#4aff6c" />
<rect x="30" y="17" width="1" height="1" fill="#4aff6c" />
<rect x="50" y="17" width="1" height="1" fill="#4aff6c" />
<rect x="51" y="17" width="1" height="1" fill="#4aff6c" />
<rect x="53" y="17" width="1" height="1" fill="#4aff6c" />
<rect x="54" y="17" width="1" height="1" fill="#4aff6c" />
<rect x="60" y="17" width="1" height="1" fill="#4aff6c" />
<rect x="61" y="17" width="1" height="1" fill="#4aff6c" />
<rect x="53" y="18" width="1" height="1" fill="#4aff6c" />
<rect x="60" y="18" width="1" height="1" fill="#4aff6c" />
<rect x="62" y="18" width="1" height="1" fill="#4aff6c" />
<rect x="57" y="19" width="1" height="1" fill="#4aff6c" />
<rect x="58" y="19" width="1" height="1" fill="#4aff6c" />
<rect x="60" y="19" width="1" height="1" fill="#4aff6c" />
<rect x="62" y="19" width="1" height="1" fill="#4aff6c" />
<rect x="57" y="20" width="1" height="1" fill="#4aff6c" />
<rect x="59" y="20" width="1" height="1" fill="#4aff6c" />
<rect x="61" y="20" width="1" height="1" fill="#4aff6c" />
<rect x="59" y="21" width="1" height="1" fill="#4aff6c" />
<rect x="39" y="22" width="1" height="1" fill="#4aff6c" />
<rect x="40" y="22" width="1" height="1" fill="#4aff6c" />
<rect x="41" y="22" width="1" height="1" fill="#4aff6c" />
<rect x="51" y="22" width="1" height="1" fill="#4aff6c" />
<rect x="53" y="22" width="1" height="1" fill="#4aff6c" />
<rect x="57" y="22" width="1" height="1" fill="#4aff6c" />
<rect x="60" y="22" width="1" height="1" fill="#4aff6c" />
<rect x="11" y="23" width="1" height="1" fill="#4aff6c" />
<rect x="12" y="23" width="1" height="1" fill="#4aff6c" />
<rect x="39" y="23" width="1" height="1" fill="#4aff6c" />
<rect x="42" y="23" width="1" height="1" fill="#4aff6c" />
<rect x="51" y="23" width="1" height="1" fill="#4aff6c" />
<rect x="54" y="23" width="1" height="1" fill="#4aff6c" />
<rect x="60" y="23" width="1" height="1" fill="#4aff6c" />
<rect x="11" y="24" width="1" height="1" fill="#4aff6c" />
<rect x="12" y="24" width="1" height="1" fill="#4aff6c" />
<rect x="43" y="24" width="1" height="1" fill="#4aff6c" />
<rect x="51" y="24" width="1" height="1" fill="#4aff6c" />
<rect x="53" y="24" width="1" height="1" fill="#4aff6c" />
<rect x="56" y="24" width="1" height="1" fill="#4aff6c" />
<rect x="60" y="24" width="1" height="1" fill="#4aff6c" />
<rect x="39" y="25" width="1" height="1" fill="#4aff6c" />
<rect x="42" y="25" width="1" height="1" fill="#4aff6c" />
<rect x="56" y="25" width="1" height="1" fill="#4aff6c" />
<rect x="60" y="25" width="1" height="1" fill="#4aff6c" />
<rect x="39" y="26" width="1" height="1" fill="#4aff6c" />
<rect x="40" y="26" width="1" height="1" fill="#4aff6c" />
<rect x="41" y="26" width="1" height="1" fill="#4aff6c" />
<rect x="60" y="26" width="1" height="1" fill="#4aff6c" />
<rect x="57" y="27" width="1" height="1" fill="#4aff6c" />
<rect x="60" y="27" width="1" height="1" fill="#4aff6c" />
<rect x="52" y="28" width="1" height="1" fill="#4aff6c" />
<rect x="59" y="28" width="1" height="1" fill="#4aff6c" />
<rect x="49" y="29" width="1" height="1" fill="#4aff6c" />
<rect x="50" y="29" width="1" height="1" fill="#4aff6c" />
<rect x="52" y="29" width="1" height="1" fill="#4aff6c" />
<rect x="53" y="29" width="1" height="1" fill="#4aff6c" />
<rect x="57" y="29" width="1" height="1" fill="#4aff6c" />
<rect x="59" y="29" width="1" height="1" fill="#4aff6c" />
<rect x="61" y="29" width="1" height="1" fill="#4aff6c" />
<rect x="49" y="30" width="1" height="1" fill="#4aff6c" />
<rect x="50" y="30" width="1" height="1" fill="#4aff6c" />
<rect x="51" y="30" width="1" height="1" fill="#4aff6c" />
<rect x="52" y="30" width="1" height="1" fill="#4aff6c" />
<rect x="53" y="30" width="1" height="1" fill="#4aff6c" />
<rect x="57" y="30" width="1" height="1" fill="#4aff6c" />
<rect x="58" y="30" width="1" height="1" fill="#4aff6c" />
<rect x="60" y="30" width="1" height="1" fill="#4aff6c" />
<rect x="62" y="30" width="1" height="1" fill="#4aff6c" />
<rect x="13" y="31" width="1" height="1" fill="#4aff6c" />
<rect x="52" y="31" width="1" height="1" fill="#4aff6c" />
<rect x="53" y="31" width="1" height="1" fill="#4aff6c" />
<rect x="60" y="31" width="1" height="1" fill="#4aff6c" />
<rect x="62" y="31" width="1" height="1" fill="#4aff6c" />
<rect x="12" y="32" width="1" height="1" fill="#4aff6c" />
<rect x="14" y="32" width="1" height="1" fill="#4aff6c" />
<rect x="52" y="32" width="1" height="1" fill="#4aff6c" />
<rect x="60" y="32" width="1" height="1" fill="#4aff6c" />
<rect x="61" y="32" width="1" height="1" fill="#4aff6c" />
<rect x="5" y="34" width="1" height="1" fill="#4aff6c" />
<rect x="6" y="34" width="1" height="1" fill="#4aff6c" />
<rect x="14" y="34" width="1" height="1" fill="#4aff6c" />
<rect x="52" y="34" width="1" height="1" fill="#4aff6c" />
<rect x="54" y="34" width="1" height="1" fill="#4aff6c" />
<rect x="4" y="35" width="1" height="1" fill="#4aff6c" />
<rect x="6" y="35" width="1" height="1" fill="#4aff6c" />
<rect x="13" y="35" width="1" height="1" fill="#4aff6c" />
<rect x="14" y="35" width="1" height="1" fill="#4aff6c" />
<rect x="53" y="35" width="1" height="1" fill="#4aff6c" />
<rect x="4" y="36" width="1" height="1" fill="#4aff6c" />
<rect x="6" y="36" width="1" height="1" fill="#4aff6c" />
<rect x="8" y="36" width="1" height="1" fill="#4aff6c" />
<rect x="9" y="36" width="1" height="1" fill="#4aff6c" />
<rect x="13" y="36" width="1" height="1" fill="#4aff6c" />
<rect x="14" y="36" width="1" height="1" fill="#4aff6c" />
<rect x="15" y="36" width="1" height="1" fill="#4aff6c" />
<rect x="16" y="36" width="1" height="1" fill="#4aff6c" />
<rect x="17" y="36" width="1" height="1" fill="#4aff6c" />
<rect x="5" y="37" width="1" height="1" fill="#4aff6c" />
<rect x="7" y="37" width="1" height="1" fill="#4aff6c" />
<rect x="9" y="37" width="1" height="1" fill="#4aff6c" />
<rect x="13" y="37" width="1" height="1" fill="#4aff6c" />
<rect x="14" y="37" width="1" height="1" fill="#4aff6c" />
<rect x="16" y="37" width="1" height="1" fill="#4aff6c" />
<rect x="17" y="37" width="1" height="1" fill="#4aff6c" />
<rect x="7" y="38" width="1" height="1" fill="#4aff6c" />
<rect x="14" y="38" width="1" height="1" fill="#4aff6c" />
<rect x="6" y="39" width="1" height="1" fill="#4aff6c" />
<rect x="9" y="39" width="1" height="1" fill="#4aff6c" />
<rect x="6" y="40" width="1" height="1" fill="#4aff6c" />
<rect x="6" y="41" width="1" height="1" fill="#4aff6c" />
<rect x="10" y="41" width="1" height="1" fill="#4aff6c" />
<rect x="6" y="42" width="1" height="1" fill="#4aff6c" />
<rect x="10" y="42" width="1" height="1" fill="#4aff6c" />
<rect x="13" y="42" width="1" height="1" fill="#4aff6c" />
<rect x="15" y="42" width="1" height="1" fill="#4aff6c" />
<rect x="54" y="42" width="1" height="1" fill="#4aff6c" />
<rect x="55" y="42" width="1" height="1" fill="#4aff6c" />
<rect x="6" y="43" width="1" height="1" fill="#4aff6c" />
<rect x="12" y="43" width="1" height="1" fill="#4aff6c" />
<rect x="15" y="43" width="1" height="1" fill="#4aff6c" />
<rect x="54" y="43" width="1" height="1" fill="#4aff6c" />
<rect x="55" y="43" width="1" height="1" fill="#4aff6c" />
<rect x="6" y="44" width="1" height="1" fill="#4aff6c" />
<rect x="9" y="44" width="1" height="1" fill="#4aff6c" />
<rect x="13" y="44" width="1" height="1" fill="#4aff6c" />
<rect x="15" y="44" width="1" height="1" fill="#4aff6c" />
<rect x="7" y="45" width="1" height="1" fill="#4aff6c" />
<rect x="5" y="46" width="1" height="1" fill="#4aff6c" />
<rect x="7" y="46" width="1" height="1" fill="#4aff6c" />
<rect x="9" y="46" width="1" height="1" fill="#4aff6c" />
<rect x="4" y="47" width="1" height="1" fill="#4aff6c" />
<rect x="6" y="47" width="1" height="1" fill="#4aff6c" />
<rect x="8" y="47" width="1" height="1" fill="#4aff6c" />
<rect x="9" y="47" width="1" height="1" fill="#4aff6c" />
<rect x="4" y="48" width="1" height="1" fill="#4aff6c" />
<rect x="6" y="48" width="1" height="1" fill="#4aff6c" />
<rect x="13" y="48" width="1" height="1" fill="#4aff6c" />
<rect x="5" y="49" width="1" height="1" fill="#4aff6c" />
<rect x="6" y="49" width="1" height="1" fill="#4aff6c" />
<rect x="12" y="49" width="1" height="1" fill="#4aff6c" />
<rect x="13" y="49" width="1" height="1" fill="#4aff6c" />
<rect x="15" y="49" width="1" height="1" fill="#4aff6c" />
<rect x="16" y="49" width="1" height="1" fill="#4aff6c" />
<rect x="36" y="49" width="1" height="1" fill="#4aff6c" />
<rect x="37" y="49" width="1" height="1" fill="#4aff6c" />
<rect x="43" y="49" width="1" height="1" fill="#4aff6c" />
<rect x="12" y="50" width="1" height="1" fill="#4aff6c" />
<rect x="13" y="50" width="1" height="1" fill="#4aff6c" />
<rect x="14" y="50" width="1" height="1" fill="#4aff6c" />
<rect x="15" y="50" width="1" height="1" fill="#4aff6c" />
<rect x="16" y="50" width="1" height="1" fill="#4aff6c" />
<rect x="36" y="50" width="1" height="1" fill="#4aff6c" />
<rect x="37" y="50" width="1" height="1" fill="#4aff6c" />
<rect x="42" y="50" width="1" height="1" fill="#4aff6c" />
<rect x="43" y="50" width="1" height="1" fill="#4aff6c" />
<rect x="44" y="50" width="1" height="1" fill="#4aff6c" />
<rect x="49" y="50" width="1" height="1" fill="#4aff6c" />
<rect x="50" y="50" width="1" height="1" fill="#4aff6c" />
<rect x="12" y="51" width="1" height="1" fill="#4aff6c" />
<rect x="13" y="51" width="1" height="1" fill="#4aff6c" />
<rect x="36" y="51" width="1" height="1" fill="#4aff6c" />
<rect x="42" y="51" width="1" height="1" fill="#4aff6c" />
<rect x="43" y="51" width="1" height="1" fill="#4aff6c" />
<rect x="44" y="51" width="1" height="1" fill="#4aff6c" />
<rect x="49" y="51" width="1" height="1" fill="#4aff6c" />
<rect x="50" y="51" width="1" height="1" fill="#4aff6c" />
<rect x="13" y="52" width="1" height="1" fill="#4aff6c" />
<rect x="32" y="52" width="1" height="1" fill="#4aff6c" />
<rect x="34" y="52" width="1" height="1" fill="#4aff6c" />
<rect x="35" y="52" width="1" height="1" fill="#4aff6c" />
<rect x="36" y="52" width="1" height="1" fill="#4aff6c" />
<rect x="37" y="52" width="1" height="1" fill="#4aff6c" />
<rect x="38" y="52" width="1" height="1" fill="#4aff6c" />
<rect x="40" y="52" width="1" height="1" fill="#4aff6c" />
<rect x="46" y="52" width="1" height="1" fill="#4aff6c" />
<rect x="50" y="52" width="1" height="1" fill="#4aff6c" />
<rect x="31" y="53" width="1" height="1" fill="#4aff6c" />
<rect x="35" y="53" width="1" height="1" fill="#4aff6c" />
<rect x="36" y="53" width="1" height="1" fill="#4aff6c" />
<rect x="37" y="53" width="1" height="1" fill="#4aff6c" />
<rect x="48" y="53" width="1" height="1" fill="#4aff6c" />
<rect x="49" y="53" width="1" height="1" fill="#4aff6c" />
<rect x="50" y="53" width="1" height="1" fill="#4aff6c" />
<rect x="51" y="53" width="1" height="1" fill="#4aff6c" />
<rect x="52" y="53" width="1" height="1" fill="#4aff6c" />
<rect x="54" y="53" width="1" height="1" fill="#4aff6c" />
<rect x="11" y="54" width="1" height="1" fill="#4aff6c" />
<rect x="13" y="54" width="1" height="1" fill="#4aff6c" />
<rect x="23" y="54" width="1" height="1" fill="#4aff6c" />
<rect x="24" y="54" width="1" height="1" fill="#4aff6c" />
<rect x="32" y="54" width="1" height="1" fill="#4aff6c" />
<rect x="42" y="54" width="1" height="1" fill="#4aff6c" />
<rect x="49" y="54" width="1" height="1" fill="#4aff6c" />
<rect x="50" y="54" width="1" height="1" fill="#4aff6c" />
<rect x="51" y="54" width="1" height="1" fill="#4aff6c" />
<rect x="55" y="54" width="1" height="1" fill="#4aff6c" />
<rect x="12" y="55" width="1" height="1" fill="#4aff6c" />
<rect x="23" y="55" width="1" height="1" fill="#4aff6c" />
<rect x="24" y="55" width="1" height="1" fill="#4aff6c" />
<rect x="54" y="55" width="1" height="1" fill="#4aff6c" />
<rect x="36" y="57" width="1" height="1" fill="#4aff6c" />
<rect x="37" y="57" width="1" height="1" fill="#4aff6c" />
<rect x="46" y="57" width="1" height="1" fill="#4aff6c" />
<rect x="47" y="57" width="1" height="1" fill="#4aff6c" />
<rect x="36" y="58" width="1" height="1" fill="#4aff6c" />
<rect x="39" y="58" width="1" height="1" fill="#4aff6c" />
<rect x="40" y="58" width="1" height="1" fill="#4aff6c" />
<rect x="41" y="58" width="1" height="1" fill="#4aff6c" />
<rect x="42" y="58" width="1" height="1" fill="#4aff6c" />
<rect x="43" y="58" width="1" height="1" fill="#4aff6c" />
<rect x="44" y="58" width="1" height="1" fill="#4aff6c" />
<rect x="47" y="58" width="1" height="1" fill="#4aff6c" />
<rect x="37" y="59" width="1" height="1" fill="#4aff6c" />
<rect x="38" y="59" width="1" height="1" fill="#4aff6c" />
<rect x="45" y="59" width="1" height="1" fill="#4aff6c" />
<rect x="46" y="59" width="1" height="1" fill="#4aff6c" />
<rect x="34" y="60" width="1" height="1" fill="#4aff6c" />
<rect x="35" y="60" width="1" height="1" fill="#4aff6c" />
<rect x="36" y="60" width="1" height="1" fill="#4aff6c" />
<rect x="47" y="60" width="1" height="1" fill="#4aff6c" />
<rect x="48" y="60" width="1" height="1" fill="#4aff6c" />
<rect x="49" y="60" width="1" height="1" fill="#4aff6c" />
<rect x="34" y="61" width="1" height="1" fill="#4aff6c" />
<rect x="37" y="61" width="1" height="1" fill="#4aff6c" />
<rect x="39" y="61" width="1" height="1" fill="#4aff6c" />
<rect x="44" y="61" width="1" height="1" fill="#4aff6c" />
<rect x="46" y="61" width="1" height="1" fill="#4aff6c" />
<rect x="49" y="61" width="1" height="1" fill="#4aff6c" />
<rect x="35" y="62" width="1" height="1" fill="#4aff6c" />
<rect x="36" y="62" width="1" height="1" fill="#4aff6c" />
<rect x="41" y="62" width="1" height="1" fill="#4aff6c" />
<rect x="42" y="62" width="1" height="1" fill="#4aff6c" />
<rect x="47" y="62" width="1" height="1" fill="#4aff6c" />
<rect x="48" y="62" width="1" height="1" fill="#4aff6c" />
</svg>