<?xml version="1.0" encoding="utf-8"?>
<svg xmlns="http://www.w3.org/2000/svg" width="80" height="80" viewBox="0 0 80 80">
<rect width="100%" height="100%" fill="transparent" />
<rect x="37" y="4" width="3" height="3" fill="#4aff6c" />
<rect x="40" y="4" width="3" height="3" fill="#4aff6c" />
<rect x="22" y="7" width="3" height="3" fill="#4aff6c" />
<rect x="25" y="7" width="3" height="3" fill="#4aff6c" />
<rect x="31" y="7" width="3" height="3" fill="#4aff6c" />
<rect x="46" y="7" width="3" height="3" fill="#4aff6c" />
<rect x="52" y="7" width="3" height="3" fill="#4aff6c" />
<rect x="55" y="7" width="3" height="3" fill="#4aff6c" />
<rect x="22" y="10" width="3" height="3" fill="#4aff6c" />
<rect x="55" y="10" width="3" height="3" fill="#4aff6c" />
<rect x="25" y="13" width="3" height="3" fill="#4aff6c" />
<rect x="28" y="13" width="3" height="3" fill="#4aff6c" />
<rect x="49" y="13" width="3" height="3" fill="#4aff6c" />
<rect x="52" y="13" width="3" height="3" fill="#4aff6c" />
<rect x="16" y="16" width="3" height="3" fill="#4aff6c" />
<rect x="19" y="16" width="3" height="3" fill="#4aff6c" />
<rect x="22" y="16" width="3" height="3" fill="#4aff6c" />
<rect x="31" y="16" width="3" height="3" fill="#4aff6c" />
<rect x="34" y="16" width="3" height="3" fill="#4aff6c" />
<rect x="37" y="16" width="3" height="3" fill="#4aff6c" />
<rect x="40" y="16" width="3" height="3" fill="#4aff6c" />
<rect x="43" y="16" width="3" height="3" fill="#4aff6c" />
<rect x="46" y="16" width="3" height="3" fill="#4aff6c" />
<rect x="55" y="16" width="3" height="3" fill="#4aff6c" />
<rect x="58" y="16" width="3" height="3" fill="#4aff6c" />
<rect x="61" y="16" width="3" height="3" fill="#4aff6c" />
<rect x="16" y="19" width="3" height="3" fill="#4aff6c" />
<rect x="25" y="19" width="3" height="3" fill="#4aff6c" />
<rect x="52" y="19" width="3" height="3" fill="#4aff6c" />
<rect x="61" y="19" width="3" height="3" fill="#4aff6c" />
<rect x="7" y="22" width="3" height="3" fill="#4aff6c" />
<rect x="10" y="22" width="3" height="3" fill="#4aff6c" />
<rect x="16" y="22" width="3" height="3" fill="#4aff6c" />
<rect x="22" y="22" width="3" height="3" fill="#4aff6c" />
<rect x="55" y="22" width="3" height="3" fill="#4aff6c" />
<rect x="61" y="22" width="3" height="3" fill="#4aff6c" />
<rect x="67" y="22" width="3" height="3" fill="#4aff6c" />
<rect x="70" y="22" width="3" height="3" fill="#4aff6c" />
<rect x="7" y="25" width="3" height="3" fill="#4aff6c" />
<rect x="13" y="25" width="3" height="3" fill="#4aff6c" />
<rect x="19" y="25" width="3" height="3" fill="#4aff6c" />
<rect x="58" y="25" width="3" height="3" fill="#4aff6c" />
<rect x="64" y="25" width="3" height="3" fill="#4aff6c" />
<rect x="70" y="25" width="3" height="3" fill="#4aff6c" />
<rect x="13" y="28" width="3" height="3" fill="#4aff6c" />
<rect x="64" y="28" width="3" height="3" fill="#4aff6c" />
<rect x="7" y="31" width="3" height="3" fill="#4aff6c" />
<rect x="16" y="31" width="3" height="3" fill="#4aff6c" />
<rect x="61" y="31" width="3" height="3" fill="#4aff6c" />
<rect x="70" y="31" width="3" height="3" fill="#4aff6c" />
<rect x="16" y="34" width="3" height="3" fill="#4aff6c" />
<rect x="40" y="34" width="3" height="3" fill="#4aff6c" />
<rect x="43" y="34" width="3" height="3" fill="#4aff6c" />
<rect x="46" y="34" width="3" height="3" fill="#4aff6c" />
<rect x="61" y="34" width="3" height="3" fill="#4aff6c" />
<rect x="4" y="37" width="3" height="3" fill="#4aff6c" />
<rect x="16" y="37" width="3" height="3" fill="#4aff6c" />
<rect x="40" y="37" width="3" height="3" fill="#4aff6c" />
<rect x="46" y="37" width="3" height="3" fill="#4aff6c" />
<rect x="61" y="37" width="3" height="3" fill="#4aff6c" />
<rect x="73" y="37" width="3" height="3" fill="#4aff6c" />
<rect x="4" y="40" width="3" height="3" fill="#4aff6c" />
<rect x="16" y="40" width="3" height="3" fill="#4aff6c" />
<rect x="40" y="40" width="3" height="3" fill="#4aff6c" />
<rect x="46" y="40" width="3" height="3" fill="#4aff6c" />
<rect x="61" y="40" width="3" height="3" fill="#4aff6c" />
<rect x="73" y="40" width="3" height="3" fill="#4aff6c" />
<rect x="16" y="43" width="3" height="3" fill="#4aff6c" />
<rect x="61" y="43" width="3" height="3" fill="#4aff6c" />
<rect x="7" y="46" width="3" height="3" fill="#4aff6c" />
<rect x="16" y="46" width="3" height="3" fill="#4aff6c" />
<rect x="61" y="46" width="3" height="3" fill="#4aff6c" />
<rect x="70" y="46" width="3" height="3" fill="#4aff6c" />
<rect x="13" y="49" width="3" height="3" fill="#4aff6c" />
<rect x="64" y="49" width="3" height="3" fill="#4aff6c" />
<rect x="7" y="52" width="3" height="3" fill="#4aff6c" />
<rect x="13" y="52" width="3" height="3" fill="#4aff6c" />
<rect x="19" y="52" width="3" height="3" fill="#4aff6c" />
<rect x="58" y="52" width="3" height="3" fill="#4aff6c" />
<rect x="64" y="52" width="3" height="3" fill="#4aff6c" />
<rect x="70" y="52" width="3" height="3" fill="#4aff6c" />
<rect x="7" y="55" width="3" height="3" fill="#4aff6c" />
<rect x="10" y="55" width="3" height="3" fill="#4aff6c" />
<rect x="16" y="55" width="3" height="3" fill="#4aff6c" />
<rect x="22" y="55" width="3" height="3" fill="#4aff6c" />
<rect x="55" y="55" width="3" height="3" fill="#4aff6c" />
<rect x="61" y="55" width="3" height="3" fill="#4aff6c" />
<rect x="67" y="55" width="3" height="3" fill="#4aff6c" />
<rect x="70" y="55" width="3" height="3" fill="#4aff6c" />
<rect x="16" y="58" width="3" height="3" fill="#4aff6c" />
<rect x="25" y="58" width="3" height="3" fill="#4aff6c" />
<rect x="52" y="58" width="3" height="3" fill="#4aff6c" />
<rect x="61" y="58" width="3" height="3" fill="#4aff6c" />
<rect x="16" y="61" width="3" height="3" fill="#4aff6c" />
<rect x="19" y="61" width="3" height="3" fill="#4aff6c" />
<rect x="22" y="61" width="3" height="3" fill="#4aff6c" />
<rect x="31" y="61" width="3" height="3" fill="#4aff6c" />
<rect x="34" y="61" width="3" height="3" fill="#4aff6c" />
<rect x="37" y="61" width="3" height="3" fill="#4aff6c" />
<rect x="40" y="61" width="3" height="3" fill="#4aff6c" />
<rect x="43" y="61" width="3" height="3" fill="#4aff6c" />
<rect x="46" y="61" width="3" height="3" fill="#4aff6c" />
<rect x="55" y="61" width="3" height="3" fill="#4aff6c" />
<rect x="58" y="61" width="3" height="3" fill="#4aff6c" />
<rect x="61" y="61" width="3" height="3" fill="#4aff6c" />
<rect x="25" y="64" width="3" height="3" fill="#4aff6c" />
<rect x="28" y="64" width="3" height="3" fill="#4aff6c" />
<rect x="49" y="64" width="3" height="3" fill="#4aff6c" />
<rect x="52" y="64" width="3" height="3" fill="#4aff6c" />
<rect x="22" y="67" width="3" height="3" fill="#4aff6c" />
<rect x="55" y="67" width="3" height="3" fill="#4aff6c" />
<rect x="22" y="70" width="3" height="3" fill="#4aff6c" />
<rect x="25" y="70" width="3" height="3" fill="#4aff6c" />
<rect x="31" y="70" width="3" height="3" fill="#4aff6c" />
<rect x="46" y="70" width="3" height="3" fill="#4aff6c" />
<rect x="52" y="70" width="3" height="3" fill="#4aff6c" />
<rect x="55" y="70" width="3" height="3" fill="#4aff6c" />
<rect x="37" y="73" width="3" height="3" fill="#4aff6c" />
<rect x="40" y="73" width="3" height="3" fill="#4aff6c" />
</svg>