<?xml version="1.0" encoding="utf-8"?>
<svg xmlns="http://www.w3.org/2000/svg" width="83" height="53" viewBox="0 0 83 53">
<rect width="100%" height="100%" fill="transparent" />
<rect x="14" y="4" width="5" height="5" fill="#4aff6c" />
<rect x="14" y="9" width="5" height="5" fill="#4aff6c" />
<rect x="4" y="14" width="5" height="5" fill="#4aff6c" />
<rect x="9" y="14" width="5" height="5" fill="#4aff6c" />
<rect x="14" y="14" width="5" height="5" fill="#4aff6c" />
<rect x="34" y="24" width="5" height="5" fill="#4aff6c" />
<rect x="39" y="24" width="5" height="5" fill="#4aff6c" />
<rect x="44" y="24" width="5" height="5" fill="#4aff6c" />
<rect x="39" y="29" width="5" height="5" fill="#4aff6c" />
<rect x="64" y="34" width="5" height="5" fill="#4aff6c" />
<rect x="69" y="34" width="5" height="5" fill="#4aff6c" />
<rect x="74" y="34" width="5" height="5" fill="#4aff6c" />
<rect x="64" y="39" width="5" height="5" fill="#4aff6c" />
<rect x="64" y="44" width="5" height="5" fill="#4aff6c" />
</svg>