<?xml version="1.0" encoding="utf-8"?>
<svg xmlns="http://www.w3.org/2000/svg" width="53" height="82" viewBox="0 0 53 82">
<rect width="100%" height="100%" fill="transparent" />
<rect x="14" y="4" width="1" height="1" fill="#4aff6c" />
<rect x="15" y="4" width="1" height="1" fill="#4aff6c" />
<rect x="16" y="4" width="1" height="1" fill="#4aff6c" />
<rect x="20" y="4" width="1" height="1" fill="#4aff6c" />
<rect x="21" y="4" width="1" height="1" fill="#4aff6c" />
<rect x="22" y="4" width="1" height="1" fill="#4aff6c" />
<rect x="12" y="6" width="1" height="1" fill="#4aff6c" />
<rect x="17" y="6" width="1" height="1" fill="#4aff6c" />
<rect x="19" y="6" width="1" height="1" fill="#4aff6c" />
<rect x="24" y="6" width="1" height="1" fill="#4aff6c" />
<rect x="12" y="7" width="1" height="1" fill="#4aff6c" />
<rect x="17" y="7" width="1" height="1" fill="#4aff6c" />
<rect x="19" y="7" width="1" height="1" fill="#4aff6c" />
<rect x="24" y="7" width="1" height="1" fill="#4aff6c" />
<rect x="12" y="8" width="1" height="1" fill="#4aff6c" />
<rect x="17" y="8" width="1" height="1" fill="#4aff6c" />
<rect x="19" y="8" width="1" height="1" fill="#4aff6c" />
<rect x="24" y="8" width="1" height="1" fill="#4aff6c" />
<rect x="14" y="9" width="1" height="1" fill="#4aff6c" />
<rect x="15" y="9" width="1" height="1" fill="#4aff6c" />
<rect x="16" y="9" width="1" height="1" fill="#4aff6c" />
<rect x="20" y="9" width="1" height="1" fill="#4aff6c" />
<rect x="21" y="9" width="1" height="1" fill="#4aff6c" />
<rect x="22" y="9" width="1" height="1" fill="#4aff6c" />
<rect x="12" y="11" width="1" height="1" fill="#4aff6c" />
<rect x="13" y="11" width="1" height="1" fill="#4aff6c" />
<rect x="14" y="11" width="1" height="1" fill="#4aff6c" />
<rect x="22" y="11" width="1" height="1" fill="#4aff6c" />
<rect x="23" y="11" width="1" height="1" fill="#4aff6c" />
<rect x="24" y="11" width="1" height="1" fill="#4aff6c" />
<rect x="6" y="12" width="1" height="1" fill="#4aff6c" />
<rect x="7" y="12" width="1" height="1" fill="#4aff6c" />
<rect x="8" y="12" width="1" height="1" fill="#4aff6c" />
<rect x="11" y="12" width="1" height="1" fill="#4aff6c" />
<rect x="16" y="12" width="1" height="1" fill="#4aff6c" />
<rect x="20" y="12" width="1" height="1" fill="#4aff6c" />
<rect x="25" y="12" width="1" height="1" fill="#4aff6c" />
<rect x="28" y="12" width="1" height="1" fill="#4aff6c" />
<rect x="29" y="12" width="1" height="1" fill="#4aff6c" />
<rect x="30" y="12" width="1" height="1" fill="#4aff6c" />
<rect x="11" y="13" width="1" height="1" fill="#4aff6c" />
<rect x="16" y="13" width="1" height="1" fill="#4aff6c" />
<rect x="20" y="13" width="1" height="1" fill="#4aff6c" />
<rect x="25" y="13" width="1" height="1" fill="#4aff6c" />
<rect x="4" y="14" width="1" height="1" fill="#4aff6c" />
<rect x="9" y="14" width="1" height="1" fill="#4aff6c" />
<rect x="11" y="14" width="1" height="1" fill="#4aff6c" />
<rect x="16" y="14" width="1" height="1" fill="#4aff6c" />
<rect x="20" y="14" width="1" height="1" fill="#4aff6c" />
<rect x="25" y="14" width="1" height="1" fill="#4aff6c" />
<rect x="27" y="14" width="1" height="1" fill="#4aff6c" />
<rect x="32" y="14" width="1" height="1" fill="#4aff6c" />
<rect x="4" y="15" width="1" height="1" fill="#4aff6c" />
<rect x="9" y="15" width="1" height="1" fill="#4aff6c" />
<rect x="27" y="15" width="1" height="1" fill="#4aff6c" />
<rect x="32" y="15" width="1" height="1" fill="#4aff6c" />
<rect x="4" y="16" width="1" height="1" fill="#4aff6c" />
<rect x="9" y="16" width="1" height="1" fill="#4aff6c" />
<rect x="12" y="16" width="1" height="1" fill="#4aff6c" />
<rect x="13" y="16" width="1" height="1" fill="#4aff6c" />
<rect x="14" y="16" width="1" height="1" fill="#4aff6c" />
<rect x="22" y="16" width="1" height="1" fill="#4aff6c" />
<rect x="23" y="16" width="1" height="1" fill="#4aff6c" />
<rect x="24" y="16" width="1" height="1" fill="#4aff6c" />
<rect x="27" y="16" width="1" height="1" fill="#4aff6c" />
<rect x="32" y="16" width="1" height="1" fill="#4aff6c" />
<rect x="6" y="17" width="1" height="1" fill="#4aff6c" />
<rect x="7" y="17" width="1" height="1" fill="#4aff6c" />
<rect x="8" y="17" width="1" height="1" fill="#4aff6c" />
<rect x="28" y="17" width="1" height="1" fill="#4aff6c" />
<rect x="29" y="17" width="1" height="1" fill="#4aff6c" />
<rect x="30" y="17" width="1" height="1" fill="#4aff6c" />
<rect x="6" y="19" width="1" height="1" fill="#4aff6c" />
<rect x="7" y="19" width="1" height="1" fill="#4aff6c" />
<rect x="8" y="19" width="1" height="1" fill="#4aff6c" />
<rect x="28" y="19" width="1" height="1" fill="#4aff6c" />
<rect x="29" y="19" width="1" height="1" fill="#4aff6c" />
<rect x="30" y="19" width="1" height="1" fill="#4aff6c" />
<rect x="4" y="20" width="1" height="1" fill="#4aff6c" />
<rect x="9" y="20" width="1" height="1" fill="#4aff6c" />
<rect x="12" y="20" width="1" height="1" fill="#4aff6c" />
<rect x="13" y="20" width="1" height="1" fill="#4aff6c" />
<rect x="14" y="20" width="1" height="1" fill="#4aff6c" />
<rect x="22" y="20" width="1" height="1" fill="#4aff6c" />
<rect x="23" y="20" width="1" height="1" fill="#4aff6c" />
<rect x="24" y="20" width="1" height="1" fill="#4aff6c" />
<rect x="27" y="20" width="1" height="1" fill="#4aff6c" />
<rect x="32" y="20" width="1" height="1" fill="#4aff6c" />
<rect x="4" y="21" width="1" height="1" fill="#4aff6c" />
<rect x="9" y="21" width="1" height="1" fill="#4aff6c" />
<rect x="27" y="21" width="1" height="1" fill="#4aff6c" />
<rect x="32" y="21" width="1" height="1" fill="#4aff6c" />
<rect x="4" y="22" width="1" height="1" fill="#4aff6c" />
<rect x="9" y="22" width="1" height="1" fill="#4aff6c" />
<rect x="11" y="22" width="1" height="1" fill="#4aff6c" />
<rect x="16" y="22" width="1" height="1" fill="#4aff6c" />
<rect x="20" y="22" width="1" height="1" fill="#4aff6c" />
<rect x="25" y="22" width="1" height="1" fill="#4aff6c" />
<rect x="27" y="22" width="1" height="1" fill="#4aff6c" />
<rect x="32" y="22" width="1" height="1" fill="#4aff6c" />
<rect x="11" y="23" width="1" height="1" fill="#4aff6c" />
<rect x="16" y="23" width="1" height="1" fill="#4aff6c" />
<rect x="20" y="23" width="1" height="1" fill="#4aff6c" />
<rect x="25" y="23" width="1" height="1" fill="#4aff6c" />
<rect x="6" y="24" width="1" height="1" fill="#4aff6c" />
<rect x="7" y="24" width="1" height="1" fill="#4aff6c" />
<rect x="8" y="24" width="1" height="1" fill="#4aff6c" />
<rect x="11" y="24" width="1" height="1" fill="#4aff6c" />
<rect x="16" y="24" width="1" height="1" fill="#4aff6c" />
<rect x="20" y="24" width="1" height="1" fill="#4aff6c" />
<rect x="25" y="24" width="1" height="1" fill="#4aff6c" />
<rect x="28" y="24" width="1" height="1" fill="#4aff6c" />
<rect x="29" y="24" width="1" height="1" fill="#4aff6c" />
<rect x="30" y="24" width="1" height="1" fill="#4aff6c" />
<rect x="12" y="25" width="1" height="1" fill="#4aff6c" />
<rect x="13" y="25" width="1" height="1" fill="#4aff6c" />
<rect x="14" y="25" width="1" height="1" fill="#4aff6c" />
<rect x="22" y="25" width="1" height="1" fill="#4aff6c" />
<rect x="23" y="25" width="1" height="1" fill="#4aff6c" />
<rect x="24" y="25" width="1" height="1" fill="#4aff6c" />
<rect x="14" y="27" width="1" height="1" fill="#4aff6c" />
<rect x="15" y="27" width="1" height="1" fill="#4aff6c" />
<rect x="16" y="27" width="1" height="1" fill="#4aff6c" />
<rect x="20" y="27" width="1" height="1" fill="#4aff6c" />
<rect x="21" y="27" width="1" height="1" fill="#4aff6c" />
<rect x="22" y="27" width="1" height="1" fill="#4aff6c" />
<rect x="12" y="28" width="1" height="1" fill="#4aff6c" />
<rect x="17" y="28" width="1" height="1" fill="#4aff6c" />
<rect x="19" y="28" width="1" height="1" fill="#4aff6c" />
<rect x="24" y="28" width="1" height="1" fill="#4aff6c" />
<rect x="12" y="29" width="1" height="1" fill="#4aff6c" />
<rect x="17" y="29" width="1" height="1" fill="#4aff6c" />
<rect x="19" y="29" width="1" height="1" fill="#4aff6c" />
<rect x="24" y="29" width="1" height="1" fill="#4aff6c" />
<rect x="12" y="30" width="1" height="1" fill="#4aff6c" />
<rect x="17" y="30" width="1" height="1" fill="#4aff6c" />
<rect x="19" y="30" width="1" height="1" fill="#4aff6c" />
<rect x="24" y="30" width="1" height="1" fill="#4aff6c" />
<rect x="14" y="32" width="1" height="1" fill="#4aff6c" />
<rect x="15" y="32" width="1" height="1" fill="#4aff6c" />
<rect x="16" y="32" width="1" height="1" fill="#4aff6c" />
<rect x="20" y="32" width="1" height="1" fill="#4aff6c" />
<rect x="21" y="32" width="1" height="1" fill="#4aff6c" />
<rect x="22" y="32" width="1" height="1" fill="#4aff6c" />
<rect x="22" y="33" width="1" height="1" fill="#4aff6c" />
<rect x="23" y="33" width="1" height="1" fill="#4aff6c" />
<rect x="24" y="33" width="1" height="1" fill="#4aff6c" />
<rect x="28" y="33" width="1" height="1" fill="#4aff6c" />
<rect x="29" y="33" width="1" height="1" fill="#4aff6c" />
<rect x="30" y="33" width="1" height="1" fill="#4aff6c" />
<rect x="20" y="35" width="1" height="1" fill="#4aff6c" />
<rect x="25" y="35" width="1" height="1" fill="#4aff6c" />
<rect x="27" y="35" width="1" height="1" fill="#4aff6c" />
<rect x="32" y="35" width="1" height="1" fill="#4aff6c" />
<rect x="20" y="36" width="1" height="1" fill="#4aff6c" />
<rect x="25" y="36" width="1" height="1" fill="#4aff6c" />
<rect x="27" y="36" width="1" height="1" fill="#4aff6c" />
<rect x="32" y="36" width="1" height="1" fill="#4aff6c" />
<rect x="20" y="37" width="1" height="1" fill="#4aff6c" />
<rect x="25" y="37" width="1" height="1" fill="#4aff6c" />
<rect x="27" y="37" width="1" height="1" fill="#4aff6c" />
<rect x="32" y="37" width="1" height="1" fill="#4aff6c" />
<rect x="22" y="38" width="1" height="1" fill="#4aff6c" />
<rect x="23" y="38" width="1" height="1" fill="#4aff6c" />
<rect x="24" y="38" width="1" height="1" fill="#4aff6c" />
<rect x="28" y="38" width="1" height="1" fill="#4aff6c" />
<rect x="29" y="38" width="1" height="1" fill="#4aff6c" />
<rect x="30" y="38" width="1" height="1" fill="#4aff6c" />
<rect x="20" y="40" width="1" height="1" fill="#4aff6c" />
<rect x="21" y="40" width="1" height="1" fill="#4aff6c" />
<rect x="22" y="40" width="1" height="1" fill="#4aff6c" />
<rect x="30" y="40" width="1" height="1" fill="#4aff6c" />
<rect x="31" y="40" width="1" height="1" fill="#4aff6c" />
<rect x="32" y="40" width="1" height="1" fill="#4aff6c" />
<rect x="14" y="41" width="1" height="1" fill="#4aff6c" />
<rect x="15" y="41" width="1" height="1" fill="#4aff6c" />
<rect x="16" y="41" width="1" height="1" fill="#4aff6c" />
<rect x="19" y="41" width="1" height="1" fill="#4aff6c" />
<rect x="24" y="41" width="1" height="1" fill="#4aff6c" />
<rect x="28" y="41" width="1" height="1" fill="#4aff6c" />
<rect x="33" y="41" width="1" height="1" fill="#4aff6c" />
<rect x="36" y="41" width="1" height="1" fill="#4aff6c" />
<rect x="37" y="41" width="1" height="1" fill="#4aff6c" />
<rect x="38" y="41" width="1" height="1" fill="#4aff6c" />
<rect x="19" y="42" width="1" height="1" fill="#4aff6c" />
<rect x="24" y="42" width="1" height="1" fill="#4aff6c" />
<rect x="28" y="42" width="1" height="1" fill="#4aff6c" />
<rect x="33" y="42" width="1" height="1" fill="#4aff6c" />
<rect x="12" y="43" width="1" height="1" fill="#4aff6c" />
<rect x="17" y="43" width="1" height="1" fill="#4aff6c" />
<rect x="19" y="43" width="1" height="1" fill="#4aff6c" />
<rect x="24" y="43" width="1" height="1" fill="#4aff6c" />
<rect x="28" y="43" width="1" height="1" fill="#4aff6c" />
<rect x="33" y="43" width="1" height="1" fill="#4aff6c" />
<rect x="35" y="43" width="1" height="1" fill="#4aff6c" />
<rect x="40" y="43" width="1" height="1" fill="#4aff6c" />
<rect x="12" y="44" width="1" height="1" fill="#4aff6c" />
<rect x="17" y="44" width="1" height="1" fill="#4aff6c" />
<rect x="35" y="44" width="1" height="1" fill="#4aff6c" />
<rect x="40" y="44" width="1" height="1" fill="#4aff6c" />
<rect x="12" y="45" width="1" height="1" fill="#4aff6c" />
<rect x="17" y="45" width="1" height="1" fill="#4aff6c" />
<rect x="20" y="45" width="1" height="1" fill="#4aff6c" />
<rect x="21" y="45" width="1" height="1" fill="#4aff6c" />
<rect x="22" y="45" width="1" height="1" fill="#4aff6c" />
<rect x="30" y="45" width="1" height="1" fill="#4aff6c" />
<rect x="31" y="45" width="1" height="1" fill="#4aff6c" />
<rect x="32" y="45" width="1" height="1" fill="#4aff6c" />
<rect x="35" y="45" width="1" height="1" fill="#4aff6c" />
<rect x="40" y="45" width="1" height="1" fill="#4aff6c" />
<rect x="14" y="46" width="1" height="1" fill="#4aff6c" />
<rect x="15" y="46" width="1" height="1" fill="#4aff6c" />
<rect x="16" y="46" width="1" height="1" fill="#4aff6c" />
<rect x="36" y="46" width="1" height="1" fill="#4aff6c" />
<rect x="37" y="46" width="1" height="1" fill="#4aff6c" />
<rect x="38" y="46" width="1" height="1" fill="#4aff6c" />
<rect x="12" y="48" width="1" height="1" fill="#4aff6c" />
<rect x="13" y="48" width="1" height="1" fill="#4aff6c" />
<rect x="14" y="48" width="1" height="1" fill="#4aff6c" />
<rect x="38" y="48" width="1" height="1" fill="#4aff6c" />
<rect x="39" y="48" width="1" height="1" fill="#4aff6c" />
<rect x="40" y="48" width="1" height="1" fill="#4aff6c" />
<rect x="6" y="49" width="1" height="1" fill="#4aff6c" />
<rect x="7" y="49" width="1" height="1" fill="#4aff6c" />
<rect x="8" y="49" width="1" height="1" fill="#4aff6c" />
<rect x="11" y="49" width="1" height="1" fill="#4aff6c" />
<rect x="16" y="49" width="1" height="1" fill="#4aff6c" />
<rect x="36" y="49" width="1" height="1" fill="#4aff6c" />
<rect x="41" y="49" width="1" height="1" fill="#4aff6c" />
<rect x="44" y="49" width="1" height="1" fill="#4aff6c" />
<rect x="45" y="49" width="1" height="1" fill="#4aff6c" />
<rect x="46" y="49" width="1" height="1" fill="#4aff6c" />
<rect x="11" y="50" width="1" height="1" fill="#4aff6c" />
<rect x="16" y="50" width="1" height="1" fill="#4aff6c" />
<rect x="36" y="50" width="1" height="1" fill="#4aff6c" />
<rect x="41" y="50" width="1" height="1" fill="#4aff6c" />
<rect x="4" y="51" width="1" height="1" fill="#4aff6c" />
<rect x="9" y="51" width="1" height="1" fill="#4aff6c" />
<rect x="11" y="51" width="1" height="1" fill="#4aff6c" />
<rect x="16" y="51" width="1" height="1" fill="#4aff6c" />
<rect x="36" y="51" width="1" height="1" fill="#4aff6c" />
<rect x="41" y="51" width="1" height="1" fill="#4aff6c" />
<rect x="43" y="51" width="1" height="1" fill="#4aff6c" />
<rect x="48" y="51" width="1" height="1" fill="#4aff6c" />
<rect x="4" y="52" width="1" height="1" fill="#4aff6c" />
<rect x="9" y="52" width="1" height="1" fill="#4aff6c" />
<rect x="43" y="52" width="1" height="1" fill="#4aff6c" />
<rect x="48" y="52" width="1" height="1" fill="#4aff6c" />
<rect x="4" y="53" width="1" height="1" fill="#4aff6c" />
<rect x="9" y="53" width="1" height="1" fill="#4aff6c" />
<rect x="12" y="53" width="1" height="1" fill="#4aff6c" />
<rect x="13" y="53" width="1" height="1" fill="#4aff6c" />
<rect x="14" y="53" width="1" height="1" fill="#4aff6c" />
<rect x="38" y="53" width="1" height="1" fill="#4aff6c" />
<rect x="39" y="53" width="1" height="1" fill="#4aff6c" />
<rect x="40" y="53" width="1" height="1" fill="#4aff6c" />
<rect x="43" y="53" width="1" height="1" fill="#4aff6c" />
<rect x="48" y="53" width="1" height="1" fill="#4aff6c" />
<rect x="6" y="54" width="1" height="1" fill="#4aff6c" />
<rect x="7" y="54" width="1" height="1" fill="#4aff6c" />
<rect x="8" y="54" width="1" height="1" fill="#4aff6c" />
<rect x="44" y="54" width="1" height="1" fill="#4aff6c" />
<rect x="45" y="54" width="1" height="1" fill="#4aff6c" />
<rect x="46" y="54" width="1" height="1" fill="#4aff6c" />
<rect x="6" y="56" width="1" height="1" fill="#4aff6c" />
<rect x="7" y="56" width="1" height="1" fill="#4aff6c" />
<rect x="8" y="56" width="1" height="1" fill="#4aff6c" />
<rect x="44" y="56" width="1" height="1" fill="#4aff6c" />
<rect x="45" y="56" width="1" height="1" fill="#4aff6c" />
<rect x="46" y="56" width="1" height="1" fill="#4aff6c" />
<rect x="4" y="57" width="1" height="1" fill="#4aff6c" />
<rect x="9" y="57" width="1" height="1" fill="#4aff6c" />
<rect x="12" y="57" width="1" height="1" fill="#4aff6c" />
<rect x="13" y="57" width="1" height="1" fill="#4aff6c" />
<rect x="14" y="57" width="1" height="1" fill="#4aff6c" />
<rect x="38" y="57" width="1" height="1" fill="#4aff6c" />
<rect x="39" y="57" width="1" height="1" fill="#4aff6c" />
<rect x="40" y="57" width="1" height="1" fill="#4aff6c" />
<rect x="43" y="57" width="1" height="1" fill="#4aff6c" />
<rect x="48" y="57" width="1" height="1" fill="#4aff6c" />
<rect x="4" y="58" width="1" height="1" fill="#4aff6c" />
<rect x="9" y="58" width="1" height="1" fill="#4aff6c" />
<rect x="43" y="58" width="1" height="1" fill="#4aff6c" />
<rect x="48" y="58" width="1" height="1" fill="#4aff6c" />
<rect x="4" y="59" width="1" height="1" fill="#4aff6c" />
<rect x="9" y="59" width="1" height="1" fill="#4aff6c" />
<rect x="11" y="59" width="1" height="1" fill="#4aff6c" />
<rect x="16" y="59" width="1" height="1" fill="#4aff6c" />
<rect x="36" y="59" width="1" height="1" fill="#4aff6c" />
<rect x="41" y="59" width="1" height="1" fill="#4aff6c" />
<rect x="43" y="59" width="1" height="1" fill="#4aff6c" />
<rect x="48" y="59" width="1" height="1" fill="#4aff6c" />
<rect x="11" y="60" width="1" height="1" fill="#4aff6c" />
<rect x="16" y="60" width="1" height="1" fill="#4aff6c" />
<rect x="36" y="60" width="1" height="1" fill="#4aff6c" />
<rect x="41" y="60" width="1" height="1" fill="#4aff6c" />
<rect x="6" y="61" width="1" height="1" fill="#4aff6c" />
<rect x="7" y="61" width="1" height="1" fill="#4aff6c" />
<rect x="8" y="61" width="1" height="1" fill="#4aff6c" />
<rect x="11" y="61" width="1" height="1" fill="#4aff6c" />
<rect x="16" y="61" width="1" height="1" fill="#4aff6c" />
<rect x="36" y="61" width="1" height="1" fill="#4aff6c" />
<rect x="41" y="61" width="1" height="1" fill="#4aff6c" />
<rect x="44" y="61" width="1" height="1" fill="#4aff6c" />
<rect x="45" y="61" width="1" height="1" fill="#4aff6c" />
<rect x="46" y="61" width="1" height="1" fill="#4aff6c" />
<rect x="12" y="62" width="1" height="1" fill="#4aff6c" />
<rect x="13" y="62" width="1" height="1" fill="#4aff6c" />
<rect x="14" y="62" width="1" height="1" fill="#4aff6c" />
<rect x="38" y="62" width="1" height="1" fill="#4aff6c" />
<rect x="39" y="62" width="1" height="1" fill="#4aff6c" />
<rect x="40" y="62" width="1" height="1" fill="#4aff6c" />
<rect x="14" y="64" width="1" height="1" fill="#4aff6c" />
<rect x="15" y="64" width="1" height="1" fill="#4aff6c" />
<rect x="16" y="64" width="1" height="1" fill="#4aff6c" />
<rect x="36" y="64" width="1" height="1" fill="#4aff6c" />
<rect x="37" y="64" width="1" height="1" fill="#4aff6c" />
<rect x="38" y="64" width="1" height="1" fill="#4aff6c" />
<rect x="12" y="65" width="1" height="1" fill="#4aff6c" />
<rect x="17" y="65" width="1" height="1" fill="#4aff6c" />
<rect x="20" y="65" width="1" height="1" fill="#4aff6c" />
<rect x="21" y="65" width="1" height="1" fill="#4aff6c" />
<rect x="22" y="65" width="1" height="1" fill="#4aff6c" />
<rect x="30" y="65" width="1" height="1" fill="#4aff6c" />
<rect x="31" y="65" width="1" height="1" fill="#4aff6c" />
<rect x="32" y="65" width="1" height="1" fill="#4aff6c" />
<rect x="35" y="65" width="1" height="1" fill="#4aff6c" />
<rect x="40" y="65" width="1" height="1" fill="#4aff6c" />
<rect x="12" y="66" width="1" height="1" fill="#4aff6c" />
<rect x="17" y="66" width="1" height="1" fill="#4aff6c" />
<rect x="35" y="66" width="1" height="1" fill="#4aff6c" />
<rect x="40" y="66" width="1" height="1" fill="#4aff6c" />
<rect x="12" y="67" width="1" height="1" fill="#4aff6c" />
<rect x="17" y="67" width="1" height="1" fill="#4aff6c" />
<rect x="19" y="67" width="1" height="1" fill="#4aff6c" />
<rect x="24" y="67" width="1" height="1" fill="#4aff6c" />
<rect x="28" y="67" width="1" height="1" fill="#4aff6c" />
<rect x="33" y="67" width="1" height="1" fill="#4aff6c" />
<rect x="35" y="67" width="1" height="1" fill="#4aff6c" />
<rect x="40" y="67" width="1" height="1" fill="#4aff6c" />
<rect x="19" y="68" width="1" height="1" fill="#4aff6c" />
<rect x="24" y="68" width="1" height="1" fill="#4aff6c" />
<rect x="28" y="68" width="1" height="1" fill="#4aff6c" />
<rect x="33" y="68" width="1" height="1" fill="#4aff6c" />
<rect x="14" y="69" width="1" height="1" fill="#4aff6c" />
<rect x="15" y="69" width="1" height="1" fill="#4aff6c" />
<rect x="16" y="69" width="1" height="1" fill="#4aff6c" />
<rect x="19" y="69" width="1" height="1" fill="#4aff6c" />
<rect x="24" y="69" width="1" height="1" fill="#4aff6c" />
<rect x="28" y="69" width="1" height="1" fill="#4aff6c" />
<rect x="33" y="69" width="1" height="1" fill="#4aff6c" />
<rect x="36" y="69" width="1" height="1" fill="#4aff6c" />
<rect x="37" y="69" width="1" height="1" fill="#4aff6c" />
<rect x="38" y="69" width="1" height="1" fill="#4aff6c" />
<rect x="20" y="70" width="1" height="1" fill="#4aff6c" />
<rect x="21" y="70" width="1" height="1" fill="#4aff6c" />
<rect x="22" y="70" width="1" height="1" fill="#4aff6c" />
<rect x="30" y="70" width="1" height="1" fill="#4aff6c" />
<rect x="31" y="70" width="1" height="1" fill="#4aff6c" />
<rect x="32" y="70" width="1" height="1" fill="#4aff6c" />
<rect x="22" y="72" width="1" height="1" fill="#4aff6c" />
<rect x="23" y="72" width="1" height="1" fill="#4aff6c" />
<rect x="24" y="72" width="1" height="1" fill="#4aff6c" />
<rect x="28" y="72" width="1" height="1" fill="#4aff6c" />
<rect x="29" y="72" width="1" height="1" fill="#4aff6c" />
<rect x="30" y="72" width="1" height="1" fill="#4aff6c" />
<rect x="20" y="73" width="1" height="1" fill="#4aff6c" />
<rect x="25" y="73" width="1" height="1" fill="#4aff6c" />
<rect x="27" y="73" width="1" height="1" fill="#4aff6c" />
<rect x="32" y="73" width="1" height="1" fill="#4aff6c" />
<rect x="20" y="74" width="1" height="1" fill="#4aff6c" />
<rect x="25" y="74" width="1" height="1" fill="#4aff6c" />
<rect x="27" y="74" width="1" height="1" fill="#4aff6c" />
<rect x="32" y="74" width="1" height="1" fill="#4aff6c" />
<rect x="20" y="75" width="1" height="1" fill="#4aff6c" />
<rect x="25" y="75" width="1" height="1" fill="#4aff6c" />
<rect x="27" y="75" width="1" height="1" fill="#4aff6c" />
<rect x="32" y="75" width="1" height="1" fill="#4aff6c" />
<rect x="22" y="77" width="1" height="1" fill="#4aff6c" />
<rect x="23" y="77" width="1" height="1" fill="#4aff6c" />
<rect x="24" y="77" width="1" height="1" fill="#4aff6c" />
<rect x="28" y="77" width="1" height="1" fill="#4aff6c" />
<rect x="29" y="77" width="1" height="1" fill="#4aff6c" />
<rect x="30" y="77" width="1" height="1" fill="#4aff6c" />
</svg>