<?xml version="1.0" encoding="utf-8"?>
<svg xmlns="http://www.w3.org/2000/svg" width="83" height="89" viewBox="0 0 83 89">
<rect width="100%" height="100%" fill="transparent" />
<rect x="73" y="4" width="3" height="3" fill="#4aff6c" />
<rect x="70" y="7" width="3" height="3" fill="#4aff6c" />
<rect x="70" y="10" width="3" height="3" fill="#4aff6c" />
<rect x="73" y="10" width="3" height="3" fill="#4aff6c" />
<rect x="76" y="10" width="3" height="3" fill="#4aff6c" />
<rect x="43" y="16" width="3" height="3" fill="#4aff6c" />
<rect x="40" y="19" width="3" height="3" fill="#4aff6c" />
<rect x="46" y="19" width="3" height="3" fill="#4aff6c" />
<rect x="40" y="22" width="3" height="3" fill="#4aff6c" />
<rect x="43" y="22" width="3" height="3" fill="#4aff6c" />
<rect x="49" y="22" width="3" height="3" fill="#4aff6c" />
<rect x="40" y="25" width="3" height="3" fill="#4aff6c" />
<rect x="43" y="25" width="3" height="3" fill="#4aff6c" />
<rect x="49" y="25" width="3" height="3" fill="#4aff6c" />
<rect x="52" y="25" width="3" height="3" fill="#4aff6c" />
<rect x="40" y="28" width="3" height="3" fill="#4aff6c" />
<rect x="43" y="28" width="3" height="3" fill="#4aff6c" />
<rect x="49" y="28" width="3" height="3" fill="#4aff6c" />
<rect x="10" y="31" width="3" height="3" fill="#4aff6c" />
<rect x="13" y="31" width="3" height="3" fill="#4aff6c" />
<rect x="40" y="31" width="3" height="3" fill="#4aff6c" />
<rect x="46" y="31" width="3" height="3" fill="#4aff6c" />
<rect x="7" y="34" width="3" height="3" fill="#4aff6c" />
<rect x="13" y="34" width="3" height="3" fill="#4aff6c" />
<rect x="43" y="34" width="3" height="3" fill="#4aff6c" />
<rect x="58" y="34" width="3" height="3" fill="#4aff6c" />
<rect x="61" y="34" width="3" height="3" fill="#4aff6c" />
<rect x="64" y="34" width="3" height="3" fill="#4aff6c" />
<rect x="7" y="37" width="3" height="3" fill="#4aff6c" />
<rect x="58" y="37" width="3" height="3" fill="#4aff6c" />
<rect x="61" y="37" width="3" height="3" fill="#4aff6c" />
<rect x="64" y="37" width="3" height="3" fill="#4aff6c" />
<rect x="4" y="40" width="3" height="3" fill="#4aff6c" />
<rect x="7" y="40" width="3" height="3" fill="#4aff6c" />
<rect x="55" y="40" width="3" height="3" fill="#4aff6c" />
<rect x="67" y="40" width="3" height="3" fill="#4aff6c" />
<rect x="52" y="43" width="3" height="3" fill="#4aff6c" />
<rect x="70" y="43" width="3" height="3" fill="#4aff6c" />
<rect x="55" y="46" width="3" height="3" fill="#4aff6c" />
<rect x="67" y="46" width="3" height="3" fill="#4aff6c" />
<rect x="58" y="49" width="3" height="3" fill="#4aff6c" />
<rect x="61" y="49" width="3" height="3" fill="#4aff6c" />
<rect x="64" y="49" width="3" height="3" fill="#4aff6c" />
<rect x="52" y="73" width="3" height="3" fill="#4aff6c" />
<rect x="55" y="73" width="3" height="3" fill="#4aff6c" />
<rect x="55" y="76" width="3" height="3" fill="#4aff6c" />
<rect x="46" y="79" width="3" height="3" fill="#4aff6c" />
<rect x="49" y="79" width="3" height="3" fill="#4aff6c" />
<rect x="52" y="79" width="3" height="3" fill="#4aff6c" />
<rect x="46" y="82" width="3" height="3" fill="#4aff6c" />
</svg>