<?xml version="1.0" encoding="utf-8"?>
<svg xmlns="http://www.w3.org/2000/svg" width="82" height="84" viewBox="0 0 82 84">
<rect width="100%" height="100%" fill="transparent" />
<rect x="24" y="4" width="2" height="2" fill="#4aff6c" />
<rect x="26" y="4" width="2" height="2" fill="#4aff6c" />
<rect x="18" y="6" width="2" height="2" fill="#4aff6c" />
<rect x="20" y="6" width="2" height="2" fill="#4aff6c" />
<rect x="26" y="6" width="2" height="2" fill="#4aff6c" />
<rect x="14" y="8" width="2" height="2" fill="#4aff6c" />
<rect x="16" y="8" width="2" height="2" fill="#4aff6c" />
<rect x="18" y="8" width="2" height="2" fill="#4aff6c" />
<rect x="22" y="8" width="2" height="2" fill="#4aff6c" />
<rect x="24" y="8" width="2" height="2" fill="#4aff6c" />
<rect x="12" y="10" width="2" height="2" fill="#4aff6c" />
<rect x="6" y="12" width="2" height="2" fill="#4aff6c" />
<rect x="12" y="12" width="2" height="2" fill="#4aff6c" />
<rect x="14" y="12" width="2" height="2" fill="#4aff6c" />
<rect x="16" y="12" width="2" height="2" fill="#4aff6c" />
<rect x="18" y="12" width="2" height="2" fill="#4aff6c" />
<rect x="22" y="12" width="2" height="2" fill="#4aff6c" />
<rect x="24" y="12" width="2" height="2" fill="#4aff6c" />
<rect x="6" y="14" width="2" height="2" fill="#4aff6c" />
<rect x="8" y="14" width="2" height="2" fill="#4aff6c" />
<rect x="10" y="14" width="2" height="2" fill="#4aff6c" />
<rect x="18" y="14" width="2" height="2" fill="#4aff6c" />
<rect x="22" y="14" width="2" height="2" fill="#4aff6c" />
<rect x="24" y="14" width="2" height="2" fill="#4aff6c" />
<rect x="12" y="16" width="2" height="2" fill="#4aff6c" />
<rect x="10" y="18" width="2" height="2" fill="#4aff6c" />
<rect x="12" y="18" width="2" height="2" fill="#4aff6c" />
<rect x="66" y="18" width="2" height="2" fill="#4aff6c" />
<rect x="68" y="18" width="2" height="2" fill="#4aff6c" />
<rect x="66" y="20" width="2" height="2" fill="#4aff6c" />
<rect x="62" y="22" width="2" height="2" fill="#4aff6c" />
<rect x="66" y="22" width="2" height="2" fill="#4aff6c" />
<rect x="62" y="24" width="2" height="2" fill="#4aff6c" />
<rect x="64" y="24" width="2" height="2" fill="#4aff6c" />
<rect x="70" y="34" width="2" height="2" fill="#4aff6c" />
<rect x="72" y="34" width="2" height="2" fill="#4aff6c" />
<rect x="76" y="34" width="2" height="2" fill="#4aff6c" />
<rect x="70" y="36" width="2" height="2" fill="#4aff6c" />
<rect x="74" y="36" width="2" height="2" fill="#4aff6c" />
<rect x="76" y="36" width="2" height="2" fill="#4aff6c" />
<rect x="4" y="40" width="2" height="2" fill="#4aff6c" />
<rect x="56" y="40" width="2" height="2" fill="#4aff6c" />
<rect x="58" y="40" width="2" height="2" fill="#4aff6c" />
<rect x="4" y="42" width="2" height="2" fill="#4aff6c" />
<rect x="8" y="42" width="2" height="2" fill="#4aff6c" />
<rect x="56" y="42" width="2" height="2" fill="#4aff6c" />
<rect x="58" y="42" width="2" height="2" fill="#4aff6c" />
<rect x="4" y="44" width="2" height="2" fill="#4aff6c" />
<rect x="6" y="44" width="2" height="2" fill="#4aff6c" />
<rect x="8" y="44" width="2" height="2" fill="#4aff6c" />
<rect x="8" y="46" width="2" height="2" fill="#4aff6c" />
<rect x="22" y="52" width="2" height="2" fill="#4aff6c" />
<rect x="24" y="52" width="2" height="2" fill="#4aff6c" />
<rect x="32" y="52" width="2" height="2" fill="#4aff6c" />
<rect x="34" y="52" width="2" height="2" fill="#4aff6c" />
<rect x="24" y="54" width="2" height="2" fill="#4aff6c" />
<rect x="32" y="54" width="2" height="2" fill="#4aff6c" />
<rect x="18" y="56" width="2" height="2" fill="#4aff6c" />
<rect x="20" y="56" width="2" height="2" fill="#4aff6c" />
<rect x="22" y="56" width="2" height="2" fill="#4aff6c" />
<rect x="34" y="56" width="2" height="2" fill="#4aff6c" />
<rect x="36" y="56" width="2" height="2" fill="#4aff6c" />
<rect x="38" y="56" width="2" height="2" fill="#4aff6c" />
<rect x="18" y="58" width="2" height="2" fill="#4aff6c" />
<rect x="38" y="58" width="2" height="2" fill="#4aff6c" />
<rect x="38" y="60" width="2" height="2" fill="#4aff6c" />
<rect x="42" y="60" width="2" height="2" fill="#4aff6c" />
<rect x="40" y="62" width="2" height="2" fill="#4aff6c" />
<rect x="42" y="62" width="2" height="2" fill="#4aff6c" />
<rect x="54" y="74" width="2" height="2" fill="#4aff6c" />
<rect x="56" y="74" width="2" height="2" fill="#4aff6c" />
<rect x="58" y="74" width="2" height="2" fill="#4aff6c" />
<rect x="54" y="76" width="2" height="2" fill="#4aff6c" />
<rect x="52" y="78" width="2" height="2" fill="#4aff6c" />
<rect x="54" y="78" width="2" height="2" fill="#4aff6c" />
</svg>