<?xml version="1.0" encoding="utf-8"?>
<svg xmlns="http://www.w3.org/2000/svg" width="76" height="58" viewBox="0 0 76 58">
<rect width="100%" height="100%" fill="transparent" />
<rect x="24" y="4" width="2" height="2" fill="#4aff6c" />
<rect x="22" y="6" width="2" height="2" fill="#4aff6c" />
<rect x="26" y="6" width="2" height="2" fill="#4aff6c" />
<rect x="22" y="8" width="2" height="2" fill="#4aff6c" />
<rect x="26" y="8" width="2" height="2" fill="#4aff6c" />
<rect x="24" y="10" width="2" height="2" fill="#4aff6c" />
<rect x="34" y="14" width="2" height="2" fill="#4aff6c" />
<rect x="36" y="14" width="2" height="2" fill="#4aff6c" />
<rect x="38" y="14" width="2" height="2" fill="#4aff6c" />
<rect x="66" y="14" width="2" height="2" fill="#4aff6c" />
<rect x="68" y="14" width="2" height="2" fill="#4aff6c" />
<rect x="70" y="14" width="2" height="2" fill="#4aff6c" />
<rect x="32" y="16" width="2" height="2" fill="#4aff6c" />
<rect x="38" y="16" width="2" height="2" fill="#4aff6c" />
<rect x="50" y="16" width="2" height="2" fill="#4aff6c" />
<rect x="52" y="16" width="2" height="2" fill="#4aff6c" />
<rect x="54" y="16" width="2" height="2" fill="#4aff6c" />
<rect x="64" y="16" width="2" height="2" fill="#4aff6c" />
<rect x="70" y="16" width="2" height="2" fill="#4aff6c" />
<rect x="38" y="18" width="2" height="2" fill="#4aff6c" />
<rect x="48" y="18" width="2" height="2" fill="#4aff6c" />
<rect x="54" y="18" width="2" height="2" fill="#4aff6c" />
<rect x="70" y="18" width="2" height="2" fill="#4aff6c" />
<rect x="30" y="20" width="2" height="2" fill="#4aff6c" />
<rect x="38" y="20" width="2" height="2" fill="#4aff6c" />
<rect x="48" y="20" width="2" height="2" fill="#4aff6c" />
<rect x="56" y="20" width="2" height="2" fill="#4aff6c" />
<rect x="62" y="20" width="2" height="2" fill="#4aff6c" />
<rect x="70" y="20" width="2" height="2" fill="#4aff6c" />
<rect x="38" y="22" width="2" height="2" fill="#4aff6c" />
<rect x="44" y="22" width="2" height="2" fill="#4aff6c" />
<rect x="52" y="22" width="2" height="2" fill="#4aff6c" />
<rect x="56" y="22" width="2" height="2" fill="#4aff6c" />
<rect x="70" y="22" width="2" height="2" fill="#4aff6c" />
<rect x="8" y="24" width="2" height="2" fill="#4aff6c" />
<rect x="10" y="24" width="2" height="2" fill="#4aff6c" />
<rect x="12" y="24" width="2" height="2" fill="#4aff6c" />
<rect x="38" y="24" width="2" height="2" fill="#4aff6c" />
<rect x="42" y="24" width="2" height="2" fill="#4aff6c" />
<rect x="60" y="24" width="2" height="2" fill="#4aff6c" />
<rect x="62" y="24" width="2" height="2" fill="#4aff6c" />
<rect x="68" y="24" width="2" height="2" fill="#4aff6c" />
<rect x="6" y="26" width="2" height="2" fill="#4aff6c" />
<rect x="12" y="26" width="2" height="2" fill="#4aff6c" />
<rect x="42" y="26" width="2" height="2" fill="#4aff6c" />
<rect x="60" y="26" width="2" height="2" fill="#4aff6c" />
<rect x="62" y="26" width="2" height="2" fill="#4aff6c" />
<rect x="64" y="26" width="2" height="2" fill="#4aff6c" />
<rect x="66" y="26" width="2" height="2" fill="#4aff6c" />
<rect x="68" y="26" width="2" height="2" fill="#4aff6c" />
<rect x="12" y="28" width="2" height="2" fill="#4aff6c" />
<rect x="34" y="28" width="2" height="2" fill="#4aff6c" />
<rect x="36" y="28" width="2" height="2" fill="#4aff6c" />
<rect x="38" y="28" width="2" height="2" fill="#4aff6c" />
<rect x="46" y="28" width="2" height="2" fill="#4aff6c" />
<rect x="60" y="28" width="2" height="2" fill="#4aff6c" />
<rect x="62" y="28" width="2" height="2" fill="#4aff6c" />
<rect x="4" y="30" width="2" height="2" fill="#4aff6c" />
<rect x="12" y="30" width="2" height="2" fill="#4aff6c" />
<rect x="66" y="30" width="2" height="2" fill="#4aff6c" />
<rect x="68" y="30" width="2" height="2" fill="#4aff6c" />
<rect x="4" y="32" width="2" height="2" fill="#4aff6c" />
<rect x="12" y="32" width="2" height="2" fill="#4aff6c" />
<rect x="12" y="34" width="2" height="2" fill="#4aff6c" />
<rect x="6" y="36" width="2" height="2" fill="#4aff6c" />
<rect x="10" y="36" width="2" height="2" fill="#4aff6c" />
<rect x="42" y="36" width="2" height="2" fill="#4aff6c" />
<rect x="40" y="38" width="2" height="2" fill="#4aff6c" />
<rect x="42" y="38" width="2" height="2" fill="#4aff6c" />
<rect x="44" y="38" width="2" height="2" fill="#4aff6c" />
<rect x="38" y="40" width="2" height="2" fill="#4aff6c" />
<rect x="40" y="40" width="2" height="2" fill="#4aff6c" />
<rect x="44" y="40" width="2" height="2" fill="#4aff6c" />
<rect x="12" y="42" width="2" height="2" fill="#4aff6c" />
<rect x="38" y="42" width="2" height="2" fill="#4aff6c" />
<rect x="40" y="42" width="2" height="2" fill="#4aff6c" />
<rect x="42" y="42" width="2" height="2" fill="#4aff6c" />
<rect x="10" y="44" width="2" height="2" fill="#4aff6c" />
<rect x="12" y="44" width="2" height="2" fill="#4aff6c" />
<rect x="14" y="44" width="2" height="2" fill="#4aff6c" />
<rect x="38" y="44" width="2" height="2" fill="#4aff6c" />
<rect x="40" y="44" width="2" height="2" fill="#4aff6c" />
<rect x="42" y="44" width="2" height="2" fill="#4aff6c" />
<rect x="10" y="46" width="2" height="2" fill="#4aff6c" />
<rect x="14" y="46" width="2" height="2" fill="#4aff6c" />
<rect x="16" y="46" width="2" height="2" fill="#4aff6c" />
<rect x="38" y="46" width="2" height="2" fill="#4aff6c" />
<rect x="40" y="46" width="2" height="2" fill="#4aff6c" />
<rect x="42" y="46" width="2" height="2" fill="#4aff6c" />
<rect x="12" y="48" width="2" height="2" fill="#4aff6c" />
<rect x="14" y="48" width="2" height="2" fill="#4aff6c" />
<rect x="16" y="48" width="2" height="2" fill="#4aff6c" />
<rect x="40" y="48" width="2" height="2" fill="#4aff6c" />
<rect x="42" y="48" width="2" height="2" fill="#4aff6c" />
<rect x="12" y="50" width="2" height="2" fill="#4aff6c" />
<rect x="14" y="50" width="2" height="2" fill="#4aff6c" />
<rect x="16" y="50" width="2" height="2" fill="#4aff6c" />
<rect x="12" y="52" width="2" height="2" fill="#4aff6c" />
<rect x="14" y="52" width="2" height="2" fill="#4aff6c" />
</svg>