<?xml version="1.0" encoding="utf-8"?>
<svg xmlns="http://www.w3.org/2000/svg" width="92" height="35" viewBox="0 0 92 35">
<rect width="100%" height="100%" fill="transparent" />
<rect x="22" y="4" width="3" height="3" fill="#4aff6c" />
<rect x="79" y="4" width="3" height="3" fill="#4aff6c" />
<rect x="22" y="7" width="3" height="3" fill="#4aff6c" />
<rect x="25" y="7" width="3" height="3" fill="#4aff6c" />
<rect x="79" y="7" width="3" height="3" fill="#4aff6c" />
<rect x="19" y="10" width="3" height="3" fill="#4aff6c" />
<rect x="22" y="10" width="3" height="3" fill="#4aff6c" />
<rect x="79" y="10" width="3" height="3" fill="#4aff6c" />
<rect x="82" y="10" width="3" height="3" fill="#4aff6c" />
<rect x="85" y="10" width="3" height="3" fill="#4aff6c" />
<rect x="85" y="13" width="3" height="3" fill="#4aff6c" />
<rect x="7" y="19" width="3" height="3" fill="#4aff6c" />
<rect x="10" y="19" width="3" height="3" fill="#4aff6c" />
<rect x="4" y="22" width="3" height="3" fill="#4aff6c" />
<rect x="13" y="22" width="3" height="3" fill="#4aff6c" />
<rect x="4" y="25" width="3" height="3" fill="#4aff6c" />
<rect x="10" y="25" width="3" height="3" fill="#4aff6c" />
<rect x="7" y="28" width="3" height="3" fill="#4aff6c" />
</svg>