<?xml version="1.0" encoding="utf-8"?>
<svg xmlns="http://www.w3.org/2000/svg" width="39" height="63" viewBox="0 0 39 63">
<rect width="100%" height="100%" fill="transparent" />
<rect x="18" y="4" width="1" height="1" fill="#4aff6c" />
<rect x="19" y="4" width="1" height="1" fill="#4aff6c" />
<rect x="15" y="5" width="1" height="1" fill="#4aff6c" />
<rect x="16" y="5" width="1" height="1" fill="#4aff6c" />
<rect x="19" y="5" width="1" height="1" fill="#4aff6c" />
<rect x="13" y="6" width="1" height="1" fill="#4aff6c" />
<rect x="14" y="6" width="1" height="1" fill="#4aff6c" />
<rect x="15" y="6" width="1" height="1" fill="#4aff6c" />
<rect x="17" y="6" width="1" height="1" fill="#4aff6c" />
<rect x="18" y="6" width="1" height="1" fill="#4aff6c" />
<rect x="25" y="6" width="1" height="1" fill="#4aff6c" />
<rect x="12" y="7" width="1" height="1" fill="#4aff6c" />
<rect x="23" y="7" width="1" height="1" fill="#4aff6c" />
<rect x="24" y="7" width="1" height="1" fill="#4aff6c" />
<rect x="25" y="7" width="1" height="1" fill="#4aff6c" />
<rect x="13" y="8" width="1" height="1" fill="#4aff6c" />
<rect x="14" y="8" width="1" height="1" fill="#4aff6c" />
<rect x="15" y="8" width="1" height="1" fill="#4aff6c" />
<rect x="17" y="8" width="1" height="1" fill="#4aff6c" />
<rect x="18" y="8" width="1" height="1" fill="#4aff6c" />
<rect x="22" y="8" width="1" height="1" fill="#4aff6c" />
<rect x="15" y="9" width="1" height="1" fill="#4aff6c" />
<rect x="17" y="9" width="1" height="1" fill="#4aff6c" />
<rect x="18" y="9" width="1" height="1" fill="#4aff6c" />
<rect x="22" y="9" width="1" height="1" fill="#4aff6c" />
<rect x="23" y="9" width="1" height="1" fill="#4aff6c" />
<rect x="27" y="14" width="1" height="1" fill="#4aff6c" />
<rect x="28" y="14" width="1" height="1" fill="#4aff6c" />
<rect x="27" y="15" width="1" height="1" fill="#4aff6c" />
<rect x="25" y="16" width="1" height="1" fill="#4aff6c" />
<rect x="27" y="16" width="1" height="1" fill="#4aff6c" />
<rect x="25" y="17" width="1" height="1" fill="#4aff6c" />
<rect x="26" y="17" width="1" height="1" fill="#4aff6c" />
<rect x="7" y="23" width="1" height="1" fill="#4aff6c" />
<rect x="7" y="24" width="1" height="1" fill="#4aff6c" />
<rect x="9" y="24" width="1" height="1" fill="#4aff6c" />
<rect x="7" y="25" width="1" height="1" fill="#4aff6c" />
<rect x="8" y="25" width="1" height="1" fill="#4aff6c" />
<rect x="9" y="25" width="1" height="1" fill="#4aff6c" />
<rect x="9" y="26" width="1" height="1" fill="#4aff6c" />
<rect x="26" y="27" width="1" height="1" fill="#4aff6c" />
<rect x="27" y="27" width="1" height="1" fill="#4aff6c" />
<rect x="26" y="28" width="1" height="1" fill="#4aff6c" />
<rect x="27" y="28" width="1" height="1" fill="#4aff6c" />
<rect x="4" y="36" width="1" height="1" fill="#4aff6c" />
<rect x="6" y="36" width="1" height="1" fill="#4aff6c" />
<rect x="7" y="36" width="1" height="1" fill="#4aff6c" />
<rect x="4" y="37" width="1" height="1" fill="#4aff6c" />
<rect x="5" y="37" width="1" height="1" fill="#4aff6c" />
<rect x="7" y="37" width="1" height="1" fill="#4aff6c" />
<rect x="25" y="38" width="1" height="1" fill="#4aff6c" />
<rect x="26" y="38" width="1" height="1" fill="#4aff6c" />
<rect x="13" y="39" width="1" height="1" fill="#4aff6c" />
<rect x="14" y="39" width="1" height="1" fill="#4aff6c" />
<rect x="24" y="39" width="1" height="1" fill="#4aff6c" />
<rect x="27" y="39" width="1" height="1" fill="#4aff6c" />
<rect x="30" y="39" width="1" height="1" fill="#4aff6c" />
<rect x="31" y="39" width="1" height="1" fill="#4aff6c" />
<rect x="13" y="40" width="1" height="1" fill="#4aff6c" />
<rect x="14" y="40" width="1" height="1" fill="#4aff6c" />
<rect x="24" y="40" width="1" height="1" fill="#4aff6c" />
<rect x="26" y="40" width="1" height="1" fill="#4aff6c" />
<rect x="31" y="40" width="1" height="1" fill="#4aff6c" />
<rect x="25" y="41" width="1" height="1" fill="#4aff6c" />
<rect x="31" y="41" width="1" height="1" fill="#4aff6c" />
<rect x="33" y="41" width="1" height="1" fill="#4aff6c" />
<rect x="34" y="41" width="1" height="1" fill="#4aff6c" />
<rect x="28" y="42" width="1" height="1" fill="#4aff6c" />
<rect x="29" y="42" width="1" height="1" fill="#4aff6c" />
<rect x="31" y="42" width="1" height="1" fill="#4aff6c" />
<rect x="33" y="42" width="1" height="1" fill="#4aff6c" />
<rect x="28" y="43" width="1" height="1" fill="#4aff6c" />
<rect x="31" y="43" width="1" height="1" fill="#4aff6c" />
<rect x="34" y="43" width="1" height="1" fill="#4aff6c" />
<rect x="25" y="44" width="1" height="1" fill="#4aff6c" />
<rect x="30" y="44" width="1" height="1" fill="#4aff6c" />
<rect x="33" y="44" width="1" height="1" fill="#4aff6c" />
<rect x="34" y="44" width="1" height="1" fill="#4aff6c" />
<rect x="25" y="45" width="1" height="1" fill="#4aff6c" />
<rect x="26" y="45" width="1" height="1" fill="#4aff6c" />
<rect x="27" y="45" width="1" height="1" fill="#4aff6c" />
<rect x="28" y="45" width="1" height="1" fill="#4aff6c" />
<rect x="29" y="45" width="1" height="1" fill="#4aff6c" />
<rect x="23" y="47" width="1" height="1" fill="#4aff6c" />
<rect x="24" y="47" width="1" height="1" fill="#4aff6c" />
<rect x="25" y="47" width="1" height="1" fill="#4aff6c" />
<rect x="26" y="47" width="1" height="1" fill="#4aff6c" />
<rect x="27" y="47" width="1" height="1" fill="#4aff6c" />
<rect x="28" y="47" width="1" height="1" fill="#4aff6c" />
<rect x="29" y="47" width="1" height="1" fill="#4aff6c" />
<rect x="23" y="48" width="1" height="1" fill="#4aff6c" />
<rect x="26" y="48" width="1" height="1" fill="#4aff6c" />
<rect x="29" y="48" width="1" height="1" fill="#4aff6c" />
<rect x="21" y="49" width="1" height="1" fill="#4aff6c" />
<rect x="23" y="49" width="1" height="1" fill="#4aff6c" />
<rect x="21" y="50" width="1" height="1" fill="#4aff6c" />
<rect x="22" y="50" width="1" height="1" fill="#4aff6c" />
<rect x="13" y="56" width="1" height="1" fill="#4aff6c" />
<rect x="14" y="56" width="1" height="1" fill="#4aff6c" />
<rect x="15" y="56" width="1" height="1" fill="#4aff6c" />
<rect x="15" y="57" width="1" height="1" fill="#4aff6c" />
<rect x="15" y="58" width="1" height="1" fill="#4aff6c" />
<rect x="16" y="58" width="1" height="1" fill="#4aff6c" />
</svg>