<?xml version="1.0" encoding="utf-8"?>
<svg xmlns="http://www.w3.org/2000/svg" width="56" height="86" viewBox="0 0 56 86">
<rect width="100%" height="100%" fill="transparent" />
<rect x="4" y="4" width="6" height="6" fill="#4aff6c" />
<rect x="10" y="4" width="6" height="6" fill="#4aff6c" />
<rect x="4" y="10" width="6" height="6" fill="#4aff6c" />
<rect x="16" y="10" width="6" height="6" fill="#4aff6c" />
<rect x="10" y="16" width="6" height="6" fill="#4aff6c" />
<rect x="16" y="16" width="6" height="6" fill="#4aff6c" />
<rect x="22" y="22" width="6" height="6" fill="#4aff6c" />
<rect x="28" y="22" width="6" height="6" fill="#4aff6c" />
<rect x="22" y="28" width="6" height="6" fill="#4aff6c" />
<rect x="34" y="28" width="6" height="6" fill="#4aff6c" />
<rect x="28" y="34" width="6" height="6" fill="#4aff6c" />
<rect x="34" y="34" width="6" height="6" fill="#4aff6c" />
<rect x="4" y="46" width="6" height="6" fill="#4aff6c" />
<rect x="4" y="52" width="6" height="6" fill="#4aff6c" />
<rect x="10" y="52" width="6" height="6" fill="#4aff6c" />
<rect x="4" y="58" width="6" height="6" fill="#4aff6c" />
<rect x="4" y="64" width="6" height="6" fill="#4aff6c" />
<rect x="10" y="64" width="6" height="6" fill="#4aff6c" />
<rect x="16" y="64" width="6" height="6" fill="#4aff6c" />
<rect x="34" y="64" width="6" height="6" fill="#4aff6c" />
<rect x="40" y="64" width="6" height="6" fill="#4aff6c" />
<rect x="16" y="70" width="6" height="6" fill="#4aff6c" />
<rect x="34" y="70" width="6" height="6" fill="#4aff6c" />
<rect x="46" y="70" width="6" height="6" fill="#4aff6c" />
<rect x="10" y="76" width="6" height="6" fill="#4aff6c" />
<rect x="40" y="76" width="6" height="6" fill="#4aff6c" />
<rect x="46" y="76" width="6" height="6" fill="#4aff6c" />
</svg>