<?xml version="1.0" encoding="utf-8"?>
<svg xmlns="http://www.w3.org/2000/svg" width="74" height="48" viewBox="0 0 74 48">
<rect width="100%" height="100%" fill="transparent" />
<rect x="4" y="4" width="2" height="2" fill="#4aff6c" />
<rect x="6" y="4" width="2" height="2" fill="#4aff6c" />
<rect x="18" y="4" width="2" height="2" fill="#4aff6c" />
<rect x="20" y="4" width="2" height="2" fill="#4aff6c" />
<rect x="4" y="6" width="2" height="2" fill="#4aff6c" />
<rect x="6" y="6" width="2" height="2" fill="#4aff6c" />
<rect x="18" y="6" width="2" height="2" fill="#4aff6c" />
<rect x="20" y="6" width="2" height="2" fill="#4aff6c" />
<rect x="12" y="10" width="2" height="2" fill="#4aff6c" />
<rect x="14" y="10" width="2" height="2" fill="#4aff6c" />
<rect x="12" y="12" width="2" height="2" fill="#4aff6c" />
<rect x="14" y="12" width="2" height="2" fill="#4aff6c" />
<rect x="48" y="22" width="2" height="2" fill="#4aff6c" />
<rect x="50" y="22" width="2" height="2" fill="#4aff6c" />
<rect x="54" y="22" width="2" height="2" fill="#4aff6c" />
<rect x="56" y="22" width="2" height="2" fill="#4aff6c" />
<rect x="46" y="24" width="2" height="2" fill="#4aff6c" />
<rect x="58" y="24" width="2" height="2" fill="#4aff6c" />
<rect x="46" y="26" width="2" height="2" fill="#4aff6c" />
<rect x="60" y="26" width="2" height="2" fill="#4aff6c" />
<rect x="66" y="26" width="2" height="2" fill="#4aff6c" />
<rect x="68" y="26" width="2" height="2" fill="#4aff6c" />
<rect x="46" y="28" width="2" height="2" fill="#4aff6c" />
<rect x="48" y="28" width="2" height="2" fill="#4aff6c" />
<rect x="50" y="28" width="2" height="2" fill="#4aff6c" />
<rect x="58" y="28" width="2" height="2" fill="#4aff6c" />
<rect x="66" y="28" width="2" height="2" fill="#4aff6c" />
<rect x="68" y="28" width="2" height="2" fill="#4aff6c" />
<rect x="56" y="30" width="2" height="2" fill="#4aff6c" />
<rect x="52" y="40" width="2" height="2" fill="#4aff6c" />
<rect x="56" y="40" width="2" height="2" fill="#4aff6c" />
<rect x="58" y="40" width="2" height="2" fill="#4aff6c" />
<rect x="52" y="42" width="2" height="2" fill="#4aff6c" />
<rect x="54" y="42" width="2" height="2" fill="#4aff6c" />
<rect x="58" y="42" width="2" height="2" fill="#4aff6c" />
</svg>