<?xml version="1.0" encoding="utf-8"?>
<svg xmlns="http://www.w3.org/2000/svg" width="70" height="40" viewBox="0 0 70 40">
<rect width="100%" height="100%" fill="transparent" />
<rect x="4" y="4" width="2" height="2" fill="#4aff6c" />
<rect x="6" y="4" width="2" height="2" fill="#4aff6c" />
<rect x="8" y="4" width="2" height="2" fill="#4aff6c" />
<rect x="10" y="4" width="2" height="2" fill="#4aff6c" />
<rect x="16" y="4" width="2" height="2" fill="#4aff6c" />
<rect x="18" y="4" width="2" height="2" fill="#4aff6c" />
<rect x="22" y="4" width="2" height="2" fill="#4aff6c" />
<rect x="24" y="4" width="2" height="2" fill="#4aff6c" />
<rect x="26" y="4" width="2" height="2" fill="#4aff6c" />
<rect x="30" y="4" width="2" height="2" fill="#4aff6c" />
<rect x="38" y="4" width="2" height="2" fill="#4aff6c" />
<rect x="42" y="4" width="2" height="2" fill="#4aff6c" />
<rect x="44" y="4" width="2" height="2" fill="#4aff6c" />
<rect x="46" y="4" width="2" height="2" fill="#4aff6c" />
<rect x="50" y="4" width="2" height="2" fill="#4aff6c" />
<rect x="52" y="4" width="2" height="2" fill="#4aff6c" />
<rect x="58" y="4" width="2" height="2" fill="#4aff6c" />
<rect x="60" y="4" width="2" height="2" fill="#4aff6c" />
<rect x="62" y="4" width="2" height="2" fill="#4aff6c" />
<rect x="64" y="4" width="2" height="2" fill="#4aff6c" />
<rect x="6" y="6" width="2" height="2" fill="#4aff6c" />
<rect x="10" y="6" width="2" height="2" fill="#4aff6c" />
<rect x="14" y="6" width="2" height="2" fill="#4aff6c" />
<rect x="16" y="6" width="2" height="2" fill="#4aff6c" />
<rect x="20" y="6" width="2" height="2" fill="#4aff6c" />
<rect x="48" y="6" width="2" height="2" fill="#4aff6c" />
<rect x="52" y="6" width="2" height="2" fill="#4aff6c" />
<rect x="54" y="6" width="2" height="2" fill="#4aff6c" />
<rect x="58" y="6" width="2" height="2" fill="#4aff6c" />
<rect x="62" y="6" width="2" height="2" fill="#4aff6c" />
<rect x="8" y="8" width="2" height="2" fill="#4aff6c" />
<rect x="10" y="8" width="2" height="2" fill="#4aff6c" />
<rect x="12" y="8" width="2" height="2" fill="#4aff6c" />
<rect x="18" y="8" width="2" height="2" fill="#4aff6c" />
<rect x="22" y="8" width="2" height="2" fill="#4aff6c" />
<rect x="26" y="8" width="2" height="2" fill="#4aff6c" />
<rect x="42" y="8" width="2" height="2" fill="#4aff6c" />
<rect x="46" y="8" width="2" height="2" fill="#4aff6c" />
<rect x="50" y="8" width="2" height="2" fill="#4aff6c" />
<rect x="56" y="8" width="2" height="2" fill="#4aff6c" />
<rect x="58" y="8" width="2" height="2" fill="#4aff6c" />
<rect x="60" y="8" width="2" height="2" fill="#4aff6c" />
<rect x="4" y="10" width="2" height="2" fill="#4aff6c" />
<rect x="8" y="10" width="2" height="2" fill="#4aff6c" />
<rect x="10" y="10" width="2" height="2" fill="#4aff6c" />
<rect x="14" y="10" width="2" height="2" fill="#4aff6c" />
<rect x="16" y="10" width="2" height="2" fill="#4aff6c" />
<rect x="18" y="10" width="2" height="2" fill="#4aff6c" />
<rect x="22" y="10" width="2" height="2" fill="#4aff6c" />
<rect x="28" y="10" width="2" height="2" fill="#4aff6c" />
<rect x="40" y="10" width="2" height="2" fill="#4aff6c" />
<rect x="46" y="10" width="2" height="2" fill="#4aff6c" />
<rect x="50" y="10" width="2" height="2" fill="#4aff6c" />
<rect x="52" y="10" width="2" height="2" fill="#4aff6c" />
<rect x="54" y="10" width="2" height="2" fill="#4aff6c" />
<rect x="58" y="10" width="2" height="2" fill="#4aff6c" />
<rect x="60" y="10" width="2" height="2" fill="#4aff6c" />
<rect x="64" y="10" width="2" height="2" fill="#4aff6c" />
<rect x="6" y="12" width="2" height="2" fill="#4aff6c" />
<rect x="8" y="12" width="2" height="2" fill="#4aff6c" />
<rect x="10" y="12" width="2" height="2" fill="#4aff6c" />
<rect x="12" y="12" width="2" height="2" fill="#4aff6c" />
<rect x="16" y="12" width="2" height="2" fill="#4aff6c" />
<rect x="24" y="12" width="2" height="2" fill="#4aff6c" />
<rect x="26" y="12" width="2" height="2" fill="#4aff6c" />
<rect x="30" y="12" width="2" height="2" fill="#4aff6c" />
<rect x="32" y="12" width="2" height="2" fill="#4aff6c" />
<rect x="34" y="12" width="2" height="2" fill="#4aff6c" />
<rect x="36" y="12" width="2" height="2" fill="#4aff6c" />
<rect x="38" y="12" width="2" height="2" fill="#4aff6c" />
<rect x="42" y="12" width="2" height="2" fill="#4aff6c" />
<rect x="44" y="12" width="2" height="2" fill="#4aff6c" />
<rect x="52" y="12" width="2" height="2" fill="#4aff6c" />
<rect x="56" y="12" width="2" height="2" fill="#4aff6c" />
<rect x="58" y="12" width="2" height="2" fill="#4aff6c" />
<rect x="60" y="12" width="2" height="2" fill="#4aff6c" />
<rect x="62" y="12" width="2" height="2" fill="#4aff6c" />
<rect x="14" y="14" width="2" height="2" fill="#4aff6c" />
<rect x="16" y="14" width="2" height="2" fill="#4aff6c" />
<rect x="24" y="14" width="2" height="2" fill="#4aff6c" />
<rect x="26" y="14" width="2" height="2" fill="#4aff6c" />
<rect x="30" y="14" width="2" height="2" fill="#4aff6c" />
<rect x="34" y="14" width="2" height="2" fill="#4aff6c" />
<rect x="38" y="14" width="2" height="2" fill="#4aff6c" />
<rect x="42" y="14" width="2" height="2" fill="#4aff6c" />
<rect x="44" y="14" width="2" height="2" fill="#4aff6c" />
<rect x="52" y="14" width="2" height="2" fill="#4aff6c" />
<rect x="54" y="14" width="2" height="2" fill="#4aff6c" />
<rect x="8" y="16" width="2" height="2" fill="#4aff6c" />
<rect x="10" y="16" width="2" height="2" fill="#4aff6c" />
<rect x="12" y="16" width="2" height="2" fill="#4aff6c" />
<rect x="20" y="16" width="2" height="2" fill="#4aff6c" />
<rect x="22" y="16" width="2" height="2" fill="#4aff6c" />
<rect x="30" y="16" width="2" height="2" fill="#4aff6c" />
<rect x="38" y="16" width="2" height="2" fill="#4aff6c" />
<rect x="46" y="16" width="2" height="2" fill="#4aff6c" />
<rect x="48" y="16" width="2" height="2" fill="#4aff6c" />
<rect x="56" y="16" width="2" height="2" fill="#4aff6c" />
<rect x="58" y="16" width="2" height="2" fill="#4aff6c" />
<rect x="60" y="16" width="2" height="2" fill="#4aff6c" />
<rect x="4" y="18" width="2" height="2" fill="#4aff6c" />
<rect x="10" y="18" width="2" height="2" fill="#4aff6c" />
<rect x="16" y="18" width="2" height="2" fill="#4aff6c" />
<rect x="20" y="18" width="2" height="2" fill="#4aff6c" />
<rect x="22" y="18" width="2" height="2" fill="#4aff6c" />
<rect x="30" y="18" width="2" height="2" fill="#4aff6c" />
<rect x="32" y="18" width="2" height="2" fill="#4aff6c" />
<rect x="36" y="18" width="2" height="2" fill="#4aff6c" />
<rect x="38" y="18" width="2" height="2" fill="#4aff6c" />
<rect x="46" y="18" width="2" height="2" fill="#4aff6c" />
<rect x="48" y="18" width="2" height="2" fill="#4aff6c" />
<rect x="52" y="18" width="2" height="2" fill="#4aff6c" />
<rect x="58" y="18" width="2" height="2" fill="#4aff6c" />
<rect x="64" y="18" width="2" height="2" fill="#4aff6c" />
<rect x="4" y="20" width="2" height="2" fill="#4aff6c" />
<rect x="6" y="20" width="2" height="2" fill="#4aff6c" />
<rect x="10" y="20" width="2" height="2" fill="#4aff6c" />
<rect x="16" y="20" width="2" height="2" fill="#4aff6c" />
<rect x="24" y="20" width="2" height="2" fill="#4aff6c" />
<rect x="44" y="20" width="2" height="2" fill="#4aff6c" />
<rect x="52" y="20" width="2" height="2" fill="#4aff6c" />
<rect x="58" y="20" width="2" height="2" fill="#4aff6c" />
<rect x="62" y="20" width="2" height="2" fill="#4aff6c" />
<rect x="64" y="20" width="2" height="2" fill="#4aff6c" />
<rect x="4" y="22" width="2" height="2" fill="#4aff6c" />
<rect x="8" y="22" width="2" height="2" fill="#4aff6c" />
<rect x="12" y="22" width="2" height="2" fill="#4aff6c" />
<rect x="20" y="22" width="2" height="2" fill="#4aff6c" />
<rect x="22" y="22" width="2" height="2" fill="#4aff6c" />
<rect x="24" y="22" width="2" height="2" fill="#4aff6c" />
<rect x="26" y="22" width="2" height="2" fill="#4aff6c" />
<rect x="32" y="22" width="2" height="2" fill="#4aff6c" />
<rect x="34" y="22" width="2" height="2" fill="#4aff6c" />
<rect x="36" y="22" width="2" height="2" fill="#4aff6c" />
<rect x="42" y="22" width="2" height="2" fill="#4aff6c" />
<rect x="44" y="22" width="2" height="2" fill="#4aff6c" />
<rect x="46" y="22" width="2" height="2" fill="#4aff6c" />
<rect x="48" y="22" width="2" height="2" fill="#4aff6c" />
<rect x="56" y="22" width="2" height="2" fill="#4aff6c" />
<rect x="60" y="22" width="2" height="2" fill="#4aff6c" />
<rect x="64" y="22" width="2" height="2" fill="#4aff6c" />
<rect x="4" y="24" width="2" height="2" fill="#4aff6c" />
<rect x="8" y="24" width="2" height="2" fill="#4aff6c" />
<rect x="10" y="24" width="2" height="2" fill="#4aff6c" />
<rect x="12" y="24" width="2" height="2" fill="#4aff6c" />
<rect x="16" y="24" width="2" height="2" fill="#4aff6c" />
<rect x="18" y="24" width="2" height="2" fill="#4aff6c" />
<rect x="24" y="24" width="2" height="2" fill="#4aff6c" />
<rect x="26" y="24" width="2" height="2" fill="#4aff6c" />
<rect x="34" y="24" width="2" height="2" fill="#4aff6c" />
<rect x="42" y="24" width="2" height="2" fill="#4aff6c" />
<rect x="44" y="24" width="2" height="2" fill="#4aff6c" />
<rect x="50" y="24" width="2" height="2" fill="#4aff6c" />
<rect x="52" y="24" width="2" height="2" fill="#4aff6c" />
<rect x="56" y="24" width="2" height="2" fill="#4aff6c" />
<rect x="58" y="24" width="2" height="2" fill="#4aff6c" />
<rect x="60" y="24" width="2" height="2" fill="#4aff6c" />
<rect x="64" y="24" width="2" height="2" fill="#4aff6c" />
<rect x="8" y="26" width="2" height="2" fill="#4aff6c" />
<rect x="20" y="26" width="2" height="2" fill="#4aff6c" />
<rect x="22" y="26" width="2" height="2" fill="#4aff6c" />
<rect x="30" y="26" width="2" height="2" fill="#4aff6c" />
<rect x="38" y="26" width="2" height="2" fill="#4aff6c" />
<rect x="46" y="26" width="2" height="2" fill="#4aff6c" />
<rect x="48" y="26" width="2" height="2" fill="#4aff6c" />
<rect x="60" y="26" width="2" height="2" fill="#4aff6c" />
<rect x="4" y="28" width="2" height="2" fill="#4aff6c" />
<rect x="6" y="28" width="2" height="2" fill="#4aff6c" />
<rect x="8" y="28" width="2" height="2" fill="#4aff6c" />
<rect x="10" y="28" width="2" height="2" fill="#4aff6c" />
<rect x="12" y="28" width="2" height="2" fill="#4aff6c" />
<rect x="16" y="28" width="2" height="2" fill="#4aff6c" />
<rect x="20" y="28" width="2" height="2" fill="#4aff6c" />
<rect x="22" y="28" width="2" height="2" fill="#4aff6c" />
<rect x="24" y="28" width="2" height="2" fill="#4aff6c" />
<rect x="30" y="28" width="2" height="2" fill="#4aff6c" />
<rect x="38" y="28" width="2" height="2" fill="#4aff6c" />
<rect x="44" y="28" width="2" height="2" fill="#4aff6c" />
<rect x="46" y="28" width="2" height="2" fill="#4aff6c" />
<rect x="48" y="28" width="2" height="2" fill="#4aff6c" />
<rect x="52" y="28" width="2" height="2" fill="#4aff6c" />
<rect x="56" y="28" width="2" height="2" fill="#4aff6c" />
<rect x="58" y="28" width="2" height="2" fill="#4aff6c" />
<rect x="60" y="28" width="2" height="2" fill="#4aff6c" />
<rect x="62" y="28" width="2" height="2" fill="#4aff6c" />
<rect x="64" y="28" width="2" height="2" fill="#4aff6c" />
<rect x="6" y="30" width="2" height="2" fill="#4aff6c" />
<rect x="16" y="30" width="2" height="2" fill="#4aff6c" />
<rect x="26" y="30" width="2" height="2" fill="#4aff6c" />
<rect x="32" y="30" width="2" height="2" fill="#4aff6c" />
<rect x="34" y="30" width="2" height="2" fill="#4aff6c" />
<rect x="36" y="30" width="2" height="2" fill="#4aff6c" />
<rect x="42" y="30" width="2" height="2" fill="#4aff6c" />
<rect x="52" y="30" width="2" height="2" fill="#4aff6c" />
<rect x="62" y="30" width="2" height="2" fill="#4aff6c" />
<rect x="6" y="32" width="2" height="2" fill="#4aff6c" />
<rect x="8" y="32" width="2" height="2" fill="#4aff6c" />
<rect x="12" y="32" width="2" height="2" fill="#4aff6c" />
<rect x="20" y="32" width="2" height="2" fill="#4aff6c" />
<rect x="22" y="32" width="2" height="2" fill="#4aff6c" />
<rect x="24" y="32" width="2" height="2" fill="#4aff6c" />
<rect x="26" y="32" width="2" height="2" fill="#4aff6c" />
<rect x="28" y="32" width="2" height="2" fill="#4aff6c" />
<rect x="30" y="32" width="2" height="2" fill="#4aff6c" />
<rect x="32" y="32" width="2" height="2" fill="#4aff6c" />
<rect x="34" y="32" width="2" height="2" fill="#4aff6c" />
<rect x="36" y="32" width="2" height="2" fill="#4aff6c" />
<rect x="38" y="32" width="2" height="2" fill="#4aff6c" />
<rect x="40" y="32" width="2" height="2" fill="#4aff6c" />
<rect x="42" y="32" width="2" height="2" fill="#4aff6c" />
<rect x="44" y="32" width="2" height="2" fill="#4aff6c" />
<rect x="46" y="32" width="2" height="2" fill="#4aff6c" />
<rect x="48" y="32" width="2" height="2" fill="#4aff6c" />
<rect x="56" y="32" width="2" height="2" fill="#4aff6c" />
<rect x="60" y="32" width="2" height="2" fill="#4aff6c" />
<rect x="62" y="32" width="2" height="2" fill="#4aff6c" />
<rect x="4" y="34" width="2" height="2" fill="#4aff6c" />
<rect x="6" y="34" width="2" height="2" fill="#4aff6c" />
<rect x="8" y="34" width="2" height="2" fill="#4aff6c" />
<rect x="10" y="34" width="2" height="2" fill="#4aff6c" />
<rect x="14" y="34" width="2" height="2" fill="#4aff6c" />
<rect x="16" y="34" width="2" height="2" fill="#4aff6c" />
<rect x="18" y="34" width="2" height="2" fill="#4aff6c" />
<rect x="32" y="34" width="2" height="2" fill="#4aff6c" />
<rect x="36" y="34" width="2" height="2" fill="#4aff6c" />
<rect x="50" y="34" width="2" height="2" fill="#4aff6c" />
<rect x="52" y="34" width="2" height="2" fill="#4aff6c" />
<rect x="54" y="34" width="2" height="2" fill="#4aff6c" />
<rect x="58" y="34" width="2" height="2" fill="#4aff6c" />
<rect x="60" y="34" width="2" height="2" fill="#4aff6c" />
<rect x="62" y="34" width="2" height="2" fill="#4aff6c" />
<rect x="64" y="34" width="2" height="2" fill="#4aff6c" />
</svg>