<?xml version="1.0" encoding="utf-8"?>
<svg xmlns="http://www.w3.org/2000/svg" width="80" height="30" viewBox="0 0 80 30">
<rect width="100%" height="100%" fill="transparent" />
<rect x="8" y="4" width="2" height="2" fill="#4aff6c" />
<rect x="28" y="4" width="2" height="2" fill="#4aff6c" />
<rect x="30" y="4" width="2" height="2" fill="#4aff6c" />
<rect x="48" y="4" width="2" height="2" fill="#4aff6c" />
<rect x="70" y="4" width="2" height="2" fill="#4aff6c" />
<rect x="72" y="4" width="2" height="2" fill="#4aff6c" />
<rect x="4" y="6" width="2" height="2" fill="#4aff6c" />
<rect x="8" y="6" width="2" height="2" fill="#4aff6c" />
<rect x="26" y="6" width="2" height="2" fill="#4aff6c" />
<rect x="28" y="6" width="2" height="2" fill="#4aff6c" />
<rect x="44" y="6" width="2" height="2" fill="#4aff6c" />
<rect x="48" y="6" width="2" height="2" fill="#4aff6c" />
<rect x="70" y="6" width="2" height="2" fill="#4aff6c" />
<rect x="74" y="6" width="2" height="2" fill="#4aff6c" />
<rect x="6" y="8" width="2" height="2" fill="#4aff6c" />
<rect x="8" y="8" width="2" height="2" fill="#4aff6c" />
<rect x="30" y="8" width="2" height="2" fill="#4aff6c" />
<rect x="46" y="8" width="2" height="2" fill="#4aff6c" />
<rect x="48" y="8" width="2" height="2" fill="#4aff6c" />
<rect x="70" y="8" width="2" height="2" fill="#4aff6c" />
<rect x="12" y="10" width="2" height="2" fill="#4aff6c" />
<rect x="14" y="10" width="2" height="2" fill="#4aff6c" />
<rect x="20" y="10" width="2" height="2" fill="#4aff6c" />
<rect x="22" y="10" width="2" height="2" fill="#4aff6c" />
<rect x="54" y="10" width="2" height="2" fill="#4aff6c" />
<rect x="56" y="10" width="2" height="2" fill="#4aff6c" />
<rect x="62" y="10" width="2" height="2" fill="#4aff6c" />
<rect x="64" y="10" width="2" height="2" fill="#4aff6c" />
<rect x="6" y="12" width="2" height="2" fill="#4aff6c" />
<rect x="14" y="12" width="2" height="2" fill="#4aff6c" />
<rect x="20" y="12" width="2" height="2" fill="#4aff6c" />
<rect x="22" y="12" width="2" height="2" fill="#4aff6c" />
<rect x="48" y="12" width="2" height="2" fill="#4aff6c" />
<rect x="56" y="12" width="2" height="2" fill="#4aff6c" />
<rect x="62" y="12" width="2" height="2" fill="#4aff6c" />
<rect x="64" y="12" width="2" height="2" fill="#4aff6c" />
<rect x="6" y="14" width="2" height="2" fill="#4aff6c" />
<rect x="8" y="14" width="2" height="2" fill="#4aff6c" />
<rect x="10" y="14" width="2" height="2" fill="#4aff6c" />
<rect x="12" y="14" width="2" height="2" fill="#4aff6c" />
<rect x="40" y="14" width="2" height="2" fill="#4aff6c" />
<rect x="42" y="14" width="2" height="2" fill="#4aff6c" />
<rect x="48" y="14" width="2" height="2" fill="#4aff6c" />
<rect x="50" y="14" width="2" height="2" fill="#4aff6c" />
<rect x="52" y="14" width="2" height="2" fill="#4aff6c" />
<rect x="54" y="14" width="2" height="2" fill="#4aff6c" />
<rect x="40" y="16" width="2" height="2" fill="#4aff6c" />
<rect x="6" y="18" width="2" height="2" fill="#4aff6c" />
<rect x="8" y="18" width="2" height="2" fill="#4aff6c" />
<rect x="42" y="18" width="2" height="2" fill="#4aff6c" />
<rect x="44" y="18" width="2" height="2" fill="#4aff6c" />
<rect x="46" y="18" width="2" height="2" fill="#4aff6c" />
<rect x="48" y="18" width="2" height="2" fill="#4aff6c" />
<rect x="50" y="18" width="2" height="2" fill="#4aff6c" />
<rect x="6" y="20" width="2" height="2" fill="#4aff6c" />
<rect x="8" y="20" width="2" height="2" fill="#4aff6c" />
<rect x="52" y="20" width="2" height="2" fill="#4aff6c" />
<rect x="46" y="22" width="2" height="2" fill="#4aff6c" />
<rect x="48" y="22" width="2" height="2" fill="#4aff6c" />
<rect x="50" y="22" width="2" height="2" fill="#4aff6c" />
<rect x="46" y="24" width="2" height="2" fill="#4aff6c" />
</svg>