<?xml version="1.0" encoding="utf-8"?>
<svg xmlns="http://www.w3.org/2000/svg" width="70" height="22" viewBox="0 0 70 22">
<rect width="100%" height="100%" fill="transparent" />
<rect x="16" y="4" width="2" height="2" fill="#4aff6c" />
<rect x="24" y="4" width="2" height="2" fill="#4aff6c" />
<rect x="26" y="4" width="2" height="2" fill="#4aff6c" />
<rect x="28" y="4" width="2" height="2" fill="#4aff6c" />
<rect x="40" y="4" width="2" height="2" fill="#4aff6c" />
<rect x="42" y="4" width="2" height="2" fill="#4aff6c" />
<rect x="44" y="4" width="2" height="2" fill="#4aff6c" />
<rect x="52" y="4" width="2" height="2" fill="#4aff6c" />
<rect x="10" y="6" width="2" height="2" fill="#4aff6c" />
<rect x="12" y="6" width="2" height="2" fill="#4aff6c" />
<rect x="16" y="6" width="2" height="2" fill="#4aff6c" />
<rect x="18" y="6" width="2" height="2" fill="#4aff6c" />
<rect x="20" y="6" width="2" height="2" fill="#4aff6c" />
<rect x="22" y="6" width="2" height="2" fill="#4aff6c" />
<rect x="24" y="6" width="2" height="2" fill="#4aff6c" />
<rect x="28" y="6" width="2" height="2" fill="#4aff6c" />
<rect x="30" y="6" width="2" height="2" fill="#4aff6c" />
<rect x="38" y="6" width="2" height="2" fill="#4aff6c" />
<rect x="40" y="6" width="2" height="2" fill="#4aff6c" />
<rect x="44" y="6" width="2" height="2" fill="#4aff6c" />
<rect x="46" y="6" width="2" height="2" fill="#4aff6c" />
<rect x="48" y="6" width="2" height="2" fill="#4aff6c" />
<rect x="50" y="6" width="2" height="2" fill="#4aff6c" />
<rect x="52" y="6" width="2" height="2" fill="#4aff6c" />
<rect x="56" y="6" width="2" height="2" fill="#4aff6c" />
<rect x="58" y="6" width="2" height="2" fill="#4aff6c" />
<rect x="6" y="8" width="2" height="2" fill="#4aff6c" />
<rect x="10" y="8" width="2" height="2" fill="#4aff6c" />
<rect x="12" y="8" width="2" height="2" fill="#4aff6c" />
<rect x="16" y="8" width="2" height="2" fill="#4aff6c" />
<rect x="28" y="8" width="2" height="2" fill="#4aff6c" />
<rect x="32" y="8" width="2" height="2" fill="#4aff6c" />
<rect x="36" y="8" width="2" height="2" fill="#4aff6c" />
<rect x="40" y="8" width="2" height="2" fill="#4aff6c" />
<rect x="52" y="8" width="2" height="2" fill="#4aff6c" />
<rect x="56" y="8" width="2" height="2" fill="#4aff6c" />
<rect x="58" y="8" width="2" height="2" fill="#4aff6c" />
<rect x="62" y="8" width="2" height="2" fill="#4aff6c" />
<rect x="4" y="10" width="2" height="2" fill="#4aff6c" />
<rect x="12" y="10" width="2" height="2" fill="#4aff6c" />
<rect x="16" y="10" width="2" height="2" fill="#4aff6c" />
<rect x="24" y="10" width="2" height="2" fill="#4aff6c" />
<rect x="26" y="10" width="2" height="2" fill="#4aff6c" />
<rect x="28" y="10" width="2" height="2" fill="#4aff6c" />
<rect x="30" y="10" width="2" height="2" fill="#4aff6c" />
<rect x="32" y="10" width="2" height="2" fill="#4aff6c" />
<rect x="36" y="10" width="2" height="2" fill="#4aff6c" />
<rect x="38" y="10" width="2" height="2" fill="#4aff6c" />
<rect x="40" y="10" width="2" height="2" fill="#4aff6c" />
<rect x="42" y="10" width="2" height="2" fill="#4aff6c" />
<rect x="44" y="10" width="2" height="2" fill="#4aff6c" />
<rect x="52" y="10" width="2" height="2" fill="#4aff6c" />
<rect x="56" y="10" width="2" height="2" fill="#4aff6c" />
<rect x="64" y="10" width="2" height="2" fill="#4aff6c" />
<rect x="12" y="12" width="2" height="2" fill="#4aff6c" />
<rect x="14" y="12" width="2" height="2" fill="#4aff6c" />
<rect x="16" y="12" width="2" height="2" fill="#4aff6c" />
<rect x="28" y="12" width="2" height="2" fill="#4aff6c" />
<rect x="30" y="12" width="2" height="2" fill="#4aff6c" />
<rect x="38" y="12" width="2" height="2" fill="#4aff6c" />
<rect x="40" y="12" width="2" height="2" fill="#4aff6c" />
<rect x="52" y="12" width="2" height="2" fill="#4aff6c" />
<rect x="54" y="12" width="2" height="2" fill="#4aff6c" />
<rect x="56" y="12" width="2" height="2" fill="#4aff6c" />
<rect x="6" y="14" width="2" height="2" fill="#4aff6c" />
<rect x="12" y="14" width="2" height="2" fill="#4aff6c" />
<rect x="16" y="14" width="2" height="2" fill="#4aff6c" />
<rect x="18" y="14" width="2" height="2" fill="#4aff6c" />
<rect x="20" y="14" width="2" height="2" fill="#4aff6c" />
<rect x="48" y="14" width="2" height="2" fill="#4aff6c" />
<rect x="50" y="14" width="2" height="2" fill="#4aff6c" />
<rect x="52" y="14" width="2" height="2" fill="#4aff6c" />
<rect x="56" y="14" width="2" height="2" fill="#4aff6c" />
<rect x="62" y="14" width="2" height="2" fill="#4aff6c" />
<rect x="10" y="16" width="2" height="2" fill="#4aff6c" />
<rect x="58" y="16" width="2" height="2" fill="#4aff6c" />
</svg>