<?xml version="1.0" encoding="utf-8"?>
<svg xmlns="http://www.w3.org/2000/svg" width="88" height="88" viewBox="0 0 88 88">
<rect width="100%" height="100%" fill="transparent" />
<rect x="59" y="4" width="5" height="5" fill="#4aff6c" />
<rect x="64" y="4" width="5" height="5" fill="#4aff6c" />
<rect x="54" y="9" width="5" height="5" fill="#4aff6c" />
<rect x="64" y="9" width="5" height="5" fill="#4aff6c" />
<rect x="14" y="14" width="5" height="5" fill="#4aff6c" />
<rect x="44" y="14" width="5" height="5" fill="#4aff6c" />
<rect x="69" y="14" width="5" height="5" fill="#4aff6c" />
<rect x="4" y="19" width="5" height="5" fill="#4aff6c" />
<rect x="9" y="19" width="5" height="5" fill="#4aff6c" />
<rect x="19" y="19" width="5" height="5" fill="#4aff6c" />
<rect x="24" y="19" width="5" height="5" fill="#4aff6c" />
<rect x="39" y="19" width="5" height="5" fill="#4aff6c" />
<rect x="44" y="19" width="5" height="5" fill="#4aff6c" />
<rect x="54" y="19" width="5" height="5" fill="#4aff6c" />
<rect x="64" y="19" width="5" height="5" fill="#4aff6c" />
<rect x="4" y="24" width="5" height="5" fill="#4aff6c" />
<rect x="44" y="24" width="5" height="5" fill="#4aff6c" />
<rect x="64" y="24" width="5" height="5" fill="#4aff6c" />
<rect x="9" y="29" width="5" height="5" fill="#4aff6c" />
<rect x="19" y="29" width="5" height="5" fill="#4aff6c" />
<rect x="14" y="39" width="5" height="5" fill="#4aff6c" />
<rect x="19" y="39" width="5" height="5" fill="#4aff6c" />
<rect x="24" y="39" width="5" height="5" fill="#4aff6c" />
<rect x="64" y="39" width="5" height="5" fill="#4aff6c" />
<rect x="19" y="44" width="5" height="5" fill="#4aff6c" />
<rect x="59" y="44" width="5" height="5" fill="#4aff6c" />
<rect x="64" y="44" width="5" height="5" fill="#4aff6c" />
<rect x="69" y="44" width="5" height="5" fill="#4aff6c" />
<rect x="64" y="54" width="5" height="5" fill="#4aff6c" />
<rect x="74" y="54" width="5" height="5" fill="#4aff6c" />
<rect x="19" y="59" width="5" height="5" fill="#4aff6c" />
<rect x="39" y="59" width="5" height="5" fill="#4aff6c" />
<rect x="79" y="59" width="5" height="5" fill="#4aff6c" />
<rect x="19" y="64" width="5" height="5" fill="#4aff6c" />
<rect x="29" y="64" width="5" height="5" fill="#4aff6c" />
<rect x="39" y="64" width="5" height="5" fill="#4aff6c" />
<rect x="44" y="64" width="5" height="5" fill="#4aff6c" />
<rect x="59" y="64" width="5" height="5" fill="#4aff6c" />
<rect x="64" y="64" width="5" height="5" fill="#4aff6c" />
<rect x="74" y="64" width="5" height="5" fill="#4aff6c" />
<rect x="79" y="64" width="5" height="5" fill="#4aff6c" />
<rect x="14" y="69" width="5" height="5" fill="#4aff6c" />
<rect x="39" y="69" width="5" height="5" fill="#4aff6c" />
<rect x="69" y="69" width="5" height="5" fill="#4aff6c" />
<rect x="19" y="74" width="5" height="5" fill="#4aff6c" />
<rect x="29" y="74" width="5" height="5" fill="#4aff6c" />
<rect x="19" y="79" width="5" height="5" fill="#4aff6c" />
<rect x="24" y="79" width="5" height="5" fill="#4aff6c" />
</svg>