<?xml version="1.0" encoding="utf-8"?>
<svg xmlns="http://www.w3.org/2000/svg" width="77" height="62" viewBox="0 0 77 62">
<rect width="100%" height="100%" fill="transparent" />
<rect x="37" y="4" width="3" height="3" fill="#4aff6c" />
<rect x="19" y="13" width="3" height="3" fill="#4aff6c" />
<rect x="28" y="13" width="3" height="3" fill="#4aff6c" />
<rect x="46" y="13" width="3" height="3" fill="#4aff6c" />
<rect x="55" y="13" width="3" height="3" fill="#4aff6c" />
<rect x="13" y="16" width="3" height="3" fill="#4aff6c" />
<rect x="16" y="16" width="3" height="3" fill="#4aff6c" />
<rect x="25" y="16" width="3" height="3" fill="#4aff6c" />
<rect x="31" y="16" width="3" height="3" fill="#4aff6c" />
<rect x="34" y="16" width="3" height="3" fill="#4aff6c" />
<rect x="37" y="16" width="3" height="3" fill="#4aff6c" />
<rect x="40" y="16" width="3" height="3" fill="#4aff6c" />
<rect x="43" y="16" width="3" height="3" fill="#4aff6c" />
<rect x="49" y="16" width="3" height="3" fill="#4aff6c" />
<rect x="58" y="16" width="3" height="3" fill="#4aff6c" />
<rect x="61" y="16" width="3" height="3" fill="#4aff6c" />
<rect x="19" y="19" width="3" height="3" fill="#4aff6c" />
<rect x="55" y="19" width="3" height="3" fill="#4aff6c" />
<rect x="13" y="22" width="3" height="3" fill="#4aff6c" />
<rect x="19" y="22" width="3" height="3" fill="#4aff6c" />
<rect x="22" y="22" width="3" height="3" fill="#4aff6c" />
<rect x="52" y="22" width="3" height="3" fill="#4aff6c" />
<rect x="55" y="22" width="3" height="3" fill="#4aff6c" />
<rect x="61" y="22" width="3" height="3" fill="#4aff6c" />
<rect x="7" y="25" width="3" height="3" fill="#4aff6c" />
<rect x="13" y="25" width="3" height="3" fill="#4aff6c" />
<rect x="25" y="25" width="3" height="3" fill="#4aff6c" />
<rect x="28" y="25" width="3" height="3" fill="#4aff6c" />
<rect x="31" y="25" width="3" height="3" fill="#4aff6c" />
<rect x="43" y="25" width="3" height="3" fill="#4aff6c" />
<rect x="46" y="25" width="3" height="3" fill="#4aff6c" />
<rect x="49" y="25" width="3" height="3" fill="#4aff6c" />
<rect x="61" y="25" width="3" height="3" fill="#4aff6c" />
<rect x="67" y="25" width="3" height="3" fill="#4aff6c" />
<rect x="4" y="28" width="3" height="3" fill="#4aff6c" />
<rect x="7" y="28" width="3" height="3" fill="#4aff6c" />
<rect x="10" y="28" width="3" height="3" fill="#4aff6c" />
<rect x="16" y="28" width="3" height="3" fill="#4aff6c" />
<rect x="58" y="28" width="3" height="3" fill="#4aff6c" />
<rect x="64" y="28" width="3" height="3" fill="#4aff6c" />
<rect x="67" y="28" width="3" height="3" fill="#4aff6c" />
<rect x="70" y="28" width="3" height="3" fill="#4aff6c" />
<rect x="34" y="31" width="3" height="3" fill="#4aff6c" />
<rect x="40" y="31" width="3" height="3" fill="#4aff6c" />
<rect x="16" y="34" width="3" height="3" fill="#4aff6c" />
<rect x="19" y="34" width="3" height="3" fill="#4aff6c" />
<rect x="22" y="34" width="3" height="3" fill="#4aff6c" />
<rect x="34" y="34" width="3" height="3" fill="#4aff6c" />
<rect x="40" y="34" width="3" height="3" fill="#4aff6c" />
<rect x="52" y="34" width="3" height="3" fill="#4aff6c" />
<rect x="55" y="34" width="3" height="3" fill="#4aff6c" />
<rect x="58" y="34" width="3" height="3" fill="#4aff6c" />
<rect x="16" y="37" width="3" height="3" fill="#4aff6c" />
<rect x="25" y="37" width="3" height="3" fill="#4aff6c" />
<rect x="37" y="37" width="3" height="3" fill="#4aff6c" />
<rect x="49" y="37" width="3" height="3" fill="#4aff6c" />
<rect x="58" y="37" width="3" height="3" fill="#4aff6c" />
<rect x="13" y="40" width="3" height="3" fill="#4aff6c" />
<rect x="16" y="40" width="3" height="3" fill="#4aff6c" />
<rect x="19" y="40" width="3" height="3" fill="#4aff6c" />
<rect x="22" y="40" width="3" height="3" fill="#4aff6c" />
<rect x="31" y="40" width="3" height="3" fill="#4aff6c" />
<rect x="37" y="40" width="3" height="3" fill="#4aff6c" />
<rect x="43" y="40" width="3" height="3" fill="#4aff6c" />
<rect x="52" y="40" width="3" height="3" fill="#4aff6c" />
<rect x="55" y="40" width="3" height="3" fill="#4aff6c" />
<rect x="58" y="40" width="3" height="3" fill="#4aff6c" />
<rect x="61" y="40" width="3" height="3" fill="#4aff6c" />
<rect x="13" y="43" width="3" height="3" fill="#4aff6c" />
<rect x="16" y="43" width="3" height="3" fill="#4aff6c" />
<rect x="25" y="43" width="3" height="3" fill="#4aff6c" />
<rect x="28" y="43" width="3" height="3" fill="#4aff6c" />
<rect x="31" y="43" width="3" height="3" fill="#4aff6c" />
<rect x="37" y="43" width="3" height="3" fill="#4aff6c" />
<rect x="43" y="43" width="3" height="3" fill="#4aff6c" />
<rect x="46" y="43" width="3" height="3" fill="#4aff6c" />
<rect x="49" y="43" width="3" height="3" fill="#4aff6c" />
<rect x="58" y="43" width="3" height="3" fill="#4aff6c" />
<rect x="61" y="43" width="3" height="3" fill="#4aff6c" />
<rect x="10" y="46" width="3" height="3" fill="#4aff6c" />
<rect x="22" y="46" width="3" height="3" fill="#4aff6c" />
<rect x="34" y="46" width="3" height="3" fill="#4aff6c" />
<rect x="40" y="46" width="3" height="3" fill="#4aff6c" />
<rect x="52" y="46" width="3" height="3" fill="#4aff6c" />
<rect x="64" y="46" width="3" height="3" fill="#4aff6c" />
<rect x="13" y="49" width="3" height="3" fill="#4aff6c" />
<rect x="22" y="49" width="3" height="3" fill="#4aff6c" />
<rect x="28" y="49" width="3" height="3" fill="#4aff6c" />
<rect x="34" y="49" width="3" height="3" fill="#4aff6c" />
<rect x="40" y="49" width="3" height="3" fill="#4aff6c" />
<rect x="46" y="49" width="3" height="3" fill="#4aff6c" />
<rect x="52" y="49" width="3" height="3" fill="#4aff6c" />
<rect x="61" y="49" width="3" height="3" fill="#4aff6c" />
<rect x="16" y="52" width="3" height="3" fill="#4aff6c" />
<rect x="22" y="52" width="3" height="3" fill="#4aff6c" />
<rect x="28" y="52" width="3" height="3" fill="#4aff6c" />
<rect x="31" y="52" width="3" height="3" fill="#4aff6c" />
<rect x="43" y="52" width="3" height="3" fill="#4aff6c" />
<rect x="46" y="52" width="3" height="3" fill="#4aff6c" />
<rect x="52" y="52" width="3" height="3" fill="#4aff6c" />
<rect x="58" y="52" width="3" height="3" fill="#4aff6c" />
<rect x="19" y="55" width="3" height="3" fill="#4aff6c" />
<rect x="55" y="55" width="3" height="3" fill="#4aff6c" />
</svg>