<?xml version="1.0" encoding="utf-8"?>
<svg xmlns="http://www.w3.org/2000/svg" width="65" height="83" viewBox="0 0 65 83">
<rect width="100%" height="100%" fill="transparent" />
<rect x="7" y="4" width="3" height="3" fill="#4aff6c" />
<rect x="13" y="4" width="3" height="3" fill="#4aff6c" />
<rect x="4" y="7" width="3" height="3" fill="#4aff6c" />
<rect x="7" y="10" width="3" height="3" fill="#4aff6c" />
<rect x="16" y="10" width="3" height="3" fill="#4aff6c" />
<rect x="13" y="13" width="3" height="3" fill="#4aff6c" />
<rect x="16" y="13" width="3" height="3" fill="#4aff6c" />
<rect x="19" y="13" width="3" height="3" fill="#4aff6c" />
<rect x="4" y="16" width="3" height="3" fill="#4aff6c" />
<rect x="7" y="16" width="3" height="3" fill="#4aff6c" />
<rect x="10" y="16" width="3" height="3" fill="#4aff6c" />
<rect x="10" y="19" width="3" height="3" fill="#4aff6c" />
<rect x="7" y="22" width="3" height="3" fill="#4aff6c" />
<rect x="25" y="28" width="3" height="3" fill="#4aff6c" />
<rect x="28" y="28" width="3" height="3" fill="#4aff6c" />
<rect x="22" y="31" width="3" height="3" fill="#4aff6c" />
<rect x="25" y="31" width="3" height="3" fill="#4aff6c" />
<rect x="28" y="34" width="3" height="3" fill="#4aff6c" />
<rect x="10" y="58" width="3" height="3" fill="#4aff6c" />
<rect x="13" y="58" width="3" height="3" fill="#4aff6c" />
<rect x="7" y="61" width="3" height="3" fill="#4aff6c" />
<rect x="13" y="61" width="3" height="3" fill="#4aff6c" />
<rect x="13" y="64" width="3" height="3" fill="#4aff6c" />
<rect x="52" y="70" width="3" height="3" fill="#4aff6c" />
<rect x="55" y="70" width="3" height="3" fill="#4aff6c" />
<rect x="58" y="70" width="3" height="3" fill="#4aff6c" />
<rect x="52" y="73" width="3" height="3" fill="#4aff6c" />
<rect x="55" y="76" width="3" height="3" fill="#4aff6c" />
</svg>