<?xml version="1.0" encoding="utf-8"?>
<svg xmlns="http://www.w3.org/2000/svg" width="76" height="62" viewBox="0 0 76 62">
<rect width="100%" height="100%" fill="transparent" />
<rect x="12" y="4" width="2" height="2" fill="#4aff6c" />
<rect x="14" y="6" width="2" height="2" fill="#4aff6c" />
<rect x="10" y="8" width="2" height="2" fill="#4aff6c" />
<rect x="12" y="8" width="2" height="2" fill="#4aff6c" />
<rect x="14" y="8" width="2" height="2" fill="#4aff6c" />
<rect x="40" y="10" width="2" height="2" fill="#4aff6c" />
<rect x="36" y="12" width="2" height="2" fill="#4aff6c" />
<rect x="38" y="12" width="2" height="2" fill="#4aff6c" />
<rect x="40" y="12" width="2" height="2" fill="#4aff6c" />
<rect x="34" y="14" width="2" height="2" fill="#4aff6c" />
<rect x="34" y="16" width="2" height="2" fill="#4aff6c" />
<rect x="36" y="16" width="2" height="2" fill="#4aff6c" />
<rect x="4" y="18" width="2" height="2" fill="#4aff6c" />
<rect x="6" y="18" width="2" height="2" fill="#4aff6c" />
<rect x="6" y="20" width="2" height="2" fill="#4aff6c" />
<rect x="6" y="22" width="2" height="2" fill="#4aff6c" />
<rect x="10" y="22" width="2" height="2" fill="#4aff6c" />
<rect x="12" y="22" width="2" height="2" fill="#4aff6c" />
<rect x="8" y="24" width="2" height="2" fill="#4aff6c" />
<rect x="14" y="24" width="2" height="2" fill="#4aff6c" />
<rect x="62" y="24" width="2" height="2" fill="#4aff6c" />
<rect x="10" y="26" width="2" height="2" fill="#4aff6c" />
<rect x="12" y="26" width="2" height="2" fill="#4aff6c" />
<rect x="62" y="26" width="2" height="2" fill="#4aff6c" />
<rect x="40" y="28" width="2" height="2" fill="#4aff6c" />
<rect x="42" y="28" width="2" height="2" fill="#4aff6c" />
<rect x="62" y="28" width="2" height="2" fill="#4aff6c" />
<rect x="64" y="28" width="2" height="2" fill="#4aff6c" />
<rect x="66" y="28" width="2" height="2" fill="#4aff6c" />
<rect x="40" y="30" width="2" height="2" fill="#4aff6c" />
<rect x="42" y="30" width="2" height="2" fill="#4aff6c" />
<rect x="66" y="30" width="2" height="2" fill="#4aff6c" />
<rect x="58" y="38" width="2" height="2" fill="#4aff6c" />
<rect x="66" y="38" width="2" height="2" fill="#4aff6c" />
<rect x="68" y="38" width="2" height="2" fill="#4aff6c" />
<rect x="56" y="40" width="2" height="2" fill="#4aff6c" />
<rect x="60" y="40" width="2" height="2" fill="#4aff6c" />
<rect x="68" y="40" width="2" height="2" fill="#4aff6c" />
<rect x="54" y="42" width="2" height="2" fill="#4aff6c" />
<rect x="58" y="42" width="2" height="2" fill="#4aff6c" />
<rect x="66" y="42" width="2" height="2" fill="#4aff6c" />
<rect x="46" y="44" width="2" height="2" fill="#4aff6c" />
<rect x="48" y="44" width="2" height="2" fill="#4aff6c" />
<rect x="52" y="44" width="2" height="2" fill="#4aff6c" />
<rect x="56" y="44" width="2" height="2" fill="#4aff6c" />
<rect x="64" y="44" width="2" height="2" fill="#4aff6c" />
<rect x="46" y="46" width="2" height="2" fill="#4aff6c" />
<rect x="48" y="46" width="2" height="2" fill="#4aff6c" />
<rect x="52" y="46" width="2" height="2" fill="#4aff6c" />
<rect x="58" y="46" width="2" height="2" fill="#4aff6c" />
<rect x="60" y="46" width="2" height="2" fill="#4aff6c" />
<rect x="62" y="46" width="2" height="2" fill="#4aff6c" />
<rect x="64" y="46" width="2" height="2" fill="#4aff6c" />
<rect x="68" y="46" width="2" height="2" fill="#4aff6c" />
<rect x="54" y="48" width="2" height="2" fill="#4aff6c" />
<rect x="58" y="48" width="2" height="2" fill="#4aff6c" />
<rect x="66" y="48" width="2" height="2" fill="#4aff6c" />
<rect x="70" y="48" width="2" height="2" fill="#4aff6c" />
<rect x="46" y="50" width="2" height="2" fill="#4aff6c" />
<rect x="48" y="50" width="2" height="2" fill="#4aff6c" />
<rect x="52" y="50" width="2" height="2" fill="#4aff6c" />
<rect x="54" y="50" width="2" height="2" fill="#4aff6c" />
<rect x="60" y="50" width="2" height="2" fill="#4aff6c" />
<rect x="66" y="50" width="2" height="2" fill="#4aff6c" />
<rect x="70" y="50" width="2" height="2" fill="#4aff6c" />
<rect x="48" y="52" width="2" height="2" fill="#4aff6c" />
<rect x="52" y="52" width="2" height="2" fill="#4aff6c" />
<rect x="58" y="52" width="2" height="2" fill="#4aff6c" />
<rect x="60" y="52" width="2" height="2" fill="#4aff6c" />
<rect x="68" y="52" width="2" height="2" fill="#4aff6c" />
<rect x="24" y="54" width="2" height="2" fill="#4aff6c" />
<rect x="26" y="54" width="2" height="2" fill="#4aff6c" />
<rect x="48" y="54" width="2" height="2" fill="#4aff6c" />
<rect x="52" y="54" width="2" height="2" fill="#4aff6c" />
<rect x="24" y="56" width="2" height="2" fill="#4aff6c" />
<rect x="26" y="56" width="2" height="2" fill="#4aff6c" />
<rect x="50" y="56" width="2" height="2" fill="#4aff6c" />
</svg>