<?xml version="1.0" encoding="utf-8"?>
<svg xmlns="http://www.w3.org/2000/svg" width="67" height="65" viewBox="0 0 67 65">
<rect width="100%" height="100%" fill="transparent" />
<rect x="45" y="4" width="1" height="1" fill="#4aff6c" />
<rect x="44" y="5" width="1" height="1" fill="#4aff6c" />
<rect x="45" y="5" width="1" height="1" fill="#4aff6c" />
<rect x="46" y="5" width="1" height="1" fill="#4aff6c" />
<rect x="43" y="6" width="1" height="1" fill="#4aff6c" />
<rect x="44" y="6" width="1" height="1" fill="#4aff6c" />
<rect x="46" y="6" width="1" height="1" fill="#4aff6c" />
<rect x="52" y="6" width="1" height="1" fill="#4aff6c" />
<rect x="43" y="7" width="1" height="1" fill="#4aff6c" />
<rect x="44" y="7" width="1" height="1" fill="#4aff6c" />
<rect x="45" y="7" width="1" height="1" fill="#4aff6c" />
<rect x="51" y="7" width="1" height="1" fill="#4aff6c" />
<rect x="52" y="7" width="1" height="1" fill="#4aff6c" />
<rect x="53" y="7" width="1" height="1" fill="#4aff6c" />
<rect x="44" y="8" width="1" height="1" fill="#4aff6c" />
<rect x="45" y="8" width="1" height="1" fill="#4aff6c" />
<rect x="50" y="8" width="1" height="1" fill="#4aff6c" />
<rect x="53" y="8" width="1" height="1" fill="#4aff6c" />
<rect x="54" y="8" width="1" height="1" fill="#4aff6c" />
<rect x="58" y="8" width="1" height="1" fill="#4aff6c" />
<rect x="59" y="8" width="1" height="1" fill="#4aff6c" />
<rect x="60" y="8" width="1" height="1" fill="#4aff6c" />
<rect x="50" y="9" width="1" height="1" fill="#4aff6c" />
<rect x="51" y="9" width="1" height="1" fill="#4aff6c" />
<rect x="52" y="9" width="1" height="1" fill="#4aff6c" />
<rect x="57" y="9" width="1" height="1" fill="#4aff6c" />
<rect x="60" y="9" width="1" height="1" fill="#4aff6c" />
<rect x="60" y="10" width="1" height="1" fill="#4aff6c" />
<rect x="60" y="11" width="1" height="1" fill="#4aff6c" />
<rect x="60" y="12" width="1" height="1" fill="#4aff6c" />
<rect x="44" y="13" width="1" height="1" fill="#4aff6c" />
<rect x="45" y="13" width="1" height="1" fill="#4aff6c" />
<rect x="46" y="13" width="1" height="1" fill="#4aff6c" />
<rect x="59" y="13" width="1" height="1" fill="#4aff6c" />
<rect x="44" y="14" width="1" height="1" fill="#4aff6c" />
<rect x="47" y="14" width="1" height="1" fill="#4aff6c" />
<rect x="44" y="15" width="1" height="1" fill="#4aff6c" />
<rect x="44" y="16" width="1" height="1" fill="#4aff6c" />
<rect x="45" y="17" width="1" height="1" fill="#4aff6c" />
<rect x="42" y="24" width="1" height="1" fill="#4aff6c" />
<rect x="43" y="24" width="1" height="1" fill="#4aff6c" />
<rect x="44" y="24" width="1" height="1" fill="#4aff6c" />
<rect x="42" y="25" width="1" height="1" fill="#4aff6c" />
<rect x="45" y="25" width="1" height="1" fill="#4aff6c" />
<rect x="57" y="25" width="1" height="1" fill="#4aff6c" />
<rect x="42" y="26" width="1" height="1" fill="#4aff6c" />
<rect x="56" y="26" width="1" height="1" fill="#4aff6c" />
<rect x="57" y="26" width="1" height="1" fill="#4aff6c" />
<rect x="58" y="26" width="1" height="1" fill="#4aff6c" />
<rect x="42" y="27" width="1" height="1" fill="#4aff6c" />
<rect x="55" y="27" width="1" height="1" fill="#4aff6c" />
<rect x="56" y="27" width="1" height="1" fill="#4aff6c" />
<rect x="58" y="27" width="1" height="1" fill="#4aff6c" />
<rect x="42" y="28" width="1" height="1" fill="#4aff6c" />
<rect x="55" y="28" width="1" height="1" fill="#4aff6c" />
<rect x="56" y="28" width="1" height="1" fill="#4aff6c" />
<rect x="57" y="28" width="1" height="1" fill="#4aff6c" />
<rect x="43" y="29" width="1" height="1" fill="#4aff6c" />
<rect x="56" y="29" width="1" height="1" fill="#4aff6c" />
<rect x="57" y="29" width="1" height="1" fill="#4aff6c" />
<rect x="39" y="32" width="1" height="1" fill="#4aff6c" />
<rect x="40" y="32" width="1" height="1" fill="#4aff6c" />
<rect x="41" y="32" width="1" height="1" fill="#4aff6c" />
<rect x="38" y="33" width="1" height="1" fill="#4aff6c" />
<rect x="39" y="33" width="1" height="1" fill="#4aff6c" />
<rect x="40" y="33" width="1" height="1" fill="#4aff6c" />
<rect x="41" y="33" width="1" height="1" fill="#4aff6c" />
<rect x="42" y="33" width="1" height="1" fill="#4aff6c" />
<rect x="38" y="34" width="1" height="1" fill="#4aff6c" />
<rect x="39" y="34" width="1" height="1" fill="#4aff6c" />
<rect x="40" y="34" width="1" height="1" fill="#4aff6c" />
<rect x="42" y="34" width="1" height="1" fill="#4aff6c" />
<rect x="43" y="34" width="1" height="1" fill="#4aff6c" />
<rect x="51" y="34" width="1" height="1" fill="#4aff6c" />
<rect x="52" y="34" width="1" height="1" fill="#4aff6c" />
<rect x="61" y="34" width="1" height="1" fill="#4aff6c" />
<rect x="41" y="35" width="1" height="1" fill="#4aff6c" />
<rect x="42" y="35" width="1" height="1" fill="#4aff6c" />
<rect x="50" y="35" width="1" height="1" fill="#4aff6c" />
<rect x="51" y="35" width="1" height="1" fill="#4aff6c" />
<rect x="52" y="35" width="1" height="1" fill="#4aff6c" />
<rect x="53" y="35" width="1" height="1" fill="#4aff6c" />
<rect x="62" y="35" width="1" height="1" fill="#4aff6c" />
<rect x="50" y="36" width="1" height="1" fill="#4aff6c" />
<rect x="51" y="36" width="1" height="1" fill="#4aff6c" />
<rect x="53" y="36" width="1" height="1" fill="#4aff6c" />
<rect x="54" y="36" width="1" height="1" fill="#4aff6c" />
<rect x="58" y="36" width="1" height="1" fill="#4aff6c" />
<rect x="62" y="36" width="1" height="1" fill="#4aff6c" />
<rect x="52" y="37" width="1" height="1" fill="#4aff6c" />
<rect x="53" y="37" width="1" height="1" fill="#4aff6c" />
<rect x="59" y="37" width="1" height="1" fill="#4aff6c" />
<rect x="60" y="37" width="1" height="1" fill="#4aff6c" />
<rect x="61" y="37" width="1" height="1" fill="#4aff6c" />
<rect x="62" y="37" width="1" height="1" fill="#4aff6c" />
<rect x="24" y="40" width="1" height="1" fill="#4aff6c" />
<rect x="25" y="41" width="1" height="1" fill="#4aff6c" />
<rect x="5" y="42" width="1" height="1" fill="#4aff6c" />
<rect x="6" y="42" width="1" height="1" fill="#4aff6c" />
<rect x="20" y="42" width="1" height="1" fill="#4aff6c" />
<rect x="25" y="42" width="1" height="1" fill="#4aff6c" />
<rect x="58" y="42" width="1" height="1" fill="#4aff6c" />
<rect x="59" y="42" width="1" height="1" fill="#4aff6c" />
<rect x="60" y="42" width="1" height="1" fill="#4aff6c" />
<rect x="4" y="43" width="1" height="1" fill="#4aff6c" />
<rect x="5" y="43" width="1" height="1" fill="#4aff6c" />
<rect x="6" y="43" width="1" height="1" fill="#4aff6c" />
<rect x="7" y="43" width="1" height="1" fill="#4aff6c" />
<rect x="21" y="43" width="1" height="1" fill="#4aff6c" />
<rect x="22" y="43" width="1" height="1" fill="#4aff6c" />
<rect x="23" y="43" width="1" height="1" fill="#4aff6c" />
<rect x="24" y="43" width="1" height="1" fill="#4aff6c" />
<rect x="25" y="43" width="1" height="1" fill="#4aff6c" />
<rect x="60" y="43" width="1" height="1" fill="#4aff6c" />
<rect x="4" y="44" width="1" height="1" fill="#4aff6c" />
<rect x="5" y="44" width="1" height="1" fill="#4aff6c" />
<rect x="7" y="44" width="1" height="1" fill="#4aff6c" />
<rect x="8" y="44" width="1" height="1" fill="#4aff6c" />
<rect x="60" y="44" width="1" height="1" fill="#4aff6c" />
<rect x="6" y="45" width="1" height="1" fill="#4aff6c" />
<rect x="7" y="45" width="1" height="1" fill="#4aff6c" />
<rect x="59" y="45" width="1" height="1" fill="#4aff6c" />
<rect x="40" y="46" width="1" height="1" fill="#4aff6c" />
<rect x="41" y="47" width="1" height="1" fill="#4aff6c" />
<rect x="25" y="48" width="1" height="1" fill="#4aff6c" />
<rect x="26" y="48" width="1" height="1" fill="#4aff6c" />
<rect x="37" y="48" width="1" height="1" fill="#4aff6c" />
<rect x="41" y="48" width="1" height="1" fill="#4aff6c" />
<rect x="26" y="49" width="1" height="1" fill="#4aff6c" />
<rect x="27" y="49" width="1" height="1" fill="#4aff6c" />
<rect x="38" y="49" width="1" height="1" fill="#4aff6c" />
<rect x="39" y="49" width="1" height="1" fill="#4aff6c" />
<rect x="40" y="49" width="1" height="1" fill="#4aff6c" />
<rect x="41" y="49" width="1" height="1" fill="#4aff6c" />
<rect x="57" y="49" width="1" height="1" fill="#4aff6c" />
<rect x="58" y="49" width="1" height="1" fill="#4aff6c" />
<rect x="25" y="50" width="1" height="1" fill="#4aff6c" />
<rect x="26" y="50" width="1" height="1" fill="#4aff6c" />
<rect x="54" y="50" width="1" height="1" fill="#4aff6c" />
<rect x="55" y="50" width="1" height="1" fill="#4aff6c" />
<rect x="56" y="50" width="1" height="1" fill="#4aff6c" />
<rect x="58" y="50" width="1" height="1" fill="#4aff6c" />
<rect x="59" y="50" width="1" height="1" fill="#4aff6c" />
<rect x="25" y="51" width="1" height="1" fill="#4aff6c" />
<rect x="54" y="51" width="1" height="1" fill="#4aff6c" />
<rect x="55" y="51" width="1" height="1" fill="#4aff6c" />
<rect x="56" y="51" width="1" height="1" fill="#4aff6c" />
<rect x="57" y="51" width="1" height="1" fill="#4aff6c" />
<rect x="58" y="51" width="1" height="1" fill="#4aff6c" />
<rect x="55" y="52" width="1" height="1" fill="#4aff6c" />
<rect x="56" y="52" width="1" height="1" fill="#4aff6c" />
<rect x="57" y="52" width="1" height="1" fill="#4aff6c" />
<rect x="26" y="54" width="1" height="1" fill="#4aff6c" />
<rect x="27" y="54" width="1" height="1" fill="#4aff6c" />
<rect x="17" y="55" width="1" height="1" fill="#4aff6c" />
<rect x="18" y="55" width="1" height="1" fill="#4aff6c" />
<rect x="19" y="55" width="1" height="1" fill="#4aff6c" />
<rect x="20" y="55" width="1" height="1" fill="#4aff6c" />
<rect x="25" y="55" width="1" height="1" fill="#4aff6c" />
<rect x="26" y="55" width="1" height="1" fill="#4aff6c" />
<rect x="27" y="55" width="1" height="1" fill="#4aff6c" />
<rect x="28" y="55" width="1" height="1" fill="#4aff6c" />
<rect x="16" y="56" width="1" height="1" fill="#4aff6c" />
<rect x="20" y="56" width="1" height="1" fill="#4aff6c" />
<rect x="25" y="56" width="1" height="1" fill="#4aff6c" />
<rect x="26" y="56" width="1" height="1" fill="#4aff6c" />
<rect x="28" y="56" width="1" height="1" fill="#4aff6c" />
<rect x="29" y="56" width="1" height="1" fill="#4aff6c" />
<rect x="5" y="57" width="1" height="1" fill="#4aff6c" />
<rect x="6" y="57" width="1" height="1" fill="#4aff6c" />
<rect x="7" y="57" width="1" height="1" fill="#4aff6c" />
<rect x="8" y="57" width="1" height="1" fill="#4aff6c" />
<rect x="9" y="57" width="1" height="1" fill="#4aff6c" />
<rect x="20" y="57" width="1" height="1" fill="#4aff6c" />
<rect x="27" y="57" width="1" height="1" fill="#4aff6c" />
<rect x="28" y="57" width="1" height="1" fill="#4aff6c" />
<rect x="4" y="58" width="1" height="1" fill="#4aff6c" />
<rect x="9" y="58" width="1" height="1" fill="#4aff6c" />
<rect x="19" y="58" width="1" height="1" fill="#4aff6c" />
<rect x="9" y="59" width="1" height="1" fill="#4aff6c" />
<rect x="8" y="60" width="1" height="1" fill="#4aff6c" />
</svg>