<?xml version="1.0" encoding="utf-8"?>
<svg xmlns="http://www.w3.org/2000/svg" width="56" height="56" viewBox="0 0 56 56">
<rect width="100%" height="100%" fill="transparent" />
<rect x="25" y="4" width="1" height="1" fill="#4aff6c" />
<rect x="26" y="4" width="1" height="1" fill="#4aff6c" />
<rect x="31" y="4" width="1" height="1" fill="#4aff6c" />
<rect x="32" y="4" width="1" height="1" fill="#4aff6c" />
<rect x="25" y="5" width="1" height="1" fill="#4aff6c" />
<rect x="27" y="5" width="1" height="1" fill="#4aff6c" />
<rect x="30" y="5" width="1" height="1" fill="#4aff6c" />
<rect x="32" y="5" width="1" height="1" fill="#4aff6c" />
<rect x="27" y="6" width="1" height="1" fill="#4aff6c" />
<rect x="30" y="6" width="1" height="1" fill="#4aff6c" />
<rect x="26" y="7" width="1" height="1" fill="#4aff6c" />
<rect x="27" y="7" width="1" height="1" fill="#4aff6c" />
<rect x="30" y="7" width="1" height="1" fill="#4aff6c" />
<rect x="31" y="7" width="1" height="1" fill="#4aff6c" />
<rect x="25" y="8" width="1" height="1" fill="#4aff6c" />
<rect x="26" y="8" width="1" height="1" fill="#4aff6c" />
<rect x="27" y="8" width="1" height="1" fill="#4aff6c" />
<rect x="30" y="8" width="1" height="1" fill="#4aff6c" />
<rect x="31" y="8" width="1" height="1" fill="#4aff6c" />
<rect x="32" y="8" width="1" height="1" fill="#4aff6c" />
<rect x="27" y="9" width="1" height="1" fill="#4aff6c" />
<rect x="30" y="9" width="1" height="1" fill="#4aff6c" />
<rect x="35" y="10" width="1" height="1" fill="#4aff6c" />
<rect x="34" y="11" width="1" height="1" fill="#4aff6c" />
<rect x="36" y="11" width="1" height="1" fill="#4aff6c" />
<rect x="37" y="11" width="1" height="1" fill="#4aff6c" />
<rect x="38" y="12" width="1" height="1" fill="#4aff6c" />
<rect x="30" y="13" width="1" height="1" fill="#4aff6c" />
<rect x="34" y="13" width="1" height="1" fill="#4aff6c" />
<rect x="37" y="13" width="1" height="1" fill="#4aff6c" />
<rect x="39" y="13" width="1" height="1" fill="#4aff6c" />
<rect x="30" y="14" width="1" height="1" fill="#4aff6c" />
<rect x="36" y="14" width="1" height="1" fill="#4aff6c" />
<rect x="39" y="14" width="1" height="1" fill="#4aff6c" />
<rect x="30" y="15" width="1" height="1" fill="#4aff6c" />
<rect x="37" y="15" width="1" height="1" fill="#4aff6c" />
<rect x="38" y="15" width="1" height="1" fill="#4aff6c" />
<rect x="13" y="16" width="1" height="1" fill="#4aff6c" />
<rect x="14" y="16" width="1" height="1" fill="#4aff6c" />
<rect x="12" y="17" width="1" height="1" fill="#4aff6c" />
<rect x="15" y="17" width="1" height="1" fill="#4aff6c" />
<rect x="26" y="17" width="1" height="1" fill="#4aff6c" />
<rect x="27" y="17" width="1" height="1" fill="#4aff6c" />
<rect x="28" y="17" width="1" height="1" fill="#4aff6c" />
<rect x="32" y="17" width="1" height="1" fill="#4aff6c" />
<rect x="33" y="17" width="1" height="1" fill="#4aff6c" />
<rect x="34" y="17" width="1" height="1" fill="#4aff6c" />
<rect x="11" y="18" width="1" height="1" fill="#4aff6c" />
<rect x="13" y="18" width="1" height="1" fill="#4aff6c" />
<rect x="15" y="18" width="1" height="1" fill="#4aff6c" />
<rect x="10" y="19" width="1" height="1" fill="#4aff6c" />
<rect x="11" y="19" width="1" height="1" fill="#4aff6c" />
<rect x="12" y="19" width="1" height="1" fill="#4aff6c" />
<rect x="14" y="19" width="1" height="1" fill="#4aff6c" />
<rect x="30" y="19" width="1" height="1" fill="#4aff6c" />
<rect x="10" y="20" width="1" height="1" fill="#4aff6c" />
<rect x="11" y="20" width="1" height="1" fill="#4aff6c" />
<rect x="12" y="20" width="1" height="1" fill="#4aff6c" />
<rect x="30" y="20" width="1" height="1" fill="#4aff6c" />
<rect x="30" y="21" width="1" height="1" fill="#4aff6c" />
<rect x="16" y="22" width="1" height="1" fill="#4aff6c" />
<rect x="17" y="22" width="1" height="1" fill="#4aff6c" />
<rect x="18" y="22" width="1" height="1" fill="#4aff6c" />
<rect x="4" y="23" width="1" height="1" fill="#4aff6c" />
<rect x="5" y="23" width="1" height="1" fill="#4aff6c" />
<rect x="8" y="23" width="1" height="1" fill="#4aff6c" />
<rect x="25" y="23" width="1" height="1" fill="#4aff6c" />
<rect x="26" y="23" width="1" height="1" fill="#4aff6c" />
<rect x="27" y="23" width="1" height="1" fill="#4aff6c" />
<rect x="4" y="24" width="1" height="1" fill="#4aff6c" />
<rect x="7" y="24" width="1" height="1" fill="#4aff6c" />
<rect x="8" y="24" width="1" height="1" fill="#4aff6c" />
<rect x="14" y="24" width="1" height="1" fill="#4aff6c" />
<rect x="20" y="24" width="1" height="1" fill="#4aff6c" />
<rect x="5" y="25" width="1" height="1" fill="#4aff6c" />
<rect x="6" y="25" width="1" height="1" fill="#4aff6c" />
<rect x="7" y="25" width="1" height="1" fill="#4aff6c" />
<rect x="8" y="25" width="1" height="1" fill="#4aff6c" />
<rect x="9" y="25" width="1" height="1" fill="#4aff6c" />
<rect x="14" y="25" width="1" height="1" fill="#4aff6c" />
<rect x="20" y="25" width="1" height="1" fill="#4aff6c" />
<rect x="23" y="25" width="1" height="1" fill="#4aff6c" />
<rect x="29" y="25" width="1" height="1" fill="#4aff6c" />
<rect x="47" y="25" width="1" height="1" fill="#4aff6c" />
<rect x="50" y="25" width="1" height="1" fill="#4aff6c" />
<rect x="51" y="25" width="1" height="1" fill="#4aff6c" />
<rect x="14" y="26" width="1" height="1" fill="#4aff6c" />
<rect x="20" y="26" width="1" height="1" fill="#4aff6c" />
<rect x="23" y="26" width="1" height="1" fill="#4aff6c" />
<rect x="29" y="26" width="1" height="1" fill="#4aff6c" />
<rect x="47" y="26" width="1" height="1" fill="#4aff6c" />
<rect x="48" y="26" width="1" height="1" fill="#4aff6c" />
<rect x="51" y="26" width="1" height="1" fill="#4aff6c" />
<rect x="23" y="27" width="1" height="1" fill="#4aff6c" />
<rect x="29" y="27" width="1" height="1" fill="#4aff6c" />
<rect x="37" y="27" width="1" height="1" fill="#4aff6c" />
<rect x="38" y="27" width="1" height="1" fill="#4aff6c" />
<rect x="39" y="27" width="1" height="1" fill="#4aff6c" />
<rect x="46" y="27" width="1" height="1" fill="#4aff6c" />
<rect x="47" y="27" width="1" height="1" fill="#4aff6c" />
<rect x="48" y="27" width="1" height="1" fill="#4aff6c" />
<rect x="49" y="27" width="1" height="1" fill="#4aff6c" />
<rect x="50" y="27" width="1" height="1" fill="#4aff6c" />
<rect x="5" y="28" width="1" height="1" fill="#4aff6c" />
<rect x="6" y="28" width="1" height="1" fill="#4aff6c" />
<rect x="7" y="28" width="1" height="1" fill="#4aff6c" />
<rect x="8" y="28" width="1" height="1" fill="#4aff6c" />
<rect x="9" y="28" width="1" height="1" fill="#4aff6c" />
<rect x="16" y="28" width="1" height="1" fill="#4aff6c" />
<rect x="17" y="28" width="1" height="1" fill="#4aff6c" />
<rect x="18" y="28" width="1" height="1" fill="#4aff6c" />
<rect x="4" y="29" width="1" height="1" fill="#4aff6c" />
<rect x="7" y="29" width="1" height="1" fill="#4aff6c" />
<rect x="8" y="29" width="1" height="1" fill="#4aff6c" />
<rect x="25" y="29" width="1" height="1" fill="#4aff6c" />
<rect x="26" y="29" width="1" height="1" fill="#4aff6c" />
<rect x="27" y="29" width="1" height="1" fill="#4aff6c" />
<rect x="35" y="29" width="1" height="1" fill="#4aff6c" />
<rect x="41" y="29" width="1" height="1" fill="#4aff6c" />
<rect x="4" y="30" width="1" height="1" fill="#4aff6c" />
<rect x="5" y="30" width="1" height="1" fill="#4aff6c" />
<rect x="8" y="30" width="1" height="1" fill="#4aff6c" />
<rect x="35" y="30" width="1" height="1" fill="#4aff6c" />
<rect x="41" y="30" width="1" height="1" fill="#4aff6c" />
<rect x="46" y="30" width="1" height="1" fill="#4aff6c" />
<rect x="47" y="30" width="1" height="1" fill="#4aff6c" />
<rect x="48" y="30" width="1" height="1" fill="#4aff6c" />
<rect x="49" y="30" width="1" height="1" fill="#4aff6c" />
<rect x="50" y="30" width="1" height="1" fill="#4aff6c" />
<rect x="35" y="31" width="1" height="1" fill="#4aff6c" />
<rect x="41" y="31" width="1" height="1" fill="#4aff6c" />
<rect x="47" y="31" width="1" height="1" fill="#4aff6c" />
<rect x="48" y="31" width="1" height="1" fill="#4aff6c" />
<rect x="51" y="31" width="1" height="1" fill="#4aff6c" />
<rect x="47" y="32" width="1" height="1" fill="#4aff6c" />
<rect x="50" y="32" width="1" height="1" fill="#4aff6c" />
<rect x="51" y="32" width="1" height="1" fill="#4aff6c" />
<rect x="37" y="33" width="1" height="1" fill="#4aff6c" />
<rect x="38" y="33" width="1" height="1" fill="#4aff6c" />
<rect x="39" y="33" width="1" height="1" fill="#4aff6c" />
<rect x="43" y="34" width="1" height="1" fill="#4aff6c" />
<rect x="44" y="34" width="1" height="1" fill="#4aff6c" />
<rect x="42" y="35" width="1" height="1" fill="#4aff6c" />
<rect x="43" y="35" width="1" height="1" fill="#4aff6c" />
<rect x="44" y="35" width="1" height="1" fill="#4aff6c" />
<rect x="41" y="36" width="1" height="1" fill="#4aff6c" />
<rect x="43" y="36" width="1" height="1" fill="#4aff6c" />
<rect x="44" y="36" width="1" height="1" fill="#4aff6c" />
<rect x="40" y="37" width="1" height="1" fill="#4aff6c" />
<rect x="42" y="37" width="1" height="1" fill="#4aff6c" />
<rect x="24" y="38" width="1" height="1" fill="#4aff6c" />
<rect x="25" y="38" width="1" height="1" fill="#4aff6c" />
<rect x="26" y="38" width="1" height="1" fill="#4aff6c" />
<rect x="40" y="38" width="1" height="1" fill="#4aff6c" />
<rect x="43" y="38" width="1" height="1" fill="#4aff6c" />
<rect x="41" y="39" width="1" height="1" fill="#4aff6c" />
<rect x="42" y="39" width="1" height="1" fill="#4aff6c" />
<rect x="17" y="40" width="1" height="1" fill="#4aff6c" />
<rect x="18" y="40" width="1" height="1" fill="#4aff6c" />
<rect x="23" y="40" width="1" height="1" fill="#4aff6c" />
<rect x="26" y="40" width="1" height="1" fill="#4aff6c" />
<rect x="16" y="41" width="1" height="1" fill="#4aff6c" />
<rect x="19" y="41" width="1" height="1" fill="#4aff6c" />
<rect x="16" y="42" width="1" height="1" fill="#4aff6c" />
<rect x="18" y="42" width="1" height="1" fill="#4aff6c" />
<rect x="20" y="42" width="1" height="1" fill="#4aff6c" />
<rect x="17" y="43" width="1" height="1" fill="#4aff6c" />
<rect x="20" y="43" width="1" height="1" fill="#4aff6c" />
<rect x="21" y="44" width="1" height="1" fill="#4aff6c" />
<rect x="18" y="45" width="1" height="1" fill="#4aff6c" />
<rect x="20" y="45" width="1" height="1" fill="#4aff6c" />
<rect x="25" y="46" width="1" height="1" fill="#4aff6c" />
<rect x="28" y="46" width="1" height="1" fill="#4aff6c" />
<rect x="23" y="47" width="1" height="1" fill="#4aff6c" />
<rect x="24" y="47" width="1" height="1" fill="#4aff6c" />
<rect x="25" y="47" width="1" height="1" fill="#4aff6c" />
<rect x="28" y="47" width="1" height="1" fill="#4aff6c" />
<rect x="29" y="47" width="1" height="1" fill="#4aff6c" />
<rect x="30" y="47" width="1" height="1" fill="#4aff6c" />
<rect x="24" y="48" width="1" height="1" fill="#4aff6c" />
<rect x="25" y="48" width="1" height="1" fill="#4aff6c" />
<rect x="28" y="48" width="1" height="1" fill="#4aff6c" />
<rect x="29" y="48" width="1" height="1" fill="#4aff6c" />
<rect x="25" y="49" width="1" height="1" fill="#4aff6c" />
<rect x="28" y="49" width="1" height="1" fill="#4aff6c" />
<rect x="23" y="50" width="1" height="1" fill="#4aff6c" />
<rect x="25" y="50" width="1" height="1" fill="#4aff6c" />
<rect x="28" y="50" width="1" height="1" fill="#4aff6c" />
<rect x="30" y="50" width="1" height="1" fill="#4aff6c" />
<rect x="23" y="51" width="1" height="1" fill="#4aff6c" />
<rect x="24" y="51" width="1" height="1" fill="#4aff6c" />
<rect x="29" y="51" width="1" height="1" fill="#4aff6c" />
<rect x="30" y="51" width="1" height="1" fill="#4aff6c" />
</svg>