<?xml version="1.0" encoding="utf-8"?>
<svg xmlns="http://www.w3.org/2000/svg" width="68" height="88" viewBox="0 0 68 88">
<rect width="100%" height="100%" fill="transparent" />
<rect x="6" y="4" width="2" height="2" fill="#4aff6c" />
<rect x="8" y="6" width="2" height="2" fill="#4aff6c" />
<rect x="4" y="8" width="2" height="2" fill="#4aff6c" />
<rect x="6" y="8" width="2" height="2" fill="#4aff6c" />
<rect x="8" y="8" width="2" height="2" fill="#4aff6c" />
<rect x="26" y="26" width="2" height="2" fill="#4aff6c" />
<rect x="28" y="28" width="2" height="2" fill="#4aff6c" />
<rect x="30" y="28" width="2" height="2" fill="#4aff6c" />
<rect x="26" y="30" width="2" height="2" fill="#4aff6c" />
<rect x="28" y="30" width="2" height="2" fill="#4aff6c" />
<rect x="58" y="34" width="2" height="2" fill="#4aff6c" />
<rect x="54" y="36" width="2" height="2" fill="#4aff6c" />
<rect x="56" y="36" width="2" height="2" fill="#4aff6c" />
<rect x="58" y="36" width="2" height="2" fill="#4aff6c" />
<rect x="52" y="38" width="2" height="2" fill="#4aff6c" />
<rect x="52" y="40" width="2" height="2" fill="#4aff6c" />
<rect x="54" y="40" width="2" height="2" fill="#4aff6c" />
<rect x="50" y="48" width="2" height="2" fill="#4aff6c" />
<rect x="46" y="50" width="2" height="2" fill="#4aff6c" />
<rect x="50" y="50" width="2" height="2" fill="#4aff6c" />
<rect x="48" y="52" width="2" height="2" fill="#4aff6c" />
<rect x="50" y="52" width="2" height="2" fill="#4aff6c" />
<rect x="32" y="54" width="2" height="2" fill="#4aff6c" />
<rect x="34" y="54" width="2" height="2" fill="#4aff6c" />
<rect x="30" y="56" width="2" height="2" fill="#4aff6c" />
<rect x="34" y="56" width="2" height="2" fill="#4aff6c" />
<rect x="52" y="56" width="2" height="2" fill="#4aff6c" />
<rect x="30" y="58" width="2" height="2" fill="#4aff6c" />
<rect x="50" y="58" width="2" height="2" fill="#4aff6c" />
<rect x="54" y="58" width="2" height="2" fill="#4aff6c" />
<rect x="28" y="60" width="2" height="2" fill="#4aff6c" />
<rect x="30" y="60" width="2" height="2" fill="#4aff6c" />
<rect x="50" y="60" width="2" height="2" fill="#4aff6c" />
<rect x="54" y="60" width="2" height="2" fill="#4aff6c" />
<rect x="52" y="62" width="2" height="2" fill="#4aff6c" />
<rect x="46" y="70" width="2" height="2" fill="#4aff6c" />
<rect x="48" y="70" width="2" height="2" fill="#4aff6c" />
<rect x="52" y="70" width="2" height="2" fill="#4aff6c" />
<rect x="54" y="70" width="2" height="2" fill="#4aff6c" />
<rect x="38" y="72" width="2" height="2" fill="#4aff6c" />
<rect x="40" y="72" width="2" height="2" fill="#4aff6c" />
<rect x="46" y="72" width="2" height="2" fill="#4aff6c" />
<rect x="48" y="72" width="2" height="2" fill="#4aff6c" />
<rect x="52" y="72" width="2" height="2" fill="#4aff6c" />
<rect x="60" y="72" width="2" height="2" fill="#4aff6c" />
<rect x="62" y="72" width="2" height="2" fill="#4aff6c" />
<rect x="38" y="74" width="2" height="2" fill="#4aff6c" />
<rect x="52" y="74" width="2" height="2" fill="#4aff6c" />
<rect x="56" y="74" width="2" height="2" fill="#4aff6c" />
<rect x="62" y="74" width="2" height="2" fill="#4aff6c" />
<rect x="40" y="76" width="2" height="2" fill="#4aff6c" />
<rect x="42" y="76" width="2" height="2" fill="#4aff6c" />
<rect x="44" y="76" width="2" height="2" fill="#4aff6c" />
<rect x="46" y="76" width="2" height="2" fill="#4aff6c" />
<rect x="48" y="76" width="2" height="2" fill="#4aff6c" />
<rect x="50" y="76" width="2" height="2" fill="#4aff6c" />
<rect x="52" y="76" width="2" height="2" fill="#4aff6c" />
<rect x="56" y="76" width="2" height="2" fill="#4aff6c" />
<rect x="58" y="76" width="2" height="2" fill="#4aff6c" />
<rect x="54" y="78" width="2" height="2" fill="#4aff6c" />
<rect x="44" y="80" width="2" height="2" fill="#4aff6c" />
<rect x="46" y="80" width="2" height="2" fill="#4aff6c" />
<rect x="48" y="80" width="2" height="2" fill="#4aff6c" />
<rect x="50" y="80" width="2" height="2" fill="#4aff6c" />
<rect x="54" y="80" width="2" height="2" fill="#4aff6c" />
<rect x="44" y="82" width="2" height="2" fill="#4aff6c" />
<rect x="50" y="82" width="2" height="2" fill="#4aff6c" />
<rect x="52" y="82" width="2" height="2" fill="#4aff6c" />
</svg>