<?xml version="1.0" encoding="utf-8"?>
<svg xmlns="http://www.w3.org/2000/svg" width="84" height="14" viewBox="0 0 84 14">
<rect width="100%" height="100%" fill="transparent" />
<rect x="4" y="4" width="2" height="2" fill="#4aff6c" />
<rect x="42" y="4" width="2" height="2" fill="#4aff6c" />
<rect x="58" y="4" width="2" height="2" fill="#4aff6c" />
<rect x="74" y="4" width="2" height="2" fill="#4aff6c" />
<rect x="4" y="6" width="2" height="2" fill="#4aff6c" />
<rect x="6" y="6" width="2" height="2" fill="#4aff6c" />
<rect x="20" y="6" width="2" height="2" fill="#4aff6c" />
<rect x="22" y="6" width="2" height="2" fill="#4aff6c" />
<rect x="24" y="6" width="2" height="2" fill="#4aff6c" />
<rect x="38" y="6" width="2" height="2" fill="#4aff6c" />
<rect x="40" y="6" width="2" height="2" fill="#4aff6c" />
<rect x="56" y="6" width="2" height="2" fill="#4aff6c" />
<rect x="60" y="6" width="2" height="2" fill="#4aff6c" />
<rect x="76" y="6" width="2" height="2" fill="#4aff6c" />
<rect x="78" y="8" width="2" height="2" fill="#4aff6c" />
</svg>