<?xml version="1.0" encoding="utf-8"?>
<svg xmlns="http://www.w3.org/2000/svg" width="57" height="65" viewBox="0 0 57 65">
<rect width="100%" height="100%" fill="transparent" />
<rect x="26" y="4" width="1" height="1" fill="#4aff6c" />
<rect x="27" y="4" width="1" height="1" fill="#4aff6c" />
<rect x="31" y="4" width="1" height="1" fill="#4aff6c" />
<rect x="32" y="4" width="1" height="1" fill="#4aff6c" />
<rect x="26" y="5" width="1" height="1" fill="#4aff6c" />
<rect x="27" y="5" width="1" height="1" fill="#4aff6c" />
<rect x="30" y="5" width="1" height="1" fill="#4aff6c" />
<rect x="32" y="5" width="1" height="1" fill="#4aff6c" />
<rect x="33" y="5" width="1" height="1" fill="#4aff6c" />
<rect x="34" y="5" width="1" height="1" fill="#4aff6c" />
<rect x="30" y="6" width="1" height="1" fill="#4aff6c" />
<rect x="35" y="6" width="1" height="1" fill="#4aff6c" />
<rect x="26" y="7" width="1" height="1" fill="#4aff6c" />
<rect x="27" y="7" width="1" height="1" fill="#4aff6c" />
<rect x="28" y="7" width="1" height="1" fill="#4aff6c" />
<rect x="29" y="7" width="1" height="1" fill="#4aff6c" />
<rect x="31" y="7" width="1" height="1" fill="#4aff6c" />
<rect x="32" y="7" width="1" height="1" fill="#4aff6c" />
<rect x="35" y="7" width="1" height="1" fill="#4aff6c" />
<rect x="26" y="8" width="1" height="1" fill="#4aff6c" />
<rect x="29" y="8" width="1" height="1" fill="#4aff6c" />
<rect x="31" y="8" width="1" height="1" fill="#4aff6c" />
<rect x="33" y="8" width="1" height="1" fill="#4aff6c" />
<rect x="35" y="8" width="1" height="1" fill="#4aff6c" />
<rect x="36" y="8" width="1" height="1" fill="#4aff6c" />
<rect x="29" y="9" width="1" height="1" fill="#4aff6c" />
<rect x="31" y="9" width="1" height="1" fill="#4aff6c" />
<rect x="33" y="9" width="1" height="1" fill="#4aff6c" />
<rect x="35" y="9" width="1" height="1" fill="#4aff6c" />
<rect x="30" y="10" width="1" height="1" fill="#4aff6c" />
<rect x="31" y="10" width="1" height="1" fill="#4aff6c" />
<rect x="33" y="10" width="1" height="1" fill="#4aff6c" />
<rect x="35" y="10" width="1" height="1" fill="#4aff6c" />
<rect x="34" y="11" width="1" height="1" fill="#4aff6c" />
<rect x="20" y="13" width="1" height="1" fill="#4aff6c" />
<rect x="21" y="13" width="1" height="1" fill="#4aff6c" />
<rect x="21" y="14" width="1" height="1" fill="#4aff6c" />
<rect x="29" y="14" width="1" height="1" fill="#4aff6c" />
<rect x="30" y="14" width="1" height="1" fill="#4aff6c" />
<rect x="21" y="15" width="1" height="1" fill="#4aff6c" />
<rect x="23" y="15" width="1" height="1" fill="#4aff6c" />
<rect x="29" y="15" width="1" height="1" fill="#4aff6c" />
<rect x="30" y="15" width="1" height="1" fill="#4aff6c" />
<rect x="22" y="16" width="1" height="1" fill="#4aff6c" />
<rect x="23" y="16" width="1" height="1" fill="#4aff6c" />
<rect x="49" y="19" width="1" height="1" fill="#4aff6c" />
<rect x="47" y="20" width="1" height="1" fill="#4aff6c" />
<rect x="48" y="20" width="1" height="1" fill="#4aff6c" />
<rect x="49" y="20" width="1" height="1" fill="#4aff6c" />
<rect x="46" y="21" width="1" height="1" fill="#4aff6c" />
<rect x="46" y="22" width="1" height="1" fill="#4aff6c" />
<rect x="47" y="22" width="1" height="1" fill="#4aff6c" />
<rect x="32" y="23" width="1" height="1" fill="#4aff6c" />
<rect x="33" y="23" width="1" height="1" fill="#4aff6c" />
<rect x="32" y="24" width="1" height="1" fill="#4aff6c" />
<rect x="33" y="25" width="1" height="1" fill="#4aff6c" />
<rect x="34" y="25" width="1" height="1" fill="#4aff6c" />
<rect x="35" y="25" width="1" height="1" fill="#4aff6c" />
<rect x="50" y="25" width="1" height="1" fill="#4aff6c" />
<rect x="51" y="25" width="1" height="1" fill="#4aff6c" />
<rect x="52" y="25" width="1" height="1" fill="#4aff6c" />
<rect x="35" y="26" width="1" height="1" fill="#4aff6c" />
<rect x="52" y="26" width="1" height="1" fill="#4aff6c" />
<rect x="51" y="27" width="1" height="1" fill="#4aff6c" />
<rect x="36" y="29" width="1" height="1" fill="#4aff6c" />
<rect x="37" y="29" width="1" height="1" fill="#4aff6c" />
<rect x="8" y="30" width="1" height="1" fill="#4aff6c" />
<rect x="35" y="30" width="1" height="1" fill="#4aff6c" />
<rect x="37" y="30" width="1" height="1" fill="#4aff6c" />
<rect x="43" y="30" width="1" height="1" fill="#4aff6c" />
<rect x="44" y="30" width="1" height="1" fill="#4aff6c" />
<rect x="6" y="31" width="1" height="1" fill="#4aff6c" />
<rect x="7" y="31" width="1" height="1" fill="#4aff6c" />
<rect x="8" y="31" width="1" height="1" fill="#4aff6c" />
<rect x="9" y="31" width="1" height="1" fill="#4aff6c" />
<rect x="10" y="31" width="1" height="1" fill="#4aff6c" />
<rect x="25" y="31" width="1" height="1" fill="#4aff6c" />
<rect x="26" y="31" width="1" height="1" fill="#4aff6c" />
<rect x="35" y="31" width="1" height="1" fill="#4aff6c" />
<rect x="43" y="31" width="1" height="1" fill="#4aff6c" />
<rect x="44" y="31" width="1" height="1" fill="#4aff6c" />
<rect x="5" y="32" width="1" height="1" fill="#4aff6c" />
<rect x="11" y="32" width="1" height="1" fill="#4aff6c" />
<rect x="25" y="32" width="1" height="1" fill="#4aff6c" />
<rect x="34" y="32" width="1" height="1" fill="#4aff6c" />
<rect x="35" y="32" width="1" height="1" fill="#4aff6c" />
<rect x="5" y="33" width="1" height="1" fill="#4aff6c" />
<rect x="8" y="33" width="1" height="1" fill="#4aff6c" />
<rect x="9" y="33" width="1" height="1" fill="#4aff6c" />
<rect x="10" y="33" width="1" height="1" fill="#4aff6c" />
<rect x="23" y="33" width="1" height="1" fill="#4aff6c" />
<rect x="25" y="33" width="1" height="1" fill="#4aff6c" />
<rect x="4" y="34" width="1" height="1" fill="#4aff6c" />
<rect x="5" y="34" width="1" height="1" fill="#4aff6c" />
<rect x="7" y="34" width="1" height="1" fill="#4aff6c" />
<rect x="23" y="34" width="1" height="1" fill="#4aff6c" />
<rect x="24" y="34" width="1" height="1" fill="#4aff6c" />
<rect x="48" y="34" width="1" height="1" fill="#4aff6c" />
<rect x="4" y="35" width="1" height="1" fill="#4aff6c" />
<rect x="7" y="35" width="1" height="1" fill="#4aff6c" />
<rect x="8" y="35" width="1" height="1" fill="#4aff6c" />
<rect x="9" y="35" width="1" height="1" fill="#4aff6c" />
<rect x="10" y="35" width="1" height="1" fill="#4aff6c" />
<rect x="44" y="35" width="1" height="1" fill="#4aff6c" />
<rect x="45" y="35" width="1" height="1" fill="#4aff6c" />
<rect x="47" y="35" width="1" height="1" fill="#4aff6c" />
<rect x="49" y="35" width="1" height="1" fill="#4aff6c" />
<rect x="5" y="36" width="1" height="1" fill="#4aff6c" />
<rect x="6" y="36" width="1" height="1" fill="#4aff6c" />
<rect x="10" y="36" width="1" height="1" fill="#4aff6c" />
<rect x="14" y="36" width="1" height="1" fill="#4aff6c" />
<rect x="15" y="36" width="1" height="1" fill="#4aff6c" />
<rect x="43" y="36" width="1" height="1" fill="#4aff6c" />
<rect x="45" y="36" width="1" height="1" fill="#4aff6c" />
<rect x="47" y="36" width="1" height="1" fill="#4aff6c" />
<rect x="49" y="36" width="1" height="1" fill="#4aff6c" />
<rect x="7" y="37" width="1" height="1" fill="#4aff6c" />
<rect x="8" y="37" width="1" height="1" fill="#4aff6c" />
<rect x="9" y="37" width="1" height="1" fill="#4aff6c" />
<rect x="14" y="37" width="1" height="1" fill="#4aff6c" />
<rect x="15" y="37" width="1" height="1" fill="#4aff6c" />
<rect x="40" y="37" width="1" height="1" fill="#4aff6c" />
<rect x="43" y="37" width="1" height="1" fill="#4aff6c" />
<rect x="45" y="37" width="1" height="1" fill="#4aff6c" />
<rect x="47" y="37" width="1" height="1" fill="#4aff6c" />
<rect x="49" y="37" width="1" height="1" fill="#4aff6c" />
<rect x="50" y="37" width="1" height="1" fill="#4aff6c" />
<rect x="7" y="38" width="1" height="1" fill="#4aff6c" />
<rect x="40" y="38" width="1" height="1" fill="#4aff6c" />
<rect x="41" y="38" width="1" height="1" fill="#4aff6c" />
<rect x="42" y="38" width="1" height="1" fill="#4aff6c" />
<rect x="43" y="38" width="1" height="1" fill="#4aff6c" />
<rect x="45" y="38" width="1" height="1" fill="#4aff6c" />
<rect x="46" y="38" width="1" height="1" fill="#4aff6c" />
<rect x="49" y="38" width="1" height="1" fill="#4aff6c" />
<rect x="4" y="39" width="1" height="1" fill="#4aff6c" />
<rect x="5" y="39" width="1" height="1" fill="#4aff6c" />
<rect x="7" y="39" width="1" height="1" fill="#4aff6c" />
<rect x="44" y="39" width="1" height="1" fill="#4aff6c" />
<rect x="49" y="39" width="1" height="1" fill="#4aff6c" />
<rect x="4" y="40" width="1" height="1" fill="#4aff6c" />
<rect x="5" y="40" width="1" height="1" fill="#4aff6c" />
<rect x="7" y="40" width="1" height="1" fill="#4aff6c" />
<rect x="8" y="40" width="1" height="1" fill="#4aff6c" />
<rect x="40" y="40" width="1" height="1" fill="#4aff6c" />
<rect x="41" y="40" width="1" height="1" fill="#4aff6c" />
<rect x="44" y="40" width="1" height="1" fill="#4aff6c" />
<rect x="46" y="40" width="1" height="1" fill="#4aff6c" />
<rect x="47" y="40" width="1" height="1" fill="#4aff6c" />
<rect x="48" y="40" width="1" height="1" fill="#4aff6c" />
<rect x="40" y="41" width="1" height="1" fill="#4aff6c" />
<rect x="41" y="41" width="1" height="1" fill="#4aff6c" />
<rect x="45" y="41" width="1" height="1" fill="#4aff6c" />
<rect x="46" y="41" width="1" height="1" fill="#4aff6c" />
<rect x="15" y="43" width="1" height="1" fill="#4aff6c" />
<rect x="16" y="43" width="1" height="1" fill="#4aff6c" />
<rect x="16" y="44" width="1" height="1" fill="#4aff6c" />
<rect x="37" y="44" width="1" height="1" fill="#4aff6c" />
<rect x="13" y="45" width="1" height="1" fill="#4aff6c" />
<rect x="14" y="45" width="1" height="1" fill="#4aff6c" />
<rect x="15" y="45" width="1" height="1" fill="#4aff6c" />
<rect x="19" y="45" width="1" height="1" fill="#4aff6c" />
<rect x="20" y="45" width="1" height="1" fill="#4aff6c" />
<rect x="35" y="45" width="1" height="1" fill="#4aff6c" />
<rect x="36" y="45" width="1" height="1" fill="#4aff6c" />
<rect x="37" y="45" width="1" height="1" fill="#4aff6c" />
<rect x="38" y="45" width="1" height="1" fill="#4aff6c" />
<rect x="39" y="45" width="1" height="1" fill="#4aff6c" />
<rect x="13" y="46" width="1" height="1" fill="#4aff6c" />
<rect x="20" y="46" width="1" height="1" fill="#4aff6c" />
<rect x="34" y="46" width="1" height="1" fill="#4aff6c" />
<rect x="40" y="46" width="1" height="1" fill="#4aff6c" />
<rect x="20" y="47" width="1" height="1" fill="#4aff6c" />
<rect x="22" y="47" width="1" height="1" fill="#4aff6c" />
<rect x="35" y="47" width="1" height="1" fill="#4aff6c" />
<rect x="36" y="47" width="1" height="1" fill="#4aff6c" />
<rect x="37" y="47" width="1" height="1" fill="#4aff6c" />
<rect x="40" y="47" width="1" height="1" fill="#4aff6c" />
<rect x="21" y="48" width="1" height="1" fill="#4aff6c" />
<rect x="22" y="48" width="1" height="1" fill="#4aff6c" />
<rect x="38" y="48" width="1" height="1" fill="#4aff6c" />
<rect x="40" y="48" width="1" height="1" fill="#4aff6c" />
<rect x="41" y="48" width="1" height="1" fill="#4aff6c" />
<rect x="35" y="49" width="1" height="1" fill="#4aff6c" />
<rect x="36" y="49" width="1" height="1" fill="#4aff6c" />
<rect x="37" y="49" width="1" height="1" fill="#4aff6c" />
<rect x="38" y="49" width="1" height="1" fill="#4aff6c" />
<rect x="41" y="49" width="1" height="1" fill="#4aff6c" />
<rect x="30" y="50" width="1" height="1" fill="#4aff6c" />
<rect x="31" y="50" width="1" height="1" fill="#4aff6c" />
<rect x="35" y="50" width="1" height="1" fill="#4aff6c" />
<rect x="39" y="50" width="1" height="1" fill="#4aff6c" />
<rect x="40" y="50" width="1" height="1" fill="#4aff6c" />
<rect x="30" y="51" width="1" height="1" fill="#4aff6c" />
<rect x="31" y="51" width="1" height="1" fill="#4aff6c" />
<rect x="36" y="51" width="1" height="1" fill="#4aff6c" />
<rect x="37" y="51" width="1" height="1" fill="#4aff6c" />
<rect x="38" y="51" width="1" height="1" fill="#4aff6c" />
<rect x="38" y="52" width="1" height="1" fill="#4aff6c" />
<rect x="38" y="53" width="1" height="1" fill="#4aff6c" />
<rect x="40" y="53" width="1" height="1" fill="#4aff6c" />
<rect x="41" y="53" width="1" height="1" fill="#4aff6c" />
<rect x="37" y="54" width="1" height="1" fill="#4aff6c" />
<rect x="38" y="54" width="1" height="1" fill="#4aff6c" />
<rect x="40" y="54" width="1" height="1" fill="#4aff6c" />
<rect x="41" y="54" width="1" height="1" fill="#4aff6c" />
<rect x="18" y="57" width="1" height="1" fill="#4aff6c" />
<rect x="19" y="57" width="1" height="1" fill="#4aff6c" />
<rect x="20" y="57" width="1" height="1" fill="#4aff6c" />
<rect x="29" y="57" width="1" height="1" fill="#4aff6c" />
<rect x="30" y="57" width="1" height="1" fill="#4aff6c" />
<rect x="20" y="58" width="1" height="1" fill="#4aff6c" />
<rect x="29" y="58" width="1" height="1" fill="#4aff6c" />
<rect x="19" y="59" width="1" height="1" fill="#4aff6c" />
<rect x="30" y="59" width="1" height="1" fill="#4aff6c" />
<rect x="31" y="59" width="1" height="1" fill="#4aff6c" />
<rect x="32" y="59" width="1" height="1" fill="#4aff6c" />
<rect x="32" y="60" width="1" height="1" fill="#4aff6c" />
</svg>