<?xml version="1.0" encoding="utf-8"?>
<svg xmlns="http://www.w3.org/2000/svg" width="64" height="47" viewBox="0 0 64 47">
<rect width="100%" height="100%" fill="transparent" />
<rect x="5" y="4" width="1" height="1" fill="#4aff6c" />
<rect x="20" y="4" width="1" height="1" fill="#4aff6c" />
<rect x="35" y="4" width="1" height="1" fill="#4aff6c" />
<rect x="50" y="4" width="1" height="1" fill="#4aff6c" />
<rect x="6" y="5" width="1" height="1" fill="#4aff6c" />
<rect x="21" y="5" width="1" height="1" fill="#4aff6c" />
<rect x="36" y="5" width="1" height="1" fill="#4aff6c" />
<rect x="51" y="5" width="1" height="1" fill="#4aff6c" />
<rect x="4" y="6" width="1" height="1" fill="#4aff6c" />
<rect x="5" y="6" width="1" height="1" fill="#4aff6c" />
<rect x="6" y="6" width="1" height="1" fill="#4aff6c" />
<rect x="19" y="6" width="1" height="1" fill="#4aff6c" />
<rect x="20" y="6" width="1" height="1" fill="#4aff6c" />
<rect x="21" y="6" width="1" height="1" fill="#4aff6c" />
<rect x="34" y="6" width="1" height="1" fill="#4aff6c" />
<rect x="35" y="6" width="1" height="1" fill="#4aff6c" />
<rect x="36" y="6" width="1" height="1" fill="#4aff6c" />
<rect x="49" y="6" width="1" height="1" fill="#4aff6c" />
<rect x="50" y="6" width="1" height="1" fill="#4aff6c" />
<rect x="51" y="6" width="1" height="1" fill="#4aff6c" />
<rect x="9" y="10" width="1" height="1" fill="#4aff6c" />
<rect x="10" y="10" width="1" height="1" fill="#4aff6c" />
<rect x="19" y="10" width="1" height="1" fill="#4aff6c" />
<rect x="20" y="10" width="1" height="1" fill="#4aff6c" />
<rect x="36" y="10" width="1" height="1" fill="#4aff6c" />
<rect x="8" y="11" width="1" height="1" fill="#4aff6c" />
<rect x="10" y="11" width="1" height="1" fill="#4aff6c" />
<rect x="18" y="11" width="1" height="1" fill="#4aff6c" />
<rect x="20" y="11" width="1" height="1" fill="#4aff6c" />
<rect x="35" y="11" width="1" height="1" fill="#4aff6c" />
<rect x="37" y="11" width="1" height="1" fill="#4aff6c" />
<rect x="53" y="11" width="1" height="1" fill="#4aff6c" />
<rect x="54" y="11" width="1" height="1" fill="#4aff6c" />
<rect x="55" y="11" width="1" height="1" fill="#4aff6c" />
<rect x="9" y="12" width="1" height="1" fill="#4aff6c" />
<rect x="18" y="12" width="1" height="1" fill="#4aff6c" />
<rect x="36" y="12" width="1" height="1" fill="#4aff6c" />
<rect x="38" y="12" width="1" height="1" fill="#4aff6c" />
<rect x="54" y="12" width="1" height="1" fill="#4aff6c" />
<rect x="55" y="12" width="1" height="1" fill="#4aff6c" />
<rect x="56" y="12" width="1" height="1" fill="#4aff6c" />
<rect x="17" y="13" width="1" height="1" fill="#4aff6c" />
<rect x="18" y="13" width="1" height="1" fill="#4aff6c" />
<rect x="37" y="13" width="1" height="1" fill="#4aff6c" />
<rect x="38" y="13" width="1" height="1" fill="#4aff6c" />
<rect x="5" y="19" width="1" height="1" fill="#4aff6c" />
<rect x="20" y="19" width="1" height="1" fill="#4aff6c" />
<rect x="35" y="19" width="1" height="1" fill="#4aff6c" />
<rect x="50" y="19" width="1" height="1" fill="#4aff6c" />
<rect x="6" y="20" width="1" height="1" fill="#4aff6c" />
<rect x="21" y="20" width="1" height="1" fill="#4aff6c" />
<rect x="36" y="20" width="1" height="1" fill="#4aff6c" />
<rect x="41" y="20" width="1" height="1" fill="#4aff6c" />
<rect x="42" y="20" width="1" height="1" fill="#4aff6c" />
<rect x="51" y="20" width="1" height="1" fill="#4aff6c" />
<rect x="4" y="21" width="1" height="1" fill="#4aff6c" />
<rect x="5" y="21" width="1" height="1" fill="#4aff6c" />
<rect x="6" y="21" width="1" height="1" fill="#4aff6c" />
<rect x="19" y="21" width="1" height="1" fill="#4aff6c" />
<rect x="20" y="21" width="1" height="1" fill="#4aff6c" />
<rect x="21" y="21" width="1" height="1" fill="#4aff6c" />
<rect x="34" y="21" width="1" height="1" fill="#4aff6c" />
<rect x="35" y="21" width="1" height="1" fill="#4aff6c" />
<rect x="36" y="21" width="1" height="1" fill="#4aff6c" />
<rect x="41" y="21" width="1" height="1" fill="#4aff6c" />
<rect x="42" y="21" width="1" height="1" fill="#4aff6c" />
<rect x="49" y="21" width="1" height="1" fill="#4aff6c" />
<rect x="50" y="21" width="1" height="1" fill="#4aff6c" />
<rect x="51" y="21" width="1" height="1" fill="#4aff6c" />
<rect x="58" y="22" width="1" height="1" fill="#4aff6c" />
<rect x="59" y="22" width="1" height="1" fill="#4aff6c" />
<rect x="58" y="23" width="1" height="1" fill="#4aff6c" />
<rect x="59" y="23" width="1" height="1" fill="#4aff6c" />
<rect x="7" y="25" width="1" height="1" fill="#4aff6c" />
<rect x="23" y="25" width="1" height="1" fill="#4aff6c" />
<rect x="24" y="25" width="1" height="1" fill="#4aff6c" />
<rect x="6" y="26" width="1" height="1" fill="#4aff6c" />
<rect x="8" y="26" width="1" height="1" fill="#4aff6c" />
<rect x="22" y="26" width="1" height="1" fill="#4aff6c" />
<rect x="24" y="26" width="1" height="1" fill="#4aff6c" />
<rect x="37" y="26" width="1" height="1" fill="#4aff6c" />
<rect x="38" y="26" width="1" height="1" fill="#4aff6c" />
<rect x="53" y="26" width="1" height="1" fill="#4aff6c" />
<rect x="54" y="26" width="1" height="1" fill="#4aff6c" />
<rect x="5" y="27" width="1" height="1" fill="#4aff6c" />
<rect x="7" y="27" width="1" height="1" fill="#4aff6c" />
<rect x="21" y="27" width="1" height="1" fill="#4aff6c" />
<rect x="23" y="27" width="1" height="1" fill="#4aff6c" />
<rect x="37" y="27" width="1" height="1" fill="#4aff6c" />
<rect x="38" y="27" width="1" height="1" fill="#4aff6c" />
<rect x="53" y="27" width="1" height="1" fill="#4aff6c" />
<rect x="54" y="27" width="1" height="1" fill="#4aff6c" />
<rect x="5" y="28" width="1" height="1" fill="#4aff6c" />
<rect x="6" y="28" width="1" height="1" fill="#4aff6c" />
<rect x="21" y="28" width="1" height="1" fill="#4aff6c" />
<rect x="22" y="28" width="1" height="1" fill="#4aff6c" />
<rect x="5" y="34" width="1" height="1" fill="#4aff6c" />
<rect x="6" y="35" width="1" height="1" fill="#4aff6c" />
<rect x="4" y="36" width="1" height="1" fill="#4aff6c" />
<rect x="5" y="36" width="1" height="1" fill="#4aff6c" />
<rect x="6" y="36" width="1" height="1" fill="#4aff6c" />
<rect x="8" y="40" width="1" height="1" fill="#4aff6c" />
<rect x="9" y="40" width="1" height="1" fill="#4aff6c" />
<rect x="6" y="41" width="1" height="1" fill="#4aff6c" />
<rect x="9" y="41" width="1" height="1" fill="#4aff6c" />
<rect x="6" y="42" width="1" height="1" fill="#4aff6c" />
<rect x="7" y="42" width="1" height="1" fill="#4aff6c" />
</svg>