<?xml version="1.0" encoding="utf-8"?>
<svg xmlns="http://www.w3.org/2000/svg" width="92" height="92" viewBox="0 0 92 92">
<rect width="100%" height="100%" fill="transparent" />
<rect x="16" y="4" width="12" height="12" fill="#4aff6c" />
<rect x="28" y="4" width="12" height="12" fill="#4aff6c" />
<rect x="52" y="4" width="12" height="12" fill="#4aff6c" />
<rect x="64" y="4" width="12" height="12" fill="#4aff6c" />
<rect x="4" y="16" width="12" height="12" fill="#4aff6c" />
<rect x="28" y="16" width="12" height="12" fill="#4aff6c" />
<rect x="40" y="16" width="12" height="12" fill="#4aff6c" />
<rect x="76" y="16" width="12" height="12" fill="#4aff6c" />
<rect x="4" y="28" width="12" height="12" fill="#4aff6c" />
<rect x="16" y="28" width="12" height="12" fill="#4aff6c" />
<rect x="76" y="28" width="12" height="12" fill="#4aff6c" />
<rect x="16" y="40" width="12" height="12" fill="#4aff6c" />
<rect x="64" y="40" width="12" height="12" fill="#4aff6c" />
<rect x="4" y="52" width="12" height="12" fill="#4aff6c" />
<rect x="64" y="52" width="12" height="12" fill="#4aff6c" />
<rect x="76" y="52" width="12" height="12" fill="#4aff6c" />
<rect x="4" y="64" width="12" height="12" fill="#4aff6c" />
<rect x="40" y="64" width="12" height="12" fill="#4aff6c" />
<rect x="52" y="64" width="12" height="12" fill="#4aff6c" />
<rect x="76" y="64" width="12" height="12" fill="#4aff6c" />
<rect x="16" y="76" width="12" height="12" fill="#4aff6c" />
<rect x="28" y="76" width="12" height="12" fill="#4aff6c" />
<rect x="52" y="76" width="12" height="12" fill="#4aff6c" />
<rect x="64" y="76" width="12" height="12" fill="#4aff6c" />
</svg>