<?xml version="1.0" encoding="utf-8"?>
<svg xmlns="http://www.w3.org/2000/svg" width="64" height="13" viewBox="0 0 64 13">
<rect width="100%" height="100%" fill="transparent" />
<rect x="4" y="4" width="1" height="1" fill="#4aff6c" />
<rect x="4" y="5" width="1" height="1" fill="#4aff6c" />
<rect x="5" y="5" width="1" height="1" fill="#4aff6c" />
<rect x="10" y="5" width="1" height="1" fill="#4aff6c" />
<rect x="16" y="5" width="1" height="1" fill="#4aff6c" />
<rect x="22" y="5" width="1" height="1" fill="#4aff6c" />
<rect x="28" y="5" width="1" height="1" fill="#4aff6c" />
<rect x="34" y="5" width="1" height="1" fill="#4aff6c" />
<rect x="40" y="5" width="1" height="1" fill="#4aff6c" />
<rect x="46" y="5" width="1" height="1" fill="#4aff6c" />
<rect x="52" y="5" width="1" height="1" fill="#4aff6c" />
<rect x="58" y="5" width="1" height="1" fill="#4aff6c" />
<rect x="4" y="6" width="1" height="1" fill="#4aff6c" />
<rect x="5" y="6" width="1" height="1" fill="#4aff6c" />
<rect x="6" y="6" width="1" height="1" fill="#4aff6c" />
<rect x="9" y="6" width="1" height="1" fill="#4aff6c" />
<rect x="11" y="6" width="1" height="1" fill="#4aff6c" />
<rect x="15" y="6" width="1" height="1" fill="#4aff6c" />
<rect x="17" y="6" width="1" height="1" fill="#4aff6c" />
<rect x="21" y="6" width="1" height="1" fill="#4aff6c" />
<rect x="23" y="6" width="1" height="1" fill="#4aff6c" />
<rect x="27" y="6" width="1" height="1" fill="#4aff6c" />
<rect x="29" y="6" width="1" height="1" fill="#4aff6c" />
<rect x="33" y="6" width="1" height="1" fill="#4aff6c" />
<rect x="35" y="6" width="1" height="1" fill="#4aff6c" />
<rect x="39" y="6" width="1" height="1" fill="#4aff6c" />
<rect x="41" y="6" width="1" height="1" fill="#4aff6c" />
<rect x="45" y="6" width="1" height="1" fill="#4aff6c" />
<rect x="47" y="6" width="1" height="1" fill="#4aff6c" />
<rect x="51" y="6" width="1" height="1" fill="#4aff6c" />
<rect x="53" y="6" width="1" height="1" fill="#4aff6c" />
<rect x="57" y="6" width="1" height="1" fill="#4aff6c" />
<rect x="59" y="6" width="1" height="1" fill="#4aff6c" />
<rect x="4" y="7" width="1" height="1" fill="#4aff6c" />
<rect x="5" y="7" width="1" height="1" fill="#4aff6c" />
<rect x="10" y="7" width="1" height="1" fill="#4aff6c" />
<rect x="16" y="7" width="1" height="1" fill="#4aff6c" />
<rect x="22" y="7" width="1" height="1" fill="#4aff6c" />
<rect x="28" y="7" width="1" height="1" fill="#4aff6c" />
<rect x="34" y="7" width="1" height="1" fill="#4aff6c" />
<rect x="40" y="7" width="1" height="1" fill="#4aff6c" />
<rect x="46" y="7" width="1" height="1" fill="#4aff6c" />
<rect x="52" y="7" width="1" height="1" fill="#4aff6c" />
<rect x="58" y="7" width="1" height="1" fill="#4aff6c" />
<rect x="4" y="8" width="1" height="1" fill="#4aff6c" />
</svg>