<?xml version="1.0" encoding="utf-8"?>
<svg xmlns="http://www.w3.org/2000/svg" width="112" height="112" viewBox="0 0 112 112">
<rect width="100%" height="100%" fill="transparent" />
<rect x="30" y="4" width="2" height="2" fill="hsl(0, 100%, 60%)" />
<rect x="32" y="4" width="2" height="2" fill="hsl(0, 100%, 60%)" />
<rect x="14" y="6" width="2" height="2" fill="hsl(0, 100%, 60%)" />
<rect x="16" y="6" width="2" height="2" fill="hsl(0, 100%, 60%)" />
<rect x="26" y="6" width="2" height="2" fill="hsl(0, 100%, 60%)" />
<rect x="28" y="6" width="2" height="2" fill="hsl(0, 100%, 60%)" />
<rect x="32" y="6" width="2" height="2" fill="hsl(0, 100%, 60%)" />
<rect x="36" y="6" width="2" height="2" fill="hsl(0, 100%, 60%)" />
<rect x="12" y="8" width="2" height="2" fill="hsl(0, 100%, 60%)" />
<rect x="14" y="8" width="2" height="2" fill="hsl(0, 100%, 60%)" />
<rect x="16" y="8" width="2" height="2" fill="hsl(0, 100%, 60%)" />
<rect x="26" y="8" width="2" height="2" fill="hsl(0, 100%, 60%)" />
<rect x="28" y="8" width="2" height="2" fill="hsl(0, 100%, 60%)" />
<rect x="30" y="8" width="2" height="2" fill="hsl(0, 100%, 60%)" />
<rect x="32" y="8" width="2" height="2" fill="hsl(0, 100%, 60%)" />
<rect x="10" y="10" width="2" height="2" fill="hsl(0, 100%, 60%)" />
<rect x="12" y="10" width="2" height="2" fill="hsl(0, 100%, 60%)" />
<rect x="26" y="10" width="2" height="2" fill="hsl(0, 100%, 60%)" />
<rect x="28" y="10" width="2" height="2" fill="hsl(0, 100%, 60%)" />
<rect x="40" y="10" width="2" height="2" fill="hsl(0, 100%, 60%)" />
<rect x="8" y="12" width="2" height="2" fill="hsl(0, 100%, 60%)" />
<rect x="10" y="12" width="2" height="2" fill="hsl(0, 100%, 60%)" />
<rect x="16" y="12" width="2" height="2" fill="hsl(0, 100%, 60%)" />
<rect x="18" y="12" width="2" height="2" fill="hsl(0, 100%, 60%)" />
<rect x="26" y="12" width="2" height="2" fill="hsl(0, 100%, 60%)" />
<rect x="32" y="12" width="2" height="2" fill="hsl(0, 100%, 60%)" />
<rect x="38" y="12" width="2" height="2" fill="hsl(0, 100%, 60%)" />
<rect x="6" y="14" width="2" height="2" fill="hsl(0, 100%, 60%)" />
<rect x="8" y="14" width="2" height="2" fill="hsl(0, 100%, 60%)" />
<rect x="20" y="14" width="2" height="2" fill="hsl(0, 100%, 60%)" />
<rect x="36" y="14" width="2" height="2" fill="hsl(0, 100%, 60%)" />
<rect x="42" y="14" width="2" height="2" fill="hsl(0, 100%, 60%)" />
<rect x="44" y="14" width="2" height="2" fill="hsl(0, 100%, 60%)" />
<rect x="6" y="16" width="2" height="2" fill="hsl(0, 100%, 60%)" />
<rect x="8" y="16" width="2" height="2" fill="hsl(0, 100%, 60%)" />
<rect x="12" y="16" width="2" height="2" fill="hsl(0, 100%, 60%)" />
<rect x="20" y="16" width="2" height="2" fill="hsl(0, 100%, 60%)" />
<rect x="22" y="16" width="2" height="2" fill="hsl(0, 100%, 60%)" />
<rect x="24" y="16" width="2" height="2" fill="hsl(0, 100%, 60%)" />
<rect x="26" y="16" width="2" height="2" fill="hsl(0, 100%, 60%)" />
<rect x="12" y="18" width="2" height="2" fill="hsl(0, 100%, 60%)" />
<rect x="20" y="18" width="2" height="2" fill="hsl(0, 100%, 60%)" />
<rect x="22" y="18" width="2" height="2" fill="hsl(0, 100%, 60%)" />
<rect x="28" y="18" width="2" height="2" fill="hsl(0, 100%, 60%)" />
<rect x="30" y="18" width="2" height="2" fill="hsl(0, 100%, 60%)" />
<rect x="34" y="18" width="2" height="2" fill="hsl(0, 100%, 60%)" />
<rect x="14" y="20" width="2" height="2" fill="hsl(0, 100%, 60%)" />
<rect x="16" y="20" width="2" height="2" fill="hsl(0, 100%, 60%)" />
<rect x="18" y="20" width="2" height="2" fill="hsl(0, 100%, 60%)" />
<rect x="28" y="20" width="2" height="2" fill="hsl(0, 100%, 60%)" />
<rect x="32" y="20" width="2" height="2" fill="hsl(0, 100%, 60%)" />
<rect x="16" y="22" width="2" height="2" fill="hsl(0, 100%, 60%)" />
<rect x="18" y="22" width="2" height="2" fill="hsl(0, 100%, 60%)" />
<rect x="26" y="22" width="2" height="2" fill="hsl(0, 100%, 60%)" />
<rect x="28" y="22" width="2" height="2" fill="hsl(0, 100%, 60%)" />
<rect x="34" y="22" width="2" height="2" fill="hsl(0, 100%, 60%)" />
<rect x="16" y="24" width="2" height="2" fill="hsl(0, 100%, 60%)" />
<rect x="28" y="24" width="2" height="2" fill="hsl(0, 100%, 60%)" />
<rect x="6" y="26" width="2" height="2" fill="hsl(0, 100%, 60%)" />
<rect x="8" y="26" width="2" height="2" fill="hsl(0, 100%, 60%)" />
<rect x="10" y="26" width="2" height="2" fill="hsl(0, 100%, 60%)" />
<rect x="12" y="26" width="2" height="2" fill="hsl(0, 100%, 60%)" />
<rect x="16" y="26" width="2" height="2" fill="hsl(0, 100%, 60%)" />
<rect x="22" y="26" width="2" height="2" fill="hsl(0, 100%, 60%)" />
<rect x="28" y="26" width="2" height="2" fill="hsl(0, 100%, 60%)" />
<rect x="36" y="26" width="2" height="2" fill="hsl(0, 100%, 60%)" />
<rect x="6" y="28" width="2" height="2" fill="hsl(0, 100%, 60%)" />
<rect x="8" y="28" width="2" height="2" fill="hsl(0, 100%, 60%)" />
<rect x="10" y="28" width="2" height="2" fill="hsl(0, 100%, 60%)" />
<rect x="18" y="28" width="2" height="2" fill="hsl(0, 100%, 60%)" />
<rect x="20" y="28" width="2" height="2" fill="hsl(0, 100%, 60%)" />
<rect x="22" y="28" width="2" height="2" fill="hsl(0, 100%, 60%)" />
<rect x="24" y="28" width="2" height="2" fill="hsl(0, 100%, 60%)" />
<rect x="26" y="28" width="2" height="2" fill="hsl(0, 100%, 60%)" />
<rect x="32" y="28" width="2" height="2" fill="hsl(0, 100%, 60%)" />
<rect x="34" y="28" width="2" height="2" fill="hsl(0, 100%, 60%)" />
<rect x="36" y="28" width="2" height="2" fill="hsl(0, 100%, 60%)" />
<rect x="38" y="28" width="2" height="2" fill="hsl(0, 100%, 60%)" />
<rect x="40" y="28" width="2" height="2" fill="hsl(0, 100%, 60%)" />
<rect x="42" y="28" width="2" height="2" fill="hsl(0, 100%, 60%)" />
<rect x="44" y="28" width="2" height="2" fill="hsl(0, 100%, 60%)" />
<rect x="48" y="28" width="2" height="2" fill="hsl(0, 100%, 60%)" />
<rect x="4" y="30" width="2" height="2" fill="hsl(0, 100%, 60%)" />
<rect x="8" y="30" width="2" height="2" fill="hsl(0, 100%, 60%)" />
<rect x="18" y="30" width="2" height="2" fill="hsl(0, 100%, 60%)" />
<rect x="40" y="30" width="2" height="2" fill="hsl(0, 100%, 60%)" />
<rect x="46" y="30" width="2" height="2" fill="hsl(0, 100%, 60%)" />
<rect x="48" y="30" width="2" height="2" fill="hsl(0, 100%, 60%)" />
<rect x="4" y="32" width="2" height="2" fill="hsl(0, 100%, 60%)" />
<rect x="6" y="32" width="2" height="2" fill="hsl(0, 100%, 60%)" />
<rect x="8" y="32" width="2" height="2" fill="hsl(0, 100%, 60%)" />
<rect x="12" y="32" width="2" height="2" fill="hsl(0, 100%, 60%)" />
<rect x="20" y="32" width="2" height="2" fill="hsl(0, 100%, 60%)" />
<rect x="28" y="32" width="2" height="2" fill="hsl(0, 100%, 60%)" />
<rect x="40" y="32" width="2" height="2" fill="hsl(0, 100%, 60%)" />
<rect x="42" y="32" width="2" height="2" fill="hsl(0, 100%, 60%)" />
<rect x="44" y="32" width="2" height="2" fill="hsl(0, 100%, 60%)" />
<rect x="18" y="34" width="2" height="2" fill="hsl(0, 100%, 60%)" />
<rect x="22" y="34" width="2" height="2" fill="hsl(0, 100%, 60%)" />
<rect x="28" y="34" width="2" height="2" fill="hsl(0, 100%, 60%)" />
<rect x="44" y="34" width="2" height="2" fill="hsl(0, 100%, 60%)" />
<rect x="46" y="34" width="2" height="2" fill="hsl(0, 100%, 60%)" />
<rect x="6" y="36" width="2" height="2" fill="hsl(0, 100%, 60%)" />
<rect x="14" y="36" width="2" height="2" fill="hsl(0, 100%, 60%)" />
<rect x="26" y="36" width="2" height="2" fill="hsl(0, 100%, 60%)" />
<rect x="28" y="36" width="2" height="2" fill="hsl(0, 100%, 60%)" />
<rect x="46" y="36" width="2" height="2" fill="hsl(0, 100%, 60%)" />
<rect x="48" y="36" width="2" height="2" fill="hsl(0, 100%, 60%)" />
<rect x="54" y="36" width="2" height="2" fill="hsl(0, 100%, 60%)" />
<rect x="58" y="36" width="2" height="2" fill="hsl(0, 100%, 60%)" />
<rect x="12" y="38" width="2" height="2" fill="hsl(0, 100%, 60%)" />
<rect x="28" y="38" width="2" height="2" fill="hsl(0, 100%, 60%)" />
<rect x="46" y="38" width="2" height="2" fill="hsl(0, 100%, 60%)" />
<rect x="48" y="38" width="2" height="2" fill="hsl(0, 100%, 60%)" />
<rect x="50" y="38" width="2" height="2" fill="hsl(0, 100%, 60%)" />
<rect x="54" y="38" width="2" height="2" fill="hsl(0, 100%, 60%)" />
<rect x="58" y="38" width="2" height="2" fill="hsl(0, 100%, 60%)" />
<rect x="60" y="38" width="2" height="2" fill="hsl(0, 100%, 60%)" />
<rect x="62" y="38" width="2" height="2" fill="hsl(0, 100%, 60%)" />
<rect x="10" y="40" width="2" height="2" fill="hsl(0, 100%, 60%)" />
<rect x="28" y="40" width="2" height="2" fill="hsl(0, 100%, 60%)" />
<rect x="30" y="40" width="2" height="2" fill="hsl(0, 100%, 60%)" />
<rect x="32" y="40" width="2" height="2" fill="hsl(0, 100%, 60%)" />
<rect x="46" y="40" width="2" height="2" fill="hsl(0, 100%, 60%)" />
<rect x="56" y="40" width="2" height="2" fill="hsl(0, 100%, 60%)" />
<rect x="14" y="42" width="2" height="2" fill="hsl(0, 100%, 60%)" />
<rect x="28" y="42" width="2" height="2" fill="hsl(0, 100%, 60%)" />
<rect x="32" y="42" width="2" height="2" fill="hsl(0, 100%, 60%)" />
<rect x="44" y="42" width="2" height="2" fill="hsl(0, 100%, 60%)" />
<rect x="48" y="42" width="2" height="2" fill="hsl(0, 100%, 60%)" />
<rect x="14" y="44" width="2" height="2" fill="hsl(0, 100%, 60%)" />
<rect x="28" y="44" width="2" height="2" fill="hsl(0, 100%, 60%)" />
<rect x="32" y="44" width="2" height="2" fill="hsl(0, 100%, 60%)" />
<rect x="34" y="44" width="2" height="2" fill="hsl(0, 100%, 60%)" />
<rect x="42" y="44" width="2" height="2" fill="hsl(0, 100%, 60%)" />
<rect x="52" y="44" width="2" height="2" fill="hsl(0, 100%, 60%)" />
<rect x="30" y="46" width="2" height="2" fill="hsl(0, 100%, 60%)" />
<rect x="34" y="46" width="2" height="2" fill="hsl(0, 100%, 60%)" />
<rect x="36" y="46" width="2" height="2" fill="hsl(0, 100%, 60%)" />
<rect x="38" y="46" width="2" height="2" fill="hsl(0, 100%, 60%)" />
<rect x="40" y="46" width="2" height="2" fill="hsl(0, 100%, 60%)" />
<rect x="48" y="46" width="2" height="2" fill="hsl(0, 100%, 60%)" />
<rect x="60" y="46" width="2" height="2" fill="hsl(0, 100%, 60%)" />
<rect x="66" y="46" width="2" height="2" fill="hsl(0, 100%, 60%)" />
<rect x="28" y="48" width="2" height="2" fill="hsl(0, 100%, 60%)" />
<rect x="30" y="48" width="2" height="2" fill="hsl(0, 100%, 60%)" />
<rect x="36" y="48" width="2" height="2" fill="hsl(0, 100%, 60%)" />
<rect x="38" y="48" width="2" height="2" fill="hsl(0, 100%, 60%)" />
<rect x="42" y="48" width="2" height="2" fill="hsl(0, 100%, 60%)" />
<rect x="46" y="48" width="2" height="2" fill="hsl(0, 100%, 60%)" />
<rect x="54" y="48" width="2" height="2" fill="hsl(0, 100%, 60%)" />
<rect x="58" y="48" width="2" height="2" fill="hsl(0, 100%, 60%)" />
<rect x="60" y="48" width="2" height="2" fill="hsl(0, 100%, 60%)" />
<rect x="62" y="48" width="2" height="2" fill="hsl(0, 100%, 60%)" />
<rect x="38" y="50" width="2" height="2" fill="hsl(0, 100%, 60%)" />
<rect x="52" y="50" width="2" height="2" fill="hsl(0, 100%, 60%)" />
<rect x="58" y="50" width="2" height="2" fill="hsl(0, 100%, 60%)" />
<rect x="60" y="50" width="2" height="2" fill="hsl(0, 100%, 60%)" />
<rect x="62" y="50" width="2" height="2" fill="hsl(0, 100%, 60%)" />
<rect x="70" y="50" width="2" height="2" fill="hsl(0, 100%, 60%)" />
<rect x="72" y="50" width="2" height="2" fill="hsl(0, 100%, 60%)" />
<rect x="74" y="50" width="2" height="2" fill="hsl(0, 100%, 60%)" />
<rect x="44" y="52" width="2" height="2" fill="hsl(0, 100%, 60%)" />
<rect x="50" y="52" width="2" height="2" fill="hsl(0, 100%, 60%)" />
<rect x="64" y="52" width="2" height="2" fill="hsl(0, 100%, 60%)" />
<rect x="66" y="52" width="2" height="2" fill="hsl(0, 100%, 60%)" />
<rect x="36" y="54" width="2" height="2" fill="hsl(0, 100%, 60%)" />
<rect x="38" y="54" width="2" height="2" fill="hsl(0, 100%, 60%)" />
<rect x="48" y="54" width="2" height="2" fill="hsl(0, 100%, 60%)" />
<rect x="54" y="54" width="2" height="2" fill="hsl(0, 100%, 60%)" />
<rect x="76" y="54" width="2" height="2" fill="hsl(0, 100%, 60%)" />
<rect x="78" y="54" width="2" height="2" fill="hsl(0, 100%, 60%)" />
<rect x="40" y="56" width="2" height="2" fill="hsl(0, 100%, 60%)" />
<rect x="68" y="56" width="2" height="2" fill="hsl(0, 100%, 60%)" />
<rect x="76" y="56" width="2" height="2" fill="hsl(0, 100%, 60%)" />
<rect x="36" y="58" width="2" height="2" fill="hsl(0, 100%, 60%)" />
<rect x="38" y="58" width="2" height="2" fill="hsl(0, 100%, 60%)" />
<rect x="48" y="58" width="2" height="2" fill="hsl(0, 100%, 60%)" />
<rect x="50" y="58" width="2" height="2" fill="hsl(0, 100%, 60%)" />
<rect x="68" y="58" width="2" height="2" fill="hsl(0, 100%, 60%)" />
<rect x="38" y="60" width="2" height="2" fill="hsl(0, 100%, 60%)" />
<rect x="46" y="60" width="2" height="2" fill="hsl(0, 100%, 60%)" />
<rect x="48" y="60" width="2" height="2" fill="hsl(0, 100%, 60%)" />
<rect x="50" y="60" width="2" height="2" fill="hsl(0, 100%, 60%)" />
<rect x="68" y="60" width="2" height="2" fill="hsl(0, 100%, 60%)" />
<rect x="72" y="60" width="2" height="2" fill="hsl(0, 100%, 60%)" />
<rect x="76" y="60" width="2" height="2" fill="hsl(0, 100%, 60%)" />
<rect x="80" y="60" width="2" height="2" fill="hsl(0, 100%, 60%)" />
<rect x="38" y="62" width="2" height="2" fill="hsl(0, 100%, 60%)" />
<rect x="48" y="62" width="2" height="2" fill="hsl(0, 100%, 60%)" />
<rect x="50" y="62" width="2" height="2" fill="hsl(0, 100%, 60%)" />
<rect x="68" y="62" width="2" height="2" fill="hsl(0, 100%, 60%)" />
<rect x="80" y="62" width="2" height="2" fill="hsl(0, 100%, 60%)" />
<rect x="82" y="62" width="2" height="2" fill="hsl(0, 100%, 60%)" />
<rect x="52" y="64" width="2" height="2" fill="hsl(0, 100%, 60%)" />
<rect x="70" y="64" width="2" height="2" fill="hsl(0, 100%, 60%)" />
<rect x="76" y="64" width="2" height="2" fill="hsl(0, 100%, 60%)" />
<rect x="78" y="64" width="2" height="2" fill="hsl(0, 100%, 60%)" />
<rect x="80" y="64" width="2" height="2" fill="hsl(0, 100%, 60%)" />
<rect x="46" y="66" width="2" height="2" fill="hsl(0, 100%, 60%)" />
<rect x="52" y="66" width="2" height="2" fill="hsl(0, 100%, 60%)" />
<rect x="70" y="66" width="2" height="2" fill="hsl(0, 100%, 60%)" />
<rect x="88" y="66" width="2" height="2" fill="hsl(0, 100%, 60%)" />
<rect x="56" y="68" width="2" height="2" fill="hsl(0, 100%, 60%)" />
<rect x="58" y="68" width="2" height="2" fill="hsl(0, 100%, 60%)" />
<rect x="60" y="68" width="2" height="2" fill="hsl(0, 100%, 60%)" />
<rect x="62" y="68" width="2" height="2" fill="hsl(0, 100%, 60%)" />
<rect x="80" y="68" width="2" height="2" fill="hsl(0, 100%, 60%)" />
<rect x="82" y="68" width="2" height="2" fill="hsl(0, 100%, 60%)" />
<rect x="90" y="68" width="2" height="2" fill="hsl(0, 100%, 60%)" />
<rect x="50" y="70" width="2" height="2" fill="hsl(0, 100%, 60%)" />
<rect x="64" y="70" width="2" height="2" fill="hsl(0, 100%, 60%)" />
<rect x="66" y="70" width="2" height="2" fill="hsl(0, 100%, 60%)" />
<rect x="80" y="70" width="2" height="2" fill="hsl(0, 100%, 60%)" />
<rect x="82" y="70" width="2" height="2" fill="hsl(0, 100%, 60%)" />
<rect x="90" y="70" width="2" height="2" fill="hsl(0, 100%, 60%)" />
<rect x="50" y="72" width="2" height="2" fill="hsl(0, 100%, 60%)" />
<rect x="60" y="72" width="2" height="2" fill="hsl(0, 100%, 60%)" />
<rect x="86" y="72" width="2" height="2" fill="hsl(0, 100%, 60%)" />
<rect x="50" y="74" width="2" height="2" fill="hsl(0, 100%, 60%)" />
<rect x="82" y="74" width="2" height="2" fill="hsl(0, 100%, 60%)" />
<rect x="54" y="76" width="2" height="2" fill="hsl(0, 100%, 60%)" />
<rect x="56" y="76" width="2" height="2" fill="hsl(0, 100%, 60%)" />
<rect x="60" y="76" width="2" height="2" fill="hsl(0, 100%, 60%)" />
<rect x="64" y="76" width="2" height="2" fill="hsl(0, 100%, 60%)" />
<rect x="80" y="76" width="2" height="2" fill="hsl(0, 100%, 60%)" />
<rect x="86" y="76" width="2" height="2" fill="hsl(0, 100%, 60%)" />
<rect x="54" y="78" width="2" height="2" fill="hsl(0, 100%, 60%)" />
<rect x="64" y="78" width="2" height="2" fill="hsl(0, 100%, 60%)" />
<rect x="84" y="78" width="2" height="2" fill="hsl(0, 100%, 60%)" />
<rect x="86" y="78" width="2" height="2" fill="hsl(0, 100%, 60%)" />
<rect x="88" y="78" width="2" height="2" fill="hsl(0, 100%, 60%)" />
<rect x="60" y="80" width="2" height="2" fill="hsl(0, 100%, 60%)" />
<rect x="62" y="80" width="2" height="2" fill="hsl(0, 100%, 60%)" />
<rect x="64" y="80" width="2" height="2" fill="hsl(0, 100%, 60%)" />
<rect x="68" y="80" width="2" height="2" fill="hsl(0, 100%, 60%)" />
<rect x="70" y="80" width="2" height="2" fill="hsl(0, 100%, 60%)" />
<rect x="76" y="80" width="2" height="2" fill="hsl(0, 100%, 60%)" />
<rect x="84" y="80" width="2" height="2" fill="hsl(0, 100%, 60%)" />
<rect x="92" y="80" width="2" height="2" fill="hsl(0, 100%, 60%)" />
<rect x="96" y="80" width="2" height="2" fill="hsl(0, 100%, 60%)" />
<rect x="98" y="80" width="2" height="2" fill="hsl(0, 100%, 60%)" />
<rect x="62" y="82" width="2" height="2" fill="hsl(0, 100%, 60%)" />
<rect x="68" y="82" width="2" height="2" fill="hsl(0, 100%, 60%)" />
<rect x="70" y="82" width="2" height="2" fill="hsl(0, 100%, 60%)" />
<rect x="74" y="82" width="2" height="2" fill="hsl(0, 100%, 60%)" />
<rect x="86" y="82" width="2" height="2" fill="hsl(0, 100%, 60%)" />
<rect x="94" y="82" width="2" height="2" fill="hsl(0, 100%, 60%)" />
<rect x="100" y="82" width="2" height="2" fill="hsl(0, 100%, 60%)" />
<rect x="78" y="84" width="2" height="2" fill="hsl(0, 100%, 60%)" />
<rect x="80" y="84" width="2" height="2" fill="hsl(0, 100%, 60%)" />
<rect x="86" y="84" width="2" height="2" fill="hsl(0, 100%, 60%)" />
<rect x="94" y="84" width="2" height="2" fill="hsl(0, 100%, 60%)" />
<rect x="72" y="86" width="2" height="2" fill="hsl(0, 100%, 60%)" />
<rect x="76" y="86" width="2" height="2" fill="hsl(0, 100%, 60%)" />
<rect x="78" y="86" width="2" height="2" fill="hsl(0, 100%, 60%)" />
<rect x="82" y="86" width="2" height="2" fill="hsl(0, 100%, 60%)" />
<rect x="84" y="86" width="2" height="2" fill="hsl(0, 100%, 60%)" />
<rect x="88" y="86" width="2" height="2" fill="hsl(0, 100%, 60%)" />
<rect x="94" y="86" width="2" height="2" fill="hsl(0, 100%, 60%)" />
<rect x="96" y="86" width="2" height="2" fill="hsl(0, 100%, 60%)" />
<rect x="104" y="86" width="2" height="2" fill="hsl(0, 100%, 60%)" />
<rect x="66" y="88" width="2" height="2" fill="hsl(0, 100%, 60%)" />
<rect x="78" y="88" width="2" height="2" fill="hsl(0, 100%, 60%)" />
<rect x="86" y="88" width="2" height="2" fill="hsl(0, 100%, 60%)" />
<rect x="102" y="88" width="2" height="2" fill="hsl(0, 100%, 60%)" />
<rect x="106" y="88" width="2" height="2" fill="hsl(0, 100%, 60%)" />
<rect x="68" y="90" width="2" height="2" fill="hsl(0, 100%, 60%)" />
<rect x="70" y="90" width="2" height="2" fill="hsl(0, 100%, 60%)" />
<rect x="96" y="90" width="2" height="2" fill="hsl(0, 100%, 60%)" />
<rect x="98" y="90" width="2" height="2" fill="hsl(0, 100%, 60%)" />
<rect x="106" y="90" width="2" height="2" fill="hsl(0, 100%, 60%)" />
<rect x="80" y="92" width="2" height="2" fill="hsl(0, 100%, 60%)" />
<rect x="96" y="92" width="2" height="2" fill="hsl(0, 100%, 60%)" />
<rect x="98" y="92" width="2" height="2" fill="hsl(0, 100%, 60%)" />
<rect x="82" y="94" width="2" height="2" fill="hsl(0, 100%, 60%)" />
<rect x="84" y="94" width="2" height="2" fill="hsl(0, 100%, 60%)" />
<rect x="86" y="94" width="2" height="2" fill="hsl(0, 100%, 60%)" />
<rect x="94" y="94" width="2" height="2" fill="hsl(0, 100%, 60%)" />
<rect x="96" y="94" width="2" height="2" fill="hsl(0, 100%, 60%)" />
<rect x="102" y="94" width="2" height="2" fill="hsl(0, 100%, 60%)" />
<rect x="80" y="96" width="2" height="2" fill="hsl(0, 100%, 60%)" />
<rect x="86" y="96" width="2" height="2" fill="hsl(0, 100%, 60%)" />
<rect x="90" y="96" width="2" height="2" fill="hsl(0, 100%, 60%)" />
<rect x="92" y="96" width="2" height="2" fill="hsl(0, 100%, 60%)" />
<rect x="94" y="96" width="2" height="2" fill="hsl(0, 100%, 60%)" />
<rect x="80" y="98" width="2" height="2" fill="hsl(0, 100%, 60%)" />
<rect x="90" y="98" width="2" height="2" fill="hsl(0, 100%, 60%)" />
<rect x="92" y="98" width="2" height="2" fill="hsl(0, 100%, 60%)" />
<rect x="82" y="100" width="2" height="2" fill="hsl(0, 100%, 60%)" />
<rect x="88" y="102" width="2" height="2" fill="hsl(0, 100%, 60%)" />
<rect x="94" y="102" width="2" height="2" fill="hsl(0, 100%, 60%)" />
<rect x="86" y="104" width="2" height="2" fill="hsl(0, 100%, 60%)" />
<rect x="88" y="106" width="2" height="2" fill="hsl(0, 100%, 60%)" />
<rect x="90" y="106" width="2" height="2" fill="hsl(0, 100%, 60%)" />
</svg>