<?xml version="1.0" encoding="utf-8"?>
<svg xmlns="http://www.w3.org/2000/svg" width="106" height="102" viewBox="0 0 106 102">
<rect width="100%" height="100%" fill="transparent" />
<rect x="16" y="4" width="2" height="2" fill="hsl(0, 100%, 60%)" />
<rect x="22" y="4" width="2" height="2" fill="hsl(0, 100%, 60%)" />
<rect x="12" y="6" width="2" height="2" fill="hsl(0, 100%, 60%)" />
<rect x="14" y="6" width="2" height="2" fill="hsl(0, 100%, 60%)" />
<rect x="16" y="6" width="2" height="2" fill="hsl(0, 100%, 60%)" />
<rect x="18" y="6" width="2" height="2" fill="hsl(0, 100%, 60%)" />
<rect x="20" y="6" width="2" height="2" fill="hsl(0, 100%, 60%)" />
<rect x="22" y="6" width="2" height="2" fill="hsl(0, 100%, 60%)" />
<rect x="10" y="8" width="2" height="2" fill="hsl(0, 100%, 60%)" />
<rect x="10" y="10" width="2" height="2" fill="hsl(0, 100%, 60%)" />
<rect x="16" y="10" width="2" height="2" fill="hsl(0, 100%, 60%)" />
<rect x="18" y="10" width="2" height="2" fill="hsl(0, 100%, 60%)" />
<rect x="20" y="10" width="2" height="2" fill="hsl(0, 100%, 60%)" />
<rect x="22" y="10" width="2" height="2" fill="hsl(0, 100%, 60%)" />
<rect x="24" y="10" width="2" height="2" fill="hsl(0, 100%, 60%)" />
<rect x="26" y="10" width="2" height="2" fill="hsl(0, 100%, 60%)" />
<rect x="4" y="12" width="2" height="2" fill="hsl(0, 100%, 60%)" />
<rect x="6" y="12" width="2" height="2" fill="hsl(0, 100%, 60%)" />
<rect x="10" y="12" width="2" height="2" fill="hsl(0, 100%, 60%)" />
<rect x="14" y="12" width="2" height="2" fill="hsl(0, 100%, 60%)" />
<rect x="18" y="12" width="2" height="2" fill="hsl(0, 100%, 60%)" />
<rect x="28" y="12" width="2" height="2" fill="hsl(0, 100%, 60%)" />
<rect x="4" y="14" width="2" height="2" fill="hsl(0, 100%, 60%)" />
<rect x="6" y="14" width="2" height="2" fill="hsl(0, 100%, 60%)" />
<rect x="10" y="14" width="2" height="2" fill="hsl(0, 100%, 60%)" />
<rect x="14" y="14" width="2" height="2" fill="hsl(0, 100%, 60%)" />
<rect x="18" y="14" width="2" height="2" fill="hsl(0, 100%, 60%)" />
<rect x="20" y="14" width="2" height="2" fill="hsl(0, 100%, 60%)" />
<rect x="22" y="14" width="2" height="2" fill="hsl(0, 100%, 60%)" />
<rect x="24" y="14" width="2" height="2" fill="hsl(0, 100%, 60%)" />
<rect x="26" y="14" width="2" height="2" fill="hsl(0, 100%, 60%)" />
<rect x="28" y="14" width="2" height="2" fill="hsl(0, 100%, 60%)" />
<rect x="12" y="16" width="2" height="2" fill="hsl(0, 100%, 60%)" />
<rect x="14" y="16" width="2" height="2" fill="hsl(0, 100%, 60%)" />
<rect x="18" y="16" width="2" height="2" fill="hsl(0, 100%, 60%)" />
<rect x="34" y="16" width="2" height="2" fill="hsl(0, 100%, 60%)" />
<rect x="18" y="18" width="2" height="2" fill="hsl(0, 100%, 60%)" />
<rect x="24" y="18" width="2" height="2" fill="hsl(0, 100%, 60%)" />
<rect x="26" y="18" width="2" height="2" fill="hsl(0, 100%, 60%)" />
<rect x="28" y="18" width="2" height="2" fill="hsl(0, 100%, 60%)" />
<rect x="30" y="18" width="2" height="2" fill="hsl(0, 100%, 60%)" />
<rect x="32" y="18" width="2" height="2" fill="hsl(0, 100%, 60%)" />
<rect x="34" y="18" width="2" height="2" fill="hsl(0, 100%, 60%)" />
<rect x="18" y="20" width="2" height="2" fill="hsl(0, 100%, 60%)" />
<rect x="22" y="20" width="2" height="2" fill="hsl(0, 100%, 60%)" />
<rect x="16" y="22" width="2" height="2" fill="hsl(0, 100%, 60%)" />
<rect x="18" y="22" width="2" height="2" fill="hsl(0, 100%, 60%)" />
<rect x="22" y="22" width="2" height="2" fill="hsl(0, 100%, 60%)" />
<rect x="28" y="22" width="2" height="2" fill="hsl(0, 100%, 60%)" />
<rect x="30" y="22" width="2" height="2" fill="hsl(0, 100%, 60%)" />
<rect x="32" y="22" width="2" height="2" fill="hsl(0, 100%, 60%)" />
<rect x="34" y="22" width="2" height="2" fill="hsl(0, 100%, 60%)" />
<rect x="36" y="22" width="2" height="2" fill="hsl(0, 100%, 60%)" />
<rect x="38" y="22" width="2" height="2" fill="hsl(0, 100%, 60%)" />
<rect x="22" y="24" width="2" height="2" fill="hsl(0, 100%, 60%)" />
<rect x="26" y="24" width="2" height="2" fill="hsl(0, 100%, 60%)" />
<rect x="40" y="24" width="2" height="2" fill="hsl(0, 100%, 60%)" />
<rect x="22" y="26" width="2" height="2" fill="hsl(0, 100%, 60%)" />
<rect x="26" y="26" width="2" height="2" fill="hsl(0, 100%, 60%)" />
<rect x="32" y="26" width="2" height="2" fill="hsl(0, 100%, 60%)" />
<rect x="34" y="26" width="2" height="2" fill="hsl(0, 100%, 60%)" />
<rect x="36" y="26" width="2" height="2" fill="hsl(0, 100%, 60%)" />
<rect x="38" y="26" width="2" height="2" fill="hsl(0, 100%, 60%)" />
<rect x="40" y="26" width="2" height="2" fill="hsl(0, 100%, 60%)" />
<rect x="24" y="28" width="2" height="2" fill="hsl(0, 100%, 60%)" />
<rect x="26" y="28" width="2" height="2" fill="hsl(0, 100%, 60%)" />
<rect x="30" y="28" width="2" height="2" fill="hsl(0, 100%, 60%)" />
<rect x="46" y="28" width="2" height="2" fill="hsl(0, 100%, 60%)" />
<rect x="30" y="30" width="2" height="2" fill="hsl(0, 100%, 60%)" />
<rect x="36" y="30" width="2" height="2" fill="hsl(0, 100%, 60%)" />
<rect x="38" y="30" width="2" height="2" fill="hsl(0, 100%, 60%)" />
<rect x="40" y="30" width="2" height="2" fill="hsl(0, 100%, 60%)" />
<rect x="42" y="30" width="2" height="2" fill="hsl(0, 100%, 60%)" />
<rect x="44" y="30" width="2" height="2" fill="hsl(0, 100%, 60%)" />
<rect x="46" y="30" width="2" height="2" fill="hsl(0, 100%, 60%)" />
<rect x="30" y="32" width="2" height="2" fill="hsl(0, 100%, 60%)" />
<rect x="34" y="32" width="2" height="2" fill="hsl(0, 100%, 60%)" />
<rect x="28" y="34" width="2" height="2" fill="hsl(0, 100%, 60%)" />
<rect x="30" y="34" width="2" height="2" fill="hsl(0, 100%, 60%)" />
<rect x="34" y="34" width="2" height="2" fill="hsl(0, 100%, 60%)" />
<rect x="40" y="34" width="2" height="2" fill="hsl(0, 100%, 60%)" />
<rect x="42" y="34" width="2" height="2" fill="hsl(0, 100%, 60%)" />
<rect x="44" y="34" width="2" height="2" fill="hsl(0, 100%, 60%)" />
<rect x="46" y="34" width="2" height="2" fill="hsl(0, 100%, 60%)" />
<rect x="48" y="34" width="2" height="2" fill="hsl(0, 100%, 60%)" />
<rect x="50" y="34" width="2" height="2" fill="hsl(0, 100%, 60%)" />
<rect x="34" y="36" width="2" height="2" fill="hsl(0, 100%, 60%)" />
<rect x="38" y="36" width="2" height="2" fill="hsl(0, 100%, 60%)" />
<rect x="52" y="36" width="2" height="2" fill="hsl(0, 100%, 60%)" />
<rect x="34" y="38" width="2" height="2" fill="hsl(0, 100%, 60%)" />
<rect x="38" y="38" width="2" height="2" fill="hsl(0, 100%, 60%)" />
<rect x="44" y="38" width="2" height="2" fill="hsl(0, 100%, 60%)" />
<rect x="46" y="38" width="2" height="2" fill="hsl(0, 100%, 60%)" />
<rect x="48" y="38" width="2" height="2" fill="hsl(0, 100%, 60%)" />
<rect x="50" y="38" width="2" height="2" fill="hsl(0, 100%, 60%)" />
<rect x="52" y="38" width="2" height="2" fill="hsl(0, 100%, 60%)" />
<rect x="36" y="40" width="2" height="2" fill="hsl(0, 100%, 60%)" />
<rect x="38" y="40" width="2" height="2" fill="hsl(0, 100%, 60%)" />
<rect x="42" y="40" width="2" height="2" fill="hsl(0, 100%, 60%)" />
<rect x="58" y="40" width="2" height="2" fill="hsl(0, 100%, 60%)" />
<rect x="42" y="42" width="2" height="2" fill="hsl(0, 100%, 60%)" />
<rect x="48" y="42" width="2" height="2" fill="hsl(0, 100%, 60%)" />
<rect x="50" y="42" width="2" height="2" fill="hsl(0, 100%, 60%)" />
<rect x="52" y="42" width="2" height="2" fill="hsl(0, 100%, 60%)" />
<rect x="54" y="42" width="2" height="2" fill="hsl(0, 100%, 60%)" />
<rect x="56" y="42" width="2" height="2" fill="hsl(0, 100%, 60%)" />
<rect x="58" y="42" width="2" height="2" fill="hsl(0, 100%, 60%)" />
<rect x="42" y="44" width="2" height="2" fill="hsl(0, 100%, 60%)" />
<rect x="46" y="44" width="2" height="2" fill="hsl(0, 100%, 60%)" />
<rect x="40" y="46" width="2" height="2" fill="hsl(0, 100%, 60%)" />
<rect x="42" y="46" width="2" height="2" fill="hsl(0, 100%, 60%)" />
<rect x="46" y="46" width="2" height="2" fill="hsl(0, 100%, 60%)" />
<rect x="52" y="46" width="2" height="2" fill="hsl(0, 100%, 60%)" />
<rect x="54" y="46" width="2" height="2" fill="hsl(0, 100%, 60%)" />
<rect x="56" y="46" width="2" height="2" fill="hsl(0, 100%, 60%)" />
<rect x="58" y="46" width="2" height="2" fill="hsl(0, 100%, 60%)" />
<rect x="60" y="46" width="2" height="2" fill="hsl(0, 100%, 60%)" />
<rect x="62" y="46" width="2" height="2" fill="hsl(0, 100%, 60%)" />
<rect x="46" y="48" width="2" height="2" fill="hsl(0, 100%, 60%)" />
<rect x="50" y="48" width="2" height="2" fill="hsl(0, 100%, 60%)" />
<rect x="64" y="48" width="2" height="2" fill="hsl(0, 100%, 60%)" />
<rect x="46" y="50" width="2" height="2" fill="hsl(0, 100%, 60%)" />
<rect x="50" y="50" width="2" height="2" fill="hsl(0, 100%, 60%)" />
<rect x="56" y="50" width="2" height="2" fill="hsl(0, 100%, 60%)" />
<rect x="58" y="50" width="2" height="2" fill="hsl(0, 100%, 60%)" />
<rect x="60" y="50" width="2" height="2" fill="hsl(0, 100%, 60%)" />
<rect x="62" y="50" width="2" height="2" fill="hsl(0, 100%, 60%)" />
<rect x="64" y="50" width="2" height="2" fill="hsl(0, 100%, 60%)" />
<rect x="48" y="52" width="2" height="2" fill="hsl(0, 100%, 60%)" />
<rect x="50" y="52" width="2" height="2" fill="hsl(0, 100%, 60%)" />
<rect x="54" y="52" width="2" height="2" fill="hsl(0, 100%, 60%)" />
<rect x="70" y="52" width="2" height="2" fill="hsl(0, 100%, 60%)" />
<rect x="54" y="54" width="2" height="2" fill="hsl(0, 100%, 60%)" />
<rect x="60" y="54" width="2" height="2" fill="hsl(0, 100%, 60%)" />
<rect x="62" y="54" width="2" height="2" fill="hsl(0, 100%, 60%)" />
<rect x="64" y="54" width="2" height="2" fill="hsl(0, 100%, 60%)" />
<rect x="66" y="54" width="2" height="2" fill="hsl(0, 100%, 60%)" />
<rect x="68" y="54" width="2" height="2" fill="hsl(0, 100%, 60%)" />
<rect x="70" y="54" width="2" height="2" fill="hsl(0, 100%, 60%)" />
<rect x="54" y="56" width="2" height="2" fill="hsl(0, 100%, 60%)" />
<rect x="58" y="56" width="2" height="2" fill="hsl(0, 100%, 60%)" />
<rect x="52" y="58" width="2" height="2" fill="hsl(0, 100%, 60%)" />
<rect x="54" y="58" width="2" height="2" fill="hsl(0, 100%, 60%)" />
<rect x="58" y="58" width="2" height="2" fill="hsl(0, 100%, 60%)" />
<rect x="64" y="58" width="2" height="2" fill="hsl(0, 100%, 60%)" />
<rect x="66" y="58" width="2" height="2" fill="hsl(0, 100%, 60%)" />
<rect x="68" y="58" width="2" height="2" fill="hsl(0, 100%, 60%)" />
<rect x="70" y="58" width="2" height="2" fill="hsl(0, 100%, 60%)" />
<rect x="72" y="58" width="2" height="2" fill="hsl(0, 100%, 60%)" />
<rect x="74" y="58" width="2" height="2" fill="hsl(0, 100%, 60%)" />
<rect x="58" y="60" width="2" height="2" fill="hsl(0, 100%, 60%)" />
<rect x="62" y="60" width="2" height="2" fill="hsl(0, 100%, 60%)" />
<rect x="76" y="60" width="2" height="2" fill="hsl(0, 100%, 60%)" />
<rect x="58" y="62" width="2" height="2" fill="hsl(0, 100%, 60%)" />
<rect x="62" y="62" width="2" height="2" fill="hsl(0, 100%, 60%)" />
<rect x="68" y="62" width="2" height="2" fill="hsl(0, 100%, 60%)" />
<rect x="70" y="62" width="2" height="2" fill="hsl(0, 100%, 60%)" />
<rect x="72" y="62" width="2" height="2" fill="hsl(0, 100%, 60%)" />
<rect x="74" y="62" width="2" height="2" fill="hsl(0, 100%, 60%)" />
<rect x="76" y="62" width="2" height="2" fill="hsl(0, 100%, 60%)" />
<rect x="60" y="64" width="2" height="2" fill="hsl(0, 100%, 60%)" />
<rect x="62" y="64" width="2" height="2" fill="hsl(0, 100%, 60%)" />
<rect x="66" y="64" width="2" height="2" fill="hsl(0, 100%, 60%)" />
<rect x="82" y="64" width="2" height="2" fill="hsl(0, 100%, 60%)" />
<rect x="66" y="66" width="2" height="2" fill="hsl(0, 100%, 60%)" />
<rect x="72" y="66" width="2" height="2" fill="hsl(0, 100%, 60%)" />
<rect x="74" y="66" width="2" height="2" fill="hsl(0, 100%, 60%)" />
<rect x="76" y="66" width="2" height="2" fill="hsl(0, 100%, 60%)" />
<rect x="78" y="66" width="2" height="2" fill="hsl(0, 100%, 60%)" />
<rect x="80" y="66" width="2" height="2" fill="hsl(0, 100%, 60%)" />
<rect x="82" y="66" width="2" height="2" fill="hsl(0, 100%, 60%)" />
<rect x="66" y="68" width="2" height="2" fill="hsl(0, 100%, 60%)" />
<rect x="70" y="68" width="2" height="2" fill="hsl(0, 100%, 60%)" />
<rect x="64" y="70" width="2" height="2" fill="hsl(0, 100%, 60%)" />
<rect x="66" y="70" width="2" height="2" fill="hsl(0, 100%, 60%)" />
<rect x="70" y="70" width="2" height="2" fill="hsl(0, 100%, 60%)" />
<rect x="76" y="70" width="2" height="2" fill="hsl(0, 100%, 60%)" />
<rect x="78" y="70" width="2" height="2" fill="hsl(0, 100%, 60%)" />
<rect x="80" y="70" width="2" height="2" fill="hsl(0, 100%, 60%)" />
<rect x="82" y="70" width="2" height="2" fill="hsl(0, 100%, 60%)" />
<rect x="84" y="70" width="2" height="2" fill="hsl(0, 100%, 60%)" />
<rect x="86" y="70" width="2" height="2" fill="hsl(0, 100%, 60%)" />
<rect x="70" y="72" width="2" height="2" fill="hsl(0, 100%, 60%)" />
<rect x="74" y="72" width="2" height="2" fill="hsl(0, 100%, 60%)" />
<rect x="88" y="72" width="2" height="2" fill="hsl(0, 100%, 60%)" />
<rect x="70" y="74" width="2" height="2" fill="hsl(0, 100%, 60%)" />
<rect x="74" y="74" width="2" height="2" fill="hsl(0, 100%, 60%)" />
<rect x="80" y="74" width="2" height="2" fill="hsl(0, 100%, 60%)" />
<rect x="82" y="74" width="2" height="2" fill="hsl(0, 100%, 60%)" />
<rect x="84" y="74" width="2" height="2" fill="hsl(0, 100%, 60%)" />
<rect x="86" y="74" width="2" height="2" fill="hsl(0, 100%, 60%)" />
<rect x="88" y="74" width="2" height="2" fill="hsl(0, 100%, 60%)" />
<rect x="72" y="76" width="2" height="2" fill="hsl(0, 100%, 60%)" />
<rect x="74" y="76" width="2" height="2" fill="hsl(0, 100%, 60%)" />
<rect x="78" y="76" width="2" height="2" fill="hsl(0, 100%, 60%)" />
<rect x="94" y="76" width="2" height="2" fill="hsl(0, 100%, 60%)" />
<rect x="78" y="78" width="2" height="2" fill="hsl(0, 100%, 60%)" />
<rect x="84" y="78" width="2" height="2" fill="hsl(0, 100%, 60%)" />
<rect x="86" y="78" width="2" height="2" fill="hsl(0, 100%, 60%)" />
<rect x="88" y="78" width="2" height="2" fill="hsl(0, 100%, 60%)" />
<rect x="90" y="78" width="2" height="2" fill="hsl(0, 100%, 60%)" />
<rect x="92" y="78" width="2" height="2" fill="hsl(0, 100%, 60%)" />
<rect x="94" y="78" width="2" height="2" fill="hsl(0, 100%, 60%)" />
<rect x="78" y="80" width="2" height="2" fill="hsl(0, 100%, 60%)" />
<rect x="82" y="80" width="2" height="2" fill="hsl(0, 100%, 60%)" />
<rect x="76" y="82" width="2" height="2" fill="hsl(0, 100%, 60%)" />
<rect x="78" y="82" width="2" height="2" fill="hsl(0, 100%, 60%)" />
<rect x="82" y="82" width="2" height="2" fill="hsl(0, 100%, 60%)" />
<rect x="88" y="82" width="2" height="2" fill="hsl(0, 100%, 60%)" />
<rect x="90" y="82" width="2" height="2" fill="hsl(0, 100%, 60%)" />
<rect x="92" y="82" width="2" height="2" fill="hsl(0, 100%, 60%)" />
<rect x="94" y="82" width="2" height="2" fill="hsl(0, 100%, 60%)" />
<rect x="96" y="82" width="2" height="2" fill="hsl(0, 100%, 60%)" />
<rect x="98" y="82" width="2" height="2" fill="hsl(0, 100%, 60%)" />
<rect x="82" y="84" width="2" height="2" fill="hsl(0, 100%, 60%)" />
<rect x="86" y="84" width="2" height="2" fill="hsl(0, 100%, 60%)" />
<rect x="100" y="84" width="2" height="2" fill="hsl(0, 100%, 60%)" />
<rect x="82" y="86" width="2" height="2" fill="hsl(0, 100%, 60%)" />
<rect x="86" y="86" width="2" height="2" fill="hsl(0, 100%, 60%)" />
<rect x="92" y="86" width="2" height="2" fill="hsl(0, 100%, 60%)" />
<rect x="94" y="86" width="2" height="2" fill="hsl(0, 100%, 60%)" />
<rect x="96" y="86" width="2" height="2" fill="hsl(0, 100%, 60%)" />
<rect x="100" y="86" width="2" height="2" fill="hsl(0, 100%, 60%)" />
<rect x="84" y="88" width="2" height="2" fill="hsl(0, 100%, 60%)" />
<rect x="86" y="88" width="2" height="2" fill="hsl(0, 100%, 60%)" />
<rect x="90" y="88" width="2" height="2" fill="hsl(0, 100%, 60%)" />
<rect x="98" y="88" width="2" height="2" fill="hsl(0, 100%, 60%)" />
<rect x="90" y="90" width="2" height="2" fill="hsl(0, 100%, 60%)" />
<rect x="96" y="90" width="2" height="2" fill="hsl(0, 100%, 60%)" />
<rect x="90" y="92" width="2" height="2" fill="hsl(0, 100%, 60%)" />
<rect x="94" y="92" width="2" height="2" fill="hsl(0, 100%, 60%)" />
<rect x="88" y="94" width="2" height="2" fill="hsl(0, 100%, 60%)" />
<rect x="90" y="94" width="2" height="2" fill="hsl(0, 100%, 60%)" />
<rect x="94" y="94" width="2" height="2" fill="hsl(0, 100%, 60%)" />
<rect x="98" y="94" width="2" height="2" fill="hsl(0, 100%, 60%)" />
<rect x="96" y="96" width="2" height="2" fill="hsl(0, 100%, 60%)" />
<rect x="98" y="96" width="2" height="2" fill="hsl(0, 100%, 60%)" />
</svg>