<?xml version="1.0" encoding="utf-8"?>
<svg xmlns="http://www.w3.org/2000/svg" width="128" height="128" viewBox="0 0 128 128">
<rect width="100%" height="100%" fill="transparent" />
<rect x="49" y="4" width="15" height="15" fill="hsl(0, 100%, 60%)" />
<rect x="34" y="19" width="15" height="15" fill="hsl(0, 100%, 60%)" />
<rect x="64" y="19" width="15" height="15" fill="hsl(0, 100%, 60%)" />
<rect x="19" y="34" width="15" height="15" fill="hsl(0, 100%, 60%)" />
<rect x="49" y="34" width="15" height="15" fill="hsl(0, 100%, 60%)" />
<rect x="64" y="34" width="15" height="15" fill="hsl(0, 100%, 60%)" />
<rect x="4" y="49" width="15" height="15" fill="hsl(0, 100%, 60%)" />
<rect x="34" y="49" width="15" height="15" fill="hsl(0, 100%, 60%)" />
<rect x="79" y="49" width="15" height="15" fill="hsl(0, 100%, 60%)" />
<rect x="94" y="49" width="15" height="15" fill="hsl(0, 100%, 60%)" />
<rect x="19" y="64" width="15" height="15" fill="hsl(0, 100%, 60%)" />
<rect x="34" y="64" width="15" height="15" fill="hsl(0, 100%, 60%)" />
<rect x="79" y="64" width="15" height="15" fill="hsl(0, 100%, 60%)" />
<rect x="109" y="64" width="15" height="15" fill="hsl(0, 100%, 60%)" />
<rect x="49" y="79" width="15" height="15" fill="hsl(0, 100%, 60%)" />
<rect x="64" y="79" width="15" height="15" fill="hsl(0, 100%, 60%)" />
<rect x="94" y="79" width="15" height="15" fill="hsl(0, 100%, 60%)" />
<rect x="49" y="94" width="15" height="15" fill="hsl(0, 100%, 60%)" />
<rect x="79" y="94" width="15" height="15" fill="hsl(0, 100%, 60%)" />
<rect x="64" y="109" width="15" height="15" fill="hsl(0, 100%, 60%)" />
</svg>