<?xml version="1.0" encoding="utf-8"?>
<svg xmlns="http://www.w3.org/2000/svg" width="123" height="123" viewBox="0 0 123 123">
<rect width="100%" height="100%" fill="transparent" />
<rect x="104" y="4" width="5" height="5" fill="hsl(0, 100%, 60%)" />
<rect x="109" y="4" width="5" height="5" fill="hsl(0, 100%, 60%)" />
<rect x="104" y="9" width="5" height="5" fill="hsl(0, 100%, 60%)" />
<rect x="109" y="9" width="5" height="5" fill="hsl(0, 100%, 60%)" />
<rect x="99" y="14" width="5" height="5" fill="hsl(0, 100%, 60%)" />
<rect x="114" y="14" width="5" height="5" fill="hsl(0, 100%, 60%)" />
<rect x="84" y="19" width="5" height="5" fill="hsl(0, 100%, 60%)" />
<rect x="89" y="19" width="5" height="5" fill="hsl(0, 100%, 60%)" />
<rect x="99" y="19" width="5" height="5" fill="hsl(0, 100%, 60%)" />
<rect x="114" y="19" width="5" height="5" fill="hsl(0, 100%, 60%)" />
<rect x="114" y="24" width="5" height="5" fill="hsl(0, 100%, 60%)" />
<rect x="74" y="29" width="5" height="5" fill="hsl(0, 100%, 60%)" />
<rect x="79" y="29" width="5" height="5" fill="hsl(0, 100%, 60%)" />
<rect x="99" y="29" width="5" height="5" fill="hsl(0, 100%, 60%)" />
<rect x="114" y="29" width="5" height="5" fill="hsl(0, 100%, 60%)" />
<rect x="74" y="34" width="5" height="5" fill="hsl(0, 100%, 60%)" />
<rect x="79" y="34" width="5" height="5" fill="hsl(0, 100%, 60%)" />
<rect x="109" y="34" width="5" height="5" fill="hsl(0, 100%, 60%)" />
<rect x="79" y="39" width="5" height="5" fill="hsl(0, 100%, 60%)" />
<rect x="89" y="39" width="5" height="5" fill="hsl(0, 100%, 60%)" />
<rect x="94" y="39" width="5" height="5" fill="hsl(0, 100%, 60%)" />
<rect x="99" y="39" width="5" height="5" fill="hsl(0, 100%, 60%)" />
<rect x="104" y="39" width="5" height="5" fill="hsl(0, 100%, 60%)" />
<rect x="109" y="39" width="5" height="5" fill="hsl(0, 100%, 60%)" />
<rect x="84" y="44" width="5" height="5" fill="hsl(0, 100%, 60%)" />
<rect x="69" y="59" width="5" height="5" fill="hsl(0, 100%, 60%)" />
<rect x="74" y="59" width="5" height="5" fill="hsl(0, 100%, 60%)" />
<rect x="79" y="59" width="5" height="5" fill="hsl(0, 100%, 60%)" />
<rect x="69" y="64" width="5" height="5" fill="hsl(0, 100%, 60%)" />
<rect x="59" y="69" width="5" height="5" fill="hsl(0, 100%, 60%)" />
<rect x="64" y="69" width="5" height="5" fill="hsl(0, 100%, 60%)" />
<rect x="29" y="74" width="5" height="5" fill="hsl(0, 100%, 60%)" />
<rect x="34" y="74" width="5" height="5" fill="hsl(0, 100%, 60%)" />
<rect x="59" y="74" width="5" height="5" fill="hsl(0, 100%, 60%)" />
<rect x="29" y="79" width="5" height="5" fill="hsl(0, 100%, 60%)" />
<rect x="34" y="79" width="5" height="5" fill="hsl(0, 100%, 60%)" />
<rect x="39" y="79" width="5" height="5" fill="hsl(0, 100%, 60%)" />
<rect x="59" y="79" width="5" height="5" fill="hsl(0, 100%, 60%)" />
<rect x="19" y="84" width="5" height="5" fill="hsl(0, 100%, 60%)" />
<rect x="44" y="84" width="5" height="5" fill="hsl(0, 100%, 60%)" />
<rect x="19" y="89" width="5" height="5" fill="hsl(0, 100%, 60%)" />
<rect x="39" y="89" width="5" height="5" fill="hsl(0, 100%, 60%)" />
<rect x="39" y="94" width="5" height="5" fill="hsl(0, 100%, 60%)" />
<rect x="14" y="99" width="5" height="5" fill="hsl(0, 100%, 60%)" />
<rect x="19" y="99" width="5" height="5" fill="hsl(0, 100%, 60%)" />
<rect x="29" y="99" width="5" height="5" fill="hsl(0, 100%, 60%)" />
<rect x="39" y="99" width="5" height="5" fill="hsl(0, 100%, 60%)" />
<rect x="4" y="104" width="5" height="5" fill="hsl(0, 100%, 60%)" />
<rect x="9" y="104" width="5" height="5" fill="hsl(0, 100%, 60%)" />
<rect x="39" y="104" width="5" height="5" fill="hsl(0, 100%, 60%)" />
<rect x="4" y="109" width="5" height="5" fill="hsl(0, 100%, 60%)" />
<rect x="9" y="109" width="5" height="5" fill="hsl(0, 100%, 60%)" />
<rect x="34" y="109" width="5" height="5" fill="hsl(0, 100%, 60%)" />
<rect x="39" y="109" width="5" height="5" fill="hsl(0, 100%, 60%)" />
<rect x="14" y="114" width="5" height="5" fill="hsl(0, 100%, 60%)" />
<rect x="19" y="114" width="5" height="5" fill="hsl(0, 100%, 60%)" />
<rect x="24" y="114" width="5" height="5" fill="hsl(0, 100%, 60%)" />
<rect x="29" y="114" width="5" height="5" fill="hsl(0, 100%, 60%)" />
</svg>