<?xml version="1.0" encoding="utf-8"?>
<svg xmlns="http://www.w3.org/2000/svg" width="112" height="108" viewBox="0 0 112 108">
<rect width="100%" height="100%" fill="transparent" />
<rect x="12" y="4" width="2" height="2" fill="hsl(0, 100%, 60%)" />
<rect x="16" y="4" width="2" height="2" fill="hsl(0, 100%, 60%)" />
<rect x="18" y="4" width="2" height="2" fill="hsl(0, 100%, 60%)" />
<rect x="12" y="6" width="2" height="2" fill="hsl(0, 100%, 60%)" />
<rect x="14" y="6" width="2" height="2" fill="hsl(0, 100%, 60%)" />
<rect x="20" y="6" width="2" height="2" fill="hsl(0, 100%, 60%)" />
<rect x="18" y="8" width="2" height="2" fill="hsl(0, 100%, 60%)" />
<rect x="24" y="8" width="2" height="2" fill="hsl(0, 100%, 60%)" />
<rect x="8" y="10" width="2" height="2" fill="hsl(0, 100%, 60%)" />
<rect x="10" y="10" width="2" height="2" fill="hsl(0, 100%, 60%)" />
<rect x="12" y="10" width="2" height="2" fill="hsl(0, 100%, 60%)" />
<rect x="14" y="10" width="2" height="2" fill="hsl(0, 100%, 60%)" />
<rect x="16" y="10" width="2" height="2" fill="hsl(0, 100%, 60%)" />
<rect x="20" y="10" width="2" height="2" fill="hsl(0, 100%, 60%)" />
<rect x="22" y="10" width="2" height="2" fill="hsl(0, 100%, 60%)" />
<rect x="26" y="10" width="2" height="2" fill="hsl(0, 100%, 60%)" />
<rect x="32" y="10" width="2" height="2" fill="hsl(0, 100%, 60%)" />
<rect x="6" y="12" width="2" height="2" fill="hsl(0, 100%, 60%)" />
<rect x="12" y="12" width="2" height="2" fill="hsl(0, 100%, 60%)" />
<rect x="20" y="12" width="2" height="2" fill="hsl(0, 100%, 60%)" />
<rect x="26" y="12" width="2" height="2" fill="hsl(0, 100%, 60%)" />
<rect x="28" y="12" width="2" height="2" fill="hsl(0, 100%, 60%)" />
<rect x="30" y="12" width="2" height="2" fill="hsl(0, 100%, 60%)" />
<rect x="32" y="12" width="2" height="2" fill="hsl(0, 100%, 60%)" />
<rect x="6" y="14" width="2" height="2" fill="hsl(0, 100%, 60%)" />
<rect x="10" y="14" width="2" height="2" fill="hsl(0, 100%, 60%)" />
<rect x="12" y="14" width="2" height="2" fill="hsl(0, 100%, 60%)" />
<rect x="16" y="14" width="2" height="2" fill="hsl(0, 100%, 60%)" />
<rect x="20" y="14" width="2" height="2" fill="hsl(0, 100%, 60%)" />
<rect x="24" y="14" width="2" height="2" fill="hsl(0, 100%, 60%)" />
<rect x="38" y="14" width="2" height="2" fill="hsl(0, 100%, 60%)" />
<rect x="4" y="16" width="2" height="2" fill="hsl(0, 100%, 60%)" />
<rect x="6" y="16" width="2" height="2" fill="hsl(0, 100%, 60%)" />
<rect x="10" y="16" width="2" height="2" fill="hsl(0, 100%, 60%)" />
<rect x="14" y="16" width="2" height="2" fill="hsl(0, 100%, 60%)" />
<rect x="16" y="16" width="2" height="2" fill="hsl(0, 100%, 60%)" />
<rect x="18" y="16" width="2" height="2" fill="hsl(0, 100%, 60%)" />
<rect x="20" y="16" width="2" height="2" fill="hsl(0, 100%, 60%)" />
<rect x="24" y="16" width="2" height="2" fill="hsl(0, 100%, 60%)" />
<rect x="30" y="16" width="2" height="2" fill="hsl(0, 100%, 60%)" />
<rect x="32" y="16" width="2" height="2" fill="hsl(0, 100%, 60%)" />
<rect x="34" y="16" width="2" height="2" fill="hsl(0, 100%, 60%)" />
<rect x="36" y="16" width="2" height="2" fill="hsl(0, 100%, 60%)" />
<rect x="38" y="16" width="2" height="2" fill="hsl(0, 100%, 60%)" />
<rect x="10" y="18" width="2" height="2" fill="hsl(0, 100%, 60%)" />
<rect x="24" y="18" width="2" height="2" fill="hsl(0, 100%, 60%)" />
<rect x="28" y="18" width="2" height="2" fill="hsl(0, 100%, 60%)" />
<rect x="40" y="18" width="2" height="2" fill="hsl(0, 100%, 60%)" />
<rect x="42" y="18" width="2" height="2" fill="hsl(0, 100%, 60%)" />
<rect x="4" y="20" width="2" height="2" fill="hsl(0, 100%, 60%)" />
<rect x="6" y="20" width="2" height="2" fill="hsl(0, 100%, 60%)" />
<rect x="10" y="20" width="2" height="2" fill="hsl(0, 100%, 60%)" />
<rect x="14" y="20" width="2" height="2" fill="hsl(0, 100%, 60%)" />
<rect x="16" y="20" width="2" height="2" fill="hsl(0, 100%, 60%)" />
<rect x="18" y="20" width="2" height="2" fill="hsl(0, 100%, 60%)" />
<rect x="20" y="20" width="2" height="2" fill="hsl(0, 100%, 60%)" />
<rect x="24" y="20" width="2" height="2" fill="hsl(0, 100%, 60%)" />
<rect x="30" y="20" width="2" height="2" fill="hsl(0, 100%, 60%)" />
<rect x="34" y="20" width="2" height="2" fill="hsl(0, 100%, 60%)" />
<rect x="36" y="20" width="2" height="2" fill="hsl(0, 100%, 60%)" />
<rect x="40" y="20" width="2" height="2" fill="hsl(0, 100%, 60%)" />
<rect x="44" y="20" width="2" height="2" fill="hsl(0, 100%, 60%)" />
<rect x="4" y="22" width="2" height="2" fill="hsl(0, 100%, 60%)" />
<rect x="10" y="22" width="2" height="2" fill="hsl(0, 100%, 60%)" />
<rect x="14" y="22" width="2" height="2" fill="hsl(0, 100%, 60%)" />
<rect x="20" y="22" width="2" height="2" fill="hsl(0, 100%, 60%)" />
<rect x="24" y="22" width="2" height="2" fill="hsl(0, 100%, 60%)" />
<rect x="26" y="22" width="2" height="2" fill="hsl(0, 100%, 60%)" />
<rect x="30" y="22" width="2" height="2" fill="hsl(0, 100%, 60%)" />
<rect x="34" y="22" width="2" height="2" fill="hsl(0, 100%, 60%)" />
<rect x="38" y="22" width="2" height="2" fill="hsl(0, 100%, 60%)" />
<rect x="44" y="22" width="2" height="2" fill="hsl(0, 100%, 60%)" />
<rect x="8" y="24" width="2" height="2" fill="hsl(0, 100%, 60%)" />
<rect x="10" y="24" width="2" height="2" fill="hsl(0, 100%, 60%)" />
<rect x="16" y="24" width="2" height="2" fill="hsl(0, 100%, 60%)" />
<rect x="22" y="24" width="2" height="2" fill="hsl(0, 100%, 60%)" />
<rect x="30" y="24" width="2" height="2" fill="hsl(0, 100%, 60%)" />
<rect x="34" y="24" width="2" height="2" fill="hsl(0, 100%, 60%)" />
<rect x="44" y="24" width="2" height="2" fill="hsl(0, 100%, 60%)" />
<rect x="48" y="24" width="2" height="2" fill="hsl(0, 100%, 60%)" />
<rect x="50" y="24" width="2" height="2" fill="hsl(0, 100%, 60%)" />
<rect x="12" y="26" width="2" height="2" fill="hsl(0, 100%, 60%)" />
<rect x="14" y="26" width="2" height="2" fill="hsl(0, 100%, 60%)" />
<rect x="24" y="26" width="2" height="2" fill="hsl(0, 100%, 60%)" />
<rect x="26" y="26" width="2" height="2" fill="hsl(0, 100%, 60%)" />
<rect x="28" y="26" width="2" height="2" fill="hsl(0, 100%, 60%)" />
<rect x="30" y="26" width="2" height="2" fill="hsl(0, 100%, 60%)" />
<rect x="34" y="26" width="2" height="2" fill="hsl(0, 100%, 60%)" />
<rect x="36" y="26" width="2" height="2" fill="hsl(0, 100%, 60%)" />
<rect x="42" y="26" width="2" height="2" fill="hsl(0, 100%, 60%)" />
<rect x="44" y="26" width="2" height="2" fill="hsl(0, 100%, 60%)" />
<rect x="50" y="26" width="2" height="2" fill="hsl(0, 100%, 60%)" />
<rect x="12" y="28" width="2" height="2" fill="hsl(0, 100%, 60%)" />
<rect x="20" y="28" width="2" height="2" fill="hsl(0, 100%, 60%)" />
<rect x="24" y="28" width="2" height="2" fill="hsl(0, 100%, 60%)" />
<rect x="38" y="28" width="2" height="2" fill="hsl(0, 100%, 60%)" />
<rect x="46" y="28" width="2" height="2" fill="hsl(0, 100%, 60%)" />
<rect x="14" y="30" width="2" height="2" fill="hsl(0, 100%, 60%)" />
<rect x="16" y="30" width="2" height="2" fill="hsl(0, 100%, 60%)" />
<rect x="18" y="30" width="2" height="2" fill="hsl(0, 100%, 60%)" />
<rect x="20" y="30" width="2" height="2" fill="hsl(0, 100%, 60%)" />
<rect x="24" y="30" width="2" height="2" fill="hsl(0, 100%, 60%)" />
<rect x="28" y="30" width="2" height="2" fill="hsl(0, 100%, 60%)" />
<rect x="30" y="30" width="2" height="2" fill="hsl(0, 100%, 60%)" />
<rect x="32" y="30" width="2" height="2" fill="hsl(0, 100%, 60%)" />
<rect x="34" y="30" width="2" height="2" fill="hsl(0, 100%, 60%)" />
<rect x="36" y="30" width="2" height="2" fill="hsl(0, 100%, 60%)" />
<rect x="40" y="30" width="2" height="2" fill="hsl(0, 100%, 60%)" />
<rect x="42" y="30" width="2" height="2" fill="hsl(0, 100%, 60%)" />
<rect x="44" y="30" width="2" height="2" fill="hsl(0, 100%, 60%)" />
<rect x="52" y="30" width="2" height="2" fill="hsl(0, 100%, 60%)" />
<rect x="22" y="32" width="2" height="2" fill="hsl(0, 100%, 60%)" />
<rect x="26" y="32" width="2" height="2" fill="hsl(0, 100%, 60%)" />
<rect x="36" y="32" width="2" height="2" fill="hsl(0, 100%, 60%)" />
<rect x="40" y="32" width="2" height="2" fill="hsl(0, 100%, 60%)" />
<rect x="46" y="32" width="2" height="2" fill="hsl(0, 100%, 60%)" />
<rect x="48" y="32" width="2" height="2" fill="hsl(0, 100%, 60%)" />
<rect x="50" y="32" width="2" height="2" fill="hsl(0, 100%, 60%)" />
<rect x="52" y="32" width="2" height="2" fill="hsl(0, 100%, 60%)" />
<rect x="18" y="34" width="2" height="2" fill="hsl(0, 100%, 60%)" />
<rect x="26" y="34" width="2" height="2" fill="hsl(0, 100%, 60%)" />
<rect x="32" y="34" width="2" height="2" fill="hsl(0, 100%, 60%)" />
<rect x="40" y="34" width="2" height="2" fill="hsl(0, 100%, 60%)" />
<rect x="44" y="34" width="2" height="2" fill="hsl(0, 100%, 60%)" />
<rect x="58" y="34" width="2" height="2" fill="hsl(0, 100%, 60%)" />
<rect x="18" y="36" width="2" height="2" fill="hsl(0, 100%, 60%)" />
<rect x="20" y="36" width="2" height="2" fill="hsl(0, 100%, 60%)" />
<rect x="26" y="36" width="2" height="2" fill="hsl(0, 100%, 60%)" />
<rect x="30" y="36" width="2" height="2" fill="hsl(0, 100%, 60%)" />
<rect x="34" y="36" width="2" height="2" fill="hsl(0, 100%, 60%)" />
<rect x="36" y="36" width="2" height="2" fill="hsl(0, 100%, 60%)" />
<rect x="38" y="36" width="2" height="2" fill="hsl(0, 100%, 60%)" />
<rect x="40" y="36" width="2" height="2" fill="hsl(0, 100%, 60%)" />
<rect x="44" y="36" width="2" height="2" fill="hsl(0, 100%, 60%)" />
<rect x="50" y="36" width="2" height="2" fill="hsl(0, 100%, 60%)" />
<rect x="52" y="36" width="2" height="2" fill="hsl(0, 100%, 60%)" />
<rect x="54" y="36" width="2" height="2" fill="hsl(0, 100%, 60%)" />
<rect x="56" y="36" width="2" height="2" fill="hsl(0, 100%, 60%)" />
<rect x="58" y="36" width="2" height="2" fill="hsl(0, 100%, 60%)" />
<rect x="24" y="38" width="2" height="2" fill="hsl(0, 100%, 60%)" />
<rect x="26" y="38" width="2" height="2" fill="hsl(0, 100%, 60%)" />
<rect x="30" y="38" width="2" height="2" fill="hsl(0, 100%, 60%)" />
<rect x="44" y="38" width="2" height="2" fill="hsl(0, 100%, 60%)" />
<rect x="48" y="38" width="2" height="2" fill="hsl(0, 100%, 60%)" />
<rect x="60" y="38" width="2" height="2" fill="hsl(0, 100%, 60%)" />
<rect x="62" y="38" width="2" height="2" fill="hsl(0, 100%, 60%)" />
<rect x="30" y="40" width="2" height="2" fill="hsl(0, 100%, 60%)" />
<rect x="34" y="40" width="2" height="2" fill="hsl(0, 100%, 60%)" />
<rect x="36" y="40" width="2" height="2" fill="hsl(0, 100%, 60%)" />
<rect x="38" y="40" width="2" height="2" fill="hsl(0, 100%, 60%)" />
<rect x="40" y="40" width="2" height="2" fill="hsl(0, 100%, 60%)" />
<rect x="44" y="40" width="2" height="2" fill="hsl(0, 100%, 60%)" />
<rect x="50" y="40" width="2" height="2" fill="hsl(0, 100%, 60%)" />
<rect x="54" y="40" width="2" height="2" fill="hsl(0, 100%, 60%)" />
<rect x="56" y="40" width="2" height="2" fill="hsl(0, 100%, 60%)" />
<rect x="60" y="40" width="2" height="2" fill="hsl(0, 100%, 60%)" />
<rect x="64" y="40" width="2" height="2" fill="hsl(0, 100%, 60%)" />
<rect x="30" y="42" width="2" height="2" fill="hsl(0, 100%, 60%)" />
<rect x="34" y="42" width="2" height="2" fill="hsl(0, 100%, 60%)" />
<rect x="40" y="42" width="2" height="2" fill="hsl(0, 100%, 60%)" />
<rect x="44" y="42" width="2" height="2" fill="hsl(0, 100%, 60%)" />
<rect x="46" y="42" width="2" height="2" fill="hsl(0, 100%, 60%)" />
<rect x="50" y="42" width="2" height="2" fill="hsl(0, 100%, 60%)" />
<rect x="54" y="42" width="2" height="2" fill="hsl(0, 100%, 60%)" />
<rect x="58" y="42" width="2" height="2" fill="hsl(0, 100%, 60%)" />
<rect x="64" y="42" width="2" height="2" fill="hsl(0, 100%, 60%)" />
<rect x="28" y="44" width="2" height="2" fill="hsl(0, 100%, 60%)" />
<rect x="30" y="44" width="2" height="2" fill="hsl(0, 100%, 60%)" />
<rect x="36" y="44" width="2" height="2" fill="hsl(0, 100%, 60%)" />
<rect x="42" y="44" width="2" height="2" fill="hsl(0, 100%, 60%)" />
<rect x="50" y="44" width="2" height="2" fill="hsl(0, 100%, 60%)" />
<rect x="54" y="44" width="2" height="2" fill="hsl(0, 100%, 60%)" />
<rect x="64" y="44" width="2" height="2" fill="hsl(0, 100%, 60%)" />
<rect x="68" y="44" width="2" height="2" fill="hsl(0, 100%, 60%)" />
<rect x="70" y="44" width="2" height="2" fill="hsl(0, 100%, 60%)" />
<rect x="32" y="46" width="2" height="2" fill="hsl(0, 100%, 60%)" />
<rect x="34" y="46" width="2" height="2" fill="hsl(0, 100%, 60%)" />
<rect x="44" y="46" width="2" height="2" fill="hsl(0, 100%, 60%)" />
<rect x="46" y="46" width="2" height="2" fill="hsl(0, 100%, 60%)" />
<rect x="48" y="46" width="2" height="2" fill="hsl(0, 100%, 60%)" />
<rect x="50" y="46" width="2" height="2" fill="hsl(0, 100%, 60%)" />
<rect x="54" y="46" width="2" height="2" fill="hsl(0, 100%, 60%)" />
<rect x="56" y="46" width="2" height="2" fill="hsl(0, 100%, 60%)" />
<rect x="62" y="46" width="2" height="2" fill="hsl(0, 100%, 60%)" />
<rect x="64" y="46" width="2" height="2" fill="hsl(0, 100%, 60%)" />
<rect x="70" y="46" width="2" height="2" fill="hsl(0, 100%, 60%)" />
<rect x="32" y="48" width="2" height="2" fill="hsl(0, 100%, 60%)" />
<rect x="40" y="48" width="2" height="2" fill="hsl(0, 100%, 60%)" />
<rect x="44" y="48" width="2" height="2" fill="hsl(0, 100%, 60%)" />
<rect x="58" y="48" width="2" height="2" fill="hsl(0, 100%, 60%)" />
<rect x="66" y="48" width="2" height="2" fill="hsl(0, 100%, 60%)" />
<rect x="34" y="50" width="2" height="2" fill="hsl(0, 100%, 60%)" />
<rect x="36" y="50" width="2" height="2" fill="hsl(0, 100%, 60%)" />
<rect x="38" y="50" width="2" height="2" fill="hsl(0, 100%, 60%)" />
<rect x="40" y="50" width="2" height="2" fill="hsl(0, 100%, 60%)" />
<rect x="44" y="50" width="2" height="2" fill="hsl(0, 100%, 60%)" />
<rect x="48" y="50" width="2" height="2" fill="hsl(0, 100%, 60%)" />
<rect x="50" y="50" width="2" height="2" fill="hsl(0, 100%, 60%)" />
<rect x="52" y="50" width="2" height="2" fill="hsl(0, 100%, 60%)" />
<rect x="54" y="50" width="2" height="2" fill="hsl(0, 100%, 60%)" />
<rect x="56" y="50" width="2" height="2" fill="hsl(0, 100%, 60%)" />
<rect x="60" y="50" width="2" height="2" fill="hsl(0, 100%, 60%)" />
<rect x="62" y="50" width="2" height="2" fill="hsl(0, 100%, 60%)" />
<rect x="64" y="50" width="2" height="2" fill="hsl(0, 100%, 60%)" />
<rect x="72" y="50" width="2" height="2" fill="hsl(0, 100%, 60%)" />
<rect x="42" y="52" width="2" height="2" fill="hsl(0, 100%, 60%)" />
<rect x="46" y="52" width="2" height="2" fill="hsl(0, 100%, 60%)" />
<rect x="56" y="52" width="2" height="2" fill="hsl(0, 100%, 60%)" />
<rect x="60" y="52" width="2" height="2" fill="hsl(0, 100%, 60%)" />
<rect x="66" y="52" width="2" height="2" fill="hsl(0, 100%, 60%)" />
<rect x="68" y="52" width="2" height="2" fill="hsl(0, 100%, 60%)" />
<rect x="70" y="52" width="2" height="2" fill="hsl(0, 100%, 60%)" />
<rect x="72" y="52" width="2" height="2" fill="hsl(0, 100%, 60%)" />
<rect x="38" y="54" width="2" height="2" fill="hsl(0, 100%, 60%)" />
<rect x="46" y="54" width="2" height="2" fill="hsl(0, 100%, 60%)" />
<rect x="52" y="54" width="2" height="2" fill="hsl(0, 100%, 60%)" />
<rect x="60" y="54" width="2" height="2" fill="hsl(0, 100%, 60%)" />
<rect x="64" y="54" width="2" height="2" fill="hsl(0, 100%, 60%)" />
<rect x="78" y="54" width="2" height="2" fill="hsl(0, 100%, 60%)" />
<rect x="38" y="56" width="2" height="2" fill="hsl(0, 100%, 60%)" />
<rect x="40" y="56" width="2" height="2" fill="hsl(0, 100%, 60%)" />
<rect x="46" y="56" width="2" height="2" fill="hsl(0, 100%, 60%)" />
<rect x="50" y="56" width="2" height="2" fill="hsl(0, 100%, 60%)" />
<rect x="54" y="56" width="2" height="2" fill="hsl(0, 100%, 60%)" />
<rect x="56" y="56" width="2" height="2" fill="hsl(0, 100%, 60%)" />
<rect x="58" y="56" width="2" height="2" fill="hsl(0, 100%, 60%)" />
<rect x="60" y="56" width="2" height="2" fill="hsl(0, 100%, 60%)" />
<rect x="64" y="56" width="2" height="2" fill="hsl(0, 100%, 60%)" />
<rect x="70" y="56" width="2" height="2" fill="hsl(0, 100%, 60%)" />
<rect x="72" y="56" width="2" height="2" fill="hsl(0, 100%, 60%)" />
<rect x="74" y="56" width="2" height="2" fill="hsl(0, 100%, 60%)" />
<rect x="76" y="56" width="2" height="2" fill="hsl(0, 100%, 60%)" />
<rect x="78" y="56" width="2" height="2" fill="hsl(0, 100%, 60%)" />
<rect x="44" y="58" width="2" height="2" fill="hsl(0, 100%, 60%)" />
<rect x="46" y="58" width="2" height="2" fill="hsl(0, 100%, 60%)" />
<rect x="50" y="58" width="2" height="2" fill="hsl(0, 100%, 60%)" />
<rect x="64" y="58" width="2" height="2" fill="hsl(0, 100%, 60%)" />
<rect x="68" y="58" width="2" height="2" fill="hsl(0, 100%, 60%)" />
<rect x="80" y="58" width="2" height="2" fill="hsl(0, 100%, 60%)" />
<rect x="82" y="58" width="2" height="2" fill="hsl(0, 100%, 60%)" />
<rect x="50" y="60" width="2" height="2" fill="hsl(0, 100%, 60%)" />
<rect x="54" y="60" width="2" height="2" fill="hsl(0, 100%, 60%)" />
<rect x="56" y="60" width="2" height="2" fill="hsl(0, 100%, 60%)" />
<rect x="58" y="60" width="2" height="2" fill="hsl(0, 100%, 60%)" />
<rect x="60" y="60" width="2" height="2" fill="hsl(0, 100%, 60%)" />
<rect x="64" y="60" width="2" height="2" fill="hsl(0, 100%, 60%)" />
<rect x="70" y="60" width="2" height="2" fill="hsl(0, 100%, 60%)" />
<rect x="74" y="60" width="2" height="2" fill="hsl(0, 100%, 60%)" />
<rect x="76" y="60" width="2" height="2" fill="hsl(0, 100%, 60%)" />
<rect x="80" y="60" width="2" height="2" fill="hsl(0, 100%, 60%)" />
<rect x="84" y="60" width="2" height="2" fill="hsl(0, 100%, 60%)" />
<rect x="50" y="62" width="2" height="2" fill="hsl(0, 100%, 60%)" />
<rect x="54" y="62" width="2" height="2" fill="hsl(0, 100%, 60%)" />
<rect x="60" y="62" width="2" height="2" fill="hsl(0, 100%, 60%)" />
<rect x="64" y="62" width="2" height="2" fill="hsl(0, 100%, 60%)" />
<rect x="66" y="62" width="2" height="2" fill="hsl(0, 100%, 60%)" />
<rect x="70" y="62" width="2" height="2" fill="hsl(0, 100%, 60%)" />
<rect x="74" y="62" width="2" height="2" fill="hsl(0, 100%, 60%)" />
<rect x="78" y="62" width="2" height="2" fill="hsl(0, 100%, 60%)" />
<rect x="84" y="62" width="2" height="2" fill="hsl(0, 100%, 60%)" />
<rect x="48" y="64" width="2" height="2" fill="hsl(0, 100%, 60%)" />
<rect x="50" y="64" width="2" height="2" fill="hsl(0, 100%, 60%)" />
<rect x="56" y="64" width="2" height="2" fill="hsl(0, 100%, 60%)" />
<rect x="62" y="64" width="2" height="2" fill="hsl(0, 100%, 60%)" />
<rect x="70" y="64" width="2" height="2" fill="hsl(0, 100%, 60%)" />
<rect x="74" y="64" width="2" height="2" fill="hsl(0, 100%, 60%)" />
<rect x="84" y="64" width="2" height="2" fill="hsl(0, 100%, 60%)" />
<rect x="88" y="64" width="2" height="2" fill="hsl(0, 100%, 60%)" />
<rect x="90" y="64" width="2" height="2" fill="hsl(0, 100%, 60%)" />
<rect x="52" y="66" width="2" height="2" fill="hsl(0, 100%, 60%)" />
<rect x="54" y="66" width="2" height="2" fill="hsl(0, 100%, 60%)" />
<rect x="64" y="66" width="2" height="2" fill="hsl(0, 100%, 60%)" />
<rect x="66" y="66" width="2" height="2" fill="hsl(0, 100%, 60%)" />
<rect x="68" y="66" width="2" height="2" fill="hsl(0, 100%, 60%)" />
<rect x="70" y="66" width="2" height="2" fill="hsl(0, 100%, 60%)" />
<rect x="74" y="66" width="2" height="2" fill="hsl(0, 100%, 60%)" />
<rect x="76" y="66" width="2" height="2" fill="hsl(0, 100%, 60%)" />
<rect x="82" y="66" width="2" height="2" fill="hsl(0, 100%, 60%)" />
<rect x="84" y="66" width="2" height="2" fill="hsl(0, 100%, 60%)" />
<rect x="90" y="66" width="2" height="2" fill="hsl(0, 100%, 60%)" />
<rect x="52" y="68" width="2" height="2" fill="hsl(0, 100%, 60%)" />
<rect x="60" y="68" width="2" height="2" fill="hsl(0, 100%, 60%)" />
<rect x="64" y="68" width="2" height="2" fill="hsl(0, 100%, 60%)" />
<rect x="78" y="68" width="2" height="2" fill="hsl(0, 100%, 60%)" />
<rect x="86" y="68" width="2" height="2" fill="hsl(0, 100%, 60%)" />
<rect x="54" y="70" width="2" height="2" fill="hsl(0, 100%, 60%)" />
<rect x="56" y="70" width="2" height="2" fill="hsl(0, 100%, 60%)" />
<rect x="58" y="70" width="2" height="2" fill="hsl(0, 100%, 60%)" />
<rect x="60" y="70" width="2" height="2" fill="hsl(0, 100%, 60%)" />
<rect x="64" y="70" width="2" height="2" fill="hsl(0, 100%, 60%)" />
<rect x="68" y="70" width="2" height="2" fill="hsl(0, 100%, 60%)" />
<rect x="70" y="70" width="2" height="2" fill="hsl(0, 100%, 60%)" />
<rect x="72" y="70" width="2" height="2" fill="hsl(0, 100%, 60%)" />
<rect x="74" y="70" width="2" height="2" fill="hsl(0, 100%, 60%)" />
<rect x="76" y="70" width="2" height="2" fill="hsl(0, 100%, 60%)" />
<rect x="80" y="70" width="2" height="2" fill="hsl(0, 100%, 60%)" />
<rect x="82" y="70" width="2" height="2" fill="hsl(0, 100%, 60%)" />
<rect x="84" y="70" width="2" height="2" fill="hsl(0, 100%, 60%)" />
<rect x="92" y="70" width="2" height="2" fill="hsl(0, 100%, 60%)" />
<rect x="62" y="72" width="2" height="2" fill="hsl(0, 100%, 60%)" />
<rect x="66" y="72" width="2" height="2" fill="hsl(0, 100%, 60%)" />
<rect x="76" y="72" width="2" height="2" fill="hsl(0, 100%, 60%)" />
<rect x="80" y="72" width="2" height="2" fill="hsl(0, 100%, 60%)" />
<rect x="86" y="72" width="2" height="2" fill="hsl(0, 100%, 60%)" />
<rect x="88" y="72" width="2" height="2" fill="hsl(0, 100%, 60%)" />
<rect x="90" y="72" width="2" height="2" fill="hsl(0, 100%, 60%)" />
<rect x="92" y="72" width="2" height="2" fill="hsl(0, 100%, 60%)" />
<rect x="58" y="74" width="2" height="2" fill="hsl(0, 100%, 60%)" />
<rect x="66" y="74" width="2" height="2" fill="hsl(0, 100%, 60%)" />
<rect x="72" y="74" width="2" height="2" fill="hsl(0, 100%, 60%)" />
<rect x="80" y="74" width="2" height="2" fill="hsl(0, 100%, 60%)" />
<rect x="84" y="74" width="2" height="2" fill="hsl(0, 100%, 60%)" />
<rect x="98" y="74" width="2" height="2" fill="hsl(0, 100%, 60%)" />
<rect x="58" y="76" width="2" height="2" fill="hsl(0, 100%, 60%)" />
<rect x="60" y="76" width="2" height="2" fill="hsl(0, 100%, 60%)" />
<rect x="66" y="76" width="2" height="2" fill="hsl(0, 100%, 60%)" />
<rect x="70" y="76" width="2" height="2" fill="hsl(0, 100%, 60%)" />
<rect x="74" y="76" width="2" height="2" fill="hsl(0, 100%, 60%)" />
<rect x="76" y="76" width="2" height="2" fill="hsl(0, 100%, 60%)" />
<rect x="78" y="76" width="2" height="2" fill="hsl(0, 100%, 60%)" />
<rect x="80" y="76" width="2" height="2" fill="hsl(0, 100%, 60%)" />
<rect x="84" y="76" width="2" height="2" fill="hsl(0, 100%, 60%)" />
<rect x="90" y="76" width="2" height="2" fill="hsl(0, 100%, 60%)" />
<rect x="92" y="76" width="2" height="2" fill="hsl(0, 100%, 60%)" />
<rect x="94" y="76" width="2" height="2" fill="hsl(0, 100%, 60%)" />
<rect x="96" y="76" width="2" height="2" fill="hsl(0, 100%, 60%)" />
<rect x="98" y="76" width="2" height="2" fill="hsl(0, 100%, 60%)" />
<rect x="64" y="78" width="2" height="2" fill="hsl(0, 100%, 60%)" />
<rect x="66" y="78" width="2" height="2" fill="hsl(0, 100%, 60%)" />
<rect x="70" y="78" width="2" height="2" fill="hsl(0, 100%, 60%)" />
<rect x="84" y="78" width="2" height="2" fill="hsl(0, 100%, 60%)" />
<rect x="88" y="78" width="2" height="2" fill="hsl(0, 100%, 60%)" />
<rect x="100" y="78" width="2" height="2" fill="hsl(0, 100%, 60%)" />
<rect x="102" y="78" width="2" height="2" fill="hsl(0, 100%, 60%)" />
<rect x="70" y="80" width="2" height="2" fill="hsl(0, 100%, 60%)" />
<rect x="74" y="80" width="2" height="2" fill="hsl(0, 100%, 60%)" />
<rect x="76" y="80" width="2" height="2" fill="hsl(0, 100%, 60%)" />
<rect x="78" y="80" width="2" height="2" fill="hsl(0, 100%, 60%)" />
<rect x="80" y="80" width="2" height="2" fill="hsl(0, 100%, 60%)" />
<rect x="84" y="80" width="2" height="2" fill="hsl(0, 100%, 60%)" />
<rect x="90" y="80" width="2" height="2" fill="hsl(0, 100%, 60%)" />
<rect x="94" y="80" width="2" height="2" fill="hsl(0, 100%, 60%)" />
<rect x="96" y="80" width="2" height="2" fill="hsl(0, 100%, 60%)" />
<rect x="100" y="80" width="2" height="2" fill="hsl(0, 100%, 60%)" />
<rect x="106" y="80" width="2" height="2" fill="hsl(0, 100%, 60%)" />
<rect x="70" y="82" width="2" height="2" fill="hsl(0, 100%, 60%)" />
<rect x="74" y="82" width="2" height="2" fill="hsl(0, 100%, 60%)" />
<rect x="80" y="82" width="2" height="2" fill="hsl(0, 100%, 60%)" />
<rect x="84" y="82" width="2" height="2" fill="hsl(0, 100%, 60%)" />
<rect x="86" y="82" width="2" height="2" fill="hsl(0, 100%, 60%)" />
<rect x="90" y="82" width="2" height="2" fill="hsl(0, 100%, 60%)" />
<rect x="94" y="82" width="2" height="2" fill="hsl(0, 100%, 60%)" />
<rect x="98" y="82" width="2" height="2" fill="hsl(0, 100%, 60%)" />
<rect x="104" y="82" width="2" height="2" fill="hsl(0, 100%, 60%)" />
<rect x="106" y="82" width="2" height="2" fill="hsl(0, 100%, 60%)" />
<rect x="68" y="84" width="2" height="2" fill="hsl(0, 100%, 60%)" />
<rect x="70" y="84" width="2" height="2" fill="hsl(0, 100%, 60%)" />
<rect x="76" y="84" width="2" height="2" fill="hsl(0, 100%, 60%)" />
<rect x="82" y="84" width="2" height="2" fill="hsl(0, 100%, 60%)" />
<rect x="90" y="84" width="2" height="2" fill="hsl(0, 100%, 60%)" />
<rect x="94" y="84" width="2" height="2" fill="hsl(0, 100%, 60%)" />
<rect x="72" y="86" width="2" height="2" fill="hsl(0, 100%, 60%)" />
<rect x="74" y="86" width="2" height="2" fill="hsl(0, 100%, 60%)" />
<rect x="84" y="86" width="2" height="2" fill="hsl(0, 100%, 60%)" />
<rect x="86" y="86" width="2" height="2" fill="hsl(0, 100%, 60%)" />
<rect x="88" y="86" width="2" height="2" fill="hsl(0, 100%, 60%)" />
<rect x="90" y="86" width="2" height="2" fill="hsl(0, 100%, 60%)" />
<rect x="94" y="86" width="2" height="2" fill="hsl(0, 100%, 60%)" />
<rect x="96" y="86" width="2" height="2" fill="hsl(0, 100%, 60%)" />
<rect x="72" y="88" width="2" height="2" fill="hsl(0, 100%, 60%)" />
<rect x="80" y="88" width="2" height="2" fill="hsl(0, 100%, 60%)" />
<rect x="84" y="88" width="2" height="2" fill="hsl(0, 100%, 60%)" />
<rect x="98" y="88" width="2" height="2" fill="hsl(0, 100%, 60%)" />
<rect x="74" y="90" width="2" height="2" fill="hsl(0, 100%, 60%)" />
<rect x="76" y="90" width="2" height="2" fill="hsl(0, 100%, 60%)" />
<rect x="78" y="90" width="2" height="2" fill="hsl(0, 100%, 60%)" />
<rect x="80" y="90" width="2" height="2" fill="hsl(0, 100%, 60%)" />
<rect x="84" y="90" width="2" height="2" fill="hsl(0, 100%, 60%)" />
<rect x="88" y="90" width="2" height="2" fill="hsl(0, 100%, 60%)" />
<rect x="90" y="90" width="2" height="2" fill="hsl(0, 100%, 60%)" />
<rect x="92" y="90" width="2" height="2" fill="hsl(0, 100%, 60%)" />
<rect x="94" y="90" width="2" height="2" fill="hsl(0, 100%, 60%)" />
<rect x="96" y="90" width="2" height="2" fill="hsl(0, 100%, 60%)" />
<rect x="100" y="90" width="2" height="2" fill="hsl(0, 100%, 60%)" />
<rect x="82" y="92" width="2" height="2" fill="hsl(0, 100%, 60%)" />
<rect x="86" y="92" width="2" height="2" fill="hsl(0, 100%, 60%)" />
<rect x="96" y="92" width="2" height="2" fill="hsl(0, 100%, 60%)" />
<rect x="100" y="92" width="2" height="2" fill="hsl(0, 100%, 60%)" />
<rect x="78" y="94" width="2" height="2" fill="hsl(0, 100%, 60%)" />
<rect x="86" y="94" width="2" height="2" fill="hsl(0, 100%, 60%)" />
<rect x="92" y="94" width="2" height="2" fill="hsl(0, 100%, 60%)" />
<rect x="100" y="94" width="2" height="2" fill="hsl(0, 100%, 60%)" />
<rect x="102" y="94" width="2" height="2" fill="hsl(0, 100%, 60%)" />
<rect x="78" y="96" width="2" height="2" fill="hsl(0, 100%, 60%)" />
<rect x="80" y="96" width="2" height="2" fill="hsl(0, 100%, 60%)" />
<rect x="86" y="96" width="2" height="2" fill="hsl(0, 100%, 60%)" />
<rect x="90" y="96" width="2" height="2" fill="hsl(0, 100%, 60%)" />
<rect x="94" y="96" width="2" height="2" fill="hsl(0, 100%, 60%)" />
<rect x="96" y="96" width="2" height="2" fill="hsl(0, 100%, 60%)" />
<rect x="98" y="96" width="2" height="2" fill="hsl(0, 100%, 60%)" />
<rect x="104" y="96" width="2" height="2" fill="hsl(0, 100%, 60%)" />
<rect x="84" y="98" width="2" height="2" fill="hsl(0, 100%, 60%)" />
<rect x="86" y="98" width="2" height="2" fill="hsl(0, 100%, 60%)" />
<rect x="90" y="98" width="2" height="2" fill="hsl(0, 100%, 60%)" />
<rect x="102" y="98" width="2" height="2" fill="hsl(0, 100%, 60%)" />
<rect x="92" y="100" width="2" height="2" fill="hsl(0, 100%, 60%)" />
<rect x="96" y="100" width="2" height="2" fill="hsl(0, 100%, 60%)" />
<rect x="98" y="100" width="2" height="2" fill="hsl(0, 100%, 60%)" />
<rect x="100" y="100" width="2" height="2" fill="hsl(0, 100%, 60%)" />
<rect x="94" y="102" width="2" height="2" fill="hsl(0, 100%, 60%)" />
<rect x="96" y="102" width="2" height="2" fill="hsl(0, 100%, 60%)" />
</svg>