<?xml version="1.0" encoding="utf-8"?>
<svg xmlns="http://www.w3.org/2000/svg" width="122" height="83" viewBox="0 0 122 83">
<rect width="100%" height="100%" fill="transparent" />
<rect x="25" y="4" width="3" height="3" fill="hsl(0, 100%, 60%)" />
<rect x="49" y="4" width="3" height="3" fill="hsl(0, 100%, 60%)" />
<rect x="73" y="4" width="3" height="3" fill="hsl(0, 100%, 60%)" />
<rect x="76" y="4" width="3" height="3" fill="hsl(0, 100%, 60%)" />
<rect x="25" y="7" width="3" height="3" fill="hsl(0, 100%, 60%)" />
<rect x="28" y="7" width="3" height="3" fill="hsl(0, 100%, 60%)" />
<rect x="31" y="7" width="3" height="3" fill="hsl(0, 100%, 60%)" />
<rect x="49" y="7" width="3" height="3" fill="hsl(0, 100%, 60%)" />
<rect x="52" y="7" width="3" height="3" fill="hsl(0, 100%, 60%)" />
<rect x="55" y="7" width="3" height="3" fill="hsl(0, 100%, 60%)" />
<rect x="73" y="7" width="3" height="3" fill="hsl(0, 100%, 60%)" />
<rect x="76" y="7" width="3" height="3" fill="hsl(0, 100%, 60%)" />
<rect x="34" y="10" width="3" height="3" fill="hsl(0, 100%, 60%)" />
<rect x="58" y="10" width="3" height="3" fill="hsl(0, 100%, 60%)" />
<rect x="31" y="13" width="3" height="3" fill="hsl(0, 100%, 60%)" />
<rect x="34" y="13" width="3" height="3" fill="hsl(0, 100%, 60%)" />
<rect x="55" y="13" width="3" height="3" fill="hsl(0, 100%, 60%)" />
<rect x="58" y="13" width="3" height="3" fill="hsl(0, 100%, 60%)" />
<rect x="109" y="13" width="3" height="3" fill="hsl(0, 100%, 60%)" />
<rect x="112" y="13" width="3" height="3" fill="hsl(0, 100%, 60%)" />
<rect x="94" y="16" width="3" height="3" fill="hsl(0, 100%, 60%)" />
<rect x="97" y="16" width="3" height="3" fill="hsl(0, 100%, 60%)" />
<rect x="106" y="16" width="3" height="3" fill="hsl(0, 100%, 60%)" />
<rect x="115" y="16" width="3" height="3" fill="hsl(0, 100%, 60%)" />
<rect x="94" y="19" width="3" height="3" fill="hsl(0, 100%, 60%)" />
<rect x="100" y="19" width="3" height="3" fill="hsl(0, 100%, 60%)" />
<rect x="109" y="19" width="3" height="3" fill="hsl(0, 100%, 60%)" />
<rect x="112" y="19" width="3" height="3" fill="hsl(0, 100%, 60%)" />
<rect x="103" y="22" width="3" height="3" fill="hsl(0, 100%, 60%)" />
<rect x="106" y="22" width="3" height="3" fill="hsl(0, 100%, 60%)" />
<rect x="19" y="25" width="3" height="3" fill="hsl(0, 100%, 60%)" />
<rect x="106" y="25" width="3" height="3" fill="hsl(0, 100%, 60%)" />
<rect x="19" y="28" width="3" height="3" fill="hsl(0, 100%, 60%)" />
<rect x="22" y="28" width="3" height="3" fill="hsl(0, 100%, 60%)" />
<rect x="25" y="28" width="3" height="3" fill="hsl(0, 100%, 60%)" />
<rect x="106" y="28" width="3" height="3" fill="hsl(0, 100%, 60%)" />
<rect x="112" y="28" width="3" height="3" fill="hsl(0, 100%, 60%)" />
<rect x="115" y="28" width="3" height="3" fill="hsl(0, 100%, 60%)" />
<rect x="28" y="31" width="3" height="3" fill="hsl(0, 100%, 60%)" />
<rect x="97" y="31" width="3" height="3" fill="hsl(0, 100%, 60%)" />
<rect x="100" y="31" width="3" height="3" fill="hsl(0, 100%, 60%)" />
<rect x="106" y="31" width="3" height="3" fill="hsl(0, 100%, 60%)" />
<rect x="115" y="31" width="3" height="3" fill="hsl(0, 100%, 60%)" />
<rect x="25" y="34" width="3" height="3" fill="hsl(0, 100%, 60%)" />
<rect x="28" y="34" width="3" height="3" fill="hsl(0, 100%, 60%)" />
<rect x="97" y="34" width="3" height="3" fill="hsl(0, 100%, 60%)" />
<rect x="100" y="34" width="3" height="3" fill="hsl(0, 100%, 60%)" />
<rect x="106" y="34" width="3" height="3" fill="hsl(0, 100%, 60%)" />
<rect x="109" y="34" width="3" height="3" fill="hsl(0, 100%, 60%)" />
<rect x="55" y="43" width="3" height="3" fill="hsl(0, 100%, 60%)" />
<rect x="10" y="46" width="3" height="3" fill="hsl(0, 100%, 60%)" />
<rect x="13" y="46" width="3" height="3" fill="hsl(0, 100%, 60%)" />
<rect x="19" y="46" width="3" height="3" fill="hsl(0, 100%, 60%)" />
<rect x="22" y="46" width="3" height="3" fill="hsl(0, 100%, 60%)" />
<rect x="52" y="46" width="3" height="3" fill="hsl(0, 100%, 60%)" />
<rect x="58" y="46" width="3" height="3" fill="hsl(0, 100%, 60%)" />
<rect x="91" y="46" width="3" height="3" fill="hsl(0, 100%, 60%)" />
<rect x="94" y="46" width="3" height="3" fill="hsl(0, 100%, 60%)" />
<rect x="4" y="49" width="3" height="3" fill="hsl(0, 100%, 60%)" />
<rect x="13" y="49" width="3" height="3" fill="hsl(0, 100%, 60%)" />
<rect x="19" y="49" width="3" height="3" fill="hsl(0, 100%, 60%)" />
<rect x="22" y="49" width="3" height="3" fill="hsl(0, 100%, 60%)" />
<rect x="49" y="49" width="3" height="3" fill="hsl(0, 100%, 60%)" />
<rect x="61" y="49" width="3" height="3" fill="hsl(0, 100%, 60%)" />
<rect x="91" y="49" width="3" height="3" fill="hsl(0, 100%, 60%)" />
<rect x="4" y="52" width="3" height="3" fill="hsl(0, 100%, 60%)" />
<rect x="7" y="52" width="3" height="3" fill="hsl(0, 100%, 60%)" />
<rect x="13" y="52" width="3" height="3" fill="hsl(0, 100%, 60%)" />
<rect x="49" y="52" width="3" height="3" fill="hsl(0, 100%, 60%)" />
<rect x="61" y="52" width="3" height="3" fill="hsl(0, 100%, 60%)" />
<rect x="94" y="52" width="3" height="3" fill="hsl(0, 100%, 60%)" />
<rect x="97" y="52" width="3" height="3" fill="hsl(0, 100%, 60%)" />
<rect x="100" y="52" width="3" height="3" fill="hsl(0, 100%, 60%)" />
<rect x="13" y="55" width="3" height="3" fill="hsl(0, 100%, 60%)" />
<rect x="49" y="55" width="3" height="3" fill="hsl(0, 100%, 60%)" />
<rect x="61" y="55" width="3" height="3" fill="hsl(0, 100%, 60%)" />
<rect x="100" y="55" width="3" height="3" fill="hsl(0, 100%, 60%)" />
<rect x="13" y="58" width="3" height="3" fill="hsl(0, 100%, 60%)" />
<rect x="16" y="58" width="3" height="3" fill="hsl(0, 100%, 60%)" />
<rect x="52" y="58" width="3" height="3" fill="hsl(0, 100%, 60%)" />
<rect x="58" y="58" width="3" height="3" fill="hsl(0, 100%, 60%)" />
<rect x="7" y="61" width="3" height="3" fill="hsl(0, 100%, 60%)" />
<rect x="10" y="61" width="3" height="3" fill="hsl(0, 100%, 60%)" />
<rect x="19" y="61" width="3" height="3" fill="hsl(0, 100%, 60%)" />
<rect x="25" y="61" width="3" height="3" fill="hsl(0, 100%, 60%)" />
<rect x="55" y="61" width="3" height="3" fill="hsl(0, 100%, 60%)" />
<rect x="4" y="64" width="3" height="3" fill="hsl(0, 100%, 60%)" />
<rect x="13" y="64" width="3" height="3" fill="hsl(0, 100%, 60%)" />
<rect x="22" y="64" width="3" height="3" fill="hsl(0, 100%, 60%)" />
<rect x="25" y="64" width="3" height="3" fill="hsl(0, 100%, 60%)" />
<rect x="7" y="67" width="3" height="3" fill="hsl(0, 100%, 60%)" />
<rect x="10" y="67" width="3" height="3" fill="hsl(0, 100%, 60%)" />
<rect x="61" y="67" width="3" height="3" fill="hsl(0, 100%, 60%)" />
<rect x="64" y="67" width="3" height="3" fill="hsl(0, 100%, 60%)" />
<rect x="61" y="70" width="3" height="3" fill="hsl(0, 100%, 60%)" />
<rect x="43" y="73" width="3" height="3" fill="hsl(0, 100%, 60%)" />
<rect x="46" y="73" width="3" height="3" fill="hsl(0, 100%, 60%)" />
<rect x="64" y="73" width="3" height="3" fill="hsl(0, 100%, 60%)" />
<rect x="67" y="73" width="3" height="3" fill="hsl(0, 100%, 60%)" />
<rect x="70" y="73" width="3" height="3" fill="hsl(0, 100%, 60%)" />
<rect x="43" y="76" width="3" height="3" fill="hsl(0, 100%, 60%)" />
<rect x="46" y="76" width="3" height="3" fill="hsl(0, 100%, 60%)" />
<rect x="70" y="76" width="3" height="3" fill="hsl(0, 100%, 60%)" />
</svg>