<?xml version="1.0" encoding="utf-8"?>
<svg xmlns="http://www.w3.org/2000/svg" width="113" height="73" viewBox="0 0 113 73">
<rect width="100%" height="100%" fill="transparent" />
<rect x="4" y="4" width="5" height="5" fill="hsl(0, 100%, 60%)" />
<rect x="64" y="4" width="5" height="5" fill="hsl(0, 100%, 60%)" />
<rect x="69" y="4" width="5" height="5" fill="hsl(0, 100%, 60%)" />
<rect x="99" y="4" width="5" height="5" fill="hsl(0, 100%, 60%)" />
<rect x="104" y="4" width="5" height="5" fill="hsl(0, 100%, 60%)" />
<rect x="4" y="9" width="5" height="5" fill="hsl(0, 100%, 60%)" />
<rect x="9" y="9" width="5" height="5" fill="hsl(0, 100%, 60%)" />
<rect x="14" y="9" width="5" height="5" fill="hsl(0, 100%, 60%)" />
<rect x="64" y="9" width="5" height="5" fill="hsl(0, 100%, 60%)" />
<rect x="69" y="9" width="5" height="5" fill="hsl(0, 100%, 60%)" />
<rect x="99" y="9" width="5" height="5" fill="hsl(0, 100%, 60%)" />
<rect x="104" y="9" width="5" height="5" fill="hsl(0, 100%, 60%)" />
<rect x="14" y="14" width="5" height="5" fill="hsl(0, 100%, 60%)" />
<rect x="14" y="19" width="5" height="5" fill="hsl(0, 100%, 60%)" />
<rect x="79" y="19" width="5" height="5" fill="hsl(0, 100%, 60%)" />
<rect x="84" y="19" width="5" height="5" fill="hsl(0, 100%, 60%)" />
<rect x="79" y="24" width="5" height="5" fill="hsl(0, 100%, 60%)" />
<rect x="84" y="24" width="5" height="5" fill="hsl(0, 100%, 60%)" />
<rect x="34" y="49" width="5" height="5" fill="hsl(0, 100%, 60%)" />
<rect x="34" y="54" width="5" height="5" fill="hsl(0, 100%, 60%)" />
<rect x="44" y="54" width="5" height="5" fill="hsl(0, 100%, 60%)" />
<rect x="34" y="59" width="5" height="5" fill="hsl(0, 100%, 60%)" />
<rect x="39" y="59" width="5" height="5" fill="hsl(0, 100%, 60%)" />
<rect x="44" y="59" width="5" height="5" fill="hsl(0, 100%, 60%)" />
<rect x="44" y="64" width="5" height="5" fill="hsl(0, 100%, 60%)" />
</svg>