<?xml version="1.0" encoding="utf-8"?>
<svg xmlns="http://www.w3.org/2000/svg" width="128" height="58" viewBox="0 0 128 58">
<rect width="100%" height="100%" fill="transparent" />
<rect x="14" y="4" width="10" height="10" fill="hsl(0, 100%, 60%)" />
<rect x="104" y="4" width="10" height="10" fill="hsl(0, 100%, 60%)" />
<rect x="4" y="14" width="10" height="10" fill="hsl(0, 100%, 60%)" />
<rect x="24" y="14" width="10" height="10" fill="hsl(0, 100%, 60%)" />
<rect x="94" y="14" width="10" height="10" fill="hsl(0, 100%, 60%)" />
<rect x="114" y="14" width="10" height="10" fill="hsl(0, 100%, 60%)" />
<rect x="14" y="24" width="10" height="10" fill="hsl(0, 100%, 60%)" />
<rect x="34" y="24" width="10" height="10" fill="hsl(0, 100%, 60%)" />
<rect x="44" y="24" width="10" height="10" fill="hsl(0, 100%, 60%)" />
<rect x="74" y="24" width="10" height="10" fill="hsl(0, 100%, 60%)" />
<rect x="84" y="24" width="10" height="10" fill="hsl(0, 100%, 60%)" />
<rect x="104" y="24" width="10" height="10" fill="hsl(0, 100%, 60%)" />
<rect x="44" y="34" width="10" height="10" fill="hsl(0, 100%, 60%)" />
<rect x="74" y="34" width="10" height="10" fill="hsl(0, 100%, 60%)" />
<rect x="44" y="44" width="10" height="10" fill="hsl(0, 100%, 60%)" />
<rect x="74" y="44" width="10" height="10" fill="hsl(0, 100%, 60%)" />
</svg>