<?xml version="1.0" encoding="utf-8"?>
<svg xmlns="http://www.w3.org/2000/svg" width="102" height="18" viewBox="0 0 102 18">
<rect width="100%" height="100%" fill="transparent" />
<rect x="4" y="4" width="2" height="2" fill="hsl(0, 100%, 60%)" />
<rect x="6" y="4" width="2" height="2" fill="hsl(0, 100%, 60%)" />
<rect x="12" y="4" width="2" height="2" fill="hsl(0, 100%, 60%)" />
<rect x="14" y="4" width="2" height="2" fill="hsl(0, 100%, 60%)" />
<rect x="20" y="4" width="2" height="2" fill="hsl(0, 100%, 60%)" />
<rect x="22" y="4" width="2" height="2" fill="hsl(0, 100%, 60%)" />
<rect x="28" y="4" width="2" height="2" fill="hsl(0, 100%, 60%)" />
<rect x="30" y="4" width="2" height="2" fill="hsl(0, 100%, 60%)" />
<rect x="36" y="4" width="2" height="2" fill="hsl(0, 100%, 60%)" />
<rect x="38" y="4" width="2" height="2" fill="hsl(0, 100%, 60%)" />
<rect x="44" y="4" width="2" height="2" fill="hsl(0, 100%, 60%)" />
<rect x="46" y="4" width="2" height="2" fill="hsl(0, 100%, 60%)" />
<rect x="52" y="4" width="2" height="2" fill="hsl(0, 100%, 60%)" />
<rect x="54" y="4" width="2" height="2" fill="hsl(0, 100%, 60%)" />
<rect x="60" y="4" width="2" height="2" fill="hsl(0, 100%, 60%)" />
<rect x="62" y="4" width="2" height="2" fill="hsl(0, 100%, 60%)" />
<rect x="68" y="4" width="2" height="2" fill="hsl(0, 100%, 60%)" />
<rect x="70" y="4" width="2" height="2" fill="hsl(0, 100%, 60%)" />
<rect x="76" y="4" width="2" height="2" fill="hsl(0, 100%, 60%)" />
<rect x="78" y="4" width="2" height="2" fill="hsl(0, 100%, 60%)" />
<rect x="84" y="4" width="2" height="2" fill="hsl(0, 100%, 60%)" />
<rect x="86" y="4" width="2" height="2" fill="hsl(0, 100%, 60%)" />
<rect x="92" y="4" width="2" height="2" fill="hsl(0, 100%, 60%)" />
<rect x="94" y="4" width="2" height="2" fill="hsl(0, 100%, 60%)" />
<rect x="4" y="6" width="2" height="2" fill="hsl(0, 100%, 60%)" />
<rect x="6" y="6" width="2" height="2" fill="hsl(0, 100%, 60%)" />
<rect x="12" y="6" width="2" height="2" fill="hsl(0, 100%, 60%)" />
<rect x="14" y="6" width="2" height="2" fill="hsl(0, 100%, 60%)" />
<rect x="20" y="6" width="2" height="2" fill="hsl(0, 100%, 60%)" />
<rect x="22" y="6" width="2" height="2" fill="hsl(0, 100%, 60%)" />
<rect x="28" y="6" width="2" height="2" fill="hsl(0, 100%, 60%)" />
<rect x="30" y="6" width="2" height="2" fill="hsl(0, 100%, 60%)" />
<rect x="36" y="6" width="2" height="2" fill="hsl(0, 100%, 60%)" />
<rect x="38" y="6" width="2" height="2" fill="hsl(0, 100%, 60%)" />
<rect x="44" y="6" width="2" height="2" fill="hsl(0, 100%, 60%)" />
<rect x="46" y="6" width="2" height="2" fill="hsl(0, 100%, 60%)" />
<rect x="52" y="6" width="2" height="2" fill="hsl(0, 100%, 60%)" />
<rect x="54" y="6" width="2" height="2" fill="hsl(0, 100%, 60%)" />
<rect x="60" y="6" width="2" height="2" fill="hsl(0, 100%, 60%)" />
<rect x="62" y="6" width="2" height="2" fill="hsl(0, 100%, 60%)" />
<rect x="68" y="6" width="2" height="2" fill="hsl(0, 100%, 60%)" />
<rect x="70" y="6" width="2" height="2" fill="hsl(0, 100%, 60%)" />
<rect x="76" y="6" width="2" height="2" fill="hsl(0, 100%, 60%)" />
<rect x="78" y="6" width="2" height="2" fill="hsl(0, 100%, 60%)" />
<rect x="84" y="6" width="2" height="2" fill="hsl(0, 100%, 60%)" />
<rect x="86" y="6" width="2" height="2" fill="hsl(0, 100%, 60%)" />
<rect x="90" y="6" width="2" height="2" fill="hsl(0, 100%, 60%)" />
<rect x="96" y="6" width="2" height="2" fill="hsl(0, 100%, 60%)" />
<rect x="92" y="8" width="2" height="2" fill="hsl(0, 100%, 60%)" />
<rect x="94" y="8" width="2" height="2" fill="hsl(0, 100%, 60%)" />
<rect x="4" y="10" width="2" height="2" fill="hsl(0, 100%, 60%)" />
<rect x="6" y="10" width="2" height="2" fill="hsl(0, 100%, 60%)" />
<rect x="12" y="10" width="2" height="2" fill="hsl(0, 100%, 60%)" />
<rect x="14" y="10" width="2" height="2" fill="hsl(0, 100%, 60%)" />
<rect x="20" y="10" width="2" height="2" fill="hsl(0, 100%, 60%)" />
<rect x="22" y="10" width="2" height="2" fill="hsl(0, 100%, 60%)" />
<rect x="28" y="10" width="2" height="2" fill="hsl(0, 100%, 60%)" />
<rect x="30" y="10" width="2" height="2" fill="hsl(0, 100%, 60%)" />
<rect x="36" y="10" width="2" height="2" fill="hsl(0, 100%, 60%)" />
<rect x="38" y="10" width="2" height="2" fill="hsl(0, 100%, 60%)" />
<rect x="44" y="10" width="2" height="2" fill="hsl(0, 100%, 60%)" />
<rect x="46" y="10" width="2" height="2" fill="hsl(0, 100%, 60%)" />
<rect x="52" y="10" width="2" height="2" fill="hsl(0, 100%, 60%)" />
<rect x="54" y="10" width="2" height="2" fill="hsl(0, 100%, 60%)" />
<rect x="60" y="10" width="2" height="2" fill="hsl(0, 100%, 60%)" />
<rect x="62" y="10" width="2" height="2" fill="hsl(0, 100%, 60%)" />
<rect x="68" y="10" width="2" height="2" fill="hsl(0, 100%, 60%)" />
<rect x="70" y="10" width="2" height="2" fill="hsl(0, 100%, 60%)" />
<rect x="76" y="10" width="2" height="2" fill="hsl(0, 100%, 60%)" />
<rect x="78" y="10" width="2" height="2" fill="hsl(0, 100%, 60%)" />
<rect x="84" y="10" width="2" height="2" fill="hsl(0, 100%, 60%)" />
<rect x="86" y="10" width="2" height="2" fill="hsl(0, 100%, 60%)" />
<rect x="4" y="12" width="2" height="2" fill="hsl(0, 100%, 60%)" />
<rect x="6" y="12" width="2" height="2" fill="hsl(0, 100%, 60%)" />
<rect x="12" y="12" width="2" height="2" fill="hsl(0, 100%, 60%)" />
<rect x="14" y="12" width="2" height="2" fill="hsl(0, 100%, 60%)" />
<rect x="20" y="12" width="2" height="2" fill="hsl(0, 100%, 60%)" />
<rect x="22" y="12" width="2" height="2" fill="hsl(0, 100%, 60%)" />
<rect x="28" y="12" width="2" height="2" fill="hsl(0, 100%, 60%)" />
<rect x="30" y="12" width="2" height="2" fill="hsl(0, 100%, 60%)" />
<rect x="36" y="12" width="2" height="2" fill="hsl(0, 100%, 60%)" />
<rect x="38" y="12" width="2" height="2" fill="hsl(0, 100%, 60%)" />
<rect x="44" y="12" width="2" height="2" fill="hsl(0, 100%, 60%)" />
<rect x="46" y="12" width="2" height="2" fill="hsl(0, 100%, 60%)" />
<rect x="52" y="12" width="2" height="2" fill="hsl(0, 100%, 60%)" />
<rect x="54" y="12" width="2" height="2" fill="hsl(0, 100%, 60%)" />
<rect x="60" y="12" width="2" height="2" fill="hsl(0, 100%, 60%)" />
<rect x="62" y="12" width="2" height="2" fill="hsl(0, 100%, 60%)" />
<rect x="68" y="12" width="2" height="2" fill="hsl(0, 100%, 60%)" />
<rect x="70" y="12" width="2" height="2" fill="hsl(0, 100%, 60%)" />
<rect x="76" y="12" width="2" height="2" fill="hsl(0, 100%, 60%)" />
<rect x="78" y="12" width="2" height="2" fill="hsl(0, 100%, 60%)" />
<rect x="84" y="12" width="2" height="2" fill="hsl(0, 100%, 60%)" />
<rect x="86" y="12" width="2" height="2" fill="hsl(0, 100%, 60%)" />
</svg>