<?xml version="1.0" encoding="utf-8"?>
<svg xmlns="http://www.w3.org/2000/svg" width="116" height="22" viewBox="0 0 116 22">
<rect width="100%" height="100%" fill="transparent" />
<rect x="108" y="4" width="2" height="2" fill="hsl(0, 100%, 60%)" />
<rect x="94" y="6" width="2" height="2" fill="hsl(0, 100%, 60%)" />
<rect x="96" y="6" width="2" height="2" fill="hsl(0, 100%, 60%)" />
<rect x="100" y="6" width="2" height="2" fill="hsl(0, 100%, 60%)" />
<rect x="106" y="6" width="2" height="2" fill="hsl(0, 100%, 60%)" />
<rect x="110" y="6" width="2" height="2" fill="hsl(0, 100%, 60%)" />
<rect x="92" y="8" width="2" height="2" fill="hsl(0, 100%, 60%)" />
<rect x="96" y="8" width="2" height="2" fill="hsl(0, 100%, 60%)" />
<rect x="100" y="8" width="2" height="2" fill="hsl(0, 100%, 60%)" />
<rect x="102" y="8" width="2" height="2" fill="hsl(0, 100%, 60%)" />
<rect x="104" y="8" width="2" height="2" fill="hsl(0, 100%, 60%)" />
<rect x="106" y="8" width="2" height="2" fill="hsl(0, 100%, 60%)" />
<rect x="110" y="8" width="2" height="2" fill="hsl(0, 100%, 60%)" />
<rect x="4" y="10" width="2" height="2" fill="hsl(0, 100%, 60%)" />
<rect x="6" y="10" width="2" height="2" fill="hsl(0, 100%, 60%)" />
<rect x="8" y="10" width="2" height="2" fill="hsl(0, 100%, 60%)" />
<rect x="12" y="10" width="2" height="2" fill="hsl(0, 100%, 60%)" />
<rect x="14" y="10" width="2" height="2" fill="hsl(0, 100%, 60%)" />
<rect x="16" y="10" width="2" height="2" fill="hsl(0, 100%, 60%)" />
<rect x="20" y="10" width="2" height="2" fill="hsl(0, 100%, 60%)" />
<rect x="22" y="10" width="2" height="2" fill="hsl(0, 100%, 60%)" />
<rect x="24" y="10" width="2" height="2" fill="hsl(0, 100%, 60%)" />
<rect x="28" y="10" width="2" height="2" fill="hsl(0, 100%, 60%)" />
<rect x="30" y="10" width="2" height="2" fill="hsl(0, 100%, 60%)" />
<rect x="32" y="10" width="2" height="2" fill="hsl(0, 100%, 60%)" />
<rect x="36" y="10" width="2" height="2" fill="hsl(0, 100%, 60%)" />
<rect x="38" y="10" width="2" height="2" fill="hsl(0, 100%, 60%)" />
<rect x="40" y="10" width="2" height="2" fill="hsl(0, 100%, 60%)" />
<rect x="44" y="10" width="2" height="2" fill="hsl(0, 100%, 60%)" />
<rect x="46" y="10" width="2" height="2" fill="hsl(0, 100%, 60%)" />
<rect x="48" y="10" width="2" height="2" fill="hsl(0, 100%, 60%)" />
<rect x="52" y="10" width="2" height="2" fill="hsl(0, 100%, 60%)" />
<rect x="54" y="10" width="2" height="2" fill="hsl(0, 100%, 60%)" />
<rect x="56" y="10" width="2" height="2" fill="hsl(0, 100%, 60%)" />
<rect x="60" y="10" width="2" height="2" fill="hsl(0, 100%, 60%)" />
<rect x="62" y="10" width="2" height="2" fill="hsl(0, 100%, 60%)" />
<rect x="64" y="10" width="2" height="2" fill="hsl(0, 100%, 60%)" />
<rect x="68" y="10" width="2" height="2" fill="hsl(0, 100%, 60%)" />
<rect x="70" y="10" width="2" height="2" fill="hsl(0, 100%, 60%)" />
<rect x="72" y="10" width="2" height="2" fill="hsl(0, 100%, 60%)" />
<rect x="76" y="10" width="2" height="2" fill="hsl(0, 100%, 60%)" />
<rect x="78" y="10" width="2" height="2" fill="hsl(0, 100%, 60%)" />
<rect x="80" y="10" width="2" height="2" fill="hsl(0, 100%, 60%)" />
<rect x="84" y="10" width="2" height="2" fill="hsl(0, 100%, 60%)" />
<rect x="86" y="10" width="2" height="2" fill="hsl(0, 100%, 60%)" />
<rect x="88" y="10" width="2" height="2" fill="hsl(0, 100%, 60%)" />
<rect x="92" y="10" width="2" height="2" fill="hsl(0, 100%, 60%)" />
<rect x="92" y="12" width="2" height="2" fill="hsl(0, 100%, 60%)" />
<rect x="96" y="12" width="2" height="2" fill="hsl(0, 100%, 60%)" />
<rect x="100" y="12" width="2" height="2" fill="hsl(0, 100%, 60%)" />
<rect x="102" y="12" width="2" height="2" fill="hsl(0, 100%, 60%)" />
<rect x="104" y="12" width="2" height="2" fill="hsl(0, 100%, 60%)" />
<rect x="106" y="12" width="2" height="2" fill="hsl(0, 100%, 60%)" />
<rect x="110" y="12" width="2" height="2" fill="hsl(0, 100%, 60%)" />
<rect x="94" y="14" width="2" height="2" fill="hsl(0, 100%, 60%)" />
<rect x="96" y="14" width="2" height="2" fill="hsl(0, 100%, 60%)" />
<rect x="100" y="14" width="2" height="2" fill="hsl(0, 100%, 60%)" />
<rect x="106" y="14" width="2" height="2" fill="hsl(0, 100%, 60%)" />
<rect x="110" y="14" width="2" height="2" fill="hsl(0, 100%, 60%)" />
<rect x="108" y="16" width="2" height="2" fill="hsl(0, 100%, 60%)" />
</svg>