<?xml version="1.0" encoding="utf-8"?>
<svg xmlns="http://www.w3.org/2000/svg" width="42" height="94" viewBox="0 0 42 94">
<rect width="100%" height="100%" fill="transparent" />
<rect x="10" y="4" width="2" height="2" fill="hsl(0, 100%, 60%)" />
<rect x="6" y="6" width="2" height="2" fill="hsl(0, 100%, 60%)" />
<rect x="14" y="6" width="2" height="2" fill="hsl(0, 100%, 60%)" />
<rect x="4" y="8" width="2" height="2" fill="hsl(0, 100%, 60%)" />
<rect x="4" y="10" width="2" height="2" fill="hsl(0, 100%, 60%)" />
<rect x="14" y="10" width="2" height="2" fill="hsl(0, 100%, 60%)" />
<rect x="4" y="12" width="2" height="2" fill="hsl(0, 100%, 60%)" />
<rect x="6" y="12" width="2" height="2" fill="hsl(0, 100%, 60%)" />
<rect x="8" y="12" width="2" height="2" fill="hsl(0, 100%, 60%)" />
<rect x="10" y="12" width="2" height="2" fill="hsl(0, 100%, 60%)" />
<rect x="12" y="12" width="2" height="2" fill="hsl(0, 100%, 60%)" />
<rect x="6" y="20" width="2" height="2" fill="hsl(0, 100%, 60%)" />
<rect x="8" y="20" width="2" height="2" fill="hsl(0, 100%, 60%)" />
<rect x="4" y="22" width="2" height="2" fill="hsl(0, 100%, 60%)" />
<rect x="6" y="22" width="2" height="2" fill="hsl(0, 100%, 60%)" />
<rect x="10" y="22" width="2" height="2" fill="hsl(0, 100%, 60%)" />
<rect x="12" y="22" width="2" height="2" fill="hsl(0, 100%, 60%)" />
<rect x="14" y="22" width="2" height="2" fill="hsl(0, 100%, 60%)" />
<rect x="6" y="24" width="2" height="2" fill="hsl(0, 100%, 60%)" />
<rect x="8" y="24" width="2" height="2" fill="hsl(0, 100%, 60%)" />
<rect x="10" y="24" width="2" height="2" fill="hsl(0, 100%, 60%)" />
<rect x="12" y="24" width="2" height="2" fill="hsl(0, 100%, 60%)" />
<rect x="8" y="26" width="2" height="2" fill="hsl(0, 100%, 60%)" />
<rect x="10" y="26" width="2" height="2" fill="hsl(0, 100%, 60%)" />
<rect x="14" y="30" width="2" height="2" fill="hsl(0, 100%, 60%)" />
<rect x="16" y="30" width="2" height="2" fill="hsl(0, 100%, 60%)" />
<rect x="10" y="32" width="2" height="2" fill="hsl(0, 100%, 60%)" />
<rect x="20" y="32" width="2" height="2" fill="hsl(0, 100%, 60%)" />
<rect x="8" y="34" width="2" height="2" fill="hsl(0, 100%, 60%)" />
<rect x="8" y="36" width="2" height="2" fill="hsl(0, 100%, 60%)" />
<rect x="20" y="36" width="2" height="2" fill="hsl(0, 100%, 60%)" />
<rect x="8" y="38" width="2" height="2" fill="hsl(0, 100%, 60%)" />
<rect x="10" y="38" width="2" height="2" fill="hsl(0, 100%, 60%)" />
<rect x="12" y="38" width="2" height="2" fill="hsl(0, 100%, 60%)" />
<rect x="14" y="38" width="2" height="2" fill="hsl(0, 100%, 60%)" />
<rect x="16" y="38" width="2" height="2" fill="hsl(0, 100%, 60%)" />
<rect x="18" y="38" width="2" height="2" fill="hsl(0, 100%, 60%)" />
<rect x="30" y="40" width="2" height="2" fill="hsl(0, 100%, 60%)" />
<rect x="32" y="40" width="2" height="2" fill="hsl(0, 100%, 60%)" />
<rect x="34" y="40" width="2" height="2" fill="hsl(0, 100%, 60%)" />
<rect x="28" y="42" width="2" height="2" fill="hsl(0, 100%, 60%)" />
<rect x="30" y="42" width="2" height="2" fill="hsl(0, 100%, 60%)" />
<rect x="32" y="42" width="2" height="2" fill="hsl(0, 100%, 60%)" />
<rect x="34" y="42" width="2" height="2" fill="hsl(0, 100%, 60%)" />
<rect x="36" y="42" width="2" height="2" fill="hsl(0, 100%, 60%)" />
<rect x="26" y="44" width="2" height="2" fill="hsl(0, 100%, 60%)" />
<rect x="28" y="44" width="2" height="2" fill="hsl(0, 100%, 60%)" />
<rect x="32" y="44" width="2" height="2" fill="hsl(0, 100%, 60%)" />
<rect x="34" y="44" width="2" height="2" fill="hsl(0, 100%, 60%)" />
<rect x="36" y="44" width="2" height="2" fill="hsl(0, 100%, 60%)" />
<rect x="28" y="46" width="2" height="2" fill="hsl(0, 100%, 60%)" />
<rect x="30" y="46" width="2" height="2" fill="hsl(0, 100%, 60%)" />
<rect x="22" y="52" width="2" height="2" fill="hsl(0, 100%, 60%)" />
<rect x="26" y="52" width="2" height="2" fill="hsl(0, 100%, 60%)" />
<rect x="8" y="54" width="2" height="2" fill="hsl(0, 100%, 60%)" />
<rect x="20" y="54" width="2" height="2" fill="hsl(0, 100%, 60%)" />
<rect x="26" y="54" width="2" height="2" fill="hsl(0, 100%, 60%)" />
<rect x="6" y="56" width="2" height="2" fill="hsl(0, 100%, 60%)" />
<rect x="8" y="56" width="2" height="2" fill="hsl(0, 100%, 60%)" />
<rect x="10" y="56" width="2" height="2" fill="hsl(0, 100%, 60%)" />
<rect x="12" y="56" width="2" height="2" fill="hsl(0, 100%, 60%)" />
<rect x="14" y="56" width="2" height="2" fill="hsl(0, 100%, 60%)" />
<rect x="22" y="56" width="2" height="2" fill="hsl(0, 100%, 60%)" />
<rect x="26" y="56" width="2" height="2" fill="hsl(0, 100%, 60%)" />
<rect x="4" y="58" width="2" height="2" fill="hsl(0, 100%, 60%)" />
<rect x="6" y="58" width="2" height="2" fill="hsl(0, 100%, 60%)" />
<rect x="14" y="58" width="2" height="2" fill="hsl(0, 100%, 60%)" />
<rect x="16" y="58" width="2" height="2" fill="hsl(0, 100%, 60%)" />
<rect x="20" y="58" width="2" height="2" fill="hsl(0, 100%, 60%)" />
<rect x="22" y="58" width="2" height="2" fill="hsl(0, 100%, 60%)" />
<rect x="6" y="60" width="2" height="2" fill="hsl(0, 100%, 60%)" />
<rect x="22" y="60" width="2" height="2" fill="hsl(0, 100%, 60%)" />
<rect x="8" y="62" width="2" height="2" fill="hsl(0, 100%, 60%)" />
<rect x="10" y="62" width="2" height="2" fill="hsl(0, 100%, 60%)" />
<rect x="16" y="62" width="2" height="2" fill="hsl(0, 100%, 60%)" />
<rect x="22" y="62" width="2" height="2" fill="hsl(0, 100%, 60%)" />
<rect x="24" y="64" width="2" height="2" fill="hsl(0, 100%, 60%)" />
<rect x="8" y="66" width="2" height="2" fill="hsl(0, 100%, 60%)" />
<rect x="10" y="66" width="2" height="2" fill="hsl(0, 100%, 60%)" />
<rect x="16" y="66" width="2" height="2" fill="hsl(0, 100%, 60%)" />
<rect x="22" y="66" width="2" height="2" fill="hsl(0, 100%, 60%)" />
<rect x="6" y="68" width="2" height="2" fill="hsl(0, 100%, 60%)" />
<rect x="22" y="68" width="2" height="2" fill="hsl(0, 100%, 60%)" />
<rect x="4" y="70" width="2" height="2" fill="hsl(0, 100%, 60%)" />
<rect x="6" y="70" width="2" height="2" fill="hsl(0, 100%, 60%)" />
<rect x="14" y="70" width="2" height="2" fill="hsl(0, 100%, 60%)" />
<rect x="16" y="70" width="2" height="2" fill="hsl(0, 100%, 60%)" />
<rect x="20" y="70" width="2" height="2" fill="hsl(0, 100%, 60%)" />
<rect x="22" y="70" width="2" height="2" fill="hsl(0, 100%, 60%)" />
<rect x="6" y="72" width="2" height="2" fill="hsl(0, 100%, 60%)" />
<rect x="8" y="72" width="2" height="2" fill="hsl(0, 100%, 60%)" />
<rect x="10" y="72" width="2" height="2" fill="hsl(0, 100%, 60%)" />
<rect x="12" y="72" width="2" height="2" fill="hsl(0, 100%, 60%)" />
<rect x="14" y="72" width="2" height="2" fill="hsl(0, 100%, 60%)" />
<rect x="22" y="72" width="2" height="2" fill="hsl(0, 100%, 60%)" />
<rect x="26" y="72" width="2" height="2" fill="hsl(0, 100%, 60%)" />
<rect x="8" y="74" width="2" height="2" fill="hsl(0, 100%, 60%)" />
<rect x="20" y="74" width="2" height="2" fill="hsl(0, 100%, 60%)" />
<rect x="26" y="74" width="2" height="2" fill="hsl(0, 100%, 60%)" />
<rect x="22" y="76" width="2" height="2" fill="hsl(0, 100%, 60%)" />
<rect x="26" y="76" width="2" height="2" fill="hsl(0, 100%, 60%)" />
<rect x="28" y="82" width="2" height="2" fill="hsl(0, 100%, 60%)" />
<rect x="30" y="82" width="2" height="2" fill="hsl(0, 100%, 60%)" />
<rect x="26" y="84" width="2" height="2" fill="hsl(0, 100%, 60%)" />
<rect x="28" y="84" width="2" height="2" fill="hsl(0, 100%, 60%)" />
<rect x="32" y="84" width="2" height="2" fill="hsl(0, 100%, 60%)" />
<rect x="34" y="84" width="2" height="2" fill="hsl(0, 100%, 60%)" />
<rect x="36" y="84" width="2" height="2" fill="hsl(0, 100%, 60%)" />
<rect x="28" y="86" width="2" height="2" fill="hsl(0, 100%, 60%)" />
<rect x="30" y="86" width="2" height="2" fill="hsl(0, 100%, 60%)" />
<rect x="32" y="86" width="2" height="2" fill="hsl(0, 100%, 60%)" />
<rect x="34" y="86" width="2" height="2" fill="hsl(0, 100%, 60%)" />
<rect x="36" y="86" width="2" height="2" fill="hsl(0, 100%, 60%)" />
<rect x="30" y="88" width="2" height="2" fill="hsl(0, 100%, 60%)" />
<rect x="32" y="88" width="2" height="2" fill="hsl(0, 100%, 60%)" />
<rect x="34" y="88" width="2" height="2" fill="hsl(0, 100%, 60%)" />
</svg>