<?xml version="1.0" encoding="utf-8"?>
<svg xmlns="http://www.w3.org/2000/svg" width="118" height="88" viewBox="0 0 118 88">
<rect width="100%" height="100%" fill="transparent" />
<rect x="99" y="4" width="5" height="5" fill="hsl(0, 100%, 60%)" />
<rect x="109" y="4" width="5" height="5" fill="hsl(0, 100%, 60%)" />
<rect x="99" y="9" width="5" height="5" fill="hsl(0, 100%, 60%)" />
<rect x="104" y="9" width="5" height="5" fill="hsl(0, 100%, 60%)" />
<rect x="104" y="14" width="5" height="5" fill="hsl(0, 100%, 60%)" />
<rect x="19" y="34" width="5" height="5" fill="hsl(0, 100%, 60%)" />
<rect x="14" y="39" width="5" height="5" fill="hsl(0, 100%, 60%)" />
<rect x="14" y="44" width="5" height="5" fill="hsl(0, 100%, 60%)" />
<rect x="19" y="44" width="5" height="5" fill="hsl(0, 100%, 60%)" />
<rect x="24" y="44" width="5" height="5" fill="hsl(0, 100%, 60%)" />
<rect x="4" y="69" width="5" height="5" fill="hsl(0, 100%, 60%)" />
<rect x="9" y="69" width="5" height="5" fill="hsl(0, 100%, 60%)" />
<rect x="29" y="69" width="5" height="5" fill="hsl(0, 100%, 60%)" />
<rect x="4" y="74" width="5" height="5" fill="hsl(0, 100%, 60%)" />
<rect x="9" y="74" width="5" height="5" fill="hsl(0, 100%, 60%)" />
<rect x="29" y="74" width="5" height="5" fill="hsl(0, 100%, 60%)" />
<rect x="39" y="74" width="5" height="5" fill="hsl(0, 100%, 60%)" />
<rect x="29" y="79" width="5" height="5" fill="hsl(0, 100%, 60%)" />
<rect x="34" y="79" width="5" height="5" fill="hsl(0, 100%, 60%)" />
</svg>