<?xml version="1.0" encoding="utf-8"?>
<svg xmlns="http://www.w3.org/2000/svg" width="123" height="58" viewBox="0 0 123 58">
<rect width="100%" height="100%" fill="transparent" />
<rect x="4" y="4" width="5" height="5" fill="hsl(0, 100%, 60%)" />
<rect x="9" y="4" width="5" height="5" fill="hsl(0, 100%, 60%)" />
<rect x="4" y="9" width="5" height="5" fill="hsl(0, 100%, 60%)" />
<rect x="9" y="9" width="5" height="5" fill="hsl(0, 100%, 60%)" />
<rect x="9" y="24" width="5" height="5" fill="hsl(0, 100%, 60%)" />
<rect x="14" y="24" width="5" height="5" fill="hsl(0, 100%, 60%)" />
<rect x="104" y="24" width="5" height="5" fill="hsl(0, 100%, 60%)" />
<rect x="109" y="24" width="5" height="5" fill="hsl(0, 100%, 60%)" />
<rect x="9" y="29" width="5" height="5" fill="hsl(0, 100%, 60%)" />
<rect x="14" y="29" width="5" height="5" fill="hsl(0, 100%, 60%)" />
<rect x="104" y="29" width="5" height="5" fill="hsl(0, 100%, 60%)" />
<rect x="109" y="29" width="5" height="5" fill="hsl(0, 100%, 60%)" />
<rect x="109" y="44" width="5" height="5" fill="hsl(0, 100%, 60%)" />
<rect x="114" y="44" width="5" height="5" fill="hsl(0, 100%, 60%)" />
<rect x="109" y="49" width="5" height="5" fill="hsl(0, 100%, 60%)" />
<rect x="114" y="49" width="5" height="5" fill="hsl(0, 100%, 60%)" />
</svg>