<?xml version="1.0" encoding="utf-8"?>
<svg xmlns="http://www.w3.org/2000/svg" width="96" height="72" viewBox="0 0 96 72">
<rect width="100%" height="100%" fill="transparent" />
<rect x="12" y="4" width="2" height="2" fill="hsl(0, 100%, 60%)" />
<rect x="16" y="4" width="2" height="2" fill="hsl(0, 100%, 60%)" />
<rect x="30" y="4" width="2" height="2" fill="hsl(0, 100%, 60%)" />
<rect x="32" y="4" width="2" height="2" fill="hsl(0, 100%, 60%)" />
<rect x="14" y="6" width="2" height="2" fill="hsl(0, 100%, 60%)" />
<rect x="16" y="6" width="2" height="2" fill="hsl(0, 100%, 60%)" />
<rect x="30" y="6" width="2" height="2" fill="hsl(0, 100%, 60%)" />
<rect x="32" y="6" width="2" height="2" fill="hsl(0, 100%, 60%)" />
<rect x="14" y="8" width="2" height="2" fill="hsl(0, 100%, 60%)" />
<rect x="84" y="22" width="2" height="2" fill="hsl(0, 100%, 60%)" />
<rect x="82" y="24" width="2" height="2" fill="hsl(0, 100%, 60%)" />
<rect x="86" y="24" width="2" height="2" fill="hsl(0, 100%, 60%)" />
<rect x="82" y="26" width="2" height="2" fill="hsl(0, 100%, 60%)" />
<rect x="86" y="26" width="2" height="2" fill="hsl(0, 100%, 60%)" />
<rect x="44" y="28" width="2" height="2" fill="hsl(0, 100%, 60%)" />
<rect x="46" y="28" width="2" height="2" fill="hsl(0, 100%, 60%)" />
<rect x="80" y="28" width="2" height="2" fill="hsl(0, 100%, 60%)" />
<rect x="82" y="28" width="2" height="2" fill="hsl(0, 100%, 60%)" />
<rect x="86" y="28" width="2" height="2" fill="hsl(0, 100%, 60%)" />
<rect x="88" y="28" width="2" height="2" fill="hsl(0, 100%, 60%)" />
<rect x="44" y="30" width="2" height="2" fill="hsl(0, 100%, 60%)" />
<rect x="46" y="30" width="2" height="2" fill="hsl(0, 100%, 60%)" />
<rect x="80" y="32" width="2" height="2" fill="hsl(0, 100%, 60%)" />
<rect x="82" y="32" width="2" height="2" fill="hsl(0, 100%, 60%)" />
<rect x="86" y="32" width="2" height="2" fill="hsl(0, 100%, 60%)" />
<rect x="88" y="32" width="2" height="2" fill="hsl(0, 100%, 60%)" />
<rect x="8" y="34" width="2" height="2" fill="hsl(0, 100%, 60%)" />
<rect x="10" y="34" width="2" height="2" fill="hsl(0, 100%, 60%)" />
<rect x="80" y="34" width="2" height="2" fill="hsl(0, 100%, 60%)" />
<rect x="82" y="34" width="2" height="2" fill="hsl(0, 100%, 60%)" />
<rect x="86" y="34" width="2" height="2" fill="hsl(0, 100%, 60%)" />
<rect x="6" y="36" width="2" height="2" fill="hsl(0, 100%, 60%)" />
<rect x="10" y="36" width="2" height="2" fill="hsl(0, 100%, 60%)" />
<rect x="90" y="36" width="2" height="2" fill="hsl(0, 100%, 60%)" />
<rect x="6" y="38" width="2" height="2" fill="hsl(0, 100%, 60%)" />
<rect x="88" y="38" width="2" height="2" fill="hsl(0, 100%, 60%)" />
<rect x="90" y="38" width="2" height="2" fill="hsl(0, 100%, 60%)" />
<rect x="4" y="40" width="2" height="2" fill="hsl(0, 100%, 60%)" />
<rect x="6" y="40" width="2" height="2" fill="hsl(0, 100%, 60%)" />
<rect x="72" y="44" width="2" height="2" fill="hsl(0, 100%, 60%)" />
<rect x="74" y="44" width="2" height="2" fill="hsl(0, 100%, 60%)" />
<rect x="72" y="46" width="2" height="2" fill="hsl(0, 100%, 60%)" />
<rect x="74" y="46" width="2" height="2" fill="hsl(0, 100%, 60%)" />
<rect x="84" y="46" width="2" height="2" fill="hsl(0, 100%, 60%)" />
<rect x="86" y="46" width="2" height="2" fill="hsl(0, 100%, 60%)" />
<rect x="26" y="48" width="2" height="2" fill="hsl(0, 100%, 60%)" />
<rect x="28" y="48" width="2" height="2" fill="hsl(0, 100%, 60%)" />
<rect x="84" y="48" width="2" height="2" fill="hsl(0, 100%, 60%)" />
<rect x="88" y="48" width="2" height="2" fill="hsl(0, 100%, 60%)" />
<rect x="24" y="50" width="2" height="2" fill="hsl(0, 100%, 60%)" />
<rect x="28" y="50" width="2" height="2" fill="hsl(0, 100%, 60%)" />
<rect x="88" y="50" width="2" height="2" fill="hsl(0, 100%, 60%)" />
<rect x="24" y="52" width="2" height="2" fill="hsl(0, 100%, 60%)" />
<rect x="88" y="52" width="2" height="2" fill="hsl(0, 100%, 60%)" />
<rect x="90" y="52" width="2" height="2" fill="hsl(0, 100%, 60%)" />
<rect x="22" y="54" width="2" height="2" fill="hsl(0, 100%, 60%)" />
<rect x="24" y="54" width="2" height="2" fill="hsl(0, 100%, 60%)" />
<rect x="72" y="54" width="2" height="2" fill="hsl(0, 100%, 60%)" />
<rect x="74" y="54" width="2" height="2" fill="hsl(0, 100%, 60%)" />
<rect x="72" y="56" width="2" height="2" fill="hsl(0, 100%, 60%)" />
<rect x="74" y="56" width="2" height="2" fill="hsl(0, 100%, 60%)" />
<rect x="62" y="62" width="2" height="2" fill="hsl(0, 100%, 60%)" />
<rect x="60" y="64" width="2" height="2" fill="hsl(0, 100%, 60%)" />
<rect x="64" y="64" width="2" height="2" fill="hsl(0, 100%, 60%)" />
<rect x="62" y="66" width="2" height="2" fill="hsl(0, 100%, 60%)" />
</svg>