<?xml version="1.0" encoding="utf-8"?>
<svg xmlns="http://www.w3.org/2000/svg" width="128" height="108" viewBox="0 0 128 108">
<rect width="100%" height="100%" fill="transparent" />
<rect x="79" y="4" width="5" height="5" fill="hsl(0, 100%, 60%)" />
<rect x="4" y="9" width="5" height="5" fill="hsl(0, 100%, 60%)" />
<rect x="74" y="9" width="5" height="5" fill="hsl(0, 100%, 60%)" />
<rect x="79" y="9" width="5" height="5" fill="hsl(0, 100%, 60%)" />
<rect x="4" y="14" width="5" height="5" fill="hsl(0, 100%, 60%)" />
<rect x="69" y="14" width="5" height="5" fill="hsl(0, 100%, 60%)" />
<rect x="74" y="14" width="5" height="5" fill="hsl(0, 100%, 60%)" />
<rect x="4" y="19" width="5" height="5" fill="hsl(0, 100%, 60%)" />
<rect x="74" y="19" width="5" height="5" fill="hsl(0, 100%, 60%)" />
<rect x="79" y="19" width="5" height="5" fill="hsl(0, 100%, 60%)" />
<rect x="79" y="24" width="5" height="5" fill="hsl(0, 100%, 60%)" />
<rect x="9" y="29" width="5" height="5" fill="hsl(0, 100%, 60%)" />
<rect x="14" y="29" width="5" height="5" fill="hsl(0, 100%, 60%)" />
<rect x="19" y="34" width="5" height="5" fill="hsl(0, 100%, 60%)" />
<rect x="19" y="39" width="5" height="5" fill="hsl(0, 100%, 60%)" />
<rect x="29" y="39" width="5" height="5" fill="hsl(0, 100%, 60%)" />
<rect x="34" y="39" width="5" height="5" fill="hsl(0, 100%, 60%)" />
<rect x="4" y="44" width="5" height="5" fill="hsl(0, 100%, 60%)" />
<rect x="9" y="44" width="5" height="5" fill="hsl(0, 100%, 60%)" />
<rect x="14" y="44" width="5" height="5" fill="hsl(0, 100%, 60%)" />
<rect x="39" y="44" width="5" height="5" fill="hsl(0, 100%, 60%)" />
<rect x="39" y="49" width="5" height="5" fill="hsl(0, 100%, 60%)" />
<rect x="29" y="54" width="5" height="5" fill="hsl(0, 100%, 60%)" />
<rect x="34" y="54" width="5" height="5" fill="hsl(0, 100%, 60%)" />
<rect x="39" y="54" width="5" height="5" fill="hsl(0, 100%, 60%)" />
<rect x="109" y="89" width="5" height="5" fill="hsl(0, 100%, 60%)" />
<rect x="114" y="89" width="5" height="5" fill="hsl(0, 100%, 60%)" />
<rect x="119" y="89" width="5" height="5" fill="hsl(0, 100%, 60%)" />
<rect x="109" y="94" width="5" height="5" fill="hsl(0, 100%, 60%)" />
<rect x="114" y="99" width="5" height="5" fill="hsl(0, 100%, 60%)" />
</svg>