<?xml version="1.0" encoding="utf-8"?>
<svg xmlns="http://www.w3.org/2000/svg" width="110" height="92" viewBox="0 0 110 92">
<rect width="100%" height="100%" fill="transparent" />
<rect x="8" y="4" width="2" height="2" fill="hsl(0, 100%, 60%)" />
<rect x="4" y="6" width="2" height="2" fill="hsl(0, 100%, 60%)" />
<rect x="8" y="6" width="2" height="2" fill="hsl(0, 100%, 60%)" />
<rect x="6" y="8" width="2" height="2" fill="hsl(0, 100%, 60%)" />
<rect x="10" y="8" width="2" height="2" fill="hsl(0, 100%, 60%)" />
<rect x="6" y="10" width="2" height="2" fill="hsl(0, 100%, 60%)" />
<rect x="22" y="12" width="2" height="2" fill="hsl(0, 100%, 60%)" />
<rect x="40" y="12" width="2" height="2" fill="hsl(0, 100%, 60%)" />
<rect x="22" y="14" width="2" height="2" fill="hsl(0, 100%, 60%)" />
<rect x="24" y="14" width="2" height="2" fill="hsl(0, 100%, 60%)" />
<rect x="26" y="14" width="2" height="2" fill="hsl(0, 100%, 60%)" />
<rect x="40" y="14" width="2" height="2" fill="hsl(0, 100%, 60%)" />
<rect x="42" y="14" width="2" height="2" fill="hsl(0, 100%, 60%)" />
<rect x="44" y="14" width="2" height="2" fill="hsl(0, 100%, 60%)" />
<rect x="28" y="16" width="2" height="2" fill="hsl(0, 100%, 60%)" />
<rect x="46" y="16" width="2" height="2" fill="hsl(0, 100%, 60%)" />
<rect x="26" y="18" width="2" height="2" fill="hsl(0, 100%, 60%)" />
<rect x="28" y="18" width="2" height="2" fill="hsl(0, 100%, 60%)" />
<rect x="44" y="18" width="2" height="2" fill="hsl(0, 100%, 60%)" />
<rect x="46" y="18" width="2" height="2" fill="hsl(0, 100%, 60%)" />
<rect x="102" y="22" width="2" height="2" fill="hsl(0, 100%, 60%)" />
<rect x="100" y="24" width="2" height="2" fill="hsl(0, 100%, 60%)" />
<rect x="104" y="24" width="2" height="2" fill="hsl(0, 100%, 60%)" />
<rect x="100" y="26" width="2" height="2" fill="hsl(0, 100%, 60%)" />
<rect x="104" y="26" width="2" height="2" fill="hsl(0, 100%, 60%)" />
<rect x="102" y="28" width="2" height="2" fill="hsl(0, 100%, 60%)" />
<rect x="80" y="30" width="2" height="2" fill="hsl(0, 100%, 60%)" />
<rect x="28" y="32" width="2" height="2" fill="hsl(0, 100%, 60%)" />
<rect x="30" y="32" width="2" height="2" fill="hsl(0, 100%, 60%)" />
<rect x="80" y="32" width="2" height="2" fill="hsl(0, 100%, 60%)" />
<rect x="30" y="34" width="2" height="2" fill="hsl(0, 100%, 60%)" />
<rect x="80" y="34" width="2" height="2" fill="hsl(0, 100%, 60%)" />
<rect x="82" y="34" width="2" height="2" fill="hsl(0, 100%, 60%)" />
<rect x="84" y="34" width="2" height="2" fill="hsl(0, 100%, 60%)" />
<rect x="30" y="36" width="2" height="2" fill="hsl(0, 100%, 60%)" />
<rect x="34" y="36" width="2" height="2" fill="hsl(0, 100%, 60%)" />
<rect x="84" y="36" width="2" height="2" fill="hsl(0, 100%, 60%)" />
<rect x="32" y="38" width="2" height="2" fill="hsl(0, 100%, 60%)" />
<rect x="34" y="38" width="2" height="2" fill="hsl(0, 100%, 60%)" />
<rect x="20" y="44" width="2" height="2" fill="hsl(0, 100%, 60%)" />
<rect x="82" y="44" width="2" height="2" fill="hsl(0, 100%, 60%)" />
<rect x="84" y="44" width="2" height="2" fill="hsl(0, 100%, 60%)" />
<rect x="20" y="46" width="2" height="2" fill="hsl(0, 100%, 60%)" />
<rect x="22" y="46" width="2" height="2" fill="hsl(0, 100%, 60%)" />
<rect x="24" y="46" width="2" height="2" fill="hsl(0, 100%, 60%)" />
<rect x="74" y="46" width="2" height="2" fill="hsl(0, 100%, 60%)" />
<rect x="82" y="46" width="2" height="2" fill="hsl(0, 100%, 60%)" />
<rect x="84" y="46" width="2" height="2" fill="hsl(0, 100%, 60%)" />
<rect x="26" y="48" width="2" height="2" fill="hsl(0, 100%, 60%)" />
<rect x="72" y="48" width="2" height="2" fill="hsl(0, 100%, 60%)" />
<rect x="76" y="48" width="2" height="2" fill="hsl(0, 100%, 60%)" />
<rect x="24" y="50" width="2" height="2" fill="hsl(0, 100%, 60%)" />
<rect x="26" y="50" width="2" height="2" fill="hsl(0, 100%, 60%)" />
<rect x="70" y="50" width="2" height="2" fill="hsl(0, 100%, 60%)" />
<rect x="74" y="50" width="2" height="2" fill="hsl(0, 100%, 60%)" />
<rect x="70" y="52" width="2" height="2" fill="hsl(0, 100%, 60%)" />
<rect x="68" y="54" width="2" height="2" fill="hsl(0, 100%, 60%)" />
<rect x="70" y="54" width="2" height="2" fill="hsl(0, 100%, 60%)" />
<rect x="22" y="64" width="2" height="2" fill="hsl(0, 100%, 60%)" />
<rect x="22" y="66" width="2" height="2" fill="hsl(0, 100%, 60%)" />
<rect x="26" y="66" width="2" height="2" fill="hsl(0, 100%, 60%)" />
<rect x="22" y="68" width="2" height="2" fill="hsl(0, 100%, 60%)" />
<rect x="24" y="68" width="2" height="2" fill="hsl(0, 100%, 60%)" />
<rect x="26" y="68" width="2" height="2" fill="hsl(0, 100%, 60%)" />
<rect x="26" y="70" width="2" height="2" fill="hsl(0, 100%, 60%)" />
<rect x="40" y="74" width="2" height="2" fill="hsl(0, 100%, 60%)" />
<rect x="42" y="74" width="2" height="2" fill="hsl(0, 100%, 60%)" />
<rect x="50" y="74" width="2" height="2" fill="hsl(0, 100%, 60%)" />
<rect x="42" y="76" width="2" height="2" fill="hsl(0, 100%, 60%)" />
<rect x="52" y="76" width="2" height="2" fill="hsl(0, 100%, 60%)" />
<rect x="54" y="76" width="2" height="2" fill="hsl(0, 100%, 60%)" />
<rect x="36" y="78" width="2" height="2" fill="hsl(0, 100%, 60%)" />
<rect x="38" y="78" width="2" height="2" fill="hsl(0, 100%, 60%)" />
<rect x="40" y="78" width="2" height="2" fill="hsl(0, 100%, 60%)" />
<rect x="48" y="78" width="2" height="2" fill="hsl(0, 100%, 60%)" />
<rect x="50" y="78" width="2" height="2" fill="hsl(0, 100%, 60%)" />
<rect x="8" y="80" width="2" height="2" fill="hsl(0, 100%, 60%)" />
<rect x="10" y="80" width="2" height="2" fill="hsl(0, 100%, 60%)" />
<rect x="36" y="80" width="2" height="2" fill="hsl(0, 100%, 60%)" />
<rect x="52" y="80" width="2" height="2" fill="hsl(0, 100%, 60%)" />
<rect x="10" y="82" width="2" height="2" fill="hsl(0, 100%, 60%)" />
<rect x="4" y="84" width="2" height="2" fill="hsl(0, 100%, 60%)" />
<rect x="6" y="84" width="2" height="2" fill="hsl(0, 100%, 60%)" />
<rect x="8" y="84" width="2" height="2" fill="hsl(0, 100%, 60%)" />
<rect x="4" y="86" width="2" height="2" fill="hsl(0, 100%, 60%)" />
</svg>