<?xml version="1.0" encoding="utf-8"?>
<svg xmlns="http://www.w3.org/2000/svg" width="125" height="62" viewBox="0 0 125 62">
<rect width="100%" height="100%" fill="transparent" />
<rect x="85" y="4" width="9" height="9" fill="hsl(0, 100%, 60%)" />
<rect x="94" y="4" width="9" height="9" fill="hsl(0, 100%, 60%)" />
<rect x="112" y="4" width="9" height="9" fill="hsl(0, 100%, 60%)" />
<rect x="4" y="13" width="9" height="9" fill="hsl(0, 100%, 60%)" />
<rect x="22" y="13" width="9" height="9" fill="hsl(0, 100%, 60%)" />
<rect x="31" y="13" width="9" height="9" fill="hsl(0, 100%, 60%)" />
<rect x="94" y="13" width="9" height="9" fill="hsl(0, 100%, 60%)" />
<rect x="103" y="13" width="9" height="9" fill="hsl(0, 100%, 60%)" />
<rect x="112" y="13" width="9" height="9" fill="hsl(0, 100%, 60%)" />
<rect x="4" y="22" width="9" height="9" fill="hsl(0, 100%, 60%)" />
<rect x="13" y="22" width="9" height="9" fill="hsl(0, 100%, 60%)" />
<rect x="31" y="22" width="9" height="9" fill="hsl(0, 100%, 60%)" />
<rect x="103" y="22" width="9" height="9" fill="hsl(0, 100%, 60%)" />
<rect x="85" y="40" width="9" height="9" fill="hsl(0, 100%, 60%)" />
<rect x="94" y="40" width="9" height="9" fill="hsl(0, 100%, 60%)" />
<rect x="85" y="49" width="9" height="9" fill="hsl(0, 100%, 60%)" />
<rect x="94" y="49" width="9" height="9" fill="hsl(0, 100%, 60%)" />
</svg>