<?xml version="1.0" encoding="utf-8"?>
<svg xmlns="http://www.w3.org/2000/svg" width="120" height="52" viewBox="0 0 120 52">
<rect width="100%" height="100%" fill="transparent" />
<rect x="6" y="4" width="2" height="2" fill="hsl(0, 100%, 60%)" />
<rect x="10" y="4" width="2" height="2" fill="hsl(0, 100%, 60%)" />
<rect x="16" y="4" width="2" height="2" fill="hsl(0, 100%, 60%)" />
<rect x="6" y="6" width="2" height="2" fill="hsl(0, 100%, 60%)" />
<rect x="8" y="6" width="2" height="2" fill="hsl(0, 100%, 60%)" />
<rect x="10" y="6" width="2" height="2" fill="hsl(0, 100%, 60%)" />
<rect x="14" y="6" width="2" height="2" fill="hsl(0, 100%, 60%)" />
<rect x="18" y="6" width="2" height="2" fill="hsl(0, 100%, 60%)" />
<rect x="20" y="6" width="2" height="2" fill="hsl(0, 100%, 60%)" />
<rect x="4" y="8" width="2" height="2" fill="hsl(0, 100%, 60%)" />
<rect x="18" y="8" width="2" height="2" fill="hsl(0, 100%, 60%)" />
<rect x="30" y="8" width="2" height="2" fill="hsl(0, 100%, 60%)" />
<rect x="6" y="10" width="2" height="2" fill="hsl(0, 100%, 60%)" />
<rect x="18" y="10" width="2" height="2" fill="hsl(0, 100%, 60%)" />
<rect x="20" y="10" width="2" height="2" fill="hsl(0, 100%, 60%)" />
<rect x="28" y="10" width="2" height="2" fill="hsl(0, 100%, 60%)" />
<rect x="32" y="10" width="2" height="2" fill="hsl(0, 100%, 60%)" />
<rect x="30" y="12" width="2" height="2" fill="hsl(0, 100%, 60%)" />
<rect x="32" y="12" width="2" height="2" fill="hsl(0, 100%, 60%)" />
<rect x="4" y="14" width="2" height="2" fill="hsl(0, 100%, 60%)" />
<rect x="6" y="14" width="2" height="2" fill="hsl(0, 100%, 60%)" />
<rect x="18" y="14" width="2" height="2" fill="hsl(0, 100%, 60%)" />
<rect x="6" y="16" width="2" height="2" fill="hsl(0, 100%, 60%)" />
<rect x="20" y="16" width="2" height="2" fill="hsl(0, 100%, 60%)" />
<rect x="4" y="18" width="2" height="2" fill="hsl(0, 100%, 60%)" />
<rect x="6" y="18" width="2" height="2" fill="hsl(0, 100%, 60%)" />
<rect x="10" y="18" width="2" height="2" fill="hsl(0, 100%, 60%)" />
<rect x="14" y="18" width="2" height="2" fill="hsl(0, 100%, 60%)" />
<rect x="16" y="18" width="2" height="2" fill="hsl(0, 100%, 60%)" />
<rect x="18" y="18" width="2" height="2" fill="hsl(0, 100%, 60%)" />
<rect x="8" y="20" width="2" height="2" fill="hsl(0, 100%, 60%)" />
<rect x="14" y="20" width="2" height="2" fill="hsl(0, 100%, 60%)" />
<rect x="18" y="20" width="2" height="2" fill="hsl(0, 100%, 60%)" />
<rect x="28" y="22" width="2" height="2" fill="hsl(0, 100%, 60%)" />
<rect x="30" y="22" width="2" height="2" fill="hsl(0, 100%, 60%)" />
<rect x="32" y="22" width="2" height="2" fill="hsl(0, 100%, 60%)" />
<rect x="28" y="24" width="2" height="2" fill="hsl(0, 100%, 60%)" />
<rect x="32" y="24" width="2" height="2" fill="hsl(0, 100%, 60%)" />
<rect x="28" y="26" width="2" height="2" fill="hsl(0, 100%, 60%)" />
<rect x="32" y="26" width="2" height="2" fill="hsl(0, 100%, 60%)" />
<rect x="54" y="28" width="2" height="2" fill="hsl(0, 100%, 60%)" />
<rect x="8" y="30" width="2" height="2" fill="hsl(0, 100%, 60%)" />
<rect x="10" y="30" width="2" height="2" fill="hsl(0, 100%, 60%)" />
<rect x="50" y="30" width="2" height="2" fill="hsl(0, 100%, 60%)" />
<rect x="58" y="30" width="2" height="2" fill="hsl(0, 100%, 60%)" />
<rect x="94" y="30" width="2" height="2" fill="hsl(0, 100%, 60%)" />
<rect x="100" y="30" width="2" height="2" fill="hsl(0, 100%, 60%)" />
<rect x="4" y="32" width="2" height="2" fill="hsl(0, 100%, 60%)" />
<rect x="14" y="32" width="2" height="2" fill="hsl(0, 100%, 60%)" />
<rect x="60" y="32" width="2" height="2" fill="hsl(0, 100%, 60%)" />
<rect x="102" y="32" width="2" height="2" fill="hsl(0, 100%, 60%)" />
<rect x="16" y="34" width="2" height="2" fill="hsl(0, 100%, 60%)" />
<rect x="50" y="34" width="2" height="2" fill="hsl(0, 100%, 60%)" />
<rect x="60" y="34" width="2" height="2" fill="hsl(0, 100%, 60%)" />
<rect x="94" y="34" width="2" height="2" fill="hsl(0, 100%, 60%)" />
<rect x="102" y="34" width="2" height="2" fill="hsl(0, 100%, 60%)" />
<rect x="4" y="36" width="2" height="2" fill="hsl(0, 100%, 60%)" />
<rect x="16" y="36" width="2" height="2" fill="hsl(0, 100%, 60%)" />
<rect x="52" y="36" width="2" height="2" fill="hsl(0, 100%, 60%)" />
<rect x="54" y="36" width="2" height="2" fill="hsl(0, 100%, 60%)" />
<rect x="56" y="36" width="2" height="2" fill="hsl(0, 100%, 60%)" />
<rect x="58" y="36" width="2" height="2" fill="hsl(0, 100%, 60%)" />
<rect x="60" y="36" width="2" height="2" fill="hsl(0, 100%, 60%)" />
<rect x="96" y="36" width="2" height="2" fill="hsl(0, 100%, 60%)" />
<rect x="98" y="36" width="2" height="2" fill="hsl(0, 100%, 60%)" />
<rect x="100" y="36" width="2" height="2" fill="hsl(0, 100%, 60%)" />
<rect x="102" y="36" width="2" height="2" fill="hsl(0, 100%, 60%)" />
<rect x="6" y="38" width="2" height="2" fill="hsl(0, 100%, 60%)" />
<rect x="8" y="38" width="2" height="2" fill="hsl(0, 100%, 60%)" />
<rect x="10" y="38" width="2" height="2" fill="hsl(0, 100%, 60%)" />
<rect x="12" y="38" width="2" height="2" fill="hsl(0, 100%, 60%)" />
<rect x="14" y="38" width="2" height="2" fill="hsl(0, 100%, 60%)" />
<rect x="16" y="38" width="2" height="2" fill="hsl(0, 100%, 60%)" />
<rect x="22" y="40" width="2" height="2" fill="hsl(0, 100%, 60%)" />
<rect x="24" y="40" width="2" height="2" fill="hsl(0, 100%, 60%)" />
<rect x="66" y="40" width="2" height="2" fill="hsl(0, 100%, 60%)" />
<rect x="68" y="40" width="2" height="2" fill="hsl(0, 100%, 60%)" />
<rect x="108" y="40" width="2" height="2" fill="hsl(0, 100%, 60%)" />
<rect x="110" y="40" width="2" height="2" fill="hsl(0, 100%, 60%)" />
<rect x="22" y="42" width="2" height="2" fill="hsl(0, 100%, 60%)" />
<rect x="26" y="42" width="2" height="2" fill="hsl(0, 100%, 60%)" />
<rect x="66" y="42" width="2" height="2" fill="hsl(0, 100%, 60%)" />
<rect x="108" y="42" width="2" height="2" fill="hsl(0, 100%, 60%)" />
<rect x="26" y="44" width="2" height="2" fill="hsl(0, 100%, 60%)" />
<rect x="68" y="44" width="2" height="2" fill="hsl(0, 100%, 60%)" />
<rect x="70" y="44" width="2" height="2" fill="hsl(0, 100%, 60%)" />
<rect x="72" y="44" width="2" height="2" fill="hsl(0, 100%, 60%)" />
<rect x="110" y="44" width="2" height="2" fill="hsl(0, 100%, 60%)" />
<rect x="112" y="44" width="2" height="2" fill="hsl(0, 100%, 60%)" />
<rect x="114" y="44" width="2" height="2" fill="hsl(0, 100%, 60%)" />
<rect x="26" y="46" width="2" height="2" fill="hsl(0, 100%, 60%)" />
<rect x="28" y="46" width="2" height="2" fill="hsl(0, 100%, 60%)" />
<rect x="72" y="46" width="2" height="2" fill="hsl(0, 100%, 60%)" />
<rect x="114" y="46" width="2" height="2" fill="hsl(0, 100%, 60%)" />
</svg>