<?xml version="1.0" encoding="utf-8"?>
<svg xmlns="http://www.w3.org/2000/svg" width="71" height="66" viewBox="0 0 71 66">
<rect width="100%" height="100%" fill="transparent" />
<rect x="36" y="4" width="1" height="1" fill="hsl(0, 100%, 60%)" />
<rect x="37" y="4" width="1" height="1" fill="hsl(0, 100%, 60%)" />
<rect x="39" y="4" width="1" height="1" fill="hsl(0, 100%, 60%)" />
<rect x="35" y="5" width="1" height="1" fill="hsl(0, 100%, 60%)" />
<rect x="36" y="5" width="1" height="1" fill="hsl(0, 100%, 60%)" />
<rect x="37" y="5" width="1" height="1" fill="hsl(0, 100%, 60%)" />
<rect x="39" y="5" width="1" height="1" fill="hsl(0, 100%, 60%)" />
<rect x="46" y="5" width="1" height="1" fill="hsl(0, 100%, 60%)" />
<rect x="48" y="5" width="1" height="1" fill="hsl(0, 100%, 60%)" />
<rect x="34" y="6" width="1" height="1" fill="hsl(0, 100%, 60%)" />
<rect x="39" y="6" width="1" height="1" fill="hsl(0, 100%, 60%)" />
<rect x="41" y="6" width="1" height="1" fill="hsl(0, 100%, 60%)" />
<rect x="46" y="6" width="1" height="1" fill="hsl(0, 100%, 60%)" />
<rect x="35" y="7" width="1" height="1" fill="hsl(0, 100%, 60%)" />
<rect x="36" y="7" width="1" height="1" fill="hsl(0, 100%, 60%)" />
<rect x="43" y="7" width="1" height="1" fill="hsl(0, 100%, 60%)" />
<rect x="45" y="7" width="1" height="1" fill="hsl(0, 100%, 60%)" />
<rect x="49" y="7" width="1" height="1" fill="hsl(0, 100%, 60%)" />
<rect x="36" y="8" width="1" height="1" fill="hsl(0, 100%, 60%)" />
<rect x="40" y="8" width="1" height="1" fill="hsl(0, 100%, 60%)" />
<rect x="43" y="8" width="1" height="1" fill="hsl(0, 100%, 60%)" />
<rect x="46" y="8" width="1" height="1" fill="hsl(0, 100%, 60%)" />
<rect x="47" y="8" width="1" height="1" fill="hsl(0, 100%, 60%)" />
<rect x="39" y="9" width="1" height="1" fill="hsl(0, 100%, 60%)" />
<rect x="41" y="9" width="1" height="1" fill="hsl(0, 100%, 60%)" />
<rect x="42" y="9" width="1" height="1" fill="hsl(0, 100%, 60%)" />
<rect x="46" y="9" width="1" height="1" fill="hsl(0, 100%, 60%)" />
<rect x="38" y="10" width="1" height="1" fill="hsl(0, 100%, 60%)" />
<rect x="40" y="10" width="1" height="1" fill="hsl(0, 100%, 60%)" />
<rect x="57" y="10" width="1" height="1" fill="hsl(0, 100%, 60%)" />
<rect x="58" y="10" width="1" height="1" fill="hsl(0, 100%, 60%)" />
<rect x="38" y="11" width="1" height="1" fill="hsl(0, 100%, 60%)" />
<rect x="40" y="11" width="1" height="1" fill="hsl(0, 100%, 60%)" />
<rect x="57" y="11" width="1" height="1" fill="hsl(0, 100%, 60%)" />
<rect x="58" y="11" width="1" height="1" fill="hsl(0, 100%, 60%)" />
<rect x="65" y="18" width="1" height="1" fill="hsl(0, 100%, 60%)" />
<rect x="66" y="18" width="1" height="1" fill="hsl(0, 100%, 60%)" />
<rect x="56" y="19" width="1" height="1" fill="hsl(0, 100%, 60%)" />
<rect x="57" y="19" width="1" height="1" fill="hsl(0, 100%, 60%)" />
<rect x="65" y="19" width="1" height="1" fill="hsl(0, 100%, 60%)" />
<rect x="66" y="19" width="1" height="1" fill="hsl(0, 100%, 60%)" />
<rect x="43" y="20" width="1" height="1" fill="hsl(0, 100%, 60%)" />
<rect x="53" y="20" width="1" height="1" fill="hsl(0, 100%, 60%)" />
<rect x="55" y="20" width="1" height="1" fill="hsl(0, 100%, 60%)" />
<rect x="56" y="20" width="1" height="1" fill="hsl(0, 100%, 60%)" />
<rect x="57" y="20" width="1" height="1" fill="hsl(0, 100%, 60%)" />
<rect x="58" y="20" width="1" height="1" fill="hsl(0, 100%, 60%)" />
<rect x="38" y="21" width="1" height="1" fill="hsl(0, 100%, 60%)" />
<rect x="42" y="21" width="1" height="1" fill="hsl(0, 100%, 60%)" />
<rect x="43" y="21" width="1" height="1" fill="hsl(0, 100%, 60%)" />
<rect x="44" y="21" width="1" height="1" fill="hsl(0, 100%, 60%)" />
<rect x="45" y="21" width="1" height="1" fill="hsl(0, 100%, 60%)" />
<rect x="46" y="21" width="1" height="1" fill="hsl(0, 100%, 60%)" />
<rect x="52" y="21" width="1" height="1" fill="hsl(0, 100%, 60%)" />
<rect x="53" y="21" width="1" height="1" fill="hsl(0, 100%, 60%)" />
<rect x="55" y="21" width="1" height="1" fill="hsl(0, 100%, 60%)" />
<rect x="59" y="21" width="1" height="1" fill="hsl(0, 100%, 60%)" />
<rect x="60" y="21" width="1" height="1" fill="hsl(0, 100%, 60%)" />
<rect x="37" y="22" width="1" height="1" fill="hsl(0, 100%, 60%)" />
<rect x="39" y="22" width="1" height="1" fill="hsl(0, 100%, 60%)" />
<rect x="47" y="22" width="1" height="1" fill="hsl(0, 100%, 60%)" />
<rect x="48" y="22" width="1" height="1" fill="hsl(0, 100%, 60%)" />
<rect x="53" y="22" width="1" height="1" fill="hsl(0, 100%, 60%)" />
<rect x="56" y="22" width="1" height="1" fill="hsl(0, 100%, 60%)" />
<rect x="57" y="22" width="1" height="1" fill="hsl(0, 100%, 60%)" />
<rect x="59" y="22" width="1" height="1" fill="hsl(0, 100%, 60%)" />
<rect x="60" y="22" width="1" height="1" fill="hsl(0, 100%, 60%)" />
<rect x="37" y="23" width="1" height="1" fill="hsl(0, 100%, 60%)" />
<rect x="45" y="23" width="1" height="1" fill="hsl(0, 100%, 60%)" />
<rect x="47" y="23" width="1" height="1" fill="hsl(0, 100%, 60%)" />
<rect x="48" y="23" width="1" height="1" fill="hsl(0, 100%, 60%)" />
<rect x="54" y="23" width="1" height="1" fill="hsl(0, 100%, 60%)" />
<rect x="55" y="23" width="1" height="1" fill="hsl(0, 100%, 60%)" />
<rect x="56" y="23" width="1" height="1" fill="hsl(0, 100%, 60%)" />
<rect x="57" y="23" width="1" height="1" fill="hsl(0, 100%, 60%)" />
<rect x="58" y="23" width="1" height="1" fill="hsl(0, 100%, 60%)" />
<rect x="59" y="23" width="1" height="1" fill="hsl(0, 100%, 60%)" />
<rect x="38" y="24" width="1" height="1" fill="hsl(0, 100%, 60%)" />
<rect x="47" y="24" width="1" height="1" fill="hsl(0, 100%, 60%)" />
<rect x="48" y="24" width="1" height="1" fill="hsl(0, 100%, 60%)" />
<rect x="55" y="24" width="1" height="1" fill="hsl(0, 100%, 60%)" />
<rect x="39" y="25" width="1" height="1" fill="hsl(0, 100%, 60%)" />
<rect x="43" y="25" width="1" height="1" fill="hsl(0, 100%, 60%)" />
<rect x="44" y="25" width="1" height="1" fill="hsl(0, 100%, 60%)" />
<rect x="45" y="25" width="1" height="1" fill="hsl(0, 100%, 60%)" />
<rect x="46" y="25" width="1" height="1" fill="hsl(0, 100%, 60%)" />
<rect x="44" y="26" width="1" height="1" fill="hsl(0, 100%, 60%)" />
<rect x="45" y="26" width="1" height="1" fill="hsl(0, 100%, 60%)" />
<rect x="46" y="26" width="1" height="1" fill="hsl(0, 100%, 60%)" />
<rect x="28" y="27" width="1" height="1" fill="hsl(0, 100%, 60%)" />
<rect x="30" y="27" width="1" height="1" fill="hsl(0, 100%, 60%)" />
<rect x="40" y="27" width="1" height="1" fill="hsl(0, 100%, 60%)" />
<rect x="41" y="27" width="1" height="1" fill="hsl(0, 100%, 60%)" />
<rect x="28" y="28" width="1" height="1" fill="hsl(0, 100%, 60%)" />
<rect x="30" y="28" width="1" height="1" fill="hsl(0, 100%, 60%)" />
<rect x="32" y="28" width="1" height="1" fill="hsl(0, 100%, 60%)" />
<rect x="39" y="28" width="1" height="1" fill="hsl(0, 100%, 60%)" />
<rect x="41" y="28" width="1" height="1" fill="hsl(0, 100%, 60%)" />
<rect x="27" y="29" width="1" height="1" fill="hsl(0, 100%, 60%)" />
<rect x="30" y="29" width="1" height="1" fill="hsl(0, 100%, 60%)" />
<rect x="31" y="29" width="1" height="1" fill="hsl(0, 100%, 60%)" />
<rect x="33" y="29" width="1" height="1" fill="hsl(0, 100%, 60%)" />
<rect x="38" y="29" width="1" height="1" fill="hsl(0, 100%, 60%)" />
<rect x="39" y="29" width="1" height="1" fill="hsl(0, 100%, 60%)" />
<rect x="28" y="30" width="1" height="1" fill="hsl(0, 100%, 60%)" />
<rect x="29" y="30" width="1" height="1" fill="hsl(0, 100%, 60%)" />
<rect x="33" y="30" width="1" height="1" fill="hsl(0, 100%, 60%)" />
<rect x="35" y="30" width="1" height="1" fill="hsl(0, 100%, 60%)" />
<rect x="37" y="30" width="1" height="1" fill="hsl(0, 100%, 60%)" />
<rect x="38" y="30" width="1" height="1" fill="hsl(0, 100%, 60%)" />
<rect x="40" y="30" width="1" height="1" fill="hsl(0, 100%, 60%)" />
<rect x="28" y="31" width="1" height="1" fill="hsl(0, 100%, 60%)" />
<rect x="29" y="31" width="1" height="1" fill="hsl(0, 100%, 60%)" />
<rect x="33" y="31" width="1" height="1" fill="hsl(0, 100%, 60%)" />
<rect x="34" y="31" width="1" height="1" fill="hsl(0, 100%, 60%)" />
<rect x="36" y="31" width="1" height="1" fill="hsl(0, 100%, 60%)" />
<rect x="37" y="31" width="1" height="1" fill="hsl(0, 100%, 60%)" />
<rect x="38" y="31" width="1" height="1" fill="hsl(0, 100%, 60%)" />
<rect x="39" y="31" width="1" height="1" fill="hsl(0, 100%, 60%)" />
<rect x="40" y="31" width="1" height="1" fill="hsl(0, 100%, 60%)" />
<rect x="32" y="32" width="1" height="1" fill="hsl(0, 100%, 60%)" />
<rect x="34" y="32" width="1" height="1" fill="hsl(0, 100%, 60%)" />
<rect x="35" y="32" width="1" height="1" fill="hsl(0, 100%, 60%)" />
<rect x="39" y="32" width="1" height="1" fill="hsl(0, 100%, 60%)" />
<rect x="40" y="32" width="1" height="1" fill="hsl(0, 100%, 60%)" />
<rect x="31" y="33" width="1" height="1" fill="hsl(0, 100%, 60%)" />
<rect x="33" y="33" width="1" height="1" fill="hsl(0, 100%, 60%)" />
<rect x="6" y="34" width="1" height="1" fill="hsl(0, 100%, 60%)" />
<rect x="7" y="34" width="1" height="1" fill="hsl(0, 100%, 60%)" />
<rect x="9" y="34" width="1" height="1" fill="hsl(0, 100%, 60%)" />
<rect x="5" y="35" width="1" height="1" fill="hsl(0, 100%, 60%)" />
<rect x="6" y="35" width="1" height="1" fill="hsl(0, 100%, 60%)" />
<rect x="7" y="35" width="1" height="1" fill="hsl(0, 100%, 60%)" />
<rect x="9" y="35" width="1" height="1" fill="hsl(0, 100%, 60%)" />
<rect x="16" y="35" width="1" height="1" fill="hsl(0, 100%, 60%)" />
<rect x="18" y="35" width="1" height="1" fill="hsl(0, 100%, 60%)" />
<rect x="4" y="36" width="1" height="1" fill="hsl(0, 100%, 60%)" />
<rect x="9" y="36" width="1" height="1" fill="hsl(0, 100%, 60%)" />
<rect x="11" y="36" width="1" height="1" fill="hsl(0, 100%, 60%)" />
<rect x="16" y="36" width="1" height="1" fill="hsl(0, 100%, 60%)" />
<rect x="5" y="37" width="1" height="1" fill="hsl(0, 100%, 60%)" />
<rect x="6" y="37" width="1" height="1" fill="hsl(0, 100%, 60%)" />
<rect x="13" y="37" width="1" height="1" fill="hsl(0, 100%, 60%)" />
<rect x="15" y="37" width="1" height="1" fill="hsl(0, 100%, 60%)" />
<rect x="19" y="37" width="1" height="1" fill="hsl(0, 100%, 60%)" />
<rect x="6" y="38" width="1" height="1" fill="hsl(0, 100%, 60%)" />
<rect x="10" y="38" width="1" height="1" fill="hsl(0, 100%, 60%)" />
<rect x="13" y="38" width="1" height="1" fill="hsl(0, 100%, 60%)" />
<rect x="16" y="38" width="1" height="1" fill="hsl(0, 100%, 60%)" />
<rect x="17" y="38" width="1" height="1" fill="hsl(0, 100%, 60%)" />
<rect x="29" y="38" width="1" height="1" fill="hsl(0, 100%, 60%)" />
<rect x="9" y="39" width="1" height="1" fill="hsl(0, 100%, 60%)" />
<rect x="11" y="39" width="1" height="1" fill="hsl(0, 100%, 60%)" />
<rect x="12" y="39" width="1" height="1" fill="hsl(0, 100%, 60%)" />
<rect x="16" y="39" width="1" height="1" fill="hsl(0, 100%, 60%)" />
<rect x="28" y="39" width="1" height="1" fill="hsl(0, 100%, 60%)" />
<rect x="29" y="39" width="1" height="1" fill="hsl(0, 100%, 60%)" />
<rect x="30" y="39" width="1" height="1" fill="hsl(0, 100%, 60%)" />
<rect x="8" y="40" width="1" height="1" fill="hsl(0, 100%, 60%)" />
<rect x="10" y="40" width="1" height="1" fill="hsl(0, 100%, 60%)" />
<rect x="28" y="40" width="1" height="1" fill="hsl(0, 100%, 60%)" />
<rect x="31" y="40" width="1" height="1" fill="hsl(0, 100%, 60%)" />
<rect x="8" y="41" width="1" height="1" fill="hsl(0, 100%, 60%)" />
<rect x="10" y="41" width="1" height="1" fill="hsl(0, 100%, 60%)" />
<rect x="27" y="41" width="1" height="1" fill="hsl(0, 100%, 60%)" />
<rect x="32" y="41" width="1" height="1" fill="hsl(0, 100%, 60%)" />
<rect x="28" y="42" width="1" height="1" fill="hsl(0, 100%, 60%)" />
<rect x="28" y="44" width="1" height="1" fill="hsl(0, 100%, 60%)" />
<rect x="31" y="44" width="1" height="1" fill="hsl(0, 100%, 60%)" />
<rect x="29" y="45" width="1" height="1" fill="hsl(0, 100%, 60%)" />
<rect x="31" y="45" width="1" height="1" fill="hsl(0, 100%, 60%)" />
<rect x="25" y="47" width="1" height="1" fill="hsl(0, 100%, 60%)" />
<rect x="24" y="48" width="1" height="1" fill="hsl(0, 100%, 60%)" />
<rect x="25" y="48" width="1" height="1" fill="hsl(0, 100%, 60%)" />
<rect x="26" y="48" width="1" height="1" fill="hsl(0, 100%, 60%)" />
<rect x="23" y="49" width="1" height="1" fill="hsl(0, 100%, 60%)" />
<rect x="24" y="49" width="1" height="1" fill="hsl(0, 100%, 60%)" />
<rect x="26" y="49" width="1" height="1" fill="hsl(0, 100%, 60%)" />
<rect x="27" y="49" width="1" height="1" fill="hsl(0, 100%, 60%)" />
<rect x="13" y="50" width="1" height="1" fill="hsl(0, 100%, 60%)" />
<rect x="22" y="50" width="1" height="1" fill="hsl(0, 100%, 60%)" />
<rect x="23" y="50" width="1" height="1" fill="hsl(0, 100%, 60%)" />
<rect x="25" y="50" width="1" height="1" fill="hsl(0, 100%, 60%)" />
<rect x="31" y="50" width="1" height="1" fill="hsl(0, 100%, 60%)" />
<rect x="8" y="51" width="1" height="1" fill="hsl(0, 100%, 60%)" />
<rect x="12" y="51" width="1" height="1" fill="hsl(0, 100%, 60%)" />
<rect x="13" y="51" width="1" height="1" fill="hsl(0, 100%, 60%)" />
<rect x="14" y="51" width="1" height="1" fill="hsl(0, 100%, 60%)" />
<rect x="15" y="51" width="1" height="1" fill="hsl(0, 100%, 60%)" />
<rect x="16" y="51" width="1" height="1" fill="hsl(0, 100%, 60%)" />
<rect x="21" y="51" width="1" height="1" fill="hsl(0, 100%, 60%)" />
<rect x="22" y="51" width="1" height="1" fill="hsl(0, 100%, 60%)" />
<rect x="29" y="51" width="1" height="1" fill="hsl(0, 100%, 60%)" />
<rect x="30" y="51" width="1" height="1" fill="hsl(0, 100%, 60%)" />
<rect x="7" y="52" width="1" height="1" fill="hsl(0, 100%, 60%)" />
<rect x="9" y="52" width="1" height="1" fill="hsl(0, 100%, 60%)" />
<rect x="17" y="52" width="1" height="1" fill="hsl(0, 100%, 60%)" />
<rect x="18" y="52" width="1" height="1" fill="hsl(0, 100%, 60%)" />
<rect x="21" y="52" width="1" height="1" fill="hsl(0, 100%, 60%)" />
<rect x="22" y="52" width="1" height="1" fill="hsl(0, 100%, 60%)" />
<rect x="30" y="52" width="1" height="1" fill="hsl(0, 100%, 60%)" />
<rect x="31" y="52" width="1" height="1" fill="hsl(0, 100%, 60%)" />
<rect x="7" y="53" width="1" height="1" fill="hsl(0, 100%, 60%)" />
<rect x="15" y="53" width="1" height="1" fill="hsl(0, 100%, 60%)" />
<rect x="17" y="53" width="1" height="1" fill="hsl(0, 100%, 60%)" />
<rect x="18" y="53" width="1" height="1" fill="hsl(0, 100%, 60%)" />
<rect x="8" y="54" width="1" height="1" fill="hsl(0, 100%, 60%)" />
<rect x="17" y="54" width="1" height="1" fill="hsl(0, 100%, 60%)" />
<rect x="18" y="54" width="1" height="1" fill="hsl(0, 100%, 60%)" />
<rect x="9" y="55" width="1" height="1" fill="hsl(0, 100%, 60%)" />
<rect x="13" y="55" width="1" height="1" fill="hsl(0, 100%, 60%)" />
<rect x="14" y="55" width="1" height="1" fill="hsl(0, 100%, 60%)" />
<rect x="15" y="55" width="1" height="1" fill="hsl(0, 100%, 60%)" />
<rect x="16" y="55" width="1" height="1" fill="hsl(0, 100%, 60%)" />
<rect x="14" y="56" width="1" height="1" fill="hsl(0, 100%, 60%)" />
<rect x="15" y="56" width="1" height="1" fill="hsl(0, 100%, 60%)" />
<rect x="16" y="56" width="1" height="1" fill="hsl(0, 100%, 60%)" />
<rect x="15" y="60" width="1" height="1" fill="hsl(0, 100%, 60%)" />
<rect x="16" y="60" width="1" height="1" fill="hsl(0, 100%, 60%)" />
<rect x="15" y="61" width="1" height="1" fill="hsl(0, 100%, 60%)" />
<rect x="16" y="61" width="1" height="1" fill="hsl(0, 100%, 60%)" />
</svg>