<?xml version="1.0" encoding="utf-8"?>
<svg xmlns="http://www.w3.org/2000/svg" width="120" height="57" viewBox="0 0 120 57">
<rect width="100%" height="100%" fill="transparent" />
<rect x="11" y="4" width="7" height="7" fill="hsl(0, 100%, 60%)" />
<rect x="18" y="4" width="7" height="7" fill="hsl(0, 100%, 60%)" />
<rect x="25" y="4" width="7" height="7" fill="hsl(0, 100%, 60%)" />
<rect x="32" y="4" width="7" height="7" fill="hsl(0, 100%, 60%)" />
<rect x="74" y="4" width="7" height="7" fill="hsl(0, 100%, 60%)" />
<rect x="81" y="4" width="7" height="7" fill="hsl(0, 100%, 60%)" />
<rect x="4" y="11" width="7" height="7" fill="hsl(0, 100%, 60%)" />
<rect x="32" y="11" width="7" height="7" fill="hsl(0, 100%, 60%)" />
<rect x="81" y="11" width="7" height="7" fill="hsl(0, 100%, 60%)" />
<rect x="88" y="11" width="7" height="7" fill="hsl(0, 100%, 60%)" />
<rect x="102" y="11" width="7" height="7" fill="hsl(0, 100%, 60%)" />
<rect x="109" y="11" width="7" height="7" fill="hsl(0, 100%, 60%)" />
<rect x="32" y="18" width="7" height="7" fill="hsl(0, 100%, 60%)" />
<rect x="81" y="18" width="7" height="7" fill="hsl(0, 100%, 60%)" />
<rect x="102" y="18" width="7" height="7" fill="hsl(0, 100%, 60%)" />
<rect x="109" y="18" width="7" height="7" fill="hsl(0, 100%, 60%)" />
<rect x="4" y="25" width="7" height="7" fill="hsl(0, 100%, 60%)" />
<rect x="25" y="25" width="7" height="7" fill="hsl(0, 100%, 60%)" />
<rect x="95" y="39" width="7" height="7" fill="hsl(0, 100%, 60%)" />
<rect x="102" y="39" width="7" height="7" fill="hsl(0, 100%, 60%)" />
<rect x="95" y="46" width="7" height="7" fill="hsl(0, 100%, 60%)" />
<rect x="102" y="46" width="7" height="7" fill="hsl(0, 100%, 60%)" />
</svg>