<?xml version="1.0" encoding="utf-8"?>
<svg xmlns="http://www.w3.org/2000/svg" width="123" height="123" viewBox="0 0 123 123">
<rect width="100%" height="100%" fill="transparent" />
<rect x="14" y="4" width="5" height="5" fill="hsl(0, 100%, 60%)" />
<rect x="4" y="9" width="5" height="5" fill="hsl(0, 100%, 60%)" />
<rect x="14" y="9" width="5" height="5" fill="hsl(0, 100%, 60%)" />
<rect x="9" y="14" width="5" height="5" fill="hsl(0, 100%, 60%)" />
<rect x="14" y="14" width="5" height="5" fill="hsl(0, 100%, 60%)" />
<rect x="39" y="29" width="5" height="5" fill="hsl(0, 100%, 60%)" />
<rect x="29" y="34" width="5" height="5" fill="hsl(0, 100%, 60%)" />
<rect x="39" y="34" width="5" height="5" fill="hsl(0, 100%, 60%)" />
<rect x="34" y="39" width="5" height="5" fill="hsl(0, 100%, 60%)" />
<rect x="39" y="39" width="5" height="5" fill="hsl(0, 100%, 60%)" />
<rect x="109" y="44" width="5" height="5" fill="hsl(0, 100%, 60%)" />
<rect x="104" y="49" width="5" height="5" fill="hsl(0, 100%, 60%)" />
<rect x="104" y="54" width="5" height="5" fill="hsl(0, 100%, 60%)" />
<rect x="109" y="54" width="5" height="5" fill="hsl(0, 100%, 60%)" />
<rect x="114" y="54" width="5" height="5" fill="hsl(0, 100%, 60%)" />
<rect x="84" y="69" width="5" height="5" fill="hsl(0, 100%, 60%)" />
<rect x="79" y="74" width="5" height="5" fill="hsl(0, 100%, 60%)" />
<rect x="79" y="79" width="5" height="5" fill="hsl(0, 100%, 60%)" />
<rect x="84" y="79" width="5" height="5" fill="hsl(0, 100%, 60%)" />
<rect x="89" y="79" width="5" height="5" fill="hsl(0, 100%, 60%)" />
<rect x="104" y="89" width="5" height="5" fill="hsl(0, 100%, 60%)" />
<rect x="109" y="89" width="5" height="5" fill="hsl(0, 100%, 60%)" />
<rect x="84" y="94" width="5" height="5" fill="hsl(0, 100%, 60%)" />
<rect x="104" y="94" width="5" height="5" fill="hsl(0, 100%, 60%)" />
<rect x="109" y="94" width="5" height="5" fill="hsl(0, 100%, 60%)" />
<rect x="79" y="99" width="5" height="5" fill="hsl(0, 100%, 60%)" />
<rect x="89" y="99" width="5" height="5" fill="hsl(0, 100%, 60%)" />
<rect x="74" y="104" width="5" height="5" fill="hsl(0, 100%, 60%)" />
<rect x="84" y="104" width="5" height="5" fill="hsl(0, 100%, 60%)" />
<rect x="74" y="109" width="5" height="5" fill="hsl(0, 100%, 60%)" />
<rect x="69" y="114" width="5" height="5" fill="hsl(0, 100%, 60%)" />
<rect x="74" y="114" width="5" height="5" fill="hsl(0, 100%, 60%)" />
</svg>