<?xml version="1.0" encoding="utf-8"?>
<svg xmlns="http://www.w3.org/2000/svg" width="98" height="122" viewBox="0 0 98 122">
<rect width="100%" height="100%" fill="transparent" />
<rect x="10" y="4" width="6" height="6" fill="hsl(0, 100%, 60%)" />
<rect x="16" y="10" width="6" height="6" fill="hsl(0, 100%, 60%)" />
<rect x="4" y="16" width="6" height="6" fill="hsl(0, 100%, 60%)" />
<rect x="10" y="16" width="6" height="6" fill="hsl(0, 100%, 60%)" />
<rect x="16" y="16" width="6" height="6" fill="hsl(0, 100%, 60%)" />
<rect x="40" y="22" width="6" height="6" fill="hsl(0, 100%, 60%)" />
<rect x="46" y="22" width="6" height="6" fill="hsl(0, 100%, 60%)" />
<rect x="58" y="22" width="6" height="6" fill="hsl(0, 100%, 60%)" />
<rect x="64" y="22" width="6" height="6" fill="hsl(0, 100%, 60%)" />
<rect x="76" y="22" width="6" height="6" fill="hsl(0, 100%, 60%)" />
<rect x="46" y="28" width="6" height="6" fill="hsl(0, 100%, 60%)" />
<rect x="58" y="28" width="6" height="6" fill="hsl(0, 100%, 60%)" />
<rect x="70" y="28" width="6" height="6" fill="hsl(0, 100%, 60%)" />
<rect x="76" y="28" width="6" height="6" fill="hsl(0, 100%, 60%)" />
<rect x="46" y="34" width="6" height="6" fill="hsl(0, 100%, 60%)" />
<rect x="58" y="34" width="6" height="6" fill="hsl(0, 100%, 60%)" />
<rect x="52" y="40" width="6" height="6" fill="hsl(0, 100%, 60%)" />
<rect x="58" y="40" width="6" height="6" fill="hsl(0, 100%, 60%)" />
<rect x="4" y="46" width="6" height="6" fill="hsl(0, 100%, 60%)" />
<rect x="10" y="46" width="6" height="6" fill="hsl(0, 100%, 60%)" />
<rect x="4" y="52" width="6" height="6" fill="hsl(0, 100%, 60%)" />
<rect x="22" y="52" width="6" height="6" fill="hsl(0, 100%, 60%)" />
<rect x="34" y="52" width="6" height="6" fill="hsl(0, 100%, 60%)" />
<rect x="40" y="52" width="6" height="6" fill="hsl(0, 100%, 60%)" />
<rect x="16" y="58" width="6" height="6" fill="hsl(0, 100%, 60%)" />
<rect x="22" y="58" width="6" height="6" fill="hsl(0, 100%, 60%)" />
<rect x="34" y="58" width="6" height="6" fill="hsl(0, 100%, 60%)" />
<rect x="22" y="64" width="6" height="6" fill="hsl(0, 100%, 60%)" />
<rect x="34" y="64" width="6" height="6" fill="hsl(0, 100%, 60%)" />
<rect x="70" y="64" width="6" height="6" fill="hsl(0, 100%, 60%)" />
<rect x="76" y="64" width="6" height="6" fill="hsl(0, 100%, 60%)" />
<rect x="88" y="64" width="6" height="6" fill="hsl(0, 100%, 60%)" />
<rect x="16" y="70" width="6" height="6" fill="hsl(0, 100%, 60%)" />
<rect x="34" y="70" width="6" height="6" fill="hsl(0, 100%, 60%)" />
<rect x="40" y="70" width="6" height="6" fill="hsl(0, 100%, 60%)" />
<rect x="46" y="70" width="6" height="6" fill="hsl(0, 100%, 60%)" />
<rect x="70" y="70" width="6" height="6" fill="hsl(0, 100%, 60%)" />
<rect x="82" y="70" width="6" height="6" fill="hsl(0, 100%, 60%)" />
<rect x="88" y="70" width="6" height="6" fill="hsl(0, 100%, 60%)" />
<rect x="22" y="76" width="6" height="6" fill="hsl(0, 100%, 60%)" />
<rect x="28" y="76" width="6" height="6" fill="hsl(0, 100%, 60%)" />
<rect x="52" y="76" width="6" height="6" fill="hsl(0, 100%, 60%)" />
<rect x="34" y="82" width="6" height="6" fill="hsl(0, 100%, 60%)" />
<rect x="40" y="82" width="6" height="6" fill="hsl(0, 100%, 60%)" />
<rect x="46" y="82" width="6" height="6" fill="hsl(0, 100%, 60%)" />
<rect x="52" y="82" width="6" height="6" fill="hsl(0, 100%, 60%)" />
<rect x="34" y="88" width="6" height="6" fill="hsl(0, 100%, 60%)" />
<rect x="22" y="94" width="6" height="6" fill="hsl(0, 100%, 60%)" />
<rect x="34" y="94" width="6" height="6" fill="hsl(0, 100%, 60%)" />
<rect x="46" y="94" width="6" height="6" fill="hsl(0, 100%, 60%)" />
<rect x="52" y="94" width="6" height="6" fill="hsl(0, 100%, 60%)" />
<rect x="22" y="100" width="6" height="6" fill="hsl(0, 100%, 60%)" />
<rect x="28" y="100" width="6" height="6" fill="hsl(0, 100%, 60%)" />
<rect x="46" y="100" width="6" height="6" fill="hsl(0, 100%, 60%)" />
<rect x="46" y="106" width="6" height="6" fill="hsl(0, 100%, 60%)" />
<rect x="58" y="106" width="6" height="6" fill="hsl(0, 100%, 60%)" />
<rect x="52" y="112" width="6" height="6" fill="hsl(0, 100%, 60%)" />
<rect x="58" y="112" width="6" height="6" fill="hsl(0, 100%, 60%)" />
</svg>