<?xml version="1.0" encoding="utf-8"?>
<svg xmlns="http://www.w3.org/2000/svg" width="107" height="59" viewBox="0 0 107 59">
<rect width="100%" height="100%" fill="transparent" />
<rect x="7" y="4" width="3" height="3" fill="hsl(0, 100%, 60%)" />
<rect x="37" y="4" width="3" height="3" fill="hsl(0, 100%, 60%)" />
<rect x="67" y="4" width="3" height="3" fill="hsl(0, 100%, 60%)" />
<rect x="10" y="7" width="3" height="3" fill="hsl(0, 100%, 60%)" />
<rect x="40" y="7" width="3" height="3" fill="hsl(0, 100%, 60%)" />
<rect x="70" y="7" width="3" height="3" fill="hsl(0, 100%, 60%)" />
<rect x="4" y="10" width="3" height="3" fill="hsl(0, 100%, 60%)" />
<rect x="7" y="10" width="3" height="3" fill="hsl(0, 100%, 60%)" />
<rect x="10" y="10" width="3" height="3" fill="hsl(0, 100%, 60%)" />
<rect x="34" y="10" width="3" height="3" fill="hsl(0, 100%, 60%)" />
<rect x="37" y="10" width="3" height="3" fill="hsl(0, 100%, 60%)" />
<rect x="40" y="10" width="3" height="3" fill="hsl(0, 100%, 60%)" />
<rect x="64" y="10" width="3" height="3" fill="hsl(0, 100%, 60%)" />
<rect x="67" y="10" width="3" height="3" fill="hsl(0, 100%, 60%)" />
<rect x="70" y="10" width="3" height="3" fill="hsl(0, 100%, 60%)" />
<rect x="22" y="16" width="3" height="3" fill="hsl(0, 100%, 60%)" />
<rect x="52" y="16" width="3" height="3" fill="hsl(0, 100%, 60%)" />
<rect x="82" y="16" width="3" height="3" fill="hsl(0, 100%, 60%)" />
<rect x="19" y="19" width="3" height="3" fill="hsl(0, 100%, 60%)" />
<rect x="49" y="19" width="3" height="3" fill="hsl(0, 100%, 60%)" />
<rect x="79" y="19" width="3" height="3" fill="hsl(0, 100%, 60%)" />
<rect x="19" y="22" width="3" height="3" fill="hsl(0, 100%, 60%)" />
<rect x="22" y="22" width="3" height="3" fill="hsl(0, 100%, 60%)" />
<rect x="25" y="22" width="3" height="3" fill="hsl(0, 100%, 60%)" />
<rect x="49" y="22" width="3" height="3" fill="hsl(0, 100%, 60%)" />
<rect x="52" y="22" width="3" height="3" fill="hsl(0, 100%, 60%)" />
<rect x="55" y="22" width="3" height="3" fill="hsl(0, 100%, 60%)" />
<rect x="79" y="22" width="3" height="3" fill="hsl(0, 100%, 60%)" />
<rect x="82" y="22" width="3" height="3" fill="hsl(0, 100%, 60%)" />
<rect x="85" y="22" width="3" height="3" fill="hsl(0, 100%, 60%)" />
<rect x="34" y="28" width="3" height="3" fill="hsl(0, 100%, 60%)" />
<rect x="37" y="28" width="3" height="3" fill="hsl(0, 100%, 60%)" />
<rect x="22" y="31" width="3" height="3" fill="hsl(0, 100%, 60%)" />
<rect x="34" y="31" width="3" height="3" fill="hsl(0, 100%, 60%)" />
<rect x="37" y="31" width="3" height="3" fill="hsl(0, 100%, 60%)" />
<rect x="52" y="31" width="3" height="3" fill="hsl(0, 100%, 60%)" />
<rect x="64" y="31" width="3" height="3" fill="hsl(0, 100%, 60%)" />
<rect x="67" y="31" width="3" height="3" fill="hsl(0, 100%, 60%)" />
<rect x="82" y="31" width="3" height="3" fill="hsl(0, 100%, 60%)" />
<rect x="94" y="31" width="3" height="3" fill="hsl(0, 100%, 60%)" />
<rect x="97" y="31" width="3" height="3" fill="hsl(0, 100%, 60%)" />
<rect x="19" y="34" width="3" height="3" fill="hsl(0, 100%, 60%)" />
<rect x="25" y="34" width="3" height="3" fill="hsl(0, 100%, 60%)" />
<rect x="49" y="34" width="3" height="3" fill="hsl(0, 100%, 60%)" />
<rect x="55" y="34" width="3" height="3" fill="hsl(0, 100%, 60%)" />
<rect x="67" y="34" width="3" height="3" fill="hsl(0, 100%, 60%)" />
<rect x="79" y="34" width="3" height="3" fill="hsl(0, 100%, 60%)" />
<rect x="85" y="34" width="3" height="3" fill="hsl(0, 100%, 60%)" />
<rect x="97" y="34" width="3" height="3" fill="hsl(0, 100%, 60%)" />
<rect x="16" y="37" width="3" height="3" fill="hsl(0, 100%, 60%)" />
<rect x="22" y="37" width="3" height="3" fill="hsl(0, 100%, 60%)" />
<rect x="46" y="37" width="3" height="3" fill="hsl(0, 100%, 60%)" />
<rect x="52" y="37" width="3" height="3" fill="hsl(0, 100%, 60%)" />
<rect x="64" y="37" width="3" height="3" fill="hsl(0, 100%, 60%)" />
<rect x="79" y="37" width="3" height="3" fill="hsl(0, 100%, 60%)" />
<rect x="82" y="37" width="3" height="3" fill="hsl(0, 100%, 60%)" />
<rect x="94" y="37" width="3" height="3" fill="hsl(0, 100%, 60%)" />
<rect x="16" y="40" width="3" height="3" fill="hsl(0, 100%, 60%)" />
<rect x="46" y="40" width="3" height="3" fill="hsl(0, 100%, 60%)" />
<rect x="61" y="40" width="3" height="3" fill="hsl(0, 100%, 60%)" />
<rect x="91" y="40" width="3" height="3" fill="hsl(0, 100%, 60%)" />
<rect x="13" y="43" width="3" height="3" fill="hsl(0, 100%, 60%)" />
<rect x="16" y="43" width="3" height="3" fill="hsl(0, 100%, 60%)" />
<rect x="43" y="43" width="3" height="3" fill="hsl(0, 100%, 60%)" />
<rect x="46" y="43" width="3" height="3" fill="hsl(0, 100%, 60%)" />
<rect x="64" y="43" width="3" height="3" fill="hsl(0, 100%, 60%)" />
<rect x="67" y="43" width="3" height="3" fill="hsl(0, 100%, 60%)" />
<rect x="70" y="43" width="3" height="3" fill="hsl(0, 100%, 60%)" />
<rect x="79" y="43" width="3" height="3" fill="hsl(0, 100%, 60%)" />
<rect x="82" y="43" width="3" height="3" fill="hsl(0, 100%, 60%)" />
<rect x="85" y="43" width="3" height="3" fill="hsl(0, 100%, 60%)" />
<rect x="88" y="43" width="3" height="3" fill="hsl(0, 100%, 60%)" />
<rect x="91" y="43" width="3" height="3" fill="hsl(0, 100%, 60%)" />
<rect x="97" y="43" width="3" height="3" fill="hsl(0, 100%, 60%)" />
<rect x="70" y="46" width="3" height="3" fill="hsl(0, 100%, 60%)" />
<rect x="79" y="46" width="3" height="3" fill="hsl(0, 100%, 60%)" />
<rect x="94" y="46" width="3" height="3" fill="hsl(0, 100%, 60%)" />
<rect x="100" y="46" width="3" height="3" fill="hsl(0, 100%, 60%)" />
<rect x="85" y="49" width="3" height="3" fill="hsl(0, 100%, 60%)" />
<rect x="94" y="49" width="3" height="3" fill="hsl(0, 100%, 60%)" />
<rect x="100" y="49" width="3" height="3" fill="hsl(0, 100%, 60%)" />
<rect x="82" y="52" width="3" height="3" fill="hsl(0, 100%, 60%)" />
<rect x="85" y="52" width="3" height="3" fill="hsl(0, 100%, 60%)" />
<rect x="97" y="52" width="3" height="3" fill="hsl(0, 100%, 60%)" />
</svg>