<?xml version="1.0" encoding="utf-8"?>
<svg xmlns="http://www.w3.org/2000/svg" width="120" height="70" viewBox="0 0 120 70">
<rect width="100%" height="100%" fill="transparent" />
<rect x="70" y="4" width="2" height="2" fill="hsl(0, 100%, 60%)" />
<rect x="72" y="4" width="2" height="2" fill="hsl(0, 100%, 60%)" />
<rect x="72" y="6" width="2" height="2" fill="hsl(0, 100%, 60%)" />
<rect x="70" y="8" width="2" height="2" fill="hsl(0, 100%, 60%)" />
<rect x="70" y="10" width="2" height="2" fill="hsl(0, 100%, 60%)" />
<rect x="72" y="10" width="2" height="2" fill="hsl(0, 100%, 60%)" />
<rect x="6" y="16" width="2" height="2" fill="hsl(0, 100%, 60%)" />
<rect x="8" y="16" width="2" height="2" fill="hsl(0, 100%, 60%)" />
<rect x="4" y="18" width="2" height="2" fill="hsl(0, 100%, 60%)" />
<rect x="6" y="18" width="2" height="2" fill="hsl(0, 100%, 60%)" />
<rect x="8" y="18" width="2" height="2" fill="hsl(0, 100%, 60%)" />
<rect x="12" y="18" width="2" height="2" fill="hsl(0, 100%, 60%)" />
<rect x="14" y="18" width="2" height="2" fill="hsl(0, 100%, 60%)" />
<rect x="6" y="20" width="2" height="2" fill="hsl(0, 100%, 60%)" />
<rect x="8" y="20" width="2" height="2" fill="hsl(0, 100%, 60%)" />
<rect x="12" y="20" width="2" height="2" fill="hsl(0, 100%, 60%)" />
<rect x="14" y="20" width="2" height="2" fill="hsl(0, 100%, 60%)" />
<rect x="16" y="20" width="2" height="2" fill="hsl(0, 100%, 60%)" />
<rect x="20" y="20" width="2" height="2" fill="hsl(0, 100%, 60%)" />
<rect x="22" y="20" width="2" height="2" fill="hsl(0, 100%, 60%)" />
<rect x="4" y="22" width="2" height="2" fill="hsl(0, 100%, 60%)" />
<rect x="6" y="22" width="2" height="2" fill="hsl(0, 100%, 60%)" />
<rect x="8" y="22" width="2" height="2" fill="hsl(0, 100%, 60%)" />
<rect x="12" y="22" width="2" height="2" fill="hsl(0, 100%, 60%)" />
<rect x="14" y="22" width="2" height="2" fill="hsl(0, 100%, 60%)" />
<rect x="20" y="22" width="2" height="2" fill="hsl(0, 100%, 60%)" />
<rect x="22" y="22" width="2" height="2" fill="hsl(0, 100%, 60%)" />
<rect x="76" y="22" width="2" height="2" fill="hsl(0, 100%, 60%)" />
<rect x="78" y="22" width="2" height="2" fill="hsl(0, 100%, 60%)" />
<rect x="110" y="22" width="2" height="2" fill="hsl(0, 100%, 60%)" />
<rect x="4" y="24" width="2" height="2" fill="hsl(0, 100%, 60%)" />
<rect x="6" y="24" width="2" height="2" fill="hsl(0, 100%, 60%)" />
<rect x="76" y="24" width="2" height="2" fill="hsl(0, 100%, 60%)" />
<rect x="78" y="24" width="2" height="2" fill="hsl(0, 100%, 60%)" />
<rect x="110" y="24" width="2" height="2" fill="hsl(0, 100%, 60%)" />
<rect x="110" y="26" width="2" height="2" fill="hsl(0, 100%, 60%)" />
<rect x="112" y="26" width="2" height="2" fill="hsl(0, 100%, 60%)" />
<rect x="114" y="26" width="2" height="2" fill="hsl(0, 100%, 60%)" />
<rect x="114" y="28" width="2" height="2" fill="hsl(0, 100%, 60%)" />
<rect x="16" y="36" width="2" height="2" fill="hsl(0, 100%, 60%)" />
<rect x="18" y="36" width="2" height="2" fill="hsl(0, 100%, 60%)" />
<rect x="14" y="38" width="2" height="2" fill="hsl(0, 100%, 60%)" />
<rect x="18" y="38" width="2" height="2" fill="hsl(0, 100%, 60%)" />
<rect x="96" y="38" width="2" height="2" fill="hsl(0, 100%, 60%)" />
<rect x="98" y="38" width="2" height="2" fill="hsl(0, 100%, 60%)" />
<rect x="14" y="40" width="2" height="2" fill="hsl(0, 100%, 60%)" />
<rect x="98" y="40" width="2" height="2" fill="hsl(0, 100%, 60%)" />
<rect x="12" y="42" width="2" height="2" fill="hsl(0, 100%, 60%)" />
<rect x="14" y="42" width="2" height="2" fill="hsl(0, 100%, 60%)" />
<rect x="66" y="42" width="2" height="2" fill="hsl(0, 100%, 60%)" />
<rect x="68" y="42" width="2" height="2" fill="hsl(0, 100%, 60%)" />
<rect x="92" y="42" width="2" height="2" fill="hsl(0, 100%, 60%)" />
<rect x="94" y="42" width="2" height="2" fill="hsl(0, 100%, 60%)" />
<rect x="96" y="42" width="2" height="2" fill="hsl(0, 100%, 60%)" />
<rect x="66" y="44" width="2" height="2" fill="hsl(0, 100%, 60%)" />
<rect x="68" y="44" width="2" height="2" fill="hsl(0, 100%, 60%)" />
<rect x="92" y="44" width="2" height="2" fill="hsl(0, 100%, 60%)" />
<rect x="38" y="50" width="2" height="2" fill="hsl(0, 100%, 60%)" />
<rect x="40" y="50" width="2" height="2" fill="hsl(0, 100%, 60%)" />
<rect x="40" y="52" width="2" height="2" fill="hsl(0, 100%, 60%)" />
<rect x="34" y="54" width="2" height="2" fill="hsl(0, 100%, 60%)" />
<rect x="36" y="54" width="2" height="2" fill="hsl(0, 100%, 60%)" />
<rect x="38" y="54" width="2" height="2" fill="hsl(0, 100%, 60%)" />
<rect x="34" y="56" width="2" height="2" fill="hsl(0, 100%, 60%)" />
<rect x="58" y="58" width="2" height="2" fill="hsl(0, 100%, 60%)" />
<rect x="60" y="58" width="2" height="2" fill="hsl(0, 100%, 60%)" />
<rect x="58" y="60" width="2" height="2" fill="hsl(0, 100%, 60%)" />
<rect x="60" y="62" width="2" height="2" fill="hsl(0, 100%, 60%)" />
<rect x="62" y="62" width="2" height="2" fill="hsl(0, 100%, 60%)" />
<rect x="64" y="62" width="2" height="2" fill="hsl(0, 100%, 60%)" />
<rect x="64" y="64" width="2" height="2" fill="hsl(0, 100%, 60%)" />
</svg>