<?xml version="1.0" encoding="utf-8"?>
<svg xmlns="http://www.w3.org/2000/svg" width="123" height="128" viewBox="0 0 123 128">
<rect width="100%" height="100%" fill="transparent" />
<rect x="4" y="4" width="5" height="5" fill="hsl(0, 100%, 60%)" />
<rect x="4" y="9" width="5" height="5" fill="hsl(0, 100%, 60%)" />
<rect x="14" y="9" width="5" height="5" fill="hsl(0, 100%, 60%)" />
<rect x="4" y="14" width="5" height="5" fill="hsl(0, 100%, 60%)" />
<rect x="9" y="14" width="5" height="5" fill="hsl(0, 100%, 60%)" />
<rect x="14" y="14" width="5" height="5" fill="hsl(0, 100%, 60%)" />
<rect x="14" y="19" width="5" height="5" fill="hsl(0, 100%, 60%)" />
<rect x="49" y="79" width="5" height="5" fill="hsl(0, 100%, 60%)" />
<rect x="54" y="79" width="5" height="5" fill="hsl(0, 100%, 60%)" />
<rect x="114" y="79" width="5" height="5" fill="hsl(0, 100%, 60%)" />
<rect x="24" y="84" width="5" height="5" fill="hsl(0, 100%, 60%)" />
<rect x="29" y="84" width="5" height="5" fill="hsl(0, 100%, 60%)" />
<rect x="49" y="84" width="5" height="5" fill="hsl(0, 100%, 60%)" />
<rect x="54" y="84" width="5" height="5" fill="hsl(0, 100%, 60%)" />
<rect x="104" y="84" width="5" height="5" fill="hsl(0, 100%, 60%)" />
<rect x="109" y="84" width="5" height="5" fill="hsl(0, 100%, 60%)" />
<rect x="114" y="84" width="5" height="5" fill="hsl(0, 100%, 60%)" />
<rect x="24" y="89" width="5" height="5" fill="hsl(0, 100%, 60%)" />
<rect x="29" y="89" width="5" height="5" fill="hsl(0, 100%, 60%)" />
<rect x="104" y="89" width="5" height="5" fill="hsl(0, 100%, 60%)" />
<rect x="104" y="94" width="5" height="5" fill="hsl(0, 100%, 60%)" />
<rect x="19" y="104" width="5" height="5" fill="hsl(0, 100%, 60%)" />
<rect x="24" y="104" width="5" height="5" fill="hsl(0, 100%, 60%)" />
<rect x="24" y="109" width="5" height="5" fill="hsl(0, 100%, 60%)" />
<rect x="49" y="109" width="5" height="5" fill="hsl(0, 100%, 60%)" />
<rect x="54" y="109" width="5" height="5" fill="hsl(0, 100%, 60%)" />
<rect x="9" y="114" width="5" height="5" fill="hsl(0, 100%, 60%)" />
<rect x="14" y="114" width="5" height="5" fill="hsl(0, 100%, 60%)" />
<rect x="19" y="114" width="5" height="5" fill="hsl(0, 100%, 60%)" />
<rect x="49" y="114" width="5" height="5" fill="hsl(0, 100%, 60%)" />
<rect x="54" y="114" width="5" height="5" fill="hsl(0, 100%, 60%)" />
<rect x="9" y="119" width="5" height="5" fill="hsl(0, 100%, 60%)" />
</svg>