<?xml version="1.0" encoding="utf-8"?>
<svg xmlns="http://www.w3.org/2000/svg" width="124" height="66" viewBox="0 0 124 66">
<rect width="100%" height="100%" fill="transparent" />
<rect x="68" y="4" width="2" height="2" fill="hsl(0, 100%, 60%)" />
<rect x="72" y="4" width="2" height="2" fill="hsl(0, 100%, 60%)" />
<rect x="68" y="6" width="2" height="2" fill="hsl(0, 100%, 60%)" />
<rect x="70" y="6" width="2" height="2" fill="hsl(0, 100%, 60%)" />
<rect x="70" y="8" width="2" height="2" fill="hsl(0, 100%, 60%)" />
<rect x="36" y="18" width="2" height="2" fill="hsl(0, 100%, 60%)" />
<rect x="38" y="18" width="2" height="2" fill="hsl(0, 100%, 60%)" />
<rect x="36" y="20" width="2" height="2" fill="hsl(0, 100%, 60%)" />
<rect x="38" y="20" width="2" height="2" fill="hsl(0, 100%, 60%)" />
<rect x="80" y="20" width="2" height="2" fill="hsl(0, 100%, 60%)" />
<rect x="58" y="22" width="2" height="2" fill="hsl(0, 100%, 60%)" />
<rect x="62" y="22" width="2" height="2" fill="hsl(0, 100%, 60%)" />
<rect x="76" y="22" width="2" height="2" fill="hsl(0, 100%, 60%)" />
<rect x="78" y="22" width="2" height="2" fill="hsl(0, 100%, 60%)" />
<rect x="80" y="22" width="2" height="2" fill="hsl(0, 100%, 60%)" />
<rect x="58" y="24" width="2" height="2" fill="hsl(0, 100%, 60%)" />
<rect x="60" y="24" width="2" height="2" fill="hsl(0, 100%, 60%)" />
<rect x="74" y="24" width="2" height="2" fill="hsl(0, 100%, 60%)" />
<rect x="60" y="26" width="2" height="2" fill="hsl(0, 100%, 60%)" />
<rect x="74" y="26" width="2" height="2" fill="hsl(0, 100%, 60%)" />
<rect x="76" y="26" width="2" height="2" fill="hsl(0, 100%, 60%)" />
<rect x="4" y="34" width="2" height="2" fill="hsl(0, 100%, 60%)" />
<rect x="6" y="34" width="2" height="2" fill="hsl(0, 100%, 60%)" />
<rect x="4" y="36" width="2" height="2" fill="hsl(0, 100%, 60%)" />
<rect x="6" y="36" width="2" height="2" fill="hsl(0, 100%, 60%)" />
<rect x="80" y="38" width="2" height="2" fill="hsl(0, 100%, 60%)" />
<rect x="82" y="38" width="2" height="2" fill="hsl(0, 100%, 60%)" />
<rect x="114" y="38" width="2" height="2" fill="hsl(0, 100%, 60%)" />
<rect x="26" y="40" width="2" height="2" fill="hsl(0, 100%, 60%)" />
<rect x="28" y="40" width="2" height="2" fill="hsl(0, 100%, 60%)" />
<rect x="80" y="40" width="2" height="2" fill="hsl(0, 100%, 60%)" />
<rect x="82" y="40" width="2" height="2" fill="hsl(0, 100%, 60%)" />
<rect x="114" y="40" width="2" height="2" fill="hsl(0, 100%, 60%)" />
<rect x="26" y="42" width="2" height="2" fill="hsl(0, 100%, 60%)" />
<rect x="28" y="42" width="2" height="2" fill="hsl(0, 100%, 60%)" />
<rect x="114" y="42" width="2" height="2" fill="hsl(0, 100%, 60%)" />
<rect x="116" y="42" width="2" height="2" fill="hsl(0, 100%, 60%)" />
<rect x="118" y="42" width="2" height="2" fill="hsl(0, 100%, 60%)" />
<rect x="50" y="44" width="2" height="2" fill="hsl(0, 100%, 60%)" />
<rect x="52" y="44" width="2" height="2" fill="hsl(0, 100%, 60%)" />
<rect x="118" y="44" width="2" height="2" fill="hsl(0, 100%, 60%)" />
<rect x="20" y="46" width="2" height="2" fill="hsl(0, 100%, 60%)" />
<rect x="42" y="46" width="2" height="2" fill="hsl(0, 100%, 60%)" />
<rect x="44" y="46" width="2" height="2" fill="hsl(0, 100%, 60%)" />
<rect x="50" y="46" width="2" height="2" fill="hsl(0, 100%, 60%)" />
<rect x="52" y="46" width="2" height="2" fill="hsl(0, 100%, 60%)" />
<rect x="16" y="48" width="2" height="2" fill="hsl(0, 100%, 60%)" />
<rect x="18" y="48" width="2" height="2" fill="hsl(0, 100%, 60%)" />
<rect x="20" y="48" width="2" height="2" fill="hsl(0, 100%, 60%)" />
<rect x="42" y="48" width="2" height="2" fill="hsl(0, 100%, 60%)" />
<rect x="44" y="48" width="2" height="2" fill="hsl(0, 100%, 60%)" />
<rect x="14" y="50" width="2" height="2" fill="hsl(0, 100%, 60%)" />
<rect x="14" y="52" width="2" height="2" fill="hsl(0, 100%, 60%)" />
<rect x="16" y="52" width="2" height="2" fill="hsl(0, 100%, 60%)" />
<rect x="66" y="52" width="2" height="2" fill="hsl(0, 100%, 60%)" />
<rect x="68" y="52" width="2" height="2" fill="hsl(0, 100%, 60%)" />
<rect x="38" y="54" width="2" height="2" fill="hsl(0, 100%, 60%)" />
<rect x="40" y="54" width="2" height="2" fill="hsl(0, 100%, 60%)" />
<rect x="66" y="54" width="2" height="2" fill="hsl(0, 100%, 60%)" />
<rect x="38" y="56" width="2" height="2" fill="hsl(0, 100%, 60%)" />
<rect x="40" y="56" width="2" height="2" fill="hsl(0, 100%, 60%)" />
<rect x="54" y="56" width="2" height="2" fill="hsl(0, 100%, 60%)" />
<rect x="68" y="56" width="2" height="2" fill="hsl(0, 100%, 60%)" />
<rect x="70" y="56" width="2" height="2" fill="hsl(0, 100%, 60%)" />
<rect x="72" y="56" width="2" height="2" fill="hsl(0, 100%, 60%)" />
<rect x="52" y="58" width="2" height="2" fill="hsl(0, 100%, 60%)" />
<rect x="56" y="58" width="2" height="2" fill="hsl(0, 100%, 60%)" />
<rect x="72" y="58" width="2" height="2" fill="hsl(0, 100%, 60%)" />
<rect x="54" y="60" width="2" height="2" fill="hsl(0, 100%, 60%)" />
</svg>