<?xml version="1.0" encoding="utf-8"?>
<svg xmlns="http://www.w3.org/2000/svg" width="128" height="122" viewBox="0 0 128 122">
<rect width="100%" height="100%" fill="transparent" />
<rect x="64" y="4" width="6" height="6" fill="hsl(0, 100%, 60%)" />
<rect x="112" y="4" width="6" height="6" fill="hsl(0, 100%, 60%)" />
<rect x="118" y="4" width="6" height="6" fill="hsl(0, 100%, 60%)" />
<rect x="4" y="10" width="6" height="6" fill="hsl(0, 100%, 60%)" />
<rect x="10" y="10" width="6" height="6" fill="hsl(0, 100%, 60%)" />
<rect x="52" y="10" width="6" height="6" fill="hsl(0, 100%, 60%)" />
<rect x="64" y="10" width="6" height="6" fill="hsl(0, 100%, 60%)" />
<rect x="112" y="10" width="6" height="6" fill="hsl(0, 100%, 60%)" />
<rect x="118" y="10" width="6" height="6" fill="hsl(0, 100%, 60%)" />
<rect x="4" y="16" width="6" height="6" fill="hsl(0, 100%, 60%)" />
<rect x="10" y="16" width="6" height="6" fill="hsl(0, 100%, 60%)" />
<rect x="58" y="16" width="6" height="6" fill="hsl(0, 100%, 60%)" />
<rect x="64" y="16" width="6" height="6" fill="hsl(0, 100%, 60%)" />
<rect x="70" y="40" width="6" height="6" fill="hsl(0, 100%, 60%)" />
<rect x="76" y="40" width="6" height="6" fill="hsl(0, 100%, 60%)" />
<rect x="70" y="46" width="6" height="6" fill="hsl(0, 100%, 60%)" />
<rect x="76" y="46" width="6" height="6" fill="hsl(0, 100%, 60%)" />
<rect x="88" y="64" width="6" height="6" fill="hsl(0, 100%, 60%)" />
<rect x="94" y="64" width="6" height="6" fill="hsl(0, 100%, 60%)" />
<rect x="94" y="70" width="6" height="6" fill="hsl(0, 100%, 60%)" />
<rect x="94" y="76" width="6" height="6" fill="hsl(0, 100%, 60%)" />
<rect x="106" y="76" width="6" height="6" fill="hsl(0, 100%, 60%)" />
<rect x="100" y="82" width="6" height="6" fill="hsl(0, 100%, 60%)" />
<rect x="106" y="82" width="6" height="6" fill="hsl(0, 100%, 60%)" />
<rect x="52" y="106" width="6" height="6" fill="hsl(0, 100%, 60%)" />
<rect x="58" y="106" width="6" height="6" fill="hsl(0, 100%, 60%)" />
<rect x="52" y="112" width="6" height="6" fill="hsl(0, 100%, 60%)" />
<rect x="58" y="112" width="6" height="6" fill="hsl(0, 100%, 60%)" />
</svg>