<?xml version="1.0" encoding="utf-8"?>
<svg xmlns="http://www.w3.org/2000/svg" width="128" height="95" viewBox="0 0 128 95">
<rect width="100%" height="100%" fill="transparent" />
<rect x="22" y="4" width="3" height="3" fill="hsl(0, 100%, 60%)" />
<rect x="22" y="7" width="3" height="3" fill="hsl(0, 100%, 60%)" />
<rect x="25" y="7" width="3" height="3" fill="hsl(0, 100%, 60%)" />
<rect x="28" y="7" width="3" height="3" fill="hsl(0, 100%, 60%)" />
<rect x="31" y="10" width="3" height="3" fill="hsl(0, 100%, 60%)" />
<rect x="28" y="13" width="3" height="3" fill="hsl(0, 100%, 60%)" />
<rect x="31" y="13" width="3" height="3" fill="hsl(0, 100%, 60%)" />
<rect x="19" y="16" width="3" height="3" fill="hsl(0, 100%, 60%)" />
<rect x="13" y="19" width="3" height="3" fill="hsl(0, 100%, 60%)" />
<rect x="16" y="19" width="3" height="3" fill="hsl(0, 100%, 60%)" />
<rect x="19" y="19" width="3" height="3" fill="hsl(0, 100%, 60%)" />
<rect x="10" y="22" width="3" height="3" fill="hsl(0, 100%, 60%)" />
<rect x="10" y="25" width="3" height="3" fill="hsl(0, 100%, 60%)" />
<rect x="13" y="25" width="3" height="3" fill="hsl(0, 100%, 60%)" />
<rect x="10" y="31" width="3" height="3" fill="hsl(0, 100%, 60%)" />
<rect x="13" y="31" width="3" height="3" fill="hsl(0, 100%, 60%)" />
<rect x="37" y="31" width="3" height="3" fill="hsl(0, 100%, 60%)" />
<rect x="43" y="31" width="3" height="3" fill="hsl(0, 100%, 60%)" />
<rect x="52" y="31" width="3" height="3" fill="hsl(0, 100%, 60%)" />
<rect x="58" y="31" width="3" height="3" fill="hsl(0, 100%, 60%)" />
<rect x="10" y="34" width="3" height="3" fill="hsl(0, 100%, 60%)" />
<rect x="16" y="34" width="3" height="3" fill="hsl(0, 100%, 60%)" />
<rect x="37" y="34" width="3" height="3" fill="hsl(0, 100%, 60%)" />
<rect x="46" y="34" width="3" height="3" fill="hsl(0, 100%, 60%)" />
<rect x="58" y="34" width="3" height="3" fill="hsl(0, 100%, 60%)" />
<rect x="13" y="37" width="3" height="3" fill="hsl(0, 100%, 60%)" />
<rect x="31" y="37" width="3" height="3" fill="hsl(0, 100%, 60%)" />
<rect x="34" y="37" width="3" height="3" fill="hsl(0, 100%, 60%)" />
<rect x="46" y="37" width="3" height="3" fill="hsl(0, 100%, 60%)" />
<rect x="52" y="37" width="3" height="3" fill="hsl(0, 100%, 60%)" />
<rect x="58" y="37" width="3" height="3" fill="hsl(0, 100%, 60%)" />
<rect x="4" y="40" width="3" height="3" fill="hsl(0, 100%, 60%)" />
<rect x="7" y="40" width="3" height="3" fill="hsl(0, 100%, 60%)" />
<rect x="10" y="40" width="3" height="3" fill="hsl(0, 100%, 60%)" />
<rect x="34" y="40" width="3" height="3" fill="hsl(0, 100%, 60%)" />
<rect x="37" y="40" width="3" height="3" fill="hsl(0, 100%, 60%)" />
<rect x="40" y="40" width="3" height="3" fill="hsl(0, 100%, 60%)" />
<rect x="46" y="40" width="3" height="3" fill="hsl(0, 100%, 60%)" />
<rect x="4" y="43" width="3" height="3" fill="hsl(0, 100%, 60%)" />
<rect x="25" y="43" width="3" height="3" fill="hsl(0, 100%, 60%)" />
<rect x="28" y="43" width="3" height="3" fill="hsl(0, 100%, 60%)" />
<rect x="46" y="43" width="3" height="3" fill="hsl(0, 100%, 60%)" />
<rect x="49" y="43" width="3" height="3" fill="hsl(0, 100%, 60%)" />
<rect x="76" y="43" width="3" height="3" fill="hsl(0, 100%, 60%)" />
<rect x="79" y="43" width="3" height="3" fill="hsl(0, 100%, 60%)" />
<rect x="82" y="43" width="3" height="3" fill="hsl(0, 100%, 60%)" />
<rect x="25" y="46" width="3" height="3" fill="hsl(0, 100%, 60%)" />
<rect x="28" y="46" width="3" height="3" fill="hsl(0, 100%, 60%)" />
<rect x="43" y="46" width="3" height="3" fill="hsl(0, 100%, 60%)" />
<rect x="46" y="46" width="3" height="3" fill="hsl(0, 100%, 60%)" />
<rect x="73" y="46" width="3" height="3" fill="hsl(0, 100%, 60%)" />
<rect x="85" y="46" width="3" height="3" fill="hsl(0, 100%, 60%)" />
<rect x="25" y="49" width="3" height="3" fill="hsl(0, 100%, 60%)" />
<rect x="28" y="49" width="3" height="3" fill="hsl(0, 100%, 60%)" />
<rect x="40" y="49" width="3" height="3" fill="hsl(0, 100%, 60%)" />
<rect x="70" y="49" width="3" height="3" fill="hsl(0, 100%, 60%)" />
<rect x="88" y="49" width="3" height="3" fill="hsl(0, 100%, 60%)" />
<rect x="25" y="52" width="3" height="3" fill="hsl(0, 100%, 60%)" />
<rect x="28" y="52" width="3" height="3" fill="hsl(0, 100%, 60%)" />
<rect x="34" y="52" width="3" height="3" fill="hsl(0, 100%, 60%)" />
<rect x="40" y="52" width="3" height="3" fill="hsl(0, 100%, 60%)" />
<rect x="67" y="52" width="3" height="3" fill="hsl(0, 100%, 60%)" />
<rect x="79" y="52" width="3" height="3" fill="hsl(0, 100%, 60%)" />
<rect x="91" y="52" width="3" height="3" fill="hsl(0, 100%, 60%)" />
<rect x="25" y="55" width="3" height="3" fill="hsl(0, 100%, 60%)" />
<rect x="28" y="55" width="3" height="3" fill="hsl(0, 100%, 60%)" />
<rect x="34" y="55" width="3" height="3" fill="hsl(0, 100%, 60%)" />
<rect x="40" y="55" width="3" height="3" fill="hsl(0, 100%, 60%)" />
<rect x="67" y="55" width="3" height="3" fill="hsl(0, 100%, 60%)" />
<rect x="91" y="55" width="3" height="3" fill="hsl(0, 100%, 60%)" />
<rect x="109" y="55" width="3" height="3" fill="hsl(0, 100%, 60%)" />
<rect x="112" y="55" width="3" height="3" fill="hsl(0, 100%, 60%)" />
<rect x="67" y="58" width="3" height="3" fill="hsl(0, 100%, 60%)" />
<rect x="73" y="58" width="3" height="3" fill="hsl(0, 100%, 60%)" />
<rect x="85" y="58" width="3" height="3" fill="hsl(0, 100%, 60%)" />
<rect x="91" y="58" width="3" height="3" fill="hsl(0, 100%, 60%)" />
<rect x="109" y="58" width="3" height="3" fill="hsl(0, 100%, 60%)" />
<rect x="112" y="58" width="3" height="3" fill="hsl(0, 100%, 60%)" />
<rect x="55" y="61" width="3" height="3" fill="hsl(0, 100%, 60%)" />
<rect x="58" y="61" width="3" height="3" fill="hsl(0, 100%, 60%)" />
<rect x="70" y="61" width="3" height="3" fill="hsl(0, 100%, 60%)" />
<rect x="73" y="61" width="3" height="3" fill="hsl(0, 100%, 60%)" />
<rect x="85" y="61" width="3" height="3" fill="hsl(0, 100%, 60%)" />
<rect x="88" y="61" width="3" height="3" fill="hsl(0, 100%, 60%)" />
<rect x="34" y="64" width="3" height="3" fill="hsl(0, 100%, 60%)" />
<rect x="37" y="64" width="3" height="3" fill="hsl(0, 100%, 60%)" />
<rect x="52" y="64" width="3" height="3" fill="hsl(0, 100%, 60%)" />
<rect x="58" y="64" width="3" height="3" fill="hsl(0, 100%, 60%)" />
<rect x="22" y="67" width="3" height="3" fill="hsl(0, 100%, 60%)" />
<rect x="25" y="67" width="3" height="3" fill="hsl(0, 100%, 60%)" />
<rect x="34" y="67" width="3" height="3" fill="hsl(0, 100%, 60%)" />
<rect x="37" y="67" width="3" height="3" fill="hsl(0, 100%, 60%)" />
<rect x="52" y="67" width="3" height="3" fill="hsl(0, 100%, 60%)" />
<rect x="112" y="67" width="3" height="3" fill="hsl(0, 100%, 60%)" />
<rect x="115" y="67" width="3" height="3" fill="hsl(0, 100%, 60%)" />
<rect x="19" y="70" width="3" height="3" fill="hsl(0, 100%, 60%)" />
<rect x="25" y="70" width="3" height="3" fill="hsl(0, 100%, 60%)" />
<rect x="49" y="70" width="3" height="3" fill="hsl(0, 100%, 60%)" />
<rect x="52" y="70" width="3" height="3" fill="hsl(0, 100%, 60%)" />
<rect x="112" y="70" width="3" height="3" fill="hsl(0, 100%, 60%)" />
<rect x="19" y="73" width="3" height="3" fill="hsl(0, 100%, 60%)" />
<rect x="61" y="73" width="3" height="3" fill="hsl(0, 100%, 60%)" />
<rect x="64" y="73" width="3" height="3" fill="hsl(0, 100%, 60%)" />
<rect x="115" y="73" width="3" height="3" fill="hsl(0, 100%, 60%)" />
<rect x="118" y="73" width="3" height="3" fill="hsl(0, 100%, 60%)" />
<rect x="121" y="73" width="3" height="3" fill="hsl(0, 100%, 60%)" />
<rect x="16" y="76" width="3" height="3" fill="hsl(0, 100%, 60%)" />
<rect x="19" y="76" width="3" height="3" fill="hsl(0, 100%, 60%)" />
<rect x="64" y="76" width="3" height="3" fill="hsl(0, 100%, 60%)" />
<rect x="79" y="76" width="3" height="3" fill="hsl(0, 100%, 60%)" />
<rect x="121" y="76" width="3" height="3" fill="hsl(0, 100%, 60%)" />
<rect x="64" y="79" width="3" height="3" fill="hsl(0, 100%, 60%)" />
<rect x="70" y="79" width="3" height="3" fill="hsl(0, 100%, 60%)" />
<rect x="76" y="79" width="3" height="3" fill="hsl(0, 100%, 60%)" />
<rect x="82" y="79" width="3" height="3" fill="hsl(0, 100%, 60%)" />
<rect x="67" y="82" width="3" height="3" fill="hsl(0, 100%, 60%)" />
<rect x="70" y="82" width="3" height="3" fill="hsl(0, 100%, 60%)" />
<rect x="76" y="82" width="3" height="3" fill="hsl(0, 100%, 60%)" />
<rect x="79" y="82" width="3" height="3" fill="hsl(0, 100%, 60%)" />
<rect x="85" y="82" width="3" height="3" fill="hsl(0, 100%, 60%)" />
<rect x="85" y="85" width="3" height="3" fill="hsl(0, 100%, 60%)" />
<rect x="85" y="88" width="3" height="3" fill="hsl(0, 100%, 60%)" />
<rect x="88" y="88" width="3" height="3" fill="hsl(0, 100%, 60%)" />
</svg>