<?xml version="1.0" encoding="utf-8"?>
<svg xmlns="http://www.w3.org/2000/svg" width="116" height="35" viewBox="0 0 116 35">
<rect width="100%" height="100%" fill="transparent" />
<rect x="76" y="4" width="3" height="3" fill="hsl(0, 100%, 60%)" />
<rect x="70" y="7" width="3" height="3" fill="hsl(0, 100%, 60%)" />
<rect x="76" y="7" width="3" height="3" fill="hsl(0, 100%, 60%)" />
<rect x="40" y="10" width="3" height="3" fill="hsl(0, 100%, 60%)" />
<rect x="43" y="10" width="3" height="3" fill="hsl(0, 100%, 60%)" />
<rect x="64" y="10" width="3" height="3" fill="hsl(0, 100%, 60%)" />
<rect x="67" y="10" width="3" height="3" fill="hsl(0, 100%, 60%)" />
<rect x="106" y="10" width="3" height="3" fill="hsl(0, 100%, 60%)" />
<rect x="109" y="10" width="3" height="3" fill="hsl(0, 100%, 60%)" />
<rect x="37" y="13" width="3" height="3" fill="hsl(0, 100%, 60%)" />
<rect x="49" y="13" width="3" height="3" fill="hsl(0, 100%, 60%)" />
<rect x="64" y="13" width="3" height="3" fill="hsl(0, 100%, 60%)" />
<rect x="67" y="13" width="3" height="3" fill="hsl(0, 100%, 60%)" />
<rect x="106" y="13" width="3" height="3" fill="hsl(0, 100%, 60%)" />
<rect x="109" y="13" width="3" height="3" fill="hsl(0, 100%, 60%)" />
<rect x="4" y="16" width="3" height="3" fill="hsl(0, 100%, 60%)" />
<rect x="7" y="16" width="3" height="3" fill="hsl(0, 100%, 60%)" />
<rect x="34" y="16" width="3" height="3" fill="hsl(0, 100%, 60%)" />
<rect x="52" y="16" width="3" height="3" fill="hsl(0, 100%, 60%)" />
<rect x="64" y="16" width="3" height="3" fill="hsl(0, 100%, 60%)" />
<rect x="67" y="16" width="3" height="3" fill="hsl(0, 100%, 60%)" />
<rect x="4" y="19" width="3" height="3" fill="hsl(0, 100%, 60%)" />
<rect x="7" y="19" width="3" height="3" fill="hsl(0, 100%, 60%)" />
<rect x="34" y="19" width="3" height="3" fill="hsl(0, 100%, 60%)" />
<rect x="46" y="19" width="3" height="3" fill="hsl(0, 100%, 60%)" />
<rect x="52" y="19" width="3" height="3" fill="hsl(0, 100%, 60%)" />
<rect x="55" y="19" width="3" height="3" fill="hsl(0, 100%, 60%)" />
<rect x="70" y="19" width="3" height="3" fill="hsl(0, 100%, 60%)" />
<rect x="76" y="19" width="3" height="3" fill="hsl(0, 100%, 60%)" />
<rect x="34" y="22" width="3" height="3" fill="hsl(0, 100%, 60%)" />
<rect x="52" y="22" width="3" height="3" fill="hsl(0, 100%, 60%)" />
<rect x="76" y="22" width="3" height="3" fill="hsl(0, 100%, 60%)" />
<rect x="37" y="25" width="3" height="3" fill="hsl(0, 100%, 60%)" />
<rect x="49" y="25" width="3" height="3" fill="hsl(0, 100%, 60%)" />
<rect x="40" y="28" width="3" height="3" fill="hsl(0, 100%, 60%)" />
<rect x="43" y="28" width="3" height="3" fill="hsl(0, 100%, 60%)" />
</svg>