<?xml version="1.0" encoding="utf-8"?>
<svg xmlns="http://www.w3.org/2000/svg" width="112" height="52" viewBox="0 0 112 52">
<rect width="100%" height="100%" fill="transparent" />
<rect x="24" y="4" width="2" height="2" fill="hsl(0, 100%, 60%)" />
<rect x="86" y="4" width="2" height="2" fill="hsl(0, 100%, 60%)" />
<rect x="24" y="6" width="2" height="2" fill="hsl(0, 100%, 60%)" />
<rect x="26" y="6" width="2" height="2" fill="hsl(0, 100%, 60%)" />
<rect x="28" y="6" width="2" height="2" fill="hsl(0, 100%, 60%)" />
<rect x="82" y="6" width="2" height="2" fill="hsl(0, 100%, 60%)" />
<rect x="84" y="6" width="2" height="2" fill="hsl(0, 100%, 60%)" />
<rect x="86" y="6" width="2" height="2" fill="hsl(0, 100%, 60%)" />
<rect x="30" y="8" width="2" height="2" fill="hsl(0, 100%, 60%)" />
<rect x="80" y="8" width="2" height="2" fill="hsl(0, 100%, 60%)" />
<rect x="4" y="10" width="2" height="2" fill="hsl(0, 100%, 60%)" />
<rect x="6" y="10" width="2" height="2" fill="hsl(0, 100%, 60%)" />
<rect x="28" y="10" width="2" height="2" fill="hsl(0, 100%, 60%)" />
<rect x="30" y="10" width="2" height="2" fill="hsl(0, 100%, 60%)" />
<rect x="80" y="10" width="2" height="2" fill="hsl(0, 100%, 60%)" />
<rect x="82" y="10" width="2" height="2" fill="hsl(0, 100%, 60%)" />
<rect x="104" y="10" width="2" height="2" fill="hsl(0, 100%, 60%)" />
<rect x="106" y="10" width="2" height="2" fill="hsl(0, 100%, 60%)" />
<rect x="6" y="12" width="2" height="2" fill="hsl(0, 100%, 60%)" />
<rect x="104" y="12" width="2" height="2" fill="hsl(0, 100%, 60%)" />
<rect x="6" y="14" width="2" height="2" fill="hsl(0, 100%, 60%)" />
<rect x="10" y="14" width="2" height="2" fill="hsl(0, 100%, 60%)" />
<rect x="100" y="14" width="2" height="2" fill="hsl(0, 100%, 60%)" />
<rect x="104" y="14" width="2" height="2" fill="hsl(0, 100%, 60%)" />
<rect x="8" y="16" width="2" height="2" fill="hsl(0, 100%, 60%)" />
<rect x="10" y="16" width="2" height="2" fill="hsl(0, 100%, 60%)" />
<rect x="100" y="16" width="2" height="2" fill="hsl(0, 100%, 60%)" />
<rect x="102" y="16" width="2" height="2" fill="hsl(0, 100%, 60%)" />
<rect x="46" y="18" width="2" height="2" fill="hsl(0, 100%, 60%)" />
<rect x="64" y="18" width="2" height="2" fill="hsl(0, 100%, 60%)" />
<rect x="46" y="20" width="2" height="2" fill="hsl(0, 100%, 60%)" />
<rect x="48" y="20" width="2" height="2" fill="hsl(0, 100%, 60%)" />
<rect x="62" y="20" width="2" height="2" fill="hsl(0, 100%, 60%)" />
<rect x="64" y="20" width="2" height="2" fill="hsl(0, 100%, 60%)" />
<rect x="48" y="22" width="2" height="2" fill="hsl(0, 100%, 60%)" />
<rect x="50" y="22" width="2" height="2" fill="hsl(0, 100%, 60%)" />
<rect x="60" y="22" width="2" height="2" fill="hsl(0, 100%, 60%)" />
<rect x="62" y="22" width="2" height="2" fill="hsl(0, 100%, 60%)" />
<rect x="48" y="24" width="2" height="2" fill="hsl(0, 100%, 60%)" />
<rect x="62" y="24" width="2" height="2" fill="hsl(0, 100%, 60%)" />
<rect x="46" y="26" width="2" height="2" fill="hsl(0, 100%, 60%)" />
<rect x="64" y="26" width="2" height="2" fill="hsl(0, 100%, 60%)" />
<rect x="8" y="30" width="2" height="2" fill="hsl(0, 100%, 60%)" />
<rect x="102" y="30" width="2" height="2" fill="hsl(0, 100%, 60%)" />
<rect x="8" y="32" width="2" height="2" fill="hsl(0, 100%, 60%)" />
<rect x="12" y="32" width="2" height="2" fill="hsl(0, 100%, 60%)" />
<rect x="98" y="32" width="2" height="2" fill="hsl(0, 100%, 60%)" />
<rect x="102" y="32" width="2" height="2" fill="hsl(0, 100%, 60%)" />
<rect x="8" y="34" width="2" height="2" fill="hsl(0, 100%, 60%)" />
<rect x="10" y="34" width="2" height="2" fill="hsl(0, 100%, 60%)" />
<rect x="12" y="34" width="2" height="2" fill="hsl(0, 100%, 60%)" />
<rect x="98" y="34" width="2" height="2" fill="hsl(0, 100%, 60%)" />
<rect x="100" y="34" width="2" height="2" fill="hsl(0, 100%, 60%)" />
<rect x="102" y="34" width="2" height="2" fill="hsl(0, 100%, 60%)" />
<rect x="12" y="36" width="2" height="2" fill="hsl(0, 100%, 60%)" />
<rect x="36" y="36" width="2" height="2" fill="hsl(0, 100%, 60%)" />
<rect x="38" y="36" width="2" height="2" fill="hsl(0, 100%, 60%)" />
<rect x="74" y="36" width="2" height="2" fill="hsl(0, 100%, 60%)" />
<rect x="76" y="36" width="2" height="2" fill="hsl(0, 100%, 60%)" />
<rect x="98" y="36" width="2" height="2" fill="hsl(0, 100%, 60%)" />
<rect x="36" y="38" width="2" height="2" fill="hsl(0, 100%, 60%)" />
<rect x="74" y="38" width="2" height="2" fill="hsl(0, 100%, 60%)" />
<rect x="76" y="38" width="2" height="2" fill="hsl(0, 100%, 60%)" />
<rect x="38" y="40" width="2" height="2" fill="hsl(0, 100%, 60%)" />
<rect x="40" y="40" width="2" height="2" fill="hsl(0, 100%, 60%)" />
<rect x="42" y="40" width="2" height="2" fill="hsl(0, 100%, 60%)" />
<rect x="82" y="40" width="2" height="2" fill="hsl(0, 100%, 60%)" />
<rect x="84" y="40" width="2" height="2" fill="hsl(0, 100%, 60%)" />
<rect x="42" y="42" width="2" height="2" fill="hsl(0, 100%, 60%)" />
<rect x="82" y="42" width="2" height="2" fill="hsl(0, 100%, 60%)" />
<rect x="84" y="44" width="2" height="2" fill="hsl(0, 100%, 60%)" />
<rect x="86" y="44" width="2" height="2" fill="hsl(0, 100%, 60%)" />
<rect x="88" y="44" width="2" height="2" fill="hsl(0, 100%, 60%)" />
<rect x="88" y="46" width="2" height="2" fill="hsl(0, 100%, 60%)" />
</svg>