<?xml version="1.0" encoding="utf-8"?>
<svg xmlns="http://www.w3.org/2000/svg" width="125" height="44" viewBox="0 0 125 44">
<rect width="100%" height="100%" fill="transparent" />
<rect x="22" y="4" width="3" height="3" fill="hsl(0, 100%, 60%)" />
<rect x="16" y="7" width="3" height="3" fill="hsl(0, 100%, 60%)" />
<rect x="22" y="7" width="3" height="3" fill="hsl(0, 100%, 60%)" />
<rect x="25" y="7" width="3" height="3" fill="hsl(0, 100%, 60%)" />
<rect x="16" y="10" width="3" height="3" fill="hsl(0, 100%, 60%)" />
<rect x="22" y="10" width="3" height="3" fill="hsl(0, 100%, 60%)" />
<rect x="16" y="13" width="3" height="3" fill="hsl(0, 100%, 60%)" />
<rect x="10" y="16" width="3" height="3" fill="hsl(0, 100%, 60%)" />
<rect x="4" y="19" width="3" height="3" fill="hsl(0, 100%, 60%)" />
<rect x="10" y="19" width="3" height="3" fill="hsl(0, 100%, 60%)" />
<rect x="4" y="22" width="3" height="3" fill="hsl(0, 100%, 60%)" />
<rect x="7" y="22" width="3" height="3" fill="hsl(0, 100%, 60%)" />
<rect x="10" y="22" width="3" height="3" fill="hsl(0, 100%, 60%)" />
<rect x="16" y="22" width="3" height="3" fill="hsl(0, 100%, 60%)" />
<rect x="4" y="25" width="3" height="3" fill="hsl(0, 100%, 60%)" />
<rect x="13" y="28" width="3" height="3" fill="hsl(0, 100%, 60%)" />
<rect x="16" y="28" width="3" height="3" fill="hsl(0, 100%, 60%)" />
<rect x="7" y="31" width="3" height="3" fill="hsl(0, 100%, 60%)" />
<rect x="10" y="31" width="3" height="3" fill="hsl(0, 100%, 60%)" />
<rect x="16" y="31" width="3" height="3" fill="hsl(0, 100%, 60%)" />
<rect x="4" y="34" width="3" height="3" fill="hsl(0, 100%, 60%)" />
<rect x="10" y="34" width="3" height="3" fill="hsl(0, 100%, 60%)" />
<rect x="16" y="34" width="3" height="3" fill="hsl(0, 100%, 60%)" />
<rect x="4" y="37" width="3" height="3" fill="hsl(0, 100%, 60%)" />
<rect x="7" y="37" width="3" height="3" fill="hsl(0, 100%, 60%)" />
<rect x="10" y="37" width="3" height="3" fill="hsl(0, 100%, 60%)" />
<rect x="13" y="37" width="3" height="3" fill="hsl(0, 100%, 60%)" />
<rect x="16" y="37" width="3" height="3" fill="hsl(0, 100%, 60%)" />
<rect x="19" y="37" width="3" height="3" fill="hsl(0, 100%, 60%)" />
<rect x="22" y="37" width="3" height="3" fill="hsl(0, 100%, 60%)" />
<rect x="25" y="37" width="3" height="3" fill="hsl(0, 100%, 60%)" />
<rect x="31" y="37" width="3" height="3" fill="hsl(0, 100%, 60%)" />
<rect x="34" y="37" width="3" height="3" fill="hsl(0, 100%, 60%)" />
<rect x="37" y="37" width="3" height="3" fill="hsl(0, 100%, 60%)" />
<rect x="40" y="37" width="3" height="3" fill="hsl(0, 100%, 60%)" />
<rect x="43" y="37" width="3" height="3" fill="hsl(0, 100%, 60%)" />
<rect x="55" y="37" width="3" height="3" fill="hsl(0, 100%, 60%)" />
<rect x="58" y="37" width="3" height="3" fill="hsl(0, 100%, 60%)" />
<rect x="61" y="37" width="3" height="3" fill="hsl(0, 100%, 60%)" />
<rect x="82" y="37" width="3" height="3" fill="hsl(0, 100%, 60%)" />
<rect x="85" y="37" width="3" height="3" fill="hsl(0, 100%, 60%)" />
<rect x="88" y="37" width="3" height="3" fill="hsl(0, 100%, 60%)" />
<rect x="91" y="37" width="3" height="3" fill="hsl(0, 100%, 60%)" />
<rect x="94" y="37" width="3" height="3" fill="hsl(0, 100%, 60%)" />
<rect x="97" y="37" width="3" height="3" fill="hsl(0, 100%, 60%)" />
<rect x="100" y="37" width="3" height="3" fill="hsl(0, 100%, 60%)" />
<rect x="106" y="37" width="3" height="3" fill="hsl(0, 100%, 60%)" />
<rect x="109" y="37" width="3" height="3" fill="hsl(0, 100%, 60%)" />
<rect x="112" y="37" width="3" height="3" fill="hsl(0, 100%, 60%)" />
<rect x="115" y="37" width="3" height="3" fill="hsl(0, 100%, 60%)" />
<rect x="118" y="37" width="3" height="3" fill="hsl(0, 100%, 60%)" />
</svg>