<?xml version="1.0" encoding="utf-8"?>
<svg xmlns="http://www.w3.org/2000/svg" width="116" height="47" viewBox="0 0 116 47">
<rect width="100%" height="100%" fill="transparent" />
<rect x="52" y="4" width="3" height="3" fill="hsl(0, 100%, 60%)" />
<rect x="55" y="7" width="3" height="3" fill="hsl(0, 100%, 60%)" />
<rect x="49" y="10" width="3" height="3" fill="hsl(0, 100%, 60%)" />
<rect x="52" y="10" width="3" height="3" fill="hsl(0, 100%, 60%)" />
<rect x="55" y="10" width="3" height="3" fill="hsl(0, 100%, 60%)" />
<rect x="73" y="16" width="3" height="3" fill="hsl(0, 100%, 60%)" />
<rect x="79" y="16" width="3" height="3" fill="hsl(0, 100%, 60%)" />
<rect x="67" y="19" width="3" height="3" fill="hsl(0, 100%, 60%)" />
<rect x="79" y="19" width="3" height="3" fill="hsl(0, 100%, 60%)" />
<rect x="43" y="22" width="3" height="3" fill="hsl(0, 100%, 60%)" />
<rect x="67" y="22" width="3" height="3" fill="hsl(0, 100%, 60%)" />
<rect x="40" y="25" width="3" height="3" fill="hsl(0, 100%, 60%)" />
<rect x="43" y="25" width="3" height="3" fill="hsl(0, 100%, 60%)" />
<rect x="46" y="25" width="3" height="3" fill="hsl(0, 100%, 60%)" />
<rect x="49" y="25" width="3" height="3" fill="hsl(0, 100%, 60%)" />
<rect x="64" y="25" width="3" height="3" fill="hsl(0, 100%, 60%)" />
<rect x="79" y="25" width="3" height="3" fill="hsl(0, 100%, 60%)" />
<rect x="106" y="25" width="3" height="3" fill="hsl(0, 100%, 60%)" />
<rect x="109" y="25" width="3" height="3" fill="hsl(0, 100%, 60%)" />
<rect x="37" y="28" width="3" height="3" fill="hsl(0, 100%, 60%)" />
<rect x="40" y="28" width="3" height="3" fill="hsl(0, 100%, 60%)" />
<rect x="46" y="28" width="3" height="3" fill="hsl(0, 100%, 60%)" />
<rect x="52" y="28" width="3" height="3" fill="hsl(0, 100%, 60%)" />
<rect x="67" y="28" width="3" height="3" fill="hsl(0, 100%, 60%)" />
<rect x="106" y="28" width="3" height="3" fill="hsl(0, 100%, 60%)" />
<rect x="109" y="28" width="3" height="3" fill="hsl(0, 100%, 60%)" />
<rect x="4" y="31" width="3" height="3" fill="hsl(0, 100%, 60%)" />
<rect x="7" y="31" width="3" height="3" fill="hsl(0, 100%, 60%)" />
<rect x="34" y="31" width="3" height="3" fill="hsl(0, 100%, 60%)" />
<rect x="37" y="31" width="3" height="3" fill="hsl(0, 100%, 60%)" />
<rect x="40" y="31" width="3" height="3" fill="hsl(0, 100%, 60%)" />
<rect x="46" y="31" width="3" height="3" fill="hsl(0, 100%, 60%)" />
<rect x="55" y="31" width="3" height="3" fill="hsl(0, 100%, 60%)" />
<rect x="67" y="31" width="3" height="3" fill="hsl(0, 100%, 60%)" />
<rect x="79" y="31" width="3" height="3" fill="hsl(0, 100%, 60%)" />
<rect x="4" y="34" width="3" height="3" fill="hsl(0, 100%, 60%)" />
<rect x="7" y="34" width="3" height="3" fill="hsl(0, 100%, 60%)" />
<rect x="37" y="34" width="3" height="3" fill="hsl(0, 100%, 60%)" />
<rect x="40" y="34" width="3" height="3" fill="hsl(0, 100%, 60%)" />
<rect x="46" y="34" width="3" height="3" fill="hsl(0, 100%, 60%)" />
<rect x="52" y="34" width="3" height="3" fill="hsl(0, 100%, 60%)" />
<rect x="73" y="34" width="3" height="3" fill="hsl(0, 100%, 60%)" />
<rect x="79" y="34" width="3" height="3" fill="hsl(0, 100%, 60%)" />
<rect x="40" y="37" width="3" height="3" fill="hsl(0, 100%, 60%)" />
<rect x="43" y="37" width="3" height="3" fill="hsl(0, 100%, 60%)" />
<rect x="46" y="37" width="3" height="3" fill="hsl(0, 100%, 60%)" />
<rect x="49" y="37" width="3" height="3" fill="hsl(0, 100%, 60%)" />
<rect x="43" y="40" width="3" height="3" fill="hsl(0, 100%, 60%)" />
</svg>