<?xml version="1.0" encoding="utf-8"?>
<svg xmlns="http://www.w3.org/2000/svg" width="128" height="128" viewBox="0 0 128 128">
<rect width="100%" height="100%" fill="transparent" />
<rect x="54" y="4" width="2" height="2" fill="hsl(0, 100%, 60%)" />
<rect x="56" y="4" width="2" height="2" fill="hsl(0, 100%, 60%)" />
<rect x="28" y="6" width="2" height="2" fill="hsl(0, 100%, 60%)" />
<rect x="30" y="6" width="2" height="2" fill="hsl(0, 100%, 60%)" />
<rect x="54" y="6" width="2" height="2" fill="hsl(0, 100%, 60%)" />
<rect x="24" y="8" width="2" height="2" fill="hsl(0, 100%, 60%)" />
<rect x="26" y="8" width="2" height="2" fill="hsl(0, 100%, 60%)" />
<rect x="30" y="8" width="2" height="2" fill="hsl(0, 100%, 60%)" />
<rect x="32" y="8" width="2" height="2" fill="hsl(0, 100%, 60%)" />
<rect x="56" y="8" width="2" height="2" fill="hsl(0, 100%, 60%)" />
<rect x="24" y="10" width="2" height="2" fill="hsl(0, 100%, 60%)" />
<rect x="26" y="10" width="2" height="2" fill="hsl(0, 100%, 60%)" />
<rect x="28" y="10" width="2" height="2" fill="hsl(0, 100%, 60%)" />
<rect x="30" y="10" width="2" height="2" fill="hsl(0, 100%, 60%)" />
<rect x="58" y="10" width="2" height="2" fill="hsl(0, 100%, 60%)" />
<rect x="26" y="12" width="2" height="2" fill="hsl(0, 100%, 60%)" />
<rect x="28" y="12" width="2" height="2" fill="hsl(0, 100%, 60%)" />
<rect x="60" y="12" width="2" height="2" fill="hsl(0, 100%, 60%)" />
<rect x="36" y="14" width="2" height="2" fill="hsl(0, 100%, 60%)" />
<rect x="38" y="14" width="2" height="2" fill="hsl(0, 100%, 60%)" />
<rect x="62" y="14" width="2" height="2" fill="hsl(0, 100%, 60%)" />
<rect x="34" y="16" width="2" height="2" fill="hsl(0, 100%, 60%)" />
<rect x="38" y="16" width="2" height="2" fill="hsl(0, 100%, 60%)" />
<rect x="64" y="16" width="2" height="2" fill="hsl(0, 100%, 60%)" />
<rect x="38" y="18" width="2" height="2" fill="hsl(0, 100%, 60%)" />
<rect x="66" y="18" width="2" height="2" fill="hsl(0, 100%, 60%)" />
<rect x="68" y="20" width="2" height="2" fill="hsl(0, 100%, 60%)" />
<rect x="70" y="22" width="2" height="2" fill="hsl(0, 100%, 60%)" />
<rect x="72" y="24" width="2" height="2" fill="hsl(0, 100%, 60%)" />
<rect x="74" y="26" width="2" height="2" fill="hsl(0, 100%, 60%)" />
<rect x="50" y="28" width="2" height="2" fill="hsl(0, 100%, 60%)" />
<rect x="76" y="28" width="2" height="2" fill="hsl(0, 100%, 60%)" />
<rect x="48" y="30" width="2" height="2" fill="hsl(0, 100%, 60%)" />
<rect x="50" y="30" width="2" height="2" fill="hsl(0, 100%, 60%)" />
<rect x="52" y="30" width="2" height="2" fill="hsl(0, 100%, 60%)" />
<rect x="78" y="30" width="2" height="2" fill="hsl(0, 100%, 60%)" />
<rect x="48" y="32" width="2" height="2" fill="hsl(0, 100%, 60%)" />
<rect x="52" y="32" width="2" height="2" fill="hsl(0, 100%, 60%)" />
<rect x="54" y="32" width="2" height="2" fill="hsl(0, 100%, 60%)" />
<rect x="80" y="32" width="2" height="2" fill="hsl(0, 100%, 60%)" />
<rect x="4" y="34" width="2" height="2" fill="hsl(0, 100%, 60%)" />
<rect x="10" y="34" width="2" height="2" fill="hsl(0, 100%, 60%)" />
<rect x="50" y="34" width="2" height="2" fill="hsl(0, 100%, 60%)" />
<rect x="52" y="34" width="2" height="2" fill="hsl(0, 100%, 60%)" />
<rect x="54" y="34" width="2" height="2" fill="hsl(0, 100%, 60%)" />
<rect x="82" y="34" width="2" height="2" fill="hsl(0, 100%, 60%)" />
<rect x="12" y="36" width="2" height="2" fill="hsl(0, 100%, 60%)" />
<rect x="50" y="36" width="2" height="2" fill="hsl(0, 100%, 60%)" />
<rect x="52" y="36" width="2" height="2" fill="hsl(0, 100%, 60%)" />
<rect x="84" y="36" width="2" height="2" fill="hsl(0, 100%, 60%)" />
<rect x="4" y="38" width="2" height="2" fill="hsl(0, 100%, 60%)" />
<rect x="12" y="38" width="2" height="2" fill="hsl(0, 100%, 60%)" />
<rect x="86" y="38" width="2" height="2" fill="hsl(0, 100%, 60%)" />
<rect x="6" y="40" width="2" height="2" fill="hsl(0, 100%, 60%)" />
<rect x="8" y="40" width="2" height="2" fill="hsl(0, 100%, 60%)" />
<rect x="10" y="40" width="2" height="2" fill="hsl(0, 100%, 60%)" />
<rect x="12" y="40" width="2" height="2" fill="hsl(0, 100%, 60%)" />
<rect x="88" y="40" width="2" height="2" fill="hsl(0, 100%, 60%)" />
<rect x="90" y="42" width="2" height="2" fill="hsl(0, 100%, 60%)" />
<rect x="92" y="44" width="2" height="2" fill="hsl(0, 100%, 60%)" />
<rect x="94" y="46" width="2" height="2" fill="hsl(0, 100%, 60%)" />
<rect x="74" y="48" width="2" height="2" fill="hsl(0, 100%, 60%)" />
<rect x="76" y="48" width="2" height="2" fill="hsl(0, 100%, 60%)" />
<rect x="96" y="48" width="2" height="2" fill="hsl(0, 100%, 60%)" />
<rect x="76" y="50" width="2" height="2" fill="hsl(0, 100%, 60%)" />
<rect x="78" y="50" width="2" height="2" fill="hsl(0, 100%, 60%)" />
<rect x="98" y="50" width="2" height="2" fill="hsl(0, 100%, 60%)" />
<rect x="74" y="52" width="2" height="2" fill="hsl(0, 100%, 60%)" />
<rect x="100" y="52" width="2" height="2" fill="hsl(0, 100%, 60%)" />
<rect x="102" y="54" width="2" height="2" fill="hsl(0, 100%, 60%)" />
<rect x="104" y="56" width="2" height="2" fill="hsl(0, 100%, 60%)" />
<rect x="78" y="58" width="2" height="2" fill="hsl(0, 100%, 60%)" />
<rect x="80" y="58" width="2" height="2" fill="hsl(0, 100%, 60%)" />
<rect x="82" y="58" width="2" height="2" fill="hsl(0, 100%, 60%)" />
<rect x="106" y="58" width="2" height="2" fill="hsl(0, 100%, 60%)" />
<rect x="76" y="60" width="2" height="2" fill="hsl(0, 100%, 60%)" />
<rect x="82" y="60" width="2" height="2" fill="hsl(0, 100%, 60%)" />
<rect x="108" y="60" width="2" height="2" fill="hsl(0, 100%, 60%)" />
<rect x="82" y="62" width="2" height="2" fill="hsl(0, 100%, 60%)" />
<rect x="110" y="62" width="2" height="2" fill="hsl(0, 100%, 60%)" />
<rect x="82" y="64" width="2" height="2" fill="hsl(0, 100%, 60%)" />
<rect x="112" y="64" width="2" height="2" fill="hsl(0, 100%, 60%)" />
<rect x="76" y="66" width="2" height="2" fill="hsl(0, 100%, 60%)" />
<rect x="80" y="66" width="2" height="2" fill="hsl(0, 100%, 60%)" />
<rect x="114" y="66" width="2" height="2" fill="hsl(0, 100%, 60%)" />
<rect x="116" y="68" width="2" height="2" fill="hsl(0, 100%, 60%)" />
<rect x="118" y="70" width="2" height="2" fill="hsl(0, 100%, 60%)" />
<rect x="122" y="70" width="2" height="2" fill="hsl(0, 100%, 60%)" />
<rect x="18" y="72" width="2" height="2" fill="hsl(0, 100%, 60%)" />
<rect x="20" y="72" width="2" height="2" fill="hsl(0, 100%, 60%)" />
<rect x="22" y="72" width="2" height="2" fill="hsl(0, 100%, 60%)" />
<rect x="120" y="72" width="2" height="2" fill="hsl(0, 100%, 60%)" />
<rect x="122" y="72" width="2" height="2" fill="hsl(0, 100%, 60%)" />
<rect x="22" y="74" width="2" height="2" fill="hsl(0, 100%, 60%)" />
<rect x="48" y="74" width="2" height="2" fill="hsl(0, 100%, 60%)" />
<rect x="50" y="74" width="2" height="2" fill="hsl(0, 100%, 60%)" />
<rect x="64" y="74" width="2" height="2" fill="hsl(0, 100%, 60%)" />
<rect x="66" y="74" width="2" height="2" fill="hsl(0, 100%, 60%)" />
<rect x="68" y="74" width="2" height="2" fill="hsl(0, 100%, 60%)" />
<rect x="90" y="74" width="2" height="2" fill="hsl(0, 100%, 60%)" />
<rect x="92" y="74" width="2" height="2" fill="hsl(0, 100%, 60%)" />
<rect x="94" y="74" width="2" height="2" fill="hsl(0, 100%, 60%)" />
<rect x="96" y="74" width="2" height="2" fill="hsl(0, 100%, 60%)" />
<rect x="20" y="76" width="2" height="2" fill="hsl(0, 100%, 60%)" />
<rect x="46" y="76" width="2" height="2" fill="hsl(0, 100%, 60%)" />
<rect x="50" y="76" width="2" height="2" fill="hsl(0, 100%, 60%)" />
<rect x="68" y="76" width="2" height="2" fill="hsl(0, 100%, 60%)" />
<rect x="88" y="76" width="2" height="2" fill="hsl(0, 100%, 60%)" />
<rect x="96" y="76" width="2" height="2" fill="hsl(0, 100%, 60%)" />
<rect x="50" y="78" width="2" height="2" fill="hsl(0, 100%, 60%)" />
<rect x="66" y="78" width="2" height="2" fill="hsl(0, 100%, 60%)" />
<rect x="96" y="78" width="2" height="2" fill="hsl(0, 100%, 60%)" />
<rect x="88" y="80" width="2" height="2" fill="hsl(0, 100%, 60%)" />
<rect x="94" y="80" width="2" height="2" fill="hsl(0, 100%, 60%)" />
<rect x="108" y="88" width="2" height="2" fill="hsl(0, 100%, 60%)" />
<rect x="110" y="88" width="2" height="2" fill="hsl(0, 100%, 60%)" />
<rect x="110" y="90" width="2" height="2" fill="hsl(0, 100%, 60%)" />
<rect x="112" y="90" width="2" height="2" fill="hsl(0, 100%, 60%)" />
<rect x="108" y="92" width="2" height="2" fill="hsl(0, 100%, 60%)" />
<rect x="116" y="96" width="2" height="2" fill="hsl(0, 100%, 60%)" />
<rect x="118" y="96" width="2" height="2" fill="hsl(0, 100%, 60%)" />
<rect x="120" y="96" width="2" height="2" fill="hsl(0, 100%, 60%)" />
<rect x="116" y="98" width="2" height="2" fill="hsl(0, 100%, 60%)" />
<rect x="122" y="98" width="2" height="2" fill="hsl(0, 100%, 60%)" />
<rect x="116" y="100" width="2" height="2" fill="hsl(0, 100%, 60%)" />
<rect x="116" y="102" width="2" height="2" fill="hsl(0, 100%, 60%)" />
<rect x="118" y="104" width="2" height="2" fill="hsl(0, 100%, 60%)" />
<rect x="122" y="104" width="2" height="2" fill="hsl(0, 100%, 60%)" />
<rect x="50" y="106" width="2" height="2" fill="hsl(0, 100%, 60%)" />
<rect x="52" y="106" width="2" height="2" fill="hsl(0, 100%, 60%)" />
<rect x="48" y="108" width="2" height="2" fill="hsl(0, 100%, 60%)" />
<rect x="52" y="108" width="2" height="2" fill="hsl(0, 100%, 60%)" />
<rect x="52" y="110" width="2" height="2" fill="hsl(0, 100%, 60%)" />
<rect x="88" y="114" width="2" height="2" fill="hsl(0, 100%, 60%)" />
<rect x="86" y="116" width="2" height="2" fill="hsl(0, 100%, 60%)" />
<rect x="88" y="116" width="2" height="2" fill="hsl(0, 100%, 60%)" />
<rect x="90" y="116" width="2" height="2" fill="hsl(0, 100%, 60%)" />
<rect x="86" y="118" width="2" height="2" fill="hsl(0, 100%, 60%)" />
<rect x="90" y="118" width="2" height="2" fill="hsl(0, 100%, 60%)" />
<rect x="92" y="118" width="2" height="2" fill="hsl(0, 100%, 60%)" />
<rect x="88" y="120" width="2" height="2" fill="hsl(0, 100%, 60%)" />
<rect x="90" y="120" width="2" height="2" fill="hsl(0, 100%, 60%)" />
<rect x="92" y="120" width="2" height="2" fill="hsl(0, 100%, 60%)" />
<rect x="88" y="122" width="2" height="2" fill="hsl(0, 100%, 60%)" />
<rect x="90" y="122" width="2" height="2" fill="hsl(0, 100%, 60%)" />
</svg>