<?xml version="1.0" encoding="utf-8"?>
<svg xmlns="http://www.w3.org/2000/svg" width="122" height="122" viewBox="0 0 122 122">
<rect width="100%" height="100%" fill="transparent" />
<rect x="16" y="4" width="3" height="3" fill="hsl(0, 100%, 60%)" />
<rect x="19" y="4" width="3" height="3" fill="hsl(0, 100%, 60%)" />
<rect x="28" y="4" width="3" height="3" fill="hsl(0, 100%, 60%)" />
<rect x="31" y="4" width="3" height="3" fill="hsl(0, 100%, 60%)" />
<rect x="40" y="4" width="3" height="3" fill="hsl(0, 100%, 60%)" />
<rect x="43" y="4" width="3" height="3" fill="hsl(0, 100%, 60%)" />
<rect x="52" y="4" width="3" height="3" fill="hsl(0, 100%, 60%)" />
<rect x="55" y="4" width="3" height="3" fill="hsl(0, 100%, 60%)" />
<rect x="64" y="4" width="3" height="3" fill="hsl(0, 100%, 60%)" />
<rect x="67" y="4" width="3" height="3" fill="hsl(0, 100%, 60%)" />
<rect x="76" y="4" width="3" height="3" fill="hsl(0, 100%, 60%)" />
<rect x="79" y="4" width="3" height="3" fill="hsl(0, 100%, 60%)" />
<rect x="88" y="4" width="3" height="3" fill="hsl(0, 100%, 60%)" />
<rect x="91" y="4" width="3" height="3" fill="hsl(0, 100%, 60%)" />
<rect x="100" y="4" width="3" height="3" fill="hsl(0, 100%, 60%)" />
<rect x="103" y="4" width="3" height="3" fill="hsl(0, 100%, 60%)" />
<rect x="16" y="7" width="3" height="3" fill="hsl(0, 100%, 60%)" />
<rect x="25" y="7" width="3" height="3" fill="hsl(0, 100%, 60%)" />
<rect x="31" y="7" width="3" height="3" fill="hsl(0, 100%, 60%)" />
<rect x="40" y="7" width="3" height="3" fill="hsl(0, 100%, 60%)" />
<rect x="49" y="7" width="3" height="3" fill="hsl(0, 100%, 60%)" />
<rect x="55" y="7" width="3" height="3" fill="hsl(0, 100%, 60%)" />
<rect x="64" y="7" width="3" height="3" fill="hsl(0, 100%, 60%)" />
<rect x="73" y="7" width="3" height="3" fill="hsl(0, 100%, 60%)" />
<rect x="79" y="7" width="3" height="3" fill="hsl(0, 100%, 60%)" />
<rect x="88" y="7" width="3" height="3" fill="hsl(0, 100%, 60%)" />
<rect x="97" y="7" width="3" height="3" fill="hsl(0, 100%, 60%)" />
<rect x="103" y="7" width="3" height="3" fill="hsl(0, 100%, 60%)" />
<rect x="19" y="10" width="3" height="3" fill="hsl(0, 100%, 60%)" />
<rect x="43" y="10" width="3" height="3" fill="hsl(0, 100%, 60%)" />
<rect x="67" y="10" width="3" height="3" fill="hsl(0, 100%, 60%)" />
<rect x="91" y="10" width="3" height="3" fill="hsl(0, 100%, 60%)" />
<rect x="28" y="13" width="3" height="3" fill="hsl(0, 100%, 60%)" />
<rect x="52" y="13" width="3" height="3" fill="hsl(0, 100%, 60%)" />
<rect x="76" y="13" width="3" height="3" fill="hsl(0, 100%, 60%)" />
<rect x="100" y="13" width="3" height="3" fill="hsl(0, 100%, 60%)" />
<rect x="4" y="16" width="3" height="3" fill="hsl(0, 100%, 60%)" />
<rect x="7" y="16" width="3" height="3" fill="hsl(0, 100%, 60%)" />
<rect x="16" y="16" width="3" height="3" fill="hsl(0, 100%, 60%)" />
<rect x="22" y="16" width="3" height="3" fill="hsl(0, 100%, 60%)" />
<rect x="40" y="16" width="3" height="3" fill="hsl(0, 100%, 60%)" />
<rect x="46" y="16" width="3" height="3" fill="hsl(0, 100%, 60%)" />
<rect x="64" y="16" width="3" height="3" fill="hsl(0, 100%, 60%)" />
<rect x="70" y="16" width="3" height="3" fill="hsl(0, 100%, 60%)" />
<rect x="88" y="16" width="3" height="3" fill="hsl(0, 100%, 60%)" />
<rect x="94" y="16" width="3" height="3" fill="hsl(0, 100%, 60%)" />
<rect x="112" y="16" width="3" height="3" fill="hsl(0, 100%, 60%)" />
<rect x="115" y="16" width="3" height="3" fill="hsl(0, 100%, 60%)" />
<rect x="4" y="19" width="3" height="3" fill="hsl(0, 100%, 60%)" />
<rect x="10" y="19" width="3" height="3" fill="hsl(0, 100%, 60%)" />
<rect x="28" y="19" width="3" height="3" fill="hsl(0, 100%, 60%)" />
<rect x="34" y="19" width="3" height="3" fill="hsl(0, 100%, 60%)" />
<rect x="52" y="19" width="3" height="3" fill="hsl(0, 100%, 60%)" />
<rect x="58" y="19" width="3" height="3" fill="hsl(0, 100%, 60%)" />
<rect x="76" y="19" width="3" height="3" fill="hsl(0, 100%, 60%)" />
<rect x="82" y="19" width="3" height="3" fill="hsl(0, 100%, 60%)" />
<rect x="100" y="19" width="3" height="3" fill="hsl(0, 100%, 60%)" />
<rect x="106" y="19" width="3" height="3" fill="hsl(0, 100%, 60%)" />
<rect x="115" y="19" width="3" height="3" fill="hsl(0, 100%, 60%)" />
<rect x="16" y="22" width="3" height="3" fill="hsl(0, 100%, 60%)" />
<rect x="40" y="22" width="3" height="3" fill="hsl(0, 100%, 60%)" />
<rect x="64" y="22" width="3" height="3" fill="hsl(0, 100%, 60%)" />
<rect x="88" y="22" width="3" height="3" fill="hsl(0, 100%, 60%)" />
<rect x="112" y="22" width="3" height="3" fill="hsl(0, 100%, 60%)" />
<rect x="7" y="25" width="3" height="3" fill="hsl(0, 100%, 60%)" />
<rect x="31" y="25" width="3" height="3" fill="hsl(0, 100%, 60%)" />
<rect x="55" y="25" width="3" height="3" fill="hsl(0, 100%, 60%)" />
<rect x="79" y="25" width="3" height="3" fill="hsl(0, 100%, 60%)" />
<rect x="103" y="25" width="3" height="3" fill="hsl(0, 100%, 60%)" />
<rect x="4" y="28" width="3" height="3" fill="hsl(0, 100%, 60%)" />
<rect x="13" y="28" width="3" height="3" fill="hsl(0, 100%, 60%)" />
<rect x="19" y="28" width="3" height="3" fill="hsl(0, 100%, 60%)" />
<rect x="37" y="28" width="3" height="3" fill="hsl(0, 100%, 60%)" />
<rect x="43" y="28" width="3" height="3" fill="hsl(0, 100%, 60%)" />
<rect x="61" y="28" width="3" height="3" fill="hsl(0, 100%, 60%)" />
<rect x="67" y="28" width="3" height="3" fill="hsl(0, 100%, 60%)" />
<rect x="85" y="28" width="3" height="3" fill="hsl(0, 100%, 60%)" />
<rect x="91" y="28" width="3" height="3" fill="hsl(0, 100%, 60%)" />
<rect x="109" y="28" width="3" height="3" fill="hsl(0, 100%, 60%)" />
<rect x="115" y="28" width="3" height="3" fill="hsl(0, 100%, 60%)" />
<rect x="4" y="31" width="3" height="3" fill="hsl(0, 100%, 60%)" />
<rect x="7" y="31" width="3" height="3" fill="hsl(0, 100%, 60%)" />
<rect x="25" y="31" width="3" height="3" fill="hsl(0, 100%, 60%)" />
<rect x="31" y="31" width="3" height="3" fill="hsl(0, 100%, 60%)" />
<rect x="49" y="31" width="3" height="3" fill="hsl(0, 100%, 60%)" />
<rect x="55" y="31" width="3" height="3" fill="hsl(0, 100%, 60%)" />
<rect x="73" y="31" width="3" height="3" fill="hsl(0, 100%, 60%)" />
<rect x="79" y="31" width="3" height="3" fill="hsl(0, 100%, 60%)" />
<rect x="97" y="31" width="3" height="3" fill="hsl(0, 100%, 60%)" />
<rect x="103" y="31" width="3" height="3" fill="hsl(0, 100%, 60%)" />
<rect x="112" y="31" width="3" height="3" fill="hsl(0, 100%, 60%)" />
<rect x="115" y="31" width="3" height="3" fill="hsl(0, 100%, 60%)" />
<rect x="19" y="34" width="3" height="3" fill="hsl(0, 100%, 60%)" />
<rect x="43" y="34" width="3" height="3" fill="hsl(0, 100%, 60%)" />
<rect x="67" y="34" width="3" height="3" fill="hsl(0, 100%, 60%)" />
<rect x="91" y="34" width="3" height="3" fill="hsl(0, 100%, 60%)" />
<rect x="28" y="37" width="3" height="3" fill="hsl(0, 100%, 60%)" />
<rect x="52" y="37" width="3" height="3" fill="hsl(0, 100%, 60%)" />
<rect x="76" y="37" width="3" height="3" fill="hsl(0, 100%, 60%)" />
<rect x="100" y="37" width="3" height="3" fill="hsl(0, 100%, 60%)" />
<rect x="4" y="40" width="3" height="3" fill="hsl(0, 100%, 60%)" />
<rect x="7" y="40" width="3" height="3" fill="hsl(0, 100%, 60%)" />
<rect x="16" y="40" width="3" height="3" fill="hsl(0, 100%, 60%)" />
<rect x="22" y="40" width="3" height="3" fill="hsl(0, 100%, 60%)" />
<rect x="40" y="40" width="3" height="3" fill="hsl(0, 100%, 60%)" />
<rect x="46" y="40" width="3" height="3" fill="hsl(0, 100%, 60%)" />
<rect x="64" y="40" width="3" height="3" fill="hsl(0, 100%, 60%)" />
<rect x="70" y="40" width="3" height="3" fill="hsl(0, 100%, 60%)" />
<rect x="88" y="40" width="3" height="3" fill="hsl(0, 100%, 60%)" />
<rect x="94" y="40" width="3" height="3" fill="hsl(0, 100%, 60%)" />
<rect x="112" y="40" width="3" height="3" fill="hsl(0, 100%, 60%)" />
<rect x="115" y="40" width="3" height="3" fill="hsl(0, 100%, 60%)" />
<rect x="4" y="43" width="3" height="3" fill="hsl(0, 100%, 60%)" />
<rect x="10" y="43" width="3" height="3" fill="hsl(0, 100%, 60%)" />
<rect x="28" y="43" width="3" height="3" fill="hsl(0, 100%, 60%)" />
<rect x="34" y="43" width="3" height="3" fill="hsl(0, 100%, 60%)" />
<rect x="52" y="43" width="3" height="3" fill="hsl(0, 100%, 60%)" />
<rect x="58" y="43" width="3" height="3" fill="hsl(0, 100%, 60%)" />
<rect x="76" y="43" width="3" height="3" fill="hsl(0, 100%, 60%)" />
<rect x="82" y="43" width="3" height="3" fill="hsl(0, 100%, 60%)" />
<rect x="100" y="43" width="3" height="3" fill="hsl(0, 100%, 60%)" />
<rect x="106" y="43" width="3" height="3" fill="hsl(0, 100%, 60%)" />
<rect x="115" y="43" width="3" height="3" fill="hsl(0, 100%, 60%)" />
<rect x="16" y="46" width="3" height="3" fill="hsl(0, 100%, 60%)" />
<rect x="40" y="46" width="3" height="3" fill="hsl(0, 100%, 60%)" />
<rect x="64" y="46" width="3" height="3" fill="hsl(0, 100%, 60%)" />
<rect x="88" y="46" width="3" height="3" fill="hsl(0, 100%, 60%)" />
<rect x="112" y="46" width="3" height="3" fill="hsl(0, 100%, 60%)" />
<rect x="7" y="49" width="3" height="3" fill="hsl(0, 100%, 60%)" />
<rect x="31" y="49" width="3" height="3" fill="hsl(0, 100%, 60%)" />
<rect x="55" y="49" width="3" height="3" fill="hsl(0, 100%, 60%)" />
<rect x="79" y="49" width="3" height="3" fill="hsl(0, 100%, 60%)" />
<rect x="103" y="49" width="3" height="3" fill="hsl(0, 100%, 60%)" />
<rect x="4" y="52" width="3" height="3" fill="hsl(0, 100%, 60%)" />
<rect x="13" y="52" width="3" height="3" fill="hsl(0, 100%, 60%)" />
<rect x="19" y="52" width="3" height="3" fill="hsl(0, 100%, 60%)" />
<rect x="37" y="52" width="3" height="3" fill="hsl(0, 100%, 60%)" />
<rect x="43" y="52" width="3" height="3" fill="hsl(0, 100%, 60%)" />
<rect x="61" y="52" width="3" height="3" fill="hsl(0, 100%, 60%)" />
<rect x="67" y="52" width="3" height="3" fill="hsl(0, 100%, 60%)" />
<rect x="85" y="52" width="3" height="3" fill="hsl(0, 100%, 60%)" />
<rect x="91" y="52" width="3" height="3" fill="hsl(0, 100%, 60%)" />
<rect x="109" y="52" width="3" height="3" fill="hsl(0, 100%, 60%)" />
<rect x="115" y="52" width="3" height="3" fill="hsl(0, 100%, 60%)" />
<rect x="4" y="55" width="3" height="3" fill="hsl(0, 100%, 60%)" />
<rect x="7" y="55" width="3" height="3" fill="hsl(0, 100%, 60%)" />
<rect x="25" y="55" width="3" height="3" fill="hsl(0, 100%, 60%)" />
<rect x="31" y="55" width="3" height="3" fill="hsl(0, 100%, 60%)" />
<rect x="49" y="55" width="3" height="3" fill="hsl(0, 100%, 60%)" />
<rect x="55" y="55" width="3" height="3" fill="hsl(0, 100%, 60%)" />
<rect x="73" y="55" width="3" height="3" fill="hsl(0, 100%, 60%)" />
<rect x="79" y="55" width="3" height="3" fill="hsl(0, 100%, 60%)" />
<rect x="97" y="55" width="3" height="3" fill="hsl(0, 100%, 60%)" />
<rect x="103" y="55" width="3" height="3" fill="hsl(0, 100%, 60%)" />
<rect x="112" y="55" width="3" height="3" fill="hsl(0, 100%, 60%)" />
<rect x="115" y="55" width="3" height="3" fill="hsl(0, 100%, 60%)" />
<rect x="19" y="58" width="3" height="3" fill="hsl(0, 100%, 60%)" />
<rect x="43" y="58" width="3" height="3" fill="hsl(0, 100%, 60%)" />
<rect x="67" y="58" width="3" height="3" fill="hsl(0, 100%, 60%)" />
<rect x="91" y="58" width="3" height="3" fill="hsl(0, 100%, 60%)" />
<rect x="28" y="61" width="3" height="3" fill="hsl(0, 100%, 60%)" />
<rect x="52" y="61" width="3" height="3" fill="hsl(0, 100%, 60%)" />
<rect x="76" y="61" width="3" height="3" fill="hsl(0, 100%, 60%)" />
<rect x="100" y="61" width="3" height="3" fill="hsl(0, 100%, 60%)" />
<rect x="4" y="64" width="3" height="3" fill="hsl(0, 100%, 60%)" />
<rect x="7" y="64" width="3" height="3" fill="hsl(0, 100%, 60%)" />
<rect x="16" y="64" width="3" height="3" fill="hsl(0, 100%, 60%)" />
<rect x="22" y="64" width="3" height="3" fill="hsl(0, 100%, 60%)" />
<rect x="40" y="64" width="3" height="3" fill="hsl(0, 100%, 60%)" />
<rect x="46" y="64" width="3" height="3" fill="hsl(0, 100%, 60%)" />
<rect x="64" y="64" width="3" height="3" fill="hsl(0, 100%, 60%)" />
<rect x="70" y="64" width="3" height="3" fill="hsl(0, 100%, 60%)" />
<rect x="88" y="64" width="3" height="3" fill="hsl(0, 100%, 60%)" />
<rect x="94" y="64" width="3" height="3" fill="hsl(0, 100%, 60%)" />
<rect x="112" y="64" width="3" height="3" fill="hsl(0, 100%, 60%)" />
<rect x="115" y="64" width="3" height="3" fill="hsl(0, 100%, 60%)" />
<rect x="4" y="67" width="3" height="3" fill="hsl(0, 100%, 60%)" />
<rect x="10" y="67" width="3" height="3" fill="hsl(0, 100%, 60%)" />
<rect x="28" y="67" width="3" height="3" fill="hsl(0, 100%, 60%)" />
<rect x="34" y="67" width="3" height="3" fill="hsl(0, 100%, 60%)" />
<rect x="52" y="67" width="3" height="3" fill="hsl(0, 100%, 60%)" />
<rect x="58" y="67" width="3" height="3" fill="hsl(0, 100%, 60%)" />
<rect x="76" y="67" width="3" height="3" fill="hsl(0, 100%, 60%)" />
<rect x="82" y="67" width="3" height="3" fill="hsl(0, 100%, 60%)" />
<rect x="100" y="67" width="3" height="3" fill="hsl(0, 100%, 60%)" />
<rect x="106" y="67" width="3" height="3" fill="hsl(0, 100%, 60%)" />
<rect x="115" y="67" width="3" height="3" fill="hsl(0, 100%, 60%)" />
<rect x="16" y="70" width="3" height="3" fill="hsl(0, 100%, 60%)" />
<rect x="40" y="70" width="3" height="3" fill="hsl(0, 100%, 60%)" />
<rect x="64" y="70" width="3" height="3" fill="hsl(0, 100%, 60%)" />
<rect x="88" y="70" width="3" height="3" fill="hsl(0, 100%, 60%)" />
<rect x="112" y="70" width="3" height="3" fill="hsl(0, 100%, 60%)" />
<rect x="7" y="73" width="3" height="3" fill="hsl(0, 100%, 60%)" />
<rect x="31" y="73" width="3" height="3" fill="hsl(0, 100%, 60%)" />
<rect x="55" y="73" width="3" height="3" fill="hsl(0, 100%, 60%)" />
<rect x="79" y="73" width="3" height="3" fill="hsl(0, 100%, 60%)" />
<rect x="103" y="73" width="3" height="3" fill="hsl(0, 100%, 60%)" />
<rect x="4" y="76" width="3" height="3" fill="hsl(0, 100%, 60%)" />
<rect x="13" y="76" width="3" height="3" fill="hsl(0, 100%, 60%)" />
<rect x="19" y="76" width="3" height="3" fill="hsl(0, 100%, 60%)" />
<rect x="37" y="76" width="3" height="3" fill="hsl(0, 100%, 60%)" />
<rect x="43" y="76" width="3" height="3" fill="hsl(0, 100%, 60%)" />
<rect x="61" y="76" width="3" height="3" fill="hsl(0, 100%, 60%)" />
<rect x="67" y="76" width="3" height="3" fill="hsl(0, 100%, 60%)" />
<rect x="85" y="76" width="3" height="3" fill="hsl(0, 100%, 60%)" />
<rect x="91" y="76" width="3" height="3" fill="hsl(0, 100%, 60%)" />
<rect x="109" y="76" width="3" height="3" fill="hsl(0, 100%, 60%)" />
<rect x="115" y="76" width="3" height="3" fill="hsl(0, 100%, 60%)" />
<rect x="4" y="79" width="3" height="3" fill="hsl(0, 100%, 60%)" />
<rect x="7" y="79" width="3" height="3" fill="hsl(0, 100%, 60%)" />
<rect x="25" y="79" width="3" height="3" fill="hsl(0, 100%, 60%)" />
<rect x="31" y="79" width="3" height="3" fill="hsl(0, 100%, 60%)" />
<rect x="49" y="79" width="3" height="3" fill="hsl(0, 100%, 60%)" />
<rect x="55" y="79" width="3" height="3" fill="hsl(0, 100%, 60%)" />
<rect x="73" y="79" width="3" height="3" fill="hsl(0, 100%, 60%)" />
<rect x="79" y="79" width="3" height="3" fill="hsl(0, 100%, 60%)" />
<rect x="97" y="79" width="3" height="3" fill="hsl(0, 100%, 60%)" />
<rect x="103" y="79" width="3" height="3" fill="hsl(0, 100%, 60%)" />
<rect x="112" y="79" width="3" height="3" fill="hsl(0, 100%, 60%)" />
<rect x="115" y="79" width="3" height="3" fill="hsl(0, 100%, 60%)" />
<rect x="19" y="82" width="3" height="3" fill="hsl(0, 100%, 60%)" />
<rect x="43" y="82" width="3" height="3" fill="hsl(0, 100%, 60%)" />
<rect x="67" y="82" width="3" height="3" fill="hsl(0, 100%, 60%)" />
<rect x="91" y="82" width="3" height="3" fill="hsl(0, 100%, 60%)" />
<rect x="28" y="85" width="3" height="3" fill="hsl(0, 100%, 60%)" />
<rect x="52" y="85" width="3" height="3" fill="hsl(0, 100%, 60%)" />
<rect x="76" y="85" width="3" height="3" fill="hsl(0, 100%, 60%)" />
<rect x="100" y="85" width="3" height="3" fill="hsl(0, 100%, 60%)" />
<rect x="4" y="88" width="3" height="3" fill="hsl(0, 100%, 60%)" />
<rect x="7" y="88" width="3" height="3" fill="hsl(0, 100%, 60%)" />
<rect x="16" y="88" width="3" height="3" fill="hsl(0, 100%, 60%)" />
<rect x="22" y="88" width="3" height="3" fill="hsl(0, 100%, 60%)" />
<rect x="40" y="88" width="3" height="3" fill="hsl(0, 100%, 60%)" />
<rect x="46" y="88" width="3" height="3" fill="hsl(0, 100%, 60%)" />
<rect x="64" y="88" width="3" height="3" fill="hsl(0, 100%, 60%)" />
<rect x="70" y="88" width="3" height="3" fill="hsl(0, 100%, 60%)" />
<rect x="88" y="88" width="3" height="3" fill="hsl(0, 100%, 60%)" />
<rect x="94" y="88" width="3" height="3" fill="hsl(0, 100%, 60%)" />
<rect x="112" y="88" width="3" height="3" fill="hsl(0, 100%, 60%)" />
<rect x="115" y="88" width="3" height="3" fill="hsl(0, 100%, 60%)" />
<rect x="4" y="91" width="3" height="3" fill="hsl(0, 100%, 60%)" />
<rect x="10" y="91" width="3" height="3" fill="hsl(0, 100%, 60%)" />
<rect x="28" y="91" width="3" height="3" fill="hsl(0, 100%, 60%)" />
<rect x="34" y="91" width="3" height="3" fill="hsl(0, 100%, 60%)" />
<rect x="52" y="91" width="3" height="3" fill="hsl(0, 100%, 60%)" />
<rect x="58" y="91" width="3" height="3" fill="hsl(0, 100%, 60%)" />
<rect x="76" y="91" width="3" height="3" fill="hsl(0, 100%, 60%)" />
<rect x="82" y="91" width="3" height="3" fill="hsl(0, 100%, 60%)" />
<rect x="100" y="91" width="3" height="3" fill="hsl(0, 100%, 60%)" />
<rect x="106" y="91" width="3" height="3" fill="hsl(0, 100%, 60%)" />
<rect x="115" y="91" width="3" height="3" fill="hsl(0, 100%, 60%)" />
<rect x="16" y="94" width="3" height="3" fill="hsl(0, 100%, 60%)" />
<rect x="40" y="94" width="3" height="3" fill="hsl(0, 100%, 60%)" />
<rect x="64" y="94" width="3" height="3" fill="hsl(0, 100%, 60%)" />
<rect x="88" y="94" width="3" height="3" fill="hsl(0, 100%, 60%)" />
<rect x="112" y="94" width="3" height="3" fill="hsl(0, 100%, 60%)" />
<rect x="7" y="97" width="3" height="3" fill="hsl(0, 100%, 60%)" />
<rect x="31" y="97" width="3" height="3" fill="hsl(0, 100%, 60%)" />
<rect x="55" y="97" width="3" height="3" fill="hsl(0, 100%, 60%)" />
<rect x="79" y="97" width="3" height="3" fill="hsl(0, 100%, 60%)" />
<rect x="103" y="97" width="3" height="3" fill="hsl(0, 100%, 60%)" />
<rect x="4" y="100" width="3" height="3" fill="hsl(0, 100%, 60%)" />
<rect x="13" y="100" width="3" height="3" fill="hsl(0, 100%, 60%)" />
<rect x="19" y="100" width="3" height="3" fill="hsl(0, 100%, 60%)" />
<rect x="37" y="100" width="3" height="3" fill="hsl(0, 100%, 60%)" />
<rect x="43" y="100" width="3" height="3" fill="hsl(0, 100%, 60%)" />
<rect x="61" y="100" width="3" height="3" fill="hsl(0, 100%, 60%)" />
<rect x="67" y="100" width="3" height="3" fill="hsl(0, 100%, 60%)" />
<rect x="85" y="100" width="3" height="3" fill="hsl(0, 100%, 60%)" />
<rect x="91" y="100" width="3" height="3" fill="hsl(0, 100%, 60%)" />
<rect x="109" y="100" width="3" height="3" fill="hsl(0, 100%, 60%)" />
<rect x="115" y="100" width="3" height="3" fill="hsl(0, 100%, 60%)" />
<rect x="4" y="103" width="3" height="3" fill="hsl(0, 100%, 60%)" />
<rect x="7" y="103" width="3" height="3" fill="hsl(0, 100%, 60%)" />
<rect x="25" y="103" width="3" height="3" fill="hsl(0, 100%, 60%)" />
<rect x="31" y="103" width="3" height="3" fill="hsl(0, 100%, 60%)" />
<rect x="49" y="103" width="3" height="3" fill="hsl(0, 100%, 60%)" />
<rect x="55" y="103" width="3" height="3" fill="hsl(0, 100%, 60%)" />
<rect x="73" y="103" width="3" height="3" fill="hsl(0, 100%, 60%)" />
<rect x="79" y="103" width="3" height="3" fill="hsl(0, 100%, 60%)" />
<rect x="97" y="103" width="3" height="3" fill="hsl(0, 100%, 60%)" />
<rect x="103" y="103" width="3" height="3" fill="hsl(0, 100%, 60%)" />
<rect x="112" y="103" width="3" height="3" fill="hsl(0, 100%, 60%)" />
<rect x="115" y="103" width="3" height="3" fill="hsl(0, 100%, 60%)" />
<rect x="19" y="106" width="3" height="3" fill="hsl(0, 100%, 60%)" />
<rect x="43" y="106" width="3" height="3" fill="hsl(0, 100%, 60%)" />
<rect x="67" y="106" width="3" height="3" fill="hsl(0, 100%, 60%)" />
<rect x="91" y="106" width="3" height="3" fill="hsl(0, 100%, 60%)" />
<rect x="28" y="109" width="3" height="3" fill="hsl(0, 100%, 60%)" />
<rect x="52" y="109" width="3" height="3" fill="hsl(0, 100%, 60%)" />
<rect x="76" y="109" width="3" height="3" fill="hsl(0, 100%, 60%)" />
<rect x="100" y="109" width="3" height="3" fill="hsl(0, 100%, 60%)" />
<rect x="16" y="112" width="3" height="3" fill="hsl(0, 100%, 60%)" />
<rect x="22" y="112" width="3" height="3" fill="hsl(0, 100%, 60%)" />
<rect x="31" y="112" width="3" height="3" fill="hsl(0, 100%, 60%)" />
<rect x="40" y="112" width="3" height="3" fill="hsl(0, 100%, 60%)" />
<rect x="46" y="112" width="3" height="3" fill="hsl(0, 100%, 60%)" />
<rect x="55" y="112" width="3" height="3" fill="hsl(0, 100%, 60%)" />
<rect x="64" y="112" width="3" height="3" fill="hsl(0, 100%, 60%)" />
<rect x="70" y="112" width="3" height="3" fill="hsl(0, 100%, 60%)" />
<rect x="79" y="112" width="3" height="3" fill="hsl(0, 100%, 60%)" />
<rect x="88" y="112" width="3" height="3" fill="hsl(0, 100%, 60%)" />
<rect x="94" y="112" width="3" height="3" fill="hsl(0, 100%, 60%)" />
<rect x="103" y="112" width="3" height="3" fill="hsl(0, 100%, 60%)" />
<rect x="16" y="115" width="3" height="3" fill="hsl(0, 100%, 60%)" />
<rect x="19" y="115" width="3" height="3" fill="hsl(0, 100%, 60%)" />
<rect x="28" y="115" width="3" height="3" fill="hsl(0, 100%, 60%)" />
<rect x="31" y="115" width="3" height="3" fill="hsl(0, 100%, 60%)" />
<rect x="40" y="115" width="3" height="3" fill="hsl(0, 100%, 60%)" />
<rect x="43" y="115" width="3" height="3" fill="hsl(0, 100%, 60%)" />
<rect x="52" y="115" width="3" height="3" fill="hsl(0, 100%, 60%)" />
<rect x="55" y="115" width="3" height="3" fill="hsl(0, 100%, 60%)" />
<rect x="64" y="115" width="3" height="3" fill="hsl(0, 100%, 60%)" />
<rect x="67" y="115" width="3" height="3" fill="hsl(0, 100%, 60%)" />
<rect x="76" y="115" width="3" height="3" fill="hsl(0, 100%, 60%)" />
<rect x="79" y="115" width="3" height="3" fill="hsl(0, 100%, 60%)" />
<rect x="88" y="115" width="3" height="3" fill="hsl(0, 100%, 60%)" />
<rect x="91" y="115" width="3" height="3" fill="hsl(0, 100%, 60%)" />
<rect x="100" y="115" width="3" height="3" fill="hsl(0, 100%, 60%)" />
<rect x="103" y="115" width="3" height="3" fill="hsl(0, 100%, 60%)" />
</svg>