<?xml version="1.0" encoding="utf-8"?>
<svg xmlns="http://www.w3.org/2000/svg" width="125" height="89" viewBox="0 0 125 89">
<rect width="100%" height="100%" fill="transparent" />
<rect x="85" y="4" width="9" height="9" fill="hsl(0, 100%, 60%)" />
<rect x="112" y="4" width="9" height="9" fill="hsl(0, 100%, 60%)" />
<rect x="76" y="13" width="9" height="9" fill="hsl(0, 100%, 60%)" />
<rect x="76" y="22" width="9" height="9" fill="hsl(0, 100%, 60%)" />
<rect x="112" y="22" width="9" height="9" fill="hsl(0, 100%, 60%)" />
<rect x="76" y="31" width="9" height="9" fill="hsl(0, 100%, 60%)" />
<rect x="85" y="31" width="9" height="9" fill="hsl(0, 100%, 60%)" />
<rect x="94" y="31" width="9" height="9" fill="hsl(0, 100%, 60%)" />
<rect x="103" y="31" width="9" height="9" fill="hsl(0, 100%, 60%)" />
<rect x="13" y="49" width="9" height="9" fill="hsl(0, 100%, 60%)" />
<rect x="22" y="49" width="9" height="9" fill="hsl(0, 100%, 60%)" />
<rect x="31" y="49" width="9" height="9" fill="hsl(0, 100%, 60%)" />
<rect x="40" y="49" width="9" height="9" fill="hsl(0, 100%, 60%)" />
<rect x="4" y="58" width="9" height="9" fill="hsl(0, 100%, 60%)" />
<rect x="40" y="58" width="9" height="9" fill="hsl(0, 100%, 60%)" />
<rect x="40" y="67" width="9" height="9" fill="hsl(0, 100%, 60%)" />
<rect x="4" y="76" width="9" height="9" fill="hsl(0, 100%, 60%)" />
<rect x="31" y="76" width="9" height="9" fill="hsl(0, 100%, 60%)" />
</svg>