<?xml version="1.0" encoding="utf-8"?>
<svg xmlns="http://www.w3.org/2000/svg" width="94" height="44" viewBox="0 0 94 44">
<rect width="100%" height="100%" fill="transparent" />
<rect x="34" y="4" width="2" height="2" fill="hsl(0, 100%, 60%)" />
<rect x="36" y="4" width="2" height="2" fill="hsl(0, 100%, 60%)" />
<rect x="86" y="4" width="2" height="2" fill="hsl(0, 100%, 60%)" />
<rect x="88" y="4" width="2" height="2" fill="hsl(0, 100%, 60%)" />
<rect x="34" y="6" width="2" height="2" fill="hsl(0, 100%, 60%)" />
<rect x="36" y="6" width="2" height="2" fill="hsl(0, 100%, 60%)" />
<rect x="86" y="6" width="2" height="2" fill="hsl(0, 100%, 60%)" />
<rect x="88" y="6" width="2" height="2" fill="hsl(0, 100%, 60%)" />
<rect x="26" y="10" width="2" height="2" fill="hsl(0, 100%, 60%)" />
<rect x="24" y="12" width="2" height="2" fill="hsl(0, 100%, 60%)" />
<rect x="28" y="12" width="2" height="2" fill="hsl(0, 100%, 60%)" />
<rect x="26" y="14" width="2" height="2" fill="hsl(0, 100%, 60%)" />
<rect x="28" y="14" width="2" height="2" fill="hsl(0, 100%, 60%)" />
<rect x="16" y="20" width="2" height="2" fill="hsl(0, 100%, 60%)" />
<rect x="18" y="20" width="2" height="2" fill="hsl(0, 100%, 60%)" />
<rect x="68" y="20" width="2" height="2" fill="hsl(0, 100%, 60%)" />
<rect x="70" y="20" width="2" height="2" fill="hsl(0, 100%, 60%)" />
<rect x="14" y="22" width="2" height="2" fill="hsl(0, 100%, 60%)" />
<rect x="20" y="22" width="2" height="2" fill="hsl(0, 100%, 60%)" />
<rect x="66" y="22" width="2" height="2" fill="hsl(0, 100%, 60%)" />
<rect x="72" y="22" width="2" height="2" fill="hsl(0, 100%, 60%)" />
<rect x="16" y="24" width="2" height="2" fill="hsl(0, 100%, 60%)" />
<rect x="18" y="24" width="2" height="2" fill="hsl(0, 100%, 60%)" />
<rect x="68" y="24" width="2" height="2" fill="hsl(0, 100%, 60%)" />
<rect x="70" y="24" width="2" height="2" fill="hsl(0, 100%, 60%)" />
<rect x="6" y="30" width="2" height="2" fill="hsl(0, 100%, 60%)" />
<rect x="8" y="30" width="2" height="2" fill="hsl(0, 100%, 60%)" />
<rect x="58" y="30" width="2" height="2" fill="hsl(0, 100%, 60%)" />
<rect x="60" y="30" width="2" height="2" fill="hsl(0, 100%, 60%)" />
<rect x="4" y="32" width="2" height="2" fill="hsl(0, 100%, 60%)" />
<rect x="10" y="32" width="2" height="2" fill="hsl(0, 100%, 60%)" />
<rect x="56" y="32" width="2" height="2" fill="hsl(0, 100%, 60%)" />
<rect x="62" y="32" width="2" height="2" fill="hsl(0, 100%, 60%)" />
<rect x="6" y="34" width="2" height="2" fill="hsl(0, 100%, 60%)" />
<rect x="8" y="34" width="2" height="2" fill="hsl(0, 100%, 60%)" />
<rect x="22" y="34" width="2" height="2" fill="hsl(0, 100%, 60%)" />
<rect x="24" y="34" width="2" height="2" fill="hsl(0, 100%, 60%)" />
<rect x="26" y="34" width="2" height="2" fill="hsl(0, 100%, 60%)" />
<rect x="58" y="34" width="2" height="2" fill="hsl(0, 100%, 60%)" />
<rect x="60" y="34" width="2" height="2" fill="hsl(0, 100%, 60%)" />
<rect x="74" y="34" width="2" height="2" fill="hsl(0, 100%, 60%)" />
<rect x="76" y="34" width="2" height="2" fill="hsl(0, 100%, 60%)" />
<rect x="78" y="34" width="2" height="2" fill="hsl(0, 100%, 60%)" />
<rect x="22" y="36" width="2" height="2" fill="hsl(0, 100%, 60%)" />
<rect x="74" y="36" width="2" height="2" fill="hsl(0, 100%, 60%)" />
<rect x="24" y="38" width="2" height="2" fill="hsl(0, 100%, 60%)" />
<rect x="76" y="38" width="2" height="2" fill="hsl(0, 100%, 60%)" />
</svg>