<?xml version="1.0" encoding="utf-8"?>
<svg xmlns="http://www.w3.org/2000/svg" width="124" height="84" viewBox="0 0 124 84">
<rect width="100%" height="100%" fill="transparent" />
<rect x="80" y="4" width="4" height="4" fill="hsl(0, 100%, 60%)" />
<rect x="84" y="8" width="4" height="4" fill="hsl(0, 100%, 60%)" />
<rect x="76" y="12" width="4" height="4" fill="hsl(0, 100%, 60%)" />
<rect x="80" y="12" width="4" height="4" fill="hsl(0, 100%, 60%)" />
<rect x="84" y="12" width="4" height="4" fill="hsl(0, 100%, 60%)" />
<rect x="52" y="36" width="4" height="4" fill="hsl(0, 100%, 60%)" />
<rect x="68" y="36" width="4" height="4" fill="hsl(0, 100%, 60%)" />
<rect x="92" y="36" width="4" height="4" fill="hsl(0, 100%, 60%)" />
<rect x="100" y="36" width="4" height="4" fill="hsl(0, 100%, 60%)" />
<rect x="104" y="36" width="4" height="4" fill="hsl(0, 100%, 60%)" />
<rect x="4" y="40" width="4" height="4" fill="hsl(0, 100%, 60%)" />
<rect x="8" y="40" width="4" height="4" fill="hsl(0, 100%, 60%)" />
<rect x="48" y="40" width="4" height="4" fill="hsl(0, 100%, 60%)" />
<rect x="72" y="40" width="4" height="4" fill="hsl(0, 100%, 60%)" />
<rect x="92" y="40" width="4" height="4" fill="hsl(0, 100%, 60%)" />
<rect x="100" y="40" width="4" height="4" fill="hsl(0, 100%, 60%)" />
<rect x="108" y="40" width="4" height="4" fill="hsl(0, 100%, 60%)" />
<rect x="4" y="44" width="4" height="4" fill="hsl(0, 100%, 60%)" />
<rect x="8" y="44" width="4" height="4" fill="hsl(0, 100%, 60%)" />
<rect x="48" y="44" width="4" height="4" fill="hsl(0, 100%, 60%)" />
<rect x="88" y="44" width="4" height="4" fill="hsl(0, 100%, 60%)" />
<rect x="108" y="44" width="4" height="4" fill="hsl(0, 100%, 60%)" />
<rect x="48" y="48" width="4" height="4" fill="hsl(0, 100%, 60%)" />
<rect x="52" y="48" width="4" height="4" fill="hsl(0, 100%, 60%)" />
<rect x="68" y="48" width="4" height="4" fill="hsl(0, 100%, 60%)" />
<rect x="92" y="48" width="4" height="4" fill="hsl(0, 100%, 60%)" />
<rect x="100" y="48" width="4" height="4" fill="hsl(0, 100%, 60%)" />
<rect x="108" y="48" width="4" height="4" fill="hsl(0, 100%, 60%)" />
<rect x="56" y="52" width="4" height="4" fill="hsl(0, 100%, 60%)" />
<rect x="60" y="52" width="4" height="4" fill="hsl(0, 100%, 60%)" />
<rect x="64" y="52" width="4" height="4" fill="hsl(0, 100%, 60%)" />
<rect x="92" y="52" width="4" height="4" fill="hsl(0, 100%, 60%)" />
<rect x="100" y="52" width="4" height="4" fill="hsl(0, 100%, 60%)" />
<rect x="104" y="52" width="4" height="4" fill="hsl(0, 100%, 60%)" />
<rect x="56" y="60" width="4" height="4" fill="hsl(0, 100%, 60%)" />
<rect x="60" y="60" width="4" height="4" fill="hsl(0, 100%, 60%)" />
<rect x="64" y="60" width="4" height="4" fill="hsl(0, 100%, 60%)" />
<rect x="48" y="64" width="4" height="4" fill="hsl(0, 100%, 60%)" />
<rect x="52" y="64" width="4" height="4" fill="hsl(0, 100%, 60%)" />
<rect x="68" y="64" width="4" height="4" fill="hsl(0, 100%, 60%)" />
<rect x="4" y="68" width="4" height="4" fill="hsl(0, 100%, 60%)" />
<rect x="8" y="68" width="4" height="4" fill="hsl(0, 100%, 60%)" />
<rect x="48" y="68" width="4" height="4" fill="hsl(0, 100%, 60%)" />
<rect x="112" y="68" width="4" height="4" fill="hsl(0, 100%, 60%)" />
<rect x="116" y="68" width="4" height="4" fill="hsl(0, 100%, 60%)" />
<rect x="4" y="72" width="4" height="4" fill="hsl(0, 100%, 60%)" />
<rect x="8" y="72" width="4" height="4" fill="hsl(0, 100%, 60%)" />
<rect x="48" y="72" width="4" height="4" fill="hsl(0, 100%, 60%)" />
<rect x="72" y="72" width="4" height="4" fill="hsl(0, 100%, 60%)" />
<rect x="112" y="72" width="4" height="4" fill="hsl(0, 100%, 60%)" />
<rect x="116" y="72" width="4" height="4" fill="hsl(0, 100%, 60%)" />
<rect x="52" y="76" width="4" height="4" fill="hsl(0, 100%, 60%)" />
<rect x="68" y="76" width="4" height="4" fill="hsl(0, 100%, 60%)" />
</svg>