<?xml version="1.0" encoding="utf-8"?>
<svg xmlns="http://www.w3.org/2000/svg" width="104" height="104" viewBox="0 0 104 104">
<rect width="100%" height="100%" fill="transparent" />
<rect x="64" y="4" width="3" height="3" fill="hsl(0, 100%, 60%)" />
<rect x="28" y="7" width="3" height="3" fill="hsl(0, 100%, 60%)" />
<rect x="31" y="7" width="3" height="3" fill="hsl(0, 100%, 60%)" />
<rect x="58" y="7" width="3" height="3" fill="hsl(0, 100%, 60%)" />
<rect x="61" y="7" width="3" height="3" fill="hsl(0, 100%, 60%)" />
<rect x="64" y="7" width="3" height="3" fill="hsl(0, 100%, 60%)" />
<rect x="31" y="10" width="3" height="3" fill="hsl(0, 100%, 60%)" />
<rect x="55" y="10" width="3" height="3" fill="hsl(0, 100%, 60%)" />
<rect x="31" y="13" width="3" height="3" fill="hsl(0, 100%, 60%)" />
<rect x="37" y="13" width="3" height="3" fill="hsl(0, 100%, 60%)" />
<rect x="55" y="13" width="3" height="3" fill="hsl(0, 100%, 60%)" />
<rect x="58" y="13" width="3" height="3" fill="hsl(0, 100%, 60%)" />
<rect x="34" y="16" width="3" height="3" fill="hsl(0, 100%, 60%)" />
<rect x="37" y="16" width="3" height="3" fill="hsl(0, 100%, 60%)" />
<rect x="79" y="16" width="3" height="3" fill="hsl(0, 100%, 60%)" />
<rect x="73" y="19" width="3" height="3" fill="hsl(0, 100%, 60%)" />
<rect x="76" y="19" width="3" height="3" fill="hsl(0, 100%, 60%)" />
<rect x="79" y="19" width="3" height="3" fill="hsl(0, 100%, 60%)" />
<rect x="16" y="22" width="3" height="3" fill="hsl(0, 100%, 60%)" />
<rect x="19" y="22" width="3" height="3" fill="hsl(0, 100%, 60%)" />
<rect x="46" y="22" width="3" height="3" fill="hsl(0, 100%, 60%)" />
<rect x="49" y="22" width="3" height="3" fill="hsl(0, 100%, 60%)" />
<rect x="52" y="22" width="3" height="3" fill="hsl(0, 100%, 60%)" />
<rect x="70" y="22" width="3" height="3" fill="hsl(0, 100%, 60%)" />
<rect x="19" y="25" width="3" height="3" fill="hsl(0, 100%, 60%)" />
<rect x="43" y="25" width="3" height="3" fill="hsl(0, 100%, 60%)" />
<rect x="52" y="25" width="3" height="3" fill="hsl(0, 100%, 60%)" />
<rect x="73" y="25" width="3" height="3" fill="hsl(0, 100%, 60%)" />
<rect x="19" y="28" width="3" height="3" fill="hsl(0, 100%, 60%)" />
<rect x="25" y="28" width="3" height="3" fill="hsl(0, 100%, 60%)" />
<rect x="52" y="28" width="3" height="3" fill="hsl(0, 100%, 60%)" />
<rect x="61" y="28" width="3" height="3" fill="hsl(0, 100%, 60%)" />
<rect x="73" y="28" width="3" height="3" fill="hsl(0, 100%, 60%)" />
<rect x="94" y="28" width="3" height="3" fill="hsl(0, 100%, 60%)" />
<rect x="22" y="31" width="3" height="3" fill="hsl(0, 100%, 60%)" />
<rect x="25" y="31" width="3" height="3" fill="hsl(0, 100%, 60%)" />
<rect x="34" y="31" width="3" height="3" fill="hsl(0, 100%, 60%)" />
<rect x="49" y="31" width="3" height="3" fill="hsl(0, 100%, 60%)" />
<rect x="58" y="31" width="3" height="3" fill="hsl(0, 100%, 60%)" />
<rect x="88" y="31" width="3" height="3" fill="hsl(0, 100%, 60%)" />
<rect x="91" y="31" width="3" height="3" fill="hsl(0, 100%, 60%)" />
<rect x="94" y="31" width="3" height="3" fill="hsl(0, 100%, 60%)" />
<rect x="31" y="34" width="3" height="3" fill="hsl(0, 100%, 60%)" />
<rect x="58" y="34" width="3" height="3" fill="hsl(0, 100%, 60%)" />
<rect x="67" y="34" width="3" height="3" fill="hsl(0, 100%, 60%)" />
<rect x="85" y="34" width="3" height="3" fill="hsl(0, 100%, 60%)" />
<rect x="4" y="37" width="3" height="3" fill="hsl(0, 100%, 60%)" />
<rect x="7" y="37" width="3" height="3" fill="hsl(0, 100%, 60%)" />
<rect x="31" y="37" width="3" height="3" fill="hsl(0, 100%, 60%)" />
<rect x="40" y="37" width="3" height="3" fill="hsl(0, 100%, 60%)" />
<rect x="58" y="37" width="3" height="3" fill="hsl(0, 100%, 60%)" />
<rect x="61" y="37" width="3" height="3" fill="hsl(0, 100%, 60%)" />
<rect x="64" y="37" width="3" height="3" fill="hsl(0, 100%, 60%)" />
<rect x="85" y="37" width="3" height="3" fill="hsl(0, 100%, 60%)" />
<rect x="88" y="37" width="3" height="3" fill="hsl(0, 100%, 60%)" />
<rect x="7" y="40" width="3" height="3" fill="hsl(0, 100%, 60%)" />
<rect x="31" y="40" width="3" height="3" fill="hsl(0, 100%, 60%)" />
<rect x="34" y="40" width="3" height="3" fill="hsl(0, 100%, 60%)" />
<rect x="37" y="40" width="3" height="3" fill="hsl(0, 100%, 60%)" />
<rect x="7" y="43" width="3" height="3" fill="hsl(0, 100%, 60%)" />
<rect x="13" y="43" width="3" height="3" fill="hsl(0, 100%, 60%)" />
<rect x="10" y="46" width="3" height="3" fill="hsl(0, 100%, 60%)" />
<rect x="13" y="46" width="3" height="3" fill="hsl(0, 100%, 60%)" />
<rect x="76" y="46" width="3" height="3" fill="hsl(0, 100%, 60%)" />
<rect x="79" y="46" width="3" height="3" fill="hsl(0, 100%, 60%)" />
<rect x="82" y="46" width="3" height="3" fill="hsl(0, 100%, 60%)" />
<rect x="49" y="49" width="3" height="3" fill="hsl(0, 100%, 60%)" />
<rect x="52" y="49" width="3" height="3" fill="hsl(0, 100%, 60%)" />
<rect x="55" y="49" width="3" height="3" fill="hsl(0, 100%, 60%)" />
<rect x="73" y="49" width="3" height="3" fill="hsl(0, 100%, 60%)" />
<rect x="82" y="49" width="3" height="3" fill="hsl(0, 100%, 60%)" />
<rect x="22" y="52" width="3" height="3" fill="hsl(0, 100%, 60%)" />
<rect x="25" y="52" width="3" height="3" fill="hsl(0, 100%, 60%)" />
<rect x="28" y="52" width="3" height="3" fill="hsl(0, 100%, 60%)" />
<rect x="46" y="52" width="3" height="3" fill="hsl(0, 100%, 60%)" />
<rect x="55" y="52" width="3" height="3" fill="hsl(0, 100%, 60%)" />
<rect x="82" y="52" width="3" height="3" fill="hsl(0, 100%, 60%)" />
<rect x="19" y="55" width="3" height="3" fill="hsl(0, 100%, 60%)" />
<rect x="28" y="55" width="3" height="3" fill="hsl(0, 100%, 60%)" />
<rect x="55" y="55" width="3" height="3" fill="hsl(0, 100%, 60%)" />
<rect x="64" y="55" width="3" height="3" fill="hsl(0, 100%, 60%)" />
<rect x="79" y="55" width="3" height="3" fill="hsl(0, 100%, 60%)" />
<rect x="88" y="55" width="3" height="3" fill="hsl(0, 100%, 60%)" />
<rect x="91" y="55" width="3" height="3" fill="hsl(0, 100%, 60%)" />
<rect x="28" y="58" width="3" height="3" fill="hsl(0, 100%, 60%)" />
<rect x="37" y="58" width="3" height="3" fill="hsl(0, 100%, 60%)" />
<rect x="52" y="58" width="3" height="3" fill="hsl(0, 100%, 60%)" />
<rect x="61" y="58" width="3" height="3" fill="hsl(0, 100%, 60%)" />
<rect x="88" y="58" width="3" height="3" fill="hsl(0, 100%, 60%)" />
<rect x="94" y="58" width="3" height="3" fill="hsl(0, 100%, 60%)" />
<rect x="13" y="61" width="3" height="3" fill="hsl(0, 100%, 60%)" />
<rect x="25" y="61" width="3" height="3" fill="hsl(0, 100%, 60%)" />
<rect x="34" y="61" width="3" height="3" fill="hsl(0, 100%, 60%)" />
<rect x="61" y="61" width="3" height="3" fill="hsl(0, 100%, 60%)" />
<rect x="70" y="61" width="3" height="3" fill="hsl(0, 100%, 60%)" />
<rect x="94" y="61" width="3" height="3" fill="hsl(0, 100%, 60%)" />
<rect x="13" y="64" width="3" height="3" fill="hsl(0, 100%, 60%)" />
<rect x="34" y="64" width="3" height="3" fill="hsl(0, 100%, 60%)" />
<rect x="43" y="64" width="3" height="3" fill="hsl(0, 100%, 60%)" />
<rect x="61" y="64" width="3" height="3" fill="hsl(0, 100%, 60%)" />
<rect x="64" y="64" width="3" height="3" fill="hsl(0, 100%, 60%)" />
<rect x="67" y="64" width="3" height="3" fill="hsl(0, 100%, 60%)" />
<rect x="94" y="64" width="3" height="3" fill="hsl(0, 100%, 60%)" />
<rect x="97" y="64" width="3" height="3" fill="hsl(0, 100%, 60%)" />
<rect x="16" y="67" width="3" height="3" fill="hsl(0, 100%, 60%)" />
<rect x="34" y="67" width="3" height="3" fill="hsl(0, 100%, 60%)" />
<rect x="37" y="67" width="3" height="3" fill="hsl(0, 100%, 60%)" />
<rect x="40" y="67" width="3" height="3" fill="hsl(0, 100%, 60%)" />
<rect x="7" y="70" width="3" height="3" fill="hsl(0, 100%, 60%)" />
<rect x="10" y="70" width="3" height="3" fill="hsl(0, 100%, 60%)" />
<rect x="13" y="70" width="3" height="3" fill="hsl(0, 100%, 60%)" />
<rect x="76" y="70" width="3" height="3" fill="hsl(0, 100%, 60%)" />
<rect x="79" y="70" width="3" height="3" fill="hsl(0, 100%, 60%)" />
<rect x="7" y="73" width="3" height="3" fill="hsl(0, 100%, 60%)" />
<rect x="76" y="73" width="3" height="3" fill="hsl(0, 100%, 60%)" />
<rect x="82" y="73" width="3" height="3" fill="hsl(0, 100%, 60%)" />
<rect x="28" y="76" width="3" height="3" fill="hsl(0, 100%, 60%)" />
<rect x="31" y="76" width="3" height="3" fill="hsl(0, 100%, 60%)" />
<rect x="52" y="76" width="3" height="3" fill="hsl(0, 100%, 60%)" />
<rect x="55" y="76" width="3" height="3" fill="hsl(0, 100%, 60%)" />
<rect x="58" y="76" width="3" height="3" fill="hsl(0, 100%, 60%)" />
<rect x="82" y="76" width="3" height="3" fill="hsl(0, 100%, 60%)" />
<rect x="31" y="79" width="3" height="3" fill="hsl(0, 100%, 60%)" />
<rect x="49" y="79" width="3" height="3" fill="hsl(0, 100%, 60%)" />
<rect x="58" y="79" width="3" height="3" fill="hsl(0, 100%, 60%)" />
<rect x="82" y="79" width="3" height="3" fill="hsl(0, 100%, 60%)" />
<rect x="85" y="79" width="3" height="3" fill="hsl(0, 100%, 60%)" />
<rect x="22" y="82" width="3" height="3" fill="hsl(0, 100%, 60%)" />
<rect x="25" y="82" width="3" height="3" fill="hsl(0, 100%, 60%)" />
<rect x="28" y="82" width="3" height="3" fill="hsl(0, 100%, 60%)" />
<rect x="58" y="82" width="3" height="3" fill="hsl(0, 100%, 60%)" />
<rect x="22" y="85" width="3" height="3" fill="hsl(0, 100%, 60%)" />
<rect x="43" y="85" width="3" height="3" fill="hsl(0, 100%, 60%)" />
<rect x="55" y="85" width="3" height="3" fill="hsl(0, 100%, 60%)" />
<rect x="64" y="85" width="3" height="3" fill="hsl(0, 100%, 60%)" />
<rect x="67" y="85" width="3" height="3" fill="hsl(0, 100%, 60%)" />
<rect x="43" y="88" width="3" height="3" fill="hsl(0, 100%, 60%)" />
<rect x="64" y="88" width="3" height="3" fill="hsl(0, 100%, 60%)" />
<rect x="70" y="88" width="3" height="3" fill="hsl(0, 100%, 60%)" />
<rect x="46" y="91" width="3" height="3" fill="hsl(0, 100%, 60%)" />
<rect x="70" y="91" width="3" height="3" fill="hsl(0, 100%, 60%)" />
<rect x="37" y="94" width="3" height="3" fill="hsl(0, 100%, 60%)" />
<rect x="40" y="94" width="3" height="3" fill="hsl(0, 100%, 60%)" />
<rect x="43" y="94" width="3" height="3" fill="hsl(0, 100%, 60%)" />
<rect x="70" y="94" width="3" height="3" fill="hsl(0, 100%, 60%)" />
<rect x="73" y="94" width="3" height="3" fill="hsl(0, 100%, 60%)" />
<rect x="37" y="97" width="3" height="3" fill="hsl(0, 100%, 60%)" />
</svg>