<?xml version="1.0" encoding="utf-8"?>
<svg xmlns="http://www.w3.org/2000/svg" width="110" height="110" viewBox="0 0 110 110">
<rect width="100%" height="100%" fill="transparent" />
<rect x="79" y="4" width="3" height="3" fill="hsl(0, 100%, 60%)" />
<rect x="82" y="4" width="3" height="3" fill="hsl(0, 100%, 60%)" />
<rect x="100" y="4" width="3" height="3" fill="hsl(0, 100%, 60%)" />
<rect x="103" y="4" width="3" height="3" fill="hsl(0, 100%, 60%)" />
<rect x="79" y="7" width="3" height="3" fill="hsl(0, 100%, 60%)" />
<rect x="82" y="7" width="3" height="3" fill="hsl(0, 100%, 60%)" />
<rect x="100" y="7" width="3" height="3" fill="hsl(0, 100%, 60%)" />
<rect x="103" y="7" width="3" height="3" fill="hsl(0, 100%, 60%)" />
<rect x="85" y="43" width="3" height="3" fill="hsl(0, 100%, 60%)" />
<rect x="88" y="43" width="3" height="3" fill="hsl(0, 100%, 60%)" />
<rect x="94" y="43" width="3" height="3" fill="hsl(0, 100%, 60%)" />
<rect x="97" y="43" width="3" height="3" fill="hsl(0, 100%, 60%)" />
<rect x="82" y="46" width="3" height="3" fill="hsl(0, 100%, 60%)" />
<rect x="100" y="46" width="3" height="3" fill="hsl(0, 100%, 60%)" />
<rect x="79" y="52" width="3" height="3" fill="hsl(0, 100%, 60%)" />
<rect x="103" y="52" width="3" height="3" fill="hsl(0, 100%, 60%)" />
<rect x="79" y="55" width="3" height="3" fill="hsl(0, 100%, 60%)" />
<rect x="88" y="55" width="3" height="3" fill="hsl(0, 100%, 60%)" />
<rect x="94" y="55" width="3" height="3" fill="hsl(0, 100%, 60%)" />
<rect x="103" y="55" width="3" height="3" fill="hsl(0, 100%, 60%)" />
<rect x="79" y="58" width="3" height="3" fill="hsl(0, 100%, 60%)" />
<rect x="82" y="58" width="3" height="3" fill="hsl(0, 100%, 60%)" />
<rect x="85" y="58" width="3" height="3" fill="hsl(0, 100%, 60%)" />
<rect x="97" y="58" width="3" height="3" fill="hsl(0, 100%, 60%)" />
<rect x="100" y="58" width="3" height="3" fill="hsl(0, 100%, 60%)" />
<rect x="103" y="58" width="3" height="3" fill="hsl(0, 100%, 60%)" />
<rect x="55" y="73" width="3" height="3" fill="hsl(0, 100%, 60%)" />
<rect x="4" y="76" width="3" height="3" fill="hsl(0, 100%, 60%)" />
<rect x="7" y="76" width="3" height="3" fill="hsl(0, 100%, 60%)" />
<rect x="55" y="76" width="3" height="3" fill="hsl(0, 100%, 60%)" />
<rect x="58" y="76" width="3" height="3" fill="hsl(0, 100%, 60%)" />
<rect x="4" y="79" width="3" height="3" fill="hsl(0, 100%, 60%)" />
<rect x="7" y="79" width="3" height="3" fill="hsl(0, 100%, 60%)" />
<rect x="58" y="79" width="3" height="3" fill="hsl(0, 100%, 60%)" />
<rect x="61" y="79" width="3" height="3" fill="hsl(0, 100%, 60%)" />
<rect x="43" y="82" width="3" height="3" fill="hsl(0, 100%, 60%)" />
<rect x="46" y="82" width="3" height="3" fill="hsl(0, 100%, 60%)" />
<rect x="55" y="82" width="3" height="3" fill="hsl(0, 100%, 60%)" />
<rect x="58" y="82" width="3" height="3" fill="hsl(0, 100%, 60%)" />
<rect x="43" y="94" width="3" height="3" fill="hsl(0, 100%, 60%)" />
<rect x="46" y="94" width="3" height="3" fill="hsl(0, 100%, 60%)" />
<rect x="55" y="94" width="3" height="3" fill="hsl(0, 100%, 60%)" />
<rect x="58" y="94" width="3" height="3" fill="hsl(0, 100%, 60%)" />
<rect x="4" y="97" width="3" height="3" fill="hsl(0, 100%, 60%)" />
<rect x="7" y="97" width="3" height="3" fill="hsl(0, 100%, 60%)" />
<rect x="58" y="97" width="3" height="3" fill="hsl(0, 100%, 60%)" />
<rect x="61" y="97" width="3" height="3" fill="hsl(0, 100%, 60%)" />
<rect x="85" y="97" width="3" height="3" fill="hsl(0, 100%, 60%)" />
<rect x="88" y="97" width="3" height="3" fill="hsl(0, 100%, 60%)" />
<rect x="4" y="100" width="3" height="3" fill="hsl(0, 100%, 60%)" />
<rect x="7" y="100" width="3" height="3" fill="hsl(0, 100%, 60%)" />
<rect x="55" y="100" width="3" height="3" fill="hsl(0, 100%, 60%)" />
<rect x="58" y="100" width="3" height="3" fill="hsl(0, 100%, 60%)" />
<rect x="85" y="100" width="3" height="3" fill="hsl(0, 100%, 60%)" />
<rect x="88" y="100" width="3" height="3" fill="hsl(0, 100%, 60%)" />
<rect x="55" y="103" width="3" height="3" fill="hsl(0, 100%, 60%)" />
</svg>