<?xml version="1.0" encoding="utf-8"?>
<svg xmlns="http://www.w3.org/2000/svg" width="113" height="63" viewBox="0 0 113 63">
<rect width="100%" height="100%" fill="transparent" />
<rect x="54" y="4" width="5" height="5" fill="hsl(0, 100%, 60%)" />
<rect x="59" y="4" width="5" height="5" fill="hsl(0, 100%, 60%)" />
<rect x="69" y="4" width="5" height="5" fill="hsl(0, 100%, 60%)" />
<rect x="34" y="9" width="5" height="5" fill="hsl(0, 100%, 60%)" />
<rect x="39" y="9" width="5" height="5" fill="hsl(0, 100%, 60%)" />
<rect x="44" y="9" width="5" height="5" fill="hsl(0, 100%, 60%)" />
<rect x="54" y="9" width="5" height="5" fill="hsl(0, 100%, 60%)" />
<rect x="64" y="9" width="5" height="5" fill="hsl(0, 100%, 60%)" />
<rect x="69" y="9" width="5" height="5" fill="hsl(0, 100%, 60%)" />
<rect x="74" y="9" width="5" height="5" fill="hsl(0, 100%, 60%)" />
<rect x="14" y="14" width="5" height="5" fill="hsl(0, 100%, 60%)" />
<rect x="24" y="14" width="5" height="5" fill="hsl(0, 100%, 60%)" />
<rect x="79" y="14" width="5" height="5" fill="hsl(0, 100%, 60%)" />
<rect x="99" y="14" width="5" height="5" fill="hsl(0, 100%, 60%)" />
<rect x="104" y="14" width="5" height="5" fill="hsl(0, 100%, 60%)" />
<rect x="4" y="19" width="5" height="5" fill="hsl(0, 100%, 60%)" />
<rect x="9" y="19" width="5" height="5" fill="hsl(0, 100%, 60%)" />
<rect x="34" y="19" width="5" height="5" fill="hsl(0, 100%, 60%)" />
<rect x="39" y="19" width="5" height="5" fill="hsl(0, 100%, 60%)" />
<rect x="69" y="19" width="5" height="5" fill="hsl(0, 100%, 60%)" />
<rect x="89" y="19" width="5" height="5" fill="hsl(0, 100%, 60%)" />
<rect x="94" y="19" width="5" height="5" fill="hsl(0, 100%, 60%)" />
<rect x="99" y="19" width="5" height="5" fill="hsl(0, 100%, 60%)" />
<rect x="104" y="19" width="5" height="5" fill="hsl(0, 100%, 60%)" />
<rect x="14" y="24" width="5" height="5" fill="hsl(0, 100%, 60%)" />
<rect x="24" y="24" width="5" height="5" fill="hsl(0, 100%, 60%)" />
<rect x="29" y="24" width="5" height="5" fill="hsl(0, 100%, 60%)" />
<rect x="44" y="24" width="5" height="5" fill="hsl(0, 100%, 60%)" />
<rect x="69" y="24" width="5" height="5" fill="hsl(0, 100%, 60%)" />
<rect x="74" y="24" width="5" height="5" fill="hsl(0, 100%, 60%)" />
<rect x="79" y="24" width="5" height="5" fill="hsl(0, 100%, 60%)" />
<rect x="89" y="24" width="5" height="5" fill="hsl(0, 100%, 60%)" />
<rect x="44" y="29" width="5" height="5" fill="hsl(0, 100%, 60%)" />
<rect x="69" y="29" width="5" height="5" fill="hsl(0, 100%, 60%)" />
<rect x="14" y="34" width="5" height="5" fill="hsl(0, 100%, 60%)" />
<rect x="24" y="34" width="5" height="5" fill="hsl(0, 100%, 60%)" />
<rect x="29" y="34" width="5" height="5" fill="hsl(0, 100%, 60%)" />
<rect x="44" y="34" width="5" height="5" fill="hsl(0, 100%, 60%)" />
<rect x="69" y="34" width="5" height="5" fill="hsl(0, 100%, 60%)" />
<rect x="74" y="34" width="5" height="5" fill="hsl(0, 100%, 60%)" />
<rect x="79" y="34" width="5" height="5" fill="hsl(0, 100%, 60%)" />
<rect x="89" y="34" width="5" height="5" fill="hsl(0, 100%, 60%)" />
<rect x="4" y="39" width="5" height="5" fill="hsl(0, 100%, 60%)" />
<rect x="9" y="39" width="5" height="5" fill="hsl(0, 100%, 60%)" />
<rect x="34" y="39" width="5" height="5" fill="hsl(0, 100%, 60%)" />
<rect x="39" y="39" width="5" height="5" fill="hsl(0, 100%, 60%)" />
<rect x="69" y="39" width="5" height="5" fill="hsl(0, 100%, 60%)" />
<rect x="89" y="39" width="5" height="5" fill="hsl(0, 100%, 60%)" />
<rect x="94" y="39" width="5" height="5" fill="hsl(0, 100%, 60%)" />
<rect x="99" y="39" width="5" height="5" fill="hsl(0, 100%, 60%)" />
<rect x="104" y="39" width="5" height="5" fill="hsl(0, 100%, 60%)" />
<rect x="14" y="44" width="5" height="5" fill="hsl(0, 100%, 60%)" />
<rect x="24" y="44" width="5" height="5" fill="hsl(0, 100%, 60%)" />
<rect x="79" y="44" width="5" height="5" fill="hsl(0, 100%, 60%)" />
<rect x="99" y="44" width="5" height="5" fill="hsl(0, 100%, 60%)" />
<rect x="104" y="44" width="5" height="5" fill="hsl(0, 100%, 60%)" />
<rect x="34" y="49" width="5" height="5" fill="hsl(0, 100%, 60%)" />
<rect x="39" y="49" width="5" height="5" fill="hsl(0, 100%, 60%)" />
<rect x="44" y="49" width="5" height="5" fill="hsl(0, 100%, 60%)" />
<rect x="54" y="49" width="5" height="5" fill="hsl(0, 100%, 60%)" />
<rect x="64" y="49" width="5" height="5" fill="hsl(0, 100%, 60%)" />
<rect x="69" y="49" width="5" height="5" fill="hsl(0, 100%, 60%)" />
<rect x="74" y="49" width="5" height="5" fill="hsl(0, 100%, 60%)" />
<rect x="54" y="54" width="5" height="5" fill="hsl(0, 100%, 60%)" />
<rect x="59" y="54" width="5" height="5" fill="hsl(0, 100%, 60%)" />
<rect x="69" y="54" width="5" height="5" fill="hsl(0, 100%, 60%)" />
</svg>