<?xml version="1.0" encoding="utf-8"?>
<svg xmlns="http://www.w3.org/2000/svg" width="53" height="113" viewBox="0 0 53 113">
<rect width="100%" height="100%" fill="transparent" />
<rect x="19" y="4" width="5" height="5" fill="hsl(0, 100%, 60%)" />
<rect x="24" y="9" width="5" height="5" fill="hsl(0, 100%, 60%)" />
<rect x="29" y="9" width="5" height="5" fill="hsl(0, 100%, 60%)" />
<rect x="19" y="14" width="5" height="5" fill="hsl(0, 100%, 60%)" />
<rect x="24" y="14" width="5" height="5" fill="hsl(0, 100%, 60%)" />
<rect x="29" y="29" width="5" height="5" fill="hsl(0, 100%, 60%)" />
<rect x="19" y="34" width="5" height="5" fill="hsl(0, 100%, 60%)" />
<rect x="29" y="34" width="5" height="5" fill="hsl(0, 100%, 60%)" />
<rect x="24" y="39" width="5" height="5" fill="hsl(0, 100%, 60%)" />
<rect x="29" y="39" width="5" height="5" fill="hsl(0, 100%, 60%)" />
<rect x="34" y="64" width="5" height="5" fill="hsl(0, 100%, 60%)" />
<rect x="39" y="64" width="5" height="5" fill="hsl(0, 100%, 60%)" />
<rect x="44" y="64" width="5" height="5" fill="hsl(0, 100%, 60%)" />
<rect x="44" y="69" width="5" height="5" fill="hsl(0, 100%, 60%)" />
<rect x="39" y="74" width="5" height="5" fill="hsl(0, 100%, 60%)" />
<rect x="4" y="94" width="5" height="5" fill="hsl(0, 100%, 60%)" />
<rect x="9" y="94" width="5" height="5" fill="hsl(0, 100%, 60%)" />
<rect x="14" y="94" width="5" height="5" fill="hsl(0, 100%, 60%)" />
<rect x="14" y="99" width="5" height="5" fill="hsl(0, 100%, 60%)" />
<rect x="9" y="104" width="5" height="5" fill="hsl(0, 100%, 60%)" />
</svg>