<?xml version="1.0" encoding="utf-8"?>
<svg xmlns="http://www.w3.org/2000/svg" width="64" height="120" viewBox="0 0 64 120">
<rect width="100%" height="100%" fill="transparent" />
<rect x="16" y="4" width="4" height="4" fill="hsl(0, 100%, 60%)" />
<rect x="20" y="4" width="4" height="4" fill="hsl(0, 100%, 60%)" />
<rect x="16" y="8" width="4" height="4" fill="hsl(0, 100%, 60%)" />
<rect x="24" y="8" width="4" height="4" fill="hsl(0, 100%, 60%)" />
<rect x="16" y="12" width="4" height="4" fill="hsl(0, 100%, 60%)" />
<rect x="4" y="16" width="4" height="4" fill="hsl(0, 100%, 60%)" />
<rect x="8" y="16" width="4" height="4" fill="hsl(0, 100%, 60%)" />
<rect x="16" y="16" width="4" height="4" fill="hsl(0, 100%, 60%)" />
<rect x="4" y="20" width="4" height="4" fill="hsl(0, 100%, 60%)" />
<rect x="24" y="20" width="4" height="4" fill="hsl(0, 100%, 60%)" />
<rect x="4" y="24" width="4" height="4" fill="hsl(0, 100%, 60%)" />
<rect x="12" y="24" width="4" height="4" fill="hsl(0, 100%, 60%)" />
<rect x="16" y="24" width="4" height="4" fill="hsl(0, 100%, 60%)" />
<rect x="44" y="24" width="4" height="4" fill="hsl(0, 100%, 60%)" />
<rect x="48" y="24" width="4" height="4" fill="hsl(0, 100%, 60%)" />
<rect x="52" y="24" width="4" height="4" fill="hsl(0, 100%, 60%)" />
<rect x="24" y="28" width="4" height="4" fill="hsl(0, 100%, 60%)" />
<rect x="28" y="28" width="4" height="4" fill="hsl(0, 100%, 60%)" />
<rect x="32" y="28" width="4" height="4" fill="hsl(0, 100%, 60%)" />
<rect x="52" y="28" width="4" height="4" fill="hsl(0, 100%, 60%)" />
<rect x="56" y="28" width="4" height="4" fill="hsl(0, 100%, 60%)" />
<rect x="28" y="32" width="4" height="4" fill="hsl(0, 100%, 60%)" />
<rect x="32" y="32" width="4" height="4" fill="hsl(0, 100%, 60%)" />
<rect x="36" y="32" width="4" height="4" fill="hsl(0, 100%, 60%)" />
<rect x="44" y="32" width="4" height="4" fill="hsl(0, 100%, 60%)" />
<rect x="52" y="32" width="4" height="4" fill="hsl(0, 100%, 60%)" />
<rect x="56" y="36" width="4" height="4" fill="hsl(0, 100%, 60%)" />
<rect x="28" y="40" width="4" height="4" fill="hsl(0, 100%, 60%)" />
<rect x="36" y="40" width="4" height="4" fill="hsl(0, 100%, 60%)" />
<rect x="24" y="44" width="4" height="4" fill="hsl(0, 100%, 60%)" />
<rect x="28" y="44" width="4" height="4" fill="hsl(0, 100%, 60%)" />
<rect x="36" y="44" width="4" height="4" fill="hsl(0, 100%, 60%)" />
<rect x="28" y="48" width="4" height="4" fill="hsl(0, 100%, 60%)" />
<rect x="20" y="52" width="4" height="4" fill="hsl(0, 100%, 60%)" />
<rect x="24" y="52" width="4" height="4" fill="hsl(0, 100%, 60%)" />
<rect x="32" y="52" width="4" height="4" fill="hsl(0, 100%, 60%)" />
<rect x="32" y="56" width="4" height="4" fill="hsl(0, 100%, 60%)" />
<rect x="24" y="60" width="4" height="4" fill="hsl(0, 100%, 60%)" />
<rect x="28" y="60" width="4" height="4" fill="hsl(0, 100%, 60%)" />
<rect x="8" y="64" width="4" height="4" fill="hsl(0, 100%, 60%)" />
<rect x="12" y="64" width="4" height="4" fill="hsl(0, 100%, 60%)" />
<rect x="4" y="68" width="4" height="4" fill="hsl(0, 100%, 60%)" />
<rect x="8" y="68" width="4" height="4" fill="hsl(0, 100%, 60%)" />
<rect x="12" y="72" width="4" height="4" fill="hsl(0, 100%, 60%)" />
<rect x="20" y="76" width="4" height="4" fill="hsl(0, 100%, 60%)" />
<rect x="40" y="76" width="4" height="4" fill="hsl(0, 100%, 60%)" />
<rect x="44" y="76" width="4" height="4" fill="hsl(0, 100%, 60%)" />
<rect x="48" y="76" width="4" height="4" fill="hsl(0, 100%, 60%)" />
<rect x="20" y="80" width="4" height="4" fill="hsl(0, 100%, 60%)" />
<rect x="24" y="80" width="4" height="4" fill="hsl(0, 100%, 60%)" />
<rect x="28" y="80" width="4" height="4" fill="hsl(0, 100%, 60%)" />
<rect x="48" y="80" width="4" height="4" fill="hsl(0, 100%, 60%)" />
<rect x="52" y="80" width="4" height="4" fill="hsl(0, 100%, 60%)" />
<rect x="24" y="84" width="4" height="4" fill="hsl(0, 100%, 60%)" />
<rect x="28" y="84" width="4" height="4" fill="hsl(0, 100%, 60%)" />
<rect x="32" y="84" width="4" height="4" fill="hsl(0, 100%, 60%)" />
<rect x="40" y="84" width="4" height="4" fill="hsl(0, 100%, 60%)" />
<rect x="48" y="84" width="4" height="4" fill="hsl(0, 100%, 60%)" />
<rect x="52" y="88" width="4" height="4" fill="hsl(0, 100%, 60%)" />
<rect x="24" y="92" width="4" height="4" fill="hsl(0, 100%, 60%)" />
<rect x="32" y="92" width="4" height="4" fill="hsl(0, 100%, 60%)" />
<rect x="20" y="96" width="4" height="4" fill="hsl(0, 100%, 60%)" />
<rect x="24" y="96" width="4" height="4" fill="hsl(0, 100%, 60%)" />
<rect x="32" y="96" width="4" height="4" fill="hsl(0, 100%, 60%)" />
<rect x="24" y="100" width="4" height="4" fill="hsl(0, 100%, 60%)" />
<rect x="16" y="104" width="4" height="4" fill="hsl(0, 100%, 60%)" />
<rect x="20" y="104" width="4" height="4" fill="hsl(0, 100%, 60%)" />
<rect x="28" y="104" width="4" height="4" fill="hsl(0, 100%, 60%)" />
<rect x="28" y="108" width="4" height="4" fill="hsl(0, 100%, 60%)" />
<rect x="20" y="112" width="4" height="4" fill="hsl(0, 100%, 60%)" />
<rect x="24" y="112" width="4" height="4" fill="hsl(0, 100%, 60%)" />
</svg>