<?xml version="1.0" encoding="utf-8"?>
<svg xmlns="http://www.w3.org/2000/svg" width="101" height="95" viewBox="0 0 101 95">
<rect width="100%" height="100%" fill="transparent" />
<rect x="88" y="4" width="3" height="3" fill="hsl(0, 100%, 60%)" />
<rect x="94" y="4" width="3" height="3" fill="hsl(0, 100%, 60%)" />
<rect x="88" y="7" width="3" height="3" fill="hsl(0, 100%, 60%)" />
<rect x="91" y="7" width="3" height="3" fill="hsl(0, 100%, 60%)" />
<rect x="91" y="10" width="3" height="3" fill="hsl(0, 100%, 60%)" />
<rect x="55" y="37" width="3" height="3" fill="hsl(0, 100%, 60%)" />
<rect x="55" y="40" width="3" height="3" fill="hsl(0, 100%, 60%)" />
<rect x="61" y="40" width="3" height="3" fill="hsl(0, 100%, 60%)" />
<rect x="55" y="43" width="3" height="3" fill="hsl(0, 100%, 60%)" />
<rect x="58" y="43" width="3" height="3" fill="hsl(0, 100%, 60%)" />
<rect x="49" y="49" width="3" height="3" fill="hsl(0, 100%, 60%)" />
<rect x="52" y="49" width="3" height="3" fill="hsl(0, 100%, 60%)" />
<rect x="7" y="52" width="3" height="3" fill="hsl(0, 100%, 60%)" />
<rect x="10" y="52" width="3" height="3" fill="hsl(0, 100%, 60%)" />
<rect x="16" y="52" width="3" height="3" fill="hsl(0, 100%, 60%)" />
<rect x="19" y="52" width="3" height="3" fill="hsl(0, 100%, 60%)" />
<rect x="25" y="52" width="3" height="3" fill="hsl(0, 100%, 60%)" />
<rect x="28" y="52" width="3" height="3" fill="hsl(0, 100%, 60%)" />
<rect x="46" y="52" width="3" height="3" fill="hsl(0, 100%, 60%)" />
<rect x="55" y="52" width="3" height="3" fill="hsl(0, 100%, 60%)" />
<rect x="7" y="55" width="3" height="3" fill="hsl(0, 100%, 60%)" />
<rect x="10" y="55" width="3" height="3" fill="hsl(0, 100%, 60%)" />
<rect x="25" y="55" width="3" height="3" fill="hsl(0, 100%, 60%)" />
<rect x="28" y="55" width="3" height="3" fill="hsl(0, 100%, 60%)" />
<rect x="49" y="55" width="3" height="3" fill="hsl(0, 100%, 60%)" />
<rect x="55" y="55" width="3" height="3" fill="hsl(0, 100%, 60%)" />
<rect x="7" y="58" width="3" height="3" fill="hsl(0, 100%, 60%)" />
<rect x="10" y="58" width="3" height="3" fill="hsl(0, 100%, 60%)" />
<rect x="16" y="58" width="3" height="3" fill="hsl(0, 100%, 60%)" />
<rect x="19" y="58" width="3" height="3" fill="hsl(0, 100%, 60%)" />
<rect x="25" y="58" width="3" height="3" fill="hsl(0, 100%, 60%)" />
<rect x="28" y="58" width="3" height="3" fill="hsl(0, 100%, 60%)" />
<rect x="52" y="58" width="3" height="3" fill="hsl(0, 100%, 60%)" />
<rect x="16" y="64" width="3" height="3" fill="hsl(0, 100%, 60%)" />
<rect x="19" y="64" width="3" height="3" fill="hsl(0, 100%, 60%)" />
<rect x="64" y="64" width="3" height="3" fill="hsl(0, 100%, 60%)" />
<rect x="67" y="64" width="3" height="3" fill="hsl(0, 100%, 60%)" />
<rect x="10" y="67" width="3" height="3" fill="hsl(0, 100%, 60%)" />
<rect x="25" y="67" width="3" height="3" fill="hsl(0, 100%, 60%)" />
<rect x="64" y="67" width="3" height="3" fill="hsl(0, 100%, 60%)" />
<rect x="7" y="70" width="3" height="3" fill="hsl(0, 100%, 60%)" />
<rect x="28" y="70" width="3" height="3" fill="hsl(0, 100%, 60%)" />
<rect x="67" y="70" width="3" height="3" fill="hsl(0, 100%, 60%)" />
<rect x="70" y="70" width="3" height="3" fill="hsl(0, 100%, 60%)" />
<rect x="73" y="70" width="3" height="3" fill="hsl(0, 100%, 60%)" />
<rect x="4" y="73" width="3" height="3" fill="hsl(0, 100%, 60%)" />
<rect x="31" y="73" width="3" height="3" fill="hsl(0, 100%, 60%)" />
<rect x="73" y="73" width="3" height="3" fill="hsl(0, 100%, 60%)" />
<rect x="4" y="76" width="3" height="3" fill="hsl(0, 100%, 60%)" />
<rect x="31" y="76" width="3" height="3" fill="hsl(0, 100%, 60%)" />
<rect x="4" y="79" width="3" height="3" fill="hsl(0, 100%, 60%)" />
<rect x="31" y="79" width="3" height="3" fill="hsl(0, 100%, 60%)" />
<rect x="7" y="82" width="3" height="3" fill="hsl(0, 100%, 60%)" />
<rect x="28" y="82" width="3" height="3" fill="hsl(0, 100%, 60%)" />
<rect x="10" y="85" width="3" height="3" fill="hsl(0, 100%, 60%)" />
<rect x="25" y="85" width="3" height="3" fill="hsl(0, 100%, 60%)" />
<rect x="16" y="88" width="3" height="3" fill="hsl(0, 100%, 60%)" />
<rect x="19" y="88" width="3" height="3" fill="hsl(0, 100%, 60%)" />
</svg>