<?xml version="1.0" encoding="utf-8"?>
<svg xmlns="http://www.w3.org/2000/svg" width="101" height="101" viewBox="0 0 101 101">
<rect width="100%" height="100%" fill="transparent" />
<rect x="61" y="4" width="3" height="3" fill="hsl(0, 100%, 60%)" />
<rect x="55" y="7" width="3" height="3" fill="hsl(0, 100%, 60%)" />
<rect x="58" y="7" width="3" height="3" fill="hsl(0, 100%, 60%)" />
<rect x="61" y="7" width="3" height="3" fill="hsl(0, 100%, 60%)" />
<rect x="52" y="10" width="3" height="3" fill="hsl(0, 100%, 60%)" />
<rect x="52" y="13" width="3" height="3" fill="hsl(0, 100%, 60%)" />
<rect x="55" y="13" width="3" height="3" fill="hsl(0, 100%, 60%)" />
<rect x="94" y="16" width="3" height="3" fill="hsl(0, 100%, 60%)" />
<rect x="88" y="19" width="3" height="3" fill="hsl(0, 100%, 60%)" />
<rect x="91" y="19" width="3" height="3" fill="hsl(0, 100%, 60%)" />
<rect x="94" y="19" width="3" height="3" fill="hsl(0, 100%, 60%)" />
<rect x="85" y="22" width="3" height="3" fill="hsl(0, 100%, 60%)" />
<rect x="85" y="25" width="3" height="3" fill="hsl(0, 100%, 60%)" />
<rect x="88" y="25" width="3" height="3" fill="hsl(0, 100%, 60%)" />
<rect x="64" y="40" width="3" height="3" fill="hsl(0, 100%, 60%)" />
<rect x="67" y="40" width="3" height="3" fill="hsl(0, 100%, 60%)" />
<rect x="61" y="43" width="3" height="3" fill="hsl(0, 100%, 60%)" />
<rect x="67" y="43" width="3" height="3" fill="hsl(0, 100%, 60%)" />
<rect x="61" y="46" width="3" height="3" fill="hsl(0, 100%, 60%)" />
<rect x="61" y="49" width="3" height="3" fill="hsl(0, 100%, 60%)" />
<rect x="64" y="49" width="3" height="3" fill="hsl(0, 100%, 60%)" />
<rect x="70" y="49" width="3" height="3" fill="hsl(0, 100%, 60%)" />
<rect x="10" y="52" width="3" height="3" fill="hsl(0, 100%, 60%)" />
<rect x="13" y="52" width="3" height="3" fill="hsl(0, 100%, 60%)" />
<rect x="67" y="52" width="3" height="3" fill="hsl(0, 100%, 60%)" />
<rect x="70" y="52" width="3" height="3" fill="hsl(0, 100%, 60%)" />
<rect x="7" y="55" width="3" height="3" fill="hsl(0, 100%, 60%)" />
<rect x="13" y="55" width="3" height="3" fill="hsl(0, 100%, 60%)" />
<rect x="7" y="58" width="3" height="3" fill="hsl(0, 100%, 60%)" />
<rect x="4" y="61" width="3" height="3" fill="hsl(0, 100%, 60%)" />
<rect x="7" y="61" width="3" height="3" fill="hsl(0, 100%, 60%)" />
<rect x="22" y="85" width="3" height="3" fill="hsl(0, 100%, 60%)" />
<rect x="25" y="85" width="3" height="3" fill="hsl(0, 100%, 60%)" />
<rect x="19" y="88" width="3" height="3" fill="hsl(0, 100%, 60%)" />
<rect x="25" y="88" width="3" height="3" fill="hsl(0, 100%, 60%)" />
<rect x="19" y="91" width="3" height="3" fill="hsl(0, 100%, 60%)" />
<rect x="16" y="94" width="3" height="3" fill="hsl(0, 100%, 60%)" />
<rect x="19" y="94" width="3" height="3" fill="hsl(0, 100%, 60%)" />
</svg>