<?xml version="1.0" encoding="utf-8"?>
<svg xmlns="http://www.w3.org/2000/svg" width="106" height="106" viewBox="0 0 106 106">
<rect width="100%" height="100%" fill="transparent" />
<rect x="66" y="4" width="2" height="2" fill="hsl(0, 100%, 60%)" />
<rect x="68" y="4" width="2" height="2" fill="hsl(0, 100%, 60%)" />
<rect x="66" y="6" width="2" height="2" fill="hsl(0, 100%, 60%)" />
<rect x="68" y="6" width="2" height="2" fill="hsl(0, 100%, 60%)" />
<rect x="80" y="6" width="2" height="2" fill="hsl(0, 100%, 60%)" />
<rect x="82" y="6" width="2" height="2" fill="hsl(0, 100%, 60%)" />
<rect x="80" y="8" width="2" height="2" fill="hsl(0, 100%, 60%)" />
<rect x="82" y="8" width="2" height="2" fill="hsl(0, 100%, 60%)" />
<rect x="18" y="14" width="2" height="2" fill="hsl(0, 100%, 60%)" />
<rect x="20" y="14" width="2" height="2" fill="hsl(0, 100%, 60%)" />
<rect x="38" y="14" width="2" height="2" fill="hsl(0, 100%, 60%)" />
<rect x="40" y="14" width="2" height="2" fill="hsl(0, 100%, 60%)" />
<rect x="76" y="14" width="2" height="2" fill="hsl(0, 100%, 60%)" />
<rect x="78" y="14" width="2" height="2" fill="hsl(0, 100%, 60%)" />
<rect x="18" y="16" width="2" height="2" fill="hsl(0, 100%, 60%)" />
<rect x="20" y="16" width="2" height="2" fill="hsl(0, 100%, 60%)" />
<rect x="40" y="16" width="2" height="2" fill="hsl(0, 100%, 60%)" />
<rect x="76" y="16" width="2" height="2" fill="hsl(0, 100%, 60%)" />
<rect x="78" y="16" width="2" height="2" fill="hsl(0, 100%, 60%)" />
<rect x="40" y="18" width="2" height="2" fill="hsl(0, 100%, 60%)" />
<rect x="44" y="18" width="2" height="2" fill="hsl(0, 100%, 60%)" />
<rect x="88" y="18" width="2" height="2" fill="hsl(0, 100%, 60%)" />
<rect x="90" y="18" width="2" height="2" fill="hsl(0, 100%, 60%)" />
<rect x="42" y="20" width="2" height="2" fill="hsl(0, 100%, 60%)" />
<rect x="44" y="20" width="2" height="2" fill="hsl(0, 100%, 60%)" />
<rect x="88" y="20" width="2" height="2" fill="hsl(0, 100%, 60%)" />
<rect x="90" y="20" width="2" height="2" fill="hsl(0, 100%, 60%)" />
<rect x="6" y="22" width="2" height="2" fill="hsl(0, 100%, 60%)" />
<rect x="8" y="22" width="2" height="2" fill="hsl(0, 100%, 60%)" />
<rect x="6" y="24" width="2" height="2" fill="hsl(0, 100%, 60%)" />
<rect x="8" y="24" width="2" height="2" fill="hsl(0, 100%, 60%)" />
<rect x="14" y="26" width="2" height="2" fill="hsl(0, 100%, 60%)" />
<rect x="16" y="26" width="2" height="2" fill="hsl(0, 100%, 60%)" />
<rect x="14" y="28" width="2" height="2" fill="hsl(0, 100%, 60%)" />
<rect x="16" y="28" width="2" height="2" fill="hsl(0, 100%, 60%)" />
<rect x="48" y="28" width="2" height="2" fill="hsl(0, 100%, 60%)" />
<rect x="48" y="30" width="2" height="2" fill="hsl(0, 100%, 60%)" />
<rect x="52" y="30" width="2" height="2" fill="hsl(0, 100%, 60%)" />
<rect x="48" y="32" width="2" height="2" fill="hsl(0, 100%, 60%)" />
<rect x="50" y="32" width="2" height="2" fill="hsl(0, 100%, 60%)" />
<rect x="52" y="32" width="2" height="2" fill="hsl(0, 100%, 60%)" />
<rect x="52" y="34" width="2" height="2" fill="hsl(0, 100%, 60%)" />
<rect x="4" y="36" width="2" height="2" fill="hsl(0, 100%, 60%)" />
<rect x="6" y="36" width="2" height="2" fill="hsl(0, 100%, 60%)" />
<rect x="4" y="38" width="2" height="2" fill="hsl(0, 100%, 60%)" />
<rect x="6" y="38" width="2" height="2" fill="hsl(0, 100%, 60%)" />
<rect x="90" y="38" width="2" height="2" fill="hsl(0, 100%, 60%)" />
<rect x="92" y="38" width="2" height="2" fill="hsl(0, 100%, 60%)" />
<rect x="90" y="40" width="2" height="2" fill="hsl(0, 100%, 60%)" />
<rect x="86" y="42" width="2" height="2" fill="hsl(0, 100%, 60%)" />
<rect x="90" y="42" width="2" height="2" fill="hsl(0, 100%, 60%)" />
<rect x="86" y="44" width="2" height="2" fill="hsl(0, 100%, 60%)" />
<rect x="88" y="44" width="2" height="2" fill="hsl(0, 100%, 60%)" />
<rect x="16" y="66" width="2" height="2" fill="hsl(0, 100%, 60%)" />
<rect x="18" y="66" width="2" height="2" fill="hsl(0, 100%, 60%)" />
<rect x="98" y="66" width="2" height="2" fill="hsl(0, 100%, 60%)" />
<rect x="100" y="66" width="2" height="2" fill="hsl(0, 100%, 60%)" />
<rect x="16" y="68" width="2" height="2" fill="hsl(0, 100%, 60%)" />
<rect x="98" y="68" width="2" height="2" fill="hsl(0, 100%, 60%)" />
<rect x="100" y="68" width="2" height="2" fill="hsl(0, 100%, 60%)" />
<rect x="18" y="70" width="2" height="2" fill="hsl(0, 100%, 60%)" />
<rect x="16" y="72" width="2" height="2" fill="hsl(0, 100%, 60%)" />
<rect x="18" y="72" width="2" height="2" fill="hsl(0, 100%, 60%)" />
<rect x="48" y="74" width="2" height="2" fill="hsl(0, 100%, 60%)" />
<rect x="52" y="74" width="2" height="2" fill="hsl(0, 100%, 60%)" />
<rect x="50" y="76" width="2" height="2" fill="hsl(0, 100%, 60%)" />
<rect x="52" y="76" width="2" height="2" fill="hsl(0, 100%, 60%)" />
<rect x="88" y="76" width="2" height="2" fill="hsl(0, 100%, 60%)" />
<rect x="90" y="76" width="2" height="2" fill="hsl(0, 100%, 60%)" />
<rect x="50" y="78" width="2" height="2" fill="hsl(0, 100%, 60%)" />
<rect x="88" y="78" width="2" height="2" fill="hsl(0, 100%, 60%)" />
<rect x="90" y="78" width="2" height="2" fill="hsl(0, 100%, 60%)" />
<rect x="96" y="80" width="2" height="2" fill="hsl(0, 100%, 60%)" />
<rect x="98" y="80" width="2" height="2" fill="hsl(0, 100%, 60%)" />
<rect x="96" y="82" width="2" height="2" fill="hsl(0, 100%, 60%)" />
<rect x="98" y="82" width="2" height="2" fill="hsl(0, 100%, 60%)" />
<rect x="14" y="84" width="2" height="2" fill="hsl(0, 100%, 60%)" />
<rect x="16" y="84" width="2" height="2" fill="hsl(0, 100%, 60%)" />
<rect x="14" y="86" width="2" height="2" fill="hsl(0, 100%, 60%)" />
<rect x="16" y="86" width="2" height="2" fill="hsl(0, 100%, 60%)" />
<rect x="26" y="88" width="2" height="2" fill="hsl(0, 100%, 60%)" />
<rect x="28" y="88" width="2" height="2" fill="hsl(0, 100%, 60%)" />
<rect x="84" y="88" width="2" height="2" fill="hsl(0, 100%, 60%)" />
<rect x="86" y="88" width="2" height="2" fill="hsl(0, 100%, 60%)" />
<rect x="26" y="90" width="2" height="2" fill="hsl(0, 100%, 60%)" />
<rect x="28" y="90" width="2" height="2" fill="hsl(0, 100%, 60%)" />
<rect x="84" y="90" width="2" height="2" fill="hsl(0, 100%, 60%)" />
<rect x="86" y="90" width="2" height="2" fill="hsl(0, 100%, 60%)" />
<rect x="22" y="96" width="2" height="2" fill="hsl(0, 100%, 60%)" />
<rect x="24" y="96" width="2" height="2" fill="hsl(0, 100%, 60%)" />
<rect x="22" y="98" width="2" height="2" fill="hsl(0, 100%, 60%)" />
<rect x="24" y="98" width="2" height="2" fill="hsl(0, 100%, 60%)" />
<rect x="36" y="98" width="2" height="2" fill="hsl(0, 100%, 60%)" />
<rect x="38" y="98" width="2" height="2" fill="hsl(0, 100%, 60%)" />
<rect x="36" y="100" width="2" height="2" fill="hsl(0, 100%, 60%)" />
<rect x="38" y="100" width="2" height="2" fill="hsl(0, 100%, 60%)" />
</svg>