<?xml version="1.0" encoding="utf-8"?>
<svg xmlns="http://www.w3.org/2000/svg" width="119" height="89" viewBox="0 0 119 89">
<rect width="100%" height="100%" fill="transparent" />
<rect x="4" y="4" width="3" height="3" fill="hsl(0, 100%, 60%)" />
<rect x="7" y="4" width="3" height="3" fill="hsl(0, 100%, 60%)" />
<rect x="7" y="7" width="3" height="3" fill="hsl(0, 100%, 60%)" />
<rect x="7" y="10" width="3" height="3" fill="hsl(0, 100%, 60%)" />
<rect x="13" y="10" width="3" height="3" fill="hsl(0, 100%, 60%)" />
<rect x="34" y="10" width="3" height="3" fill="hsl(0, 100%, 60%)" />
<rect x="76" y="10" width="3" height="3" fill="hsl(0, 100%, 60%)" />
<rect x="10" y="13" width="3" height="3" fill="hsl(0, 100%, 60%)" />
<rect x="13" y="13" width="3" height="3" fill="hsl(0, 100%, 60%)" />
<rect x="34" y="13" width="3" height="3" fill="hsl(0, 100%, 60%)" />
<rect x="37" y="13" width="3" height="3" fill="hsl(0, 100%, 60%)" />
<rect x="40" y="13" width="3" height="3" fill="hsl(0, 100%, 60%)" />
<rect x="43" y="13" width="3" height="3" fill="hsl(0, 100%, 60%)" />
<rect x="70" y="13" width="3" height="3" fill="hsl(0, 100%, 60%)" />
<rect x="76" y="13" width="3" height="3" fill="hsl(0, 100%, 60%)" />
<rect x="37" y="16" width="3" height="3" fill="hsl(0, 100%, 60%)" />
<rect x="40" y="16" width="3" height="3" fill="hsl(0, 100%, 60%)" />
<rect x="43" y="16" width="3" height="3" fill="hsl(0, 100%, 60%)" />
<rect x="46" y="16" width="3" height="3" fill="hsl(0, 100%, 60%)" />
<rect x="67" y="16" width="3" height="3" fill="hsl(0, 100%, 60%)" />
<rect x="73" y="16" width="3" height="3" fill="hsl(0, 100%, 60%)" />
<rect x="37" y="19" width="3" height="3" fill="hsl(0, 100%, 60%)" />
<rect x="46" y="19" width="3" height="3" fill="hsl(0, 100%, 60%)" />
<rect x="64" y="19" width="3" height="3" fill="hsl(0, 100%, 60%)" />
<rect x="73" y="19" width="3" height="3" fill="hsl(0, 100%, 60%)" />
<rect x="37" y="22" width="3" height="3" fill="hsl(0, 100%, 60%)" />
<rect x="40" y="22" width="3" height="3" fill="hsl(0, 100%, 60%)" />
<rect x="43" y="22" width="3" height="3" fill="hsl(0, 100%, 60%)" />
<rect x="46" y="22" width="3" height="3" fill="hsl(0, 100%, 60%)" />
<rect x="67" y="22" width="3" height="3" fill="hsl(0, 100%, 60%)" />
<rect x="73" y="22" width="3" height="3" fill="hsl(0, 100%, 60%)" />
<rect x="34" y="25" width="3" height="3" fill="hsl(0, 100%, 60%)" />
<rect x="37" y="25" width="3" height="3" fill="hsl(0, 100%, 60%)" />
<rect x="40" y="25" width="3" height="3" fill="hsl(0, 100%, 60%)" />
<rect x="43" y="25" width="3" height="3" fill="hsl(0, 100%, 60%)" />
<rect x="70" y="25" width="3" height="3" fill="hsl(0, 100%, 60%)" />
<rect x="76" y="25" width="3" height="3" fill="hsl(0, 100%, 60%)" />
<rect x="103" y="25" width="3" height="3" fill="hsl(0, 100%, 60%)" />
<rect x="106" y="25" width="3" height="3" fill="hsl(0, 100%, 60%)" />
<rect x="34" y="28" width="3" height="3" fill="hsl(0, 100%, 60%)" />
<rect x="76" y="28" width="3" height="3" fill="hsl(0, 100%, 60%)" />
<rect x="103" y="28" width="3" height="3" fill="hsl(0, 100%, 60%)" />
<rect x="109" y="28" width="3" height="3" fill="hsl(0, 100%, 60%)" />
<rect x="109" y="31" width="3" height="3" fill="hsl(0, 100%, 60%)" />
<rect x="109" y="34" width="3" height="3" fill="hsl(0, 100%, 60%)" />
<rect x="112" y="34" width="3" height="3" fill="hsl(0, 100%, 60%)" />
<rect x="52" y="40" width="3" height="3" fill="hsl(0, 100%, 60%)" />
<rect x="55" y="40" width="3" height="3" fill="hsl(0, 100%, 60%)" />
<rect x="58" y="40" width="3" height="3" fill="hsl(0, 100%, 60%)" />
<rect x="49" y="43" width="3" height="3" fill="hsl(0, 100%, 60%)" />
<rect x="52" y="43" width="3" height="3" fill="hsl(0, 100%, 60%)" />
<rect x="58" y="43" width="3" height="3" fill="hsl(0, 100%, 60%)" />
<rect x="61" y="43" width="3" height="3" fill="hsl(0, 100%, 60%)" />
<rect x="49" y="46" width="3" height="3" fill="hsl(0, 100%, 60%)" />
<rect x="52" y="46" width="3" height="3" fill="hsl(0, 100%, 60%)" />
<rect x="58" y="46" width="3" height="3" fill="hsl(0, 100%, 60%)" />
<rect x="61" y="46" width="3" height="3" fill="hsl(0, 100%, 60%)" />
<rect x="49" y="49" width="3" height="3" fill="hsl(0, 100%, 60%)" />
<rect x="52" y="49" width="3" height="3" fill="hsl(0, 100%, 60%)" />
<rect x="55" y="49" width="3" height="3" fill="hsl(0, 100%, 60%)" />
<rect x="58" y="49" width="3" height="3" fill="hsl(0, 100%, 60%)" />
<rect x="61" y="49" width="3" height="3" fill="hsl(0, 100%, 60%)" />
<rect x="46" y="52" width="3" height="3" fill="hsl(0, 100%, 60%)" />
<rect x="49" y="52" width="3" height="3" fill="hsl(0, 100%, 60%)" />
<rect x="61" y="52" width="3" height="3" fill="hsl(0, 100%, 60%)" />
<rect x="64" y="52" width="3" height="3" fill="hsl(0, 100%, 60%)" />
<rect x="46" y="73" width="3" height="3" fill="hsl(0, 100%, 60%)" />
<rect x="49" y="73" width="3" height="3" fill="hsl(0, 100%, 60%)" />
<rect x="49" y="76" width="3" height="3" fill="hsl(0, 100%, 60%)" />
<rect x="40" y="79" width="3" height="3" fill="hsl(0, 100%, 60%)" />
<rect x="43" y="79" width="3" height="3" fill="hsl(0, 100%, 60%)" />
<rect x="46" y="79" width="3" height="3" fill="hsl(0, 100%, 60%)" />
<rect x="40" y="82" width="3" height="3" fill="hsl(0, 100%, 60%)" />
</svg>