<?xml version="1.0" encoding="utf-8"?>
<svg xmlns="http://www.w3.org/2000/svg" width="124" height="96" viewBox="0 0 124 96">
<rect width="100%" height="100%" fill="transparent" />
<rect x="116" y="4" width="4" height="4" fill="hsl(0, 100%, 60%)" />
<rect x="108" y="8" width="4" height="4" fill="hsl(0, 100%, 60%)" />
<rect x="112" y="8" width="4" height="4" fill="hsl(0, 100%, 60%)" />
<rect x="112" y="12" width="4" height="4" fill="hsl(0, 100%, 60%)" />
<rect x="116" y="12" width="4" height="4" fill="hsl(0, 100%, 60%)" />
<rect x="16" y="40" width="4" height="4" fill="hsl(0, 100%, 60%)" />
<rect x="20" y="40" width="4" height="4" fill="hsl(0, 100%, 60%)" />
<rect x="32" y="40" width="4" height="4" fill="hsl(0, 100%, 60%)" />
<rect x="76" y="40" width="4" height="4" fill="hsl(0, 100%, 60%)" />
<rect x="16" y="44" width="4" height="4" fill="hsl(0, 100%, 60%)" />
<rect x="28" y="44" width="4" height="4" fill="hsl(0, 100%, 60%)" />
<rect x="36" y="44" width="4" height="4" fill="hsl(0, 100%, 60%)" />
<rect x="76" y="44" width="4" height="4" fill="hsl(0, 100%, 60%)" />
<rect x="84" y="44" width="4" height="4" fill="hsl(0, 100%, 60%)" />
<rect x="20" y="48" width="4" height="4" fill="hsl(0, 100%, 60%)" />
<rect x="28" y="48" width="4" height="4" fill="hsl(0, 100%, 60%)" />
<rect x="36" y="48" width="4" height="4" fill="hsl(0, 100%, 60%)" />
<rect x="76" y="48" width="4" height="4" fill="hsl(0, 100%, 60%)" />
<rect x="80" y="48" width="4" height="4" fill="hsl(0, 100%, 60%)" />
<rect x="16" y="52" width="4" height="4" fill="hsl(0, 100%, 60%)" />
<rect x="20" y="52" width="4" height="4" fill="hsl(0, 100%, 60%)" />
<rect x="28" y="52" width="4" height="4" fill="hsl(0, 100%, 60%)" />
<rect x="36" y="52" width="4" height="4" fill="hsl(0, 100%, 60%)" />
<rect x="40" y="52" width="4" height="4" fill="hsl(0, 100%, 60%)" />
<rect x="12" y="56" width="4" height="4" fill="hsl(0, 100%, 60%)" />
<rect x="28" y="56" width="4" height="4" fill="hsl(0, 100%, 60%)" />
<rect x="32" y="56" width="4" height="4" fill="hsl(0, 100%, 60%)" />
<rect x="44" y="56" width="4" height="4" fill="hsl(0, 100%, 60%)" />
<rect x="68" y="56" width="4" height="4" fill="hsl(0, 100%, 60%)" />
<rect x="72" y="56" width="4" height="4" fill="hsl(0, 100%, 60%)" />
<rect x="8" y="60" width="4" height="4" fill="hsl(0, 100%, 60%)" />
<rect x="20" y="60" width="4" height="4" fill="hsl(0, 100%, 60%)" />
<rect x="24" y="60" width="4" height="4" fill="hsl(0, 100%, 60%)" />
<rect x="40" y="60" width="4" height="4" fill="hsl(0, 100%, 60%)" />
<rect x="44" y="60" width="4" height="4" fill="hsl(0, 100%, 60%)" />
<rect x="48" y="60" width="4" height="4" fill="hsl(0, 100%, 60%)" />
<rect x="64" y="60" width="4" height="4" fill="hsl(0, 100%, 60%)" />
<rect x="76" y="60" width="4" height="4" fill="hsl(0, 100%, 60%)" />
<rect x="8" y="64" width="4" height="4" fill="hsl(0, 100%, 60%)" />
<rect x="16" y="64" width="4" height="4" fill="hsl(0, 100%, 60%)" />
<rect x="24" y="64" width="4" height="4" fill="hsl(0, 100%, 60%)" />
<rect x="28" y="64" width="4" height="4" fill="hsl(0, 100%, 60%)" />
<rect x="40" y="64" width="4" height="4" fill="hsl(0, 100%, 60%)" />
<rect x="44" y="64" width="4" height="4" fill="hsl(0, 100%, 60%)" />
<rect x="48" y="64" width="4" height="4" fill="hsl(0, 100%, 60%)" />
<rect x="68" y="64" width="4" height="4" fill="hsl(0, 100%, 60%)" />
<rect x="76" y="64" width="4" height="4" fill="hsl(0, 100%, 60%)" />
<rect x="12" y="68" width="4" height="4" fill="hsl(0, 100%, 60%)" />
<rect x="20" y="68" width="4" height="4" fill="hsl(0, 100%, 60%)" />
<rect x="24" y="68" width="4" height="4" fill="hsl(0, 100%, 60%)" />
<rect x="40" y="68" width="4" height="4" fill="hsl(0, 100%, 60%)" />
<rect x="44" y="68" width="4" height="4" fill="hsl(0, 100%, 60%)" />
<rect x="48" y="68" width="4" height="4" fill="hsl(0, 100%, 60%)" />
<rect x="72" y="68" width="4" height="4" fill="hsl(0, 100%, 60%)" />
<rect x="28" y="72" width="4" height="4" fill="hsl(0, 100%, 60%)" />
<rect x="32" y="72" width="4" height="4" fill="hsl(0, 100%, 60%)" />
<rect x="44" y="72" width="4" height="4" fill="hsl(0, 100%, 60%)" />
<rect x="4" y="76" width="4" height="4" fill="hsl(0, 100%, 60%)" />
<rect x="8" y="76" width="4" height="4" fill="hsl(0, 100%, 60%)" />
<rect x="12" y="76" width="4" height="4" fill="hsl(0, 100%, 60%)" />
<rect x="16" y="76" width="4" height="4" fill="hsl(0, 100%, 60%)" />
<rect x="20" y="76" width="4" height="4" fill="hsl(0, 100%, 60%)" />
<rect x="28" y="76" width="4" height="4" fill="hsl(0, 100%, 60%)" />
<rect x="36" y="76" width="4" height="4" fill="hsl(0, 100%, 60%)" />
<rect x="40" y="76" width="4" height="4" fill="hsl(0, 100%, 60%)" />
<rect x="88" y="76" width="4" height="4" fill="hsl(0, 100%, 60%)" />
<rect x="92" y="76" width="4" height="4" fill="hsl(0, 100%, 60%)" />
<rect x="4" y="80" width="4" height="4" fill="hsl(0, 100%, 60%)" />
<rect x="16" y="80" width="4" height="4" fill="hsl(0, 100%, 60%)" />
<rect x="28" y="80" width="4" height="4" fill="hsl(0, 100%, 60%)" />
<rect x="36" y="80" width="4" height="4" fill="hsl(0, 100%, 60%)" />
<rect x="88" y="80" width="4" height="4" fill="hsl(0, 100%, 60%)" />
<rect x="24" y="84" width="4" height="4" fill="hsl(0, 100%, 60%)" />
<rect x="36" y="84" width="4" height="4" fill="hsl(0, 100%, 60%)" />
<rect x="92" y="84" width="4" height="4" fill="hsl(0, 100%, 60%)" />
<rect x="96" y="84" width="4" height="4" fill="hsl(0, 100%, 60%)" />
<rect x="100" y="84" width="4" height="4" fill="hsl(0, 100%, 60%)" />
<rect x="28" y="88" width="4" height="4" fill="hsl(0, 100%, 60%)" />
<rect x="32" y="88" width="4" height="4" fill="hsl(0, 100%, 60%)" />
<rect x="100" y="88" width="4" height="4" fill="hsl(0, 100%, 60%)" />
</svg>