<?xml version="1.0" encoding="utf-8"?>
<svg xmlns="http://www.w3.org/2000/svg" width="100" height="58" viewBox="0 0 100 58">
<rect width="100%" height="100%" fill="transparent" />
<rect x="12" y="4" width="2" height="2" fill="hsl(0, 100%, 60%)" />
<rect x="14" y="4" width="2" height="2" fill="hsl(0, 100%, 60%)" />
<rect x="44" y="4" width="2" height="2" fill="hsl(0, 100%, 60%)" />
<rect x="14" y="6" width="2" height="2" fill="hsl(0, 100%, 60%)" />
<rect x="42" y="6" width="2" height="2" fill="hsl(0, 100%, 60%)" />
<rect x="46" y="6" width="2" height="2" fill="hsl(0, 100%, 60%)" />
<rect x="14" y="8" width="2" height="2" fill="hsl(0, 100%, 60%)" />
<rect x="18" y="8" width="2" height="2" fill="hsl(0, 100%, 60%)" />
<rect x="42" y="8" width="2" height="2" fill="hsl(0, 100%, 60%)" />
<rect x="46" y="8" width="2" height="2" fill="hsl(0, 100%, 60%)" />
<rect x="16" y="10" width="2" height="2" fill="hsl(0, 100%, 60%)" />
<rect x="18" y="10" width="2" height="2" fill="hsl(0, 100%, 60%)" />
<rect x="24" y="10" width="2" height="2" fill="hsl(0, 100%, 60%)" />
<rect x="26" y="10" width="2" height="2" fill="hsl(0, 100%, 60%)" />
<rect x="38" y="10" width="2" height="2" fill="hsl(0, 100%, 60%)" />
<rect x="40" y="10" width="2" height="2" fill="hsl(0, 100%, 60%)" />
<rect x="42" y="10" width="2" height="2" fill="hsl(0, 100%, 60%)" />
<rect x="46" y="10" width="2" height="2" fill="hsl(0, 100%, 60%)" />
<rect x="48" y="10" width="2" height="2" fill="hsl(0, 100%, 60%)" />
<rect x="90" y="10" width="2" height="2" fill="hsl(0, 100%, 60%)" />
<rect x="92" y="10" width="2" height="2" fill="hsl(0, 100%, 60%)" />
<rect x="24" y="12" width="2" height="2" fill="hsl(0, 100%, 60%)" />
<rect x="26" y="12" width="2" height="2" fill="hsl(0, 100%, 60%)" />
<rect x="36" y="12" width="2" height="2" fill="hsl(0, 100%, 60%)" />
<rect x="90" y="12" width="2" height="2" fill="hsl(0, 100%, 60%)" />
<rect x="92" y="12" width="2" height="2" fill="hsl(0, 100%, 60%)" />
<rect x="38" y="14" width="2" height="2" fill="hsl(0, 100%, 60%)" />
<rect x="40" y="14" width="2" height="2" fill="hsl(0, 100%, 60%)" />
<rect x="42" y="14" width="2" height="2" fill="hsl(0, 100%, 60%)" />
<rect x="46" y="14" width="2" height="2" fill="hsl(0, 100%, 60%)" />
<rect x="48" y="14" width="2" height="2" fill="hsl(0, 100%, 60%)" />
<rect x="66" y="14" width="2" height="2" fill="hsl(0, 100%, 60%)" />
<rect x="42" y="16" width="2" height="2" fill="hsl(0, 100%, 60%)" />
<rect x="46" y="16" width="2" height="2" fill="hsl(0, 100%, 60%)" />
<rect x="48" y="16" width="2" height="2" fill="hsl(0, 100%, 60%)" />
<rect x="58" y="16" width="2" height="2" fill="hsl(0, 100%, 60%)" />
<rect x="60" y="16" width="2" height="2" fill="hsl(0, 100%, 60%)" />
<rect x="66" y="16" width="2" height="2" fill="hsl(0, 100%, 60%)" />
<rect x="18" y="18" width="2" height="2" fill="hsl(0, 100%, 60%)" />
<rect x="20" y="18" width="2" height="2" fill="hsl(0, 100%, 60%)" />
<rect x="24" y="18" width="2" height="2" fill="hsl(0, 100%, 60%)" />
<rect x="28" y="18" width="2" height="2" fill="hsl(0, 100%, 60%)" />
<rect x="56" y="18" width="2" height="2" fill="hsl(0, 100%, 60%)" />
<rect x="68" y="18" width="2" height="2" fill="hsl(0, 100%, 60%)" />
<rect x="92" y="18" width="2" height="2" fill="hsl(0, 100%, 60%)" />
<rect x="94" y="18" width="2" height="2" fill="hsl(0, 100%, 60%)" />
<rect x="18" y="20" width="2" height="2" fill="hsl(0, 100%, 60%)" />
<rect x="20" y="20" width="2" height="2" fill="hsl(0, 100%, 60%)" />
<rect x="24" y="20" width="2" height="2" fill="hsl(0, 100%, 60%)" />
<rect x="28" y="20" width="2" height="2" fill="hsl(0, 100%, 60%)" />
<rect x="54" y="20" width="2" height="2" fill="hsl(0, 100%, 60%)" />
<rect x="56" y="20" width="2" height="2" fill="hsl(0, 100%, 60%)" />
<rect x="62" y="20" width="2" height="2" fill="hsl(0, 100%, 60%)" />
<rect x="66" y="20" width="2" height="2" fill="hsl(0, 100%, 60%)" />
<rect x="92" y="20" width="2" height="2" fill="hsl(0, 100%, 60%)" />
<rect x="94" y="20" width="2" height="2" fill="hsl(0, 100%, 60%)" />
<rect x="18" y="22" width="2" height="2" fill="hsl(0, 100%, 60%)" />
<rect x="20" y="22" width="2" height="2" fill="hsl(0, 100%, 60%)" />
<rect x="28" y="22" width="2" height="2" fill="hsl(0, 100%, 60%)" />
<rect x="56" y="22" width="2" height="2" fill="hsl(0, 100%, 60%)" />
<rect x="58" y="22" width="2" height="2" fill="hsl(0, 100%, 60%)" />
<rect x="66" y="22" width="2" height="2" fill="hsl(0, 100%, 60%)" />
<rect x="18" y="24" width="2" height="2" fill="hsl(0, 100%, 60%)" />
<rect x="20" y="24" width="2" height="2" fill="hsl(0, 100%, 60%)" />
<rect x="30" y="24" width="2" height="2" fill="hsl(0, 100%, 60%)" />
<rect x="32" y="24" width="2" height="2" fill="hsl(0, 100%, 60%)" />
<rect x="46" y="24" width="2" height="2" fill="hsl(0, 100%, 60%)" />
<rect x="48" y="24" width="2" height="2" fill="hsl(0, 100%, 60%)" />
<rect x="58" y="24" width="2" height="2" fill="hsl(0, 100%, 60%)" />
<rect x="60" y="24" width="2" height="2" fill="hsl(0, 100%, 60%)" />
<rect x="62" y="24" width="2" height="2" fill="hsl(0, 100%, 60%)" />
<rect x="4" y="26" width="2" height="2" fill="hsl(0, 100%, 60%)" />
<rect x="18" y="26" width="2" height="2" fill="hsl(0, 100%, 60%)" />
<rect x="20" y="26" width="2" height="2" fill="hsl(0, 100%, 60%)" />
<rect x="32" y="26" width="2" height="2" fill="hsl(0, 100%, 60%)" />
<rect x="34" y="26" width="2" height="2" fill="hsl(0, 100%, 60%)" />
<rect x="46" y="26" width="2" height="2" fill="hsl(0, 100%, 60%)" />
<rect x="48" y="26" width="2" height="2" fill="hsl(0, 100%, 60%)" />
<rect x="4" y="28" width="2" height="2" fill="hsl(0, 100%, 60%)" />
<rect x="6" y="28" width="2" height="2" fill="hsl(0, 100%, 60%)" />
<rect x="8" y="28" width="2" height="2" fill="hsl(0, 100%, 60%)" />
<rect x="24" y="28" width="2" height="2" fill="hsl(0, 100%, 60%)" />
<rect x="26" y="28" width="2" height="2" fill="hsl(0, 100%, 60%)" />
<rect x="28" y="28" width="2" height="2" fill="hsl(0, 100%, 60%)" />
<rect x="32" y="28" width="2" height="2" fill="hsl(0, 100%, 60%)" />
<rect x="58" y="28" width="2" height="2" fill="hsl(0, 100%, 60%)" />
<rect x="60" y="28" width="2" height="2" fill="hsl(0, 100%, 60%)" />
<rect x="62" y="28" width="2" height="2" fill="hsl(0, 100%, 60%)" />
<rect x="10" y="30" width="2" height="2" fill="hsl(0, 100%, 60%)" />
<rect x="22" y="30" width="2" height="2" fill="hsl(0, 100%, 60%)" />
<rect x="24" y="30" width="2" height="2" fill="hsl(0, 100%, 60%)" />
<rect x="32" y="30" width="2" height="2" fill="hsl(0, 100%, 60%)" />
<rect x="36" y="30" width="2" height="2" fill="hsl(0, 100%, 60%)" />
<rect x="40" y="30" width="2" height="2" fill="hsl(0, 100%, 60%)" />
<rect x="56" y="30" width="2" height="2" fill="hsl(0, 100%, 60%)" />
<rect x="58" y="30" width="2" height="2" fill="hsl(0, 100%, 60%)" />
<rect x="66" y="30" width="2" height="2" fill="hsl(0, 100%, 60%)" />
<rect x="8" y="32" width="2" height="2" fill="hsl(0, 100%, 60%)" />
<rect x="12" y="32" width="2" height="2" fill="hsl(0, 100%, 60%)" />
<rect x="26" y="32" width="2" height="2" fill="hsl(0, 100%, 60%)" />
<rect x="32" y="32" width="2" height="2" fill="hsl(0, 100%, 60%)" />
<rect x="40" y="32" width="2" height="2" fill="hsl(0, 100%, 60%)" />
<rect x="54" y="32" width="2" height="2" fill="hsl(0, 100%, 60%)" />
<rect x="56" y="32" width="2" height="2" fill="hsl(0, 100%, 60%)" />
<rect x="62" y="32" width="2" height="2" fill="hsl(0, 100%, 60%)" />
<rect x="66" y="32" width="2" height="2" fill="hsl(0, 100%, 60%)" />
<rect x="92" y="32" width="2" height="2" fill="hsl(0, 100%, 60%)" />
<rect x="94" y="32" width="2" height="2" fill="hsl(0, 100%, 60%)" />
<rect x="8" y="34" width="2" height="2" fill="hsl(0, 100%, 60%)" />
<rect x="10" y="34" width="2" height="2" fill="hsl(0, 100%, 60%)" />
<rect x="26" y="34" width="2" height="2" fill="hsl(0, 100%, 60%)" />
<rect x="30" y="34" width="2" height="2" fill="hsl(0, 100%, 60%)" />
<rect x="36" y="34" width="2" height="2" fill="hsl(0, 100%, 60%)" />
<rect x="40" y="34" width="2" height="2" fill="hsl(0, 100%, 60%)" />
<rect x="56" y="34" width="2" height="2" fill="hsl(0, 100%, 60%)" />
<rect x="68" y="34" width="2" height="2" fill="hsl(0, 100%, 60%)" />
<rect x="92" y="34" width="2" height="2" fill="hsl(0, 100%, 60%)" />
<rect x="94" y="34" width="2" height="2" fill="hsl(0, 100%, 60%)" />
<rect x="58" y="36" width="2" height="2" fill="hsl(0, 100%, 60%)" />
<rect x="60" y="36" width="2" height="2" fill="hsl(0, 100%, 60%)" />
<rect x="66" y="36" width="2" height="2" fill="hsl(0, 100%, 60%)" />
<rect x="8" y="38" width="2" height="2" fill="hsl(0, 100%, 60%)" />
<rect x="10" y="38" width="2" height="2" fill="hsl(0, 100%, 60%)" />
<rect x="66" y="38" width="2" height="2" fill="hsl(0, 100%, 60%)" />
<rect x="8" y="40" width="2" height="2" fill="hsl(0, 100%, 60%)" />
<rect x="90" y="40" width="2" height="2" fill="hsl(0, 100%, 60%)" />
<rect x="92" y="40" width="2" height="2" fill="hsl(0, 100%, 60%)" />
<rect x="12" y="42" width="2" height="2" fill="hsl(0, 100%, 60%)" />
<rect x="90" y="42" width="2" height="2" fill="hsl(0, 100%, 60%)" />
<rect x="92" y="42" width="2" height="2" fill="hsl(0, 100%, 60%)" />
<rect x="10" y="44" width="2" height="2" fill="hsl(0, 100%, 60%)" />
<rect x="12" y="44" width="2" height="2" fill="hsl(0, 100%, 60%)" />
<rect x="20" y="46" width="2" height="2" fill="hsl(0, 100%, 60%)" />
<rect x="22" y="46" width="2" height="2" fill="hsl(0, 100%, 60%)" />
<rect x="22" y="48" width="2" height="2" fill="hsl(0, 100%, 60%)" />
<rect x="66" y="48" width="2" height="2" fill="hsl(0, 100%, 60%)" />
<rect x="16" y="50" width="2" height="2" fill="hsl(0, 100%, 60%)" />
<rect x="18" y="50" width="2" height="2" fill="hsl(0, 100%, 60%)" />
<rect x="20" y="50" width="2" height="2" fill="hsl(0, 100%, 60%)" />
<rect x="68" y="50" width="2" height="2" fill="hsl(0, 100%, 60%)" />
<rect x="16" y="52" width="2" height="2" fill="hsl(0, 100%, 60%)" />
<rect x="64" y="52" width="2" height="2" fill="hsl(0, 100%, 60%)" />
<rect x="66" y="52" width="2" height="2" fill="hsl(0, 100%, 60%)" />
<rect x="68" y="52" width="2" height="2" fill="hsl(0, 100%, 60%)" />
</svg>