<?xml version="1.0" encoding="utf-8"?>
<svg xmlns="http://www.w3.org/2000/svg" width="123" height="103" viewBox="0 0 123 103">
<rect width="100%" height="100%" fill="transparent" />
<rect x="74" y="4" width="5" height="5" fill="hsl(0, 100%, 60%)" />
<rect x="79" y="4" width="5" height="5" fill="hsl(0, 100%, 60%)" />
<rect x="84" y="4" width="5" height="5" fill="hsl(0, 100%, 60%)" />
<rect x="69" y="14" width="5" height="5" fill="hsl(0, 100%, 60%)" />
<rect x="89" y="14" width="5" height="5" fill="hsl(0, 100%, 60%)" />
<rect x="69" y="19" width="5" height="5" fill="hsl(0, 100%, 60%)" />
<rect x="89" y="19" width="5" height="5" fill="hsl(0, 100%, 60%)" />
<rect x="74" y="29" width="5" height="5" fill="hsl(0, 100%, 60%)" />
<rect x="79" y="29" width="5" height="5" fill="hsl(0, 100%, 60%)" />
<rect x="84" y="29" width="5" height="5" fill="hsl(0, 100%, 60%)" />
<rect x="74" y="44" width="5" height="5" fill="hsl(0, 100%, 60%)" />
<rect x="79" y="44" width="5" height="5" fill="hsl(0, 100%, 60%)" />
<rect x="84" y="44" width="5" height="5" fill="hsl(0, 100%, 60%)" />
<rect x="69" y="54" width="5" height="5" fill="hsl(0, 100%, 60%)" />
<rect x="89" y="54" width="5" height="5" fill="hsl(0, 100%, 60%)" />
<rect x="69" y="59" width="5" height="5" fill="hsl(0, 100%, 60%)" />
<rect x="89" y="59" width="5" height="5" fill="hsl(0, 100%, 60%)" />
<rect x="104" y="64" width="5" height="5" fill="hsl(0, 100%, 60%)" />
<rect x="74" y="69" width="5" height="5" fill="hsl(0, 100%, 60%)" />
<rect x="79" y="69" width="5" height="5" fill="hsl(0, 100%, 60%)" />
<rect x="84" y="69" width="5" height="5" fill="hsl(0, 100%, 60%)" />
<rect x="104" y="69" width="5" height="5" fill="hsl(0, 100%, 60%)" />
<rect x="114" y="69" width="5" height="5" fill="hsl(0, 100%, 60%)" />
<rect x="104" y="74" width="5" height="5" fill="hsl(0, 100%, 60%)" />
<rect x="109" y="74" width="5" height="5" fill="hsl(0, 100%, 60%)" />
<rect x="4" y="84" width="5" height="5" fill="hsl(0, 100%, 60%)" />
<rect x="19" y="84" width="5" height="5" fill="hsl(0, 100%, 60%)" />
<rect x="29" y="84" width="5" height="5" fill="hsl(0, 100%, 60%)" />
<rect x="34" y="84" width="5" height="5" fill="hsl(0, 100%, 60%)" />
<rect x="44" y="84" width="5" height="5" fill="hsl(0, 100%, 60%)" />
<rect x="59" y="84" width="5" height="5" fill="hsl(0, 100%, 60%)" />
<rect x="4" y="89" width="5" height="5" fill="hsl(0, 100%, 60%)" />
<rect x="9" y="89" width="5" height="5" fill="hsl(0, 100%, 60%)" />
<rect x="14" y="89" width="5" height="5" fill="hsl(0, 100%, 60%)" />
<rect x="19" y="89" width="5" height="5" fill="hsl(0, 100%, 60%)" />
<rect x="29" y="89" width="5" height="5" fill="hsl(0, 100%, 60%)" />
<rect x="34" y="89" width="5" height="5" fill="hsl(0, 100%, 60%)" />
<rect x="44" y="89" width="5" height="5" fill="hsl(0, 100%, 60%)" />
<rect x="49" y="89" width="5" height="5" fill="hsl(0, 100%, 60%)" />
<rect x="54" y="89" width="5" height="5" fill="hsl(0, 100%, 60%)" />
<rect x="59" y="89" width="5" height="5" fill="hsl(0, 100%, 60%)" />
<rect x="4" y="94" width="5" height="5" fill="hsl(0, 100%, 60%)" />
<rect x="19" y="94" width="5" height="5" fill="hsl(0, 100%, 60%)" />
<rect x="29" y="94" width="5" height="5" fill="hsl(0, 100%, 60%)" />
<rect x="34" y="94" width="5" height="5" fill="hsl(0, 100%, 60%)" />
<rect x="44" y="94" width="5" height="5" fill="hsl(0, 100%, 60%)" />
<rect x="59" y="94" width="5" height="5" fill="hsl(0, 100%, 60%)" />
</svg>