<?xml version="1.0" encoding="utf-8"?>
<svg xmlns="http://www.w3.org/2000/svg" width="98" height="72" viewBox="0 0 98 72">
<rect width="100%" height="100%" fill="transparent" />
<rect x="44" y="4" width="2" height="2" fill="hsl(0, 100%, 60%)" />
<rect x="44" y="6" width="2" height="2" fill="hsl(0, 100%, 60%)" />
<rect x="46" y="6" width="2" height="2" fill="hsl(0, 100%, 60%)" />
<rect x="48" y="6" width="2" height="2" fill="hsl(0, 100%, 60%)" />
<rect x="50" y="8" width="2" height="2" fill="hsl(0, 100%, 60%)" />
<rect x="28" y="10" width="2" height="2" fill="hsl(0, 100%, 60%)" />
<rect x="30" y="10" width="2" height="2" fill="hsl(0, 100%, 60%)" />
<rect x="48" y="10" width="2" height="2" fill="hsl(0, 100%, 60%)" />
<rect x="50" y="10" width="2" height="2" fill="hsl(0, 100%, 60%)" />
<rect x="30" y="12" width="2" height="2" fill="hsl(0, 100%, 60%)" />
<rect x="30" y="14" width="2" height="2" fill="hsl(0, 100%, 60%)" />
<rect x="34" y="14" width="2" height="2" fill="hsl(0, 100%, 60%)" />
<rect x="4" y="16" width="2" height="2" fill="hsl(0, 100%, 60%)" />
<rect x="6" y="16" width="2" height="2" fill="hsl(0, 100%, 60%)" />
<rect x="32" y="16" width="2" height="2" fill="hsl(0, 100%, 60%)" />
<rect x="34" y="16" width="2" height="2" fill="hsl(0, 100%, 60%)" />
<rect x="4" y="18" width="2" height="2" fill="hsl(0, 100%, 60%)" />
<rect x="8" y="18" width="2" height="2" fill="hsl(0, 100%, 60%)" />
<rect x="8" y="20" width="2" height="2" fill="hsl(0, 100%, 60%)" />
<rect x="8" y="22" width="2" height="2" fill="hsl(0, 100%, 60%)" />
<rect x="10" y="22" width="2" height="2" fill="hsl(0, 100%, 60%)" />
<rect x="90" y="28" width="2" height="2" fill="hsl(0, 100%, 60%)" />
<rect x="92" y="28" width="2" height="2" fill="hsl(0, 100%, 60%)" />
<rect x="90" y="30" width="2" height="2" fill="hsl(0, 100%, 60%)" />
<rect x="92" y="30" width="2" height="2" fill="hsl(0, 100%, 60%)" />
<rect x="6" y="34" width="2" height="2" fill="hsl(0, 100%, 60%)" />
<rect x="14" y="34" width="2" height="2" fill="hsl(0, 100%, 60%)" />
<rect x="16" y="34" width="2" height="2" fill="hsl(0, 100%, 60%)" />
<rect x="6" y="36" width="2" height="2" fill="hsl(0, 100%, 60%)" />
<rect x="8" y="36" width="2" height="2" fill="hsl(0, 100%, 60%)" />
<rect x="14" y="36" width="2" height="2" fill="hsl(0, 100%, 60%)" />
<rect x="16" y="36" width="2" height="2" fill="hsl(0, 100%, 60%)" />
<rect x="8" y="38" width="2" height="2" fill="hsl(0, 100%, 60%)" />
<rect x="10" y="38" width="2" height="2" fill="hsl(0, 100%, 60%)" />
<rect x="6" y="40" width="2" height="2" fill="hsl(0, 100%, 60%)" />
<rect x="8" y="40" width="2" height="2" fill="hsl(0, 100%, 60%)" />
<rect x="70" y="58" width="2" height="2" fill="hsl(0, 100%, 60%)" />
<rect x="72" y="58" width="2" height="2" fill="hsl(0, 100%, 60%)" />
<rect x="22" y="60" width="2" height="2" fill="hsl(0, 100%, 60%)" />
<rect x="24" y="60" width="2" height="2" fill="hsl(0, 100%, 60%)" />
<rect x="70" y="60" width="2" height="2" fill="hsl(0, 100%, 60%)" />
<rect x="72" y="60" width="2" height="2" fill="hsl(0, 100%, 60%)" />
<rect x="20" y="62" width="2" height="2" fill="hsl(0, 100%, 60%)" />
<rect x="24" y="62" width="2" height="2" fill="hsl(0, 100%, 60%)" />
<rect x="20" y="64" width="2" height="2" fill="hsl(0, 100%, 60%)" />
<rect x="18" y="66" width="2" height="2" fill="hsl(0, 100%, 60%)" />
<rect x="20" y="66" width="2" height="2" fill="hsl(0, 100%, 60%)" />
</svg>