<?xml version="1.0" encoding="utf-8"?>
<svg xmlns="http://www.w3.org/2000/svg" width="126" height="126" viewBox="0 0 126 126">
<rect width="100%" height="100%" fill="transparent" />
<rect x="32" y="4" width="2" height="2" fill="hsl(0, 100%, 60%)" />
<rect x="34" y="4" width="2" height="2" fill="hsl(0, 100%, 60%)" />
<rect x="44" y="4" width="2" height="2" fill="hsl(0, 100%, 60%)" />
<rect x="46" y="4" width="2" height="2" fill="hsl(0, 100%, 60%)" />
<rect x="56" y="4" width="2" height="2" fill="hsl(0, 100%, 60%)" />
<rect x="58" y="4" width="2" height="2" fill="hsl(0, 100%, 60%)" />
<rect x="30" y="6" width="2" height="2" fill="hsl(0, 100%, 60%)" />
<rect x="36" y="6" width="2" height="2" fill="hsl(0, 100%, 60%)" />
<rect x="40" y="6" width="2" height="2" fill="hsl(0, 100%, 60%)" />
<rect x="50" y="6" width="2" height="2" fill="hsl(0, 100%, 60%)" />
<rect x="54" y="6" width="2" height="2" fill="hsl(0, 100%, 60%)" />
<rect x="60" y="6" width="2" height="2" fill="hsl(0, 100%, 60%)" />
<rect x="30" y="8" width="2" height="2" fill="hsl(0, 100%, 60%)" />
<rect x="32" y="8" width="2" height="2" fill="hsl(0, 100%, 60%)" />
<rect x="34" y="8" width="2" height="2" fill="hsl(0, 100%, 60%)" />
<rect x="56" y="8" width="2" height="2" fill="hsl(0, 100%, 60%)" />
<rect x="58" y="8" width="2" height="2" fill="hsl(0, 100%, 60%)" />
<rect x="60" y="8" width="2" height="2" fill="hsl(0, 100%, 60%)" />
<rect x="36" y="10" width="2" height="2" fill="hsl(0, 100%, 60%)" />
<rect x="38" y="10" width="2" height="2" fill="hsl(0, 100%, 60%)" />
<rect x="52" y="10" width="2" height="2" fill="hsl(0, 100%, 60%)" />
<rect x="54" y="10" width="2" height="2" fill="hsl(0, 100%, 60%)" />
<rect x="34" y="12" width="2" height="2" fill="hsl(0, 100%, 60%)" />
<rect x="40" y="12" width="2" height="2" fill="hsl(0, 100%, 60%)" />
<rect x="42" y="12" width="2" height="2" fill="hsl(0, 100%, 60%)" />
<rect x="44" y="12" width="2" height="2" fill="hsl(0, 100%, 60%)" />
<rect x="46" y="12" width="2" height="2" fill="hsl(0, 100%, 60%)" />
<rect x="48" y="12" width="2" height="2" fill="hsl(0, 100%, 60%)" />
<rect x="50" y="12" width="2" height="2" fill="hsl(0, 100%, 60%)" />
<rect x="56" y="12" width="2" height="2" fill="hsl(0, 100%, 60%)" />
<rect x="34" y="14" width="2" height="2" fill="hsl(0, 100%, 60%)" />
<rect x="36" y="14" width="2" height="2" fill="hsl(0, 100%, 60%)" />
<rect x="54" y="14" width="2" height="2" fill="hsl(0, 100%, 60%)" />
<rect x="56" y="14" width="2" height="2" fill="hsl(0, 100%, 60%)" />
<rect x="20" y="18" width="2" height="2" fill="hsl(0, 100%, 60%)" />
<rect x="80" y="18" width="2" height="2" fill="hsl(0, 100%, 60%)" />
<rect x="82" y="18" width="2" height="2" fill="hsl(0, 100%, 60%)" />
<rect x="104" y="18" width="2" height="2" fill="hsl(0, 100%, 60%)" />
<rect x="18" y="20" width="2" height="2" fill="hsl(0, 100%, 60%)" />
<rect x="26" y="20" width="2" height="2" fill="hsl(0, 100%, 60%)" />
<rect x="28" y="20" width="2" height="2" fill="hsl(0, 100%, 60%)" />
<rect x="30" y="20" width="2" height="2" fill="hsl(0, 100%, 60%)" />
<rect x="44" y="20" width="2" height="2" fill="hsl(0, 100%, 60%)" />
<rect x="64" y="20" width="2" height="2" fill="hsl(0, 100%, 60%)" />
<rect x="80" y="20" width="2" height="2" fill="hsl(0, 100%, 60%)" />
<rect x="82" y="20" width="2" height="2" fill="hsl(0, 100%, 60%)" />
<rect x="102" y="20" width="2" height="2" fill="hsl(0, 100%, 60%)" />
<rect x="106" y="20" width="2" height="2" fill="hsl(0, 100%, 60%)" />
<rect x="20" y="22" width="2" height="2" fill="hsl(0, 100%, 60%)" />
<rect x="24" y="22" width="2" height="2" fill="hsl(0, 100%, 60%)" />
<rect x="26" y="22" width="2" height="2" fill="hsl(0, 100%, 60%)" />
<rect x="28" y="22" width="2" height="2" fill="hsl(0, 100%, 60%)" />
<rect x="30" y="22" width="2" height="2" fill="hsl(0, 100%, 60%)" />
<rect x="32" y="22" width="2" height="2" fill="hsl(0, 100%, 60%)" />
<rect x="54" y="22" width="2" height="2" fill="hsl(0, 100%, 60%)" />
<rect x="56" y="22" width="2" height="2" fill="hsl(0, 100%, 60%)" />
<rect x="58" y="22" width="2" height="2" fill="hsl(0, 100%, 60%)" />
<rect x="66" y="22" width="2" height="2" fill="hsl(0, 100%, 60%)" />
<rect x="28" y="24" width="2" height="2" fill="hsl(0, 100%, 60%)" />
<rect x="36" y="24" width="2" height="2" fill="hsl(0, 100%, 60%)" />
<rect x="48" y="24" width="2" height="2" fill="hsl(0, 100%, 60%)" />
<rect x="52" y="24" width="2" height="2" fill="hsl(0, 100%, 60%)" />
<rect x="54" y="24" width="2" height="2" fill="hsl(0, 100%, 60%)" />
<rect x="56" y="24" width="2" height="2" fill="hsl(0, 100%, 60%)" />
<rect x="58" y="24" width="2" height="2" fill="hsl(0, 100%, 60%)" />
<rect x="60" y="24" width="2" height="2" fill="hsl(0, 100%, 60%)" />
<rect x="64" y="24" width="2" height="2" fill="hsl(0, 100%, 60%)" />
<rect x="102" y="24" width="2" height="2" fill="hsl(0, 100%, 60%)" />
<rect x="28" y="26" width="2" height="2" fill="hsl(0, 100%, 60%)" />
<rect x="30" y="26" width="2" height="2" fill="hsl(0, 100%, 60%)" />
<rect x="40" y="26" width="2" height="2" fill="hsl(0, 100%, 60%)" />
<rect x="42" y="26" width="2" height="2" fill="hsl(0, 100%, 60%)" />
<rect x="44" y="26" width="2" height="2" fill="hsl(0, 100%, 60%)" />
<rect x="56" y="26" width="2" height="2" fill="hsl(0, 100%, 60%)" />
<rect x="102" y="26" width="2" height="2" fill="hsl(0, 100%, 60%)" />
<rect x="104" y="26" width="2" height="2" fill="hsl(0, 100%, 60%)" />
<rect x="28" y="28" width="2" height="2" fill="hsl(0, 100%, 60%)" />
<rect x="30" y="28" width="2" height="2" fill="hsl(0, 100%, 60%)" />
<rect x="40" y="28" width="2" height="2" fill="hsl(0, 100%, 60%)" />
<rect x="42" y="28" width="2" height="2" fill="hsl(0, 100%, 60%)" />
<rect x="44" y="28" width="2" height="2" fill="hsl(0, 100%, 60%)" />
<rect x="54" y="28" width="2" height="2" fill="hsl(0, 100%, 60%)" />
<rect x="56" y="28" width="2" height="2" fill="hsl(0, 100%, 60%)" />
<rect x="96" y="28" width="2" height="2" fill="hsl(0, 100%, 60%)" />
<rect x="98" y="28" width="2" height="2" fill="hsl(0, 100%, 60%)" />
<rect x="100" y="28" width="2" height="2" fill="hsl(0, 100%, 60%)" />
<rect x="102" y="28" width="2" height="2" fill="hsl(0, 100%, 60%)" />
<rect x="104" y="28" width="2" height="2" fill="hsl(0, 100%, 60%)" />
<rect x="42" y="30" width="2" height="2" fill="hsl(0, 100%, 60%)" />
<rect x="54" y="30" width="2" height="2" fill="hsl(0, 100%, 60%)" />
<rect x="56" y="30" width="2" height="2" fill="hsl(0, 100%, 60%)" />
<rect x="96" y="30" width="2" height="2" fill="hsl(0, 100%, 60%)" />
<rect x="98" y="30" width="2" height="2" fill="hsl(0, 100%, 60%)" />
<rect x="102" y="30" width="2" height="2" fill="hsl(0, 100%, 60%)" />
<rect x="104" y="30" width="2" height="2" fill="hsl(0, 100%, 60%)" />
<rect x="116" y="30" width="2" height="2" fill="hsl(0, 100%, 60%)" />
<rect x="118" y="30" width="2" height="2" fill="hsl(0, 100%, 60%)" />
<rect x="102" y="32" width="2" height="2" fill="hsl(0, 100%, 60%)" />
<rect x="116" y="32" width="2" height="2" fill="hsl(0, 100%, 60%)" />
<rect x="120" y="32" width="2" height="2" fill="hsl(0, 100%, 60%)" />
<rect x="110" y="34" width="2" height="2" fill="hsl(0, 100%, 60%)" />
<rect x="112" y="34" width="2" height="2" fill="hsl(0, 100%, 60%)" />
<rect x="116" y="34" width="2" height="2" fill="hsl(0, 100%, 60%)" />
<rect x="120" y="34" width="2" height="2" fill="hsl(0, 100%, 60%)" />
<rect x="110" y="36" width="2" height="2" fill="hsl(0, 100%, 60%)" />
<rect x="114" y="36" width="2" height="2" fill="hsl(0, 100%, 60%)" />
<rect x="118" y="36" width="2" height="2" fill="hsl(0, 100%, 60%)" />
<rect x="114" y="38" width="2" height="2" fill="hsl(0, 100%, 60%)" />
<rect x="74" y="40" width="2" height="2" fill="hsl(0, 100%, 60%)" />
<rect x="76" y="40" width="2" height="2" fill="hsl(0, 100%, 60%)" />
<rect x="78" y="40" width="2" height="2" fill="hsl(0, 100%, 60%)" />
<rect x="98" y="40" width="2" height="2" fill="hsl(0, 100%, 60%)" />
<rect x="102" y="40" width="2" height="2" fill="hsl(0, 100%, 60%)" />
<rect x="110" y="40" width="2" height="2" fill="hsl(0, 100%, 60%)" />
<rect x="116" y="40" width="2" height="2" fill="hsl(0, 100%, 60%)" />
<rect x="18" y="42" width="2" height="2" fill="hsl(0, 100%, 60%)" />
<rect x="20" y="42" width="2" height="2" fill="hsl(0, 100%, 60%)" />
<rect x="74" y="42" width="2" height="2" fill="hsl(0, 100%, 60%)" />
<rect x="80" y="42" width="2" height="2" fill="hsl(0, 100%, 60%)" />
<rect x="98" y="42" width="2" height="2" fill="hsl(0, 100%, 60%)" />
<rect x="104" y="42" width="2" height="2" fill="hsl(0, 100%, 60%)" />
<rect x="116" y="42" width="2" height="2" fill="hsl(0, 100%, 60%)" />
<rect x="18" y="44" width="2" height="2" fill="hsl(0, 100%, 60%)" />
<rect x="20" y="44" width="2" height="2" fill="hsl(0, 100%, 60%)" />
<rect x="82" y="44" width="2" height="2" fill="hsl(0, 100%, 60%)" />
<rect x="98" y="44" width="2" height="2" fill="hsl(0, 100%, 60%)" />
<rect x="102" y="44" width="2" height="2" fill="hsl(0, 100%, 60%)" />
<rect x="108" y="44" width="2" height="2" fill="hsl(0, 100%, 60%)" />
<rect x="116" y="44" width="2" height="2" fill="hsl(0, 100%, 60%)" />
<rect x="74" y="46" width="2" height="2" fill="hsl(0, 100%, 60%)" />
<rect x="80" y="46" width="2" height="2" fill="hsl(0, 100%, 60%)" />
<rect x="108" y="46" width="2" height="2" fill="hsl(0, 100%, 60%)" />
<rect x="116" y="46" width="2" height="2" fill="hsl(0, 100%, 60%)" />
<rect x="74" y="48" width="2" height="2" fill="hsl(0, 100%, 60%)" />
<rect x="76" y="48" width="2" height="2" fill="hsl(0, 100%, 60%)" />
<rect x="78" y="48" width="2" height="2" fill="hsl(0, 100%, 60%)" />
<rect x="116" y="48" width="2" height="2" fill="hsl(0, 100%, 60%)" />
<rect x="110" y="50" width="2" height="2" fill="hsl(0, 100%, 60%)" />
<rect x="116" y="50" width="2" height="2" fill="hsl(0, 100%, 60%)" />
<rect x="100" y="52" width="2" height="2" fill="hsl(0, 100%, 60%)" />
<rect x="114" y="52" width="2" height="2" fill="hsl(0, 100%, 60%)" />
<rect x="94" y="54" width="2" height="2" fill="hsl(0, 100%, 60%)" />
<rect x="96" y="54" width="2" height="2" fill="hsl(0, 100%, 60%)" />
<rect x="100" y="54" width="2" height="2" fill="hsl(0, 100%, 60%)" />
<rect x="102" y="54" width="2" height="2" fill="hsl(0, 100%, 60%)" />
<rect x="110" y="54" width="2" height="2" fill="hsl(0, 100%, 60%)" />
<rect x="114" y="54" width="2" height="2" fill="hsl(0, 100%, 60%)" />
<rect x="118" y="54" width="2" height="2" fill="hsl(0, 100%, 60%)" />
<rect x="94" y="56" width="2" height="2" fill="hsl(0, 100%, 60%)" />
<rect x="96" y="56" width="2" height="2" fill="hsl(0, 100%, 60%)" />
<rect x="98" y="56" width="2" height="2" fill="hsl(0, 100%, 60%)" />
<rect x="100" y="56" width="2" height="2" fill="hsl(0, 100%, 60%)" />
<rect x="102" y="56" width="2" height="2" fill="hsl(0, 100%, 60%)" />
<rect x="110" y="56" width="2" height="2" fill="hsl(0, 100%, 60%)" />
<rect x="112" y="56" width="2" height="2" fill="hsl(0, 100%, 60%)" />
<rect x="116" y="56" width="2" height="2" fill="hsl(0, 100%, 60%)" />
<rect x="120" y="56" width="2" height="2" fill="hsl(0, 100%, 60%)" />
<rect x="22" y="58" width="2" height="2" fill="hsl(0, 100%, 60%)" />
<rect x="100" y="58" width="2" height="2" fill="hsl(0, 100%, 60%)" />
<rect x="102" y="58" width="2" height="2" fill="hsl(0, 100%, 60%)" />
<rect x="116" y="58" width="2" height="2" fill="hsl(0, 100%, 60%)" />
<rect x="120" y="58" width="2" height="2" fill="hsl(0, 100%, 60%)" />
<rect x="20" y="60" width="2" height="2" fill="hsl(0, 100%, 60%)" />
<rect x="24" y="60" width="2" height="2" fill="hsl(0, 100%, 60%)" />
<rect x="100" y="60" width="2" height="2" fill="hsl(0, 100%, 60%)" />
<rect x="116" y="60" width="2" height="2" fill="hsl(0, 100%, 60%)" />
<rect x="118" y="60" width="2" height="2" fill="hsl(0, 100%, 60%)" />
<rect x="6" y="64" width="2" height="2" fill="hsl(0, 100%, 60%)" />
<rect x="8" y="64" width="2" height="2" fill="hsl(0, 100%, 60%)" />
<rect x="24" y="64" width="2" height="2" fill="hsl(0, 100%, 60%)" />
<rect x="100" y="64" width="2" height="2" fill="hsl(0, 100%, 60%)" />
<rect x="104" y="64" width="2" height="2" fill="hsl(0, 100%, 60%)" />
<rect x="4" y="66" width="2" height="2" fill="hsl(0, 100%, 60%)" />
<rect x="8" y="66" width="2" height="2" fill="hsl(0, 100%, 60%)" />
<rect x="22" y="66" width="2" height="2" fill="hsl(0, 100%, 60%)" />
<rect x="24" y="66" width="2" height="2" fill="hsl(0, 100%, 60%)" />
<rect x="102" y="66" width="2" height="2" fill="hsl(0, 100%, 60%)" />
<rect x="4" y="68" width="2" height="2" fill="hsl(0, 100%, 60%)" />
<rect x="8" y="68" width="2" height="2" fill="hsl(0, 100%, 60%)" />
<rect x="12" y="68" width="2" height="2" fill="hsl(0, 100%, 60%)" />
<rect x="14" y="68" width="2" height="2" fill="hsl(0, 100%, 60%)" />
<rect x="22" y="68" width="2" height="2" fill="hsl(0, 100%, 60%)" />
<rect x="24" y="68" width="2" height="2" fill="hsl(0, 100%, 60%)" />
<rect x="26" y="68" width="2" height="2" fill="hsl(0, 100%, 60%)" />
<rect x="28" y="68" width="2" height="2" fill="hsl(0, 100%, 60%)" />
<rect x="30" y="68" width="2" height="2" fill="hsl(0, 100%, 60%)" />
<rect x="6" y="70" width="2" height="2" fill="hsl(0, 100%, 60%)" />
<rect x="10" y="70" width="2" height="2" fill="hsl(0, 100%, 60%)" />
<rect x="14" y="70" width="2" height="2" fill="hsl(0, 100%, 60%)" />
<rect x="22" y="70" width="2" height="2" fill="hsl(0, 100%, 60%)" />
<rect x="24" y="70" width="2" height="2" fill="hsl(0, 100%, 60%)" />
<rect x="28" y="70" width="2" height="2" fill="hsl(0, 100%, 60%)" />
<rect x="30" y="70" width="2" height="2" fill="hsl(0, 100%, 60%)" />
<rect x="10" y="72" width="2" height="2" fill="hsl(0, 100%, 60%)" />
<rect x="24" y="72" width="2" height="2" fill="hsl(0, 100%, 60%)" />
<rect x="8" y="74" width="2" height="2" fill="hsl(0, 100%, 60%)" />
<rect x="14" y="74" width="2" height="2" fill="hsl(0, 100%, 60%)" />
<rect x="8" y="76" width="2" height="2" fill="hsl(0, 100%, 60%)" />
<rect x="8" y="78" width="2" height="2" fill="hsl(0, 100%, 60%)" />
<rect x="16" y="78" width="2" height="2" fill="hsl(0, 100%, 60%)" />
<rect x="8" y="80" width="2" height="2" fill="hsl(0, 100%, 60%)" />
<rect x="16" y="80" width="2" height="2" fill="hsl(0, 100%, 60%)" />
<rect x="22" y="80" width="2" height="2" fill="hsl(0, 100%, 60%)" />
<rect x="26" y="80" width="2" height="2" fill="hsl(0, 100%, 60%)" />
<rect x="104" y="80" width="2" height="2" fill="hsl(0, 100%, 60%)" />
<rect x="106" y="80" width="2" height="2" fill="hsl(0, 100%, 60%)" />
<rect x="8" y="82" width="2" height="2" fill="hsl(0, 100%, 60%)" />
<rect x="20" y="82" width="2" height="2" fill="hsl(0, 100%, 60%)" />
<rect x="26" y="82" width="2" height="2" fill="hsl(0, 100%, 60%)" />
<rect x="104" y="82" width="2" height="2" fill="hsl(0, 100%, 60%)" />
<rect x="106" y="82" width="2" height="2" fill="hsl(0, 100%, 60%)" />
<rect x="8" y="84" width="2" height="2" fill="hsl(0, 100%, 60%)" />
<rect x="14" y="84" width="2" height="2" fill="hsl(0, 100%, 60%)" />
<rect x="22" y="84" width="2" height="2" fill="hsl(0, 100%, 60%)" />
<rect x="26" y="84" width="2" height="2" fill="hsl(0, 100%, 60%)" />
<rect x="10" y="86" width="2" height="2" fill="hsl(0, 100%, 60%)" />
<rect x="6" y="88" width="2" height="2" fill="hsl(0, 100%, 60%)" />
<rect x="10" y="88" width="2" height="2" fill="hsl(0, 100%, 60%)" />
<rect x="14" y="88" width="2" height="2" fill="hsl(0, 100%, 60%)" />
<rect x="4" y="90" width="2" height="2" fill="hsl(0, 100%, 60%)" />
<rect x="8" y="90" width="2" height="2" fill="hsl(0, 100%, 60%)" />
<rect x="12" y="90" width="2" height="2" fill="hsl(0, 100%, 60%)" />
<rect x="14" y="90" width="2" height="2" fill="hsl(0, 100%, 60%)" />
<rect x="4" y="92" width="2" height="2" fill="hsl(0, 100%, 60%)" />
<rect x="8" y="92" width="2" height="2" fill="hsl(0, 100%, 60%)" />
<rect x="22" y="92" width="2" height="2" fill="hsl(0, 100%, 60%)" />
<rect x="6" y="94" width="2" height="2" fill="hsl(0, 100%, 60%)" />
<rect x="8" y="94" width="2" height="2" fill="hsl(0, 100%, 60%)" />
<rect x="20" y="94" width="2" height="2" fill="hsl(0, 100%, 60%)" />
<rect x="22" y="94" width="2" height="2" fill="hsl(0, 100%, 60%)" />
<rect x="26" y="94" width="2" height="2" fill="hsl(0, 100%, 60%)" />
<rect x="28" y="94" width="2" height="2" fill="hsl(0, 100%, 60%)" />
<rect x="68" y="94" width="2" height="2" fill="hsl(0, 100%, 60%)" />
<rect x="70" y="94" width="2" height="2" fill="hsl(0, 100%, 60%)" />
<rect x="82" y="94" width="2" height="2" fill="hsl(0, 100%, 60%)" />
<rect x="20" y="96" width="2" height="2" fill="hsl(0, 100%, 60%)" />
<rect x="22" y="96" width="2" height="2" fill="hsl(0, 100%, 60%)" />
<rect x="24" y="96" width="2" height="2" fill="hsl(0, 100%, 60%)" />
<rect x="26" y="96" width="2" height="2" fill="hsl(0, 100%, 60%)" />
<rect x="28" y="96" width="2" height="2" fill="hsl(0, 100%, 60%)" />
<rect x="68" y="96" width="2" height="2" fill="hsl(0, 100%, 60%)" />
<rect x="70" y="96" width="2" height="2" fill="hsl(0, 100%, 60%)" />
<rect x="80" y="96" width="2" height="2" fill="hsl(0, 100%, 60%)" />
<rect x="82" y="96" width="2" height="2" fill="hsl(0, 100%, 60%)" />
<rect x="84" y="96" width="2" height="2" fill="hsl(0, 100%, 60%)" />
<rect x="94" y="96" width="2" height="2" fill="hsl(0, 100%, 60%)" />
<rect x="96" y="96" width="2" height="2" fill="hsl(0, 100%, 60%)" />
<rect x="20" y="98" width="2" height="2" fill="hsl(0, 100%, 60%)" />
<rect x="22" y="98" width="2" height="2" fill="hsl(0, 100%, 60%)" />
<rect x="68" y="98" width="2" height="2" fill="hsl(0, 100%, 60%)" />
<rect x="80" y="98" width="2" height="2" fill="hsl(0, 100%, 60%)" />
<rect x="82" y="98" width="2" height="2" fill="hsl(0, 100%, 60%)" />
<rect x="84" y="98" width="2" height="2" fill="hsl(0, 100%, 60%)" />
<rect x="94" y="98" width="2" height="2" fill="hsl(0, 100%, 60%)" />
<rect x="96" y="98" width="2" height="2" fill="hsl(0, 100%, 60%)" />
<rect x="22" y="100" width="2" height="2" fill="hsl(0, 100%, 60%)" />
<rect x="60" y="100" width="2" height="2" fill="hsl(0, 100%, 60%)" />
<rect x="64" y="100" width="2" height="2" fill="hsl(0, 100%, 60%)" />
<rect x="66" y="100" width="2" height="2" fill="hsl(0, 100%, 60%)" />
<rect x="68" y="100" width="2" height="2" fill="hsl(0, 100%, 60%)" />
<rect x="70" y="100" width="2" height="2" fill="hsl(0, 100%, 60%)" />
<rect x="72" y="100" width="2" height="2" fill="hsl(0, 100%, 60%)" />
<rect x="76" y="100" width="2" height="2" fill="hsl(0, 100%, 60%)" />
<rect x="88" y="100" width="2" height="2" fill="hsl(0, 100%, 60%)" />
<rect x="96" y="100" width="2" height="2" fill="hsl(0, 100%, 60%)" />
<rect x="58" y="102" width="2" height="2" fill="hsl(0, 100%, 60%)" />
<rect x="66" y="102" width="2" height="2" fill="hsl(0, 100%, 60%)" />
<rect x="68" y="102" width="2" height="2" fill="hsl(0, 100%, 60%)" />
<rect x="70" y="102" width="2" height="2" fill="hsl(0, 100%, 60%)" />
<rect x="92" y="102" width="2" height="2" fill="hsl(0, 100%, 60%)" />
<rect x="94" y="102" width="2" height="2" fill="hsl(0, 100%, 60%)" />
<rect x="96" y="102" width="2" height="2" fill="hsl(0, 100%, 60%)" />
<rect x="98" y="102" width="2" height="2" fill="hsl(0, 100%, 60%)" />
<rect x="100" y="102" width="2" height="2" fill="hsl(0, 100%, 60%)" />
<rect x="104" y="102" width="2" height="2" fill="hsl(0, 100%, 60%)" />
<rect x="18" y="104" width="2" height="2" fill="hsl(0, 100%, 60%)" />
<rect x="22" y="104" width="2" height="2" fill="hsl(0, 100%, 60%)" />
<rect x="42" y="104" width="2" height="2" fill="hsl(0, 100%, 60%)" />
<rect x="44" y="104" width="2" height="2" fill="hsl(0, 100%, 60%)" />
<rect x="60" y="104" width="2" height="2" fill="hsl(0, 100%, 60%)" />
<rect x="80" y="104" width="2" height="2" fill="hsl(0, 100%, 60%)" />
<rect x="94" y="104" width="2" height="2" fill="hsl(0, 100%, 60%)" />
<rect x="96" y="104" width="2" height="2" fill="hsl(0, 100%, 60%)" />
<rect x="98" y="104" width="2" height="2" fill="hsl(0, 100%, 60%)" />
<rect x="106" y="104" width="2" height="2" fill="hsl(0, 100%, 60%)" />
<rect x="20" y="106" width="2" height="2" fill="hsl(0, 100%, 60%)" />
<rect x="42" y="106" width="2" height="2" fill="hsl(0, 100%, 60%)" />
<rect x="44" y="106" width="2" height="2" fill="hsl(0, 100%, 60%)" />
<rect x="104" y="106" width="2" height="2" fill="hsl(0, 100%, 60%)" />
<rect x="68" y="110" width="2" height="2" fill="hsl(0, 100%, 60%)" />
<rect x="70" y="110" width="2" height="2" fill="hsl(0, 100%, 60%)" />
<rect x="88" y="110" width="2" height="2" fill="hsl(0, 100%, 60%)" />
<rect x="90" y="110" width="2" height="2" fill="hsl(0, 100%, 60%)" />
<rect x="68" y="112" width="2" height="2" fill="hsl(0, 100%, 60%)" />
<rect x="74" y="112" width="2" height="2" fill="hsl(0, 100%, 60%)" />
<rect x="76" y="112" width="2" height="2" fill="hsl(0, 100%, 60%)" />
<rect x="78" y="112" width="2" height="2" fill="hsl(0, 100%, 60%)" />
<rect x="80" y="112" width="2" height="2" fill="hsl(0, 100%, 60%)" />
<rect x="82" y="112" width="2" height="2" fill="hsl(0, 100%, 60%)" />
<rect x="84" y="112" width="2" height="2" fill="hsl(0, 100%, 60%)" />
<rect x="90" y="112" width="2" height="2" fill="hsl(0, 100%, 60%)" />
<rect x="70" y="114" width="2" height="2" fill="hsl(0, 100%, 60%)" />
<rect x="72" y="114" width="2" height="2" fill="hsl(0, 100%, 60%)" />
<rect x="86" y="114" width="2" height="2" fill="hsl(0, 100%, 60%)" />
<rect x="88" y="114" width="2" height="2" fill="hsl(0, 100%, 60%)" />
<rect x="64" y="116" width="2" height="2" fill="hsl(0, 100%, 60%)" />
<rect x="66" y="116" width="2" height="2" fill="hsl(0, 100%, 60%)" />
<rect x="68" y="116" width="2" height="2" fill="hsl(0, 100%, 60%)" />
<rect x="90" y="116" width="2" height="2" fill="hsl(0, 100%, 60%)" />
<rect x="92" y="116" width="2" height="2" fill="hsl(0, 100%, 60%)" />
<rect x="94" y="116" width="2" height="2" fill="hsl(0, 100%, 60%)" />
<rect x="64" y="118" width="2" height="2" fill="hsl(0, 100%, 60%)" />
<rect x="70" y="118" width="2" height="2" fill="hsl(0, 100%, 60%)" />
<rect x="74" y="118" width="2" height="2" fill="hsl(0, 100%, 60%)" />
<rect x="84" y="118" width="2" height="2" fill="hsl(0, 100%, 60%)" />
<rect x="88" y="118" width="2" height="2" fill="hsl(0, 100%, 60%)" />
<rect x="94" y="118" width="2" height="2" fill="hsl(0, 100%, 60%)" />
<rect x="66" y="120" width="2" height="2" fill="hsl(0, 100%, 60%)" />
<rect x="68" y="120" width="2" height="2" fill="hsl(0, 100%, 60%)" />
<rect x="78" y="120" width="2" height="2" fill="hsl(0, 100%, 60%)" />
<rect x="80" y="120" width="2" height="2" fill="hsl(0, 100%, 60%)" />
<rect x="90" y="120" width="2" height="2" fill="hsl(0, 100%, 60%)" />
<rect x="92" y="120" width="2" height="2" fill="hsl(0, 100%, 60%)" />
</svg>