<?xml version="1.0" encoding="utf-8"?>
<svg xmlns="http://www.w3.org/2000/svg" width="108" height="24" viewBox="0 0 108 24">
<rect width="100%" height="100%" fill="transparent" />
<rect x="52" y="4" width="4" height="4" fill="hsl(0, 100%, 60%)" />
<rect x="48" y="8" width="4" height="4" fill="hsl(0, 100%, 60%)" />
<rect x="56" y="8" width="4" height="4" fill="hsl(0, 100%, 60%)" />
<rect x="4" y="12" width="4" height="4" fill="hsl(0, 100%, 60%)" />
<rect x="8" y="12" width="4" height="4" fill="hsl(0, 100%, 60%)" />
<rect x="44" y="12" width="4" height="4" fill="hsl(0, 100%, 60%)" />
<rect x="48" y="12" width="4" height="4" fill="hsl(0, 100%, 60%)" />
<rect x="56" y="12" width="4" height="4" fill="hsl(0, 100%, 60%)" />
<rect x="60" y="12" width="4" height="4" fill="hsl(0, 100%, 60%)" />
<rect x="96" y="12" width="4" height="4" fill="hsl(0, 100%, 60%)" />
<rect x="100" y="12" width="4" height="4" fill="hsl(0, 100%, 60%)" />
<rect x="4" y="16" width="4" height="4" fill="hsl(0, 100%, 60%)" />
<rect x="8" y="16" width="4" height="4" fill="hsl(0, 100%, 60%)" />
<rect x="96" y="16" width="4" height="4" fill="hsl(0, 100%, 60%)" />
<rect x="100" y="16" width="4" height="4" fill="hsl(0, 100%, 60%)" />
</svg>