<?xml version="1.0" encoding="utf-8"?>
<svg xmlns="http://www.w3.org/2000/svg" width="125" height="107" viewBox="0 0 125 107">
<rect width="100%" height="100%" fill="transparent" />
<rect x="31" y="4" width="9" height="9" fill="hsl(0, 100%, 60%)" />
<rect x="85" y="4" width="9" height="9" fill="hsl(0, 100%, 60%)" />
<rect x="22" y="13" width="9" height="9" fill="hsl(0, 100%, 60%)" />
<rect x="40" y="13" width="9" height="9" fill="hsl(0, 100%, 60%)" />
<rect x="76" y="13" width="9" height="9" fill="hsl(0, 100%, 60%)" />
<rect x="94" y="13" width="9" height="9" fill="hsl(0, 100%, 60%)" />
<rect x="22" y="31" width="9" height="9" fill="hsl(0, 100%, 60%)" />
<rect x="31" y="31" width="9" height="9" fill="hsl(0, 100%, 60%)" />
<rect x="40" y="31" width="9" height="9" fill="hsl(0, 100%, 60%)" />
<rect x="76" y="31" width="9" height="9" fill="hsl(0, 100%, 60%)" />
<rect x="85" y="31" width="9" height="9" fill="hsl(0, 100%, 60%)" />
<rect x="94" y="31" width="9" height="9" fill="hsl(0, 100%, 60%)" />
<rect x="22" y="67" width="9" height="9" fill="hsl(0, 100%, 60%)" />
<rect x="31" y="67" width="9" height="9" fill="hsl(0, 100%, 60%)" />
<rect x="40" y="67" width="9" height="9" fill="hsl(0, 100%, 60%)" />
<rect x="76" y="67" width="9" height="9" fill="hsl(0, 100%, 60%)" />
<rect x="85" y="67" width="9" height="9" fill="hsl(0, 100%, 60%)" />
<rect x="94" y="67" width="9" height="9" fill="hsl(0, 100%, 60%)" />
<rect x="4" y="85" width="9" height="9" fill="hsl(0, 100%, 60%)" />
<rect x="22" y="85" width="9" height="9" fill="hsl(0, 100%, 60%)" />
<rect x="40" y="85" width="9" height="9" fill="hsl(0, 100%, 60%)" />
<rect x="76" y="85" width="9" height="9" fill="hsl(0, 100%, 60%)" />
<rect x="94" y="85" width="9" height="9" fill="hsl(0, 100%, 60%)" />
<rect x="112" y="85" width="9" height="9" fill="hsl(0, 100%, 60%)" />
<rect x="31" y="94" width="9" height="9" fill="hsl(0, 100%, 60%)" />
<rect x="85" y="94" width="9" height="9" fill="hsl(0, 100%, 60%)" />
</svg>