<?xml version="1.0" encoding="utf-8"?>
<svg xmlns="http://www.w3.org/2000/svg" width="128" height="108" viewBox="0 0 128 108">
<rect width="100%" height="100%" fill="transparent" />
<rect x="4" y="4" width="10" height="10" fill="hsl(0, 100%, 60%)" />
<rect x="24" y="4" width="10" height="10" fill="hsl(0, 100%, 60%)" />
<rect x="14" y="14" width="10" height="10" fill="hsl(0, 100%, 60%)" />
<rect x="24" y="14" width="10" height="10" fill="hsl(0, 100%, 60%)" />
<rect x="14" y="24" width="10" height="10" fill="hsl(0, 100%, 60%)" />
<rect x="24" y="34" width="10" height="10" fill="hsl(0, 100%, 60%)" />
<rect x="4" y="44" width="10" height="10" fill="hsl(0, 100%, 60%)" />
<rect x="14" y="44" width="10" height="10" fill="hsl(0, 100%, 60%)" />
<rect x="24" y="44" width="10" height="10" fill="hsl(0, 100%, 60%)" />
<rect x="34" y="74" width="10" height="10" fill="hsl(0, 100%, 60%)" />
<rect x="44" y="74" width="10" height="10" fill="hsl(0, 100%, 60%)" />
<rect x="54" y="74" width="10" height="10" fill="hsl(0, 100%, 60%)" />
<rect x="104" y="74" width="10" height="10" fill="hsl(0, 100%, 60%)" />
<rect x="114" y="74" width="10" height="10" fill="hsl(0, 100%, 60%)" />
<rect x="54" y="84" width="10" height="10" fill="hsl(0, 100%, 60%)" />
<rect x="94" y="84" width="10" height="10" fill="hsl(0, 100%, 60%)" />
<rect x="104" y="84" width="10" height="10" fill="hsl(0, 100%, 60%)" />
<rect x="44" y="94" width="10" height="10" fill="hsl(0, 100%, 60%)" />
<rect x="114" y="94" width="10" height="10" fill="hsl(0, 100%, 60%)" />
</svg>