<?xml version="1.0" encoding="utf-8"?>
<svg xmlns="http://www.w3.org/2000/svg" width="92" height="66" viewBox="0 0 92 66">
<rect width="100%" height="100%" fill="transparent" />
<rect x="30" y="4" width="2" height="2" fill="hsl(0, 100%, 60%)" />
<rect x="60" y="4" width="2" height="2" fill="hsl(0, 100%, 60%)" />
<rect x="28" y="6" width="2" height="2" fill="hsl(0, 100%, 60%)" />
<rect x="32" y="6" width="2" height="2" fill="hsl(0, 100%, 60%)" />
<rect x="48" y="6" width="2" height="2" fill="hsl(0, 100%, 60%)" />
<rect x="58" y="6" width="2" height="2" fill="hsl(0, 100%, 60%)" />
<rect x="62" y="6" width="2" height="2" fill="hsl(0, 100%, 60%)" />
<rect x="30" y="8" width="2" height="2" fill="hsl(0, 100%, 60%)" />
<rect x="44" y="8" width="2" height="2" fill="hsl(0, 100%, 60%)" />
<rect x="46" y="8" width="2" height="2" fill="hsl(0, 100%, 60%)" />
<rect x="50" y="8" width="2" height="2" fill="hsl(0, 100%, 60%)" />
<rect x="52" y="8" width="2" height="2" fill="hsl(0, 100%, 60%)" />
<rect x="60" y="8" width="2" height="2" fill="hsl(0, 100%, 60%)" />
<rect x="48" y="10" width="2" height="2" fill="hsl(0, 100%, 60%)" />
<rect x="8" y="12" width="2" height="2" fill="hsl(0, 100%, 60%)" />
<rect x="10" y="12" width="2" height="2" fill="hsl(0, 100%, 60%)" />
<rect x="24" y="12" width="2" height="2" fill="hsl(0, 100%, 60%)" />
<rect x="26" y="12" width="2" height="2" fill="hsl(0, 100%, 60%)" />
<rect x="64" y="12" width="2" height="2" fill="hsl(0, 100%, 60%)" />
<rect x="66" y="12" width="2" height="2" fill="hsl(0, 100%, 60%)" />
<rect x="80" y="12" width="2" height="2" fill="hsl(0, 100%, 60%)" />
<rect x="82" y="12" width="2" height="2" fill="hsl(0, 100%, 60%)" />
<rect x="4" y="14" width="2" height="2" fill="hsl(0, 100%, 60%)" />
<rect x="14" y="14" width="2" height="2" fill="hsl(0, 100%, 60%)" />
<rect x="20" y="14" width="2" height="2" fill="hsl(0, 100%, 60%)" />
<rect x="30" y="14" width="2" height="2" fill="hsl(0, 100%, 60%)" />
<rect x="60" y="14" width="2" height="2" fill="hsl(0, 100%, 60%)" />
<rect x="70" y="14" width="2" height="2" fill="hsl(0, 100%, 60%)" />
<rect x="76" y="14" width="2" height="2" fill="hsl(0, 100%, 60%)" />
<rect x="86" y="14" width="2" height="2" fill="hsl(0, 100%, 60%)" />
<rect x="4" y="16" width="2" height="2" fill="hsl(0, 100%, 60%)" />
<rect x="14" y="16" width="2" height="2" fill="hsl(0, 100%, 60%)" />
<rect x="20" y="16" width="2" height="2" fill="hsl(0, 100%, 60%)" />
<rect x="30" y="16" width="2" height="2" fill="hsl(0, 100%, 60%)" />
<rect x="60" y="16" width="2" height="2" fill="hsl(0, 100%, 60%)" />
<rect x="70" y="16" width="2" height="2" fill="hsl(0, 100%, 60%)" />
<rect x="76" y="16" width="2" height="2" fill="hsl(0, 100%, 60%)" />
<rect x="86" y="16" width="2" height="2" fill="hsl(0, 100%, 60%)" />
<rect x="4" y="18" width="2" height="2" fill="hsl(0, 100%, 60%)" />
<rect x="14" y="18" width="2" height="2" fill="hsl(0, 100%, 60%)" />
<rect x="20" y="18" width="2" height="2" fill="hsl(0, 100%, 60%)" />
<rect x="30" y="18" width="2" height="2" fill="hsl(0, 100%, 60%)" />
<rect x="48" y="18" width="2" height="2" fill="hsl(0, 100%, 60%)" />
<rect x="60" y="18" width="2" height="2" fill="hsl(0, 100%, 60%)" />
<rect x="70" y="18" width="2" height="2" fill="hsl(0, 100%, 60%)" />
<rect x="76" y="18" width="2" height="2" fill="hsl(0, 100%, 60%)" />
<rect x="86" y="18" width="2" height="2" fill="hsl(0, 100%, 60%)" />
<rect x="8" y="20" width="2" height="2" fill="hsl(0, 100%, 60%)" />
<rect x="10" y="20" width="2" height="2" fill="hsl(0, 100%, 60%)" />
<rect x="24" y="20" width="2" height="2" fill="hsl(0, 100%, 60%)" />
<rect x="26" y="20" width="2" height="2" fill="hsl(0, 100%, 60%)" />
<rect x="44" y="20" width="2" height="2" fill="hsl(0, 100%, 60%)" />
<rect x="46" y="20" width="2" height="2" fill="hsl(0, 100%, 60%)" />
<rect x="50" y="20" width="2" height="2" fill="hsl(0, 100%, 60%)" />
<rect x="52" y="20" width="2" height="2" fill="hsl(0, 100%, 60%)" />
<rect x="64" y="20" width="2" height="2" fill="hsl(0, 100%, 60%)" />
<rect x="66" y="20" width="2" height="2" fill="hsl(0, 100%, 60%)" />
<rect x="80" y="20" width="2" height="2" fill="hsl(0, 100%, 60%)" />
<rect x="82" y="20" width="2" height="2" fill="hsl(0, 100%, 60%)" />
<rect x="48" y="22" width="2" height="2" fill="hsl(0, 100%, 60%)" />
<rect x="8" y="28" width="2" height="2" fill="hsl(0, 100%, 60%)" />
<rect x="10" y="28" width="2" height="2" fill="hsl(0, 100%, 60%)" />
<rect x="24" y="28" width="2" height="2" fill="hsl(0, 100%, 60%)" />
<rect x="26" y="28" width="2" height="2" fill="hsl(0, 100%, 60%)" />
<rect x="64" y="28" width="2" height="2" fill="hsl(0, 100%, 60%)" />
<rect x="66" y="28" width="2" height="2" fill="hsl(0, 100%, 60%)" />
<rect x="80" y="28" width="2" height="2" fill="hsl(0, 100%, 60%)" />
<rect x="82" y="28" width="2" height="2" fill="hsl(0, 100%, 60%)" />
<rect x="4" y="30" width="2" height="2" fill="hsl(0, 100%, 60%)" />
<rect x="14" y="30" width="2" height="2" fill="hsl(0, 100%, 60%)" />
<rect x="20" y="30" width="2" height="2" fill="hsl(0, 100%, 60%)" />
<rect x="30" y="30" width="2" height="2" fill="hsl(0, 100%, 60%)" />
<rect x="48" y="30" width="2" height="2" fill="hsl(0, 100%, 60%)" />
<rect x="60" y="30" width="2" height="2" fill="hsl(0, 100%, 60%)" />
<rect x="70" y="30" width="2" height="2" fill="hsl(0, 100%, 60%)" />
<rect x="76" y="30" width="2" height="2" fill="hsl(0, 100%, 60%)" />
<rect x="86" y="30" width="2" height="2" fill="hsl(0, 100%, 60%)" />
<rect x="4" y="32" width="2" height="2" fill="hsl(0, 100%, 60%)" />
<rect x="14" y="32" width="2" height="2" fill="hsl(0, 100%, 60%)" />
<rect x="20" y="32" width="2" height="2" fill="hsl(0, 100%, 60%)" />
<rect x="30" y="32" width="2" height="2" fill="hsl(0, 100%, 60%)" />
<rect x="44" y="32" width="2" height="2" fill="hsl(0, 100%, 60%)" />
<rect x="46" y="32" width="2" height="2" fill="hsl(0, 100%, 60%)" />
<rect x="50" y="32" width="2" height="2" fill="hsl(0, 100%, 60%)" />
<rect x="52" y="32" width="2" height="2" fill="hsl(0, 100%, 60%)" />
<rect x="60" y="32" width="2" height="2" fill="hsl(0, 100%, 60%)" />
<rect x="70" y="32" width="2" height="2" fill="hsl(0, 100%, 60%)" />
<rect x="76" y="32" width="2" height="2" fill="hsl(0, 100%, 60%)" />
<rect x="86" y="32" width="2" height="2" fill="hsl(0, 100%, 60%)" />
<rect x="4" y="34" width="2" height="2" fill="hsl(0, 100%, 60%)" />
<rect x="14" y="34" width="2" height="2" fill="hsl(0, 100%, 60%)" />
<rect x="20" y="34" width="2" height="2" fill="hsl(0, 100%, 60%)" />
<rect x="30" y="34" width="2" height="2" fill="hsl(0, 100%, 60%)" />
<rect x="48" y="34" width="2" height="2" fill="hsl(0, 100%, 60%)" />
<rect x="60" y="34" width="2" height="2" fill="hsl(0, 100%, 60%)" />
<rect x="70" y="34" width="2" height="2" fill="hsl(0, 100%, 60%)" />
<rect x="76" y="34" width="2" height="2" fill="hsl(0, 100%, 60%)" />
<rect x="86" y="34" width="2" height="2" fill="hsl(0, 100%, 60%)" />
<rect x="8" y="36" width="2" height="2" fill="hsl(0, 100%, 60%)" />
<rect x="10" y="36" width="2" height="2" fill="hsl(0, 100%, 60%)" />
<rect x="24" y="36" width="2" height="2" fill="hsl(0, 100%, 60%)" />
<rect x="26" y="36" width="2" height="2" fill="hsl(0, 100%, 60%)" />
<rect x="64" y="36" width="2" height="2" fill="hsl(0, 100%, 60%)" />
<rect x="66" y="36" width="2" height="2" fill="hsl(0, 100%, 60%)" />
<rect x="80" y="36" width="2" height="2" fill="hsl(0, 100%, 60%)" />
<rect x="82" y="36" width="2" height="2" fill="hsl(0, 100%, 60%)" />
<rect x="48" y="42" width="2" height="2" fill="hsl(0, 100%, 60%)" />
<rect x="8" y="44" width="2" height="2" fill="hsl(0, 100%, 60%)" />
<rect x="10" y="44" width="2" height="2" fill="hsl(0, 100%, 60%)" />
<rect x="24" y="44" width="2" height="2" fill="hsl(0, 100%, 60%)" />
<rect x="26" y="44" width="2" height="2" fill="hsl(0, 100%, 60%)" />
<rect x="44" y="44" width="2" height="2" fill="hsl(0, 100%, 60%)" />
<rect x="46" y="44" width="2" height="2" fill="hsl(0, 100%, 60%)" />
<rect x="50" y="44" width="2" height="2" fill="hsl(0, 100%, 60%)" />
<rect x="52" y="44" width="2" height="2" fill="hsl(0, 100%, 60%)" />
<rect x="64" y="44" width="2" height="2" fill="hsl(0, 100%, 60%)" />
<rect x="66" y="44" width="2" height="2" fill="hsl(0, 100%, 60%)" />
<rect x="80" y="44" width="2" height="2" fill="hsl(0, 100%, 60%)" />
<rect x="82" y="44" width="2" height="2" fill="hsl(0, 100%, 60%)" />
<rect x="4" y="46" width="2" height="2" fill="hsl(0, 100%, 60%)" />
<rect x="14" y="46" width="2" height="2" fill="hsl(0, 100%, 60%)" />
<rect x="20" y="46" width="2" height="2" fill="hsl(0, 100%, 60%)" />
<rect x="30" y="46" width="2" height="2" fill="hsl(0, 100%, 60%)" />
<rect x="48" y="46" width="2" height="2" fill="hsl(0, 100%, 60%)" />
<rect x="60" y="46" width="2" height="2" fill="hsl(0, 100%, 60%)" />
<rect x="70" y="46" width="2" height="2" fill="hsl(0, 100%, 60%)" />
<rect x="76" y="46" width="2" height="2" fill="hsl(0, 100%, 60%)" />
<rect x="86" y="46" width="2" height="2" fill="hsl(0, 100%, 60%)" />
<rect x="4" y="48" width="2" height="2" fill="hsl(0, 100%, 60%)" />
<rect x="14" y="48" width="2" height="2" fill="hsl(0, 100%, 60%)" />
<rect x="20" y="48" width="2" height="2" fill="hsl(0, 100%, 60%)" />
<rect x="30" y="48" width="2" height="2" fill="hsl(0, 100%, 60%)" />
<rect x="60" y="48" width="2" height="2" fill="hsl(0, 100%, 60%)" />
<rect x="70" y="48" width="2" height="2" fill="hsl(0, 100%, 60%)" />
<rect x="76" y="48" width="2" height="2" fill="hsl(0, 100%, 60%)" />
<rect x="86" y="48" width="2" height="2" fill="hsl(0, 100%, 60%)" />
<rect x="4" y="50" width="2" height="2" fill="hsl(0, 100%, 60%)" />
<rect x="14" y="50" width="2" height="2" fill="hsl(0, 100%, 60%)" />
<rect x="20" y="50" width="2" height="2" fill="hsl(0, 100%, 60%)" />
<rect x="30" y="50" width="2" height="2" fill="hsl(0, 100%, 60%)" />
<rect x="60" y="50" width="2" height="2" fill="hsl(0, 100%, 60%)" />
<rect x="70" y="50" width="2" height="2" fill="hsl(0, 100%, 60%)" />
<rect x="76" y="50" width="2" height="2" fill="hsl(0, 100%, 60%)" />
<rect x="86" y="50" width="2" height="2" fill="hsl(0, 100%, 60%)" />
<rect x="8" y="52" width="2" height="2" fill="hsl(0, 100%, 60%)" />
<rect x="10" y="52" width="2" height="2" fill="hsl(0, 100%, 60%)" />
<rect x="24" y="52" width="2" height="2" fill="hsl(0, 100%, 60%)" />
<rect x="26" y="52" width="2" height="2" fill="hsl(0, 100%, 60%)" />
<rect x="64" y="52" width="2" height="2" fill="hsl(0, 100%, 60%)" />
<rect x="66" y="52" width="2" height="2" fill="hsl(0, 100%, 60%)" />
<rect x="80" y="52" width="2" height="2" fill="hsl(0, 100%, 60%)" />
<rect x="82" y="52" width="2" height="2" fill="hsl(0, 100%, 60%)" />
<rect x="48" y="54" width="2" height="2" fill="hsl(0, 100%, 60%)" />
<rect x="30" y="56" width="2" height="2" fill="hsl(0, 100%, 60%)" />
<rect x="44" y="56" width="2" height="2" fill="hsl(0, 100%, 60%)" />
<rect x="46" y="56" width="2" height="2" fill="hsl(0, 100%, 60%)" />
<rect x="50" y="56" width="2" height="2" fill="hsl(0, 100%, 60%)" />
<rect x="52" y="56" width="2" height="2" fill="hsl(0, 100%, 60%)" />
<rect x="60" y="56" width="2" height="2" fill="hsl(0, 100%, 60%)" />
<rect x="28" y="58" width="2" height="2" fill="hsl(0, 100%, 60%)" />
<rect x="32" y="58" width="2" height="2" fill="hsl(0, 100%, 60%)" />
<rect x="48" y="58" width="2" height="2" fill="hsl(0, 100%, 60%)" />
<rect x="58" y="58" width="2" height="2" fill="hsl(0, 100%, 60%)" />
<rect x="62" y="58" width="2" height="2" fill="hsl(0, 100%, 60%)" />
<rect x="30" y="60" width="2" height="2" fill="hsl(0, 100%, 60%)" />
<rect x="60" y="60" width="2" height="2" fill="hsl(0, 100%, 60%)" />
</svg>