<?xml version="1.0" encoding="utf-8"?>
<svg xmlns="http://www.w3.org/2000/svg" width="122" height="104" viewBox="0 0 122 104">
<rect width="100%" height="100%" fill="transparent" />
<rect x="6" y="4" width="2" height="2" fill="hsl(0, 100%, 60%)" />
<rect x="8" y="6" width="2" height="2" fill="hsl(0, 100%, 60%)" />
<rect x="4" y="8" width="2" height="2" fill="hsl(0, 100%, 60%)" />
<rect x="6" y="8" width="2" height="2" fill="hsl(0, 100%, 60%)" />
<rect x="8" y="8" width="2" height="2" fill="hsl(0, 100%, 60%)" />
<rect x="30" y="28" width="2" height="2" fill="hsl(0, 100%, 60%)" />
<rect x="32" y="30" width="2" height="2" fill="hsl(0, 100%, 60%)" />
<rect x="28" y="32" width="2" height="2" fill="hsl(0, 100%, 60%)" />
<rect x="30" y="32" width="2" height="2" fill="hsl(0, 100%, 60%)" />
<rect x="32" y="32" width="2" height="2" fill="hsl(0, 100%, 60%)" />
<rect x="54" y="52" width="2" height="2" fill="hsl(0, 100%, 60%)" />
<rect x="56" y="54" width="2" height="2" fill="hsl(0, 100%, 60%)" />
<rect x="52" y="56" width="2" height="2" fill="hsl(0, 100%, 60%)" />
<rect x="54" y="56" width="2" height="2" fill="hsl(0, 100%, 60%)" />
<rect x="56" y="56" width="2" height="2" fill="hsl(0, 100%, 60%)" />
<rect x="86" y="56" width="2" height="2" fill="hsl(0, 100%, 60%)" />
<rect x="88" y="56" width="2" height="2" fill="hsl(0, 100%, 60%)" />
<rect x="88" y="58" width="2" height="2" fill="hsl(0, 100%, 60%)" />
<rect x="84" y="60" width="2" height="2" fill="hsl(0, 100%, 60%)" />
<rect x="96" y="60" width="2" height="2" fill="hsl(0, 100%, 60%)" />
<rect x="98" y="60" width="2" height="2" fill="hsl(0, 100%, 60%)" />
<rect x="84" y="62" width="2" height="2" fill="hsl(0, 100%, 60%)" />
<rect x="86" y="62" width="2" height="2" fill="hsl(0, 100%, 60%)" />
<rect x="98" y="62" width="2" height="2" fill="hsl(0, 100%, 60%)" />
<rect x="98" y="64" width="2" height="2" fill="hsl(0, 100%, 60%)" />
<rect x="102" y="64" width="2" height="2" fill="hsl(0, 100%, 60%)" />
<rect x="104" y="64" width="2" height="2" fill="hsl(0, 100%, 60%)" />
<rect x="84" y="66" width="2" height="2" fill="hsl(0, 100%, 60%)" />
<rect x="86" y="66" width="2" height="2" fill="hsl(0, 100%, 60%)" />
<rect x="92" y="66" width="2" height="2" fill="hsl(0, 100%, 60%)" />
<rect x="94" y="66" width="2" height="2" fill="hsl(0, 100%, 60%)" />
<rect x="98" y="66" width="2" height="2" fill="hsl(0, 100%, 60%)" />
<rect x="104" y="66" width="2" height="2" fill="hsl(0, 100%, 60%)" />
<rect x="84" y="68" width="2" height="2" fill="hsl(0, 100%, 60%)" />
<rect x="86" y="68" width="2" height="2" fill="hsl(0, 100%, 60%)" />
<rect x="94" y="68" width="2" height="2" fill="hsl(0, 100%, 60%)" />
<rect x="98" y="68" width="2" height="2" fill="hsl(0, 100%, 60%)" />
<rect x="100" y="68" width="2" height="2" fill="hsl(0, 100%, 60%)" />
<rect x="94" y="70" width="2" height="2" fill="hsl(0, 100%, 60%)" />
<rect x="92" y="72" width="2" height="2" fill="hsl(0, 100%, 60%)" />
<rect x="94" y="72" width="2" height="2" fill="hsl(0, 100%, 60%)" />
<rect x="106" y="74" width="2" height="2" fill="hsl(0, 100%, 60%)" />
<rect x="108" y="74" width="2" height="2" fill="hsl(0, 100%, 60%)" />
<rect x="78" y="76" width="2" height="2" fill="hsl(0, 100%, 60%)" />
<rect x="106" y="76" width="2" height="2" fill="hsl(0, 100%, 60%)" />
<rect x="110" y="76" width="2" height="2" fill="hsl(0, 100%, 60%)" />
<rect x="80" y="78" width="2" height="2" fill="hsl(0, 100%, 60%)" />
<rect x="110" y="78" width="2" height="2" fill="hsl(0, 100%, 60%)" />
<rect x="76" y="80" width="2" height="2" fill="hsl(0, 100%, 60%)" />
<rect x="78" y="80" width="2" height="2" fill="hsl(0, 100%, 60%)" />
<rect x="80" y="80" width="2" height="2" fill="hsl(0, 100%, 60%)" />
<rect x="110" y="80" width="2" height="2" fill="hsl(0, 100%, 60%)" />
<rect x="114" y="80" width="2" height="2" fill="hsl(0, 100%, 60%)" />
<rect x="116" y="80" width="2" height="2" fill="hsl(0, 100%, 60%)" />
<rect x="90" y="82" width="2" height="2" fill="hsl(0, 100%, 60%)" />
<rect x="92" y="82" width="2" height="2" fill="hsl(0, 100%, 60%)" />
<rect x="104" y="82" width="2" height="2" fill="hsl(0, 100%, 60%)" />
<rect x="106" y="82" width="2" height="2" fill="hsl(0, 100%, 60%)" />
<rect x="110" y="82" width="2" height="2" fill="hsl(0, 100%, 60%)" />
<rect x="114" y="82" width="2" height="2" fill="hsl(0, 100%, 60%)" />
<rect x="90" y="84" width="2" height="2" fill="hsl(0, 100%, 60%)" />
<rect x="92" y="84" width="2" height="2" fill="hsl(0, 100%, 60%)" />
<rect x="104" y="84" width="2" height="2" fill="hsl(0, 100%, 60%)" />
<rect x="106" y="84" width="2" height="2" fill="hsl(0, 100%, 60%)" />
<rect x="110" y="84" width="2" height="2" fill="hsl(0, 100%, 60%)" />
<rect x="114" y="84" width="2" height="2" fill="hsl(0, 100%, 60%)" />
<rect x="110" y="86" width="2" height="2" fill="hsl(0, 100%, 60%)" />
<rect x="114" y="86" width="2" height="2" fill="hsl(0, 100%, 60%)" />
<rect x="116" y="86" width="2" height="2" fill="hsl(0, 100%, 60%)" />
<rect x="72" y="88" width="2" height="2" fill="hsl(0, 100%, 60%)" />
<rect x="74" y="88" width="2" height="2" fill="hsl(0, 100%, 60%)" />
<rect x="104" y="88" width="2" height="2" fill="hsl(0, 100%, 60%)" />
<rect x="106" y="88" width="2" height="2" fill="hsl(0, 100%, 60%)" />
<rect x="108" y="88" width="2" height="2" fill="hsl(0, 100%, 60%)" />
<rect x="110" y="88" width="2" height="2" fill="hsl(0, 100%, 60%)" />
<rect x="116" y="88" width="2" height="2" fill="hsl(0, 100%, 60%)" />
<rect x="70" y="90" width="2" height="2" fill="hsl(0, 100%, 60%)" />
<rect x="74" y="90" width="2" height="2" fill="hsl(0, 100%, 60%)" />
<rect x="104" y="90" width="2" height="2" fill="hsl(0, 100%, 60%)" />
<rect x="112" y="90" width="2" height="2" fill="hsl(0, 100%, 60%)" />
<rect x="114" y="90" width="2" height="2" fill="hsl(0, 100%, 60%)" />
<rect x="70" y="92" width="2" height="2" fill="hsl(0, 100%, 60%)" />
<rect x="108" y="92" width="2" height="2" fill="hsl(0, 100%, 60%)" />
<rect x="110" y="92" width="2" height="2" fill="hsl(0, 100%, 60%)" />
<rect x="68" y="94" width="2" height="2" fill="hsl(0, 100%, 60%)" />
<rect x="70" y="94" width="2" height="2" fill="hsl(0, 100%, 60%)" />
<rect x="110" y="94" width="2" height="2" fill="hsl(0, 100%, 60%)" />
<rect x="106" y="96" width="2" height="2" fill="hsl(0, 100%, 60%)" />
<rect x="106" y="98" width="2" height="2" fill="hsl(0, 100%, 60%)" />
<rect x="108" y="98" width="2" height="2" fill="hsl(0, 100%, 60%)" />
</svg>