<?xml version="1.0" encoding="utf-8"?>
<svg xmlns="http://www.w3.org/2000/svg" width="68" height="128" viewBox="0 0 68 128">
<rect width="100%" height="100%" fill="transparent" />
<rect x="4" y="4" width="6" height="6" fill="hsl(0, 100%, 60%)" />
<rect x="10" y="4" width="6" height="6" fill="hsl(0, 100%, 60%)" />
<rect x="4" y="10" width="6" height="6" fill="hsl(0, 100%, 60%)" />
<rect x="10" y="10" width="6" height="6" fill="hsl(0, 100%, 60%)" />
<rect x="4" y="28" width="6" height="6" fill="hsl(0, 100%, 60%)" />
<rect x="10" y="28" width="6" height="6" fill="hsl(0, 100%, 60%)" />
<rect x="16" y="28" width="6" height="6" fill="hsl(0, 100%, 60%)" />
<rect x="4" y="34" width="6" height="6" fill="hsl(0, 100%, 60%)" />
<rect x="10" y="40" width="6" height="6" fill="hsl(0, 100%, 60%)" />
<rect x="46" y="52" width="6" height="6" fill="hsl(0, 100%, 60%)" />
<rect x="52" y="52" width="6" height="6" fill="hsl(0, 100%, 60%)" />
<rect x="58" y="52" width="6" height="6" fill="hsl(0, 100%, 60%)" />
<rect x="46" y="58" width="6" height="6" fill="hsl(0, 100%, 60%)" />
<rect x="52" y="64" width="6" height="6" fill="hsl(0, 100%, 60%)" />
<rect x="46" y="106" width="6" height="6" fill="hsl(0, 100%, 60%)" />
<rect x="52" y="106" width="6" height="6" fill="hsl(0, 100%, 60%)" />
<rect x="58" y="106" width="6" height="6" fill="hsl(0, 100%, 60%)" />
<rect x="46" y="112" width="6" height="6" fill="hsl(0, 100%, 60%)" />
<rect x="52" y="118" width="6" height="6" fill="hsl(0, 100%, 60%)" />
</svg>