<?xml version="1.0" encoding="utf-8"?>
<svg xmlns="http://www.w3.org/2000/svg" width="116" height="62" viewBox="0 0 116 62">
<rect width="100%" height="100%" fill="transparent" />
<rect x="4" y="4" width="6" height="6" fill="hsl(0, 100%, 60%)" />
<rect x="10" y="4" width="6" height="6" fill="hsl(0, 100%, 60%)" />
<rect x="16" y="4" width="6" height="6" fill="hsl(0, 100%, 60%)" />
<rect x="22" y="4" width="6" height="6" fill="hsl(0, 100%, 60%)" />
<rect x="4" y="10" width="6" height="6" fill="hsl(0, 100%, 60%)" />
<rect x="28" y="10" width="6" height="6" fill="hsl(0, 100%, 60%)" />
<rect x="88" y="10" width="6" height="6" fill="hsl(0, 100%, 60%)" />
<rect x="4" y="16" width="6" height="6" fill="hsl(0, 100%, 60%)" />
<rect x="76" y="16" width="6" height="6" fill="hsl(0, 100%, 60%)" />
<rect x="82" y="16" width="6" height="6" fill="hsl(0, 100%, 60%)" />
<rect x="10" y="22" width="6" height="6" fill="hsl(0, 100%, 60%)" />
<rect x="28" y="22" width="6" height="6" fill="hsl(0, 100%, 60%)" />
<rect x="46" y="22" width="6" height="6" fill="hsl(0, 100%, 60%)" />
<rect x="52" y="22" width="6" height="6" fill="hsl(0, 100%, 60%)" />
<rect x="88" y="22" width="6" height="6" fill="hsl(0, 100%, 60%)" />
<rect x="94" y="22" width="6" height="6" fill="hsl(0, 100%, 60%)" />
<rect x="100" y="22" width="6" height="6" fill="hsl(0, 100%, 60%)" />
<rect x="40" y="28" width="6" height="6" fill="hsl(0, 100%, 60%)" />
<rect x="46" y="28" width="6" height="6" fill="hsl(0, 100%, 60%)" />
<rect x="52" y="28" width="6" height="6" fill="hsl(0, 100%, 60%)" />
<rect x="94" y="28" width="6" height="6" fill="hsl(0, 100%, 60%)" />
<rect x="100" y="28" width="6" height="6" fill="hsl(0, 100%, 60%)" />
<rect x="106" y="28" width="6" height="6" fill="hsl(0, 100%, 60%)" />
<rect x="10" y="34" width="6" height="6" fill="hsl(0, 100%, 60%)" />
<rect x="28" y="34" width="6" height="6" fill="hsl(0, 100%, 60%)" />
<rect x="46" y="34" width="6" height="6" fill="hsl(0, 100%, 60%)" />
<rect x="52" y="34" width="6" height="6" fill="hsl(0, 100%, 60%)" />
<rect x="88" y="34" width="6" height="6" fill="hsl(0, 100%, 60%)" />
<rect x="94" y="34" width="6" height="6" fill="hsl(0, 100%, 60%)" />
<rect x="100" y="34" width="6" height="6" fill="hsl(0, 100%, 60%)" />
<rect x="4" y="40" width="6" height="6" fill="hsl(0, 100%, 60%)" />
<rect x="76" y="40" width="6" height="6" fill="hsl(0, 100%, 60%)" />
<rect x="82" y="40" width="6" height="6" fill="hsl(0, 100%, 60%)" />
<rect x="4" y="46" width="6" height="6" fill="hsl(0, 100%, 60%)" />
<rect x="28" y="46" width="6" height="6" fill="hsl(0, 100%, 60%)" />
<rect x="88" y="46" width="6" height="6" fill="hsl(0, 100%, 60%)" />
<rect x="4" y="52" width="6" height="6" fill="hsl(0, 100%, 60%)" />
<rect x="10" y="52" width="6" height="6" fill="hsl(0, 100%, 60%)" />
<rect x="16" y="52" width="6" height="6" fill="hsl(0, 100%, 60%)" />
<rect x="22" y="52" width="6" height="6" fill="hsl(0, 100%, 60%)" />
</svg>