<?xml version="1.0" encoding="utf-8"?>
<svg xmlns="http://www.w3.org/2000/svg" width="120" height="92" viewBox="0 0 120 92">
<rect width="100%" height="100%" fill="transparent" />
<rect x="81" y="4" width="7" height="7" fill="hsl(0, 100%, 60%)" />
<rect x="88" y="4" width="7" height="7" fill="hsl(0, 100%, 60%)" />
<rect x="25" y="11" width="7" height="7" fill="hsl(0, 100%, 60%)" />
<rect x="32" y="11" width="7" height="7" fill="hsl(0, 100%, 60%)" />
<rect x="74" y="11" width="7" height="7" fill="hsl(0, 100%, 60%)" />
<rect x="88" y="11" width="7" height="7" fill="hsl(0, 100%, 60%)" />
<rect x="25" y="18" width="7" height="7" fill="hsl(0, 100%, 60%)" />
<rect x="39" y="18" width="7" height="7" fill="hsl(0, 100%, 60%)" />
<rect x="74" y="18" width="7" height="7" fill="hsl(0, 100%, 60%)" />
<rect x="39" y="25" width="7" height="7" fill="hsl(0, 100%, 60%)" />
<rect x="67" y="25" width="7" height="7" fill="hsl(0, 100%, 60%)" />
<rect x="74" y="25" width="7" height="7" fill="hsl(0, 100%, 60%)" />
<rect x="88" y="25" width="7" height="7" fill="hsl(0, 100%, 60%)" />
<rect x="25" y="32" width="7" height="7" fill="hsl(0, 100%, 60%)" />
<rect x="39" y="32" width="7" height="7" fill="hsl(0, 100%, 60%)" />
<rect x="46" y="32" width="7" height="7" fill="hsl(0, 100%, 60%)" />
<rect x="88" y="32" width="7" height="7" fill="hsl(0, 100%, 60%)" />
<rect x="95" y="32" width="7" height="7" fill="hsl(0, 100%, 60%)" />
<rect x="102" y="32" width="7" height="7" fill="hsl(0, 100%, 60%)" />
<rect x="11" y="39" width="7" height="7" fill="hsl(0, 100%, 60%)" />
<rect x="18" y="39" width="7" height="7" fill="hsl(0, 100%, 60%)" />
<rect x="25" y="39" width="7" height="7" fill="hsl(0, 100%, 60%)" />
<rect x="67" y="39" width="7" height="7" fill="hsl(0, 100%, 60%)" />
<rect x="81" y="39" width="7" height="7" fill="hsl(0, 100%, 60%)" />
<rect x="109" y="39" width="7" height="7" fill="hsl(0, 100%, 60%)" />
<rect x="4" y="46" width="7" height="7" fill="hsl(0, 100%, 60%)" />
<rect x="32" y="46" width="7" height="7" fill="hsl(0, 100%, 60%)" />
<rect x="46" y="46" width="7" height="7" fill="hsl(0, 100%, 60%)" />
<rect x="88" y="46" width="7" height="7" fill="hsl(0, 100%, 60%)" />
<rect x="95" y="46" width="7" height="7" fill="hsl(0, 100%, 60%)" />
<rect x="102" y="46" width="7" height="7" fill="hsl(0, 100%, 60%)" />
<rect x="11" y="53" width="7" height="7" fill="hsl(0, 100%, 60%)" />
<rect x="18" y="53" width="7" height="7" fill="hsl(0, 100%, 60%)" />
<rect x="25" y="53" width="7" height="7" fill="hsl(0, 100%, 60%)" />
<rect x="67" y="53" width="7" height="7" fill="hsl(0, 100%, 60%)" />
<rect x="74" y="53" width="7" height="7" fill="hsl(0, 100%, 60%)" />
<rect x="88" y="53" width="7" height="7" fill="hsl(0, 100%, 60%)" />
<rect x="25" y="60" width="7" height="7" fill="hsl(0, 100%, 60%)" />
<rect x="39" y="60" width="7" height="7" fill="hsl(0, 100%, 60%)" />
<rect x="46" y="60" width="7" height="7" fill="hsl(0, 100%, 60%)" />
<rect x="74" y="60" width="7" height="7" fill="hsl(0, 100%, 60%)" />
<rect x="39" y="67" width="7" height="7" fill="hsl(0, 100%, 60%)" />
<rect x="74" y="67" width="7" height="7" fill="hsl(0, 100%, 60%)" />
<rect x="88" y="67" width="7" height="7" fill="hsl(0, 100%, 60%)" />
<rect x="25" y="74" width="7" height="7" fill="hsl(0, 100%, 60%)" />
<rect x="39" y="74" width="7" height="7" fill="hsl(0, 100%, 60%)" />
<rect x="81" y="74" width="7" height="7" fill="hsl(0, 100%, 60%)" />
<rect x="88" y="74" width="7" height="7" fill="hsl(0, 100%, 60%)" />
<rect x="25" y="81" width="7" height="7" fill="hsl(0, 100%, 60%)" />
<rect x="32" y="81" width="7" height="7" fill="hsl(0, 100%, 60%)" />
</svg>