<?xml version="1.0" encoding="utf-8"?>
<svg xmlns="http://www.w3.org/2000/svg" width="70" height="89" viewBox="0 0 70 89">
<rect width="100%" height="100%" fill="transparent" />
<rect x="12" y="4" width="1" height="1" fill="hsl(0, 100%, 60%)" />
<rect x="26" y="4" width="1" height="1" fill="hsl(0, 100%, 60%)" />
<rect x="10" y="5" width="1" height="1" fill="hsl(0, 100%, 60%)" />
<rect x="12" y="5" width="1" height="1" fill="hsl(0, 100%, 60%)" />
<rect x="24" y="5" width="1" height="1" fill="hsl(0, 100%, 60%)" />
<rect x="25" y="5" width="1" height="1" fill="hsl(0, 100%, 60%)" />
<rect x="26" y="5" width="1" height="1" fill="hsl(0, 100%, 60%)" />
<rect x="11" y="6" width="1" height="1" fill="hsl(0, 100%, 60%)" />
<rect x="12" y="6" width="1" height="1" fill="hsl(0, 100%, 60%)" />
<rect x="23" y="6" width="1" height="1" fill="hsl(0, 100%, 60%)" />
<rect x="23" y="7" width="1" height="1" fill="hsl(0, 100%, 60%)" />
<rect x="24" y="7" width="1" height="1" fill="hsl(0, 100%, 60%)" />
<rect x="8" y="8" width="1" height="1" fill="hsl(0, 100%, 60%)" />
<rect x="9" y="8" width="1" height="1" fill="hsl(0, 100%, 60%)" />
<rect x="9" y="9" width="1" height="1" fill="hsl(0, 100%, 60%)" />
<rect x="9" y="10" width="1" height="1" fill="hsl(0, 100%, 60%)" />
<rect x="11" y="10" width="1" height="1" fill="hsl(0, 100%, 60%)" />
<rect x="10" y="11" width="1" height="1" fill="hsl(0, 100%, 60%)" />
<rect x="11" y="11" width="1" height="1" fill="hsl(0, 100%, 60%)" />
<rect x="22" y="11" width="1" height="1" fill="hsl(0, 100%, 60%)" />
<rect x="21" y="12" width="1" height="1" fill="hsl(0, 100%, 60%)" />
<rect x="23" y="12" width="1" height="1" fill="hsl(0, 100%, 60%)" />
<rect x="21" y="13" width="1" height="1" fill="hsl(0, 100%, 60%)" />
<rect x="23" y="13" width="1" height="1" fill="hsl(0, 100%, 60%)" />
<rect x="22" y="14" width="1" height="1" fill="hsl(0, 100%, 60%)" />
<rect x="27" y="14" width="1" height="1" fill="hsl(0, 100%, 60%)" />
<rect x="28" y="14" width="1" height="1" fill="hsl(0, 100%, 60%)" />
<rect x="10" y="15" width="1" height="1" fill="hsl(0, 100%, 60%)" />
<rect x="11" y="15" width="1" height="1" fill="hsl(0, 100%, 60%)" />
<rect x="27" y="15" width="1" height="1" fill="hsl(0, 100%, 60%)" />
<rect x="29" y="15" width="1" height="1" fill="hsl(0, 100%, 60%)" />
<rect x="9" y="16" width="1" height="1" fill="hsl(0, 100%, 60%)" />
<rect x="11" y="16" width="1" height="1" fill="hsl(0, 100%, 60%)" />
<rect x="29" y="16" width="1" height="1" fill="hsl(0, 100%, 60%)" />
<rect x="9" y="17" width="1" height="1" fill="hsl(0, 100%, 60%)" />
<rect x="29" y="17" width="1" height="1" fill="hsl(0, 100%, 60%)" />
<rect x="30" y="17" width="1" height="1" fill="hsl(0, 100%, 60%)" />
<rect x="8" y="18" width="1" height="1" fill="hsl(0, 100%, 60%)" />
<rect x="9" y="18" width="1" height="1" fill="hsl(0, 100%, 60%)" />
<rect x="19" y="24" width="1" height="1" fill="hsl(0, 100%, 60%)" />
<rect x="20" y="24" width="1" height="1" fill="hsl(0, 100%, 60%)" />
<rect x="19" y="25" width="1" height="1" fill="hsl(0, 100%, 60%)" />
<rect x="20" y="25" width="1" height="1" fill="hsl(0, 100%, 60%)" />
<rect x="7" y="34" width="1" height="1" fill="hsl(0, 100%, 60%)" />
<rect x="8" y="34" width="1" height="1" fill="hsl(0, 100%, 60%)" />
<rect x="8" y="35" width="1" height="1" fill="hsl(0, 100%, 60%)" />
<rect x="8" y="36" width="1" height="1" fill="hsl(0, 100%, 60%)" />
<rect x="10" y="36" width="1" height="1" fill="hsl(0, 100%, 60%)" />
<rect x="9" y="37" width="1" height="1" fill="hsl(0, 100%, 60%)" />
<rect x="10" y="37" width="1" height="1" fill="hsl(0, 100%, 60%)" />
<rect x="10" y="49" width="1" height="1" fill="hsl(0, 100%, 60%)" />
<rect x="11" y="49" width="1" height="1" fill="hsl(0, 100%, 60%)" />
<rect x="27" y="49" width="1" height="1" fill="hsl(0, 100%, 60%)" />
<rect x="28" y="49" width="1" height="1" fill="hsl(0, 100%, 60%)" />
<rect x="10" y="50" width="1" height="1" fill="hsl(0, 100%, 60%)" />
<rect x="11" y="50" width="1" height="1" fill="hsl(0, 100%, 60%)" />
<rect x="27" y="50" width="1" height="1" fill="hsl(0, 100%, 60%)" />
<rect x="29" y="50" width="1" height="1" fill="hsl(0, 100%, 60%)" />
<rect x="29" y="51" width="1" height="1" fill="hsl(0, 100%, 60%)" />
<rect x="29" y="52" width="1" height="1" fill="hsl(0, 100%, 60%)" />
<rect x="30" y="52" width="1" height="1" fill="hsl(0, 100%, 60%)" />
<rect x="23" y="58" width="1" height="1" fill="hsl(0, 100%, 60%)" />
<rect x="21" y="59" width="1" height="1" fill="hsl(0, 100%, 60%)" />
<rect x="22" y="59" width="1" height="1" fill="hsl(0, 100%, 60%)" />
<rect x="23" y="59" width="1" height="1" fill="hsl(0, 100%, 60%)" />
<rect x="20" y="60" width="1" height="1" fill="hsl(0, 100%, 60%)" />
<rect x="20" y="61" width="1" height="1" fill="hsl(0, 100%, 60%)" />
<rect x="21" y="61" width="1" height="1" fill="hsl(0, 100%, 60%)" />
<rect x="41" y="61" width="1" height="1" fill="hsl(0, 100%, 60%)" />
<rect x="42" y="61" width="1" height="1" fill="hsl(0, 100%, 60%)" />
<rect x="24" y="62" width="1" height="1" fill="hsl(0, 100%, 60%)" />
<rect x="25" y="62" width="1" height="1" fill="hsl(0, 100%, 60%)" />
<rect x="42" y="62" width="1" height="1" fill="hsl(0, 100%, 60%)" />
<rect x="25" y="63" width="1" height="1" fill="hsl(0, 100%, 60%)" />
<rect x="42" y="63" width="1" height="1" fill="hsl(0, 100%, 60%)" />
<rect x="44" y="63" width="1" height="1" fill="hsl(0, 100%, 60%)" />
<rect x="23" y="64" width="1" height="1" fill="hsl(0, 100%, 60%)" />
<rect x="43" y="64" width="1" height="1" fill="hsl(0, 100%, 60%)" />
<rect x="44" y="64" width="1" height="1" fill="hsl(0, 100%, 60%)" />
<rect x="23" y="65" width="1" height="1" fill="hsl(0, 100%, 60%)" />
<rect x="24" y="65" width="1" height="1" fill="hsl(0, 100%, 60%)" />
<rect x="64" y="68" width="1" height="1" fill="hsl(0, 100%, 60%)" />
<rect x="65" y="68" width="1" height="1" fill="hsl(0, 100%, 60%)" />
<rect x="64" y="69" width="1" height="1" fill="hsl(0, 100%, 60%)" />
<rect x="65" y="69" width="1" height="1" fill="hsl(0, 100%, 60%)" />
<rect x="26" y="71" width="1" height="1" fill="hsl(0, 100%, 60%)" />
<rect x="27" y="71" width="1" height="1" fill="hsl(0, 100%, 60%)" />
<rect x="7" y="72" width="1" height="1" fill="hsl(0, 100%, 60%)" />
<rect x="8" y="72" width="1" height="1" fill="hsl(0, 100%, 60%)" />
<rect x="26" y="72" width="1" height="1" fill="hsl(0, 100%, 60%)" />
<rect x="27" y="72" width="1" height="1" fill="hsl(0, 100%, 60%)" />
<rect x="7" y="73" width="1" height="1" fill="hsl(0, 100%, 60%)" />
<rect x="8" y="73" width="1" height="1" fill="hsl(0, 100%, 60%)" />
<rect x="6" y="76" width="1" height="1" fill="hsl(0, 100%, 60%)" />
<rect x="7" y="76" width="1" height="1" fill="hsl(0, 100%, 60%)" />
<rect x="7" y="77" width="1" height="1" fill="hsl(0, 100%, 60%)" />
<rect x="4" y="78" width="1" height="1" fill="hsl(0, 100%, 60%)" />
<rect x="5" y="78" width="1" height="1" fill="hsl(0, 100%, 60%)" />
<rect x="6" y="78" width="1" height="1" fill="hsl(0, 100%, 60%)" />
<rect x="19" y="78" width="1" height="1" fill="hsl(0, 100%, 60%)" />
<rect x="20" y="78" width="1" height="1" fill="hsl(0, 100%, 60%)" />
<rect x="4" y="79" width="1" height="1" fill="hsl(0, 100%, 60%)" />
<rect x="19" y="79" width="1" height="1" fill="hsl(0, 100%, 60%)" />
<rect x="20" y="80" width="1" height="1" fill="hsl(0, 100%, 60%)" />
<rect x="21" y="80" width="1" height="1" fill="hsl(0, 100%, 60%)" />
<rect x="22" y="80" width="1" height="1" fill="hsl(0, 100%, 60%)" />
<rect x="22" y="81" width="1" height="1" fill="hsl(0, 100%, 60%)" />
<rect x="54" y="83" width="1" height="1" fill="hsl(0, 100%, 60%)" />
<rect x="55" y="83" width="1" height="1" fill="hsl(0, 100%, 60%)" />
<rect x="54" y="84" width="1" height="1" fill="hsl(0, 100%, 60%)" />
<rect x="55" y="84" width="1" height="1" fill="hsl(0, 100%, 60%)" />
</svg>