<?xml version="1.0" encoding="utf-8"?>
<svg xmlns="http://www.w3.org/2000/svg" width="116" height="88" viewBox="0 0 116 88">
<rect width="100%" height="100%" fill="transparent" />
<rect x="4" y="4" width="2" height="2" fill="hsl(0, 100%, 60%)" />
<rect x="6" y="4" width="2" height="2" fill="hsl(0, 100%, 60%)" />
<rect x="12" y="4" width="2" height="2" fill="hsl(0, 100%, 60%)" />
<rect x="14" y="4" width="2" height="2" fill="hsl(0, 100%, 60%)" />
<rect x="16" y="4" width="2" height="2" fill="hsl(0, 100%, 60%)" />
<rect x="4" y="6" width="2" height="2" fill="hsl(0, 100%, 60%)" />
<rect x="6" y="6" width="2" height="2" fill="hsl(0, 100%, 60%)" />
<rect x="12" y="6" width="2" height="2" fill="hsl(0, 100%, 60%)" />
<rect x="14" y="8" width="2" height="2" fill="hsl(0, 100%, 60%)" />
<rect x="36" y="24" width="2" height="2" fill="hsl(0, 100%, 60%)" />
<rect x="38" y="24" width="2" height="2" fill="hsl(0, 100%, 60%)" />
<rect x="40" y="24" width="2" height="2" fill="hsl(0, 100%, 60%)" />
<rect x="36" y="26" width="2" height="2" fill="hsl(0, 100%, 60%)" />
<rect x="38" y="28" width="2" height="2" fill="hsl(0, 100%, 60%)" />
<rect x="50" y="38" width="2" height="2" fill="hsl(0, 100%, 60%)" />
<rect x="52" y="38" width="2" height="2" fill="hsl(0, 100%, 60%)" />
<rect x="54" y="38" width="2" height="2" fill="hsl(0, 100%, 60%)" />
<rect x="50" y="40" width="2" height="2" fill="hsl(0, 100%, 60%)" />
<rect x="52" y="42" width="2" height="2" fill="hsl(0, 100%, 60%)" />
<rect x="64" y="58" width="2" height="2" fill="hsl(0, 100%, 60%)" />
<rect x="52" y="60" width="2" height="2" fill="hsl(0, 100%, 60%)" />
<rect x="62" y="60" width="2" height="2" fill="hsl(0, 100%, 60%)" />
<rect x="64" y="60" width="2" height="2" fill="hsl(0, 100%, 60%)" />
<rect x="50" y="62" width="2" height="2" fill="hsl(0, 100%, 60%)" />
<rect x="52" y="62" width="2" height="2" fill="hsl(0, 100%, 60%)" />
<rect x="62" y="62" width="2" height="2" fill="hsl(0, 100%, 60%)" />
<rect x="66" y="62" width="2" height="2" fill="hsl(0, 100%, 60%)" />
<rect x="50" y="64" width="2" height="2" fill="hsl(0, 100%, 60%)" />
<rect x="54" y="64" width="2" height="2" fill="hsl(0, 100%, 60%)" />
<rect x="56" y="70" width="2" height="2" fill="hsl(0, 100%, 60%)" />
<rect x="54" y="72" width="2" height="2" fill="hsl(0, 100%, 60%)" />
<rect x="56" y="72" width="2" height="2" fill="hsl(0, 100%, 60%)" />
<rect x="54" y="74" width="2" height="2" fill="hsl(0, 100%, 60%)" />
<rect x="58" y="74" width="2" height="2" fill="hsl(0, 100%, 60%)" />
<rect x="62" y="78" width="2" height="2" fill="hsl(0, 100%, 60%)" />
<rect x="64" y="78" width="2" height="2" fill="hsl(0, 100%, 60%)" />
<rect x="66" y="78" width="2" height="2" fill="hsl(0, 100%, 60%)" />
<rect x="108" y="78" width="2" height="2" fill="hsl(0, 100%, 60%)" />
<rect x="110" y="78" width="2" height="2" fill="hsl(0, 100%, 60%)" />
<rect x="62" y="80" width="2" height="2" fill="hsl(0, 100%, 60%)" />
<rect x="106" y="80" width="2" height="2" fill="hsl(0, 100%, 60%)" />
<rect x="108" y="80" width="2" height="2" fill="hsl(0, 100%, 60%)" />
<rect x="64" y="82" width="2" height="2" fill="hsl(0, 100%, 60%)" />
<rect x="110" y="82" width="2" height="2" fill="hsl(0, 100%, 60%)" />
</svg>