<?xml version="1.0" encoding="utf-8"?>
<svg xmlns="http://www.w3.org/2000/svg" width="110" height="74" viewBox="0 0 110 74">
<rect width="100%" height="100%" fill="transparent" />
<rect x="4" y="4" width="3" height="3" fill="hsl(0, 100%, 60%)" />
<rect x="7" y="4" width="3" height="3" fill="hsl(0, 100%, 60%)" />
<rect x="58" y="4" width="3" height="3" fill="hsl(0, 100%, 60%)" />
<rect x="61" y="4" width="3" height="3" fill="hsl(0, 100%, 60%)" />
<rect x="7" y="7" width="3" height="3" fill="hsl(0, 100%, 60%)" />
<rect x="58" y="7" width="3" height="3" fill="hsl(0, 100%, 60%)" />
<rect x="7" y="10" width="3" height="3" fill="hsl(0, 100%, 60%)" />
<rect x="13" y="10" width="3" height="3" fill="hsl(0, 100%, 60%)" />
<rect x="52" y="10" width="3" height="3" fill="hsl(0, 100%, 60%)" />
<rect x="58" y="10" width="3" height="3" fill="hsl(0, 100%, 60%)" />
<rect x="10" y="13" width="3" height="3" fill="hsl(0, 100%, 60%)" />
<rect x="13" y="13" width="3" height="3" fill="hsl(0, 100%, 60%)" />
<rect x="52" y="13" width="3" height="3" fill="hsl(0, 100%, 60%)" />
<rect x="55" y="13" width="3" height="3" fill="hsl(0, 100%, 60%)" />
<rect x="25" y="16" width="3" height="3" fill="hsl(0, 100%, 60%)" />
<rect x="40" y="16" width="3" height="3" fill="hsl(0, 100%, 60%)" />
<rect x="19" y="19" width="3" height="3" fill="hsl(0, 100%, 60%)" />
<rect x="22" y="19" width="3" height="3" fill="hsl(0, 100%, 60%)" />
<rect x="28" y="19" width="3" height="3" fill="hsl(0, 100%, 60%)" />
<rect x="31" y="19" width="3" height="3" fill="hsl(0, 100%, 60%)" />
<rect x="34" y="19" width="3" height="3" fill="hsl(0, 100%, 60%)" />
<rect x="37" y="19" width="3" height="3" fill="hsl(0, 100%, 60%)" />
<rect x="43" y="19" width="3" height="3" fill="hsl(0, 100%, 60%)" />
<rect x="46" y="19" width="3" height="3" fill="hsl(0, 100%, 60%)" />
<rect x="25" y="22" width="3" height="3" fill="hsl(0, 100%, 60%)" />
<rect x="40" y="22" width="3" height="3" fill="hsl(0, 100%, 60%)" />
<rect x="10" y="25" width="3" height="3" fill="hsl(0, 100%, 60%)" />
<rect x="13" y="25" width="3" height="3" fill="hsl(0, 100%, 60%)" />
<rect x="52" y="25" width="3" height="3" fill="hsl(0, 100%, 60%)" />
<rect x="55" y="25" width="3" height="3" fill="hsl(0, 100%, 60%)" />
<rect x="7" y="28" width="3" height="3" fill="hsl(0, 100%, 60%)" />
<rect x="13" y="28" width="3" height="3" fill="hsl(0, 100%, 60%)" />
<rect x="52" y="28" width="3" height="3" fill="hsl(0, 100%, 60%)" />
<rect x="58" y="28" width="3" height="3" fill="hsl(0, 100%, 60%)" />
<rect x="7" y="31" width="3" height="3" fill="hsl(0, 100%, 60%)" />
<rect x="58" y="31" width="3" height="3" fill="hsl(0, 100%, 60%)" />
<rect x="4" y="34" width="3" height="3" fill="hsl(0, 100%, 60%)" />
<rect x="7" y="34" width="3" height="3" fill="hsl(0, 100%, 60%)" />
<rect x="58" y="34" width="3" height="3" fill="hsl(0, 100%, 60%)" />
<rect x="61" y="34" width="3" height="3" fill="hsl(0, 100%, 60%)" />
<rect x="4" y="37" width="3" height="3" fill="hsl(0, 100%, 60%)" />
<rect x="7" y="37" width="3" height="3" fill="hsl(0, 100%, 60%)" />
<rect x="7" y="40" width="3" height="3" fill="hsl(0, 100%, 60%)" />
<rect x="7" y="43" width="3" height="3" fill="hsl(0, 100%, 60%)" />
<rect x="13" y="43" width="3" height="3" fill="hsl(0, 100%, 60%)" />
<rect x="91" y="43" width="3" height="3" fill="hsl(0, 100%, 60%)" />
<rect x="94" y="43" width="3" height="3" fill="hsl(0, 100%, 60%)" />
<rect x="10" y="46" width="3" height="3" fill="hsl(0, 100%, 60%)" />
<rect x="13" y="46" width="3" height="3" fill="hsl(0, 100%, 60%)" />
<rect x="85" y="46" width="3" height="3" fill="hsl(0, 100%, 60%)" />
<rect x="94" y="46" width="3" height="3" fill="hsl(0, 100%, 60%)" />
<rect x="25" y="49" width="3" height="3" fill="hsl(0, 100%, 60%)" />
<rect x="40" y="49" width="3" height="3" fill="hsl(0, 100%, 60%)" />
<rect x="85" y="49" width="3" height="3" fill="hsl(0, 100%, 60%)" />
<rect x="88" y="49" width="3" height="3" fill="hsl(0, 100%, 60%)" />
<rect x="91" y="49" width="3" height="3" fill="hsl(0, 100%, 60%)" />
<rect x="19" y="52" width="3" height="3" fill="hsl(0, 100%, 60%)" />
<rect x="22" y="52" width="3" height="3" fill="hsl(0, 100%, 60%)" />
<rect x="28" y="52" width="3" height="3" fill="hsl(0, 100%, 60%)" />
<rect x="31" y="52" width="3" height="3" fill="hsl(0, 100%, 60%)" />
<rect x="34" y="52" width="3" height="3" fill="hsl(0, 100%, 60%)" />
<rect x="37" y="52" width="3" height="3" fill="hsl(0, 100%, 60%)" />
<rect x="43" y="52" width="3" height="3" fill="hsl(0, 100%, 60%)" />
<rect x="46" y="52" width="3" height="3" fill="hsl(0, 100%, 60%)" />
<rect x="58" y="52" width="3" height="3" fill="hsl(0, 100%, 60%)" />
<rect x="73" y="52" width="3" height="3" fill="hsl(0, 100%, 60%)" />
<rect x="94" y="52" width="3" height="3" fill="hsl(0, 100%, 60%)" />
<rect x="97" y="52" width="3" height="3" fill="hsl(0, 100%, 60%)" />
<rect x="100" y="52" width="3" height="3" fill="hsl(0, 100%, 60%)" />
<rect x="25" y="55" width="3" height="3" fill="hsl(0, 100%, 60%)" />
<rect x="40" y="55" width="3" height="3" fill="hsl(0, 100%, 60%)" />
<rect x="52" y="55" width="3" height="3" fill="hsl(0, 100%, 60%)" />
<rect x="55" y="55" width="3" height="3" fill="hsl(0, 100%, 60%)" />
<rect x="61" y="55" width="3" height="3" fill="hsl(0, 100%, 60%)" />
<rect x="64" y="55" width="3" height="3" fill="hsl(0, 100%, 60%)" />
<rect x="67" y="55" width="3" height="3" fill="hsl(0, 100%, 60%)" />
<rect x="70" y="55" width="3" height="3" fill="hsl(0, 100%, 60%)" />
<rect x="76" y="55" width="3" height="3" fill="hsl(0, 100%, 60%)" />
<rect x="79" y="55" width="3" height="3" fill="hsl(0, 100%, 60%)" />
<rect x="91" y="55" width="3" height="3" fill="hsl(0, 100%, 60%)" />
<rect x="103" y="55" width="3" height="3" fill="hsl(0, 100%, 60%)" />
<rect x="10" y="58" width="3" height="3" fill="hsl(0, 100%, 60%)" />
<rect x="13" y="58" width="3" height="3" fill="hsl(0, 100%, 60%)" />
<rect x="58" y="58" width="3" height="3" fill="hsl(0, 100%, 60%)" />
<rect x="73" y="58" width="3" height="3" fill="hsl(0, 100%, 60%)" />
<rect x="94" y="58" width="3" height="3" fill="hsl(0, 100%, 60%)" />
<rect x="97" y="58" width="3" height="3" fill="hsl(0, 100%, 60%)" />
<rect x="100" y="58" width="3" height="3" fill="hsl(0, 100%, 60%)" />
<rect x="7" y="61" width="3" height="3" fill="hsl(0, 100%, 60%)" />
<rect x="13" y="61" width="3" height="3" fill="hsl(0, 100%, 60%)" />
<rect x="85" y="61" width="3" height="3" fill="hsl(0, 100%, 60%)" />
<rect x="88" y="61" width="3" height="3" fill="hsl(0, 100%, 60%)" />
<rect x="91" y="61" width="3" height="3" fill="hsl(0, 100%, 60%)" />
<rect x="7" y="64" width="3" height="3" fill="hsl(0, 100%, 60%)" />
<rect x="85" y="64" width="3" height="3" fill="hsl(0, 100%, 60%)" />
<rect x="94" y="64" width="3" height="3" fill="hsl(0, 100%, 60%)" />
<rect x="4" y="67" width="3" height="3" fill="hsl(0, 100%, 60%)" />
<rect x="7" y="67" width="3" height="3" fill="hsl(0, 100%, 60%)" />
<rect x="91" y="67" width="3" height="3" fill="hsl(0, 100%, 60%)" />
<rect x="94" y="67" width="3" height="3" fill="hsl(0, 100%, 60%)" />
</svg>