<?xml version="1.0" encoding="utf-8"?>
<svg xmlns="http://www.w3.org/2000/svg" width="116" height="74" viewBox="0 0 116 74">
<rect width="100%" height="100%" fill="transparent" />
<rect x="22" y="4" width="6" height="6" fill="hsl(0, 100%, 60%)" />
<rect x="28" y="4" width="6" height="6" fill="hsl(0, 100%, 60%)" />
<rect x="82" y="4" width="6" height="6" fill="hsl(0, 100%, 60%)" />
<rect x="88" y="4" width="6" height="6" fill="hsl(0, 100%, 60%)" />
<rect x="22" y="10" width="6" height="6" fill="hsl(0, 100%, 60%)" />
<rect x="34" y="10" width="6" height="6" fill="hsl(0, 100%, 60%)" />
<rect x="76" y="10" width="6" height="6" fill="hsl(0, 100%, 60%)" />
<rect x="88" y="10" width="6" height="6" fill="hsl(0, 100%, 60%)" />
<rect x="34" y="16" width="6" height="6" fill="hsl(0, 100%, 60%)" />
<rect x="76" y="16" width="6" height="6" fill="hsl(0, 100%, 60%)" />
<rect x="22" y="22" width="6" height="6" fill="hsl(0, 100%, 60%)" />
<rect x="34" y="22" width="6" height="6" fill="hsl(0, 100%, 60%)" />
<rect x="40" y="22" width="6" height="6" fill="hsl(0, 100%, 60%)" />
<rect x="70" y="22" width="6" height="6" fill="hsl(0, 100%, 60%)" />
<rect x="76" y="22" width="6" height="6" fill="hsl(0, 100%, 60%)" />
<rect x="88" y="22" width="6" height="6" fill="hsl(0, 100%, 60%)" />
<rect x="10" y="28" width="6" height="6" fill="hsl(0, 100%, 60%)" />
<rect x="16" y="28" width="6" height="6" fill="hsl(0, 100%, 60%)" />
<rect x="22" y="28" width="6" height="6" fill="hsl(0, 100%, 60%)" />
<rect x="88" y="28" width="6" height="6" fill="hsl(0, 100%, 60%)" />
<rect x="94" y="28" width="6" height="6" fill="hsl(0, 100%, 60%)" />
<rect x="100" y="28" width="6" height="6" fill="hsl(0, 100%, 60%)" />
<rect x="4" y="34" width="6" height="6" fill="hsl(0, 100%, 60%)" />
<rect x="28" y="34" width="6" height="6" fill="hsl(0, 100%, 60%)" />
<rect x="40" y="34" width="6" height="6" fill="hsl(0, 100%, 60%)" />
<rect x="70" y="34" width="6" height="6" fill="hsl(0, 100%, 60%)" />
<rect x="82" y="34" width="6" height="6" fill="hsl(0, 100%, 60%)" />
<rect x="106" y="34" width="6" height="6" fill="hsl(0, 100%, 60%)" />
<rect x="10" y="40" width="6" height="6" fill="hsl(0, 100%, 60%)" />
<rect x="16" y="40" width="6" height="6" fill="hsl(0, 100%, 60%)" />
<rect x="22" y="40" width="6" height="6" fill="hsl(0, 100%, 60%)" />
<rect x="88" y="40" width="6" height="6" fill="hsl(0, 100%, 60%)" />
<rect x="94" y="40" width="6" height="6" fill="hsl(0, 100%, 60%)" />
<rect x="100" y="40" width="6" height="6" fill="hsl(0, 100%, 60%)" />
<rect x="22" y="46" width="6" height="6" fill="hsl(0, 100%, 60%)" />
<rect x="34" y="46" width="6" height="6" fill="hsl(0, 100%, 60%)" />
<rect x="40" y="46" width="6" height="6" fill="hsl(0, 100%, 60%)" />
<rect x="70" y="46" width="6" height="6" fill="hsl(0, 100%, 60%)" />
<rect x="76" y="46" width="6" height="6" fill="hsl(0, 100%, 60%)" />
<rect x="88" y="46" width="6" height="6" fill="hsl(0, 100%, 60%)" />
<rect x="34" y="52" width="6" height="6" fill="hsl(0, 100%, 60%)" />
<rect x="76" y="52" width="6" height="6" fill="hsl(0, 100%, 60%)" />
<rect x="22" y="58" width="6" height="6" fill="hsl(0, 100%, 60%)" />
<rect x="34" y="58" width="6" height="6" fill="hsl(0, 100%, 60%)" />
<rect x="76" y="58" width="6" height="6" fill="hsl(0, 100%, 60%)" />
<rect x="88" y="58" width="6" height="6" fill="hsl(0, 100%, 60%)" />
<rect x="22" y="64" width="6" height="6" fill="hsl(0, 100%, 60%)" />
<rect x="28" y="64" width="6" height="6" fill="hsl(0, 100%, 60%)" />
<rect x="82" y="64" width="6" height="6" fill="hsl(0, 100%, 60%)" />
<rect x="88" y="64" width="6" height="6" fill="hsl(0, 100%, 60%)" />
</svg>