<?xml version="1.0" encoding="utf-8"?>
<svg xmlns="http://www.w3.org/2000/svg" width="101" height="56" viewBox="0 0 101 56">
<rect width="100%" height="100%" fill="transparent" />
<rect x="4" y="4" width="3" height="3" fill="hsl(0, 100%, 60%)" />
<rect x="7" y="4" width="3" height="3" fill="hsl(0, 100%, 60%)" />
<rect x="10" y="4" width="3" height="3" fill="hsl(0, 100%, 60%)" />
<rect x="13" y="4" width="3" height="3" fill="hsl(0, 100%, 60%)" />
<rect x="22" y="4" width="3" height="3" fill="hsl(0, 100%, 60%)" />
<rect x="25" y="4" width="3" height="3" fill="hsl(0, 100%, 60%)" />
<rect x="31" y="4" width="3" height="3" fill="hsl(0, 100%, 60%)" />
<rect x="34" y="4" width="3" height="3" fill="hsl(0, 100%, 60%)" />
<rect x="37" y="4" width="3" height="3" fill="hsl(0, 100%, 60%)" />
<rect x="43" y="4" width="3" height="3" fill="hsl(0, 100%, 60%)" />
<rect x="55" y="4" width="3" height="3" fill="hsl(0, 100%, 60%)" />
<rect x="61" y="4" width="3" height="3" fill="hsl(0, 100%, 60%)" />
<rect x="64" y="4" width="3" height="3" fill="hsl(0, 100%, 60%)" />
<rect x="67" y="4" width="3" height="3" fill="hsl(0, 100%, 60%)" />
<rect x="73" y="4" width="3" height="3" fill="hsl(0, 100%, 60%)" />
<rect x="76" y="4" width="3" height="3" fill="hsl(0, 100%, 60%)" />
<rect x="85" y="4" width="3" height="3" fill="hsl(0, 100%, 60%)" />
<rect x="88" y="4" width="3" height="3" fill="hsl(0, 100%, 60%)" />
<rect x="91" y="4" width="3" height="3" fill="hsl(0, 100%, 60%)" />
<rect x="94" y="4" width="3" height="3" fill="hsl(0, 100%, 60%)" />
<rect x="7" y="7" width="3" height="3" fill="hsl(0, 100%, 60%)" />
<rect x="13" y="7" width="3" height="3" fill="hsl(0, 100%, 60%)" />
<rect x="19" y="7" width="3" height="3" fill="hsl(0, 100%, 60%)" />
<rect x="22" y="7" width="3" height="3" fill="hsl(0, 100%, 60%)" />
<rect x="28" y="7" width="3" height="3" fill="hsl(0, 100%, 60%)" />
<rect x="70" y="7" width="3" height="3" fill="hsl(0, 100%, 60%)" />
<rect x="76" y="7" width="3" height="3" fill="hsl(0, 100%, 60%)" />
<rect x="79" y="7" width="3" height="3" fill="hsl(0, 100%, 60%)" />
<rect x="85" y="7" width="3" height="3" fill="hsl(0, 100%, 60%)" />
<rect x="91" y="7" width="3" height="3" fill="hsl(0, 100%, 60%)" />
<rect x="10" y="10" width="3" height="3" fill="hsl(0, 100%, 60%)" />
<rect x="13" y="10" width="3" height="3" fill="hsl(0, 100%, 60%)" />
<rect x="16" y="10" width="3" height="3" fill="hsl(0, 100%, 60%)" />
<rect x="25" y="10" width="3" height="3" fill="hsl(0, 100%, 60%)" />
<rect x="31" y="10" width="3" height="3" fill="hsl(0, 100%, 60%)" />
<rect x="37" y="10" width="3" height="3" fill="hsl(0, 100%, 60%)" />
<rect x="61" y="10" width="3" height="3" fill="hsl(0, 100%, 60%)" />
<rect x="67" y="10" width="3" height="3" fill="hsl(0, 100%, 60%)" />
<rect x="73" y="10" width="3" height="3" fill="hsl(0, 100%, 60%)" />
<rect x="82" y="10" width="3" height="3" fill="hsl(0, 100%, 60%)" />
<rect x="85" y="10" width="3" height="3" fill="hsl(0, 100%, 60%)" />
<rect x="88" y="10" width="3" height="3" fill="hsl(0, 100%, 60%)" />
<rect x="4" y="13" width="3" height="3" fill="hsl(0, 100%, 60%)" />
<rect x="10" y="13" width="3" height="3" fill="hsl(0, 100%, 60%)" />
<rect x="13" y="13" width="3" height="3" fill="hsl(0, 100%, 60%)" />
<rect x="19" y="13" width="3" height="3" fill="hsl(0, 100%, 60%)" />
<rect x="22" y="13" width="3" height="3" fill="hsl(0, 100%, 60%)" />
<rect x="25" y="13" width="3" height="3" fill="hsl(0, 100%, 60%)" />
<rect x="31" y="13" width="3" height="3" fill="hsl(0, 100%, 60%)" />
<rect x="40" y="13" width="3" height="3" fill="hsl(0, 100%, 60%)" />
<rect x="58" y="13" width="3" height="3" fill="hsl(0, 100%, 60%)" />
<rect x="67" y="13" width="3" height="3" fill="hsl(0, 100%, 60%)" />
<rect x="73" y="13" width="3" height="3" fill="hsl(0, 100%, 60%)" />
<rect x="76" y="13" width="3" height="3" fill="hsl(0, 100%, 60%)" />
<rect x="79" y="13" width="3" height="3" fill="hsl(0, 100%, 60%)" />
<rect x="85" y="13" width="3" height="3" fill="hsl(0, 100%, 60%)" />
<rect x="88" y="13" width="3" height="3" fill="hsl(0, 100%, 60%)" />
<rect x="94" y="13" width="3" height="3" fill="hsl(0, 100%, 60%)" />
<rect x="7" y="16" width="3" height="3" fill="hsl(0, 100%, 60%)" />
<rect x="10" y="16" width="3" height="3" fill="hsl(0, 100%, 60%)" />
<rect x="13" y="16" width="3" height="3" fill="hsl(0, 100%, 60%)" />
<rect x="16" y="16" width="3" height="3" fill="hsl(0, 100%, 60%)" />
<rect x="22" y="16" width="3" height="3" fill="hsl(0, 100%, 60%)" />
<rect x="34" y="16" width="3" height="3" fill="hsl(0, 100%, 60%)" />
<rect x="37" y="16" width="3" height="3" fill="hsl(0, 100%, 60%)" />
<rect x="43" y="16" width="3" height="3" fill="hsl(0, 100%, 60%)" />
<rect x="46" y="16" width="3" height="3" fill="hsl(0, 100%, 60%)" />
<rect x="49" y="16" width="3" height="3" fill="hsl(0, 100%, 60%)" />
<rect x="52" y="16" width="3" height="3" fill="hsl(0, 100%, 60%)" />
<rect x="55" y="16" width="3" height="3" fill="hsl(0, 100%, 60%)" />
<rect x="61" y="16" width="3" height="3" fill="hsl(0, 100%, 60%)" />
<rect x="64" y="16" width="3" height="3" fill="hsl(0, 100%, 60%)" />
<rect x="76" y="16" width="3" height="3" fill="hsl(0, 100%, 60%)" />
<rect x="82" y="16" width="3" height="3" fill="hsl(0, 100%, 60%)" />
<rect x="85" y="16" width="3" height="3" fill="hsl(0, 100%, 60%)" />
<rect x="88" y="16" width="3" height="3" fill="hsl(0, 100%, 60%)" />
<rect x="91" y="16" width="3" height="3" fill="hsl(0, 100%, 60%)" />
<rect x="19" y="19" width="3" height="3" fill="hsl(0, 100%, 60%)" />
<rect x="22" y="19" width="3" height="3" fill="hsl(0, 100%, 60%)" />
<rect x="34" y="19" width="3" height="3" fill="hsl(0, 100%, 60%)" />
<rect x="37" y="19" width="3" height="3" fill="hsl(0, 100%, 60%)" />
<rect x="43" y="19" width="3" height="3" fill="hsl(0, 100%, 60%)" />
<rect x="49" y="19" width="3" height="3" fill="hsl(0, 100%, 60%)" />
<rect x="55" y="19" width="3" height="3" fill="hsl(0, 100%, 60%)" />
<rect x="61" y="19" width="3" height="3" fill="hsl(0, 100%, 60%)" />
<rect x="64" y="19" width="3" height="3" fill="hsl(0, 100%, 60%)" />
<rect x="76" y="19" width="3" height="3" fill="hsl(0, 100%, 60%)" />
<rect x="79" y="19" width="3" height="3" fill="hsl(0, 100%, 60%)" />
<rect x="10" y="22" width="3" height="3" fill="hsl(0, 100%, 60%)" />
<rect x="13" y="22" width="3" height="3" fill="hsl(0, 100%, 60%)" />
<rect x="16" y="22" width="3" height="3" fill="hsl(0, 100%, 60%)" />
<rect x="28" y="22" width="3" height="3" fill="hsl(0, 100%, 60%)" />
<rect x="31" y="22" width="3" height="3" fill="hsl(0, 100%, 60%)" />
<rect x="43" y="22" width="3" height="3" fill="hsl(0, 100%, 60%)" />
<rect x="55" y="22" width="3" height="3" fill="hsl(0, 100%, 60%)" />
<rect x="67" y="22" width="3" height="3" fill="hsl(0, 100%, 60%)" />
<rect x="70" y="22" width="3" height="3" fill="hsl(0, 100%, 60%)" />
<rect x="82" y="22" width="3" height="3" fill="hsl(0, 100%, 60%)" />
<rect x="85" y="22" width="3" height="3" fill="hsl(0, 100%, 60%)" />
<rect x="88" y="22" width="3" height="3" fill="hsl(0, 100%, 60%)" />
<rect x="4" y="25" width="3" height="3" fill="hsl(0, 100%, 60%)" />
<rect x="13" y="25" width="3" height="3" fill="hsl(0, 100%, 60%)" />
<rect x="22" y="25" width="3" height="3" fill="hsl(0, 100%, 60%)" />
<rect x="28" y="25" width="3" height="3" fill="hsl(0, 100%, 60%)" />
<rect x="31" y="25" width="3" height="3" fill="hsl(0, 100%, 60%)" />
<rect x="43" y="25" width="3" height="3" fill="hsl(0, 100%, 60%)" />
<rect x="46" y="25" width="3" height="3" fill="hsl(0, 100%, 60%)" />
<rect x="52" y="25" width="3" height="3" fill="hsl(0, 100%, 60%)" />
<rect x="55" y="25" width="3" height="3" fill="hsl(0, 100%, 60%)" />
<rect x="67" y="25" width="3" height="3" fill="hsl(0, 100%, 60%)" />
<rect x="70" y="25" width="3" height="3" fill="hsl(0, 100%, 60%)" />
<rect x="76" y="25" width="3" height="3" fill="hsl(0, 100%, 60%)" />
<rect x="85" y="25" width="3" height="3" fill="hsl(0, 100%, 60%)" />
<rect x="94" y="25" width="3" height="3" fill="hsl(0, 100%, 60%)" />
<rect x="4" y="28" width="3" height="3" fill="hsl(0, 100%, 60%)" />
<rect x="7" y="28" width="3" height="3" fill="hsl(0, 100%, 60%)" />
<rect x="13" y="28" width="3" height="3" fill="hsl(0, 100%, 60%)" />
<rect x="22" y="28" width="3" height="3" fill="hsl(0, 100%, 60%)" />
<rect x="34" y="28" width="3" height="3" fill="hsl(0, 100%, 60%)" />
<rect x="64" y="28" width="3" height="3" fill="hsl(0, 100%, 60%)" />
<rect x="76" y="28" width="3" height="3" fill="hsl(0, 100%, 60%)" />
<rect x="85" y="28" width="3" height="3" fill="hsl(0, 100%, 60%)" />
<rect x="91" y="28" width="3" height="3" fill="hsl(0, 100%, 60%)" />
<rect x="94" y="28" width="3" height="3" fill="hsl(0, 100%, 60%)" />
<rect x="4" y="31" width="3" height="3" fill="hsl(0, 100%, 60%)" />
<rect x="10" y="31" width="3" height="3" fill="hsl(0, 100%, 60%)" />
<rect x="16" y="31" width="3" height="3" fill="hsl(0, 100%, 60%)" />
<rect x="28" y="31" width="3" height="3" fill="hsl(0, 100%, 60%)" />
<rect x="31" y="31" width="3" height="3" fill="hsl(0, 100%, 60%)" />
<rect x="34" y="31" width="3" height="3" fill="hsl(0, 100%, 60%)" />
<rect x="37" y="31" width="3" height="3" fill="hsl(0, 100%, 60%)" />
<rect x="46" y="31" width="3" height="3" fill="hsl(0, 100%, 60%)" />
<rect x="49" y="31" width="3" height="3" fill="hsl(0, 100%, 60%)" />
<rect x="52" y="31" width="3" height="3" fill="hsl(0, 100%, 60%)" />
<rect x="61" y="31" width="3" height="3" fill="hsl(0, 100%, 60%)" />
<rect x="64" y="31" width="3" height="3" fill="hsl(0, 100%, 60%)" />
<rect x="67" y="31" width="3" height="3" fill="hsl(0, 100%, 60%)" />
<rect x="70" y="31" width="3" height="3" fill="hsl(0, 100%, 60%)" />
<rect x="82" y="31" width="3" height="3" fill="hsl(0, 100%, 60%)" />
<rect x="88" y="31" width="3" height="3" fill="hsl(0, 100%, 60%)" />
<rect x="94" y="31" width="3" height="3" fill="hsl(0, 100%, 60%)" />
<rect x="4" y="34" width="3" height="3" fill="hsl(0, 100%, 60%)" />
<rect x="10" y="34" width="3" height="3" fill="hsl(0, 100%, 60%)" />
<rect x="13" y="34" width="3" height="3" fill="hsl(0, 100%, 60%)" />
<rect x="16" y="34" width="3" height="3" fill="hsl(0, 100%, 60%)" />
<rect x="22" y="34" width="3" height="3" fill="hsl(0, 100%, 60%)" />
<rect x="25" y="34" width="3" height="3" fill="hsl(0, 100%, 60%)" />
<rect x="34" y="34" width="3" height="3" fill="hsl(0, 100%, 60%)" />
<rect x="37" y="34" width="3" height="3" fill="hsl(0, 100%, 60%)" />
<rect x="49" y="34" width="3" height="3" fill="hsl(0, 100%, 60%)" />
<rect x="61" y="34" width="3" height="3" fill="hsl(0, 100%, 60%)" />
<rect x="64" y="34" width="3" height="3" fill="hsl(0, 100%, 60%)" />
<rect x="73" y="34" width="3" height="3" fill="hsl(0, 100%, 60%)" />
<rect x="76" y="34" width="3" height="3" fill="hsl(0, 100%, 60%)" />
<rect x="82" y="34" width="3" height="3" fill="hsl(0, 100%, 60%)" />
<rect x="85" y="34" width="3" height="3" fill="hsl(0, 100%, 60%)" />
<rect x="88" y="34" width="3" height="3" fill="hsl(0, 100%, 60%)" />
<rect x="94" y="34" width="3" height="3" fill="hsl(0, 100%, 60%)" />
<rect x="10" y="37" width="3" height="3" fill="hsl(0, 100%, 60%)" />
<rect x="28" y="37" width="3" height="3" fill="hsl(0, 100%, 60%)" />
<rect x="31" y="37" width="3" height="3" fill="hsl(0, 100%, 60%)" />
<rect x="43" y="37" width="3" height="3" fill="hsl(0, 100%, 60%)" />
<rect x="55" y="37" width="3" height="3" fill="hsl(0, 100%, 60%)" />
<rect x="67" y="37" width="3" height="3" fill="hsl(0, 100%, 60%)" />
<rect x="70" y="37" width="3" height="3" fill="hsl(0, 100%, 60%)" />
<rect x="88" y="37" width="3" height="3" fill="hsl(0, 100%, 60%)" />
<rect x="4" y="40" width="3" height="3" fill="hsl(0, 100%, 60%)" />
<rect x="7" y="40" width="3" height="3" fill="hsl(0, 100%, 60%)" />
<rect x="10" y="40" width="3" height="3" fill="hsl(0, 100%, 60%)" />
<rect x="13" y="40" width="3" height="3" fill="hsl(0, 100%, 60%)" />
<rect x="16" y="40" width="3" height="3" fill="hsl(0, 100%, 60%)" />
<rect x="22" y="40" width="3" height="3" fill="hsl(0, 100%, 60%)" />
<rect x="28" y="40" width="3" height="3" fill="hsl(0, 100%, 60%)" />
<rect x="31" y="40" width="3" height="3" fill="hsl(0, 100%, 60%)" />
<rect x="34" y="40" width="3" height="3" fill="hsl(0, 100%, 60%)" />
<rect x="43" y="40" width="3" height="3" fill="hsl(0, 100%, 60%)" />
<rect x="55" y="40" width="3" height="3" fill="hsl(0, 100%, 60%)" />
<rect x="64" y="40" width="3" height="3" fill="hsl(0, 100%, 60%)" />
<rect x="67" y="40" width="3" height="3" fill="hsl(0, 100%, 60%)" />
<rect x="70" y="40" width="3" height="3" fill="hsl(0, 100%, 60%)" />
<rect x="76" y="40" width="3" height="3" fill="hsl(0, 100%, 60%)" />
<rect x="82" y="40" width="3" height="3" fill="hsl(0, 100%, 60%)" />
<rect x="85" y="40" width="3" height="3" fill="hsl(0, 100%, 60%)" />
<rect x="88" y="40" width="3" height="3" fill="hsl(0, 100%, 60%)" />
<rect x="91" y="40" width="3" height="3" fill="hsl(0, 100%, 60%)" />
<rect x="94" y="40" width="3" height="3" fill="hsl(0, 100%, 60%)" />
<rect x="7" y="43" width="3" height="3" fill="hsl(0, 100%, 60%)" />
<rect x="22" y="43" width="3" height="3" fill="hsl(0, 100%, 60%)" />
<rect x="37" y="43" width="3" height="3" fill="hsl(0, 100%, 60%)" />
<rect x="46" y="43" width="3" height="3" fill="hsl(0, 100%, 60%)" />
<rect x="49" y="43" width="3" height="3" fill="hsl(0, 100%, 60%)" />
<rect x="52" y="43" width="3" height="3" fill="hsl(0, 100%, 60%)" />
<rect x="61" y="43" width="3" height="3" fill="hsl(0, 100%, 60%)" />
<rect x="76" y="43" width="3" height="3" fill="hsl(0, 100%, 60%)" />
<rect x="91" y="43" width="3" height="3" fill="hsl(0, 100%, 60%)" />
<rect x="7" y="46" width="3" height="3" fill="hsl(0, 100%, 60%)" />
<rect x="10" y="46" width="3" height="3" fill="hsl(0, 100%, 60%)" />
<rect x="16" y="46" width="3" height="3" fill="hsl(0, 100%, 60%)" />
<rect x="28" y="46" width="3" height="3" fill="hsl(0, 100%, 60%)" />
<rect x="31" y="46" width="3" height="3" fill="hsl(0, 100%, 60%)" />
<rect x="34" y="46" width="3" height="3" fill="hsl(0, 100%, 60%)" />
<rect x="37" y="46" width="3" height="3" fill="hsl(0, 100%, 60%)" />
<rect x="40" y="46" width="3" height="3" fill="hsl(0, 100%, 60%)" />
<rect x="43" y="46" width="3" height="3" fill="hsl(0, 100%, 60%)" />
<rect x="46" y="46" width="3" height="3" fill="hsl(0, 100%, 60%)" />
<rect x="49" y="46" width="3" height="3" fill="hsl(0, 100%, 60%)" />
<rect x="52" y="46" width="3" height="3" fill="hsl(0, 100%, 60%)" />
<rect x="55" y="46" width="3" height="3" fill="hsl(0, 100%, 60%)" />
<rect x="58" y="46" width="3" height="3" fill="hsl(0, 100%, 60%)" />
<rect x="61" y="46" width="3" height="3" fill="hsl(0, 100%, 60%)" />
<rect x="64" y="46" width="3" height="3" fill="hsl(0, 100%, 60%)" />
<rect x="67" y="46" width="3" height="3" fill="hsl(0, 100%, 60%)" />
<rect x="70" y="46" width="3" height="3" fill="hsl(0, 100%, 60%)" />
<rect x="82" y="46" width="3" height="3" fill="hsl(0, 100%, 60%)" />
<rect x="88" y="46" width="3" height="3" fill="hsl(0, 100%, 60%)" />
<rect x="91" y="46" width="3" height="3" fill="hsl(0, 100%, 60%)" />
<rect x="4" y="49" width="3" height="3" fill="hsl(0, 100%, 60%)" />
<rect x="7" y="49" width="3" height="3" fill="hsl(0, 100%, 60%)" />
<rect x="10" y="49" width="3" height="3" fill="hsl(0, 100%, 60%)" />
<rect x="13" y="49" width="3" height="3" fill="hsl(0, 100%, 60%)" />
<rect x="19" y="49" width="3" height="3" fill="hsl(0, 100%, 60%)" />
<rect x="22" y="49" width="3" height="3" fill="hsl(0, 100%, 60%)" />
<rect x="25" y="49" width="3" height="3" fill="hsl(0, 100%, 60%)" />
<rect x="46" y="49" width="3" height="3" fill="hsl(0, 100%, 60%)" />
<rect x="52" y="49" width="3" height="3" fill="hsl(0, 100%, 60%)" />
<rect x="73" y="49" width="3" height="3" fill="hsl(0, 100%, 60%)" />
<rect x="76" y="49" width="3" height="3" fill="hsl(0, 100%, 60%)" />
<rect x="79" y="49" width="3" height="3" fill="hsl(0, 100%, 60%)" />
<rect x="85" y="49" width="3" height="3" fill="hsl(0, 100%, 60%)" />
<rect x="88" y="49" width="3" height="3" fill="hsl(0, 100%, 60%)" />
<rect x="91" y="49" width="3" height="3" fill="hsl(0, 100%, 60%)" />
<rect x="94" y="49" width="3" height="3" fill="hsl(0, 100%, 60%)" />
</svg>