<?xml version="1.0" encoding="utf-8"?>
<svg xmlns="http://www.w3.org/2000/svg" width="119" height="101" viewBox="0 0 119 101">
<rect width="100%" height="100%" fill="transparent" />
<rect x="61" y="4" width="3" height="3" fill="hsl(0, 100%, 60%)" />
<rect x="64" y="4" width="3" height="3" fill="hsl(0, 100%, 60%)" />
<rect x="67" y="4" width="3" height="3" fill="hsl(0, 100%, 60%)" />
<rect x="58" y="7" width="3" height="3" fill="hsl(0, 100%, 60%)" />
<rect x="67" y="7" width="3" height="3" fill="hsl(0, 100%, 60%)" />
<rect x="40" y="10" width="3" height="3" fill="hsl(0, 100%, 60%)" />
<rect x="43" y="10" width="3" height="3" fill="hsl(0, 100%, 60%)" />
<rect x="46" y="10" width="3" height="3" fill="hsl(0, 100%, 60%)" />
<rect x="67" y="10" width="3" height="3" fill="hsl(0, 100%, 60%)" />
<rect x="82" y="10" width="3" height="3" fill="hsl(0, 100%, 60%)" />
<rect x="85" y="10" width="3" height="3" fill="hsl(0, 100%, 60%)" />
<rect x="88" y="10" width="3" height="3" fill="hsl(0, 100%, 60%)" />
<rect x="40" y="13" width="3" height="3" fill="hsl(0, 100%, 60%)" />
<rect x="49" y="13" width="3" height="3" fill="hsl(0, 100%, 60%)" />
<rect x="55" y="13" width="3" height="3" fill="hsl(0, 100%, 60%)" />
<rect x="67" y="13" width="3" height="3" fill="hsl(0, 100%, 60%)" />
<rect x="82" y="13" width="3" height="3" fill="hsl(0, 100%, 60%)" />
<rect x="91" y="13" width="3" height="3" fill="hsl(0, 100%, 60%)" />
<rect x="40" y="16" width="3" height="3" fill="hsl(0, 100%, 60%)" />
<rect x="49" y="16" width="3" height="3" fill="hsl(0, 100%, 60%)" />
<rect x="55" y="16" width="3" height="3" fill="hsl(0, 100%, 60%)" />
<rect x="67" y="16" width="3" height="3" fill="hsl(0, 100%, 60%)" />
<rect x="82" y="16" width="3" height="3" fill="hsl(0, 100%, 60%)" />
<rect x="91" y="16" width="3" height="3" fill="hsl(0, 100%, 60%)" />
<rect x="34" y="19" width="3" height="3" fill="hsl(0, 100%, 60%)" />
<rect x="67" y="19" width="3" height="3" fill="hsl(0, 100%, 60%)" />
<rect x="76" y="19" width="3" height="3" fill="hsl(0, 100%, 60%)" />
<rect x="82" y="19" width="3" height="3" fill="hsl(0, 100%, 60%)" />
<rect x="88" y="19" width="3" height="3" fill="hsl(0, 100%, 60%)" />
<rect x="91" y="19" width="3" height="3" fill="hsl(0, 100%, 60%)" />
<rect x="94" y="19" width="3" height="3" fill="hsl(0, 100%, 60%)" />
<rect x="34" y="22" width="3" height="3" fill="hsl(0, 100%, 60%)" />
<rect x="37" y="22" width="3" height="3" fill="hsl(0, 100%, 60%)" />
<rect x="46" y="22" width="3" height="3" fill="hsl(0, 100%, 60%)" />
<rect x="49" y="22" width="3" height="3" fill="hsl(0, 100%, 60%)" />
<rect x="58" y="22" width="3" height="3" fill="hsl(0, 100%, 60%)" />
<rect x="64" y="22" width="3" height="3" fill="hsl(0, 100%, 60%)" />
<rect x="79" y="22" width="3" height="3" fill="hsl(0, 100%, 60%)" />
<rect x="97" y="22" width="3" height="3" fill="hsl(0, 100%, 60%)" />
<rect x="28" y="25" width="3" height="3" fill="hsl(0, 100%, 60%)" />
<rect x="79" y="25" width="3" height="3" fill="hsl(0, 100%, 60%)" />
<rect x="82" y="25" width="3" height="3" fill="hsl(0, 100%, 60%)" />
<rect x="91" y="25" width="3" height="3" fill="hsl(0, 100%, 60%)" />
<rect x="94" y="25" width="3" height="3" fill="hsl(0, 100%, 60%)" />
<rect x="97" y="25" width="3" height="3" fill="hsl(0, 100%, 60%)" />
<rect x="28" y="28" width="3" height="3" fill="hsl(0, 100%, 60%)" />
<rect x="31" y="28" width="3" height="3" fill="hsl(0, 100%, 60%)" />
<rect x="34" y="28" width="3" height="3" fill="hsl(0, 100%, 60%)" />
<rect x="40" y="28" width="3" height="3" fill="hsl(0, 100%, 60%)" />
<rect x="46" y="28" width="3" height="3" fill="hsl(0, 100%, 60%)" />
<rect x="49" y="28" width="3" height="3" fill="hsl(0, 100%, 60%)" />
<rect x="82" y="28" width="3" height="3" fill="hsl(0, 100%, 60%)" />
<rect x="103" y="28" width="3" height="3" fill="hsl(0, 100%, 60%)" />
<rect x="22" y="31" width="3" height="3" fill="hsl(0, 100%, 60%)" />
<rect x="49" y="31" width="3" height="3" fill="hsl(0, 100%, 60%)" />
<rect x="79" y="31" width="3" height="3" fill="hsl(0, 100%, 60%)" />
<rect x="85" y="31" width="3" height="3" fill="hsl(0, 100%, 60%)" />
<rect x="97" y="31" width="3" height="3" fill="hsl(0, 100%, 60%)" />
<rect x="100" y="31" width="3" height="3" fill="hsl(0, 100%, 60%)" />
<rect x="103" y="31" width="3" height="3" fill="hsl(0, 100%, 60%)" />
<rect x="22" y="34" width="3" height="3" fill="hsl(0, 100%, 60%)" />
<rect x="25" y="34" width="3" height="3" fill="hsl(0, 100%, 60%)" />
<rect x="28" y="34" width="3" height="3" fill="hsl(0, 100%, 60%)" />
<rect x="46" y="34" width="3" height="3" fill="hsl(0, 100%, 60%)" />
<rect x="79" y="34" width="3" height="3" fill="hsl(0, 100%, 60%)" />
<rect x="106" y="34" width="3" height="3" fill="hsl(0, 100%, 60%)" />
<rect x="13" y="37" width="3" height="3" fill="hsl(0, 100%, 60%)" />
<rect x="19" y="37" width="3" height="3" fill="hsl(0, 100%, 60%)" />
<rect x="97" y="37" width="3" height="3" fill="hsl(0, 100%, 60%)" />
<rect x="103" y="37" width="3" height="3" fill="hsl(0, 100%, 60%)" />
<rect x="106" y="37" width="3" height="3" fill="hsl(0, 100%, 60%)" />
<rect x="109" y="37" width="3" height="3" fill="hsl(0, 100%, 60%)" />
<rect x="10" y="40" width="3" height="3" fill="hsl(0, 100%, 60%)" />
<rect x="13" y="40" width="3" height="3" fill="hsl(0, 100%, 60%)" />
<rect x="16" y="40" width="3" height="3" fill="hsl(0, 100%, 60%)" />
<rect x="19" y="40" width="3" height="3" fill="hsl(0, 100%, 60%)" />
<rect x="22" y="40" width="3" height="3" fill="hsl(0, 100%, 60%)" />
<rect x="28" y="40" width="3" height="3" fill="hsl(0, 100%, 60%)" />
<rect x="109" y="40" width="3" height="3" fill="hsl(0, 100%, 60%)" />
<rect x="7" y="43" width="3" height="3" fill="hsl(0, 100%, 60%)" />
<rect x="10" y="43" width="3" height="3" fill="hsl(0, 100%, 60%)" />
<rect x="31" y="43" width="3" height="3" fill="hsl(0, 100%, 60%)" />
<rect x="97" y="43" width="3" height="3" fill="hsl(0, 100%, 60%)" />
<rect x="100" y="43" width="3" height="3" fill="hsl(0, 100%, 60%)" />
<rect x="103" y="43" width="3" height="3" fill="hsl(0, 100%, 60%)" />
<rect x="106" y="43" width="3" height="3" fill="hsl(0, 100%, 60%)" />
<rect x="109" y="43" width="3" height="3" fill="hsl(0, 100%, 60%)" />
<rect x="4" y="46" width="3" height="3" fill="hsl(0, 100%, 60%)" />
<rect x="7" y="46" width="3" height="3" fill="hsl(0, 100%, 60%)" />
<rect x="22" y="46" width="3" height="3" fill="hsl(0, 100%, 60%)" />
<rect x="25" y="46" width="3" height="3" fill="hsl(0, 100%, 60%)" />
<rect x="82" y="46" width="3" height="3" fill="hsl(0, 100%, 60%)" />
<rect x="88" y="46" width="3" height="3" fill="hsl(0, 100%, 60%)" />
<rect x="7" y="49" width="3" height="3" fill="hsl(0, 100%, 60%)" />
<rect x="13" y="49" width="3" height="3" fill="hsl(0, 100%, 60%)" />
<rect x="25" y="49" width="3" height="3" fill="hsl(0, 100%, 60%)" />
<rect x="34" y="49" width="3" height="3" fill="hsl(0, 100%, 60%)" />
<rect x="82" y="49" width="3" height="3" fill="hsl(0, 100%, 60%)" />
<rect x="91" y="49" width="3" height="3" fill="hsl(0, 100%, 60%)" />
<rect x="103" y="49" width="3" height="3" fill="hsl(0, 100%, 60%)" />
<rect x="109" y="49" width="3" height="3" fill="hsl(0, 100%, 60%)" />
<rect x="28" y="52" width="3" height="3" fill="hsl(0, 100%, 60%)" />
<rect x="34" y="52" width="3" height="3" fill="hsl(0, 100%, 60%)" />
<rect x="91" y="52" width="3" height="3" fill="hsl(0, 100%, 60%)" />
<rect x="94" y="52" width="3" height="3" fill="hsl(0, 100%, 60%)" />
<rect x="109" y="52" width="3" height="3" fill="hsl(0, 100%, 60%)" />
<rect x="112" y="52" width="3" height="3" fill="hsl(0, 100%, 60%)" />
<rect x="7" y="55" width="3" height="3" fill="hsl(0, 100%, 60%)" />
<rect x="10" y="55" width="3" height="3" fill="hsl(0, 100%, 60%)" />
<rect x="13" y="55" width="3" height="3" fill="hsl(0, 100%, 60%)" />
<rect x="16" y="55" width="3" height="3" fill="hsl(0, 100%, 60%)" />
<rect x="19" y="55" width="3" height="3" fill="hsl(0, 100%, 60%)" />
<rect x="85" y="55" width="3" height="3" fill="hsl(0, 100%, 60%)" />
<rect x="106" y="55" width="3" height="3" fill="hsl(0, 100%, 60%)" />
<rect x="109" y="55" width="3" height="3" fill="hsl(0, 100%, 60%)" />
<rect x="7" y="58" width="3" height="3" fill="hsl(0, 100%, 60%)" />
<rect x="88" y="58" width="3" height="3" fill="hsl(0, 100%, 60%)" />
<rect x="94" y="58" width="3" height="3" fill="hsl(0, 100%, 60%)" />
<rect x="97" y="58" width="3" height="3" fill="hsl(0, 100%, 60%)" />
<rect x="100" y="58" width="3" height="3" fill="hsl(0, 100%, 60%)" />
<rect x="103" y="58" width="3" height="3" fill="hsl(0, 100%, 60%)" />
<rect x="106" y="58" width="3" height="3" fill="hsl(0, 100%, 60%)" />
<rect x="7" y="61" width="3" height="3" fill="hsl(0, 100%, 60%)" />
<rect x="10" y="61" width="3" height="3" fill="hsl(0, 100%, 60%)" />
<rect x="13" y="61" width="3" height="3" fill="hsl(0, 100%, 60%)" />
<rect x="19" y="61" width="3" height="3" fill="hsl(0, 100%, 60%)" />
<rect x="97" y="61" width="3" height="3" fill="hsl(0, 100%, 60%)" />
<rect x="103" y="61" width="3" height="3" fill="hsl(0, 100%, 60%)" />
<rect x="10" y="64" width="3" height="3" fill="hsl(0, 100%, 60%)" />
<rect x="37" y="64" width="3" height="3" fill="hsl(0, 100%, 60%)" />
<rect x="70" y="64" width="3" height="3" fill="hsl(0, 100%, 60%)" />
<rect x="88" y="64" width="3" height="3" fill="hsl(0, 100%, 60%)" />
<rect x="91" y="64" width="3" height="3" fill="hsl(0, 100%, 60%)" />
<rect x="94" y="64" width="3" height="3" fill="hsl(0, 100%, 60%)" />
<rect x="13" y="67" width="3" height="3" fill="hsl(0, 100%, 60%)" />
<rect x="16" y="67" width="3" height="3" fill="hsl(0, 100%, 60%)" />
<rect x="19" y="67" width="3" height="3" fill="hsl(0, 100%, 60%)" />
<rect x="31" y="67" width="3" height="3" fill="hsl(0, 100%, 60%)" />
<rect x="37" y="67" width="3" height="3" fill="hsl(0, 100%, 60%)" />
<rect x="67" y="67" width="3" height="3" fill="hsl(0, 100%, 60%)" />
<rect x="94" y="67" width="3" height="3" fill="hsl(0, 100%, 60%)" />
<rect x="13" y="70" width="3" height="3" fill="hsl(0, 100%, 60%)" />
<rect x="34" y="70" width="3" height="3" fill="hsl(0, 100%, 60%)" />
<rect x="67" y="70" width="3" height="3" fill="hsl(0, 100%, 60%)" />
<rect x="70" y="70" width="3" height="3" fill="hsl(0, 100%, 60%)" />
<rect x="76" y="70" width="3" height="3" fill="hsl(0, 100%, 60%)" />
<rect x="82" y="70" width="3" height="3" fill="hsl(0, 100%, 60%)" />
<rect x="85" y="70" width="3" height="3" fill="hsl(0, 100%, 60%)" />
<rect x="88" y="70" width="3" height="3" fill="hsl(0, 100%, 60%)" />
<rect x="19" y="73" width="3" height="3" fill="hsl(0, 100%, 60%)" />
<rect x="22" y="73" width="3" height="3" fill="hsl(0, 100%, 60%)" />
<rect x="25" y="73" width="3" height="3" fill="hsl(0, 100%, 60%)" />
<rect x="34" y="73" width="3" height="3" fill="hsl(0, 100%, 60%)" />
<rect x="37" y="73" width="3" height="3" fill="hsl(0, 100%, 60%)" />
<rect x="88" y="73" width="3" height="3" fill="hsl(0, 100%, 60%)" />
<rect x="19" y="76" width="3" height="3" fill="hsl(0, 100%, 60%)" />
<rect x="37" y="76" width="3" height="3" fill="hsl(0, 100%, 60%)" />
<rect x="52" y="76" width="3" height="3" fill="hsl(0, 100%, 60%)" />
<rect x="58" y="76" width="3" height="3" fill="hsl(0, 100%, 60%)" />
<rect x="67" y="76" width="3" height="3" fill="hsl(0, 100%, 60%)" />
<rect x="70" y="76" width="3" height="3" fill="hsl(0, 100%, 60%)" />
<rect x="79" y="76" width="3" height="3" fill="hsl(0, 100%, 60%)" />
<rect x="82" y="76" width="3" height="3" fill="hsl(0, 100%, 60%)" />
<rect x="22" y="79" width="3" height="3" fill="hsl(0, 100%, 60%)" />
<rect x="25" y="79" width="3" height="3" fill="hsl(0, 100%, 60%)" />
<rect x="28" y="79" width="3" height="3" fill="hsl(0, 100%, 60%)" />
<rect x="34" y="79" width="3" height="3" fill="hsl(0, 100%, 60%)" />
<rect x="40" y="79" width="3" height="3" fill="hsl(0, 100%, 60%)" />
<rect x="49" y="79" width="3" height="3" fill="hsl(0, 100%, 60%)" />
<rect x="82" y="79" width="3" height="3" fill="hsl(0, 100%, 60%)" />
<rect x="25" y="82" width="3" height="3" fill="hsl(0, 100%, 60%)" />
<rect x="34" y="82" width="3" height="3" fill="hsl(0, 100%, 60%)" />
<rect x="49" y="82" width="3" height="3" fill="hsl(0, 100%, 60%)" />
<rect x="61" y="82" width="3" height="3" fill="hsl(0, 100%, 60%)" />
<rect x="67" y="82" width="3" height="3" fill="hsl(0, 100%, 60%)" />
<rect x="76" y="82" width="3" height="3" fill="hsl(0, 100%, 60%)" />
<rect x="25" y="85" width="3" height="3" fill="hsl(0, 100%, 60%)" />
<rect x="34" y="85" width="3" height="3" fill="hsl(0, 100%, 60%)" />
<rect x="49" y="85" width="3" height="3" fill="hsl(0, 100%, 60%)" />
<rect x="61" y="85" width="3" height="3" fill="hsl(0, 100%, 60%)" />
<rect x="67" y="85" width="3" height="3" fill="hsl(0, 100%, 60%)" />
<rect x="76" y="85" width="3" height="3" fill="hsl(0, 100%, 60%)" />
<rect x="28" y="88" width="3" height="3" fill="hsl(0, 100%, 60%)" />
<rect x="31" y="88" width="3" height="3" fill="hsl(0, 100%, 60%)" />
<rect x="34" y="88" width="3" height="3" fill="hsl(0, 100%, 60%)" />
<rect x="49" y="88" width="3" height="3" fill="hsl(0, 100%, 60%)" />
<rect x="70" y="88" width="3" height="3" fill="hsl(0, 100%, 60%)" />
<rect x="73" y="88" width="3" height="3" fill="hsl(0, 100%, 60%)" />
<rect x="76" y="88" width="3" height="3" fill="hsl(0, 100%, 60%)" />
<rect x="49" y="91" width="3" height="3" fill="hsl(0, 100%, 60%)" />
<rect x="58" y="91" width="3" height="3" fill="hsl(0, 100%, 60%)" />
<rect x="49" y="94" width="3" height="3" fill="hsl(0, 100%, 60%)" />
<rect x="52" y="94" width="3" height="3" fill="hsl(0, 100%, 60%)" />
<rect x="55" y="94" width="3" height="3" fill="hsl(0, 100%, 60%)" />
</svg>