<?xml version="1.0" encoding="utf-8"?>
<svg xmlns="http://www.w3.org/2000/svg" width="127" height="127" viewBox="0 0 127 127">
<rect width="100%" height="100%" fill="transparent" />
<rect x="4" y="4" width="17" height="17" fill="hsl(0, 100%, 60%)" />
<rect x="21" y="4" width="17" height="17" fill="hsl(0, 100%, 60%)" />
<rect x="106" y="4" width="17" height="17" fill="hsl(0, 100%, 60%)" />
<rect x="21" y="21" width="17" height="17" fill="hsl(0, 100%, 60%)" />
<rect x="72" y="21" width="17" height="17" fill="hsl(0, 100%, 60%)" />
<rect x="89" y="21" width="17" height="17" fill="hsl(0, 100%, 60%)" />
<rect x="106" y="21" width="17" height="17" fill="hsl(0, 100%, 60%)" />
<rect x="21" y="38" width="17" height="17" fill="hsl(0, 100%, 60%)" />
<rect x="55" y="38" width="17" height="17" fill="hsl(0, 100%, 60%)" />
<rect x="38" y="55" width="17" height="17" fill="hsl(0, 100%, 60%)" />
<rect x="72" y="55" width="17" height="17" fill="hsl(0, 100%, 60%)" />
<rect x="55" y="72" width="17" height="17" fill="hsl(0, 100%, 60%)" />
<rect x="89" y="72" width="17" height="17" fill="hsl(0, 100%, 60%)" />
<rect x="4" y="89" width="17" height="17" fill="hsl(0, 100%, 60%)" />
<rect x="21" y="89" width="17" height="17" fill="hsl(0, 100%, 60%)" />
<rect x="38" y="89" width="17" height="17" fill="hsl(0, 100%, 60%)" />
<rect x="89" y="89" width="17" height="17" fill="hsl(0, 100%, 60%)" />
<rect x="4" y="106" width="17" height="17" fill="hsl(0, 100%, 60%)" />
<rect x="89" y="106" width="17" height="17" fill="hsl(0, 100%, 60%)" />
<rect x="106" y="106" width="17" height="17" fill="hsl(0, 100%, 60%)" />
</svg>