<?xml version="1.0" encoding="utf-8"?>
<svg xmlns="http://www.w3.org/2000/svg" width="102" height="54" viewBox="0 0 102 54">
<rect width="100%" height="100%" fill="transparent" />
<rect x="6" y="4" width="2" height="2" fill="hsl(0, 100%, 60%)" />
<rect x="20" y="4" width="2" height="2" fill="hsl(0, 100%, 60%)" />
<rect x="24" y="4" width="2" height="2" fill="hsl(0, 100%, 60%)" />
<rect x="36" y="4" width="2" height="2" fill="hsl(0, 100%, 60%)" />
<rect x="46" y="4" width="2" height="2" fill="hsl(0, 100%, 60%)" />
<rect x="50" y="4" width="2" height="2" fill="hsl(0, 100%, 60%)" />
<rect x="54" y="4" width="2" height="2" fill="hsl(0, 100%, 60%)" />
<rect x="94" y="4" width="2" height="2" fill="hsl(0, 100%, 60%)" />
<rect x="92" y="6" width="2" height="2" fill="hsl(0, 100%, 60%)" />
<rect x="6" y="8" width="2" height="2" fill="hsl(0, 100%, 60%)" />
<rect x="18" y="8" width="2" height="2" fill="hsl(0, 100%, 60%)" />
<rect x="26" y="8" width="2" height="2" fill="hsl(0, 100%, 60%)" />
<rect x="34" y="8" width="2" height="2" fill="hsl(0, 100%, 60%)" />
<rect x="38" y="8" width="2" height="2" fill="hsl(0, 100%, 60%)" />
<rect x="46" y="8" width="2" height="2" fill="hsl(0, 100%, 60%)" />
<rect x="92" y="8" width="2" height="2" fill="hsl(0, 100%, 60%)" />
<rect x="94" y="8" width="2" height="2" fill="hsl(0, 100%, 60%)" />
<rect x="96" y="8" width="2" height="2" fill="hsl(0, 100%, 60%)" />
<rect x="6" y="12" width="2" height="2" fill="hsl(0, 100%, 60%)" />
<rect x="18" y="12" width="2" height="2" fill="hsl(0, 100%, 60%)" />
<rect x="26" y="12" width="2" height="2" fill="hsl(0, 100%, 60%)" />
<rect x="32" y="12" width="2" height="2" fill="hsl(0, 100%, 60%)" />
<rect x="40" y="12" width="2" height="2" fill="hsl(0, 100%, 60%)" />
<rect x="46" y="12" width="2" height="2" fill="hsl(0, 100%, 60%)" />
<rect x="50" y="12" width="2" height="2" fill="hsl(0, 100%, 60%)" />
<rect x="54" y="12" width="2" height="2" fill="hsl(0, 100%, 60%)" />
<rect x="6" y="16" width="2" height="2" fill="hsl(0, 100%, 60%)" />
<rect x="18" y="16" width="2" height="2" fill="hsl(0, 100%, 60%)" />
<rect x="26" y="16" width="2" height="2" fill="hsl(0, 100%, 60%)" />
<rect x="32" y="16" width="2" height="2" fill="hsl(0, 100%, 60%)" />
<rect x="36" y="16" width="2" height="2" fill="hsl(0, 100%, 60%)" />
<rect x="40" y="16" width="2" height="2" fill="hsl(0, 100%, 60%)" />
<rect x="46" y="16" width="2" height="2" fill="hsl(0, 100%, 60%)" />
<rect x="84" y="18" width="2" height="2" fill="hsl(0, 100%, 60%)" />
<rect x="86" y="18" width="2" height="2" fill="hsl(0, 100%, 60%)" />
<rect x="6" y="20" width="2" height="2" fill="hsl(0, 100%, 60%)" />
<rect x="10" y="20" width="2" height="2" fill="hsl(0, 100%, 60%)" />
<rect x="14" y="20" width="2" height="2" fill="hsl(0, 100%, 60%)" />
<rect x="20" y="20" width="2" height="2" fill="hsl(0, 100%, 60%)" />
<rect x="24" y="20" width="2" height="2" fill="hsl(0, 100%, 60%)" />
<rect x="32" y="20" width="2" height="2" fill="hsl(0, 100%, 60%)" />
<rect x="40" y="20" width="2" height="2" fill="hsl(0, 100%, 60%)" />
<rect x="46" y="20" width="2" height="2" fill="hsl(0, 100%, 60%)" />
<rect x="82" y="20" width="2" height="2" fill="hsl(0, 100%, 60%)" />
<rect x="86" y="20" width="2" height="2" fill="hsl(0, 100%, 60%)" />
<rect x="86" y="22" width="2" height="2" fill="hsl(0, 100%, 60%)" />
<rect x="94" y="28" width="2" height="2" fill="hsl(0, 100%, 60%)" />
<rect x="92" y="30" width="2" height="2" fill="hsl(0, 100%, 60%)" />
<rect x="4" y="32" width="2" height="2" fill="hsl(0, 100%, 60%)" />
<rect x="8" y="32" width="2" height="2" fill="hsl(0, 100%, 60%)" />
<rect x="12" y="32" width="2" height="2" fill="hsl(0, 100%, 60%)" />
<rect x="22" y="32" width="2" height="2" fill="hsl(0, 100%, 60%)" />
<rect x="32" y="32" width="2" height="2" fill="hsl(0, 100%, 60%)" />
<rect x="36" y="32" width="2" height="2" fill="hsl(0, 100%, 60%)" />
<rect x="40" y="32" width="2" height="2" fill="hsl(0, 100%, 60%)" />
<rect x="46" y="32" width="2" height="2" fill="hsl(0, 100%, 60%)" />
<rect x="50" y="32" width="2" height="2" fill="hsl(0, 100%, 60%)" />
<rect x="54" y="32" width="2" height="2" fill="hsl(0, 100%, 60%)" />
<rect x="60" y="32" width="2" height="2" fill="hsl(0, 100%, 60%)" />
<rect x="64" y="32" width="2" height="2" fill="hsl(0, 100%, 60%)" />
<rect x="92" y="32" width="2" height="2" fill="hsl(0, 100%, 60%)" />
<rect x="94" y="32" width="2" height="2" fill="hsl(0, 100%, 60%)" />
<rect x="96" y="32" width="2" height="2" fill="hsl(0, 100%, 60%)" />
<rect x="68" y="34" width="2" height="2" fill="hsl(0, 100%, 60%)" />
<rect x="4" y="36" width="2" height="2" fill="hsl(0, 100%, 60%)" />
<rect x="20" y="36" width="2" height="2" fill="hsl(0, 100%, 60%)" />
<rect x="24" y="36" width="2" height="2" fill="hsl(0, 100%, 60%)" />
<rect x="36" y="36" width="2" height="2" fill="hsl(0, 100%, 60%)" />
<rect x="46" y="36" width="2" height="2" fill="hsl(0, 100%, 60%)" />
<rect x="60" y="36" width="2" height="2" fill="hsl(0, 100%, 60%)" />
<rect x="68" y="38" width="2" height="2" fill="hsl(0, 100%, 60%)" />
<rect x="4" y="40" width="2" height="2" fill="hsl(0, 100%, 60%)" />
<rect x="8" y="40" width="2" height="2" fill="hsl(0, 100%, 60%)" />
<rect x="12" y="40" width="2" height="2" fill="hsl(0, 100%, 60%)" />
<rect x="18" y="40" width="2" height="2" fill="hsl(0, 100%, 60%)" />
<rect x="26" y="40" width="2" height="2" fill="hsl(0, 100%, 60%)" />
<rect x="36" y="40" width="2" height="2" fill="hsl(0, 100%, 60%)" />
<rect x="46" y="40" width="2" height="2" fill="hsl(0, 100%, 60%)" />
<rect x="50" y="40" width="2" height="2" fill="hsl(0, 100%, 60%)" />
<rect x="54" y="40" width="2" height="2" fill="hsl(0, 100%, 60%)" />
<rect x="60" y="40" width="2" height="2" fill="hsl(0, 100%, 60%)" />
<rect x="64" y="40" width="2" height="2" fill="hsl(0, 100%, 60%)" />
<rect x="4" y="44" width="2" height="2" fill="hsl(0, 100%, 60%)" />
<rect x="18" y="44" width="2" height="2" fill="hsl(0, 100%, 60%)" />
<rect x="22" y="44" width="2" height="2" fill="hsl(0, 100%, 60%)" />
<rect x="26" y="44" width="2" height="2" fill="hsl(0, 100%, 60%)" />
<rect x="36" y="44" width="2" height="2" fill="hsl(0, 100%, 60%)" />
<rect x="46" y="44" width="2" height="2" fill="hsl(0, 100%, 60%)" />
<rect x="60" y="44" width="2" height="2" fill="hsl(0, 100%, 60%)" />
<rect x="66" y="44" width="2" height="2" fill="hsl(0, 100%, 60%)" />
<rect x="90" y="44" width="2" height="2" fill="hsl(0, 100%, 60%)" />
<rect x="88" y="46" width="2" height="2" fill="hsl(0, 100%, 60%)" />
<rect x="90" y="46" width="2" height="2" fill="hsl(0, 100%, 60%)" />
<rect x="4" y="48" width="2" height="2" fill="hsl(0, 100%, 60%)" />
<rect x="8" y="48" width="2" height="2" fill="hsl(0, 100%, 60%)" />
<rect x="12" y="48" width="2" height="2" fill="hsl(0, 100%, 60%)" />
<rect x="18" y="48" width="2" height="2" fill="hsl(0, 100%, 60%)" />
<rect x="26" y="48" width="2" height="2" fill="hsl(0, 100%, 60%)" />
<rect x="36" y="48" width="2" height="2" fill="hsl(0, 100%, 60%)" />
<rect x="46" y="48" width="2" height="2" fill="hsl(0, 100%, 60%)" />
<rect x="50" y="48" width="2" height="2" fill="hsl(0, 100%, 60%)" />
<rect x="54" y="48" width="2" height="2" fill="hsl(0, 100%, 60%)" />
<rect x="60" y="48" width="2" height="2" fill="hsl(0, 100%, 60%)" />
<rect x="68" y="48" width="2" height="2" fill="hsl(0, 100%, 60%)" />
<rect x="88" y="48" width="2" height="2" fill="hsl(0, 100%, 60%)" />
<rect x="92" y="48" width="2" height="2" fill="hsl(0, 100%, 60%)" />
</svg>