<?xml version="1.0" encoding="utf-8"?>
<svg xmlns="http://www.w3.org/2000/svg" width="96" height="108" viewBox="0 0 96 108">
<rect width="100%" height="100%" fill="transparent" />
<rect x="16" y="4" width="4" height="4" fill="hsl(0, 100%, 60%)" />
<rect x="28" y="4" width="4" height="4" fill="hsl(0, 100%, 60%)" />
<rect x="40" y="4" width="4" height="4" fill="hsl(0, 100%, 60%)" />
<rect x="52" y="4" width="4" height="4" fill="hsl(0, 100%, 60%)" />
<rect x="64" y="4" width="4" height="4" fill="hsl(0, 100%, 60%)" />
<rect x="76" y="4" width="4" height="4" fill="hsl(0, 100%, 60%)" />
<rect x="8" y="8" width="4" height="4" fill="hsl(0, 100%, 60%)" />
<rect x="12" y="8" width="4" height="4" fill="hsl(0, 100%, 60%)" />
<rect x="16" y="8" width="4" height="4" fill="hsl(0, 100%, 60%)" />
<rect x="20" y="8" width="4" height="4" fill="hsl(0, 100%, 60%)" />
<rect x="24" y="8" width="4" height="4" fill="hsl(0, 100%, 60%)" />
<rect x="28" y="8" width="4" height="4" fill="hsl(0, 100%, 60%)" />
<rect x="32" y="8" width="4" height="4" fill="hsl(0, 100%, 60%)" />
<rect x="36" y="8" width="4" height="4" fill="hsl(0, 100%, 60%)" />
<rect x="40" y="8" width="4" height="4" fill="hsl(0, 100%, 60%)" />
<rect x="44" y="8" width="4" height="4" fill="hsl(0, 100%, 60%)" />
<rect x="48" y="8" width="4" height="4" fill="hsl(0, 100%, 60%)" />
<rect x="52" y="8" width="4" height="4" fill="hsl(0, 100%, 60%)" />
<rect x="56" y="8" width="4" height="4" fill="hsl(0, 100%, 60%)" />
<rect x="60" y="8" width="4" height="4" fill="hsl(0, 100%, 60%)" />
<rect x="64" y="8" width="4" height="4" fill="hsl(0, 100%, 60%)" />
<rect x="68" y="8" width="4" height="4" fill="hsl(0, 100%, 60%)" />
<rect x="72" y="8" width="4" height="4" fill="hsl(0, 100%, 60%)" />
<rect x="76" y="8" width="4" height="4" fill="hsl(0, 100%, 60%)" />
<rect x="80" y="8" width="4" height="4" fill="hsl(0, 100%, 60%)" />
<rect x="84" y="8" width="4" height="4" fill="hsl(0, 100%, 60%)" />
<rect x="4" y="12" width="4" height="4" fill="hsl(0, 100%, 60%)" />
<rect x="88" y="12" width="4" height="4" fill="hsl(0, 100%, 60%)" />
<rect x="4" y="16" width="4" height="4" fill="hsl(0, 100%, 60%)" />
<rect x="8" y="16" width="4" height="4" fill="hsl(0, 100%, 60%)" />
<rect x="12" y="16" width="4" height="4" fill="hsl(0, 100%, 60%)" />
<rect x="16" y="16" width="4" height="4" fill="hsl(0, 100%, 60%)" />
<rect x="20" y="16" width="4" height="4" fill="hsl(0, 100%, 60%)" />
<rect x="24" y="16" width="4" height="4" fill="hsl(0, 100%, 60%)" />
<rect x="28" y="16" width="4" height="4" fill="hsl(0, 100%, 60%)" />
<rect x="32" y="16" width="4" height="4" fill="hsl(0, 100%, 60%)" />
<rect x="36" y="16" width="4" height="4" fill="hsl(0, 100%, 60%)" />
<rect x="40" y="16" width="4" height="4" fill="hsl(0, 100%, 60%)" />
<rect x="44" y="16" width="4" height="4" fill="hsl(0, 100%, 60%)" />
<rect x="48" y="16" width="4" height="4" fill="hsl(0, 100%, 60%)" />
<rect x="52" y="16" width="4" height="4" fill="hsl(0, 100%, 60%)" />
<rect x="56" y="16" width="4" height="4" fill="hsl(0, 100%, 60%)" />
<rect x="60" y="16" width="4" height="4" fill="hsl(0, 100%, 60%)" />
<rect x="64" y="16" width="4" height="4" fill="hsl(0, 100%, 60%)" />
<rect x="68" y="16" width="4" height="4" fill="hsl(0, 100%, 60%)" />
<rect x="72" y="16" width="4" height="4" fill="hsl(0, 100%, 60%)" />
<rect x="76" y="16" width="4" height="4" fill="hsl(0, 100%, 60%)" />
<rect x="80" y="16" width="4" height="4" fill="hsl(0, 100%, 60%)" />
<rect x="84" y="16" width="4" height="4" fill="hsl(0, 100%, 60%)" />
<rect x="88" y="16" width="4" height="4" fill="hsl(0, 100%, 60%)" />
<rect x="4" y="24" width="4" height="4" fill="hsl(0, 100%, 60%)" />
<rect x="8" y="24" width="4" height="4" fill="hsl(0, 100%, 60%)" />
<rect x="12" y="24" width="4" height="4" fill="hsl(0, 100%, 60%)" />
<rect x="16" y="24" width="4" height="4" fill="hsl(0, 100%, 60%)" />
<rect x="20" y="24" width="4" height="4" fill="hsl(0, 100%, 60%)" />
<rect x="24" y="24" width="4" height="4" fill="hsl(0, 100%, 60%)" />
<rect x="28" y="24" width="4" height="4" fill="hsl(0, 100%, 60%)" />
<rect x="32" y="24" width="4" height="4" fill="hsl(0, 100%, 60%)" />
<rect x="36" y="24" width="4" height="4" fill="hsl(0, 100%, 60%)" />
<rect x="40" y="24" width="4" height="4" fill="hsl(0, 100%, 60%)" />
<rect x="44" y="24" width="4" height="4" fill="hsl(0, 100%, 60%)" />
<rect x="48" y="24" width="4" height="4" fill="hsl(0, 100%, 60%)" />
<rect x="52" y="24" width="4" height="4" fill="hsl(0, 100%, 60%)" />
<rect x="56" y="24" width="4" height="4" fill="hsl(0, 100%, 60%)" />
<rect x="60" y="24" width="4" height="4" fill="hsl(0, 100%, 60%)" />
<rect x="64" y="24" width="4" height="4" fill="hsl(0, 100%, 60%)" />
<rect x="68" y="24" width="4" height="4" fill="hsl(0, 100%, 60%)" />
<rect x="72" y="24" width="4" height="4" fill="hsl(0, 100%, 60%)" />
<rect x="76" y="24" width="4" height="4" fill="hsl(0, 100%, 60%)" />
<rect x="80" y="24" width="4" height="4" fill="hsl(0, 100%, 60%)" />
<rect x="84" y="24" width="4" height="4" fill="hsl(0, 100%, 60%)" />
<rect x="88" y="24" width="4" height="4" fill="hsl(0, 100%, 60%)" />
<rect x="4" y="28" width="4" height="4" fill="hsl(0, 100%, 60%)" />
<rect x="88" y="28" width="4" height="4" fill="hsl(0, 100%, 60%)" />
<rect x="8" y="32" width="4" height="4" fill="hsl(0, 100%, 60%)" />
<rect x="12" y="32" width="4" height="4" fill="hsl(0, 100%, 60%)" />
<rect x="16" y="32" width="4" height="4" fill="hsl(0, 100%, 60%)" />
<rect x="20" y="32" width="4" height="4" fill="hsl(0, 100%, 60%)" />
<rect x="24" y="32" width="4" height="4" fill="hsl(0, 100%, 60%)" />
<rect x="28" y="32" width="4" height="4" fill="hsl(0, 100%, 60%)" />
<rect x="32" y="32" width="4" height="4" fill="hsl(0, 100%, 60%)" />
<rect x="36" y="32" width="4" height="4" fill="hsl(0, 100%, 60%)" />
<rect x="40" y="32" width="4" height="4" fill="hsl(0, 100%, 60%)" />
<rect x="44" y="32" width="4" height="4" fill="hsl(0, 100%, 60%)" />
<rect x="48" y="32" width="4" height="4" fill="hsl(0, 100%, 60%)" />
<rect x="52" y="32" width="4" height="4" fill="hsl(0, 100%, 60%)" />
<rect x="56" y="32" width="4" height="4" fill="hsl(0, 100%, 60%)" />
<rect x="60" y="32" width="4" height="4" fill="hsl(0, 100%, 60%)" />
<rect x="64" y="32" width="4" height="4" fill="hsl(0, 100%, 60%)" />
<rect x="68" y="32" width="4" height="4" fill="hsl(0, 100%, 60%)" />
<rect x="72" y="32" width="4" height="4" fill="hsl(0, 100%, 60%)" />
<rect x="76" y="32" width="4" height="4" fill="hsl(0, 100%, 60%)" />
<rect x="80" y="32" width="4" height="4" fill="hsl(0, 100%, 60%)" />
<rect x="84" y="32" width="4" height="4" fill="hsl(0, 100%, 60%)" />
<rect x="8" y="40" width="4" height="4" fill="hsl(0, 100%, 60%)" />
<rect x="12" y="40" width="4" height="4" fill="hsl(0, 100%, 60%)" />
<rect x="16" y="40" width="4" height="4" fill="hsl(0, 100%, 60%)" />
<rect x="20" y="40" width="4" height="4" fill="hsl(0, 100%, 60%)" />
<rect x="24" y="40" width="4" height="4" fill="hsl(0, 100%, 60%)" />
<rect x="28" y="40" width="4" height="4" fill="hsl(0, 100%, 60%)" />
<rect x="32" y="40" width="4" height="4" fill="hsl(0, 100%, 60%)" />
<rect x="36" y="40" width="4" height="4" fill="hsl(0, 100%, 60%)" />
<rect x="40" y="40" width="4" height="4" fill="hsl(0, 100%, 60%)" />
<rect x="44" y="40" width="4" height="4" fill="hsl(0, 100%, 60%)" />
<rect x="48" y="40" width="4" height="4" fill="hsl(0, 100%, 60%)" />
<rect x="52" y="40" width="4" height="4" fill="hsl(0, 100%, 60%)" />
<rect x="56" y="40" width="4" height="4" fill="hsl(0, 100%, 60%)" />
<rect x="60" y="40" width="4" height="4" fill="hsl(0, 100%, 60%)" />
<rect x="64" y="40" width="4" height="4" fill="hsl(0, 100%, 60%)" />
<rect x="68" y="40" width="4" height="4" fill="hsl(0, 100%, 60%)" />
<rect x="72" y="40" width="4" height="4" fill="hsl(0, 100%, 60%)" />
<rect x="76" y="40" width="4" height="4" fill="hsl(0, 100%, 60%)" />
<rect x="80" y="40" width="4" height="4" fill="hsl(0, 100%, 60%)" />
<rect x="84" y="40" width="4" height="4" fill="hsl(0, 100%, 60%)" />
<rect x="4" y="44" width="4" height="4" fill="hsl(0, 100%, 60%)" />
<rect x="88" y="44" width="4" height="4" fill="hsl(0, 100%, 60%)" />
<rect x="4" y="48" width="4" height="4" fill="hsl(0, 100%, 60%)" />
<rect x="8" y="48" width="4" height="4" fill="hsl(0, 100%, 60%)" />
<rect x="12" y="48" width="4" height="4" fill="hsl(0, 100%, 60%)" />
<rect x="16" y="48" width="4" height="4" fill="hsl(0, 100%, 60%)" />
<rect x="20" y="48" width="4" height="4" fill="hsl(0, 100%, 60%)" />
<rect x="24" y="48" width="4" height="4" fill="hsl(0, 100%, 60%)" />
<rect x="28" y="48" width="4" height="4" fill="hsl(0, 100%, 60%)" />
<rect x="32" y="48" width="4" height="4" fill="hsl(0, 100%, 60%)" />
<rect x="36" y="48" width="4" height="4" fill="hsl(0, 100%, 60%)" />
<rect x="40" y="48" width="4" height="4" fill="hsl(0, 100%, 60%)" />
<rect x="44" y="48" width="4" height="4" fill="hsl(0, 100%, 60%)" />
<rect x="48" y="48" width="4" height="4" fill="hsl(0, 100%, 60%)" />
<rect x="52" y="48" width="4" height="4" fill="hsl(0, 100%, 60%)" />
<rect x="56" y="48" width="4" height="4" fill="hsl(0, 100%, 60%)" />
<rect x="60" y="48" width="4" height="4" fill="hsl(0, 100%, 60%)" />
<rect x="64" y="48" width="4" height="4" fill="hsl(0, 100%, 60%)" />
<rect x="68" y="48" width="4" height="4" fill="hsl(0, 100%, 60%)" />
<rect x="72" y="48" width="4" height="4" fill="hsl(0, 100%, 60%)" />
<rect x="76" y="48" width="4" height="4" fill="hsl(0, 100%, 60%)" />
<rect x="80" y="48" width="4" height="4" fill="hsl(0, 100%, 60%)" />
<rect x="84" y="48" width="4" height="4" fill="hsl(0, 100%, 60%)" />
<rect x="88" y="48" width="4" height="4" fill="hsl(0, 100%, 60%)" />
<rect x="4" y="56" width="4" height="4" fill="hsl(0, 100%, 60%)" />
<rect x="8" y="56" width="4" height="4" fill="hsl(0, 100%, 60%)" />
<rect x="12" y="56" width="4" height="4" fill="hsl(0, 100%, 60%)" />
<rect x="16" y="56" width="4" height="4" fill="hsl(0, 100%, 60%)" />
<rect x="20" y="56" width="4" height="4" fill="hsl(0, 100%, 60%)" />
<rect x="24" y="56" width="4" height="4" fill="hsl(0, 100%, 60%)" />
<rect x="28" y="56" width="4" height="4" fill="hsl(0, 100%, 60%)" />
<rect x="32" y="56" width="4" height="4" fill="hsl(0, 100%, 60%)" />
<rect x="36" y="56" width="4" height="4" fill="hsl(0, 100%, 60%)" />
<rect x="40" y="56" width="4" height="4" fill="hsl(0, 100%, 60%)" />
<rect x="44" y="56" width="4" height="4" fill="hsl(0, 100%, 60%)" />
<rect x="48" y="56" width="4" height="4" fill="hsl(0, 100%, 60%)" />
<rect x="52" y="56" width="4" height="4" fill="hsl(0, 100%, 60%)" />
<rect x="56" y="56" width="4" height="4" fill="hsl(0, 100%, 60%)" />
<rect x="60" y="56" width="4" height="4" fill="hsl(0, 100%, 60%)" />
<rect x="64" y="56" width="4" height="4" fill="hsl(0, 100%, 60%)" />
<rect x="68" y="56" width="4" height="4" fill="hsl(0, 100%, 60%)" />
<rect x="72" y="56" width="4" height="4" fill="hsl(0, 100%, 60%)" />
<rect x="76" y="56" width="4" height="4" fill="hsl(0, 100%, 60%)" />
<rect x="80" y="56" width="4" height="4" fill="hsl(0, 100%, 60%)" />
<rect x="84" y="56" width="4" height="4" fill="hsl(0, 100%, 60%)" />
<rect x="88" y="56" width="4" height="4" fill="hsl(0, 100%, 60%)" />
<rect x="4" y="60" width="4" height="4" fill="hsl(0, 100%, 60%)" />
<rect x="88" y="60" width="4" height="4" fill="hsl(0, 100%, 60%)" />
<rect x="8" y="64" width="4" height="4" fill="hsl(0, 100%, 60%)" />
<rect x="12" y="64" width="4" height="4" fill="hsl(0, 100%, 60%)" />
<rect x="16" y="64" width="4" height="4" fill="hsl(0, 100%, 60%)" />
<rect x="20" y="64" width="4" height="4" fill="hsl(0, 100%, 60%)" />
<rect x="24" y="64" width="4" height="4" fill="hsl(0, 100%, 60%)" />
<rect x="28" y="64" width="4" height="4" fill="hsl(0, 100%, 60%)" />
<rect x="32" y="64" width="4" height="4" fill="hsl(0, 100%, 60%)" />
<rect x="36" y="64" width="4" height="4" fill="hsl(0, 100%, 60%)" />
<rect x="40" y="64" width="4" height="4" fill="hsl(0, 100%, 60%)" />
<rect x="44" y="64" width="4" height="4" fill="hsl(0, 100%, 60%)" />
<rect x="48" y="64" width="4" height="4" fill="hsl(0, 100%, 60%)" />
<rect x="52" y="64" width="4" height="4" fill="hsl(0, 100%, 60%)" />
<rect x="56" y="64" width="4" height="4" fill="hsl(0, 100%, 60%)" />
<rect x="60" y="64" width="4" height="4" fill="hsl(0, 100%, 60%)" />
<rect x="64" y="64" width="4" height="4" fill="hsl(0, 100%, 60%)" />
<rect x="68" y="64" width="4" height="4" fill="hsl(0, 100%, 60%)" />
<rect x="72" y="64" width="4" height="4" fill="hsl(0, 100%, 60%)" />
<rect x="76" y="64" width="4" height="4" fill="hsl(0, 100%, 60%)" />
<rect x="80" y="64" width="4" height="4" fill="hsl(0, 100%, 60%)" />
<rect x="84" y="64" width="4" height="4" fill="hsl(0, 100%, 60%)" />
<rect x="8" y="72" width="4" height="4" fill="hsl(0, 100%, 60%)" />
<rect x="12" y="72" width="4" height="4" fill="hsl(0, 100%, 60%)" />
<rect x="16" y="72" width="4" height="4" fill="hsl(0, 100%, 60%)" />
<rect x="20" y="72" width="4" height="4" fill="hsl(0, 100%, 60%)" />
<rect x="24" y="72" width="4" height="4" fill="hsl(0, 100%, 60%)" />
<rect x="28" y="72" width="4" height="4" fill="hsl(0, 100%, 60%)" />
<rect x="32" y="72" width="4" height="4" fill="hsl(0, 100%, 60%)" />
<rect x="36" y="72" width="4" height="4" fill="hsl(0, 100%, 60%)" />
<rect x="40" y="72" width="4" height="4" fill="hsl(0, 100%, 60%)" />
<rect x="44" y="72" width="4" height="4" fill="hsl(0, 100%, 60%)" />
<rect x="48" y="72" width="4" height="4" fill="hsl(0, 100%, 60%)" />
<rect x="52" y="72" width="4" height="4" fill="hsl(0, 100%, 60%)" />
<rect x="56" y="72" width="4" height="4" fill="hsl(0, 100%, 60%)" />
<rect x="60" y="72" width="4" height="4" fill="hsl(0, 100%, 60%)" />
<rect x="64" y="72" width="4" height="4" fill="hsl(0, 100%, 60%)" />
<rect x="68" y="72" width="4" height="4" fill="hsl(0, 100%, 60%)" />
<rect x="72" y="72" width="4" height="4" fill="hsl(0, 100%, 60%)" />
<rect x="76" y="72" width="4" height="4" fill="hsl(0, 100%, 60%)" />
<rect x="80" y="72" width="4" height="4" fill="hsl(0, 100%, 60%)" />
<rect x="84" y="72" width="4" height="4" fill="hsl(0, 100%, 60%)" />
<rect x="4" y="76" width="4" height="4" fill="hsl(0, 100%, 60%)" />
<rect x="88" y="76" width="4" height="4" fill="hsl(0, 100%, 60%)" />
<rect x="4" y="80" width="4" height="4" fill="hsl(0, 100%, 60%)" />
<rect x="8" y="80" width="4" height="4" fill="hsl(0, 100%, 60%)" />
<rect x="12" y="80" width="4" height="4" fill="hsl(0, 100%, 60%)" />
<rect x="16" y="80" width="4" height="4" fill="hsl(0, 100%, 60%)" />
<rect x="20" y="80" width="4" height="4" fill="hsl(0, 100%, 60%)" />
<rect x="24" y="80" width="4" height="4" fill="hsl(0, 100%, 60%)" />
<rect x="28" y="80" width="4" height="4" fill="hsl(0, 100%, 60%)" />
<rect x="32" y="80" width="4" height="4" fill="hsl(0, 100%, 60%)" />
<rect x="36" y="80" width="4" height="4" fill="hsl(0, 100%, 60%)" />
<rect x="40" y="80" width="4" height="4" fill="hsl(0, 100%, 60%)" />
<rect x="44" y="80" width="4" height="4" fill="hsl(0, 100%, 60%)" />
<rect x="48" y="80" width="4" height="4" fill="hsl(0, 100%, 60%)" />
<rect x="52" y="80" width="4" height="4" fill="hsl(0, 100%, 60%)" />
<rect x="56" y="80" width="4" height="4" fill="hsl(0, 100%, 60%)" />
<rect x="60" y="80" width="4" height="4" fill="hsl(0, 100%, 60%)" />
<rect x="64" y="80" width="4" height="4" fill="hsl(0, 100%, 60%)" />
<rect x="68" y="80" width="4" height="4" fill="hsl(0, 100%, 60%)" />
<rect x="72" y="80" width="4" height="4" fill="hsl(0, 100%, 60%)" />
<rect x="76" y="80" width="4" height="4" fill="hsl(0, 100%, 60%)" />
<rect x="80" y="80" width="4" height="4" fill="hsl(0, 100%, 60%)" />
<rect x="84" y="80" width="4" height="4" fill="hsl(0, 100%, 60%)" />
<rect x="88" y="80" width="4" height="4" fill="hsl(0, 100%, 60%)" />
<rect x="4" y="88" width="4" height="4" fill="hsl(0, 100%, 60%)" />
<rect x="8" y="88" width="4" height="4" fill="hsl(0, 100%, 60%)" />
<rect x="12" y="88" width="4" height="4" fill="hsl(0, 100%, 60%)" />
<rect x="16" y="88" width="4" height="4" fill="hsl(0, 100%, 60%)" />
<rect x="20" y="88" width="4" height="4" fill="hsl(0, 100%, 60%)" />
<rect x="24" y="88" width="4" height="4" fill="hsl(0, 100%, 60%)" />
<rect x="28" y="88" width="4" height="4" fill="hsl(0, 100%, 60%)" />
<rect x="32" y="88" width="4" height="4" fill="hsl(0, 100%, 60%)" />
<rect x="36" y="88" width="4" height="4" fill="hsl(0, 100%, 60%)" />
<rect x="40" y="88" width="4" height="4" fill="hsl(0, 100%, 60%)" />
<rect x="44" y="88" width="4" height="4" fill="hsl(0, 100%, 60%)" />
<rect x="48" y="88" width="4" height="4" fill="hsl(0, 100%, 60%)" />
<rect x="52" y="88" width="4" height="4" fill="hsl(0, 100%, 60%)" />
<rect x="56" y="88" width="4" height="4" fill="hsl(0, 100%, 60%)" />
<rect x="60" y="88" width="4" height="4" fill="hsl(0, 100%, 60%)" />
<rect x="64" y="88" width="4" height="4" fill="hsl(0, 100%, 60%)" />
<rect x="68" y="88" width="4" height="4" fill="hsl(0, 100%, 60%)" />
<rect x="72" y="88" width="4" height="4" fill="hsl(0, 100%, 60%)" />
<rect x="76" y="88" width="4" height="4" fill="hsl(0, 100%, 60%)" />
<rect x="80" y="88" width="4" height="4" fill="hsl(0, 100%, 60%)" />
<rect x="84" y="88" width="4" height="4" fill="hsl(0, 100%, 60%)" />
<rect x="88" y="88" width="4" height="4" fill="hsl(0, 100%, 60%)" />
<rect x="4" y="92" width="4" height="4" fill="hsl(0, 100%, 60%)" />
<rect x="88" y="92" width="4" height="4" fill="hsl(0, 100%, 60%)" />
<rect x="8" y="96" width="4" height="4" fill="hsl(0, 100%, 60%)" />
<rect x="12" y="96" width="4" height="4" fill="hsl(0, 100%, 60%)" />
<rect x="16" y="96" width="4" height="4" fill="hsl(0, 100%, 60%)" />
<rect x="20" y="96" width="4" height="4" fill="hsl(0, 100%, 60%)" />
<rect x="24" y="96" width="4" height="4" fill="hsl(0, 100%, 60%)" />
<rect x="28" y="96" width="4" height="4" fill="hsl(0, 100%, 60%)" />
<rect x="32" y="96" width="4" height="4" fill="hsl(0, 100%, 60%)" />
<rect x="36" y="96" width="4" height="4" fill="hsl(0, 100%, 60%)" />
<rect x="40" y="96" width="4" height="4" fill="hsl(0, 100%, 60%)" />
<rect x="44" y="96" width="4" height="4" fill="hsl(0, 100%, 60%)" />
<rect x="48" y="96" width="4" height="4" fill="hsl(0, 100%, 60%)" />
<rect x="52" y="96" width="4" height="4" fill="hsl(0, 100%, 60%)" />
<rect x="56" y="96" width="4" height="4" fill="hsl(0, 100%, 60%)" />
<rect x="60" y="96" width="4" height="4" fill="hsl(0, 100%, 60%)" />
<rect x="64" y="96" width="4" height="4" fill="hsl(0, 100%, 60%)" />
<rect x="68" y="96" width="4" height="4" fill="hsl(0, 100%, 60%)" />
<rect x="72" y="96" width="4" height="4" fill="hsl(0, 100%, 60%)" />
<rect x="76" y="96" width="4" height="4" fill="hsl(0, 100%, 60%)" />
<rect x="80" y="96" width="4" height="4" fill="hsl(0, 100%, 60%)" />
<rect x="84" y="96" width="4" height="4" fill="hsl(0, 100%, 60%)" />
<rect x="16" y="100" width="4" height="4" fill="hsl(0, 100%, 60%)" />
<rect x="28" y="100" width="4" height="4" fill="hsl(0, 100%, 60%)" />
<rect x="40" y="100" width="4" height="4" fill="hsl(0, 100%, 60%)" />
<rect x="52" y="100" width="4" height="4" fill="hsl(0, 100%, 60%)" />
<rect x="64" y="100" width="4" height="4" fill="hsl(0, 100%, 60%)" />
<rect x="76" y="100" width="4" height="4" fill="hsl(0, 100%, 60%)" />
</svg>