<?xml version="1.0" encoding="utf-8"?>
<svg xmlns="http://www.w3.org/2000/svg" width="124" height="126" viewBox="0 0 124 126">
<rect width="100%" height="100%" fill="transparent" />
<rect x="116" y="4" width="2" height="2" fill="hsl(0, 100%, 60%)" />
<rect x="114" y="6" width="2" height="2" fill="hsl(0, 100%, 60%)" />
<rect x="114" y="8" width="2" height="2" fill="hsl(0, 100%, 60%)" />
<rect x="116" y="8" width="2" height="2" fill="hsl(0, 100%, 60%)" />
<rect x="118" y="8" width="2" height="2" fill="hsl(0, 100%, 60%)" />
<rect x="28" y="34" width="2" height="2" fill="hsl(0, 100%, 60%)" />
<rect x="28" y="36" width="2" height="2" fill="hsl(0, 100%, 60%)" />
<rect x="30" y="36" width="2" height="2" fill="hsl(0, 100%, 60%)" />
<rect x="32" y="36" width="2" height="2" fill="hsl(0, 100%, 60%)" />
<rect x="34" y="38" width="2" height="2" fill="hsl(0, 100%, 60%)" />
<rect x="32" y="40" width="2" height="2" fill="hsl(0, 100%, 60%)" />
<rect x="34" y="40" width="2" height="2" fill="hsl(0, 100%, 60%)" />
<rect x="20" y="42" width="2" height="2" fill="hsl(0, 100%, 60%)" />
<rect x="18" y="44" width="2" height="2" fill="hsl(0, 100%, 60%)" />
<rect x="22" y="44" width="2" height="2" fill="hsl(0, 100%, 60%)" />
<rect x="38" y="44" width="2" height="2" fill="hsl(0, 100%, 60%)" />
<rect x="40" y="44" width="2" height="2" fill="hsl(0, 100%, 60%)" />
<rect x="18" y="46" width="2" height="2" fill="hsl(0, 100%, 60%)" />
<rect x="22" y="46" width="2" height="2" fill="hsl(0, 100%, 60%)" />
<rect x="36" y="46" width="2" height="2" fill="hsl(0, 100%, 60%)" />
<rect x="40" y="46" width="2" height="2" fill="hsl(0, 100%, 60%)" />
<rect x="14" y="48" width="2" height="2" fill="hsl(0, 100%, 60%)" />
<rect x="16" y="48" width="2" height="2" fill="hsl(0, 100%, 60%)" />
<rect x="18" y="48" width="2" height="2" fill="hsl(0, 100%, 60%)" />
<rect x="22" y="48" width="2" height="2" fill="hsl(0, 100%, 60%)" />
<rect x="24" y="48" width="2" height="2" fill="hsl(0, 100%, 60%)" />
<rect x="36" y="48" width="2" height="2" fill="hsl(0, 100%, 60%)" />
<rect x="38" y="48" width="2" height="2" fill="hsl(0, 100%, 60%)" />
<rect x="12" y="50" width="2" height="2" fill="hsl(0, 100%, 60%)" />
<rect x="14" y="52" width="2" height="2" fill="hsl(0, 100%, 60%)" />
<rect x="16" y="52" width="2" height="2" fill="hsl(0, 100%, 60%)" />
<rect x="18" y="52" width="2" height="2" fill="hsl(0, 100%, 60%)" />
<rect x="22" y="52" width="2" height="2" fill="hsl(0, 100%, 60%)" />
<rect x="24" y="52" width="2" height="2" fill="hsl(0, 100%, 60%)" />
<rect x="18" y="54" width="2" height="2" fill="hsl(0, 100%, 60%)" />
<rect x="22" y="54" width="2" height="2" fill="hsl(0, 100%, 60%)" />
<rect x="24" y="54" width="2" height="2" fill="hsl(0, 100%, 60%)" />
<rect x="4" y="62" width="2" height="2" fill="hsl(0, 100%, 60%)" />
<rect x="6" y="62" width="2" height="2" fill="hsl(0, 100%, 60%)" />
<rect x="6" y="64" width="2" height="2" fill="hsl(0, 100%, 60%)" />
<rect x="6" y="66" width="2" height="2" fill="hsl(0, 100%, 60%)" />
<rect x="10" y="66" width="2" height="2" fill="hsl(0, 100%, 60%)" />
<rect x="8" y="68" width="2" height="2" fill="hsl(0, 100%, 60%)" />
<rect x="10" y="68" width="2" height="2" fill="hsl(0, 100%, 60%)" />
<rect x="44" y="72" width="2" height="2" fill="hsl(0, 100%, 60%)" />
<rect x="42" y="74" width="2" height="2" fill="hsl(0, 100%, 60%)" />
<rect x="46" y="74" width="2" height="2" fill="hsl(0, 100%, 60%)" />
<rect x="42" y="76" width="2" height="2" fill="hsl(0, 100%, 60%)" />
<rect x="114" y="76" width="2" height="2" fill="hsl(0, 100%, 60%)" />
<rect x="44" y="78" width="2" height="2" fill="hsl(0, 100%, 60%)" />
<rect x="110" y="78" width="2" height="2" fill="hsl(0, 100%, 60%)" />
<rect x="112" y="78" width="2" height="2" fill="hsl(0, 100%, 60%)" />
<rect x="114" y="78" width="2" height="2" fill="hsl(0, 100%, 60%)" />
<rect x="76" y="80" width="2" height="2" fill="hsl(0, 100%, 60%)" />
<rect x="78" y="80" width="2" height="2" fill="hsl(0, 100%, 60%)" />
<rect x="110" y="80" width="2" height="2" fill="hsl(0, 100%, 60%)" />
<rect x="8" y="82" width="2" height="2" fill="hsl(0, 100%, 60%)" />
<rect x="76" y="82" width="2" height="2" fill="hsl(0, 100%, 60%)" />
<rect x="78" y="82" width="2" height="2" fill="hsl(0, 100%, 60%)" />
<rect x="110" y="82" width="2" height="2" fill="hsl(0, 100%, 60%)" />
<rect x="8" y="84" width="2" height="2" fill="hsl(0, 100%, 60%)" />
<rect x="12" y="84" width="2" height="2" fill="hsl(0, 100%, 60%)" />
<rect x="8" y="86" width="2" height="2" fill="hsl(0, 100%, 60%)" />
<rect x="10" y="86" width="2" height="2" fill="hsl(0, 100%, 60%)" />
<rect x="12" y="86" width="2" height="2" fill="hsl(0, 100%, 60%)" />
<rect x="12" y="88" width="2" height="2" fill="hsl(0, 100%, 60%)" />
<rect x="54" y="88" width="2" height="2" fill="hsl(0, 100%, 60%)" />
<rect x="52" y="90" width="2" height="2" fill="hsl(0, 100%, 60%)" />
<rect x="56" y="90" width="2" height="2" fill="hsl(0, 100%, 60%)" />
<rect x="52" y="92" width="2" height="2" fill="hsl(0, 100%, 60%)" />
<rect x="54" y="92" width="2" height="2" fill="hsl(0, 100%, 60%)" />
<rect x="42" y="94" width="2" height="2" fill="hsl(0, 100%, 60%)" />
<rect x="44" y="94" width="2" height="2" fill="hsl(0, 100%, 60%)" />
<rect x="70" y="94" width="2" height="2" fill="hsl(0, 100%, 60%)" />
<rect x="72" y="94" width="2" height="2" fill="hsl(0, 100%, 60%)" />
<rect x="42" y="96" width="2" height="2" fill="hsl(0, 100%, 60%)" />
<rect x="44" y="96" width="2" height="2" fill="hsl(0, 100%, 60%)" />
<rect x="70" y="96" width="2" height="2" fill="hsl(0, 100%, 60%)" />
<rect x="72" y="98" width="2" height="2" fill="hsl(0, 100%, 60%)" />
<rect x="70" y="100" width="2" height="2" fill="hsl(0, 100%, 60%)" />
<rect x="72" y="100" width="2" height="2" fill="hsl(0, 100%, 60%)" />
<rect x="8" y="114" width="2" height="2" fill="hsl(0, 100%, 60%)" />
<rect x="10" y="114" width="2" height="2" fill="hsl(0, 100%, 60%)" />
<rect x="32" y="114" width="2" height="2" fill="hsl(0, 100%, 60%)" />
<rect x="34" y="114" width="2" height="2" fill="hsl(0, 100%, 60%)" />
<rect x="10" y="116" width="2" height="2" fill="hsl(0, 100%, 60%)" />
<rect x="32" y="116" width="2" height="2" fill="hsl(0, 100%, 60%)" />
<rect x="4" y="118" width="2" height="2" fill="hsl(0, 100%, 60%)" />
<rect x="6" y="118" width="2" height="2" fill="hsl(0, 100%, 60%)" />
<rect x="8" y="118" width="2" height="2" fill="hsl(0, 100%, 60%)" />
<rect x="34" y="118" width="2" height="2" fill="hsl(0, 100%, 60%)" />
<rect x="36" y="118" width="2" height="2" fill="hsl(0, 100%, 60%)" />
<rect x="38" y="118" width="2" height="2" fill="hsl(0, 100%, 60%)" />
<rect x="4" y="120" width="2" height="2" fill="hsl(0, 100%, 60%)" />
<rect x="38" y="120" width="2" height="2" fill="hsl(0, 100%, 60%)" />
</svg>