<?xml version="1.0" encoding="utf-8"?>
<svg xmlns="http://www.w3.org/2000/svg" width="118" height="128" viewBox="0 0 118 128">
<rect width="100%" height="100%" fill="transparent" />
<rect x="54" y="4" width="10" height="10" fill="hsl(0, 100%, 60%)" />
<rect x="44" y="14" width="10" height="10" fill="hsl(0, 100%, 60%)" />
<rect x="64" y="14" width="10" height="10" fill="hsl(0, 100%, 60%)" />
<rect x="44" y="24" width="10" height="10" fill="hsl(0, 100%, 60%)" />
<rect x="54" y="24" width="10" height="10" fill="hsl(0, 100%, 60%)" />
<rect x="24" y="34" width="10" height="10" fill="hsl(0, 100%, 60%)" />
<rect x="34" y="34" width="10" height="10" fill="hsl(0, 100%, 60%)" />
<rect x="14" y="44" width="10" height="10" fill="hsl(0, 100%, 60%)" />
<rect x="54" y="44" width="10" height="10" fill="hsl(0, 100%, 60%)" />
<rect x="64" y="44" width="10" height="10" fill="hsl(0, 100%, 60%)" />
<rect x="74" y="44" width="10" height="10" fill="hsl(0, 100%, 60%)" />
<rect x="4" y="54" width="10" height="10" fill="hsl(0, 100%, 60%)" />
<rect x="34" y="54" width="10" height="10" fill="hsl(0, 100%, 60%)" />
<rect x="44" y="54" width="10" height="10" fill="hsl(0, 100%, 60%)" />
<rect x="84" y="54" width="10" height="10" fill="hsl(0, 100%, 60%)" />
<rect x="104" y="54" width="10" height="10" fill="hsl(0, 100%, 60%)" />
<rect x="14" y="64" width="10" height="10" fill="hsl(0, 100%, 60%)" />
<rect x="24" y="64" width="10" height="10" fill="hsl(0, 100%, 60%)" />
<rect x="74" y="64" width="10" height="10" fill="hsl(0, 100%, 60%)" />
<rect x="94" y="64" width="10" height="10" fill="hsl(0, 100%, 60%)" />
<rect x="104" y="64" width="10" height="10" fill="hsl(0, 100%, 60%)" />
<rect x="34" y="74" width="10" height="10" fill="hsl(0, 100%, 60%)" />
<rect x="54" y="74" width="10" height="10" fill="hsl(0, 100%, 60%)" />
<rect x="74" y="74" width="10" height="10" fill="hsl(0, 100%, 60%)" />
<rect x="34" y="84" width="10" height="10" fill="hsl(0, 100%, 60%)" />
<rect x="74" y="84" width="10" height="10" fill="hsl(0, 100%, 60%)" />
<rect x="44" y="94" width="10" height="10" fill="hsl(0, 100%, 60%)" />
<rect x="54" y="94" width="10" height="10" fill="hsl(0, 100%, 60%)" />
<rect x="64" y="94" width="10" height="10" fill="hsl(0, 100%, 60%)" />
<rect x="64" y="104" width="10" height="10" fill="hsl(0, 100%, 60%)" />
<rect x="84" y="104" width="10" height="10" fill="hsl(0, 100%, 60%)" />
<rect x="74" y="114" width="10" height="10" fill="hsl(0, 100%, 60%)" />
<rect x="84" y="114" width="10" height="10" fill="hsl(0, 100%, 60%)" />
</svg>