<?xml version="1.0" encoding="utf-8"?>
<svg xmlns="http://www.w3.org/2000/svg" width="125" height="14" viewBox="0 0 125 14">
<rect width="100%" height="100%" fill="transparent" />
<rect x="4" y="4" width="3" height="3" fill="hsl(0, 100%, 60%)" />
<rect x="7" y="4" width="3" height="3" fill="hsl(0, 100%, 60%)" />
<rect x="28" y="4" width="3" height="3" fill="hsl(0, 100%, 60%)" />
<rect x="31" y="4" width="3" height="3" fill="hsl(0, 100%, 60%)" />
<rect x="34" y="4" width="3" height="3" fill="hsl(0, 100%, 60%)" />
<rect x="55" y="4" width="3" height="3" fill="hsl(0, 100%, 60%)" />
<rect x="58" y="4" width="3" height="3" fill="hsl(0, 100%, 60%)" />
<rect x="61" y="4" width="3" height="3" fill="hsl(0, 100%, 60%)" />
<rect x="64" y="4" width="3" height="3" fill="hsl(0, 100%, 60%)" />
<rect x="85" y="4" width="3" height="3" fill="hsl(0, 100%, 60%)" />
<rect x="88" y="4" width="3" height="3" fill="hsl(0, 100%, 60%)" />
<rect x="91" y="4" width="3" height="3" fill="hsl(0, 100%, 60%)" />
<rect x="112" y="4" width="3" height="3" fill="hsl(0, 100%, 60%)" />
<rect x="115" y="4" width="3" height="3" fill="hsl(0, 100%, 60%)" />
<rect x="4" y="7" width="3" height="3" fill="hsl(0, 100%, 60%)" />
<rect x="7" y="7" width="3" height="3" fill="hsl(0, 100%, 60%)" />
<rect x="31" y="7" width="3" height="3" fill="hsl(0, 100%, 60%)" />
<rect x="91" y="7" width="3" height="3" fill="hsl(0, 100%, 60%)" />
<rect x="115" y="7" width="3" height="3" fill="hsl(0, 100%, 60%)" />
<rect x="118" y="7" width="3" height="3" fill="hsl(0, 100%, 60%)" />
</svg>