<?xml version="1.0" encoding="utf-8"?>
<svg xmlns="http://www.w3.org/2000/svg" width="118" height="82" viewBox="0 0 118 82">
<rect width="100%" height="100%" fill="transparent" />
<rect x="26" y="4" width="2" height="2" fill="hsl(0, 100%, 60%)" />
<rect x="28" y="4" width="2" height="2" fill="hsl(0, 100%, 60%)" />
<rect x="102" y="4" width="2" height="2" fill="hsl(0, 100%, 60%)" />
<rect x="104" y="4" width="2" height="2" fill="hsl(0, 100%, 60%)" />
<rect x="16" y="6" width="2" height="2" fill="hsl(0, 100%, 60%)" />
<rect x="18" y="6" width="2" height="2" fill="hsl(0, 100%, 60%)" />
<rect x="24" y="6" width="2" height="2" fill="hsl(0, 100%, 60%)" />
<rect x="28" y="6" width="2" height="2" fill="hsl(0, 100%, 60%)" />
<rect x="92" y="6" width="2" height="2" fill="hsl(0, 100%, 60%)" />
<rect x="94" y="6" width="2" height="2" fill="hsl(0, 100%, 60%)" />
<rect x="100" y="6" width="2" height="2" fill="hsl(0, 100%, 60%)" />
<rect x="104" y="6" width="2" height="2" fill="hsl(0, 100%, 60%)" />
<rect x="16" y="8" width="2" height="2" fill="hsl(0, 100%, 60%)" />
<rect x="24" y="8" width="2" height="2" fill="hsl(0, 100%, 60%)" />
<rect x="34" y="8" width="2" height="2" fill="hsl(0, 100%, 60%)" />
<rect x="92" y="8" width="2" height="2" fill="hsl(0, 100%, 60%)" />
<rect x="100" y="8" width="2" height="2" fill="hsl(0, 100%, 60%)" />
<rect x="110" y="8" width="2" height="2" fill="hsl(0, 100%, 60%)" />
<rect x="18" y="10" width="2" height="2" fill="hsl(0, 100%, 60%)" />
<rect x="20" y="10" width="2" height="2" fill="hsl(0, 100%, 60%)" />
<rect x="22" y="10" width="2" height="2" fill="hsl(0, 100%, 60%)" />
<rect x="26" y="10" width="2" height="2" fill="hsl(0, 100%, 60%)" />
<rect x="28" y="10" width="2" height="2" fill="hsl(0, 100%, 60%)" />
<rect x="30" y="10" width="2" height="2" fill="hsl(0, 100%, 60%)" />
<rect x="32" y="10" width="2" height="2" fill="hsl(0, 100%, 60%)" />
<rect x="34" y="10" width="2" height="2" fill="hsl(0, 100%, 60%)" />
<rect x="94" y="10" width="2" height="2" fill="hsl(0, 100%, 60%)" />
<rect x="96" y="10" width="2" height="2" fill="hsl(0, 100%, 60%)" />
<rect x="98" y="10" width="2" height="2" fill="hsl(0, 100%, 60%)" />
<rect x="102" y="10" width="2" height="2" fill="hsl(0, 100%, 60%)" />
<rect x="104" y="10" width="2" height="2" fill="hsl(0, 100%, 60%)" />
<rect x="106" y="10" width="2" height="2" fill="hsl(0, 100%, 60%)" />
<rect x="108" y="10" width="2" height="2" fill="hsl(0, 100%, 60%)" />
<rect x="110" y="10" width="2" height="2" fill="hsl(0, 100%, 60%)" />
<rect x="22" y="12" width="2" height="2" fill="hsl(0, 100%, 60%)" />
<rect x="26" y="12" width="2" height="2" fill="hsl(0, 100%, 60%)" />
<rect x="98" y="12" width="2" height="2" fill="hsl(0, 100%, 60%)" />
<rect x="102" y="12" width="2" height="2" fill="hsl(0, 100%, 60%)" />
<rect x="22" y="14" width="2" height="2" fill="hsl(0, 100%, 60%)" />
<rect x="26" y="14" width="2" height="2" fill="hsl(0, 100%, 60%)" />
<rect x="30" y="14" width="2" height="2" fill="hsl(0, 100%, 60%)" />
<rect x="32" y="14" width="2" height="2" fill="hsl(0, 100%, 60%)" />
<rect x="34" y="14" width="2" height="2" fill="hsl(0, 100%, 60%)" />
<rect x="98" y="14" width="2" height="2" fill="hsl(0, 100%, 60%)" />
<rect x="102" y="14" width="2" height="2" fill="hsl(0, 100%, 60%)" />
<rect x="106" y="14" width="2" height="2" fill="hsl(0, 100%, 60%)" />
<rect x="108" y="14" width="2" height="2" fill="hsl(0, 100%, 60%)" />
<rect x="110" y="14" width="2" height="2" fill="hsl(0, 100%, 60%)" />
<rect x="24" y="16" width="2" height="2" fill="hsl(0, 100%, 60%)" />
<rect x="26" y="16" width="2" height="2" fill="hsl(0, 100%, 60%)" />
<rect x="30" y="16" width="2" height="2" fill="hsl(0, 100%, 60%)" />
<rect x="36" y="16" width="2" height="2" fill="hsl(0, 100%, 60%)" />
<rect x="100" y="16" width="2" height="2" fill="hsl(0, 100%, 60%)" />
<rect x="102" y="16" width="2" height="2" fill="hsl(0, 100%, 60%)" />
<rect x="106" y="16" width="2" height="2" fill="hsl(0, 100%, 60%)" />
<rect x="112" y="16" width="2" height="2" fill="hsl(0, 100%, 60%)" />
<rect x="34" y="18" width="2" height="2" fill="hsl(0, 100%, 60%)" />
<rect x="36" y="18" width="2" height="2" fill="hsl(0, 100%, 60%)" />
<rect x="110" y="18" width="2" height="2" fill="hsl(0, 100%, 60%)" />
<rect x="112" y="18" width="2" height="2" fill="hsl(0, 100%, 60%)" />
<rect x="94" y="24" width="2" height="2" fill="hsl(0, 100%, 60%)" />
<rect x="96" y="24" width="2" height="2" fill="hsl(0, 100%, 60%)" />
<rect x="94" y="26" width="2" height="2" fill="hsl(0, 100%, 60%)" />
<rect x="96" y="26" width="2" height="2" fill="hsl(0, 100%, 60%)" />
<rect x="4" y="34" width="2" height="2" fill="hsl(0, 100%, 60%)" />
<rect x="6" y="34" width="2" height="2" fill="hsl(0, 100%, 60%)" />
<rect x="80" y="34" width="2" height="2" fill="hsl(0, 100%, 60%)" />
<rect x="82" y="34" width="2" height="2" fill="hsl(0, 100%, 60%)" />
<rect x="4" y="36" width="2" height="2" fill="hsl(0, 100%, 60%)" />
<rect x="6" y="36" width="2" height="2" fill="hsl(0, 100%, 60%)" />
<rect x="80" y="36" width="2" height="2" fill="hsl(0, 100%, 60%)" />
<rect x="82" y="36" width="2" height="2" fill="hsl(0, 100%, 60%)" />
<rect x="22" y="66" width="2" height="2" fill="hsl(0, 100%, 60%)" />
<rect x="24" y="66" width="2" height="2" fill="hsl(0, 100%, 60%)" />
<rect x="98" y="66" width="2" height="2" fill="hsl(0, 100%, 60%)" />
<rect x="100" y="66" width="2" height="2" fill="hsl(0, 100%, 60%)" />
<rect x="22" y="68" width="2" height="2" fill="hsl(0, 100%, 60%)" />
<rect x="24" y="68" width="2" height="2" fill="hsl(0, 100%, 60%)" />
<rect x="98" y="68" width="2" height="2" fill="hsl(0, 100%, 60%)" />
<rect x="100" y="68" width="2" height="2" fill="hsl(0, 100%, 60%)" />
<rect x="4" y="72" width="2" height="2" fill="hsl(0, 100%, 60%)" />
<rect x="6" y="72" width="2" height="2" fill="hsl(0, 100%, 60%)" />
<rect x="10" y="72" width="2" height="2" fill="hsl(0, 100%, 60%)" />
<rect x="26" y="72" width="2" height="2" fill="hsl(0, 100%, 60%)" />
<rect x="80" y="72" width="2" height="2" fill="hsl(0, 100%, 60%)" />
<rect x="82" y="72" width="2" height="2" fill="hsl(0, 100%, 60%)" />
<rect x="86" y="72" width="2" height="2" fill="hsl(0, 100%, 60%)" />
<rect x="102" y="72" width="2" height="2" fill="hsl(0, 100%, 60%)" />
<rect x="4" y="74" width="2" height="2" fill="hsl(0, 100%, 60%)" />
<rect x="8" y="74" width="2" height="2" fill="hsl(0, 100%, 60%)" />
<rect x="10" y="74" width="2" height="2" fill="hsl(0, 100%, 60%)" />
<rect x="24" y="74" width="2" height="2" fill="hsl(0, 100%, 60%)" />
<rect x="26" y="74" width="2" height="2" fill="hsl(0, 100%, 60%)" />
<rect x="28" y="74" width="2" height="2" fill="hsl(0, 100%, 60%)" />
<rect x="80" y="74" width="2" height="2" fill="hsl(0, 100%, 60%)" />
<rect x="84" y="74" width="2" height="2" fill="hsl(0, 100%, 60%)" />
<rect x="86" y="74" width="2" height="2" fill="hsl(0, 100%, 60%)" />
<rect x="100" y="74" width="2" height="2" fill="hsl(0, 100%, 60%)" />
<rect x="102" y="74" width="2" height="2" fill="hsl(0, 100%, 60%)" />
<rect x="104" y="74" width="2" height="2" fill="hsl(0, 100%, 60%)" />
<rect x="22" y="76" width="2" height="2" fill="hsl(0, 100%, 60%)" />
<rect x="24" y="76" width="2" height="2" fill="hsl(0, 100%, 60%)" />
<rect x="30" y="76" width="2" height="2" fill="hsl(0, 100%, 60%)" />
<rect x="98" y="76" width="2" height="2" fill="hsl(0, 100%, 60%)" />
<rect x="100" y="76" width="2" height="2" fill="hsl(0, 100%, 60%)" />
<rect x="106" y="76" width="2" height="2" fill="hsl(0, 100%, 60%)" />
</svg>