<?xml version="1.0" encoding="utf-8"?>
<svg xmlns="http://www.w3.org/2000/svg" width="126" height="122" viewBox="0 0 126 122">
<rect width="100%" height="100%" fill="transparent" />
<rect x="86" y="4" width="2" height="2" fill="hsl(0, 100%, 60%)" />
<rect x="84" y="6" width="2" height="2" fill="hsl(0, 100%, 60%)" />
<rect x="86" y="6" width="2" height="2" fill="hsl(0, 100%, 60%)" />
<rect x="88" y="6" width="2" height="2" fill="hsl(0, 100%, 60%)" />
<rect x="82" y="8" width="2" height="2" fill="hsl(0, 100%, 60%)" />
<rect x="84" y="8" width="2" height="2" fill="hsl(0, 100%, 60%)" />
<rect x="88" y="8" width="2" height="2" fill="hsl(0, 100%, 60%)" />
<rect x="100" y="8" width="2" height="2" fill="hsl(0, 100%, 60%)" />
<rect x="82" y="10" width="2" height="2" fill="hsl(0, 100%, 60%)" />
<rect x="84" y="10" width="2" height="2" fill="hsl(0, 100%, 60%)" />
<rect x="86" y="10" width="2" height="2" fill="hsl(0, 100%, 60%)" />
<rect x="98" y="10" width="2" height="2" fill="hsl(0, 100%, 60%)" />
<rect x="100" y="10" width="2" height="2" fill="hsl(0, 100%, 60%)" />
<rect x="102" y="10" width="2" height="2" fill="hsl(0, 100%, 60%)" />
<rect x="84" y="12" width="2" height="2" fill="hsl(0, 100%, 60%)" />
<rect x="86" y="12" width="2" height="2" fill="hsl(0, 100%, 60%)" />
<rect x="96" y="12" width="2" height="2" fill="hsl(0, 100%, 60%)" />
<rect x="102" y="12" width="2" height="2" fill="hsl(0, 100%, 60%)" />
<rect x="104" y="12" width="2" height="2" fill="hsl(0, 100%, 60%)" />
<rect x="112" y="12" width="2" height="2" fill="hsl(0, 100%, 60%)" />
<rect x="114" y="12" width="2" height="2" fill="hsl(0, 100%, 60%)" />
<rect x="116" y="12" width="2" height="2" fill="hsl(0, 100%, 60%)" />
<rect x="96" y="14" width="2" height="2" fill="hsl(0, 100%, 60%)" />
<rect x="98" y="14" width="2" height="2" fill="hsl(0, 100%, 60%)" />
<rect x="100" y="14" width="2" height="2" fill="hsl(0, 100%, 60%)" />
<rect x="110" y="14" width="2" height="2" fill="hsl(0, 100%, 60%)" />
<rect x="116" y="14" width="2" height="2" fill="hsl(0, 100%, 60%)" />
<rect x="116" y="16" width="2" height="2" fill="hsl(0, 100%, 60%)" />
<rect x="116" y="18" width="2" height="2" fill="hsl(0, 100%, 60%)" />
<rect x="116" y="20" width="2" height="2" fill="hsl(0, 100%, 60%)" />
<rect x="84" y="22" width="2" height="2" fill="hsl(0, 100%, 60%)" />
<rect x="86" y="22" width="2" height="2" fill="hsl(0, 100%, 60%)" />
<rect x="88" y="22" width="2" height="2" fill="hsl(0, 100%, 60%)" />
<rect x="114" y="22" width="2" height="2" fill="hsl(0, 100%, 60%)" />
<rect x="84" y="24" width="2" height="2" fill="hsl(0, 100%, 60%)" />
<rect x="90" y="24" width="2" height="2" fill="hsl(0, 100%, 60%)" />
<rect x="84" y="26" width="2" height="2" fill="hsl(0, 100%, 60%)" />
<rect x="84" y="28" width="2" height="2" fill="hsl(0, 100%, 60%)" />
<rect x="86" y="30" width="2" height="2" fill="hsl(0, 100%, 60%)" />
<rect x="80" y="44" width="2" height="2" fill="hsl(0, 100%, 60%)" />
<rect x="82" y="44" width="2" height="2" fill="hsl(0, 100%, 60%)" />
<rect x="84" y="44" width="2" height="2" fill="hsl(0, 100%, 60%)" />
<rect x="80" y="46" width="2" height="2" fill="hsl(0, 100%, 60%)" />
<rect x="86" y="46" width="2" height="2" fill="hsl(0, 100%, 60%)" />
<rect x="110" y="46" width="2" height="2" fill="hsl(0, 100%, 60%)" />
<rect x="80" y="48" width="2" height="2" fill="hsl(0, 100%, 60%)" />
<rect x="108" y="48" width="2" height="2" fill="hsl(0, 100%, 60%)" />
<rect x="110" y="48" width="2" height="2" fill="hsl(0, 100%, 60%)" />
<rect x="112" y="48" width="2" height="2" fill="hsl(0, 100%, 60%)" />
<rect x="80" y="50" width="2" height="2" fill="hsl(0, 100%, 60%)" />
<rect x="106" y="50" width="2" height="2" fill="hsl(0, 100%, 60%)" />
<rect x="108" y="50" width="2" height="2" fill="hsl(0, 100%, 60%)" />
<rect x="112" y="50" width="2" height="2" fill="hsl(0, 100%, 60%)" />
<rect x="80" y="52" width="2" height="2" fill="hsl(0, 100%, 60%)" />
<rect x="106" y="52" width="2" height="2" fill="hsl(0, 100%, 60%)" />
<rect x="108" y="52" width="2" height="2" fill="hsl(0, 100%, 60%)" />
<rect x="110" y="52" width="2" height="2" fill="hsl(0, 100%, 60%)" />
<rect x="82" y="54" width="2" height="2" fill="hsl(0, 100%, 60%)" />
<rect x="108" y="54" width="2" height="2" fill="hsl(0, 100%, 60%)" />
<rect x="110" y="54" width="2" height="2" fill="hsl(0, 100%, 60%)" />
<rect x="74" y="60" width="2" height="2" fill="hsl(0, 100%, 60%)" />
<rect x="76" y="60" width="2" height="2" fill="hsl(0, 100%, 60%)" />
<rect x="78" y="60" width="2" height="2" fill="hsl(0, 100%, 60%)" />
<rect x="72" y="62" width="2" height="2" fill="hsl(0, 100%, 60%)" />
<rect x="74" y="62" width="2" height="2" fill="hsl(0, 100%, 60%)" />
<rect x="76" y="62" width="2" height="2" fill="hsl(0, 100%, 60%)" />
<rect x="78" y="62" width="2" height="2" fill="hsl(0, 100%, 60%)" />
<rect x="80" y="62" width="2" height="2" fill="hsl(0, 100%, 60%)" />
<rect x="72" y="64" width="2" height="2" fill="hsl(0, 100%, 60%)" />
<rect x="74" y="64" width="2" height="2" fill="hsl(0, 100%, 60%)" />
<rect x="76" y="64" width="2" height="2" fill="hsl(0, 100%, 60%)" />
<rect x="80" y="64" width="2" height="2" fill="hsl(0, 100%, 60%)" />
<rect x="82" y="64" width="2" height="2" fill="hsl(0, 100%, 60%)" />
<rect x="98" y="64" width="2" height="2" fill="hsl(0, 100%, 60%)" />
<rect x="100" y="64" width="2" height="2" fill="hsl(0, 100%, 60%)" />
<rect x="118" y="64" width="2" height="2" fill="hsl(0, 100%, 60%)" />
<rect x="78" y="66" width="2" height="2" fill="hsl(0, 100%, 60%)" />
<rect x="80" y="66" width="2" height="2" fill="hsl(0, 100%, 60%)" />
<rect x="96" y="66" width="2" height="2" fill="hsl(0, 100%, 60%)" />
<rect x="98" y="66" width="2" height="2" fill="hsl(0, 100%, 60%)" />
<rect x="100" y="66" width="2" height="2" fill="hsl(0, 100%, 60%)" />
<rect x="102" y="66" width="2" height="2" fill="hsl(0, 100%, 60%)" />
<rect x="120" y="66" width="2" height="2" fill="hsl(0, 100%, 60%)" />
<rect x="96" y="68" width="2" height="2" fill="hsl(0, 100%, 60%)" />
<rect x="98" y="68" width="2" height="2" fill="hsl(0, 100%, 60%)" />
<rect x="102" y="68" width="2" height="2" fill="hsl(0, 100%, 60%)" />
<rect x="104" y="68" width="2" height="2" fill="hsl(0, 100%, 60%)" />
<rect x="112" y="68" width="2" height="2" fill="hsl(0, 100%, 60%)" />
<rect x="120" y="68" width="2" height="2" fill="hsl(0, 100%, 60%)" />
<rect x="100" y="70" width="2" height="2" fill="hsl(0, 100%, 60%)" />
<rect x="102" y="70" width="2" height="2" fill="hsl(0, 100%, 60%)" />
<rect x="114" y="70" width="2" height="2" fill="hsl(0, 100%, 60%)" />
<rect x="116" y="70" width="2" height="2" fill="hsl(0, 100%, 60%)" />
<rect x="118" y="70" width="2" height="2" fill="hsl(0, 100%, 60%)" />
<rect x="120" y="70" width="2" height="2" fill="hsl(0, 100%, 60%)" />
<rect x="44" y="76" width="2" height="2" fill="hsl(0, 100%, 60%)" />
<rect x="46" y="78" width="2" height="2" fill="hsl(0, 100%, 60%)" />
<rect x="6" y="80" width="2" height="2" fill="hsl(0, 100%, 60%)" />
<rect x="8" y="80" width="2" height="2" fill="hsl(0, 100%, 60%)" />
<rect x="36" y="80" width="2" height="2" fill="hsl(0, 100%, 60%)" />
<rect x="46" y="80" width="2" height="2" fill="hsl(0, 100%, 60%)" />
<rect x="112" y="80" width="2" height="2" fill="hsl(0, 100%, 60%)" />
<rect x="114" y="80" width="2" height="2" fill="hsl(0, 100%, 60%)" />
<rect x="116" y="80" width="2" height="2" fill="hsl(0, 100%, 60%)" />
<rect x="4" y="82" width="2" height="2" fill="hsl(0, 100%, 60%)" />
<rect x="6" y="82" width="2" height="2" fill="hsl(0, 100%, 60%)" />
<rect x="8" y="82" width="2" height="2" fill="hsl(0, 100%, 60%)" />
<rect x="10" y="82" width="2" height="2" fill="hsl(0, 100%, 60%)" />
<rect x="38" y="82" width="2" height="2" fill="hsl(0, 100%, 60%)" />
<rect x="40" y="82" width="2" height="2" fill="hsl(0, 100%, 60%)" />
<rect x="42" y="82" width="2" height="2" fill="hsl(0, 100%, 60%)" />
<rect x="44" y="82" width="2" height="2" fill="hsl(0, 100%, 60%)" />
<rect x="46" y="82" width="2" height="2" fill="hsl(0, 100%, 60%)" />
<rect x="116" y="82" width="2" height="2" fill="hsl(0, 100%, 60%)" />
<rect x="4" y="84" width="2" height="2" fill="hsl(0, 100%, 60%)" />
<rect x="6" y="84" width="2" height="2" fill="hsl(0, 100%, 60%)" />
<rect x="10" y="84" width="2" height="2" fill="hsl(0, 100%, 60%)" />
<rect x="12" y="84" width="2" height="2" fill="hsl(0, 100%, 60%)" />
<rect x="116" y="84" width="2" height="2" fill="hsl(0, 100%, 60%)" />
<rect x="8" y="86" width="2" height="2" fill="hsl(0, 100%, 60%)" />
<rect x="10" y="86" width="2" height="2" fill="hsl(0, 100%, 60%)" />
<rect x="114" y="86" width="2" height="2" fill="hsl(0, 100%, 60%)" />
<rect x="76" y="88" width="2" height="2" fill="hsl(0, 100%, 60%)" />
<rect x="78" y="90" width="2" height="2" fill="hsl(0, 100%, 60%)" />
<rect x="46" y="92" width="2" height="2" fill="hsl(0, 100%, 60%)" />
<rect x="48" y="92" width="2" height="2" fill="hsl(0, 100%, 60%)" />
<rect x="70" y="92" width="2" height="2" fill="hsl(0, 100%, 60%)" />
<rect x="78" y="92" width="2" height="2" fill="hsl(0, 100%, 60%)" />
<rect x="48" y="94" width="2" height="2" fill="hsl(0, 100%, 60%)" />
<rect x="50" y="94" width="2" height="2" fill="hsl(0, 100%, 60%)" />
<rect x="72" y="94" width="2" height="2" fill="hsl(0, 100%, 60%)" />
<rect x="74" y="94" width="2" height="2" fill="hsl(0, 100%, 60%)" />
<rect x="76" y="94" width="2" height="2" fill="hsl(0, 100%, 60%)" />
<rect x="78" y="94" width="2" height="2" fill="hsl(0, 100%, 60%)" />
<rect x="110" y="94" width="2" height="2" fill="hsl(0, 100%, 60%)" />
<rect x="112" y="94" width="2" height="2" fill="hsl(0, 100%, 60%)" />
<rect x="46" y="96" width="2" height="2" fill="hsl(0, 100%, 60%)" />
<rect x="48" y="96" width="2" height="2" fill="hsl(0, 100%, 60%)" />
<rect x="104" y="96" width="2" height="2" fill="hsl(0, 100%, 60%)" />
<rect x="106" y="96" width="2" height="2" fill="hsl(0, 100%, 60%)" />
<rect x="108" y="96" width="2" height="2" fill="hsl(0, 100%, 60%)" />
<rect x="112" y="96" width="2" height="2" fill="hsl(0, 100%, 60%)" />
<rect x="114" y="96" width="2" height="2" fill="hsl(0, 100%, 60%)" />
<rect x="46" y="98" width="2" height="2" fill="hsl(0, 100%, 60%)" />
<rect x="104" y="98" width="2" height="2" fill="hsl(0, 100%, 60%)" />
<rect x="106" y="98" width="2" height="2" fill="hsl(0, 100%, 60%)" />
<rect x="108" y="98" width="2" height="2" fill="hsl(0, 100%, 60%)" />
<rect x="110" y="98" width="2" height="2" fill="hsl(0, 100%, 60%)" />
<rect x="112" y="98" width="2" height="2" fill="hsl(0, 100%, 60%)" />
<rect x="106" y="100" width="2" height="2" fill="hsl(0, 100%, 60%)" />
<rect x="108" y="100" width="2" height="2" fill="hsl(0, 100%, 60%)" />
<rect x="110" y="100" width="2" height="2" fill="hsl(0, 100%, 60%)" />
<rect x="48" y="104" width="2" height="2" fill="hsl(0, 100%, 60%)" />
<rect x="50" y="104" width="2" height="2" fill="hsl(0, 100%, 60%)" />
<rect x="30" y="106" width="2" height="2" fill="hsl(0, 100%, 60%)" />
<rect x="32" y="106" width="2" height="2" fill="hsl(0, 100%, 60%)" />
<rect x="34" y="106" width="2" height="2" fill="hsl(0, 100%, 60%)" />
<rect x="36" y="106" width="2" height="2" fill="hsl(0, 100%, 60%)" />
<rect x="46" y="106" width="2" height="2" fill="hsl(0, 100%, 60%)" />
<rect x="48" y="106" width="2" height="2" fill="hsl(0, 100%, 60%)" />
<rect x="50" y="106" width="2" height="2" fill="hsl(0, 100%, 60%)" />
<rect x="52" y="106" width="2" height="2" fill="hsl(0, 100%, 60%)" />
<rect x="28" y="108" width="2" height="2" fill="hsl(0, 100%, 60%)" />
<rect x="36" y="108" width="2" height="2" fill="hsl(0, 100%, 60%)" />
<rect x="46" y="108" width="2" height="2" fill="hsl(0, 100%, 60%)" />
<rect x="48" y="108" width="2" height="2" fill="hsl(0, 100%, 60%)" />
<rect x="52" y="108" width="2" height="2" fill="hsl(0, 100%, 60%)" />
<rect x="54" y="108" width="2" height="2" fill="hsl(0, 100%, 60%)" />
<rect x="6" y="110" width="2" height="2" fill="hsl(0, 100%, 60%)" />
<rect x="8" y="110" width="2" height="2" fill="hsl(0, 100%, 60%)" />
<rect x="10" y="110" width="2" height="2" fill="hsl(0, 100%, 60%)" />
<rect x="12" y="110" width="2" height="2" fill="hsl(0, 100%, 60%)" />
<rect x="14" y="110" width="2" height="2" fill="hsl(0, 100%, 60%)" />
<rect x="36" y="110" width="2" height="2" fill="hsl(0, 100%, 60%)" />
<rect x="50" y="110" width="2" height="2" fill="hsl(0, 100%, 60%)" />
<rect x="52" y="110" width="2" height="2" fill="hsl(0, 100%, 60%)" />
<rect x="4" y="112" width="2" height="2" fill="hsl(0, 100%, 60%)" />
<rect x="14" y="112" width="2" height="2" fill="hsl(0, 100%, 60%)" />
<rect x="34" y="112" width="2" height="2" fill="hsl(0, 100%, 60%)" />
<rect x="14" y="114" width="2" height="2" fill="hsl(0, 100%, 60%)" />
<rect x="12" y="116" width="2" height="2" fill="hsl(0, 100%, 60%)" />
</svg>