<?xml version="1.0" encoding="utf-8"?>
<svg xmlns="http://www.w3.org/2000/svg" width="110" height="26" viewBox="0 0 110 26">
<rect width="100%" height="100%" fill="transparent" />
<rect x="48" y="4" width="2" height="2" fill="hsl(0, 100%, 60%)" />
<rect x="96" y="4" width="2" height="2" fill="hsl(0, 100%, 60%)" />
<rect x="48" y="6" width="2" height="2" fill="hsl(0, 100%, 60%)" />
<rect x="96" y="6" width="2" height="2" fill="hsl(0, 100%, 60%)" />
<rect x="22" y="8" width="2" height="2" fill="hsl(0, 100%, 60%)" />
<rect x="24" y="8" width="2" height="2" fill="hsl(0, 100%, 60%)" />
<rect x="26" y="8" width="2" height="2" fill="hsl(0, 100%, 60%)" />
<rect x="48" y="8" width="2" height="2" fill="hsl(0, 100%, 60%)" />
<rect x="70" y="8" width="2" height="2" fill="hsl(0, 100%, 60%)" />
<rect x="72" y="8" width="2" height="2" fill="hsl(0, 100%, 60%)" />
<rect x="74" y="8" width="2" height="2" fill="hsl(0, 100%, 60%)" />
<rect x="96" y="8" width="2" height="2" fill="hsl(0, 100%, 60%)" />
<rect x="6" y="10" width="2" height="2" fill="hsl(0, 100%, 60%)" />
<rect x="8" y="10" width="2" height="2" fill="hsl(0, 100%, 60%)" />
<rect x="4" y="12" width="2" height="2" fill="hsl(0, 100%, 60%)" />
<rect x="6" y="12" width="2" height="2" fill="hsl(0, 100%, 60%)" />
<rect x="8" y="12" width="2" height="2" fill="hsl(0, 100%, 60%)" />
<rect x="18" y="12" width="2" height="2" fill="hsl(0, 100%, 60%)" />
<rect x="30" y="12" width="2" height="2" fill="hsl(0, 100%, 60%)" />
<rect x="40" y="12" width="2" height="2" fill="hsl(0, 100%, 60%)" />
<rect x="42" y="12" width="2" height="2" fill="hsl(0, 100%, 60%)" />
<rect x="44" y="12" width="2" height="2" fill="hsl(0, 100%, 60%)" />
<rect x="52" y="12" width="2" height="2" fill="hsl(0, 100%, 60%)" />
<rect x="54" y="12" width="2" height="2" fill="hsl(0, 100%, 60%)" />
<rect x="56" y="12" width="2" height="2" fill="hsl(0, 100%, 60%)" />
<rect x="66" y="12" width="2" height="2" fill="hsl(0, 100%, 60%)" />
<rect x="78" y="12" width="2" height="2" fill="hsl(0, 100%, 60%)" />
<rect x="88" y="12" width="2" height="2" fill="hsl(0, 100%, 60%)" />
<rect x="90" y="12" width="2" height="2" fill="hsl(0, 100%, 60%)" />
<rect x="92" y="12" width="2" height="2" fill="hsl(0, 100%, 60%)" />
<rect x="100" y="12" width="2" height="2" fill="hsl(0, 100%, 60%)" />
<rect x="102" y="12" width="2" height="2" fill="hsl(0, 100%, 60%)" />
<rect x="104" y="12" width="2" height="2" fill="hsl(0, 100%, 60%)" />
<rect x="6" y="14" width="2" height="2" fill="hsl(0, 100%, 60%)" />
<rect x="8" y="14" width="2" height="2" fill="hsl(0, 100%, 60%)" />
<rect x="18" y="14" width="2" height="2" fill="hsl(0, 100%, 60%)" />
<rect x="30" y="14" width="2" height="2" fill="hsl(0, 100%, 60%)" />
<rect x="66" y="14" width="2" height="2" fill="hsl(0, 100%, 60%)" />
<rect x="78" y="14" width="2" height="2" fill="hsl(0, 100%, 60%)" />
<rect x="18" y="16" width="2" height="2" fill="hsl(0, 100%, 60%)" />
<rect x="30" y="16" width="2" height="2" fill="hsl(0, 100%, 60%)" />
<rect x="48" y="16" width="2" height="2" fill="hsl(0, 100%, 60%)" />
<rect x="66" y="16" width="2" height="2" fill="hsl(0, 100%, 60%)" />
<rect x="78" y="16" width="2" height="2" fill="hsl(0, 100%, 60%)" />
<rect x="96" y="16" width="2" height="2" fill="hsl(0, 100%, 60%)" />
<rect x="48" y="18" width="2" height="2" fill="hsl(0, 100%, 60%)" />
<rect x="96" y="18" width="2" height="2" fill="hsl(0, 100%, 60%)" />
<rect x="22" y="20" width="2" height="2" fill="hsl(0, 100%, 60%)" />
<rect x="24" y="20" width="2" height="2" fill="hsl(0, 100%, 60%)" />
<rect x="26" y="20" width="2" height="2" fill="hsl(0, 100%, 60%)" />
<rect x="48" y="20" width="2" height="2" fill="hsl(0, 100%, 60%)" />
<rect x="70" y="20" width="2" height="2" fill="hsl(0, 100%, 60%)" />
<rect x="72" y="20" width="2" height="2" fill="hsl(0, 100%, 60%)" />
<rect x="74" y="20" width="2" height="2" fill="hsl(0, 100%, 60%)" />
<rect x="96" y="20" width="2" height="2" fill="hsl(0, 100%, 60%)" />
</svg>