<?xml version="1.0" encoding="utf-8"?>
<svg xmlns="http://www.w3.org/2000/svg" width="98" height="128" viewBox="0 0 98 128">
<rect width="100%" height="100%" fill="transparent" />
<rect x="7" y="4" width="3" height="3" fill="hsl(0, 100%, 60%)" />
<rect x="10" y="7" width="3" height="3" fill="hsl(0, 100%, 60%)" />
<rect x="4" y="10" width="3" height="3" fill="hsl(0, 100%, 60%)" />
<rect x="7" y="10" width="3" height="3" fill="hsl(0, 100%, 60%)" />
<rect x="10" y="10" width="3" height="3" fill="hsl(0, 100%, 60%)" />
<rect x="37" y="37" width="3" height="3" fill="hsl(0, 100%, 60%)" />
<rect x="40" y="40" width="3" height="3" fill="hsl(0, 100%, 60%)" />
<rect x="43" y="40" width="3" height="3" fill="hsl(0, 100%, 60%)" />
<rect x="37" y="43" width="3" height="3" fill="hsl(0, 100%, 60%)" />
<rect x="40" y="43" width="3" height="3" fill="hsl(0, 100%, 60%)" />
<rect x="85" y="49" width="3" height="3" fill="hsl(0, 100%, 60%)" />
<rect x="79" y="52" width="3" height="3" fill="hsl(0, 100%, 60%)" />
<rect x="82" y="52" width="3" height="3" fill="hsl(0, 100%, 60%)" />
<rect x="85" y="52" width="3" height="3" fill="hsl(0, 100%, 60%)" />
<rect x="76" y="55" width="3" height="3" fill="hsl(0, 100%, 60%)" />
<rect x="76" y="58" width="3" height="3" fill="hsl(0, 100%, 60%)" />
<rect x="79" y="58" width="3" height="3" fill="hsl(0, 100%, 60%)" />
<rect x="73" y="70" width="3" height="3" fill="hsl(0, 100%, 60%)" />
<rect x="67" y="73" width="3" height="3" fill="hsl(0, 100%, 60%)" />
<rect x="73" y="73" width="3" height="3" fill="hsl(0, 100%, 60%)" />
<rect x="70" y="76" width="3" height="3" fill="hsl(0, 100%, 60%)" />
<rect x="73" y="76" width="3" height="3" fill="hsl(0, 100%, 60%)" />
<rect x="46" y="79" width="3" height="3" fill="hsl(0, 100%, 60%)" />
<rect x="49" y="79" width="3" height="3" fill="hsl(0, 100%, 60%)" />
<rect x="43" y="82" width="3" height="3" fill="hsl(0, 100%, 60%)" />
<rect x="49" y="82" width="3" height="3" fill="hsl(0, 100%, 60%)" />
<rect x="76" y="82" width="3" height="3" fill="hsl(0, 100%, 60%)" />
<rect x="43" y="85" width="3" height="3" fill="hsl(0, 100%, 60%)" />
<rect x="73" y="85" width="3" height="3" fill="hsl(0, 100%, 60%)" />
<rect x="79" y="85" width="3" height="3" fill="hsl(0, 100%, 60%)" />
<rect x="40" y="88" width="3" height="3" fill="hsl(0, 100%, 60%)" />
<rect x="43" y="88" width="3" height="3" fill="hsl(0, 100%, 60%)" />
<rect x="73" y="88" width="3" height="3" fill="hsl(0, 100%, 60%)" />
<rect x="79" y="88" width="3" height="3" fill="hsl(0, 100%, 60%)" />
<rect x="76" y="91" width="3" height="3" fill="hsl(0, 100%, 60%)" />
<rect x="67" y="103" width="3" height="3" fill="hsl(0, 100%, 60%)" />
<rect x="70" y="103" width="3" height="3" fill="hsl(0, 100%, 60%)" />
<rect x="76" y="103" width="3" height="3" fill="hsl(0, 100%, 60%)" />
<rect x="79" y="103" width="3" height="3" fill="hsl(0, 100%, 60%)" />
<rect x="55" y="106" width="3" height="3" fill="hsl(0, 100%, 60%)" />
<rect x="58" y="106" width="3" height="3" fill="hsl(0, 100%, 60%)" />
<rect x="67" y="106" width="3" height="3" fill="hsl(0, 100%, 60%)" />
<rect x="70" y="106" width="3" height="3" fill="hsl(0, 100%, 60%)" />
<rect x="76" y="106" width="3" height="3" fill="hsl(0, 100%, 60%)" />
<rect x="88" y="106" width="3" height="3" fill="hsl(0, 100%, 60%)" />
<rect x="91" y="106" width="3" height="3" fill="hsl(0, 100%, 60%)" />
<rect x="55" y="109" width="3" height="3" fill="hsl(0, 100%, 60%)" />
<rect x="76" y="109" width="3" height="3" fill="hsl(0, 100%, 60%)" />
<rect x="82" y="109" width="3" height="3" fill="hsl(0, 100%, 60%)" />
<rect x="91" y="109" width="3" height="3" fill="hsl(0, 100%, 60%)" />
<rect x="58" y="112" width="3" height="3" fill="hsl(0, 100%, 60%)" />
<rect x="61" y="112" width="3" height="3" fill="hsl(0, 100%, 60%)" />
<rect x="64" y="112" width="3" height="3" fill="hsl(0, 100%, 60%)" />
<rect x="67" y="112" width="3" height="3" fill="hsl(0, 100%, 60%)" />
<rect x="70" y="112" width="3" height="3" fill="hsl(0, 100%, 60%)" />
<rect x="73" y="112" width="3" height="3" fill="hsl(0, 100%, 60%)" />
<rect x="76" y="112" width="3" height="3" fill="hsl(0, 100%, 60%)" />
<rect x="82" y="112" width="3" height="3" fill="hsl(0, 100%, 60%)" />
<rect x="85" y="112" width="3" height="3" fill="hsl(0, 100%, 60%)" />
<rect x="79" y="115" width="3" height="3" fill="hsl(0, 100%, 60%)" />
<rect x="64" y="118" width="3" height="3" fill="hsl(0, 100%, 60%)" />
<rect x="67" y="118" width="3" height="3" fill="hsl(0, 100%, 60%)" />
<rect x="70" y="118" width="3" height="3" fill="hsl(0, 100%, 60%)" />
<rect x="73" y="118" width="3" height="3" fill="hsl(0, 100%, 60%)" />
<rect x="79" y="118" width="3" height="3" fill="hsl(0, 100%, 60%)" />
<rect x="64" y="121" width="3" height="3" fill="hsl(0, 100%, 60%)" />
<rect x="73" y="121" width="3" height="3" fill="hsl(0, 100%, 60%)" />
<rect x="76" y="121" width="3" height="3" fill="hsl(0, 100%, 60%)" />
</svg>