<?xml version="1.0" encoding="utf-8"?>
<svg xmlns="http://www.w3.org/2000/svg" width="106" height="122" viewBox="0 0 106 122">
<rect width="100%" height="100%" fill="transparent" />
<rect x="48" y="4" width="2" height="2" fill="hsl(0, 100%, 60%)" />
<rect x="50" y="4" width="2" height="2" fill="hsl(0, 100%, 60%)" />
<rect x="58" y="4" width="2" height="2" fill="hsl(0, 100%, 60%)" />
<rect x="60" y="4" width="2" height="2" fill="hsl(0, 100%, 60%)" />
<rect x="48" y="6" width="2" height="2" fill="hsl(0, 100%, 60%)" />
<rect x="50" y="6" width="2" height="2" fill="hsl(0, 100%, 60%)" />
<rect x="56" y="6" width="2" height="2" fill="hsl(0, 100%, 60%)" />
<rect x="60" y="6" width="2" height="2" fill="hsl(0, 100%, 60%)" />
<rect x="62" y="6" width="2" height="2" fill="hsl(0, 100%, 60%)" />
<rect x="64" y="6" width="2" height="2" fill="hsl(0, 100%, 60%)" />
<rect x="56" y="8" width="2" height="2" fill="hsl(0, 100%, 60%)" />
<rect x="66" y="8" width="2" height="2" fill="hsl(0, 100%, 60%)" />
<rect x="48" y="10" width="2" height="2" fill="hsl(0, 100%, 60%)" />
<rect x="50" y="10" width="2" height="2" fill="hsl(0, 100%, 60%)" />
<rect x="52" y="10" width="2" height="2" fill="hsl(0, 100%, 60%)" />
<rect x="54" y="10" width="2" height="2" fill="hsl(0, 100%, 60%)" />
<rect x="58" y="10" width="2" height="2" fill="hsl(0, 100%, 60%)" />
<rect x="60" y="10" width="2" height="2" fill="hsl(0, 100%, 60%)" />
<rect x="66" y="10" width="2" height="2" fill="hsl(0, 100%, 60%)" />
<rect x="48" y="12" width="2" height="2" fill="hsl(0, 100%, 60%)" />
<rect x="54" y="12" width="2" height="2" fill="hsl(0, 100%, 60%)" />
<rect x="58" y="12" width="2" height="2" fill="hsl(0, 100%, 60%)" />
<rect x="62" y="12" width="2" height="2" fill="hsl(0, 100%, 60%)" />
<rect x="66" y="12" width="2" height="2" fill="hsl(0, 100%, 60%)" />
<rect x="68" y="12" width="2" height="2" fill="hsl(0, 100%, 60%)" />
<rect x="54" y="14" width="2" height="2" fill="hsl(0, 100%, 60%)" />
<rect x="58" y="14" width="2" height="2" fill="hsl(0, 100%, 60%)" />
<rect x="62" y="14" width="2" height="2" fill="hsl(0, 100%, 60%)" />
<rect x="66" y="14" width="2" height="2" fill="hsl(0, 100%, 60%)" />
<rect x="56" y="16" width="2" height="2" fill="hsl(0, 100%, 60%)" />
<rect x="58" y="16" width="2" height="2" fill="hsl(0, 100%, 60%)" />
<rect x="62" y="16" width="2" height="2" fill="hsl(0, 100%, 60%)" />
<rect x="66" y="16" width="2" height="2" fill="hsl(0, 100%, 60%)" />
<rect x="64" y="18" width="2" height="2" fill="hsl(0, 100%, 60%)" />
<rect x="36" y="22" width="2" height="2" fill="hsl(0, 100%, 60%)" />
<rect x="38" y="22" width="2" height="2" fill="hsl(0, 100%, 60%)" />
<rect x="38" y="24" width="2" height="2" fill="hsl(0, 100%, 60%)" />
<rect x="54" y="24" width="2" height="2" fill="hsl(0, 100%, 60%)" />
<rect x="56" y="24" width="2" height="2" fill="hsl(0, 100%, 60%)" />
<rect x="38" y="26" width="2" height="2" fill="hsl(0, 100%, 60%)" />
<rect x="42" y="26" width="2" height="2" fill="hsl(0, 100%, 60%)" />
<rect x="54" y="26" width="2" height="2" fill="hsl(0, 100%, 60%)" />
<rect x="56" y="26" width="2" height="2" fill="hsl(0, 100%, 60%)" />
<rect x="40" y="28" width="2" height="2" fill="hsl(0, 100%, 60%)" />
<rect x="42" y="28" width="2" height="2" fill="hsl(0, 100%, 60%)" />
<rect x="94" y="34" width="2" height="2" fill="hsl(0, 100%, 60%)" />
<rect x="90" y="36" width="2" height="2" fill="hsl(0, 100%, 60%)" />
<rect x="92" y="36" width="2" height="2" fill="hsl(0, 100%, 60%)" />
<rect x="94" y="36" width="2" height="2" fill="hsl(0, 100%, 60%)" />
<rect x="88" y="38" width="2" height="2" fill="hsl(0, 100%, 60%)" />
<rect x="88" y="40" width="2" height="2" fill="hsl(0, 100%, 60%)" />
<rect x="90" y="40" width="2" height="2" fill="hsl(0, 100%, 60%)" />
<rect x="60" y="42" width="2" height="2" fill="hsl(0, 100%, 60%)" />
<rect x="62" y="42" width="2" height="2" fill="hsl(0, 100%, 60%)" />
<rect x="60" y="44" width="2" height="2" fill="hsl(0, 100%, 60%)" />
<rect x="62" y="46" width="2" height="2" fill="hsl(0, 100%, 60%)" />
<rect x="64" y="46" width="2" height="2" fill="hsl(0, 100%, 60%)" />
<rect x="66" y="46" width="2" height="2" fill="hsl(0, 100%, 60%)" />
<rect x="96" y="46" width="2" height="2" fill="hsl(0, 100%, 60%)" />
<rect x="98" y="46" width="2" height="2" fill="hsl(0, 100%, 60%)" />
<rect x="100" y="46" width="2" height="2" fill="hsl(0, 100%, 60%)" />
<rect x="66" y="48" width="2" height="2" fill="hsl(0, 100%, 60%)" />
<rect x="100" y="48" width="2" height="2" fill="hsl(0, 100%, 60%)" />
<rect x="98" y="50" width="2" height="2" fill="hsl(0, 100%, 60%)" />
<rect x="68" y="54" width="2" height="2" fill="hsl(0, 100%, 60%)" />
<rect x="70" y="54" width="2" height="2" fill="hsl(0, 100%, 60%)" />
<rect x="12" y="56" width="2" height="2" fill="hsl(0, 100%, 60%)" />
<rect x="66" y="56" width="2" height="2" fill="hsl(0, 100%, 60%)" />
<rect x="70" y="56" width="2" height="2" fill="hsl(0, 100%, 60%)" />
<rect x="82" y="56" width="2" height="2" fill="hsl(0, 100%, 60%)" />
<rect x="84" y="56" width="2" height="2" fill="hsl(0, 100%, 60%)" />
<rect x="8" y="58" width="2" height="2" fill="hsl(0, 100%, 60%)" />
<rect x="10" y="58" width="2" height="2" fill="hsl(0, 100%, 60%)" />
<rect x="12" y="58" width="2" height="2" fill="hsl(0, 100%, 60%)" />
<rect x="14" y="58" width="2" height="2" fill="hsl(0, 100%, 60%)" />
<rect x="16" y="58" width="2" height="2" fill="hsl(0, 100%, 60%)" />
<rect x="46" y="58" width="2" height="2" fill="hsl(0, 100%, 60%)" />
<rect x="48" y="58" width="2" height="2" fill="hsl(0, 100%, 60%)" />
<rect x="66" y="58" width="2" height="2" fill="hsl(0, 100%, 60%)" />
<rect x="82" y="58" width="2" height="2" fill="hsl(0, 100%, 60%)" />
<rect x="84" y="58" width="2" height="2" fill="hsl(0, 100%, 60%)" />
<rect x="6" y="60" width="2" height="2" fill="hsl(0, 100%, 60%)" />
<rect x="18" y="60" width="2" height="2" fill="hsl(0, 100%, 60%)" />
<rect x="46" y="60" width="2" height="2" fill="hsl(0, 100%, 60%)" />
<rect x="64" y="60" width="2" height="2" fill="hsl(0, 100%, 60%)" />
<rect x="66" y="60" width="2" height="2" fill="hsl(0, 100%, 60%)" />
<rect x="6" y="62" width="2" height="2" fill="hsl(0, 100%, 60%)" />
<rect x="12" y="62" width="2" height="2" fill="hsl(0, 100%, 60%)" />
<rect x="14" y="62" width="2" height="2" fill="hsl(0, 100%, 60%)" />
<rect x="16" y="62" width="2" height="2" fill="hsl(0, 100%, 60%)" />
<rect x="42" y="62" width="2" height="2" fill="hsl(0, 100%, 60%)" />
<rect x="46" y="62" width="2" height="2" fill="hsl(0, 100%, 60%)" />
<rect x="4" y="64" width="2" height="2" fill="hsl(0, 100%, 60%)" />
<rect x="6" y="64" width="2" height="2" fill="hsl(0, 100%, 60%)" />
<rect x="10" y="64" width="2" height="2" fill="hsl(0, 100%, 60%)" />
<rect x="42" y="64" width="2" height="2" fill="hsl(0, 100%, 60%)" />
<rect x="44" y="64" width="2" height="2" fill="hsl(0, 100%, 60%)" />
<rect x="92" y="64" width="2" height="2" fill="hsl(0, 100%, 60%)" />
<rect x="4" y="66" width="2" height="2" fill="hsl(0, 100%, 60%)" />
<rect x="10" y="66" width="2" height="2" fill="hsl(0, 100%, 60%)" />
<rect x="12" y="66" width="2" height="2" fill="hsl(0, 100%, 60%)" />
<rect x="14" y="66" width="2" height="2" fill="hsl(0, 100%, 60%)" />
<rect x="16" y="66" width="2" height="2" fill="hsl(0, 100%, 60%)" />
<rect x="84" y="66" width="2" height="2" fill="hsl(0, 100%, 60%)" />
<rect x="86" y="66" width="2" height="2" fill="hsl(0, 100%, 60%)" />
<rect x="90" y="66" width="2" height="2" fill="hsl(0, 100%, 60%)" />
<rect x="94" y="66" width="2" height="2" fill="hsl(0, 100%, 60%)" />
<rect x="6" y="68" width="2" height="2" fill="hsl(0, 100%, 60%)" />
<rect x="8" y="68" width="2" height="2" fill="hsl(0, 100%, 60%)" />
<rect x="16" y="68" width="2" height="2" fill="hsl(0, 100%, 60%)" />
<rect x="24" y="68" width="2" height="2" fill="hsl(0, 100%, 60%)" />
<rect x="26" y="68" width="2" height="2" fill="hsl(0, 100%, 60%)" />
<rect x="82" y="68" width="2" height="2" fill="hsl(0, 100%, 60%)" />
<rect x="86" y="68" width="2" height="2" fill="hsl(0, 100%, 60%)" />
<rect x="90" y="68" width="2" height="2" fill="hsl(0, 100%, 60%)" />
<rect x="94" y="68" width="2" height="2" fill="hsl(0, 100%, 60%)" />
<rect x="10" y="70" width="2" height="2" fill="hsl(0, 100%, 60%)" />
<rect x="12" y="70" width="2" height="2" fill="hsl(0, 100%, 60%)" />
<rect x="14" y="70" width="2" height="2" fill="hsl(0, 100%, 60%)" />
<rect x="24" y="70" width="2" height="2" fill="hsl(0, 100%, 60%)" />
<rect x="26" y="70" width="2" height="2" fill="hsl(0, 100%, 60%)" />
<rect x="76" y="70" width="2" height="2" fill="hsl(0, 100%, 60%)" />
<rect x="82" y="70" width="2" height="2" fill="hsl(0, 100%, 60%)" />
<rect x="86" y="70" width="2" height="2" fill="hsl(0, 100%, 60%)" />
<rect x="90" y="70" width="2" height="2" fill="hsl(0, 100%, 60%)" />
<rect x="94" y="70" width="2" height="2" fill="hsl(0, 100%, 60%)" />
<rect x="96" y="70" width="2" height="2" fill="hsl(0, 100%, 60%)" />
<rect x="10" y="72" width="2" height="2" fill="hsl(0, 100%, 60%)" />
<rect x="76" y="72" width="2" height="2" fill="hsl(0, 100%, 60%)" />
<rect x="78" y="72" width="2" height="2" fill="hsl(0, 100%, 60%)" />
<rect x="80" y="72" width="2" height="2" fill="hsl(0, 100%, 60%)" />
<rect x="82" y="72" width="2" height="2" fill="hsl(0, 100%, 60%)" />
<rect x="86" y="72" width="2" height="2" fill="hsl(0, 100%, 60%)" />
<rect x="88" y="72" width="2" height="2" fill="hsl(0, 100%, 60%)" />
<rect x="94" y="72" width="2" height="2" fill="hsl(0, 100%, 60%)" />
<rect x="4" y="74" width="2" height="2" fill="hsl(0, 100%, 60%)" />
<rect x="6" y="74" width="2" height="2" fill="hsl(0, 100%, 60%)" />
<rect x="10" y="74" width="2" height="2" fill="hsl(0, 100%, 60%)" />
<rect x="84" y="74" width="2" height="2" fill="hsl(0, 100%, 60%)" />
<rect x="94" y="74" width="2" height="2" fill="hsl(0, 100%, 60%)" />
<rect x="4" y="76" width="2" height="2" fill="hsl(0, 100%, 60%)" />
<rect x="6" y="76" width="2" height="2" fill="hsl(0, 100%, 60%)" />
<rect x="10" y="76" width="2" height="2" fill="hsl(0, 100%, 60%)" />
<rect x="12" y="76" width="2" height="2" fill="hsl(0, 100%, 60%)" />
<rect x="76" y="76" width="2" height="2" fill="hsl(0, 100%, 60%)" />
<rect x="78" y="76" width="2" height="2" fill="hsl(0, 100%, 60%)" />
<rect x="84" y="76" width="2" height="2" fill="hsl(0, 100%, 60%)" />
<rect x="88" y="76" width="2" height="2" fill="hsl(0, 100%, 60%)" />
<rect x="90" y="76" width="2" height="2" fill="hsl(0, 100%, 60%)" />
<rect x="92" y="76" width="2" height="2" fill="hsl(0, 100%, 60%)" />
<rect x="76" y="78" width="2" height="2" fill="hsl(0, 100%, 60%)" />
<rect x="78" y="78" width="2" height="2" fill="hsl(0, 100%, 60%)" />
<rect x="86" y="78" width="2" height="2" fill="hsl(0, 100%, 60%)" />
<rect x="88" y="78" width="2" height="2" fill="hsl(0, 100%, 60%)" />
<rect x="26" y="82" width="2" height="2" fill="hsl(0, 100%, 60%)" />
<rect x="28" y="82" width="2" height="2" fill="hsl(0, 100%, 60%)" />
<rect x="28" y="84" width="2" height="2" fill="hsl(0, 100%, 60%)" />
<rect x="70" y="84" width="2" height="2" fill="hsl(0, 100%, 60%)" />
<rect x="22" y="86" width="2" height="2" fill="hsl(0, 100%, 60%)" />
<rect x="24" y="86" width="2" height="2" fill="hsl(0, 100%, 60%)" />
<rect x="26" y="86" width="2" height="2" fill="hsl(0, 100%, 60%)" />
<rect x="34" y="86" width="2" height="2" fill="hsl(0, 100%, 60%)" />
<rect x="36" y="86" width="2" height="2" fill="hsl(0, 100%, 60%)" />
<rect x="66" y="86" width="2" height="2" fill="hsl(0, 100%, 60%)" />
<rect x="68" y="86" width="2" height="2" fill="hsl(0, 100%, 60%)" />
<rect x="70" y="86" width="2" height="2" fill="hsl(0, 100%, 60%)" />
<rect x="72" y="86" width="2" height="2" fill="hsl(0, 100%, 60%)" />
<rect x="74" y="86" width="2" height="2" fill="hsl(0, 100%, 60%)" />
<rect x="22" y="88" width="2" height="2" fill="hsl(0, 100%, 60%)" />
<rect x="36" y="88" width="2" height="2" fill="hsl(0, 100%, 60%)" />
<rect x="64" y="88" width="2" height="2" fill="hsl(0, 100%, 60%)" />
<rect x="76" y="88" width="2" height="2" fill="hsl(0, 100%, 60%)" />
<rect x="36" y="90" width="2" height="2" fill="hsl(0, 100%, 60%)" />
<rect x="40" y="90" width="2" height="2" fill="hsl(0, 100%, 60%)" />
<rect x="66" y="90" width="2" height="2" fill="hsl(0, 100%, 60%)" />
<rect x="68" y="90" width="2" height="2" fill="hsl(0, 100%, 60%)" />
<rect x="70" y="90" width="2" height="2" fill="hsl(0, 100%, 60%)" />
<rect x="76" y="90" width="2" height="2" fill="hsl(0, 100%, 60%)" />
<rect x="38" y="92" width="2" height="2" fill="hsl(0, 100%, 60%)" />
<rect x="40" y="92" width="2" height="2" fill="hsl(0, 100%, 60%)" />
<rect x="72" y="92" width="2" height="2" fill="hsl(0, 100%, 60%)" />
<rect x="76" y="92" width="2" height="2" fill="hsl(0, 100%, 60%)" />
<rect x="78" y="92" width="2" height="2" fill="hsl(0, 100%, 60%)" />
<rect x="66" y="94" width="2" height="2" fill="hsl(0, 100%, 60%)" />
<rect x="68" y="94" width="2" height="2" fill="hsl(0, 100%, 60%)" />
<rect x="70" y="94" width="2" height="2" fill="hsl(0, 100%, 60%)" />
<rect x="72" y="94" width="2" height="2" fill="hsl(0, 100%, 60%)" />
<rect x="78" y="94" width="2" height="2" fill="hsl(0, 100%, 60%)" />
<rect x="56" y="96" width="2" height="2" fill="hsl(0, 100%, 60%)" />
<rect x="58" y="96" width="2" height="2" fill="hsl(0, 100%, 60%)" />
<rect x="66" y="96" width="2" height="2" fill="hsl(0, 100%, 60%)" />
<rect x="74" y="96" width="2" height="2" fill="hsl(0, 100%, 60%)" />
<rect x="76" y="96" width="2" height="2" fill="hsl(0, 100%, 60%)" />
<rect x="56" y="98" width="2" height="2" fill="hsl(0, 100%, 60%)" />
<rect x="58" y="98" width="2" height="2" fill="hsl(0, 100%, 60%)" />
<rect x="68" y="98" width="2" height="2" fill="hsl(0, 100%, 60%)" />
<rect x="70" y="98" width="2" height="2" fill="hsl(0, 100%, 60%)" />
<rect x="72" y="98" width="2" height="2" fill="hsl(0, 100%, 60%)" />
<rect x="72" y="100" width="2" height="2" fill="hsl(0, 100%, 60%)" />
<rect x="72" y="102" width="2" height="2" fill="hsl(0, 100%, 60%)" />
<rect x="76" y="102" width="2" height="2" fill="hsl(0, 100%, 60%)" />
<rect x="78" y="102" width="2" height="2" fill="hsl(0, 100%, 60%)" />
<rect x="70" y="104" width="2" height="2" fill="hsl(0, 100%, 60%)" />
<rect x="72" y="104" width="2" height="2" fill="hsl(0, 100%, 60%)" />
<rect x="76" y="104" width="2" height="2" fill="hsl(0, 100%, 60%)" />
<rect x="78" y="104" width="2" height="2" fill="hsl(0, 100%, 60%)" />
<rect x="32" y="110" width="2" height="2" fill="hsl(0, 100%, 60%)" />
<rect x="34" y="110" width="2" height="2" fill="hsl(0, 100%, 60%)" />
<rect x="36" y="110" width="2" height="2" fill="hsl(0, 100%, 60%)" />
<rect x="54" y="110" width="2" height="2" fill="hsl(0, 100%, 60%)" />
<rect x="56" y="110" width="2" height="2" fill="hsl(0, 100%, 60%)" />
<rect x="36" y="112" width="2" height="2" fill="hsl(0, 100%, 60%)" />
<rect x="54" y="112" width="2" height="2" fill="hsl(0, 100%, 60%)" />
<rect x="34" y="114" width="2" height="2" fill="hsl(0, 100%, 60%)" />
<rect x="56" y="114" width="2" height="2" fill="hsl(0, 100%, 60%)" />
<rect x="58" y="114" width="2" height="2" fill="hsl(0, 100%, 60%)" />
<rect x="60" y="114" width="2" height="2" fill="hsl(0, 100%, 60%)" />
<rect x="60" y="116" width="2" height="2" fill="hsl(0, 100%, 60%)" />
</svg>