<?xml version="1.0" encoding="utf-8"?>
<svg xmlns="http://www.w3.org/2000/svg" width="101" height="92" viewBox="0 0 101 92">
<rect width="100%" height="100%" fill="transparent" />
<rect x="31" y="4" width="3" height="3" fill="hsl(0, 100%, 60%)" />
<rect x="37" y="4" width="3" height="3" fill="hsl(0, 100%, 60%)" />
<rect x="55" y="4" width="3" height="3" fill="hsl(0, 100%, 60%)" />
<rect x="67" y="4" width="3" height="3" fill="hsl(0, 100%, 60%)" />
<rect x="85" y="4" width="3" height="3" fill="hsl(0, 100%, 60%)" />
<rect x="91" y="4" width="3" height="3" fill="hsl(0, 100%, 60%)" />
<rect x="28" y="7" width="3" height="3" fill="hsl(0, 100%, 60%)" />
<rect x="40" y="7" width="3" height="3" fill="hsl(0, 100%, 60%)" />
<rect x="55" y="7" width="3" height="3" fill="hsl(0, 100%, 60%)" />
<rect x="67" y="7" width="3" height="3" fill="hsl(0, 100%, 60%)" />
<rect x="82" y="7" width="3" height="3" fill="hsl(0, 100%, 60%)" />
<rect x="94" y="7" width="3" height="3" fill="hsl(0, 100%, 60%)" />
<rect x="31" y="10" width="3" height="3" fill="hsl(0, 100%, 60%)" />
<rect x="55" y="10" width="3" height="3" fill="hsl(0, 100%, 60%)" />
<rect x="67" y="10" width="3" height="3" fill="hsl(0, 100%, 60%)" />
<rect x="91" y="10" width="3" height="3" fill="hsl(0, 100%, 60%)" />
<rect x="37" y="13" width="3" height="3" fill="hsl(0, 100%, 60%)" />
<rect x="40" y="13" width="3" height="3" fill="hsl(0, 100%, 60%)" />
<rect x="46" y="13" width="3" height="3" fill="hsl(0, 100%, 60%)" />
<rect x="49" y="13" width="3" height="3" fill="hsl(0, 100%, 60%)" />
<rect x="55" y="13" width="3" height="3" fill="hsl(0, 100%, 60%)" />
<rect x="67" y="13" width="3" height="3" fill="hsl(0, 100%, 60%)" />
<rect x="73" y="13" width="3" height="3" fill="hsl(0, 100%, 60%)" />
<rect x="76" y="13" width="3" height="3" fill="hsl(0, 100%, 60%)" />
<rect x="82" y="13" width="3" height="3" fill="hsl(0, 100%, 60%)" />
<rect x="85" y="13" width="3" height="3" fill="hsl(0, 100%, 60%)" />
<rect x="55" y="16" width="3" height="3" fill="hsl(0, 100%, 60%)" />
<rect x="67" y="16" width="3" height="3" fill="hsl(0, 100%, 60%)" />
<rect x="34" y="19" width="3" height="3" fill="hsl(0, 100%, 60%)" />
<rect x="46" y="19" width="3" height="3" fill="hsl(0, 100%, 60%)" />
<rect x="76" y="19" width="3" height="3" fill="hsl(0, 100%, 60%)" />
<rect x="88" y="19" width="3" height="3" fill="hsl(0, 100%, 60%)" />
<rect x="28" y="22" width="3" height="3" fill="hsl(0, 100%, 60%)" />
<rect x="34" y="22" width="3" height="3" fill="hsl(0, 100%, 60%)" />
<rect x="88" y="22" width="3" height="3" fill="hsl(0, 100%, 60%)" />
<rect x="94" y="22" width="3" height="3" fill="hsl(0, 100%, 60%)" />
<rect x="28" y="28" width="3" height="3" fill="hsl(0, 100%, 60%)" />
<rect x="88" y="28" width="3" height="3" fill="hsl(0, 100%, 60%)" />
<rect x="25" y="31" width="3" height="3" fill="hsl(0, 100%, 60%)" />
<rect x="28" y="31" width="3" height="3" fill="hsl(0, 100%, 60%)" />
<rect x="85" y="31" width="3" height="3" fill="hsl(0, 100%, 60%)" />
<rect x="88" y="31" width="3" height="3" fill="hsl(0, 100%, 60%)" />
<rect x="25" y="34" width="3" height="3" fill="hsl(0, 100%, 60%)" />
<rect x="85" y="34" width="3" height="3" fill="hsl(0, 100%, 60%)" />
<rect x="19" y="37" width="3" height="3" fill="hsl(0, 100%, 60%)" />
<rect x="28" y="37" width="3" height="3" fill="hsl(0, 100%, 60%)" />
<rect x="79" y="37" width="3" height="3" fill="hsl(0, 100%, 60%)" />
<rect x="88" y="37" width="3" height="3" fill="hsl(0, 100%, 60%)" />
<rect x="4" y="40" width="3" height="3" fill="hsl(0, 100%, 60%)" />
<rect x="19" y="40" width="3" height="3" fill="hsl(0, 100%, 60%)" />
<rect x="64" y="40" width="3" height="3" fill="hsl(0, 100%, 60%)" />
<rect x="79" y="40" width="3" height="3" fill="hsl(0, 100%, 60%)" />
<rect x="4" y="43" width="3" height="3" fill="hsl(0, 100%, 60%)" />
<rect x="7" y="43" width="3" height="3" fill="hsl(0, 100%, 60%)" />
<rect x="10" y="43" width="3" height="3" fill="hsl(0, 100%, 60%)" />
<rect x="13" y="43" width="3" height="3" fill="hsl(0, 100%, 60%)" />
<rect x="19" y="43" width="3" height="3" fill="hsl(0, 100%, 60%)" />
<rect x="22" y="43" width="3" height="3" fill="hsl(0, 100%, 60%)" />
<rect x="28" y="43" width="3" height="3" fill="hsl(0, 100%, 60%)" />
<rect x="31" y="43" width="3" height="3" fill="hsl(0, 100%, 60%)" />
<rect x="34" y="43" width="3" height="3" fill="hsl(0, 100%, 60%)" />
<rect x="64" y="43" width="3" height="3" fill="hsl(0, 100%, 60%)" />
<rect x="67" y="43" width="3" height="3" fill="hsl(0, 100%, 60%)" />
<rect x="70" y="43" width="3" height="3" fill="hsl(0, 100%, 60%)" />
<rect x="73" y="43" width="3" height="3" fill="hsl(0, 100%, 60%)" />
<rect x="79" y="43" width="3" height="3" fill="hsl(0, 100%, 60%)" />
<rect x="82" y="43" width="3" height="3" fill="hsl(0, 100%, 60%)" />
<rect x="88" y="43" width="3" height="3" fill="hsl(0, 100%, 60%)" />
<rect x="91" y="43" width="3" height="3" fill="hsl(0, 100%, 60%)" />
<rect x="94" y="43" width="3" height="3" fill="hsl(0, 100%, 60%)" />
<rect x="4" y="46" width="3" height="3" fill="hsl(0, 100%, 60%)" />
<rect x="7" y="46" width="3" height="3" fill="hsl(0, 100%, 60%)" />
<rect x="10" y="46" width="3" height="3" fill="hsl(0, 100%, 60%)" />
<rect x="16" y="46" width="3" height="3" fill="hsl(0, 100%, 60%)" />
<rect x="19" y="46" width="3" height="3" fill="hsl(0, 100%, 60%)" />
<rect x="25" y="46" width="3" height="3" fill="hsl(0, 100%, 60%)" />
<rect x="28" y="46" width="3" height="3" fill="hsl(0, 100%, 60%)" />
<rect x="31" y="46" width="3" height="3" fill="hsl(0, 100%, 60%)" />
<rect x="34" y="46" width="3" height="3" fill="hsl(0, 100%, 60%)" />
<rect x="64" y="46" width="3" height="3" fill="hsl(0, 100%, 60%)" />
<rect x="67" y="46" width="3" height="3" fill="hsl(0, 100%, 60%)" />
<rect x="70" y="46" width="3" height="3" fill="hsl(0, 100%, 60%)" />
<rect x="76" y="46" width="3" height="3" fill="hsl(0, 100%, 60%)" />
<rect x="79" y="46" width="3" height="3" fill="hsl(0, 100%, 60%)" />
<rect x="85" y="46" width="3" height="3" fill="hsl(0, 100%, 60%)" />
<rect x="88" y="46" width="3" height="3" fill="hsl(0, 100%, 60%)" />
<rect x="91" y="46" width="3" height="3" fill="hsl(0, 100%, 60%)" />
<rect x="94" y="46" width="3" height="3" fill="hsl(0, 100%, 60%)" />
<rect x="19" y="49" width="3" height="3" fill="hsl(0, 100%, 60%)" />
<rect x="34" y="49" width="3" height="3" fill="hsl(0, 100%, 60%)" />
<rect x="79" y="49" width="3" height="3" fill="hsl(0, 100%, 60%)" />
<rect x="94" y="49" width="3" height="3" fill="hsl(0, 100%, 60%)" />
<rect x="10" y="52" width="3" height="3" fill="hsl(0, 100%, 60%)" />
<rect x="19" y="52" width="3" height="3" fill="hsl(0, 100%, 60%)" />
<rect x="70" y="52" width="3" height="3" fill="hsl(0, 100%, 60%)" />
<rect x="79" y="52" width="3" height="3" fill="hsl(0, 100%, 60%)" />
<rect x="13" y="55" width="3" height="3" fill="hsl(0, 100%, 60%)" />
<rect x="73" y="55" width="3" height="3" fill="hsl(0, 100%, 60%)" />
<rect x="10" y="58" width="3" height="3" fill="hsl(0, 100%, 60%)" />
<rect x="13" y="58" width="3" height="3" fill="hsl(0, 100%, 60%)" />
<rect x="70" y="58" width="3" height="3" fill="hsl(0, 100%, 60%)" />
<rect x="73" y="58" width="3" height="3" fill="hsl(0, 100%, 60%)" />
<rect x="10" y="61" width="3" height="3" fill="hsl(0, 100%, 60%)" />
<rect x="70" y="61" width="3" height="3" fill="hsl(0, 100%, 60%)" />
<rect x="4" y="67" width="3" height="3" fill="hsl(0, 100%, 60%)" />
<rect x="10" y="67" width="3" height="3" fill="hsl(0, 100%, 60%)" />
<rect x="64" y="67" width="3" height="3" fill="hsl(0, 100%, 60%)" />
<rect x="70" y="67" width="3" height="3" fill="hsl(0, 100%, 60%)" />
<rect x="10" y="70" width="3" height="3" fill="hsl(0, 100%, 60%)" />
<rect x="22" y="70" width="3" height="3" fill="hsl(0, 100%, 60%)" />
<rect x="52" y="70" width="3" height="3" fill="hsl(0, 100%, 60%)" />
<rect x="64" y="70" width="3" height="3" fill="hsl(0, 100%, 60%)" />
<rect x="31" y="73" width="3" height="3" fill="hsl(0, 100%, 60%)" />
<rect x="43" y="73" width="3" height="3" fill="hsl(0, 100%, 60%)" />
<rect x="13" y="76" width="3" height="3" fill="hsl(0, 100%, 60%)" />
<rect x="16" y="76" width="3" height="3" fill="hsl(0, 100%, 60%)" />
<rect x="22" y="76" width="3" height="3" fill="hsl(0, 100%, 60%)" />
<rect x="25" y="76" width="3" height="3" fill="hsl(0, 100%, 60%)" />
<rect x="31" y="76" width="3" height="3" fill="hsl(0, 100%, 60%)" />
<rect x="43" y="76" width="3" height="3" fill="hsl(0, 100%, 60%)" />
<rect x="49" y="76" width="3" height="3" fill="hsl(0, 100%, 60%)" />
<rect x="52" y="76" width="3" height="3" fill="hsl(0, 100%, 60%)" />
<rect x="58" y="76" width="3" height="3" fill="hsl(0, 100%, 60%)" />
<rect x="61" y="76" width="3" height="3" fill="hsl(0, 100%, 60%)" />
<rect x="7" y="79" width="3" height="3" fill="hsl(0, 100%, 60%)" />
<rect x="31" y="79" width="3" height="3" fill="hsl(0, 100%, 60%)" />
<rect x="43" y="79" width="3" height="3" fill="hsl(0, 100%, 60%)" />
<rect x="67" y="79" width="3" height="3" fill="hsl(0, 100%, 60%)" />
<rect x="4" y="82" width="3" height="3" fill="hsl(0, 100%, 60%)" />
<rect x="16" y="82" width="3" height="3" fill="hsl(0, 100%, 60%)" />
<rect x="31" y="82" width="3" height="3" fill="hsl(0, 100%, 60%)" />
<rect x="43" y="82" width="3" height="3" fill="hsl(0, 100%, 60%)" />
<rect x="58" y="82" width="3" height="3" fill="hsl(0, 100%, 60%)" />
<rect x="70" y="82" width="3" height="3" fill="hsl(0, 100%, 60%)" />
<rect x="7" y="85" width="3" height="3" fill="hsl(0, 100%, 60%)" />
<rect x="13" y="85" width="3" height="3" fill="hsl(0, 100%, 60%)" />
<rect x="31" y="85" width="3" height="3" fill="hsl(0, 100%, 60%)" />
<rect x="43" y="85" width="3" height="3" fill="hsl(0, 100%, 60%)" />
<rect x="61" y="85" width="3" height="3" fill="hsl(0, 100%, 60%)" />
<rect x="67" y="85" width="3" height="3" fill="hsl(0, 100%, 60%)" />
</svg>