<?xml version="1.0" encoding="utf-8"?>
<svg xmlns="http://www.w3.org/2000/svg" width="69" height="66" viewBox="0 0 69 66">
<rect width="100%" height="100%" fill="transparent" />
<rect x="4" y="4" width="1" height="1" fill="#39ff14" />
<rect x="5" y="4" width="1" height="1" fill="#39ff14" />
<rect x="63" y="4" width="1" height="1" fill="#39ff14" />
<rect x="64" y="4" width="1" height="1" fill="#39ff14" />
<rect x="4" y="5" width="1" height="1" fill="#39ff14" />
<rect x="5" y="5" width="1" height="1" fill="#39ff14" />
<rect x="63" y="5" width="1" height="1" fill="#39ff14" />
<rect x="64" y="5" width="1" height="1" fill="#39ff14" />
<rect x="4" y="35" width="1" height="1" fill="#39ff14" />
<rect x="5" y="35" width="1" height="1" fill="#39ff14" />
<rect x="63" y="35" width="1" height="1" fill="#39ff14" />
<rect x="64" y="35" width="1" height="1" fill="#39ff14" />
<rect x="4" y="36" width="1" height="1" fill="#39ff14" />
<rect x="5" y="36" width="1" height="1" fill="#39ff14" />
<rect x="63" y="36" width="1" height="1" fill="#39ff14" />
<rect x="64" y="36" width="1" height="1" fill="#39ff14" />
<rect x="59" y="54" width="1" height="1" fill="#39ff14" />
<rect x="60" y="54" width="1" height="1" fill="#39ff14" />
<rect x="61" y="54" width="1" height="1" fill="#39ff14" />
<rect x="59" y="55" width="1" height="1" fill="#39ff14" />
<rect x="62" y="55" width="1" height="1" fill="#39ff14" />
<rect x="59" y="56" width="1" height="1" fill="#39ff14" />
<rect x="62" y="56" width="1" height="1" fill="#39ff14" />
<rect x="58" y="57" width="1" height="1" fill="#39ff14" />
<rect x="59" y="57" width="1" height="1" fill="#39ff14" />
<rect x="60" y="57" width="1" height="1" fill="#39ff14" />
<rect x="61" y="57" width="1" height="1" fill="#39ff14" />
<rect x="11" y="58" width="1" height="1" fill="#39ff14" />
<rect x="12" y="58" width="1" height="1" fill="#39ff14" />
<rect x="13" y="58" width="1" height="1" fill="#39ff14" />
<rect x="58" y="58" width="1" height="1" fill="#39ff14" />
<rect x="59" y="58" width="1" height="1" fill="#39ff14" />
<rect x="12" y="59" width="1" height="1" fill="#39ff14" />
<rect x="57" y="59" width="1" height="1" fill="#39ff14" />
<rect x="10" y="60" width="1" height="1" fill="#39ff14" />
<rect x="11" y="60" width="1" height="1" fill="#39ff14" />
<rect x="12" y="60" width="1" height="1" fill="#39ff14" />
<rect x="58" y="60" width="1" height="1" fill="#39ff14" />
<rect x="58" y="61" width="1" height="1" fill="#39ff14" />
</svg>