<?xml version="1.0" encoding="utf-8"?>
<svg xmlns="http://www.w3.org/2000/svg" width="83" height="63" viewBox="0 0 83 63">
<rect width="100%" height="100%" fill="transparent" />
<rect x="24" y="4" width="5" height="5" fill="#39ff14" />
<rect x="54" y="4" width="5" height="5" fill="#39ff14" />
<rect x="19" y="9" width="5" height="5" fill="#39ff14" />
<rect x="24" y="9" width="5" height="5" fill="#39ff14" />
<rect x="29" y="9" width="5" height="5" fill="#39ff14" />
<rect x="49" y="9" width="5" height="5" fill="#39ff14" />
<rect x="54" y="9" width="5" height="5" fill="#39ff14" />
<rect x="59" y="9" width="5" height="5" fill="#39ff14" />
<rect x="14" y="14" width="5" height="5" fill="#39ff14" />
<rect x="29" y="14" width="5" height="5" fill="#39ff14" />
<rect x="49" y="14" width="5" height="5" fill="#39ff14" />
<rect x="64" y="14" width="5" height="5" fill="#39ff14" />
<rect x="9" y="19" width="5" height="5" fill="#39ff14" />
<rect x="14" y="19" width="5" height="5" fill="#39ff14" />
<rect x="19" y="19" width="5" height="5" fill="#39ff14" />
<rect x="59" y="19" width="5" height="5" fill="#39ff14" />
<rect x="64" y="19" width="5" height="5" fill="#39ff14" />
<rect x="69" y="19" width="5" height="5" fill="#39ff14" />
<rect x="14" y="24" width="5" height="5" fill="#39ff14" />
<rect x="24" y="24" width="5" height="5" fill="#39ff14" />
<rect x="54" y="24" width="5" height="5" fill="#39ff14" />
<rect x="64" y="24" width="5" height="5" fill="#39ff14" />
<rect x="24" y="29" width="5" height="5" fill="#39ff14" />
<rect x="29" y="29" width="5" height="5" fill="#39ff14" />
<rect x="49" y="29" width="5" height="5" fill="#39ff14" />
<rect x="54" y="29" width="5" height="5" fill="#39ff14" />
<rect x="4" y="34" width="5" height="5" fill="#39ff14" />
<rect x="29" y="34" width="5" height="5" fill="#39ff14" />
<rect x="49" y="34" width="5" height="5" fill="#39ff14" />
<rect x="74" y="34" width="5" height="5" fill="#39ff14" />
<rect x="29" y="39" width="5" height="5" fill="#39ff14" />
<rect x="49" y="39" width="5" height="5" fill="#39ff14" />
<rect x="4" y="44" width="5" height="5" fill="#39ff14" />
<rect x="9" y="44" width="5" height="5" fill="#39ff14" />
<rect x="29" y="44" width="5" height="5" fill="#39ff14" />
<rect x="49" y="44" width="5" height="5" fill="#39ff14" />
<rect x="69" y="44" width="5" height="5" fill="#39ff14" />
<rect x="74" y="44" width="5" height="5" fill="#39ff14" />
<rect x="14" y="49" width="5" height="5" fill="#39ff14" />
<rect x="29" y="49" width="5" height="5" fill="#39ff14" />
<rect x="49" y="49" width="5" height="5" fill="#39ff14" />
<rect x="64" y="49" width="5" height="5" fill="#39ff14" />
<rect x="24" y="54" width="5" height="5" fill="#39ff14" />
<rect x="54" y="54" width="5" height="5" fill="#39ff14" />
</svg>