<?xml version="1.0" encoding="utf-8"?>
<svg xmlns="http://www.w3.org/2000/svg" width="53" height="37" viewBox="0 0 53 37">
<rect width="100%" height="100%" fill="transparent" />
<rect x="4" y="4" width="1" height="1" fill="#39ff14" />
<rect x="6" y="4" width="1" height="1" fill="#39ff14" />
<rect x="5" y="5" width="1" height="1" fill="#39ff14" />
<rect x="6" y="5" width="1" height="1" fill="#39ff14" />
<rect x="5" y="6" width="1" height="1" fill="#39ff14" />
<rect x="21" y="28" width="1" height="1" fill="#39ff14" />
<rect x="19" y="29" width="1" height="1" fill="#39ff14" />
<rect x="21" y="29" width="1" height="1" fill="#39ff14" />
<rect x="24" y="29" width="1" height="1" fill="#39ff14" />
<rect x="20" y="30" width="1" height="1" fill="#39ff14" />
<rect x="21" y="30" width="1" height="1" fill="#39ff14" />
<rect x="24" y="30" width="1" height="1" fill="#39ff14" />
<rect x="26" y="30" width="1" height="1" fill="#39ff14" />
<rect x="47" y="30" width="1" height="1" fill="#39ff14" />
<rect x="24" y="31" width="1" height="1" fill="#39ff14" />
<rect x="25" y="31" width="1" height="1" fill="#39ff14" />
<rect x="46" y="31" width="1" height="1" fill="#39ff14" />
<rect x="47" y="31" width="1" height="1" fill="#39ff14" />
<rect x="46" y="32" width="1" height="1" fill="#39ff14" />
<rect x="48" y="32" width="1" height="1" fill="#39ff14" />
</svg>