<?xml version="1.0" encoding="utf-8"?>
<svg xmlns="http://www.w3.org/2000/svg" width="60" height="58" viewBox="0 0 60 58">
<rect width="100%" height="100%" fill="transparent" />
<rect x="8" y="4" width="1" height="1" fill="#39ff14" />
<rect x="10" y="4" width="1" height="1" fill="#39ff14" />
<rect x="11" y="4" width="1" height="1" fill="#39ff14" />
<rect x="8" y="5" width="1" height="1" fill="#39ff14" />
<rect x="9" y="5" width="1" height="1" fill="#39ff14" />
<rect x="12" y="5" width="1" height="1" fill="#39ff14" />
<rect x="11" y="6" width="1" height="1" fill="#39ff14" />
<rect x="14" y="6" width="1" height="1" fill="#39ff14" />
<rect x="6" y="7" width="1" height="1" fill="#39ff14" />
<rect x="7" y="7" width="1" height="1" fill="#39ff14" />
<rect x="8" y="7" width="1" height="1" fill="#39ff14" />
<rect x="9" y="7" width="1" height="1" fill="#39ff14" />
<rect x="10" y="7" width="1" height="1" fill="#39ff14" />
<rect x="12" y="7" width="1" height="1" fill="#39ff14" />
<rect x="13" y="7" width="1" height="1" fill="#39ff14" />
<rect x="15" y="7" width="1" height="1" fill="#39ff14" />
<rect x="18" y="7" width="1" height="1" fill="#39ff14" />
<rect x="5" y="8" width="1" height="1" fill="#39ff14" />
<rect x="8" y="8" width="1" height="1" fill="#39ff14" />
<rect x="12" y="8" width="1" height="1" fill="#39ff14" />
<rect x="15" y="8" width="1" height="1" fill="#39ff14" />
<rect x="16" y="8" width="1" height="1" fill="#39ff14" />
<rect x="17" y="8" width="1" height="1" fill="#39ff14" />
<rect x="18" y="8" width="1" height="1" fill="#39ff14" />
<rect x="5" y="9" width="1" height="1" fill="#39ff14" />
<rect x="7" y="9" width="1" height="1" fill="#39ff14" />
<rect x="8" y="9" width="1" height="1" fill="#39ff14" />
<rect x="10" y="9" width="1" height="1" fill="#39ff14" />
<rect x="12" y="9" width="1" height="1" fill="#39ff14" />
<rect x="14" y="9" width="1" height="1" fill="#39ff14" />
<rect x="21" y="9" width="1" height="1" fill="#39ff14" />
<rect x="4" y="10" width="1" height="1" fill="#39ff14" />
<rect x="5" y="10" width="1" height="1" fill="#39ff14" />
<rect x="7" y="10" width="1" height="1" fill="#39ff14" />
<rect x="9" y="10" width="1" height="1" fill="#39ff14" />
<rect x="10" y="10" width="1" height="1" fill="#39ff14" />
<rect x="11" y="10" width="1" height="1" fill="#39ff14" />
<rect x="12" y="10" width="1" height="1" fill="#39ff14" />
<rect x="14" y="10" width="1" height="1" fill="#39ff14" />
<rect x="17" y="10" width="1" height="1" fill="#39ff14" />
<rect x="18" y="10" width="1" height="1" fill="#39ff14" />
<rect x="19" y="10" width="1" height="1" fill="#39ff14" />
<rect x="20" y="10" width="1" height="1" fill="#39ff14" />
<rect x="21" y="10" width="1" height="1" fill="#39ff14" />
<rect x="7" y="11" width="1" height="1" fill="#39ff14" />
<rect x="14" y="11" width="1" height="1" fill="#39ff14" />
<rect x="16" y="11" width="1" height="1" fill="#39ff14" />
<rect x="22" y="11" width="1" height="1" fill="#39ff14" />
<rect x="23" y="11" width="1" height="1" fill="#39ff14" />
<rect x="4" y="12" width="1" height="1" fill="#39ff14" />
<rect x="5" y="12" width="1" height="1" fill="#39ff14" />
<rect x="7" y="12" width="1" height="1" fill="#39ff14" />
<rect x="9" y="12" width="1" height="1" fill="#39ff14" />
<rect x="10" y="12" width="1" height="1" fill="#39ff14" />
<rect x="11" y="12" width="1" height="1" fill="#39ff14" />
<rect x="12" y="12" width="1" height="1" fill="#39ff14" />
<rect x="14" y="12" width="1" height="1" fill="#39ff14" />
<rect x="17" y="12" width="1" height="1" fill="#39ff14" />
<rect x="19" y="12" width="1" height="1" fill="#39ff14" />
<rect x="20" y="12" width="1" height="1" fill="#39ff14" />
<rect x="22" y="12" width="1" height="1" fill="#39ff14" />
<rect x="24" y="12" width="1" height="1" fill="#39ff14" />
<rect x="4" y="13" width="1" height="1" fill="#39ff14" />
<rect x="7" y="13" width="1" height="1" fill="#39ff14" />
<rect x="9" y="13" width="1" height="1" fill="#39ff14" />
<rect x="12" y="13" width="1" height="1" fill="#39ff14" />
<rect x="14" y="13" width="1" height="1" fill="#39ff14" />
<rect x="15" y="13" width="1" height="1" fill="#39ff14" />
<rect x="17" y="13" width="1" height="1" fill="#39ff14" />
<rect x="19" y="13" width="1" height="1" fill="#39ff14" />
<rect x="21" y="13" width="1" height="1" fill="#39ff14" />
<rect x="24" y="13" width="1" height="1" fill="#39ff14" />
<rect x="6" y="14" width="1" height="1" fill="#39ff14" />
<rect x="7" y="14" width="1" height="1" fill="#39ff14" />
<rect x="10" y="14" width="1" height="1" fill="#39ff14" />
<rect x="13" y="14" width="1" height="1" fill="#39ff14" />
<rect x="17" y="14" width="1" height="1" fill="#39ff14" />
<rect x="19" y="14" width="1" height="1" fill="#39ff14" />
<rect x="24" y="14" width="1" height="1" fill="#39ff14" />
<rect x="26" y="14" width="1" height="1" fill="#39ff14" />
<rect x="27" y="14" width="1" height="1" fill="#39ff14" />
<rect x="8" y="15" width="1" height="1" fill="#39ff14" />
<rect x="9" y="15" width="1" height="1" fill="#39ff14" />
<rect x="14" y="15" width="1" height="1" fill="#39ff14" />
<rect x="15" y="15" width="1" height="1" fill="#39ff14" />
<rect x="16" y="15" width="1" height="1" fill="#39ff14" />
<rect x="17" y="15" width="1" height="1" fill="#39ff14" />
<rect x="19" y="15" width="1" height="1" fill="#39ff14" />
<rect x="20" y="15" width="1" height="1" fill="#39ff14" />
<rect x="23" y="15" width="1" height="1" fill="#39ff14" />
<rect x="24" y="15" width="1" height="1" fill="#39ff14" />
<rect x="27" y="15" width="1" height="1" fill="#39ff14" />
<rect x="8" y="16" width="1" height="1" fill="#39ff14" />
<rect x="12" y="16" width="1" height="1" fill="#39ff14" />
<rect x="14" y="16" width="1" height="1" fill="#39ff14" />
<rect x="21" y="16" width="1" height="1" fill="#39ff14" />
<rect x="25" y="16" width="1" height="1" fill="#39ff14" />
<rect x="9" y="17" width="1" height="1" fill="#39ff14" />
<rect x="10" y="17" width="1" height="1" fill="#39ff14" />
<rect x="11" y="17" width="1" height="1" fill="#39ff14" />
<rect x="12" y="17" width="1" height="1" fill="#39ff14" />
<rect x="14" y="17" width="1" height="1" fill="#39ff14" />
<rect x="16" y="17" width="1" height="1" fill="#39ff14" />
<rect x="17" y="17" width="1" height="1" fill="#39ff14" />
<rect x="18" y="17" width="1" height="1" fill="#39ff14" />
<rect x="19" y="17" width="1" height="1" fill="#39ff14" />
<rect x="20" y="17" width="1" height="1" fill="#39ff14" />
<rect x="22" y="17" width="1" height="1" fill="#39ff14" />
<rect x="23" y="17" width="1" height="1" fill="#39ff14" />
<rect x="24" y="17" width="1" height="1" fill="#39ff14" />
<rect x="28" y="17" width="1" height="1" fill="#39ff14" />
<rect x="13" y="18" width="1" height="1" fill="#39ff14" />
<rect x="15" y="18" width="1" height="1" fill="#39ff14" />
<rect x="20" y="18" width="1" height="1" fill="#39ff14" />
<rect x="22" y="18" width="1" height="1" fill="#39ff14" />
<rect x="25" y="18" width="1" height="1" fill="#39ff14" />
<rect x="26" y="18" width="1" height="1" fill="#39ff14" />
<rect x="27" y="18" width="1" height="1" fill="#39ff14" />
<rect x="28" y="18" width="1" height="1" fill="#39ff14" />
<rect x="11" y="19" width="1" height="1" fill="#39ff14" />
<rect x="15" y="19" width="1" height="1" fill="#39ff14" />
<rect x="18" y="19" width="1" height="1" fill="#39ff14" />
<rect x="22" y="19" width="1" height="1" fill="#39ff14" />
<rect x="24" y="19" width="1" height="1" fill="#39ff14" />
<rect x="31" y="19" width="1" height="1" fill="#39ff14" />
<rect x="11" y="20" width="1" height="1" fill="#39ff14" />
<rect x="12" y="20" width="1" height="1" fill="#39ff14" />
<rect x="15" y="20" width="1" height="1" fill="#39ff14" />
<rect x="17" y="20" width="1" height="1" fill="#39ff14" />
<rect x="19" y="20" width="1" height="1" fill="#39ff14" />
<rect x="20" y="20" width="1" height="1" fill="#39ff14" />
<rect x="21" y="20" width="1" height="1" fill="#39ff14" />
<rect x="22" y="20" width="1" height="1" fill="#39ff14" />
<rect x="24" y="20" width="1" height="1" fill="#39ff14" />
<rect x="27" y="20" width="1" height="1" fill="#39ff14" />
<rect x="28" y="20" width="1" height="1" fill="#39ff14" />
<rect x="29" y="20" width="1" height="1" fill="#39ff14" />
<rect x="30" y="20" width="1" height="1" fill="#39ff14" />
<rect x="31" y="20" width="1" height="1" fill="#39ff14" />
<rect x="14" y="21" width="1" height="1" fill="#39ff14" />
<rect x="15" y="21" width="1" height="1" fill="#39ff14" />
<rect x="17" y="21" width="1" height="1" fill="#39ff14" />
<rect x="24" y="21" width="1" height="1" fill="#39ff14" />
<rect x="26" y="21" width="1" height="1" fill="#39ff14" />
<rect x="32" y="21" width="1" height="1" fill="#39ff14" />
<rect x="33" y="21" width="1" height="1" fill="#39ff14" />
<rect x="17" y="22" width="1" height="1" fill="#39ff14" />
<rect x="19" y="22" width="1" height="1" fill="#39ff14" />
<rect x="20" y="22" width="1" height="1" fill="#39ff14" />
<rect x="21" y="22" width="1" height="1" fill="#39ff14" />
<rect x="22" y="22" width="1" height="1" fill="#39ff14" />
<rect x="24" y="22" width="1" height="1" fill="#39ff14" />
<rect x="27" y="22" width="1" height="1" fill="#39ff14" />
<rect x="29" y="22" width="1" height="1" fill="#39ff14" />
<rect x="30" y="22" width="1" height="1" fill="#39ff14" />
<rect x="32" y="22" width="1" height="1" fill="#39ff14" />
<rect x="34" y="22" width="1" height="1" fill="#39ff14" />
<rect x="17" y="23" width="1" height="1" fill="#39ff14" />
<rect x="19" y="23" width="1" height="1" fill="#39ff14" />
<rect x="22" y="23" width="1" height="1" fill="#39ff14" />
<rect x="24" y="23" width="1" height="1" fill="#39ff14" />
<rect x="25" y="23" width="1" height="1" fill="#39ff14" />
<rect x="27" y="23" width="1" height="1" fill="#39ff14" />
<rect x="29" y="23" width="1" height="1" fill="#39ff14" />
<rect x="31" y="23" width="1" height="1" fill="#39ff14" />
<rect x="34" y="23" width="1" height="1" fill="#39ff14" />
<rect x="16" y="24" width="1" height="1" fill="#39ff14" />
<rect x="17" y="24" width="1" height="1" fill="#39ff14" />
<rect x="20" y="24" width="1" height="1" fill="#39ff14" />
<rect x="23" y="24" width="1" height="1" fill="#39ff14" />
<rect x="27" y="24" width="1" height="1" fill="#39ff14" />
<rect x="29" y="24" width="1" height="1" fill="#39ff14" />
<rect x="34" y="24" width="1" height="1" fill="#39ff14" />
<rect x="36" y="24" width="1" height="1" fill="#39ff14" />
<rect x="37" y="24" width="1" height="1" fill="#39ff14" />
<rect x="18" y="25" width="1" height="1" fill="#39ff14" />
<rect x="19" y="25" width="1" height="1" fill="#39ff14" />
<rect x="24" y="25" width="1" height="1" fill="#39ff14" />
<rect x="25" y="25" width="1" height="1" fill="#39ff14" />
<rect x="26" y="25" width="1" height="1" fill="#39ff14" />
<rect x="27" y="25" width="1" height="1" fill="#39ff14" />
<rect x="29" y="25" width="1" height="1" fill="#39ff14" />
<rect x="30" y="25" width="1" height="1" fill="#39ff14" />
<rect x="33" y="25" width="1" height="1" fill="#39ff14" />
<rect x="34" y="25" width="1" height="1" fill="#39ff14" />
<rect x="37" y="25" width="1" height="1" fill="#39ff14" />
<rect x="18" y="26" width="1" height="1" fill="#39ff14" />
<rect x="22" y="26" width="1" height="1" fill="#39ff14" />
<rect x="24" y="26" width="1" height="1" fill="#39ff14" />
<rect x="31" y="26" width="1" height="1" fill="#39ff14" />
<rect x="35" y="26" width="1" height="1" fill="#39ff14" />
<rect x="19" y="27" width="1" height="1" fill="#39ff14" />
<rect x="20" y="27" width="1" height="1" fill="#39ff14" />
<rect x="21" y="27" width="1" height="1" fill="#39ff14" />
<rect x="22" y="27" width="1" height="1" fill="#39ff14" />
<rect x="24" y="27" width="1" height="1" fill="#39ff14" />
<rect x="26" y="27" width="1" height="1" fill="#39ff14" />
<rect x="27" y="27" width="1" height="1" fill="#39ff14" />
<rect x="28" y="27" width="1" height="1" fill="#39ff14" />
<rect x="29" y="27" width="1" height="1" fill="#39ff14" />
<rect x="30" y="27" width="1" height="1" fill="#39ff14" />
<rect x="32" y="27" width="1" height="1" fill="#39ff14" />
<rect x="33" y="27" width="1" height="1" fill="#39ff14" />
<rect x="34" y="27" width="1" height="1" fill="#39ff14" />
<rect x="38" y="27" width="1" height="1" fill="#39ff14" />
<rect x="23" y="28" width="1" height="1" fill="#39ff14" />
<rect x="25" y="28" width="1" height="1" fill="#39ff14" />
<rect x="30" y="28" width="1" height="1" fill="#39ff14" />
<rect x="32" y="28" width="1" height="1" fill="#39ff14" />
<rect x="35" y="28" width="1" height="1" fill="#39ff14" />
<rect x="36" y="28" width="1" height="1" fill="#39ff14" />
<rect x="37" y="28" width="1" height="1" fill="#39ff14" />
<rect x="38" y="28" width="1" height="1" fill="#39ff14" />
<rect x="21" y="29" width="1" height="1" fill="#39ff14" />
<rect x="25" y="29" width="1" height="1" fill="#39ff14" />
<rect x="28" y="29" width="1" height="1" fill="#39ff14" />
<rect x="32" y="29" width="1" height="1" fill="#39ff14" />
<rect x="34" y="29" width="1" height="1" fill="#39ff14" />
<rect x="41" y="29" width="1" height="1" fill="#39ff14" />
<rect x="21" y="30" width="1" height="1" fill="#39ff14" />
<rect x="22" y="30" width="1" height="1" fill="#39ff14" />
<rect x="25" y="30" width="1" height="1" fill="#39ff14" />
<rect x="27" y="30" width="1" height="1" fill="#39ff14" />
<rect x="29" y="30" width="1" height="1" fill="#39ff14" />
<rect x="30" y="30" width="1" height="1" fill="#39ff14" />
<rect x="31" y="30" width="1" height="1" fill="#39ff14" />
<rect x="32" y="30" width="1" height="1" fill="#39ff14" />
<rect x="34" y="30" width="1" height="1" fill="#39ff14" />
<rect x="37" y="30" width="1" height="1" fill="#39ff14" />
<rect x="38" y="30" width="1" height="1" fill="#39ff14" />
<rect x="39" y="30" width="1" height="1" fill="#39ff14" />
<rect x="40" y="30" width="1" height="1" fill="#39ff14" />
<rect x="41" y="30" width="1" height="1" fill="#39ff14" />
<rect x="24" y="31" width="1" height="1" fill="#39ff14" />
<rect x="25" y="31" width="1" height="1" fill="#39ff14" />
<rect x="27" y="31" width="1" height="1" fill="#39ff14" />
<rect x="34" y="31" width="1" height="1" fill="#39ff14" />
<rect x="36" y="31" width="1" height="1" fill="#39ff14" />
<rect x="42" y="31" width="1" height="1" fill="#39ff14" />
<rect x="43" y="31" width="1" height="1" fill="#39ff14" />
<rect x="27" y="32" width="1" height="1" fill="#39ff14" />
<rect x="29" y="32" width="1" height="1" fill="#39ff14" />
<rect x="30" y="32" width="1" height="1" fill="#39ff14" />
<rect x="31" y="32" width="1" height="1" fill="#39ff14" />
<rect x="32" y="32" width="1" height="1" fill="#39ff14" />
<rect x="34" y="32" width="1" height="1" fill="#39ff14" />
<rect x="37" y="32" width="1" height="1" fill="#39ff14" />
<rect x="39" y="32" width="1" height="1" fill="#39ff14" />
<rect x="40" y="32" width="1" height="1" fill="#39ff14" />
<rect x="42" y="32" width="1" height="1" fill="#39ff14" />
<rect x="44" y="32" width="1" height="1" fill="#39ff14" />
<rect x="27" y="33" width="1" height="1" fill="#39ff14" />
<rect x="29" y="33" width="1" height="1" fill="#39ff14" />
<rect x="32" y="33" width="1" height="1" fill="#39ff14" />
<rect x="34" y="33" width="1" height="1" fill="#39ff14" />
<rect x="35" y="33" width="1" height="1" fill="#39ff14" />
<rect x="37" y="33" width="1" height="1" fill="#39ff14" />
<rect x="39" y="33" width="1" height="1" fill="#39ff14" />
<rect x="41" y="33" width="1" height="1" fill="#39ff14" />
<rect x="44" y="33" width="1" height="1" fill="#39ff14" />
<rect x="26" y="34" width="1" height="1" fill="#39ff14" />
<rect x="27" y="34" width="1" height="1" fill="#39ff14" />
<rect x="30" y="34" width="1" height="1" fill="#39ff14" />
<rect x="33" y="34" width="1" height="1" fill="#39ff14" />
<rect x="37" y="34" width="1" height="1" fill="#39ff14" />
<rect x="39" y="34" width="1" height="1" fill="#39ff14" />
<rect x="44" y="34" width="1" height="1" fill="#39ff14" />
<rect x="46" y="34" width="1" height="1" fill="#39ff14" />
<rect x="47" y="34" width="1" height="1" fill="#39ff14" />
<rect x="28" y="35" width="1" height="1" fill="#39ff14" />
<rect x="29" y="35" width="1" height="1" fill="#39ff14" />
<rect x="34" y="35" width="1" height="1" fill="#39ff14" />
<rect x="35" y="35" width="1" height="1" fill="#39ff14" />
<rect x="36" y="35" width="1" height="1" fill="#39ff14" />
<rect x="37" y="35" width="1" height="1" fill="#39ff14" />
<rect x="39" y="35" width="1" height="1" fill="#39ff14" />
<rect x="40" y="35" width="1" height="1" fill="#39ff14" />
<rect x="43" y="35" width="1" height="1" fill="#39ff14" />
<rect x="44" y="35" width="1" height="1" fill="#39ff14" />
<rect x="47" y="35" width="1" height="1" fill="#39ff14" />
<rect x="28" y="36" width="1" height="1" fill="#39ff14" />
<rect x="32" y="36" width="1" height="1" fill="#39ff14" />
<rect x="34" y="36" width="1" height="1" fill="#39ff14" />
<rect x="41" y="36" width="1" height="1" fill="#39ff14" />
<rect x="45" y="36" width="1" height="1" fill="#39ff14" />
<rect x="29" y="37" width="1" height="1" fill="#39ff14" />
<rect x="30" y="37" width="1" height="1" fill="#39ff14" />
<rect x="31" y="37" width="1" height="1" fill="#39ff14" />
<rect x="32" y="37" width="1" height="1" fill="#39ff14" />
<rect x="34" y="37" width="1" height="1" fill="#39ff14" />
<rect x="36" y="37" width="1" height="1" fill="#39ff14" />
<rect x="37" y="37" width="1" height="1" fill="#39ff14" />
<rect x="38" y="37" width="1" height="1" fill="#39ff14" />
<rect x="39" y="37" width="1" height="1" fill="#39ff14" />
<rect x="40" y="37" width="1" height="1" fill="#39ff14" />
<rect x="42" y="37" width="1" height="1" fill="#39ff14" />
<rect x="43" y="37" width="1" height="1" fill="#39ff14" />
<rect x="44" y="37" width="1" height="1" fill="#39ff14" />
<rect x="48" y="37" width="1" height="1" fill="#39ff14" />
<rect x="33" y="38" width="1" height="1" fill="#39ff14" />
<rect x="35" y="38" width="1" height="1" fill="#39ff14" />
<rect x="40" y="38" width="1" height="1" fill="#39ff14" />
<rect x="42" y="38" width="1" height="1" fill="#39ff14" />
<rect x="45" y="38" width="1" height="1" fill="#39ff14" />
<rect x="46" y="38" width="1" height="1" fill="#39ff14" />
<rect x="47" y="38" width="1" height="1" fill="#39ff14" />
<rect x="48" y="38" width="1" height="1" fill="#39ff14" />
<rect x="31" y="39" width="1" height="1" fill="#39ff14" />
<rect x="35" y="39" width="1" height="1" fill="#39ff14" />
<rect x="38" y="39" width="1" height="1" fill="#39ff14" />
<rect x="42" y="39" width="1" height="1" fill="#39ff14" />
<rect x="44" y="39" width="1" height="1" fill="#39ff14" />
<rect x="51" y="39" width="1" height="1" fill="#39ff14" />
<rect x="31" y="40" width="1" height="1" fill="#39ff14" />
<rect x="32" y="40" width="1" height="1" fill="#39ff14" />
<rect x="35" y="40" width="1" height="1" fill="#39ff14" />
<rect x="37" y="40" width="1" height="1" fill="#39ff14" />
<rect x="39" y="40" width="1" height="1" fill="#39ff14" />
<rect x="40" y="40" width="1" height="1" fill="#39ff14" />
<rect x="41" y="40" width="1" height="1" fill="#39ff14" />
<rect x="42" y="40" width="1" height="1" fill="#39ff14" />
<rect x="44" y="40" width="1" height="1" fill="#39ff14" />
<rect x="47" y="40" width="1" height="1" fill="#39ff14" />
<rect x="48" y="40" width="1" height="1" fill="#39ff14" />
<rect x="49" y="40" width="1" height="1" fill="#39ff14" />
<rect x="50" y="40" width="1" height="1" fill="#39ff14" />
<rect x="51" y="40" width="1" height="1" fill="#39ff14" />
<rect x="34" y="41" width="1" height="1" fill="#39ff14" />
<rect x="35" y="41" width="1" height="1" fill="#39ff14" />
<rect x="37" y="41" width="1" height="1" fill="#39ff14" />
<rect x="44" y="41" width="1" height="1" fill="#39ff14" />
<rect x="46" y="41" width="1" height="1" fill="#39ff14" />
<rect x="52" y="41" width="1" height="1" fill="#39ff14" />
<rect x="53" y="41" width="1" height="1" fill="#39ff14" />
<rect x="37" y="42" width="1" height="1" fill="#39ff14" />
<rect x="39" y="42" width="1" height="1" fill="#39ff14" />
<rect x="40" y="42" width="1" height="1" fill="#39ff14" />
<rect x="41" y="42" width="1" height="1" fill="#39ff14" />
<rect x="42" y="42" width="1" height="1" fill="#39ff14" />
<rect x="44" y="42" width="1" height="1" fill="#39ff14" />
<rect x="47" y="42" width="1" height="1" fill="#39ff14" />
<rect x="49" y="42" width="1" height="1" fill="#39ff14" />
<rect x="50" y="42" width="1" height="1" fill="#39ff14" />
<rect x="52" y="42" width="1" height="1" fill="#39ff14" />
<rect x="55" y="42" width="1" height="1" fill="#39ff14" />
<rect x="37" y="43" width="1" height="1" fill="#39ff14" />
<rect x="39" y="43" width="1" height="1" fill="#39ff14" />
<rect x="42" y="43" width="1" height="1" fill="#39ff14" />
<rect x="44" y="43" width="1" height="1" fill="#39ff14" />
<rect x="45" y="43" width="1" height="1" fill="#39ff14" />
<rect x="47" y="43" width="1" height="1" fill="#39ff14" />
<rect x="49" y="43" width="1" height="1" fill="#39ff14" />
<rect x="51" y="43" width="1" height="1" fill="#39ff14" />
<rect x="54" y="43" width="1" height="1" fill="#39ff14" />
<rect x="55" y="43" width="1" height="1" fill="#39ff14" />
<rect x="36" y="44" width="1" height="1" fill="#39ff14" />
<rect x="37" y="44" width="1" height="1" fill="#39ff14" />
<rect x="40" y="44" width="1" height="1" fill="#39ff14" />
<rect x="43" y="44" width="1" height="1" fill="#39ff14" />
<rect x="47" y="44" width="1" height="1" fill="#39ff14" />
<rect x="49" y="44" width="1" height="1" fill="#39ff14" />
<rect x="38" y="45" width="1" height="1" fill="#39ff14" />
<rect x="39" y="45" width="1" height="1" fill="#39ff14" />
<rect x="44" y="45" width="1" height="1" fill="#39ff14" />
<rect x="45" y="45" width="1" height="1" fill="#39ff14" />
<rect x="46" y="45" width="1" height="1" fill="#39ff14" />
<rect x="47" y="45" width="1" height="1" fill="#39ff14" />
<rect x="49" y="45" width="1" height="1" fill="#39ff14" />
<rect x="50" y="45" width="1" height="1" fill="#39ff14" />
<rect x="38" y="46" width="1" height="1" fill="#39ff14" />
<rect x="42" y="46" width="1" height="1" fill="#39ff14" />
<rect x="44" y="46" width="1" height="1" fill="#39ff14" />
<rect x="51" y="46" width="1" height="1" fill="#39ff14" />
<rect x="39" y="47" width="1" height="1" fill="#39ff14" />
<rect x="40" y="47" width="1" height="1" fill="#39ff14" />
<rect x="41" y="47" width="1" height="1" fill="#39ff14" />
<rect x="42" y="47" width="1" height="1" fill="#39ff14" />
<rect x="44" y="47" width="1" height="1" fill="#39ff14" />
<rect x="46" y="47" width="1" height="1" fill="#39ff14" />
<rect x="47" y="47" width="1" height="1" fill="#39ff14" />
<rect x="48" y="47" width="1" height="1" fill="#39ff14" />
<rect x="49" y="47" width="1" height="1" fill="#39ff14" />
<rect x="50" y="47" width="1" height="1" fill="#39ff14" />
<rect x="52" y="47" width="1" height="1" fill="#39ff14" />
<rect x="43" y="48" width="1" height="1" fill="#39ff14" />
<rect x="45" y="48" width="1" height="1" fill="#39ff14" />
<rect x="50" y="48" width="1" height="1" fill="#39ff14" />
<rect x="52" y="48" width="1" height="1" fill="#39ff14" />
<rect x="41" y="49" width="1" height="1" fill="#39ff14" />
<rect x="45" y="49" width="1" height="1" fill="#39ff14" />
<rect x="48" y="49" width="1" height="1" fill="#39ff14" />
<rect x="52" y="49" width="1" height="1" fill="#39ff14" />
<rect x="53" y="49" width="1" height="1" fill="#39ff14" />
<rect x="41" y="50" width="1" height="1" fill="#39ff14" />
<rect x="42" y="50" width="1" height="1" fill="#39ff14" />
<rect x="45" y="50" width="1" height="1" fill="#39ff14" />
<rect x="47" y="50" width="1" height="1" fill="#39ff14" />
<rect x="49" y="50" width="1" height="1" fill="#39ff14" />
<rect x="50" y="50" width="1" height="1" fill="#39ff14" />
<rect x="51" y="50" width="1" height="1" fill="#39ff14" />
<rect x="54" y="50" width="1" height="1" fill="#39ff14" />
<rect x="44" y="51" width="1" height="1" fill="#39ff14" />
<rect x="45" y="51" width="1" height="1" fill="#39ff14" />
<rect x="47" y="51" width="1" height="1" fill="#39ff14" />
<rect x="53" y="51" width="1" height="1" fill="#39ff14" />
<rect x="48" y="52" width="1" height="1" fill="#39ff14" />
<rect x="50" y="52" width="1" height="1" fill="#39ff14" />
<rect x="51" y="52" width="1" height="1" fill="#39ff14" />
<rect x="52" y="52" width="1" height="1" fill="#39ff14" />
<rect x="49" y="53" width="1" height="1" fill="#39ff14" />
<rect x="50" y="53" width="1" height="1" fill="#39ff14" />
</svg>