<?xml version="1.0" encoding="utf-8"?>
<svg xmlns="http://www.w3.org/2000/svg" width="71" height="62" viewBox="0 0 71 62">
<rect width="100%" height="100%" fill="transparent" />
<rect x="58" y="4" width="1" height="1" fill="#39ff14" />
<rect x="59" y="4" width="1" height="1" fill="#39ff14" />
<rect x="57" y="5" width="1" height="1" fill="#39ff14" />
<rect x="58" y="5" width="1" height="1" fill="#39ff14" />
<rect x="51" y="6" width="1" height="1" fill="#39ff14" />
<rect x="52" y="6" width="1" height="1" fill="#39ff14" />
<rect x="58" y="6" width="1" height="1" fill="#39ff14" />
<rect x="50" y="7" width="1" height="1" fill="#39ff14" />
<rect x="51" y="7" width="1" height="1" fill="#39ff14" />
<rect x="57" y="7" width="1" height="1" fill="#39ff14" />
<rect x="58" y="7" width="1" height="1" fill="#39ff14" />
<rect x="52" y="8" width="1" height="1" fill="#39ff14" />
<rect x="57" y="8" width="1" height="1" fill="#39ff14" />
<rect x="59" y="8" width="1" height="1" fill="#39ff14" />
<rect x="62" y="8" width="1" height="1" fill="#39ff14" />
<rect x="63" y="8" width="1" height="1" fill="#39ff14" />
<rect x="54" y="9" width="1" height="1" fill="#39ff14" />
<rect x="55" y="9" width="1" height="1" fill="#39ff14" />
<rect x="59" y="9" width="1" height="1" fill="#39ff14" />
<rect x="60" y="9" width="1" height="1" fill="#39ff14" />
<rect x="62" y="9" width="1" height="1" fill="#39ff14" />
<rect x="63" y="9" width="1" height="1" fill="#39ff14" />
<rect x="64" y="9" width="1" height="1" fill="#39ff14" />
<rect x="65" y="9" width="1" height="1" fill="#39ff14" />
<rect x="54" y="10" width="1" height="1" fill="#39ff14" />
<rect x="55" y="10" width="1" height="1" fill="#39ff14" />
<rect x="66" y="10" width="1" height="1" fill="#39ff14" />
<rect x="66" y="11" width="1" height="1" fill="#39ff14" />
<rect x="60" y="12" width="1" height="1" fill="#39ff14" />
<rect x="62" y="13" width="1" height="1" fill="#39ff14" />
<rect x="63" y="13" width="1" height="1" fill="#39ff14" />
<rect x="62" y="15" width="1" height="1" fill="#39ff14" />
<rect x="63" y="15" width="1" height="1" fill="#39ff14" />
<rect x="64" y="15" width="1" height="1" fill="#39ff14" />
<rect x="61" y="16" width="1" height="1" fill="#39ff14" />
<rect x="62" y="16" width="1" height="1" fill="#39ff14" />
<rect x="65" y="16" width="1" height="1" fill="#39ff14" />
<rect x="35" y="17" width="1" height="1" fill="#39ff14" />
<rect x="36" y="17" width="1" height="1" fill="#39ff14" />
<rect x="63" y="17" width="1" height="1" fill="#39ff14" />
<rect x="34" y="18" width="1" height="1" fill="#39ff14" />
<rect x="35" y="18" width="1" height="1" fill="#39ff14" />
<rect x="35" y="19" width="1" height="1" fill="#39ff14" />
<rect x="37" y="19" width="1" height="1" fill="#39ff14" />
<rect x="57" y="19" width="1" height="1" fill="#39ff14" />
<rect x="58" y="19" width="1" height="1" fill="#39ff14" />
<rect x="59" y="19" width="1" height="1" fill="#39ff14" />
<rect x="62" y="19" width="1" height="1" fill="#39ff14" />
<rect x="30" y="20" width="1" height="1" fill="#39ff14" />
<rect x="35" y="20" width="1" height="1" fill="#39ff14" />
<rect x="36" y="20" width="1" height="1" fill="#39ff14" />
<rect x="37" y="20" width="1" height="1" fill="#39ff14" />
<rect x="57" y="20" width="1" height="1" fill="#39ff14" />
<rect x="60" y="20" width="1" height="1" fill="#39ff14" />
<rect x="61" y="20" width="1" height="1" fill="#39ff14" />
<rect x="62" y="20" width="1" height="1" fill="#39ff14" />
<rect x="29" y="21" width="1" height="1" fill="#39ff14" />
<rect x="30" y="21" width="1" height="1" fill="#39ff14" />
<rect x="31" y="21" width="1" height="1" fill="#39ff14" />
<rect x="32" y="21" width="1" height="1" fill="#39ff14" />
<rect x="33" y="21" width="1" height="1" fill="#39ff14" />
<rect x="35" y="21" width="1" height="1" fill="#39ff14" />
<rect x="36" y="21" width="1" height="1" fill="#39ff14" />
<rect x="37" y="21" width="1" height="1" fill="#39ff14" />
<rect x="40" y="21" width="1" height="1" fill="#39ff14" />
<rect x="42" y="21" width="1" height="1" fill="#39ff14" />
<rect x="43" y="21" width="1" height="1" fill="#39ff14" />
<rect x="60" y="21" width="1" height="1" fill="#39ff14" />
<rect x="61" y="21" width="1" height="1" fill="#39ff14" />
<rect x="29" y="22" width="1" height="1" fill="#39ff14" />
<rect x="32" y="22" width="1" height="1" fill="#39ff14" />
<rect x="33" y="22" width="1" height="1" fill="#39ff14" />
<rect x="40" y="22" width="1" height="1" fill="#39ff14" />
<rect x="44" y="22" width="1" height="1" fill="#39ff14" />
<rect x="45" y="22" width="1" height="1" fill="#39ff14" />
<rect x="47" y="22" width="1" height="1" fill="#39ff14" />
<rect x="48" y="22" width="1" height="1" fill="#39ff14" />
<rect x="58" y="22" width="1" height="1" fill="#39ff14" />
<rect x="59" y="22" width="1" height="1" fill="#39ff14" />
<rect x="61" y="22" width="1" height="1" fill="#39ff14" />
<rect x="62" y="22" width="1" height="1" fill="#39ff14" />
<rect x="39" y="23" width="1" height="1" fill="#39ff14" />
<rect x="44" y="23" width="1" height="1" fill="#39ff14" />
<rect x="45" y="23" width="1" height="1" fill="#39ff14" />
<rect x="49" y="23" width="1" height="1" fill="#39ff14" />
<rect x="50" y="23" width="1" height="1" fill="#39ff14" />
<rect x="52" y="23" width="1" height="1" fill="#39ff14" />
<rect x="53" y="23" width="1" height="1" fill="#39ff14" />
<rect x="61" y="23" width="1" height="1" fill="#39ff14" />
<rect x="62" y="23" width="1" height="1" fill="#39ff14" />
<rect x="31" y="24" width="1" height="1" fill="#39ff14" />
<rect x="32" y="24" width="1" height="1" fill="#39ff14" />
<rect x="35" y="24" width="1" height="1" fill="#39ff14" />
<rect x="36" y="24" width="1" height="1" fill="#39ff14" />
<rect x="38" y="24" width="1" height="1" fill="#39ff14" />
<rect x="39" y="24" width="1" height="1" fill="#39ff14" />
<rect x="42" y="24" width="1" height="1" fill="#39ff14" />
<rect x="43" y="24" width="1" height="1" fill="#39ff14" />
<rect x="49" y="24" width="1" height="1" fill="#39ff14" />
<rect x="50" y="24" width="1" height="1" fill="#39ff14" />
<rect x="54" y="24" width="1" height="1" fill="#39ff14" />
<rect x="55" y="24" width="1" height="1" fill="#39ff14" />
<rect x="57" y="24" width="1" height="1" fill="#39ff14" />
<rect x="59" y="24" width="1" height="1" fill="#39ff14" />
<rect x="39" y="25" width="1" height="1" fill="#39ff14" />
<rect x="47" y="25" width="1" height="1" fill="#39ff14" />
<rect x="48" y="25" width="1" height="1" fill="#39ff14" />
<rect x="54" y="25" width="1" height="1" fill="#39ff14" />
<rect x="55" y="25" width="1" height="1" fill="#39ff14" />
<rect x="25" y="26" width="1" height="1" fill="#39ff14" />
<rect x="26" y="26" width="1" height="1" fill="#39ff14" />
<rect x="27" y="26" width="1" height="1" fill="#39ff14" />
<rect x="31" y="26" width="1" height="1" fill="#39ff14" />
<rect x="37" y="26" width="1" height="1" fill="#39ff14" />
<rect x="38" y="26" width="1" height="1" fill="#39ff14" />
<rect x="52" y="26" width="1" height="1" fill="#39ff14" />
<rect x="53" y="26" width="1" height="1" fill="#39ff14" />
<rect x="58" y="26" width="1" height="1" fill="#39ff14" />
<rect x="25" y="27" width="1" height="1" fill="#39ff14" />
<rect x="31" y="27" width="1" height="1" fill="#39ff14" />
<rect x="34" y="27" width="1" height="1" fill="#39ff14" />
<rect x="36" y="27" width="1" height="1" fill="#39ff14" />
<rect x="37" y="27" width="1" height="1" fill="#39ff14" />
<rect x="57" y="27" width="1" height="1" fill="#39ff14" />
<rect x="26" y="28" width="1" height="1" fill="#39ff14" />
<rect x="30" y="28" width="1" height="1" fill="#39ff14" />
<rect x="31" y="28" width="1" height="1" fill="#39ff14" />
<rect x="33" y="28" width="1" height="1" fill="#39ff14" />
<rect x="29" y="29" width="1" height="1" fill="#39ff14" />
<rect x="30" y="29" width="1" height="1" fill="#39ff14" />
<rect x="34" y="29" width="1" height="1" fill="#39ff14" />
<rect x="36" y="29" width="1" height="1" fill="#39ff14" />
<rect x="17" y="30" width="1" height="1" fill="#39ff14" />
<rect x="18" y="30" width="1" height="1" fill="#39ff14" />
<rect x="19" y="30" width="1" height="1" fill="#39ff14" />
<rect x="30" y="30" width="1" height="1" fill="#39ff14" />
<rect x="17" y="31" width="1" height="1" fill="#39ff14" />
<rect x="23" y="31" width="1" height="1" fill="#39ff14" />
<rect x="24" y="31" width="1" height="1" fill="#39ff14" />
<rect x="25" y="31" width="1" height="1" fill="#39ff14" />
<rect x="28" y="31" width="1" height="1" fill="#39ff14" />
<rect x="29" y="31" width="1" height="1" fill="#39ff14" />
<rect x="18" y="32" width="1" height="1" fill="#39ff14" />
<rect x="21" y="32" width="1" height="1" fill="#39ff14" />
<rect x="22" y="32" width="1" height="1" fill="#39ff14" />
<rect x="24" y="32" width="1" height="1" fill="#39ff14" />
<rect x="25" y="32" width="1" height="1" fill="#39ff14" />
<rect x="26" y="32" width="1" height="1" fill="#39ff14" />
<rect x="28" y="32" width="1" height="1" fill="#39ff14" />
<rect x="29" y="32" width="1" height="1" fill="#39ff14" />
<rect x="20" y="33" width="1" height="1" fill="#39ff14" />
<rect x="31" y="33" width="1" height="1" fill="#39ff14" />
<rect x="21" y="34" width="1" height="1" fill="#39ff14" />
<rect x="23" y="34" width="1" height="1" fill="#39ff14" />
<rect x="25" y="34" width="1" height="1" fill="#39ff14" />
<rect x="26" y="34" width="1" height="1" fill="#39ff14" />
<rect x="31" y="34" width="1" height="1" fill="#39ff14" />
<rect x="23" y="35" width="1" height="1" fill="#39ff14" />
<rect x="24" y="35" width="1" height="1" fill="#39ff14" />
<rect x="26" y="35" width="1" height="1" fill="#39ff14" />
<rect x="21" y="36" width="1" height="1" fill="#39ff14" />
<rect x="22" y="36" width="1" height="1" fill="#39ff14" />
<rect x="26" y="36" width="1" height="1" fill="#39ff14" />
<rect x="28" y="36" width="1" height="1" fill="#39ff14" />
<rect x="20" y="37" width="1" height="1" fill="#39ff14" />
<rect x="21" y="37" width="1" height="1" fill="#39ff14" />
<rect x="22" y="38" width="1" height="1" fill="#39ff14" />
<rect x="19" y="39" width="1" height="1" fill="#39ff14" />
<rect x="20" y="39" width="1" height="1" fill="#39ff14" />
<rect x="18" y="40" width="1" height="1" fill="#39ff14" />
<rect x="19" y="40" width="1" height="1" fill="#39ff14" />
<rect x="20" y="40" width="1" height="1" fill="#39ff14" />
<rect x="17" y="41" width="1" height="1" fill="#39ff14" />
<rect x="18" y="41" width="1" height="1" fill="#39ff14" />
<rect x="20" y="41" width="1" height="1" fill="#39ff14" />
<rect x="16" y="42" width="1" height="1" fill="#39ff14" />
<rect x="17" y="42" width="1" height="1" fill="#39ff14" />
<rect x="18" y="42" width="1" height="1" fill="#39ff14" />
<rect x="19" y="42" width="1" height="1" fill="#39ff14" />
<rect x="21" y="42" width="1" height="1" fill="#39ff14" />
<rect x="21" y="43" width="1" height="1" fill="#39ff14" />
<rect x="22" y="43" width="1" height="1" fill="#39ff14" />
<rect x="23" y="43" width="1" height="1" fill="#39ff14" />
<rect x="22" y="44" width="1" height="1" fill="#39ff14" />
<rect x="23" y="44" width="1" height="1" fill="#39ff14" />
<rect x="14" y="45" width="1" height="1" fill="#39ff14" />
<rect x="15" y="45" width="1" height="1" fill="#39ff14" />
<rect x="16" y="45" width="1" height="1" fill="#39ff14" />
<rect x="18" y="45" width="1" height="1" fill="#39ff14" />
<rect x="19" y="45" width="1" height="1" fill="#39ff14" />
<rect x="13" y="46" width="1" height="1" fill="#39ff14" />
<rect x="17" y="46" width="1" height="1" fill="#39ff14" />
<rect x="18" y="46" width="1" height="1" fill="#39ff14" />
<rect x="19" y="46" width="1" height="1" fill="#39ff14" />
<rect x="16" y="47" width="1" height="1" fill="#39ff14" />
<rect x="17" y="47" width="1" height="1" fill="#39ff14" />
<rect x="18" y="47" width="1" height="1" fill="#39ff14" />
<rect x="12" y="48" width="1" height="1" fill="#39ff14" />
<rect x="14" y="48" width="1" height="1" fill="#39ff14" />
<rect x="16" y="48" width="1" height="1" fill="#39ff14" />
<rect x="11" y="49" width="1" height="1" fill="#39ff14" />
<rect x="12" y="49" width="1" height="1" fill="#39ff14" />
<rect x="13" y="49" width="1" height="1" fill="#39ff14" />
<rect x="14" y="49" width="1" height="1" fill="#39ff14" />
<rect x="11" y="50" width="1" height="1" fill="#39ff14" />
<rect x="12" y="51" width="1" height="1" fill="#39ff14" />
<rect x="13" y="51" width="1" height="1" fill="#39ff14" />
<rect x="13" y="52" width="1" height="1" fill="#39ff14" />
<rect x="16" y="52" width="1" height="1" fill="#39ff14" />
<rect x="4" y="53" width="1" height="1" fill="#39ff14" />
<rect x="5" y="53" width="1" height="1" fill="#39ff14" />
<rect x="4" y="54" width="1" height="1" fill="#39ff14" />
<rect x="6" y="54" width="1" height="1" fill="#39ff14" />
<rect x="10" y="54" width="1" height="1" fill="#39ff14" />
<rect x="11" y="54" width="1" height="1" fill="#39ff14" />
<rect x="12" y="54" width="1" height="1" fill="#39ff14" />
<rect x="4" y="55" width="1" height="1" fill="#39ff14" />
<rect x="8" y="55" width="1" height="1" fill="#39ff14" />
<rect x="13" y="55" width="1" height="1" fill="#39ff14" />
<rect x="7" y="56" width="1" height="1" fill="#39ff14" />
<rect x="8" y="56" width="1" height="1" fill="#39ff14" />
<rect x="7" y="57" width="1" height="1" fill="#39ff14" />
<rect x="13" y="57" width="1" height="1" fill="#39ff14" />
</svg>