<?xml version="1.0" encoding="utf-8"?>
<svg xmlns="http://www.w3.org/2000/svg" width="96" height="16" viewBox="0 0 96 16">
<rect width="100%" height="100%" fill="transparent" />
<rect x="4" y="4" width="2" height="2" fill="#39ff14" />
<rect x="6" y="4" width="2" height="2" fill="#39ff14" />
<rect x="14" y="4" width="2" height="2" fill="#39ff14" />
<rect x="16" y="4" width="2" height="2" fill="#39ff14" />
<rect x="24" y="4" width="2" height="2" fill="#39ff14" />
<rect x="26" y="4" width="2" height="2" fill="#39ff14" />
<rect x="34" y="4" width="2" height="2" fill="#39ff14" />
<rect x="36" y="4" width="2" height="2" fill="#39ff14" />
<rect x="44" y="4" width="2" height="2" fill="#39ff14" />
<rect x="46" y="4" width="2" height="2" fill="#39ff14" />
<rect x="54" y="4" width="2" height="2" fill="#39ff14" />
<rect x="56" y="4" width="2" height="2" fill="#39ff14" />
<rect x="64" y="4" width="2" height="2" fill="#39ff14" />
<rect x="66" y="4" width="2" height="2" fill="#39ff14" />
<rect x="74" y="4" width="2" height="2" fill="#39ff14" />
<rect x="76" y="4" width="2" height="2" fill="#39ff14" />
<rect x="84" y="4" width="2" height="2" fill="#39ff14" />
<rect x="86" y="4" width="2" height="2" fill="#39ff14" />
<rect x="8" y="6" width="2" height="2" fill="#39ff14" />
<rect x="10" y="6" width="2" height="2" fill="#39ff14" />
<rect x="18" y="6" width="2" height="2" fill="#39ff14" />
<rect x="20" y="6" width="2" height="2" fill="#39ff14" />
<rect x="28" y="6" width="2" height="2" fill="#39ff14" />
<rect x="30" y="6" width="2" height="2" fill="#39ff14" />
<rect x="38" y="6" width="2" height="2" fill="#39ff14" />
<rect x="40" y="6" width="2" height="2" fill="#39ff14" />
<rect x="48" y="6" width="2" height="2" fill="#39ff14" />
<rect x="50" y="6" width="2" height="2" fill="#39ff14" />
<rect x="58" y="6" width="2" height="2" fill="#39ff14" />
<rect x="60" y="6" width="2" height="2" fill="#39ff14" />
<rect x="68" y="6" width="2" height="2" fill="#39ff14" />
<rect x="70" y="6" width="2" height="2" fill="#39ff14" />
<rect x="78" y="6" width="2" height="2" fill="#39ff14" />
<rect x="80" y="6" width="2" height="2" fill="#39ff14" />
<rect x="88" y="6" width="2" height="2" fill="#39ff14" />
<rect x="90" y="6" width="2" height="2" fill="#39ff14" />
<rect x="8" y="8" width="2" height="2" fill="#39ff14" />
<rect x="10" y="8" width="2" height="2" fill="#39ff14" />
<rect x="18" y="8" width="2" height="2" fill="#39ff14" />
<rect x="20" y="8" width="2" height="2" fill="#39ff14" />
<rect x="28" y="8" width="2" height="2" fill="#39ff14" />
<rect x="30" y="8" width="2" height="2" fill="#39ff14" />
<rect x="38" y="8" width="2" height="2" fill="#39ff14" />
<rect x="40" y="8" width="2" height="2" fill="#39ff14" />
<rect x="48" y="8" width="2" height="2" fill="#39ff14" />
<rect x="50" y="8" width="2" height="2" fill="#39ff14" />
<rect x="58" y="8" width="2" height="2" fill="#39ff14" />
<rect x="60" y="8" width="2" height="2" fill="#39ff14" />
<rect x="68" y="8" width="2" height="2" fill="#39ff14" />
<rect x="70" y="8" width="2" height="2" fill="#39ff14" />
<rect x="78" y="8" width="2" height="2" fill="#39ff14" />
<rect x="80" y="8" width="2" height="2" fill="#39ff14" />
<rect x="88" y="8" width="2" height="2" fill="#39ff14" />
<rect x="90" y="8" width="2" height="2" fill="#39ff14" />
<rect x="4" y="10" width="2" height="2" fill="#39ff14" />
<rect x="6" y="10" width="2" height="2" fill="#39ff14" />
<rect x="14" y="10" width="2" height="2" fill="#39ff14" />
<rect x="16" y="10" width="2" height="2" fill="#39ff14" />
<rect x="24" y="10" width="2" height="2" fill="#39ff14" />
<rect x="26" y="10" width="2" height="2" fill="#39ff14" />
<rect x="34" y="10" width="2" height="2" fill="#39ff14" />
<rect x="36" y="10" width="2" height="2" fill="#39ff14" />
<rect x="44" y="10" width="2" height="2" fill="#39ff14" />
<rect x="46" y="10" width="2" height="2" fill="#39ff14" />
<rect x="54" y="10" width="2" height="2" fill="#39ff14" />
<rect x="56" y="10" width="2" height="2" fill="#39ff14" />
<rect x="64" y="10" width="2" height="2" fill="#39ff14" />
<rect x="66" y="10" width="2" height="2" fill="#39ff14" />
<rect x="74" y="10" width="2" height="2" fill="#39ff14" />
<rect x="76" y="10" width="2" height="2" fill="#39ff14" />
<rect x="84" y="10" width="2" height="2" fill="#39ff14" />
<rect x="86" y="10" width="2" height="2" fill="#39ff14" />
</svg>