<?xml version="1.0" encoding="utf-8"?>
<svg xmlns="http://www.w3.org/2000/svg" width="72" height="66" viewBox="0 0 72 66">
<rect width="100%" height="100%" fill="transparent" />
<rect x="58" y="4" width="2" height="2" fill="#39ff14" />
<rect x="60" y="6" width="2" height="2" fill="#39ff14" />
<rect x="62" y="8" width="2" height="2" fill="#39ff14" />
<rect x="60" y="10" width="2" height="2" fill="#39ff14" />
<rect x="58" y="12" width="2" height="2" fill="#39ff14" />
<rect x="62" y="14" width="2" height="2" fill="#39ff14" />
<rect x="64" y="14" width="2" height="2" fill="#39ff14" />
<rect x="66" y="14" width="2" height="2" fill="#39ff14" />
<rect x="4" y="54" width="2" height="2" fill="#39ff14" />
<rect x="6" y="54" width="2" height="2" fill="#39ff14" />
<rect x="8" y="56" width="2" height="2" fill="#39ff14" />
<rect x="8" y="58" width="2" height="2" fill="#39ff14" />
<rect x="10" y="60" width="2" height="2" fill="#39ff14" />
<rect x="12" y="60" width="2" height="2" fill="#39ff14" />
<rect x="14" y="60" width="2" height="2" fill="#39ff14" />
<rect x="16" y="60" width="2" height="2" fill="#39ff14" />
</svg>