<?xml version="1.0" encoding="utf-8"?>
<svg xmlns="http://www.w3.org/2000/svg" width="89" height="77" viewBox="0 0 89 77">
<rect width="100%" height="100%" fill="transparent" />
<rect x="40" y="4" width="3" height="3" fill="#39ff14" />
<rect x="43" y="4" width="3" height="3" fill="#39ff14" />
<rect x="46" y="4" width="3" height="3" fill="#39ff14" />
<rect x="37" y="7" width="3" height="3" fill="#39ff14" />
<rect x="34" y="10" width="3" height="3" fill="#39ff14" />
<rect x="37" y="10" width="3" height="3" fill="#39ff14" />
<rect x="16" y="13" width="3" height="3" fill="#39ff14" />
<rect x="22" y="13" width="3" height="3" fill="#39ff14" />
<rect x="25" y="13" width="3" height="3" fill="#39ff14" />
<rect x="34" y="13" width="3" height="3" fill="#39ff14" />
<rect x="37" y="13" width="3" height="3" fill="#39ff14" />
<rect x="46" y="13" width="3" height="3" fill="#39ff14" />
<rect x="49" y="13" width="3" height="3" fill="#39ff14" />
<rect x="52" y="13" width="3" height="3" fill="#39ff14" />
<rect x="13" y="16" width="3" height="3" fill="#39ff14" />
<rect x="16" y="16" width="3" height="3" fill="#39ff14" />
<rect x="22" y="16" width="3" height="3" fill="#39ff14" />
<rect x="25" y="16" width="3" height="3" fill="#39ff14" />
<rect x="31" y="16" width="3" height="3" fill="#39ff14" />
<rect x="34" y="16" width="3" height="3" fill="#39ff14" />
<rect x="52" y="16" width="3" height="3" fill="#39ff14" />
<rect x="67" y="16" width="3" height="3" fill="#39ff14" />
<rect x="70" y="16" width="3" height="3" fill="#39ff14" />
<rect x="10" y="19" width="3" height="3" fill="#39ff14" />
<rect x="19" y="19" width="3" height="3" fill="#39ff14" />
<rect x="22" y="19" width="3" height="3" fill="#39ff14" />
<rect x="34" y="19" width="3" height="3" fill="#39ff14" />
<rect x="40" y="19" width="3" height="3" fill="#39ff14" />
<rect x="43" y="19" width="3" height="3" fill="#39ff14" />
<rect x="58" y="19" width="3" height="3" fill="#39ff14" />
<rect x="61" y="19" width="3" height="3" fill="#39ff14" />
<rect x="67" y="19" width="3" height="3" fill="#39ff14" />
<rect x="70" y="19" width="3" height="3" fill="#39ff14" />
<rect x="28" y="22" width="3" height="3" fill="#39ff14" />
<rect x="31" y="22" width="3" height="3" fill="#39ff14" />
<rect x="34" y="22" width="3" height="3" fill="#39ff14" />
<rect x="37" y="22" width="3" height="3" fill="#39ff14" />
<rect x="58" y="22" width="3" height="3" fill="#39ff14" />
<rect x="61" y="22" width="3" height="3" fill="#39ff14" />
<rect x="73" y="22" width="3" height="3" fill="#39ff14" />
<rect x="16" y="25" width="3" height="3" fill="#39ff14" />
<rect x="22" y="25" width="3" height="3" fill="#39ff14" />
<rect x="28" y="25" width="3" height="3" fill="#39ff14" />
<rect x="31" y="25" width="3" height="3" fill="#39ff14" />
<rect x="58" y="25" width="3" height="3" fill="#39ff14" />
<rect x="61" y="25" width="3" height="3" fill="#39ff14" />
<rect x="22" y="28" width="3" height="3" fill="#39ff14" />
<rect x="13" y="31" width="3" height="3" fill="#39ff14" />
<rect x="16" y="31" width="3" height="3" fill="#39ff14" />
<rect x="10" y="34" width="3" height="3" fill="#39ff14" />
<rect x="13" y="34" width="3" height="3" fill="#39ff14" />
<rect x="22" y="34" width="3" height="3" fill="#39ff14" />
<rect x="16" y="37" width="3" height="3" fill="#39ff14" />
<rect x="19" y="37" width="3" height="3" fill="#39ff14" />
<rect x="22" y="37" width="3" height="3" fill="#39ff14" />
<rect x="28" y="37" width="3" height="3" fill="#39ff14" />
<rect x="31" y="37" width="3" height="3" fill="#39ff14" />
<rect x="4" y="40" width="3" height="3" fill="#39ff14" />
<rect x="13" y="40" width="3" height="3" fill="#39ff14" />
<rect x="31" y="40" width="3" height="3" fill="#39ff14" />
<rect x="34" y="40" width="3" height="3" fill="#39ff14" />
<rect x="37" y="40" width="3" height="3" fill="#39ff14" />
<rect x="7" y="43" width="3" height="3" fill="#39ff14" />
<rect x="13" y="43" width="3" height="3" fill="#39ff14" />
<rect x="16" y="43" width="3" height="3" fill="#39ff14" />
<rect x="19" y="43" width="3" height="3" fill="#39ff14" />
<rect x="22" y="43" width="3" height="3" fill="#39ff14" />
<rect x="28" y="43" width="3" height="3" fill="#39ff14" />
<rect x="40" y="43" width="3" height="3" fill="#39ff14" />
<rect x="28" y="46" width="3" height="3" fill="#39ff14" />
<rect x="31" y="46" width="3" height="3" fill="#39ff14" />
<rect x="46" y="46" width="3" height="3" fill="#39ff14" />
<rect x="67" y="46" width="3" height="3" fill="#39ff14" />
<rect x="31" y="49" width="3" height="3" fill="#39ff14" />
<rect x="46" y="49" width="3" height="3" fill="#39ff14" />
<rect x="49" y="49" width="3" height="3" fill="#39ff14" />
<rect x="64" y="49" width="3" height="3" fill="#39ff14" />
<rect x="67" y="49" width="3" height="3" fill="#39ff14" />
<rect x="73" y="49" width="3" height="3" fill="#39ff14" />
<rect x="76" y="49" width="3" height="3" fill="#39ff14" />
<rect x="79" y="49" width="3" height="3" fill="#39ff14" />
<rect x="28" y="52" width="3" height="3" fill="#39ff14" />
<rect x="40" y="52" width="3" height="3" fill="#39ff14" />
<rect x="49" y="52" width="3" height="3" fill="#39ff14" />
<rect x="52" y="52" width="3" height="3" fill="#39ff14" />
<rect x="61" y="52" width="3" height="3" fill="#39ff14" />
<rect x="64" y="52" width="3" height="3" fill="#39ff14" />
<rect x="82" y="52" width="3" height="3" fill="#39ff14" />
<rect x="34" y="55" width="3" height="3" fill="#39ff14" />
<rect x="43" y="55" width="3" height="3" fill="#39ff14" />
<rect x="49" y="55" width="3" height="3" fill="#39ff14" />
<rect x="58" y="55" width="3" height="3" fill="#39ff14" />
<rect x="76" y="55" width="3" height="3" fill="#39ff14" />
<rect x="79" y="55" width="3" height="3" fill="#39ff14" />
<rect x="37" y="58" width="3" height="3" fill="#39ff14" />
<rect x="43" y="58" width="3" height="3" fill="#39ff14" />
<rect x="46" y="58" width="3" height="3" fill="#39ff14" />
<rect x="49" y="58" width="3" height="3" fill="#39ff14" />
<rect x="64" y="58" width="3" height="3" fill="#39ff14" />
<rect x="40" y="61" width="3" height="3" fill="#39ff14" />
<rect x="43" y="61" width="3" height="3" fill="#39ff14" />
<rect x="46" y="61" width="3" height="3" fill="#39ff14" />
<rect x="55" y="61" width="3" height="3" fill="#39ff14" />
<rect x="58" y="61" width="3" height="3" fill="#39ff14" />
<rect x="61" y="61" width="3" height="3" fill="#39ff14" />
<rect x="67" y="61" width="3" height="3" fill="#39ff14" />
<rect x="37" y="64" width="3" height="3" fill="#39ff14" />
<rect x="40" y="64" width="3" height="3" fill="#39ff14" />
<rect x="52" y="64" width="3" height="3" fill="#39ff14" />
<rect x="55" y="64" width="3" height="3" fill="#39ff14" />
<rect x="58" y="64" width="3" height="3" fill="#39ff14" />
<rect x="58" y="67" width="3" height="3" fill="#39ff14" />
<rect x="67" y="67" width="3" height="3" fill="#39ff14" />
<rect x="61" y="70" width="3" height="3" fill="#39ff14" />
</svg>