<?xml version="1.0" encoding="utf-8"?>
<svg xmlns="http://www.w3.org/2000/svg" width="92" height="60" viewBox="0 0 92 60">
<rect width="100%" height="100%" fill="transparent" />
<rect x="4" y="4" width="4" height="4" fill="#39ff14" />
<rect x="52" y="4" width="4" height="4" fill="#39ff14" />
<rect x="56" y="4" width="4" height="4" fill="#39ff14" />
<rect x="80" y="4" width="4" height="4" fill="#39ff14" />
<rect x="84" y="4" width="4" height="4" fill="#39ff14" />
<rect x="4" y="8" width="4" height="4" fill="#39ff14" />
<rect x="8" y="8" width="4" height="4" fill="#39ff14" />
<rect x="12" y="8" width="4" height="4" fill="#39ff14" />
<rect x="52" y="8" width="4" height="4" fill="#39ff14" />
<rect x="56" y="8" width="4" height="4" fill="#39ff14" />
<rect x="80" y="8" width="4" height="4" fill="#39ff14" />
<rect x="84" y="8" width="4" height="4" fill="#39ff14" />
<rect x="12" y="12" width="4" height="4" fill="#39ff14" />
<rect x="12" y="16" width="4" height="4" fill="#39ff14" />
<rect x="64" y="16" width="4" height="4" fill="#39ff14" />
<rect x="68" y="16" width="4" height="4" fill="#39ff14" />
<rect x="64" y="20" width="4" height="4" fill="#39ff14" />
<rect x="68" y="20" width="4" height="4" fill="#39ff14" />
<rect x="28" y="40" width="4" height="4" fill="#39ff14" />
<rect x="28" y="44" width="4" height="4" fill="#39ff14" />
<rect x="36" y="44" width="4" height="4" fill="#39ff14" />
<rect x="28" y="48" width="4" height="4" fill="#39ff14" />
<rect x="32" y="48" width="4" height="4" fill="#39ff14" />
<rect x="36" y="48" width="4" height="4" fill="#39ff14" />
<rect x="36" y="52" width="4" height="4" fill="#39ff14" />
</svg>