<?xml version="1.0" encoding="utf-8"?>
<svg xmlns="http://www.w3.org/2000/svg" width="66" height="37" viewBox="0 0 66 37">
<rect width="100%" height="100%" fill="transparent" />
<rect x="15" y="4" width="1" height="1" fill="#39ff14" />
<rect x="17" y="4" width="1" height="1" fill="#39ff14" />
<rect x="30" y="4" width="1" height="1" fill="#39ff14" />
<rect x="31" y="4" width="1" height="1" fill="#39ff14" />
<rect x="14" y="5" width="1" height="1" fill="#39ff14" />
<rect x="17" y="5" width="1" height="1" fill="#39ff14" />
<rect x="28" y="5" width="1" height="1" fill="#39ff14" />
<rect x="33" y="5" width="1" height="1" fill="#39ff14" />
<rect x="13" y="6" width="1" height="1" fill="#39ff14" />
<rect x="14" y="6" width="1" height="1" fill="#39ff14" />
<rect x="22" y="6" width="1" height="1" fill="#39ff14" />
<rect x="27" y="6" width="1" height="1" fill="#39ff14" />
<rect x="12" y="7" width="1" height="1" fill="#39ff14" />
<rect x="19" y="7" width="1" height="1" fill="#39ff14" />
<rect x="20" y="7" width="1" height="1" fill="#39ff14" />
<rect x="22" y="7" width="1" height="1" fill="#39ff14" />
<rect x="27" y="7" width="1" height="1" fill="#39ff14" />
<rect x="33" y="7" width="1" height="1" fill="#39ff14" />
<rect x="11" y="8" width="1" height="1" fill="#39ff14" />
<rect x="12" y="8" width="1" height="1" fill="#39ff14" />
<rect x="13" y="8" width="1" height="1" fill="#39ff14" />
<rect x="14" y="8" width="1" height="1" fill="#39ff14" />
<rect x="15" y="8" width="1" height="1" fill="#39ff14" />
<rect x="16" y="8" width="1" height="1" fill="#39ff14" />
<rect x="19" y="8" width="1" height="1" fill="#39ff14" />
<rect x="27" y="8" width="1" height="1" fill="#39ff14" />
<rect x="28" y="8" width="1" height="1" fill="#39ff14" />
<rect x="29" y="8" width="1" height="1" fill="#39ff14" />
<rect x="30" y="8" width="1" height="1" fill="#39ff14" />
<rect x="31" y="8" width="1" height="1" fill="#39ff14" />
<rect x="32" y="8" width="1" height="1" fill="#39ff14" />
<rect x="8" y="9" width="1" height="1" fill="#39ff14" />
<rect x="9" y="9" width="1" height="1" fill="#39ff14" />
<rect x="17" y="9" width="1" height="1" fill="#39ff14" />
<rect x="21" y="9" width="1" height="1" fill="#39ff14" />
<rect x="22" y="9" width="1" height="1" fill="#39ff14" />
<rect x="23" y="9" width="1" height="1" fill="#39ff14" />
<rect x="24" y="9" width="1" height="1" fill="#39ff14" />
<rect x="7" y="10" width="1" height="1" fill="#39ff14" />
<rect x="11" y="10" width="1" height="1" fill="#39ff14" />
<rect x="12" y="10" width="1" height="1" fill="#39ff14" />
<rect x="13" y="10" width="1" height="1" fill="#39ff14" />
<rect x="15" y="10" width="1" height="1" fill="#39ff14" />
<rect x="20" y="10" width="1" height="1" fill="#39ff14" />
<rect x="6" y="11" width="1" height="1" fill="#39ff14" />
<rect x="10" y="11" width="1" height="1" fill="#39ff14" />
<rect x="14" y="11" width="1" height="1" fill="#39ff14" />
<rect x="15" y="11" width="1" height="1" fill="#39ff14" />
<rect x="17" y="11" width="1" height="1" fill="#39ff14" />
<rect x="20" y="11" width="1" height="1" fill="#39ff14" />
<rect x="21" y="11" width="1" height="1" fill="#39ff14" />
<rect x="23" y="11" width="1" height="1" fill="#39ff14" />
<rect x="26" y="11" width="1" height="1" fill="#39ff14" />
<rect x="6" y="12" width="1" height="1" fill="#39ff14" />
<rect x="12" y="12" width="1" height="1" fill="#39ff14" />
<rect x="13" y="12" width="1" height="1" fill="#39ff14" />
<rect x="17" y="12" width="1" height="1" fill="#39ff14" />
<rect x="23" y="12" width="1" height="1" fill="#39ff14" />
<rect x="6" y="13" width="1" height="1" fill="#39ff14" />
<rect x="7" y="13" width="1" height="1" fill="#39ff14" />
<rect x="8" y="13" width="1" height="1" fill="#39ff14" />
<rect x="12" y="13" width="1" height="1" fill="#39ff14" />
<rect x="13" y="13" width="1" height="1" fill="#39ff14" />
<rect x="14" y="13" width="1" height="1" fill="#39ff14" />
<rect x="15" y="13" width="1" height="1" fill="#39ff14" />
<rect x="17" y="13" width="1" height="1" fill="#39ff14" />
<rect x="25" y="13" width="1" height="1" fill="#39ff14" />
<rect x="27" y="13" width="1" height="1" fill="#39ff14" />
<rect x="28" y="13" width="1" height="1" fill="#39ff14" />
<rect x="15" y="14" width="1" height="1" fill="#39ff14" />
<rect x="25" y="14" width="1" height="1" fill="#39ff14" />
<rect x="28" y="14" width="1" height="1" fill="#39ff14" />
<rect x="35" y="14" width="1" height="1" fill="#39ff14" />
<rect x="6" y="15" width="1" height="1" fill="#39ff14" />
<rect x="7" y="15" width="1" height="1" fill="#39ff14" />
<rect x="8" y="15" width="1" height="1" fill="#39ff14" />
<rect x="15" y="15" width="1" height="1" fill="#39ff14" />
<rect x="17" y="15" width="1" height="1" fill="#39ff14" />
<rect x="25" y="15" width="1" height="1" fill="#39ff14" />
<rect x="28" y="15" width="1" height="1" fill="#39ff14" />
<rect x="33" y="15" width="1" height="1" fill="#39ff14" />
<rect x="35" y="15" width="1" height="1" fill="#39ff14" />
<rect x="5" y="16" width="1" height="1" fill="#39ff14" />
<rect x="11" y="16" width="1" height="1" fill="#39ff14" />
<rect x="17" y="16" width="1" height="1" fill="#39ff14" />
<rect x="26" y="16" width="1" height="1" fill="#39ff14" />
<rect x="27" y="16" width="1" height="1" fill="#39ff14" />
<rect x="34" y="16" width="1" height="1" fill="#39ff14" />
<rect x="35" y="16" width="1" height="1" fill="#39ff14" />
<rect x="41" y="16" width="1" height="1" fill="#39ff14" />
<rect x="44" y="16" width="1" height="1" fill="#39ff14" />
<rect x="45" y="16" width="1" height="1" fill="#39ff14" />
<rect x="48" y="16" width="1" height="1" fill="#39ff14" />
<rect x="49" y="16" width="1" height="1" fill="#39ff14" />
<rect x="52" y="16" width="1" height="1" fill="#39ff14" />
<rect x="53" y="16" width="1" height="1" fill="#39ff14" />
<rect x="56" y="16" width="1" height="1" fill="#39ff14" />
<rect x="57" y="16" width="1" height="1" fill="#39ff14" />
<rect x="60" y="16" width="1" height="1" fill="#39ff14" />
<rect x="61" y="16" width="1" height="1" fill="#39ff14" />
<rect x="4" y="17" width="1" height="1" fill="#39ff14" />
<rect x="8" y="17" width="1" height="1" fill="#39ff14" />
<rect x="9" y="17" width="1" height="1" fill="#39ff14" />
<rect x="11" y="17" width="1" height="1" fill="#39ff14" />
<rect x="15" y="17" width="1" height="1" fill="#39ff14" />
<rect x="16" y="17" width="1" height="1" fill="#39ff14" />
<rect x="40" y="17" width="1" height="1" fill="#39ff14" />
<rect x="41" y="17" width="1" height="1" fill="#39ff14" />
<rect x="44" y="17" width="1" height="1" fill="#39ff14" />
<rect x="45" y="17" width="1" height="1" fill="#39ff14" />
<rect x="48" y="17" width="1" height="1" fill="#39ff14" />
<rect x="49" y="17" width="1" height="1" fill="#39ff14" />
<rect x="52" y="17" width="1" height="1" fill="#39ff14" />
<rect x="53" y="17" width="1" height="1" fill="#39ff14" />
<rect x="56" y="17" width="1" height="1" fill="#39ff14" />
<rect x="57" y="17" width="1" height="1" fill="#39ff14" />
<rect x="60" y="17" width="1" height="1" fill="#39ff14" />
<rect x="61" y="17" width="1" height="1" fill="#39ff14" />
<rect x="4" y="18" width="1" height="1" fill="#39ff14" />
<rect x="8" y="18" width="1" height="1" fill="#39ff14" />
<rect x="15" y="18" width="1" height="1" fill="#39ff14" />
<rect x="16" y="18" width="1" height="1" fill="#39ff14" />
<rect x="17" y="18" width="1" height="1" fill="#39ff14" />
<rect x="4" y="19" width="1" height="1" fill="#39ff14" />
<rect x="8" y="19" width="1" height="1" fill="#39ff14" />
<rect x="9" y="19" width="1" height="1" fill="#39ff14" />
<rect x="11" y="19" width="1" height="1" fill="#39ff14" />
<rect x="15" y="19" width="1" height="1" fill="#39ff14" />
<rect x="16" y="19" width="1" height="1" fill="#39ff14" />
<rect x="40" y="19" width="1" height="1" fill="#39ff14" />
<rect x="41" y="19" width="1" height="1" fill="#39ff14" />
<rect x="44" y="19" width="1" height="1" fill="#39ff14" />
<rect x="45" y="19" width="1" height="1" fill="#39ff14" />
<rect x="48" y="19" width="1" height="1" fill="#39ff14" />
<rect x="49" y="19" width="1" height="1" fill="#39ff14" />
<rect x="52" y="19" width="1" height="1" fill="#39ff14" />
<rect x="53" y="19" width="1" height="1" fill="#39ff14" />
<rect x="56" y="19" width="1" height="1" fill="#39ff14" />
<rect x="57" y="19" width="1" height="1" fill="#39ff14" />
<rect x="60" y="19" width="1" height="1" fill="#39ff14" />
<rect x="61" y="19" width="1" height="1" fill="#39ff14" />
<rect x="5" y="20" width="1" height="1" fill="#39ff14" />
<rect x="11" y="20" width="1" height="1" fill="#39ff14" />
<rect x="17" y="20" width="1" height="1" fill="#39ff14" />
<rect x="26" y="20" width="1" height="1" fill="#39ff14" />
<rect x="27" y="20" width="1" height="1" fill="#39ff14" />
<rect x="34" y="20" width="1" height="1" fill="#39ff14" />
<rect x="35" y="20" width="1" height="1" fill="#39ff14" />
<rect x="41" y="20" width="1" height="1" fill="#39ff14" />
<rect x="44" y="20" width="1" height="1" fill="#39ff14" />
<rect x="45" y="20" width="1" height="1" fill="#39ff14" />
<rect x="48" y="20" width="1" height="1" fill="#39ff14" />
<rect x="49" y="20" width="1" height="1" fill="#39ff14" />
<rect x="52" y="20" width="1" height="1" fill="#39ff14" />
<rect x="53" y="20" width="1" height="1" fill="#39ff14" />
<rect x="56" y="20" width="1" height="1" fill="#39ff14" />
<rect x="57" y="20" width="1" height="1" fill="#39ff14" />
<rect x="60" y="20" width="1" height="1" fill="#39ff14" />
<rect x="61" y="20" width="1" height="1" fill="#39ff14" />
<rect x="6" y="21" width="1" height="1" fill="#39ff14" />
<rect x="7" y="21" width="1" height="1" fill="#39ff14" />
<rect x="8" y="21" width="1" height="1" fill="#39ff14" />
<rect x="15" y="21" width="1" height="1" fill="#39ff14" />
<rect x="17" y="21" width="1" height="1" fill="#39ff14" />
<rect x="25" y="21" width="1" height="1" fill="#39ff14" />
<rect x="28" y="21" width="1" height="1" fill="#39ff14" />
<rect x="33" y="21" width="1" height="1" fill="#39ff14" />
<rect x="35" y="21" width="1" height="1" fill="#39ff14" />
<rect x="15" y="22" width="1" height="1" fill="#39ff14" />
<rect x="25" y="22" width="1" height="1" fill="#39ff14" />
<rect x="28" y="22" width="1" height="1" fill="#39ff14" />
<rect x="35" y="22" width="1" height="1" fill="#39ff14" />
<rect x="6" y="23" width="1" height="1" fill="#39ff14" />
<rect x="7" y="23" width="1" height="1" fill="#39ff14" />
<rect x="8" y="23" width="1" height="1" fill="#39ff14" />
<rect x="12" y="23" width="1" height="1" fill="#39ff14" />
<rect x="13" y="23" width="1" height="1" fill="#39ff14" />
<rect x="14" y="23" width="1" height="1" fill="#39ff14" />
<rect x="15" y="23" width="1" height="1" fill="#39ff14" />
<rect x="17" y="23" width="1" height="1" fill="#39ff14" />
<rect x="25" y="23" width="1" height="1" fill="#39ff14" />
<rect x="27" y="23" width="1" height="1" fill="#39ff14" />
<rect x="28" y="23" width="1" height="1" fill="#39ff14" />
<rect x="6" y="24" width="1" height="1" fill="#39ff14" />
<rect x="12" y="24" width="1" height="1" fill="#39ff14" />
<rect x="13" y="24" width="1" height="1" fill="#39ff14" />
<rect x="17" y="24" width="1" height="1" fill="#39ff14" />
<rect x="23" y="24" width="1" height="1" fill="#39ff14" />
<rect x="6" y="25" width="1" height="1" fill="#39ff14" />
<rect x="10" y="25" width="1" height="1" fill="#39ff14" />
<rect x="14" y="25" width="1" height="1" fill="#39ff14" />
<rect x="15" y="25" width="1" height="1" fill="#39ff14" />
<rect x="17" y="25" width="1" height="1" fill="#39ff14" />
<rect x="20" y="25" width="1" height="1" fill="#39ff14" />
<rect x="21" y="25" width="1" height="1" fill="#39ff14" />
<rect x="23" y="25" width="1" height="1" fill="#39ff14" />
<rect x="26" y="25" width="1" height="1" fill="#39ff14" />
<rect x="7" y="26" width="1" height="1" fill="#39ff14" />
<rect x="11" y="26" width="1" height="1" fill="#39ff14" />
<rect x="12" y="26" width="1" height="1" fill="#39ff14" />
<rect x="13" y="26" width="1" height="1" fill="#39ff14" />
<rect x="15" y="26" width="1" height="1" fill="#39ff14" />
<rect x="20" y="26" width="1" height="1" fill="#39ff14" />
<rect x="8" y="27" width="1" height="1" fill="#39ff14" />
<rect x="9" y="27" width="1" height="1" fill="#39ff14" />
<rect x="17" y="27" width="1" height="1" fill="#39ff14" />
<rect x="21" y="27" width="1" height="1" fill="#39ff14" />
<rect x="22" y="27" width="1" height="1" fill="#39ff14" />
<rect x="23" y="27" width="1" height="1" fill="#39ff14" />
<rect x="24" y="27" width="1" height="1" fill="#39ff14" />
<rect x="11" y="28" width="1" height="1" fill="#39ff14" />
<rect x="12" y="28" width="1" height="1" fill="#39ff14" />
<rect x="13" y="28" width="1" height="1" fill="#39ff14" />
<rect x="14" y="28" width="1" height="1" fill="#39ff14" />
<rect x="15" y="28" width="1" height="1" fill="#39ff14" />
<rect x="16" y="28" width="1" height="1" fill="#39ff14" />
<rect x="19" y="28" width="1" height="1" fill="#39ff14" />
<rect x="27" y="28" width="1" height="1" fill="#39ff14" />
<rect x="28" y="28" width="1" height="1" fill="#39ff14" />
<rect x="29" y="28" width="1" height="1" fill="#39ff14" />
<rect x="30" y="28" width="1" height="1" fill="#39ff14" />
<rect x="31" y="28" width="1" height="1" fill="#39ff14" />
<rect x="32" y="28" width="1" height="1" fill="#39ff14" />
<rect x="12" y="29" width="1" height="1" fill="#39ff14" />
<rect x="19" y="29" width="1" height="1" fill="#39ff14" />
<rect x="20" y="29" width="1" height="1" fill="#39ff14" />
<rect x="22" y="29" width="1" height="1" fill="#39ff14" />
<rect x="27" y="29" width="1" height="1" fill="#39ff14" />
<rect x="33" y="29" width="1" height="1" fill="#39ff14" />
<rect x="13" y="30" width="1" height="1" fill="#39ff14" />
<rect x="14" y="30" width="1" height="1" fill="#39ff14" />
<rect x="22" y="30" width="1" height="1" fill="#39ff14" />
<rect x="27" y="30" width="1" height="1" fill="#39ff14" />
<rect x="14" y="31" width="1" height="1" fill="#39ff14" />
<rect x="17" y="31" width="1" height="1" fill="#39ff14" />
<rect x="28" y="31" width="1" height="1" fill="#39ff14" />
<rect x="33" y="31" width="1" height="1" fill="#39ff14" />
<rect x="15" y="32" width="1" height="1" fill="#39ff14" />
<rect x="17" y="32" width="1" height="1" fill="#39ff14" />
<rect x="30" y="32" width="1" height="1" fill="#39ff14" />
<rect x="31" y="32" width="1" height="1" fill="#39ff14" />
</svg>