<?xml version="1.0" encoding="utf-8"?>
<svg xmlns="http://www.w3.org/2000/svg" width="84" height="62" viewBox="0 0 84 62">
<rect width="100%" height="100%" fill="transparent" />
<rect x="58" y="4" width="2" height="2" fill="#39ff14" />
<rect x="8" y="6" width="2" height="2" fill="#39ff14" />
<rect x="56" y="6" width="2" height="2" fill="#39ff14" />
<rect x="60" y="6" width="2" height="2" fill="#39ff14" />
<rect x="8" y="8" width="2" height="2" fill="#39ff14" />
<rect x="56" y="8" width="2" height="2" fill="#39ff14" />
<rect x="60" y="8" width="2" height="2" fill="#39ff14" />
<rect x="4" y="10" width="2" height="2" fill="#39ff14" />
<rect x="6" y="10" width="2" height="2" fill="#39ff14" />
<rect x="8" y="10" width="2" height="2" fill="#39ff14" />
<rect x="28" y="10" width="2" height="2" fill="#39ff14" />
<rect x="30" y="10" width="2" height="2" fill="#39ff14" />
<rect x="54" y="10" width="2" height="2" fill="#39ff14" />
<rect x="56" y="10" width="2" height="2" fill="#39ff14" />
<rect x="60" y="10" width="2" height="2" fill="#39ff14" />
<rect x="62" y="10" width="2" height="2" fill="#39ff14" />
<rect x="64" y="10" width="2" height="2" fill="#39ff14" />
<rect x="4" y="12" width="2" height="2" fill="#39ff14" />
<rect x="28" y="12" width="2" height="2" fill="#39ff14" />
<rect x="30" y="12" width="2" height="2" fill="#39ff14" />
<rect x="66" y="12" width="2" height="2" fill="#39ff14" />
<rect x="54" y="14" width="2" height="2" fill="#39ff14" />
<rect x="56" y="14" width="2" height="2" fill="#39ff14" />
<rect x="60" y="14" width="2" height="2" fill="#39ff14" />
<rect x="62" y="14" width="2" height="2" fill="#39ff14" />
<rect x="64" y="14" width="2" height="2" fill="#39ff14" />
<rect x="54" y="16" width="2" height="2" fill="#39ff14" />
<rect x="56" y="16" width="2" height="2" fill="#39ff14" />
<rect x="60" y="16" width="2" height="2" fill="#39ff14" />
<rect x="76" y="34" width="2" height="2" fill="#39ff14" />
<rect x="78" y="34" width="2" height="2" fill="#39ff14" />
<rect x="76" y="36" width="2" height="2" fill="#39ff14" />
<rect x="78" y="36" width="2" height="2" fill="#39ff14" />
<rect x="22" y="40" width="2" height="2" fill="#39ff14" />
<rect x="22" y="42" width="2" height="2" fill="#39ff14" />
<rect x="26" y="42" width="2" height="2" fill="#39ff14" />
<rect x="22" y="44" width="2" height="2" fill="#39ff14" />
<rect x="24" y="44" width="2" height="2" fill="#39ff14" />
<rect x="26" y="44" width="2" height="2" fill="#39ff14" />
<rect x="26" y="46" width="2" height="2" fill="#39ff14" />
<rect x="50" y="50" width="2" height="2" fill="#39ff14" />
<rect x="52" y="50" width="2" height="2" fill="#39ff14" />
<rect x="50" y="52" width="2" height="2" fill="#39ff14" />
<rect x="52" y="54" width="2" height="2" fill="#39ff14" />
<rect x="54" y="54" width="2" height="2" fill="#39ff14" />
<rect x="56" y="54" width="2" height="2" fill="#39ff14" />
<rect x="56" y="56" width="2" height="2" fill="#39ff14" />
</svg>