<?xml version="1.0" encoding="utf-8"?>
<svg xmlns="http://www.w3.org/2000/svg" width="66" height="27" viewBox="0 0 66 27">
<rect width="100%" height="100%" fill="transparent" />
<rect x="6" y="4" width="1" height="1" fill="#39ff14" />
<rect x="21" y="4" width="1" height="1" fill="#39ff14" />
<rect x="56" y="4" width="1" height="1" fill="#39ff14" />
<rect x="4" y="5" width="1" height="1" fill="#39ff14" />
<rect x="7" y="5" width="1" height="1" fill="#39ff14" />
<rect x="10" y="5" width="1" height="1" fill="#39ff14" />
<rect x="11" y="5" width="1" height="1" fill="#39ff14" />
<rect x="12" y="5" width="1" height="1" fill="#39ff14" />
<rect x="20" y="5" width="1" height="1" fill="#39ff14" />
<rect x="22" y="5" width="1" height="1" fill="#39ff14" />
<rect x="23" y="5" width="1" height="1" fill="#39ff14" />
<rect x="24" y="5" width="1" height="1" fill="#39ff14" />
<rect x="25" y="5" width="1" height="1" fill="#39ff14" />
<rect x="41" y="5" width="1" height="1" fill="#39ff14" />
<rect x="42" y="5" width="1" height="1" fill="#39ff14" />
<rect x="54" y="5" width="1" height="1" fill="#39ff14" />
<rect x="55" y="5" width="1" height="1" fill="#39ff14" />
<rect x="57" y="5" width="1" height="1" fill="#39ff14" />
<rect x="4" y="6" width="1" height="1" fill="#39ff14" />
<rect x="7" y="6" width="1" height="1" fill="#39ff14" />
<rect x="20" y="6" width="1" height="1" fill="#39ff14" />
<rect x="21" y="6" width="1" height="1" fill="#39ff14" />
<rect x="22" y="6" width="1" height="1" fill="#39ff14" />
<rect x="24" y="6" width="1" height="1" fill="#39ff14" />
<rect x="26" y="6" width="1" height="1" fill="#39ff14" />
<rect x="36" y="6" width="1" height="1" fill="#39ff14" />
<rect x="42" y="6" width="1" height="1" fill="#39ff14" />
<rect x="50" y="6" width="1" height="1" fill="#39ff14" />
<rect x="54" y="6" width="1" height="1" fill="#39ff14" />
<rect x="5" y="7" width="1" height="1" fill="#39ff14" />
<rect x="7" y="7" width="1" height="1" fill="#39ff14" />
<rect x="10" y="7" width="1" height="1" fill="#39ff14" />
<rect x="32" y="7" width="1" height="1" fill="#39ff14" />
<rect x="33" y="7" width="1" height="1" fill="#39ff14" />
<rect x="34" y="7" width="1" height="1" fill="#39ff14" />
<rect x="37" y="7" width="1" height="1" fill="#39ff14" />
<rect x="39" y="7" width="1" height="1" fill="#39ff14" />
<rect x="41" y="7" width="1" height="1" fill="#39ff14" />
<rect x="42" y="7" width="1" height="1" fill="#39ff14" />
<rect x="43" y="7" width="1" height="1" fill="#39ff14" />
<rect x="49" y="7" width="1" height="1" fill="#39ff14" />
<rect x="51" y="7" width="1" height="1" fill="#39ff14" />
<rect x="53" y="7" width="1" height="1" fill="#39ff14" />
<rect x="58" y="7" width="1" height="1" fill="#39ff14" />
<rect x="6" y="8" width="1" height="1" fill="#39ff14" />
<rect x="7" y="8" width="1" height="1" fill="#39ff14" />
<rect x="14" y="8" width="1" height="1" fill="#39ff14" />
<rect x="19" y="8" width="1" height="1" fill="#39ff14" />
<rect x="36" y="8" width="1" height="1" fill="#39ff14" />
<rect x="37" y="8" width="1" height="1" fill="#39ff14" />
<rect x="38" y="8" width="1" height="1" fill="#39ff14" />
<rect x="39" y="8" width="1" height="1" fill="#39ff14" />
<rect x="40" y="8" width="1" height="1" fill="#39ff14" />
<rect x="41" y="8" width="1" height="1" fill="#39ff14" />
<rect x="44" y="8" width="1" height="1" fill="#39ff14" />
<rect x="47" y="8" width="1" height="1" fill="#39ff14" />
<rect x="51" y="8" width="1" height="1" fill="#39ff14" />
<rect x="55" y="8" width="1" height="1" fill="#39ff14" />
<rect x="58" y="8" width="1" height="1" fill="#39ff14" />
<rect x="5" y="9" width="1" height="1" fill="#39ff14" />
<rect x="7" y="9" width="1" height="1" fill="#39ff14" />
<rect x="11" y="9" width="1" height="1" fill="#39ff14" />
<rect x="12" y="9" width="1" height="1" fill="#39ff14" />
<rect x="18" y="9" width="1" height="1" fill="#39ff14" />
<rect x="22" y="9" width="1" height="1" fill="#39ff14" />
<rect x="23" y="9" width="1" height="1" fill="#39ff14" />
<rect x="30" y="9" width="1" height="1" fill="#39ff14" />
<rect x="31" y="9" width="1" height="1" fill="#39ff14" />
<rect x="33" y="9" width="1" height="1" fill="#39ff14" />
<rect x="34" y="9" width="1" height="1" fill="#39ff14" />
<rect x="37" y="9" width="1" height="1" fill="#39ff14" />
<rect x="40" y="9" width="1" height="1" fill="#39ff14" />
<rect x="41" y="9" width="1" height="1" fill="#39ff14" />
<rect x="44" y="9" width="1" height="1" fill="#39ff14" />
<rect x="46" y="9" width="1" height="1" fill="#39ff14" />
<rect x="48" y="9" width="1" height="1" fill="#39ff14" />
<rect x="49" y="9" width="1" height="1" fill="#39ff14" />
<rect x="52" y="9" width="1" height="1" fill="#39ff14" />
<rect x="6" y="10" width="1" height="1" fill="#39ff14" />
<rect x="12" y="10" width="1" height="1" fill="#39ff14" />
<rect x="14" y="10" width="1" height="1" fill="#39ff14" />
<rect x="15" y="10" width="1" height="1" fill="#39ff14" />
<rect x="18" y="10" width="1" height="1" fill="#39ff14" />
<rect x="22" y="10" width="1" height="1" fill="#39ff14" />
<rect x="23" y="10" width="1" height="1" fill="#39ff14" />
<rect x="30" y="10" width="1" height="1" fill="#39ff14" />
<rect x="31" y="10" width="1" height="1" fill="#39ff14" />
<rect x="36" y="10" width="1" height="1" fill="#39ff14" />
<rect x="38" y="10" width="1" height="1" fill="#39ff14" />
<rect x="40" y="10" width="1" height="1" fill="#39ff14" />
<rect x="43" y="10" width="1" height="1" fill="#39ff14" />
<rect x="46" y="10" width="1" height="1" fill="#39ff14" />
<rect x="48" y="10" width="1" height="1" fill="#39ff14" />
<rect x="50" y="10" width="1" height="1" fill="#39ff14" />
<rect x="57" y="10" width="1" height="1" fill="#39ff14" />
<rect x="58" y="10" width="1" height="1" fill="#39ff14" />
<rect x="61" y="10" width="1" height="1" fill="#39ff14" />
<rect x="6" y="11" width="1" height="1" fill="#39ff14" />
<rect x="11" y="11" width="1" height="1" fill="#39ff14" />
<rect x="12" y="11" width="1" height="1" fill="#39ff14" />
<rect x="13" y="11" width="1" height="1" fill="#39ff14" />
<rect x="16" y="11" width="1" height="1" fill="#39ff14" />
<rect x="26" y="11" width="1" height="1" fill="#39ff14" />
<rect x="27" y="11" width="1" height="1" fill="#39ff14" />
<rect x="28" y="11" width="1" height="1" fill="#39ff14" />
<rect x="36" y="11" width="1" height="1" fill="#39ff14" />
<rect x="37" y="11" width="1" height="1" fill="#39ff14" />
<rect x="38" y="11" width="1" height="1" fill="#39ff14" />
<rect x="40" y="11" width="1" height="1" fill="#39ff14" />
<rect x="42" y="11" width="1" height="1" fill="#39ff14" />
<rect x="43" y="11" width="1" height="1" fill="#39ff14" />
<rect x="49" y="11" width="1" height="1" fill="#39ff14" />
<rect x="57" y="11" width="1" height="1" fill="#39ff14" />
<rect x="58" y="11" width="1" height="1" fill="#39ff14" />
<rect x="59" y="11" width="1" height="1" fill="#39ff14" />
<rect x="61" y="11" width="1" height="1" fill="#39ff14" />
<rect x="16" y="12" width="1" height="1" fill="#39ff14" />
<rect x="17" y="12" width="1" height="1" fill="#39ff14" />
<rect x="18" y="12" width="1" height="1" fill="#39ff14" />
<rect x="19" y="12" width="1" height="1" fill="#39ff14" />
<rect x="20" y="12" width="1" height="1" fill="#39ff14" />
<rect x="21" y="12" width="1" height="1" fill="#39ff14" />
<rect x="22" y="12" width="1" height="1" fill="#39ff14" />
<rect x="23" y="12" width="1" height="1" fill="#39ff14" />
<rect x="24" y="12" width="1" height="1" fill="#39ff14" />
<rect x="28" y="12" width="1" height="1" fill="#39ff14" />
<rect x="37" y="12" width="1" height="1" fill="#39ff14" />
<rect x="38" y="12" width="1" height="1" fill="#39ff14" />
<rect x="40" y="12" width="1" height="1" fill="#39ff14" />
<rect x="41" y="12" width="1" height="1" fill="#39ff14" />
<rect x="42" y="12" width="1" height="1" fill="#39ff14" />
<rect x="46" y="12" width="1" height="1" fill="#39ff14" />
<rect x="47" y="12" width="1" height="1" fill="#39ff14" />
<rect x="48" y="12" width="1" height="1" fill="#39ff14" />
<rect x="49" y="12" width="1" height="1" fill="#39ff14" />
<rect x="59" y="12" width="1" height="1" fill="#39ff14" />
<rect x="61" y="12" width="1" height="1" fill="#39ff14" />
<rect x="16" y="14" width="1" height="1" fill="#39ff14" />
<rect x="17" y="14" width="1" height="1" fill="#39ff14" />
<rect x="18" y="14" width="1" height="1" fill="#39ff14" />
<rect x="19" y="14" width="1" height="1" fill="#39ff14" />
<rect x="20" y="14" width="1" height="1" fill="#39ff14" />
<rect x="21" y="14" width="1" height="1" fill="#39ff14" />
<rect x="22" y="14" width="1" height="1" fill="#39ff14" />
<rect x="23" y="14" width="1" height="1" fill="#39ff14" />
<rect x="24" y="14" width="1" height="1" fill="#39ff14" />
<rect x="28" y="14" width="1" height="1" fill="#39ff14" />
<rect x="37" y="14" width="1" height="1" fill="#39ff14" />
<rect x="38" y="14" width="1" height="1" fill="#39ff14" />
<rect x="40" y="14" width="1" height="1" fill="#39ff14" />
<rect x="41" y="14" width="1" height="1" fill="#39ff14" />
<rect x="42" y="14" width="1" height="1" fill="#39ff14" />
<rect x="46" y="14" width="1" height="1" fill="#39ff14" />
<rect x="47" y="14" width="1" height="1" fill="#39ff14" />
<rect x="48" y="14" width="1" height="1" fill="#39ff14" />
<rect x="49" y="14" width="1" height="1" fill="#39ff14" />
<rect x="59" y="14" width="1" height="1" fill="#39ff14" />
<rect x="61" y="14" width="1" height="1" fill="#39ff14" />
<rect x="6" y="15" width="1" height="1" fill="#39ff14" />
<rect x="11" y="15" width="1" height="1" fill="#39ff14" />
<rect x="12" y="15" width="1" height="1" fill="#39ff14" />
<rect x="13" y="15" width="1" height="1" fill="#39ff14" />
<rect x="16" y="15" width="1" height="1" fill="#39ff14" />
<rect x="26" y="15" width="1" height="1" fill="#39ff14" />
<rect x="27" y="15" width="1" height="1" fill="#39ff14" />
<rect x="28" y="15" width="1" height="1" fill="#39ff14" />
<rect x="36" y="15" width="1" height="1" fill="#39ff14" />
<rect x="37" y="15" width="1" height="1" fill="#39ff14" />
<rect x="38" y="15" width="1" height="1" fill="#39ff14" />
<rect x="40" y="15" width="1" height="1" fill="#39ff14" />
<rect x="42" y="15" width="1" height="1" fill="#39ff14" />
<rect x="43" y="15" width="1" height="1" fill="#39ff14" />
<rect x="49" y="15" width="1" height="1" fill="#39ff14" />
<rect x="57" y="15" width="1" height="1" fill="#39ff14" />
<rect x="58" y="15" width="1" height="1" fill="#39ff14" />
<rect x="59" y="15" width="1" height="1" fill="#39ff14" />
<rect x="61" y="15" width="1" height="1" fill="#39ff14" />
<rect x="6" y="16" width="1" height="1" fill="#39ff14" />
<rect x="12" y="16" width="1" height="1" fill="#39ff14" />
<rect x="14" y="16" width="1" height="1" fill="#39ff14" />
<rect x="15" y="16" width="1" height="1" fill="#39ff14" />
<rect x="18" y="16" width="1" height="1" fill="#39ff14" />
<rect x="22" y="16" width="1" height="1" fill="#39ff14" />
<rect x="23" y="16" width="1" height="1" fill="#39ff14" />
<rect x="30" y="16" width="1" height="1" fill="#39ff14" />
<rect x="31" y="16" width="1" height="1" fill="#39ff14" />
<rect x="36" y="16" width="1" height="1" fill="#39ff14" />
<rect x="38" y="16" width="1" height="1" fill="#39ff14" />
<rect x="40" y="16" width="1" height="1" fill="#39ff14" />
<rect x="43" y="16" width="1" height="1" fill="#39ff14" />
<rect x="46" y="16" width="1" height="1" fill="#39ff14" />
<rect x="48" y="16" width="1" height="1" fill="#39ff14" />
<rect x="50" y="16" width="1" height="1" fill="#39ff14" />
<rect x="57" y="16" width="1" height="1" fill="#39ff14" />
<rect x="58" y="16" width="1" height="1" fill="#39ff14" />
<rect x="61" y="16" width="1" height="1" fill="#39ff14" />
<rect x="5" y="17" width="1" height="1" fill="#39ff14" />
<rect x="7" y="17" width="1" height="1" fill="#39ff14" />
<rect x="11" y="17" width="1" height="1" fill="#39ff14" />
<rect x="12" y="17" width="1" height="1" fill="#39ff14" />
<rect x="18" y="17" width="1" height="1" fill="#39ff14" />
<rect x="22" y="17" width="1" height="1" fill="#39ff14" />
<rect x="23" y="17" width="1" height="1" fill="#39ff14" />
<rect x="30" y="17" width="1" height="1" fill="#39ff14" />
<rect x="31" y="17" width="1" height="1" fill="#39ff14" />
<rect x="33" y="17" width="1" height="1" fill="#39ff14" />
<rect x="34" y="17" width="1" height="1" fill="#39ff14" />
<rect x="37" y="17" width="1" height="1" fill="#39ff14" />
<rect x="40" y="17" width="1" height="1" fill="#39ff14" />
<rect x="41" y="17" width="1" height="1" fill="#39ff14" />
<rect x="44" y="17" width="1" height="1" fill="#39ff14" />
<rect x="46" y="17" width="1" height="1" fill="#39ff14" />
<rect x="48" y="17" width="1" height="1" fill="#39ff14" />
<rect x="49" y="17" width="1" height="1" fill="#39ff14" />
<rect x="52" y="17" width="1" height="1" fill="#39ff14" />
<rect x="6" y="18" width="1" height="1" fill="#39ff14" />
<rect x="7" y="18" width="1" height="1" fill="#39ff14" />
<rect x="14" y="18" width="1" height="1" fill="#39ff14" />
<rect x="19" y="18" width="1" height="1" fill="#39ff14" />
<rect x="36" y="18" width="1" height="1" fill="#39ff14" />
<rect x="37" y="18" width="1" height="1" fill="#39ff14" />
<rect x="38" y="18" width="1" height="1" fill="#39ff14" />
<rect x="39" y="18" width="1" height="1" fill="#39ff14" />
<rect x="40" y="18" width="1" height="1" fill="#39ff14" />
<rect x="41" y="18" width="1" height="1" fill="#39ff14" />
<rect x="44" y="18" width="1" height="1" fill="#39ff14" />
<rect x="47" y="18" width="1" height="1" fill="#39ff14" />
<rect x="51" y="18" width="1" height="1" fill="#39ff14" />
<rect x="55" y="18" width="1" height="1" fill="#39ff14" />
<rect x="58" y="18" width="1" height="1" fill="#39ff14" />
<rect x="5" y="19" width="1" height="1" fill="#39ff14" />
<rect x="7" y="19" width="1" height="1" fill="#39ff14" />
<rect x="10" y="19" width="1" height="1" fill="#39ff14" />
<rect x="32" y="19" width="1" height="1" fill="#39ff14" />
<rect x="33" y="19" width="1" height="1" fill="#39ff14" />
<rect x="34" y="19" width="1" height="1" fill="#39ff14" />
<rect x="37" y="19" width="1" height="1" fill="#39ff14" />
<rect x="39" y="19" width="1" height="1" fill="#39ff14" />
<rect x="41" y="19" width="1" height="1" fill="#39ff14" />
<rect x="42" y="19" width="1" height="1" fill="#39ff14" />
<rect x="43" y="19" width="1" height="1" fill="#39ff14" />
<rect x="49" y="19" width="1" height="1" fill="#39ff14" />
<rect x="51" y="19" width="1" height="1" fill="#39ff14" />
<rect x="53" y="19" width="1" height="1" fill="#39ff14" />
<rect x="58" y="19" width="1" height="1" fill="#39ff14" />
<rect x="4" y="20" width="1" height="1" fill="#39ff14" />
<rect x="7" y="20" width="1" height="1" fill="#39ff14" />
<rect x="20" y="20" width="1" height="1" fill="#39ff14" />
<rect x="21" y="20" width="1" height="1" fill="#39ff14" />
<rect x="22" y="20" width="1" height="1" fill="#39ff14" />
<rect x="24" y="20" width="1" height="1" fill="#39ff14" />
<rect x="26" y="20" width="1" height="1" fill="#39ff14" />
<rect x="36" y="20" width="1" height="1" fill="#39ff14" />
<rect x="42" y="20" width="1" height="1" fill="#39ff14" />
<rect x="50" y="20" width="1" height="1" fill="#39ff14" />
<rect x="54" y="20" width="1" height="1" fill="#39ff14" />
<rect x="4" y="21" width="1" height="1" fill="#39ff14" />
<rect x="7" y="21" width="1" height="1" fill="#39ff14" />
<rect x="10" y="21" width="1" height="1" fill="#39ff14" />
<rect x="11" y="21" width="1" height="1" fill="#39ff14" />
<rect x="12" y="21" width="1" height="1" fill="#39ff14" />
<rect x="20" y="21" width="1" height="1" fill="#39ff14" />
<rect x="22" y="21" width="1" height="1" fill="#39ff14" />
<rect x="23" y="21" width="1" height="1" fill="#39ff14" />
<rect x="24" y="21" width="1" height="1" fill="#39ff14" />
<rect x="25" y="21" width="1" height="1" fill="#39ff14" />
<rect x="41" y="21" width="1" height="1" fill="#39ff14" />
<rect x="42" y="21" width="1" height="1" fill="#39ff14" />
<rect x="54" y="21" width="1" height="1" fill="#39ff14" />
<rect x="55" y="21" width="1" height="1" fill="#39ff14" />
<rect x="57" y="21" width="1" height="1" fill="#39ff14" />
<rect x="6" y="22" width="1" height="1" fill="#39ff14" />
<rect x="21" y="22" width="1" height="1" fill="#39ff14" />
<rect x="56" y="22" width="1" height="1" fill="#39ff14" />
</svg>