<?xml version="1.0" encoding="utf-8"?>
<svg xmlns="http://www.w3.org/2000/svg" width="92" height="84" viewBox="0 0 92 84">
<rect width="100%" height="100%" fill="transparent" />
<rect x="24" y="4" width="4" height="4" fill="#39ff14" />
<rect x="8" y="8" width="4" height="4" fill="#39ff14" />
<rect x="16" y="8" width="4" height="4" fill="#39ff14" />
<rect x="20" y="8" width="4" height="4" fill="#39ff14" />
<rect x="28" y="8" width="4" height="4" fill="#39ff14" />
<rect x="36" y="8" width="4" height="4" fill="#39ff14" />
<rect x="40" y="8" width="4" height="4" fill="#39ff14" />
<rect x="4" y="12" width="4" height="4" fill="#39ff14" />
<rect x="12" y="12" width="4" height="4" fill="#39ff14" />
<rect x="28" y="12" width="4" height="4" fill="#39ff14" />
<rect x="36" y="12" width="4" height="4" fill="#39ff14" />
<rect x="40" y="12" width="4" height="4" fill="#39ff14" />
<rect x="8" y="16" width="4" height="4" fill="#39ff14" />
<rect x="28" y="16" width="4" height="4" fill="#39ff14" />
<rect x="24" y="20" width="4" height="4" fill="#39ff14" />
<rect x="28" y="20" width="4" height="4" fill="#39ff14" />
<rect x="20" y="24" width="4" height="4" fill="#39ff14" />
<rect x="68" y="24" width="4" height="4" fill="#39ff14" />
<rect x="4" y="28" width="4" height="4" fill="#39ff14" />
<rect x="8" y="28" width="4" height="4" fill="#39ff14" />
<rect x="16" y="28" width="4" height="4" fill="#39ff14" />
<rect x="24" y="28" width="4" height="4" fill="#39ff14" />
<rect x="28" y="28" width="4" height="4" fill="#39ff14" />
<rect x="36" y="28" width="4" height="4" fill="#39ff14" />
<rect x="52" y="28" width="4" height="4" fill="#39ff14" />
<rect x="60" y="28" width="4" height="4" fill="#39ff14" />
<rect x="64" y="28" width="4" height="4" fill="#39ff14" />
<rect x="72" y="28" width="4" height="4" fill="#39ff14" />
<rect x="80" y="28" width="4" height="4" fill="#39ff14" />
<rect x="84" y="28" width="4" height="4" fill="#39ff14" />
<rect x="4" y="32" width="4" height="4" fill="#39ff14" />
<rect x="8" y="32" width="4" height="4" fill="#39ff14" />
<rect x="16" y="32" width="4" height="4" fill="#39ff14" />
<rect x="32" y="32" width="4" height="4" fill="#39ff14" />
<rect x="40" y="32" width="4" height="4" fill="#39ff14" />
<rect x="48" y="32" width="4" height="4" fill="#39ff14" />
<rect x="56" y="32" width="4" height="4" fill="#39ff14" />
<rect x="72" y="32" width="4" height="4" fill="#39ff14" />
<rect x="80" y="32" width="4" height="4" fill="#39ff14" />
<rect x="84" y="32" width="4" height="4" fill="#39ff14" />
<rect x="16" y="36" width="4" height="4" fill="#39ff14" />
<rect x="36" y="36" width="4" height="4" fill="#39ff14" />
<rect x="52" y="36" width="4" height="4" fill="#39ff14" />
<rect x="72" y="36" width="4" height="4" fill="#39ff14" />
<rect x="16" y="40" width="4" height="4" fill="#39ff14" />
<rect x="20" y="40" width="4" height="4" fill="#39ff14" />
<rect x="68" y="40" width="4" height="4" fill="#39ff14" />
<rect x="72" y="40" width="4" height="4" fill="#39ff14" />
<rect x="40" y="52" width="4" height="4" fill="#39ff14" />
<rect x="44" y="52" width="4" height="4" fill="#39ff14" />
<rect x="48" y="52" width="4" height="4" fill="#39ff14" />
<rect x="40" y="56" width="4" height="4" fill="#39ff14" />
<rect x="52" y="56" width="4" height="4" fill="#39ff14" />
<rect x="40" y="60" width="4" height="4" fill="#39ff14" />
<rect x="40" y="64" width="4" height="4" fill="#39ff14" />
<rect x="56" y="64" width="4" height="4" fill="#39ff14" />
<rect x="40" y="68" width="4" height="4" fill="#39ff14" />
<rect x="56" y="68" width="4" height="4" fill="#39ff14" />
<rect x="40" y="72" width="4" height="4" fill="#39ff14" />
<rect x="44" y="76" width="4" height="4" fill="#39ff14" />
<rect x="52" y="76" width="4" height="4" fill="#39ff14" />
</svg>