<?xml version="1.0" encoding="utf-8"?>
<svg xmlns="http://www.w3.org/2000/svg" width="71" height="26" viewBox="0 0 71 26">
<rect width="100%" height="100%" fill="transparent" />
<rect x="38" y="4" width="1" height="1" fill="#39ff14" />
<rect x="39" y="4" width="1" height="1" fill="#39ff14" />
<rect x="53" y="4" width="1" height="1" fill="#39ff14" />
<rect x="54" y="4" width="1" height="1" fill="#39ff14" />
<rect x="62" y="4" width="1" height="1" fill="#39ff14" />
<rect x="63" y="4" width="1" height="1" fill="#39ff14" />
<rect x="64" y="4" width="1" height="1" fill="#39ff14" />
<rect x="65" y="4" width="1" height="1" fill="#39ff14" />
<rect x="36" y="5" width="1" height="1" fill="#39ff14" />
<rect x="41" y="5" width="1" height="1" fill="#39ff14" />
<rect x="52" y="5" width="1" height="1" fill="#39ff14" />
<rect x="53" y="5" width="1" height="1" fill="#39ff14" />
<rect x="55" y="5" width="1" height="1" fill="#39ff14" />
<rect x="56" y="5" width="1" height="1" fill="#39ff14" />
<rect x="57" y="5" width="1" height="1" fill="#39ff14" />
<rect x="58" y="5" width="1" height="1" fill="#39ff14" />
<rect x="62" y="5" width="1" height="1" fill="#39ff14" />
<rect x="66" y="5" width="1" height="1" fill="#39ff14" />
<rect x="35" y="6" width="1" height="1" fill="#39ff14" />
<rect x="53" y="6" width="1" height="1" fill="#39ff14" />
<rect x="54" y="6" width="1" height="1" fill="#39ff14" />
<rect x="55" y="6" width="1" height="1" fill="#39ff14" />
<rect x="56" y="6" width="1" height="1" fill="#39ff14" />
<rect x="57" y="6" width="1" height="1" fill="#39ff14" />
<rect x="58" y="6" width="1" height="1" fill="#39ff14" />
<rect x="62" y="6" width="1" height="1" fill="#39ff14" />
<rect x="35" y="7" width="1" height="1" fill="#39ff14" />
<rect x="41" y="7" width="1" height="1" fill="#39ff14" />
<rect x="54" y="7" width="1" height="1" fill="#39ff14" />
<rect x="55" y="7" width="1" height="1" fill="#39ff14" />
<rect x="56" y="7" width="1" height="1" fill="#39ff14" />
<rect x="57" y="7" width="1" height="1" fill="#39ff14" />
<rect x="63" y="7" width="1" height="1" fill="#39ff14" />
<rect x="66" y="7" width="1" height="1" fill="#39ff14" />
<rect x="5" y="8" width="1" height="1" fill="#39ff14" />
<rect x="35" y="8" width="1" height="1" fill="#39ff14" />
<rect x="36" y="8" width="1" height="1" fill="#39ff14" />
<rect x="37" y="8" width="1" height="1" fill="#39ff14" />
<rect x="38" y="8" width="1" height="1" fill="#39ff14" />
<rect x="39" y="8" width="1" height="1" fill="#39ff14" />
<rect x="40" y="8" width="1" height="1" fill="#39ff14" />
<rect x="6" y="9" width="1" height="1" fill="#39ff14" />
<rect x="4" y="10" width="1" height="1" fill="#39ff14" />
<rect x="5" y="10" width="1" height="1" fill="#39ff14" />
<rect x="6" y="10" width="1" height="1" fill="#39ff14" />
<rect x="7" y="16" width="1" height="1" fill="#39ff14" />
<rect x="8" y="16" width="1" height="1" fill="#39ff14" />
<rect x="9" y="16" width="1" height="1" fill="#39ff14" />
<rect x="10" y="16" width="1" height="1" fill="#39ff14" />
<rect x="7" y="17" width="1" height="1" fill="#39ff14" />
<rect x="11" y="17" width="1" height="1" fill="#39ff14" />
<rect x="7" y="18" width="1" height="1" fill="#39ff14" />
<rect x="35" y="18" width="1" height="1" fill="#39ff14" />
<rect x="36" y="18" width="1" height="1" fill="#39ff14" />
<rect x="8" y="19" width="1" height="1" fill="#39ff14" />
<rect x="11" y="19" width="1" height="1" fill="#39ff14" />
<rect x="34" y="19" width="1" height="1" fill="#39ff14" />
<rect x="35" y="19" width="1" height="1" fill="#39ff14" />
<rect x="37" y="19" width="1" height="1" fill="#39ff14" />
<rect x="38" y="19" width="1" height="1" fill="#39ff14" />
<rect x="39" y="19" width="1" height="1" fill="#39ff14" />
<rect x="35" y="20" width="1" height="1" fill="#39ff14" />
<rect x="36" y="20" width="1" height="1" fill="#39ff14" />
<rect x="37" y="20" width="1" height="1" fill="#39ff14" />
<rect x="38" y="20" width="1" height="1" fill="#39ff14" />
<rect x="39" y="20" width="1" height="1" fill="#39ff14" />
<rect x="36" y="21" width="1" height="1" fill="#39ff14" />
<rect x="37" y="21" width="1" height="1" fill="#39ff14" />
<rect x="38" y="21" width="1" height="1" fill="#39ff14" />
</svg>