<?xml version="1.0" encoding="utf-8"?>
<svg xmlns="http://www.w3.org/2000/svg" width="68" height="94" viewBox="0 0 68 94">
<rect width="100%" height="100%" fill="transparent" />
<rect x="28" y="4" width="2" height="2" fill="#39ff14" />
<rect x="32" y="4" width="2" height="2" fill="#39ff14" />
<rect x="34" y="4" width="2" height="2" fill="#39ff14" />
<rect x="28" y="6" width="2" height="2" fill="#39ff14" />
<rect x="30" y="6" width="2" height="2" fill="#39ff14" />
<rect x="34" y="6" width="2" height="2" fill="#39ff14" />
<rect x="24" y="10" width="2" height="2" fill="#39ff14" />
<rect x="26" y="10" width="2" height="2" fill="#39ff14" />
<rect x="28" y="10" width="2" height="2" fill="#39ff14" />
<rect x="30" y="10" width="2" height="2" fill="#39ff14" />
<rect x="32" y="10" width="2" height="2" fill="#39ff14" />
<rect x="22" y="12" width="2" height="2" fill="#39ff14" />
<rect x="28" y="12" width="2" height="2" fill="#39ff14" />
<rect x="34" y="12" width="2" height="2" fill="#39ff14" />
<rect x="22" y="14" width="2" height="2" fill="#39ff14" />
<rect x="24" y="14" width="2" height="2" fill="#39ff14" />
<rect x="32" y="14" width="2" height="2" fill="#39ff14" />
<rect x="36" y="14" width="2" height="2" fill="#39ff14" />
<rect x="34" y="16" width="2" height="2" fill="#39ff14" />
<rect x="36" y="16" width="2" height="2" fill="#39ff14" />
<rect x="60" y="48" width="2" height="2" fill="#39ff14" />
<rect x="62" y="48" width="2" height="2" fill="#39ff14" />
<rect x="60" y="50" width="2" height="2" fill="#39ff14" />
<rect x="62" y="50" width="2" height="2" fill="#39ff14" />
<rect x="4" y="54" width="2" height="2" fill="#39ff14" />
<rect x="6" y="56" width="2" height="2" fill="#39ff14" />
<rect x="8" y="56" width="2" height="2" fill="#39ff14" />
<rect x="4" y="58" width="2" height="2" fill="#39ff14" />
<rect x="6" y="58" width="2" height="2" fill="#39ff14" />
<rect x="12" y="80" width="2" height="2" fill="#39ff14" />
<rect x="14" y="80" width="2" height="2" fill="#39ff14" />
<rect x="10" y="82" width="2" height="2" fill="#39ff14" />
<rect x="14" y="82" width="2" height="2" fill="#39ff14" />
<rect x="10" y="84" width="2" height="2" fill="#39ff14" />
<rect x="8" y="86" width="2" height="2" fill="#39ff14" />
<rect x="10" y="86" width="2" height="2" fill="#39ff14" />
<rect x="28" y="86" width="2" height="2" fill="#39ff14" />
<rect x="30" y="86" width="2" height="2" fill="#39ff14" />
<rect x="28" y="88" width="2" height="2" fill="#39ff14" />
<rect x="30" y="88" width="2" height="2" fill="#39ff14" />
</svg>