<?xml version="1.0" encoding="utf-8"?>
<svg xmlns="http://www.w3.org/2000/svg" width="64" height="30" viewBox="0 0 64 30">
<rect width="100%" height="100%" fill="transparent" />
<rect x="5" y="4" width="1" height="1" fill="#39ff14" />
<rect x="7" y="4" width="1" height="1" fill="#39ff14" />
<rect x="10" y="4" width="1" height="1" fill="#39ff14" />
<rect x="5" y="5" width="1" height="1" fill="#39ff14" />
<rect x="6" y="5" width="1" height="1" fill="#39ff14" />
<rect x="7" y="5" width="1" height="1" fill="#39ff14" />
<rect x="9" y="5" width="1" height="1" fill="#39ff14" />
<rect x="11" y="5" width="1" height="1" fill="#39ff14" />
<rect x="12" y="5" width="1" height="1" fill="#39ff14" />
<rect x="4" y="6" width="1" height="1" fill="#39ff14" />
<rect x="11" y="6" width="1" height="1" fill="#39ff14" />
<rect x="17" y="6" width="1" height="1" fill="#39ff14" />
<rect x="5" y="7" width="1" height="1" fill="#39ff14" />
<rect x="11" y="7" width="1" height="1" fill="#39ff14" />
<rect x="12" y="7" width="1" height="1" fill="#39ff14" />
<rect x="16" y="7" width="1" height="1" fill="#39ff14" />
<rect x="18" y="7" width="1" height="1" fill="#39ff14" />
<rect x="17" y="8" width="1" height="1" fill="#39ff14" />
<rect x="18" y="8" width="1" height="1" fill="#39ff14" />
<rect x="4" y="9" width="1" height="1" fill="#39ff14" />
<rect x="5" y="9" width="1" height="1" fill="#39ff14" />
<rect x="11" y="9" width="1" height="1" fill="#39ff14" />
<rect x="5" y="10" width="1" height="1" fill="#39ff14" />
<rect x="12" y="10" width="1" height="1" fill="#39ff14" />
<rect x="4" y="11" width="1" height="1" fill="#39ff14" />
<rect x="5" y="11" width="1" height="1" fill="#39ff14" />
<rect x="7" y="11" width="1" height="1" fill="#39ff14" />
<rect x="9" y="11" width="1" height="1" fill="#39ff14" />
<rect x="10" y="11" width="1" height="1" fill="#39ff14" />
<rect x="11" y="11" width="1" height="1" fill="#39ff14" />
<rect x="6" y="12" width="1" height="1" fill="#39ff14" />
<rect x="9" y="12" width="1" height="1" fill="#39ff14" />
<rect x="11" y="12" width="1" height="1" fill="#39ff14" />
<rect x="16" y="13" width="1" height="1" fill="#39ff14" />
<rect x="17" y="13" width="1" height="1" fill="#39ff14" />
<rect x="18" y="13" width="1" height="1" fill="#39ff14" />
<rect x="16" y="14" width="1" height="1" fill="#39ff14" />
<rect x="18" y="14" width="1" height="1" fill="#39ff14" />
<rect x="16" y="15" width="1" height="1" fill="#39ff14" />
<rect x="18" y="15" width="1" height="1" fill="#39ff14" />
<rect x="29" y="16" width="1" height="1" fill="#39ff14" />
<rect x="6" y="17" width="1" height="1" fill="#39ff14" />
<rect x="7" y="17" width="1" height="1" fill="#39ff14" />
<rect x="27" y="17" width="1" height="1" fill="#39ff14" />
<rect x="31" y="17" width="1" height="1" fill="#39ff14" />
<rect x="49" y="17" width="1" height="1" fill="#39ff14" />
<rect x="52" y="17" width="1" height="1" fill="#39ff14" />
<rect x="4" y="18" width="1" height="1" fill="#39ff14" />
<rect x="9" y="18" width="1" height="1" fill="#39ff14" />
<rect x="32" y="18" width="1" height="1" fill="#39ff14" />
<rect x="53" y="18" width="1" height="1" fill="#39ff14" />
<rect x="10" y="19" width="1" height="1" fill="#39ff14" />
<rect x="27" y="19" width="1" height="1" fill="#39ff14" />
<rect x="32" y="19" width="1" height="1" fill="#39ff14" />
<rect x="49" y="19" width="1" height="1" fill="#39ff14" />
<rect x="53" y="19" width="1" height="1" fill="#39ff14" />
<rect x="4" y="20" width="1" height="1" fill="#39ff14" />
<rect x="10" y="20" width="1" height="1" fill="#39ff14" />
<rect x="28" y="20" width="1" height="1" fill="#39ff14" />
<rect x="29" y="20" width="1" height="1" fill="#39ff14" />
<rect x="30" y="20" width="1" height="1" fill="#39ff14" />
<rect x="31" y="20" width="1" height="1" fill="#39ff14" />
<rect x="32" y="20" width="1" height="1" fill="#39ff14" />
<rect x="50" y="20" width="1" height="1" fill="#39ff14" />
<rect x="51" y="20" width="1" height="1" fill="#39ff14" />
<rect x="52" y="20" width="1" height="1" fill="#39ff14" />
<rect x="53" y="20" width="1" height="1" fill="#39ff14" />
<rect x="5" y="21" width="1" height="1" fill="#39ff14" />
<rect x="6" y="21" width="1" height="1" fill="#39ff14" />
<rect x="7" y="21" width="1" height="1" fill="#39ff14" />
<rect x="8" y="21" width="1" height="1" fill="#39ff14" />
<rect x="9" y="21" width="1" height="1" fill="#39ff14" />
<rect x="10" y="21" width="1" height="1" fill="#39ff14" />
<rect x="13" y="22" width="1" height="1" fill="#39ff14" />
<rect x="14" y="22" width="1" height="1" fill="#39ff14" />
<rect x="35" y="22" width="1" height="1" fill="#39ff14" />
<rect x="36" y="22" width="1" height="1" fill="#39ff14" />
<rect x="56" y="22" width="1" height="1" fill="#39ff14" />
<rect x="57" y="22" width="1" height="1" fill="#39ff14" />
<rect x="13" y="23" width="1" height="1" fill="#39ff14" />
<rect x="15" y="23" width="1" height="1" fill="#39ff14" />
<rect x="35" y="23" width="1" height="1" fill="#39ff14" />
<rect x="56" y="23" width="1" height="1" fill="#39ff14" />
<rect x="15" y="24" width="1" height="1" fill="#39ff14" />
<rect x="36" y="24" width="1" height="1" fill="#39ff14" />
<rect x="37" y="24" width="1" height="1" fill="#39ff14" />
<rect x="38" y="24" width="1" height="1" fill="#39ff14" />
<rect x="57" y="24" width="1" height="1" fill="#39ff14" />
<rect x="58" y="24" width="1" height="1" fill="#39ff14" />
<rect x="59" y="24" width="1" height="1" fill="#39ff14" />
<rect x="15" y="25" width="1" height="1" fill="#39ff14" />
<rect x="16" y="25" width="1" height="1" fill="#39ff14" />
<rect x="38" y="25" width="1" height="1" fill="#39ff14" />
<rect x="59" y="25" width="1" height="1" fill="#39ff14" />
</svg>