<?xml version="1.0" encoding="utf-8"?>
<svg xmlns="http://www.w3.org/2000/svg" width="64" height="45" viewBox="0 0 64 45">
<rect width="100%" height="100%" fill="transparent" />
<rect x="57" y="4" width="1" height="1" fill="#39ff14" />
<rect x="59" y="4" width="1" height="1" fill="#39ff14" />
<rect x="57" y="5" width="1" height="1" fill="#39ff14" />
<rect x="58" y="5" width="1" height="1" fill="#39ff14" />
<rect x="58" y="6" width="1" height="1" fill="#39ff14" />
<rect x="52" y="23" width="1" height="1" fill="#39ff14" />
<rect x="53" y="23" width="1" height="1" fill="#39ff14" />
<rect x="52" y="24" width="1" height="1" fill="#39ff14" />
<rect x="50" y="25" width="1" height="1" fill="#39ff14" />
<rect x="52" y="25" width="1" height="1" fill="#39ff14" />
<rect x="50" y="26" width="1" height="1" fill="#39ff14" />
<rect x="51" y="26" width="1" height="1" fill="#39ff14" />
<rect x="34" y="27" width="1" height="1" fill="#39ff14" />
<rect x="36" y="27" width="1" height="1" fill="#39ff14" />
<rect x="34" y="28" width="1" height="1" fill="#39ff14" />
<rect x="35" y="28" width="1" height="1" fill="#39ff14" />
<rect x="35" y="29" width="1" height="1" fill="#39ff14" />
<rect x="27" y="31" width="1" height="1" fill="#39ff14" />
<rect x="28" y="31" width="1" height="1" fill="#39ff14" />
<rect x="29" y="31" width="1" height="1" fill="#39ff14" />
<rect x="4" y="32" width="1" height="1" fill="#39ff14" />
<rect x="5" y="32" width="1" height="1" fill="#39ff14" />
<rect x="14" y="32" width="1" height="1" fill="#39ff14" />
<rect x="15" y="32" width="1" height="1" fill="#39ff14" />
<rect x="16" y="32" width="1" height="1" fill="#39ff14" />
<rect x="25" y="32" width="1" height="1" fill="#39ff14" />
<rect x="26" y="32" width="1" height="1" fill="#39ff14" />
<rect x="28" y="32" width="1" height="1" fill="#39ff14" />
<rect x="30" y="32" width="1" height="1" fill="#39ff14" />
<rect x="31" y="32" width="1" height="1" fill="#39ff14" />
<rect x="4" y="33" width="1" height="1" fill="#39ff14" />
<rect x="5" y="33" width="1" height="1" fill="#39ff14" />
<rect x="14" y="33" width="1" height="1" fill="#39ff14" />
<rect x="18" y="33" width="1" height="1" fill="#39ff14" />
<rect x="24" y="33" width="1" height="1" fill="#39ff14" />
<rect x="30" y="33" width="1" height="1" fill="#39ff14" />
<rect x="31" y="33" width="1" height="1" fill="#39ff14" />
<rect x="14" y="34" width="1" height="1" fill="#39ff14" />
<rect x="19" y="34" width="1" height="1" fill="#39ff14" />
<rect x="25" y="34" width="1" height="1" fill="#39ff14" />
<rect x="26" y="34" width="1" height="1" fill="#39ff14" />
<rect x="28" y="34" width="1" height="1" fill="#39ff14" />
<rect x="30" y="34" width="1" height="1" fill="#39ff14" />
<rect x="31" y="34" width="1" height="1" fill="#39ff14" />
<rect x="15" y="35" width="1" height="1" fill="#39ff14" />
<rect x="19" y="35" width="1" height="1" fill="#39ff14" />
<rect x="27" y="35" width="1" height="1" fill="#39ff14" />
<rect x="28" y="35" width="1" height="1" fill="#39ff14" />
<rect x="29" y="35" width="1" height="1" fill="#39ff14" />
<rect x="15" y="37" width="1" height="1" fill="#39ff14" />
<rect x="19" y="37" width="1" height="1" fill="#39ff14" />
<rect x="14" y="38" width="1" height="1" fill="#39ff14" />
<rect x="19" y="38" width="1" height="1" fill="#39ff14" />
<rect x="4" y="39" width="1" height="1" fill="#39ff14" />
<rect x="5" y="39" width="1" height="1" fill="#39ff14" />
<rect x="14" y="39" width="1" height="1" fill="#39ff14" />
<rect x="18" y="39" width="1" height="1" fill="#39ff14" />
<rect x="31" y="39" width="1" height="1" fill="#39ff14" />
<rect x="32" y="39" width="1" height="1" fill="#39ff14" />
<rect x="4" y="40" width="1" height="1" fill="#39ff14" />
<rect x="5" y="40" width="1" height="1" fill="#39ff14" />
<rect x="14" y="40" width="1" height="1" fill="#39ff14" />
<rect x="15" y="40" width="1" height="1" fill="#39ff14" />
<rect x="16" y="40" width="1" height="1" fill="#39ff14" />
<rect x="31" y="40" width="1" height="1" fill="#39ff14" />
<rect x="32" y="40" width="1" height="1" fill="#39ff14" />
</svg>