<?xml version="1.0" encoding="utf-8"?>
<svg xmlns="http://www.w3.org/2000/svg" width="74" height="42" viewBox="0 0 74 42">
<rect width="100%" height="100%" fill="transparent" />
<rect x="6" y="4" width="2" height="2" fill="#39ff14" />
<rect x="26" y="4" width="2" height="2" fill="#39ff14" />
<rect x="46" y="4" width="2" height="2" fill="#39ff14" />
<rect x="8" y="6" width="2" height="2" fill="#39ff14" />
<rect x="28" y="6" width="2" height="2" fill="#39ff14" />
<rect x="48" y="6" width="2" height="2" fill="#39ff14" />
<rect x="4" y="8" width="2" height="2" fill="#39ff14" />
<rect x="6" y="8" width="2" height="2" fill="#39ff14" />
<rect x="8" y="8" width="2" height="2" fill="#39ff14" />
<rect x="24" y="8" width="2" height="2" fill="#39ff14" />
<rect x="26" y="8" width="2" height="2" fill="#39ff14" />
<rect x="28" y="8" width="2" height="2" fill="#39ff14" />
<rect x="44" y="8" width="2" height="2" fill="#39ff14" />
<rect x="46" y="8" width="2" height="2" fill="#39ff14" />
<rect x="48" y="8" width="2" height="2" fill="#39ff14" />
<rect x="16" y="12" width="2" height="2" fill="#39ff14" />
<rect x="36" y="12" width="2" height="2" fill="#39ff14" />
<rect x="56" y="12" width="2" height="2" fill="#39ff14" />
<rect x="14" y="14" width="2" height="2" fill="#39ff14" />
<rect x="34" y="14" width="2" height="2" fill="#39ff14" />
<rect x="54" y="14" width="2" height="2" fill="#39ff14" />
<rect x="14" y="16" width="2" height="2" fill="#39ff14" />
<rect x="16" y="16" width="2" height="2" fill="#39ff14" />
<rect x="18" y="16" width="2" height="2" fill="#39ff14" />
<rect x="34" y="16" width="2" height="2" fill="#39ff14" />
<rect x="36" y="16" width="2" height="2" fill="#39ff14" />
<rect x="38" y="16" width="2" height="2" fill="#39ff14" />
<rect x="54" y="16" width="2" height="2" fill="#39ff14" />
<rect x="56" y="16" width="2" height="2" fill="#39ff14" />
<rect x="58" y="16" width="2" height="2" fill="#39ff14" />
<rect x="24" y="20" width="2" height="2" fill="#39ff14" />
<rect x="26" y="20" width="2" height="2" fill="#39ff14" />
<rect x="16" y="22" width="2" height="2" fill="#39ff14" />
<rect x="24" y="22" width="2" height="2" fill="#39ff14" />
<rect x="26" y="22" width="2" height="2" fill="#39ff14" />
<rect x="36" y="22" width="2" height="2" fill="#39ff14" />
<rect x="44" y="22" width="2" height="2" fill="#39ff14" />
<rect x="46" y="22" width="2" height="2" fill="#39ff14" />
<rect x="56" y="22" width="2" height="2" fill="#39ff14" />
<rect x="64" y="22" width="2" height="2" fill="#39ff14" />
<rect x="66" y="22" width="2" height="2" fill="#39ff14" />
<rect x="14" y="24" width="2" height="2" fill="#39ff14" />
<rect x="18" y="24" width="2" height="2" fill="#39ff14" />
<rect x="34" y="24" width="2" height="2" fill="#39ff14" />
<rect x="38" y="24" width="2" height="2" fill="#39ff14" />
<rect x="46" y="24" width="2" height="2" fill="#39ff14" />
<rect x="54" y="24" width="2" height="2" fill="#39ff14" />
<rect x="58" y="24" width="2" height="2" fill="#39ff14" />
<rect x="66" y="24" width="2" height="2" fill="#39ff14" />
<rect x="12" y="26" width="2" height="2" fill="#39ff14" />
<rect x="16" y="26" width="2" height="2" fill="#39ff14" />
<rect x="32" y="26" width="2" height="2" fill="#39ff14" />
<rect x="36" y="26" width="2" height="2" fill="#39ff14" />
<rect x="44" y="26" width="2" height="2" fill="#39ff14" />
<rect x="54" y="26" width="2" height="2" fill="#39ff14" />
<rect x="56" y="26" width="2" height="2" fill="#39ff14" />
<rect x="64" y="26" width="2" height="2" fill="#39ff14" />
<rect x="12" y="28" width="2" height="2" fill="#39ff14" />
<rect x="32" y="28" width="2" height="2" fill="#39ff14" />
<rect x="42" y="28" width="2" height="2" fill="#39ff14" />
<rect x="62" y="28" width="2" height="2" fill="#39ff14" />
<rect x="10" y="30" width="2" height="2" fill="#39ff14" />
<rect x="12" y="30" width="2" height="2" fill="#39ff14" />
<rect x="30" y="30" width="2" height="2" fill="#39ff14" />
<rect x="32" y="30" width="2" height="2" fill="#39ff14" />
<rect x="44" y="30" width="2" height="2" fill="#39ff14" />
<rect x="46" y="30" width="2" height="2" fill="#39ff14" />
<rect x="48" y="30" width="2" height="2" fill="#39ff14" />
<rect x="54" y="30" width="2" height="2" fill="#39ff14" />
<rect x="56" y="30" width="2" height="2" fill="#39ff14" />
<rect x="58" y="30" width="2" height="2" fill="#39ff14" />
<rect x="60" y="30" width="2" height="2" fill="#39ff14" />
<rect x="62" y="30" width="2" height="2" fill="#39ff14" />
<rect x="66" y="30" width="2" height="2" fill="#39ff14" />
<rect x="48" y="32" width="2" height="2" fill="#39ff14" />
<rect x="54" y="32" width="2" height="2" fill="#39ff14" />
<rect x="64" y="32" width="2" height="2" fill="#39ff14" />
<rect x="68" y="32" width="2" height="2" fill="#39ff14" />
<rect x="58" y="34" width="2" height="2" fill="#39ff14" />
<rect x="64" y="34" width="2" height="2" fill="#39ff14" />
<rect x="68" y="34" width="2" height="2" fill="#39ff14" />
<rect x="56" y="36" width="2" height="2" fill="#39ff14" />
<rect x="58" y="36" width="2" height="2" fill="#39ff14" />
<rect x="66" y="36" width="2" height="2" fill="#39ff14" />
</svg>