<?xml version="1.0" encoding="utf-8"?>
<svg xmlns="http://www.w3.org/2000/svg" width="76" height="48" viewBox="0 0 76 48">
<rect width="100%" height="100%" fill="transparent" />
<rect x="8" y="4" width="2" height="2" fill="#39ff14" />
<rect x="6" y="6" width="2" height="2" fill="#39ff14" />
<rect x="10" y="6" width="2" height="2" fill="#39ff14" />
<rect x="6" y="8" width="2" height="2" fill="#39ff14" />
<rect x="10" y="8" width="2" height="2" fill="#39ff14" />
<rect x="56" y="8" width="2" height="2" fill="#39ff14" />
<rect x="60" y="8" width="2" height="2" fill="#39ff14" />
<rect x="68" y="8" width="2" height="2" fill="#39ff14" />
<rect x="6" y="10" width="2" height="2" fill="#39ff14" />
<rect x="54" y="10" width="2" height="2" fill="#39ff14" />
<rect x="56" y="10" width="2" height="2" fill="#39ff14" />
<rect x="60" y="10" width="2" height="2" fill="#39ff14" />
<rect x="64" y="10" width="2" height="2" fill="#39ff14" />
<rect x="70" y="10" width="2" height="2" fill="#39ff14" />
<rect x="26" y="12" width="2" height="2" fill="#39ff14" />
<rect x="28" y="12" width="2" height="2" fill="#39ff14" />
<rect x="30" y="12" width="2" height="2" fill="#39ff14" />
<rect x="48" y="12" width="2" height="2" fill="#39ff14" />
<rect x="68" y="12" width="2" height="2" fill="#39ff14" />
<rect x="4" y="14" width="2" height="2" fill="#39ff14" />
<rect x="6" y="14" width="2" height="2" fill="#39ff14" />
<rect x="26" y="14" width="2" height="2" fill="#39ff14" />
<rect x="28" y="14" width="2" height="2" fill="#39ff14" />
<rect x="34" y="14" width="2" height="2" fill="#39ff14" />
<rect x="38" y="14" width="2" height="2" fill="#39ff14" />
<rect x="40" y="14" width="2" height="2" fill="#39ff14" />
<rect x="48" y="14" width="2" height="2" fill="#39ff14" />
<rect x="54" y="14" width="2" height="2" fill="#39ff14" />
<rect x="56" y="14" width="2" height="2" fill="#39ff14" />
<rect x="58" y="14" width="2" height="2" fill="#39ff14" />
<rect x="60" y="14" width="2" height="2" fill="#39ff14" />
<rect x="6" y="16" width="2" height="2" fill="#39ff14" />
<rect x="10" y="16" width="2" height="2" fill="#39ff14" />
<rect x="30" y="16" width="2" height="2" fill="#39ff14" />
<rect x="32" y="16" width="2" height="2" fill="#39ff14" />
<rect x="34" y="16" width="2" height="2" fill="#39ff14" />
<rect x="36" y="16" width="2" height="2" fill="#39ff14" />
<rect x="42" y="16" width="2" height="2" fill="#39ff14" />
<rect x="46" y="16" width="2" height="2" fill="#39ff14" />
<rect x="52" y="16" width="2" height="2" fill="#39ff14" />
<rect x="54" y="16" width="2" height="2" fill="#39ff14" />
<rect x="64" y="16" width="2" height="2" fill="#39ff14" />
<rect x="66" y="16" width="2" height="2" fill="#39ff14" />
<rect x="6" y="18" width="2" height="2" fill="#39ff14" />
<rect x="8" y="18" width="2" height="2" fill="#39ff14" />
<rect x="26" y="18" width="2" height="2" fill="#39ff14" />
<rect x="32" y="18" width="2" height="2" fill="#39ff14" />
<rect x="40" y="18" width="2" height="2" fill="#39ff14" />
<rect x="42" y="18" width="2" height="2" fill="#39ff14" />
<rect x="44" y="18" width="2" height="2" fill="#39ff14" />
<rect x="56" y="18" width="2" height="2" fill="#39ff14" />
<rect x="58" y="18" width="2" height="2" fill="#39ff14" />
<rect x="60" y="18" width="2" height="2" fill="#39ff14" />
<rect x="8" y="20" width="2" height="2" fill="#39ff14" />
<rect x="24" y="20" width="2" height="2" fill="#39ff14" />
<rect x="34" y="20" width="2" height="2" fill="#39ff14" />
<rect x="40" y="20" width="2" height="2" fill="#39ff14" />
<rect x="42" y="20" width="2" height="2" fill="#39ff14" />
<rect x="48" y="20" width="2" height="2" fill="#39ff14" />
<rect x="50" y="20" width="2" height="2" fill="#39ff14" />
<rect x="56" y="20" width="2" height="2" fill="#39ff14" />
<rect x="62" y="20" width="2" height="2" fill="#39ff14" />
<rect x="10" y="22" width="2" height="2" fill="#39ff14" />
<rect x="16" y="22" width="2" height="2" fill="#39ff14" />
<rect x="24" y="22" width="2" height="2" fill="#39ff14" />
<rect x="34" y="22" width="2" height="2" fill="#39ff14" />
<rect x="40" y="22" width="2" height="2" fill="#39ff14" />
<rect x="42" y="22" width="2" height="2" fill="#39ff14" />
<rect x="44" y="22" width="2" height="2" fill="#39ff14" />
<rect x="48" y="22" width="2" height="2" fill="#39ff14" />
<rect x="52" y="22" width="2" height="2" fill="#39ff14" />
<rect x="62" y="22" width="2" height="2" fill="#39ff14" />
<rect x="64" y="22" width="2" height="2" fill="#39ff14" />
<rect x="18" y="24" width="2" height="2" fill="#39ff14" />
<rect x="22" y="24" width="2" height="2" fill="#39ff14" />
<rect x="24" y="24" width="2" height="2" fill="#39ff14" />
<rect x="34" y="24" width="2" height="2" fill="#39ff14" />
<rect x="40" y="24" width="2" height="2" fill="#39ff14" />
<rect x="42" y="24" width="2" height="2" fill="#39ff14" />
<rect x="44" y="24" width="2" height="2" fill="#39ff14" />
<rect x="46" y="24" width="2" height="2" fill="#39ff14" />
<rect x="58" y="24" width="2" height="2" fill="#39ff14" />
<rect x="12" y="26" width="2" height="2" fill="#39ff14" />
<rect x="14" y="26" width="2" height="2" fill="#39ff14" />
<rect x="22" y="26" width="2" height="2" fill="#39ff14" />
<rect x="24" y="26" width="2" height="2" fill="#39ff14" />
<rect x="34" y="26" width="2" height="2" fill="#39ff14" />
<rect x="40" y="26" width="2" height="2" fill="#39ff14" />
<rect x="42" y="26" width="2" height="2" fill="#39ff14" />
<rect x="44" y="26" width="2" height="2" fill="#39ff14" />
<rect x="46" y="26" width="2" height="2" fill="#39ff14" />
<rect x="58" y="26" width="2" height="2" fill="#39ff14" />
<rect x="12" y="28" width="2" height="2" fill="#39ff14" />
<rect x="16" y="28" width="2" height="2" fill="#39ff14" />
<rect x="24" y="28" width="2" height="2" fill="#39ff14" />
<rect x="34" y="28" width="2" height="2" fill="#39ff14" />
<rect x="40" y="28" width="2" height="2" fill="#39ff14" />
<rect x="42" y="28" width="2" height="2" fill="#39ff14" />
<rect x="44" y="28" width="2" height="2" fill="#39ff14" />
<rect x="48" y="28" width="2" height="2" fill="#39ff14" />
<rect x="52" y="28" width="2" height="2" fill="#39ff14" />
<rect x="62" y="28" width="2" height="2" fill="#39ff14" />
<rect x="64" y="28" width="2" height="2" fill="#39ff14" />
<rect x="10" y="30" width="2" height="2" fill="#39ff14" />
<rect x="12" y="30" width="2" height="2" fill="#39ff14" />
<rect x="24" y="30" width="2" height="2" fill="#39ff14" />
<rect x="34" y="30" width="2" height="2" fill="#39ff14" />
<rect x="40" y="30" width="2" height="2" fill="#39ff14" />
<rect x="42" y="30" width="2" height="2" fill="#39ff14" />
<rect x="48" y="30" width="2" height="2" fill="#39ff14" />
<rect x="50" y="30" width="2" height="2" fill="#39ff14" />
<rect x="56" y="30" width="2" height="2" fill="#39ff14" />
<rect x="62" y="30" width="2" height="2" fill="#39ff14" />
<rect x="12" y="32" width="2" height="2" fill="#39ff14" />
<rect x="16" y="32" width="2" height="2" fill="#39ff14" />
<rect x="26" y="32" width="2" height="2" fill="#39ff14" />
<rect x="32" y="32" width="2" height="2" fill="#39ff14" />
<rect x="40" y="32" width="2" height="2" fill="#39ff14" />
<rect x="42" y="32" width="2" height="2" fill="#39ff14" />
<rect x="44" y="32" width="2" height="2" fill="#39ff14" />
<rect x="56" y="32" width="2" height="2" fill="#39ff14" />
<rect x="58" y="32" width="2" height="2" fill="#39ff14" />
<rect x="60" y="32" width="2" height="2" fill="#39ff14" />
<rect x="14" y="34" width="2" height="2" fill="#39ff14" />
<rect x="30" y="34" width="2" height="2" fill="#39ff14" />
<rect x="32" y="34" width="2" height="2" fill="#39ff14" />
<rect x="34" y="34" width="2" height="2" fill="#39ff14" />
<rect x="36" y="34" width="2" height="2" fill="#39ff14" />
<rect x="42" y="34" width="2" height="2" fill="#39ff14" />
<rect x="46" y="34" width="2" height="2" fill="#39ff14" />
<rect x="52" y="34" width="2" height="2" fill="#39ff14" />
<rect x="54" y="34" width="2" height="2" fill="#39ff14" />
<rect x="64" y="34" width="2" height="2" fill="#39ff14" />
<rect x="66" y="34" width="2" height="2" fill="#39ff14" />
<rect x="26" y="36" width="2" height="2" fill="#39ff14" />
<rect x="28" y="36" width="2" height="2" fill="#39ff14" />
<rect x="34" y="36" width="2" height="2" fill="#39ff14" />
<rect x="38" y="36" width="2" height="2" fill="#39ff14" />
<rect x="40" y="36" width="2" height="2" fill="#39ff14" />
<rect x="48" y="36" width="2" height="2" fill="#39ff14" />
<rect x="54" y="36" width="2" height="2" fill="#39ff14" />
<rect x="56" y="36" width="2" height="2" fill="#39ff14" />
<rect x="58" y="36" width="2" height="2" fill="#39ff14" />
<rect x="60" y="36" width="2" height="2" fill="#39ff14" />
<rect x="26" y="38" width="2" height="2" fill="#39ff14" />
<rect x="28" y="38" width="2" height="2" fill="#39ff14" />
<rect x="30" y="38" width="2" height="2" fill="#39ff14" />
<rect x="48" y="38" width="2" height="2" fill="#39ff14" />
<rect x="68" y="38" width="2" height="2" fill="#39ff14" />
<rect x="54" y="40" width="2" height="2" fill="#39ff14" />
<rect x="56" y="40" width="2" height="2" fill="#39ff14" />
<rect x="60" y="40" width="2" height="2" fill="#39ff14" />
<rect x="64" y="40" width="2" height="2" fill="#39ff14" />
<rect x="70" y="40" width="2" height="2" fill="#39ff14" />
<rect x="56" y="42" width="2" height="2" fill="#39ff14" />
<rect x="60" y="42" width="2" height="2" fill="#39ff14" />
<rect x="68" y="42" width="2" height="2" fill="#39ff14" />
</svg>