<?xml version="1.0" encoding="utf-8"?>
<svg xmlns="http://www.w3.org/2000/svg" width="48" height="80" viewBox="0 0 48 80">
<rect width="100%" height="100%" fill="transparent" />
<rect x="16" y="4" width="4" height="4" fill="#39ff14" />
<rect x="20" y="4" width="4" height="4" fill="#39ff14" />
<rect x="16" y="8" width="4" height="4" fill="#39ff14" />
<rect x="20" y="8" width="4" height="4" fill="#39ff14" />
<rect x="36" y="24" width="4" height="4" fill="#39ff14" />
<rect x="40" y="24" width="4" height="4" fill="#39ff14" />
<rect x="4" y="28" width="4" height="4" fill="#39ff14" />
<rect x="8" y="28" width="4" height="4" fill="#39ff14" />
<rect x="36" y="28" width="4" height="4" fill="#39ff14" />
<rect x="40" y="28" width="4" height="4" fill="#39ff14" />
<rect x="4" y="32" width="4" height="4" fill="#39ff14" />
<rect x="8" y="32" width="4" height="4" fill="#39ff14" />
<rect x="24" y="48" width="4" height="4" fill="#39ff14" />
<rect x="28" y="48" width="4" height="4" fill="#39ff14" />
<rect x="24" y="52" width="4" height="4" fill="#39ff14" />
<rect x="28" y="52" width="4" height="4" fill="#39ff14" />
<rect x="8" y="56" width="4" height="4" fill="#39ff14" />
<rect x="12" y="56" width="4" height="4" fill="#39ff14" />
<rect x="4" y="60" width="4" height="4" fill="#39ff14" />
<rect x="12" y="60" width="4" height="4" fill="#39ff14" />
<rect x="12" y="64" width="4" height="4" fill="#39ff14" />
<rect x="24" y="64" width="4" height="4" fill="#39ff14" />
<rect x="24" y="68" width="4" height="4" fill="#39ff14" />
<rect x="32" y="68" width="4" height="4" fill="#39ff14" />
<rect x="24" y="72" width="4" height="4" fill="#39ff14" />
<rect x="28" y="72" width="4" height="4" fill="#39ff14" />
</svg>