<?xml version="1.0" encoding="utf-8"?>
<svg xmlns="http://www.w3.org/2000/svg" width="77" height="80" viewBox="0 0 77 80">
<rect width="100%" height="100%" fill="transparent" />
<rect x="4" y="4" width="3" height="3" fill="#39ff14" />
<rect x="4" y="7" width="3" height="3" fill="#39ff14" />
<rect x="10" y="7" width="3" height="3" fill="#39ff14" />
<rect x="4" y="10" width="3" height="3" fill="#39ff14" />
<rect x="7" y="10" width="3" height="3" fill="#39ff14" />
<rect x="10" y="10" width="3" height="3" fill="#39ff14" />
<rect x="10" y="13" width="3" height="3" fill="#39ff14" />
<rect x="31" y="49" width="3" height="3" fill="#39ff14" />
<rect x="34" y="49" width="3" height="3" fill="#39ff14" />
<rect x="70" y="49" width="3" height="3" fill="#39ff14" />
<rect x="16" y="52" width="3" height="3" fill="#39ff14" />
<rect x="19" y="52" width="3" height="3" fill="#39ff14" />
<rect x="31" y="52" width="3" height="3" fill="#39ff14" />
<rect x="34" y="52" width="3" height="3" fill="#39ff14" />
<rect x="64" y="52" width="3" height="3" fill="#39ff14" />
<rect x="67" y="52" width="3" height="3" fill="#39ff14" />
<rect x="70" y="52" width="3" height="3" fill="#39ff14" />
<rect x="16" y="55" width="3" height="3" fill="#39ff14" />
<rect x="19" y="55" width="3" height="3" fill="#39ff14" />
<rect x="64" y="55" width="3" height="3" fill="#39ff14" />
<rect x="64" y="58" width="3" height="3" fill="#39ff14" />
<rect x="13" y="64" width="3" height="3" fill="#39ff14" />
<rect x="16" y="64" width="3" height="3" fill="#39ff14" />
<rect x="16" y="67" width="3" height="3" fill="#39ff14" />
<rect x="31" y="67" width="3" height="3" fill="#39ff14" />
<rect x="34" y="67" width="3" height="3" fill="#39ff14" />
<rect x="7" y="70" width="3" height="3" fill="#39ff14" />
<rect x="10" y="70" width="3" height="3" fill="#39ff14" />
<rect x="13" y="70" width="3" height="3" fill="#39ff14" />
<rect x="31" y="70" width="3" height="3" fill="#39ff14" />
<rect x="34" y="70" width="3" height="3" fill="#39ff14" />
<rect x="7" y="73" width="3" height="3" fill="#39ff14" />
</svg>