<?xml version="1.0" encoding="utf-8"?>
<svg xmlns="http://www.w3.org/2000/svg" width="68" height="56" viewBox="0 0 68 56">
<rect width="100%" height="100%" fill="transparent" />
<rect x="22" y="4" width="2" height="2" fill="#39ff14" />
<rect x="22" y="6" width="2" height="2" fill="#39ff14" />
<rect x="26" y="6" width="2" height="2" fill="#39ff14" />
<rect x="22" y="8" width="2" height="2" fill="#39ff14" />
<rect x="24" y="8" width="2" height="2" fill="#39ff14" />
<rect x="26" y="8" width="2" height="2" fill="#39ff14" />
<rect x="26" y="10" width="2" height="2" fill="#39ff14" />
<rect x="8" y="20" width="2" height="2" fill="#39ff14" />
<rect x="10" y="20" width="2" height="2" fill="#39ff14" />
<rect x="24" y="20" width="2" height="2" fill="#39ff14" />
<rect x="26" y="20" width="2" height="2" fill="#39ff14" />
<rect x="10" y="22" width="2" height="2" fill="#39ff14" />
<rect x="26" y="22" width="2" height="2" fill="#39ff14" />
<rect x="4" y="24" width="2" height="2" fill="#39ff14" />
<rect x="6" y="24" width="2" height="2" fill="#39ff14" />
<rect x="8" y="24" width="2" height="2" fill="#39ff14" />
<rect x="20" y="24" width="2" height="2" fill="#39ff14" />
<rect x="22" y="24" width="2" height="2" fill="#39ff14" />
<rect x="24" y="24" width="2" height="2" fill="#39ff14" />
<rect x="4" y="26" width="2" height="2" fill="#39ff14" />
<rect x="20" y="26" width="2" height="2" fill="#39ff14" />
<rect x="40" y="34" width="2" height="2" fill="#39ff14" />
<rect x="42" y="34" width="2" height="2" fill="#39ff14" />
<rect x="30" y="36" width="2" height="2" fill="#39ff14" />
<rect x="32" y="36" width="2" height="2" fill="#39ff14" />
<rect x="40" y="36" width="2" height="2" fill="#39ff14" />
<rect x="42" y="36" width="2" height="2" fill="#39ff14" />
<rect x="30" y="38" width="2" height="2" fill="#39ff14" />
<rect x="32" y="38" width="2" height="2" fill="#39ff14" />
<rect x="28" y="44" width="2" height="2" fill="#39ff14" />
<rect x="30" y="44" width="2" height="2" fill="#39ff14" />
<rect x="56" y="44" width="2" height="2" fill="#39ff14" />
<rect x="58" y="44" width="2" height="2" fill="#39ff14" />
<rect x="30" y="46" width="2" height="2" fill="#39ff14" />
<rect x="40" y="46" width="2" height="2" fill="#39ff14" />
<rect x="42" y="46" width="2" height="2" fill="#39ff14" />
<rect x="56" y="46" width="2" height="2" fill="#39ff14" />
<rect x="24" y="48" width="2" height="2" fill="#39ff14" />
<rect x="26" y="48" width="2" height="2" fill="#39ff14" />
<rect x="28" y="48" width="2" height="2" fill="#39ff14" />
<rect x="40" y="48" width="2" height="2" fill="#39ff14" />
<rect x="42" y="48" width="2" height="2" fill="#39ff14" />
<rect x="58" y="48" width="2" height="2" fill="#39ff14" />
<rect x="60" y="48" width="2" height="2" fill="#39ff14" />
<rect x="62" y="48" width="2" height="2" fill="#39ff14" />
<rect x="24" y="50" width="2" height="2" fill="#39ff14" />
<rect x="62" y="50" width="2" height="2" fill="#39ff14" />
</svg>