<?xml version="1.0" encoding="utf-8"?>
<svg xmlns="http://www.w3.org/2000/svg" width="66" height="37" viewBox="0 0 66 37">
<rect width="100%" height="100%" fill="transparent" />
<rect x="36" y="4" width="1" height="1" fill="#39ff14" />
<rect x="38" y="4" width="1" height="1" fill="#39ff14" />
<rect x="36" y="5" width="1" height="1" fill="#39ff14" />
<rect x="37" y="5" width="1" height="1" fill="#39ff14" />
<rect x="37" y="6" width="1" height="1" fill="#39ff14" />
<rect x="20" y="11" width="1" height="1" fill="#39ff14" />
<rect x="21" y="11" width="1" height="1" fill="#39ff14" />
<rect x="20" y="12" width="1" height="1" fill="#39ff14" />
<rect x="21" y="12" width="1" height="1" fill="#39ff14" />
<rect x="42" y="12" width="1" height="1" fill="#39ff14" />
<rect x="31" y="13" width="1" height="1" fill="#39ff14" />
<rect x="33" y="13" width="1" height="1" fill="#39ff14" />
<rect x="40" y="13" width="1" height="1" fill="#39ff14" />
<rect x="41" y="13" width="1" height="1" fill="#39ff14" />
<rect x="42" y="13" width="1" height="1" fill="#39ff14" />
<rect x="31" y="14" width="1" height="1" fill="#39ff14" />
<rect x="32" y="14" width="1" height="1" fill="#39ff14" />
<rect x="39" y="14" width="1" height="1" fill="#39ff14" />
<rect x="32" y="15" width="1" height="1" fill="#39ff14" />
<rect x="39" y="15" width="1" height="1" fill="#39ff14" />
<rect x="40" y="15" width="1" height="1" fill="#39ff14" />
<rect x="4" y="19" width="1" height="1" fill="#39ff14" />
<rect x="5" y="19" width="1" height="1" fill="#39ff14" />
<rect x="4" y="20" width="1" height="1" fill="#39ff14" />
<rect x="5" y="20" width="1" height="1" fill="#39ff14" />
<rect x="42" y="21" width="1" height="1" fill="#39ff14" />
<rect x="43" y="21" width="1" height="1" fill="#39ff14" />
<rect x="59" y="21" width="1" height="1" fill="#39ff14" />
<rect x="15" y="22" width="1" height="1" fill="#39ff14" />
<rect x="16" y="22" width="1" height="1" fill="#39ff14" />
<rect x="42" y="22" width="1" height="1" fill="#39ff14" />
<rect x="43" y="22" width="1" height="1" fill="#39ff14" />
<rect x="59" y="22" width="1" height="1" fill="#39ff14" />
<rect x="15" y="23" width="1" height="1" fill="#39ff14" />
<rect x="16" y="23" width="1" height="1" fill="#39ff14" />
<rect x="59" y="23" width="1" height="1" fill="#39ff14" />
<rect x="60" y="23" width="1" height="1" fill="#39ff14" />
<rect x="61" y="23" width="1" height="1" fill="#39ff14" />
<rect x="27" y="24" width="1" height="1" fill="#39ff14" />
<rect x="28" y="24" width="1" height="1" fill="#39ff14" />
<rect x="61" y="24" width="1" height="1" fill="#39ff14" />
<rect x="12" y="25" width="1" height="1" fill="#39ff14" />
<rect x="23" y="25" width="1" height="1" fill="#39ff14" />
<rect x="24" y="25" width="1" height="1" fill="#39ff14" />
<rect x="27" y="25" width="1" height="1" fill="#39ff14" />
<rect x="28" y="25" width="1" height="1" fill="#39ff14" />
<rect x="10" y="26" width="1" height="1" fill="#39ff14" />
<rect x="11" y="26" width="1" height="1" fill="#39ff14" />
<rect x="12" y="26" width="1" height="1" fill="#39ff14" />
<rect x="23" y="26" width="1" height="1" fill="#39ff14" />
<rect x="24" y="26" width="1" height="1" fill="#39ff14" />
<rect x="9" y="27" width="1" height="1" fill="#39ff14" />
<rect x="9" y="28" width="1" height="1" fill="#39ff14" />
<rect x="10" y="28" width="1" height="1" fill="#39ff14" />
<rect x="35" y="28" width="1" height="1" fill="#39ff14" />
<rect x="36" y="28" width="1" height="1" fill="#39ff14" />
<rect x="21" y="29" width="1" height="1" fill="#39ff14" />
<rect x="22" y="29" width="1" height="1" fill="#39ff14" />
<rect x="35" y="29" width="1" height="1" fill="#39ff14" />
<rect x="21" y="30" width="1" height="1" fill="#39ff14" />
<rect x="22" y="30" width="1" height="1" fill="#39ff14" />
<rect x="29" y="30" width="1" height="1" fill="#39ff14" />
<rect x="36" y="30" width="1" height="1" fill="#39ff14" />
<rect x="37" y="30" width="1" height="1" fill="#39ff14" />
<rect x="38" y="30" width="1" height="1" fill="#39ff14" />
<rect x="28" y="31" width="1" height="1" fill="#39ff14" />
<rect x="30" y="31" width="1" height="1" fill="#39ff14" />
<rect x="38" y="31" width="1" height="1" fill="#39ff14" />
<rect x="29" y="32" width="1" height="1" fill="#39ff14" />
</svg>