<?xml version="1.0" encoding="utf-8"?>
<svg xmlns="http://www.w3.org/2000/svg" width="66" height="68" viewBox="0 0 66 68">
<rect width="100%" height="100%" fill="transparent" />
<rect x="6" y="4" width="2" height="2" fill="#39ff14" />
<rect x="8" y="6" width="2" height="2" fill="#39ff14" />
<rect x="30" y="6" width="2" height="2" fill="#39ff14" />
<rect x="32" y="6" width="2" height="2" fill="#39ff14" />
<rect x="4" y="8" width="2" height="2" fill="#39ff14" />
<rect x="6" y="8" width="2" height="2" fill="#39ff14" />
<rect x="8" y="8" width="2" height="2" fill="#39ff14" />
<rect x="28" y="8" width="2" height="2" fill="#39ff14" />
<rect x="30" y="8" width="2" height="2" fill="#39ff14" />
<rect x="32" y="8" width="2" height="2" fill="#39ff14" />
<rect x="28" y="10" width="2" height="2" fill="#39ff14" />
<rect x="30" y="10" width="2" height="2" fill="#39ff14" />
<rect x="34" y="10" width="2" height="2" fill="#39ff14" />
<rect x="14" y="12" width="2" height="2" fill="#39ff14" />
<rect x="30" y="12" width="2" height="2" fill="#39ff14" />
<rect x="32" y="12" width="2" height="2" fill="#39ff14" />
<rect x="34" y="12" width="2" height="2" fill="#39ff14" />
<rect x="10" y="14" width="2" height="2" fill="#39ff14" />
<rect x="14" y="14" width="2" height="2" fill="#39ff14" />
<rect x="32" y="14" width="2" height="2" fill="#39ff14" />
<rect x="12" y="16" width="2" height="2" fill="#39ff14" />
<rect x="14" y="16" width="2" height="2" fill="#39ff14" />
<rect x="48" y="20" width="2" height="2" fill="#39ff14" />
<rect x="50" y="20" width="2" height="2" fill="#39ff14" />
<rect x="52" y="20" width="2" height="2" fill="#39ff14" />
<rect x="54" y="20" width="2" height="2" fill="#39ff14" />
<rect x="46" y="22" width="2" height="2" fill="#39ff14" />
<rect x="48" y="22" width="2" height="2" fill="#39ff14" />
<rect x="50" y="22" width="2" height="2" fill="#39ff14" />
<rect x="52" y="22" width="2" height="2" fill="#39ff14" />
<rect x="54" y="22" width="2" height="2" fill="#39ff14" />
<rect x="56" y="22" width="2" height="2" fill="#39ff14" />
<rect x="44" y="24" width="2" height="2" fill="#39ff14" />
<rect x="46" y="24" width="2" height="2" fill="#39ff14" />
<rect x="48" y="24" width="2" height="2" fill="#39ff14" />
<rect x="50" y="24" width="2" height="2" fill="#39ff14" />
<rect x="52" y="24" width="2" height="2" fill="#39ff14" />
<rect x="54" y="24" width="2" height="2" fill="#39ff14" />
<rect x="56" y="24" width="2" height="2" fill="#39ff14" />
<rect x="58" y="24" width="2" height="2" fill="#39ff14" />
<rect x="28" y="26" width="2" height="2" fill="#39ff14" />
<rect x="42" y="26" width="2" height="2" fill="#39ff14" />
<rect x="44" y="26" width="2" height="2" fill="#39ff14" />
<rect x="58" y="26" width="2" height="2" fill="#39ff14" />
<rect x="60" y="26" width="2" height="2" fill="#39ff14" />
<rect x="10" y="28" width="2" height="2" fill="#39ff14" />
<rect x="12" y="28" width="2" height="2" fill="#39ff14" />
<rect x="24" y="28" width="2" height="2" fill="#39ff14" />
<rect x="28" y="28" width="2" height="2" fill="#39ff14" />
<rect x="44" y="28" width="2" height="2" fill="#39ff14" />
<rect x="46" y="28" width="2" height="2" fill="#39ff14" />
<rect x="48" y="28" width="2" height="2" fill="#39ff14" />
<rect x="50" y="28" width="2" height="2" fill="#39ff14" />
<rect x="52" y="28" width="2" height="2" fill="#39ff14" />
<rect x="54" y="28" width="2" height="2" fill="#39ff14" />
<rect x="56" y="28" width="2" height="2" fill="#39ff14" />
<rect x="58" y="28" width="2" height="2" fill="#39ff14" />
<rect x="6" y="30" width="2" height="2" fill="#39ff14" />
<rect x="8" y="30" width="2" height="2" fill="#39ff14" />
<rect x="12" y="30" width="2" height="2" fill="#39ff14" />
<rect x="14" y="30" width="2" height="2" fill="#39ff14" />
<rect x="26" y="30" width="2" height="2" fill="#39ff14" />
<rect x="28" y="30" width="2" height="2" fill="#39ff14" />
<rect x="46" y="30" width="2" height="2" fill="#39ff14" />
<rect x="48" y="30" width="2" height="2" fill="#39ff14" />
<rect x="50" y="30" width="2" height="2" fill="#39ff14" />
<rect x="52" y="30" width="2" height="2" fill="#39ff14" />
<rect x="54" y="30" width="2" height="2" fill="#39ff14" />
<rect x="56" y="30" width="2" height="2" fill="#39ff14" />
<rect x="6" y="32" width="2" height="2" fill="#39ff14" />
<rect x="8" y="32" width="2" height="2" fill="#39ff14" />
<rect x="10" y="32" width="2" height="2" fill="#39ff14" />
<rect x="12" y="32" width="2" height="2" fill="#39ff14" />
<rect x="34" y="32" width="2" height="2" fill="#39ff14" />
<rect x="48" y="32" width="2" height="2" fill="#39ff14" />
<rect x="50" y="32" width="2" height="2" fill="#39ff14" />
<rect x="52" y="32" width="2" height="2" fill="#39ff14" />
<rect x="54" y="32" width="2" height="2" fill="#39ff14" />
<rect x="8" y="34" width="2" height="2" fill="#39ff14" />
<rect x="10" y="34" width="2" height="2" fill="#39ff14" />
<rect x="36" y="34" width="2" height="2" fill="#39ff14" />
<rect x="32" y="36" width="2" height="2" fill="#39ff14" />
<rect x="34" y="36" width="2" height="2" fill="#39ff14" />
<rect x="36" y="36" width="2" height="2" fill="#39ff14" />
<rect x="14" y="44" width="2" height="2" fill="#39ff14" />
<rect x="16" y="44" width="2" height="2" fill="#39ff14" />
<rect x="18" y="44" width="2" height="2" fill="#39ff14" />
<rect x="20" y="44" width="2" height="2" fill="#39ff14" />
<rect x="22" y="44" width="2" height="2" fill="#39ff14" />
<rect x="24" y="44" width="2" height="2" fill="#39ff14" />
<rect x="26" y="44" width="2" height="2" fill="#39ff14" />
<rect x="10" y="46" width="2" height="2" fill="#39ff14" />
<rect x="12" y="46" width="2" height="2" fill="#39ff14" />
<rect x="14" y="46" width="2" height="2" fill="#39ff14" />
<rect x="18" y="46" width="2" height="2" fill="#39ff14" />
<rect x="20" y="46" width="2" height="2" fill="#39ff14" />
<rect x="22" y="46" width="2" height="2" fill="#39ff14" />
<rect x="26" y="46" width="2" height="2" fill="#39ff14" />
<rect x="28" y="46" width="2" height="2" fill="#39ff14" />
<rect x="30" y="46" width="2" height="2" fill="#39ff14" />
<rect x="8" y="48" width="2" height="2" fill="#39ff14" />
<rect x="18" y="48" width="2" height="2" fill="#39ff14" />
<rect x="20" y="48" width="2" height="2" fill="#39ff14" />
<rect x="22" y="48" width="2" height="2" fill="#39ff14" />
<rect x="32" y="48" width="2" height="2" fill="#39ff14" />
<rect x="10" y="50" width="2" height="2" fill="#39ff14" />
<rect x="12" y="50" width="2" height="2" fill="#39ff14" />
<rect x="14" y="50" width="2" height="2" fill="#39ff14" />
<rect x="16" y="50" width="2" height="2" fill="#39ff14" />
<rect x="20" y="50" width="2" height="2" fill="#39ff14" />
<rect x="24" y="50" width="2" height="2" fill="#39ff14" />
<rect x="26" y="50" width="2" height="2" fill="#39ff14" />
<rect x="28" y="50" width="2" height="2" fill="#39ff14" />
<rect x="32" y="50" width="2" height="2" fill="#39ff14" />
<rect x="30" y="52" width="2" height="2" fill="#39ff14" />
<rect x="8" y="54" width="2" height="2" fill="#39ff14" />
<rect x="12" y="54" width="2" height="2" fill="#39ff14" />
<rect x="14" y="54" width="2" height="2" fill="#39ff14" />
<rect x="18" y="54" width="2" height="2" fill="#39ff14" />
<rect x="22" y="54" width="2" height="2" fill="#39ff14" />
<rect x="26" y="54" width="2" height="2" fill="#39ff14" />
<rect x="8" y="56" width="2" height="2" fill="#39ff14" />
<rect x="10" y="56" width="2" height="2" fill="#39ff14" />
<rect x="14" y="56" width="2" height="2" fill="#39ff14" />
<rect x="18" y="56" width="2" height="2" fill="#39ff14" />
<rect x="22" y="56" width="2" height="2" fill="#39ff14" />
<rect x="26" y="56" width="2" height="2" fill="#39ff14" />
<rect x="28" y="56" width="2" height="2" fill="#39ff14" />
<rect x="16" y="58" width="2" height="2" fill="#39ff14" />
<rect x="22" y="58" width="2" height="2" fill="#39ff14" />
<rect x="26" y="58" width="2" height="2" fill="#39ff14" />
<rect x="18" y="60" width="2" height="2" fill="#39ff14" />
<rect x="20" y="60" width="2" height="2" fill="#39ff14" />
<rect x="26" y="60" width="2" height="2" fill="#39ff14" />
<rect x="26" y="62" width="2" height="2" fill="#39ff14" />
<rect x="28" y="62" width="2" height="2" fill="#39ff14" />
</svg>