<?xml version="1.0" encoding="utf-8"?>
<svg xmlns="http://www.w3.org/2000/svg" width="94" height="70" viewBox="0 0 94 70">
<rect width="100%" height="100%" fill="transparent" />
<rect x="64" y="4" width="2" height="2" fill="#39ff14" />
<rect x="66" y="6" width="2" height="2" fill="#39ff14" />
<rect x="54" y="8" width="2" height="2" fill="#39ff14" />
<rect x="66" y="8" width="2" height="2" fill="#39ff14" />
<rect x="12" y="10" width="2" height="2" fill="#39ff14" />
<rect x="56" y="10" width="2" height="2" fill="#39ff14" />
<rect x="58" y="10" width="2" height="2" fill="#39ff14" />
<rect x="60" y="10" width="2" height="2" fill="#39ff14" />
<rect x="62" y="10" width="2" height="2" fill="#39ff14" />
<rect x="64" y="10" width="2" height="2" fill="#39ff14" />
<rect x="66" y="10" width="2" height="2" fill="#39ff14" />
<rect x="78" y="10" width="2" height="2" fill="#39ff14" />
<rect x="80" y="10" width="2" height="2" fill="#39ff14" />
<rect x="82" y="10" width="2" height="2" fill="#39ff14" />
<rect x="84" y="10" width="2" height="2" fill="#39ff14" />
<rect x="86" y="10" width="2" height="2" fill="#39ff14" />
<rect x="88" y="10" width="2" height="2" fill="#39ff14" />
<rect x="14" y="12" width="2" height="2" fill="#39ff14" />
<rect x="76" y="12" width="2" height="2" fill="#39ff14" />
<rect x="88" y="12" width="2" height="2" fill="#39ff14" />
<rect x="4" y="14" width="2" height="2" fill="#39ff14" />
<rect x="14" y="14" width="2" height="2" fill="#39ff14" />
<rect x="88" y="14" width="2" height="2" fill="#39ff14" />
<rect x="6" y="16" width="2" height="2" fill="#39ff14" />
<rect x="8" y="16" width="2" height="2" fill="#39ff14" />
<rect x="10" y="16" width="2" height="2" fill="#39ff14" />
<rect x="12" y="16" width="2" height="2" fill="#39ff14" />
<rect x="14" y="16" width="2" height="2" fill="#39ff14" />
<rect x="76" y="16" width="2" height="2" fill="#39ff14" />
<rect x="86" y="16" width="2" height="2" fill="#39ff14" />
<rect x="80" y="18" width="2" height="2" fill="#39ff14" />
<rect x="82" y="18" width="2" height="2" fill="#39ff14" />
<rect x="78" y="22" width="2" height="2" fill="#39ff14" />
<rect x="76" y="24" width="2" height="2" fill="#39ff14" />
<rect x="74" y="26" width="2" height="2" fill="#39ff14" />
<rect x="76" y="26" width="2" height="2" fill="#39ff14" />
<rect x="84" y="26" width="2" height="2" fill="#39ff14" />
<rect x="86" y="26" width="2" height="2" fill="#39ff14" />
<rect x="74" y="28" width="2" height="2" fill="#39ff14" />
<rect x="78" y="28" width="2" height="2" fill="#39ff14" />
<rect x="86" y="28" width="2" height="2" fill="#39ff14" />
<rect x="88" y="28" width="2" height="2" fill="#39ff14" />
<rect x="76" y="30" width="2" height="2" fill="#39ff14" />
<rect x="84" y="30" width="2" height="2" fill="#39ff14" />
<rect x="86" y="30" width="2" height="2" fill="#39ff14" />
<rect x="84" y="32" width="2" height="2" fill="#39ff14" />
<rect x="84" y="36" width="2" height="2" fill="#39ff14" />
<rect x="76" y="38" width="2" height="2" fill="#39ff14" />
<rect x="84" y="38" width="2" height="2" fill="#39ff14" />
<rect x="86" y="38" width="2" height="2" fill="#39ff14" />
<rect x="74" y="40" width="2" height="2" fill="#39ff14" />
<rect x="78" y="40" width="2" height="2" fill="#39ff14" />
<rect x="86" y="40" width="2" height="2" fill="#39ff14" />
<rect x="88" y="40" width="2" height="2" fill="#39ff14" />
<rect x="74" y="42" width="2" height="2" fill="#39ff14" />
<rect x="76" y="42" width="2" height="2" fill="#39ff14" />
<rect x="84" y="42" width="2" height="2" fill="#39ff14" />
<rect x="86" y="42" width="2" height="2" fill="#39ff14" />
<rect x="76" y="44" width="2" height="2" fill="#39ff14" />
<rect x="78" y="46" width="2" height="2" fill="#39ff14" />
<rect x="80" y="50" width="2" height="2" fill="#39ff14" />
<rect x="82" y="50" width="2" height="2" fill="#39ff14" />
<rect x="6" y="52" width="2" height="2" fill="#39ff14" />
<rect x="8" y="52" width="2" height="2" fill="#39ff14" />
<rect x="10" y="52" width="2" height="2" fill="#39ff14" />
<rect x="12" y="52" width="2" height="2" fill="#39ff14" />
<rect x="14" y="52" width="2" height="2" fill="#39ff14" />
<rect x="76" y="52" width="2" height="2" fill="#39ff14" />
<rect x="86" y="52" width="2" height="2" fill="#39ff14" />
<rect x="4" y="54" width="2" height="2" fill="#39ff14" />
<rect x="14" y="54" width="2" height="2" fill="#39ff14" />
<rect x="88" y="54" width="2" height="2" fill="#39ff14" />
<rect x="14" y="56" width="2" height="2" fill="#39ff14" />
<rect x="76" y="56" width="2" height="2" fill="#39ff14" />
<rect x="88" y="56" width="2" height="2" fill="#39ff14" />
<rect x="12" y="58" width="2" height="2" fill="#39ff14" />
<rect x="56" y="58" width="2" height="2" fill="#39ff14" />
<rect x="58" y="58" width="2" height="2" fill="#39ff14" />
<rect x="60" y="58" width="2" height="2" fill="#39ff14" />
<rect x="62" y="58" width="2" height="2" fill="#39ff14" />
<rect x="64" y="58" width="2" height="2" fill="#39ff14" />
<rect x="66" y="58" width="2" height="2" fill="#39ff14" />
<rect x="78" y="58" width="2" height="2" fill="#39ff14" />
<rect x="80" y="58" width="2" height="2" fill="#39ff14" />
<rect x="82" y="58" width="2" height="2" fill="#39ff14" />
<rect x="84" y="58" width="2" height="2" fill="#39ff14" />
<rect x="86" y="58" width="2" height="2" fill="#39ff14" />
<rect x="88" y="58" width="2" height="2" fill="#39ff14" />
<rect x="54" y="60" width="2" height="2" fill="#39ff14" />
<rect x="66" y="60" width="2" height="2" fill="#39ff14" />
<rect x="66" y="62" width="2" height="2" fill="#39ff14" />
<rect x="64" y="64" width="2" height="2" fill="#39ff14" />
</svg>