<?xml version="1.0" encoding="utf-8"?>
<svg xmlns="http://www.w3.org/2000/svg" width="88" height="92" viewBox="0 0 88 92">
<rect width="100%" height="100%" fill="transparent" />
<rect x="40" y="4" width="4" height="4" fill="#39ff14" />
<rect x="44" y="4" width="4" height="4" fill="#39ff14" />
<rect x="36" y="8" width="4" height="4" fill="#39ff14" />
<rect x="40" y="8" width="4" height="4" fill="#39ff14" />
<rect x="48" y="8" width="4" height="4" fill="#39ff14" />
<rect x="52" y="8" width="4" height="4" fill="#39ff14" />
<rect x="56" y="8" width="4" height="4" fill="#39ff14" />
<rect x="60" y="8" width="4" height="4" fill="#39ff14" />
<rect x="8" y="12" width="4" height="4" fill="#39ff14" />
<rect x="40" y="12" width="4" height="4" fill="#39ff14" />
<rect x="44" y="12" width="4" height="4" fill="#39ff14" />
<rect x="48" y="12" width="4" height="4" fill="#39ff14" />
<rect x="52" y="12" width="4" height="4" fill="#39ff14" />
<rect x="56" y="12" width="4" height="4" fill="#39ff14" />
<rect x="60" y="12" width="4" height="4" fill="#39ff14" />
<rect x="4" y="16" width="4" height="4" fill="#39ff14" />
<rect x="44" y="16" width="4" height="4" fill="#39ff14" />
<rect x="48" y="16" width="4" height="4" fill="#39ff14" />
<rect x="52" y="16" width="4" height="4" fill="#39ff14" />
<rect x="56" y="16" width="4" height="4" fill="#39ff14" />
<rect x="4" y="20" width="4" height="4" fill="#39ff14" />
<rect x="8" y="20" width="4" height="4" fill="#39ff14" />
<rect x="12" y="20" width="4" height="4" fill="#39ff14" />
<rect x="16" y="40" width="4" height="4" fill="#39ff14" />
<rect x="8" y="44" width="4" height="4" fill="#39ff14" />
<rect x="24" y="44" width="4" height="4" fill="#39ff14" />
<rect x="4" y="48" width="4" height="4" fill="#39ff14" />
<rect x="4" y="52" width="4" height="4" fill="#39ff14" />
<rect x="24" y="52" width="4" height="4" fill="#39ff14" />
<rect x="4" y="56" width="4" height="4" fill="#39ff14" />
<rect x="8" y="56" width="4" height="4" fill="#39ff14" />
<rect x="12" y="56" width="4" height="4" fill="#39ff14" />
<rect x="16" y="56" width="4" height="4" fill="#39ff14" />
<rect x="20" y="56" width="4" height="4" fill="#39ff14" />
<rect x="56" y="68" width="4" height="4" fill="#39ff14" />
<rect x="60" y="68" width="4" height="4" fill="#39ff14" />
<rect x="64" y="68" width="4" height="4" fill="#39ff14" />
<rect x="68" y="68" width="4" height="4" fill="#39ff14" />
<rect x="72" y="68" width="4" height="4" fill="#39ff14" />
<rect x="76" y="68" width="4" height="4" fill="#39ff14" />
<rect x="56" y="72" width="4" height="4" fill="#39ff14" />
<rect x="80" y="72" width="4" height="4" fill="#39ff14" />
<rect x="56" y="76" width="4" height="4" fill="#39ff14" />
<rect x="60" y="80" width="4" height="4" fill="#39ff14" />
<rect x="80" y="80" width="4" height="4" fill="#39ff14" />
<rect x="68" y="84" width="4" height="4" fill="#39ff14" />
<rect x="72" y="84" width="4" height="4" fill="#39ff14" />
</svg>