<?xml version="1.0" encoding="utf-8"?>
<svg xmlns="http://www.w3.org/2000/svg" width="56" height="40" viewBox="0 0 56 40">
<rect width="100%" height="100%" fill="transparent" />
<rect x="11" y="4" width="1" height="1" fill="#39ff14" />
<rect x="16" y="4" width="1" height="1" fill="#39ff14" />
<rect x="17" y="4" width="1" height="1" fill="#39ff14" />
<rect x="41" y="4" width="1" height="1" fill="#39ff14" />
<rect x="42" y="4" width="1" height="1" fill="#39ff14" />
<rect x="12" y="5" width="1" height="1" fill="#39ff14" />
<rect x="17" y="5" width="1" height="1" fill="#39ff14" />
<rect x="41" y="5" width="1" height="1" fill="#39ff14" />
<rect x="42" y="5" width="1" height="1" fill="#39ff14" />
<rect x="10" y="6" width="1" height="1" fill="#39ff14" />
<rect x="11" y="6" width="1" height="1" fill="#39ff14" />
<rect x="12" y="6" width="1" height="1" fill="#39ff14" />
<rect x="17" y="6" width="1" height="1" fill="#39ff14" />
<rect x="19" y="6" width="1" height="1" fill="#39ff14" />
<rect x="27" y="6" width="1" height="1" fill="#39ff14" />
<rect x="38" y="6" width="1" height="1" fill="#39ff14" />
<rect x="39" y="6" width="1" height="1" fill="#39ff14" />
<rect x="46" y="6" width="1" height="1" fill="#39ff14" />
<rect x="50" y="6" width="1" height="1" fill="#39ff14" />
<rect x="51" y="6" width="1" height="1" fill="#39ff14" />
<rect x="18" y="7" width="1" height="1" fill="#39ff14" />
<rect x="19" y="7" width="1" height="1" fill="#39ff14" />
<rect x="27" y="7" width="1" height="1" fill="#39ff14" />
<rect x="29" y="7" width="1" height="1" fill="#39ff14" />
<rect x="37" y="7" width="1" height="1" fill="#39ff14" />
<rect x="38" y="7" width="1" height="1" fill="#39ff14" />
<rect x="39" y="7" width="1" height="1" fill="#39ff14" />
<rect x="45" y="7" width="1" height="1" fill="#39ff14" />
<rect x="49" y="7" width="1" height="1" fill="#39ff14" />
<rect x="51" y="7" width="1" height="1" fill="#39ff14" />
<rect x="30" y="8" width="1" height="1" fill="#39ff14" />
<rect x="31" y="8" width="1" height="1" fill="#39ff14" />
<rect x="38" y="8" width="1" height="1" fill="#39ff14" />
<rect x="39" y="8" width="1" height="1" fill="#39ff14" />
<rect x="46" y="8" width="1" height="1" fill="#39ff14" />
<rect x="47" y="8" width="1" height="1" fill="#39ff14" />
<rect x="48" y="8" width="1" height="1" fill="#39ff14" />
<rect x="49" y="8" width="1" height="1" fill="#39ff14" />
<rect x="50" y="8" width="1" height="1" fill="#39ff14" />
<rect x="30" y="9" width="1" height="1" fill="#39ff14" />
<rect x="31" y="9" width="1" height="1" fill="#39ff14" />
<rect x="41" y="9" width="1" height="1" fill="#39ff14" />
<rect x="42" y="9" width="1" height="1" fill="#39ff14" />
<rect x="47" y="9" width="1" height="1" fill="#39ff14" />
<rect x="48" y="9" width="1" height="1" fill="#39ff14" />
<rect x="49" y="9" width="1" height="1" fill="#39ff14" />
<rect x="30" y="10" width="1" height="1" fill="#39ff14" />
<rect x="31" y="10" width="1" height="1" fill="#39ff14" />
<rect x="41" y="10" width="1" height="1" fill="#39ff14" />
<rect x="42" y="10" width="1" height="1" fill="#39ff14" />
<rect x="27" y="11" width="1" height="1" fill="#39ff14" />
<rect x="29" y="11" width="1" height="1" fill="#39ff14" />
<rect x="27" y="12" width="1" height="1" fill="#39ff14" />
<rect x="28" y="15" width="1" height="1" fill="#39ff14" />
<rect x="29" y="15" width="1" height="1" fill="#39ff14" />
<rect x="28" y="16" width="1" height="1" fill="#39ff14" />
<rect x="29" y="16" width="1" height="1" fill="#39ff14" />
<rect x="29" y="20" width="1" height="1" fill="#39ff14" />
<rect x="30" y="20" width="1" height="1" fill="#39ff14" />
<rect x="31" y="20" width="1" height="1" fill="#39ff14" />
<rect x="31" y="21" width="1" height="1" fill="#39ff14" />
<rect x="30" y="22" width="1" height="1" fill="#39ff14" />
<rect x="13" y="25" width="1" height="1" fill="#39ff14" />
<rect x="15" y="25" width="1" height="1" fill="#39ff14" />
<rect x="11" y="26" width="1" height="1" fill="#39ff14" />
<rect x="15" y="26" width="1" height="1" fill="#39ff14" />
<rect x="21" y="26" width="1" height="1" fill="#39ff14" />
<rect x="22" y="26" width="1" height="1" fill="#39ff14" />
<rect x="23" y="26" width="1" height="1" fill="#39ff14" />
<rect x="4" y="27" width="1" height="1" fill="#39ff14" />
<rect x="5" y="27" width="1" height="1" fill="#39ff14" />
<rect x="11" y="27" width="1" height="1" fill="#39ff14" />
<rect x="19" y="27" width="1" height="1" fill="#39ff14" />
<rect x="21" y="27" width="1" height="1" fill="#39ff14" />
<rect x="24" y="27" width="1" height="1" fill="#39ff14" />
<rect x="27" y="27" width="1" height="1" fill="#39ff14" />
<rect x="28" y="27" width="1" height="1" fill="#39ff14" />
<rect x="4" y="28" width="1" height="1" fill="#39ff14" />
<rect x="5" y="28" width="1" height="1" fill="#39ff14" />
<rect x="10" y="28" width="1" height="1" fill="#39ff14" />
<rect x="15" y="28" width="1" height="1" fill="#39ff14" />
<rect x="23" y="28" width="1" height="1" fill="#39ff14" />
<rect x="24" y="28" width="1" height="1" fill="#39ff14" />
<rect x="27" y="28" width="1" height="1" fill="#39ff14" />
<rect x="30" y="28" width="1" height="1" fill="#39ff14" />
<rect x="11" y="29" width="1" height="1" fill="#39ff14" />
<rect x="31" y="29" width="1" height="1" fill="#39ff14" />
<rect x="11" y="30" width="1" height="1" fill="#39ff14" />
<rect x="15" y="30" width="1" height="1" fill="#39ff14" />
<rect x="18" y="30" width="1" height="1" fill="#39ff14" />
<rect x="19" y="30" width="1" height="1" fill="#39ff14" />
<rect x="20" y="30" width="1" height="1" fill="#39ff14" />
<rect x="31" y="30" width="1" height="1" fill="#39ff14" />
<rect x="13" y="31" width="1" height="1" fill="#39ff14" />
<rect x="15" y="31" width="1" height="1" fill="#39ff14" />
<rect x="31" y="31" width="1" height="1" fill="#39ff14" />
<rect x="27" y="32" width="1" height="1" fill="#39ff14" />
<rect x="30" y="32" width="1" height="1" fill="#39ff14" />
<rect x="36" y="32" width="1" height="1" fill="#39ff14" />
<rect x="37" y="32" width="1" height="1" fill="#39ff14" />
<rect x="27" y="33" width="1" height="1" fill="#39ff14" />
<rect x="28" y="33" width="1" height="1" fill="#39ff14" />
<rect x="36" y="33" width="1" height="1" fill="#39ff14" />
<rect x="38" y="33" width="1" height="1" fill="#39ff14" />
<rect x="38" y="34" width="1" height="1" fill="#39ff14" />
<rect x="38" y="35" width="1" height="1" fill="#39ff14" />
<rect x="39" y="35" width="1" height="1" fill="#39ff14" />
</svg>