<?xml version="1.0" encoding="utf-8"?>
<svg xmlns="http://www.w3.org/2000/svg" width="80" height="26" viewBox="0 0 80 26">
<rect width="100%" height="100%" fill="transparent" />
<rect x="52" y="4" width="2" height="2" fill="#39ff14" />
<rect x="48" y="6" width="2" height="2" fill="#39ff14" />
<rect x="52" y="6" width="2" height="2" fill="#39ff14" />
<rect x="28" y="8" width="2" height="2" fill="#39ff14" />
<rect x="30" y="8" width="2" height="2" fill="#39ff14" />
<rect x="44" y="8" width="2" height="2" fill="#39ff14" />
<rect x="46" y="8" width="2" height="2" fill="#39ff14" />
<rect x="72" y="8" width="2" height="2" fill="#39ff14" />
<rect x="74" y="8" width="2" height="2" fill="#39ff14" />
<rect x="26" y="10" width="2" height="2" fill="#39ff14" />
<rect x="34" y="10" width="2" height="2" fill="#39ff14" />
<rect x="44" y="10" width="2" height="2" fill="#39ff14" />
<rect x="46" y="10" width="2" height="2" fill="#39ff14" />
<rect x="72" y="10" width="2" height="2" fill="#39ff14" />
<rect x="74" y="10" width="2" height="2" fill="#39ff14" />
<rect x="4" y="12" width="2" height="2" fill="#39ff14" />
<rect x="6" y="12" width="2" height="2" fill="#39ff14" />
<rect x="24" y="12" width="2" height="2" fill="#39ff14" />
<rect x="36" y="12" width="2" height="2" fill="#39ff14" />
<rect x="44" y="12" width="2" height="2" fill="#39ff14" />
<rect x="46" y="12" width="2" height="2" fill="#39ff14" />
<rect x="4" y="14" width="2" height="2" fill="#39ff14" />
<rect x="6" y="14" width="2" height="2" fill="#39ff14" />
<rect x="24" y="14" width="2" height="2" fill="#39ff14" />
<rect x="32" y="14" width="2" height="2" fill="#39ff14" />
<rect x="36" y="14" width="2" height="2" fill="#39ff14" />
<rect x="38" y="14" width="2" height="2" fill="#39ff14" />
<rect x="48" y="14" width="2" height="2" fill="#39ff14" />
<rect x="52" y="14" width="2" height="2" fill="#39ff14" />
<rect x="24" y="16" width="2" height="2" fill="#39ff14" />
<rect x="36" y="16" width="2" height="2" fill="#39ff14" />
<rect x="52" y="16" width="2" height="2" fill="#39ff14" />
<rect x="26" y="18" width="2" height="2" fill="#39ff14" />
<rect x="34" y="18" width="2" height="2" fill="#39ff14" />
<rect x="28" y="20" width="2" height="2" fill="#39ff14" />
<rect x="30" y="20" width="2" height="2" fill="#39ff14" />
</svg>