<?xml version="1.0" encoding="utf-8"?>
<svg xmlns="http://www.w3.org/2000/svg" width="93" height="83" viewBox="0 0 93 83">
<rect width="100%" height="100%" fill="transparent" />
<rect x="44" y="4" width="5" height="5" fill="#39ff14" />
<rect x="49" y="4" width="5" height="5" fill="#39ff14" />
<rect x="39" y="9" width="5" height="5" fill="#39ff14" />
<rect x="44" y="9" width="5" height="5" fill="#39ff14" />
<rect x="49" y="14" width="5" height="5" fill="#39ff14" />
<rect x="59" y="19" width="5" height="5" fill="#39ff14" />
<rect x="64" y="19" width="5" height="5" fill="#39ff14" />
<rect x="54" y="24" width="5" height="5" fill="#39ff14" />
<rect x="49" y="34" width="5" height="5" fill="#39ff14" />
<rect x="64" y="34" width="5" height="5" fill="#39ff14" />
<rect x="69" y="34" width="5" height="5" fill="#39ff14" />
<rect x="9" y="39" width="5" height="5" fill="#39ff14" />
<rect x="14" y="39" width="5" height="5" fill="#39ff14" />
<rect x="44" y="39" width="5" height="5" fill="#39ff14" />
<rect x="49" y="39" width="5" height="5" fill="#39ff14" />
<rect x="74" y="39" width="5" height="5" fill="#39ff14" />
<rect x="4" y="44" width="5" height="5" fill="#39ff14" />
<rect x="9" y="44" width="5" height="5" fill="#39ff14" />
<rect x="39" y="44" width="5" height="5" fill="#39ff14" />
<rect x="69" y="44" width="5" height="5" fill="#39ff14" />
<rect x="14" y="49" width="5" height="5" fill="#39ff14" />
<rect x="39" y="49" width="5" height="5" fill="#39ff14" />
<rect x="49" y="49" width="5" height="5" fill="#39ff14" />
<rect x="69" y="49" width="5" height="5" fill="#39ff14" />
<rect x="74" y="49" width="5" height="5" fill="#39ff14" />
<rect x="24" y="54" width="5" height="5" fill="#39ff14" />
<rect x="39" y="54" width="5" height="5" fill="#39ff14" />
<rect x="64" y="54" width="5" height="5" fill="#39ff14" />
<rect x="69" y="54" width="5" height="5" fill="#39ff14" />
<rect x="79" y="54" width="5" height="5" fill="#39ff14" />
<rect x="24" y="59" width="5" height="5" fill="#39ff14" />
<rect x="29" y="59" width="5" height="5" fill="#39ff14" />
<rect x="69" y="59" width="5" height="5" fill="#39ff14" />
<rect x="74" y="59" width="5" height="5" fill="#39ff14" />
<rect x="44" y="64" width="5" height="5" fill="#39ff14" />
<rect x="69" y="64" width="5" height="5" fill="#39ff14" />
<rect x="79" y="64" width="5" height="5" fill="#39ff14" />
<rect x="84" y="64" width="5" height="5" fill="#39ff14" />
<rect x="39" y="69" width="5" height="5" fill="#39ff14" />
<rect x="49" y="69" width="5" height="5" fill="#39ff14" />
<rect x="64" y="69" width="5" height="5" fill="#39ff14" />
<rect x="74" y="69" width="5" height="5" fill="#39ff14" />
<rect x="79" y="69" width="5" height="5" fill="#39ff14" />
<rect x="44" y="74" width="5" height="5" fill="#39ff14" />
</svg>