<?xml version="1.0" encoding="utf-8"?>
<svg xmlns="http://www.w3.org/2000/svg" width="55" height="52" viewBox="0 0 55 52">
<rect width="100%" height="100%" fill="transparent" />
<rect x="33" y="4" width="1" height="1" fill="#39ff14" />
<rect x="34" y="4" width="1" height="1" fill="#39ff14" />
<rect x="33" y="5" width="1" height="1" fill="#39ff14" />
<rect x="34" y="5" width="1" height="1" fill="#39ff14" />
<rect x="40" y="5" width="1" height="1" fill="#39ff14" />
<rect x="41" y="5" width="1" height="1" fill="#39ff14" />
<rect x="40" y="6" width="1" height="1" fill="#39ff14" />
<rect x="41" y="6" width="1" height="1" fill="#39ff14" />
<rect x="19" y="9" width="1" height="1" fill="#39ff14" />
<rect x="20" y="9" width="1" height="1" fill="#39ff14" />
<rect x="38" y="9" width="1" height="1" fill="#39ff14" />
<rect x="39" y="9" width="1" height="1" fill="#39ff14" />
<rect x="20" y="10" width="1" height="1" fill="#39ff14" />
<rect x="38" y="10" width="1" height="1" fill="#39ff14" />
<rect x="39" y="10" width="1" height="1" fill="#39ff14" />
<rect x="20" y="11" width="1" height="1" fill="#39ff14" />
<rect x="22" y="11" width="1" height="1" fill="#39ff14" />
<rect x="44" y="11" width="1" height="1" fill="#39ff14" />
<rect x="45" y="11" width="1" height="1" fill="#39ff14" />
<rect x="21" y="12" width="1" height="1" fill="#39ff14" />
<rect x="22" y="12" width="1" height="1" fill="#39ff14" />
<rect x="44" y="12" width="1" height="1" fill="#39ff14" />
<rect x="45" y="12" width="1" height="1" fill="#39ff14" />
<rect x="24" y="16" width="1" height="1" fill="#39ff14" />
<rect x="24" y="17" width="1" height="1" fill="#39ff14" />
<rect x="26" y="17" width="1" height="1" fill="#39ff14" />
<rect x="24" y="18" width="1" height="1" fill="#39ff14" />
<rect x="25" y="18" width="1" height="1" fill="#39ff14" />
<rect x="26" y="18" width="1" height="1" fill="#39ff14" />
<rect x="26" y="19" width="1" height="1" fill="#39ff14" />
<rect x="7" y="26" width="1" height="1" fill="#39ff14" />
<rect x="8" y="26" width="1" height="1" fill="#39ff14" />
<rect x="36" y="26" width="1" height="1" fill="#39ff14" />
<rect x="37" y="26" width="1" height="1" fill="#39ff14" />
<rect x="38" y="26" width="1" height="1" fill="#39ff14" />
<rect x="6" y="27" width="1" height="1" fill="#39ff14" />
<rect x="8" y="27" width="1" height="1" fill="#39ff14" />
<rect x="36" y="27" width="1" height="1" fill="#39ff14" />
<rect x="7" y="28" width="1" height="1" fill="#39ff14" />
<rect x="35" y="28" width="1" height="1" fill="#39ff14" />
<rect x="36" y="28" width="1" height="1" fill="#39ff14" />
<rect x="49" y="35" width="1" height="1" fill="#39ff14" />
<rect x="50" y="35" width="1" height="1" fill="#39ff14" />
<rect x="5" y="36" width="1" height="1" fill="#39ff14" />
<rect x="49" y="36" width="1" height="1" fill="#39ff14" />
<rect x="50" y="36" width="1" height="1" fill="#39ff14" />
<rect x="4" y="37" width="1" height="1" fill="#39ff14" />
<rect x="6" y="37" width="1" height="1" fill="#39ff14" />
<rect x="23" y="37" width="1" height="1" fill="#39ff14" />
<rect x="24" y="37" width="1" height="1" fill="#39ff14" />
<rect x="26" y="37" width="1" height="1" fill="#39ff14" />
<rect x="4" y="38" width="1" height="1" fill="#39ff14" />
<rect x="6" y="38" width="1" height="1" fill="#39ff14" />
<rect x="23" y="38" width="1" height="1" fill="#39ff14" />
<rect x="24" y="38" width="1" height="1" fill="#39ff14" />
<rect x="26" y="38" width="1" height="1" fill="#39ff14" />
<rect x="27" y="38" width="1" height="1" fill="#39ff14" />
<rect x="28" y="38" width="1" height="1" fill="#39ff14" />
<rect x="5" y="39" width="1" height="1" fill="#39ff14" />
<rect x="28" y="39" width="1" height="1" fill="#39ff14" />
<rect x="28" y="40" width="1" height="1" fill="#39ff14" />
<rect x="44" y="40" width="1" height="1" fill="#39ff14" />
<rect x="45" y="40" width="1" height="1" fill="#39ff14" />
<rect x="44" y="41" width="1" height="1" fill="#39ff14" />
<rect x="45" y="41" width="1" height="1" fill="#39ff14" />
<rect x="8" y="42" width="1" height="1" fill="#39ff14" />
<rect x="10" y="42" width="1" height="1" fill="#39ff14" />
<rect x="48" y="42" width="1" height="1" fill="#39ff14" />
<rect x="49" y="42" width="1" height="1" fill="#39ff14" />
<rect x="11" y="43" width="1" height="1" fill="#39ff14" />
<rect x="48" y="43" width="1" height="1" fill="#39ff14" />
<rect x="49" y="43" width="1" height="1" fill="#39ff14" />
<rect x="7" y="44" width="1" height="1" fill="#39ff14" />
<rect x="11" y="44" width="1" height="1" fill="#39ff14" />
<rect x="11" y="45" width="1" height="1" fill="#39ff14" />
<rect x="8" y="46" width="1" height="1" fill="#39ff14" />
<rect x="11" y="46" width="1" height="1" fill="#39ff14" />
<rect x="42" y="46" width="1" height="1" fill="#39ff14" />
<rect x="43" y="46" width="1" height="1" fill="#39ff14" />
<rect x="9" y="47" width="1" height="1" fill="#39ff14" />
<rect x="10" y="47" width="1" height="1" fill="#39ff14" />
<rect x="11" y="47" width="1" height="1" fill="#39ff14" />
<rect x="42" y="47" width="1" height="1" fill="#39ff14" />
<rect x="43" y="47" width="1" height="1" fill="#39ff14" />
</svg>