<?xml version="1.0" encoding="utf-8"?>
<svg xmlns="http://www.w3.org/2000/svg" width="84" height="68" viewBox="0 0 84 68">
<rect width="100%" height="100%" fill="transparent" />
<rect x="76" y="4" width="2" height="2" fill="#39ff14" />
<rect x="78" y="4" width="2" height="2" fill="#39ff14" />
<rect x="54" y="6" width="2" height="2" fill="#39ff14" />
<rect x="76" y="6" width="2" height="2" fill="#39ff14" />
<rect x="54" y="8" width="2" height="2" fill="#39ff14" />
<rect x="56" y="8" width="2" height="2" fill="#39ff14" />
<rect x="58" y="8" width="2" height="2" fill="#39ff14" />
<rect x="78" y="8" width="2" height="2" fill="#39ff14" />
<rect x="60" y="10" width="2" height="2" fill="#39ff14" />
<rect x="76" y="10" width="2" height="2" fill="#39ff14" />
<rect x="78" y="10" width="2" height="2" fill="#39ff14" />
<rect x="58" y="12" width="2" height="2" fill="#39ff14" />
<rect x="60" y="12" width="2" height="2" fill="#39ff14" />
<rect x="20" y="16" width="2" height="2" fill="#39ff14" />
<rect x="20" y="18" width="2" height="2" fill="#39ff14" />
<rect x="22" y="18" width="2" height="2" fill="#39ff14" />
<rect x="24" y="18" width="2" height="2" fill="#39ff14" />
<rect x="26" y="20" width="2" height="2" fill="#39ff14" />
<rect x="24" y="22" width="2" height="2" fill="#39ff14" />
<rect x="26" y="22" width="2" height="2" fill="#39ff14" />
<rect x="50" y="22" width="2" height="2" fill="#39ff14" />
<rect x="52" y="22" width="2" height="2" fill="#39ff14" />
<rect x="76" y="22" width="2" height="2" fill="#39ff14" />
<rect x="50" y="24" width="2" height="2" fill="#39ff14" />
<rect x="52" y="24" width="2" height="2" fill="#39ff14" />
<rect x="72" y="24" width="2" height="2" fill="#39ff14" />
<rect x="74" y="24" width="2" height="2" fill="#39ff14" />
<rect x="76" y="24" width="2" height="2" fill="#39ff14" />
<rect x="72" y="26" width="2" height="2" fill="#39ff14" />
<rect x="72" y="28" width="2" height="2" fill="#39ff14" />
<rect x="56" y="32" width="2" height="2" fill="#39ff14" />
<rect x="56" y="34" width="2" height="2" fill="#39ff14" />
<rect x="58" y="34" width="2" height="2" fill="#39ff14" />
<rect x="22" y="36" width="2" height="2" fill="#39ff14" />
<rect x="54" y="36" width="2" height="2" fill="#39ff14" />
<rect x="58" y="36" width="2" height="2" fill="#39ff14" />
<rect x="22" y="38" width="2" height="2" fill="#39ff14" />
<rect x="26" y="38" width="2" height="2" fill="#39ff14" />
<rect x="22" y="40" width="2" height="2" fill="#39ff14" />
<rect x="24" y="40" width="2" height="2" fill="#39ff14" />
<rect x="26" y="40" width="2" height="2" fill="#39ff14" />
<rect x="26" y="42" width="2" height="2" fill="#39ff14" />
<rect x="74" y="42" width="2" height="2" fill="#39ff14" />
<rect x="76" y="42" width="2" height="2" fill="#39ff14" />
<rect x="76" y="44" width="2" height="2" fill="#39ff14" />
<rect x="70" y="46" width="2" height="2" fill="#39ff14" />
<rect x="72" y="46" width="2" height="2" fill="#39ff14" />
<rect x="74" y="46" width="2" height="2" fill="#39ff14" />
<rect x="70" y="48" width="2" height="2" fill="#39ff14" />
<rect x="8" y="52" width="2" height="2" fill="#39ff14" />
<rect x="10" y="52" width="2" height="2" fill="#39ff14" />
<rect x="10" y="54" width="2" height="2" fill="#39ff14" />
<rect x="4" y="56" width="2" height="2" fill="#39ff14" />
<rect x="6" y="56" width="2" height="2" fill="#39ff14" />
<rect x="8" y="56" width="2" height="2" fill="#39ff14" />
<rect x="50" y="56" width="2" height="2" fill="#39ff14" />
<rect x="52" y="56" width="2" height="2" fill="#39ff14" />
<rect x="4" y="58" width="2" height="2" fill="#39ff14" />
<rect x="50" y="58" width="2" height="2" fill="#39ff14" />
<rect x="52" y="60" width="2" height="2" fill="#39ff14" />
<rect x="54" y="60" width="2" height="2" fill="#39ff14" />
<rect x="56" y="60" width="2" height="2" fill="#39ff14" />
<rect x="56" y="62" width="2" height="2" fill="#39ff14" />
</svg>