<?xml version="1.0" encoding="utf-8"?>
<svg xmlns="http://www.w3.org/2000/svg" width="85" height="92" viewBox="0 0 85 92">
<rect width="100%" height="100%" fill="transparent" />
<rect x="39" y="4" width="7" height="7" fill="#39ff14" />
<rect x="46" y="4" width="7" height="7" fill="#39ff14" />
<rect x="39" y="11" width="7" height="7" fill="#39ff14" />
<rect x="46" y="11" width="7" height="7" fill="#39ff14" />
<rect x="25" y="25" width="7" height="7" fill="#39ff14" />
<rect x="32" y="25" width="7" height="7" fill="#39ff14" />
<rect x="39" y="25" width="7" height="7" fill="#39ff14" />
<rect x="46" y="25" width="7" height="7" fill="#39ff14" />
<rect x="4" y="32" width="7" height="7" fill="#39ff14" />
<rect x="18" y="32" width="7" height="7" fill="#39ff14" />
<rect x="53" y="32" width="7" height="7" fill="#39ff14" />
<rect x="4" y="39" width="7" height="7" fill="#39ff14" />
<rect x="11" y="39" width="7" height="7" fill="#39ff14" />
<rect x="25" y="39" width="7" height="7" fill="#39ff14" />
<rect x="53" y="39" width="7" height="7" fill="#39ff14" />
<rect x="25" y="46" width="7" height="7" fill="#39ff14" />
<rect x="53" y="46" width="7" height="7" fill="#39ff14" />
<rect x="67" y="46" width="7" height="7" fill="#39ff14" />
<rect x="74" y="46" width="7" height="7" fill="#39ff14" />
<rect x="25" y="53" width="7" height="7" fill="#39ff14" />
<rect x="60" y="53" width="7" height="7" fill="#39ff14" />
<rect x="74" y="53" width="7" height="7" fill="#39ff14" />
<rect x="32" y="60" width="7" height="7" fill="#39ff14" />
<rect x="39" y="60" width="7" height="7" fill="#39ff14" />
<rect x="46" y="60" width="7" height="7" fill="#39ff14" />
<rect x="53" y="60" width="7" height="7" fill="#39ff14" />
<rect x="32" y="74" width="7" height="7" fill="#39ff14" />
<rect x="39" y="74" width="7" height="7" fill="#39ff14" />
<rect x="32" y="81" width="7" height="7" fill="#39ff14" />
<rect x="39" y="81" width="7" height="7" fill="#39ff14" />
</svg>