<?xml version="1.0" encoding="utf-8"?>
<svg xmlns="http://www.w3.org/2000/svg" width="88" height="92" viewBox="0 0 88 92">
<rect width="100%" height="100%" fill="transparent" />
<rect x="60" y="4" width="4" height="4" fill="#39ff14" />
<rect x="64" y="4" width="4" height="4" fill="#39ff14" />
<rect x="68" y="4" width="4" height="4" fill="#39ff14" />
<rect x="12" y="28" width="4" height="4" fill="#39ff14" />
<rect x="16" y="32" width="4" height="4" fill="#39ff14" />
<rect x="20" y="32" width="4" height="4" fill="#39ff14" />
<rect x="16" y="36" width="4" height="4" fill="#39ff14" />
<rect x="76" y="36" width="4" height="4" fill="#39ff14" />
<rect x="76" y="40" width="4" height="4" fill="#39ff14" />
<rect x="76" y="44" width="4" height="4" fill="#39ff14" />
<rect x="80" y="48" width="4" height="4" fill="#39ff14" />
<rect x="76" y="52" width="4" height="4" fill="#39ff14" />
<rect x="80" y="52" width="4" height="4" fill="#39ff14" />
<rect x="32" y="56" width="4" height="4" fill="#39ff14" />
<rect x="36" y="56" width="4" height="4" fill="#39ff14" />
<rect x="36" y="60" width="4" height="4" fill="#39ff14" />
<rect x="4" y="80" width="4" height="4" fill="#39ff14" />
<rect x="8" y="80" width="4" height="4" fill="#39ff14" />
<rect x="8" y="84" width="4" height="4" fill="#39ff14" />
</svg>