<?xml version="1.0" encoding="utf-8"?>
<svg xmlns="http://www.w3.org/2000/svg" width="71" height="27" viewBox="0 0 71 27">
<rect width="100%" height="100%" fill="transparent" />
<rect x="7" y="4" width="1" height="1" fill="#39ff14" />
<rect x="5" y="5" width="1" height="1" fill="#39ff14" />
<rect x="9" y="5" width="1" height="1" fill="#39ff14" />
<rect x="5" y="6" width="1" height="1" fill="#39ff14" />
<rect x="10" y="6" width="1" height="1" fill="#39ff14" />
<rect x="15" y="6" width="1" height="1" fill="#39ff14" />
<rect x="16" y="6" width="1" height="1" fill="#39ff14" />
<rect x="18" y="6" width="1" height="1" fill="#39ff14" />
<rect x="19" y="6" width="1" height="1" fill="#39ff14" />
<rect x="4" y="7" width="1" height="1" fill="#39ff14" />
<rect x="11" y="7" width="1" height="1" fill="#39ff14" />
<rect x="15" y="7" width="1" height="1" fill="#39ff14" />
<rect x="16" y="7" width="1" height="1" fill="#39ff14" />
<rect x="17" y="7" width="1" height="1" fill="#39ff14" />
<rect x="18" y="7" width="1" height="1" fill="#39ff14" />
<rect x="19" y="7" width="1" height="1" fill="#39ff14" />
<rect x="20" y="7" width="1" height="1" fill="#39ff14" />
<rect x="24" y="7" width="1" height="1" fill="#39ff14" />
<rect x="25" y="7" width="1" height="1" fill="#39ff14" />
<rect x="29" y="7" width="1" height="1" fill="#39ff14" />
<rect x="30" y="7" width="1" height="1" fill="#39ff14" />
<rect x="34" y="7" width="1" height="1" fill="#39ff14" />
<rect x="35" y="7" width="1" height="1" fill="#39ff14" />
<rect x="39" y="7" width="1" height="1" fill="#39ff14" />
<rect x="40" y="7" width="1" height="1" fill="#39ff14" />
<rect x="44" y="7" width="1" height="1" fill="#39ff14" />
<rect x="45" y="7" width="1" height="1" fill="#39ff14" />
<rect x="49" y="7" width="1" height="1" fill="#39ff14" />
<rect x="50" y="7" width="1" height="1" fill="#39ff14" />
<rect x="54" y="7" width="1" height="1" fill="#39ff14" />
<rect x="55" y="7" width="1" height="1" fill="#39ff14" />
<rect x="59" y="7" width="1" height="1" fill="#39ff14" />
<rect x="60" y="7" width="1" height="1" fill="#39ff14" />
<rect x="64" y="7" width="1" height="1" fill="#39ff14" />
<rect x="65" y="7" width="1" height="1" fill="#39ff14" />
<rect x="4" y="8" width="1" height="1" fill="#39ff14" />
<rect x="11" y="8" width="1" height="1" fill="#39ff14" />
<rect x="14" y="8" width="1" height="1" fill="#39ff14" />
<rect x="21" y="8" width="1" height="1" fill="#39ff14" />
<rect x="23" y="8" width="1" height="1" fill="#39ff14" />
<rect x="26" y="8" width="1" height="1" fill="#39ff14" />
<rect x="28" y="8" width="1" height="1" fill="#39ff14" />
<rect x="31" y="8" width="1" height="1" fill="#39ff14" />
<rect x="33" y="8" width="1" height="1" fill="#39ff14" />
<rect x="36" y="8" width="1" height="1" fill="#39ff14" />
<rect x="38" y="8" width="1" height="1" fill="#39ff14" />
<rect x="41" y="8" width="1" height="1" fill="#39ff14" />
<rect x="43" y="8" width="1" height="1" fill="#39ff14" />
<rect x="46" y="8" width="1" height="1" fill="#39ff14" />
<rect x="48" y="8" width="1" height="1" fill="#39ff14" />
<rect x="51" y="8" width="1" height="1" fill="#39ff14" />
<rect x="53" y="8" width="1" height="1" fill="#39ff14" />
<rect x="56" y="8" width="1" height="1" fill="#39ff14" />
<rect x="58" y="8" width="1" height="1" fill="#39ff14" />
<rect x="61" y="8" width="1" height="1" fill="#39ff14" />
<rect x="63" y="8" width="1" height="1" fill="#39ff14" />
<rect x="66" y="8" width="1" height="1" fill="#39ff14" />
<rect x="4" y="9" width="1" height="1" fill="#39ff14" />
<rect x="5" y="9" width="1" height="1" fill="#39ff14" />
<rect x="11" y="9" width="1" height="1" fill="#39ff14" />
<rect x="15" y="9" width="1" height="1" fill="#39ff14" />
<rect x="16" y="9" width="1" height="1" fill="#39ff14" />
<rect x="17" y="9" width="1" height="1" fill="#39ff14" />
<rect x="18" y="9" width="1" height="1" fill="#39ff14" />
<rect x="19" y="9" width="1" height="1" fill="#39ff14" />
<rect x="20" y="9" width="1" height="1" fill="#39ff14" />
<rect x="24" y="9" width="1" height="1" fill="#39ff14" />
<rect x="25" y="9" width="1" height="1" fill="#39ff14" />
<rect x="29" y="9" width="1" height="1" fill="#39ff14" />
<rect x="30" y="9" width="1" height="1" fill="#39ff14" />
<rect x="34" y="9" width="1" height="1" fill="#39ff14" />
<rect x="35" y="9" width="1" height="1" fill="#39ff14" />
<rect x="39" y="9" width="1" height="1" fill="#39ff14" />
<rect x="40" y="9" width="1" height="1" fill="#39ff14" />
<rect x="44" y="9" width="1" height="1" fill="#39ff14" />
<rect x="45" y="9" width="1" height="1" fill="#39ff14" />
<rect x="49" y="9" width="1" height="1" fill="#39ff14" />
<rect x="50" y="9" width="1" height="1" fill="#39ff14" />
<rect x="54" y="9" width="1" height="1" fill="#39ff14" />
<rect x="55" y="9" width="1" height="1" fill="#39ff14" />
<rect x="59" y="9" width="1" height="1" fill="#39ff14" />
<rect x="60" y="9" width="1" height="1" fill="#39ff14" />
<rect x="64" y="9" width="1" height="1" fill="#39ff14" />
<rect x="65" y="9" width="1" height="1" fill="#39ff14" />
<rect x="10" y="10" width="1" height="1" fill="#39ff14" />
<rect x="15" y="10" width="1" height="1" fill="#39ff14" />
<rect x="16" y="10" width="1" height="1" fill="#39ff14" />
<rect x="18" y="10" width="1" height="1" fill="#39ff14" />
<rect x="19" y="10" width="1" height="1" fill="#39ff14" />
<rect x="8" y="11" width="1" height="1" fill="#39ff14" />
<rect x="8" y="12" width="1" height="1" fill="#39ff14" />
<rect x="9" y="12" width="1" height="1" fill="#39ff14" />
<rect x="12" y="12" width="1" height="1" fill="#39ff14" />
<rect x="13" y="12" width="1" height="1" fill="#39ff14" />
<rect x="16" y="12" width="1" height="1" fill="#39ff14" />
<rect x="17" y="12" width="1" height="1" fill="#39ff14" />
<rect x="20" y="12" width="1" height="1" fill="#39ff14" />
<rect x="21" y="12" width="1" height="1" fill="#39ff14" />
<rect x="24" y="12" width="1" height="1" fill="#39ff14" />
<rect x="25" y="12" width="1" height="1" fill="#39ff14" />
<rect x="28" y="12" width="1" height="1" fill="#39ff14" />
<rect x="29" y="12" width="1" height="1" fill="#39ff14" />
<rect x="32" y="12" width="1" height="1" fill="#39ff14" />
<rect x="33" y="12" width="1" height="1" fill="#39ff14" />
<rect x="36" y="12" width="1" height="1" fill="#39ff14" />
<rect x="37" y="12" width="1" height="1" fill="#39ff14" />
<rect x="40" y="12" width="1" height="1" fill="#39ff14" />
<rect x="41" y="12" width="1" height="1" fill="#39ff14" />
<rect x="44" y="12" width="1" height="1" fill="#39ff14" />
<rect x="45" y="12" width="1" height="1" fill="#39ff14" />
<rect x="48" y="12" width="1" height="1" fill="#39ff14" />
<rect x="49" y="12" width="1" height="1" fill="#39ff14" />
<rect x="52" y="12" width="1" height="1" fill="#39ff14" />
<rect x="53" y="12" width="1" height="1" fill="#39ff14" />
<rect x="56" y="12" width="1" height="1" fill="#39ff14" />
<rect x="57" y="12" width="1" height="1" fill="#39ff14" />
<rect x="8" y="13" width="1" height="1" fill="#39ff14" />
<rect x="9" y="13" width="1" height="1" fill="#39ff14" />
<rect x="12" y="13" width="1" height="1" fill="#39ff14" />
<rect x="13" y="13" width="1" height="1" fill="#39ff14" />
<rect x="16" y="13" width="1" height="1" fill="#39ff14" />
<rect x="17" y="13" width="1" height="1" fill="#39ff14" />
<rect x="20" y="13" width="1" height="1" fill="#39ff14" />
<rect x="21" y="13" width="1" height="1" fill="#39ff14" />
<rect x="24" y="13" width="1" height="1" fill="#39ff14" />
<rect x="25" y="13" width="1" height="1" fill="#39ff14" />
<rect x="28" y="13" width="1" height="1" fill="#39ff14" />
<rect x="29" y="13" width="1" height="1" fill="#39ff14" />
<rect x="32" y="13" width="1" height="1" fill="#39ff14" />
<rect x="33" y="13" width="1" height="1" fill="#39ff14" />
<rect x="36" y="13" width="1" height="1" fill="#39ff14" />
<rect x="37" y="13" width="1" height="1" fill="#39ff14" />
<rect x="40" y="13" width="1" height="1" fill="#39ff14" />
<rect x="41" y="13" width="1" height="1" fill="#39ff14" />
<rect x="44" y="13" width="1" height="1" fill="#39ff14" />
<rect x="45" y="13" width="1" height="1" fill="#39ff14" />
<rect x="48" y="13" width="1" height="1" fill="#39ff14" />
<rect x="49" y="13" width="1" height="1" fill="#39ff14" />
<rect x="52" y="13" width="1" height="1" fill="#39ff14" />
<rect x="53" y="13" width="1" height="1" fill="#39ff14" />
<rect x="56" y="13" width="1" height="1" fill="#39ff14" />
<rect x="57" y="13" width="1" height="1" fill="#39ff14" />
<rect x="6" y="15" width="1" height="1" fill="#39ff14" />
<rect x="7" y="15" width="1" height="1" fill="#39ff14" />
<rect x="8" y="15" width="1" height="1" fill="#39ff14" />
<rect x="9" y="15" width="1" height="1" fill="#39ff14" />
<rect x="10" y="15" width="1" height="1" fill="#39ff14" />
<rect x="11" y="15" width="1" height="1" fill="#39ff14" />
<rect x="12" y="15" width="1" height="1" fill="#39ff14" />
<rect x="13" y="15" width="1" height="1" fill="#39ff14" />
<rect x="14" y="15" width="1" height="1" fill="#39ff14" />
<rect x="15" y="15" width="1" height="1" fill="#39ff14" />
<rect x="16" y="15" width="1" height="1" fill="#39ff14" />
<rect x="17" y="15" width="1" height="1" fill="#39ff14" />
<rect x="18" y="15" width="1" height="1" fill="#39ff14" />
<rect x="19" y="15" width="1" height="1" fill="#39ff14" />
<rect x="20" y="15" width="1" height="1" fill="#39ff14" />
<rect x="21" y="15" width="1" height="1" fill="#39ff14" />
<rect x="22" y="15" width="1" height="1" fill="#39ff14" />
<rect x="23" y="15" width="1" height="1" fill="#39ff14" />
<rect x="24" y="15" width="1" height="1" fill="#39ff14" />
<rect x="25" y="15" width="1" height="1" fill="#39ff14" />
<rect x="26" y="15" width="1" height="1" fill="#39ff14" />
<rect x="27" y="15" width="1" height="1" fill="#39ff14" />
<rect x="28" y="15" width="1" height="1" fill="#39ff14" />
<rect x="29" y="15" width="1" height="1" fill="#39ff14" />
<rect x="30" y="15" width="1" height="1" fill="#39ff14" />
<rect x="31" y="15" width="1" height="1" fill="#39ff14" />
<rect x="32" y="15" width="1" height="1" fill="#39ff14" />
<rect x="33" y="15" width="1" height="1" fill="#39ff14" />
<rect x="34" y="15" width="1" height="1" fill="#39ff14" />
<rect x="35" y="15" width="1" height="1" fill="#39ff14" />
<rect x="36" y="15" width="1" height="1" fill="#39ff14" />
<rect x="37" y="15" width="1" height="1" fill="#39ff14" />
<rect x="38" y="15" width="1" height="1" fill="#39ff14" />
<rect x="39" y="15" width="1" height="1" fill="#39ff14" />
<rect x="40" y="15" width="1" height="1" fill="#39ff14" />
<rect x="41" y="15" width="1" height="1" fill="#39ff14" />
<rect x="42" y="15" width="1" height="1" fill="#39ff14" />
<rect x="43" y="15" width="1" height="1" fill="#39ff14" />
<rect x="44" y="15" width="1" height="1" fill="#39ff14" />
<rect x="45" y="15" width="1" height="1" fill="#39ff14" />
<rect x="46" y="15" width="1" height="1" fill="#39ff14" />
<rect x="47" y="15" width="1" height="1" fill="#39ff14" />
<rect x="48" y="15" width="1" height="1" fill="#39ff14" />
<rect x="49" y="15" width="1" height="1" fill="#39ff14" />
<rect x="50" y="15" width="1" height="1" fill="#39ff14" />
<rect x="51" y="15" width="1" height="1" fill="#39ff14" />
<rect x="52" y="15" width="1" height="1" fill="#39ff14" />
<rect x="53" y="15" width="1" height="1" fill="#39ff14" />
<rect x="54" y="15" width="1" height="1" fill="#39ff14" />
<rect x="55" y="15" width="1" height="1" fill="#39ff14" />
<rect x="56" y="15" width="1" height="1" fill="#39ff14" />
<rect x="57" y="15" width="1" height="1" fill="#39ff14" />
<rect x="58" y="15" width="1" height="1" fill="#39ff14" />
<rect x="59" y="15" width="1" height="1" fill="#39ff14" />
<rect x="5" y="16" width="1" height="1" fill="#39ff14" />
<rect x="12" y="16" width="1" height="1" fill="#39ff14" />
<rect x="60" y="16" width="1" height="1" fill="#39ff14" />
<rect x="4" y="17" width="1" height="1" fill="#39ff14" />
<rect x="6" y="17" width="1" height="1" fill="#39ff14" />
<rect x="7" y="17" width="1" height="1" fill="#39ff14" />
<rect x="8" y="17" width="1" height="1" fill="#39ff14" />
<rect x="9" y="17" width="1" height="1" fill="#39ff14" />
<rect x="10" y="17" width="1" height="1" fill="#39ff14" />
<rect x="15" y="17" width="1" height="1" fill="#39ff14" />
<rect x="16" y="17" width="1" height="1" fill="#39ff14" />
<rect x="17" y="17" width="1" height="1" fill="#39ff14" />
<rect x="18" y="17" width="1" height="1" fill="#39ff14" />
<rect x="19" y="17" width="1" height="1" fill="#39ff14" />
<rect x="20" y="17" width="1" height="1" fill="#39ff14" />
<rect x="21" y="17" width="1" height="1" fill="#39ff14" />
<rect x="22" y="17" width="1" height="1" fill="#39ff14" />
<rect x="23" y="17" width="1" height="1" fill="#39ff14" />
<rect x="24" y="17" width="1" height="1" fill="#39ff14" />
<rect x="25" y="17" width="1" height="1" fill="#39ff14" />
<rect x="26" y="17" width="1" height="1" fill="#39ff14" />
<rect x="27" y="17" width="1" height="1" fill="#39ff14" />
<rect x="28" y="17" width="1" height="1" fill="#39ff14" />
<rect x="29" y="17" width="1" height="1" fill="#39ff14" />
<rect x="30" y="17" width="1" height="1" fill="#39ff14" />
<rect x="31" y="17" width="1" height="1" fill="#39ff14" />
<rect x="32" y="17" width="1" height="1" fill="#39ff14" />
<rect x="33" y="17" width="1" height="1" fill="#39ff14" />
<rect x="34" y="17" width="1" height="1" fill="#39ff14" />
<rect x="35" y="17" width="1" height="1" fill="#39ff14" />
<rect x="36" y="17" width="1" height="1" fill="#39ff14" />
<rect x="37" y="17" width="1" height="1" fill="#39ff14" />
<rect x="38" y="17" width="1" height="1" fill="#39ff14" />
<rect x="39" y="17" width="1" height="1" fill="#39ff14" />
<rect x="40" y="17" width="1" height="1" fill="#39ff14" />
<rect x="41" y="17" width="1" height="1" fill="#39ff14" />
<rect x="42" y="17" width="1" height="1" fill="#39ff14" />
<rect x="43" y="17" width="1" height="1" fill="#39ff14" />
<rect x="44" y="17" width="1" height="1" fill="#39ff14" />
<rect x="45" y="17" width="1" height="1" fill="#39ff14" />
<rect x="46" y="17" width="1" height="1" fill="#39ff14" />
<rect x="47" y="17" width="1" height="1" fill="#39ff14" />
<rect x="48" y="17" width="1" height="1" fill="#39ff14" />
<rect x="49" y="17" width="1" height="1" fill="#39ff14" />
<rect x="50" y="17" width="1" height="1" fill="#39ff14" />
<rect x="51" y="17" width="1" height="1" fill="#39ff14" />
<rect x="52" y="17" width="1" height="1" fill="#39ff14" />
<rect x="53" y="17" width="1" height="1" fill="#39ff14" />
<rect x="54" y="17" width="1" height="1" fill="#39ff14" />
<rect x="55" y="17" width="1" height="1" fill="#39ff14" />
<rect x="56" y="17" width="1" height="1" fill="#39ff14" />
<rect x="57" y="17" width="1" height="1" fill="#39ff14" />
<rect x="58" y="17" width="1" height="1" fill="#39ff14" />
<rect x="59" y="17" width="1" height="1" fill="#39ff14" />
<rect x="61" y="17" width="1" height="1" fill="#39ff14" />
<rect x="5" y="18" width="1" height="1" fill="#39ff14" />
<rect x="11" y="18" width="1" height="1" fill="#39ff14" />
<rect x="60" y="18" width="1" height="1" fill="#39ff14" />
<rect x="6" y="19" width="1" height="1" fill="#39ff14" />
<rect x="7" y="19" width="1" height="1" fill="#39ff14" />
<rect x="8" y="19" width="1" height="1" fill="#39ff14" />
<rect x="9" y="19" width="1" height="1" fill="#39ff14" />
<rect x="10" y="19" width="1" height="1" fill="#39ff14" />
<rect x="11" y="19" width="1" height="1" fill="#39ff14" />
<rect x="12" y="19" width="1" height="1" fill="#39ff14" />
<rect x="13" y="19" width="1" height="1" fill="#39ff14" />
<rect x="14" y="19" width="1" height="1" fill="#39ff14" />
<rect x="15" y="19" width="1" height="1" fill="#39ff14" />
<rect x="16" y="19" width="1" height="1" fill="#39ff14" />
<rect x="17" y="19" width="1" height="1" fill="#39ff14" />
<rect x="18" y="19" width="1" height="1" fill="#39ff14" />
<rect x="19" y="19" width="1" height="1" fill="#39ff14" />
<rect x="20" y="19" width="1" height="1" fill="#39ff14" />
<rect x="21" y="19" width="1" height="1" fill="#39ff14" />
<rect x="22" y="19" width="1" height="1" fill="#39ff14" />
<rect x="23" y="19" width="1" height="1" fill="#39ff14" />
<rect x="24" y="19" width="1" height="1" fill="#39ff14" />
<rect x="25" y="19" width="1" height="1" fill="#39ff14" />
<rect x="26" y="19" width="1" height="1" fill="#39ff14" />
<rect x="27" y="19" width="1" height="1" fill="#39ff14" />
<rect x="28" y="19" width="1" height="1" fill="#39ff14" />
<rect x="29" y="19" width="1" height="1" fill="#39ff14" />
<rect x="30" y="19" width="1" height="1" fill="#39ff14" />
<rect x="31" y="19" width="1" height="1" fill="#39ff14" />
<rect x="32" y="19" width="1" height="1" fill="#39ff14" />
<rect x="33" y="19" width="1" height="1" fill="#39ff14" />
<rect x="34" y="19" width="1" height="1" fill="#39ff14" />
<rect x="35" y="19" width="1" height="1" fill="#39ff14" />
<rect x="36" y="19" width="1" height="1" fill="#39ff14" />
<rect x="37" y="19" width="1" height="1" fill="#39ff14" />
<rect x="38" y="19" width="1" height="1" fill="#39ff14" />
<rect x="39" y="19" width="1" height="1" fill="#39ff14" />
<rect x="40" y="19" width="1" height="1" fill="#39ff14" />
<rect x="41" y="19" width="1" height="1" fill="#39ff14" />
<rect x="42" y="19" width="1" height="1" fill="#39ff14" />
<rect x="43" y="19" width="1" height="1" fill="#39ff14" />
<rect x="44" y="19" width="1" height="1" fill="#39ff14" />
<rect x="45" y="19" width="1" height="1" fill="#39ff14" />
<rect x="46" y="19" width="1" height="1" fill="#39ff14" />
<rect x="47" y="19" width="1" height="1" fill="#39ff14" />
<rect x="48" y="19" width="1" height="1" fill="#39ff14" />
<rect x="49" y="19" width="1" height="1" fill="#39ff14" />
<rect x="50" y="19" width="1" height="1" fill="#39ff14" />
<rect x="51" y="19" width="1" height="1" fill="#39ff14" />
<rect x="52" y="19" width="1" height="1" fill="#39ff14" />
<rect x="53" y="19" width="1" height="1" fill="#39ff14" />
<rect x="54" y="19" width="1" height="1" fill="#39ff14" />
<rect x="55" y="19" width="1" height="1" fill="#39ff14" />
<rect x="56" y="19" width="1" height="1" fill="#39ff14" />
<rect x="57" y="19" width="1" height="1" fill="#39ff14" />
<rect x="58" y="19" width="1" height="1" fill="#39ff14" />
<rect x="59" y="19" width="1" height="1" fill="#39ff14" />
<rect x="8" y="21" width="1" height="1" fill="#39ff14" />
<rect x="9" y="21" width="1" height="1" fill="#39ff14" />
<rect x="12" y="21" width="1" height="1" fill="#39ff14" />
<rect x="13" y="21" width="1" height="1" fill="#39ff14" />
<rect x="16" y="21" width="1" height="1" fill="#39ff14" />
<rect x="17" y="21" width="1" height="1" fill="#39ff14" />
<rect x="20" y="21" width="1" height="1" fill="#39ff14" />
<rect x="21" y="21" width="1" height="1" fill="#39ff14" />
<rect x="24" y="21" width="1" height="1" fill="#39ff14" />
<rect x="25" y="21" width="1" height="1" fill="#39ff14" />
<rect x="28" y="21" width="1" height="1" fill="#39ff14" />
<rect x="29" y="21" width="1" height="1" fill="#39ff14" />
<rect x="32" y="21" width="1" height="1" fill="#39ff14" />
<rect x="33" y="21" width="1" height="1" fill="#39ff14" />
<rect x="36" y="21" width="1" height="1" fill="#39ff14" />
<rect x="37" y="21" width="1" height="1" fill="#39ff14" />
<rect x="40" y="21" width="1" height="1" fill="#39ff14" />
<rect x="41" y="21" width="1" height="1" fill="#39ff14" />
<rect x="44" y="21" width="1" height="1" fill="#39ff14" />
<rect x="45" y="21" width="1" height="1" fill="#39ff14" />
<rect x="48" y="21" width="1" height="1" fill="#39ff14" />
<rect x="49" y="21" width="1" height="1" fill="#39ff14" />
<rect x="52" y="21" width="1" height="1" fill="#39ff14" />
<rect x="53" y="21" width="1" height="1" fill="#39ff14" />
<rect x="56" y="21" width="1" height="1" fill="#39ff14" />
<rect x="57" y="21" width="1" height="1" fill="#39ff14" />
<rect x="8" y="22" width="1" height="1" fill="#39ff14" />
<rect x="9" y="22" width="1" height="1" fill="#39ff14" />
<rect x="12" y="22" width="1" height="1" fill="#39ff14" />
<rect x="13" y="22" width="1" height="1" fill="#39ff14" />
<rect x="16" y="22" width="1" height="1" fill="#39ff14" />
<rect x="17" y="22" width="1" height="1" fill="#39ff14" />
<rect x="20" y="22" width="1" height="1" fill="#39ff14" />
<rect x="21" y="22" width="1" height="1" fill="#39ff14" />
<rect x="24" y="22" width="1" height="1" fill="#39ff14" />
<rect x="25" y="22" width="1" height="1" fill="#39ff14" />
<rect x="28" y="22" width="1" height="1" fill="#39ff14" />
<rect x="29" y="22" width="1" height="1" fill="#39ff14" />
<rect x="32" y="22" width="1" height="1" fill="#39ff14" />
<rect x="33" y="22" width="1" height="1" fill="#39ff14" />
<rect x="36" y="22" width="1" height="1" fill="#39ff14" />
<rect x="37" y="22" width="1" height="1" fill="#39ff14" />
<rect x="40" y="22" width="1" height="1" fill="#39ff14" />
<rect x="41" y="22" width="1" height="1" fill="#39ff14" />
<rect x="44" y="22" width="1" height="1" fill="#39ff14" />
<rect x="45" y="22" width="1" height="1" fill="#39ff14" />
<rect x="48" y="22" width="1" height="1" fill="#39ff14" />
<rect x="49" y="22" width="1" height="1" fill="#39ff14" />
<rect x="52" y="22" width="1" height="1" fill="#39ff14" />
<rect x="53" y="22" width="1" height="1" fill="#39ff14" />
<rect x="56" y="22" width="1" height="1" fill="#39ff14" />
<rect x="57" y="22" width="1" height="1" fill="#39ff14" />
</svg>