<?xml version="1.0" encoding="utf-8"?>
<svg xmlns="http://www.w3.org/2000/svg" width="66" height="70" viewBox="0 0 66 70">
<rect width="100%" height="100%" fill="transparent" />
<rect x="15" y="4" width="1" height="1" fill="#39ff14" />
<rect x="16" y="4" width="1" height="1" fill="#39ff14" />
<rect x="15" y="5" width="1" height="1" fill="#39ff14" />
<rect x="16" y="6" width="1" height="1" fill="#39ff14" />
<rect x="7" y="7" width="1" height="1" fill="#39ff14" />
<rect x="9" y="7" width="1" height="1" fill="#39ff14" />
<rect x="17" y="7" width="1" height="1" fill="#39ff14" />
<rect x="8" y="8" width="1" height="1" fill="#39ff14" />
<rect x="9" y="8" width="1" height="1" fill="#39ff14" />
<rect x="18" y="8" width="1" height="1" fill="#39ff14" />
<rect x="8" y="9" width="1" height="1" fill="#39ff14" />
<rect x="19" y="9" width="1" height="1" fill="#39ff14" />
<rect x="20" y="10" width="1" height="1" fill="#39ff14" />
<rect x="56" y="10" width="1" height="1" fill="#39ff14" />
<rect x="21" y="11" width="1" height="1" fill="#39ff14" />
<rect x="54" y="11" width="1" height="1" fill="#39ff14" />
<rect x="55" y="11" width="1" height="1" fill="#39ff14" />
<rect x="22" y="12" width="1" height="1" fill="#39ff14" />
<rect x="55" y="12" width="1" height="1" fill="#39ff14" />
<rect x="56" y="12" width="1" height="1" fill="#39ff14" />
<rect x="23" y="13" width="1" height="1" fill="#39ff14" />
<rect x="24" y="14" width="1" height="1" fill="#39ff14" />
<rect x="25" y="15" width="1" height="1" fill="#39ff14" />
<rect x="47" y="15" width="1" height="1" fill="#39ff14" />
<rect x="49" y="15" width="1" height="1" fill="#39ff14" />
<rect x="26" y="16" width="1" height="1" fill="#39ff14" />
<rect x="47" y="16" width="1" height="1" fill="#39ff14" />
<rect x="48" y="16" width="1" height="1" fill="#39ff14" />
<rect x="27" y="17" width="1" height="1" fill="#39ff14" />
<rect x="48" y="17" width="1" height="1" fill="#39ff14" />
<rect x="28" y="18" width="1" height="1" fill="#39ff14" />
<rect x="29" y="19" width="1" height="1" fill="#39ff14" />
<rect x="30" y="20" width="1" height="1" fill="#39ff14" />
<rect x="46" y="20" width="1" height="1" fill="#39ff14" />
<rect x="31" y="21" width="1" height="1" fill="#39ff14" />
<rect x="45" y="21" width="1" height="1" fill="#39ff14" />
<rect x="32" y="22" width="1" height="1" fill="#39ff14" />
<rect x="45" y="22" width="1" height="1" fill="#39ff14" />
<rect x="46" y="22" width="1" height="1" fill="#39ff14" />
<rect x="47" y="22" width="1" height="1" fill="#39ff14" />
<rect x="33" y="23" width="1" height="1" fill="#39ff14" />
<rect x="32" y="24" width="1" height="1" fill="#39ff14" />
<rect x="33" y="24" width="1" height="1" fill="#39ff14" />
<rect x="47" y="28" width="1" height="1" fill="#39ff14" />
<rect x="49" y="28" width="1" height="1" fill="#39ff14" />
<rect x="47" y="29" width="1" height="1" fill="#39ff14" />
<rect x="48" y="29" width="1" height="1" fill="#39ff14" />
<rect x="56" y="29" width="1" height="1" fill="#39ff14" />
<rect x="59" y="29" width="1" height="1" fill="#39ff14" />
<rect x="48" y="30" width="1" height="1" fill="#39ff14" />
<rect x="55" y="30" width="1" height="1" fill="#39ff14" />
<rect x="39" y="31" width="1" height="1" fill="#39ff14" />
<rect x="40" y="31" width="1" height="1" fill="#39ff14" />
<rect x="41" y="31" width="1" height="1" fill="#39ff14" />
<rect x="55" y="31" width="1" height="1" fill="#39ff14" />
<rect x="59" y="31" width="1" height="1" fill="#39ff14" />
<rect x="41" y="32" width="1" height="1" fill="#39ff14" />
<rect x="55" y="32" width="1" height="1" fill="#39ff14" />
<rect x="56" y="32" width="1" height="1" fill="#39ff14" />
<rect x="57" y="32" width="1" height="1" fill="#39ff14" />
<rect x="58" y="32" width="1" height="1" fill="#39ff14" />
<rect x="40" y="33" width="1" height="1" fill="#39ff14" />
<rect x="43" y="34" width="1" height="1" fill="#39ff14" />
<rect x="44" y="34" width="1" height="1" fill="#39ff14" />
<rect x="43" y="35" width="1" height="1" fill="#39ff14" />
<rect x="45" y="35" width="1" height="1" fill="#39ff14" />
<rect x="46" y="36" width="1" height="1" fill="#39ff14" />
<rect x="47" y="37" width="1" height="1" fill="#39ff14" />
<rect x="35" y="38" width="1" height="1" fill="#39ff14" />
<rect x="36" y="38" width="1" height="1" fill="#39ff14" />
<rect x="48" y="38" width="1" height="1" fill="#39ff14" />
<rect x="34" y="39" width="1" height="1" fill="#39ff14" />
<rect x="36" y="39" width="1" height="1" fill="#39ff14" />
<rect x="49" y="39" width="1" height="1" fill="#39ff14" />
<rect x="36" y="40" width="1" height="1" fill="#39ff14" />
<rect x="50" y="40" width="1" height="1" fill="#39ff14" />
<rect x="58" y="40" width="1" height="1" fill="#39ff14" />
<rect x="59" y="40" width="1" height="1" fill="#39ff14" />
<rect x="17" y="41" width="1" height="1" fill="#39ff14" />
<rect x="44" y="41" width="1" height="1" fill="#39ff14" />
<rect x="45" y="41" width="1" height="1" fill="#39ff14" />
<rect x="51" y="41" width="1" height="1" fill="#39ff14" />
<rect x="57" y="41" width="1" height="1" fill="#39ff14" />
<rect x="58" y="41" width="1" height="1" fill="#39ff14" />
<rect x="17" y="42" width="1" height="1" fill="#39ff14" />
<rect x="18" y="42" width="1" height="1" fill="#39ff14" />
<rect x="44" y="42" width="1" height="1" fill="#39ff14" />
<rect x="46" y="42" width="1" height="1" fill="#39ff14" />
<rect x="52" y="42" width="1" height="1" fill="#39ff14" />
<rect x="59" y="42" width="1" height="1" fill="#39ff14" />
<rect x="16" y="43" width="1" height="1" fill="#39ff14" />
<rect x="18" y="43" width="1" height="1" fill="#39ff14" />
<rect x="24" y="43" width="1" height="1" fill="#39ff14" />
<rect x="25" y="43" width="1" height="1" fill="#39ff14" />
<rect x="44" y="43" width="1" height="1" fill="#39ff14" />
<rect x="53" y="43" width="1" height="1" fill="#39ff14" />
<rect x="23" y="44" width="1" height="1" fill="#39ff14" />
<rect x="25" y="44" width="1" height="1" fill="#39ff14" />
<rect x="54" y="44" width="1" height="1" fill="#39ff14" />
<rect x="5" y="45" width="1" height="1" fill="#39ff14" />
<rect x="25" y="45" width="1" height="1" fill="#39ff14" />
<rect x="55" y="45" width="1" height="1" fill="#39ff14" />
<rect x="5" y="46" width="1" height="1" fill="#39ff14" />
<rect x="6" y="46" width="1" height="1" fill="#39ff14" />
<rect x="12" y="46" width="1" height="1" fill="#39ff14" />
<rect x="56" y="46" width="1" height="1" fill="#39ff14" />
<rect x="4" y="47" width="1" height="1" fill="#39ff14" />
<rect x="6" y="47" width="1" height="1" fill="#39ff14" />
<rect x="12" y="47" width="1" height="1" fill="#39ff14" />
<rect x="13" y="47" width="1" height="1" fill="#39ff14" />
<rect x="57" y="47" width="1" height="1" fill="#39ff14" />
<rect x="11" y="48" width="1" height="1" fill="#39ff14" />
<rect x="13" y="48" width="1" height="1" fill="#39ff14" />
<rect x="58" y="48" width="1" height="1" fill="#39ff14" />
<rect x="59" y="49" width="1" height="1" fill="#39ff14" />
<rect x="61" y="49" width="1" height="1" fill="#39ff14" />
<rect x="60" y="50" width="1" height="1" fill="#39ff14" />
<rect x="61" y="50" width="1" height="1" fill="#39ff14" />
<rect x="37" y="61" width="1" height="1" fill="#39ff14" />
<rect x="36" y="62" width="1" height="1" fill="#39ff14" />
<rect x="37" y="62" width="1" height="1" fill="#39ff14" />
<rect x="38" y="62" width="1" height="1" fill="#39ff14" />
<rect x="35" y="63" width="1" height="1" fill="#39ff14" />
<rect x="36" y="63" width="1" height="1" fill="#39ff14" />
<rect x="38" y="63" width="1" height="1" fill="#39ff14" />
<rect x="35" y="64" width="1" height="1" fill="#39ff14" />
<rect x="36" y="64" width="1" height="1" fill="#39ff14" />
<rect x="37" y="64" width="1" height="1" fill="#39ff14" />
<rect x="36" y="65" width="1" height="1" fill="#39ff14" />
<rect x="37" y="65" width="1" height="1" fill="#39ff14" />
</svg>