<?xml version="1.0" encoding="utf-8"?>
<svg xmlns="http://www.w3.org/2000/svg" width="83" height="28" viewBox="0 0 83 28">
<rect width="100%" height="100%" fill="transparent" />
<rect x="4" y="4" width="5" height="5" fill="#39ff14" />
<rect x="19" y="4" width="5" height="5" fill="#39ff14" />
<rect x="59" y="4" width="5" height="5" fill="#39ff14" />
<rect x="74" y="4" width="5" height="5" fill="#39ff14" />
<rect x="24" y="9" width="5" height="5" fill="#39ff14" />
<rect x="54" y="9" width="5" height="5" fill="#39ff14" />
<rect x="4" y="14" width="5" height="5" fill="#39ff14" />
<rect x="24" y="14" width="5" height="5" fill="#39ff14" />
<rect x="54" y="14" width="5" height="5" fill="#39ff14" />
<rect x="74" y="14" width="5" height="5" fill="#39ff14" />
<rect x="9" y="19" width="5" height="5" fill="#39ff14" />
<rect x="14" y="19" width="5" height="5" fill="#39ff14" />
<rect x="19" y="19" width="5" height="5" fill="#39ff14" />
<rect x="24" y="19" width="5" height="5" fill="#39ff14" />
<rect x="54" y="19" width="5" height="5" fill="#39ff14" />
<rect x="59" y="19" width="5" height="5" fill="#39ff14" />
<rect x="64" y="19" width="5" height="5" fill="#39ff14" />
<rect x="69" y="19" width="5" height="5" fill="#39ff14" />
</svg>