<?xml version="1.0" encoding="utf-8"?>
<svg xmlns="http://www.w3.org/2000/svg" width="86" height="62" viewBox="0 0 86 62">
<rect width="100%" height="100%" fill="transparent" />
<rect x="58" y="4" width="6" height="6" fill="#39ff14" />
<rect x="76" y="4" width="6" height="6" fill="#39ff14" />
<rect x="52" y="10" width="6" height="6" fill="#39ff14" />
<rect x="52" y="16" width="6" height="6" fill="#39ff14" />
<rect x="76" y="16" width="6" height="6" fill="#39ff14" />
<rect x="52" y="22" width="6" height="6" fill="#39ff14" />
<rect x="58" y="22" width="6" height="6" fill="#39ff14" />
<rect x="64" y="22" width="6" height="6" fill="#39ff14" />
<rect x="70" y="22" width="6" height="6" fill="#39ff14" />
<rect x="10" y="34" width="6" height="6" fill="#39ff14" />
<rect x="16" y="34" width="6" height="6" fill="#39ff14" />
<rect x="22" y="34" width="6" height="6" fill="#39ff14" />
<rect x="28" y="34" width="6" height="6" fill="#39ff14" />
<rect x="4" y="40" width="6" height="6" fill="#39ff14" />
<rect x="28" y="40" width="6" height="6" fill="#39ff14" />
<rect x="28" y="46" width="6" height="6" fill="#39ff14" />
<rect x="4" y="52" width="6" height="6" fill="#39ff14" />
<rect x="22" y="52" width="6" height="6" fill="#39ff14" />
</svg>