<?xml version="1.0" encoding="utf-8"?>
<svg xmlns="http://www.w3.org/2000/svg" width="56" height="68" viewBox="0 0 56 68">
<rect width="100%" height="100%" fill="transparent" />
<rect x="48" y="4" width="2" height="2" fill="#39ff14" />
<rect x="46" y="6" width="2" height="2" fill="#39ff14" />
<rect x="46" y="8" width="2" height="2" fill="#39ff14" />
<rect x="48" y="8" width="2" height="2" fill="#39ff14" />
<rect x="50" y="8" width="2" height="2" fill="#39ff14" />
<rect x="22" y="14" width="2" height="2" fill="#39ff14" />
<rect x="26" y="14" width="2" height="2" fill="#39ff14" />
<rect x="22" y="16" width="2" height="2" fill="#39ff14" />
<rect x="28" y="16" width="2" height="2" fill="#39ff14" />
<rect x="4" y="18" width="2" height="2" fill="#39ff14" />
<rect x="6" y="18" width="2" height="2" fill="#39ff14" />
<rect x="28" y="18" width="2" height="2" fill="#39ff14" />
<rect x="30" y="18" width="2" height="2" fill="#39ff14" />
<rect x="4" y="20" width="2" height="2" fill="#39ff14" />
<rect x="6" y="20" width="2" height="2" fill="#39ff14" />
<rect x="24" y="20" width="2" height="2" fill="#39ff14" />
<rect x="32" y="20" width="2" height="2" fill="#39ff14" />
<rect x="34" y="20" width="2" height="2" fill="#39ff14" />
<rect x="14" y="22" width="2" height="2" fill="#39ff14" />
<rect x="16" y="22" width="2" height="2" fill="#39ff14" />
<rect x="28" y="22" width="2" height="2" fill="#39ff14" />
<rect x="30" y="22" width="2" height="2" fill="#39ff14" />
<rect x="12" y="24" width="2" height="2" fill="#39ff14" />
<rect x="22" y="24" width="2" height="2" fill="#39ff14" />
<rect x="28" y="24" width="2" height="2" fill="#39ff14" />
<rect x="22" y="26" width="2" height="2" fill="#39ff14" />
<rect x="26" y="26" width="2" height="2" fill="#39ff14" />
<rect x="36" y="36" width="2" height="2" fill="#39ff14" />
<rect x="34" y="38" width="2" height="2" fill="#39ff14" />
<rect x="36" y="38" width="2" height="2" fill="#39ff14" />
<rect x="38" y="38" width="2" height="2" fill="#39ff14" />
<rect x="32" y="40" width="2" height="2" fill="#39ff14" />
<rect x="34" y="40" width="2" height="2" fill="#39ff14" />
<rect x="36" y="40" width="2" height="2" fill="#39ff14" />
<rect x="38" y="40" width="2" height="2" fill="#39ff14" />
<rect x="40" y="40" width="2" height="2" fill="#39ff14" />
<rect x="30" y="42" width="2" height="2" fill="#39ff14" />
<rect x="34" y="42" width="2" height="2" fill="#39ff14" />
<rect x="38" y="42" width="2" height="2" fill="#39ff14" />
<rect x="42" y="42" width="2" height="2" fill="#39ff14" />
<rect x="30" y="44" width="2" height="2" fill="#39ff14" />
<rect x="32" y="44" width="2" height="2" fill="#39ff14" />
<rect x="40" y="44" width="2" height="2" fill="#39ff14" />
<rect x="42" y="44" width="2" height="2" fill="#39ff14" />
<rect x="36" y="50" width="2" height="2" fill="#39ff14" />
<rect x="34" y="52" width="2" height="2" fill="#39ff14" />
<rect x="38" y="52" width="2" height="2" fill="#39ff14" />
<rect x="34" y="54" width="2" height="2" fill="#39ff14" />
<rect x="38" y="54" width="2" height="2" fill="#39ff14" />
<rect x="36" y="56" width="2" height="2" fill="#39ff14" />
<rect x="34" y="58" width="2" height="2" fill="#39ff14" />
<rect x="36" y="58" width="2" height="2" fill="#39ff14" />
<rect x="34" y="60" width="2" height="2" fill="#39ff14" />
<rect x="36" y="60" width="2" height="2" fill="#39ff14" />
<rect x="34" y="62" width="2" height="2" fill="#39ff14" />
<rect x="36" y="62" width="2" height="2" fill="#39ff14" />
</svg>