<?xml version="1.0" encoding="utf-8"?>
<svg xmlns="http://www.w3.org/2000/svg" width="65" height="41" viewBox="0 0 65 41">
<rect width="100%" height="100%" fill="transparent" />
<rect x="5" y="4" width="1" height="1" fill="#39ff14" />
<rect x="8" y="4" width="1" height="1" fill="#39ff14" />
<rect x="11" y="4" width="1" height="1" fill="#39ff14" />
<rect x="14" y="4" width="1" height="1" fill="#39ff14" />
<rect x="17" y="4" width="1" height="1" fill="#39ff14" />
<rect x="20" y="4" width="1" height="1" fill="#39ff14" />
<rect x="23" y="4" width="1" height="1" fill="#39ff14" />
<rect x="26" y="4" width="1" height="1" fill="#39ff14" />
<rect x="29" y="4" width="1" height="1" fill="#39ff14" />
<rect x="32" y="4" width="1" height="1" fill="#39ff14" />
<rect x="35" y="4" width="1" height="1" fill="#39ff14" />
<rect x="38" y="4" width="1" height="1" fill="#39ff14" />
<rect x="41" y="4" width="1" height="1" fill="#39ff14" />
<rect x="44" y="4" width="1" height="1" fill="#39ff14" />
<rect x="47" y="4" width="1" height="1" fill="#39ff14" />
<rect x="50" y="4" width="1" height="1" fill="#39ff14" />
<rect x="53" y="4" width="1" height="1" fill="#39ff14" />
<rect x="56" y="4" width="1" height="1" fill="#39ff14" />
<rect x="59" y="4" width="1" height="1" fill="#39ff14" />
<rect x="5" y="5" width="1" height="1" fill="#39ff14" />
<rect x="6" y="5" width="1" height="1" fill="#39ff14" />
<rect x="7" y="5" width="1" height="1" fill="#39ff14" />
<rect x="8" y="5" width="1" height="1" fill="#39ff14" />
<rect x="9" y="5" width="1" height="1" fill="#39ff14" />
<rect x="10" y="5" width="1" height="1" fill="#39ff14" />
<rect x="11" y="5" width="1" height="1" fill="#39ff14" />
<rect x="12" y="5" width="1" height="1" fill="#39ff14" />
<rect x="13" y="5" width="1" height="1" fill="#39ff14" />
<rect x="14" y="5" width="1" height="1" fill="#39ff14" />
<rect x="15" y="5" width="1" height="1" fill="#39ff14" />
<rect x="16" y="5" width="1" height="1" fill="#39ff14" />
<rect x="17" y="5" width="1" height="1" fill="#39ff14" />
<rect x="18" y="5" width="1" height="1" fill="#39ff14" />
<rect x="19" y="5" width="1" height="1" fill="#39ff14" />
<rect x="20" y="5" width="1" height="1" fill="#39ff14" />
<rect x="21" y="5" width="1" height="1" fill="#39ff14" />
<rect x="22" y="5" width="1" height="1" fill="#39ff14" />
<rect x="23" y="5" width="1" height="1" fill="#39ff14" />
<rect x="24" y="5" width="1" height="1" fill="#39ff14" />
<rect x="25" y="5" width="1" height="1" fill="#39ff14" />
<rect x="26" y="5" width="1" height="1" fill="#39ff14" />
<rect x="27" y="5" width="1" height="1" fill="#39ff14" />
<rect x="28" y="5" width="1" height="1" fill="#39ff14" />
<rect x="29" y="5" width="1" height="1" fill="#39ff14" />
<rect x="30" y="5" width="1" height="1" fill="#39ff14" />
<rect x="31" y="5" width="1" height="1" fill="#39ff14" />
<rect x="32" y="5" width="1" height="1" fill="#39ff14" />
<rect x="33" y="5" width="1" height="1" fill="#39ff14" />
<rect x="34" y="5" width="1" height="1" fill="#39ff14" />
<rect x="35" y="5" width="1" height="1" fill="#39ff14" />
<rect x="36" y="5" width="1" height="1" fill="#39ff14" />
<rect x="37" y="5" width="1" height="1" fill="#39ff14" />
<rect x="38" y="5" width="1" height="1" fill="#39ff14" />
<rect x="39" y="5" width="1" height="1" fill="#39ff14" />
<rect x="40" y="5" width="1" height="1" fill="#39ff14" />
<rect x="41" y="5" width="1" height="1" fill="#39ff14" />
<rect x="42" y="5" width="1" height="1" fill="#39ff14" />
<rect x="43" y="5" width="1" height="1" fill="#39ff14" />
<rect x="44" y="5" width="1" height="1" fill="#39ff14" />
<rect x="45" y="5" width="1" height="1" fill="#39ff14" />
<rect x="46" y="5" width="1" height="1" fill="#39ff14" />
<rect x="47" y="5" width="1" height="1" fill="#39ff14" />
<rect x="48" y="5" width="1" height="1" fill="#39ff14" />
<rect x="49" y="5" width="1" height="1" fill="#39ff14" />
<rect x="50" y="5" width="1" height="1" fill="#39ff14" />
<rect x="51" y="5" width="1" height="1" fill="#39ff14" />
<rect x="52" y="5" width="1" height="1" fill="#39ff14" />
<rect x="53" y="5" width="1" height="1" fill="#39ff14" />
<rect x="54" y="5" width="1" height="1" fill="#39ff14" />
<rect x="55" y="5" width="1" height="1" fill="#39ff14" />
<rect x="56" y="5" width="1" height="1" fill="#39ff14" />
<rect x="57" y="5" width="1" height="1" fill="#39ff14" />
<rect x="58" y="5" width="1" height="1" fill="#39ff14" />
<rect x="59" y="5" width="1" height="1" fill="#39ff14" />
<rect x="5" y="7" width="1" height="1" fill="#39ff14" />
<rect x="6" y="7" width="1" height="1" fill="#39ff14" />
<rect x="7" y="7" width="1" height="1" fill="#39ff14" />
<rect x="8" y="7" width="1" height="1" fill="#39ff14" />
<rect x="9" y="7" width="1" height="1" fill="#39ff14" />
<rect x="10" y="7" width="1" height="1" fill="#39ff14" />
<rect x="11" y="7" width="1" height="1" fill="#39ff14" />
<rect x="12" y="7" width="1" height="1" fill="#39ff14" />
<rect x="13" y="7" width="1" height="1" fill="#39ff14" />
<rect x="14" y="7" width="1" height="1" fill="#39ff14" />
<rect x="15" y="7" width="1" height="1" fill="#39ff14" />
<rect x="16" y="7" width="1" height="1" fill="#39ff14" />
<rect x="17" y="7" width="1" height="1" fill="#39ff14" />
<rect x="18" y="7" width="1" height="1" fill="#39ff14" />
<rect x="19" y="7" width="1" height="1" fill="#39ff14" />
<rect x="20" y="7" width="1" height="1" fill="#39ff14" />
<rect x="21" y="7" width="1" height="1" fill="#39ff14" />
<rect x="22" y="7" width="1" height="1" fill="#39ff14" />
<rect x="23" y="7" width="1" height="1" fill="#39ff14" />
<rect x="24" y="7" width="1" height="1" fill="#39ff14" />
<rect x="25" y="7" width="1" height="1" fill="#39ff14" />
<rect x="26" y="7" width="1" height="1" fill="#39ff14" />
<rect x="27" y="7" width="1" height="1" fill="#39ff14" />
<rect x="28" y="7" width="1" height="1" fill="#39ff14" />
<rect x="29" y="7" width="1" height="1" fill="#39ff14" />
<rect x="30" y="7" width="1" height="1" fill="#39ff14" />
<rect x="31" y="7" width="1" height="1" fill="#39ff14" />
<rect x="32" y="7" width="1" height="1" fill="#39ff14" />
<rect x="33" y="7" width="1" height="1" fill="#39ff14" />
<rect x="36" y="7" width="1" height="1" fill="#39ff14" />
<rect x="37" y="7" width="1" height="1" fill="#39ff14" />
<rect x="38" y="7" width="1" height="1" fill="#39ff14" />
<rect x="41" y="7" width="1" height="1" fill="#39ff14" />
<rect x="42" y="7" width="1" height="1" fill="#39ff14" />
<rect x="43" y="7" width="1" height="1" fill="#39ff14" />
<rect x="44" y="7" width="1" height="1" fill="#39ff14" />
<rect x="45" y="7" width="1" height="1" fill="#39ff14" />
<rect x="46" y="7" width="1" height="1" fill="#39ff14" />
<rect x="47" y="7" width="1" height="1" fill="#39ff14" />
<rect x="48" y="7" width="1" height="1" fill="#39ff14" />
<rect x="49" y="7" width="1" height="1" fill="#39ff14" />
<rect x="50" y="7" width="1" height="1" fill="#39ff14" />
<rect x="51" y="7" width="1" height="1" fill="#39ff14" />
<rect x="52" y="7" width="1" height="1" fill="#39ff14" />
<rect x="53" y="7" width="1" height="1" fill="#39ff14" />
<rect x="54" y="7" width="1" height="1" fill="#39ff14" />
<rect x="55" y="7" width="1" height="1" fill="#39ff14" />
<rect x="56" y="7" width="1" height="1" fill="#39ff14" />
<rect x="57" y="7" width="1" height="1" fill="#39ff14" />
<rect x="58" y="7" width="1" height="1" fill="#39ff14" />
<rect x="59" y="7" width="1" height="1" fill="#39ff14" />
<rect x="4" y="8" width="1" height="1" fill="#39ff14" />
<rect x="35" y="8" width="1" height="1" fill="#39ff14" />
<rect x="36" y="8" width="1" height="1" fill="#39ff14" />
<rect x="40" y="8" width="1" height="1" fill="#39ff14" />
<rect x="41" y="8" width="1" height="1" fill="#39ff14" />
<rect x="60" y="8" width="1" height="1" fill="#39ff14" />
<rect x="5" y="9" width="1" height="1" fill="#39ff14" />
<rect x="6" y="9" width="1" height="1" fill="#39ff14" />
<rect x="7" y="9" width="1" height="1" fill="#39ff14" />
<rect x="8" y="9" width="1" height="1" fill="#39ff14" />
<rect x="9" y="9" width="1" height="1" fill="#39ff14" />
<rect x="10" y="9" width="1" height="1" fill="#39ff14" />
<rect x="11" y="9" width="1" height="1" fill="#39ff14" />
<rect x="12" y="9" width="1" height="1" fill="#39ff14" />
<rect x="13" y="9" width="1" height="1" fill="#39ff14" />
<rect x="14" y="9" width="1" height="1" fill="#39ff14" />
<rect x="15" y="9" width="1" height="1" fill="#39ff14" />
<rect x="16" y="9" width="1" height="1" fill="#39ff14" />
<rect x="17" y="9" width="1" height="1" fill="#39ff14" />
<rect x="18" y="9" width="1" height="1" fill="#39ff14" />
<rect x="19" y="9" width="1" height="1" fill="#39ff14" />
<rect x="20" y="9" width="1" height="1" fill="#39ff14" />
<rect x="21" y="9" width="1" height="1" fill="#39ff14" />
<rect x="22" y="9" width="1" height="1" fill="#39ff14" />
<rect x="23" y="9" width="1" height="1" fill="#39ff14" />
<rect x="24" y="9" width="1" height="1" fill="#39ff14" />
<rect x="25" y="9" width="1" height="1" fill="#39ff14" />
<rect x="26" y="9" width="1" height="1" fill="#39ff14" />
<rect x="27" y="9" width="1" height="1" fill="#39ff14" />
<rect x="28" y="9" width="1" height="1" fill="#39ff14" />
<rect x="31" y="9" width="1" height="1" fill="#39ff14" />
<rect x="32" y="9" width="1" height="1" fill="#39ff14" />
<rect x="33" y="9" width="1" height="1" fill="#39ff14" />
<rect x="37" y="9" width="1" height="1" fill="#39ff14" />
<rect x="38" y="9" width="1" height="1" fill="#39ff14" />
<rect x="42" y="9" width="1" height="1" fill="#39ff14" />
<rect x="43" y="9" width="1" height="1" fill="#39ff14" />
<rect x="44" y="9" width="1" height="1" fill="#39ff14" />
<rect x="45" y="9" width="1" height="1" fill="#39ff14" />
<rect x="48" y="9" width="1" height="1" fill="#39ff14" />
<rect x="49" y="9" width="1" height="1" fill="#39ff14" />
<rect x="50" y="9" width="1" height="1" fill="#39ff14" />
<rect x="51" y="9" width="1" height="1" fill="#39ff14" />
<rect x="52" y="9" width="1" height="1" fill="#39ff14" />
<rect x="53" y="9" width="1" height="1" fill="#39ff14" />
<rect x="54" y="9" width="1" height="1" fill="#39ff14" />
<rect x="55" y="9" width="1" height="1" fill="#39ff14" />
<rect x="56" y="9" width="1" height="1" fill="#39ff14" />
<rect x="57" y="9" width="1" height="1" fill="#39ff14" />
<rect x="58" y="9" width="1" height="1" fill="#39ff14" />
<rect x="59" y="9" width="1" height="1" fill="#39ff14" />
<rect x="30" y="10" width="1" height="1" fill="#39ff14" />
<rect x="31" y="10" width="1" height="1" fill="#39ff14" />
<rect x="47" y="10" width="1" height="1" fill="#39ff14" />
<rect x="48" y="10" width="1" height="1" fill="#39ff14" />
<rect x="5" y="11" width="1" height="1" fill="#39ff14" />
<rect x="6" y="11" width="1" height="1" fill="#39ff14" />
<rect x="7" y="11" width="1" height="1" fill="#39ff14" />
<rect x="8" y="11" width="1" height="1" fill="#39ff14" />
<rect x="9" y="11" width="1" height="1" fill="#39ff14" />
<rect x="10" y="11" width="1" height="1" fill="#39ff14" />
<rect x="11" y="11" width="1" height="1" fill="#39ff14" />
<rect x="12" y="11" width="1" height="1" fill="#39ff14" />
<rect x="13" y="11" width="1" height="1" fill="#39ff14" />
<rect x="14" y="11" width="1" height="1" fill="#39ff14" />
<rect x="15" y="11" width="1" height="1" fill="#39ff14" />
<rect x="16" y="11" width="1" height="1" fill="#39ff14" />
<rect x="17" y="11" width="1" height="1" fill="#39ff14" />
<rect x="18" y="11" width="1" height="1" fill="#39ff14" />
<rect x="19" y="11" width="1" height="1" fill="#39ff14" />
<rect x="20" y="11" width="1" height="1" fill="#39ff14" />
<rect x="21" y="11" width="1" height="1" fill="#39ff14" />
<rect x="22" y="11" width="1" height="1" fill="#39ff14" />
<rect x="23" y="11" width="1" height="1" fill="#39ff14" />
<rect x="24" y="11" width="1" height="1" fill="#39ff14" />
<rect x="25" y="11" width="1" height="1" fill="#39ff14" />
<rect x="26" y="11" width="1" height="1" fill="#39ff14" />
<rect x="27" y="11" width="1" height="1" fill="#39ff14" />
<rect x="28" y="11" width="1" height="1" fill="#39ff14" />
<rect x="31" y="11" width="1" height="1" fill="#39ff14" />
<rect x="32" y="11" width="1" height="1" fill="#39ff14" />
<rect x="33" y="11" width="1" height="1" fill="#39ff14" />
<rect x="37" y="11" width="1" height="1" fill="#39ff14" />
<rect x="38" y="11" width="1" height="1" fill="#39ff14" />
<rect x="44" y="11" width="1" height="1" fill="#39ff14" />
<rect x="45" y="11" width="1" height="1" fill="#39ff14" />
<rect x="49" y="11" width="1" height="1" fill="#39ff14" />
<rect x="50" y="11" width="1" height="1" fill="#39ff14" />
<rect x="53" y="11" width="1" height="1" fill="#39ff14" />
<rect x="54" y="11" width="1" height="1" fill="#39ff14" />
<rect x="55" y="11" width="1" height="1" fill="#39ff14" />
<rect x="56" y="11" width="1" height="1" fill="#39ff14" />
<rect x="57" y="11" width="1" height="1" fill="#39ff14" />
<rect x="58" y="11" width="1" height="1" fill="#39ff14" />
<rect x="59" y="11" width="1" height="1" fill="#39ff14" />
<rect x="4" y="12" width="1" height="1" fill="#39ff14" />
<rect x="35" y="12" width="1" height="1" fill="#39ff14" />
<rect x="36" y="12" width="1" height="1" fill="#39ff14" />
<rect x="40" y="12" width="1" height="1" fill="#39ff14" />
<rect x="42" y="12" width="1" height="1" fill="#39ff14" />
<rect x="43" y="12" width="1" height="1" fill="#39ff14" />
<rect x="52" y="12" width="1" height="1" fill="#39ff14" />
<rect x="53" y="12" width="1" height="1" fill="#39ff14" />
<rect x="60" y="12" width="1" height="1" fill="#39ff14" />
<rect x="5" y="13" width="1" height="1" fill="#39ff14" />
<rect x="6" y="13" width="1" height="1" fill="#39ff14" />
<rect x="7" y="13" width="1" height="1" fill="#39ff14" />
<rect x="8" y="13" width="1" height="1" fill="#39ff14" />
<rect x="9" y="13" width="1" height="1" fill="#39ff14" />
<rect x="10" y="13" width="1" height="1" fill="#39ff14" />
<rect x="11" y="13" width="1" height="1" fill="#39ff14" />
<rect x="12" y="13" width="1" height="1" fill="#39ff14" />
<rect x="13" y="13" width="1" height="1" fill="#39ff14" />
<rect x="14" y="13" width="1" height="1" fill="#39ff14" />
<rect x="15" y="13" width="1" height="1" fill="#39ff14" />
<rect x="16" y="13" width="1" height="1" fill="#39ff14" />
<rect x="17" y="13" width="1" height="1" fill="#39ff14" />
<rect x="18" y="13" width="1" height="1" fill="#39ff14" />
<rect x="19" y="13" width="1" height="1" fill="#39ff14" />
<rect x="20" y="13" width="1" height="1" fill="#39ff14" />
<rect x="21" y="13" width="1" height="1" fill="#39ff14" />
<rect x="22" y="13" width="1" height="1" fill="#39ff14" />
<rect x="23" y="13" width="1" height="1" fill="#39ff14" />
<rect x="24" y="13" width="1" height="1" fill="#39ff14" />
<rect x="25" y="13" width="1" height="1" fill="#39ff14" />
<rect x="26" y="13" width="1" height="1" fill="#39ff14" />
<rect x="27" y="13" width="1" height="1" fill="#39ff14" />
<rect x="28" y="13" width="1" height="1" fill="#39ff14" />
<rect x="31" y="13" width="1" height="1" fill="#39ff14" />
<rect x="32" y="13" width="1" height="1" fill="#39ff14" />
<rect x="33" y="13" width="1" height="1" fill="#39ff14" />
<rect x="36" y="13" width="1" height="1" fill="#39ff14" />
<rect x="37" y="13" width="1" height="1" fill="#39ff14" />
<rect x="38" y="13" width="1" height="1" fill="#39ff14" />
<rect x="42" y="13" width="1" height="1" fill="#39ff14" />
<rect x="43" y="13" width="1" height="1" fill="#39ff14" />
<rect x="49" y="13" width="1" height="1" fill="#39ff14" />
<rect x="50" y="13" width="1" height="1" fill="#39ff14" />
<rect x="54" y="13" width="1" height="1" fill="#39ff14" />
<rect x="55" y="13" width="1" height="1" fill="#39ff14" />
<rect x="56" y="13" width="1" height="1" fill="#39ff14" />
<rect x="57" y="13" width="1" height="1" fill="#39ff14" />
<rect x="58" y="13" width="1" height="1" fill="#39ff14" />
<rect x="59" y="13" width="1" height="1" fill="#39ff14" />
<rect x="30" y="14" width="1" height="1" fill="#39ff14" />
<rect x="31" y="14" width="1" height="1" fill="#39ff14" />
<rect x="44" y="14" width="1" height="1" fill="#39ff14" />
<rect x="45" y="14" width="1" height="1" fill="#39ff14" />
<rect x="47" y="14" width="1" height="1" fill="#39ff14" />
<rect x="48" y="14" width="1" height="1" fill="#39ff14" />
<rect x="5" y="15" width="1" height="1" fill="#39ff14" />
<rect x="6" y="15" width="1" height="1" fill="#39ff14" />
<rect x="7" y="15" width="1" height="1" fill="#39ff14" />
<rect x="8" y="15" width="1" height="1" fill="#39ff14" />
<rect x="9" y="15" width="1" height="1" fill="#39ff14" />
<rect x="10" y="15" width="1" height="1" fill="#39ff14" />
<rect x="11" y="15" width="1" height="1" fill="#39ff14" />
<rect x="12" y="15" width="1" height="1" fill="#39ff14" />
<rect x="13" y="15" width="1" height="1" fill="#39ff14" />
<rect x="14" y="15" width="1" height="1" fill="#39ff14" />
<rect x="15" y="15" width="1" height="1" fill="#39ff14" />
<rect x="16" y="15" width="1" height="1" fill="#39ff14" />
<rect x="17" y="15" width="1" height="1" fill="#39ff14" />
<rect x="18" y="15" width="1" height="1" fill="#39ff14" />
<rect x="19" y="15" width="1" height="1" fill="#39ff14" />
<rect x="20" y="15" width="1" height="1" fill="#39ff14" />
<rect x="21" y="15" width="1" height="1" fill="#39ff14" />
<rect x="22" y="15" width="1" height="1" fill="#39ff14" />
<rect x="23" y="15" width="1" height="1" fill="#39ff14" />
<rect x="24" y="15" width="1" height="1" fill="#39ff14" />
<rect x="25" y="15" width="1" height="1" fill="#39ff14" />
<rect x="26" y="15" width="1" height="1" fill="#39ff14" />
<rect x="27" y="15" width="1" height="1" fill="#39ff14" />
<rect x="28" y="15" width="1" height="1" fill="#39ff14" />
<rect x="32" y="15" width="1" height="1" fill="#39ff14" />
<rect x="33" y="15" width="1" height="1" fill="#39ff14" />
<rect x="34" y="15" width="1" height="1" fill="#39ff14" />
<rect x="35" y="15" width="1" height="1" fill="#39ff14" />
<rect x="36" y="15" width="1" height="1" fill="#39ff14" />
<rect x="47" y="15" width="1" height="1" fill="#39ff14" />
<rect x="48" y="15" width="1" height="1" fill="#39ff14" />
<rect x="54" y="15" width="1" height="1" fill="#39ff14" />
<rect x="55" y="15" width="1" height="1" fill="#39ff14" />
<rect x="56" y="15" width="1" height="1" fill="#39ff14" />
<rect x="57" y="15" width="1" height="1" fill="#39ff14" />
<rect x="58" y="15" width="1" height="1" fill="#39ff14" />
<rect x="59" y="15" width="1" height="1" fill="#39ff14" />
<rect x="4" y="16" width="1" height="1" fill="#39ff14" />
<rect x="33" y="16" width="1" height="1" fill="#39ff14" />
<rect x="49" y="16" width="1" height="1" fill="#39ff14" />
<rect x="50" y="16" width="1" height="1" fill="#39ff14" />
<rect x="52" y="16" width="1" height="1" fill="#39ff14" />
<rect x="53" y="16" width="1" height="1" fill="#39ff14" />
<rect x="60" y="16" width="1" height="1" fill="#39ff14" />
<rect x="5" y="17" width="1" height="1" fill="#39ff14" />
<rect x="6" y="17" width="1" height="1" fill="#39ff14" />
<rect x="7" y="17" width="1" height="1" fill="#39ff14" />
<rect x="8" y="17" width="1" height="1" fill="#39ff14" />
<rect x="9" y="17" width="1" height="1" fill="#39ff14" />
<rect x="10" y="17" width="1" height="1" fill="#39ff14" />
<rect x="11" y="17" width="1" height="1" fill="#39ff14" />
<rect x="12" y="17" width="1" height="1" fill="#39ff14" />
<rect x="13" y="17" width="1" height="1" fill="#39ff14" />
<rect x="14" y="17" width="1" height="1" fill="#39ff14" />
<rect x="15" y="17" width="1" height="1" fill="#39ff14" />
<rect x="16" y="17" width="1" height="1" fill="#39ff14" />
<rect x="17" y="17" width="1" height="1" fill="#39ff14" />
<rect x="18" y="17" width="1" height="1" fill="#39ff14" />
<rect x="19" y="17" width="1" height="1" fill="#39ff14" />
<rect x="20" y="17" width="1" height="1" fill="#39ff14" />
<rect x="21" y="17" width="1" height="1" fill="#39ff14" />
<rect x="22" y="17" width="1" height="1" fill="#39ff14" />
<rect x="23" y="17" width="1" height="1" fill="#39ff14" />
<rect x="24" y="17" width="1" height="1" fill="#39ff14" />
<rect x="25" y="17" width="1" height="1" fill="#39ff14" />
<rect x="26" y="17" width="1" height="1" fill="#39ff14" />
<rect x="27" y="17" width="1" height="1" fill="#39ff14" />
<rect x="28" y="17" width="1" height="1" fill="#39ff14" />
<rect x="34" y="17" width="1" height="1" fill="#39ff14" />
<rect x="44" y="17" width="1" height="1" fill="#39ff14" />
<rect x="52" y="17" width="1" height="1" fill="#39ff14" />
<rect x="53" y="17" width="1" height="1" fill="#39ff14" />
<rect x="56" y="17" width="1" height="1" fill="#39ff14" />
<rect x="57" y="17" width="1" height="1" fill="#39ff14" />
<rect x="58" y="17" width="1" height="1" fill="#39ff14" />
<rect x="59" y="17" width="1" height="1" fill="#39ff14" />
<rect x="30" y="18" width="1" height="1" fill="#39ff14" />
<rect x="32" y="18" width="1" height="1" fill="#39ff14" />
<rect x="39" y="18" width="1" height="1" fill="#39ff14" />
<rect x="43" y="18" width="1" height="1" fill="#39ff14" />
<rect x="54" y="18" width="1" height="1" fill="#39ff14" />
<rect x="55" y="18" width="1" height="1" fill="#39ff14" />
<rect x="5" y="19" width="1" height="1" fill="#39ff14" />
<rect x="6" y="19" width="1" height="1" fill="#39ff14" />
<rect x="7" y="19" width="1" height="1" fill="#39ff14" />
<rect x="8" y="19" width="1" height="1" fill="#39ff14" />
<rect x="9" y="19" width="1" height="1" fill="#39ff14" />
<rect x="10" y="19" width="1" height="1" fill="#39ff14" />
<rect x="11" y="19" width="1" height="1" fill="#39ff14" />
<rect x="12" y="19" width="1" height="1" fill="#39ff14" />
<rect x="13" y="19" width="1" height="1" fill="#39ff14" />
<rect x="14" y="19" width="1" height="1" fill="#39ff14" />
<rect x="15" y="19" width="1" height="1" fill="#39ff14" />
<rect x="16" y="19" width="1" height="1" fill="#39ff14" />
<rect x="17" y="19" width="1" height="1" fill="#39ff14" />
<rect x="18" y="19" width="1" height="1" fill="#39ff14" />
<rect x="19" y="19" width="1" height="1" fill="#39ff14" />
<rect x="20" y="19" width="1" height="1" fill="#39ff14" />
<rect x="21" y="19" width="1" height="1" fill="#39ff14" />
<rect x="22" y="19" width="1" height="1" fill="#39ff14" />
<rect x="23" y="19" width="1" height="1" fill="#39ff14" />
<rect x="24" y="19" width="1" height="1" fill="#39ff14" />
<rect x="25" y="19" width="1" height="1" fill="#39ff14" />
<rect x="26" y="19" width="1" height="1" fill="#39ff14" />
<rect x="27" y="19" width="1" height="1" fill="#39ff14" />
<rect x="28" y="19" width="1" height="1" fill="#39ff14" />
<rect x="32" y="19" width="1" height="1" fill="#39ff14" />
<rect x="34" y="19" width="1" height="1" fill="#39ff14" />
<rect x="36" y="19" width="1" height="1" fill="#39ff14" />
<rect x="37" y="19" width="1" height="1" fill="#39ff14" />
<rect x="38" y="19" width="1" height="1" fill="#39ff14" />
<rect x="39" y="19" width="1" height="1" fill="#39ff14" />
<rect x="40" y="19" width="1" height="1" fill="#39ff14" />
<rect x="47" y="19" width="1" height="1" fill="#39ff14" />
<rect x="55" y="19" width="1" height="1" fill="#39ff14" />
<rect x="56" y="19" width="1" height="1" fill="#39ff14" />
<rect x="57" y="19" width="1" height="1" fill="#39ff14" />
<rect x="58" y="19" width="1" height="1" fill="#39ff14" />
<rect x="59" y="19" width="1" height="1" fill="#39ff14" />
<rect x="4" y="20" width="1" height="1" fill="#39ff14" />
<rect x="35" y="20" width="1" height="1" fill="#39ff14" />
<rect x="36" y="20" width="1" height="1" fill="#39ff14" />
<rect x="37" y="20" width="1" height="1" fill="#39ff14" />
<rect x="41" y="20" width="1" height="1" fill="#39ff14" />
<rect x="48" y="20" width="1" height="1" fill="#39ff14" />
<rect x="60" y="20" width="1" height="1" fill="#39ff14" />
<rect x="5" y="21" width="1" height="1" fill="#39ff14" />
<rect x="6" y="21" width="1" height="1" fill="#39ff14" />
<rect x="7" y="21" width="1" height="1" fill="#39ff14" />
<rect x="8" y="21" width="1" height="1" fill="#39ff14" />
<rect x="9" y="21" width="1" height="1" fill="#39ff14" />
<rect x="10" y="21" width="1" height="1" fill="#39ff14" />
<rect x="11" y="21" width="1" height="1" fill="#39ff14" />
<rect x="12" y="21" width="1" height="1" fill="#39ff14" />
<rect x="13" y="21" width="1" height="1" fill="#39ff14" />
<rect x="14" y="21" width="1" height="1" fill="#39ff14" />
<rect x="15" y="21" width="1" height="1" fill="#39ff14" />
<rect x="16" y="21" width="1" height="1" fill="#39ff14" />
<rect x="17" y="21" width="1" height="1" fill="#39ff14" />
<rect x="18" y="21" width="1" height="1" fill="#39ff14" />
<rect x="19" y="21" width="1" height="1" fill="#39ff14" />
<rect x="20" y="21" width="1" height="1" fill="#39ff14" />
<rect x="21" y="21" width="1" height="1" fill="#39ff14" />
<rect x="22" y="21" width="1" height="1" fill="#39ff14" />
<rect x="23" y="21" width="1" height="1" fill="#39ff14" />
<rect x="24" y="21" width="1" height="1" fill="#39ff14" />
<rect x="25" y="21" width="1" height="1" fill="#39ff14" />
<rect x="26" y="21" width="1" height="1" fill="#39ff14" />
<rect x="27" y="21" width="1" height="1" fill="#39ff14" />
<rect x="28" y="21" width="1" height="1" fill="#39ff14" />
<rect x="32" y="21" width="1" height="1" fill="#39ff14" />
<rect x="34" y="21" width="1" height="1" fill="#39ff14" />
<rect x="36" y="21" width="1" height="1" fill="#39ff14" />
<rect x="37" y="21" width="1" height="1" fill="#39ff14" />
<rect x="38" y="21" width="1" height="1" fill="#39ff14" />
<rect x="39" y="21" width="1" height="1" fill="#39ff14" />
<rect x="40" y="21" width="1" height="1" fill="#39ff14" />
<rect x="47" y="21" width="1" height="1" fill="#39ff14" />
<rect x="55" y="21" width="1" height="1" fill="#39ff14" />
<rect x="56" y="21" width="1" height="1" fill="#39ff14" />
<rect x="57" y="21" width="1" height="1" fill="#39ff14" />
<rect x="58" y="21" width="1" height="1" fill="#39ff14" />
<rect x="59" y="21" width="1" height="1" fill="#39ff14" />
<rect x="30" y="22" width="1" height="1" fill="#39ff14" />
<rect x="32" y="22" width="1" height="1" fill="#39ff14" />
<rect x="39" y="22" width="1" height="1" fill="#39ff14" />
<rect x="43" y="22" width="1" height="1" fill="#39ff14" />
<rect x="54" y="22" width="1" height="1" fill="#39ff14" />
<rect x="55" y="22" width="1" height="1" fill="#39ff14" />
<rect x="5" y="23" width="1" height="1" fill="#39ff14" />
<rect x="6" y="23" width="1" height="1" fill="#39ff14" />
<rect x="7" y="23" width="1" height="1" fill="#39ff14" />
<rect x="8" y="23" width="1" height="1" fill="#39ff14" />
<rect x="9" y="23" width="1" height="1" fill="#39ff14" />
<rect x="10" y="23" width="1" height="1" fill="#39ff14" />
<rect x="11" y="23" width="1" height="1" fill="#39ff14" />
<rect x="12" y="23" width="1" height="1" fill="#39ff14" />
<rect x="13" y="23" width="1" height="1" fill="#39ff14" />
<rect x="14" y="23" width="1" height="1" fill="#39ff14" />
<rect x="15" y="23" width="1" height="1" fill="#39ff14" />
<rect x="16" y="23" width="1" height="1" fill="#39ff14" />
<rect x="17" y="23" width="1" height="1" fill="#39ff14" />
<rect x="18" y="23" width="1" height="1" fill="#39ff14" />
<rect x="19" y="23" width="1" height="1" fill="#39ff14" />
<rect x="20" y="23" width="1" height="1" fill="#39ff14" />
<rect x="21" y="23" width="1" height="1" fill="#39ff14" />
<rect x="22" y="23" width="1" height="1" fill="#39ff14" />
<rect x="23" y="23" width="1" height="1" fill="#39ff14" />
<rect x="24" y="23" width="1" height="1" fill="#39ff14" />
<rect x="25" y="23" width="1" height="1" fill="#39ff14" />
<rect x="26" y="23" width="1" height="1" fill="#39ff14" />
<rect x="27" y="23" width="1" height="1" fill="#39ff14" />
<rect x="28" y="23" width="1" height="1" fill="#39ff14" />
<rect x="34" y="23" width="1" height="1" fill="#39ff14" />
<rect x="44" y="23" width="1" height="1" fill="#39ff14" />
<rect x="52" y="23" width="1" height="1" fill="#39ff14" />
<rect x="53" y="23" width="1" height="1" fill="#39ff14" />
<rect x="56" y="23" width="1" height="1" fill="#39ff14" />
<rect x="57" y="23" width="1" height="1" fill="#39ff14" />
<rect x="58" y="23" width="1" height="1" fill="#39ff14" />
<rect x="59" y="23" width="1" height="1" fill="#39ff14" />
<rect x="4" y="24" width="1" height="1" fill="#39ff14" />
<rect x="33" y="24" width="1" height="1" fill="#39ff14" />
<rect x="49" y="24" width="1" height="1" fill="#39ff14" />
<rect x="50" y="24" width="1" height="1" fill="#39ff14" />
<rect x="52" y="24" width="1" height="1" fill="#39ff14" />
<rect x="53" y="24" width="1" height="1" fill="#39ff14" />
<rect x="60" y="24" width="1" height="1" fill="#39ff14" />
<rect x="5" y="25" width="1" height="1" fill="#39ff14" />
<rect x="6" y="25" width="1" height="1" fill="#39ff14" />
<rect x="7" y="25" width="1" height="1" fill="#39ff14" />
<rect x="8" y="25" width="1" height="1" fill="#39ff14" />
<rect x="9" y="25" width="1" height="1" fill="#39ff14" />
<rect x="10" y="25" width="1" height="1" fill="#39ff14" />
<rect x="11" y="25" width="1" height="1" fill="#39ff14" />
<rect x="12" y="25" width="1" height="1" fill="#39ff14" />
<rect x="13" y="25" width="1" height="1" fill="#39ff14" />
<rect x="14" y="25" width="1" height="1" fill="#39ff14" />
<rect x="15" y="25" width="1" height="1" fill="#39ff14" />
<rect x="16" y="25" width="1" height="1" fill="#39ff14" />
<rect x="17" y="25" width="1" height="1" fill="#39ff14" />
<rect x="18" y="25" width="1" height="1" fill="#39ff14" />
<rect x="19" y="25" width="1" height="1" fill="#39ff14" />
<rect x="20" y="25" width="1" height="1" fill="#39ff14" />
<rect x="21" y="25" width="1" height="1" fill="#39ff14" />
<rect x="22" y="25" width="1" height="1" fill="#39ff14" />
<rect x="23" y="25" width="1" height="1" fill="#39ff14" />
<rect x="24" y="25" width="1" height="1" fill="#39ff14" />
<rect x="25" y="25" width="1" height="1" fill="#39ff14" />
<rect x="26" y="25" width="1" height="1" fill="#39ff14" />
<rect x="27" y="25" width="1" height="1" fill="#39ff14" />
<rect x="28" y="25" width="1" height="1" fill="#39ff14" />
<rect x="32" y="25" width="1" height="1" fill="#39ff14" />
<rect x="33" y="25" width="1" height="1" fill="#39ff14" />
<rect x="34" y="25" width="1" height="1" fill="#39ff14" />
<rect x="35" y="25" width="1" height="1" fill="#39ff14" />
<rect x="36" y="25" width="1" height="1" fill="#39ff14" />
<rect x="47" y="25" width="1" height="1" fill="#39ff14" />
<rect x="48" y="25" width="1" height="1" fill="#39ff14" />
<rect x="54" y="25" width="1" height="1" fill="#39ff14" />
<rect x="55" y="25" width="1" height="1" fill="#39ff14" />
<rect x="56" y="25" width="1" height="1" fill="#39ff14" />
<rect x="57" y="25" width="1" height="1" fill="#39ff14" />
<rect x="58" y="25" width="1" height="1" fill="#39ff14" />
<rect x="59" y="25" width="1" height="1" fill="#39ff14" />
<rect x="30" y="26" width="1" height="1" fill="#39ff14" />
<rect x="31" y="26" width="1" height="1" fill="#39ff14" />
<rect x="44" y="26" width="1" height="1" fill="#39ff14" />
<rect x="45" y="26" width="1" height="1" fill="#39ff14" />
<rect x="47" y="26" width="1" height="1" fill="#39ff14" />
<rect x="48" y="26" width="1" height="1" fill="#39ff14" />
<rect x="5" y="27" width="1" height="1" fill="#39ff14" />
<rect x="6" y="27" width="1" height="1" fill="#39ff14" />
<rect x="7" y="27" width="1" height="1" fill="#39ff14" />
<rect x="8" y="27" width="1" height="1" fill="#39ff14" />
<rect x="9" y="27" width="1" height="1" fill="#39ff14" />
<rect x="10" y="27" width="1" height="1" fill="#39ff14" />
<rect x="11" y="27" width="1" height="1" fill="#39ff14" />
<rect x="12" y="27" width="1" height="1" fill="#39ff14" />
<rect x="13" y="27" width="1" height="1" fill="#39ff14" />
<rect x="14" y="27" width="1" height="1" fill="#39ff14" />
<rect x="15" y="27" width="1" height="1" fill="#39ff14" />
<rect x="16" y="27" width="1" height="1" fill="#39ff14" />
<rect x="17" y="27" width="1" height="1" fill="#39ff14" />
<rect x="18" y="27" width="1" height="1" fill="#39ff14" />
<rect x="19" y="27" width="1" height="1" fill="#39ff14" />
<rect x="20" y="27" width="1" height="1" fill="#39ff14" />
<rect x="21" y="27" width="1" height="1" fill="#39ff14" />
<rect x="22" y="27" width="1" height="1" fill="#39ff14" />
<rect x="23" y="27" width="1" height="1" fill="#39ff14" />
<rect x="24" y="27" width="1" height="1" fill="#39ff14" />
<rect x="25" y="27" width="1" height="1" fill="#39ff14" />
<rect x="26" y="27" width="1" height="1" fill="#39ff14" />
<rect x="27" y="27" width="1" height="1" fill="#39ff14" />
<rect x="28" y="27" width="1" height="1" fill="#39ff14" />
<rect x="31" y="27" width="1" height="1" fill="#39ff14" />
<rect x="32" y="27" width="1" height="1" fill="#39ff14" />
<rect x="33" y="27" width="1" height="1" fill="#39ff14" />
<rect x="36" y="27" width="1" height="1" fill="#39ff14" />
<rect x="37" y="27" width="1" height="1" fill="#39ff14" />
<rect x="38" y="27" width="1" height="1" fill="#39ff14" />
<rect x="42" y="27" width="1" height="1" fill="#39ff14" />
<rect x="43" y="27" width="1" height="1" fill="#39ff14" />
<rect x="49" y="27" width="1" height="1" fill="#39ff14" />
<rect x="50" y="27" width="1" height="1" fill="#39ff14" />
<rect x="54" y="27" width="1" height="1" fill="#39ff14" />
<rect x="55" y="27" width="1" height="1" fill="#39ff14" />
<rect x="56" y="27" width="1" height="1" fill="#39ff14" />
<rect x="57" y="27" width="1" height="1" fill="#39ff14" />
<rect x="58" y="27" width="1" height="1" fill="#39ff14" />
<rect x="59" y="27" width="1" height="1" fill="#39ff14" />
<rect x="4" y="28" width="1" height="1" fill="#39ff14" />
<rect x="35" y="28" width="1" height="1" fill="#39ff14" />
<rect x="36" y="28" width="1" height="1" fill="#39ff14" />
<rect x="40" y="28" width="1" height="1" fill="#39ff14" />
<rect x="42" y="28" width="1" height="1" fill="#39ff14" />
<rect x="43" y="28" width="1" height="1" fill="#39ff14" />
<rect x="52" y="28" width="1" height="1" fill="#39ff14" />
<rect x="53" y="28" width="1" height="1" fill="#39ff14" />
<rect x="60" y="28" width="1" height="1" fill="#39ff14" />
<rect x="5" y="29" width="1" height="1" fill="#39ff14" />
<rect x="6" y="29" width="1" height="1" fill="#39ff14" />
<rect x="7" y="29" width="1" height="1" fill="#39ff14" />
<rect x="8" y="29" width="1" height="1" fill="#39ff14" />
<rect x="9" y="29" width="1" height="1" fill="#39ff14" />
<rect x="10" y="29" width="1" height="1" fill="#39ff14" />
<rect x="11" y="29" width="1" height="1" fill="#39ff14" />
<rect x="12" y="29" width="1" height="1" fill="#39ff14" />
<rect x="13" y="29" width="1" height="1" fill="#39ff14" />
<rect x="14" y="29" width="1" height="1" fill="#39ff14" />
<rect x="15" y="29" width="1" height="1" fill="#39ff14" />
<rect x="16" y="29" width="1" height="1" fill="#39ff14" />
<rect x="17" y="29" width="1" height="1" fill="#39ff14" />
<rect x="18" y="29" width="1" height="1" fill="#39ff14" />
<rect x="19" y="29" width="1" height="1" fill="#39ff14" />
<rect x="20" y="29" width="1" height="1" fill="#39ff14" />
<rect x="21" y="29" width="1" height="1" fill="#39ff14" />
<rect x="22" y="29" width="1" height="1" fill="#39ff14" />
<rect x="23" y="29" width="1" height="1" fill="#39ff14" />
<rect x="24" y="29" width="1" height="1" fill="#39ff14" />
<rect x="25" y="29" width="1" height="1" fill="#39ff14" />
<rect x="26" y="29" width="1" height="1" fill="#39ff14" />
<rect x="27" y="29" width="1" height="1" fill="#39ff14" />
<rect x="28" y="29" width="1" height="1" fill="#39ff14" />
<rect x="31" y="29" width="1" height="1" fill="#39ff14" />
<rect x="32" y="29" width="1" height="1" fill="#39ff14" />
<rect x="33" y="29" width="1" height="1" fill="#39ff14" />
<rect x="37" y="29" width="1" height="1" fill="#39ff14" />
<rect x="38" y="29" width="1" height="1" fill="#39ff14" />
<rect x="44" y="29" width="1" height="1" fill="#39ff14" />
<rect x="45" y="29" width="1" height="1" fill="#39ff14" />
<rect x="49" y="29" width="1" height="1" fill="#39ff14" />
<rect x="50" y="29" width="1" height="1" fill="#39ff14" />
<rect x="53" y="29" width="1" height="1" fill="#39ff14" />
<rect x="54" y="29" width="1" height="1" fill="#39ff14" />
<rect x="55" y="29" width="1" height="1" fill="#39ff14" />
<rect x="56" y="29" width="1" height="1" fill="#39ff14" />
<rect x="57" y="29" width="1" height="1" fill="#39ff14" />
<rect x="58" y="29" width="1" height="1" fill="#39ff14" />
<rect x="59" y="29" width="1" height="1" fill="#39ff14" />
<rect x="30" y="30" width="1" height="1" fill="#39ff14" />
<rect x="31" y="30" width="1" height="1" fill="#39ff14" />
<rect x="47" y="30" width="1" height="1" fill="#39ff14" />
<rect x="48" y="30" width="1" height="1" fill="#39ff14" />
<rect x="5" y="31" width="1" height="1" fill="#39ff14" />
<rect x="6" y="31" width="1" height="1" fill="#39ff14" />
<rect x="7" y="31" width="1" height="1" fill="#39ff14" />
<rect x="8" y="31" width="1" height="1" fill="#39ff14" />
<rect x="9" y="31" width="1" height="1" fill="#39ff14" />
<rect x="10" y="31" width="1" height="1" fill="#39ff14" />
<rect x="11" y="31" width="1" height="1" fill="#39ff14" />
<rect x="12" y="31" width="1" height="1" fill="#39ff14" />
<rect x="13" y="31" width="1" height="1" fill="#39ff14" />
<rect x="14" y="31" width="1" height="1" fill="#39ff14" />
<rect x="15" y="31" width="1" height="1" fill="#39ff14" />
<rect x="16" y="31" width="1" height="1" fill="#39ff14" />
<rect x="17" y="31" width="1" height="1" fill="#39ff14" />
<rect x="18" y="31" width="1" height="1" fill="#39ff14" />
<rect x="19" y="31" width="1" height="1" fill="#39ff14" />
<rect x="20" y="31" width="1" height="1" fill="#39ff14" />
<rect x="21" y="31" width="1" height="1" fill="#39ff14" />
<rect x="22" y="31" width="1" height="1" fill="#39ff14" />
<rect x="23" y="31" width="1" height="1" fill="#39ff14" />
<rect x="24" y="31" width="1" height="1" fill="#39ff14" />
<rect x="25" y="31" width="1" height="1" fill="#39ff14" />
<rect x="26" y="31" width="1" height="1" fill="#39ff14" />
<rect x="27" y="31" width="1" height="1" fill="#39ff14" />
<rect x="28" y="31" width="1" height="1" fill="#39ff14" />
<rect x="31" y="31" width="1" height="1" fill="#39ff14" />
<rect x="32" y="31" width="1" height="1" fill="#39ff14" />
<rect x="33" y="31" width="1" height="1" fill="#39ff14" />
<rect x="37" y="31" width="1" height="1" fill="#39ff14" />
<rect x="38" y="31" width="1" height="1" fill="#39ff14" />
<rect x="42" y="31" width="1" height="1" fill="#39ff14" />
<rect x="43" y="31" width="1" height="1" fill="#39ff14" />
<rect x="44" y="31" width="1" height="1" fill="#39ff14" />
<rect x="45" y="31" width="1" height="1" fill="#39ff14" />
<rect x="48" y="31" width="1" height="1" fill="#39ff14" />
<rect x="49" y="31" width="1" height="1" fill="#39ff14" />
<rect x="50" y="31" width="1" height="1" fill="#39ff14" />
<rect x="51" y="31" width="1" height="1" fill="#39ff14" />
<rect x="52" y="31" width="1" height="1" fill="#39ff14" />
<rect x="53" y="31" width="1" height="1" fill="#39ff14" />
<rect x="54" y="31" width="1" height="1" fill="#39ff14" />
<rect x="55" y="31" width="1" height="1" fill="#39ff14" />
<rect x="56" y="31" width="1" height="1" fill="#39ff14" />
<rect x="57" y="31" width="1" height="1" fill="#39ff14" />
<rect x="58" y="31" width="1" height="1" fill="#39ff14" />
<rect x="59" y="31" width="1" height="1" fill="#39ff14" />
<rect x="4" y="32" width="1" height="1" fill="#39ff14" />
<rect x="35" y="32" width="1" height="1" fill="#39ff14" />
<rect x="36" y="32" width="1" height="1" fill="#39ff14" />
<rect x="40" y="32" width="1" height="1" fill="#39ff14" />
<rect x="41" y="32" width="1" height="1" fill="#39ff14" />
<rect x="60" y="32" width="1" height="1" fill="#39ff14" />
<rect x="5" y="33" width="1" height="1" fill="#39ff14" />
<rect x="6" y="33" width="1" height="1" fill="#39ff14" />
<rect x="7" y="33" width="1" height="1" fill="#39ff14" />
<rect x="8" y="33" width="1" height="1" fill="#39ff14" />
<rect x="9" y="33" width="1" height="1" fill="#39ff14" />
<rect x="10" y="33" width="1" height="1" fill="#39ff14" />
<rect x="11" y="33" width="1" height="1" fill="#39ff14" />
<rect x="12" y="33" width="1" height="1" fill="#39ff14" />
<rect x="13" y="33" width="1" height="1" fill="#39ff14" />
<rect x="14" y="33" width="1" height="1" fill="#39ff14" />
<rect x="15" y="33" width="1" height="1" fill="#39ff14" />
<rect x="16" y="33" width="1" height="1" fill="#39ff14" />
<rect x="17" y="33" width="1" height="1" fill="#39ff14" />
<rect x="18" y="33" width="1" height="1" fill="#39ff14" />
<rect x="19" y="33" width="1" height="1" fill="#39ff14" />
<rect x="20" y="33" width="1" height="1" fill="#39ff14" />
<rect x="21" y="33" width="1" height="1" fill="#39ff14" />
<rect x="22" y="33" width="1" height="1" fill="#39ff14" />
<rect x="23" y="33" width="1" height="1" fill="#39ff14" />
<rect x="24" y="33" width="1" height="1" fill="#39ff14" />
<rect x="25" y="33" width="1" height="1" fill="#39ff14" />
<rect x="26" y="33" width="1" height="1" fill="#39ff14" />
<rect x="27" y="33" width="1" height="1" fill="#39ff14" />
<rect x="28" y="33" width="1" height="1" fill="#39ff14" />
<rect x="29" y="33" width="1" height="1" fill="#39ff14" />
<rect x="30" y="33" width="1" height="1" fill="#39ff14" />
<rect x="31" y="33" width="1" height="1" fill="#39ff14" />
<rect x="32" y="33" width="1" height="1" fill="#39ff14" />
<rect x="33" y="33" width="1" height="1" fill="#39ff14" />
<rect x="36" y="33" width="1" height="1" fill="#39ff14" />
<rect x="37" y="33" width="1" height="1" fill="#39ff14" />
<rect x="38" y="33" width="1" height="1" fill="#39ff14" />
<rect x="41" y="33" width="1" height="1" fill="#39ff14" />
<rect x="42" y="33" width="1" height="1" fill="#39ff14" />
<rect x="43" y="33" width="1" height="1" fill="#39ff14" />
<rect x="44" y="33" width="1" height="1" fill="#39ff14" />
<rect x="45" y="33" width="1" height="1" fill="#39ff14" />
<rect x="46" y="33" width="1" height="1" fill="#39ff14" />
<rect x="47" y="33" width="1" height="1" fill="#39ff14" />
<rect x="48" y="33" width="1" height="1" fill="#39ff14" />
<rect x="49" y="33" width="1" height="1" fill="#39ff14" />
<rect x="50" y="33" width="1" height="1" fill="#39ff14" />
<rect x="51" y="33" width="1" height="1" fill="#39ff14" />
<rect x="52" y="33" width="1" height="1" fill="#39ff14" />
<rect x="53" y="33" width="1" height="1" fill="#39ff14" />
<rect x="54" y="33" width="1" height="1" fill="#39ff14" />
<rect x="55" y="33" width="1" height="1" fill="#39ff14" />
<rect x="56" y="33" width="1" height="1" fill="#39ff14" />
<rect x="57" y="33" width="1" height="1" fill="#39ff14" />
<rect x="58" y="33" width="1" height="1" fill="#39ff14" />
<rect x="59" y="33" width="1" height="1" fill="#39ff14" />
<rect x="5" y="35" width="1" height="1" fill="#39ff14" />
<rect x="6" y="35" width="1" height="1" fill="#39ff14" />
<rect x="7" y="35" width="1" height="1" fill="#39ff14" />
<rect x="8" y="35" width="1" height="1" fill="#39ff14" />
<rect x="9" y="35" width="1" height="1" fill="#39ff14" />
<rect x="10" y="35" width="1" height="1" fill="#39ff14" />
<rect x="11" y="35" width="1" height="1" fill="#39ff14" />
<rect x="12" y="35" width="1" height="1" fill="#39ff14" />
<rect x="13" y="35" width="1" height="1" fill="#39ff14" />
<rect x="14" y="35" width="1" height="1" fill="#39ff14" />
<rect x="15" y="35" width="1" height="1" fill="#39ff14" />
<rect x="16" y="35" width="1" height="1" fill="#39ff14" />
<rect x="17" y="35" width="1" height="1" fill="#39ff14" />
<rect x="18" y="35" width="1" height="1" fill="#39ff14" />
<rect x="19" y="35" width="1" height="1" fill="#39ff14" />
<rect x="20" y="35" width="1" height="1" fill="#39ff14" />
<rect x="21" y="35" width="1" height="1" fill="#39ff14" />
<rect x="22" y="35" width="1" height="1" fill="#39ff14" />
<rect x="23" y="35" width="1" height="1" fill="#39ff14" />
<rect x="24" y="35" width="1" height="1" fill="#39ff14" />
<rect x="25" y="35" width="1" height="1" fill="#39ff14" />
<rect x="26" y="35" width="1" height="1" fill="#39ff14" />
<rect x="27" y="35" width="1" height="1" fill="#39ff14" />
<rect x="28" y="35" width="1" height="1" fill="#39ff14" />
<rect x="29" y="35" width="1" height="1" fill="#39ff14" />
<rect x="30" y="35" width="1" height="1" fill="#39ff14" />
<rect x="31" y="35" width="1" height="1" fill="#39ff14" />
<rect x="32" y="35" width="1" height="1" fill="#39ff14" />
<rect x="33" y="35" width="1" height="1" fill="#39ff14" />
<rect x="34" y="35" width="1" height="1" fill="#39ff14" />
<rect x="35" y="35" width="1" height="1" fill="#39ff14" />
<rect x="36" y="35" width="1" height="1" fill="#39ff14" />
<rect x="37" y="35" width="1" height="1" fill="#39ff14" />
<rect x="38" y="35" width="1" height="1" fill="#39ff14" />
<rect x="39" y="35" width="1" height="1" fill="#39ff14" />
<rect x="40" y="35" width="1" height="1" fill="#39ff14" />
<rect x="41" y="35" width="1" height="1" fill="#39ff14" />
<rect x="42" y="35" width="1" height="1" fill="#39ff14" />
<rect x="43" y="35" width="1" height="1" fill="#39ff14" />
<rect x="44" y="35" width="1" height="1" fill="#39ff14" />
<rect x="45" y="35" width="1" height="1" fill="#39ff14" />
<rect x="46" y="35" width="1" height="1" fill="#39ff14" />
<rect x="47" y="35" width="1" height="1" fill="#39ff14" />
<rect x="48" y="35" width="1" height="1" fill="#39ff14" />
<rect x="49" y="35" width="1" height="1" fill="#39ff14" />
<rect x="50" y="35" width="1" height="1" fill="#39ff14" />
<rect x="51" y="35" width="1" height="1" fill="#39ff14" />
<rect x="52" y="35" width="1" height="1" fill="#39ff14" />
<rect x="53" y="35" width="1" height="1" fill="#39ff14" />
<rect x="54" y="35" width="1" height="1" fill="#39ff14" />
<rect x="55" y="35" width="1" height="1" fill="#39ff14" />
<rect x="56" y="35" width="1" height="1" fill="#39ff14" />
<rect x="57" y="35" width="1" height="1" fill="#39ff14" />
<rect x="58" y="35" width="1" height="1" fill="#39ff14" />
<rect x="59" y="35" width="1" height="1" fill="#39ff14" />
<rect x="5" y="36" width="1" height="1" fill="#39ff14" />
<rect x="8" y="36" width="1" height="1" fill="#39ff14" />
<rect x="11" y="36" width="1" height="1" fill="#39ff14" />
<rect x="14" y="36" width="1" height="1" fill="#39ff14" />
<rect x="17" y="36" width="1" height="1" fill="#39ff14" />
<rect x="20" y="36" width="1" height="1" fill="#39ff14" />
<rect x="23" y="36" width="1" height="1" fill="#39ff14" />
<rect x="26" y="36" width="1" height="1" fill="#39ff14" />
<rect x="29" y="36" width="1" height="1" fill="#39ff14" />
<rect x="32" y="36" width="1" height="1" fill="#39ff14" />
<rect x="35" y="36" width="1" height="1" fill="#39ff14" />
<rect x="38" y="36" width="1" height="1" fill="#39ff14" />
<rect x="41" y="36" width="1" height="1" fill="#39ff14" />
<rect x="44" y="36" width="1" height="1" fill="#39ff14" />
<rect x="47" y="36" width="1" height="1" fill="#39ff14" />
<rect x="50" y="36" width="1" height="1" fill="#39ff14" />
<rect x="53" y="36" width="1" height="1" fill="#39ff14" />
<rect x="56" y="36" width="1" height="1" fill="#39ff14" />
<rect x="59" y="36" width="1" height="1" fill="#39ff14" />
</svg>