<?xml version="1.0" encoding="utf-8"?>
<svg xmlns="http://www.w3.org/2000/svg" width="86" height="50" viewBox="0 0 86 50">
<rect width="100%" height="100%" fill="transparent" />
<rect x="6" y="4" width="2" height="2" fill="#39ff14" />
<rect x="8" y="4" width="2" height="2" fill="#39ff14" />
<rect x="26" y="4" width="2" height="2" fill="#39ff14" />
<rect x="28" y="4" width="2" height="2" fill="#39ff14" />
<rect x="6" y="6" width="2" height="2" fill="#39ff14" />
<rect x="8" y="6" width="2" height="2" fill="#39ff14" />
<rect x="28" y="6" width="2" height="2" fill="#39ff14" />
<rect x="44" y="6" width="2" height="2" fill="#39ff14" />
<rect x="6" y="8" width="2" height="2" fill="#39ff14" />
<rect x="8" y="8" width="2" height="2" fill="#39ff14" />
<rect x="28" y="8" width="2" height="2" fill="#39ff14" />
<rect x="32" y="8" width="2" height="2" fill="#39ff14" />
<rect x="34" y="8" width="2" height="2" fill="#39ff14" />
<rect x="42" y="8" width="2" height="2" fill="#39ff14" />
<rect x="46" y="8" width="2" height="2" fill="#39ff14" />
<rect x="72" y="8" width="2" height="2" fill="#39ff14" />
<rect x="74" y="8" width="2" height="2" fill="#39ff14" />
<rect x="6" y="10" width="2" height="2" fill="#39ff14" />
<rect x="30" y="10" width="2" height="2" fill="#39ff14" />
<rect x="44" y="10" width="2" height="2" fill="#39ff14" />
<rect x="72" y="10" width="2" height="2" fill="#39ff14" />
<rect x="74" y="10" width="2" height="2" fill="#39ff14" />
<rect x="76" y="10" width="2" height="2" fill="#39ff14" />
<rect x="4" y="12" width="2" height="2" fill="#39ff14" />
<rect x="8" y="12" width="2" height="2" fill="#39ff14" />
<rect x="22" y="12" width="2" height="2" fill="#39ff14" />
<rect x="24" y="12" width="2" height="2" fill="#39ff14" />
<rect x="38" y="12" width="2" height="2" fill="#39ff14" />
<rect x="72" y="12" width="2" height="2" fill="#39ff14" />
<rect x="74" y="12" width="2" height="2" fill="#39ff14" />
<rect x="78" y="12" width="2" height="2" fill="#39ff14" />
<rect x="4" y="14" width="2" height="2" fill="#39ff14" />
<rect x="8" y="14" width="2" height="2" fill="#39ff14" />
<rect x="10" y="14" width="2" height="2" fill="#39ff14" />
<rect x="22" y="14" width="2" height="2" fill="#39ff14" />
<rect x="24" y="14" width="2" height="2" fill="#39ff14" />
<rect x="34" y="14" width="2" height="2" fill="#39ff14" />
<rect x="76" y="14" width="2" height="2" fill="#39ff14" />
<rect x="80" y="14" width="2" height="2" fill="#39ff14" />
<rect x="36" y="16" width="2" height="2" fill="#39ff14" />
<rect x="74" y="16" width="2" height="2" fill="#39ff14" />
<rect x="80" y="16" width="2" height="2" fill="#39ff14" />
<rect x="76" y="18" width="2" height="2" fill="#39ff14" />
<rect x="78" y="18" width="2" height="2" fill="#39ff14" />
<rect x="6" y="20" width="2" height="2" fill="#39ff14" />
<rect x="8" y="20" width="2" height="2" fill="#39ff14" />
<rect x="6" y="22" width="2" height="2" fill="#39ff14" />
<rect x="8" y="22" width="2" height="2" fill="#39ff14" />
<rect x="34" y="24" width="2" height="2" fill="#39ff14" />
<rect x="36" y="24" width="2" height="2" fill="#39ff14" />
<rect x="36" y="26" width="2" height="2" fill="#39ff14" />
<rect x="38" y="26" width="2" height="2" fill="#39ff14" />
<rect x="76" y="26" width="2" height="2" fill="#39ff14" />
<rect x="78" y="26" width="2" height="2" fill="#39ff14" />
<rect x="36" y="28" width="2" height="2" fill="#39ff14" />
<rect x="76" y="28" width="2" height="2" fill="#39ff14" />
<rect x="78" y="28" width="2" height="2" fill="#39ff14" />
<rect x="6" y="30" width="2" height="2" fill="#39ff14" />
<rect x="8" y="30" width="2" height="2" fill="#39ff14" />
<rect x="22" y="30" width="2" height="2" fill="#39ff14" />
<rect x="24" y="30" width="2" height="2" fill="#39ff14" />
<rect x="26" y="30" width="2" height="2" fill="#39ff14" />
<rect x="76" y="30" width="2" height="2" fill="#39ff14" />
<rect x="78" y="30" width="2" height="2" fill="#39ff14" />
<rect x="4" y="32" width="2" height="2" fill="#39ff14" />
<rect x="10" y="32" width="2" height="2" fill="#39ff14" />
<rect x="26" y="32" width="2" height="2" fill="#39ff14" />
<rect x="76" y="32" width="2" height="2" fill="#39ff14" />
<rect x="4" y="34" width="2" height="2" fill="#39ff14" />
<rect x="8" y="34" width="2" height="2" fill="#39ff14" />
<rect x="60" y="34" width="2" height="2" fill="#39ff14" />
<rect x="62" y="34" width="2" height="2" fill="#39ff14" />
<rect x="74" y="34" width="2" height="2" fill="#39ff14" />
<rect x="78" y="34" width="2" height="2" fill="#39ff14" />
<rect x="6" y="36" width="2" height="2" fill="#39ff14" />
<rect x="10" y="36" width="2" height="2" fill="#39ff14" />
<rect x="12" y="36" width="2" height="2" fill="#39ff14" />
<rect x="60" y="36" width="2" height="2" fill="#39ff14" />
<rect x="62" y="36" width="2" height="2" fill="#39ff14" />
<rect x="74" y="36" width="2" height="2" fill="#39ff14" />
<rect x="78" y="36" width="2" height="2" fill="#39ff14" />
<rect x="80" y="36" width="2" height="2" fill="#39ff14" />
<rect x="8" y="38" width="2" height="2" fill="#39ff14" />
<rect x="10" y="38" width="2" height="2" fill="#39ff14" />
<rect x="12" y="38" width="2" height="2" fill="#39ff14" />
<rect x="40" y="38" width="2" height="2" fill="#39ff14" />
<rect x="10" y="40" width="2" height="2" fill="#39ff14" />
<rect x="12" y="40" width="2" height="2" fill="#39ff14" />
<rect x="38" y="40" width="2" height="2" fill="#39ff14" />
<rect x="42" y="40" width="2" height="2" fill="#39ff14" />
<rect x="40" y="42" width="2" height="2" fill="#39ff14" />
<rect x="76" y="42" width="2" height="2" fill="#39ff14" />
<rect x="78" y="42" width="2" height="2" fill="#39ff14" />
<rect x="76" y="44" width="2" height="2" fill="#39ff14" />
<rect x="78" y="44" width="2" height="2" fill="#39ff14" />
</svg>