<?xml version="1.0" encoding="utf-8"?>
<svg xmlns="http://www.w3.org/2000/svg" width="54" height="35" viewBox="0 0 54 35">
<rect width="100%" height="100%" fill="transparent" />
<rect x="9" y="4" width="1" height="1" fill="#39ff14" />
<rect x="10" y="4" width="1" height="1" fill="#39ff14" />
<rect x="43" y="4" width="1" height="1" fill="#39ff14" />
<rect x="44" y="4" width="1" height="1" fill="#39ff14" />
<rect x="9" y="5" width="1" height="1" fill="#39ff14" />
<rect x="10" y="5" width="1" height="1" fill="#39ff14" />
<rect x="43" y="5" width="1" height="1" fill="#39ff14" />
<rect x="44" y="5" width="1" height="1" fill="#39ff14" />
<rect x="29" y="8" width="1" height="1" fill="#39ff14" />
<rect x="4" y="9" width="1" height="1" fill="#39ff14" />
<rect x="5" y="9" width="1" height="1" fill="#39ff14" />
<rect x="10" y="9" width="1" height="1" fill="#39ff14" />
<rect x="11" y="9" width="1" height="1" fill="#39ff14" />
<rect x="30" y="9" width="1" height="1" fill="#39ff14" />
<rect x="42" y="9" width="1" height="1" fill="#39ff14" />
<rect x="43" y="9" width="1" height="1" fill="#39ff14" />
<rect x="48" y="9" width="1" height="1" fill="#39ff14" />
<rect x="49" y="9" width="1" height="1" fill="#39ff14" />
<rect x="4" y="10" width="1" height="1" fill="#39ff14" />
<rect x="5" y="10" width="1" height="1" fill="#39ff14" />
<rect x="9" y="10" width="1" height="1" fill="#39ff14" />
<rect x="12" y="10" width="1" height="1" fill="#39ff14" />
<rect x="29" y="10" width="1" height="1" fill="#39ff14" />
<rect x="30" y="10" width="1" height="1" fill="#39ff14" />
<rect x="41" y="10" width="1" height="1" fill="#39ff14" />
<rect x="44" y="10" width="1" height="1" fill="#39ff14" />
<rect x="48" y="10" width="1" height="1" fill="#39ff14" />
<rect x="49" y="10" width="1" height="1" fill="#39ff14" />
<rect x="9" y="11" width="1" height="1" fill="#39ff14" />
<rect x="11" y="11" width="1" height="1" fill="#39ff14" />
<rect x="23" y="11" width="1" height="1" fill="#39ff14" />
<rect x="24" y="11" width="1" height="1" fill="#39ff14" />
<rect x="25" y="11" width="1" height="1" fill="#39ff14" />
<rect x="26" y="11" width="1" height="1" fill="#39ff14" />
<rect x="27" y="11" width="1" height="1" fill="#39ff14" />
<rect x="28" y="11" width="1" height="1" fill="#39ff14" />
<rect x="29" y="11" width="1" height="1" fill="#39ff14" />
<rect x="42" y="11" width="1" height="1" fill="#39ff14" />
<rect x="44" y="11" width="1" height="1" fill="#39ff14" />
<rect x="10" y="12" width="1" height="1" fill="#39ff14" />
<rect x="22" y="12" width="1" height="1" fill="#39ff14" />
<rect x="23" y="12" width="1" height="1" fill="#39ff14" />
<rect x="24" y="12" width="1" height="1" fill="#39ff14" />
<rect x="27" y="12" width="1" height="1" fill="#39ff14" />
<rect x="43" y="12" width="1" height="1" fill="#39ff14" />
<rect x="22" y="13" width="1" height="1" fill="#39ff14" />
<rect x="25" y="13" width="1" height="1" fill="#39ff14" />
<rect x="26" y="13" width="1" height="1" fill="#39ff14" />
<rect x="28" y="13" width="1" height="1" fill="#39ff14" />
<rect x="7" y="14" width="1" height="1" fill="#39ff14" />
<rect x="26" y="14" width="1" height="1" fill="#39ff14" />
<rect x="28" y="14" width="1" height="1" fill="#39ff14" />
<rect x="46" y="14" width="1" height="1" fill="#39ff14" />
<rect x="6" y="15" width="1" height="1" fill="#39ff14" />
<rect x="8" y="15" width="1" height="1" fill="#39ff14" />
<rect x="24" y="15" width="1" height="1" fill="#39ff14" />
<rect x="25" y="15" width="1" height="1" fill="#39ff14" />
<rect x="27" y="15" width="1" height="1" fill="#39ff14" />
<rect x="28" y="15" width="1" height="1" fill="#39ff14" />
<rect x="45" y="15" width="1" height="1" fill="#39ff14" />
<rect x="47" y="15" width="1" height="1" fill="#39ff14" />
<rect x="6" y="16" width="1" height="1" fill="#39ff14" />
<rect x="7" y="16" width="1" height="1" fill="#39ff14" />
<rect x="24" y="16" width="1" height="1" fill="#39ff14" />
<rect x="25" y="16" width="1" height="1" fill="#39ff14" />
<rect x="26" y="16" width="1" height="1" fill="#39ff14" />
<rect x="27" y="16" width="1" height="1" fill="#39ff14" />
<rect x="46" y="16" width="1" height="1" fill="#39ff14" />
<rect x="47" y="16" width="1" height="1" fill="#39ff14" />
<rect x="6" y="18" width="1" height="1" fill="#39ff14" />
<rect x="7" y="18" width="1" height="1" fill="#39ff14" />
<rect x="24" y="18" width="1" height="1" fill="#39ff14" />
<rect x="25" y="18" width="1" height="1" fill="#39ff14" />
<rect x="26" y="18" width="1" height="1" fill="#39ff14" />
<rect x="27" y="18" width="1" height="1" fill="#39ff14" />
<rect x="46" y="18" width="1" height="1" fill="#39ff14" />
<rect x="47" y="18" width="1" height="1" fill="#39ff14" />
<rect x="6" y="19" width="1" height="1" fill="#39ff14" />
<rect x="8" y="19" width="1" height="1" fill="#39ff14" />
<rect x="24" y="19" width="1" height="1" fill="#39ff14" />
<rect x="25" y="19" width="1" height="1" fill="#39ff14" />
<rect x="27" y="19" width="1" height="1" fill="#39ff14" />
<rect x="28" y="19" width="1" height="1" fill="#39ff14" />
<rect x="45" y="19" width="1" height="1" fill="#39ff14" />
<rect x="47" y="19" width="1" height="1" fill="#39ff14" />
<rect x="7" y="20" width="1" height="1" fill="#39ff14" />
<rect x="26" y="20" width="1" height="1" fill="#39ff14" />
<rect x="28" y="20" width="1" height="1" fill="#39ff14" />
<rect x="46" y="20" width="1" height="1" fill="#39ff14" />
<rect x="22" y="21" width="1" height="1" fill="#39ff14" />
<rect x="25" y="21" width="1" height="1" fill="#39ff14" />
<rect x="26" y="21" width="1" height="1" fill="#39ff14" />
<rect x="28" y="21" width="1" height="1" fill="#39ff14" />
<rect x="10" y="22" width="1" height="1" fill="#39ff14" />
<rect x="22" y="22" width="1" height="1" fill="#39ff14" />
<rect x="23" y="22" width="1" height="1" fill="#39ff14" />
<rect x="24" y="22" width="1" height="1" fill="#39ff14" />
<rect x="27" y="22" width="1" height="1" fill="#39ff14" />
<rect x="43" y="22" width="1" height="1" fill="#39ff14" />
<rect x="9" y="23" width="1" height="1" fill="#39ff14" />
<rect x="11" y="23" width="1" height="1" fill="#39ff14" />
<rect x="23" y="23" width="1" height="1" fill="#39ff14" />
<rect x="24" y="23" width="1" height="1" fill="#39ff14" />
<rect x="25" y="23" width="1" height="1" fill="#39ff14" />
<rect x="26" y="23" width="1" height="1" fill="#39ff14" />
<rect x="27" y="23" width="1" height="1" fill="#39ff14" />
<rect x="28" y="23" width="1" height="1" fill="#39ff14" />
<rect x="29" y="23" width="1" height="1" fill="#39ff14" />
<rect x="42" y="23" width="1" height="1" fill="#39ff14" />
<rect x="44" y="23" width="1" height="1" fill="#39ff14" />
<rect x="4" y="24" width="1" height="1" fill="#39ff14" />
<rect x="5" y="24" width="1" height="1" fill="#39ff14" />
<rect x="9" y="24" width="1" height="1" fill="#39ff14" />
<rect x="12" y="24" width="1" height="1" fill="#39ff14" />
<rect x="29" y="24" width="1" height="1" fill="#39ff14" />
<rect x="30" y="24" width="1" height="1" fill="#39ff14" />
<rect x="41" y="24" width="1" height="1" fill="#39ff14" />
<rect x="44" y="24" width="1" height="1" fill="#39ff14" />
<rect x="48" y="24" width="1" height="1" fill="#39ff14" />
<rect x="49" y="24" width="1" height="1" fill="#39ff14" />
<rect x="4" y="25" width="1" height="1" fill="#39ff14" />
<rect x="5" y="25" width="1" height="1" fill="#39ff14" />
<rect x="10" y="25" width="1" height="1" fill="#39ff14" />
<rect x="11" y="25" width="1" height="1" fill="#39ff14" />
<rect x="30" y="25" width="1" height="1" fill="#39ff14" />
<rect x="42" y="25" width="1" height="1" fill="#39ff14" />
<rect x="43" y="25" width="1" height="1" fill="#39ff14" />
<rect x="48" y="25" width="1" height="1" fill="#39ff14" />
<rect x="49" y="25" width="1" height="1" fill="#39ff14" />
<rect x="29" y="26" width="1" height="1" fill="#39ff14" />
<rect x="9" y="29" width="1" height="1" fill="#39ff14" />
<rect x="10" y="29" width="1" height="1" fill="#39ff14" />
<rect x="43" y="29" width="1" height="1" fill="#39ff14" />
<rect x="44" y="29" width="1" height="1" fill="#39ff14" />
<rect x="9" y="30" width="1" height="1" fill="#39ff14" />
<rect x="10" y="30" width="1" height="1" fill="#39ff14" />
<rect x="43" y="30" width="1" height="1" fill="#39ff14" />
<rect x="44" y="30" width="1" height="1" fill="#39ff14" />
</svg>