<?xml version="1.0" encoding="utf-8"?>
<svg xmlns="http://www.w3.org/2000/svg" width="70" height="70" viewBox="0 0 70 70">
<rect width="100%" height="100%" fill="transparent" />
<rect x="42" y="4" width="2" height="2" fill="#39ff14" />
<rect x="38" y="6" width="2" height="2" fill="#39ff14" />
<rect x="40" y="6" width="2" height="2" fill="#39ff14" />
<rect x="42" y="6" width="2" height="2" fill="#39ff14" />
<rect x="36" y="8" width="2" height="2" fill="#39ff14" />
<rect x="36" y="10" width="2" height="2" fill="#39ff14" />
<rect x="38" y="10" width="2" height="2" fill="#39ff14" />
<rect x="64" y="12" width="2" height="2" fill="#39ff14" />
<rect x="60" y="14" width="2" height="2" fill="#39ff14" />
<rect x="62" y="14" width="2" height="2" fill="#39ff14" />
<rect x="64" y="14" width="2" height="2" fill="#39ff14" />
<rect x="58" y="16" width="2" height="2" fill="#39ff14" />
<rect x="58" y="18" width="2" height="2" fill="#39ff14" />
<rect x="60" y="18" width="2" height="2" fill="#39ff14" />
<rect x="44" y="28" width="2" height="2" fill="#39ff14" />
<rect x="46" y="28" width="2" height="2" fill="#39ff14" />
<rect x="42" y="30" width="2" height="2" fill="#39ff14" />
<rect x="46" y="30" width="2" height="2" fill="#39ff14" />
<rect x="42" y="32" width="2" height="2" fill="#39ff14" />
<rect x="42" y="34" width="2" height="2" fill="#39ff14" />
<rect x="44" y="34" width="2" height="2" fill="#39ff14" />
<rect x="48" y="34" width="2" height="2" fill="#39ff14" />
<rect x="8" y="36" width="2" height="2" fill="#39ff14" />
<rect x="10" y="36" width="2" height="2" fill="#39ff14" />
<rect x="46" y="36" width="2" height="2" fill="#39ff14" />
<rect x="48" y="36" width="2" height="2" fill="#39ff14" />
<rect x="6" y="38" width="2" height="2" fill="#39ff14" />
<rect x="10" y="38" width="2" height="2" fill="#39ff14" />
<rect x="6" y="40" width="2" height="2" fill="#39ff14" />
<rect x="4" y="42" width="2" height="2" fill="#39ff14" />
<rect x="6" y="42" width="2" height="2" fill="#39ff14" />
<rect x="16" y="58" width="2" height="2" fill="#39ff14" />
<rect x="18" y="58" width="2" height="2" fill="#39ff14" />
<rect x="14" y="60" width="2" height="2" fill="#39ff14" />
<rect x="18" y="60" width="2" height="2" fill="#39ff14" />
<rect x="14" y="62" width="2" height="2" fill="#39ff14" />
<rect x="12" y="64" width="2" height="2" fill="#39ff14" />
<rect x="14" y="64" width="2" height="2" fill="#39ff14" />
</svg>