<?xml version="1.0" encoding="utf-8"?>
<svg xmlns="http://www.w3.org/2000/svg" width="57" height="57" viewBox="0 0 57 57">
<rect width="100%" height="100%" fill="transparent" />
<rect x="35" y="4" width="1" height="1" fill="#39ff14" />
<rect x="36" y="4" width="1" height="1" fill="#39ff14" />
<rect x="35" y="5" width="1" height="1" fill="#39ff14" />
<rect x="36" y="5" width="1" height="1" fill="#39ff14" />
<rect x="42" y="5" width="1" height="1" fill="#39ff14" />
<rect x="43" y="5" width="1" height="1" fill="#39ff14" />
<rect x="42" y="6" width="1" height="1" fill="#39ff14" />
<rect x="43" y="6" width="1" height="1" fill="#39ff14" />
<rect x="11" y="9" width="1" height="1" fill="#39ff14" />
<rect x="12" y="9" width="1" height="1" fill="#39ff14" />
<rect x="21" y="9" width="1" height="1" fill="#39ff14" />
<rect x="22" y="9" width="1" height="1" fill="#39ff14" />
<rect x="40" y="9" width="1" height="1" fill="#39ff14" />
<rect x="41" y="9" width="1" height="1" fill="#39ff14" />
<rect x="11" y="10" width="1" height="1" fill="#39ff14" />
<rect x="12" y="10" width="1" height="1" fill="#39ff14" />
<rect x="22" y="10" width="1" height="1" fill="#39ff14" />
<rect x="40" y="10" width="1" height="1" fill="#39ff14" />
<rect x="41" y="10" width="1" height="1" fill="#39ff14" />
<rect x="22" y="11" width="1" height="1" fill="#39ff14" />
<rect x="24" y="11" width="1" height="1" fill="#39ff14" />
<rect x="46" y="11" width="1" height="1" fill="#39ff14" />
<rect x="47" y="11" width="1" height="1" fill="#39ff14" />
<rect x="23" y="12" width="1" height="1" fill="#39ff14" />
<rect x="24" y="12" width="1" height="1" fill="#39ff14" />
<rect x="46" y="12" width="1" height="1" fill="#39ff14" />
<rect x="47" y="12" width="1" height="1" fill="#39ff14" />
<rect x="5" y="13" width="1" height="1" fill="#39ff14" />
<rect x="6" y="13" width="1" height="1" fill="#39ff14" />
<rect x="5" y="14" width="1" height="1" fill="#39ff14" />
<rect x="6" y="14" width="1" height="1" fill="#39ff14" />
<rect x="9" y="15" width="1" height="1" fill="#39ff14" />
<rect x="10" y="15" width="1" height="1" fill="#39ff14" />
<rect x="9" y="16" width="1" height="1" fill="#39ff14" />
<rect x="10" y="16" width="1" height="1" fill="#39ff14" />
<rect x="26" y="16" width="1" height="1" fill="#39ff14" />
<rect x="26" y="17" width="1" height="1" fill="#39ff14" />
<rect x="28" y="17" width="1" height="1" fill="#39ff14" />
<rect x="26" y="18" width="1" height="1" fill="#39ff14" />
<rect x="27" y="18" width="1" height="1" fill="#39ff14" />
<rect x="28" y="18" width="1" height="1" fill="#39ff14" />
<rect x="28" y="19" width="1" height="1" fill="#39ff14" />
<rect x="4" y="20" width="1" height="1" fill="#39ff14" />
<rect x="5" y="20" width="1" height="1" fill="#39ff14" />
<rect x="4" y="21" width="1" height="1" fill="#39ff14" />
<rect x="5" y="21" width="1" height="1" fill="#39ff14" />
<rect x="47" y="21" width="1" height="1" fill="#39ff14" />
<rect x="48" y="21" width="1" height="1" fill="#39ff14" />
<rect x="47" y="22" width="1" height="1" fill="#39ff14" />
<rect x="45" y="23" width="1" height="1" fill="#39ff14" />
<rect x="47" y="23" width="1" height="1" fill="#39ff14" />
<rect x="45" y="24" width="1" height="1" fill="#39ff14" />
<rect x="46" y="24" width="1" height="1" fill="#39ff14" />
<rect x="10" y="35" width="1" height="1" fill="#39ff14" />
<rect x="11" y="35" width="1" height="1" fill="#39ff14" />
<rect x="51" y="35" width="1" height="1" fill="#39ff14" />
<rect x="52" y="35" width="1" height="1" fill="#39ff14" />
<rect x="10" y="36" width="1" height="1" fill="#39ff14" />
<rect x="51" y="36" width="1" height="1" fill="#39ff14" />
<rect x="52" y="36" width="1" height="1" fill="#39ff14" />
<rect x="11" y="37" width="1" height="1" fill="#39ff14" />
<rect x="10" y="38" width="1" height="1" fill="#39ff14" />
<rect x="11" y="38" width="1" height="1" fill="#39ff14" />
<rect x="26" y="39" width="1" height="1" fill="#39ff14" />
<rect x="28" y="39" width="1" height="1" fill="#39ff14" />
<rect x="27" y="40" width="1" height="1" fill="#39ff14" />
<rect x="28" y="40" width="1" height="1" fill="#39ff14" />
<rect x="46" y="40" width="1" height="1" fill="#39ff14" />
<rect x="47" y="40" width="1" height="1" fill="#39ff14" />
<rect x="27" y="41" width="1" height="1" fill="#39ff14" />
<rect x="46" y="41" width="1" height="1" fill="#39ff14" />
<rect x="47" y="41" width="1" height="1" fill="#39ff14" />
<rect x="50" y="42" width="1" height="1" fill="#39ff14" />
<rect x="51" y="42" width="1" height="1" fill="#39ff14" />
<rect x="50" y="43" width="1" height="1" fill="#39ff14" />
<rect x="51" y="43" width="1" height="1" fill="#39ff14" />
<rect x="9" y="44" width="1" height="1" fill="#39ff14" />
<rect x="10" y="44" width="1" height="1" fill="#39ff14" />
<rect x="9" y="45" width="1" height="1" fill="#39ff14" />
<rect x="10" y="45" width="1" height="1" fill="#39ff14" />
<rect x="15" y="46" width="1" height="1" fill="#39ff14" />
<rect x="16" y="46" width="1" height="1" fill="#39ff14" />
<rect x="44" y="46" width="1" height="1" fill="#39ff14" />
<rect x="45" y="46" width="1" height="1" fill="#39ff14" />
<rect x="15" y="47" width="1" height="1" fill="#39ff14" />
<rect x="16" y="47" width="1" height="1" fill="#39ff14" />
<rect x="44" y="47" width="1" height="1" fill="#39ff14" />
<rect x="45" y="47" width="1" height="1" fill="#39ff14" />
<rect x="13" y="50" width="1" height="1" fill="#39ff14" />
<rect x="14" y="50" width="1" height="1" fill="#39ff14" />
<rect x="13" y="51" width="1" height="1" fill="#39ff14" />
<rect x="14" y="51" width="1" height="1" fill="#39ff14" />
<rect x="20" y="51" width="1" height="1" fill="#39ff14" />
<rect x="21" y="51" width="1" height="1" fill="#39ff14" />
<rect x="20" y="52" width="1" height="1" fill="#39ff14" />
<rect x="21" y="52" width="1" height="1" fill="#39ff14" />
</svg>