<?xml version="1.0" encoding="utf-8"?>
<svg xmlns="http://www.w3.org/2000/svg" width="66" height="30" viewBox="0 0 66 30">
<rect width="100%" height="100%" fill="transparent" />
<rect x="14" y="4" width="1" height="1" fill="#39ff14" />
<rect x="22" y="4" width="1" height="1" fill="#39ff14" />
<rect x="43" y="4" width="1" height="1" fill="#39ff14" />
<rect x="51" y="4" width="1" height="1" fill="#39ff14" />
<rect x="13" y="5" width="1" height="1" fill="#39ff14" />
<rect x="15" y="5" width="1" height="1" fill="#39ff14" />
<rect x="21" y="5" width="1" height="1" fill="#39ff14" />
<rect x="23" y="5" width="1" height="1" fill="#39ff14" />
<rect x="42" y="5" width="1" height="1" fill="#39ff14" />
<rect x="44" y="5" width="1" height="1" fill="#39ff14" />
<rect x="50" y="5" width="1" height="1" fill="#39ff14" />
<rect x="52" y="5" width="1" height="1" fill="#39ff14" />
<rect x="14" y="6" width="1" height="1" fill="#39ff14" />
<rect x="22" y="6" width="1" height="1" fill="#39ff14" />
<rect x="43" y="6" width="1" height="1" fill="#39ff14" />
<rect x="51" y="6" width="1" height="1" fill="#39ff14" />
<rect x="29" y="10" width="1" height="1" fill="#39ff14" />
<rect x="30" y="10" width="1" height="1" fill="#39ff14" />
<rect x="35" y="10" width="1" height="1" fill="#39ff14" />
<rect x="36" y="10" width="1" height="1" fill="#39ff14" />
<rect x="29" y="11" width="1" height="1" fill="#39ff14" />
<rect x="30" y="11" width="1" height="1" fill="#39ff14" />
<rect x="31" y="11" width="1" height="1" fill="#39ff14" />
<rect x="34" y="11" width="1" height="1" fill="#39ff14" />
<rect x="35" y="11" width="1" height="1" fill="#39ff14" />
<rect x="36" y="11" width="1" height="1" fill="#39ff14" />
<rect x="7" y="12" width="1" height="1" fill="#39ff14" />
<rect x="8" y="12" width="1" height="1" fill="#39ff14" />
<rect x="29" y="12" width="1" height="1" fill="#39ff14" />
<rect x="30" y="12" width="1" height="1" fill="#39ff14" />
<rect x="35" y="12" width="1" height="1" fill="#39ff14" />
<rect x="36" y="12" width="1" height="1" fill="#39ff14" />
<rect x="57" y="12" width="1" height="1" fill="#39ff14" />
<rect x="58" y="12" width="1" height="1" fill="#39ff14" />
<rect x="7" y="13" width="1" height="1" fill="#39ff14" />
<rect x="15" y="13" width="1" height="1" fill="#39ff14" />
<rect x="21" y="13" width="1" height="1" fill="#39ff14" />
<rect x="44" y="13" width="1" height="1" fill="#39ff14" />
<rect x="50" y="13" width="1" height="1" fill="#39ff14" />
<rect x="58" y="13" width="1" height="1" fill="#39ff14" />
<rect x="4" y="14" width="1" height="1" fill="#39ff14" />
<rect x="5" y="14" width="1" height="1" fill="#39ff14" />
<rect x="7" y="14" width="1" height="1" fill="#39ff14" />
<rect x="14" y="14" width="1" height="1" fill="#39ff14" />
<rect x="15" y="14" width="1" height="1" fill="#39ff14" />
<rect x="16" y="14" width="1" height="1" fill="#39ff14" />
<rect x="20" y="14" width="1" height="1" fill="#39ff14" />
<rect x="21" y="14" width="1" height="1" fill="#39ff14" />
<rect x="22" y="14" width="1" height="1" fill="#39ff14" />
<rect x="43" y="14" width="1" height="1" fill="#39ff14" />
<rect x="44" y="14" width="1" height="1" fill="#39ff14" />
<rect x="45" y="14" width="1" height="1" fill="#39ff14" />
<rect x="49" y="14" width="1" height="1" fill="#39ff14" />
<rect x="50" y="14" width="1" height="1" fill="#39ff14" />
<rect x="51" y="14" width="1" height="1" fill="#39ff14" />
<rect x="58" y="14" width="1" height="1" fill="#39ff14" />
<rect x="60" y="14" width="1" height="1" fill="#39ff14" />
<rect x="61" y="14" width="1" height="1" fill="#39ff14" />
<rect x="4" y="15" width="1" height="1" fill="#39ff14" />
<rect x="7" y="15" width="1" height="1" fill="#39ff14" />
<rect x="8" y="15" width="1" height="1" fill="#39ff14" />
<rect x="14" y="15" width="1" height="1" fill="#39ff14" />
<rect x="15" y="15" width="1" height="1" fill="#39ff14" />
<rect x="16" y="15" width="1" height="1" fill="#39ff14" />
<rect x="20" y="15" width="1" height="1" fill="#39ff14" />
<rect x="21" y="15" width="1" height="1" fill="#39ff14" />
<rect x="22" y="15" width="1" height="1" fill="#39ff14" />
<rect x="43" y="15" width="1" height="1" fill="#39ff14" />
<rect x="44" y="15" width="1" height="1" fill="#39ff14" />
<rect x="45" y="15" width="1" height="1" fill="#39ff14" />
<rect x="49" y="15" width="1" height="1" fill="#39ff14" />
<rect x="50" y="15" width="1" height="1" fill="#39ff14" />
<rect x="51" y="15" width="1" height="1" fill="#39ff14" />
<rect x="57" y="15" width="1" height="1" fill="#39ff14" />
<rect x="58" y="15" width="1" height="1" fill="#39ff14" />
<rect x="61" y="15" width="1" height="1" fill="#39ff14" />
<rect x="5" y="16" width="1" height="1" fill="#39ff14" />
<rect x="6" y="16" width="1" height="1" fill="#39ff14" />
<rect x="11" y="16" width="1" height="1" fill="#39ff14" />
<rect x="25" y="16" width="1" height="1" fill="#39ff14" />
<rect x="26" y="16" width="1" height="1" fill="#39ff14" />
<rect x="39" y="16" width="1" height="1" fill="#39ff14" />
<rect x="40" y="16" width="1" height="1" fill="#39ff14" />
<rect x="54" y="16" width="1" height="1" fill="#39ff14" />
<rect x="59" y="16" width="1" height="1" fill="#39ff14" />
<rect x="60" y="16" width="1" height="1" fill="#39ff14" />
<rect x="7" y="17" width="1" height="1" fill="#39ff14" />
<rect x="8" y="17" width="1" height="1" fill="#39ff14" />
<rect x="9" y="17" width="1" height="1" fill="#39ff14" />
<rect x="10" y="17" width="1" height="1" fill="#39ff14" />
<rect x="11" y="17" width="1" height="1" fill="#39ff14" />
<rect x="25" y="17" width="1" height="1" fill="#39ff14" />
<rect x="27" y="17" width="1" height="1" fill="#39ff14" />
<rect x="38" y="17" width="1" height="1" fill="#39ff14" />
<rect x="40" y="17" width="1" height="1" fill="#39ff14" />
<rect x="54" y="17" width="1" height="1" fill="#39ff14" />
<rect x="55" y="17" width="1" height="1" fill="#39ff14" />
<rect x="56" y="17" width="1" height="1" fill="#39ff14" />
<rect x="57" y="17" width="1" height="1" fill="#39ff14" />
<rect x="58" y="17" width="1" height="1" fill="#39ff14" />
<rect x="7" y="18" width="1" height="1" fill="#39ff14" />
<rect x="12" y="18" width="1" height="1" fill="#39ff14" />
<rect x="13" y="18" width="1" height="1" fill="#39ff14" />
<rect x="27" y="18" width="1" height="1" fill="#39ff14" />
<rect x="38" y="18" width="1" height="1" fill="#39ff14" />
<rect x="52" y="18" width="1" height="1" fill="#39ff14" />
<rect x="53" y="18" width="1" height="1" fill="#39ff14" />
<rect x="58" y="18" width="1" height="1" fill="#39ff14" />
<rect x="8" y="19" width="1" height="1" fill="#39ff14" />
<rect x="9" y="19" width="1" height="1" fill="#39ff14" />
<rect x="12" y="19" width="1" height="1" fill="#39ff14" />
<rect x="20" y="19" width="1" height="1" fill="#39ff14" />
<rect x="21" y="19" width="1" height="1" fill="#39ff14" />
<rect x="27" y="19" width="1" height="1" fill="#39ff14" />
<rect x="28" y="19" width="1" height="1" fill="#39ff14" />
<rect x="37" y="19" width="1" height="1" fill="#39ff14" />
<rect x="38" y="19" width="1" height="1" fill="#39ff14" />
<rect x="44" y="19" width="1" height="1" fill="#39ff14" />
<rect x="45" y="19" width="1" height="1" fill="#39ff14" />
<rect x="53" y="19" width="1" height="1" fill="#39ff14" />
<rect x="56" y="19" width="1" height="1" fill="#39ff14" />
<rect x="57" y="19" width="1" height="1" fill="#39ff14" />
<rect x="10" y="20" width="1" height="1" fill="#39ff14" />
<rect x="12" y="20" width="1" height="1" fill="#39ff14" />
<rect x="20" y="20" width="1" height="1" fill="#39ff14" />
<rect x="21" y="20" width="1" height="1" fill="#39ff14" />
<rect x="44" y="20" width="1" height="1" fill="#39ff14" />
<rect x="45" y="20" width="1" height="1" fill="#39ff14" />
<rect x="53" y="20" width="1" height="1" fill="#39ff14" />
<rect x="55" y="20" width="1" height="1" fill="#39ff14" />
<rect x="10" y="21" width="1" height="1" fill="#39ff14" />
<rect x="12" y="21" width="1" height="1" fill="#39ff14" />
<rect x="14" y="21" width="1" height="1" fill="#39ff14" />
<rect x="17" y="21" width="1" height="1" fill="#39ff14" />
<rect x="48" y="21" width="1" height="1" fill="#39ff14" />
<rect x="51" y="21" width="1" height="1" fill="#39ff14" />
<rect x="53" y="21" width="1" height="1" fill="#39ff14" />
<rect x="55" y="21" width="1" height="1" fill="#39ff14" />
<rect x="11" y="22" width="1" height="1" fill="#39ff14" />
<rect x="12" y="22" width="1" height="1" fill="#39ff14" />
<rect x="14" y="22" width="1" height="1" fill="#39ff14" />
<rect x="15" y="22" width="1" height="1" fill="#39ff14" />
<rect x="16" y="22" width="1" height="1" fill="#39ff14" />
<rect x="17" y="22" width="1" height="1" fill="#39ff14" />
<rect x="48" y="22" width="1" height="1" fill="#39ff14" />
<rect x="49" y="22" width="1" height="1" fill="#39ff14" />
<rect x="50" y="22" width="1" height="1" fill="#39ff14" />
<rect x="51" y="22" width="1" height="1" fill="#39ff14" />
<rect x="53" y="22" width="1" height="1" fill="#39ff14" />
<rect x="54" y="22" width="1" height="1" fill="#39ff14" />
<rect x="13" y="23" width="1" height="1" fill="#39ff14" />
<rect x="52" y="23" width="1" height="1" fill="#39ff14" />
<rect x="13" y="24" width="1" height="1" fill="#39ff14" />
<rect x="15" y="24" width="1" height="1" fill="#39ff14" />
<rect x="50" y="24" width="1" height="1" fill="#39ff14" />
<rect x="52" y="24" width="1" height="1" fill="#39ff14" />
<rect x="14" y="25" width="1" height="1" fill="#39ff14" />
<rect x="15" y="25" width="1" height="1" fill="#39ff14" />
<rect x="50" y="25" width="1" height="1" fill="#39ff14" />
<rect x="51" y="25" width="1" height="1" fill="#39ff14" />
</svg>