<?xml version="1.0" encoding="utf-8"?>
<svg xmlns="http://www.w3.org/2000/svg" width="56" height="48" viewBox="0 0 56 48">
<rect width="100%" height="100%" fill="transparent" />
<rect x="19" y="4" width="1" height="1" fill="#39ff14" />
<rect x="22" y="4" width="1" height="1" fill="#39ff14" />
<rect x="25" y="4" width="1" height="1" fill="#39ff14" />
<rect x="19" y="5" width="1" height="1" fill="#39ff14" />
<rect x="20" y="5" width="1" height="1" fill="#39ff14" />
<rect x="21" y="5" width="1" height="1" fill="#39ff14" />
<rect x="22" y="5" width="1" height="1" fill="#39ff14" />
<rect x="23" y="5" width="1" height="1" fill="#39ff14" />
<rect x="24" y="5" width="1" height="1" fill="#39ff14" />
<rect x="25" y="5" width="1" height="1" fill="#39ff14" />
<rect x="19" y="7" width="1" height="1" fill="#39ff14" />
<rect x="20" y="7" width="1" height="1" fill="#39ff14" />
<rect x="21" y="7" width="1" height="1" fill="#39ff14" />
<rect x="22" y="7" width="1" height="1" fill="#39ff14" />
<rect x="23" y="7" width="1" height="1" fill="#39ff14" />
<rect x="24" y="7" width="1" height="1" fill="#39ff14" />
<rect x="25" y="7" width="1" height="1" fill="#39ff14" />
<rect x="19" y="8" width="1" height="1" fill="#39ff14" />
<rect x="22" y="8" width="1" height="1" fill="#39ff14" />
<rect x="25" y="8" width="1" height="1" fill="#39ff14" />
<rect x="20" y="14" width="1" height="1" fill="#39ff14" />
<rect x="23" y="14" width="1" height="1" fill="#39ff14" />
<rect x="16" y="15" width="1" height="1" fill="#39ff14" />
<rect x="17" y="15" width="1" height="1" fill="#39ff14" />
<rect x="20" y="15" width="1" height="1" fill="#39ff14" />
<rect x="23" y="15" width="1" height="1" fill="#39ff14" />
<rect x="16" y="16" width="1" height="1" fill="#39ff14" />
<rect x="17" y="16" width="1" height="1" fill="#39ff14" />
<rect x="20" y="16" width="1" height="1" fill="#39ff14" />
<rect x="23" y="16" width="1" height="1" fill="#39ff14" />
<rect x="31" y="16" width="1" height="1" fill="#39ff14" />
<rect x="32" y="16" width="1" height="1" fill="#39ff14" />
<rect x="31" y="17" width="1" height="1" fill="#39ff14" />
<rect x="32" y="17" width="1" height="1" fill="#39ff14" />
<rect x="37" y="17" width="1" height="1" fill="#39ff14" />
<rect x="38" y="17" width="1" height="1" fill="#39ff14" />
<rect x="42" y="17" width="1" height="1" fill="#39ff14" />
<rect x="45" y="17" width="1" height="1" fill="#39ff14" />
<rect x="49" y="17" width="1" height="1" fill="#39ff14" />
<rect x="50" y="17" width="1" height="1" fill="#39ff14" />
<rect x="37" y="18" width="1" height="1" fill="#39ff14" />
<rect x="38" y="18" width="1" height="1" fill="#39ff14" />
<rect x="39" y="18" width="1" height="1" fill="#39ff14" />
<rect x="40" y="18" width="1" height="1" fill="#39ff14" />
<rect x="41" y="18" width="1" height="1" fill="#39ff14" />
<rect x="46" y="18" width="1" height="1" fill="#39ff14" />
<rect x="47" y="18" width="1" height="1" fill="#39ff14" />
<rect x="48" y="18" width="1" height="1" fill="#39ff14" />
<rect x="49" y="18" width="1" height="1" fill="#39ff14" />
<rect x="50" y="18" width="1" height="1" fill="#39ff14" />
<rect x="37" y="19" width="1" height="1" fill="#39ff14" />
<rect x="38" y="19" width="1" height="1" fill="#39ff14" />
<rect x="42" y="19" width="1" height="1" fill="#39ff14" />
<rect x="45" y="19" width="1" height="1" fill="#39ff14" />
<rect x="49" y="19" width="1" height="1" fill="#39ff14" />
<rect x="50" y="19" width="1" height="1" fill="#39ff14" />
<rect x="31" y="20" width="1" height="1" fill="#39ff14" />
<rect x="32" y="20" width="1" height="1" fill="#39ff14" />
<rect x="33" y="20" width="1" height="1" fill="#39ff14" />
<rect x="4" y="22" width="1" height="1" fill="#39ff14" />
<rect x="5" y="22" width="1" height="1" fill="#39ff14" />
<rect x="7" y="22" width="1" height="1" fill="#39ff14" />
<rect x="8" y="22" width="1" height="1" fill="#39ff14" />
<rect x="5" y="23" width="1" height="1" fill="#39ff14" />
<rect x="7" y="23" width="1" height="1" fill="#39ff14" />
<rect x="31" y="23" width="1" height="1" fill="#39ff14" />
<rect x="32" y="23" width="1" height="1" fill="#39ff14" />
<rect x="33" y="23" width="1" height="1" fill="#39ff14" />
<rect x="5" y="24" width="1" height="1" fill="#39ff14" />
<rect x="7" y="24" width="1" height="1" fill="#39ff14" />
<rect x="14" y="24" width="1" height="1" fill="#39ff14" />
<rect x="15" y="24" width="1" height="1" fill="#39ff14" />
<rect x="16" y="24" width="1" height="1" fill="#39ff14" />
<rect x="4" y="25" width="1" height="1" fill="#39ff14" />
<rect x="5" y="25" width="1" height="1" fill="#39ff14" />
<rect x="7" y="25" width="1" height="1" fill="#39ff14" />
<rect x="8" y="25" width="1" height="1" fill="#39ff14" />
<rect x="38" y="25" width="1" height="1" fill="#39ff14" />
<rect x="40" y="25" width="1" height="1" fill="#39ff14" />
<rect x="5" y="26" width="1" height="1" fill="#39ff14" />
<rect x="7" y="26" width="1" height="1" fill="#39ff14" />
<rect x="39" y="26" width="1" height="1" fill="#39ff14" />
<rect x="40" y="26" width="1" height="1" fill="#39ff14" />
<rect x="5" y="27" width="1" height="1" fill="#39ff14" />
<rect x="7" y="27" width="1" height="1" fill="#39ff14" />
<rect x="14" y="27" width="1" height="1" fill="#39ff14" />
<rect x="15" y="27" width="1" height="1" fill="#39ff14" />
<rect x="16" y="27" width="1" height="1" fill="#39ff14" />
<rect x="39" y="27" width="1" height="1" fill="#39ff14" />
<rect x="4" y="28" width="1" height="1" fill="#39ff14" />
<rect x="5" y="28" width="1" height="1" fill="#39ff14" />
<rect x="7" y="28" width="1" height="1" fill="#39ff14" />
<rect x="8" y="28" width="1" height="1" fill="#39ff14" />
<rect x="15" y="30" width="1" height="1" fill="#39ff14" />
<rect x="16" y="30" width="1" height="1" fill="#39ff14" />
<rect x="15" y="31" width="1" height="1" fill="#39ff14" />
<rect x="16" y="31" width="1" height="1" fill="#39ff14" />
<rect x="24" y="31" width="1" height="1" fill="#39ff14" />
<rect x="27" y="31" width="1" height="1" fill="#39ff14" />
<rect x="30" y="31" width="1" height="1" fill="#39ff14" />
<rect x="31" y="31" width="1" height="1" fill="#39ff14" />
<rect x="24" y="32" width="1" height="1" fill="#39ff14" />
<rect x="27" y="32" width="1" height="1" fill="#39ff14" />
<rect x="30" y="32" width="1" height="1" fill="#39ff14" />
<rect x="31" y="32" width="1" height="1" fill="#39ff14" />
<rect x="24" y="33" width="1" height="1" fill="#39ff14" />
<rect x="27" y="33" width="1" height="1" fill="#39ff14" />
<rect x="51" y="36" width="1" height="1" fill="#39ff14" />
<rect x="49" y="37" width="1" height="1" fill="#39ff14" />
<rect x="51" y="37" width="1" height="1" fill="#39ff14" />
<rect x="50" y="38" width="1" height="1" fill="#39ff14" />
<rect x="51" y="38" width="1" height="1" fill="#39ff14" />
<rect x="22" y="39" width="1" height="1" fill="#39ff14" />
<rect x="25" y="39" width="1" height="1" fill="#39ff14" />
<rect x="28" y="39" width="1" height="1" fill="#39ff14" />
<rect x="22" y="40" width="1" height="1" fill="#39ff14" />
<rect x="23" y="40" width="1" height="1" fill="#39ff14" />
<rect x="24" y="40" width="1" height="1" fill="#39ff14" />
<rect x="25" y="40" width="1" height="1" fill="#39ff14" />
<rect x="26" y="40" width="1" height="1" fill="#39ff14" />
<rect x="27" y="40" width="1" height="1" fill="#39ff14" />
<rect x="28" y="40" width="1" height="1" fill="#39ff14" />
<rect x="22" y="42" width="1" height="1" fill="#39ff14" />
<rect x="23" y="42" width="1" height="1" fill="#39ff14" />
<rect x="24" y="42" width="1" height="1" fill="#39ff14" />
<rect x="25" y="42" width="1" height="1" fill="#39ff14" />
<rect x="26" y="42" width="1" height="1" fill="#39ff14" />
<rect x="27" y="42" width="1" height="1" fill="#39ff14" />
<rect x="28" y="42" width="1" height="1" fill="#39ff14" />
<rect x="22" y="43" width="1" height="1" fill="#39ff14" />
<rect x="25" y="43" width="1" height="1" fill="#39ff14" />
<rect x="28" y="43" width="1" height="1" fill="#39ff14" />
</svg>