<?xml version="1.0" encoding="utf-8"?>
<svg xmlns="http://www.w3.org/2000/svg" width="83" height="65" viewBox="0 0 83 65">
<rect width="100%" height="100%" fill="transparent" />
<rect x="73" y="4" width="3" height="3" fill="#39ff14" />
<rect x="70" y="7" width="3" height="3" fill="#39ff14" />
<rect x="70" y="10" width="3" height="3" fill="#39ff14" />
<rect x="73" y="10" width="3" height="3" fill="#39ff14" />
<rect x="76" y="10" width="3" height="3" fill="#39ff14" />
<rect x="13" y="13" width="3" height="3" fill="#39ff14" />
<rect x="16" y="13" width="3" height="3" fill="#39ff14" />
<rect x="13" y="16" width="3" height="3" fill="#39ff14" />
<rect x="19" y="19" width="3" height="3" fill="#39ff14" />
<rect x="16" y="22" width="3" height="3" fill="#39ff14" />
<rect x="19" y="22" width="3" height="3" fill="#39ff14" />
<rect x="22" y="22" width="3" height="3" fill="#39ff14" />
<rect x="25" y="22" width="3" height="3" fill="#39ff14" />
<rect x="55" y="22" width="3" height="3" fill="#39ff14" />
<rect x="13" y="25" width="3" height="3" fill="#39ff14" />
<rect x="28" y="25" width="3" height="3" fill="#39ff14" />
<rect x="52" y="25" width="3" height="3" fill="#39ff14" />
<rect x="13" y="28" width="3" height="3" fill="#39ff14" />
<rect x="16" y="28" width="3" height="3" fill="#39ff14" />
<rect x="19" y="28" width="3" height="3" fill="#39ff14" />
<rect x="22" y="28" width="3" height="3" fill="#39ff14" />
<rect x="25" y="28" width="3" height="3" fill="#39ff14" />
<rect x="31" y="28" width="3" height="3" fill="#39ff14" />
<rect x="52" y="28" width="3" height="3" fill="#39ff14" />
<rect x="55" y="28" width="3" height="3" fill="#39ff14" />
<rect x="58" y="28" width="3" height="3" fill="#39ff14" />
<rect x="7" y="31" width="3" height="3" fill="#39ff14" />
<rect x="10" y="31" width="3" height="3" fill="#39ff14" />
<rect x="25" y="31" width="3" height="3" fill="#39ff14" />
<rect x="31" y="31" width="3" height="3" fill="#39ff14" />
<rect x="4" y="34" width="3" height="3" fill="#39ff14" />
<rect x="13" y="34" width="3" height="3" fill="#39ff14" />
<rect x="31" y="34" width="3" height="3" fill="#39ff14" />
<rect x="34" y="34" width="3" height="3" fill="#39ff14" />
<rect x="64" y="34" width="3" height="3" fill="#39ff14" />
<rect x="67" y="34" width="3" height="3" fill="#39ff14" />
<rect x="4" y="37" width="3" height="3" fill="#39ff14" />
<rect x="7" y="37" width="3" height="3" fill="#39ff14" />
<rect x="13" y="37" width="3" height="3" fill="#39ff14" />
<rect x="19" y="37" width="3" height="3" fill="#39ff14" />
<rect x="25" y="37" width="3" height="3" fill="#39ff14" />
<rect x="34" y="37" width="3" height="3" fill="#39ff14" />
<rect x="52" y="37" width="3" height="3" fill="#39ff14" />
<rect x="55" y="37" width="3" height="3" fill="#39ff14" />
<rect x="64" y="37" width="3" height="3" fill="#39ff14" />
<rect x="67" y="37" width="3" height="3" fill="#39ff14" />
<rect x="13" y="40" width="3" height="3" fill="#39ff14" />
<rect x="22" y="40" width="3" height="3" fill="#39ff14" />
<rect x="28" y="40" width="3" height="3" fill="#39ff14" />
<rect x="31" y="40" width="3" height="3" fill="#39ff14" />
<rect x="34" y="40" width="3" height="3" fill="#39ff14" />
<rect x="49" y="40" width="3" height="3" fill="#39ff14" />
<rect x="55" y="40" width="3" height="3" fill="#39ff14" />
<rect x="13" y="43" width="3" height="3" fill="#39ff14" />
<rect x="16" y="43" width="3" height="3" fill="#39ff14" />
<rect x="22" y="43" width="3" height="3" fill="#39ff14" />
<rect x="34" y="43" width="3" height="3" fill="#39ff14" />
<rect x="52" y="43" width="3" height="3" fill="#39ff14" />
<rect x="19" y="46" width="3" height="3" fill="#39ff14" />
<rect x="25" y="46" width="3" height="3" fill="#39ff14" />
<rect x="31" y="46" width="3" height="3" fill="#39ff14" />
<rect x="34" y="46" width="3" height="3" fill="#39ff14" />
<rect x="19" y="49" width="3" height="3" fill="#39ff14" />
<rect x="25" y="49" width="3" height="3" fill="#39ff14" />
<rect x="31" y="49" width="3" height="3" fill="#39ff14" />
<rect x="58" y="49" width="3" height="3" fill="#39ff14" />
<rect x="61" y="49" width="3" height="3" fill="#39ff14" />
<rect x="22" y="52" width="3" height="3" fill="#39ff14" />
<rect x="31" y="52" width="3" height="3" fill="#39ff14" />
<rect x="58" y="52" width="3" height="3" fill="#39ff14" />
<rect x="25" y="55" width="3" height="3" fill="#39ff14" />
<rect x="28" y="55" width="3" height="3" fill="#39ff14" />
<rect x="61" y="55" width="3" height="3" fill="#39ff14" />
<rect x="64" y="55" width="3" height="3" fill="#39ff14" />
<rect x="67" y="55" width="3" height="3" fill="#39ff14" />
<rect x="67" y="58" width="3" height="3" fill="#39ff14" />
</svg>