<?xml version="1.0" encoding="utf-8"?>
<svg xmlns="http://www.w3.org/2000/svg" width="86" height="74" viewBox="0 0 86 74">
<rect width="100%" height="100%" fill="transparent" />
<rect x="73" y="4" width="3" height="3" fill="#39ff14" />
<rect x="73" y="7" width="3" height="3" fill="#39ff14" />
<rect x="79" y="7" width="3" height="3" fill="#39ff14" />
<rect x="73" y="10" width="3" height="3" fill="#39ff14" />
<rect x="76" y="10" width="3" height="3" fill="#39ff14" />
<rect x="46" y="31" width="3" height="3" fill="#39ff14" />
<rect x="46" y="34" width="3" height="3" fill="#39ff14" />
<rect x="52" y="34" width="3" height="3" fill="#39ff14" />
<rect x="46" y="37" width="3" height="3" fill="#39ff14" />
<rect x="49" y="37" width="3" height="3" fill="#39ff14" />
<rect x="40" y="43" width="3" height="3" fill="#39ff14" />
<rect x="43" y="43" width="3" height="3" fill="#39ff14" />
<rect x="19" y="46" width="3" height="3" fill="#39ff14" />
<rect x="22" y="46" width="3" height="3" fill="#39ff14" />
<rect x="37" y="46" width="3" height="3" fill="#39ff14" />
<rect x="46" y="46" width="3" height="3" fill="#39ff14" />
<rect x="19" y="49" width="3" height="3" fill="#39ff14" />
<rect x="22" y="49" width="3" height="3" fill="#39ff14" />
<rect x="40" y="49" width="3" height="3" fill="#39ff14" />
<rect x="46" y="49" width="3" height="3" fill="#39ff14" />
<rect x="43" y="52" width="3" height="3" fill="#39ff14" />
<rect x="19" y="58" width="3" height="3" fill="#39ff14" />
<rect x="22" y="58" width="3" height="3" fill="#39ff14" />
<rect x="25" y="58" width="3" height="3" fill="#39ff14" />
<rect x="55" y="58" width="3" height="3" fill="#39ff14" />
<rect x="58" y="58" width="3" height="3" fill="#39ff14" />
<rect x="4" y="61" width="3" height="3" fill="#39ff14" />
<rect x="7" y="61" width="3" height="3" fill="#39ff14" />
<rect x="16" y="61" width="3" height="3" fill="#39ff14" />
<rect x="22" y="61" width="3" height="3" fill="#39ff14" />
<rect x="25" y="61" width="3" height="3" fill="#39ff14" />
<rect x="55" y="61" width="3" height="3" fill="#39ff14" />
<rect x="4" y="64" width="3" height="3" fill="#39ff14" />
<rect x="7" y="64" width="3" height="3" fill="#39ff14" />
<rect x="16" y="64" width="3" height="3" fill="#39ff14" />
<rect x="19" y="64" width="3" height="3" fill="#39ff14" />
<rect x="58" y="64" width="3" height="3" fill="#39ff14" />
<rect x="61" y="64" width="3" height="3" fill="#39ff14" />
<rect x="64" y="64" width="3" height="3" fill="#39ff14" />
<rect x="16" y="67" width="3" height="3" fill="#39ff14" />
<rect x="19" y="67" width="3" height="3" fill="#39ff14" />
<rect x="64" y="67" width="3" height="3" fill="#39ff14" />
</svg>