<?xml version="1.0" encoding="utf-8"?>
<svg xmlns="http://www.w3.org/2000/svg" width="83" height="20" viewBox="0 0 83 20">
<rect width="100%" height="100%" fill="transparent" />
<rect x="40" y="4" width="3" height="3" fill="#39ff14" />
<rect x="37" y="7" width="3" height="3" fill="#39ff14" />
<rect x="43" y="7" width="3" height="3" fill="#39ff14" />
<rect x="4" y="10" width="3" height="3" fill="#39ff14" />
<rect x="7" y="10" width="3" height="3" fill="#39ff14" />
<rect x="34" y="10" width="3" height="3" fill="#39ff14" />
<rect x="37" y="10" width="3" height="3" fill="#39ff14" />
<rect x="43" y="10" width="3" height="3" fill="#39ff14" />
<rect x="46" y="10" width="3" height="3" fill="#39ff14" />
<rect x="73" y="10" width="3" height="3" fill="#39ff14" />
<rect x="76" y="10" width="3" height="3" fill="#39ff14" />
<rect x="4" y="13" width="3" height="3" fill="#39ff14" />
<rect x="7" y="13" width="3" height="3" fill="#39ff14" />
<rect x="73" y="13" width="3" height="3" fill="#39ff14" />
<rect x="76" y="13" width="3" height="3" fill="#39ff14" />
</svg>