<?xml version="1.0" encoding="utf-8"?>
<svg xmlns="http://www.w3.org/2000/svg" width="72" height="72" viewBox="0 0 72 72">
<rect width="100%" height="100%" fill="transparent" />
<rect x="46" y="4" width="2" height="2" fill="#39ff14" />
<rect x="46" y="6" width="2" height="2" fill="#39ff14" />
<rect x="46" y="8" width="2" height="2" fill="#39ff14" />
<rect x="48" y="8" width="2" height="2" fill="#39ff14" />
<rect x="50" y="8" width="2" height="2" fill="#39ff14" />
<rect x="30" y="10" width="2" height="2" fill="#39ff14" />
<rect x="32" y="10" width="2" height="2" fill="#39ff14" />
<rect x="48" y="10" width="2" height="2" fill="#39ff14" />
<rect x="50" y="10" width="2" height="2" fill="#39ff14" />
<rect x="30" y="12" width="2" height="2" fill="#39ff14" />
<rect x="32" y="12" width="2" height="2" fill="#39ff14" />
<rect x="38" y="12" width="2" height="2" fill="#39ff14" />
<rect x="40" y="12" width="2" height="2" fill="#39ff14" />
<rect x="42" y="12" width="2" height="2" fill="#39ff14" />
<rect x="48" y="12" width="2" height="2" fill="#39ff14" />
<rect x="50" y="12" width="2" height="2" fill="#39ff14" />
<rect x="42" y="14" width="2" height="2" fill="#39ff14" />
<rect x="44" y="14" width="2" height="2" fill="#39ff14" />
<rect x="46" y="14" width="2" height="2" fill="#39ff14" />
<rect x="42" y="16" width="2" height="2" fill="#39ff14" />
<rect x="44" y="16" width="2" height="2" fill="#39ff14" />
<rect x="46" y="16" width="2" height="2" fill="#39ff14" />
<rect x="32" y="18" width="2" height="2" fill="#39ff14" />
<rect x="34" y="18" width="2" height="2" fill="#39ff14" />
<rect x="8" y="20" width="2" height="2" fill="#39ff14" />
<rect x="10" y="20" width="2" height="2" fill="#39ff14" />
<rect x="12" y="20" width="2" height="2" fill="#39ff14" />
<rect x="30" y="20" width="2" height="2" fill="#39ff14" />
<rect x="36" y="20" width="2" height="2" fill="#39ff14" />
<rect x="8" y="22" width="2" height="2" fill="#39ff14" />
<rect x="10" y="22" width="2" height="2" fill="#39ff14" />
<rect x="12" y="22" width="2" height="2" fill="#39ff14" />
<rect x="30" y="22" width="2" height="2" fill="#39ff14" />
<rect x="34" y="22" width="2" height="2" fill="#39ff14" />
<rect x="4" y="24" width="2" height="2" fill="#39ff14" />
<rect x="6" y="24" width="2" height="2" fill="#39ff14" />
<rect x="8" y="24" width="2" height="2" fill="#39ff14" />
<rect x="14" y="24" width="2" height="2" fill="#39ff14" />
<rect x="16" y="24" width="2" height="2" fill="#39ff14" />
<rect x="24" y="24" width="2" height="2" fill="#39ff14" />
<rect x="32" y="24" width="2" height="2" fill="#39ff14" />
<rect x="42" y="24" width="2" height="2" fill="#39ff14" />
<rect x="44" y="24" width="2" height="2" fill="#39ff14" />
<rect x="46" y="24" width="2" height="2" fill="#39ff14" />
<rect x="14" y="26" width="2" height="2" fill="#39ff14" />
<rect x="16" y="26" width="2" height="2" fill="#39ff14" />
<rect x="24" y="26" width="2" height="2" fill="#39ff14" />
<rect x="12" y="28" width="2" height="2" fill="#39ff14" />
<rect x="14" y="28" width="2" height="2" fill="#39ff14" />
<rect x="16" y="28" width="2" height="2" fill="#39ff14" />
<rect x="24" y="28" width="2" height="2" fill="#39ff14" />
<rect x="12" y="30" width="2" height="2" fill="#39ff14" />
<rect x="48" y="30" width="2" height="2" fill="#39ff14" />
<rect x="50" y="30" width="2" height="2" fill="#39ff14" />
<rect x="58" y="30" width="2" height="2" fill="#39ff14" />
<rect x="60" y="30" width="2" height="2" fill="#39ff14" />
<rect x="12" y="32" width="2" height="2" fill="#39ff14" />
<rect x="36" y="32" width="2" height="2" fill="#39ff14" />
<rect x="38" y="32" width="2" height="2" fill="#39ff14" />
<rect x="40" y="32" width="2" height="2" fill="#39ff14" />
<rect x="46" y="32" width="2" height="2" fill="#39ff14" />
<rect x="52" y="32" width="2" height="2" fill="#39ff14" />
<rect x="58" y="32" width="2" height="2" fill="#39ff14" />
<rect x="60" y="32" width="2" height="2" fill="#39ff14" />
<rect x="20" y="34" width="2" height="2" fill="#39ff14" />
<rect x="36" y="34" width="2" height="2" fill="#39ff14" />
<rect x="40" y="34" width="2" height="2" fill="#39ff14" />
<rect x="48" y="34" width="2" height="2" fill="#39ff14" />
<rect x="52" y="34" width="2" height="2" fill="#39ff14" />
<rect x="18" y="36" width="2" height="2" fill="#39ff14" />
<rect x="22" y="36" width="2" height="2" fill="#39ff14" />
<rect x="36" y="36" width="2" height="2" fill="#39ff14" />
<rect x="40" y="36" width="2" height="2" fill="#39ff14" />
<rect x="50" y="36" width="2" height="2" fill="#39ff14" />
<rect x="10" y="38" width="2" height="2" fill="#39ff14" />
<rect x="12" y="38" width="2" height="2" fill="#39ff14" />
<rect x="18" y="38" width="2" height="2" fill="#39ff14" />
<rect x="24" y="38" width="2" height="2" fill="#39ff14" />
<rect x="58" y="38" width="2" height="2" fill="#39ff14" />
<rect x="10" y="40" width="2" height="2" fill="#39ff14" />
<rect x="12" y="40" width="2" height="2" fill="#39ff14" />
<rect x="20" y="40" width="2" height="2" fill="#39ff14" />
<rect x="22" y="40" width="2" height="2" fill="#39ff14" />
<rect x="58" y="40" width="2" height="2" fill="#39ff14" />
<rect x="46" y="42" width="2" height="2" fill="#39ff14" />
<rect x="54" y="42" width="2" height="2" fill="#39ff14" />
<rect x="56" y="42" width="2" height="2" fill="#39ff14" />
<rect x="58" y="42" width="2" height="2" fill="#39ff14" />
<rect x="46" y="44" width="2" height="2" fill="#39ff14" />
<rect x="54" y="44" width="2" height="2" fill="#39ff14" />
<rect x="56" y="44" width="2" height="2" fill="#39ff14" />
<rect x="24" y="46" width="2" height="2" fill="#39ff14" />
<rect x="26" y="46" width="2" height="2" fill="#39ff14" />
<rect x="28" y="46" width="2" height="2" fill="#39ff14" />
<rect x="46" y="46" width="2" height="2" fill="#39ff14" />
<rect x="54" y="46" width="2" height="2" fill="#39ff14" />
<rect x="56" y="46" width="2" height="2" fill="#39ff14" />
<rect x="62" y="46" width="2" height="2" fill="#39ff14" />
<rect x="64" y="46" width="2" height="2" fill="#39ff14" />
<rect x="66" y="46" width="2" height="2" fill="#39ff14" />
<rect x="38" y="48" width="2" height="2" fill="#39ff14" />
<rect x="40" y="48" width="2" height="2" fill="#39ff14" />
<rect x="58" y="48" width="2" height="2" fill="#39ff14" />
<rect x="60" y="48" width="2" height="2" fill="#39ff14" />
<rect x="62" y="48" width="2" height="2" fill="#39ff14" />
<rect x="36" y="50" width="2" height="2" fill="#39ff14" />
<rect x="42" y="50" width="2" height="2" fill="#39ff14" />
<rect x="58" y="50" width="2" height="2" fill="#39ff14" />
<rect x="60" y="50" width="2" height="2" fill="#39ff14" />
<rect x="62" y="50" width="2" height="2" fill="#39ff14" />
<rect x="36" y="52" width="2" height="2" fill="#39ff14" />
<rect x="40" y="52" width="2" height="2" fill="#39ff14" />
<rect x="24" y="54" width="2" height="2" fill="#39ff14" />
<rect x="26" y="54" width="2" height="2" fill="#39ff14" />
<rect x="28" y="54" width="2" height="2" fill="#39ff14" />
<rect x="38" y="54" width="2" height="2" fill="#39ff14" />
<rect x="24" y="56" width="2" height="2" fill="#39ff14" />
<rect x="26" y="56" width="2" height="2" fill="#39ff14" />
<rect x="28" y="56" width="2" height="2" fill="#39ff14" />
<rect x="20" y="58" width="2" height="2" fill="#39ff14" />
<rect x="22" y="58" width="2" height="2" fill="#39ff14" />
<rect x="28" y="58" width="2" height="2" fill="#39ff14" />
<rect x="30" y="58" width="2" height="2" fill="#39ff14" />
<rect x="32" y="58" width="2" height="2" fill="#39ff14" />
<rect x="38" y="58" width="2" height="2" fill="#39ff14" />
<rect x="40" y="58" width="2" height="2" fill="#39ff14" />
<rect x="20" y="60" width="2" height="2" fill="#39ff14" />
<rect x="22" y="60" width="2" height="2" fill="#39ff14" />
<rect x="38" y="60" width="2" height="2" fill="#39ff14" />
<rect x="40" y="60" width="2" height="2" fill="#39ff14" />
<rect x="20" y="62" width="2" height="2" fill="#39ff14" />
<rect x="22" y="62" width="2" height="2" fill="#39ff14" />
<rect x="24" y="62" width="2" height="2" fill="#39ff14" />
<rect x="24" y="64" width="2" height="2" fill="#39ff14" />
<rect x="24" y="66" width="2" height="2" fill="#39ff14" />
</svg>