<?xml version="1.0" encoding="utf-8"?>
<svg xmlns="http://www.w3.org/2000/svg" width="86" height="74" viewBox="0 0 86 74">
<rect width="100%" height="100%" fill="transparent" />
<rect x="22" y="4" width="6" height="6" fill="#39ff14" />
<rect x="58" y="4" width="6" height="6" fill="#39ff14" />
<rect x="16" y="10" width="6" height="6" fill="#39ff14" />
<rect x="28" y="10" width="6" height="6" fill="#39ff14" />
<rect x="52" y="10" width="6" height="6" fill="#39ff14" />
<rect x="64" y="10" width="6" height="6" fill="#39ff14" />
<rect x="16" y="22" width="6" height="6" fill="#39ff14" />
<rect x="22" y="22" width="6" height="6" fill="#39ff14" />
<rect x="28" y="22" width="6" height="6" fill="#39ff14" />
<rect x="52" y="22" width="6" height="6" fill="#39ff14" />
<rect x="58" y="22" width="6" height="6" fill="#39ff14" />
<rect x="64" y="22" width="6" height="6" fill="#39ff14" />
<rect x="16" y="46" width="6" height="6" fill="#39ff14" />
<rect x="22" y="46" width="6" height="6" fill="#39ff14" />
<rect x="28" y="46" width="6" height="6" fill="#39ff14" />
<rect x="52" y="46" width="6" height="6" fill="#39ff14" />
<rect x="58" y="46" width="6" height="6" fill="#39ff14" />
<rect x="64" y="46" width="6" height="6" fill="#39ff14" />
<rect x="4" y="58" width="6" height="6" fill="#39ff14" />
<rect x="16" y="58" width="6" height="6" fill="#39ff14" />
<rect x="28" y="58" width="6" height="6" fill="#39ff14" />
<rect x="52" y="58" width="6" height="6" fill="#39ff14" />
<rect x="64" y="58" width="6" height="6" fill="#39ff14" />
<rect x="76" y="58" width="6" height="6" fill="#39ff14" />
<rect x="22" y="64" width="6" height="6" fill="#39ff14" />
<rect x="58" y="64" width="6" height="6" fill="#39ff14" />
</svg>