<?xml version="1.0" encoding="utf-8"?>
<svg xmlns="http://www.w3.org/2000/svg" width="89" height="35" viewBox="0 0 89 35">
<rect width="100%" height="100%" fill="transparent" />
<rect x="4" y="4" width="9" height="9" fill="#39ff14" />
<rect x="13" y="4" width="9" height="9" fill="#39ff14" />
<rect x="22" y="4" width="9" height="9" fill="#39ff14" />
<rect x="58" y="4" width="9" height="9" fill="#39ff14" />
<rect x="67" y="4" width="9" height="9" fill="#39ff14" />
<rect x="76" y="4" width="9" height="9" fill="#39ff14" />
<rect x="4" y="13" width="9" height="9" fill="#39ff14" />
<rect x="22" y="13" width="9" height="9" fill="#39ff14" />
<rect x="58" y="13" width="9" height="9" fill="#39ff14" />
<rect x="76" y="13" width="9" height="9" fill="#39ff14" />
<rect x="4" y="22" width="9" height="9" fill="#39ff14" />
<rect x="13" y="22" width="9" height="9" fill="#39ff14" />
<rect x="22" y="22" width="9" height="9" fill="#39ff14" />
<rect x="58" y="22" width="9" height="9" fill="#39ff14" />
<rect x="67" y="22" width="9" height="9" fill="#39ff14" />
<rect x="76" y="22" width="9" height="9" fill="#39ff14" />
</svg>