<?xml version="1.0" encoding="utf-8"?>
<svg xmlns="http://www.w3.org/2000/svg" width="74" height="58" viewBox="0 0 74 58">
<rect width="100%" height="100%" fill="transparent" />
<rect x="28" y="4" width="2" height="2" fill="#39ff14" />
<rect x="24" y="6" width="2" height="2" fill="#39ff14" />
<rect x="26" y="6" width="2" height="2" fill="#39ff14" />
<rect x="30" y="6" width="2" height="2" fill="#39ff14" />
<rect x="24" y="8" width="2" height="2" fill="#39ff14" />
<rect x="26" y="8" width="2" height="2" fill="#39ff14" />
<rect x="34" y="8" width="2" height="2" fill="#39ff14" />
<rect x="20" y="10" width="2" height="2" fill="#39ff14" />
<rect x="28" y="10" width="2" height="2" fill="#39ff14" />
<rect x="30" y="10" width="2" height="2" fill="#39ff14" />
<rect x="34" y="10" width="2" height="2" fill="#39ff14" />
<rect x="46" y="10" width="2" height="2" fill="#39ff14" />
<rect x="20" y="12" width="2" height="2" fill="#39ff14" />
<rect x="22" y="12" width="2" height="2" fill="#39ff14" />
<rect x="24" y="12" width="2" height="2" fill="#39ff14" />
<rect x="26" y="12" width="2" height="2" fill="#39ff14" />
<rect x="30" y="12" width="2" height="2" fill="#39ff14" />
<rect x="32" y="12" width="2" height="2" fill="#39ff14" />
<rect x="40" y="12" width="2" height="2" fill="#39ff14" />
<rect x="42" y="12" width="2" height="2" fill="#39ff14" />
<rect x="44" y="12" width="2" height="2" fill="#39ff14" />
<rect x="46" y="12" width="2" height="2" fill="#39ff14" />
<rect x="62" y="12" width="2" height="2" fill="#39ff14" />
<rect x="66" y="12" width="2" height="2" fill="#39ff14" />
<rect x="16" y="14" width="2" height="2" fill="#39ff14" />
<rect x="30" y="14" width="2" height="2" fill="#39ff14" />
<rect x="40" y="14" width="2" height="2" fill="#39ff14" />
<rect x="42" y="14" width="2" height="2" fill="#39ff14" />
<rect x="44" y="14" width="2" height="2" fill="#39ff14" />
<rect x="56" y="14" width="2" height="2" fill="#39ff14" />
<rect x="60" y="14" width="2" height="2" fill="#39ff14" />
<rect x="66" y="14" width="2" height="2" fill="#39ff14" />
<rect x="16" y="16" width="2" height="2" fill="#39ff14" />
<rect x="18" y="16" width="2" height="2" fill="#39ff14" />
<rect x="20" y="16" width="2" height="2" fill="#39ff14" />
<rect x="22" y="16" width="2" height="2" fill="#39ff14" />
<rect x="24" y="16" width="2" height="2" fill="#39ff14" />
<rect x="26" y="16" width="2" height="2" fill="#39ff14" />
<rect x="28" y="16" width="2" height="2" fill="#39ff14" />
<rect x="36" y="16" width="2" height="2" fill="#39ff14" />
<rect x="44" y="16" width="2" height="2" fill="#39ff14" />
<rect x="54" y="16" width="2" height="2" fill="#39ff14" />
<rect x="60" y="16" width="2" height="2" fill="#39ff14" />
<rect x="10" y="18" width="2" height="2" fill="#39ff14" />
<rect x="14" y="18" width="2" height="2" fill="#39ff14" />
<rect x="28" y="18" width="2" height="2" fill="#39ff14" />
<rect x="30" y="18" width="2" height="2" fill="#39ff14" />
<rect x="36" y="18" width="2" height="2" fill="#39ff14" />
<rect x="44" y="18" width="2" height="2" fill="#39ff14" />
<rect x="48" y="18" width="2" height="2" fill="#39ff14" />
<rect x="52" y="18" width="2" height="2" fill="#39ff14" />
<rect x="54" y="18" width="2" height="2" fill="#39ff14" />
<rect x="64" y="18" width="2" height="2" fill="#39ff14" />
<rect x="8" y="20" width="2" height="2" fill="#39ff14" />
<rect x="10" y="20" width="2" height="2" fill="#39ff14" />
<rect x="12" y="20" width="2" height="2" fill="#39ff14" />
<rect x="14" y="20" width="2" height="2" fill="#39ff14" />
<rect x="16" y="20" width="2" height="2" fill="#39ff14" />
<rect x="18" y="20" width="2" height="2" fill="#39ff14" />
<rect x="20" y="20" width="2" height="2" fill="#39ff14" />
<rect x="22" y="20" width="2" height="2" fill="#39ff14" />
<rect x="24" y="20" width="2" height="2" fill="#39ff14" />
<rect x="36" y="20" width="2" height="2" fill="#39ff14" />
<rect x="42" y="20" width="2" height="2" fill="#39ff14" />
<rect x="44" y="20" width="2" height="2" fill="#39ff14" />
<rect x="62" y="20" width="2" height="2" fill="#39ff14" />
<rect x="6" y="22" width="2" height="2" fill="#39ff14" />
<rect x="8" y="22" width="2" height="2" fill="#39ff14" />
<rect x="38" y="22" width="2" height="2" fill="#39ff14" />
<rect x="42" y="22" width="2" height="2" fill="#39ff14" />
<rect x="44" y="22" width="2" height="2" fill="#39ff14" />
<rect x="48" y="22" width="2" height="2" fill="#39ff14" />
<rect x="50" y="22" width="2" height="2" fill="#39ff14" />
<rect x="52" y="22" width="2" height="2" fill="#39ff14" />
<rect x="54" y="22" width="2" height="2" fill="#39ff14" />
<rect x="62" y="22" width="2" height="2" fill="#39ff14" />
<rect x="68" y="22" width="2" height="2" fill="#39ff14" />
<rect x="4" y="24" width="2" height="2" fill="#39ff14" />
<rect x="6" y="24" width="2" height="2" fill="#39ff14" />
<rect x="16" y="24" width="2" height="2" fill="#39ff14" />
<rect x="18" y="24" width="2" height="2" fill="#39ff14" />
<rect x="22" y="24" width="2" height="2" fill="#39ff14" />
<rect x="44" y="24" width="2" height="2" fill="#39ff14" />
<rect x="52" y="24" width="2" height="2" fill="#39ff14" />
<rect x="58" y="24" width="2" height="2" fill="#39ff14" />
<rect x="62" y="24" width="2" height="2" fill="#39ff14" />
<rect x="6" y="26" width="2" height="2" fill="#39ff14" />
<rect x="8" y="26" width="2" height="2" fill="#39ff14" />
<rect x="18" y="26" width="2" height="2" fill="#39ff14" />
<rect x="36" y="26" width="2" height="2" fill="#39ff14" />
<rect x="38" y="26" width="2" height="2" fill="#39ff14" />
<rect x="40" y="26" width="2" height="2" fill="#39ff14" />
<rect x="54" y="26" width="2" height="2" fill="#39ff14" />
<rect x="58" y="26" width="2" height="2" fill="#39ff14" />
<rect x="62" y="26" width="2" height="2" fill="#39ff14" />
<rect x="68" y="26" width="2" height="2" fill="#39ff14" />
<rect x="22" y="28" width="2" height="2" fill="#39ff14" />
<rect x="36" y="28" width="2" height="2" fill="#39ff14" />
<rect x="38" y="28" width="2" height="2" fill="#39ff14" />
<rect x="52" y="28" width="2" height="2" fill="#39ff14" />
<rect x="62" y="28" width="2" height="2" fill="#39ff14" />
<rect x="64" y="28" width="2" height="2" fill="#39ff14" />
<rect x="6" y="30" width="2" height="2" fill="#39ff14" />
<rect x="8" y="30" width="2" height="2" fill="#39ff14" />
<rect x="18" y="30" width="2" height="2" fill="#39ff14" />
<rect x="36" y="30" width="2" height="2" fill="#39ff14" />
<rect x="38" y="30" width="2" height="2" fill="#39ff14" />
<rect x="40" y="30" width="2" height="2" fill="#39ff14" />
<rect x="54" y="30" width="2" height="2" fill="#39ff14" />
<rect x="58" y="30" width="2" height="2" fill="#39ff14" />
<rect x="62" y="30" width="2" height="2" fill="#39ff14" />
<rect x="68" y="30" width="2" height="2" fill="#39ff14" />
<rect x="4" y="32" width="2" height="2" fill="#39ff14" />
<rect x="6" y="32" width="2" height="2" fill="#39ff14" />
<rect x="16" y="32" width="2" height="2" fill="#39ff14" />
<rect x="18" y="32" width="2" height="2" fill="#39ff14" />
<rect x="22" y="32" width="2" height="2" fill="#39ff14" />
<rect x="44" y="32" width="2" height="2" fill="#39ff14" />
<rect x="52" y="32" width="2" height="2" fill="#39ff14" />
<rect x="58" y="32" width="2" height="2" fill="#39ff14" />
<rect x="62" y="32" width="2" height="2" fill="#39ff14" />
<rect x="6" y="34" width="2" height="2" fill="#39ff14" />
<rect x="8" y="34" width="2" height="2" fill="#39ff14" />
<rect x="38" y="34" width="2" height="2" fill="#39ff14" />
<rect x="42" y="34" width="2" height="2" fill="#39ff14" />
<rect x="44" y="34" width="2" height="2" fill="#39ff14" />
<rect x="48" y="34" width="2" height="2" fill="#39ff14" />
<rect x="50" y="34" width="2" height="2" fill="#39ff14" />
<rect x="52" y="34" width="2" height="2" fill="#39ff14" />
<rect x="54" y="34" width="2" height="2" fill="#39ff14" />
<rect x="62" y="34" width="2" height="2" fill="#39ff14" />
<rect x="68" y="34" width="2" height="2" fill="#39ff14" />
<rect x="8" y="36" width="2" height="2" fill="#39ff14" />
<rect x="10" y="36" width="2" height="2" fill="#39ff14" />
<rect x="12" y="36" width="2" height="2" fill="#39ff14" />
<rect x="14" y="36" width="2" height="2" fill="#39ff14" />
<rect x="16" y="36" width="2" height="2" fill="#39ff14" />
<rect x="18" y="36" width="2" height="2" fill="#39ff14" />
<rect x="20" y="36" width="2" height="2" fill="#39ff14" />
<rect x="22" y="36" width="2" height="2" fill="#39ff14" />
<rect x="24" y="36" width="2" height="2" fill="#39ff14" />
<rect x="36" y="36" width="2" height="2" fill="#39ff14" />
<rect x="42" y="36" width="2" height="2" fill="#39ff14" />
<rect x="44" y="36" width="2" height="2" fill="#39ff14" />
<rect x="62" y="36" width="2" height="2" fill="#39ff14" />
<rect x="10" y="38" width="2" height="2" fill="#39ff14" />
<rect x="14" y="38" width="2" height="2" fill="#39ff14" />
<rect x="28" y="38" width="2" height="2" fill="#39ff14" />
<rect x="30" y="38" width="2" height="2" fill="#39ff14" />
<rect x="36" y="38" width="2" height="2" fill="#39ff14" />
<rect x="44" y="38" width="2" height="2" fill="#39ff14" />
<rect x="48" y="38" width="2" height="2" fill="#39ff14" />
<rect x="52" y="38" width="2" height="2" fill="#39ff14" />
<rect x="54" y="38" width="2" height="2" fill="#39ff14" />
<rect x="64" y="38" width="2" height="2" fill="#39ff14" />
<rect x="16" y="40" width="2" height="2" fill="#39ff14" />
<rect x="18" y="40" width="2" height="2" fill="#39ff14" />
<rect x="20" y="40" width="2" height="2" fill="#39ff14" />
<rect x="22" y="40" width="2" height="2" fill="#39ff14" />
<rect x="24" y="40" width="2" height="2" fill="#39ff14" />
<rect x="26" y="40" width="2" height="2" fill="#39ff14" />
<rect x="28" y="40" width="2" height="2" fill="#39ff14" />
<rect x="36" y="40" width="2" height="2" fill="#39ff14" />
<rect x="44" y="40" width="2" height="2" fill="#39ff14" />
<rect x="54" y="40" width="2" height="2" fill="#39ff14" />
<rect x="60" y="40" width="2" height="2" fill="#39ff14" />
<rect x="16" y="42" width="2" height="2" fill="#39ff14" />
<rect x="30" y="42" width="2" height="2" fill="#39ff14" />
<rect x="40" y="42" width="2" height="2" fill="#39ff14" />
<rect x="42" y="42" width="2" height="2" fill="#39ff14" />
<rect x="44" y="42" width="2" height="2" fill="#39ff14" />
<rect x="56" y="42" width="2" height="2" fill="#39ff14" />
<rect x="60" y="42" width="2" height="2" fill="#39ff14" />
<rect x="66" y="42" width="2" height="2" fill="#39ff14" />
<rect x="20" y="44" width="2" height="2" fill="#39ff14" />
<rect x="22" y="44" width="2" height="2" fill="#39ff14" />
<rect x="24" y="44" width="2" height="2" fill="#39ff14" />
<rect x="26" y="44" width="2" height="2" fill="#39ff14" />
<rect x="30" y="44" width="2" height="2" fill="#39ff14" />
<rect x="32" y="44" width="2" height="2" fill="#39ff14" />
<rect x="40" y="44" width="2" height="2" fill="#39ff14" />
<rect x="42" y="44" width="2" height="2" fill="#39ff14" />
<rect x="44" y="44" width="2" height="2" fill="#39ff14" />
<rect x="46" y="44" width="2" height="2" fill="#39ff14" />
<rect x="62" y="44" width="2" height="2" fill="#39ff14" />
<rect x="66" y="44" width="2" height="2" fill="#39ff14" />
<rect x="20" y="46" width="2" height="2" fill="#39ff14" />
<rect x="28" y="46" width="2" height="2" fill="#39ff14" />
<rect x="30" y="46" width="2" height="2" fill="#39ff14" />
<rect x="34" y="46" width="2" height="2" fill="#39ff14" />
<rect x="46" y="46" width="2" height="2" fill="#39ff14" />
<rect x="24" y="48" width="2" height="2" fill="#39ff14" />
<rect x="26" y="48" width="2" height="2" fill="#39ff14" />
<rect x="34" y="48" width="2" height="2" fill="#39ff14" />
<rect x="24" y="50" width="2" height="2" fill="#39ff14" />
<rect x="26" y="50" width="2" height="2" fill="#39ff14" />
<rect x="30" y="50" width="2" height="2" fill="#39ff14" />
<rect x="28" y="52" width="2" height="2" fill="#39ff14" />
</svg>