<?xml version="1.0" encoding="utf-8"?>
<svg xmlns="http://www.w3.org/2000/svg" width="65" height="56" viewBox="0 0 65 56">
<rect width="100%" height="100%" fill="transparent" />
<rect x="5" y="4" width="1" height="1" fill="#39ff14" />
<rect x="6" y="5" width="1" height="1" fill="#39ff14" />
<rect x="4" y="6" width="1" height="1" fill="#39ff14" />
<rect x="5" y="6" width="1" height="1" fill="#39ff14" />
<rect x="6" y="6" width="1" height="1" fill="#39ff14" />
<rect x="17" y="16" width="1" height="1" fill="#39ff14" />
<rect x="18" y="17" width="1" height="1" fill="#39ff14" />
<rect x="16" y="18" width="1" height="1" fill="#39ff14" />
<rect x="17" y="18" width="1" height="1" fill="#39ff14" />
<rect x="18" y="18" width="1" height="1" fill="#39ff14" />
<rect x="29" y="28" width="1" height="1" fill="#39ff14" />
<rect x="30" y="29" width="1" height="1" fill="#39ff14" />
<rect x="28" y="30" width="1" height="1" fill="#39ff14" />
<rect x="29" y="30" width="1" height="1" fill="#39ff14" />
<rect x="30" y="30" width="1" height="1" fill="#39ff14" />
<rect x="45" y="30" width="1" height="1" fill="#39ff14" />
<rect x="46" y="30" width="1" height="1" fill="#39ff14" />
<rect x="46" y="31" width="1" height="1" fill="#39ff14" />
<rect x="44" y="32" width="1" height="1" fill="#39ff14" />
<rect x="50" y="32" width="1" height="1" fill="#39ff14" />
<rect x="51" y="32" width="1" height="1" fill="#39ff14" />
<rect x="44" y="33" width="1" height="1" fill="#39ff14" />
<rect x="45" y="33" width="1" height="1" fill="#39ff14" />
<rect x="51" y="33" width="1" height="1" fill="#39ff14" />
<rect x="51" y="34" width="1" height="1" fill="#39ff14" />
<rect x="53" y="34" width="1" height="1" fill="#39ff14" />
<rect x="54" y="34" width="1" height="1" fill="#39ff14" />
<rect x="44" y="35" width="1" height="1" fill="#39ff14" />
<rect x="45" y="35" width="1" height="1" fill="#39ff14" />
<rect x="48" y="35" width="1" height="1" fill="#39ff14" />
<rect x="49" y="35" width="1" height="1" fill="#39ff14" />
<rect x="51" y="35" width="1" height="1" fill="#39ff14" />
<rect x="54" y="35" width="1" height="1" fill="#39ff14" />
<rect x="44" y="36" width="1" height="1" fill="#39ff14" />
<rect x="45" y="36" width="1" height="1" fill="#39ff14" />
<rect x="49" y="36" width="1" height="1" fill="#39ff14" />
<rect x="51" y="36" width="1" height="1" fill="#39ff14" />
<rect x="52" y="36" width="1" height="1" fill="#39ff14" />
<rect x="49" y="37" width="1" height="1" fill="#39ff14" />
<rect x="48" y="38" width="1" height="1" fill="#39ff14" />
<rect x="49" y="38" width="1" height="1" fill="#39ff14" />
<rect x="55" y="39" width="1" height="1" fill="#39ff14" />
<rect x="56" y="39" width="1" height="1" fill="#39ff14" />
<rect x="41" y="40" width="1" height="1" fill="#39ff14" />
<rect x="55" y="40" width="1" height="1" fill="#39ff14" />
<rect x="57" y="40" width="1" height="1" fill="#39ff14" />
<rect x="42" y="41" width="1" height="1" fill="#39ff14" />
<rect x="57" y="41" width="1" height="1" fill="#39ff14" />
<rect x="40" y="42" width="1" height="1" fill="#39ff14" />
<rect x="41" y="42" width="1" height="1" fill="#39ff14" />
<rect x="42" y="42" width="1" height="1" fill="#39ff14" />
<rect x="57" y="42" width="1" height="1" fill="#39ff14" />
<rect x="59" y="42" width="1" height="1" fill="#39ff14" />
<rect x="60" y="42" width="1" height="1" fill="#39ff14" />
<rect x="47" y="43" width="1" height="1" fill="#39ff14" />
<rect x="48" y="43" width="1" height="1" fill="#39ff14" />
<rect x="54" y="43" width="1" height="1" fill="#39ff14" />
<rect x="55" y="43" width="1" height="1" fill="#39ff14" />
<rect x="57" y="43" width="1" height="1" fill="#39ff14" />
<rect x="59" y="43" width="1" height="1" fill="#39ff14" />
<rect x="47" y="44" width="1" height="1" fill="#39ff14" />
<rect x="48" y="44" width="1" height="1" fill="#39ff14" />
<rect x="54" y="44" width="1" height="1" fill="#39ff14" />
<rect x="55" y="44" width="1" height="1" fill="#39ff14" />
<rect x="57" y="44" width="1" height="1" fill="#39ff14" />
<rect x="59" y="44" width="1" height="1" fill="#39ff14" />
<rect x="57" y="45" width="1" height="1" fill="#39ff14" />
<rect x="59" y="45" width="1" height="1" fill="#39ff14" />
<rect x="60" y="45" width="1" height="1" fill="#39ff14" />
<rect x="38" y="46" width="1" height="1" fill="#39ff14" />
<rect x="39" y="46" width="1" height="1" fill="#39ff14" />
<rect x="54" y="46" width="1" height="1" fill="#39ff14" />
<rect x="55" y="46" width="1" height="1" fill="#39ff14" />
<rect x="56" y="46" width="1" height="1" fill="#39ff14" />
<rect x="57" y="46" width="1" height="1" fill="#39ff14" />
<rect x="60" y="46" width="1" height="1" fill="#39ff14" />
<rect x="37" y="47" width="1" height="1" fill="#39ff14" />
<rect x="39" y="47" width="1" height="1" fill="#39ff14" />
<rect x="54" y="47" width="1" height="1" fill="#39ff14" />
<rect x="58" y="47" width="1" height="1" fill="#39ff14" />
<rect x="59" y="47" width="1" height="1" fill="#39ff14" />
<rect x="37" y="48" width="1" height="1" fill="#39ff14" />
<rect x="56" y="48" width="1" height="1" fill="#39ff14" />
<rect x="57" y="48" width="1" height="1" fill="#39ff14" />
<rect x="36" y="49" width="1" height="1" fill="#39ff14" />
<rect x="37" y="49" width="1" height="1" fill="#39ff14" />
<rect x="57" y="49" width="1" height="1" fill="#39ff14" />
<rect x="55" y="50" width="1" height="1" fill="#39ff14" />
<rect x="55" y="51" width="1" height="1" fill="#39ff14" />
<rect x="56" y="51" width="1" height="1" fill="#39ff14" />
</svg>