<?xml version="1.0" encoding="utf-8"?>
<svg xmlns="http://www.w3.org/2000/svg" width="76" height="68" viewBox="0 0 76 68">
<rect width="100%" height="100%" fill="transparent" />
<rect x="36" y="4" width="2" height="2" fill="#39ff14" />
<rect x="32" y="6" width="2" height="2" fill="#39ff14" />
<rect x="36" y="6" width="2" height="2" fill="#39ff14" />
<rect x="40" y="6" width="2" height="2" fill="#39ff14" />
<rect x="28" y="8" width="2" height="2" fill="#39ff14" />
<rect x="32" y="8" width="2" height="2" fill="#39ff14" />
<rect x="36" y="8" width="2" height="2" fill="#39ff14" />
<rect x="40" y="8" width="2" height="2" fill="#39ff14" />
<rect x="44" y="8" width="2" height="2" fill="#39ff14" />
<rect x="24" y="10" width="2" height="2" fill="#39ff14" />
<rect x="28" y="10" width="2" height="2" fill="#39ff14" />
<rect x="32" y="10" width="2" height="2" fill="#39ff14" />
<rect x="36" y="10" width="2" height="2" fill="#39ff14" />
<rect x="40" y="10" width="2" height="2" fill="#39ff14" />
<rect x="44" y="10" width="2" height="2" fill="#39ff14" />
<rect x="48" y="10" width="2" height="2" fill="#39ff14" />
<rect x="20" y="12" width="2" height="2" fill="#39ff14" />
<rect x="24" y="12" width="2" height="2" fill="#39ff14" />
<rect x="28" y="12" width="2" height="2" fill="#39ff14" />
<rect x="34" y="12" width="2" height="2" fill="#39ff14" />
<rect x="36" y="12" width="2" height="2" fill="#39ff14" />
<rect x="40" y="12" width="2" height="2" fill="#39ff14" />
<rect x="44" y="12" width="2" height="2" fill="#39ff14" />
<rect x="48" y="12" width="2" height="2" fill="#39ff14" />
<rect x="52" y="12" width="2" height="2" fill="#39ff14" />
<rect x="16" y="14" width="2" height="2" fill="#39ff14" />
<rect x="20" y="14" width="2" height="2" fill="#39ff14" />
<rect x="24" y="14" width="2" height="2" fill="#39ff14" />
<rect x="28" y="14" width="2" height="2" fill="#39ff14" />
<rect x="42" y="14" width="2" height="2" fill="#39ff14" />
<rect x="48" y="14" width="2" height="2" fill="#39ff14" />
<rect x="52" y="14" width="2" height="2" fill="#39ff14" />
<rect x="56" y="14" width="2" height="2" fill="#39ff14" />
<rect x="12" y="16" width="2" height="2" fill="#39ff14" />
<rect x="16" y="16" width="2" height="2" fill="#39ff14" />
<rect x="20" y="16" width="2" height="2" fill="#39ff14" />
<rect x="26" y="16" width="2" height="2" fill="#39ff14" />
<rect x="48" y="16" width="2" height="2" fill="#39ff14" />
<rect x="52" y="16" width="2" height="2" fill="#39ff14" />
<rect x="56" y="16" width="2" height="2" fill="#39ff14" />
<rect x="60" y="16" width="2" height="2" fill="#39ff14" />
<rect x="14" y="18" width="2" height="2" fill="#39ff14" />
<rect x="16" y="18" width="2" height="2" fill="#39ff14" />
<rect x="20" y="18" width="2" height="2" fill="#39ff14" />
<rect x="50" y="18" width="2" height="2" fill="#39ff14" />
<rect x="56" y="18" width="2" height="2" fill="#39ff14" />
<rect x="60" y="18" width="2" height="2" fill="#39ff14" />
<rect x="64" y="18" width="2" height="2" fill="#39ff14" />
<rect x="10" y="20" width="2" height="2" fill="#39ff14" />
<rect x="18" y="20" width="2" height="2" fill="#39ff14" />
<rect x="56" y="20" width="2" height="2" fill="#39ff14" />
<rect x="60" y="20" width="2" height="2" fill="#39ff14" />
<rect x="62" y="20" width="2" height="2" fill="#39ff14" />
<rect x="12" y="22" width="2" height="2" fill="#39ff14" />
<rect x="14" y="22" width="2" height="2" fill="#39ff14" />
<rect x="16" y="22" width="2" height="2" fill="#39ff14" />
<rect x="58" y="22" width="2" height="2" fill="#39ff14" />
<rect x="66" y="22" width="2" height="2" fill="#39ff14" />
<rect x="8" y="24" width="2" height="2" fill="#39ff14" />
<rect x="60" y="24" width="2" height="2" fill="#39ff14" />
<rect x="62" y="24" width="2" height="2" fill="#39ff14" />
<rect x="64" y="24" width="2" height="2" fill="#39ff14" />
<rect x="10" y="26" width="2" height="2" fill="#39ff14" />
<rect x="12" y="26" width="2" height="2" fill="#39ff14" />
<rect x="68" y="26" width="2" height="2" fill="#39ff14" />
<rect x="6" y="28" width="2" height="2" fill="#39ff14" />
<rect x="14" y="28" width="2" height="2" fill="#39ff14" />
<rect x="64" y="28" width="2" height="2" fill="#39ff14" />
<rect x="66" y="28" width="2" height="2" fill="#39ff14" />
<rect x="8" y="30" width="2" height="2" fill="#39ff14" />
<rect x="10" y="30" width="2" height="2" fill="#39ff14" />
<rect x="12" y="30" width="2" height="2" fill="#39ff14" />
<rect x="14" y="30" width="2" height="2" fill="#39ff14" />
<rect x="62" y="30" width="2" height="2" fill="#39ff14" />
<rect x="70" y="30" width="2" height="2" fill="#39ff14" />
<rect x="4" y="32" width="2" height="2" fill="#39ff14" />
<rect x="64" y="32" width="2" height="2" fill="#39ff14" />
<rect x="66" y="32" width="2" height="2" fill="#39ff14" />
<rect x="68" y="32" width="2" height="2" fill="#39ff14" />
<rect x="6" y="34" width="2" height="2" fill="#39ff14" />
<rect x="8" y="34" width="2" height="2" fill="#39ff14" />
<rect x="10" y="34" width="2" height="2" fill="#39ff14" />
<rect x="70" y="34" width="2" height="2" fill="#39ff14" />
<rect x="4" y="36" width="2" height="2" fill="#39ff14" />
<rect x="12" y="36" width="2" height="2" fill="#39ff14" />
<rect x="60" y="36" width="2" height="2" fill="#39ff14" />
<rect x="62" y="36" width="2" height="2" fill="#39ff14" />
<rect x="64" y="36" width="2" height="2" fill="#39ff14" />
<rect x="66" y="36" width="2" height="2" fill="#39ff14" />
<rect x="8" y="38" width="2" height="2" fill="#39ff14" />
<rect x="10" y="38" width="2" height="2" fill="#39ff14" />
<rect x="60" y="38" width="2" height="2" fill="#39ff14" />
<rect x="68" y="38" width="2" height="2" fill="#39ff14" />
<rect x="6" y="40" width="2" height="2" fill="#39ff14" />
<rect x="62" y="40" width="2" height="2" fill="#39ff14" />
<rect x="64" y="40" width="2" height="2" fill="#39ff14" />
<rect x="10" y="42" width="2" height="2" fill="#39ff14" />
<rect x="12" y="42" width="2" height="2" fill="#39ff14" />
<rect x="14" y="42" width="2" height="2" fill="#39ff14" />
<rect x="66" y="42" width="2" height="2" fill="#39ff14" />
<rect x="8" y="44" width="2" height="2" fill="#39ff14" />
<rect x="16" y="44" width="2" height="2" fill="#39ff14" />
<rect x="58" y="44" width="2" height="2" fill="#39ff14" />
<rect x="60" y="44" width="2" height="2" fill="#39ff14" />
<rect x="62" y="44" width="2" height="2" fill="#39ff14" />
<rect x="12" y="46" width="2" height="2" fill="#39ff14" />
<rect x="14" y="46" width="2" height="2" fill="#39ff14" />
<rect x="18" y="46" width="2" height="2" fill="#39ff14" />
<rect x="56" y="46" width="2" height="2" fill="#39ff14" />
<rect x="64" y="46" width="2" height="2" fill="#39ff14" />
<rect x="10" y="48" width="2" height="2" fill="#39ff14" />
<rect x="14" y="48" width="2" height="2" fill="#39ff14" />
<rect x="18" y="48" width="2" height="2" fill="#39ff14" />
<rect x="24" y="48" width="2" height="2" fill="#39ff14" />
<rect x="54" y="48" width="2" height="2" fill="#39ff14" />
<rect x="58" y="48" width="2" height="2" fill="#39ff14" />
<rect x="60" y="48" width="2" height="2" fill="#39ff14" />
<rect x="14" y="50" width="2" height="2" fill="#39ff14" />
<rect x="18" y="50" width="2" height="2" fill="#39ff14" />
<rect x="22" y="50" width="2" height="2" fill="#39ff14" />
<rect x="26" y="50" width="2" height="2" fill="#39ff14" />
<rect x="48" y="50" width="2" height="2" fill="#39ff14" />
<rect x="54" y="50" width="2" height="2" fill="#39ff14" />
<rect x="58" y="50" width="2" height="2" fill="#39ff14" />
<rect x="62" y="50" width="2" height="2" fill="#39ff14" />
<rect x="18" y="52" width="2" height="2" fill="#39ff14" />
<rect x="22" y="52" width="2" height="2" fill="#39ff14" />
<rect x="26" y="52" width="2" height="2" fill="#39ff14" />
<rect x="32" y="52" width="2" height="2" fill="#39ff14" />
<rect x="46" y="52" width="2" height="2" fill="#39ff14" />
<rect x="50" y="52" width="2" height="2" fill="#39ff14" />
<rect x="54" y="52" width="2" height="2" fill="#39ff14" />
<rect x="58" y="52" width="2" height="2" fill="#39ff14" />
<rect x="22" y="54" width="2" height="2" fill="#39ff14" />
<rect x="26" y="54" width="2" height="2" fill="#39ff14" />
<rect x="30" y="54" width="2" height="2" fill="#39ff14" />
<rect x="34" y="54" width="2" height="2" fill="#39ff14" />
<rect x="38" y="54" width="2" height="2" fill="#39ff14" />
<rect x="40" y="54" width="2" height="2" fill="#39ff14" />
<rect x="46" y="54" width="2" height="2" fill="#39ff14" />
<rect x="50" y="54" width="2" height="2" fill="#39ff14" />
<rect x="54" y="54" width="2" height="2" fill="#39ff14" />
<rect x="26" y="56" width="2" height="2" fill="#39ff14" />
<rect x="30" y="56" width="2" height="2" fill="#39ff14" />
<rect x="34" y="56" width="2" height="2" fill="#39ff14" />
<rect x="38" y="56" width="2" height="2" fill="#39ff14" />
<rect x="42" y="56" width="2" height="2" fill="#39ff14" />
<rect x="46" y="56" width="2" height="2" fill="#39ff14" />
<rect x="50" y="56" width="2" height="2" fill="#39ff14" />
<rect x="30" y="58" width="2" height="2" fill="#39ff14" />
<rect x="34" y="58" width="2" height="2" fill="#39ff14" />
<rect x="38" y="58" width="2" height="2" fill="#39ff14" />
<rect x="42" y="58" width="2" height="2" fill="#39ff14" />
<rect x="46" y="58" width="2" height="2" fill="#39ff14" />
<rect x="34" y="60" width="2" height="2" fill="#39ff14" />
<rect x="38" y="60" width="2" height="2" fill="#39ff14" />
<rect x="42" y="60" width="2" height="2" fill="#39ff14" />
<rect x="38" y="62" width="2" height="2" fill="#39ff14" />
</svg>