<?xml version="1.0" encoding="utf-8"?>
<svg xmlns="http://www.w3.org/2000/svg" width="83" height="23" viewBox="0 0 83 23">
<rect width="100%" height="100%" fill="transparent" />
<rect x="19" y="4" width="3" height="3" fill="#39ff14" />
<rect x="31" y="4" width="3" height="3" fill="#39ff14" />
<rect x="34" y="4" width="3" height="3" fill="#39ff14" />
<rect x="4" y="7" width="3" height="3" fill="#39ff14" />
<rect x="7" y="7" width="3" height="3" fill="#39ff14" />
<rect x="34" y="7" width="3" height="3" fill="#39ff14" />
<rect x="46" y="7" width="3" height="3" fill="#39ff14" />
<rect x="52" y="7" width="3" height="3" fill="#39ff14" />
<rect x="55" y="7" width="3" height="3" fill="#39ff14" />
<rect x="70" y="7" width="3" height="3" fill="#39ff14" />
<rect x="76" y="7" width="3" height="3" fill="#39ff14" />
<rect x="34" y="10" width="3" height="3" fill="#39ff14" />
<rect x="52" y="10" width="3" height="3" fill="#39ff14" />
<rect x="76" y="10" width="3" height="3" fill="#39ff14" />
<rect x="37" y="13" width="3" height="3" fill="#39ff14" />
<rect x="49" y="13" width="3" height="3" fill="#39ff14" />
<rect x="40" y="16" width="3" height="3" fill="#39ff14" />
<rect x="43" y="16" width="3" height="3" fill="#39ff14" />
</svg>