<?xml version="1.0" encoding="utf-8"?>
<svg xmlns="http://www.w3.org/2000/svg" width="80" height="44" viewBox="0 0 80 44">
<rect width="100%" height="100%" fill="transparent" />
<rect x="4" y="4" width="4" height="4" fill="#39ff14" />
<rect x="8" y="4" width="4" height="4" fill="#39ff14" />
<rect x="12" y="4" width="4" height="4" fill="#39ff14" />
<rect x="16" y="4" width="4" height="4" fill="#39ff14" />
<rect x="4" y="8" width="4" height="4" fill="#39ff14" />
<rect x="20" y="8" width="4" height="4" fill="#39ff14" />
<rect x="60" y="8" width="4" height="4" fill="#39ff14" />
<rect x="4" y="12" width="4" height="4" fill="#39ff14" />
<rect x="52" y="12" width="4" height="4" fill="#39ff14" />
<rect x="56" y="12" width="4" height="4" fill="#39ff14" />
<rect x="8" y="16" width="4" height="4" fill="#39ff14" />
<rect x="20" y="16" width="4" height="4" fill="#39ff14" />
<rect x="32" y="16" width="4" height="4" fill="#39ff14" />
<rect x="36" y="16" width="4" height="4" fill="#39ff14" />
<rect x="60" y="16" width="4" height="4" fill="#39ff14" />
<rect x="64" y="16" width="4" height="4" fill="#39ff14" />
<rect x="68" y="16" width="4" height="4" fill="#39ff14" />
<rect x="28" y="20" width="4" height="4" fill="#39ff14" />
<rect x="32" y="20" width="4" height="4" fill="#39ff14" />
<rect x="36" y="20" width="4" height="4" fill="#39ff14" />
<rect x="64" y="20" width="4" height="4" fill="#39ff14" />
<rect x="68" y="20" width="4" height="4" fill="#39ff14" />
<rect x="72" y="20" width="4" height="4" fill="#39ff14" />
<rect x="8" y="24" width="4" height="4" fill="#39ff14" />
<rect x="20" y="24" width="4" height="4" fill="#39ff14" />
<rect x="32" y="24" width="4" height="4" fill="#39ff14" />
<rect x="36" y="24" width="4" height="4" fill="#39ff14" />
<rect x="60" y="24" width="4" height="4" fill="#39ff14" />
<rect x="64" y="24" width="4" height="4" fill="#39ff14" />
<rect x="68" y="24" width="4" height="4" fill="#39ff14" />
<rect x="4" y="28" width="4" height="4" fill="#39ff14" />
<rect x="52" y="28" width="4" height="4" fill="#39ff14" />
<rect x="56" y="28" width="4" height="4" fill="#39ff14" />
<rect x="4" y="32" width="4" height="4" fill="#39ff14" />
<rect x="20" y="32" width="4" height="4" fill="#39ff14" />
<rect x="60" y="32" width="4" height="4" fill="#39ff14" />
<rect x="4" y="36" width="4" height="4" fill="#39ff14" />
<rect x="8" y="36" width="4" height="4" fill="#39ff14" />
<rect x="12" y="36" width="4" height="4" fill="#39ff14" />
<rect x="16" y="36" width="4" height="4" fill="#39ff14" />
</svg>