<?xml version="1.0" encoding="utf-8"?>
<svg xmlns="http://www.w3.org/2000/svg" width="54" height="56" viewBox="0 0 54 56">
<rect width="100%" height="100%" fill="transparent" />
<rect x="39" y="4" width="1" height="1" fill="#39ff14" />
<rect x="38" y="5" width="1" height="1" fill="#39ff14" />
<rect x="38" y="6" width="1" height="1" fill="#39ff14" />
<rect x="39" y="6" width="1" height="1" fill="#39ff14" />
<rect x="40" y="6" width="1" height="1" fill="#39ff14" />
<rect x="17" y="7" width="1" height="1" fill="#39ff14" />
<rect x="18" y="7" width="1" height="1" fill="#39ff14" />
<rect x="18" y="8" width="1" height="1" fill="#39ff14" />
<rect x="18" y="9" width="1" height="1" fill="#39ff14" />
<rect x="20" y="9" width="1" height="1" fill="#39ff14" />
<rect x="19" y="10" width="1" height="1" fill="#39ff14" />
<rect x="20" y="10" width="1" height="1" fill="#39ff14" />
<rect x="7" y="12" width="1" height="1" fill="#39ff14" />
<rect x="6" y="13" width="1" height="1" fill="#39ff14" />
<rect x="8" y="13" width="1" height="1" fill="#39ff14" />
<rect x="5" y="14" width="1" height="1" fill="#39ff14" />
<rect x="7" y="14" width="1" height="1" fill="#39ff14" />
<rect x="5" y="15" width="1" height="1" fill="#39ff14" />
<rect x="6" y="15" width="1" height="1" fill="#39ff14" />
<rect x="18" y="16" width="1" height="1" fill="#39ff14" />
<rect x="19" y="16" width="1" height="1" fill="#39ff14" />
<rect x="17" y="17" width="1" height="1" fill="#39ff14" />
<rect x="19" y="17" width="1" height="1" fill="#39ff14" />
<rect x="17" y="18" width="1" height="1" fill="#39ff14" />
<rect x="18" y="18" width="1" height="1" fill="#39ff14" />
<rect x="24" y="22" width="1" height="1" fill="#39ff14" />
<rect x="25" y="22" width="1" height="1" fill="#39ff14" />
<rect x="23" y="23" width="1" height="1" fill="#39ff14" />
<rect x="25" y="23" width="1" height="1" fill="#39ff14" />
<rect x="14" y="24" width="1" height="1" fill="#39ff14" />
<rect x="24" y="24" width="1" height="1" fill="#39ff14" />
<rect x="13" y="25" width="1" height="1" fill="#39ff14" />
<rect x="15" y="25" width="1" height="1" fill="#39ff14" />
<rect x="20" y="25" width="1" height="1" fill="#39ff14" />
<rect x="14" y="26" width="1" height="1" fill="#39ff14" />
<rect x="15" y="26" width="1" height="1" fill="#39ff14" />
<rect x="19" y="26" width="1" height="1" fill="#39ff14" />
<rect x="21" y="26" width="1" height="1" fill="#39ff14" />
<rect x="18" y="27" width="1" height="1" fill="#39ff14" />
<rect x="20" y="27" width="1" height="1" fill="#39ff14" />
<rect x="18" y="28" width="1" height="1" fill="#39ff14" />
<rect x="19" y="28" width="1" height="1" fill="#39ff14" />
<rect x="49" y="30" width="1" height="1" fill="#39ff14" />
<rect x="29" y="31" width="1" height="1" fill="#39ff14" />
<rect x="30" y="31" width="1" height="1" fill="#39ff14" />
<rect x="47" y="31" width="1" height="1" fill="#39ff14" />
<rect x="48" y="31" width="1" height="1" fill="#39ff14" />
<rect x="49" y="31" width="1" height="1" fill="#39ff14" />
<rect x="24" y="32" width="1" height="1" fill="#39ff14" />
<rect x="25" y="32" width="1" height="1" fill="#39ff14" />
<rect x="29" y="32" width="1" height="1" fill="#39ff14" />
<rect x="30" y="32" width="1" height="1" fill="#39ff14" />
<rect x="46" y="32" width="1" height="1" fill="#39ff14" />
<rect x="23" y="33" width="1" height="1" fill="#39ff14" />
<rect x="26" y="33" width="1" height="1" fill="#39ff14" />
<rect x="46" y="33" width="1" height="1" fill="#39ff14" />
<rect x="47" y="33" width="1" height="1" fill="#39ff14" />
<rect x="5" y="34" width="1" height="1" fill="#39ff14" />
<rect x="23" y="34" width="1" height="1" fill="#39ff14" />
<rect x="26" y="34" width="1" height="1" fill="#39ff14" />
<rect x="4" y="35" width="1" height="1" fill="#39ff14" />
<rect x="6" y="35" width="1" height="1" fill="#39ff14" />
<rect x="24" y="35" width="1" height="1" fill="#39ff14" />
<rect x="25" y="35" width="1" height="1" fill="#39ff14" />
<rect x="5" y="36" width="1" height="1" fill="#39ff14" />
<rect x="6" y="36" width="1" height="1" fill="#39ff14" />
<rect x="25" y="40" width="1" height="1" fill="#39ff14" />
<rect x="26" y="40" width="1" height="1" fill="#39ff14" />
<rect x="25" y="41" width="1" height="1" fill="#39ff14" />
<rect x="27" y="41" width="1" height="1" fill="#39ff14" />
<rect x="32" y="41" width="1" height="1" fill="#39ff14" />
<rect x="33" y="41" width="1" height="1" fill="#39ff14" />
<rect x="26" y="42" width="1" height="1" fill="#39ff14" />
<rect x="32" y="42" width="1" height="1" fill="#39ff14" />
<rect x="34" y="42" width="1" height="1" fill="#39ff14" />
<rect x="33" y="43" width="1" height="1" fill="#39ff14" />
<rect x="34" y="43" width="1" height="1" fill="#39ff14" />
<rect x="37" y="44" width="1" height="1" fill="#39ff14" />
<rect x="38" y="44" width="1" height="1" fill="#39ff14" />
<rect x="37" y="45" width="1" height="1" fill="#39ff14" />
<rect x="38" y="45" width="1" height="1" fill="#39ff14" />
<rect x="26" y="48" width="1" height="1" fill="#39ff14" />
<rect x="27" y="48" width="1" height="1" fill="#39ff14" />
<rect x="25" y="49" width="1" height="1" fill="#39ff14" />
<rect x="28" y="49" width="1" height="1" fill="#39ff14" />
<rect x="25" y="50" width="1" height="1" fill="#39ff14" />
<rect x="28" y="50" width="1" height="1" fill="#39ff14" />
<rect x="26" y="51" width="1" height="1" fill="#39ff14" />
<rect x="27" y="51" width="1" height="1" fill="#39ff14" />
</svg>