<?xml version="1.0" encoding="utf-8"?>
<svg xmlns="http://www.w3.org/2000/svg" width="80" height="74" viewBox="0 0 80 74">
<rect width="100%" height="100%" fill="transparent" />
<rect x="43" y="4" width="3" height="3" fill="#39ff14" />
<rect x="46" y="4" width="3" height="3" fill="#39ff14" />
<rect x="40" y="7" width="3" height="3" fill="#39ff14" />
<rect x="49" y="7" width="3" height="3" fill="#39ff14" />
<rect x="43" y="10" width="3" height="3" fill="#39ff14" />
<rect x="49" y="10" width="3" height="3" fill="#39ff14" />
<rect x="31" y="13" width="3" height="3" fill="#39ff14" />
<rect x="34" y="13" width="3" height="3" fill="#39ff14" />
<rect x="46" y="13" width="3" height="3" fill="#39ff14" />
<rect x="34" y="16" width="3" height="3" fill="#39ff14" />
<rect x="40" y="16" width="3" height="3" fill="#39ff14" />
<rect x="43" y="16" width="3" height="3" fill="#39ff14" />
<rect x="40" y="19" width="3" height="3" fill="#39ff14" />
<rect x="40" y="22" width="3" height="3" fill="#39ff14" />
<rect x="4" y="28" width="3" height="3" fill="#39ff14" />
<rect x="7" y="28" width="3" height="3" fill="#39ff14" />
<rect x="34" y="28" width="3" height="3" fill="#39ff14" />
<rect x="37" y="28" width="3" height="3" fill="#39ff14" />
<rect x="40" y="28" width="3" height="3" fill="#39ff14" />
<rect x="61" y="28" width="3" height="3" fill="#39ff14" />
<rect x="4" y="31" width="3" height="3" fill="#39ff14" />
<rect x="7" y="31" width="3" height="3" fill="#39ff14" />
<rect x="10" y="31" width="3" height="3" fill="#39ff14" />
<rect x="13" y="31" width="3" height="3" fill="#39ff14" />
<rect x="19" y="31" width="3" height="3" fill="#39ff14" />
<rect x="46" y="31" width="3" height="3" fill="#39ff14" />
<rect x="58" y="31" width="3" height="3" fill="#39ff14" />
<rect x="61" y="31" width="3" height="3" fill="#39ff14" />
<rect x="4" y="34" width="3" height="3" fill="#39ff14" />
<rect x="10" y="34" width="3" height="3" fill="#39ff14" />
<rect x="19" y="34" width="3" height="3" fill="#39ff14" />
<rect x="22" y="34" width="3" height="3" fill="#39ff14" />
<rect x="25" y="34" width="3" height="3" fill="#39ff14" />
<rect x="31" y="34" width="3" height="3" fill="#39ff14" />
<rect x="46" y="34" width="3" height="3" fill="#39ff14" />
<rect x="31" y="37" width="3" height="3" fill="#39ff14" />
<rect x="46" y="37" width="3" height="3" fill="#39ff14" />
<rect x="52" y="37" width="3" height="3" fill="#39ff14" />
<rect x="55" y="37" width="3" height="3" fill="#39ff14" />
<rect x="58" y="37" width="3" height="3" fill="#39ff14" />
<rect x="67" y="37" width="3" height="3" fill="#39ff14" />
<rect x="73" y="37" width="3" height="3" fill="#39ff14" />
<rect x="16" y="40" width="3" height="3" fill="#39ff14" />
<rect x="19" y="40" width="3" height="3" fill="#39ff14" />
<rect x="31" y="40" width="3" height="3" fill="#39ff14" />
<rect x="58" y="40" width="3" height="3" fill="#39ff14" />
<rect x="64" y="40" width="3" height="3" fill="#39ff14" />
<rect x="67" y="40" width="3" height="3" fill="#39ff14" />
<rect x="70" y="40" width="3" height="3" fill="#39ff14" />
<rect x="73" y="40" width="3" height="3" fill="#39ff14" />
<rect x="16" y="43" width="3" height="3" fill="#39ff14" />
<rect x="37" y="43" width="3" height="3" fill="#39ff14" />
<rect x="40" y="43" width="3" height="3" fill="#39ff14" />
<rect x="43" y="43" width="3" height="3" fill="#39ff14" />
<rect x="70" y="43" width="3" height="3" fill="#39ff14" />
<rect x="73" y="43" width="3" height="3" fill="#39ff14" />
<rect x="37" y="49" width="3" height="3" fill="#39ff14" />
<rect x="37" y="52" width="3" height="3" fill="#39ff14" />
<rect x="34" y="55" width="3" height="3" fill="#39ff14" />
<rect x="37" y="55" width="3" height="3" fill="#39ff14" />
<rect x="43" y="55" width="3" height="3" fill="#39ff14" />
<rect x="31" y="58" width="3" height="3" fill="#39ff14" />
<rect x="43" y="58" width="3" height="3" fill="#39ff14" />
<rect x="46" y="58" width="3" height="3" fill="#39ff14" />
<rect x="28" y="61" width="3" height="3" fill="#39ff14" />
<rect x="34" y="61" width="3" height="3" fill="#39ff14" />
<rect x="28" y="64" width="3" height="3" fill="#39ff14" />
<rect x="37" y="64" width="3" height="3" fill="#39ff14" />
<rect x="31" y="67" width="3" height="3" fill="#39ff14" />
<rect x="34" y="67" width="3" height="3" fill="#39ff14" />
</svg>