<?xml version="1.0" encoding="utf-8"?>
<svg xmlns="http://www.w3.org/2000/svg" width="76" height="88" viewBox="0 0 76 88">
<rect width="100%" height="100%" fill="transparent" />
<rect x="60" y="4" width="4" height="4" fill="#39ff14" />
<rect x="64" y="4" width="4" height="4" fill="#39ff14" />
<rect x="60" y="8" width="4" height="4" fill="#39ff14" />
<rect x="64" y="8" width="4" height="4" fill="#39ff14" />
<rect x="36" y="12" width="4" height="4" fill="#39ff14" />
<rect x="40" y="12" width="4" height="4" fill="#39ff14" />
<rect x="44" y="12" width="4" height="4" fill="#39ff14" />
<rect x="44" y="16" width="4" height="4" fill="#39ff14" />
<rect x="40" y="20" width="4" height="4" fill="#39ff14" />
<rect x="64" y="20" width="4" height="4" fill="#39ff14" />
<rect x="68" y="20" width="4" height="4" fill="#39ff14" />
<rect x="60" y="24" width="4" height="4" fill="#39ff14" />
<rect x="68" y="24" width="4" height="4" fill="#39ff14" />
<rect x="68" y="28" width="4" height="4" fill="#39ff14" />
<rect x="8" y="72" width="4" height="4" fill="#39ff14" />
<rect x="8" y="76" width="4" height="4" fill="#39ff14" />
<rect x="12" y="76" width="4" height="4" fill="#39ff14" />
<rect x="4" y="80" width="4" height="4" fill="#39ff14" />
<rect x="12" y="80" width="4" height="4" fill="#39ff14" />
</svg>