<?xml version="1.0" encoding="utf-8"?>
<svg xmlns="http://www.w3.org/2000/svg" width="53" height="31" viewBox="0 0 53 31">
<rect width="100%" height="100%" fill="transparent" />
<rect x="24" y="4" width="1" height="1" fill="#39ff14" />
<rect x="25" y="5" width="1" height="1" fill="#39ff14" />
<rect x="23" y="6" width="1" height="1" fill="#39ff14" />
<rect x="24" y="6" width="1" height="1" fill="#39ff14" />
<rect x="25" y="6" width="1" height="1" fill="#39ff14" />
<rect x="31" y="8" width="1" height="1" fill="#39ff14" />
<rect x="33" y="8" width="1" height="1" fill="#39ff14" />
<rect x="29" y="9" width="1" height="1" fill="#39ff14" />
<rect x="33" y="9" width="1" height="1" fill="#39ff14" />
<rect x="21" y="10" width="1" height="1" fill="#39ff14" />
<rect x="29" y="10" width="1" height="1" fill="#39ff14" />
<rect x="20" y="11" width="1" height="1" fill="#39ff14" />
<rect x="21" y="11" width="1" height="1" fill="#39ff14" />
<rect x="22" y="11" width="1" height="1" fill="#39ff14" />
<rect x="23" y="11" width="1" height="1" fill="#39ff14" />
<rect x="28" y="11" width="1" height="1" fill="#39ff14" />
<rect x="33" y="11" width="1" height="1" fill="#39ff14" />
<rect x="42" y="11" width="1" height="1" fill="#39ff14" />
<rect x="43" y="11" width="1" height="1" fill="#39ff14" />
<rect x="19" y="12" width="1" height="1" fill="#39ff14" />
<rect x="20" y="12" width="1" height="1" fill="#39ff14" />
<rect x="22" y="12" width="1" height="1" fill="#39ff14" />
<rect x="24" y="12" width="1" height="1" fill="#39ff14" />
<rect x="29" y="12" width="1" height="1" fill="#39ff14" />
<rect x="42" y="12" width="1" height="1" fill="#39ff14" />
<rect x="43" y="12" width="1" height="1" fill="#39ff14" />
<rect x="8" y="13" width="1" height="1" fill="#39ff14" />
<rect x="9" y="13" width="1" height="1" fill="#39ff14" />
<rect x="18" y="13" width="1" height="1" fill="#39ff14" />
<rect x="19" y="13" width="1" height="1" fill="#39ff14" />
<rect x="20" y="13" width="1" height="1" fill="#39ff14" />
<rect x="22" y="13" width="1" height="1" fill="#39ff14" />
<rect x="25" y="13" width="1" height="1" fill="#39ff14" />
<rect x="29" y="13" width="1" height="1" fill="#39ff14" />
<rect x="33" y="13" width="1" height="1" fill="#39ff14" />
<rect x="8" y="14" width="1" height="1" fill="#39ff14" />
<rect x="9" y="14" width="1" height="1" fill="#39ff14" />
<rect x="19" y="14" width="1" height="1" fill="#39ff14" />
<rect x="20" y="14" width="1" height="1" fill="#39ff14" />
<rect x="22" y="14" width="1" height="1" fill="#39ff14" />
<rect x="24" y="14" width="1" height="1" fill="#39ff14" />
<rect x="31" y="14" width="1" height="1" fill="#39ff14" />
<rect x="33" y="14" width="1" height="1" fill="#39ff14" />
<rect x="20" y="15" width="1" height="1" fill="#39ff14" />
<rect x="21" y="15" width="1" height="1" fill="#39ff14" />
<rect x="22" y="15" width="1" height="1" fill="#39ff14" />
<rect x="23" y="15" width="1" height="1" fill="#39ff14" />
<rect x="21" y="16" width="1" height="1" fill="#39ff14" />
<rect x="30" y="17" width="1" height="1" fill="#39ff14" />
<rect x="31" y="17" width="1" height="1" fill="#39ff14" />
<rect x="32" y="17" width="1" height="1" fill="#39ff14" />
<rect x="30" y="18" width="1" height="1" fill="#39ff14" />
<rect x="32" y="18" width="1" height="1" fill="#39ff14" />
<rect x="36" y="18" width="1" height="1" fill="#39ff14" />
<rect x="37" y="18" width="1" height="1" fill="#39ff14" />
<rect x="29" y="19" width="1" height="1" fill="#39ff14" />
<rect x="30" y="19" width="1" height="1" fill="#39ff14" />
<rect x="36" y="19" width="1" height="1" fill="#39ff14" />
<rect x="39" y="19" width="1" height="1" fill="#39ff14" />
<rect x="22" y="20" width="1" height="1" fill="#39ff14" />
<rect x="24" y="20" width="1" height="1" fill="#39ff14" />
<rect x="30" y="20" width="1" height="1" fill="#39ff14" />
<rect x="40" y="20" width="1" height="1" fill="#39ff14" />
<rect x="47" y="20" width="1" height="1" fill="#39ff14" />
<rect x="48" y="20" width="1" height="1" fill="#39ff14" />
<rect x="20" y="21" width="1" height="1" fill="#39ff14" />
<rect x="24" y="21" width="1" height="1" fill="#39ff14" />
<rect x="27" y="21" width="1" height="1" fill="#39ff14" />
<rect x="28" y="21" width="1" height="1" fill="#39ff14" />
<rect x="40" y="21" width="1" height="1" fill="#39ff14" />
<rect x="47" y="21" width="1" height="1" fill="#39ff14" />
<rect x="48" y="21" width="1" height="1" fill="#39ff14" />
<rect x="13" y="22" width="1" height="1" fill="#39ff14" />
<rect x="14" y="22" width="1" height="1" fill="#39ff14" />
<rect x="20" y="22" width="1" height="1" fill="#39ff14" />
<rect x="31" y="22" width="1" height="1" fill="#39ff14" />
<rect x="40" y="22" width="1" height="1" fill="#39ff14" />
<rect x="5" y="23" width="1" height="1" fill="#39ff14" />
<rect x="13" y="23" width="1" height="1" fill="#39ff14" />
<rect x="14" y="23" width="1" height="1" fill="#39ff14" />
<rect x="19" y="23" width="1" height="1" fill="#39ff14" />
<rect x="24" y="23" width="1" height="1" fill="#39ff14" />
<rect x="32" y="23" width="1" height="1" fill="#39ff14" />
<rect x="33" y="23" width="1" height="1" fill="#39ff14" />
<rect x="36" y="23" width="1" height="1" fill="#39ff14" />
<rect x="39" y="23" width="1" height="1" fill="#39ff14" />
<rect x="6" y="24" width="1" height="1" fill="#39ff14" />
<rect x="20" y="24" width="1" height="1" fill="#39ff14" />
<rect x="28" y="24" width="1" height="1" fill="#39ff14" />
<rect x="30" y="24" width="1" height="1" fill="#39ff14" />
<rect x="33" y="24" width="1" height="1" fill="#39ff14" />
<rect x="36" y="24" width="1" height="1" fill="#39ff14" />
<rect x="37" y="24" width="1" height="1" fill="#39ff14" />
<rect x="4" y="25" width="1" height="1" fill="#39ff14" />
<rect x="5" y="25" width="1" height="1" fill="#39ff14" />
<rect x="6" y="25" width="1" height="1" fill="#39ff14" />
<rect x="20" y="25" width="1" height="1" fill="#39ff14" />
<rect x="24" y="25" width="1" height="1" fill="#39ff14" />
<rect x="30" y="25" width="1" height="1" fill="#39ff14" />
<rect x="31" y="25" width="1" height="1" fill="#39ff14" />
<rect x="32" y="25" width="1" height="1" fill="#39ff14" />
<rect x="22" y="26" width="1" height="1" fill="#39ff14" />
<rect x="24" y="26" width="1" height="1" fill="#39ff14" />
</svg>