<?xml version="1.0" encoding="utf-8"?>
<svg xmlns="http://www.w3.org/2000/svg" width="60" height="38" viewBox="0 0 60 38">
<rect width="100%" height="100%" fill="transparent" />
<rect x="14" y="4" width="1" height="1" fill="#39ff14" />
<rect x="15" y="4" width="1" height="1" fill="#39ff14" />
<rect x="27" y="4" width="1" height="1" fill="#39ff14" />
<rect x="34" y="4" width="1" height="1" fill="#39ff14" />
<rect x="35" y="4" width="1" height="1" fill="#39ff14" />
<rect x="14" y="5" width="1" height="1" fill="#39ff14" />
<rect x="15" y="5" width="1" height="1" fill="#39ff14" />
<rect x="26" y="5" width="1" height="1" fill="#39ff14" />
<rect x="28" y="5" width="1" height="1" fill="#39ff14" />
<rect x="33" y="5" width="1" height="1" fill="#39ff14" />
<rect x="36" y="5" width="1" height="1" fill="#39ff14" />
<rect x="26" y="6" width="1" height="1" fill="#39ff14" />
<rect x="28" y="6" width="1" height="1" fill="#39ff14" />
<rect x="32" y="6" width="1" height="1" fill="#39ff14" />
<rect x="34" y="6" width="1" height="1" fill="#39ff14" />
<rect x="35" y="6" width="1" height="1" fill="#39ff14" />
<rect x="36" y="6" width="1" height="1" fill="#39ff14" />
<rect x="40" y="6" width="1" height="1" fill="#39ff14" />
<rect x="25" y="7" width="1" height="1" fill="#39ff14" />
<rect x="26" y="7" width="1" height="1" fill="#39ff14" />
<rect x="28" y="7" width="1" height="1" fill="#39ff14" />
<rect x="29" y="7" width="1" height="1" fill="#39ff14" />
<rect x="31" y="7" width="1" height="1" fill="#39ff14" />
<rect x="33" y="7" width="1" height="1" fill="#39ff14" />
<rect x="40" y="7" width="1" height="1" fill="#39ff14" />
<rect x="41" y="7" width="1" height="1" fill="#39ff14" />
<rect x="42" y="7" width="1" height="1" fill="#39ff14" />
<rect x="29" y="8" width="1" height="1" fill="#39ff14" />
<rect x="31" y="8" width="1" height="1" fill="#39ff14" />
<rect x="35" y="8" width="1" height="1" fill="#39ff14" />
<rect x="36" y="8" width="1" height="1" fill="#39ff14" />
<rect x="43" y="8" width="1" height="1" fill="#39ff14" />
<rect x="25" y="9" width="1" height="1" fill="#39ff14" />
<rect x="26" y="9" width="1" height="1" fill="#39ff14" />
<rect x="28" y="9" width="1" height="1" fill="#39ff14" />
<rect x="31" y="9" width="1" height="1" fill="#39ff14" />
<rect x="32" y="9" width="1" height="1" fill="#39ff14" />
<rect x="33" y="9" width="1" height="1" fill="#39ff14" />
<rect x="34" y="9" width="1" height="1" fill="#39ff14" />
<rect x="36" y="9" width="1" height="1" fill="#39ff14" />
<rect x="42" y="9" width="1" height="1" fill="#39ff14" />
<rect x="43" y="9" width="1" height="1" fill="#39ff14" />
<rect x="25" y="10" width="1" height="1" fill="#39ff14" />
<rect x="26" y="10" width="1" height="1" fill="#39ff14" />
<rect x="28" y="10" width="1" height="1" fill="#39ff14" />
<rect x="30" y="10" width="1" height="1" fill="#39ff14" />
<rect x="34" y="10" width="1" height="1" fill="#39ff14" />
<rect x="29" y="11" width="1" height="1" fill="#39ff14" />
<rect x="31" y="11" width="1" height="1" fill="#39ff14" />
<rect x="35" y="11" width="1" height="1" fill="#39ff14" />
<rect x="30" y="12" width="1" height="1" fill="#39ff14" />
<rect x="32" y="12" width="1" height="1" fill="#39ff14" />
<rect x="36" y="12" width="1" height="1" fill="#39ff14" />
<rect x="31" y="13" width="1" height="1" fill="#39ff14" />
<rect x="35" y="13" width="1" height="1" fill="#39ff14" />
<rect x="36" y="13" width="1" height="1" fill="#39ff14" />
<rect x="22" y="17" width="1" height="1" fill="#39ff14" />
<rect x="23" y="17" width="1" height="1" fill="#39ff14" />
<rect x="22" y="18" width="1" height="1" fill="#39ff14" />
<rect x="23" y="18" width="1" height="1" fill="#39ff14" />
<rect x="7" y="19" width="1" height="1" fill="#39ff14" />
<rect x="8" y="19" width="1" height="1" fill="#39ff14" />
<rect x="6" y="20" width="1" height="1" fill="#39ff14" />
<rect x="9" y="20" width="1" height="1" fill="#39ff14" />
<rect x="5" y="21" width="1" height="1" fill="#39ff14" />
<rect x="7" y="21" width="1" height="1" fill="#39ff14" />
<rect x="8" y="21" width="1" height="1" fill="#39ff14" />
<rect x="5" y="22" width="1" height="1" fill="#39ff14" />
<rect x="54" y="22" width="1" height="1" fill="#39ff14" />
<rect x="55" y="22" width="1" height="1" fill="#39ff14" />
<rect x="4" y="23" width="1" height="1" fill="#39ff14" />
<rect x="5" y="23" width="1" height="1" fill="#39ff14" />
<rect x="54" y="23" width="1" height="1" fill="#39ff14" />
<rect x="55" y="23" width="1" height="1" fill="#39ff14" />
<rect x="19" y="24" width="1" height="1" fill="#39ff14" />
<rect x="20" y="24" width="1" height="1" fill="#39ff14" />
<rect x="19" y="25" width="1" height="1" fill="#39ff14" />
<rect x="20" y="26" width="1" height="1" fill="#39ff14" />
<rect x="21" y="26" width="1" height="1" fill="#39ff14" />
<rect x="22" y="26" width="1" height="1" fill="#39ff14" />
<rect x="22" y="27" width="1" height="1" fill="#39ff14" />
<rect x="33" y="27" width="1" height="1" fill="#39ff14" />
<rect x="34" y="27" width="1" height="1" fill="#39ff14" />
<rect x="32" y="28" width="1" height="1" fill="#39ff14" />
<rect x="34" y="28" width="1" height="1" fill="#39ff14" />
<rect x="32" y="29" width="1" height="1" fill="#39ff14" />
<rect x="31" y="30" width="1" height="1" fill="#39ff14" />
<rect x="32" y="30" width="1" height="1" fill="#39ff14" />
<rect x="4" y="31" width="1" height="1" fill="#39ff14" />
<rect x="5" y="31" width="1" height="1" fill="#39ff14" />
<rect x="6" y="31" width="1" height="1" fill="#39ff14" />
<rect x="6" y="32" width="1" height="1" fill="#39ff14" />
<rect x="5" y="33" width="1" height="1" fill="#39ff14" />
</svg>