<?xml version="1.0" encoding="utf-8"?>
<svg xmlns="http://www.w3.org/2000/svg" width="68" height="68" viewBox="0 0 68 68">
<rect width="100%" height="100%" fill="transparent" />
<rect x="6" y="4" width="1" height="1" fill="#39ff14" />
<rect x="5" y="5" width="1" height="1" fill="#39ff14" />
<rect x="7" y="5" width="1" height="1" fill="#39ff14" />
<rect x="5" y="7" width="1" height="1" fill="#39ff14" />
<rect x="8" y="7" width="1" height="1" fill="#39ff14" />
<rect x="7" y="8" width="1" height="1" fill="#39ff14" />
<rect x="8" y="8" width="1" height="1" fill="#39ff14" />
<rect x="8" y="9" width="1" height="1" fill="#39ff14" />
<rect x="22" y="10" width="1" height="1" fill="#39ff14" />
<rect x="23" y="10" width="1" height="1" fill="#39ff14" />
<rect x="22" y="11" width="1" height="1" fill="#39ff14" />
<rect x="23" y="11" width="1" height="1" fill="#39ff14" />
<rect x="5" y="14" width="1" height="1" fill="#39ff14" />
<rect x="6" y="14" width="1" height="1" fill="#39ff14" />
<rect x="7" y="15" width="1" height="1" fill="#39ff14" />
<rect x="6" y="16" width="1" height="1" fill="#39ff14" />
<rect x="7" y="16" width="1" height="1" fill="#39ff14" />
<rect x="5" y="17" width="1" height="1" fill="#39ff14" />
<rect x="6" y="17" width="1" height="1" fill="#39ff14" />
<rect x="7" y="17" width="1" height="1" fill="#39ff14" />
<rect x="23" y="17" width="1" height="1" fill="#39ff14" />
<rect x="5" y="18" width="1" height="1" fill="#39ff14" />
<rect x="6" y="18" width="1" height="1" fill="#39ff14" />
<rect x="23" y="18" width="1" height="1" fill="#39ff14" />
<rect x="24" y="18" width="1" height="1" fill="#39ff14" />
<rect x="30" y="18" width="1" height="1" fill="#39ff14" />
<rect x="31" y="18" width="1" height="1" fill="#39ff14" />
<rect x="4" y="19" width="1" height="1" fill="#39ff14" />
<rect x="5" y="19" width="1" height="1" fill="#39ff14" />
<rect x="6" y="19" width="1" height="1" fill="#39ff14" />
<rect x="8" y="19" width="1" height="1" fill="#39ff14" />
<rect x="23" y="19" width="1" height="1" fill="#39ff14" />
<rect x="24" y="19" width="1" height="1" fill="#39ff14" />
<rect x="30" y="19" width="1" height="1" fill="#39ff14" />
<rect x="31" y="19" width="1" height="1" fill="#39ff14" />
<rect x="5" y="20" width="1" height="1" fill="#39ff14" />
<rect x="9" y="20" width="1" height="1" fill="#39ff14" />
<rect x="20" y="20" width="1" height="1" fill="#39ff14" />
<rect x="21" y="20" width="1" height="1" fill="#39ff14" />
<rect x="7" y="21" width="1" height="1" fill="#39ff14" />
<rect x="10" y="21" width="1" height="1" fill="#39ff14" />
<rect x="21" y="21" width="1" height="1" fill="#39ff14" />
<rect x="7" y="22" width="1" height="1" fill="#39ff14" />
<rect x="8" y="22" width="1" height="1" fill="#39ff14" />
<rect x="9" y="22" width="1" height="1" fill="#39ff14" />
<rect x="22" y="22" width="1" height="1" fill="#39ff14" />
<rect x="8" y="23" width="1" height="1" fill="#39ff14" />
<rect x="9" y="23" width="1" height="1" fill="#39ff14" />
<rect x="18" y="23" width="1" height="1" fill="#39ff14" />
<rect x="19" y="23" width="1" height="1" fill="#39ff14" />
<rect x="18" y="24" width="1" height="1" fill="#39ff14" />
<rect x="19" y="24" width="1" height="1" fill="#39ff14" />
<rect x="38" y="26" width="1" height="1" fill="#39ff14" />
<rect x="39" y="26" width="1" height="1" fill="#39ff14" />
<rect x="38" y="27" width="1" height="1" fill="#39ff14" />
<rect x="39" y="27" width="1" height="1" fill="#39ff14" />
<rect x="10" y="30" width="1" height="1" fill="#39ff14" />
<rect x="11" y="30" width="1" height="1" fill="#39ff14" />
<rect x="10" y="31" width="1" height="1" fill="#39ff14" />
<rect x="11" y="31" width="1" height="1" fill="#39ff14" />
<rect x="28" y="31" width="1" height="1" fill="#39ff14" />
<rect x="29" y="31" width="1" height="1" fill="#39ff14" />
<rect x="28" y="32" width="1" height="1" fill="#39ff14" />
<rect x="29" y="32" width="1" height="1" fill="#39ff14" />
<rect x="46" y="34" width="1" height="1" fill="#39ff14" />
<rect x="47" y="34" width="1" height="1" fill="#39ff14" />
<rect x="24" y="35" width="1" height="1" fill="#39ff14" />
<rect x="25" y="35" width="1" height="1" fill="#39ff14" />
<rect x="46" y="35" width="1" height="1" fill="#39ff14" />
<rect x="47" y="35" width="1" height="1" fill="#39ff14" />
<rect x="24" y="36" width="1" height="1" fill="#39ff14" />
<rect x="25" y="36" width="1" height="1" fill="#39ff14" />
<rect x="18" y="38" width="1" height="1" fill="#39ff14" />
<rect x="19" y="38" width="1" height="1" fill="#39ff14" />
<rect x="18" y="39" width="1" height="1" fill="#39ff14" />
<rect x="19" y="39" width="1" height="1" fill="#39ff14" />
<rect x="43" y="40" width="1" height="1" fill="#39ff14" />
<rect x="44" y="40" width="1" height="1" fill="#39ff14" />
<rect x="43" y="41" width="1" height="1" fill="#39ff14" />
<rect x="44" y="41" width="1" height="1" fill="#39ff14" />
<rect x="39" y="44" width="1" height="1" fill="#39ff14" />
<rect x="40" y="44" width="1" height="1" fill="#39ff14" />
<rect x="39" y="45" width="1" height="1" fill="#39ff14" />
<rect x="40" y="45" width="1" height="1" fill="#39ff14" />
<rect x="62" y="50" width="1" height="1" fill="#39ff14" />
<rect x="63" y="50" width="1" height="1" fill="#39ff14" />
<rect x="62" y="51" width="1" height="1" fill="#39ff14" />
<rect x="63" y="51" width="1" height="1" fill="#39ff14" />
<rect x="34" y="54" width="1" height="1" fill="#39ff14" />
<rect x="35" y="54" width="1" height="1" fill="#39ff14" />
<rect x="34" y="55" width="1" height="1" fill="#39ff14" />
<rect x="35" y="55" width="1" height="1" fill="#39ff14" />
<rect x="52" y="55" width="1" height="1" fill="#39ff14" />
<rect x="53" y="55" width="1" height="1" fill="#39ff14" />
<rect x="52" y="56" width="1" height="1" fill="#39ff14" />
<rect x="53" y="56" width="1" height="1" fill="#39ff14" />
<rect x="48" y="59" width="1" height="1" fill="#39ff14" />
<rect x="49" y="59" width="1" height="1" fill="#39ff14" />
<rect x="48" y="60" width="1" height="1" fill="#39ff14" />
<rect x="49" y="60" width="1" height="1" fill="#39ff14" />
<rect x="42" y="62" width="1" height="1" fill="#39ff14" />
<rect x="43" y="62" width="1" height="1" fill="#39ff14" />
<rect x="42" y="63" width="1" height="1" fill="#39ff14" />
<rect x="43" y="63" width="1" height="1" fill="#39ff14" />
</svg>