<?xml version="1.0" encoding="utf-8"?>
<svg xmlns="http://www.w3.org/2000/svg" width="74" height="83" viewBox="0 0 74 83">
<rect width="100%" height="100%" fill="transparent" />
<rect x="13" y="4" width="3" height="3" fill="#39ff14" />
<rect x="22" y="4" width="3" height="3" fill="#39ff14" />
<rect x="31" y="4" width="3" height="3" fill="#39ff14" />
<rect x="40" y="4" width="3" height="3" fill="#39ff14" />
<rect x="49" y="4" width="3" height="3" fill="#39ff14" />
<rect x="58" y="4" width="3" height="3" fill="#39ff14" />
<rect x="7" y="7" width="3" height="3" fill="#39ff14" />
<rect x="10" y="7" width="3" height="3" fill="#39ff14" />
<rect x="13" y="7" width="3" height="3" fill="#39ff14" />
<rect x="16" y="7" width="3" height="3" fill="#39ff14" />
<rect x="19" y="7" width="3" height="3" fill="#39ff14" />
<rect x="22" y="7" width="3" height="3" fill="#39ff14" />
<rect x="25" y="7" width="3" height="3" fill="#39ff14" />
<rect x="28" y="7" width="3" height="3" fill="#39ff14" />
<rect x="31" y="7" width="3" height="3" fill="#39ff14" />
<rect x="34" y="7" width="3" height="3" fill="#39ff14" />
<rect x="37" y="7" width="3" height="3" fill="#39ff14" />
<rect x="40" y="7" width="3" height="3" fill="#39ff14" />
<rect x="43" y="7" width="3" height="3" fill="#39ff14" />
<rect x="46" y="7" width="3" height="3" fill="#39ff14" />
<rect x="49" y="7" width="3" height="3" fill="#39ff14" />
<rect x="52" y="7" width="3" height="3" fill="#39ff14" />
<rect x="55" y="7" width="3" height="3" fill="#39ff14" />
<rect x="58" y="7" width="3" height="3" fill="#39ff14" />
<rect x="61" y="7" width="3" height="3" fill="#39ff14" />
<rect x="64" y="7" width="3" height="3" fill="#39ff14" />
<rect x="4" y="10" width="3" height="3" fill="#39ff14" />
<rect x="67" y="10" width="3" height="3" fill="#39ff14" />
<rect x="4" y="13" width="3" height="3" fill="#39ff14" />
<rect x="7" y="13" width="3" height="3" fill="#39ff14" />
<rect x="10" y="13" width="3" height="3" fill="#39ff14" />
<rect x="13" y="13" width="3" height="3" fill="#39ff14" />
<rect x="16" y="13" width="3" height="3" fill="#39ff14" />
<rect x="19" y="13" width="3" height="3" fill="#39ff14" />
<rect x="22" y="13" width="3" height="3" fill="#39ff14" />
<rect x="25" y="13" width="3" height="3" fill="#39ff14" />
<rect x="28" y="13" width="3" height="3" fill="#39ff14" />
<rect x="31" y="13" width="3" height="3" fill="#39ff14" />
<rect x="34" y="13" width="3" height="3" fill="#39ff14" />
<rect x="37" y="13" width="3" height="3" fill="#39ff14" />
<rect x="40" y="13" width="3" height="3" fill="#39ff14" />
<rect x="43" y="13" width="3" height="3" fill="#39ff14" />
<rect x="46" y="13" width="3" height="3" fill="#39ff14" />
<rect x="49" y="13" width="3" height="3" fill="#39ff14" />
<rect x="52" y="13" width="3" height="3" fill="#39ff14" />
<rect x="55" y="13" width="3" height="3" fill="#39ff14" />
<rect x="58" y="13" width="3" height="3" fill="#39ff14" />
<rect x="61" y="13" width="3" height="3" fill="#39ff14" />
<rect x="64" y="13" width="3" height="3" fill="#39ff14" />
<rect x="67" y="13" width="3" height="3" fill="#39ff14" />
<rect x="4" y="19" width="3" height="3" fill="#39ff14" />
<rect x="7" y="19" width="3" height="3" fill="#39ff14" />
<rect x="10" y="19" width="3" height="3" fill="#39ff14" />
<rect x="13" y="19" width="3" height="3" fill="#39ff14" />
<rect x="16" y="19" width="3" height="3" fill="#39ff14" />
<rect x="19" y="19" width="3" height="3" fill="#39ff14" />
<rect x="22" y="19" width="3" height="3" fill="#39ff14" />
<rect x="25" y="19" width="3" height="3" fill="#39ff14" />
<rect x="28" y="19" width="3" height="3" fill="#39ff14" />
<rect x="31" y="19" width="3" height="3" fill="#39ff14" />
<rect x="34" y="19" width="3" height="3" fill="#39ff14" />
<rect x="37" y="19" width="3" height="3" fill="#39ff14" />
<rect x="40" y="19" width="3" height="3" fill="#39ff14" />
<rect x="43" y="19" width="3" height="3" fill="#39ff14" />
<rect x="46" y="19" width="3" height="3" fill="#39ff14" />
<rect x="49" y="19" width="3" height="3" fill="#39ff14" />
<rect x="52" y="19" width="3" height="3" fill="#39ff14" />
<rect x="55" y="19" width="3" height="3" fill="#39ff14" />
<rect x="58" y="19" width="3" height="3" fill="#39ff14" />
<rect x="61" y="19" width="3" height="3" fill="#39ff14" />
<rect x="64" y="19" width="3" height="3" fill="#39ff14" />
<rect x="67" y="19" width="3" height="3" fill="#39ff14" />
<rect x="4" y="22" width="3" height="3" fill="#39ff14" />
<rect x="67" y="22" width="3" height="3" fill="#39ff14" />
<rect x="7" y="25" width="3" height="3" fill="#39ff14" />
<rect x="10" y="25" width="3" height="3" fill="#39ff14" />
<rect x="13" y="25" width="3" height="3" fill="#39ff14" />
<rect x="16" y="25" width="3" height="3" fill="#39ff14" />
<rect x="19" y="25" width="3" height="3" fill="#39ff14" />
<rect x="22" y="25" width="3" height="3" fill="#39ff14" />
<rect x="25" y="25" width="3" height="3" fill="#39ff14" />
<rect x="28" y="25" width="3" height="3" fill="#39ff14" />
<rect x="31" y="25" width="3" height="3" fill="#39ff14" />
<rect x="34" y="25" width="3" height="3" fill="#39ff14" />
<rect x="37" y="25" width="3" height="3" fill="#39ff14" />
<rect x="40" y="25" width="3" height="3" fill="#39ff14" />
<rect x="43" y="25" width="3" height="3" fill="#39ff14" />
<rect x="46" y="25" width="3" height="3" fill="#39ff14" />
<rect x="49" y="25" width="3" height="3" fill="#39ff14" />
<rect x="52" y="25" width="3" height="3" fill="#39ff14" />
<rect x="55" y="25" width="3" height="3" fill="#39ff14" />
<rect x="58" y="25" width="3" height="3" fill="#39ff14" />
<rect x="61" y="25" width="3" height="3" fill="#39ff14" />
<rect x="64" y="25" width="3" height="3" fill="#39ff14" />
<rect x="7" y="31" width="3" height="3" fill="#39ff14" />
<rect x="10" y="31" width="3" height="3" fill="#39ff14" />
<rect x="13" y="31" width="3" height="3" fill="#39ff14" />
<rect x="16" y="31" width="3" height="3" fill="#39ff14" />
<rect x="19" y="31" width="3" height="3" fill="#39ff14" />
<rect x="22" y="31" width="3" height="3" fill="#39ff14" />
<rect x="25" y="31" width="3" height="3" fill="#39ff14" />
<rect x="28" y="31" width="3" height="3" fill="#39ff14" />
<rect x="31" y="31" width="3" height="3" fill="#39ff14" />
<rect x="34" y="31" width="3" height="3" fill="#39ff14" />
<rect x="37" y="31" width="3" height="3" fill="#39ff14" />
<rect x="40" y="31" width="3" height="3" fill="#39ff14" />
<rect x="43" y="31" width="3" height="3" fill="#39ff14" />
<rect x="46" y="31" width="3" height="3" fill="#39ff14" />
<rect x="49" y="31" width="3" height="3" fill="#39ff14" />
<rect x="52" y="31" width="3" height="3" fill="#39ff14" />
<rect x="55" y="31" width="3" height="3" fill="#39ff14" />
<rect x="58" y="31" width="3" height="3" fill="#39ff14" />
<rect x="61" y="31" width="3" height="3" fill="#39ff14" />
<rect x="64" y="31" width="3" height="3" fill="#39ff14" />
<rect x="4" y="34" width="3" height="3" fill="#39ff14" />
<rect x="67" y="34" width="3" height="3" fill="#39ff14" />
<rect x="4" y="37" width="3" height="3" fill="#39ff14" />
<rect x="7" y="37" width="3" height="3" fill="#39ff14" />
<rect x="10" y="37" width="3" height="3" fill="#39ff14" />
<rect x="13" y="37" width="3" height="3" fill="#39ff14" />
<rect x="16" y="37" width="3" height="3" fill="#39ff14" />
<rect x="19" y="37" width="3" height="3" fill="#39ff14" />
<rect x="22" y="37" width="3" height="3" fill="#39ff14" />
<rect x="25" y="37" width="3" height="3" fill="#39ff14" />
<rect x="28" y="37" width="3" height="3" fill="#39ff14" />
<rect x="31" y="37" width="3" height="3" fill="#39ff14" />
<rect x="34" y="37" width="3" height="3" fill="#39ff14" />
<rect x="37" y="37" width="3" height="3" fill="#39ff14" />
<rect x="40" y="37" width="3" height="3" fill="#39ff14" />
<rect x="43" y="37" width="3" height="3" fill="#39ff14" />
<rect x="46" y="37" width="3" height="3" fill="#39ff14" />
<rect x="49" y="37" width="3" height="3" fill="#39ff14" />
<rect x="52" y="37" width="3" height="3" fill="#39ff14" />
<rect x="55" y="37" width="3" height="3" fill="#39ff14" />
<rect x="58" y="37" width="3" height="3" fill="#39ff14" />
<rect x="61" y="37" width="3" height="3" fill="#39ff14" />
<rect x="64" y="37" width="3" height="3" fill="#39ff14" />
<rect x="67" y="37" width="3" height="3" fill="#39ff14" />
<rect x="4" y="43" width="3" height="3" fill="#39ff14" />
<rect x="7" y="43" width="3" height="3" fill="#39ff14" />
<rect x="10" y="43" width="3" height="3" fill="#39ff14" />
<rect x="13" y="43" width="3" height="3" fill="#39ff14" />
<rect x="16" y="43" width="3" height="3" fill="#39ff14" />
<rect x="19" y="43" width="3" height="3" fill="#39ff14" />
<rect x="22" y="43" width="3" height="3" fill="#39ff14" />
<rect x="25" y="43" width="3" height="3" fill="#39ff14" />
<rect x="28" y="43" width="3" height="3" fill="#39ff14" />
<rect x="31" y="43" width="3" height="3" fill="#39ff14" />
<rect x="34" y="43" width="3" height="3" fill="#39ff14" />
<rect x="37" y="43" width="3" height="3" fill="#39ff14" />
<rect x="40" y="43" width="3" height="3" fill="#39ff14" />
<rect x="43" y="43" width="3" height="3" fill="#39ff14" />
<rect x="46" y="43" width="3" height="3" fill="#39ff14" />
<rect x="49" y="43" width="3" height="3" fill="#39ff14" />
<rect x="52" y="43" width="3" height="3" fill="#39ff14" />
<rect x="55" y="43" width="3" height="3" fill="#39ff14" />
<rect x="58" y="43" width="3" height="3" fill="#39ff14" />
<rect x="61" y="43" width="3" height="3" fill="#39ff14" />
<rect x="64" y="43" width="3" height="3" fill="#39ff14" />
<rect x="67" y="43" width="3" height="3" fill="#39ff14" />
<rect x="4" y="46" width="3" height="3" fill="#39ff14" />
<rect x="67" y="46" width="3" height="3" fill="#39ff14" />
<rect x="7" y="49" width="3" height="3" fill="#39ff14" />
<rect x="10" y="49" width="3" height="3" fill="#39ff14" />
<rect x="13" y="49" width="3" height="3" fill="#39ff14" />
<rect x="16" y="49" width="3" height="3" fill="#39ff14" />
<rect x="19" y="49" width="3" height="3" fill="#39ff14" />
<rect x="22" y="49" width="3" height="3" fill="#39ff14" />
<rect x="25" y="49" width="3" height="3" fill="#39ff14" />
<rect x="28" y="49" width="3" height="3" fill="#39ff14" />
<rect x="31" y="49" width="3" height="3" fill="#39ff14" />
<rect x="34" y="49" width="3" height="3" fill="#39ff14" />
<rect x="37" y="49" width="3" height="3" fill="#39ff14" />
<rect x="40" y="49" width="3" height="3" fill="#39ff14" />
<rect x="43" y="49" width="3" height="3" fill="#39ff14" />
<rect x="46" y="49" width="3" height="3" fill="#39ff14" />
<rect x="49" y="49" width="3" height="3" fill="#39ff14" />
<rect x="52" y="49" width="3" height="3" fill="#39ff14" />
<rect x="55" y="49" width="3" height="3" fill="#39ff14" />
<rect x="58" y="49" width="3" height="3" fill="#39ff14" />
<rect x="61" y="49" width="3" height="3" fill="#39ff14" />
<rect x="64" y="49" width="3" height="3" fill="#39ff14" />
<rect x="7" y="55" width="3" height="3" fill="#39ff14" />
<rect x="10" y="55" width="3" height="3" fill="#39ff14" />
<rect x="13" y="55" width="3" height="3" fill="#39ff14" />
<rect x="16" y="55" width="3" height="3" fill="#39ff14" />
<rect x="19" y="55" width="3" height="3" fill="#39ff14" />
<rect x="22" y="55" width="3" height="3" fill="#39ff14" />
<rect x="25" y="55" width="3" height="3" fill="#39ff14" />
<rect x="28" y="55" width="3" height="3" fill="#39ff14" />
<rect x="31" y="55" width="3" height="3" fill="#39ff14" />
<rect x="34" y="55" width="3" height="3" fill="#39ff14" />
<rect x="37" y="55" width="3" height="3" fill="#39ff14" />
<rect x="40" y="55" width="3" height="3" fill="#39ff14" />
<rect x="43" y="55" width="3" height="3" fill="#39ff14" />
<rect x="46" y="55" width="3" height="3" fill="#39ff14" />
<rect x="49" y="55" width="3" height="3" fill="#39ff14" />
<rect x="52" y="55" width="3" height="3" fill="#39ff14" />
<rect x="55" y="55" width="3" height="3" fill="#39ff14" />
<rect x="58" y="55" width="3" height="3" fill="#39ff14" />
<rect x="61" y="55" width="3" height="3" fill="#39ff14" />
<rect x="64" y="55" width="3" height="3" fill="#39ff14" />
<rect x="4" y="58" width="3" height="3" fill="#39ff14" />
<rect x="67" y="58" width="3" height="3" fill="#39ff14" />
<rect x="4" y="61" width="3" height="3" fill="#39ff14" />
<rect x="7" y="61" width="3" height="3" fill="#39ff14" />
<rect x="10" y="61" width="3" height="3" fill="#39ff14" />
<rect x="13" y="61" width="3" height="3" fill="#39ff14" />
<rect x="16" y="61" width="3" height="3" fill="#39ff14" />
<rect x="19" y="61" width="3" height="3" fill="#39ff14" />
<rect x="22" y="61" width="3" height="3" fill="#39ff14" />
<rect x="25" y="61" width="3" height="3" fill="#39ff14" />
<rect x="28" y="61" width="3" height="3" fill="#39ff14" />
<rect x="31" y="61" width="3" height="3" fill="#39ff14" />
<rect x="34" y="61" width="3" height="3" fill="#39ff14" />
<rect x="37" y="61" width="3" height="3" fill="#39ff14" />
<rect x="40" y="61" width="3" height="3" fill="#39ff14" />
<rect x="43" y="61" width="3" height="3" fill="#39ff14" />
<rect x="46" y="61" width="3" height="3" fill="#39ff14" />
<rect x="49" y="61" width="3" height="3" fill="#39ff14" />
<rect x="52" y="61" width="3" height="3" fill="#39ff14" />
<rect x="55" y="61" width="3" height="3" fill="#39ff14" />
<rect x="58" y="61" width="3" height="3" fill="#39ff14" />
<rect x="61" y="61" width="3" height="3" fill="#39ff14" />
<rect x="64" y="61" width="3" height="3" fill="#39ff14" />
<rect x="67" y="61" width="3" height="3" fill="#39ff14" />
<rect x="4" y="67" width="3" height="3" fill="#39ff14" />
<rect x="7" y="67" width="3" height="3" fill="#39ff14" />
<rect x="10" y="67" width="3" height="3" fill="#39ff14" />
<rect x="13" y="67" width="3" height="3" fill="#39ff14" />
<rect x="16" y="67" width="3" height="3" fill="#39ff14" />
<rect x="19" y="67" width="3" height="3" fill="#39ff14" />
<rect x="22" y="67" width="3" height="3" fill="#39ff14" />
<rect x="25" y="67" width="3" height="3" fill="#39ff14" />
<rect x="28" y="67" width="3" height="3" fill="#39ff14" />
<rect x="31" y="67" width="3" height="3" fill="#39ff14" />
<rect x="34" y="67" width="3" height="3" fill="#39ff14" />
<rect x="37" y="67" width="3" height="3" fill="#39ff14" />
<rect x="40" y="67" width="3" height="3" fill="#39ff14" />
<rect x="43" y="67" width="3" height="3" fill="#39ff14" />
<rect x="46" y="67" width="3" height="3" fill="#39ff14" />
<rect x="49" y="67" width="3" height="3" fill="#39ff14" />
<rect x="52" y="67" width="3" height="3" fill="#39ff14" />
<rect x="55" y="67" width="3" height="3" fill="#39ff14" />
<rect x="58" y="67" width="3" height="3" fill="#39ff14" />
<rect x="61" y="67" width="3" height="3" fill="#39ff14" />
<rect x="64" y="67" width="3" height="3" fill="#39ff14" />
<rect x="67" y="67" width="3" height="3" fill="#39ff14" />
<rect x="4" y="70" width="3" height="3" fill="#39ff14" />
<rect x="67" y="70" width="3" height="3" fill="#39ff14" />
<rect x="7" y="73" width="3" height="3" fill="#39ff14" />
<rect x="10" y="73" width="3" height="3" fill="#39ff14" />
<rect x="13" y="73" width="3" height="3" fill="#39ff14" />
<rect x="16" y="73" width="3" height="3" fill="#39ff14" />
<rect x="19" y="73" width="3" height="3" fill="#39ff14" />
<rect x="22" y="73" width="3" height="3" fill="#39ff14" />
<rect x="25" y="73" width="3" height="3" fill="#39ff14" />
<rect x="28" y="73" width="3" height="3" fill="#39ff14" />
<rect x="31" y="73" width="3" height="3" fill="#39ff14" />
<rect x="34" y="73" width="3" height="3" fill="#39ff14" />
<rect x="37" y="73" width="3" height="3" fill="#39ff14" />
<rect x="40" y="73" width="3" height="3" fill="#39ff14" />
<rect x="43" y="73" width="3" height="3" fill="#39ff14" />
<rect x="46" y="73" width="3" height="3" fill="#39ff14" />
<rect x="49" y="73" width="3" height="3" fill="#39ff14" />
<rect x="52" y="73" width="3" height="3" fill="#39ff14" />
<rect x="55" y="73" width="3" height="3" fill="#39ff14" />
<rect x="58" y="73" width="3" height="3" fill="#39ff14" />
<rect x="61" y="73" width="3" height="3" fill="#39ff14" />
<rect x="64" y="73" width="3" height="3" fill="#39ff14" />
<rect x="13" y="76" width="3" height="3" fill="#39ff14" />
<rect x="22" y="76" width="3" height="3" fill="#39ff14" />
<rect x="31" y="76" width="3" height="3" fill="#39ff14" />
<rect x="40" y="76" width="3" height="3" fill="#39ff14" />
<rect x="49" y="76" width="3" height="3" fill="#39ff14" />
<rect x="58" y="76" width="3" height="3" fill="#39ff14" />
</svg>