<?xml version="1.0" encoding="utf-8"?>
<svg xmlns="http://www.w3.org/2000/svg" width="86" height="47" viewBox="0 0 86 47">
<rect width="100%" height="100%" fill="transparent" />
<rect x="46" y="4" width="3" height="3" fill="#39ff14" />
<rect x="13" y="7" width="3" height="3" fill="#39ff14" />
<rect x="16" y="7" width="3" height="3" fill="#39ff14" />
<rect x="40" y="7" width="3" height="3" fill="#39ff14" />
<rect x="43" y="7" width="3" height="3" fill="#39ff14" />
<rect x="49" y="7" width="3" height="3" fill="#39ff14" />
<rect x="52" y="7" width="3" height="3" fill="#39ff14" />
<rect x="13" y="10" width="3" height="3" fill="#39ff14" />
<rect x="16" y="10" width="3" height="3" fill="#39ff14" />
<rect x="40" y="10" width="3" height="3" fill="#39ff14" />
<rect x="43" y="10" width="3" height="3" fill="#39ff14" />
<rect x="49" y="10" width="3" height="3" fill="#39ff14" />
<rect x="52" y="10" width="3" height="3" fill="#39ff14" />
<rect x="70" y="10" width="3" height="3" fill="#39ff14" />
<rect x="76" y="10" width="3" height="3" fill="#39ff14" />
<rect x="79" y="10" width="3" height="3" fill="#39ff14" />
<rect x="70" y="13" width="3" height="3" fill="#39ff14" />
<rect x="73" y="13" width="3" height="3" fill="#39ff14" />
<rect x="79" y="13" width="3" height="3" fill="#39ff14" />
<rect x="10" y="19" width="3" height="3" fill="#39ff14" />
<rect x="13" y="19" width="3" height="3" fill="#39ff14" />
<rect x="13" y="22" width="3" height="3" fill="#39ff14" />
<rect x="4" y="25" width="3" height="3" fill="#39ff14" />
<rect x="7" y="25" width="3" height="3" fill="#39ff14" />
<rect x="10" y="25" width="3" height="3" fill="#39ff14" />
<rect x="4" y="28" width="3" height="3" fill="#39ff14" />
<rect x="46" y="28" width="3" height="3" fill="#39ff14" />
<rect x="43" y="31" width="3" height="3" fill="#39ff14" />
<rect x="49" y="31" width="3" height="3" fill="#39ff14" />
<rect x="55" y="31" width="3" height="3" fill="#39ff14" />
<rect x="61" y="31" width="3" height="3" fill="#39ff14" />
<rect x="64" y="31" width="3" height="3" fill="#39ff14" />
<rect x="40" y="34" width="3" height="3" fill="#39ff14" />
<rect x="46" y="34" width="3" height="3" fill="#39ff14" />
<rect x="49" y="34" width="3" height="3" fill="#39ff14" />
<rect x="55" y="34" width="3" height="3" fill="#39ff14" />
<rect x="58" y="34" width="3" height="3" fill="#39ff14" />
<rect x="64" y="34" width="3" height="3" fill="#39ff14" />
<rect x="40" y="37" width="3" height="3" fill="#39ff14" />
<rect x="37" y="40" width="3" height="3" fill="#39ff14" />
<rect x="40" y="40" width="3" height="3" fill="#39ff14" />
</svg>