<?xml version="1.0" encoding="utf-8"?>
<svg xmlns="http://www.w3.org/2000/svg" width="92" height="41" viewBox="0 0 92 41">
<rect width="100%" height="100%" fill="transparent" />
<rect x="25" y="4" width="3" height="3" fill="#39ff14" />
<rect x="70" y="4" width="3" height="3" fill="#39ff14" />
<rect x="13" y="7" width="3" height="3" fill="#39ff14" />
<rect x="16" y="7" width="3" height="3" fill="#39ff14" />
<rect x="28" y="7" width="3" height="3" fill="#39ff14" />
<rect x="58" y="7" width="3" height="3" fill="#39ff14" />
<rect x="61" y="7" width="3" height="3" fill="#39ff14" />
<rect x="73" y="7" width="3" height="3" fill="#39ff14" />
<rect x="13" y="10" width="3" height="3" fill="#39ff14" />
<rect x="31" y="10" width="3" height="3" fill="#39ff14" />
<rect x="37" y="10" width="3" height="3" fill="#39ff14" />
<rect x="40" y="10" width="3" height="3" fill="#39ff14" />
<rect x="58" y="10" width="3" height="3" fill="#39ff14" />
<rect x="76" y="10" width="3" height="3" fill="#39ff14" />
<rect x="4" y="13" width="3" height="3" fill="#39ff14" />
<rect x="7" y="13" width="3" height="3" fill="#39ff14" />
<rect x="13" y="13" width="3" height="3" fill="#39ff14" />
<rect x="19" y="13" width="3" height="3" fill="#39ff14" />
<rect x="40" y="13" width="3" height="3" fill="#39ff14" />
<rect x="61" y="13" width="3" height="3" fill="#39ff14" />
<rect x="64" y="13" width="3" height="3" fill="#39ff14" />
<rect x="67" y="13" width="3" height="3" fill="#39ff14" />
<rect x="73" y="13" width="3" height="3" fill="#39ff14" />
<rect x="79" y="13" width="3" height="3" fill="#39ff14" />
<rect x="82" y="13" width="3" height="3" fill="#39ff14" />
<rect x="4" y="16" width="3" height="3" fill="#39ff14" />
<rect x="7" y="16" width="3" height="3" fill="#39ff14" />
<rect x="13" y="16" width="3" height="3" fill="#39ff14" />
<rect x="19" y="16" width="3" height="3" fill="#39ff14" />
<rect x="22" y="16" width="3" height="3" fill="#39ff14" />
<rect x="28" y="16" width="3" height="3" fill="#39ff14" />
<rect x="31" y="16" width="3" height="3" fill="#39ff14" />
<rect x="34" y="16" width="3" height="3" fill="#39ff14" />
<rect x="37" y="16" width="3" height="3" fill="#39ff14" />
<rect x="76" y="16" width="3" height="3" fill="#39ff14" />
<rect x="79" y="16" width="3" height="3" fill="#39ff14" />
<rect x="85" y="16" width="3" height="3" fill="#39ff14" />
<rect x="13" y="19" width="3" height="3" fill="#39ff14" />
<rect x="19" y="19" width="3" height="3" fill="#39ff14" />
<rect x="55" y="19" width="3" height="3" fill="#39ff14" />
<rect x="58" y="19" width="3" height="3" fill="#39ff14" />
<rect x="61" y="19" width="3" height="3" fill="#39ff14" />
<rect x="64" y="19" width="3" height="3" fill="#39ff14" />
<rect x="67" y="19" width="3" height="3" fill="#39ff14" />
<rect x="70" y="19" width="3" height="3" fill="#39ff14" />
<rect x="85" y="19" width="3" height="3" fill="#39ff14" />
<rect x="13" y="22" width="3" height="3" fill="#39ff14" />
<rect x="19" y="22" width="3" height="3" fill="#39ff14" />
<rect x="25" y="22" width="3" height="3" fill="#39ff14" />
<rect x="28" y="22" width="3" height="3" fill="#39ff14" />
<rect x="31" y="22" width="3" height="3" fill="#39ff14" />
<rect x="55" y="22" width="3" height="3" fill="#39ff14" />
<rect x="70" y="22" width="3" height="3" fill="#39ff14" />
<rect x="73" y="22" width="3" height="3" fill="#39ff14" />
<rect x="76" y="22" width="3" height="3" fill="#39ff14" />
<rect x="79" y="22" width="3" height="3" fill="#39ff14" />
<rect x="82" y="22" width="3" height="3" fill="#39ff14" />
<rect x="16" y="25" width="3" height="3" fill="#39ff14" />
<rect x="22" y="25" width="3" height="3" fill="#39ff14" />
<rect x="34" y="25" width="3" height="3" fill="#39ff14" />
<rect x="64" y="25" width="3" height="3" fill="#39ff14" />
<rect x="22" y="28" width="3" height="3" fill="#39ff14" />
<rect x="31" y="28" width="3" height="3" fill="#39ff14" />
<rect x="34" y="28" width="3" height="3" fill="#39ff14" />
<rect x="61" y="28" width="3" height="3" fill="#39ff14" />
<rect x="67" y="28" width="3" height="3" fill="#39ff14" />
<rect x="70" y="28" width="3" height="3" fill="#39ff14" />
<rect x="73" y="28" width="3" height="3" fill="#39ff14" />
<rect x="76" y="28" width="3" height="3" fill="#39ff14" />
<rect x="22" y="31" width="3" height="3" fill="#39ff14" />
<rect x="25" y="31" width="3" height="3" fill="#39ff14" />
<rect x="61" y="31" width="3" height="3" fill="#39ff14" />
<rect x="67" y="31" width="3" height="3" fill="#39ff14" />
<rect x="76" y="31" width="3" height="3" fill="#39ff14" />
<rect x="64" y="34" width="3" height="3" fill="#39ff14" />
</svg>