<?xml version="1.0" encoding="utf-8"?>
<svg xmlns="http://www.w3.org/2000/svg" width="59" height="17" viewBox="0 0 59 17">
<rect width="100%" height="100%" fill="transparent" />
<rect x="26" y="4" width="1" height="1" fill="#39ff14" />
<rect x="50" y="4" width="1" height="1" fill="#39ff14" />
<rect x="26" y="5" width="1" height="1" fill="#39ff14" />
<rect x="50" y="5" width="1" height="1" fill="#39ff14" />
<rect x="13" y="6" width="1" height="1" fill="#39ff14" />
<rect x="14" y="6" width="1" height="1" fill="#39ff14" />
<rect x="15" y="6" width="1" height="1" fill="#39ff14" />
<rect x="26" y="6" width="1" height="1" fill="#39ff14" />
<rect x="37" y="6" width="1" height="1" fill="#39ff14" />
<rect x="38" y="6" width="1" height="1" fill="#39ff14" />
<rect x="39" y="6" width="1" height="1" fill="#39ff14" />
<rect x="50" y="6" width="1" height="1" fill="#39ff14" />
<rect x="5" y="7" width="1" height="1" fill="#39ff14" />
<rect x="6" y="7" width="1" height="1" fill="#39ff14" />
<rect x="4" y="8" width="1" height="1" fill="#39ff14" />
<rect x="5" y="8" width="1" height="1" fill="#39ff14" />
<rect x="6" y="8" width="1" height="1" fill="#39ff14" />
<rect x="11" y="8" width="1" height="1" fill="#39ff14" />
<rect x="17" y="8" width="1" height="1" fill="#39ff14" />
<rect x="22" y="8" width="1" height="1" fill="#39ff14" />
<rect x="23" y="8" width="1" height="1" fill="#39ff14" />
<rect x="24" y="8" width="1" height="1" fill="#39ff14" />
<rect x="28" y="8" width="1" height="1" fill="#39ff14" />
<rect x="29" y="8" width="1" height="1" fill="#39ff14" />
<rect x="30" y="8" width="1" height="1" fill="#39ff14" />
<rect x="35" y="8" width="1" height="1" fill="#39ff14" />
<rect x="41" y="8" width="1" height="1" fill="#39ff14" />
<rect x="46" y="8" width="1" height="1" fill="#39ff14" />
<rect x="47" y="8" width="1" height="1" fill="#39ff14" />
<rect x="48" y="8" width="1" height="1" fill="#39ff14" />
<rect x="52" y="8" width="1" height="1" fill="#39ff14" />
<rect x="53" y="8" width="1" height="1" fill="#39ff14" />
<rect x="54" y="8" width="1" height="1" fill="#39ff14" />
<rect x="5" y="9" width="1" height="1" fill="#39ff14" />
<rect x="6" y="9" width="1" height="1" fill="#39ff14" />
<rect x="11" y="9" width="1" height="1" fill="#39ff14" />
<rect x="17" y="9" width="1" height="1" fill="#39ff14" />
<rect x="35" y="9" width="1" height="1" fill="#39ff14" />
<rect x="41" y="9" width="1" height="1" fill="#39ff14" />
<rect x="11" y="10" width="1" height="1" fill="#39ff14" />
<rect x="17" y="10" width="1" height="1" fill="#39ff14" />
<rect x="26" y="10" width="1" height="1" fill="#39ff14" />
<rect x="35" y="10" width="1" height="1" fill="#39ff14" />
<rect x="41" y="10" width="1" height="1" fill="#39ff14" />
<rect x="50" y="10" width="1" height="1" fill="#39ff14" />
<rect x="26" y="11" width="1" height="1" fill="#39ff14" />
<rect x="50" y="11" width="1" height="1" fill="#39ff14" />
<rect x="13" y="12" width="1" height="1" fill="#39ff14" />
<rect x="14" y="12" width="1" height="1" fill="#39ff14" />
<rect x="15" y="12" width="1" height="1" fill="#39ff14" />
<rect x="26" y="12" width="1" height="1" fill="#39ff14" />
<rect x="37" y="12" width="1" height="1" fill="#39ff14" />
<rect x="38" y="12" width="1" height="1" fill="#39ff14" />
<rect x="39" y="12" width="1" height="1" fill="#39ff14" />
<rect x="50" y="12" width="1" height="1" fill="#39ff14" />
</svg>