<?xml version="1.0" encoding="utf-8"?>
<svg xmlns="http://www.w3.org/2000/svg" width="92" height="78" viewBox="0 0 92 78">
<rect width="100%" height="100%" fill="transparent" />
<rect x="11" y="4" width="7" height="7" fill="#39ff14" />
<rect x="18" y="4" width="7" height="7" fill="#39ff14" />
<rect x="25" y="4" width="7" height="7" fill="#39ff14" />
<rect x="81" y="4" width="7" height="7" fill="#39ff14" />
<rect x="11" y="11" width="7" height="7" fill="#39ff14" />
<rect x="18" y="11" width="7" height="7" fill="#39ff14" />
<rect x="39" y="11" width="7" height="7" fill="#39ff14" />
<rect x="53" y="11" width="7" height="7" fill="#39ff14" />
<rect x="60" y="11" width="7" height="7" fill="#39ff14" />
<rect x="74" y="11" width="7" height="7" fill="#39ff14" />
<rect x="81" y="11" width="7" height="7" fill="#39ff14" />
<rect x="25" y="18" width="7" height="7" fill="#39ff14" />
<rect x="32" y="18" width="7" height="7" fill="#39ff14" />
<rect x="39" y="18" width="7" height="7" fill="#39ff14" />
<rect x="74" y="18" width="7" height="7" fill="#39ff14" />
<rect x="11" y="25" width="7" height="7" fill="#39ff14" />
<rect x="32" y="25" width="7" height="7" fill="#39ff14" />
<rect x="46" y="25" width="7" height="7" fill="#39ff14" />
<rect x="74" y="25" width="7" height="7" fill="#39ff14" />
<rect x="4" y="32" width="7" height="7" fill="#39ff14" />
<rect x="39" y="32" width="7" height="7" fill="#39ff14" />
<rect x="74" y="32" width="7" height="7" fill="#39ff14" />
<rect x="4" y="39" width="7" height="7" fill="#39ff14" />
<rect x="39" y="39" width="7" height="7" fill="#39ff14" />
<rect x="74" y="39" width="7" height="7" fill="#39ff14" />
<rect x="11" y="46" width="7" height="7" fill="#39ff14" />
<rect x="32" y="46" width="7" height="7" fill="#39ff14" />
<rect x="46" y="46" width="7" height="7" fill="#39ff14" />
<rect x="74" y="46" width="7" height="7" fill="#39ff14" />
<rect x="25" y="53" width="7" height="7" fill="#39ff14" />
<rect x="32" y="53" width="7" height="7" fill="#39ff14" />
<rect x="39" y="53" width="7" height="7" fill="#39ff14" />
<rect x="74" y="53" width="7" height="7" fill="#39ff14" />
<rect x="11" y="60" width="7" height="7" fill="#39ff14" />
<rect x="18" y="60" width="7" height="7" fill="#39ff14" />
<rect x="39" y="60" width="7" height="7" fill="#39ff14" />
<rect x="53" y="60" width="7" height="7" fill="#39ff14" />
<rect x="60" y="60" width="7" height="7" fill="#39ff14" />
<rect x="74" y="60" width="7" height="7" fill="#39ff14" />
<rect x="81" y="60" width="7" height="7" fill="#39ff14" />
<rect x="11" y="67" width="7" height="7" fill="#39ff14" />
<rect x="18" y="67" width="7" height="7" fill="#39ff14" />
<rect x="25" y="67" width="7" height="7" fill="#39ff14" />
<rect x="81" y="67" width="7" height="7" fill="#39ff14" />
</svg>