<?xml version="1.0" encoding="utf-8"?>
<svg xmlns="http://www.w3.org/2000/svg" width="70" height="64" viewBox="0 0 70 64">
<rect width="100%" height="100%" fill="transparent" />
<rect x="22" y="4" width="2" height="2" fill="#39ff14" />
<rect x="26" y="4" width="2" height="2" fill="#39ff14" />
<rect x="38" y="4" width="2" height="2" fill="#39ff14" />
<rect x="46" y="4" width="2" height="2" fill="#39ff14" />
<rect x="58" y="4" width="2" height="2" fill="#39ff14" />
<rect x="62" y="4" width="2" height="2" fill="#39ff14" />
<rect x="20" y="6" width="2" height="2" fill="#39ff14" />
<rect x="28" y="6" width="2" height="2" fill="#39ff14" />
<rect x="38" y="6" width="2" height="2" fill="#39ff14" />
<rect x="46" y="6" width="2" height="2" fill="#39ff14" />
<rect x="56" y="6" width="2" height="2" fill="#39ff14" />
<rect x="64" y="6" width="2" height="2" fill="#39ff14" />
<rect x="22" y="8" width="2" height="2" fill="#39ff14" />
<rect x="38" y="8" width="2" height="2" fill="#39ff14" />
<rect x="46" y="8" width="2" height="2" fill="#39ff14" />
<rect x="62" y="8" width="2" height="2" fill="#39ff14" />
<rect x="26" y="10" width="2" height="2" fill="#39ff14" />
<rect x="28" y="10" width="2" height="2" fill="#39ff14" />
<rect x="32" y="10" width="2" height="2" fill="#39ff14" />
<rect x="34" y="10" width="2" height="2" fill="#39ff14" />
<rect x="38" y="10" width="2" height="2" fill="#39ff14" />
<rect x="46" y="10" width="2" height="2" fill="#39ff14" />
<rect x="50" y="10" width="2" height="2" fill="#39ff14" />
<rect x="52" y="10" width="2" height="2" fill="#39ff14" />
<rect x="56" y="10" width="2" height="2" fill="#39ff14" />
<rect x="58" y="10" width="2" height="2" fill="#39ff14" />
<rect x="38" y="12" width="2" height="2" fill="#39ff14" />
<rect x="46" y="12" width="2" height="2" fill="#39ff14" />
<rect x="24" y="14" width="2" height="2" fill="#39ff14" />
<rect x="32" y="14" width="2" height="2" fill="#39ff14" />
<rect x="52" y="14" width="2" height="2" fill="#39ff14" />
<rect x="60" y="14" width="2" height="2" fill="#39ff14" />
<rect x="20" y="16" width="2" height="2" fill="#39ff14" />
<rect x="24" y="16" width="2" height="2" fill="#39ff14" />
<rect x="60" y="16" width="2" height="2" fill="#39ff14" />
<rect x="64" y="16" width="2" height="2" fill="#39ff14" />
<rect x="20" y="20" width="2" height="2" fill="#39ff14" />
<rect x="60" y="20" width="2" height="2" fill="#39ff14" />
<rect x="18" y="22" width="2" height="2" fill="#39ff14" />
<rect x="20" y="22" width="2" height="2" fill="#39ff14" />
<rect x="58" y="22" width="2" height="2" fill="#39ff14" />
<rect x="60" y="22" width="2" height="2" fill="#39ff14" />
<rect x="18" y="24" width="2" height="2" fill="#39ff14" />
<rect x="58" y="24" width="2" height="2" fill="#39ff14" />
<rect x="14" y="26" width="2" height="2" fill="#39ff14" />
<rect x="20" y="26" width="2" height="2" fill="#39ff14" />
<rect x="54" y="26" width="2" height="2" fill="#39ff14" />
<rect x="60" y="26" width="2" height="2" fill="#39ff14" />
<rect x="4" y="28" width="2" height="2" fill="#39ff14" />
<rect x="14" y="28" width="2" height="2" fill="#39ff14" />
<rect x="44" y="28" width="2" height="2" fill="#39ff14" />
<rect x="54" y="28" width="2" height="2" fill="#39ff14" />
<rect x="4" y="30" width="2" height="2" fill="#39ff14" />
<rect x="6" y="30" width="2" height="2" fill="#39ff14" />
<rect x="8" y="30" width="2" height="2" fill="#39ff14" />
<rect x="10" y="30" width="2" height="2" fill="#39ff14" />
<rect x="14" y="30" width="2" height="2" fill="#39ff14" />
<rect x="16" y="30" width="2" height="2" fill="#39ff14" />
<rect x="20" y="30" width="2" height="2" fill="#39ff14" />
<rect x="22" y="30" width="2" height="2" fill="#39ff14" />
<rect x="24" y="30" width="2" height="2" fill="#39ff14" />
<rect x="44" y="30" width="2" height="2" fill="#39ff14" />
<rect x="46" y="30" width="2" height="2" fill="#39ff14" />
<rect x="48" y="30" width="2" height="2" fill="#39ff14" />
<rect x="50" y="30" width="2" height="2" fill="#39ff14" />
<rect x="54" y="30" width="2" height="2" fill="#39ff14" />
<rect x="56" y="30" width="2" height="2" fill="#39ff14" />
<rect x="60" y="30" width="2" height="2" fill="#39ff14" />
<rect x="62" y="30" width="2" height="2" fill="#39ff14" />
<rect x="64" y="30" width="2" height="2" fill="#39ff14" />
<rect x="4" y="32" width="2" height="2" fill="#39ff14" />
<rect x="6" y="32" width="2" height="2" fill="#39ff14" />
<rect x="8" y="32" width="2" height="2" fill="#39ff14" />
<rect x="12" y="32" width="2" height="2" fill="#39ff14" />
<rect x="14" y="32" width="2" height="2" fill="#39ff14" />
<rect x="18" y="32" width="2" height="2" fill="#39ff14" />
<rect x="20" y="32" width="2" height="2" fill="#39ff14" />
<rect x="22" y="32" width="2" height="2" fill="#39ff14" />
<rect x="24" y="32" width="2" height="2" fill="#39ff14" />
<rect x="44" y="32" width="2" height="2" fill="#39ff14" />
<rect x="46" y="32" width="2" height="2" fill="#39ff14" />
<rect x="48" y="32" width="2" height="2" fill="#39ff14" />
<rect x="52" y="32" width="2" height="2" fill="#39ff14" />
<rect x="54" y="32" width="2" height="2" fill="#39ff14" />
<rect x="58" y="32" width="2" height="2" fill="#39ff14" />
<rect x="60" y="32" width="2" height="2" fill="#39ff14" />
<rect x="62" y="32" width="2" height="2" fill="#39ff14" />
<rect x="64" y="32" width="2" height="2" fill="#39ff14" />
<rect x="14" y="34" width="2" height="2" fill="#39ff14" />
<rect x="24" y="34" width="2" height="2" fill="#39ff14" />
<rect x="54" y="34" width="2" height="2" fill="#39ff14" />
<rect x="64" y="34" width="2" height="2" fill="#39ff14" />
<rect x="8" y="36" width="2" height="2" fill="#39ff14" />
<rect x="14" y="36" width="2" height="2" fill="#39ff14" />
<rect x="48" y="36" width="2" height="2" fill="#39ff14" />
<rect x="54" y="36" width="2" height="2" fill="#39ff14" />
<rect x="10" y="38" width="2" height="2" fill="#39ff14" />
<rect x="50" y="38" width="2" height="2" fill="#39ff14" />
<rect x="8" y="40" width="2" height="2" fill="#39ff14" />
<rect x="10" y="40" width="2" height="2" fill="#39ff14" />
<rect x="48" y="40" width="2" height="2" fill="#39ff14" />
<rect x="50" y="40" width="2" height="2" fill="#39ff14" />
<rect x="8" y="42" width="2" height="2" fill="#39ff14" />
<rect x="48" y="42" width="2" height="2" fill="#39ff14" />
<rect x="4" y="46" width="2" height="2" fill="#39ff14" />
<rect x="8" y="46" width="2" height="2" fill="#39ff14" />
<rect x="44" y="46" width="2" height="2" fill="#39ff14" />
<rect x="48" y="46" width="2" height="2" fill="#39ff14" />
<rect x="8" y="48" width="2" height="2" fill="#39ff14" />
<rect x="16" y="48" width="2" height="2" fill="#39ff14" />
<rect x="36" y="48" width="2" height="2" fill="#39ff14" />
<rect x="44" y="48" width="2" height="2" fill="#39ff14" />
<rect x="22" y="50" width="2" height="2" fill="#39ff14" />
<rect x="30" y="50" width="2" height="2" fill="#39ff14" />
<rect x="10" y="52" width="2" height="2" fill="#39ff14" />
<rect x="12" y="52" width="2" height="2" fill="#39ff14" />
<rect x="16" y="52" width="2" height="2" fill="#39ff14" />
<rect x="18" y="52" width="2" height="2" fill="#39ff14" />
<rect x="22" y="52" width="2" height="2" fill="#39ff14" />
<rect x="30" y="52" width="2" height="2" fill="#39ff14" />
<rect x="34" y="52" width="2" height="2" fill="#39ff14" />
<rect x="36" y="52" width="2" height="2" fill="#39ff14" />
<rect x="40" y="52" width="2" height="2" fill="#39ff14" />
<rect x="42" y="52" width="2" height="2" fill="#39ff14" />
<rect x="6" y="54" width="2" height="2" fill="#39ff14" />
<rect x="22" y="54" width="2" height="2" fill="#39ff14" />
<rect x="30" y="54" width="2" height="2" fill="#39ff14" />
<rect x="46" y="54" width="2" height="2" fill="#39ff14" />
<rect x="4" y="56" width="2" height="2" fill="#39ff14" />
<rect x="12" y="56" width="2" height="2" fill="#39ff14" />
<rect x="22" y="56" width="2" height="2" fill="#39ff14" />
<rect x="30" y="56" width="2" height="2" fill="#39ff14" />
<rect x="40" y="56" width="2" height="2" fill="#39ff14" />
<rect x="48" y="56" width="2" height="2" fill="#39ff14" />
<rect x="6" y="58" width="2" height="2" fill="#39ff14" />
<rect x="10" y="58" width="2" height="2" fill="#39ff14" />
<rect x="22" y="58" width="2" height="2" fill="#39ff14" />
<rect x="30" y="58" width="2" height="2" fill="#39ff14" />
<rect x="42" y="58" width="2" height="2" fill="#39ff14" />
<rect x="46" y="58" width="2" height="2" fill="#39ff14" />
</svg>