<?xml version="1.0" encoding="utf-8"?>
<svg xmlns="http://www.w3.org/2000/svg" width="96" height="48" viewBox="0 0 96 48">
<rect width="100%" height="100%" fill="transparent" />
<rect x="44" y="4" width="4" height="4" fill="#39ff14" />
<rect x="48" y="4" width="4" height="4" fill="#39ff14" />
<rect x="56" y="4" width="4" height="4" fill="#39ff14" />
<rect x="60" y="4" width="4" height="4" fill="#39ff14" />
<rect x="36" y="8" width="4" height="4" fill="#39ff14" />
<rect x="40" y="8" width="4" height="4" fill="#39ff14" />
<rect x="48" y="8" width="4" height="4" fill="#39ff14" />
<rect x="56" y="8" width="4" height="4" fill="#39ff14" />
<rect x="60" y="8" width="4" height="4" fill="#39ff14" />
<rect x="68" y="8" width="4" height="4" fill="#39ff14" />
<rect x="72" y="8" width="4" height="4" fill="#39ff14" />
<rect x="24" y="12" width="4" height="4" fill="#39ff14" />
<rect x="28" y="12" width="4" height="4" fill="#39ff14" />
<rect x="32" y="12" width="4" height="4" fill="#39ff14" />
<rect x="40" y="12" width="4" height="4" fill="#39ff14" />
<rect x="52" y="12" width="4" height="4" fill="#39ff14" />
<rect x="56" y="12" width="4" height="4" fill="#39ff14" />
<rect x="60" y="12" width="4" height="4" fill="#39ff14" />
<rect x="72" y="12" width="4" height="4" fill="#39ff14" />
<rect x="76" y="12" width="4" height="4" fill="#39ff14" />
<rect x="80" y="12" width="4" height="4" fill="#39ff14" />
<rect x="84" y="12" width="4" height="4" fill="#39ff14" />
<rect x="8" y="16" width="4" height="4" fill="#39ff14" />
<rect x="12" y="16" width="4" height="4" fill="#39ff14" />
<rect x="16" y="16" width="4" height="4" fill="#39ff14" />
<rect x="36" y="16" width="4" height="4" fill="#39ff14" />
<rect x="40" y="16" width="4" height="4" fill="#39ff14" />
<rect x="44" y="16" width="4" height="4" fill="#39ff14" />
<rect x="68" y="16" width="4" height="4" fill="#39ff14" />
<rect x="88" y="16" width="4" height="4" fill="#39ff14" />
<rect x="4" y="20" width="4" height="4" fill="#39ff14" />
<rect x="12" y="20" width="4" height="4" fill="#39ff14" />
<rect x="20" y="20" width="4" height="4" fill="#39ff14" />
<rect x="28" y="20" width="4" height="4" fill="#39ff14" />
<rect x="32" y="20" width="4" height="4" fill="#39ff14" />
<rect x="36" y="20" width="4" height="4" fill="#39ff14" />
<rect x="44" y="20" width="4" height="4" fill="#39ff14" />
<rect x="80" y="20" width="4" height="4" fill="#39ff14" />
<rect x="84" y="20" width="4" height="4" fill="#39ff14" />
<rect x="4" y="24" width="4" height="4" fill="#39ff14" />
<rect x="12" y="24" width="4" height="4" fill="#39ff14" />
<rect x="20" y="24" width="4" height="4" fill="#39ff14" />
<rect x="28" y="24" width="4" height="4" fill="#39ff14" />
<rect x="32" y="24" width="4" height="4" fill="#39ff14" />
<rect x="36" y="24" width="4" height="4" fill="#39ff14" />
<rect x="40" y="24" width="4" height="4" fill="#39ff14" />
<rect x="8" y="28" width="4" height="4" fill="#39ff14" />
<rect x="16" y="28" width="4" height="4" fill="#39ff14" />
<rect x="36" y="28" width="4" height="4" fill="#39ff14" />
<rect x="48" y="28" width="4" height="4" fill="#39ff14" />
<rect x="44" y="32" width="4" height="4" fill="#39ff14" />
<rect x="12" y="36" width="4" height="4" fill="#39ff14" />
<rect x="12" y="40" width="4" height="4" fill="#39ff14" />
</svg>