<?xml version="1.0" encoding="utf-8"?>
<svg xmlns="http://www.w3.org/2000/svg" width="88" height="63" viewBox="0 0 88 63">
<rect width="100%" height="100%" fill="transparent" />
<rect x="9" y="4" width="5" height="5" fill="#39ff14" />
<rect x="74" y="4" width="5" height="5" fill="#39ff14" />
<rect x="9" y="9" width="5" height="5" fill="#39ff14" />
<rect x="74" y="9" width="5" height="5" fill="#39ff14" />
<rect x="4" y="14" width="5" height="5" fill="#39ff14" />
<rect x="14" y="14" width="5" height="5" fill="#39ff14" />
<rect x="69" y="14" width="5" height="5" fill="#39ff14" />
<rect x="79" y="14" width="5" height="5" fill="#39ff14" />
<rect x="9" y="19" width="5" height="5" fill="#39ff14" />
<rect x="74" y="19" width="5" height="5" fill="#39ff14" />
<rect x="9" y="24" width="5" height="5" fill="#39ff14" />
<rect x="74" y="24" width="5" height="5" fill="#39ff14" />
<rect x="14" y="29" width="5" height="5" fill="#39ff14" />
<rect x="34" y="29" width="5" height="5" fill="#39ff14" />
<rect x="39" y="29" width="5" height="5" fill="#39ff14" />
<rect x="44" y="29" width="5" height="5" fill="#39ff14" />
<rect x="49" y="29" width="5" height="5" fill="#39ff14" />
<rect x="69" y="29" width="5" height="5" fill="#39ff14" />
<rect x="34" y="34" width="5" height="5" fill="#39ff14" />
<rect x="39" y="34" width="5" height="5" fill="#39ff14" />
<rect x="44" y="34" width="5" height="5" fill="#39ff14" />
<rect x="49" y="34" width="5" height="5" fill="#39ff14" />
<rect x="14" y="39" width="5" height="5" fill="#39ff14" />
<rect x="19" y="39" width="5" height="5" fill="#39ff14" />
<rect x="24" y="39" width="5" height="5" fill="#39ff14" />
<rect x="29" y="39" width="5" height="5" fill="#39ff14" />
<rect x="54" y="39" width="5" height="5" fill="#39ff14" />
<rect x="59" y="39" width="5" height="5" fill="#39ff14" />
<rect x="64" y="39" width="5" height="5" fill="#39ff14" />
<rect x="69" y="39" width="5" height="5" fill="#39ff14" />
<rect x="24" y="49" width="5" height="5" fill="#39ff14" />
<rect x="59" y="49" width="5" height="5" fill="#39ff14" />
<rect x="29" y="54" width="5" height="5" fill="#39ff14" />
<rect x="34" y="54" width="5" height="5" fill="#39ff14" />
<rect x="49" y="54" width="5" height="5" fill="#39ff14" />
<rect x="54" y="54" width="5" height="5" fill="#39ff14" />
</svg>