<?xml version="1.0" encoding="utf-8"?>
<svg xmlns="http://www.w3.org/2000/svg" width="84" height="58" viewBox="0 0 84 58">
<rect width="100%" height="100%" fill="transparent" />
<rect x="18" y="4" width="2" height="2" fill="hsl(20, 90%, 50%)" />
<rect x="34" y="4" width="2" height="2" fill="hsl(20, 90%, 50%)" />
<rect x="50" y="4" width="2" height="2" fill="hsl(20, 90%, 50%)" />
<rect x="52" y="4" width="2" height="2" fill="hsl(20, 90%, 50%)" />
<rect x="18" y="6" width="2" height="2" fill="hsl(20, 90%, 50%)" />
<rect x="20" y="6" width="2" height="2" fill="hsl(20, 90%, 50%)" />
<rect x="22" y="6" width="2" height="2" fill="hsl(20, 90%, 50%)" />
<rect x="34" y="6" width="2" height="2" fill="hsl(20, 90%, 50%)" />
<rect x="36" y="6" width="2" height="2" fill="hsl(20, 90%, 50%)" />
<rect x="38" y="6" width="2" height="2" fill="hsl(20, 90%, 50%)" />
<rect x="50" y="6" width="2" height="2" fill="hsl(20, 90%, 50%)" />
<rect x="52" y="6" width="2" height="2" fill="hsl(20, 90%, 50%)" />
<rect x="24" y="8" width="2" height="2" fill="hsl(20, 90%, 50%)" />
<rect x="40" y="8" width="2" height="2" fill="hsl(20, 90%, 50%)" />
<rect x="22" y="10" width="2" height="2" fill="hsl(20, 90%, 50%)" />
<rect x="24" y="10" width="2" height="2" fill="hsl(20, 90%, 50%)" />
<rect x="38" y="10" width="2" height="2" fill="hsl(20, 90%, 50%)" />
<rect x="40" y="10" width="2" height="2" fill="hsl(20, 90%, 50%)" />
<rect x="74" y="10" width="2" height="2" fill="hsl(20, 90%, 50%)" />
<rect x="76" y="10" width="2" height="2" fill="hsl(20, 90%, 50%)" />
<rect x="64" y="12" width="2" height="2" fill="hsl(20, 90%, 50%)" />
<rect x="66" y="12" width="2" height="2" fill="hsl(20, 90%, 50%)" />
<rect x="72" y="12" width="2" height="2" fill="hsl(20, 90%, 50%)" />
<rect x="78" y="12" width="2" height="2" fill="hsl(20, 90%, 50%)" />
<rect x="64" y="14" width="2" height="2" fill="hsl(20, 90%, 50%)" />
<rect x="68" y="14" width="2" height="2" fill="hsl(20, 90%, 50%)" />
<rect x="74" y="14" width="2" height="2" fill="hsl(20, 90%, 50%)" />
<rect x="76" y="14" width="2" height="2" fill="hsl(20, 90%, 50%)" />
<rect x="70" y="16" width="2" height="2" fill="hsl(20, 90%, 50%)" />
<rect x="72" y="16" width="2" height="2" fill="hsl(20, 90%, 50%)" />
<rect x="14" y="18" width="2" height="2" fill="hsl(20, 90%, 50%)" />
<rect x="72" y="18" width="2" height="2" fill="hsl(20, 90%, 50%)" />
<rect x="14" y="20" width="2" height="2" fill="hsl(20, 90%, 50%)" />
<rect x="16" y="20" width="2" height="2" fill="hsl(20, 90%, 50%)" />
<rect x="18" y="20" width="2" height="2" fill="hsl(20, 90%, 50%)" />
<rect x="72" y="20" width="2" height="2" fill="hsl(20, 90%, 50%)" />
<rect x="76" y="20" width="2" height="2" fill="hsl(20, 90%, 50%)" />
<rect x="78" y="20" width="2" height="2" fill="hsl(20, 90%, 50%)" />
<rect x="20" y="22" width="2" height="2" fill="hsl(20, 90%, 50%)" />
<rect x="66" y="22" width="2" height="2" fill="hsl(20, 90%, 50%)" />
<rect x="68" y="22" width="2" height="2" fill="hsl(20, 90%, 50%)" />
<rect x="72" y="22" width="2" height="2" fill="hsl(20, 90%, 50%)" />
<rect x="78" y="22" width="2" height="2" fill="hsl(20, 90%, 50%)" />
<rect x="18" y="24" width="2" height="2" fill="hsl(20, 90%, 50%)" />
<rect x="20" y="24" width="2" height="2" fill="hsl(20, 90%, 50%)" />
<rect x="66" y="24" width="2" height="2" fill="hsl(20, 90%, 50%)" />
<rect x="68" y="24" width="2" height="2" fill="hsl(20, 90%, 50%)" />
<rect x="72" y="24" width="2" height="2" fill="hsl(20, 90%, 50%)" />
<rect x="74" y="24" width="2" height="2" fill="hsl(20, 90%, 50%)" />
<rect x="38" y="30" width="2" height="2" fill="hsl(20, 90%, 50%)" />
<rect x="8" y="32" width="2" height="2" fill="hsl(20, 90%, 50%)" />
<rect x="10" y="32" width="2" height="2" fill="hsl(20, 90%, 50%)" />
<rect x="14" y="32" width="2" height="2" fill="hsl(20, 90%, 50%)" />
<rect x="16" y="32" width="2" height="2" fill="hsl(20, 90%, 50%)" />
<rect x="36" y="32" width="2" height="2" fill="hsl(20, 90%, 50%)" />
<rect x="40" y="32" width="2" height="2" fill="hsl(20, 90%, 50%)" />
<rect x="62" y="32" width="2" height="2" fill="hsl(20, 90%, 50%)" />
<rect x="64" y="32" width="2" height="2" fill="hsl(20, 90%, 50%)" />
<rect x="4" y="34" width="2" height="2" fill="hsl(20, 90%, 50%)" />
<rect x="10" y="34" width="2" height="2" fill="hsl(20, 90%, 50%)" />
<rect x="14" y="34" width="2" height="2" fill="hsl(20, 90%, 50%)" />
<rect x="16" y="34" width="2" height="2" fill="hsl(20, 90%, 50%)" />
<rect x="34" y="34" width="2" height="2" fill="hsl(20, 90%, 50%)" />
<rect x="42" y="34" width="2" height="2" fill="hsl(20, 90%, 50%)" />
<rect x="62" y="34" width="2" height="2" fill="hsl(20, 90%, 50%)" />
<rect x="4" y="36" width="2" height="2" fill="hsl(20, 90%, 50%)" />
<rect x="6" y="36" width="2" height="2" fill="hsl(20, 90%, 50%)" />
<rect x="10" y="36" width="2" height="2" fill="hsl(20, 90%, 50%)" />
<rect x="34" y="36" width="2" height="2" fill="hsl(20, 90%, 50%)" />
<rect x="42" y="36" width="2" height="2" fill="hsl(20, 90%, 50%)" />
<rect x="64" y="36" width="2" height="2" fill="hsl(20, 90%, 50%)" />
<rect x="66" y="36" width="2" height="2" fill="hsl(20, 90%, 50%)" />
<rect x="68" y="36" width="2" height="2" fill="hsl(20, 90%, 50%)" />
<rect x="10" y="38" width="2" height="2" fill="hsl(20, 90%, 50%)" />
<rect x="34" y="38" width="2" height="2" fill="hsl(20, 90%, 50%)" />
<rect x="42" y="38" width="2" height="2" fill="hsl(20, 90%, 50%)" />
<rect x="68" y="38" width="2" height="2" fill="hsl(20, 90%, 50%)" />
<rect x="10" y="40" width="2" height="2" fill="hsl(20, 90%, 50%)" />
<rect x="12" y="40" width="2" height="2" fill="hsl(20, 90%, 50%)" />
<rect x="36" y="40" width="2" height="2" fill="hsl(20, 90%, 50%)" />
<rect x="40" y="40" width="2" height="2" fill="hsl(20, 90%, 50%)" />
<rect x="6" y="42" width="2" height="2" fill="hsl(20, 90%, 50%)" />
<rect x="8" y="42" width="2" height="2" fill="hsl(20, 90%, 50%)" />
<rect x="14" y="42" width="2" height="2" fill="hsl(20, 90%, 50%)" />
<rect x="18" y="42" width="2" height="2" fill="hsl(20, 90%, 50%)" />
<rect x="38" y="42" width="2" height="2" fill="hsl(20, 90%, 50%)" />
<rect x="4" y="44" width="2" height="2" fill="hsl(20, 90%, 50%)" />
<rect x="10" y="44" width="2" height="2" fill="hsl(20, 90%, 50%)" />
<rect x="16" y="44" width="2" height="2" fill="hsl(20, 90%, 50%)" />
<rect x="18" y="44" width="2" height="2" fill="hsl(20, 90%, 50%)" />
<rect x="6" y="46" width="2" height="2" fill="hsl(20, 90%, 50%)" />
<rect x="8" y="46" width="2" height="2" fill="hsl(20, 90%, 50%)" />
<rect x="42" y="46" width="2" height="2" fill="hsl(20, 90%, 50%)" />
<rect x="44" y="46" width="2" height="2" fill="hsl(20, 90%, 50%)" />
<rect x="42" y="48" width="2" height="2" fill="hsl(20, 90%, 50%)" />
<rect x="30" y="50" width="2" height="2" fill="hsl(20, 90%, 50%)" />
<rect x="32" y="50" width="2" height="2" fill="hsl(20, 90%, 50%)" />
<rect x="44" y="50" width="2" height="2" fill="hsl(20, 90%, 50%)" />
<rect x="46" y="50" width="2" height="2" fill="hsl(20, 90%, 50%)" />
<rect x="48" y="50" width="2" height="2" fill="hsl(20, 90%, 50%)" />
<rect x="30" y="52" width="2" height="2" fill="hsl(20, 90%, 50%)" />
<rect x="32" y="52" width="2" height="2" fill="hsl(20, 90%, 50%)" />
<rect x="48" y="52" width="2" height="2" fill="hsl(20, 90%, 50%)" />
</svg>