<?xml version="1.0" encoding="utf-8"?>
<svg xmlns="http://www.w3.org/2000/svg" width="92" height="92" viewBox="0 0 92 92">
<rect width="100%" height="100%" fill="transparent" />
<rect x="7" y="4" width="3" height="3" fill="hsl(20, 90%, 50%)" />
<rect x="10" y="7" width="3" height="3" fill="hsl(20, 90%, 50%)" />
<rect x="4" y="10" width="3" height="3" fill="hsl(20, 90%, 50%)" />
<rect x="7" y="10" width="3" height="3" fill="hsl(20, 90%, 50%)" />
<rect x="10" y="10" width="3" height="3" fill="hsl(20, 90%, 50%)" />
<rect x="52" y="19" width="3" height="3" fill="hsl(20, 90%, 50%)" />
<rect x="49" y="22" width="3" height="3" fill="hsl(20, 90%, 50%)" />
<rect x="49" y="25" width="3" height="3" fill="hsl(20, 90%, 50%)" />
<rect x="52" y="25" width="3" height="3" fill="hsl(20, 90%, 50%)" />
<rect x="55" y="25" width="3" height="3" fill="hsl(20, 90%, 50%)" />
<rect x="40" y="31" width="3" height="3" fill="hsl(20, 90%, 50%)" />
<rect x="40" y="34" width="3" height="3" fill="hsl(20, 90%, 50%)" />
<rect x="46" y="34" width="3" height="3" fill="hsl(20, 90%, 50%)" />
<rect x="40" y="37" width="3" height="3" fill="hsl(20, 90%, 50%)" />
<rect x="43" y="37" width="3" height="3" fill="hsl(20, 90%, 50%)" />
<rect x="13" y="40" width="3" height="3" fill="hsl(20, 90%, 50%)" />
<rect x="16" y="40" width="3" height="3" fill="hsl(20, 90%, 50%)" />
<rect x="34" y="40" width="3" height="3" fill="hsl(20, 90%, 50%)" />
<rect x="13" y="43" width="3" height="3" fill="hsl(20, 90%, 50%)" />
<rect x="16" y="43" width="3" height="3" fill="hsl(20, 90%, 50%)" />
<rect x="31" y="43" width="3" height="3" fill="hsl(20, 90%, 50%)" />
<rect x="37" y="43" width="3" height="3" fill="hsl(20, 90%, 50%)" />
<rect x="31" y="46" width="3" height="3" fill="hsl(20, 90%, 50%)" />
<rect x="37" y="46" width="3" height="3" fill="hsl(20, 90%, 50%)" />
<rect x="34" y="49" width="3" height="3" fill="hsl(20, 90%, 50%)" />
<rect x="76" y="52" width="3" height="3" fill="hsl(20, 90%, 50%)" />
<rect x="79" y="52" width="3" height="3" fill="hsl(20, 90%, 50%)" />
<rect x="76" y="55" width="3" height="3" fill="hsl(20, 90%, 50%)" />
<rect x="82" y="55" width="3" height="3" fill="hsl(20, 90%, 50%)" />
<rect x="82" y="58" width="3" height="3" fill="hsl(20, 90%, 50%)" />
<rect x="49" y="61" width="3" height="3" fill="hsl(20, 90%, 50%)" />
<rect x="52" y="61" width="3" height="3" fill="hsl(20, 90%, 50%)" />
<rect x="82" y="61" width="3" height="3" fill="hsl(20, 90%, 50%)" />
<rect x="85" y="61" width="3" height="3" fill="hsl(20, 90%, 50%)" />
<rect x="28" y="64" width="3" height="3" fill="hsl(20, 90%, 50%)" />
<rect x="31" y="64" width="3" height="3" fill="hsl(20, 90%, 50%)" />
<rect x="49" y="64" width="3" height="3" fill="hsl(20, 90%, 50%)" />
<rect x="52" y="64" width="3" height="3" fill="hsl(20, 90%, 50%)" />
<rect x="25" y="67" width="3" height="3" fill="hsl(20, 90%, 50%)" />
<rect x="31" y="67" width="3" height="3" fill="hsl(20, 90%, 50%)" />
<rect x="25" y="70" width="3" height="3" fill="hsl(20, 90%, 50%)" />
<rect x="28" y="70" width="3" height="3" fill="hsl(20, 90%, 50%)" />
<rect x="34" y="76" width="3" height="3" fill="hsl(20, 90%, 50%)" />
<rect x="37" y="76" width="3" height="3" fill="hsl(20, 90%, 50%)" />
<rect x="34" y="79" width="3" height="3" fill="hsl(20, 90%, 50%)" />
<rect x="37" y="82" width="3" height="3" fill="hsl(20, 90%, 50%)" />
<rect x="40" y="82" width="3" height="3" fill="hsl(20, 90%, 50%)" />
<rect x="43" y="82" width="3" height="3" fill="hsl(20, 90%, 50%)" />
<rect x="43" y="85" width="3" height="3" fill="hsl(20, 90%, 50%)" />
</svg>