<?xml version="1.0" encoding="utf-8"?>
<svg xmlns="http://www.w3.org/2000/svg" width="82" height="82" viewBox="0 0 82 82">
<rect width="100%" height="100%" fill="transparent" />
<rect x="34" y="4" width="2" height="2" fill="hsl(20, 90%, 50%)" />
<rect x="36" y="4" width="2" height="2" fill="hsl(20, 90%, 50%)" />
<rect x="44" y="4" width="2" height="2" fill="hsl(20, 90%, 50%)" />
<rect x="46" y="4" width="2" height="2" fill="hsl(20, 90%, 50%)" />
<rect x="16" y="10" width="2" height="2" fill="hsl(20, 90%, 50%)" />
<rect x="18" y="10" width="2" height="2" fill="hsl(20, 90%, 50%)" />
<rect x="62" y="10" width="2" height="2" fill="hsl(20, 90%, 50%)" />
<rect x="64" y="10" width="2" height="2" fill="hsl(20, 90%, 50%)" />
<rect x="16" y="12" width="2" height="2" fill="hsl(20, 90%, 50%)" />
<rect x="18" y="12" width="2" height="2" fill="hsl(20, 90%, 50%)" />
<rect x="62" y="12" width="2" height="2" fill="hsl(20, 90%, 50%)" />
<rect x="64" y="12" width="2" height="2" fill="hsl(20, 90%, 50%)" />
<rect x="10" y="16" width="2" height="2" fill="hsl(20, 90%, 50%)" />
<rect x="12" y="16" width="2" height="2" fill="hsl(20, 90%, 50%)" />
<rect x="68" y="16" width="2" height="2" fill="hsl(20, 90%, 50%)" />
<rect x="70" y="16" width="2" height="2" fill="hsl(20, 90%, 50%)" />
<rect x="10" y="18" width="2" height="2" fill="hsl(20, 90%, 50%)" />
<rect x="12" y="18" width="2" height="2" fill="hsl(20, 90%, 50%)" />
<rect x="32" y="18" width="2" height="2" fill="hsl(20, 90%, 50%)" />
<rect x="34" y="18" width="2" height="2" fill="hsl(20, 90%, 50%)" />
<rect x="46" y="18" width="2" height="2" fill="hsl(20, 90%, 50%)" />
<rect x="48" y="18" width="2" height="2" fill="hsl(20, 90%, 50%)" />
<rect x="68" y="18" width="2" height="2" fill="hsl(20, 90%, 50%)" />
<rect x="70" y="18" width="2" height="2" fill="hsl(20, 90%, 50%)" />
<rect x="22" y="20" width="2" height="2" fill="hsl(20, 90%, 50%)" />
<rect x="24" y="20" width="2" height="2" fill="hsl(20, 90%, 50%)" />
<rect x="26" y="20" width="2" height="2" fill="hsl(20, 90%, 50%)" />
<rect x="30" y="20" width="2" height="2" fill="hsl(20, 90%, 50%)" />
<rect x="32" y="20" width="2" height="2" fill="hsl(20, 90%, 50%)" />
<rect x="48" y="20" width="2" height="2" fill="hsl(20, 90%, 50%)" />
<rect x="50" y="20" width="2" height="2" fill="hsl(20, 90%, 50%)" />
<rect x="54" y="20" width="2" height="2" fill="hsl(20, 90%, 50%)" />
<rect x="56" y="20" width="2" height="2" fill="hsl(20, 90%, 50%)" />
<rect x="58" y="20" width="2" height="2" fill="hsl(20, 90%, 50%)" />
<rect x="20" y="22" width="2" height="2" fill="hsl(20, 90%, 50%)" />
<rect x="24" y="22" width="2" height="2" fill="hsl(20, 90%, 50%)" />
<rect x="56" y="22" width="2" height="2" fill="hsl(20, 90%, 50%)" />
<rect x="60" y="22" width="2" height="2" fill="hsl(20, 90%, 50%)" />
<rect x="20" y="24" width="2" height="2" fill="hsl(20, 90%, 50%)" />
<rect x="22" y="24" width="2" height="2" fill="hsl(20, 90%, 50%)" />
<rect x="58" y="24" width="2" height="2" fill="hsl(20, 90%, 50%)" />
<rect x="60" y="24" width="2" height="2" fill="hsl(20, 90%, 50%)" />
<rect x="20" y="26" width="2" height="2" fill="hsl(20, 90%, 50%)" />
<rect x="60" y="26" width="2" height="2" fill="hsl(20, 90%, 50%)" />
<rect x="20" y="30" width="2" height="2" fill="hsl(20, 90%, 50%)" />
<rect x="60" y="30" width="2" height="2" fill="hsl(20, 90%, 50%)" />
<rect x="18" y="32" width="2" height="2" fill="hsl(20, 90%, 50%)" />
<rect x="20" y="32" width="2" height="2" fill="hsl(20, 90%, 50%)" />
<rect x="60" y="32" width="2" height="2" fill="hsl(20, 90%, 50%)" />
<rect x="62" y="32" width="2" height="2" fill="hsl(20, 90%, 50%)" />
<rect x="4" y="34" width="2" height="2" fill="hsl(20, 90%, 50%)" />
<rect x="18" y="34" width="2" height="2" fill="hsl(20, 90%, 50%)" />
<rect x="62" y="34" width="2" height="2" fill="hsl(20, 90%, 50%)" />
<rect x="76" y="34" width="2" height="2" fill="hsl(20, 90%, 50%)" />
<rect x="4" y="36" width="2" height="2" fill="hsl(20, 90%, 50%)" />
<rect x="76" y="36" width="2" height="2" fill="hsl(20, 90%, 50%)" />
<rect x="4" y="44" width="2" height="2" fill="hsl(20, 90%, 50%)" />
<rect x="76" y="44" width="2" height="2" fill="hsl(20, 90%, 50%)" />
<rect x="4" y="46" width="2" height="2" fill="hsl(20, 90%, 50%)" />
<rect x="18" y="46" width="2" height="2" fill="hsl(20, 90%, 50%)" />
<rect x="62" y="46" width="2" height="2" fill="hsl(20, 90%, 50%)" />
<rect x="76" y="46" width="2" height="2" fill="hsl(20, 90%, 50%)" />
<rect x="18" y="48" width="2" height="2" fill="hsl(20, 90%, 50%)" />
<rect x="20" y="48" width="2" height="2" fill="hsl(20, 90%, 50%)" />
<rect x="60" y="48" width="2" height="2" fill="hsl(20, 90%, 50%)" />
<rect x="62" y="48" width="2" height="2" fill="hsl(20, 90%, 50%)" />
<rect x="20" y="50" width="2" height="2" fill="hsl(20, 90%, 50%)" />
<rect x="60" y="50" width="2" height="2" fill="hsl(20, 90%, 50%)" />
<rect x="20" y="54" width="2" height="2" fill="hsl(20, 90%, 50%)" />
<rect x="60" y="54" width="2" height="2" fill="hsl(20, 90%, 50%)" />
<rect x="20" y="56" width="2" height="2" fill="hsl(20, 90%, 50%)" />
<rect x="22" y="56" width="2" height="2" fill="hsl(20, 90%, 50%)" />
<rect x="58" y="56" width="2" height="2" fill="hsl(20, 90%, 50%)" />
<rect x="60" y="56" width="2" height="2" fill="hsl(20, 90%, 50%)" />
<rect x="20" y="58" width="2" height="2" fill="hsl(20, 90%, 50%)" />
<rect x="24" y="58" width="2" height="2" fill="hsl(20, 90%, 50%)" />
<rect x="56" y="58" width="2" height="2" fill="hsl(20, 90%, 50%)" />
<rect x="60" y="58" width="2" height="2" fill="hsl(20, 90%, 50%)" />
<rect x="22" y="60" width="2" height="2" fill="hsl(20, 90%, 50%)" />
<rect x="24" y="60" width="2" height="2" fill="hsl(20, 90%, 50%)" />
<rect x="26" y="60" width="2" height="2" fill="hsl(20, 90%, 50%)" />
<rect x="30" y="60" width="2" height="2" fill="hsl(20, 90%, 50%)" />
<rect x="32" y="60" width="2" height="2" fill="hsl(20, 90%, 50%)" />
<rect x="48" y="60" width="2" height="2" fill="hsl(20, 90%, 50%)" />
<rect x="50" y="60" width="2" height="2" fill="hsl(20, 90%, 50%)" />
<rect x="54" y="60" width="2" height="2" fill="hsl(20, 90%, 50%)" />
<rect x="56" y="60" width="2" height="2" fill="hsl(20, 90%, 50%)" />
<rect x="58" y="60" width="2" height="2" fill="hsl(20, 90%, 50%)" />
<rect x="10" y="62" width="2" height="2" fill="hsl(20, 90%, 50%)" />
<rect x="12" y="62" width="2" height="2" fill="hsl(20, 90%, 50%)" />
<rect x="32" y="62" width="2" height="2" fill="hsl(20, 90%, 50%)" />
<rect x="34" y="62" width="2" height="2" fill="hsl(20, 90%, 50%)" />
<rect x="46" y="62" width="2" height="2" fill="hsl(20, 90%, 50%)" />
<rect x="48" y="62" width="2" height="2" fill="hsl(20, 90%, 50%)" />
<rect x="68" y="62" width="2" height="2" fill="hsl(20, 90%, 50%)" />
<rect x="70" y="62" width="2" height="2" fill="hsl(20, 90%, 50%)" />
<rect x="10" y="64" width="2" height="2" fill="hsl(20, 90%, 50%)" />
<rect x="12" y="64" width="2" height="2" fill="hsl(20, 90%, 50%)" />
<rect x="68" y="64" width="2" height="2" fill="hsl(20, 90%, 50%)" />
<rect x="70" y="64" width="2" height="2" fill="hsl(20, 90%, 50%)" />
<rect x="16" y="68" width="2" height="2" fill="hsl(20, 90%, 50%)" />
<rect x="18" y="68" width="2" height="2" fill="hsl(20, 90%, 50%)" />
<rect x="62" y="68" width="2" height="2" fill="hsl(20, 90%, 50%)" />
<rect x="64" y="68" width="2" height="2" fill="hsl(20, 90%, 50%)" />
<rect x="16" y="70" width="2" height="2" fill="hsl(20, 90%, 50%)" />
<rect x="18" y="70" width="2" height="2" fill="hsl(20, 90%, 50%)" />
<rect x="62" y="70" width="2" height="2" fill="hsl(20, 90%, 50%)" />
<rect x="64" y="70" width="2" height="2" fill="hsl(20, 90%, 50%)" />
<rect x="34" y="76" width="2" height="2" fill="hsl(20, 90%, 50%)" />
<rect x="36" y="76" width="2" height="2" fill="hsl(20, 90%, 50%)" />
<rect x="44" y="76" width="2" height="2" fill="hsl(20, 90%, 50%)" />
<rect x="46" y="76" width="2" height="2" fill="hsl(20, 90%, 50%)" />
</svg>