<?xml version="1.0" encoding="utf-8"?>
<svg xmlns="http://www.w3.org/2000/svg" width="80" height="80" viewBox="0 0 80 80">
<rect width="100%" height="100%" fill="transparent" />
<rect x="20" y="4" width="4" height="4" fill="hsl(20, 90%, 50%)" />
<rect x="24" y="4" width="4" height="4" fill="hsl(20, 90%, 50%)" />
<rect x="52" y="4" width="4" height="4" fill="hsl(20, 90%, 50%)" />
<rect x="56" y="4" width="4" height="4" fill="hsl(20, 90%, 50%)" />
<rect x="16" y="8" width="4" height="4" fill="hsl(20, 90%, 50%)" />
<rect x="28" y="8" width="4" height="4" fill="hsl(20, 90%, 50%)" />
<rect x="48" y="8" width="4" height="4" fill="hsl(20, 90%, 50%)" />
<rect x="60" y="8" width="4" height="4" fill="hsl(20, 90%, 50%)" />
<rect x="16" y="12" width="4" height="4" fill="hsl(20, 90%, 50%)" />
<rect x="24" y="12" width="4" height="4" fill="hsl(20, 90%, 50%)" />
<rect x="52" y="12" width="4" height="4" fill="hsl(20, 90%, 50%)" />
<rect x="60" y="12" width="4" height="4" fill="hsl(20, 90%, 50%)" />
<rect x="8" y="16" width="4" height="4" fill="hsl(20, 90%, 50%)" />
<rect x="12" y="16" width="4" height="4" fill="hsl(20, 90%, 50%)" />
<rect x="24" y="16" width="4" height="4" fill="hsl(20, 90%, 50%)" />
<rect x="28" y="16" width="4" height="4" fill="hsl(20, 90%, 50%)" />
<rect x="32" y="16" width="4" height="4" fill="hsl(20, 90%, 50%)" />
<rect x="44" y="16" width="4" height="4" fill="hsl(20, 90%, 50%)" />
<rect x="48" y="16" width="4" height="4" fill="hsl(20, 90%, 50%)" />
<rect x="52" y="16" width="4" height="4" fill="hsl(20, 90%, 50%)" />
<rect x="64" y="16" width="4" height="4" fill="hsl(20, 90%, 50%)" />
<rect x="68" y="16" width="4" height="4" fill="hsl(20, 90%, 50%)" />
<rect x="4" y="20" width="4" height="4" fill="hsl(20, 90%, 50%)" />
<rect x="32" y="20" width="4" height="4" fill="hsl(20, 90%, 50%)" />
<rect x="44" y="20" width="4" height="4" fill="hsl(20, 90%, 50%)" />
<rect x="72" y="20" width="4" height="4" fill="hsl(20, 90%, 50%)" />
<rect x="4" y="24" width="4" height="4" fill="hsl(20, 90%, 50%)" />
<rect x="12" y="24" width="4" height="4" fill="hsl(20, 90%, 50%)" />
<rect x="16" y="24" width="4" height="4" fill="hsl(20, 90%, 50%)" />
<rect x="60" y="24" width="4" height="4" fill="hsl(20, 90%, 50%)" />
<rect x="64" y="24" width="4" height="4" fill="hsl(20, 90%, 50%)" />
<rect x="72" y="24" width="4" height="4" fill="hsl(20, 90%, 50%)" />
<rect x="8" y="28" width="4" height="4" fill="hsl(20, 90%, 50%)" />
<rect x="16" y="28" width="4" height="4" fill="hsl(20, 90%, 50%)" />
<rect x="60" y="28" width="4" height="4" fill="hsl(20, 90%, 50%)" />
<rect x="68" y="28" width="4" height="4" fill="hsl(20, 90%, 50%)" />
<rect x="16" y="32" width="4" height="4" fill="hsl(20, 90%, 50%)" />
<rect x="20" y="32" width="4" height="4" fill="hsl(20, 90%, 50%)" />
<rect x="56" y="32" width="4" height="4" fill="hsl(20, 90%, 50%)" />
<rect x="60" y="32" width="4" height="4" fill="hsl(20, 90%, 50%)" />
<rect x="16" y="44" width="4" height="4" fill="hsl(20, 90%, 50%)" />
<rect x="20" y="44" width="4" height="4" fill="hsl(20, 90%, 50%)" />
<rect x="56" y="44" width="4" height="4" fill="hsl(20, 90%, 50%)" />
<rect x="60" y="44" width="4" height="4" fill="hsl(20, 90%, 50%)" />
<rect x="8" y="48" width="4" height="4" fill="hsl(20, 90%, 50%)" />
<rect x="16" y="48" width="4" height="4" fill="hsl(20, 90%, 50%)" />
<rect x="60" y="48" width="4" height="4" fill="hsl(20, 90%, 50%)" />
<rect x="68" y="48" width="4" height="4" fill="hsl(20, 90%, 50%)" />
<rect x="4" y="52" width="4" height="4" fill="hsl(20, 90%, 50%)" />
<rect x="12" y="52" width="4" height="4" fill="hsl(20, 90%, 50%)" />
<rect x="16" y="52" width="4" height="4" fill="hsl(20, 90%, 50%)" />
<rect x="60" y="52" width="4" height="4" fill="hsl(20, 90%, 50%)" />
<rect x="64" y="52" width="4" height="4" fill="hsl(20, 90%, 50%)" />
<rect x="72" y="52" width="4" height="4" fill="hsl(20, 90%, 50%)" />
<rect x="4" y="56" width="4" height="4" fill="hsl(20, 90%, 50%)" />
<rect x="32" y="56" width="4" height="4" fill="hsl(20, 90%, 50%)" />
<rect x="44" y="56" width="4" height="4" fill="hsl(20, 90%, 50%)" />
<rect x="72" y="56" width="4" height="4" fill="hsl(20, 90%, 50%)" />
<rect x="8" y="60" width="4" height="4" fill="hsl(20, 90%, 50%)" />
<rect x="12" y="60" width="4" height="4" fill="hsl(20, 90%, 50%)" />
<rect x="24" y="60" width="4" height="4" fill="hsl(20, 90%, 50%)" />
<rect x="28" y="60" width="4" height="4" fill="hsl(20, 90%, 50%)" />
<rect x="32" y="60" width="4" height="4" fill="hsl(20, 90%, 50%)" />
<rect x="44" y="60" width="4" height="4" fill="hsl(20, 90%, 50%)" />
<rect x="48" y="60" width="4" height="4" fill="hsl(20, 90%, 50%)" />
<rect x="52" y="60" width="4" height="4" fill="hsl(20, 90%, 50%)" />
<rect x="64" y="60" width="4" height="4" fill="hsl(20, 90%, 50%)" />
<rect x="68" y="60" width="4" height="4" fill="hsl(20, 90%, 50%)" />
<rect x="16" y="64" width="4" height="4" fill="hsl(20, 90%, 50%)" />
<rect x="24" y="64" width="4" height="4" fill="hsl(20, 90%, 50%)" />
<rect x="52" y="64" width="4" height="4" fill="hsl(20, 90%, 50%)" />
<rect x="60" y="64" width="4" height="4" fill="hsl(20, 90%, 50%)" />
<rect x="16" y="68" width="4" height="4" fill="hsl(20, 90%, 50%)" />
<rect x="28" y="68" width="4" height="4" fill="hsl(20, 90%, 50%)" />
<rect x="48" y="68" width="4" height="4" fill="hsl(20, 90%, 50%)" />
<rect x="60" y="68" width="4" height="4" fill="hsl(20, 90%, 50%)" />
<rect x="20" y="72" width="4" height="4" fill="hsl(20, 90%, 50%)" />
<rect x="24" y="72" width="4" height="4" fill="hsl(20, 90%, 50%)" />
<rect x="52" y="72" width="4" height="4" fill="hsl(20, 90%, 50%)" />
<rect x="56" y="72" width="4" height="4" fill="hsl(20, 90%, 50%)" />
</svg>