<?xml version="1.0" encoding="utf-8"?>
<svg xmlns="http://www.w3.org/2000/svg" width="80" height="44" viewBox="0 0 80 44">
<rect width="100%" height="100%" fill="transparent" />
<rect x="10" y="4" width="3" height="3" fill="hsl(20, 90%, 50%)" />
<rect x="4" y="7" width="3" height="3" fill="hsl(20, 90%, 50%)" />
<rect x="10" y="7" width="3" height="3" fill="hsl(20, 90%, 50%)" />
<rect x="7" y="10" width="3" height="3" fill="hsl(20, 90%, 50%)" />
<rect x="10" y="10" width="3" height="3" fill="hsl(20, 90%, 50%)" />
<rect x="37" y="13" width="3" height="3" fill="hsl(20, 90%, 50%)" />
<rect x="31" y="16" width="3" height="3" fill="hsl(20, 90%, 50%)" />
<rect x="37" y="16" width="3" height="3" fill="hsl(20, 90%, 50%)" />
<rect x="28" y="19" width="3" height="3" fill="hsl(20, 90%, 50%)" />
<rect x="34" y="19" width="3" height="3" fill="hsl(20, 90%, 50%)" />
<rect x="25" y="22" width="3" height="3" fill="hsl(20, 90%, 50%)" />
<rect x="34" y="22" width="3" height="3" fill="hsl(20, 90%, 50%)" />
<rect x="70" y="22" width="3" height="3" fill="hsl(20, 90%, 50%)" />
<rect x="73" y="22" width="3" height="3" fill="hsl(20, 90%, 50%)" />
<rect x="28" y="25" width="3" height="3" fill="hsl(20, 90%, 50%)" />
<rect x="34" y="25" width="3" height="3" fill="hsl(20, 90%, 50%)" />
<rect x="70" y="25" width="3" height="3" fill="hsl(20, 90%, 50%)" />
<rect x="73" y="25" width="3" height="3" fill="hsl(20, 90%, 50%)" />
<rect x="13" y="28" width="3" height="3" fill="hsl(20, 90%, 50%)" />
<rect x="16" y="28" width="3" height="3" fill="hsl(20, 90%, 50%)" />
<rect x="31" y="28" width="3" height="3" fill="hsl(20, 90%, 50%)" />
<rect x="37" y="28" width="3" height="3" fill="hsl(20, 90%, 50%)" />
<rect x="10" y="31" width="3" height="3" fill="hsl(20, 90%, 50%)" />
<rect x="16" y="31" width="3" height="3" fill="hsl(20, 90%, 50%)" />
<rect x="37" y="31" width="3" height="3" fill="hsl(20, 90%, 50%)" />
<rect x="10" y="34" width="3" height="3" fill="hsl(20, 90%, 50%)" />
<rect x="7" y="37" width="3" height="3" fill="hsl(20, 90%, 50%)" />
<rect x="10" y="37" width="3" height="3" fill="hsl(20, 90%, 50%)" />
</svg>