<?xml version="1.0" encoding="utf-8"?>
<svg xmlns="http://www.w3.org/2000/svg" width="80" height="68" viewBox="0 0 80 68">
<rect width="100%" height="100%" fill="transparent" />
<rect x="49" y="4" width="3" height="3" fill="hsl(20, 90%, 50%)" />
<rect x="4" y="7" width="3" height="3" fill="hsl(20, 90%, 50%)" />
<rect x="46" y="7" width="3" height="3" fill="hsl(20, 90%, 50%)" />
<rect x="49" y="7" width="3" height="3" fill="hsl(20, 90%, 50%)" />
<rect x="4" y="10" width="3" height="3" fill="hsl(20, 90%, 50%)" />
<rect x="43" y="10" width="3" height="3" fill="hsl(20, 90%, 50%)" />
<rect x="46" y="10" width="3" height="3" fill="hsl(20, 90%, 50%)" />
<rect x="4" y="13" width="3" height="3" fill="hsl(20, 90%, 50%)" />
<rect x="46" y="13" width="3" height="3" fill="hsl(20, 90%, 50%)" />
<rect x="49" y="13" width="3" height="3" fill="hsl(20, 90%, 50%)" />
<rect x="49" y="16" width="3" height="3" fill="hsl(20, 90%, 50%)" />
<rect x="7" y="19" width="3" height="3" fill="hsl(20, 90%, 50%)" />
<rect x="10" y="19" width="3" height="3" fill="hsl(20, 90%, 50%)" />
<rect x="13" y="22" width="3" height="3" fill="hsl(20, 90%, 50%)" />
<rect x="13" y="25" width="3" height="3" fill="hsl(20, 90%, 50%)" />
<rect x="19" y="25" width="3" height="3" fill="hsl(20, 90%, 50%)" />
<rect x="22" y="25" width="3" height="3" fill="hsl(20, 90%, 50%)" />
<rect x="4" y="28" width="3" height="3" fill="hsl(20, 90%, 50%)" />
<rect x="7" y="28" width="3" height="3" fill="hsl(20, 90%, 50%)" />
<rect x="10" y="28" width="3" height="3" fill="hsl(20, 90%, 50%)" />
<rect x="25" y="28" width="3" height="3" fill="hsl(20, 90%, 50%)" />
<rect x="25" y="31" width="3" height="3" fill="hsl(20, 90%, 50%)" />
<rect x="19" y="34" width="3" height="3" fill="hsl(20, 90%, 50%)" />
<rect x="22" y="34" width="3" height="3" fill="hsl(20, 90%, 50%)" />
<rect x="25" y="34" width="3" height="3" fill="hsl(20, 90%, 50%)" />
<rect x="67" y="55" width="3" height="3" fill="hsl(20, 90%, 50%)" />
<rect x="70" y="55" width="3" height="3" fill="hsl(20, 90%, 50%)" />
<rect x="73" y="55" width="3" height="3" fill="hsl(20, 90%, 50%)" />
<rect x="67" y="58" width="3" height="3" fill="hsl(20, 90%, 50%)" />
<rect x="70" y="61" width="3" height="3" fill="hsl(20, 90%, 50%)" />
</svg>