<?xml version="1.0" encoding="utf-8"?>
<svg xmlns="http://www.w3.org/2000/svg" width="60" height="25" viewBox="0 0 60 25">
<rect width="100%" height="100%" fill="transparent" />
<rect x="4" y="4" width="1" height="1" fill="hsl(20, 90%, 50%)" />
<rect x="5" y="4" width="1" height="1" fill="hsl(20, 90%, 50%)" />
<rect x="54" y="4" width="1" height="1" fill="hsl(20, 90%, 50%)" />
<rect x="55" y="4" width="1" height="1" fill="hsl(20, 90%, 50%)" />
<rect x="5" y="5" width="1" height="1" fill="hsl(20, 90%, 50%)" />
<rect x="54" y="5" width="1" height="1" fill="hsl(20, 90%, 50%)" />
<rect x="5" y="6" width="1" height="1" fill="hsl(20, 90%, 50%)" />
<rect x="7" y="6" width="1" height="1" fill="hsl(20, 90%, 50%)" />
<rect x="29" y="6" width="1" height="1" fill="hsl(20, 90%, 50%)" />
<rect x="30" y="6" width="1" height="1" fill="hsl(20, 90%, 50%)" />
<rect x="52" y="6" width="1" height="1" fill="hsl(20, 90%, 50%)" />
<rect x="54" y="6" width="1" height="1" fill="hsl(20, 90%, 50%)" />
<rect x="6" y="7" width="1" height="1" fill="hsl(20, 90%, 50%)" />
<rect x="7" y="7" width="1" height="1" fill="hsl(20, 90%, 50%)" />
<rect x="16" y="7" width="1" height="1" fill="hsl(20, 90%, 50%)" />
<rect x="29" y="7" width="1" height="1" fill="hsl(20, 90%, 50%)" />
<rect x="30" y="7" width="1" height="1" fill="hsl(20, 90%, 50%)" />
<rect x="43" y="7" width="1" height="1" fill="hsl(20, 90%, 50%)" />
<rect x="44" y="7" width="1" height="1" fill="hsl(20, 90%, 50%)" />
<rect x="52" y="7" width="1" height="1" fill="hsl(20, 90%, 50%)" />
<rect x="53" y="7" width="1" height="1" fill="hsl(20, 90%, 50%)" />
<rect x="15" y="8" width="1" height="1" fill="hsl(20, 90%, 50%)" />
<rect x="16" y="8" width="1" height="1" fill="hsl(20, 90%, 50%)" />
<rect x="43" y="8" width="1" height="1" fill="hsl(20, 90%, 50%)" />
<rect x="45" y="8" width="1" height="1" fill="hsl(20, 90%, 50%)" />
<rect x="14" y="9" width="1" height="1" fill="hsl(20, 90%, 50%)" />
<rect x="15" y="9" width="1" height="1" fill="hsl(20, 90%, 50%)" />
<rect x="45" y="9" width="1" height="1" fill="hsl(20, 90%, 50%)" />
<rect x="15" y="10" width="1" height="1" fill="hsl(20, 90%, 50%)" />
<rect x="16" y="10" width="1" height="1" fill="hsl(20, 90%, 50%)" />
<rect x="19" y="10" width="1" height="1" fill="hsl(20, 90%, 50%)" />
<rect x="20" y="10" width="1" height="1" fill="hsl(20, 90%, 50%)" />
<rect x="43" y="10" width="1" height="1" fill="hsl(20, 90%, 50%)" />
<rect x="44" y="10" width="1" height="1" fill="hsl(20, 90%, 50%)" />
<rect x="45" y="10" width="1" height="1" fill="hsl(20, 90%, 50%)" />
<rect x="15" y="14" width="1" height="1" fill="hsl(20, 90%, 50%)" />
<rect x="16" y="14" width="1" height="1" fill="hsl(20, 90%, 50%)" />
<rect x="19" y="14" width="1" height="1" fill="hsl(20, 90%, 50%)" />
<rect x="20" y="14" width="1" height="1" fill="hsl(20, 90%, 50%)" />
<rect x="43" y="14" width="1" height="1" fill="hsl(20, 90%, 50%)" />
<rect x="44" y="14" width="1" height="1" fill="hsl(20, 90%, 50%)" />
<rect x="45" y="14" width="1" height="1" fill="hsl(20, 90%, 50%)" />
<rect x="14" y="15" width="1" height="1" fill="hsl(20, 90%, 50%)" />
<rect x="15" y="15" width="1" height="1" fill="hsl(20, 90%, 50%)" />
<rect x="45" y="15" width="1" height="1" fill="hsl(20, 90%, 50%)" />
<rect x="15" y="16" width="1" height="1" fill="hsl(20, 90%, 50%)" />
<rect x="16" y="16" width="1" height="1" fill="hsl(20, 90%, 50%)" />
<rect x="43" y="16" width="1" height="1" fill="hsl(20, 90%, 50%)" />
<rect x="45" y="16" width="1" height="1" fill="hsl(20, 90%, 50%)" />
<rect x="6" y="17" width="1" height="1" fill="hsl(20, 90%, 50%)" />
<rect x="7" y="17" width="1" height="1" fill="hsl(20, 90%, 50%)" />
<rect x="16" y="17" width="1" height="1" fill="hsl(20, 90%, 50%)" />
<rect x="29" y="17" width="1" height="1" fill="hsl(20, 90%, 50%)" />
<rect x="30" y="17" width="1" height="1" fill="hsl(20, 90%, 50%)" />
<rect x="43" y="17" width="1" height="1" fill="hsl(20, 90%, 50%)" />
<rect x="44" y="17" width="1" height="1" fill="hsl(20, 90%, 50%)" />
<rect x="52" y="17" width="1" height="1" fill="hsl(20, 90%, 50%)" />
<rect x="53" y="17" width="1" height="1" fill="hsl(20, 90%, 50%)" />
<rect x="5" y="18" width="1" height="1" fill="hsl(20, 90%, 50%)" />
<rect x="7" y="18" width="1" height="1" fill="hsl(20, 90%, 50%)" />
<rect x="29" y="18" width="1" height="1" fill="hsl(20, 90%, 50%)" />
<rect x="30" y="18" width="1" height="1" fill="hsl(20, 90%, 50%)" />
<rect x="52" y="18" width="1" height="1" fill="hsl(20, 90%, 50%)" />
<rect x="54" y="18" width="1" height="1" fill="hsl(20, 90%, 50%)" />
<rect x="5" y="19" width="1" height="1" fill="hsl(20, 90%, 50%)" />
<rect x="54" y="19" width="1" height="1" fill="hsl(20, 90%, 50%)" />
<rect x="4" y="20" width="1" height="1" fill="hsl(20, 90%, 50%)" />
<rect x="5" y="20" width="1" height="1" fill="hsl(20, 90%, 50%)" />
<rect x="54" y="20" width="1" height="1" fill="hsl(20, 90%, 50%)" />
<rect x="55" y="20" width="1" height="1" fill="hsl(20, 90%, 50%)" />
</svg>