<?xml version="1.0" encoding="utf-8"?>
<svg xmlns="http://www.w3.org/2000/svg" width="67" height="65" viewBox="0 0 67 65">
<rect width="100%" height="100%" fill="transparent" />
<rect x="54" y="4" width="1" height="1" fill="hsl(20, 90%, 50%)" />
<rect x="54" y="5" width="1" height="1" fill="hsl(20, 90%, 50%)" />
<rect x="56" y="5" width="1" height="1" fill="hsl(20, 90%, 50%)" />
<rect x="54" y="6" width="1" height="1" fill="hsl(20, 90%, 50%)" />
<rect x="55" y="6" width="1" height="1" fill="hsl(20, 90%, 50%)" />
<rect x="51" y="7" width="1" height="1" fill="hsl(20, 90%, 50%)" />
<rect x="58" y="7" width="1" height="1" fill="hsl(20, 90%, 50%)" />
<rect x="50" y="8" width="1" height="1" fill="hsl(20, 90%, 50%)" />
<rect x="57" y="8" width="1" height="1" fill="hsl(20, 90%, 50%)" />
<rect x="50" y="9" width="1" height="1" fill="hsl(20, 90%, 50%)" />
<rect x="51" y="9" width="1" height="1" fill="hsl(20, 90%, 50%)" />
<rect x="52" y="9" width="1" height="1" fill="hsl(20, 90%, 50%)" />
<rect x="57" y="9" width="1" height="1" fill="hsl(20, 90%, 50%)" />
<rect x="58" y="9" width="1" height="1" fill="hsl(20, 90%, 50%)" />
<rect x="59" y="9" width="1" height="1" fill="hsl(20, 90%, 50%)" />
<rect x="47" y="11" width="1" height="1" fill="hsl(20, 90%, 50%)" />
<rect x="54" y="11" width="1" height="1" fill="hsl(20, 90%, 50%)" />
<rect x="47" y="12" width="1" height="1" fill="hsl(20, 90%, 50%)" />
<rect x="49" y="12" width="1" height="1" fill="hsl(20, 90%, 50%)" />
<rect x="54" y="12" width="1" height="1" fill="hsl(20, 90%, 50%)" />
<rect x="56" y="12" width="1" height="1" fill="hsl(20, 90%, 50%)" />
<rect x="62" y="12" width="1" height="1" fill="hsl(20, 90%, 50%)" />
<rect x="47" y="13" width="1" height="1" fill="hsl(20, 90%, 50%)" />
<rect x="48" y="13" width="1" height="1" fill="hsl(20, 90%, 50%)" />
<rect x="54" y="13" width="1" height="1" fill="hsl(20, 90%, 50%)" />
<rect x="55" y="13" width="1" height="1" fill="hsl(20, 90%, 50%)" />
<rect x="60" y="13" width="1" height="1" fill="hsl(20, 90%, 50%)" />
<rect x="61" y="13" width="1" height="1" fill="hsl(20, 90%, 50%)" />
<rect x="44" y="14" width="1" height="1" fill="hsl(20, 90%, 50%)" />
<rect x="52" y="14" width="1" height="1" fill="hsl(20, 90%, 50%)" />
<rect x="61" y="14" width="1" height="1" fill="hsl(20, 90%, 50%)" />
<rect x="62" y="14" width="1" height="1" fill="hsl(20, 90%, 50%)" />
<rect x="43" y="15" width="1" height="1" fill="hsl(20, 90%, 50%)" />
<rect x="43" y="16" width="1" height="1" fill="hsl(20, 90%, 50%)" />
<rect x="44" y="16" width="1" height="1" fill="hsl(20, 90%, 50%)" />
<rect x="45" y="16" width="1" height="1" fill="hsl(20, 90%, 50%)" />
<rect x="57" y="16" width="1" height="1" fill="hsl(20, 90%, 50%)" />
<rect x="59" y="16" width="1" height="1" fill="hsl(20, 90%, 50%)" />
<rect x="57" y="17" width="1" height="1" fill="hsl(20, 90%, 50%)" />
<rect x="58" y="17" width="1" height="1" fill="hsl(20, 90%, 50%)" />
<rect x="58" y="18" width="1" height="1" fill="hsl(20, 90%, 50%)" />
<rect x="4" y="19" width="1" height="1" fill="hsl(20, 90%, 50%)" />
<rect x="55" y="19" width="1" height="1" fill="hsl(20, 90%, 50%)" />
<rect x="5" y="20" width="1" height="1" fill="hsl(20, 90%, 50%)" />
<rect x="6" y="20" width="1" height="1" fill="hsl(20, 90%, 50%)" />
<rect x="53" y="20" width="1" height="1" fill="hsl(20, 90%, 50%)" />
<rect x="54" y="20" width="1" height="1" fill="hsl(20, 90%, 50%)" />
<rect x="4" y="21" width="1" height="1" fill="hsl(20, 90%, 50%)" />
<rect x="5" y="21" width="1" height="1" fill="hsl(20, 90%, 50%)" />
<rect x="54" y="21" width="1" height="1" fill="hsl(20, 90%, 50%)" />
<rect x="55" y="21" width="1" height="1" fill="hsl(20, 90%, 50%)" />
<rect x="33" y="29" width="1" height="1" fill="hsl(20, 90%, 50%)" />
<rect x="24" y="30" width="1" height="1" fill="hsl(20, 90%, 50%)" />
<rect x="31" y="30" width="1" height="1" fill="hsl(20, 90%, 50%)" />
<rect x="33" y="30" width="1" height="1" fill="hsl(20, 90%, 50%)" />
<rect x="22" y="31" width="1" height="1" fill="hsl(20, 90%, 50%)" />
<rect x="24" y="31" width="1" height="1" fill="hsl(20, 90%, 50%)" />
<rect x="32" y="31" width="1" height="1" fill="hsl(20, 90%, 50%)" />
<rect x="33" y="31" width="1" height="1" fill="hsl(20, 90%, 50%)" />
<rect x="23" y="32" width="1" height="1" fill="hsl(20, 90%, 50%)" />
<rect x="24" y="32" width="1" height="1" fill="hsl(20, 90%, 50%)" />
<rect x="29" y="33" width="1" height="1" fill="hsl(20, 90%, 50%)" />
<rect x="30" y="34" width="1" height="1" fill="hsl(20, 90%, 50%)" />
<rect x="35" y="34" width="1" height="1" fill="hsl(20, 90%, 50%)" />
<rect x="36" y="34" width="1" height="1" fill="hsl(20, 90%, 50%)" />
<rect x="37" y="34" width="1" height="1" fill="hsl(20, 90%, 50%)" />
<rect x="28" y="35" width="1" height="1" fill="hsl(20, 90%, 50%)" />
<rect x="29" y="35" width="1" height="1" fill="hsl(20, 90%, 50%)" />
<rect x="30" y="35" width="1" height="1" fill="hsl(20, 90%, 50%)" />
<rect x="35" y="35" width="1" height="1" fill="hsl(20, 90%, 50%)" />
<rect x="36" y="36" width="1" height="1" fill="hsl(20, 90%, 50%)" />
<rect x="41" y="37" width="1" height="1" fill="hsl(20, 90%, 50%)" />
<rect x="42" y="37" width="1" height="1" fill="hsl(20, 90%, 50%)" />
<rect x="32" y="38" width="1" height="1" fill="hsl(20, 90%, 50%)" />
<rect x="33" y="38" width="1" height="1" fill="hsl(20, 90%, 50%)" />
<rect x="41" y="38" width="1" height="1" fill="hsl(20, 90%, 50%)" />
<rect x="43" y="38" width="1" height="1" fill="hsl(20, 90%, 50%)" />
<rect x="32" y="39" width="1" height="1" fill="hsl(20, 90%, 50%)" />
<rect x="34" y="39" width="1" height="1" fill="hsl(20, 90%, 50%)" />
<rect x="41" y="39" width="1" height="1" fill="hsl(20, 90%, 50%)" />
<rect x="32" y="40" width="1" height="1" fill="hsl(20, 90%, 50%)" />
<rect x="49" y="58" width="1" height="1" fill="hsl(20, 90%, 50%)" />
<rect x="50" y="58" width="1" height="1" fill="hsl(20, 90%, 50%)" />
<rect x="49" y="59" width="1" height="1" fill="hsl(20, 90%, 50%)" />
<rect x="51" y="59" width="1" height="1" fill="hsl(20, 90%, 50%)" />
<rect x="49" y="60" width="1" height="1" fill="hsl(20, 90%, 50%)" />
</svg>