<?xml version="1.0" encoding="utf-8"?>
<svg xmlns="http://www.w3.org/2000/svg" width="86" height="44" viewBox="0 0 86 44">
<rect width="100%" height="100%" fill="transparent" />
<rect x="58" y="4" width="6" height="6" fill="hsl(20, 90%, 50%)" />
<rect x="64" y="4" width="6" height="6" fill="hsl(20, 90%, 50%)" />
<rect x="76" y="4" width="6" height="6" fill="hsl(20, 90%, 50%)" />
<rect x="4" y="10" width="6" height="6" fill="hsl(20, 90%, 50%)" />
<rect x="16" y="10" width="6" height="6" fill="hsl(20, 90%, 50%)" />
<rect x="22" y="10" width="6" height="6" fill="hsl(20, 90%, 50%)" />
<rect x="64" y="10" width="6" height="6" fill="hsl(20, 90%, 50%)" />
<rect x="70" y="10" width="6" height="6" fill="hsl(20, 90%, 50%)" />
<rect x="76" y="10" width="6" height="6" fill="hsl(20, 90%, 50%)" />
<rect x="4" y="16" width="6" height="6" fill="hsl(20, 90%, 50%)" />
<rect x="10" y="16" width="6" height="6" fill="hsl(20, 90%, 50%)" />
<rect x="22" y="16" width="6" height="6" fill="hsl(20, 90%, 50%)" />
<rect x="70" y="16" width="6" height="6" fill="hsl(20, 90%, 50%)" />
<rect x="58" y="28" width="6" height="6" fill="hsl(20, 90%, 50%)" />
<rect x="64" y="28" width="6" height="6" fill="hsl(20, 90%, 50%)" />
<rect x="58" y="34" width="6" height="6" fill="hsl(20, 90%, 50%)" />
<rect x="64" y="34" width="6" height="6" fill="hsl(20, 90%, 50%)" />
</svg>