<?xml version="1.0" encoding="utf-8"?>
<svg xmlns="http://www.w3.org/2000/svg" width="96" height="68" viewBox="0 0 96 68">
<rect width="100%" height="100%" fill="transparent" />
<rect x="44" y="4" width="4" height="4" fill="hsl(20, 90%, 50%)" />
<rect x="44" y="8" width="4" height="4" fill="hsl(20, 90%, 50%)" />
<rect x="72" y="8" width="4" height="4" fill="hsl(20, 90%, 50%)" />
<rect x="16" y="12" width="4" height="4" fill="hsl(20, 90%, 50%)" />
<rect x="36" y="12" width="4" height="4" fill="hsl(20, 90%, 50%)" />
<rect x="52" y="12" width="4" height="4" fill="hsl(20, 90%, 50%)" />
<rect x="68" y="12" width="4" height="4" fill="hsl(20, 90%, 50%)" />
<rect x="72" y="12" width="4" height="4" fill="hsl(20, 90%, 50%)" />
<rect x="16" y="16" width="4" height="4" fill="hsl(20, 90%, 50%)" />
<rect x="20" y="16" width="4" height="4" fill="hsl(20, 90%, 50%)" />
<rect x="40" y="16" width="4" height="4" fill="hsl(20, 90%, 50%)" />
<rect x="44" y="16" width="4" height="4" fill="hsl(20, 90%, 50%)" />
<rect x="48" y="16" width="4" height="4" fill="hsl(20, 90%, 50%)" />
<rect x="40" y="20" width="4" height="4" fill="hsl(20, 90%, 50%)" />
<rect x="44" y="20" width="4" height="4" fill="hsl(20, 90%, 50%)" />
<rect x="48" y="20" width="4" height="4" fill="hsl(20, 90%, 50%)" />
<rect x="60" y="20" width="4" height="4" fill="hsl(20, 90%, 50%)" />
<rect x="64" y="20" width="4" height="4" fill="hsl(20, 90%, 50%)" />
<rect x="68" y="20" width="4" height="4" fill="hsl(20, 90%, 50%)" />
<rect x="80" y="20" width="4" height="4" fill="hsl(20, 90%, 50%)" />
<rect x="88" y="20" width="4" height="4" fill="hsl(20, 90%, 50%)" />
<rect x="8" y="24" width="4" height="4" fill="hsl(20, 90%, 50%)" />
<rect x="20" y="24" width="4" height="4" fill="hsl(20, 90%, 50%)" />
<rect x="24" y="24" width="4" height="4" fill="hsl(20, 90%, 50%)" />
<rect x="28" y="24" width="4" height="4" fill="hsl(20, 90%, 50%)" />
<rect x="68" y="24" width="4" height="4" fill="hsl(20, 90%, 50%)" />
<rect x="76" y="24" width="4" height="4" fill="hsl(20, 90%, 50%)" />
<rect x="80" y="24" width="4" height="4" fill="hsl(20, 90%, 50%)" />
<rect x="84" y="24" width="4" height="4" fill="hsl(20, 90%, 50%)" />
<rect x="88" y="24" width="4" height="4" fill="hsl(20, 90%, 50%)" />
<rect x="4" y="28" width="4" height="4" fill="hsl(20, 90%, 50%)" />
<rect x="12" y="28" width="4" height="4" fill="hsl(20, 90%, 50%)" />
<rect x="20" y="28" width="4" height="4" fill="hsl(20, 90%, 50%)" />
<rect x="84" y="28" width="4" height="4" fill="hsl(20, 90%, 50%)" />
<rect x="88" y="28" width="4" height="4" fill="hsl(20, 90%, 50%)" />
<rect x="4" y="32" width="4" height="4" fill="hsl(20, 90%, 50%)" />
<rect x="16" y="32" width="4" height="4" fill="hsl(20, 90%, 50%)" />
<rect x="8" y="36" width="4" height="4" fill="hsl(20, 90%, 50%)" />
<rect x="12" y="36" width="4" height="4" fill="hsl(20, 90%, 50%)" />
<rect x="48" y="36" width="4" height="4" fill="hsl(20, 90%, 50%)" />
<rect x="52" y="36" width="4" height="4" fill="hsl(20, 90%, 50%)" />
<rect x="28" y="40" width="4" height="4" fill="hsl(20, 90%, 50%)" />
<rect x="32" y="40" width="4" height="4" fill="hsl(20, 90%, 50%)" />
<rect x="40" y="40" width="4" height="4" fill="hsl(20, 90%, 50%)" />
<rect x="60" y="40" width="4" height="4" fill="hsl(20, 90%, 50%)" />
<rect x="68" y="40" width="4" height="4" fill="hsl(20, 90%, 50%)" />
<rect x="72" y="40" width="4" height="4" fill="hsl(20, 90%, 50%)" />
<rect x="28" y="44" width="4" height="4" fill="hsl(20, 90%, 50%)" />
<rect x="72" y="44" width="4" height="4" fill="hsl(20, 90%, 50%)" />
<rect x="32" y="48" width="4" height="4" fill="hsl(20, 90%, 50%)" />
<rect x="36" y="48" width="4" height="4" fill="hsl(20, 90%, 50%)" />
<rect x="64" y="48" width="4" height="4" fill="hsl(20, 90%, 50%)" />
<rect x="68" y="48" width="4" height="4" fill="hsl(20, 90%, 50%)" />
<rect x="20" y="52" width="4" height="4" fill="hsl(20, 90%, 50%)" />
<rect x="24" y="52" width="4" height="4" fill="hsl(20, 90%, 50%)" />
<rect x="28" y="52" width="4" height="4" fill="hsl(20, 90%, 50%)" />
<rect x="40" y="52" width="4" height="4" fill="hsl(20, 90%, 50%)" />
<rect x="44" y="52" width="4" height="4" fill="hsl(20, 90%, 50%)" />
<rect x="48" y="52" width="4" height="4" fill="hsl(20, 90%, 50%)" />
<rect x="52" y="52" width="4" height="4" fill="hsl(20, 90%, 50%)" />
<rect x="56" y="52" width="4" height="4" fill="hsl(20, 90%, 50%)" />
<rect x="60" y="52" width="4" height="4" fill="hsl(20, 90%, 50%)" />
<rect x="72" y="52" width="4" height="4" fill="hsl(20, 90%, 50%)" />
<rect x="76" y="52" width="4" height="4" fill="hsl(20, 90%, 50%)" />
<rect x="80" y="52" width="4" height="4" fill="hsl(20, 90%, 50%)" />
<rect x="20" y="56" width="4" height="4" fill="hsl(20, 90%, 50%)" />
<rect x="32" y="56" width="4" height="4" fill="hsl(20, 90%, 50%)" />
<rect x="68" y="56" width="4" height="4" fill="hsl(20, 90%, 50%)" />
<rect x="80" y="56" width="4" height="4" fill="hsl(20, 90%, 50%)" />
<rect x="24" y="60" width="4" height="4" fill="hsl(20, 90%, 50%)" />
<rect x="28" y="60" width="4" height="4" fill="hsl(20, 90%, 50%)" />
<rect x="72" y="60" width="4" height="4" fill="hsl(20, 90%, 50%)" />
<rect x="76" y="60" width="4" height="4" fill="hsl(20, 90%, 50%)" />
</svg>