<?xml version="1.0" encoding="utf-8"?>
<svg xmlns="http://www.w3.org/2000/svg" width="74" height="54" viewBox="0 0 74 54">
<rect width="100%" height="100%" fill="transparent" />
<rect x="58" y="4" width="2" height="2" fill="hsl(20, 90%, 50%)" />
<rect x="20" y="6" width="2" height="2" fill="hsl(20, 90%, 50%)" />
<rect x="22" y="6" width="2" height="2" fill="hsl(20, 90%, 50%)" />
<rect x="58" y="6" width="2" height="2" fill="hsl(20, 90%, 50%)" />
<rect x="62" y="6" width="2" height="2" fill="hsl(20, 90%, 50%)" />
<rect x="22" y="8" width="2" height="2" fill="hsl(20, 90%, 50%)" />
<rect x="58" y="8" width="2" height="2" fill="hsl(20, 90%, 50%)" />
<rect x="60" y="8" width="2" height="2" fill="hsl(20, 90%, 50%)" />
<rect x="22" y="10" width="2" height="2" fill="hsl(20, 90%, 50%)" />
<rect x="26" y="10" width="2" height="2" fill="hsl(20, 90%, 50%)" />
<rect x="24" y="12" width="2" height="2" fill="hsl(20, 90%, 50%)" />
<rect x="26" y="12" width="2" height="2" fill="hsl(20, 90%, 50%)" />
<rect x="50" y="14" width="2" height="2" fill="hsl(20, 90%, 50%)" />
<rect x="52" y="14" width="2" height="2" fill="hsl(20, 90%, 50%)" />
<rect x="50" y="16" width="2" height="2" fill="hsl(20, 90%, 50%)" />
<rect x="54" y="16" width="2" height="2" fill="hsl(20, 90%, 50%)" />
<rect x="52" y="18" width="2" height="2" fill="hsl(20, 90%, 50%)" />
<rect x="62" y="24" width="2" height="2" fill="hsl(20, 90%, 50%)" />
<rect x="64" y="24" width="2" height="2" fill="hsl(20, 90%, 50%)" />
<rect x="24" y="26" width="2" height="2" fill="hsl(20, 90%, 50%)" />
<rect x="62" y="26" width="2" height="2" fill="hsl(20, 90%, 50%)" />
<rect x="66" y="26" width="2" height="2" fill="hsl(20, 90%, 50%)" />
<rect x="24" y="28" width="2" height="2" fill="hsl(20, 90%, 50%)" />
<rect x="28" y="28" width="2" height="2" fill="hsl(20, 90%, 50%)" />
<rect x="66" y="28" width="2" height="2" fill="hsl(20, 90%, 50%)" />
<rect x="24" y="30" width="2" height="2" fill="hsl(20, 90%, 50%)" />
<rect x="26" y="30" width="2" height="2" fill="hsl(20, 90%, 50%)" />
<rect x="28" y="30" width="2" height="2" fill="hsl(20, 90%, 50%)" />
<rect x="54" y="30" width="2" height="2" fill="hsl(20, 90%, 50%)" />
<rect x="56" y="30" width="2" height="2" fill="hsl(20, 90%, 50%)" />
<rect x="66" y="30" width="2" height="2" fill="hsl(20, 90%, 50%)" />
<rect x="68" y="30" width="2" height="2" fill="hsl(20, 90%, 50%)" />
<rect x="28" y="32" width="2" height="2" fill="hsl(20, 90%, 50%)" />
<rect x="54" y="32" width="2" height="2" fill="hsl(20, 90%, 50%)" />
<rect x="58" y="32" width="2" height="2" fill="hsl(20, 90%, 50%)" />
<rect x="58" y="34" width="2" height="2" fill="hsl(20, 90%, 50%)" />
<rect x="58" y="36" width="2" height="2" fill="hsl(20, 90%, 50%)" />
<rect x="60" y="36" width="2" height="2" fill="hsl(20, 90%, 50%)" />
<rect x="8" y="42" width="2" height="2" fill="hsl(20, 90%, 50%)" />
<rect x="10" y="42" width="2" height="2" fill="hsl(20, 90%, 50%)" />
<rect x="6" y="44" width="2" height="2" fill="hsl(20, 90%, 50%)" />
<rect x="10" y="44" width="2" height="2" fill="hsl(20, 90%, 50%)" />
<rect x="6" y="46" width="2" height="2" fill="hsl(20, 90%, 50%)" />
<rect x="4" y="48" width="2" height="2" fill="hsl(20, 90%, 50%)" />
<rect x="6" y="48" width="2" height="2" fill="hsl(20, 90%, 50%)" />
</svg>