<?xml version="1.0" encoding="utf-8"?>
<svg xmlns="http://www.w3.org/2000/svg" width="77" height="77" viewBox="0 0 77 77">
<rect width="100%" height="100%" fill="transparent" />
<rect x="10" y="4" width="3" height="3" fill="hsl(20, 90%, 50%)" />
<rect x="4" y="7" width="3" height="3" fill="hsl(20, 90%, 50%)" />
<rect x="10" y="7" width="3" height="3" fill="hsl(20, 90%, 50%)" />
<rect x="7" y="10" width="3" height="3" fill="hsl(20, 90%, 50%)" />
<rect x="10" y="10" width="3" height="3" fill="hsl(20, 90%, 50%)" />
<rect x="25" y="19" width="3" height="3" fill="hsl(20, 90%, 50%)" />
<rect x="19" y="22" width="3" height="3" fill="hsl(20, 90%, 50%)" />
<rect x="25" y="22" width="3" height="3" fill="hsl(20, 90%, 50%)" />
<rect x="22" y="25" width="3" height="3" fill="hsl(20, 90%, 50%)" />
<rect x="25" y="25" width="3" height="3" fill="hsl(20, 90%, 50%)" />
<rect x="67" y="28" width="3" height="3" fill="hsl(20, 90%, 50%)" />
<rect x="64" y="31" width="3" height="3" fill="hsl(20, 90%, 50%)" />
<rect x="64" y="34" width="3" height="3" fill="hsl(20, 90%, 50%)" />
<rect x="67" y="34" width="3" height="3" fill="hsl(20, 90%, 50%)" />
<rect x="70" y="34" width="3" height="3" fill="hsl(20, 90%, 50%)" />
<rect x="52" y="43" width="3" height="3" fill="hsl(20, 90%, 50%)" />
<rect x="49" y="46" width="3" height="3" fill="hsl(20, 90%, 50%)" />
<rect x="49" y="49" width="3" height="3" fill="hsl(20, 90%, 50%)" />
<rect x="52" y="49" width="3" height="3" fill="hsl(20, 90%, 50%)" />
<rect x="55" y="49" width="3" height="3" fill="hsl(20, 90%, 50%)" />
<rect x="64" y="55" width="3" height="3" fill="hsl(20, 90%, 50%)" />
<rect x="67" y="55" width="3" height="3" fill="hsl(20, 90%, 50%)" />
<rect x="52" y="58" width="3" height="3" fill="hsl(20, 90%, 50%)" />
<rect x="64" y="58" width="3" height="3" fill="hsl(20, 90%, 50%)" />
<rect x="67" y="58" width="3" height="3" fill="hsl(20, 90%, 50%)" />
<rect x="49" y="61" width="3" height="3" fill="hsl(20, 90%, 50%)" />
<rect x="55" y="61" width="3" height="3" fill="hsl(20, 90%, 50%)" />
<rect x="46" y="64" width="3" height="3" fill="hsl(20, 90%, 50%)" />
<rect x="52" y="64" width="3" height="3" fill="hsl(20, 90%, 50%)" />
<rect x="46" y="67" width="3" height="3" fill="hsl(20, 90%, 50%)" />
<rect x="43" y="70" width="3" height="3" fill="hsl(20, 90%, 50%)" />
<rect x="46" y="70" width="3" height="3" fill="hsl(20, 90%, 50%)" />
</svg>