<?xml version="1.0" encoding="utf-8"?>
<svg xmlns="http://www.w3.org/2000/svg" width="68" height="84" viewBox="0 0 68 84">
<rect width="100%" height="100%" fill="transparent" />
<rect x="8" y="4" width="4" height="4" fill="hsl(20, 90%, 50%)" />
<rect x="12" y="8" width="4" height="4" fill="hsl(20, 90%, 50%)" />
<rect x="4" y="12" width="4" height="4" fill="hsl(20, 90%, 50%)" />
<rect x="8" y="12" width="4" height="4" fill="hsl(20, 90%, 50%)" />
<rect x="12" y="12" width="4" height="4" fill="hsl(20, 90%, 50%)" />
<rect x="28" y="16" width="4" height="4" fill="hsl(20, 90%, 50%)" />
<rect x="32" y="16" width="4" height="4" fill="hsl(20, 90%, 50%)" />
<rect x="40" y="16" width="4" height="4" fill="hsl(20, 90%, 50%)" />
<rect x="44" y="16" width="4" height="4" fill="hsl(20, 90%, 50%)" />
<rect x="52" y="16" width="4" height="4" fill="hsl(20, 90%, 50%)" />
<rect x="32" y="20" width="4" height="4" fill="hsl(20, 90%, 50%)" />
<rect x="40" y="20" width="4" height="4" fill="hsl(20, 90%, 50%)" />
<rect x="48" y="20" width="4" height="4" fill="hsl(20, 90%, 50%)" />
<rect x="52" y="20" width="4" height="4" fill="hsl(20, 90%, 50%)" />
<rect x="32" y="24" width="4" height="4" fill="hsl(20, 90%, 50%)" />
<rect x="40" y="24" width="4" height="4" fill="hsl(20, 90%, 50%)" />
<rect x="36" y="28" width="4" height="4" fill="hsl(20, 90%, 50%)" />
<rect x="40" y="28" width="4" height="4" fill="hsl(20, 90%, 50%)" />
<rect x="4" y="32" width="4" height="4" fill="hsl(20, 90%, 50%)" />
<rect x="8" y="32" width="4" height="4" fill="hsl(20, 90%, 50%)" />
<rect x="4" y="36" width="4" height="4" fill="hsl(20, 90%, 50%)" />
<rect x="16" y="36" width="4" height="4" fill="hsl(20, 90%, 50%)" />
<rect x="24" y="36" width="4" height="4" fill="hsl(20, 90%, 50%)" />
<rect x="28" y="36" width="4" height="4" fill="hsl(20, 90%, 50%)" />
<rect x="12" y="40" width="4" height="4" fill="hsl(20, 90%, 50%)" />
<rect x="16" y="40" width="4" height="4" fill="hsl(20, 90%, 50%)" />
<rect x="24" y="40" width="4" height="4" fill="hsl(20, 90%, 50%)" />
<rect x="16" y="44" width="4" height="4" fill="hsl(20, 90%, 50%)" />
<rect x="24" y="44" width="4" height="4" fill="hsl(20, 90%, 50%)" />
<rect x="48" y="44" width="4" height="4" fill="hsl(20, 90%, 50%)" />
<rect x="52" y="44" width="4" height="4" fill="hsl(20, 90%, 50%)" />
<rect x="60" y="44" width="4" height="4" fill="hsl(20, 90%, 50%)" />
<rect x="12" y="48" width="4" height="4" fill="hsl(20, 90%, 50%)" />
<rect x="24" y="48" width="4" height="4" fill="hsl(20, 90%, 50%)" />
<rect x="28" y="48" width="4" height="4" fill="hsl(20, 90%, 50%)" />
<rect x="32" y="48" width="4" height="4" fill="hsl(20, 90%, 50%)" />
<rect x="48" y="48" width="4" height="4" fill="hsl(20, 90%, 50%)" />
<rect x="56" y="48" width="4" height="4" fill="hsl(20, 90%, 50%)" />
<rect x="60" y="48" width="4" height="4" fill="hsl(20, 90%, 50%)" />
<rect x="16" y="52" width="4" height="4" fill="hsl(20, 90%, 50%)" />
<rect x="20" y="52" width="4" height="4" fill="hsl(20, 90%, 50%)" />
<rect x="36" y="52" width="4" height="4" fill="hsl(20, 90%, 50%)" />
<rect x="24" y="56" width="4" height="4" fill="hsl(20, 90%, 50%)" />
<rect x="28" y="56" width="4" height="4" fill="hsl(20, 90%, 50%)" />
<rect x="32" y="56" width="4" height="4" fill="hsl(20, 90%, 50%)" />
<rect x="36" y="56" width="4" height="4" fill="hsl(20, 90%, 50%)" />
<rect x="24" y="60" width="4" height="4" fill="hsl(20, 90%, 50%)" />
<rect x="16" y="64" width="4" height="4" fill="hsl(20, 90%, 50%)" />
<rect x="24" y="64" width="4" height="4" fill="hsl(20, 90%, 50%)" />
<rect x="32" y="64" width="4" height="4" fill="hsl(20, 90%, 50%)" />
<rect x="36" y="64" width="4" height="4" fill="hsl(20, 90%, 50%)" />
<rect x="16" y="68" width="4" height="4" fill="hsl(20, 90%, 50%)" />
<rect x="20" y="68" width="4" height="4" fill="hsl(20, 90%, 50%)" />
<rect x="32" y="68" width="4" height="4" fill="hsl(20, 90%, 50%)" />
<rect x="32" y="72" width="4" height="4" fill="hsl(20, 90%, 50%)" />
<rect x="40" y="72" width="4" height="4" fill="hsl(20, 90%, 50%)" />
<rect x="36" y="76" width="4" height="4" fill="hsl(20, 90%, 50%)" />
<rect x="40" y="76" width="4" height="4" fill="hsl(20, 90%, 50%)" />
</svg>