<?xml version="1.0" encoding="utf-8"?>
<svg xmlns="http://www.w3.org/2000/svg" width="65" height="95" viewBox="0 0 65 95">
<rect width="100%" height="100%" fill="transparent" />
<rect x="4" y="4" width="3" height="3" fill="hsl(20, 90%, 50%)" />
<rect x="7" y="4" width="3" height="3" fill="hsl(20, 90%, 50%)" />
<rect x="13" y="4" width="3" height="3" fill="hsl(20, 90%, 50%)" />
<rect x="4" y="7" width="3" height="3" fill="hsl(20, 90%, 50%)" />
<rect x="7" y="7" width="3" height="3" fill="hsl(20, 90%, 50%)" />
<rect x="13" y="7" width="3" height="3" fill="hsl(20, 90%, 50%)" />
<rect x="16" y="7" width="3" height="3" fill="hsl(20, 90%, 50%)" />
<rect x="19" y="7" width="3" height="3" fill="hsl(20, 90%, 50%)" />
<rect x="22" y="10" width="3" height="3" fill="hsl(20, 90%, 50%)" />
<rect x="4" y="13" width="3" height="3" fill="hsl(20, 90%, 50%)" />
<rect x="7" y="13" width="3" height="3" fill="hsl(20, 90%, 50%)" />
<rect x="13" y="13" width="3" height="3" fill="hsl(20, 90%, 50%)" />
<rect x="16" y="13" width="3" height="3" fill="hsl(20, 90%, 50%)" />
<rect x="19" y="13" width="3" height="3" fill="hsl(20, 90%, 50%)" />
<rect x="7" y="16" width="3" height="3" fill="hsl(20, 90%, 50%)" />
<rect x="13" y="16" width="3" height="3" fill="hsl(20, 90%, 50%)" />
<rect x="7" y="19" width="3" height="3" fill="hsl(20, 90%, 50%)" />
<rect x="13" y="19" width="3" height="3" fill="hsl(20, 90%, 50%)" />
<rect x="10" y="22" width="3" height="3" fill="hsl(20, 90%, 50%)" />
<rect x="7" y="25" width="3" height="3" fill="hsl(20, 90%, 50%)" />
<rect x="10" y="28" width="3" height="3" fill="hsl(20, 90%, 50%)" />
<rect x="4" y="31" width="3" height="3" fill="hsl(20, 90%, 50%)" />
<rect x="7" y="31" width="3" height="3" fill="hsl(20, 90%, 50%)" />
<rect x="10" y="31" width="3" height="3" fill="hsl(20, 90%, 50%)" />
<rect x="16" y="37" width="3" height="3" fill="hsl(20, 90%, 50%)" />
<rect x="19" y="40" width="3" height="3" fill="hsl(20, 90%, 50%)" />
<rect x="13" y="43" width="3" height="3" fill="hsl(20, 90%, 50%)" />
<rect x="16" y="43" width="3" height="3" fill="hsl(20, 90%, 50%)" />
<rect x="19" y="43" width="3" height="3" fill="hsl(20, 90%, 50%)" />
<rect x="25" y="49" width="3" height="3" fill="hsl(20, 90%, 50%)" />
<rect x="28" y="52" width="3" height="3" fill="hsl(20, 90%, 50%)" />
<rect x="22" y="55" width="3" height="3" fill="hsl(20, 90%, 50%)" />
<rect x="25" y="55" width="3" height="3" fill="hsl(20, 90%, 50%)" />
<rect x="28" y="55" width="3" height="3" fill="hsl(20, 90%, 50%)" />
<rect x="34" y="61" width="3" height="3" fill="hsl(20, 90%, 50%)" />
<rect x="37" y="64" width="3" height="3" fill="hsl(20, 90%, 50%)" />
<rect x="55" y="64" width="3" height="3" fill="hsl(20, 90%, 50%)" />
<rect x="58" y="64" width="3" height="3" fill="hsl(20, 90%, 50%)" />
<rect x="31" y="67" width="3" height="3" fill="hsl(20, 90%, 50%)" />
<rect x="34" y="67" width="3" height="3" fill="hsl(20, 90%, 50%)" />
<rect x="37" y="67" width="3" height="3" fill="hsl(20, 90%, 50%)" />
<rect x="58" y="67" width="3" height="3" fill="hsl(20, 90%, 50%)" />
<rect x="43" y="70" width="3" height="3" fill="hsl(20, 90%, 50%)" />
<rect x="46" y="70" width="3" height="3" fill="hsl(20, 90%, 50%)" />
<rect x="52" y="70" width="3" height="3" fill="hsl(20, 90%, 50%)" />
<rect x="43" y="73" width="3" height="3" fill="hsl(20, 90%, 50%)" />
<rect x="46" y="73" width="3" height="3" fill="hsl(20, 90%, 50%)" />
<rect x="52" y="73" width="3" height="3" fill="hsl(20, 90%, 50%)" />
<rect x="55" y="73" width="3" height="3" fill="hsl(20, 90%, 50%)" />
<rect x="43" y="79" width="3" height="3" fill="hsl(20, 90%, 50%)" />
<rect x="46" y="79" width="3" height="3" fill="hsl(20, 90%, 50%)" />
<rect x="52" y="79" width="3" height="3" fill="hsl(20, 90%, 50%)" />
<rect x="55" y="79" width="3" height="3" fill="hsl(20, 90%, 50%)" />
<rect x="46" y="82" width="3" height="3" fill="hsl(20, 90%, 50%)" />
<rect x="52" y="82" width="3" height="3" fill="hsl(20, 90%, 50%)" />
<rect x="46" y="85" width="3" height="3" fill="hsl(20, 90%, 50%)" />
<rect x="52" y="85" width="3" height="3" fill="hsl(20, 90%, 50%)" />
<rect x="49" y="88" width="3" height="3" fill="hsl(20, 90%, 50%)" />
</svg>