<?xml version="1.0" encoding="utf-8"?>
<svg xmlns="http://www.w3.org/2000/svg" width="92" height="92" viewBox="0 0 92 92">
<rect width="100%" height="100%" fill="transparent" />
<rect x="67" y="4" width="7" height="7" fill="hsl(20, 90%, 50%)" />
<rect x="74" y="4" width="7" height="7" fill="hsl(20, 90%, 50%)" />
<rect x="32" y="11" width="7" height="7" fill="hsl(20, 90%, 50%)" />
<rect x="39" y="11" width="7" height="7" fill="hsl(20, 90%, 50%)" />
<rect x="60" y="11" width="7" height="7" fill="hsl(20, 90%, 50%)" />
<rect x="81" y="11" width="7" height="7" fill="hsl(20, 90%, 50%)" />
<rect x="11" y="18" width="7" height="7" fill="hsl(20, 90%, 50%)" />
<rect x="32" y="18" width="7" height="7" fill="hsl(20, 90%, 50%)" />
<rect x="67" y="18" width="7" height="7" fill="hsl(20, 90%, 50%)" />
<rect x="81" y="18" width="7" height="7" fill="hsl(20, 90%, 50%)" />
<rect x="4" y="25" width="7" height="7" fill="hsl(20, 90%, 50%)" />
<rect x="18" y="25" width="7" height="7" fill="hsl(20, 90%, 50%)" />
<rect x="32" y="25" width="7" height="7" fill="hsl(20, 90%, 50%)" />
<rect x="74" y="25" width="7" height="7" fill="hsl(20, 90%, 50%)" />
<rect x="11" y="32" width="7" height="7" fill="hsl(20, 90%, 50%)" />
<rect x="32" y="32" width="7" height="7" fill="hsl(20, 90%, 50%)" />
<rect x="46" y="32" width="7" height="7" fill="hsl(20, 90%, 50%)" />
<rect x="53" y="32" width="7" height="7" fill="hsl(20, 90%, 50%)" />
<rect x="32" y="39" width="7" height="7" fill="hsl(20, 90%, 50%)" />
<rect x="53" y="39" width="7" height="7" fill="hsl(20, 90%, 50%)" />
<rect x="39" y="46" width="7" height="7" fill="hsl(20, 90%, 50%)" />
<rect x="74" y="46" width="7" height="7" fill="hsl(20, 90%, 50%)" />
<rect x="46" y="53" width="7" height="7" fill="hsl(20, 90%, 50%)" />
<rect x="53" y="53" width="7" height="7" fill="hsl(20, 90%, 50%)" />
<rect x="60" y="53" width="7" height="7" fill="hsl(20, 90%, 50%)" />
<rect x="67" y="53" width="7" height="7" fill="hsl(20, 90%, 50%)" />
<rect x="74" y="53" width="7" height="7" fill="hsl(20, 90%, 50%)" />
<rect x="60" y="67" width="7" height="7" fill="hsl(20, 90%, 50%)" />
<rect x="53" y="74" width="7" height="7" fill="hsl(20, 90%, 50%)" />
<rect x="67" y="74" width="7" height="7" fill="hsl(20, 90%, 50%)" />
<rect x="60" y="81" width="7" height="7" fill="hsl(20, 90%, 50%)" />
</svg>