<?xml version="1.0" encoding="utf-8"?>
<svg xmlns="http://www.w3.org/2000/svg" width="74" height="78" viewBox="0 0 74 78">
<rect width="100%" height="100%" fill="transparent" />
<rect x="24" y="4" width="2" height="2" fill="hsl(20, 90%, 50%)" />
<rect x="24" y="6" width="2" height="2" fill="hsl(20, 90%, 50%)" />
<rect x="26" y="6" width="2" height="2" fill="hsl(20, 90%, 50%)" />
<rect x="28" y="6" width="2" height="2" fill="hsl(20, 90%, 50%)" />
<rect x="30" y="8" width="2" height="2" fill="hsl(20, 90%, 50%)" />
<rect x="28" y="10" width="2" height="2" fill="hsl(20, 90%, 50%)" />
<rect x="30" y="10" width="2" height="2" fill="hsl(20, 90%, 50%)" />
<rect x="14" y="12" width="2" height="2" fill="hsl(20, 90%, 50%)" />
<rect x="14" y="14" width="2" height="2" fill="hsl(20, 90%, 50%)" />
<rect x="16" y="14" width="2" height="2" fill="hsl(20, 90%, 50%)" />
<rect x="18" y="14" width="2" height="2" fill="hsl(20, 90%, 50%)" />
<rect x="20" y="16" width="2" height="2" fill="hsl(20, 90%, 50%)" />
<rect x="18" y="18" width="2" height="2" fill="hsl(20, 90%, 50%)" />
<rect x="20" y="18" width="2" height="2" fill="hsl(20, 90%, 50%)" />
<rect x="64" y="22" width="2" height="2" fill="hsl(20, 90%, 50%)" />
<rect x="12" y="24" width="2" height="2" fill="hsl(20, 90%, 50%)" />
<rect x="14" y="24" width="2" height="2" fill="hsl(20, 90%, 50%)" />
<rect x="64" y="24" width="2" height="2" fill="hsl(20, 90%, 50%)" />
<rect x="14" y="26" width="2" height="2" fill="hsl(20, 90%, 50%)" />
<rect x="64" y="26" width="2" height="2" fill="hsl(20, 90%, 50%)" />
<rect x="66" y="26" width="2" height="2" fill="hsl(20, 90%, 50%)" />
<rect x="68" y="26" width="2" height="2" fill="hsl(20, 90%, 50%)" />
<rect x="14" y="28" width="2" height="2" fill="hsl(20, 90%, 50%)" />
<rect x="18" y="28" width="2" height="2" fill="hsl(20, 90%, 50%)" />
<rect x="68" y="28" width="2" height="2" fill="hsl(20, 90%, 50%)" />
<rect x="16" y="30" width="2" height="2" fill="hsl(20, 90%, 50%)" />
<rect x="18" y="30" width="2" height="2" fill="hsl(20, 90%, 50%)" />
<rect x="4" y="36" width="2" height="2" fill="hsl(20, 90%, 50%)" />
<rect x="4" y="38" width="2" height="2" fill="hsl(20, 90%, 50%)" />
<rect x="6" y="38" width="2" height="2" fill="hsl(20, 90%, 50%)" />
<rect x="8" y="38" width="2" height="2" fill="hsl(20, 90%, 50%)" />
<rect x="10" y="40" width="2" height="2" fill="hsl(20, 90%, 50%)" />
<rect x="8" y="42" width="2" height="2" fill="hsl(20, 90%, 50%)" />
<rect x="10" y="42" width="2" height="2" fill="hsl(20, 90%, 50%)" />
<rect x="6" y="56" width="2" height="2" fill="hsl(20, 90%, 50%)" />
<rect x="6" y="58" width="2" height="2" fill="hsl(20, 90%, 50%)" />
<rect x="10" y="58" width="2" height="2" fill="hsl(20, 90%, 50%)" />
<rect x="6" y="60" width="2" height="2" fill="hsl(20, 90%, 50%)" />
<rect x="8" y="60" width="2" height="2" fill="hsl(20, 90%, 50%)" />
<rect x="10" y="60" width="2" height="2" fill="hsl(20, 90%, 50%)" />
<rect x="10" y="62" width="2" height="2" fill="hsl(20, 90%, 50%)" />
<rect x="24" y="66" width="2" height="2" fill="hsl(20, 90%, 50%)" />
<rect x="26" y="66" width="2" height="2" fill="hsl(20, 90%, 50%)" />
<rect x="26" y="68" width="2" height="2" fill="hsl(20, 90%, 50%)" />
<rect x="20" y="70" width="2" height="2" fill="hsl(20, 90%, 50%)" />
<rect x="22" y="70" width="2" height="2" fill="hsl(20, 90%, 50%)" />
<rect x="24" y="70" width="2" height="2" fill="hsl(20, 90%, 50%)" />
<rect x="20" y="72" width="2" height="2" fill="hsl(20, 90%, 50%)" />
</svg>