<?xml version="1.0" encoding="utf-8"?>
<svg xmlns="http://www.w3.org/2000/svg" width="88" height="80" viewBox="0 0 88 80">
<rect width="100%" height="100%" fill="transparent" />
<rect x="4" y="4" width="8" height="8" fill="hsl(20, 90%, 50%)" />
<rect x="4" y="12" width="8" height="8" fill="hsl(20, 90%, 50%)" />
<rect x="12" y="12" width="8" height="8" fill="hsl(20, 90%, 50%)" />
<rect x="20" y="12" width="8" height="8" fill="hsl(20, 90%, 50%)" />
<rect x="28" y="20" width="8" height="8" fill="hsl(20, 90%, 50%)" />
<rect x="20" y="28" width="8" height="8" fill="hsl(20, 90%, 50%)" />
<rect x="44" y="28" width="8" height="8" fill="hsl(20, 90%, 50%)" />
<rect x="52" y="28" width="8" height="8" fill="hsl(20, 90%, 50%)" />
<rect x="20" y="36" width="8" height="8" fill="hsl(20, 90%, 50%)" />
<rect x="60" y="36" width="8" height="8" fill="hsl(20, 90%, 50%)" />
<rect x="28" y="44" width="8" height="8" fill="hsl(20, 90%, 50%)" />
<rect x="36" y="44" width="8" height="8" fill="hsl(20, 90%, 50%)" />
<rect x="60" y="44" width="8" height="8" fill="hsl(20, 90%, 50%)" />
<rect x="52" y="52" width="8" height="8" fill="hsl(20, 90%, 50%)" />
<rect x="60" y="60" width="8" height="8" fill="hsl(20, 90%, 50%)" />
<rect x="68" y="60" width="8" height="8" fill="hsl(20, 90%, 50%)" />
<rect x="76" y="60" width="8" height="8" fill="hsl(20, 90%, 50%)" />
<rect x="76" y="68" width="8" height="8" fill="hsl(20, 90%, 50%)" />
</svg>