<?xml version="1.0" encoding="utf-8"?>
<svg xmlns="http://www.w3.org/2000/svg" width="88" height="88" viewBox="0 0 88 88">
<rect width="100%" height="100%" fill="transparent" />
<rect x="44" y="4" width="4" height="4" fill="hsl(20, 90%, 50%)" />
<rect x="48" y="4" width="4" height="4" fill="hsl(20, 90%, 50%)" />
<rect x="44" y="8" width="4" height="4" fill="hsl(20, 90%, 50%)" />
<rect x="20" y="12" width="4" height="4" fill="hsl(20, 90%, 50%)" />
<rect x="24" y="12" width="4" height="4" fill="hsl(20, 90%, 50%)" />
<rect x="32" y="12" width="4" height="4" fill="hsl(20, 90%, 50%)" />
<rect x="36" y="12" width="4" height="4" fill="hsl(20, 90%, 50%)" />
<rect x="44" y="12" width="4" height="4" fill="hsl(20, 90%, 50%)" />
<rect x="64" y="12" width="4" height="4" fill="hsl(20, 90%, 50%)" />
<rect x="68" y="12" width="4" height="4" fill="hsl(20, 90%, 50%)" />
<rect x="12" y="16" width="4" height="4" fill="hsl(20, 90%, 50%)" />
<rect x="24" y="16" width="4" height="4" fill="hsl(20, 90%, 50%)" />
<rect x="32" y="16" width="4" height="4" fill="hsl(20, 90%, 50%)" />
<rect x="40" y="16" width="4" height="4" fill="hsl(20, 90%, 50%)" />
<rect x="64" y="16" width="4" height="4" fill="hsl(20, 90%, 50%)" />
<rect x="12" y="20" width="4" height="4" fill="hsl(20, 90%, 50%)" />
<rect x="16" y="20" width="4" height="4" fill="hsl(20, 90%, 50%)" />
<rect x="36" y="20" width="4" height="4" fill="hsl(20, 90%, 50%)" />
<rect x="72" y="20" width="4" height="4" fill="hsl(20, 90%, 50%)" />
<rect x="68" y="24" width="4" height="4" fill="hsl(20, 90%, 50%)" />
<rect x="72" y="24" width="4" height="4" fill="hsl(20, 90%, 50%)" />
<rect x="68" y="32" width="4" height="4" fill="hsl(20, 90%, 50%)" />
<rect x="72" y="32" width="4" height="4" fill="hsl(20, 90%, 50%)" />
<rect x="4" y="36" width="4" height="4" fill="hsl(20, 90%, 50%)" />
<rect x="44" y="36" width="4" height="4" fill="hsl(20, 90%, 50%)" />
<rect x="48" y="36" width="4" height="4" fill="hsl(20, 90%, 50%)" />
<rect x="52" y="36" width="4" height="4" fill="hsl(20, 90%, 50%)" />
<rect x="64" y="36" width="4" height="4" fill="hsl(20, 90%, 50%)" />
<rect x="72" y="36" width="4" height="4" fill="hsl(20, 90%, 50%)" />
<rect x="4" y="40" width="4" height="4" fill="hsl(20, 90%, 50%)" />
<rect x="8" y="40" width="4" height="4" fill="hsl(20, 90%, 50%)" />
<rect x="12" y="40" width="4" height="4" fill="hsl(20, 90%, 50%)" />
<rect x="44" y="40" width="4" height="4" fill="hsl(20, 90%, 50%)" />
<rect x="52" y="40" width="4" height="4" fill="hsl(20, 90%, 50%)" />
<rect x="68" y="40" width="4" height="4" fill="hsl(20, 90%, 50%)" />
<rect x="16" y="44" width="4" height="4" fill="hsl(20, 90%, 50%)" />
<rect x="44" y="44" width="4" height="4" fill="hsl(20, 90%, 50%)" />
<rect x="52" y="44" width="4" height="4" fill="hsl(20, 90%, 50%)" />
<rect x="72" y="44" width="4" height="4" fill="hsl(20, 90%, 50%)" />
<rect x="76" y="44" width="4" height="4" fill="hsl(20, 90%, 50%)" />
<rect x="80" y="44" width="4" height="4" fill="hsl(20, 90%, 50%)" />
<rect x="12" y="48" width="4" height="4" fill="hsl(20, 90%, 50%)" />
<rect x="20" y="48" width="4" height="4" fill="hsl(20, 90%, 50%)" />
<rect x="80" y="48" width="4" height="4" fill="hsl(20, 90%, 50%)" />
<rect x="12" y="52" width="4" height="4" fill="hsl(20, 90%, 50%)" />
<rect x="16" y="52" width="4" height="4" fill="hsl(20, 90%, 50%)" />
<rect x="12" y="60" width="4" height="4" fill="hsl(20, 90%, 50%)" />
<rect x="16" y="60" width="4" height="4" fill="hsl(20, 90%, 50%)" />
<rect x="12" y="64" width="4" height="4" fill="hsl(20, 90%, 50%)" />
<rect x="48" y="64" width="4" height="4" fill="hsl(20, 90%, 50%)" />
<rect x="68" y="64" width="4" height="4" fill="hsl(20, 90%, 50%)" />
<rect x="72" y="64" width="4" height="4" fill="hsl(20, 90%, 50%)" />
<rect x="20" y="68" width="4" height="4" fill="hsl(20, 90%, 50%)" />
<rect x="44" y="68" width="4" height="4" fill="hsl(20, 90%, 50%)" />
<rect x="52" y="68" width="4" height="4" fill="hsl(20, 90%, 50%)" />
<rect x="60" y="68" width="4" height="4" fill="hsl(20, 90%, 50%)" />
<rect x="72" y="68" width="4" height="4" fill="hsl(20, 90%, 50%)" />
<rect x="16" y="72" width="4" height="4" fill="hsl(20, 90%, 50%)" />
<rect x="20" y="72" width="4" height="4" fill="hsl(20, 90%, 50%)" />
<rect x="40" y="72" width="4" height="4" fill="hsl(20, 90%, 50%)" />
<rect x="48" y="72" width="4" height="4" fill="hsl(20, 90%, 50%)" />
<rect x="52" y="72" width="4" height="4" fill="hsl(20, 90%, 50%)" />
<rect x="60" y="72" width="4" height="4" fill="hsl(20, 90%, 50%)" />
<rect x="64" y="72" width="4" height="4" fill="hsl(20, 90%, 50%)" />
<rect x="40" y="76" width="4" height="4" fill="hsl(20, 90%, 50%)" />
<rect x="36" y="80" width="4" height="4" fill="hsl(20, 90%, 50%)" />
<rect x="40" y="80" width="4" height="4" fill="hsl(20, 90%, 50%)" />
</svg>