<?xml version="1.0" encoding="utf-8"?>
<svg xmlns="http://www.w3.org/2000/svg" width="58" height="41" viewBox="0 0 58 41">
<rect width="100%" height="100%" fill="transparent" />
<rect x="51" y="4" width="1" height="1" fill="hsl(20, 90%, 50%)" />
<rect x="53" y="4" width="1" height="1" fill="hsl(20, 90%, 50%)" />
<rect x="42" y="5" width="1" height="1" fill="hsl(20, 90%, 50%)" />
<rect x="43" y="5" width="1" height="1" fill="hsl(20, 90%, 50%)" />
<rect x="51" y="5" width="1" height="1" fill="hsl(20, 90%, 50%)" />
<rect x="52" y="5" width="1" height="1" fill="hsl(20, 90%, 50%)" />
<rect x="42" y="6" width="1" height="1" fill="hsl(20, 90%, 50%)" />
<rect x="43" y="6" width="1" height="1" fill="hsl(20, 90%, 50%)" />
<rect x="52" y="6" width="1" height="1" fill="hsl(20, 90%, 50%)" />
<rect x="7" y="7" width="1" height="1" fill="hsl(20, 90%, 50%)" />
<rect x="8" y="7" width="1" height="1" fill="hsl(20, 90%, 50%)" />
<rect x="7" y="8" width="1" height="1" fill="hsl(20, 90%, 50%)" />
<rect x="8" y="9" width="1" height="1" fill="hsl(20, 90%, 50%)" />
<rect x="7" y="10" width="1" height="1" fill="hsl(20, 90%, 50%)" />
<rect x="8" y="10" width="1" height="1" fill="hsl(20, 90%, 50%)" />
<rect x="16" y="11" width="1" height="1" fill="hsl(20, 90%, 50%)" />
<rect x="17" y="11" width="1" height="1" fill="hsl(20, 90%, 50%)" />
<rect x="15" y="12" width="1" height="1" fill="hsl(20, 90%, 50%)" />
<rect x="17" y="12" width="1" height="1" fill="hsl(20, 90%, 50%)" />
<rect x="16" y="13" width="1" height="1" fill="hsl(20, 90%, 50%)" />
<rect x="47" y="13" width="1" height="1" fill="hsl(20, 90%, 50%)" />
<rect x="42" y="14" width="1" height="1" fill="hsl(20, 90%, 50%)" />
<rect x="43" y="14" width="1" height="1" fill="hsl(20, 90%, 50%)" />
<rect x="47" y="14" width="1" height="1" fill="hsl(20, 90%, 50%)" />
<rect x="49" y="14" width="1" height="1" fill="hsl(20, 90%, 50%)" />
<rect x="41" y="15" width="1" height="1" fill="hsl(20, 90%, 50%)" />
<rect x="44" y="15" width="1" height="1" fill="hsl(20, 90%, 50%)" />
<rect x="47" y="15" width="1" height="1" fill="hsl(20, 90%, 50%)" />
<rect x="48" y="15" width="1" height="1" fill="hsl(20, 90%, 50%)" />
<rect x="4" y="16" width="1" height="1" fill="hsl(20, 90%, 50%)" />
<rect x="5" y="16" width="1" height="1" fill="hsl(20, 90%, 50%)" />
<rect x="42" y="16" width="1" height="1" fill="hsl(20, 90%, 50%)" />
<rect x="43" y="16" width="1" height="1" fill="hsl(20, 90%, 50%)" />
<rect x="4" y="17" width="1" height="1" fill="hsl(20, 90%, 50%)" />
<rect x="5" y="17" width="1" height="1" fill="hsl(20, 90%, 50%)" />
<rect x="35" y="17" width="1" height="1" fill="hsl(20, 90%, 50%)" />
<rect x="36" y="17" width="1" height="1" fill="hsl(20, 90%, 50%)" />
<rect x="35" y="18" width="1" height="1" fill="hsl(20, 90%, 50%)" />
<rect x="36" y="18" width="1" height="1" fill="hsl(20, 90%, 50%)" />
<rect x="48" y="25" width="1" height="1" fill="hsl(20, 90%, 50%)" />
<rect x="49" y="25" width="1" height="1" fill="hsl(20, 90%, 50%)" />
<rect x="48" y="26" width="1" height="1" fill="hsl(20, 90%, 50%)" />
<rect x="49" y="26" width="1" height="1" fill="hsl(20, 90%, 50%)" />
<rect x="44" y="27" width="1" height="1" fill="hsl(20, 90%, 50%)" />
<rect x="45" y="27" width="1" height="1" fill="hsl(20, 90%, 50%)" />
<rect x="44" y="28" width="1" height="1" fill="hsl(20, 90%, 50%)" />
<rect x="46" y="28" width="1" height="1" fill="hsl(20, 90%, 50%)" />
<rect x="46" y="29" width="1" height="1" fill="hsl(20, 90%, 50%)" />
<rect x="46" y="30" width="1" height="1" fill="hsl(20, 90%, 50%)" />
<rect x="47" y="30" width="1" height="1" fill="hsl(20, 90%, 50%)" />
<rect x="33" y="31" width="1" height="1" fill="hsl(20, 90%, 50%)" />
<rect x="34" y="31" width="1" height="1" fill="hsl(20, 90%, 50%)" />
<rect x="33" y="32" width="1" height="1" fill="hsl(20, 90%, 50%)" />
<rect x="34" y="32" width="1" height="1" fill="hsl(20, 90%, 50%)" />
<rect x="31" y="35" width="1" height="1" fill="hsl(20, 90%, 50%)" />
<rect x="32" y="35" width="1" height="1" fill="hsl(20, 90%, 50%)" />
<rect x="31" y="36" width="1" height="1" fill="hsl(20, 90%, 50%)" />
<rect x="32" y="36" width="1" height="1" fill="hsl(20, 90%, 50%)" />
</svg>