<?xml version="1.0" encoding="utf-8"?>
<svg xmlns="http://www.w3.org/2000/svg" width="80" height="46" viewBox="0 0 80 46">
<rect width="100%" height="100%" fill="transparent" />
<rect x="22" y="4" width="2" height="2" fill="hsl(20, 90%, 50%)" />
<rect x="20" y="6" width="2" height="2" fill="hsl(20, 90%, 50%)" />
<rect x="24" y="6" width="2" height="2" fill="hsl(20, 90%, 50%)" />
<rect x="16" y="8" width="2" height="2" fill="hsl(20, 90%, 50%)" />
<rect x="18" y="8" width="2" height="2" fill="hsl(20, 90%, 50%)" />
<rect x="20" y="8" width="2" height="2" fill="hsl(20, 90%, 50%)" />
<rect x="24" y="8" width="2" height="2" fill="hsl(20, 90%, 50%)" />
<rect x="14" y="10" width="2" height="2" fill="hsl(20, 90%, 50%)" />
<rect x="24" y="10" width="2" height="2" fill="hsl(20, 90%, 50%)" />
<rect x="26" y="10" width="2" height="2" fill="hsl(20, 90%, 50%)" />
<rect x="30" y="10" width="2" height="2" fill="hsl(20, 90%, 50%)" />
<rect x="14" y="12" width="2" height="2" fill="hsl(20, 90%, 50%)" />
<rect x="18" y="12" width="2" height="2" fill="hsl(20, 90%, 50%)" />
<rect x="20" y="12" width="2" height="2" fill="hsl(20, 90%, 50%)" />
<rect x="28" y="12" width="2" height="2" fill="hsl(20, 90%, 50%)" />
<rect x="30" y="12" width="2" height="2" fill="hsl(20, 90%, 50%)" />
<rect x="44" y="12" width="2" height="2" fill="hsl(20, 90%, 50%)" />
<rect x="46" y="12" width="2" height="2" fill="hsl(20, 90%, 50%)" />
<rect x="12" y="14" width="2" height="2" fill="hsl(20, 90%, 50%)" />
<rect x="14" y="14" width="2" height="2" fill="hsl(20, 90%, 50%)" />
<rect x="18" y="14" width="2" height="2" fill="hsl(20, 90%, 50%)" />
<rect x="22" y="14" width="2" height="2" fill="hsl(20, 90%, 50%)" />
<rect x="24" y="14" width="2" height="2" fill="hsl(20, 90%, 50%)" />
<rect x="44" y="14" width="2" height="2" fill="hsl(20, 90%, 50%)" />
<rect x="48" y="14" width="2" height="2" fill="hsl(20, 90%, 50%)" />
<rect x="22" y="16" width="2" height="2" fill="hsl(20, 90%, 50%)" />
<rect x="26" y="16" width="2" height="2" fill="hsl(20, 90%, 50%)" />
<rect x="28" y="16" width="2" height="2" fill="hsl(20, 90%, 50%)" />
<rect x="30" y="16" width="2" height="2" fill="hsl(20, 90%, 50%)" />
<rect x="32" y="16" width="2" height="2" fill="hsl(20, 90%, 50%)" />
<rect x="34" y="16" width="2" height="2" fill="hsl(20, 90%, 50%)" />
<rect x="48" y="16" width="2" height="2" fill="hsl(20, 90%, 50%)" />
<rect x="54" y="16" width="2" height="2" fill="hsl(20, 90%, 50%)" />
<rect x="58" y="16" width="2" height="2" fill="hsl(20, 90%, 50%)" />
<rect x="60" y="16" width="2" height="2" fill="hsl(20, 90%, 50%)" />
<rect x="8" y="18" width="2" height="2" fill="hsl(20, 90%, 50%)" />
<rect x="12" y="18" width="2" height="2" fill="hsl(20, 90%, 50%)" />
<rect x="14" y="18" width="2" height="2" fill="hsl(20, 90%, 50%)" />
<rect x="18" y="18" width="2" height="2" fill="hsl(20, 90%, 50%)" />
<rect x="20" y="18" width="2" height="2" fill="hsl(20, 90%, 50%)" />
<rect x="24" y="18" width="2" height="2" fill="hsl(20, 90%, 50%)" />
<rect x="36" y="18" width="2" height="2" fill="hsl(20, 90%, 50%)" />
<rect x="46" y="18" width="2" height="2" fill="hsl(20, 90%, 50%)" />
<rect x="48" y="18" width="2" height="2" fill="hsl(20, 90%, 50%)" />
<rect x="52" y="18" width="2" height="2" fill="hsl(20, 90%, 50%)" />
<rect x="56" y="18" width="2" height="2" fill="hsl(20, 90%, 50%)" />
<rect x="58" y="18" width="2" height="2" fill="hsl(20, 90%, 50%)" />
<rect x="62" y="18" width="2" height="2" fill="hsl(20, 90%, 50%)" />
<rect x="14" y="20" width="2" height="2" fill="hsl(20, 90%, 50%)" />
<rect x="16" y="20" width="2" height="2" fill="hsl(20, 90%, 50%)" />
<rect x="28" y="20" width="2" height="2" fill="hsl(20, 90%, 50%)" />
<rect x="30" y="20" width="2" height="2" fill="hsl(20, 90%, 50%)" />
<rect x="32" y="20" width="2" height="2" fill="hsl(20, 90%, 50%)" />
<rect x="34" y="20" width="2" height="2" fill="hsl(20, 90%, 50%)" />
<rect x="52" y="20" width="2" height="2" fill="hsl(20, 90%, 50%)" />
<rect x="62" y="20" width="2" height="2" fill="hsl(20, 90%, 50%)" />
<rect x="4" y="22" width="2" height="2" fill="hsl(20, 90%, 50%)" />
<rect x="12" y="22" width="2" height="2" fill="hsl(20, 90%, 50%)" />
<rect x="16" y="22" width="2" height="2" fill="hsl(20, 90%, 50%)" />
<rect x="22" y="22" width="2" height="2" fill="hsl(20, 90%, 50%)" />
<rect x="30" y="22" width="2" height="2" fill="hsl(20, 90%, 50%)" />
<rect x="34" y="22" width="2" height="2" fill="hsl(20, 90%, 50%)" />
<rect x="44" y="22" width="2" height="2" fill="hsl(20, 90%, 50%)" />
<rect x="46" y="22" width="2" height="2" fill="hsl(20, 90%, 50%)" />
<rect x="50" y="22" width="2" height="2" fill="hsl(20, 90%, 50%)" />
<rect x="54" y="22" width="2" height="2" fill="hsl(20, 90%, 50%)" />
<rect x="56" y="22" width="2" height="2" fill="hsl(20, 90%, 50%)" />
<rect x="58" y="22" width="2" height="2" fill="hsl(20, 90%, 50%)" />
<rect x="60" y="22" width="2" height="2" fill="hsl(20, 90%, 50%)" />
<rect x="64" y="22" width="2" height="2" fill="hsl(20, 90%, 50%)" />
<rect x="66" y="22" width="2" height="2" fill="hsl(20, 90%, 50%)" />
<rect x="4" y="24" width="2" height="2" fill="hsl(20, 90%, 50%)" />
<rect x="12" y="24" width="2" height="2" fill="hsl(20, 90%, 50%)" />
<rect x="16" y="24" width="2" height="2" fill="hsl(20, 90%, 50%)" />
<rect x="22" y="24" width="2" height="2" fill="hsl(20, 90%, 50%)" />
<rect x="24" y="24" width="2" height="2" fill="hsl(20, 90%, 50%)" />
<rect x="28" y="24" width="2" height="2" fill="hsl(20, 90%, 50%)" />
<rect x="32" y="24" width="2" height="2" fill="hsl(20, 90%, 50%)" />
<rect x="34" y="24" width="2" height="2" fill="hsl(20, 90%, 50%)" />
<rect x="38" y="24" width="2" height="2" fill="hsl(20, 90%, 50%)" />
<rect x="40" y="24" width="2" height="2" fill="hsl(20, 90%, 50%)" />
<rect x="50" y="24" width="2" height="2" fill="hsl(20, 90%, 50%)" />
<rect x="54" y="24" width="2" height="2" fill="hsl(20, 90%, 50%)" />
<rect x="64" y="24" width="2" height="2" fill="hsl(20, 90%, 50%)" />
<rect x="68" y="24" width="2" height="2" fill="hsl(20, 90%, 50%)" />
<rect x="14" y="26" width="2" height="2" fill="hsl(20, 90%, 50%)" />
<rect x="16" y="26" width="2" height="2" fill="hsl(20, 90%, 50%)" />
<rect x="24" y="26" width="2" height="2" fill="hsl(20, 90%, 50%)" />
<rect x="26" y="26" width="2" height="2" fill="hsl(20, 90%, 50%)" />
<rect x="28" y="26" width="2" height="2" fill="hsl(20, 90%, 50%)" />
<rect x="32" y="26" width="2" height="2" fill="hsl(20, 90%, 50%)" />
<rect x="34" y="26" width="2" height="2" fill="hsl(20, 90%, 50%)" />
<rect x="38" y="26" width="2" height="2" fill="hsl(20, 90%, 50%)" />
<rect x="42" y="26" width="2" height="2" fill="hsl(20, 90%, 50%)" />
<rect x="44" y="26" width="2" height="2" fill="hsl(20, 90%, 50%)" />
<rect x="46" y="26" width="2" height="2" fill="hsl(20, 90%, 50%)" />
<rect x="50" y="26" width="2" height="2" fill="hsl(20, 90%, 50%)" />
<rect x="56" y="26" width="2" height="2" fill="hsl(20, 90%, 50%)" />
<rect x="58" y="26" width="2" height="2" fill="hsl(20, 90%, 50%)" />
<rect x="60" y="26" width="2" height="2" fill="hsl(20, 90%, 50%)" />
<rect x="68" y="26" width="2" height="2" fill="hsl(20, 90%, 50%)" />
<rect x="8" y="28" width="2" height="2" fill="hsl(20, 90%, 50%)" />
<rect x="12" y="28" width="2" height="2" fill="hsl(20, 90%, 50%)" />
<rect x="14" y="28" width="2" height="2" fill="hsl(20, 90%, 50%)" />
<rect x="18" y="28" width="2" height="2" fill="hsl(20, 90%, 50%)" />
<rect x="20" y="28" width="2" height="2" fill="hsl(20, 90%, 50%)" />
<rect x="24" y="28" width="2" height="2" fill="hsl(20, 90%, 50%)" />
<rect x="26" y="28" width="2" height="2" fill="hsl(20, 90%, 50%)" />
<rect x="54" y="28" width="2" height="2" fill="hsl(20, 90%, 50%)" />
<rect x="58" y="28" width="2" height="2" fill="hsl(20, 90%, 50%)" />
<rect x="64" y="28" width="2" height="2" fill="hsl(20, 90%, 50%)" />
<rect x="68" y="28" width="2" height="2" fill="hsl(20, 90%, 50%)" />
<rect x="72" y="28" width="2" height="2" fill="hsl(20, 90%, 50%)" />
<rect x="74" y="28" width="2" height="2" fill="hsl(20, 90%, 50%)" />
<rect x="26" y="30" width="2" height="2" fill="hsl(20, 90%, 50%)" />
<rect x="40" y="30" width="2" height="2" fill="hsl(20, 90%, 50%)" />
<rect x="44" y="30" width="2" height="2" fill="hsl(20, 90%, 50%)" />
<rect x="48" y="30" width="2" height="2" fill="hsl(20, 90%, 50%)" />
<rect x="52" y="30" width="2" height="2" fill="hsl(20, 90%, 50%)" />
<rect x="58" y="30" width="2" height="2" fill="hsl(20, 90%, 50%)" />
<rect x="60" y="30" width="2" height="2" fill="hsl(20, 90%, 50%)" />
<rect x="64" y="30" width="2" height="2" fill="hsl(20, 90%, 50%)" />
<rect x="68" y="30" width="2" height="2" fill="hsl(20, 90%, 50%)" />
<rect x="72" y="30" width="2" height="2" fill="hsl(20, 90%, 50%)" />
<rect x="12" y="32" width="2" height="2" fill="hsl(20, 90%, 50%)" />
<rect x="14" y="32" width="2" height="2" fill="hsl(20, 90%, 50%)" />
<rect x="18" y="32" width="2" height="2" fill="hsl(20, 90%, 50%)" />
<rect x="22" y="32" width="2" height="2" fill="hsl(20, 90%, 50%)" />
<rect x="26" y="32" width="2" height="2" fill="hsl(20, 90%, 50%)" />
<rect x="28" y="32" width="2" height="2" fill="hsl(20, 90%, 50%)" />
<rect x="42" y="32" width="2" height="2" fill="hsl(20, 90%, 50%)" />
<rect x="44" y="32" width="2" height="2" fill="hsl(20, 90%, 50%)" />
<rect x="48" y="32" width="2" height="2" fill="hsl(20, 90%, 50%)" />
<rect x="52" y="32" width="2" height="2" fill="hsl(20, 90%, 50%)" />
<rect x="56" y="32" width="2" height="2" fill="hsl(20, 90%, 50%)" />
<rect x="64" y="32" width="2" height="2" fill="hsl(20, 90%, 50%)" />
<rect x="68" y="32" width="2" height="2" fill="hsl(20, 90%, 50%)" />
<rect x="72" y="32" width="2" height="2" fill="hsl(20, 90%, 50%)" />
<rect x="14" y="34" width="2" height="2" fill="hsl(20, 90%, 50%)" />
<rect x="18" y="34" width="2" height="2" fill="hsl(20, 90%, 50%)" />
<rect x="20" y="34" width="2" height="2" fill="hsl(20, 90%, 50%)" />
<rect x="24" y="34" width="2" height="2" fill="hsl(20, 90%, 50%)" />
<rect x="30" y="34" width="2" height="2" fill="hsl(20, 90%, 50%)" />
<rect x="46" y="34" width="2" height="2" fill="hsl(20, 90%, 50%)" />
<rect x="50" y="34" width="2" height="2" fill="hsl(20, 90%, 50%)" />
<rect x="52" y="34" width="2" height="2" fill="hsl(20, 90%, 50%)" />
<rect x="58" y="34" width="2" height="2" fill="hsl(20, 90%, 50%)" />
<rect x="60" y="34" width="2" height="2" fill="hsl(20, 90%, 50%)" />
<rect x="62" y="34" width="2" height="2" fill="hsl(20, 90%, 50%)" />
<rect x="64" y="34" width="2" height="2" fill="hsl(20, 90%, 50%)" />
<rect x="68" y="34" width="2" height="2" fill="hsl(20, 90%, 50%)" />
<rect x="70" y="34" width="2" height="2" fill="hsl(20, 90%, 50%)" />
<rect x="14" y="36" width="2" height="2" fill="hsl(20, 90%, 50%)" />
<rect x="24" y="36" width="2" height="2" fill="hsl(20, 90%, 50%)" />
<rect x="28" y="36" width="2" height="2" fill="hsl(20, 90%, 50%)" />
<rect x="46" y="36" width="2" height="2" fill="hsl(20, 90%, 50%)" />
<rect x="54" y="36" width="2" height="2" fill="hsl(20, 90%, 50%)" />
<rect x="56" y="36" width="2" height="2" fill="hsl(20, 90%, 50%)" />
<rect x="12" y="38" width="2" height="2" fill="hsl(20, 90%, 50%)" />
<rect x="14" y="38" width="2" height="2" fill="hsl(20, 90%, 50%)" />
<rect x="24" y="38" width="2" height="2" fill="hsl(20, 90%, 50%)" />
<rect x="26" y="38" width="2" height="2" fill="hsl(20, 90%, 50%)" />
<rect x="44" y="38" width="2" height="2" fill="hsl(20, 90%, 50%)" />
<rect x="46" y="38" width="2" height="2" fill="hsl(20, 90%, 50%)" />
<rect x="54" y="38" width="2" height="2" fill="hsl(20, 90%, 50%)" />
<rect x="60" y="38" width="2" height="2" fill="hsl(20, 90%, 50%)" />
<rect x="58" y="40" width="2" height="2" fill="hsl(20, 90%, 50%)" />
<rect x="60" y="40" width="2" height="2" fill="hsl(20, 90%, 50%)" />
</svg>