<?xml version="1.0" encoding="utf-8"?>
<svg xmlns="http://www.w3.org/2000/svg" width="37" height="55" viewBox="0 0 37 55">
<rect width="100%" height="100%" fill="transparent" />
<rect x="23" y="4" width="1" height="1" fill="hsl(20, 90%, 50%)" />
<rect x="24" y="4" width="1" height="1" fill="hsl(20, 90%, 50%)" />
<rect x="23" y="5" width="1" height="1" fill="hsl(20, 90%, 50%)" />
<rect x="21" y="6" width="1" height="1" fill="hsl(20, 90%, 50%)" />
<rect x="22" y="6" width="1" height="1" fill="hsl(20, 90%, 50%)" />
<rect x="23" y="6" width="1" height="1" fill="hsl(20, 90%, 50%)" />
<rect x="21" y="22" width="1" height="1" fill="hsl(20, 90%, 50%)" />
<rect x="22" y="22" width="1" height="1" fill="hsl(20, 90%, 50%)" />
<rect x="21" y="23" width="1" height="1" fill="hsl(20, 90%, 50%)" />
<rect x="22" y="23" width="1" height="1" fill="hsl(20, 90%, 50%)" />
<rect x="12" y="25" width="1" height="1" fill="hsl(20, 90%, 50%)" />
<rect x="13" y="25" width="1" height="1" fill="hsl(20, 90%, 50%)" />
<rect x="15" y="25" width="1" height="1" fill="hsl(20, 90%, 50%)" />
<rect x="12" y="26" width="1" height="1" fill="hsl(20, 90%, 50%)" />
<rect x="14" y="26" width="1" height="1" fill="hsl(20, 90%, 50%)" />
<rect x="15" y="26" width="1" height="1" fill="hsl(20, 90%, 50%)" />
<rect x="30" y="27" width="1" height="1" fill="hsl(20, 90%, 50%)" />
<rect x="31" y="27" width="1" height="1" fill="hsl(20, 90%, 50%)" />
<rect x="30" y="28" width="1" height="1" fill="hsl(20, 90%, 50%)" />
<rect x="28" y="29" width="1" height="1" fill="hsl(20, 90%, 50%)" />
<rect x="30" y="29" width="1" height="1" fill="hsl(20, 90%, 50%)" />
<rect x="28" y="30" width="1" height="1" fill="hsl(20, 90%, 50%)" />
<rect x="29" y="30" width="1" height="1" fill="hsl(20, 90%, 50%)" />
<rect x="13" y="32" width="1" height="1" fill="hsl(20, 90%, 50%)" />
<rect x="13" y="33" width="1" height="1" fill="hsl(20, 90%, 50%)" />
<rect x="14" y="33" width="1" height="1" fill="hsl(20, 90%, 50%)" />
<rect x="15" y="33" width="1" height="1" fill="hsl(20, 90%, 50%)" />
<rect x="4" y="34" width="1" height="1" fill="hsl(20, 90%, 50%)" />
<rect x="16" y="34" width="1" height="1" fill="hsl(20, 90%, 50%)" />
<rect x="4" y="35" width="1" height="1" fill="hsl(20, 90%, 50%)" />
<rect x="5" y="35" width="1" height="1" fill="hsl(20, 90%, 50%)" />
<rect x="6" y="35" width="1" height="1" fill="hsl(20, 90%, 50%)" />
<rect x="15" y="35" width="1" height="1" fill="hsl(20, 90%, 50%)" />
<rect x="16" y="35" width="1" height="1" fill="hsl(20, 90%, 50%)" />
<rect x="31" y="35" width="1" height="1" fill="hsl(20, 90%, 50%)" />
<rect x="7" y="36" width="1" height="1" fill="hsl(20, 90%, 50%)" />
<rect x="30" y="36" width="1" height="1" fill="hsl(20, 90%, 50%)" />
<rect x="32" y="36" width="1" height="1" fill="hsl(20, 90%, 50%)" />
<rect x="6" y="37" width="1" height="1" fill="hsl(20, 90%, 50%)" />
<rect x="7" y="37" width="1" height="1" fill="hsl(20, 90%, 50%)" />
<rect x="31" y="37" width="1" height="1" fill="hsl(20, 90%, 50%)" />
<rect x="5" y="44" width="1" height="1" fill="hsl(20, 90%, 50%)" />
<rect x="26" y="44" width="1" height="1" fill="hsl(20, 90%, 50%)" />
<rect x="27" y="44" width="1" height="1" fill="hsl(20, 90%, 50%)" />
<rect x="5" y="45" width="1" height="1" fill="hsl(20, 90%, 50%)" />
<rect x="7" y="45" width="1" height="1" fill="hsl(20, 90%, 50%)" />
<rect x="26" y="45" width="1" height="1" fill="hsl(20, 90%, 50%)" />
<rect x="28" y="45" width="1" height="1" fill="hsl(20, 90%, 50%)" />
<rect x="5" y="46" width="1" height="1" fill="hsl(20, 90%, 50%)" />
<rect x="6" y="46" width="1" height="1" fill="hsl(20, 90%, 50%)" />
<rect x="7" y="46" width="1" height="1" fill="hsl(20, 90%, 50%)" />
<rect x="28" y="46" width="1" height="1" fill="hsl(20, 90%, 50%)" />
<rect x="7" y="47" width="1" height="1" fill="hsl(20, 90%, 50%)" />
<rect x="19" y="47" width="1" height="1" fill="hsl(20, 90%, 50%)" />
<rect x="20" y="47" width="1" height="1" fill="hsl(20, 90%, 50%)" />
<rect x="28" y="47" width="1" height="1" fill="hsl(20, 90%, 50%)" />
<rect x="29" y="47" width="1" height="1" fill="hsl(20, 90%, 50%)" />
<rect x="19" y="48" width="1" height="1" fill="hsl(20, 90%, 50%)" />
<rect x="20" y="49" width="1" height="1" fill="hsl(20, 90%, 50%)" />
<rect x="21" y="49" width="1" height="1" fill="hsl(20, 90%, 50%)" />
<rect x="22" y="49" width="1" height="1" fill="hsl(20, 90%, 50%)" />
<rect x="22" y="50" width="1" height="1" fill="hsl(20, 90%, 50%)" />
</svg>