<?xml version="1.0" encoding="utf-8"?>
<svg xmlns="http://www.w3.org/2000/svg" width="86" height="86" viewBox="0 0 86 86">
<rect width="100%" height="100%" fill="transparent" />
<rect x="40" y="4" width="3" height="3" fill="hsl(20, 90%, 50%)" />
<rect x="43" y="4" width="3" height="3" fill="hsl(20, 90%, 50%)" />
<rect x="46" y="4" width="3" height="3" fill="hsl(20, 90%, 50%)" />
<rect x="40" y="7" width="3" height="3" fill="hsl(20, 90%, 50%)" />
<rect x="43" y="10" width="3" height="3" fill="hsl(20, 90%, 50%)" />
<rect x="52" y="10" width="3" height="3" fill="hsl(20, 90%, 50%)" />
<rect x="55" y="10" width="3" height="3" fill="hsl(20, 90%, 50%)" />
<rect x="52" y="13" width="3" height="3" fill="hsl(20, 90%, 50%)" />
<rect x="55" y="13" width="3" height="3" fill="hsl(20, 90%, 50%)" />
<rect x="40" y="16" width="3" height="3" fill="hsl(20, 90%, 50%)" />
<rect x="43" y="16" width="3" height="3" fill="hsl(20, 90%, 50%)" />
<rect x="43" y="19" width="3" height="3" fill="hsl(20, 90%, 50%)" />
<rect x="46" y="19" width="3" height="3" fill="hsl(20, 90%, 50%)" />
<rect x="40" y="22" width="3" height="3" fill="hsl(20, 90%, 50%)" />
<rect x="49" y="22" width="3" height="3" fill="hsl(20, 90%, 50%)" />
<rect x="46" y="28" width="3" height="3" fill="hsl(20, 90%, 50%)" />
<rect x="55" y="28" width="3" height="3" fill="hsl(20, 90%, 50%)" />
<rect x="46" y="31" width="3" height="3" fill="hsl(20, 90%, 50%)" />
<rect x="58" y="31" width="3" height="3" fill="hsl(20, 90%, 50%)" />
<rect x="49" y="34" width="3" height="3" fill="hsl(20, 90%, 50%)" />
<rect x="52" y="34" width="3" height="3" fill="hsl(20, 90%, 50%)" />
<rect x="55" y="34" width="3" height="3" fill="hsl(20, 90%, 50%)" />
<rect x="61" y="34" width="3" height="3" fill="hsl(20, 90%, 50%)" />
<rect x="64" y="37" width="3" height="3" fill="hsl(20, 90%, 50%)" />
<rect x="4" y="40" width="3" height="3" fill="hsl(20, 90%, 50%)" />
<rect x="7" y="40" width="3" height="3" fill="hsl(20, 90%, 50%)" />
<rect x="16" y="40" width="3" height="3" fill="hsl(20, 90%, 50%)" />
<rect x="22" y="40" width="3" height="3" fill="hsl(20, 90%, 50%)" />
<rect x="64" y="40" width="3" height="3" fill="hsl(20, 90%, 50%)" />
<rect x="4" y="43" width="3" height="3" fill="hsl(20, 90%, 50%)" />
<rect x="10" y="43" width="3" height="3" fill="hsl(20, 90%, 50%)" />
<rect x="16" y="43" width="3" height="3" fill="hsl(20, 90%, 50%)" />
<rect x="19" y="43" width="3" height="3" fill="hsl(20, 90%, 50%)" />
<rect x="61" y="43" width="3" height="3" fill="hsl(20, 90%, 50%)" />
<rect x="4" y="46" width="3" height="3" fill="hsl(20, 90%, 50%)" />
<rect x="19" y="46" width="3" height="3" fill="hsl(20, 90%, 50%)" />
<rect x="28" y="46" width="3" height="3" fill="hsl(20, 90%, 50%)" />
<rect x="31" y="46" width="3" height="3" fill="hsl(20, 90%, 50%)" />
<rect x="73" y="46" width="3" height="3" fill="hsl(20, 90%, 50%)" />
<rect x="76" y="46" width="3" height="3" fill="hsl(20, 90%, 50%)" />
<rect x="22" y="49" width="3" height="3" fill="hsl(20, 90%, 50%)" />
<rect x="34" y="49" width="3" height="3" fill="hsl(20, 90%, 50%)" />
<rect x="55" y="49" width="3" height="3" fill="hsl(20, 90%, 50%)" />
<rect x="58" y="49" width="3" height="3" fill="hsl(20, 90%, 50%)" />
<rect x="67" y="49" width="3" height="3" fill="hsl(20, 90%, 50%)" />
<rect x="70" y="49" width="3" height="3" fill="hsl(20, 90%, 50%)" />
<rect x="79" y="49" width="3" height="3" fill="hsl(20, 90%, 50%)" />
<rect x="10" y="52" width="3" height="3" fill="hsl(20, 90%, 50%)" />
<rect x="13" y="52" width="3" height="3" fill="hsl(20, 90%, 50%)" />
<rect x="34" y="52" width="3" height="3" fill="hsl(20, 90%, 50%)" />
<rect x="55" y="52" width="3" height="3" fill="hsl(20, 90%, 50%)" />
<rect x="64" y="52" width="3" height="3" fill="hsl(20, 90%, 50%)" />
<rect x="10" y="55" width="3" height="3" fill="hsl(20, 90%, 50%)" />
<rect x="13" y="55" width="3" height="3" fill="hsl(20, 90%, 50%)" />
<rect x="28" y="55" width="3" height="3" fill="hsl(20, 90%, 50%)" />
<rect x="34" y="55" width="3" height="3" fill="hsl(20, 90%, 50%)" />
<rect x="49" y="55" width="3" height="3" fill="hsl(20, 90%, 50%)" />
<rect x="52" y="55" width="3" height="3" fill="hsl(20, 90%, 50%)" />
<rect x="31" y="58" width="3" height="3" fill="hsl(20, 90%, 50%)" />
<rect x="49" y="58" width="3" height="3" fill="hsl(20, 90%, 50%)" />
<rect x="61" y="58" width="3" height="3" fill="hsl(20, 90%, 50%)" />
<rect x="73" y="58" width="3" height="3" fill="hsl(20, 90%, 50%)" />
<rect x="34" y="61" width="3" height="3" fill="hsl(20, 90%, 50%)" />
<rect x="43" y="61" width="3" height="3" fill="hsl(20, 90%, 50%)" />
<rect x="58" y="61" width="3" height="3" fill="hsl(20, 90%, 50%)" />
<rect x="61" y="61" width="3" height="3" fill="hsl(20, 90%, 50%)" />
<rect x="37" y="64" width="3" height="3" fill="hsl(20, 90%, 50%)" />
<rect x="40" y="64" width="3" height="3" fill="hsl(20, 90%, 50%)" />
<rect x="52" y="64" width="3" height="3" fill="hsl(20, 90%, 50%)" />
<rect x="70" y="64" width="3" height="3" fill="hsl(20, 90%, 50%)" />
<rect x="76" y="64" width="3" height="3" fill="hsl(20, 90%, 50%)" />
<rect x="49" y="67" width="3" height="3" fill="hsl(20, 90%, 50%)" />
<rect x="76" y="67" width="3" height="3" fill="hsl(20, 90%, 50%)" />
<rect x="79" y="67" width="3" height="3" fill="hsl(20, 90%, 50%)" />
<rect x="49" y="70" width="3" height="3" fill="hsl(20, 90%, 50%)" />
<rect x="64" y="70" width="3" height="3" fill="hsl(20, 90%, 50%)" />
<rect x="46" y="73" width="3" height="3" fill="hsl(20, 90%, 50%)" />
<rect x="58" y="73" width="3" height="3" fill="hsl(20, 90%, 50%)" />
<rect x="46" y="76" width="3" height="3" fill="hsl(20, 90%, 50%)" />
<rect x="64" y="76" width="3" height="3" fill="hsl(20, 90%, 50%)" />
<rect x="67" y="76" width="3" height="3" fill="hsl(20, 90%, 50%)" />
<rect x="49" y="79" width="3" height="3" fill="hsl(20, 90%, 50%)" />
<rect x="67" y="79" width="3" height="3" fill="hsl(20, 90%, 50%)" />
</svg>