<?xml version="1.0" encoding="utf-8"?>
<svg xmlns="http://www.w3.org/2000/svg" width="84" height="84" viewBox="0 0 84 84">
<rect width="100%" height="100%" fill="transparent" />
<rect x="12" y="4" width="2" height="2" fill="hsl(20, 90%, 50%)" />
<rect x="14" y="4" width="2" height="2" fill="hsl(20, 90%, 50%)" />
<rect x="20" y="4" width="2" height="2" fill="hsl(20, 90%, 50%)" />
<rect x="22" y="4" width="2" height="2" fill="hsl(20, 90%, 50%)" />
<rect x="28" y="4" width="2" height="2" fill="hsl(20, 90%, 50%)" />
<rect x="30" y="4" width="2" height="2" fill="hsl(20, 90%, 50%)" />
<rect x="36" y="4" width="2" height="2" fill="hsl(20, 90%, 50%)" />
<rect x="38" y="4" width="2" height="2" fill="hsl(20, 90%, 50%)" />
<rect x="44" y="4" width="2" height="2" fill="hsl(20, 90%, 50%)" />
<rect x="46" y="4" width="2" height="2" fill="hsl(20, 90%, 50%)" />
<rect x="52" y="4" width="2" height="2" fill="hsl(20, 90%, 50%)" />
<rect x="54" y="4" width="2" height="2" fill="hsl(20, 90%, 50%)" />
<rect x="60" y="4" width="2" height="2" fill="hsl(20, 90%, 50%)" />
<rect x="62" y="4" width="2" height="2" fill="hsl(20, 90%, 50%)" />
<rect x="68" y="4" width="2" height="2" fill="hsl(20, 90%, 50%)" />
<rect x="70" y="4" width="2" height="2" fill="hsl(20, 90%, 50%)" />
<rect x="12" y="6" width="2" height="2" fill="hsl(20, 90%, 50%)" />
<rect x="18" y="6" width="2" height="2" fill="hsl(20, 90%, 50%)" />
<rect x="22" y="6" width="2" height="2" fill="hsl(20, 90%, 50%)" />
<rect x="28" y="6" width="2" height="2" fill="hsl(20, 90%, 50%)" />
<rect x="34" y="6" width="2" height="2" fill="hsl(20, 90%, 50%)" />
<rect x="38" y="6" width="2" height="2" fill="hsl(20, 90%, 50%)" />
<rect x="44" y="6" width="2" height="2" fill="hsl(20, 90%, 50%)" />
<rect x="50" y="6" width="2" height="2" fill="hsl(20, 90%, 50%)" />
<rect x="54" y="6" width="2" height="2" fill="hsl(20, 90%, 50%)" />
<rect x="60" y="6" width="2" height="2" fill="hsl(20, 90%, 50%)" />
<rect x="66" y="6" width="2" height="2" fill="hsl(20, 90%, 50%)" />
<rect x="70" y="6" width="2" height="2" fill="hsl(20, 90%, 50%)" />
<rect x="14" y="8" width="2" height="2" fill="hsl(20, 90%, 50%)" />
<rect x="30" y="8" width="2" height="2" fill="hsl(20, 90%, 50%)" />
<rect x="46" y="8" width="2" height="2" fill="hsl(20, 90%, 50%)" />
<rect x="62" y="8" width="2" height="2" fill="hsl(20, 90%, 50%)" />
<rect x="20" y="10" width="2" height="2" fill="hsl(20, 90%, 50%)" />
<rect x="36" y="10" width="2" height="2" fill="hsl(20, 90%, 50%)" />
<rect x="52" y="10" width="2" height="2" fill="hsl(20, 90%, 50%)" />
<rect x="68" y="10" width="2" height="2" fill="hsl(20, 90%, 50%)" />
<rect x="4" y="12" width="2" height="2" fill="hsl(20, 90%, 50%)" />
<rect x="6" y="12" width="2" height="2" fill="hsl(20, 90%, 50%)" />
<rect x="12" y="12" width="2" height="2" fill="hsl(20, 90%, 50%)" />
<rect x="16" y="12" width="2" height="2" fill="hsl(20, 90%, 50%)" />
<rect x="28" y="12" width="2" height="2" fill="hsl(20, 90%, 50%)" />
<rect x="32" y="12" width="2" height="2" fill="hsl(20, 90%, 50%)" />
<rect x="44" y="12" width="2" height="2" fill="hsl(20, 90%, 50%)" />
<rect x="48" y="12" width="2" height="2" fill="hsl(20, 90%, 50%)" />
<rect x="60" y="12" width="2" height="2" fill="hsl(20, 90%, 50%)" />
<rect x="64" y="12" width="2" height="2" fill="hsl(20, 90%, 50%)" />
<rect x="76" y="12" width="2" height="2" fill="hsl(20, 90%, 50%)" />
<rect x="78" y="12" width="2" height="2" fill="hsl(20, 90%, 50%)" />
<rect x="4" y="14" width="2" height="2" fill="hsl(20, 90%, 50%)" />
<rect x="8" y="14" width="2" height="2" fill="hsl(20, 90%, 50%)" />
<rect x="20" y="14" width="2" height="2" fill="hsl(20, 90%, 50%)" />
<rect x="24" y="14" width="2" height="2" fill="hsl(20, 90%, 50%)" />
<rect x="36" y="14" width="2" height="2" fill="hsl(20, 90%, 50%)" />
<rect x="40" y="14" width="2" height="2" fill="hsl(20, 90%, 50%)" />
<rect x="52" y="14" width="2" height="2" fill="hsl(20, 90%, 50%)" />
<rect x="56" y="14" width="2" height="2" fill="hsl(20, 90%, 50%)" />
<rect x="68" y="14" width="2" height="2" fill="hsl(20, 90%, 50%)" />
<rect x="72" y="14" width="2" height="2" fill="hsl(20, 90%, 50%)" />
<rect x="78" y="14" width="2" height="2" fill="hsl(20, 90%, 50%)" />
<rect x="12" y="16" width="2" height="2" fill="hsl(20, 90%, 50%)" />
<rect x="28" y="16" width="2" height="2" fill="hsl(20, 90%, 50%)" />
<rect x="44" y="16" width="2" height="2" fill="hsl(20, 90%, 50%)" />
<rect x="60" y="16" width="2" height="2" fill="hsl(20, 90%, 50%)" />
<rect x="76" y="16" width="2" height="2" fill="hsl(20, 90%, 50%)" />
<rect x="6" y="18" width="2" height="2" fill="hsl(20, 90%, 50%)" />
<rect x="22" y="18" width="2" height="2" fill="hsl(20, 90%, 50%)" />
<rect x="38" y="18" width="2" height="2" fill="hsl(20, 90%, 50%)" />
<rect x="54" y="18" width="2" height="2" fill="hsl(20, 90%, 50%)" />
<rect x="70" y="18" width="2" height="2" fill="hsl(20, 90%, 50%)" />
<rect x="4" y="20" width="2" height="2" fill="hsl(20, 90%, 50%)" />
<rect x="10" y="20" width="2" height="2" fill="hsl(20, 90%, 50%)" />
<rect x="14" y="20" width="2" height="2" fill="hsl(20, 90%, 50%)" />
<rect x="26" y="20" width="2" height="2" fill="hsl(20, 90%, 50%)" />
<rect x="30" y="20" width="2" height="2" fill="hsl(20, 90%, 50%)" />
<rect x="42" y="20" width="2" height="2" fill="hsl(20, 90%, 50%)" />
<rect x="46" y="20" width="2" height="2" fill="hsl(20, 90%, 50%)" />
<rect x="58" y="20" width="2" height="2" fill="hsl(20, 90%, 50%)" />
<rect x="62" y="20" width="2" height="2" fill="hsl(20, 90%, 50%)" />
<rect x="74" y="20" width="2" height="2" fill="hsl(20, 90%, 50%)" />
<rect x="78" y="20" width="2" height="2" fill="hsl(20, 90%, 50%)" />
<rect x="4" y="22" width="2" height="2" fill="hsl(20, 90%, 50%)" />
<rect x="6" y="22" width="2" height="2" fill="hsl(20, 90%, 50%)" />
<rect x="18" y="22" width="2" height="2" fill="hsl(20, 90%, 50%)" />
<rect x="22" y="22" width="2" height="2" fill="hsl(20, 90%, 50%)" />
<rect x="34" y="22" width="2" height="2" fill="hsl(20, 90%, 50%)" />
<rect x="38" y="22" width="2" height="2" fill="hsl(20, 90%, 50%)" />
<rect x="50" y="22" width="2" height="2" fill="hsl(20, 90%, 50%)" />
<rect x="54" y="22" width="2" height="2" fill="hsl(20, 90%, 50%)" />
<rect x="66" y="22" width="2" height="2" fill="hsl(20, 90%, 50%)" />
<rect x="70" y="22" width="2" height="2" fill="hsl(20, 90%, 50%)" />
<rect x="76" y="22" width="2" height="2" fill="hsl(20, 90%, 50%)" />
<rect x="78" y="22" width="2" height="2" fill="hsl(20, 90%, 50%)" />
<rect x="14" y="24" width="2" height="2" fill="hsl(20, 90%, 50%)" />
<rect x="30" y="24" width="2" height="2" fill="hsl(20, 90%, 50%)" />
<rect x="46" y="24" width="2" height="2" fill="hsl(20, 90%, 50%)" />
<rect x="62" y="24" width="2" height="2" fill="hsl(20, 90%, 50%)" />
<rect x="20" y="26" width="2" height="2" fill="hsl(20, 90%, 50%)" />
<rect x="36" y="26" width="2" height="2" fill="hsl(20, 90%, 50%)" />
<rect x="52" y="26" width="2" height="2" fill="hsl(20, 90%, 50%)" />
<rect x="68" y="26" width="2" height="2" fill="hsl(20, 90%, 50%)" />
<rect x="4" y="28" width="2" height="2" fill="hsl(20, 90%, 50%)" />
<rect x="6" y="28" width="2" height="2" fill="hsl(20, 90%, 50%)" />
<rect x="12" y="28" width="2" height="2" fill="hsl(20, 90%, 50%)" />
<rect x="16" y="28" width="2" height="2" fill="hsl(20, 90%, 50%)" />
<rect x="28" y="28" width="2" height="2" fill="hsl(20, 90%, 50%)" />
<rect x="32" y="28" width="2" height="2" fill="hsl(20, 90%, 50%)" />
<rect x="44" y="28" width="2" height="2" fill="hsl(20, 90%, 50%)" />
<rect x="48" y="28" width="2" height="2" fill="hsl(20, 90%, 50%)" />
<rect x="60" y="28" width="2" height="2" fill="hsl(20, 90%, 50%)" />
<rect x="64" y="28" width="2" height="2" fill="hsl(20, 90%, 50%)" />
<rect x="76" y="28" width="2" height="2" fill="hsl(20, 90%, 50%)" />
<rect x="78" y="28" width="2" height="2" fill="hsl(20, 90%, 50%)" />
<rect x="4" y="30" width="2" height="2" fill="hsl(20, 90%, 50%)" />
<rect x="8" y="30" width="2" height="2" fill="hsl(20, 90%, 50%)" />
<rect x="20" y="30" width="2" height="2" fill="hsl(20, 90%, 50%)" />
<rect x="24" y="30" width="2" height="2" fill="hsl(20, 90%, 50%)" />
<rect x="36" y="30" width="2" height="2" fill="hsl(20, 90%, 50%)" />
<rect x="40" y="30" width="2" height="2" fill="hsl(20, 90%, 50%)" />
<rect x="52" y="30" width="2" height="2" fill="hsl(20, 90%, 50%)" />
<rect x="56" y="30" width="2" height="2" fill="hsl(20, 90%, 50%)" />
<rect x="68" y="30" width="2" height="2" fill="hsl(20, 90%, 50%)" />
<rect x="72" y="30" width="2" height="2" fill="hsl(20, 90%, 50%)" />
<rect x="78" y="30" width="2" height="2" fill="hsl(20, 90%, 50%)" />
<rect x="12" y="32" width="2" height="2" fill="hsl(20, 90%, 50%)" />
<rect x="28" y="32" width="2" height="2" fill="hsl(20, 90%, 50%)" />
<rect x="44" y="32" width="2" height="2" fill="hsl(20, 90%, 50%)" />
<rect x="60" y="32" width="2" height="2" fill="hsl(20, 90%, 50%)" />
<rect x="76" y="32" width="2" height="2" fill="hsl(20, 90%, 50%)" />
<rect x="6" y="34" width="2" height="2" fill="hsl(20, 90%, 50%)" />
<rect x="22" y="34" width="2" height="2" fill="hsl(20, 90%, 50%)" />
<rect x="38" y="34" width="2" height="2" fill="hsl(20, 90%, 50%)" />
<rect x="54" y="34" width="2" height="2" fill="hsl(20, 90%, 50%)" />
<rect x="70" y="34" width="2" height="2" fill="hsl(20, 90%, 50%)" />
<rect x="4" y="36" width="2" height="2" fill="hsl(20, 90%, 50%)" />
<rect x="10" y="36" width="2" height="2" fill="hsl(20, 90%, 50%)" />
<rect x="14" y="36" width="2" height="2" fill="hsl(20, 90%, 50%)" />
<rect x="26" y="36" width="2" height="2" fill="hsl(20, 90%, 50%)" />
<rect x="30" y="36" width="2" height="2" fill="hsl(20, 90%, 50%)" />
<rect x="42" y="36" width="2" height="2" fill="hsl(20, 90%, 50%)" />
<rect x="46" y="36" width="2" height="2" fill="hsl(20, 90%, 50%)" />
<rect x="58" y="36" width="2" height="2" fill="hsl(20, 90%, 50%)" />
<rect x="62" y="36" width="2" height="2" fill="hsl(20, 90%, 50%)" />
<rect x="74" y="36" width="2" height="2" fill="hsl(20, 90%, 50%)" />
<rect x="78" y="36" width="2" height="2" fill="hsl(20, 90%, 50%)" />
<rect x="4" y="38" width="2" height="2" fill="hsl(20, 90%, 50%)" />
<rect x="6" y="38" width="2" height="2" fill="hsl(20, 90%, 50%)" />
<rect x="18" y="38" width="2" height="2" fill="hsl(20, 90%, 50%)" />
<rect x="22" y="38" width="2" height="2" fill="hsl(20, 90%, 50%)" />
<rect x="34" y="38" width="2" height="2" fill="hsl(20, 90%, 50%)" />
<rect x="38" y="38" width="2" height="2" fill="hsl(20, 90%, 50%)" />
<rect x="50" y="38" width="2" height="2" fill="hsl(20, 90%, 50%)" />
<rect x="54" y="38" width="2" height="2" fill="hsl(20, 90%, 50%)" />
<rect x="66" y="38" width="2" height="2" fill="hsl(20, 90%, 50%)" />
<rect x="70" y="38" width="2" height="2" fill="hsl(20, 90%, 50%)" />
<rect x="76" y="38" width="2" height="2" fill="hsl(20, 90%, 50%)" />
<rect x="78" y="38" width="2" height="2" fill="hsl(20, 90%, 50%)" />
<rect x="14" y="40" width="2" height="2" fill="hsl(20, 90%, 50%)" />
<rect x="30" y="40" width="2" height="2" fill="hsl(20, 90%, 50%)" />
<rect x="46" y="40" width="2" height="2" fill="hsl(20, 90%, 50%)" />
<rect x="62" y="40" width="2" height="2" fill="hsl(20, 90%, 50%)" />
<rect x="20" y="42" width="2" height="2" fill="hsl(20, 90%, 50%)" />
<rect x="36" y="42" width="2" height="2" fill="hsl(20, 90%, 50%)" />
<rect x="52" y="42" width="2" height="2" fill="hsl(20, 90%, 50%)" />
<rect x="68" y="42" width="2" height="2" fill="hsl(20, 90%, 50%)" />
<rect x="4" y="44" width="2" height="2" fill="hsl(20, 90%, 50%)" />
<rect x="6" y="44" width="2" height="2" fill="hsl(20, 90%, 50%)" />
<rect x="12" y="44" width="2" height="2" fill="hsl(20, 90%, 50%)" />
<rect x="16" y="44" width="2" height="2" fill="hsl(20, 90%, 50%)" />
<rect x="28" y="44" width="2" height="2" fill="hsl(20, 90%, 50%)" />
<rect x="32" y="44" width="2" height="2" fill="hsl(20, 90%, 50%)" />
<rect x="44" y="44" width="2" height="2" fill="hsl(20, 90%, 50%)" />
<rect x="48" y="44" width="2" height="2" fill="hsl(20, 90%, 50%)" />
<rect x="60" y="44" width="2" height="2" fill="hsl(20, 90%, 50%)" />
<rect x="64" y="44" width="2" height="2" fill="hsl(20, 90%, 50%)" />
<rect x="76" y="44" width="2" height="2" fill="hsl(20, 90%, 50%)" />
<rect x="78" y="44" width="2" height="2" fill="hsl(20, 90%, 50%)" />
<rect x="4" y="46" width="2" height="2" fill="hsl(20, 90%, 50%)" />
<rect x="8" y="46" width="2" height="2" fill="hsl(20, 90%, 50%)" />
<rect x="20" y="46" width="2" height="2" fill="hsl(20, 90%, 50%)" />
<rect x="24" y="46" width="2" height="2" fill="hsl(20, 90%, 50%)" />
<rect x="36" y="46" width="2" height="2" fill="hsl(20, 90%, 50%)" />
<rect x="40" y="46" width="2" height="2" fill="hsl(20, 90%, 50%)" />
<rect x="52" y="46" width="2" height="2" fill="hsl(20, 90%, 50%)" />
<rect x="56" y="46" width="2" height="2" fill="hsl(20, 90%, 50%)" />
<rect x="68" y="46" width="2" height="2" fill="hsl(20, 90%, 50%)" />
<rect x="72" y="46" width="2" height="2" fill="hsl(20, 90%, 50%)" />
<rect x="78" y="46" width="2" height="2" fill="hsl(20, 90%, 50%)" />
<rect x="12" y="48" width="2" height="2" fill="hsl(20, 90%, 50%)" />
<rect x="28" y="48" width="2" height="2" fill="hsl(20, 90%, 50%)" />
<rect x="44" y="48" width="2" height="2" fill="hsl(20, 90%, 50%)" />
<rect x="60" y="48" width="2" height="2" fill="hsl(20, 90%, 50%)" />
<rect x="76" y="48" width="2" height="2" fill="hsl(20, 90%, 50%)" />
<rect x="6" y="50" width="2" height="2" fill="hsl(20, 90%, 50%)" />
<rect x="22" y="50" width="2" height="2" fill="hsl(20, 90%, 50%)" />
<rect x="38" y="50" width="2" height="2" fill="hsl(20, 90%, 50%)" />
<rect x="54" y="50" width="2" height="2" fill="hsl(20, 90%, 50%)" />
<rect x="70" y="50" width="2" height="2" fill="hsl(20, 90%, 50%)" />
<rect x="4" y="52" width="2" height="2" fill="hsl(20, 90%, 50%)" />
<rect x="10" y="52" width="2" height="2" fill="hsl(20, 90%, 50%)" />
<rect x="14" y="52" width="2" height="2" fill="hsl(20, 90%, 50%)" />
<rect x="26" y="52" width="2" height="2" fill="hsl(20, 90%, 50%)" />
<rect x="30" y="52" width="2" height="2" fill="hsl(20, 90%, 50%)" />
<rect x="42" y="52" width="2" height="2" fill="hsl(20, 90%, 50%)" />
<rect x="46" y="52" width="2" height="2" fill="hsl(20, 90%, 50%)" />
<rect x="58" y="52" width="2" height="2" fill="hsl(20, 90%, 50%)" />
<rect x="62" y="52" width="2" height="2" fill="hsl(20, 90%, 50%)" />
<rect x="74" y="52" width="2" height="2" fill="hsl(20, 90%, 50%)" />
<rect x="78" y="52" width="2" height="2" fill="hsl(20, 90%, 50%)" />
<rect x="4" y="54" width="2" height="2" fill="hsl(20, 90%, 50%)" />
<rect x="6" y="54" width="2" height="2" fill="hsl(20, 90%, 50%)" />
<rect x="18" y="54" width="2" height="2" fill="hsl(20, 90%, 50%)" />
<rect x="22" y="54" width="2" height="2" fill="hsl(20, 90%, 50%)" />
<rect x="34" y="54" width="2" height="2" fill="hsl(20, 90%, 50%)" />
<rect x="38" y="54" width="2" height="2" fill="hsl(20, 90%, 50%)" />
<rect x="50" y="54" width="2" height="2" fill="hsl(20, 90%, 50%)" />
<rect x="54" y="54" width="2" height="2" fill="hsl(20, 90%, 50%)" />
<rect x="66" y="54" width="2" height="2" fill="hsl(20, 90%, 50%)" />
<rect x="70" y="54" width="2" height="2" fill="hsl(20, 90%, 50%)" />
<rect x="76" y="54" width="2" height="2" fill="hsl(20, 90%, 50%)" />
<rect x="78" y="54" width="2" height="2" fill="hsl(20, 90%, 50%)" />
<rect x="14" y="56" width="2" height="2" fill="hsl(20, 90%, 50%)" />
<rect x="30" y="56" width="2" height="2" fill="hsl(20, 90%, 50%)" />
<rect x="46" y="56" width="2" height="2" fill="hsl(20, 90%, 50%)" />
<rect x="62" y="56" width="2" height="2" fill="hsl(20, 90%, 50%)" />
<rect x="20" y="58" width="2" height="2" fill="hsl(20, 90%, 50%)" />
<rect x="36" y="58" width="2" height="2" fill="hsl(20, 90%, 50%)" />
<rect x="52" y="58" width="2" height="2" fill="hsl(20, 90%, 50%)" />
<rect x="68" y="58" width="2" height="2" fill="hsl(20, 90%, 50%)" />
<rect x="4" y="60" width="2" height="2" fill="hsl(20, 90%, 50%)" />
<rect x="6" y="60" width="2" height="2" fill="hsl(20, 90%, 50%)" />
<rect x="12" y="60" width="2" height="2" fill="hsl(20, 90%, 50%)" />
<rect x="16" y="60" width="2" height="2" fill="hsl(20, 90%, 50%)" />
<rect x="28" y="60" width="2" height="2" fill="hsl(20, 90%, 50%)" />
<rect x="32" y="60" width="2" height="2" fill="hsl(20, 90%, 50%)" />
<rect x="44" y="60" width="2" height="2" fill="hsl(20, 90%, 50%)" />
<rect x="48" y="60" width="2" height="2" fill="hsl(20, 90%, 50%)" />
<rect x="60" y="60" width="2" height="2" fill="hsl(20, 90%, 50%)" />
<rect x="64" y="60" width="2" height="2" fill="hsl(20, 90%, 50%)" />
<rect x="76" y="60" width="2" height="2" fill="hsl(20, 90%, 50%)" />
<rect x="78" y="60" width="2" height="2" fill="hsl(20, 90%, 50%)" />
<rect x="4" y="62" width="2" height="2" fill="hsl(20, 90%, 50%)" />
<rect x="8" y="62" width="2" height="2" fill="hsl(20, 90%, 50%)" />
<rect x="20" y="62" width="2" height="2" fill="hsl(20, 90%, 50%)" />
<rect x="24" y="62" width="2" height="2" fill="hsl(20, 90%, 50%)" />
<rect x="36" y="62" width="2" height="2" fill="hsl(20, 90%, 50%)" />
<rect x="40" y="62" width="2" height="2" fill="hsl(20, 90%, 50%)" />
<rect x="52" y="62" width="2" height="2" fill="hsl(20, 90%, 50%)" />
<rect x="56" y="62" width="2" height="2" fill="hsl(20, 90%, 50%)" />
<rect x="68" y="62" width="2" height="2" fill="hsl(20, 90%, 50%)" />
<rect x="72" y="62" width="2" height="2" fill="hsl(20, 90%, 50%)" />
<rect x="78" y="62" width="2" height="2" fill="hsl(20, 90%, 50%)" />
<rect x="12" y="64" width="2" height="2" fill="hsl(20, 90%, 50%)" />
<rect x="28" y="64" width="2" height="2" fill="hsl(20, 90%, 50%)" />
<rect x="44" y="64" width="2" height="2" fill="hsl(20, 90%, 50%)" />
<rect x="60" y="64" width="2" height="2" fill="hsl(20, 90%, 50%)" />
<rect x="76" y="64" width="2" height="2" fill="hsl(20, 90%, 50%)" />
<rect x="6" y="66" width="2" height="2" fill="hsl(20, 90%, 50%)" />
<rect x="22" y="66" width="2" height="2" fill="hsl(20, 90%, 50%)" />
<rect x="38" y="66" width="2" height="2" fill="hsl(20, 90%, 50%)" />
<rect x="54" y="66" width="2" height="2" fill="hsl(20, 90%, 50%)" />
<rect x="70" y="66" width="2" height="2" fill="hsl(20, 90%, 50%)" />
<rect x="4" y="68" width="2" height="2" fill="hsl(20, 90%, 50%)" />
<rect x="10" y="68" width="2" height="2" fill="hsl(20, 90%, 50%)" />
<rect x="14" y="68" width="2" height="2" fill="hsl(20, 90%, 50%)" />
<rect x="26" y="68" width="2" height="2" fill="hsl(20, 90%, 50%)" />
<rect x="30" y="68" width="2" height="2" fill="hsl(20, 90%, 50%)" />
<rect x="42" y="68" width="2" height="2" fill="hsl(20, 90%, 50%)" />
<rect x="46" y="68" width="2" height="2" fill="hsl(20, 90%, 50%)" />
<rect x="58" y="68" width="2" height="2" fill="hsl(20, 90%, 50%)" />
<rect x="62" y="68" width="2" height="2" fill="hsl(20, 90%, 50%)" />
<rect x="74" y="68" width="2" height="2" fill="hsl(20, 90%, 50%)" />
<rect x="78" y="68" width="2" height="2" fill="hsl(20, 90%, 50%)" />
<rect x="4" y="70" width="2" height="2" fill="hsl(20, 90%, 50%)" />
<rect x="6" y="70" width="2" height="2" fill="hsl(20, 90%, 50%)" />
<rect x="18" y="70" width="2" height="2" fill="hsl(20, 90%, 50%)" />
<rect x="22" y="70" width="2" height="2" fill="hsl(20, 90%, 50%)" />
<rect x="34" y="70" width="2" height="2" fill="hsl(20, 90%, 50%)" />
<rect x="38" y="70" width="2" height="2" fill="hsl(20, 90%, 50%)" />
<rect x="50" y="70" width="2" height="2" fill="hsl(20, 90%, 50%)" />
<rect x="54" y="70" width="2" height="2" fill="hsl(20, 90%, 50%)" />
<rect x="66" y="70" width="2" height="2" fill="hsl(20, 90%, 50%)" />
<rect x="70" y="70" width="2" height="2" fill="hsl(20, 90%, 50%)" />
<rect x="76" y="70" width="2" height="2" fill="hsl(20, 90%, 50%)" />
<rect x="78" y="70" width="2" height="2" fill="hsl(20, 90%, 50%)" />
<rect x="14" y="72" width="2" height="2" fill="hsl(20, 90%, 50%)" />
<rect x="30" y="72" width="2" height="2" fill="hsl(20, 90%, 50%)" />
<rect x="46" y="72" width="2" height="2" fill="hsl(20, 90%, 50%)" />
<rect x="62" y="72" width="2" height="2" fill="hsl(20, 90%, 50%)" />
<rect x="20" y="74" width="2" height="2" fill="hsl(20, 90%, 50%)" />
<rect x="36" y="74" width="2" height="2" fill="hsl(20, 90%, 50%)" />
<rect x="52" y="74" width="2" height="2" fill="hsl(20, 90%, 50%)" />
<rect x="68" y="74" width="2" height="2" fill="hsl(20, 90%, 50%)" />
<rect x="12" y="76" width="2" height="2" fill="hsl(20, 90%, 50%)" />
<rect x="16" y="76" width="2" height="2" fill="hsl(20, 90%, 50%)" />
<rect x="22" y="76" width="2" height="2" fill="hsl(20, 90%, 50%)" />
<rect x="28" y="76" width="2" height="2" fill="hsl(20, 90%, 50%)" />
<rect x="32" y="76" width="2" height="2" fill="hsl(20, 90%, 50%)" />
<rect x="38" y="76" width="2" height="2" fill="hsl(20, 90%, 50%)" />
<rect x="44" y="76" width="2" height="2" fill="hsl(20, 90%, 50%)" />
<rect x="48" y="76" width="2" height="2" fill="hsl(20, 90%, 50%)" />
<rect x="54" y="76" width="2" height="2" fill="hsl(20, 90%, 50%)" />
<rect x="60" y="76" width="2" height="2" fill="hsl(20, 90%, 50%)" />
<rect x="64" y="76" width="2" height="2" fill="hsl(20, 90%, 50%)" />
<rect x="70" y="76" width="2" height="2" fill="hsl(20, 90%, 50%)" />
<rect x="12" y="78" width="2" height="2" fill="hsl(20, 90%, 50%)" />
<rect x="14" y="78" width="2" height="2" fill="hsl(20, 90%, 50%)" />
<rect x="20" y="78" width="2" height="2" fill="hsl(20, 90%, 50%)" />
<rect x="22" y="78" width="2" height="2" fill="hsl(20, 90%, 50%)" />
<rect x="28" y="78" width="2" height="2" fill="hsl(20, 90%, 50%)" />
<rect x="30" y="78" width="2" height="2" fill="hsl(20, 90%, 50%)" />
<rect x="36" y="78" width="2" height="2" fill="hsl(20, 90%, 50%)" />
<rect x="38" y="78" width="2" height="2" fill="hsl(20, 90%, 50%)" />
<rect x="44" y="78" width="2" height="2" fill="hsl(20, 90%, 50%)" />
<rect x="46" y="78" width="2" height="2" fill="hsl(20, 90%, 50%)" />
<rect x="52" y="78" width="2" height="2" fill="hsl(20, 90%, 50%)" />
<rect x="54" y="78" width="2" height="2" fill="hsl(20, 90%, 50%)" />
<rect x="60" y="78" width="2" height="2" fill="hsl(20, 90%, 50%)" />
<rect x="62" y="78" width="2" height="2" fill="hsl(20, 90%, 50%)" />
<rect x="68" y="78" width="2" height="2" fill="hsl(20, 90%, 50%)" />
<rect x="70" y="78" width="2" height="2" fill="hsl(20, 90%, 50%)" />
</svg>