<?xml version="1.0" encoding="utf-8"?>
<svg xmlns="http://www.w3.org/2000/svg" width="95" height="65" viewBox="0 0 95 65">
<rect width="100%" height="100%" fill="transparent" />
<rect x="61" y="4" width="3" height="3" fill="hsl(20, 90%, 50%)" />
<rect x="64" y="7" width="3" height="3" fill="hsl(20, 90%, 50%)" />
<rect x="58" y="10" width="3" height="3" fill="hsl(20, 90%, 50%)" />
<rect x="61" y="10" width="3" height="3" fill="hsl(20, 90%, 50%)" />
<rect x="64" y="10" width="3" height="3" fill="hsl(20, 90%, 50%)" />
<rect x="40" y="28" width="3" height="3" fill="hsl(20, 90%, 50%)" />
<rect x="52" y="28" width="3" height="3" fill="hsl(20, 90%, 50%)" />
<rect x="70" y="28" width="3" height="3" fill="hsl(20, 90%, 50%)" />
<rect x="76" y="28" width="3" height="3" fill="hsl(20, 90%, 50%)" />
<rect x="79" y="28" width="3" height="3" fill="hsl(20, 90%, 50%)" />
<rect x="4" y="31" width="3" height="3" fill="hsl(20, 90%, 50%)" />
<rect x="7" y="31" width="3" height="3" fill="hsl(20, 90%, 50%)" />
<rect x="37" y="31" width="3" height="3" fill="hsl(20, 90%, 50%)" />
<rect x="55" y="31" width="3" height="3" fill="hsl(20, 90%, 50%)" />
<rect x="70" y="31" width="3" height="3" fill="hsl(20, 90%, 50%)" />
<rect x="76" y="31" width="3" height="3" fill="hsl(20, 90%, 50%)" />
<rect x="82" y="31" width="3" height="3" fill="hsl(20, 90%, 50%)" />
<rect x="4" y="34" width="3" height="3" fill="hsl(20, 90%, 50%)" />
<rect x="7" y="34" width="3" height="3" fill="hsl(20, 90%, 50%)" />
<rect x="37" y="34" width="3" height="3" fill="hsl(20, 90%, 50%)" />
<rect x="67" y="34" width="3" height="3" fill="hsl(20, 90%, 50%)" />
<rect x="82" y="34" width="3" height="3" fill="hsl(20, 90%, 50%)" />
<rect x="37" y="37" width="3" height="3" fill="hsl(20, 90%, 50%)" />
<rect x="40" y="37" width="3" height="3" fill="hsl(20, 90%, 50%)" />
<rect x="52" y="37" width="3" height="3" fill="hsl(20, 90%, 50%)" />
<rect x="70" y="37" width="3" height="3" fill="hsl(20, 90%, 50%)" />
<rect x="76" y="37" width="3" height="3" fill="hsl(20, 90%, 50%)" />
<rect x="82" y="37" width="3" height="3" fill="hsl(20, 90%, 50%)" />
<rect x="43" y="40" width="3" height="3" fill="hsl(20, 90%, 50%)" />
<rect x="46" y="40" width="3" height="3" fill="hsl(20, 90%, 50%)" />
<rect x="49" y="40" width="3" height="3" fill="hsl(20, 90%, 50%)" />
<rect x="70" y="40" width="3" height="3" fill="hsl(20, 90%, 50%)" />
<rect x="76" y="40" width="3" height="3" fill="hsl(20, 90%, 50%)" />
<rect x="79" y="40" width="3" height="3" fill="hsl(20, 90%, 50%)" />
<rect x="43" y="46" width="3" height="3" fill="hsl(20, 90%, 50%)" />
<rect x="46" y="46" width="3" height="3" fill="hsl(20, 90%, 50%)" />
<rect x="49" y="46" width="3" height="3" fill="hsl(20, 90%, 50%)" />
<rect x="37" y="49" width="3" height="3" fill="hsl(20, 90%, 50%)" />
<rect x="40" y="49" width="3" height="3" fill="hsl(20, 90%, 50%)" />
<rect x="52" y="49" width="3" height="3" fill="hsl(20, 90%, 50%)" />
<rect x="4" y="52" width="3" height="3" fill="hsl(20, 90%, 50%)" />
<rect x="7" y="52" width="3" height="3" fill="hsl(20, 90%, 50%)" />
<rect x="37" y="52" width="3" height="3" fill="hsl(20, 90%, 50%)" />
<rect x="85" y="52" width="3" height="3" fill="hsl(20, 90%, 50%)" />
<rect x="88" y="52" width="3" height="3" fill="hsl(20, 90%, 50%)" />
<rect x="4" y="55" width="3" height="3" fill="hsl(20, 90%, 50%)" />
<rect x="7" y="55" width="3" height="3" fill="hsl(20, 90%, 50%)" />
<rect x="37" y="55" width="3" height="3" fill="hsl(20, 90%, 50%)" />
<rect x="55" y="55" width="3" height="3" fill="hsl(20, 90%, 50%)" />
<rect x="85" y="55" width="3" height="3" fill="hsl(20, 90%, 50%)" />
<rect x="88" y="55" width="3" height="3" fill="hsl(20, 90%, 50%)" />
<rect x="40" y="58" width="3" height="3" fill="hsl(20, 90%, 50%)" />
<rect x="52" y="58" width="3" height="3" fill="hsl(20, 90%, 50%)" />
</svg>