<?xml version="1.0" encoding="utf-8"?>
<svg xmlns="http://www.w3.org/2000/svg" width="82" height="90" viewBox="0 0 82 90">
<rect width="100%" height="100%" fill="transparent" />
<rect x="4" y="4" width="2" height="2" fill="hsl(20, 90%, 50%)" />
<rect x="10" y="4" width="2" height="2" fill="hsl(20, 90%, 50%)" />
<rect x="12" y="6" width="2" height="2" fill="hsl(20, 90%, 50%)" />
<rect x="4" y="8" width="2" height="2" fill="hsl(20, 90%, 50%)" />
<rect x="12" y="8" width="2" height="2" fill="hsl(20, 90%, 50%)" />
<rect x="6" y="10" width="2" height="2" fill="hsl(20, 90%, 50%)" />
<rect x="8" y="10" width="2" height="2" fill="hsl(20, 90%, 50%)" />
<rect x="10" y="10" width="2" height="2" fill="hsl(20, 90%, 50%)" />
<rect x="12" y="10" width="2" height="2" fill="hsl(20, 90%, 50%)" />
<rect x="42" y="22" width="2" height="2" fill="hsl(20, 90%, 50%)" />
<rect x="44" y="22" width="2" height="2" fill="hsl(20, 90%, 50%)" />
<rect x="74" y="22" width="2" height="2" fill="hsl(20, 90%, 50%)" />
<rect x="76" y="22" width="2" height="2" fill="hsl(20, 90%, 50%)" />
<rect x="40" y="24" width="2" height="2" fill="hsl(20, 90%, 50%)" />
<rect x="42" y="24" width="2" height="2" fill="hsl(20, 90%, 50%)" />
<rect x="74" y="24" width="2" height="2" fill="hsl(20, 90%, 50%)" />
<rect x="76" y="24" width="2" height="2" fill="hsl(20, 90%, 50%)" />
<rect x="42" y="26" width="2" height="2" fill="hsl(20, 90%, 50%)" />
<rect x="44" y="26" width="2" height="2" fill="hsl(20, 90%, 50%)" />
<rect x="46" y="26" width="2" height="2" fill="hsl(20, 90%, 50%)" />
<rect x="48" y="26" width="2" height="2" fill="hsl(20, 90%, 50%)" />
<rect x="50" y="26" width="2" height="2" fill="hsl(20, 90%, 50%)" />
<rect x="8" y="28" width="2" height="2" fill="hsl(20, 90%, 50%)" />
<rect x="10" y="28" width="2" height="2" fill="hsl(20, 90%, 50%)" />
<rect x="44" y="28" width="2" height="2" fill="hsl(20, 90%, 50%)" />
<rect x="46" y="28" width="2" height="2" fill="hsl(20, 90%, 50%)" />
<rect x="48" y="28" width="2" height="2" fill="hsl(20, 90%, 50%)" />
<rect x="50" y="28" width="2" height="2" fill="hsl(20, 90%, 50%)" />
<rect x="8" y="30" width="2" height="2" fill="hsl(20, 90%, 50%)" />
<rect x="10" y="30" width="2" height="2" fill="hsl(20, 90%, 50%)" />
<rect x="22" y="30" width="2" height="2" fill="hsl(20, 90%, 50%)" />
<rect x="20" y="32" width="2" height="2" fill="hsl(20, 90%, 50%)" />
<rect x="22" y="32" width="2" height="2" fill="hsl(20, 90%, 50%)" />
<rect x="24" y="32" width="2" height="2" fill="hsl(20, 90%, 50%)" />
<rect x="44" y="32" width="2" height="2" fill="hsl(20, 90%, 50%)" />
<rect x="46" y="32" width="2" height="2" fill="hsl(20, 90%, 50%)" />
<rect x="48" y="32" width="2" height="2" fill="hsl(20, 90%, 50%)" />
<rect x="50" y="32" width="2" height="2" fill="hsl(20, 90%, 50%)" />
<rect x="18" y="34" width="2" height="2" fill="hsl(20, 90%, 50%)" />
<rect x="22" y="34" width="2" height="2" fill="hsl(20, 90%, 50%)" />
<rect x="26" y="34" width="2" height="2" fill="hsl(20, 90%, 50%)" />
<rect x="42" y="34" width="2" height="2" fill="hsl(20, 90%, 50%)" />
<rect x="44" y="34" width="2" height="2" fill="hsl(20, 90%, 50%)" />
<rect x="46" y="34" width="2" height="2" fill="hsl(20, 90%, 50%)" />
<rect x="48" y="34" width="2" height="2" fill="hsl(20, 90%, 50%)" />
<rect x="50" y="34" width="2" height="2" fill="hsl(20, 90%, 50%)" />
<rect x="20" y="36" width="2" height="2" fill="hsl(20, 90%, 50%)" />
<rect x="26" y="36" width="2" height="2" fill="hsl(20, 90%, 50%)" />
<rect x="40" y="36" width="2" height="2" fill="hsl(20, 90%, 50%)" />
<rect x="42" y="36" width="2" height="2" fill="hsl(20, 90%, 50%)" />
<rect x="74" y="36" width="2" height="2" fill="hsl(20, 90%, 50%)" />
<rect x="76" y="36" width="2" height="2" fill="hsl(20, 90%, 50%)" />
<rect x="20" y="38" width="2" height="2" fill="hsl(20, 90%, 50%)" />
<rect x="22" y="38" width="2" height="2" fill="hsl(20, 90%, 50%)" />
<rect x="24" y="38" width="2" height="2" fill="hsl(20, 90%, 50%)" />
<rect x="42" y="38" width="2" height="2" fill="hsl(20, 90%, 50%)" />
<rect x="44" y="38" width="2" height="2" fill="hsl(20, 90%, 50%)" />
<rect x="74" y="38" width="2" height="2" fill="hsl(20, 90%, 50%)" />
<rect x="76" y="38" width="2" height="2" fill="hsl(20, 90%, 50%)" />
<rect x="22" y="40" width="2" height="2" fill="hsl(20, 90%, 50%)" />
<rect x="8" y="50" width="2" height="2" fill="hsl(20, 90%, 50%)" />
<rect x="24" y="50" width="2" height="2" fill="hsl(20, 90%, 50%)" />
<rect x="4" y="54" width="2" height="2" fill="hsl(20, 90%, 50%)" />
<rect x="6" y="54" width="2" height="2" fill="hsl(20, 90%, 50%)" />
<rect x="8" y="54" width="2" height="2" fill="hsl(20, 90%, 50%)" />
<rect x="24" y="54" width="2" height="2" fill="hsl(20, 90%, 50%)" />
<rect x="26" y="54" width="2" height="2" fill="hsl(20, 90%, 50%)" />
<rect x="28" y="54" width="2" height="2" fill="hsl(20, 90%, 50%)" />
<rect x="6" y="56" width="2" height="2" fill="hsl(20, 90%, 50%)" />
<rect x="8" y="56" width="2" height="2" fill="hsl(20, 90%, 50%)" />
<rect x="12" y="56" width="2" height="2" fill="hsl(20, 90%, 50%)" />
<rect x="14" y="56" width="2" height="2" fill="hsl(20, 90%, 50%)" />
<rect x="18" y="56" width="2" height="2" fill="hsl(20, 90%, 50%)" />
<rect x="20" y="56" width="2" height="2" fill="hsl(20, 90%, 50%)" />
<rect x="24" y="56" width="2" height="2" fill="hsl(20, 90%, 50%)" />
<rect x="26" y="56" width="2" height="2" fill="hsl(20, 90%, 50%)" />
<rect x="8" y="58" width="2" height="2" fill="hsl(20, 90%, 50%)" />
<rect x="10" y="58" width="2" height="2" fill="hsl(20, 90%, 50%)" />
<rect x="12" y="58" width="2" height="2" fill="hsl(20, 90%, 50%)" />
<rect x="20" y="58" width="2" height="2" fill="hsl(20, 90%, 50%)" />
<rect x="22" y="58" width="2" height="2" fill="hsl(20, 90%, 50%)" />
<rect x="24" y="58" width="2" height="2" fill="hsl(20, 90%, 50%)" />
<rect x="10" y="60" width="2" height="2" fill="hsl(20, 90%, 50%)" />
<rect x="22" y="60" width="2" height="2" fill="hsl(20, 90%, 50%)" />
<rect x="8" y="82" width="2" height="2" fill="hsl(20, 90%, 50%)" />
<rect x="10" y="82" width="2" height="2" fill="hsl(20, 90%, 50%)" />
<rect x="22" y="82" width="2" height="2" fill="hsl(20, 90%, 50%)" />
<rect x="24" y="82" width="2" height="2" fill="hsl(20, 90%, 50%)" />
<rect x="8" y="84" width="2" height="2" fill="hsl(20, 90%, 50%)" />
<rect x="10" y="84" width="2" height="2" fill="hsl(20, 90%, 50%)" />
<rect x="22" y="84" width="2" height="2" fill="hsl(20, 90%, 50%)" />
<rect x="24" y="84" width="2" height="2" fill="hsl(20, 90%, 50%)" />
</svg>