<?xml version="1.0" encoding="utf-8"?>
<svg xmlns="http://www.w3.org/2000/svg" width="82" height="86" viewBox="0 0 82 86">
<rect width="100%" height="100%" fill="transparent" />
<rect x="40" y="4" width="2" height="2" fill="hsl(20, 90%, 50%)" />
<rect x="42" y="4" width="2" height="2" fill="hsl(20, 90%, 50%)" />
<rect x="38" y="6" width="2" height="2" fill="hsl(20, 90%, 50%)" />
<rect x="42" y="6" width="2" height="2" fill="hsl(20, 90%, 50%)" />
<rect x="74" y="6" width="2" height="2" fill="hsl(20, 90%, 50%)" />
<rect x="76" y="6" width="2" height="2" fill="hsl(20, 90%, 50%)" />
<rect x="38" y="8" width="2" height="2" fill="hsl(20, 90%, 50%)" />
<rect x="74" y="8" width="2" height="2" fill="hsl(20, 90%, 50%)" />
<rect x="76" y="8" width="2" height="2" fill="hsl(20, 90%, 50%)" />
<rect x="38" y="10" width="2" height="2" fill="hsl(20, 90%, 50%)" />
<rect x="40" y="10" width="2" height="2" fill="hsl(20, 90%, 50%)" />
<rect x="42" y="10" width="2" height="2" fill="hsl(20, 90%, 50%)" />
<rect x="38" y="18" width="2" height="2" fill="hsl(20, 90%, 50%)" />
<rect x="40" y="18" width="2" height="2" fill="hsl(20, 90%, 50%)" />
<rect x="42" y="18" width="2" height="2" fill="hsl(20, 90%, 50%)" />
<rect x="20" y="20" width="2" height="2" fill="hsl(20, 90%, 50%)" />
<rect x="22" y="20" width="2" height="2" fill="hsl(20, 90%, 50%)" />
<rect x="38" y="20" width="2" height="2" fill="hsl(20, 90%, 50%)" />
<rect x="74" y="20" width="2" height="2" fill="hsl(20, 90%, 50%)" />
<rect x="76" y="20" width="2" height="2" fill="hsl(20, 90%, 50%)" />
<rect x="20" y="22" width="2" height="2" fill="hsl(20, 90%, 50%)" />
<rect x="22" y="22" width="2" height="2" fill="hsl(20, 90%, 50%)" />
<rect x="38" y="22" width="2" height="2" fill="hsl(20, 90%, 50%)" />
<rect x="42" y="22" width="2" height="2" fill="hsl(20, 90%, 50%)" />
<rect x="74" y="22" width="2" height="2" fill="hsl(20, 90%, 50%)" />
<rect x="76" y="22" width="2" height="2" fill="hsl(20, 90%, 50%)" />
<rect x="40" y="24" width="2" height="2" fill="hsl(20, 90%, 50%)" />
<rect x="42" y="24" width="2" height="2" fill="hsl(20, 90%, 50%)" />
<rect x="6" y="44" width="2" height="2" fill="hsl(20, 90%, 50%)" />
<rect x="18" y="44" width="2" height="2" fill="hsl(20, 90%, 50%)" />
<rect x="4" y="46" width="2" height="2" fill="hsl(20, 90%, 50%)" />
<rect x="6" y="46" width="2" height="2" fill="hsl(20, 90%, 50%)" />
<rect x="8" y="46" width="2" height="2" fill="hsl(20, 90%, 50%)" />
<rect x="16" y="46" width="2" height="2" fill="hsl(20, 90%, 50%)" />
<rect x="18" y="46" width="2" height="2" fill="hsl(20, 90%, 50%)" />
<rect x="20" y="46" width="2" height="2" fill="hsl(20, 90%, 50%)" />
<rect x="4" y="48" width="2" height="2" fill="hsl(20, 90%, 50%)" />
<rect x="8" y="48" width="2" height="2" fill="hsl(20, 90%, 50%)" />
<rect x="10" y="48" width="2" height="2" fill="hsl(20, 90%, 50%)" />
<rect x="14" y="48" width="2" height="2" fill="hsl(20, 90%, 50%)" />
<rect x="16" y="48" width="2" height="2" fill="hsl(20, 90%, 50%)" />
<rect x="20" y="48" width="2" height="2" fill="hsl(20, 90%, 50%)" />
<rect x="8" y="50" width="2" height="2" fill="hsl(20, 90%, 50%)" />
<rect x="10" y="50" width="2" height="2" fill="hsl(20, 90%, 50%)" />
<rect x="14" y="50" width="2" height="2" fill="hsl(20, 90%, 50%)" />
<rect x="16" y="50" width="2" height="2" fill="hsl(20, 90%, 50%)" />
<rect x="38" y="50" width="2" height="2" fill="hsl(20, 90%, 50%)" />
<rect x="40" y="50" width="2" height="2" fill="hsl(20, 90%, 50%)" />
<rect x="8" y="52" width="2" height="2" fill="hsl(20, 90%, 50%)" />
<rect x="10" y="52" width="2" height="2" fill="hsl(20, 90%, 50%)" />
<rect x="14" y="52" width="2" height="2" fill="hsl(20, 90%, 50%)" />
<rect x="16" y="52" width="2" height="2" fill="hsl(20, 90%, 50%)" />
<rect x="38" y="52" width="2" height="2" fill="hsl(20, 90%, 50%)" />
<rect x="42" y="52" width="2" height="2" fill="hsl(20, 90%, 50%)" />
<rect x="8" y="54" width="2" height="2" fill="hsl(20, 90%, 50%)" />
<rect x="10" y="54" width="2" height="2" fill="hsl(20, 90%, 50%)" />
<rect x="14" y="54" width="2" height="2" fill="hsl(20, 90%, 50%)" />
<rect x="16" y="54" width="2" height="2" fill="hsl(20, 90%, 50%)" />
<rect x="38" y="54" width="2" height="2" fill="hsl(20, 90%, 50%)" />
<rect x="4" y="78" width="2" height="2" fill="hsl(20, 90%, 50%)" />
<rect x="6" y="78" width="2" height="2" fill="hsl(20, 90%, 50%)" />
<rect x="18" y="78" width="2" height="2" fill="hsl(20, 90%, 50%)" />
<rect x="20" y="78" width="2" height="2" fill="hsl(20, 90%, 50%)" />
<rect x="4" y="80" width="2" height="2" fill="hsl(20, 90%, 50%)" />
<rect x="6" y="80" width="2" height="2" fill="hsl(20, 90%, 50%)" />
<rect x="18" y="80" width="2" height="2" fill="hsl(20, 90%, 50%)" />
<rect x="20" y="80" width="2" height="2" fill="hsl(20, 90%, 50%)" />
</svg>