<?xml version="1.0" encoding="utf-8"?>
<svg xmlns="http://www.w3.org/2000/svg" width="76" height="76" viewBox="0 0 76 76">
<rect width="100%" height="100%" fill="transparent" />
<rect x="54" y="4" width="2" height="2" fill="hsl(20, 90%, 50%)" />
<rect x="56" y="4" width="2" height="2" fill="hsl(20, 90%, 50%)" />
<rect x="68" y="4" width="2" height="2" fill="hsl(20, 90%, 50%)" />
<rect x="70" y="4" width="2" height="2" fill="hsl(20, 90%, 50%)" />
<rect x="54" y="6" width="2" height="2" fill="hsl(20, 90%, 50%)" />
<rect x="56" y="6" width="2" height="2" fill="hsl(20, 90%, 50%)" />
<rect x="68" y="6" width="2" height="2" fill="hsl(20, 90%, 50%)" />
<rect x="70" y="6" width="2" height="2" fill="hsl(20, 90%, 50%)" />
<rect x="58" y="30" width="2" height="2" fill="hsl(20, 90%, 50%)" />
<rect x="60" y="30" width="2" height="2" fill="hsl(20, 90%, 50%)" />
<rect x="64" y="30" width="2" height="2" fill="hsl(20, 90%, 50%)" />
<rect x="66" y="30" width="2" height="2" fill="hsl(20, 90%, 50%)" />
<rect x="56" y="32" width="2" height="2" fill="hsl(20, 90%, 50%)" />
<rect x="68" y="32" width="2" height="2" fill="hsl(20, 90%, 50%)" />
<rect x="54" y="36" width="2" height="2" fill="hsl(20, 90%, 50%)" />
<rect x="70" y="36" width="2" height="2" fill="hsl(20, 90%, 50%)" />
<rect x="54" y="38" width="2" height="2" fill="hsl(20, 90%, 50%)" />
<rect x="60" y="38" width="2" height="2" fill="hsl(20, 90%, 50%)" />
<rect x="64" y="38" width="2" height="2" fill="hsl(20, 90%, 50%)" />
<rect x="70" y="38" width="2" height="2" fill="hsl(20, 90%, 50%)" />
<rect x="54" y="40" width="2" height="2" fill="hsl(20, 90%, 50%)" />
<rect x="56" y="40" width="2" height="2" fill="hsl(20, 90%, 50%)" />
<rect x="58" y="40" width="2" height="2" fill="hsl(20, 90%, 50%)" />
<rect x="66" y="40" width="2" height="2" fill="hsl(20, 90%, 50%)" />
<rect x="68" y="40" width="2" height="2" fill="hsl(20, 90%, 50%)" />
<rect x="70" y="40" width="2" height="2" fill="hsl(20, 90%, 50%)" />
<rect x="38" y="50" width="2" height="2" fill="hsl(20, 90%, 50%)" />
<rect x="4" y="52" width="2" height="2" fill="hsl(20, 90%, 50%)" />
<rect x="6" y="52" width="2" height="2" fill="hsl(20, 90%, 50%)" />
<rect x="38" y="52" width="2" height="2" fill="hsl(20, 90%, 50%)" />
<rect x="40" y="52" width="2" height="2" fill="hsl(20, 90%, 50%)" />
<rect x="4" y="54" width="2" height="2" fill="hsl(20, 90%, 50%)" />
<rect x="6" y="54" width="2" height="2" fill="hsl(20, 90%, 50%)" />
<rect x="40" y="54" width="2" height="2" fill="hsl(20, 90%, 50%)" />
<rect x="42" y="54" width="2" height="2" fill="hsl(20, 90%, 50%)" />
<rect x="30" y="56" width="2" height="2" fill="hsl(20, 90%, 50%)" />
<rect x="32" y="56" width="2" height="2" fill="hsl(20, 90%, 50%)" />
<rect x="38" y="56" width="2" height="2" fill="hsl(20, 90%, 50%)" />
<rect x="40" y="56" width="2" height="2" fill="hsl(20, 90%, 50%)" />
<rect x="30" y="64" width="2" height="2" fill="hsl(20, 90%, 50%)" />
<rect x="32" y="64" width="2" height="2" fill="hsl(20, 90%, 50%)" />
<rect x="38" y="64" width="2" height="2" fill="hsl(20, 90%, 50%)" />
<rect x="40" y="64" width="2" height="2" fill="hsl(20, 90%, 50%)" />
<rect x="4" y="66" width="2" height="2" fill="hsl(20, 90%, 50%)" />
<rect x="6" y="66" width="2" height="2" fill="hsl(20, 90%, 50%)" />
<rect x="40" y="66" width="2" height="2" fill="hsl(20, 90%, 50%)" />
<rect x="42" y="66" width="2" height="2" fill="hsl(20, 90%, 50%)" />
<rect x="58" y="66" width="2" height="2" fill="hsl(20, 90%, 50%)" />
<rect x="60" y="66" width="2" height="2" fill="hsl(20, 90%, 50%)" />
<rect x="4" y="68" width="2" height="2" fill="hsl(20, 90%, 50%)" />
<rect x="6" y="68" width="2" height="2" fill="hsl(20, 90%, 50%)" />
<rect x="38" y="68" width="2" height="2" fill="hsl(20, 90%, 50%)" />
<rect x="40" y="68" width="2" height="2" fill="hsl(20, 90%, 50%)" />
<rect x="58" y="68" width="2" height="2" fill="hsl(20, 90%, 50%)" />
<rect x="60" y="68" width="2" height="2" fill="hsl(20, 90%, 50%)" />
<rect x="38" y="70" width="2" height="2" fill="hsl(20, 90%, 50%)" />
</svg>