<?xml version="1.0" encoding="utf-8"?>
<svg xmlns="http://www.w3.org/2000/svg" width="96" height="96" viewBox="0 0 96 96">
<rect width="100%" height="100%" fill="transparent" />
<rect x="37" y="4" width="11" height="11" fill="hsl(20, 90%, 50%)" />
<rect x="48" y="4" width="11" height="11" fill="hsl(20, 90%, 50%)" />
<rect x="26" y="15" width="11" height="11" fill="hsl(20, 90%, 50%)" />
<rect x="59" y="15" width="11" height="11" fill="hsl(20, 90%, 50%)" />
<rect x="15" y="26" width="11" height="11" fill="hsl(20, 90%, 50%)" />
<rect x="70" y="26" width="11" height="11" fill="hsl(20, 90%, 50%)" />
<rect x="4" y="37" width="11" height="11" fill="hsl(20, 90%, 50%)" />
<rect x="81" y="37" width="11" height="11" fill="hsl(20, 90%, 50%)" />
<rect x="4" y="48" width="11" height="11" fill="hsl(20, 90%, 50%)" />
<rect x="81" y="48" width="11" height="11" fill="hsl(20, 90%, 50%)" />
<rect x="15" y="59" width="11" height="11" fill="hsl(20, 90%, 50%)" />
<rect x="70" y="59" width="11" height="11" fill="hsl(20, 90%, 50%)" />
<rect x="26" y="70" width="11" height="11" fill="hsl(20, 90%, 50%)" />
<rect x="59" y="70" width="11" height="11" fill="hsl(20, 90%, 50%)" />
<rect x="37" y="81" width="11" height="11" fill="hsl(20, 90%, 50%)" />
<rect x="48" y="81" width="11" height="11" fill="hsl(20, 90%, 50%)" />
</svg>