<?xml version="1.0" encoding="utf-8"?>
<svg xmlns="http://www.w3.org/2000/svg" width="53" height="29" viewBox="0 0 53 29">
<rect width="100%" height="100%" fill="transparent" />
<rect x="22" y="4" width="1" height="1" fill="hsl(20, 90%, 50%)" />
<rect x="23" y="4" width="1" height="1" fill="hsl(20, 90%, 50%)" />
<rect x="23" y="5" width="1" height="1" fill="hsl(20, 90%, 50%)" />
<rect x="31" y="5" width="1" height="1" fill="hsl(20, 90%, 50%)" />
<rect x="23" y="6" width="1" height="1" fill="hsl(20, 90%, 50%)" />
<rect x="25" y="6" width="1" height="1" fill="hsl(20, 90%, 50%)" />
<rect x="40" y="6" width="1" height="1" fill="hsl(20, 90%, 50%)" />
<rect x="41" y="6" width="1" height="1" fill="hsl(20, 90%, 50%)" />
<rect x="24" y="7" width="1" height="1" fill="hsl(20, 90%, 50%)" />
<rect x="25" y="7" width="1" height="1" fill="hsl(20, 90%, 50%)" />
<rect x="38" y="7" width="1" height="1" fill="hsl(20, 90%, 50%)" />
<rect x="39" y="7" width="1" height="1" fill="hsl(20, 90%, 50%)" />
<rect x="42" y="7" width="1" height="1" fill="hsl(20, 90%, 50%)" />
<rect x="28" y="8" width="1" height="1" fill="hsl(20, 90%, 50%)" />
<rect x="29" y="8" width="1" height="1" fill="hsl(20, 90%, 50%)" />
<rect x="30" y="8" width="1" height="1" fill="hsl(20, 90%, 50%)" />
<rect x="38" y="8" width="1" height="1" fill="hsl(20, 90%, 50%)" />
<rect x="39" y="8" width="1" height="1" fill="hsl(20, 90%, 50%)" />
<rect x="41" y="8" width="1" height="1" fill="hsl(20, 90%, 50%)" />
<rect x="42" y="8" width="1" height="1" fill="hsl(20, 90%, 50%)" />
<rect x="28" y="9" width="1" height="1" fill="hsl(20, 90%, 50%)" />
<rect x="29" y="9" width="1" height="1" fill="hsl(20, 90%, 50%)" />
<rect x="31" y="9" width="1" height="1" fill="hsl(20, 90%, 50%)" />
<rect x="32" y="9" width="1" height="1" fill="hsl(20, 90%, 50%)" />
<rect x="40" y="9" width="1" height="1" fill="hsl(20, 90%, 50%)" />
<rect x="41" y="9" width="1" height="1" fill="hsl(20, 90%, 50%)" />
<rect x="42" y="9" width="1" height="1" fill="hsl(20, 90%, 50%)" />
<rect x="28" y="10" width="1" height="1" fill="hsl(20, 90%, 50%)" />
<rect x="31" y="10" width="1" height="1" fill="hsl(20, 90%, 50%)" />
<rect x="32" y="10" width="1" height="1" fill="hsl(20, 90%, 50%)" />
<rect x="45" y="10" width="1" height="1" fill="hsl(20, 90%, 50%)" />
<rect x="46" y="10" width="1" height="1" fill="hsl(20, 90%, 50%)" />
<rect x="29" y="11" width="1" height="1" fill="hsl(20, 90%, 50%)" />
<rect x="30" y="11" width="1" height="1" fill="hsl(20, 90%, 50%)" />
<rect x="45" y="11" width="1" height="1" fill="hsl(20, 90%, 50%)" />
<rect x="47" y="11" width="1" height="1" fill="hsl(20, 90%, 50%)" />
<rect x="39" y="12" width="1" height="1" fill="hsl(20, 90%, 50%)" />
<rect x="47" y="12" width="1" height="1" fill="hsl(20, 90%, 50%)" />
<rect x="47" y="13" width="1" height="1" fill="hsl(20, 90%, 50%)" />
<rect x="48" y="13" width="1" height="1" fill="hsl(20, 90%, 50%)" />
<rect x="4" y="15" width="1" height="1" fill="hsl(20, 90%, 50%)" />
<rect x="5" y="15" width="1" height="1" fill="hsl(20, 90%, 50%)" />
<rect x="5" y="16" width="1" height="1" fill="hsl(20, 90%, 50%)" />
<rect x="5" y="17" width="1" height="1" fill="hsl(20, 90%, 50%)" />
<rect x="7" y="17" width="1" height="1" fill="hsl(20, 90%, 50%)" />
<rect x="21" y="17" width="1" height="1" fill="hsl(20, 90%, 50%)" />
<rect x="22" y="17" width="1" height="1" fill="hsl(20, 90%, 50%)" />
<rect x="23" y="17" width="1" height="1" fill="hsl(20, 90%, 50%)" />
<rect x="6" y="18" width="1" height="1" fill="hsl(20, 90%, 50%)" />
<rect x="7" y="18" width="1" height="1" fill="hsl(20, 90%, 50%)" />
<rect x="11" y="18" width="1" height="1" fill="hsl(20, 90%, 50%)" />
<rect x="20" y="18" width="1" height="1" fill="hsl(20, 90%, 50%)" />
<rect x="24" y="18" width="1" height="1" fill="hsl(20, 90%, 50%)" />
<rect x="10" y="19" width="1" height="1" fill="hsl(20, 90%, 50%)" />
<rect x="12" y="19" width="1" height="1" fill="hsl(20, 90%, 50%)" />
<rect x="13" y="19" width="1" height="1" fill="hsl(20, 90%, 50%)" />
<rect x="20" y="19" width="1" height="1" fill="hsl(20, 90%, 50%)" />
<rect x="25" y="19" width="1" height="1" fill="hsl(20, 90%, 50%)" />
<rect x="9" y="20" width="1" height="1" fill="hsl(20, 90%, 50%)" />
<rect x="14" y="20" width="1" height="1" fill="hsl(20, 90%, 50%)" />
<rect x="21" y="20" width="1" height="1" fill="hsl(20, 90%, 50%)" />
<rect x="22" y="20" width="1" height="1" fill="hsl(20, 90%, 50%)" />
<rect x="24" y="20" width="1" height="1" fill="hsl(20, 90%, 50%)" />
<rect x="10" y="21" width="1" height="1" fill="hsl(20, 90%, 50%)" />
<rect x="14" y="21" width="1" height="1" fill="hsl(20, 90%, 50%)" />
<rect x="23" y="21" width="1" height="1" fill="hsl(20, 90%, 50%)" />
<rect x="27" y="21" width="1" height="1" fill="hsl(20, 90%, 50%)" />
<rect x="28" y="21" width="1" height="1" fill="hsl(20, 90%, 50%)" />
<rect x="11" y="22" width="1" height="1" fill="hsl(20, 90%, 50%)" />
<rect x="12" y="22" width="1" height="1" fill="hsl(20, 90%, 50%)" />
<rect x="13" y="22" width="1" height="1" fill="hsl(20, 90%, 50%)" />
<rect x="27" y="22" width="1" height="1" fill="hsl(20, 90%, 50%)" />
<rect x="29" y="22" width="1" height="1" fill="hsl(20, 90%, 50%)" />
<rect x="29" y="23" width="1" height="1" fill="hsl(20, 90%, 50%)" />
<rect x="29" y="24" width="1" height="1" fill="hsl(20, 90%, 50%)" />
<rect x="30" y="24" width="1" height="1" fill="hsl(20, 90%, 50%)" />
</svg>