<?xml version="1.0" encoding="utf-8"?>
<svg xmlns="http://www.w3.org/2000/svg" width="94" height="72" viewBox="0 0 94 72">
<rect width="100%" height="100%" fill="transparent" />
<rect x="50" y="4" width="2" height="2" fill="hsl(20, 90%, 50%)" />
<rect x="56" y="4" width="2" height="2" fill="hsl(20, 90%, 50%)" />
<rect x="46" y="6" width="2" height="2" fill="hsl(20, 90%, 50%)" />
<rect x="48" y="6" width="2" height="2" fill="hsl(20, 90%, 50%)" />
<rect x="50" y="6" width="2" height="2" fill="hsl(20, 90%, 50%)" />
<rect x="52" y="6" width="2" height="2" fill="hsl(20, 90%, 50%)" />
<rect x="54" y="6" width="2" height="2" fill="hsl(20, 90%, 50%)" />
<rect x="56" y="6" width="2" height="2" fill="hsl(20, 90%, 50%)" />
<rect x="38" y="8" width="2" height="2" fill="hsl(20, 90%, 50%)" />
<rect x="40" y="8" width="2" height="2" fill="hsl(20, 90%, 50%)" />
<rect x="44" y="8" width="2" height="2" fill="hsl(20, 90%, 50%)" />
<rect x="62" y="8" width="2" height="2" fill="hsl(20, 90%, 50%)" />
<rect x="30" y="10" width="2" height="2" fill="hsl(20, 90%, 50%)" />
<rect x="32" y="10" width="2" height="2" fill="hsl(20, 90%, 50%)" />
<rect x="36" y="10" width="2" height="2" fill="hsl(20, 90%, 50%)" />
<rect x="40" y="10" width="2" height="2" fill="hsl(20, 90%, 50%)" />
<rect x="44" y="10" width="2" height="2" fill="hsl(20, 90%, 50%)" />
<rect x="48" y="10" width="2" height="2" fill="hsl(20, 90%, 50%)" />
<rect x="50" y="10" width="2" height="2" fill="hsl(20, 90%, 50%)" />
<rect x="52" y="10" width="2" height="2" fill="hsl(20, 90%, 50%)" />
<rect x="54" y="10" width="2" height="2" fill="hsl(20, 90%, 50%)" />
<rect x="56" y="10" width="2" height="2" fill="hsl(20, 90%, 50%)" />
<rect x="58" y="10" width="2" height="2" fill="hsl(20, 90%, 50%)" />
<rect x="60" y="10" width="2" height="2" fill="hsl(20, 90%, 50%)" />
<rect x="62" y="10" width="2" height="2" fill="hsl(20, 90%, 50%)" />
<rect x="68" y="10" width="2" height="2" fill="hsl(20, 90%, 50%)" />
<rect x="26" y="12" width="2" height="2" fill="hsl(20, 90%, 50%)" />
<rect x="28" y="12" width="2" height="2" fill="hsl(20, 90%, 50%)" />
<rect x="30" y="12" width="2" height="2" fill="hsl(20, 90%, 50%)" />
<rect x="44" y="12" width="2" height="2" fill="hsl(20, 90%, 50%)" />
<rect x="48" y="12" width="2" height="2" fill="hsl(20, 90%, 50%)" />
<rect x="56" y="12" width="2" height="2" fill="hsl(20, 90%, 50%)" />
<rect x="64" y="12" width="2" height="2" fill="hsl(20, 90%, 50%)" />
<rect x="66" y="12" width="2" height="2" fill="hsl(20, 90%, 50%)" />
<rect x="68" y="12" width="2" height="2" fill="hsl(20, 90%, 50%)" />
<rect x="24" y="14" width="2" height="2" fill="hsl(20, 90%, 50%)" />
<rect x="34" y="14" width="2" height="2" fill="hsl(20, 90%, 50%)" />
<rect x="40" y="14" width="2" height="2" fill="hsl(20, 90%, 50%)" />
<rect x="44" y="14" width="2" height="2" fill="hsl(20, 90%, 50%)" />
<rect x="52" y="14" width="2" height="2" fill="hsl(20, 90%, 50%)" />
<rect x="60" y="14" width="2" height="2" fill="hsl(20, 90%, 50%)" />
<rect x="62" y="14" width="2" height="2" fill="hsl(20, 90%, 50%)" />
<rect x="26" y="16" width="2" height="2" fill="hsl(20, 90%, 50%)" />
<rect x="28" y="16" width="2" height="2" fill="hsl(20, 90%, 50%)" />
<rect x="30" y="16" width="2" height="2" fill="hsl(20, 90%, 50%)" />
<rect x="32" y="16" width="2" height="2" fill="hsl(20, 90%, 50%)" />
<rect x="34" y="16" width="2" height="2" fill="hsl(20, 90%, 50%)" />
<rect x="40" y="16" width="2" height="2" fill="hsl(20, 90%, 50%)" />
<rect x="44" y="16" width="2" height="2" fill="hsl(20, 90%, 50%)" />
<rect x="46" y="16" width="2" height="2" fill="hsl(20, 90%, 50%)" />
<rect x="48" y="16" width="2" height="2" fill="hsl(20, 90%, 50%)" />
<rect x="50" y="16" width="2" height="2" fill="hsl(20, 90%, 50%)" />
<rect x="54" y="16" width="2" height="2" fill="hsl(20, 90%, 50%)" />
<rect x="62" y="16" width="2" height="2" fill="hsl(20, 90%, 50%)" />
<rect x="66" y="16" width="2" height="2" fill="hsl(20, 90%, 50%)" />
<rect x="68" y="16" width="2" height="2" fill="hsl(20, 90%, 50%)" />
<rect x="28" y="18" width="2" height="2" fill="hsl(20, 90%, 50%)" />
<rect x="38" y="18" width="2" height="2" fill="hsl(20, 90%, 50%)" />
<rect x="40" y="18" width="2" height="2" fill="hsl(20, 90%, 50%)" />
<rect x="52" y="18" width="2" height="2" fill="hsl(20, 90%, 50%)" />
<rect x="56" y="18" width="2" height="2" fill="hsl(20, 90%, 50%)" />
<rect x="60" y="18" width="2" height="2" fill="hsl(20, 90%, 50%)" />
<rect x="62" y="18" width="2" height="2" fill="hsl(20, 90%, 50%)" />
<rect x="68" y="18" width="2" height="2" fill="hsl(20, 90%, 50%)" />
<rect x="78" y="18" width="2" height="2" fill="hsl(20, 90%, 50%)" />
<rect x="80" y="18" width="2" height="2" fill="hsl(20, 90%, 50%)" />
<rect x="84" y="18" width="2" height="2" fill="hsl(20, 90%, 50%)" />
<rect x="24" y="20" width="2" height="2" fill="hsl(20, 90%, 50%)" />
<rect x="32" y="20" width="2" height="2" fill="hsl(20, 90%, 50%)" />
<rect x="34" y="20" width="2" height="2" fill="hsl(20, 90%, 50%)" />
<rect x="42" y="20" width="2" height="2" fill="hsl(20, 90%, 50%)" />
<rect x="46" y="20" width="2" height="2" fill="hsl(20, 90%, 50%)" />
<rect x="48" y="20" width="2" height="2" fill="hsl(20, 90%, 50%)" />
<rect x="54" y="20" width="2" height="2" fill="hsl(20, 90%, 50%)" />
<rect x="56" y="20" width="2" height="2" fill="hsl(20, 90%, 50%)" />
<rect x="62" y="20" width="2" height="2" fill="hsl(20, 90%, 50%)" />
<rect x="64" y="20" width="2" height="2" fill="hsl(20, 90%, 50%)" />
<rect x="76" y="20" width="2" height="2" fill="hsl(20, 90%, 50%)" />
<rect x="80" y="20" width="2" height="2" fill="hsl(20, 90%, 50%)" />
<rect x="82" y="20" width="2" height="2" fill="hsl(20, 90%, 50%)" />
<rect x="86" y="20" width="2" height="2" fill="hsl(20, 90%, 50%)" />
<rect x="24" y="22" width="2" height="2" fill="hsl(20, 90%, 50%)" />
<rect x="26" y="22" width="2" height="2" fill="hsl(20, 90%, 50%)" />
<rect x="28" y="22" width="2" height="2" fill="hsl(20, 90%, 50%)" />
<rect x="30" y="22" width="2" height="2" fill="hsl(20, 90%, 50%)" />
<rect x="32" y="22" width="2" height="2" fill="hsl(20, 90%, 50%)" />
<rect x="36" y="22" width="2" height="2" fill="hsl(20, 90%, 50%)" />
<rect x="38" y="22" width="2" height="2" fill="hsl(20, 90%, 50%)" />
<rect x="40" y="22" width="2" height="2" fill="hsl(20, 90%, 50%)" />
<rect x="42" y="22" width="2" height="2" fill="hsl(20, 90%, 50%)" />
<rect x="46" y="22" width="2" height="2" fill="hsl(20, 90%, 50%)" />
<rect x="76" y="22" width="2" height="2" fill="hsl(20, 90%, 50%)" />
<rect x="86" y="22" width="2" height="2" fill="hsl(20, 90%, 50%)" />
<rect x="46" y="24" width="2" height="2" fill="hsl(20, 90%, 50%)" />
<rect x="64" y="24" width="2" height="2" fill="hsl(20, 90%, 50%)" />
<rect x="70" y="24" width="2" height="2" fill="hsl(20, 90%, 50%)" />
<rect x="72" y="24" width="2" height="2" fill="hsl(20, 90%, 50%)" />
<rect x="76" y="24" width="2" height="2" fill="hsl(20, 90%, 50%)" />
<rect x="80" y="24" width="2" height="2" fill="hsl(20, 90%, 50%)" />
<rect x="82" y="24" width="2" height="2" fill="hsl(20, 90%, 50%)" />
<rect x="86" y="24" width="2" height="2" fill="hsl(20, 90%, 50%)" />
<rect x="88" y="24" width="2" height="2" fill="hsl(20, 90%, 50%)" />
<rect x="28" y="26" width="2" height="2" fill="hsl(20, 90%, 50%)" />
<rect x="30" y="26" width="2" height="2" fill="hsl(20, 90%, 50%)" />
<rect x="32" y="26" width="2" height="2" fill="hsl(20, 90%, 50%)" />
<rect x="40" y="26" width="2" height="2" fill="hsl(20, 90%, 50%)" />
<rect x="42" y="26" width="2" height="2" fill="hsl(20, 90%, 50%)" />
<rect x="44" y="26" width="2" height="2" fill="hsl(20, 90%, 50%)" />
<rect x="52" y="26" width="2" height="2" fill="hsl(20, 90%, 50%)" />
<rect x="56" y="26" width="2" height="2" fill="hsl(20, 90%, 50%)" />
<rect x="70" y="26" width="2" height="2" fill="hsl(20, 90%, 50%)" />
<rect x="74" y="26" width="2" height="2" fill="hsl(20, 90%, 50%)" />
<rect x="78" y="26" width="2" height="2" fill="hsl(20, 90%, 50%)" />
<rect x="82" y="26" width="2" height="2" fill="hsl(20, 90%, 50%)" />
<rect x="86" y="26" width="2" height="2" fill="hsl(20, 90%, 50%)" />
<rect x="26" y="28" width="2" height="2" fill="hsl(20, 90%, 50%)" />
<rect x="40" y="28" width="2" height="2" fill="hsl(20, 90%, 50%)" />
<rect x="50" y="28" width="2" height="2" fill="hsl(20, 90%, 50%)" />
<rect x="56" y="28" width="2" height="2" fill="hsl(20, 90%, 50%)" />
<rect x="60" y="28" width="2" height="2" fill="hsl(20, 90%, 50%)" />
<rect x="64" y="28" width="2" height="2" fill="hsl(20, 90%, 50%)" />
<rect x="74" y="28" width="2" height="2" fill="hsl(20, 90%, 50%)" />
<rect x="78" y="28" width="2" height="2" fill="hsl(20, 90%, 50%)" />
<rect x="82" y="28" width="2" height="2" fill="hsl(20, 90%, 50%)" />
<rect x="86" y="28" width="2" height="2" fill="hsl(20, 90%, 50%)" />
<rect x="28" y="30" width="2" height="2" fill="hsl(20, 90%, 50%)" />
<rect x="30" y="30" width="2" height="2" fill="hsl(20, 90%, 50%)" />
<rect x="36" y="30" width="2" height="2" fill="hsl(20, 90%, 50%)" />
<rect x="40" y="30" width="2" height="2" fill="hsl(20, 90%, 50%)" />
<rect x="56" y="30" width="2" height="2" fill="hsl(20, 90%, 50%)" />
<rect x="62" y="30" width="2" height="2" fill="hsl(20, 90%, 50%)" />
<rect x="64" y="30" width="2" height="2" fill="hsl(20, 90%, 50%)" />
<rect x="72" y="30" width="2" height="2" fill="hsl(20, 90%, 50%)" />
<rect x="76" y="30" width="2" height="2" fill="hsl(20, 90%, 50%)" />
<rect x="80" y="30" width="2" height="2" fill="hsl(20, 90%, 50%)" />
<rect x="82" y="30" width="2" height="2" fill="hsl(20, 90%, 50%)" />
<rect x="86" y="30" width="2" height="2" fill="hsl(20, 90%, 50%)" />
<rect x="88" y="30" width="2" height="2" fill="hsl(20, 90%, 50%)" />
<rect x="4" y="32" width="2" height="2" fill="hsl(20, 90%, 50%)" />
<rect x="6" y="32" width="2" height="2" fill="hsl(20, 90%, 50%)" />
<rect x="10" y="32" width="2" height="2" fill="hsl(20, 90%, 50%)" />
<rect x="12" y="32" width="2" height="2" fill="hsl(20, 90%, 50%)" />
<rect x="50" y="32" width="2" height="2" fill="hsl(20, 90%, 50%)" />
<rect x="52" y="32" width="2" height="2" fill="hsl(20, 90%, 50%)" />
<rect x="56" y="32" width="2" height="2" fill="hsl(20, 90%, 50%)" />
<rect x="58" y="32" width="2" height="2" fill="hsl(20, 90%, 50%)" />
<rect x="62" y="32" width="2" height="2" fill="hsl(20, 90%, 50%)" />
<rect x="64" y="32" width="2" height="2" fill="hsl(20, 90%, 50%)" />
<rect x="66" y="32" width="2" height="2" fill="hsl(20, 90%, 50%)" />
<rect x="72" y="32" width="2" height="2" fill="hsl(20, 90%, 50%)" />
<rect x="80" y="32" width="2" height="2" fill="hsl(20, 90%, 50%)" />
<rect x="84" y="32" width="2" height="2" fill="hsl(20, 90%, 50%)" />
<rect x="6" y="34" width="2" height="2" fill="hsl(20, 90%, 50%)" />
<rect x="10" y="34" width="2" height="2" fill="hsl(20, 90%, 50%)" />
<rect x="24" y="34" width="2" height="2" fill="hsl(20, 90%, 50%)" />
<rect x="32" y="34" width="2" height="2" fill="hsl(20, 90%, 50%)" />
<rect x="36" y="34" width="2" height="2" fill="hsl(20, 90%, 50%)" />
<rect x="40" y="34" width="2" height="2" fill="hsl(20, 90%, 50%)" />
<rect x="50" y="34" width="2" height="2" fill="hsl(20, 90%, 50%)" />
<rect x="56" y="34" width="2" height="2" fill="hsl(20, 90%, 50%)" />
<rect x="84" y="34" width="2" height="2" fill="hsl(20, 90%, 50%)" />
<rect x="4" y="36" width="2" height="2" fill="hsl(20, 90%, 50%)" />
<rect x="10" y="36" width="2" height="2" fill="hsl(20, 90%, 50%)" />
<rect x="16" y="36" width="2" height="2" fill="hsl(20, 90%, 50%)" />
<rect x="22" y="36" width="2" height="2" fill="hsl(20, 90%, 50%)" />
<rect x="26" y="36" width="2" height="2" fill="hsl(20, 90%, 50%)" />
<rect x="34" y="36" width="2" height="2" fill="hsl(20, 90%, 50%)" />
<rect x="38" y="36" width="2" height="2" fill="hsl(20, 90%, 50%)" />
<rect x="40" y="36" width="2" height="2" fill="hsl(20, 90%, 50%)" />
<rect x="42" y="36" width="2" height="2" fill="hsl(20, 90%, 50%)" />
<rect x="50" y="36" width="2" height="2" fill="hsl(20, 90%, 50%)" />
<rect x="54" y="36" width="2" height="2" fill="hsl(20, 90%, 50%)" />
<rect x="72" y="36" width="2" height="2" fill="hsl(20, 90%, 50%)" />
<rect x="76" y="36" width="2" height="2" fill="hsl(20, 90%, 50%)" />
<rect x="80" y="36" width="2" height="2" fill="hsl(20, 90%, 50%)" />
<rect x="82" y="36" width="2" height="2" fill="hsl(20, 90%, 50%)" />
<rect x="4" y="38" width="2" height="2" fill="hsl(20, 90%, 50%)" />
<rect x="6" y="38" width="2" height="2" fill="hsl(20, 90%, 50%)" />
<rect x="8" y="38" width="2" height="2" fill="hsl(20, 90%, 50%)" />
<rect x="12" y="38" width="2" height="2" fill="hsl(20, 90%, 50%)" />
<rect x="14" y="38" width="2" height="2" fill="hsl(20, 90%, 50%)" />
<rect x="18" y="38" width="2" height="2" fill="hsl(20, 90%, 50%)" />
<rect x="22" y="38" width="2" height="2" fill="hsl(20, 90%, 50%)" />
<rect x="24" y="38" width="2" height="2" fill="hsl(20, 90%, 50%)" />
<rect x="26" y="38" width="2" height="2" fill="hsl(20, 90%, 50%)" />
<rect x="50" y="38" width="2" height="2" fill="hsl(20, 90%, 50%)" />
<rect x="70" y="38" width="2" height="2" fill="hsl(20, 90%, 50%)" />
<rect x="72" y="38" width="2" height="2" fill="hsl(20, 90%, 50%)" />
<rect x="10" y="40" width="2" height="2" fill="hsl(20, 90%, 50%)" />
<rect x="14" y="40" width="2" height="2" fill="hsl(20, 90%, 50%)" />
<rect x="18" y="40" width="2" height="2" fill="hsl(20, 90%, 50%)" />
<rect x="22" y="40" width="2" height="2" fill="hsl(20, 90%, 50%)" />
<rect x="24" y="40" width="2" height="2" fill="hsl(20, 90%, 50%)" />
<rect x="70" y="40" width="2" height="2" fill="hsl(20, 90%, 50%)" />
<rect x="8" y="42" width="2" height="2" fill="hsl(20, 90%, 50%)" />
<rect x="12" y="42" width="2" height="2" fill="hsl(20, 90%, 50%)" />
<rect x="14" y="42" width="2" height="2" fill="hsl(20, 90%, 50%)" />
<rect x="22" y="42" width="2" height="2" fill="hsl(20, 90%, 50%)" />
<rect x="26" y="42" width="2" height="2" fill="hsl(20, 90%, 50%)" />
<rect x="56" y="42" width="2" height="2" fill="hsl(20, 90%, 50%)" />
<rect x="58" y="42" width="2" height="2" fill="hsl(20, 90%, 50%)" />
<rect x="70" y="42" width="2" height="2" fill="hsl(20, 90%, 50%)" />
<rect x="76" y="42" width="2" height="2" fill="hsl(20, 90%, 50%)" />
<rect x="6" y="44" width="2" height="2" fill="hsl(20, 90%, 50%)" />
<rect x="14" y="44" width="2" height="2" fill="hsl(20, 90%, 50%)" />
<rect x="16" y="44" width="2" height="2" fill="hsl(20, 90%, 50%)" />
<rect x="26" y="44" width="2" height="2" fill="hsl(20, 90%, 50%)" />
<rect x="54" y="44" width="2" height="2" fill="hsl(20, 90%, 50%)" />
<rect x="56" y="44" width="2" height="2" fill="hsl(20, 90%, 50%)" />
<rect x="58" y="44" width="2" height="2" fill="hsl(20, 90%, 50%)" />
<rect x="70" y="44" width="2" height="2" fill="hsl(20, 90%, 50%)" />
<rect x="6" y="46" width="2" height="2" fill="hsl(20, 90%, 50%)" />
<rect x="8" y="46" width="2" height="2" fill="hsl(20, 90%, 50%)" />
<rect x="24" y="46" width="2" height="2" fill="hsl(20, 90%, 50%)" />
<rect x="26" y="46" width="2" height="2" fill="hsl(20, 90%, 50%)" />
<rect x="56" y="46" width="2" height="2" fill="hsl(20, 90%, 50%)" />
<rect x="58" y="46" width="2" height="2" fill="hsl(20, 90%, 50%)" />
<rect x="70" y="46" width="2" height="2" fill="hsl(20, 90%, 50%)" />
<rect x="72" y="46" width="2" height="2" fill="hsl(20, 90%, 50%)" />
<rect x="24" y="48" width="2" height="2" fill="hsl(20, 90%, 50%)" />
<rect x="26" y="48" width="2" height="2" fill="hsl(20, 90%, 50%)" />
<rect x="40" y="48" width="2" height="2" fill="hsl(20, 90%, 50%)" />
<rect x="42" y="48" width="2" height="2" fill="hsl(20, 90%, 50%)" />
<rect x="44" y="48" width="2" height="2" fill="hsl(20, 90%, 50%)" />
<rect x="72" y="48" width="2" height="2" fill="hsl(20, 90%, 50%)" />
<rect x="76" y="48" width="2" height="2" fill="hsl(20, 90%, 50%)" />
<rect x="80" y="48" width="2" height="2" fill="hsl(20, 90%, 50%)" />
<rect x="82" y="48" width="2" height="2" fill="hsl(20, 90%, 50%)" />
<rect x="6" y="50" width="2" height="2" fill="hsl(20, 90%, 50%)" />
<rect x="8" y="50" width="2" height="2" fill="hsl(20, 90%, 50%)" />
<rect x="24" y="50" width="2" height="2" fill="hsl(20, 90%, 50%)" />
<rect x="26" y="50" width="2" height="2" fill="hsl(20, 90%, 50%)" />
<rect x="40" y="50" width="2" height="2" fill="hsl(20, 90%, 50%)" />
<rect x="44" y="50" width="2" height="2" fill="hsl(20, 90%, 50%)" />
<rect x="84" y="50" width="2" height="2" fill="hsl(20, 90%, 50%)" />
<rect x="6" y="52" width="2" height="2" fill="hsl(20, 90%, 50%)" />
<rect x="14" y="52" width="2" height="2" fill="hsl(20, 90%, 50%)" />
<rect x="16" y="52" width="2" height="2" fill="hsl(20, 90%, 50%)" />
<rect x="26" y="52" width="2" height="2" fill="hsl(20, 90%, 50%)" />
<rect x="40" y="52" width="2" height="2" fill="hsl(20, 90%, 50%)" />
<rect x="42" y="52" width="2" height="2" fill="hsl(20, 90%, 50%)" />
<rect x="44" y="52" width="2" height="2" fill="hsl(20, 90%, 50%)" />
<rect x="72" y="52" width="2" height="2" fill="hsl(20, 90%, 50%)" />
<rect x="80" y="52" width="2" height="2" fill="hsl(20, 90%, 50%)" />
<rect x="84" y="52" width="2" height="2" fill="hsl(20, 90%, 50%)" />
<rect x="8" y="54" width="2" height="2" fill="hsl(20, 90%, 50%)" />
<rect x="12" y="54" width="2" height="2" fill="hsl(20, 90%, 50%)" />
<rect x="14" y="54" width="2" height="2" fill="hsl(20, 90%, 50%)" />
<rect x="22" y="54" width="2" height="2" fill="hsl(20, 90%, 50%)" />
<rect x="26" y="54" width="2" height="2" fill="hsl(20, 90%, 50%)" />
<rect x="72" y="54" width="2" height="2" fill="hsl(20, 90%, 50%)" />
<rect x="76" y="54" width="2" height="2" fill="hsl(20, 90%, 50%)" />
<rect x="80" y="54" width="2" height="2" fill="hsl(20, 90%, 50%)" />
<rect x="82" y="54" width="2" height="2" fill="hsl(20, 90%, 50%)" />
<rect x="86" y="54" width="2" height="2" fill="hsl(20, 90%, 50%)" />
<rect x="88" y="54" width="2" height="2" fill="hsl(20, 90%, 50%)" />
<rect x="10" y="56" width="2" height="2" fill="hsl(20, 90%, 50%)" />
<rect x="14" y="56" width="2" height="2" fill="hsl(20, 90%, 50%)" />
<rect x="18" y="56" width="2" height="2" fill="hsl(20, 90%, 50%)" />
<rect x="22" y="56" width="2" height="2" fill="hsl(20, 90%, 50%)" />
<rect x="24" y="56" width="2" height="2" fill="hsl(20, 90%, 50%)" />
<rect x="74" y="56" width="2" height="2" fill="hsl(20, 90%, 50%)" />
<rect x="78" y="56" width="2" height="2" fill="hsl(20, 90%, 50%)" />
<rect x="82" y="56" width="2" height="2" fill="hsl(20, 90%, 50%)" />
<rect x="86" y="56" width="2" height="2" fill="hsl(20, 90%, 50%)" />
<rect x="4" y="58" width="2" height="2" fill="hsl(20, 90%, 50%)" />
<rect x="6" y="58" width="2" height="2" fill="hsl(20, 90%, 50%)" />
<rect x="8" y="58" width="2" height="2" fill="hsl(20, 90%, 50%)" />
<rect x="12" y="58" width="2" height="2" fill="hsl(20, 90%, 50%)" />
<rect x="14" y="58" width="2" height="2" fill="hsl(20, 90%, 50%)" />
<rect x="18" y="58" width="2" height="2" fill="hsl(20, 90%, 50%)" />
<rect x="22" y="58" width="2" height="2" fill="hsl(20, 90%, 50%)" />
<rect x="24" y="58" width="2" height="2" fill="hsl(20, 90%, 50%)" />
<rect x="26" y="58" width="2" height="2" fill="hsl(20, 90%, 50%)" />
<rect x="70" y="58" width="2" height="2" fill="hsl(20, 90%, 50%)" />
<rect x="74" y="58" width="2" height="2" fill="hsl(20, 90%, 50%)" />
<rect x="78" y="58" width="2" height="2" fill="hsl(20, 90%, 50%)" />
<rect x="82" y="58" width="2" height="2" fill="hsl(20, 90%, 50%)" />
<rect x="86" y="58" width="2" height="2" fill="hsl(20, 90%, 50%)" />
<rect x="4" y="60" width="2" height="2" fill="hsl(20, 90%, 50%)" />
<rect x="10" y="60" width="2" height="2" fill="hsl(20, 90%, 50%)" />
<rect x="16" y="60" width="2" height="2" fill="hsl(20, 90%, 50%)" />
<rect x="22" y="60" width="2" height="2" fill="hsl(20, 90%, 50%)" />
<rect x="26" y="60" width="2" height="2" fill="hsl(20, 90%, 50%)" />
<rect x="46" y="60" width="2" height="2" fill="hsl(20, 90%, 50%)" />
<rect x="48" y="60" width="2" height="2" fill="hsl(20, 90%, 50%)" />
<rect x="70" y="60" width="2" height="2" fill="hsl(20, 90%, 50%)" />
<rect x="72" y="60" width="2" height="2" fill="hsl(20, 90%, 50%)" />
<rect x="76" y="60" width="2" height="2" fill="hsl(20, 90%, 50%)" />
<rect x="80" y="60" width="2" height="2" fill="hsl(20, 90%, 50%)" />
<rect x="82" y="60" width="2" height="2" fill="hsl(20, 90%, 50%)" />
<rect x="86" y="60" width="2" height="2" fill="hsl(20, 90%, 50%)" />
<rect x="88" y="60" width="2" height="2" fill="hsl(20, 90%, 50%)" />
<rect x="6" y="62" width="2" height="2" fill="hsl(20, 90%, 50%)" />
<rect x="10" y="62" width="2" height="2" fill="hsl(20, 90%, 50%)" />
<rect x="24" y="62" width="2" height="2" fill="hsl(20, 90%, 50%)" />
<rect x="46" y="62" width="2" height="2" fill="hsl(20, 90%, 50%)" />
<rect x="76" y="62" width="2" height="2" fill="hsl(20, 90%, 50%)" />
<rect x="86" y="62" width="2" height="2" fill="hsl(20, 90%, 50%)" />
<rect x="4" y="64" width="2" height="2" fill="hsl(20, 90%, 50%)" />
<rect x="6" y="64" width="2" height="2" fill="hsl(20, 90%, 50%)" />
<rect x="10" y="64" width="2" height="2" fill="hsl(20, 90%, 50%)" />
<rect x="12" y="64" width="2" height="2" fill="hsl(20, 90%, 50%)" />
<rect x="48" y="64" width="2" height="2" fill="hsl(20, 90%, 50%)" />
<rect x="50" y="64" width="2" height="2" fill="hsl(20, 90%, 50%)" />
<rect x="52" y="64" width="2" height="2" fill="hsl(20, 90%, 50%)" />
<rect x="76" y="64" width="2" height="2" fill="hsl(20, 90%, 50%)" />
<rect x="80" y="64" width="2" height="2" fill="hsl(20, 90%, 50%)" />
<rect x="82" y="64" width="2" height="2" fill="hsl(20, 90%, 50%)" />
<rect x="86" y="64" width="2" height="2" fill="hsl(20, 90%, 50%)" />
<rect x="52" y="66" width="2" height="2" fill="hsl(20, 90%, 50%)" />
<rect x="78" y="66" width="2" height="2" fill="hsl(20, 90%, 50%)" />
<rect x="80" y="66" width="2" height="2" fill="hsl(20, 90%, 50%)" />
<rect x="84" y="66" width="2" height="2" fill="hsl(20, 90%, 50%)" />
</svg>