<?xml version="1.0" encoding="utf-8"?>
<svg xmlns="http://www.w3.org/2000/svg" width="54" height="48" viewBox="0 0 54 48">
<rect width="100%" height="100%" fill="transparent" />
<rect x="6" y="4" width="1" height="1" fill="hsl(20, 90%, 50%)" />
<rect x="31" y="4" width="1" height="1" fill="hsl(20, 90%, 50%)" />
<rect x="4" y="5" width="1" height="1" fill="hsl(20, 90%, 50%)" />
<rect x="6" y="5" width="1" height="1" fill="hsl(20, 90%, 50%)" />
<rect x="29" y="5" width="1" height="1" fill="hsl(20, 90%, 50%)" />
<rect x="31" y="5" width="1" height="1" fill="hsl(20, 90%, 50%)" />
<rect x="5" y="6" width="1" height="1" fill="hsl(20, 90%, 50%)" />
<rect x="6" y="6" width="1" height="1" fill="hsl(20, 90%, 50%)" />
<rect x="30" y="6" width="1" height="1" fill="hsl(20, 90%, 50%)" />
<rect x="31" y="6" width="1" height="1" fill="hsl(20, 90%, 50%)" />
<rect x="26" y="7" width="1" height="1" fill="hsl(20, 90%, 50%)" />
<rect x="24" y="8" width="1" height="1" fill="hsl(20, 90%, 50%)" />
<rect x="25" y="8" width="1" height="1" fill="hsl(20, 90%, 50%)" />
<rect x="26" y="8" width="1" height="1" fill="hsl(20, 90%, 50%)" />
<rect x="23" y="9" width="1" height="1" fill="hsl(20, 90%, 50%)" />
<rect x="23" y="10" width="1" height="1" fill="hsl(20, 90%, 50%)" />
<rect x="24" y="10" width="1" height="1" fill="hsl(20, 90%, 50%)" />
<rect x="22" y="11" width="1" height="1" fill="hsl(20, 90%, 50%)" />
<rect x="23" y="11" width="1" height="1" fill="hsl(20, 90%, 50%)" />
<rect x="11" y="12" width="1" height="1" fill="hsl(20, 90%, 50%)" />
<rect x="12" y="12" width="1" height="1" fill="hsl(20, 90%, 50%)" />
<rect x="21" y="12" width="1" height="1" fill="hsl(20, 90%, 50%)" />
<rect x="22" y="12" width="1" height="1" fill="hsl(20, 90%, 50%)" />
<rect x="36" y="12" width="1" height="1" fill="hsl(20, 90%, 50%)" />
<rect x="37" y="12" width="1" height="1" fill="hsl(20, 90%, 50%)" />
<rect x="47" y="12" width="1" height="1" fill="hsl(20, 90%, 50%)" />
<rect x="48" y="12" width="1" height="1" fill="hsl(20, 90%, 50%)" />
<rect x="10" y="13" width="1" height="1" fill="hsl(20, 90%, 50%)" />
<rect x="13" y="13" width="1" height="1" fill="hsl(20, 90%, 50%)" />
<rect x="18" y="13" width="1" height="1" fill="hsl(20, 90%, 50%)" />
<rect x="22" y="13" width="1" height="1" fill="hsl(20, 90%, 50%)" />
<rect x="35" y="13" width="1" height="1" fill="hsl(20, 90%, 50%)" />
<rect x="38" y="13" width="1" height="1" fill="hsl(20, 90%, 50%)" />
<rect x="43" y="13" width="1" height="1" fill="hsl(20, 90%, 50%)" />
<rect x="45" y="13" width="1" height="1" fill="hsl(20, 90%, 50%)" />
<rect x="46" y="13" width="1" height="1" fill="hsl(20, 90%, 50%)" />
<rect x="47" y="13" width="1" height="1" fill="hsl(20, 90%, 50%)" />
<rect x="48" y="13" width="1" height="1" fill="hsl(20, 90%, 50%)" />
<rect x="10" y="14" width="1" height="1" fill="hsl(20, 90%, 50%)" />
<rect x="12" y="14" width="1" height="1" fill="hsl(20, 90%, 50%)" />
<rect x="16" y="14" width="1" height="1" fill="hsl(20, 90%, 50%)" />
<rect x="17" y="14" width="1" height="1" fill="hsl(20, 90%, 50%)" />
<rect x="18" y="14" width="1" height="1" fill="hsl(20, 90%, 50%)" />
<rect x="20" y="14" width="1" height="1" fill="hsl(20, 90%, 50%)" />
<rect x="21" y="14" width="1" height="1" fill="hsl(20, 90%, 50%)" />
<rect x="22" y="14" width="1" height="1" fill="hsl(20, 90%, 50%)" />
<rect x="35" y="14" width="1" height="1" fill="hsl(20, 90%, 50%)" />
<rect x="37" y="14" width="1" height="1" fill="hsl(20, 90%, 50%)" />
<rect x="41" y="14" width="1" height="1" fill="hsl(20, 90%, 50%)" />
<rect x="42" y="14" width="1" height="1" fill="hsl(20, 90%, 50%)" />
<rect x="43" y="14" width="1" height="1" fill="hsl(20, 90%, 50%)" />
<rect x="46" y="14" width="1" height="1" fill="hsl(20, 90%, 50%)" />
<rect x="48" y="14" width="1" height="1" fill="hsl(20, 90%, 50%)" />
<rect x="11" y="15" width="1" height="1" fill="hsl(20, 90%, 50%)" />
<rect x="21" y="15" width="1" height="1" fill="hsl(20, 90%, 50%)" />
<rect x="36" y="15" width="1" height="1" fill="hsl(20, 90%, 50%)" />
<rect x="16" y="16" width="1" height="1" fill="hsl(20, 90%, 50%)" />
<rect x="17" y="16" width="1" height="1" fill="hsl(20, 90%, 50%)" />
<rect x="18" y="16" width="1" height="1" fill="hsl(20, 90%, 50%)" />
<rect x="19" y="16" width="1" height="1" fill="hsl(20, 90%, 50%)" />
<rect x="20" y="16" width="1" height="1" fill="hsl(20, 90%, 50%)" />
<rect x="21" y="16" width="1" height="1" fill="hsl(20, 90%, 50%)" />
<rect x="41" y="16" width="1" height="1" fill="hsl(20, 90%, 50%)" />
<rect x="42" y="16" width="1" height="1" fill="hsl(20, 90%, 50%)" />
<rect x="43" y="16" width="1" height="1" fill="hsl(20, 90%, 50%)" />
<rect x="6" y="17" width="1" height="1" fill="hsl(20, 90%, 50%)" />
<rect x="7" y="17" width="1" height="1" fill="hsl(20, 90%, 50%)" />
<rect x="16" y="17" width="1" height="1" fill="hsl(20, 90%, 50%)" />
<rect x="17" y="17" width="1" height="1" fill="hsl(20, 90%, 50%)" />
<rect x="19" y="17" width="1" height="1" fill="hsl(20, 90%, 50%)" />
<rect x="31" y="17" width="1" height="1" fill="hsl(20, 90%, 50%)" />
<rect x="32" y="17" width="1" height="1" fill="hsl(20, 90%, 50%)" />
<rect x="40" y="17" width="1" height="1" fill="hsl(20, 90%, 50%)" />
<rect x="42" y="17" width="1" height="1" fill="hsl(20, 90%, 50%)" />
<rect x="43" y="17" width="1" height="1" fill="hsl(20, 90%, 50%)" />
<rect x="44" y="17" width="1" height="1" fill="hsl(20, 90%, 50%)" />
<rect x="46" y="17" width="1" height="1" fill="hsl(20, 90%, 50%)" />
<rect x="48" y="17" width="1" height="1" fill="hsl(20, 90%, 50%)" />
<rect x="49" y="17" width="1" height="1" fill="hsl(20, 90%, 50%)" />
<rect x="7" y="18" width="1" height="1" fill="hsl(20, 90%, 50%)" />
<rect x="15" y="18" width="1" height="1" fill="hsl(20, 90%, 50%)" />
<rect x="16" y="18" width="1" height="1" fill="hsl(20, 90%, 50%)" />
<rect x="32" y="18" width="1" height="1" fill="hsl(20, 90%, 50%)" />
<rect x="39" y="18" width="1" height="1" fill="hsl(20, 90%, 50%)" />
<rect x="44" y="18" width="1" height="1" fill="hsl(20, 90%, 50%)" />
<rect x="46" y="18" width="1" height="1" fill="hsl(20, 90%, 50%)" />
<rect x="47" y="18" width="1" height="1" fill="hsl(20, 90%, 50%)" />
<rect x="49" y="18" width="1" height="1" fill="hsl(20, 90%, 50%)" />
<rect x="4" y="19" width="1" height="1" fill="hsl(20, 90%, 50%)" />
<rect x="5" y="19" width="1" height="1" fill="hsl(20, 90%, 50%)" />
<rect x="6" y="19" width="1" height="1" fill="hsl(20, 90%, 50%)" />
<rect x="29" y="19" width="1" height="1" fill="hsl(20, 90%, 50%)" />
<rect x="30" y="19" width="1" height="1" fill="hsl(20, 90%, 50%)" />
<rect x="31" y="19" width="1" height="1" fill="hsl(20, 90%, 50%)" />
<rect x="39" y="19" width="1" height="1" fill="hsl(20, 90%, 50%)" />
<rect x="40" y="19" width="1" height="1" fill="hsl(20, 90%, 50%)" />
<rect x="43" y="19" width="1" height="1" fill="hsl(20, 90%, 50%)" />
<rect x="44" y="19" width="1" height="1" fill="hsl(20, 90%, 50%)" />
<rect x="45" y="19" width="1" height="1" fill="hsl(20, 90%, 50%)" />
<rect x="4" y="20" width="1" height="1" fill="hsl(20, 90%, 50%)" />
<rect x="29" y="20" width="1" height="1" fill="hsl(20, 90%, 50%)" />
<rect x="42" y="20" width="1" height="1" fill="hsl(20, 90%, 50%)" />
<rect x="46" y="20" width="1" height="1" fill="hsl(20, 90%, 50%)" />
<rect x="47" y="20" width="1" height="1" fill="hsl(20, 90%, 50%)" />
<rect x="48" y="20" width="1" height="1" fill="hsl(20, 90%, 50%)" />
<rect x="43" y="21" width="1" height="1" fill="hsl(20, 90%, 50%)" />
<rect x="44" y="21" width="1" height="1" fill="hsl(20, 90%, 50%)" />
<rect x="45" y="21" width="1" height="1" fill="hsl(20, 90%, 50%)" />
<rect x="48" y="21" width="1" height="1" fill="hsl(20, 90%, 50%)" />
<rect x="45" y="22" width="1" height="1" fill="hsl(20, 90%, 50%)" />
<rect x="8" y="23" width="1" height="1" fill="hsl(20, 90%, 50%)" />
<rect x="6" y="24" width="1" height="1" fill="hsl(20, 90%, 50%)" />
<rect x="8" y="24" width="1" height="1" fill="hsl(20, 90%, 50%)" />
<rect x="7" y="25" width="1" height="1" fill="hsl(20, 90%, 50%)" />
<rect x="8" y="25" width="1" height="1" fill="hsl(20, 90%, 50%)" />
<rect x="33" y="31" width="1" height="1" fill="hsl(20, 90%, 50%)" />
<rect x="10" y="32" width="1" height="1" fill="hsl(20, 90%, 50%)" />
<rect x="17" y="32" width="1" height="1" fill="hsl(20, 90%, 50%)" />
<rect x="31" y="32" width="1" height="1" fill="hsl(20, 90%, 50%)" />
<rect x="32" y="32" width="1" height="1" fill="hsl(20, 90%, 50%)" />
<rect x="33" y="32" width="1" height="1" fill="hsl(20, 90%, 50%)" />
<rect x="5" y="33" width="1" height="1" fill="hsl(20, 90%, 50%)" />
<rect x="9" y="33" width="1" height="1" fill="hsl(20, 90%, 50%)" />
<rect x="11" y="33" width="1" height="1" fill="hsl(20, 90%, 50%)" />
<rect x="15" y="33" width="1" height="1" fill="hsl(20, 90%, 50%)" />
<rect x="17" y="33" width="1" height="1" fill="hsl(20, 90%, 50%)" />
<rect x="30" y="33" width="1" height="1" fill="hsl(20, 90%, 50%)" />
<rect x="4" y="34" width="1" height="1" fill="hsl(20, 90%, 50%)" />
<rect x="6" y="34" width="1" height="1" fill="hsl(20, 90%, 50%)" />
<rect x="9" y="34" width="1" height="1" fill="hsl(20, 90%, 50%)" />
<rect x="11" y="34" width="1" height="1" fill="hsl(20, 90%, 50%)" />
<rect x="16" y="34" width="1" height="1" fill="hsl(20, 90%, 50%)" />
<rect x="17" y="34" width="1" height="1" fill="hsl(20, 90%, 50%)" />
<rect x="31" y="34" width="1" height="1" fill="hsl(20, 90%, 50%)" />
<rect x="4" y="35" width="1" height="1" fill="hsl(20, 90%, 50%)" />
<rect x="6" y="35" width="1" height="1" fill="hsl(20, 90%, 50%)" />
<rect x="7" y="35" width="1" height="1" fill="hsl(20, 90%, 50%)" />
<rect x="8" y="35" width="1" height="1" fill="hsl(20, 90%, 50%)" />
<rect x="10" y="35" width="1" height="1" fill="hsl(20, 90%, 50%)" />
<rect x="28" y="35" width="1" height="1" fill="hsl(20, 90%, 50%)" />
<rect x="31" y="35" width="1" height="1" fill="hsl(20, 90%, 50%)" />
<rect x="5" y="36" width="1" height="1" fill="hsl(20, 90%, 50%)" />
<rect x="8" y="36" width="1" height="1" fill="hsl(20, 90%, 50%)" />
<rect x="9" y="36" width="1" height="1" fill="hsl(20, 90%, 50%)" />
<rect x="18" y="36" width="1" height="1" fill="hsl(20, 90%, 50%)" />
<rect x="19" y="36" width="1" height="1" fill="hsl(20, 90%, 50%)" />
<rect x="28" y="36" width="1" height="1" fill="hsl(20, 90%, 50%)" />
<rect x="6" y="37" width="1" height="1" fill="hsl(20, 90%, 50%)" />
<rect x="7" y="37" width="1" height="1" fill="hsl(20, 90%, 50%)" />
<rect x="8" y="37" width="1" height="1" fill="hsl(20, 90%, 50%)" />
<rect x="17" y="37" width="1" height="1" fill="hsl(20, 90%, 50%)" />
<rect x="20" y="37" width="1" height="1" fill="hsl(20, 90%, 50%)" />
<rect x="25" y="37" width="1" height="1" fill="hsl(20, 90%, 50%)" />
<rect x="26" y="37" width="1" height="1" fill="hsl(20, 90%, 50%)" />
<rect x="27" y="37" width="1" height="1" fill="hsl(20, 90%, 50%)" />
<rect x="30" y="37" width="1" height="1" fill="hsl(20, 90%, 50%)" />
<rect x="17" y="38" width="1" height="1" fill="hsl(20, 90%, 50%)" />
<rect x="19" y="38" width="1" height="1" fill="hsl(20, 90%, 50%)" />
<rect x="24" y="38" width="1" height="1" fill="hsl(20, 90%, 50%)" />
<rect x="25" y="38" width="1" height="1" fill="hsl(20, 90%, 50%)" />
<rect x="26" y="38" width="1" height="1" fill="hsl(20, 90%, 50%)" />
<rect x="27" y="38" width="1" height="1" fill="hsl(20, 90%, 50%)" />
<rect x="29" y="38" width="1" height="1" fill="hsl(20, 90%, 50%)" />
<rect x="8" y="39" width="1" height="1" fill="hsl(20, 90%, 50%)" />
<rect x="9" y="39" width="1" height="1" fill="hsl(20, 90%, 50%)" />
<rect x="10" y="39" width="1" height="1" fill="hsl(20, 90%, 50%)" />
<rect x="18" y="39" width="1" height="1" fill="hsl(20, 90%, 50%)" />
<rect x="7" y="40" width="1" height="1" fill="hsl(20, 90%, 50%)" />
<rect x="10" y="40" width="1" height="1" fill="hsl(20, 90%, 50%)" />
<rect x="23" y="40" width="1" height="1" fill="hsl(20, 90%, 50%)" />
<rect x="26" y="40" width="1" height="1" fill="hsl(20, 90%, 50%)" />
<rect x="28" y="40" width="1" height="1" fill="hsl(20, 90%, 50%)" />
<rect x="7" y="41" width="1" height="1" fill="hsl(20, 90%, 50%)" />
<rect x="8" y="41" width="1" height="1" fill="hsl(20, 90%, 50%)" />
<rect x="9" y="41" width="1" height="1" fill="hsl(20, 90%, 50%)" />
<rect x="10" y="41" width="1" height="1" fill="hsl(20, 90%, 50%)" />
<rect x="11" y="41" width="1" height="1" fill="hsl(20, 90%, 50%)" />
<rect x="13" y="41" width="1" height="1" fill="hsl(20, 90%, 50%)" />
<rect x="14" y="41" width="1" height="1" fill="hsl(20, 90%, 50%)" />
<rect x="26" y="41" width="1" height="1" fill="hsl(20, 90%, 50%)" />
<rect x="5" y="42" width="1" height="1" fill="hsl(20, 90%, 50%)" />
<rect x="7" y="42" width="1" height="1" fill="hsl(20, 90%, 50%)" />
<rect x="11" y="42" width="1" height="1" fill="hsl(20, 90%, 50%)" />
<rect x="12" y="42" width="1" height="1" fill="hsl(20, 90%, 50%)" />
<rect x="14" y="42" width="1" height="1" fill="hsl(20, 90%, 50%)" />
<rect x="22" y="42" width="1" height="1" fill="hsl(20, 90%, 50%)" />
<rect x="23" y="42" width="1" height="1" fill="hsl(20, 90%, 50%)" />
<rect x="24" y="42" width="1" height="1" fill="hsl(20, 90%, 50%)" />
<rect x="5" y="43" width="1" height="1" fill="hsl(20, 90%, 50%)" />
<rect x="6" y="43" width="1" height="1" fill="hsl(20, 90%, 50%)" />
<rect x="13" y="43" width="1" height="1" fill="hsl(20, 90%, 50%)" />
</svg>