<?xml version="1.0" encoding="utf-8"?>
<svg xmlns="http://www.w3.org/2000/svg" width="82" height="62" viewBox="0 0 82 62">
<rect width="100%" height="100%" fill="transparent" />
<rect x="4" y="4" width="2" height="2" fill="hsl(20, 90%, 50%)" />
<rect x="6" y="4" width="2" height="2" fill="hsl(20, 90%, 50%)" />
<rect x="6" y="6" width="2" height="2" fill="hsl(20, 90%, 50%)" />
<rect x="6" y="8" width="2" height="2" fill="hsl(20, 90%, 50%)" />
<rect x="10" y="8" width="2" height="2" fill="hsl(20, 90%, 50%)" />
<rect x="24" y="8" width="2" height="2" fill="hsl(20, 90%, 50%)" />
<rect x="52" y="8" width="2" height="2" fill="hsl(20, 90%, 50%)" />
<rect x="8" y="10" width="2" height="2" fill="hsl(20, 90%, 50%)" />
<rect x="10" y="10" width="2" height="2" fill="hsl(20, 90%, 50%)" />
<rect x="24" y="10" width="2" height="2" fill="hsl(20, 90%, 50%)" />
<rect x="26" y="10" width="2" height="2" fill="hsl(20, 90%, 50%)" />
<rect x="28" y="10" width="2" height="2" fill="hsl(20, 90%, 50%)" />
<rect x="30" y="10" width="2" height="2" fill="hsl(20, 90%, 50%)" />
<rect x="48" y="10" width="2" height="2" fill="hsl(20, 90%, 50%)" />
<rect x="52" y="10" width="2" height="2" fill="hsl(20, 90%, 50%)" />
<rect x="26" y="12" width="2" height="2" fill="hsl(20, 90%, 50%)" />
<rect x="28" y="12" width="2" height="2" fill="hsl(20, 90%, 50%)" />
<rect x="30" y="12" width="2" height="2" fill="hsl(20, 90%, 50%)" />
<rect x="32" y="12" width="2" height="2" fill="hsl(20, 90%, 50%)" />
<rect x="46" y="12" width="2" height="2" fill="hsl(20, 90%, 50%)" />
<rect x="50" y="12" width="2" height="2" fill="hsl(20, 90%, 50%)" />
<rect x="26" y="14" width="2" height="2" fill="hsl(20, 90%, 50%)" />
<rect x="32" y="14" width="2" height="2" fill="hsl(20, 90%, 50%)" />
<rect x="44" y="14" width="2" height="2" fill="hsl(20, 90%, 50%)" />
<rect x="50" y="14" width="2" height="2" fill="hsl(20, 90%, 50%)" />
<rect x="26" y="16" width="2" height="2" fill="hsl(20, 90%, 50%)" />
<rect x="28" y="16" width="2" height="2" fill="hsl(20, 90%, 50%)" />
<rect x="30" y="16" width="2" height="2" fill="hsl(20, 90%, 50%)" />
<rect x="32" y="16" width="2" height="2" fill="hsl(20, 90%, 50%)" />
<rect x="46" y="16" width="2" height="2" fill="hsl(20, 90%, 50%)" />
<rect x="50" y="16" width="2" height="2" fill="hsl(20, 90%, 50%)" />
<rect x="24" y="18" width="2" height="2" fill="hsl(20, 90%, 50%)" />
<rect x="26" y="18" width="2" height="2" fill="hsl(20, 90%, 50%)" />
<rect x="28" y="18" width="2" height="2" fill="hsl(20, 90%, 50%)" />
<rect x="30" y="18" width="2" height="2" fill="hsl(20, 90%, 50%)" />
<rect x="48" y="18" width="2" height="2" fill="hsl(20, 90%, 50%)" />
<rect x="52" y="18" width="2" height="2" fill="hsl(20, 90%, 50%)" />
<rect x="70" y="18" width="2" height="2" fill="hsl(20, 90%, 50%)" />
<rect x="72" y="18" width="2" height="2" fill="hsl(20, 90%, 50%)" />
<rect x="24" y="20" width="2" height="2" fill="hsl(20, 90%, 50%)" />
<rect x="52" y="20" width="2" height="2" fill="hsl(20, 90%, 50%)" />
<rect x="70" y="20" width="2" height="2" fill="hsl(20, 90%, 50%)" />
<rect x="74" y="20" width="2" height="2" fill="hsl(20, 90%, 50%)" />
<rect x="74" y="22" width="2" height="2" fill="hsl(20, 90%, 50%)" />
<rect x="74" y="24" width="2" height="2" fill="hsl(20, 90%, 50%)" />
<rect x="76" y="24" width="2" height="2" fill="hsl(20, 90%, 50%)" />
<rect x="36" y="28" width="2" height="2" fill="hsl(20, 90%, 50%)" />
<rect x="38" y="28" width="2" height="2" fill="hsl(20, 90%, 50%)" />
<rect x="40" y="28" width="2" height="2" fill="hsl(20, 90%, 50%)" />
<rect x="34" y="30" width="2" height="2" fill="hsl(20, 90%, 50%)" />
<rect x="36" y="30" width="2" height="2" fill="hsl(20, 90%, 50%)" />
<rect x="40" y="30" width="2" height="2" fill="hsl(20, 90%, 50%)" />
<rect x="42" y="30" width="2" height="2" fill="hsl(20, 90%, 50%)" />
<rect x="34" y="32" width="2" height="2" fill="hsl(20, 90%, 50%)" />
<rect x="36" y="32" width="2" height="2" fill="hsl(20, 90%, 50%)" />
<rect x="40" y="32" width="2" height="2" fill="hsl(20, 90%, 50%)" />
<rect x="42" y="32" width="2" height="2" fill="hsl(20, 90%, 50%)" />
<rect x="34" y="34" width="2" height="2" fill="hsl(20, 90%, 50%)" />
<rect x="36" y="34" width="2" height="2" fill="hsl(20, 90%, 50%)" />
<rect x="38" y="34" width="2" height="2" fill="hsl(20, 90%, 50%)" />
<rect x="40" y="34" width="2" height="2" fill="hsl(20, 90%, 50%)" />
<rect x="42" y="34" width="2" height="2" fill="hsl(20, 90%, 50%)" />
<rect x="32" y="36" width="2" height="2" fill="hsl(20, 90%, 50%)" />
<rect x="34" y="36" width="2" height="2" fill="hsl(20, 90%, 50%)" />
<rect x="42" y="36" width="2" height="2" fill="hsl(20, 90%, 50%)" />
<rect x="44" y="36" width="2" height="2" fill="hsl(20, 90%, 50%)" />
<rect x="32" y="50" width="2" height="2" fill="hsl(20, 90%, 50%)" />
<rect x="34" y="50" width="2" height="2" fill="hsl(20, 90%, 50%)" />
<rect x="34" y="52" width="2" height="2" fill="hsl(20, 90%, 50%)" />
<rect x="28" y="54" width="2" height="2" fill="hsl(20, 90%, 50%)" />
<rect x="30" y="54" width="2" height="2" fill="hsl(20, 90%, 50%)" />
<rect x="32" y="54" width="2" height="2" fill="hsl(20, 90%, 50%)" />
<rect x="28" y="56" width="2" height="2" fill="hsl(20, 90%, 50%)" />
</svg>