<?xml version="1.0" encoding="utf-8"?>
<svg xmlns="http://www.w3.org/2000/svg" width="66" height="44" viewBox="0 0 66 44">
<rect width="100%" height="100%" fill="transparent" />
<rect x="36" y="4" width="1" height="1" fill="hsl(20, 90%, 50%)" />
<rect x="35" y="5" width="1" height="1" fill="hsl(20, 90%, 50%)" />
<rect x="35" y="6" width="1" height="1" fill="hsl(20, 90%, 50%)" />
<rect x="36" y="6" width="1" height="1" fill="hsl(20, 90%, 50%)" />
<rect x="37" y="6" width="1" height="1" fill="hsl(20, 90%, 50%)" />
<rect x="45" y="6" width="1" height="1" fill="hsl(20, 90%, 50%)" />
<rect x="47" y="6" width="1" height="1" fill="hsl(20, 90%, 50%)" />
<rect x="44" y="7" width="1" height="1" fill="hsl(20, 90%, 50%)" />
<rect x="46" y="7" width="1" height="1" fill="hsl(20, 90%, 50%)" />
<rect x="47" y="7" width="1" height="1" fill="hsl(20, 90%, 50%)" />
<rect x="42" y="8" width="1" height="1" fill="hsl(20, 90%, 50%)" />
<rect x="43" y="8" width="1" height="1" fill="hsl(20, 90%, 50%)" />
<rect x="44" y="8" width="1" height="1" fill="hsl(20, 90%, 50%)" />
<rect x="50" y="8" width="1" height="1" fill="hsl(20, 90%, 50%)" />
<rect x="41" y="9" width="1" height="1" fill="hsl(20, 90%, 50%)" />
<rect x="45" y="9" width="1" height="1" fill="hsl(20, 90%, 50%)" />
<rect x="46" y="9" width="1" height="1" fill="hsl(20, 90%, 50%)" />
<rect x="47" y="9" width="1" height="1" fill="hsl(20, 90%, 50%)" />
<rect x="48" y="9" width="1" height="1" fill="hsl(20, 90%, 50%)" />
<rect x="49" y="9" width="1" height="1" fill="hsl(20, 90%, 50%)" />
<rect x="50" y="9" width="1" height="1" fill="hsl(20, 90%, 50%)" />
<rect x="51" y="9" width="1" height="1" fill="hsl(20, 90%, 50%)" />
<rect x="52" y="9" width="1" height="1" fill="hsl(20, 90%, 50%)" />
<rect x="38" y="10" width="1" height="1" fill="hsl(20, 90%, 50%)" />
<rect x="40" y="10" width="1" height="1" fill="hsl(20, 90%, 50%)" />
<rect x="42" y="10" width="1" height="1" fill="hsl(20, 90%, 50%)" />
<rect x="45" y="10" width="1" height="1" fill="hsl(20, 90%, 50%)" />
<rect x="53" y="10" width="1" height="1" fill="hsl(20, 90%, 50%)" />
<rect x="18" y="11" width="1" height="1" fill="hsl(20, 90%, 50%)" />
<rect x="38" y="11" width="1" height="1" fill="hsl(20, 90%, 50%)" />
<rect x="39" y="11" width="1" height="1" fill="hsl(20, 90%, 50%)" />
<rect x="40" y="11" width="1" height="1" fill="hsl(20, 90%, 50%)" />
<rect x="41" y="11" width="1" height="1" fill="hsl(20, 90%, 50%)" />
<rect x="43" y="11" width="1" height="1" fill="hsl(20, 90%, 50%)" />
<rect x="44" y="11" width="1" height="1" fill="hsl(20, 90%, 50%)" />
<rect x="46" y="11" width="1" height="1" fill="hsl(20, 90%, 50%)" />
<rect x="47" y="11" width="1" height="1" fill="hsl(20, 90%, 50%)" />
<rect x="48" y="11" width="1" height="1" fill="hsl(20, 90%, 50%)" />
<rect x="49" y="11" width="1" height="1" fill="hsl(20, 90%, 50%)" />
<rect x="50" y="11" width="1" height="1" fill="hsl(20, 90%, 50%)" />
<rect x="51" y="11" width="1" height="1" fill="hsl(20, 90%, 50%)" />
<rect x="52" y="11" width="1" height="1" fill="hsl(20, 90%, 50%)" />
<rect x="54" y="11" width="1" height="1" fill="hsl(20, 90%, 50%)" />
<rect x="18" y="12" width="1" height="1" fill="hsl(20, 90%, 50%)" />
<rect x="19" y="12" width="1" height="1" fill="hsl(20, 90%, 50%)" />
<rect x="20" y="12" width="1" height="1" fill="hsl(20, 90%, 50%)" />
<rect x="39" y="12" width="1" height="1" fill="hsl(20, 90%, 50%)" />
<rect x="40" y="12" width="1" height="1" fill="hsl(20, 90%, 50%)" />
<rect x="41" y="12" width="1" height="1" fill="hsl(20, 90%, 50%)" />
<rect x="47" y="12" width="1" height="1" fill="hsl(20, 90%, 50%)" />
<rect x="49" y="12" width="1" height="1" fill="hsl(20, 90%, 50%)" />
<rect x="52" y="12" width="1" height="1" fill="hsl(20, 90%, 50%)" />
<rect x="54" y="12" width="1" height="1" fill="hsl(20, 90%, 50%)" />
<rect x="57" y="12" width="1" height="1" fill="hsl(20, 90%, 50%)" />
<rect x="58" y="12" width="1" height="1" fill="hsl(20, 90%, 50%)" />
<rect x="21" y="13" width="1" height="1" fill="hsl(20, 90%, 50%)" />
<rect x="41" y="13" width="1" height="1" fill="hsl(20, 90%, 50%)" />
<rect x="42" y="13" width="1" height="1" fill="hsl(20, 90%, 50%)" />
<rect x="43" y="13" width="1" height="1" fill="hsl(20, 90%, 50%)" />
<rect x="45" y="13" width="1" height="1" fill="hsl(20, 90%, 50%)" />
<rect x="47" y="13" width="1" height="1" fill="hsl(20, 90%, 50%)" />
<rect x="51" y="13" width="1" height="1" fill="hsl(20, 90%, 50%)" />
<rect x="52" y="13" width="1" height="1" fill="hsl(20, 90%, 50%)" />
<rect x="54" y="13" width="1" height="1" fill="hsl(20, 90%, 50%)" />
<rect x="56" y="13" width="1" height="1" fill="hsl(20, 90%, 50%)" />
<rect x="58" y="13" width="1" height="1" fill="hsl(20, 90%, 50%)" />
<rect x="20" y="14" width="1" height="1" fill="hsl(20, 90%, 50%)" />
<rect x="21" y="14" width="1" height="1" fill="hsl(20, 90%, 50%)" />
<rect x="35" y="14" width="1" height="1" fill="hsl(20, 90%, 50%)" />
<rect x="36" y="14" width="1" height="1" fill="hsl(20, 90%, 50%)" />
<rect x="37" y="14" width="1" height="1" fill="hsl(20, 90%, 50%)" />
<rect x="40" y="14" width="1" height="1" fill="hsl(20, 90%, 50%)" />
<rect x="41" y="14" width="1" height="1" fill="hsl(20, 90%, 50%)" />
<rect x="43" y="14" width="1" height="1" fill="hsl(20, 90%, 50%)" />
<rect x="44" y="14" width="1" height="1" fill="hsl(20, 90%, 50%)" />
<rect x="45" y="14" width="1" height="1" fill="hsl(20, 90%, 50%)" />
<rect x="46" y="14" width="1" height="1" fill="hsl(20, 90%, 50%)" />
<rect x="47" y="14" width="1" height="1" fill="hsl(20, 90%, 50%)" />
<rect x="52" y="14" width="1" height="1" fill="hsl(20, 90%, 50%)" />
<rect x="54" y="14" width="1" height="1" fill="hsl(20, 90%, 50%)" />
<rect x="56" y="14" width="1" height="1" fill="hsl(20, 90%, 50%)" />
<rect x="33" y="15" width="1" height="1" fill="hsl(20, 90%, 50%)" />
<rect x="35" y="15" width="1" height="1" fill="hsl(20, 90%, 50%)" />
<rect x="39" y="15" width="1" height="1" fill="hsl(20, 90%, 50%)" />
<rect x="40" y="15" width="1" height="1" fill="hsl(20, 90%, 50%)" />
<rect x="41" y="15" width="1" height="1" fill="hsl(20, 90%, 50%)" />
<rect x="43" y="15" width="1" height="1" fill="hsl(20, 90%, 50%)" />
<rect x="44" y="15" width="1" height="1" fill="hsl(20, 90%, 50%)" />
<rect x="46" y="15" width="1" height="1" fill="hsl(20, 90%, 50%)" />
<rect x="49" y="15" width="1" height="1" fill="hsl(20, 90%, 50%)" />
<rect x="51" y="15" width="1" height="1" fill="hsl(20, 90%, 50%)" />
<rect x="52" y="15" width="1" height="1" fill="hsl(20, 90%, 50%)" />
<rect x="53" y="15" width="1" height="1" fill="hsl(20, 90%, 50%)" />
<rect x="54" y="15" width="1" height="1" fill="hsl(20, 90%, 50%)" />
<rect x="57" y="15" width="1" height="1" fill="hsl(20, 90%, 50%)" />
<rect x="60" y="15" width="1" height="1" fill="hsl(20, 90%, 50%)" />
<rect x="61" y="15" width="1" height="1" fill="hsl(20, 90%, 50%)" />
<rect x="31" y="16" width="1" height="1" fill="hsl(20, 90%, 50%)" />
<rect x="32" y="16" width="1" height="1" fill="hsl(20, 90%, 50%)" />
<rect x="38" y="16" width="1" height="1" fill="hsl(20, 90%, 50%)" />
<rect x="43" y="16" width="1" height="1" fill="hsl(20, 90%, 50%)" />
<rect x="46" y="16" width="1" height="1" fill="hsl(20, 90%, 50%)" />
<rect x="49" y="16" width="1" height="1" fill="hsl(20, 90%, 50%)" />
<rect x="53" y="16" width="1" height="1" fill="hsl(20, 90%, 50%)" />
<rect x="58" y="16" width="1" height="1" fill="hsl(20, 90%, 50%)" />
<rect x="61" y="16" width="1" height="1" fill="hsl(20, 90%, 50%)" />
<rect x="23" y="17" width="1" height="1" fill="hsl(20, 90%, 50%)" />
<rect x="31" y="17" width="1" height="1" fill="hsl(20, 90%, 50%)" />
<rect x="32" y="17" width="1" height="1" fill="hsl(20, 90%, 50%)" />
<rect x="34" y="17" width="1" height="1" fill="hsl(20, 90%, 50%)" />
<rect x="36" y="17" width="1" height="1" fill="hsl(20, 90%, 50%)" />
<rect x="39" y="17" width="1" height="1" fill="hsl(20, 90%, 50%)" />
<rect x="46" y="17" width="1" height="1" fill="hsl(20, 90%, 50%)" />
<rect x="49" y="17" width="1" height="1" fill="hsl(20, 90%, 50%)" />
<rect x="54" y="17" width="1" height="1" fill="hsl(20, 90%, 50%)" />
<rect x="55" y="17" width="1" height="1" fill="hsl(20, 90%, 50%)" />
<rect x="56" y="17" width="1" height="1" fill="hsl(20, 90%, 50%)" />
<rect x="57" y="17" width="1" height="1" fill="hsl(20, 90%, 50%)" />
<rect x="58" y="17" width="1" height="1" fill="hsl(20, 90%, 50%)" />
<rect x="59" y="17" width="1" height="1" fill="hsl(20, 90%, 50%)" />
<rect x="60" y="17" width="1" height="1" fill="hsl(20, 90%, 50%)" />
<rect x="22" y="18" width="1" height="1" fill="hsl(20, 90%, 50%)" />
<rect x="34" y="18" width="1" height="1" fill="hsl(20, 90%, 50%)" />
<rect x="36" y="18" width="1" height="1" fill="hsl(20, 90%, 50%)" />
<rect x="39" y="18" width="1" height="1" fill="hsl(20, 90%, 50%)" />
<rect x="42" y="18" width="1" height="1" fill="hsl(20, 90%, 50%)" />
<rect x="45" y="18" width="1" height="1" fill="hsl(20, 90%, 50%)" />
<rect x="55" y="18" width="1" height="1" fill="hsl(20, 90%, 50%)" />
<rect x="22" y="19" width="1" height="1" fill="hsl(20, 90%, 50%)" />
<rect x="23" y="19" width="1" height="1" fill="hsl(20, 90%, 50%)" />
<rect x="24" y="19" width="1" height="1" fill="hsl(20, 90%, 50%)" />
<rect x="33" y="19" width="1" height="1" fill="hsl(20, 90%, 50%)" />
<rect x="38" y="19" width="1" height="1" fill="hsl(20, 90%, 50%)" />
<rect x="41" y="19" width="1" height="1" fill="hsl(20, 90%, 50%)" />
<rect x="53" y="19" width="1" height="1" fill="hsl(20, 90%, 50%)" />
<rect x="57" y="19" width="1" height="1" fill="hsl(20, 90%, 50%)" />
<rect x="58" y="19" width="1" height="1" fill="hsl(20, 90%, 50%)" />
<rect x="32" y="20" width="1" height="1" fill="hsl(20, 90%, 50%)" />
<rect x="34" y="20" width="1" height="1" fill="hsl(20, 90%, 50%)" />
<rect x="35" y="20" width="1" height="1" fill="hsl(20, 90%, 50%)" />
<rect x="36" y="20" width="1" height="1" fill="hsl(20, 90%, 50%)" />
<rect x="37" y="20" width="1" height="1" fill="hsl(20, 90%, 50%)" />
<rect x="38" y="20" width="1" height="1" fill="hsl(20, 90%, 50%)" />
<rect x="39" y="20" width="1" height="1" fill="hsl(20, 90%, 50%)" />
<rect x="40" y="20" width="1" height="1" fill="hsl(20, 90%, 50%)" />
<rect x="49" y="20" width="1" height="1" fill="hsl(20, 90%, 50%)" />
<rect x="50" y="20" width="1" height="1" fill="hsl(20, 90%, 50%)" />
<rect x="52" y="20" width="1" height="1" fill="hsl(20, 90%, 50%)" />
<rect x="54" y="20" width="1" height="1" fill="hsl(20, 90%, 50%)" />
<rect x="55" y="20" width="1" height="1" fill="hsl(20, 90%, 50%)" />
<rect x="56" y="20" width="1" height="1" fill="hsl(20, 90%, 50%)" />
<rect x="58" y="20" width="1" height="1" fill="hsl(20, 90%, 50%)" />
<rect x="33" y="21" width="1" height="1" fill="hsl(20, 90%, 50%)" />
<rect x="43" y="21" width="1" height="1" fill="hsl(20, 90%, 50%)" />
<rect x="45" y="21" width="1" height="1" fill="hsl(20, 90%, 50%)" />
<rect x="50" y="21" width="1" height="1" fill="hsl(20, 90%, 50%)" />
<rect x="52" y="21" width="1" height="1" fill="hsl(20, 90%, 50%)" />
<rect x="54" y="21" width="1" height="1" fill="hsl(20, 90%, 50%)" />
<rect x="23" y="22" width="1" height="1" fill="hsl(20, 90%, 50%)" />
<rect x="24" y="22" width="1" height="1" fill="hsl(20, 90%, 50%)" />
<rect x="35" y="22" width="1" height="1" fill="hsl(20, 90%, 50%)" />
<rect x="36" y="22" width="1" height="1" fill="hsl(20, 90%, 50%)" />
<rect x="37" y="22" width="1" height="1" fill="hsl(20, 90%, 50%)" />
<rect x="38" y="22" width="1" height="1" fill="hsl(20, 90%, 50%)" />
<rect x="39" y="22" width="1" height="1" fill="hsl(20, 90%, 50%)" />
<rect x="40" y="22" width="1" height="1" fill="hsl(20, 90%, 50%)" />
<rect x="41" y="22" width="1" height="1" fill="hsl(20, 90%, 50%)" />
<rect x="42" y="22" width="1" height="1" fill="hsl(20, 90%, 50%)" />
<rect x="43" y="22" width="1" height="1" fill="hsl(20, 90%, 50%)" />
<rect x="45" y="22" width="1" height="1" fill="hsl(20, 90%, 50%)" />
<rect x="46" y="22" width="1" height="1" fill="hsl(20, 90%, 50%)" />
<rect x="47" y="22" width="1" height="1" fill="hsl(20, 90%, 50%)" />
<rect x="50" y="22" width="1" height="1" fill="hsl(20, 90%, 50%)" />
<rect x="52" y="22" width="1" height="1" fill="hsl(20, 90%, 50%)" />
<rect x="23" y="23" width="1" height="1" fill="hsl(20, 90%, 50%)" />
<rect x="24" y="23" width="1" height="1" fill="hsl(20, 90%, 50%)" />
<rect x="32" y="23" width="1" height="1" fill="hsl(20, 90%, 50%)" />
<rect x="36" y="23" width="1" height="1" fill="hsl(20, 90%, 50%)" />
<rect x="44" y="23" width="1" height="1" fill="hsl(20, 90%, 50%)" />
<rect x="48" y="23" width="1" height="1" fill="hsl(20, 90%, 50%)" />
<rect x="50" y="23" width="1" height="1" fill="hsl(20, 90%, 50%)" />
<rect x="52" y="23" width="1" height="1" fill="hsl(20, 90%, 50%)" />
<rect x="31" y="24" width="1" height="1" fill="hsl(20, 90%, 50%)" />
<rect x="34" y="24" width="1" height="1" fill="hsl(20, 90%, 50%)" />
<rect x="38" y="24" width="1" height="1" fill="hsl(20, 90%, 50%)" />
<rect x="39" y="24" width="1" height="1" fill="hsl(20, 90%, 50%)" />
<rect x="40" y="24" width="1" height="1" fill="hsl(20, 90%, 50%)" />
<rect x="41" y="24" width="1" height="1" fill="hsl(20, 90%, 50%)" />
<rect x="44" y="24" width="1" height="1" fill="hsl(20, 90%, 50%)" />
<rect x="47" y="24" width="1" height="1" fill="hsl(20, 90%, 50%)" />
<rect x="49" y="24" width="1" height="1" fill="hsl(20, 90%, 50%)" />
<rect x="51" y="24" width="1" height="1" fill="hsl(20, 90%, 50%)" />
<rect x="33" y="25" width="1" height="1" fill="hsl(20, 90%, 50%)" />
<rect x="34" y="25" width="1" height="1" fill="hsl(20, 90%, 50%)" />
<rect x="38" y="25" width="1" height="1" fill="hsl(20, 90%, 50%)" />
<rect x="42" y="25" width="1" height="1" fill="hsl(20, 90%, 50%)" />
<rect x="44" y="25" width="1" height="1" fill="hsl(20, 90%, 50%)" />
<rect x="46" y="25" width="1" height="1" fill="hsl(20, 90%, 50%)" />
<rect x="49" y="25" width="1" height="1" fill="hsl(20, 90%, 50%)" />
<rect x="33" y="26" width="1" height="1" fill="hsl(20, 90%, 50%)" />
<rect x="39" y="26" width="1" height="1" fill="hsl(20, 90%, 50%)" />
<rect x="40" y="26" width="1" height="1" fill="hsl(20, 90%, 50%)" />
<rect x="41" y="26" width="1" height="1" fill="hsl(20, 90%, 50%)" />
<rect x="43" y="26" width="1" height="1" fill="hsl(20, 90%, 50%)" />
<rect x="45" y="26" width="1" height="1" fill="hsl(20, 90%, 50%)" />
<rect x="47" y="26" width="1" height="1" fill="hsl(20, 90%, 50%)" />
<rect x="48" y="26" width="1" height="1" fill="hsl(20, 90%, 50%)" />
<rect x="51" y="26" width="1" height="1" fill="hsl(20, 90%, 50%)" />
<rect x="12" y="27" width="1" height="1" fill="hsl(20, 90%, 50%)" />
<rect x="13" y="27" width="1" height="1" fill="hsl(20, 90%, 50%)" />
<rect x="29" y="27" width="1" height="1" fill="hsl(20, 90%, 50%)" />
<rect x="33" y="27" width="1" height="1" fill="hsl(20, 90%, 50%)" />
<rect x="34" y="27" width="1" height="1" fill="hsl(20, 90%, 50%)" />
<rect x="35" y="27" width="1" height="1" fill="hsl(20, 90%, 50%)" />
<rect x="41" y="27" width="1" height="1" fill="hsl(20, 90%, 50%)" />
<rect x="45" y="27" width="1" height="1" fill="hsl(20, 90%, 50%)" />
<rect x="49" y="27" width="1" height="1" fill="hsl(20, 90%, 50%)" />
<rect x="50" y="27" width="1" height="1" fill="hsl(20, 90%, 50%)" />
<rect x="51" y="27" width="1" height="1" fill="hsl(20, 90%, 50%)" />
<rect x="7" y="28" width="1" height="1" fill="hsl(20, 90%, 50%)" />
<rect x="8" y="28" width="1" height="1" fill="hsl(20, 90%, 50%)" />
<rect x="11" y="28" width="1" height="1" fill="hsl(20, 90%, 50%)" />
<rect x="14" y="28" width="1" height="1" fill="hsl(20, 90%, 50%)" />
<rect x="33" y="28" width="1" height="1" fill="hsl(20, 90%, 50%)" />
<rect x="37" y="28" width="1" height="1" fill="hsl(20, 90%, 50%)" />
<rect x="38" y="28" width="1" height="1" fill="hsl(20, 90%, 50%)" />
<rect x="41" y="28" width="1" height="1" fill="hsl(20, 90%, 50%)" />
<rect x="44" y="28" width="1" height="1" fill="hsl(20, 90%, 50%)" />
<rect x="46" y="28" width="1" height="1" fill="hsl(20, 90%, 50%)" />
<rect x="47" y="28" width="1" height="1" fill="hsl(20, 90%, 50%)" />
<rect x="7" y="29" width="1" height="1" fill="hsl(20, 90%, 50%)" />
<rect x="12" y="29" width="1" height="1" fill="hsl(20, 90%, 50%)" />
<rect x="14" y="29" width="1" height="1" fill="hsl(20, 90%, 50%)" />
<rect x="33" y="29" width="1" height="1" fill="hsl(20, 90%, 50%)" />
<rect x="37" y="29" width="1" height="1" fill="hsl(20, 90%, 50%)" />
<rect x="38" y="29" width="1" height="1" fill="hsl(20, 90%, 50%)" />
<rect x="39" y="29" width="1" height="1" fill="hsl(20, 90%, 50%)" />
<rect x="40" y="29" width="1" height="1" fill="hsl(20, 90%, 50%)" />
<rect x="44" y="29" width="1" height="1" fill="hsl(20, 90%, 50%)" />
<rect x="46" y="29" width="1" height="1" fill="hsl(20, 90%, 50%)" />
<rect x="48" y="29" width="1" height="1" fill="hsl(20, 90%, 50%)" />
<rect x="49" y="29" width="1" height="1" fill="hsl(20, 90%, 50%)" />
<rect x="4" y="30" width="1" height="1" fill="hsl(20, 90%, 50%)" />
<rect x="5" y="30" width="1" height="1" fill="hsl(20, 90%, 50%)" />
<rect x="7" y="30" width="1" height="1" fill="hsl(20, 90%, 50%)" />
<rect x="13" y="30" width="1" height="1" fill="hsl(20, 90%, 50%)" />
<rect x="30" y="30" width="1" height="1" fill="hsl(20, 90%, 50%)" />
<rect x="31" y="30" width="1" height="1" fill="hsl(20, 90%, 50%)" />
<rect x="32" y="30" width="1" height="1" fill="hsl(20, 90%, 50%)" />
<rect x="36" y="30" width="1" height="1" fill="hsl(20, 90%, 50%)" />
<rect x="43" y="30" width="1" height="1" fill="hsl(20, 90%, 50%)" />
<rect x="44" y="30" width="1" height="1" fill="hsl(20, 90%, 50%)" />
<rect x="48" y="30" width="1" height="1" fill="hsl(20, 90%, 50%)" />
<rect x="50" y="30" width="1" height="1" fill="hsl(20, 90%, 50%)" />
<rect x="5" y="31" width="1" height="1" fill="hsl(20, 90%, 50%)" />
<rect x="7" y="31" width="1" height="1" fill="hsl(20, 90%, 50%)" />
<rect x="9" y="31" width="1" height="1" fill="hsl(20, 90%, 50%)" />
<rect x="10" y="31" width="1" height="1" fill="hsl(20, 90%, 50%)" />
<rect x="31" y="31" width="1" height="1" fill="hsl(20, 90%, 50%)" />
<rect x="32" y="31" width="1" height="1" fill="hsl(20, 90%, 50%)" />
<rect x="33" y="31" width="1" height="1" fill="hsl(20, 90%, 50%)" />
<rect x="39" y="31" width="1" height="1" fill="hsl(20, 90%, 50%)" />
<rect x="42" y="31" width="1" height="1" fill="hsl(20, 90%, 50%)" />
<rect x="43" y="31" width="1" height="1" fill="hsl(20, 90%, 50%)" />
<rect x="46" y="31" width="1" height="1" fill="hsl(20, 90%, 50%)" />
<rect x="48" y="31" width="1" height="1" fill="hsl(20, 90%, 50%)" />
<rect x="50" y="31" width="1" height="1" fill="hsl(20, 90%, 50%)" />
<rect x="4" y="32" width="1" height="1" fill="hsl(20, 90%, 50%)" />
<rect x="7" y="32" width="1" height="1" fill="hsl(20, 90%, 50%)" />
<rect x="10" y="32" width="1" height="1" fill="hsl(20, 90%, 50%)" />
<rect x="19" y="32" width="1" height="1" fill="hsl(20, 90%, 50%)" />
<rect x="20" y="32" width="1" height="1" fill="hsl(20, 90%, 50%)" />
<rect x="32" y="32" width="1" height="1" fill="hsl(20, 90%, 50%)" />
<rect x="33" y="32" width="1" height="1" fill="hsl(20, 90%, 50%)" />
<rect x="34" y="32" width="1" height="1" fill="hsl(20, 90%, 50%)" />
<rect x="37" y="32" width="1" height="1" fill="hsl(20, 90%, 50%)" />
<rect x="38" y="32" width="1" height="1" fill="hsl(20, 90%, 50%)" />
<rect x="39" y="32" width="1" height="1" fill="hsl(20, 90%, 50%)" />
<rect x="41" y="32" width="1" height="1" fill="hsl(20, 90%, 50%)" />
<rect x="42" y="32" width="1" height="1" fill="hsl(20, 90%, 50%)" />
<rect x="43" y="32" width="1" height="1" fill="hsl(20, 90%, 50%)" />
<rect x="46" y="32" width="1" height="1" fill="hsl(20, 90%, 50%)" />
<rect x="48" y="32" width="1" height="1" fill="hsl(20, 90%, 50%)" />
<rect x="50" y="32" width="1" height="1" fill="hsl(20, 90%, 50%)" />
<rect x="51" y="32" width="1" height="1" fill="hsl(20, 90%, 50%)" />
<rect x="4" y="33" width="1" height="1" fill="hsl(20, 90%, 50%)" />
<rect x="5" y="33" width="1" height="1" fill="hsl(20, 90%, 50%)" />
<rect x="8" y="33" width="1" height="1" fill="hsl(20, 90%, 50%)" />
<rect x="13" y="33" width="1" height="1" fill="hsl(20, 90%, 50%)" />
<rect x="19" y="33" width="1" height="1" fill="hsl(20, 90%, 50%)" />
<rect x="21" y="33" width="1" height="1" fill="hsl(20, 90%, 50%)" />
<rect x="32" y="33" width="1" height="1" fill="hsl(20, 90%, 50%)" />
<rect x="35" y="33" width="1" height="1" fill="hsl(20, 90%, 50%)" />
<rect x="39" y="33" width="1" height="1" fill="hsl(20, 90%, 50%)" />
<rect x="43" y="33" width="1" height="1" fill="hsl(20, 90%, 50%)" />
<rect x="46" y="33" width="1" height="1" fill="hsl(20, 90%, 50%)" />
<rect x="48" y="33" width="1" height="1" fill="hsl(20, 90%, 50%)" />
<rect x="9" y="34" width="1" height="1" fill="hsl(20, 90%, 50%)" />
<rect x="10" y="34" width="1" height="1" fill="hsl(20, 90%, 50%)" />
<rect x="11" y="34" width="1" height="1" fill="hsl(20, 90%, 50%)" />
<rect x="12" y="34" width="1" height="1" fill="hsl(20, 90%, 50%)" />
<rect x="13" y="34" width="1" height="1" fill="hsl(20, 90%, 50%)" />
<rect x="21" y="34" width="1" height="1" fill="hsl(20, 90%, 50%)" />
<rect x="33" y="34" width="1" height="1" fill="hsl(20, 90%, 50%)" />
<rect x="35" y="34" width="1" height="1" fill="hsl(20, 90%, 50%)" />
<rect x="38" y="34" width="1" height="1" fill="hsl(20, 90%, 50%)" />
<rect x="40" y="34" width="1" height="1" fill="hsl(20, 90%, 50%)" />
<rect x="41" y="34" width="1" height="1" fill="hsl(20, 90%, 50%)" />
<rect x="45" y="34" width="1" height="1" fill="hsl(20, 90%, 50%)" />
<rect x="46" y="34" width="1" height="1" fill="hsl(20, 90%, 50%)" />
<rect x="47" y="34" width="1" height="1" fill="hsl(20, 90%, 50%)" />
<rect x="48" y="34" width="1" height="1" fill="hsl(20, 90%, 50%)" />
<rect x="20" y="35" width="1" height="1" fill="hsl(20, 90%, 50%)" />
<rect x="31" y="35" width="1" height="1" fill="hsl(20, 90%, 50%)" />
<rect x="33" y="35" width="1" height="1" fill="hsl(20, 90%, 50%)" />
<rect x="35" y="35" width="1" height="1" fill="hsl(20, 90%, 50%)" />
<rect x="37" y="35" width="1" height="1" fill="hsl(20, 90%, 50%)" />
<rect x="38" y="35" width="1" height="1" fill="hsl(20, 90%, 50%)" />
<rect x="39" y="35" width="1" height="1" fill="hsl(20, 90%, 50%)" />
<rect x="41" y="35" width="1" height="1" fill="hsl(20, 90%, 50%)" />
<rect x="42" y="35" width="1" height="1" fill="hsl(20, 90%, 50%)" />
<rect x="43" y="35" width="1" height="1" fill="hsl(20, 90%, 50%)" />
<rect x="45" y="35" width="1" height="1" fill="hsl(20, 90%, 50%)" />
<rect x="11" y="36" width="1" height="1" fill="hsl(20, 90%, 50%)" />
<rect x="21" y="36" width="1" height="1" fill="hsl(20, 90%, 50%)" />
<rect x="22" y="36" width="1" height="1" fill="hsl(20, 90%, 50%)" />
<rect x="23" y="36" width="1" height="1" fill="hsl(20, 90%, 50%)" />
<rect x="30" y="36" width="1" height="1" fill="hsl(20, 90%, 50%)" />
<rect x="32" y="36" width="1" height="1" fill="hsl(20, 90%, 50%)" />
<rect x="33" y="36" width="1" height="1" fill="hsl(20, 90%, 50%)" />
<rect x="35" y="36" width="1" height="1" fill="hsl(20, 90%, 50%)" />
<rect x="38" y="36" width="1" height="1" fill="hsl(20, 90%, 50%)" />
<rect x="39" y="36" width="1" height="1" fill="hsl(20, 90%, 50%)" />
<rect x="10" y="37" width="1" height="1" fill="hsl(20, 90%, 50%)" />
<rect x="12" y="37" width="1" height="1" fill="hsl(20, 90%, 50%)" />
<rect x="23" y="37" width="1" height="1" fill="hsl(20, 90%, 50%)" />
<rect x="30" y="37" width="1" height="1" fill="hsl(20, 90%, 50%)" />
<rect x="36" y="37" width="1" height="1" fill="hsl(20, 90%, 50%)" />
<rect x="43" y="37" width="1" height="1" fill="hsl(20, 90%, 50%)" />
<rect x="44" y="37" width="1" height="1" fill="hsl(20, 90%, 50%)" />
<rect x="46" y="37" width="1" height="1" fill="hsl(20, 90%, 50%)" />
<rect x="11" y="38" width="1" height="1" fill="hsl(20, 90%, 50%)" />
<rect x="31" y="38" width="1" height="1" fill="hsl(20, 90%, 50%)" />
<rect x="32" y="38" width="1" height="1" fill="hsl(20, 90%, 50%)" />
<rect x="33" y="38" width="1" height="1" fill="hsl(20, 90%, 50%)" />
<rect x="34" y="38" width="1" height="1" fill="hsl(20, 90%, 50%)" />
<rect x="35" y="38" width="1" height="1" fill="hsl(20, 90%, 50%)" />
<rect x="42" y="38" width="1" height="1" fill="hsl(20, 90%, 50%)" />
<rect x="45" y="38" width="1" height="1" fill="hsl(20, 90%, 50%)" />
<rect x="46" y="38" width="1" height="1" fill="hsl(20, 90%, 50%)" />
<rect x="33" y="39" width="1" height="1" fill="hsl(20, 90%, 50%)" />
<rect x="42" y="39" width="1" height="1" fill="hsl(20, 90%, 50%)" />
<rect x="43" y="39" width="1" height="1" fill="hsl(20, 90%, 50%)" />
</svg>