<?xml version="1.0" encoding="utf-8"?>
<svg xmlns="http://www.w3.org/2000/svg" width="96" height="90" viewBox="0 0 96 90">
<rect width="100%" height="100%" fill="transparent" />
<rect x="38" y="4" width="2" height="2" fill="hsl(20, 90%, 50%)" />
<rect x="40" y="4" width="2" height="2" fill="hsl(20, 90%, 50%)" />
<rect x="54" y="4" width="2" height="2" fill="hsl(20, 90%, 50%)" />
<rect x="56" y="4" width="2" height="2" fill="hsl(20, 90%, 50%)" />
<rect x="38" y="6" width="2" height="2" fill="hsl(20, 90%, 50%)" />
<rect x="40" y="6" width="2" height="2" fill="hsl(20, 90%, 50%)" />
<rect x="54" y="6" width="2" height="2" fill="hsl(20, 90%, 50%)" />
<rect x="56" y="6" width="2" height="2" fill="hsl(20, 90%, 50%)" />
<rect x="6" y="20" width="2" height="2" fill="hsl(20, 90%, 50%)" />
<rect x="8" y="20" width="2" height="2" fill="hsl(20, 90%, 50%)" />
<rect x="86" y="20" width="2" height="2" fill="hsl(20, 90%, 50%)" />
<rect x="88" y="20" width="2" height="2" fill="hsl(20, 90%, 50%)" />
<rect x="4" y="22" width="2" height="2" fill="hsl(20, 90%, 50%)" />
<rect x="8" y="22" width="2" height="2" fill="hsl(20, 90%, 50%)" />
<rect x="86" y="22" width="2" height="2" fill="hsl(20, 90%, 50%)" />
<rect x="90" y="22" width="2" height="2" fill="hsl(20, 90%, 50%)" />
<rect x="4" y="24" width="2" height="2" fill="hsl(20, 90%, 50%)" />
<rect x="8" y="24" width="2" height="2" fill="hsl(20, 90%, 50%)" />
<rect x="12" y="24" width="2" height="2" fill="hsl(20, 90%, 50%)" />
<rect x="14" y="24" width="2" height="2" fill="hsl(20, 90%, 50%)" />
<rect x="80" y="24" width="2" height="2" fill="hsl(20, 90%, 50%)" />
<rect x="82" y="24" width="2" height="2" fill="hsl(20, 90%, 50%)" />
<rect x="86" y="24" width="2" height="2" fill="hsl(20, 90%, 50%)" />
<rect x="90" y="24" width="2" height="2" fill="hsl(20, 90%, 50%)" />
<rect x="6" y="26" width="2" height="2" fill="hsl(20, 90%, 50%)" />
<rect x="10" y="26" width="2" height="2" fill="hsl(20, 90%, 50%)" />
<rect x="14" y="26" width="2" height="2" fill="hsl(20, 90%, 50%)" />
<rect x="80" y="26" width="2" height="2" fill="hsl(20, 90%, 50%)" />
<rect x="84" y="26" width="2" height="2" fill="hsl(20, 90%, 50%)" />
<rect x="88" y="26" width="2" height="2" fill="hsl(20, 90%, 50%)" />
<rect x="10" y="28" width="2" height="2" fill="hsl(20, 90%, 50%)" />
<rect x="84" y="28" width="2" height="2" fill="hsl(20, 90%, 50%)" />
<rect x="8" y="30" width="2" height="2" fill="hsl(20, 90%, 50%)" />
<rect x="14" y="30" width="2" height="2" fill="hsl(20, 90%, 50%)" />
<rect x="42" y="30" width="2" height="2" fill="hsl(20, 90%, 50%)" />
<rect x="52" y="30" width="2" height="2" fill="hsl(20, 90%, 50%)" />
<rect x="80" y="30" width="2" height="2" fill="hsl(20, 90%, 50%)" />
<rect x="86" y="30" width="2" height="2" fill="hsl(20, 90%, 50%)" />
<rect x="8" y="32" width="2" height="2" fill="hsl(20, 90%, 50%)" />
<rect x="40" y="32" width="2" height="2" fill="hsl(20, 90%, 50%)" />
<rect x="42" y="32" width="2" height="2" fill="hsl(20, 90%, 50%)" />
<rect x="52" y="32" width="2" height="2" fill="hsl(20, 90%, 50%)" />
<rect x="54" y="32" width="2" height="2" fill="hsl(20, 90%, 50%)" />
<rect x="86" y="32" width="2" height="2" fill="hsl(20, 90%, 50%)" />
<rect x="8" y="34" width="2" height="2" fill="hsl(20, 90%, 50%)" />
<rect x="16" y="34" width="2" height="2" fill="hsl(20, 90%, 50%)" />
<rect x="38" y="34" width="2" height="2" fill="hsl(20, 90%, 50%)" />
<rect x="56" y="34" width="2" height="2" fill="hsl(20, 90%, 50%)" />
<rect x="78" y="34" width="2" height="2" fill="hsl(20, 90%, 50%)" />
<rect x="86" y="34" width="2" height="2" fill="hsl(20, 90%, 50%)" />
<rect x="8" y="36" width="2" height="2" fill="hsl(20, 90%, 50%)" />
<rect x="16" y="36" width="2" height="2" fill="hsl(20, 90%, 50%)" />
<rect x="40" y="36" width="2" height="2" fill="hsl(20, 90%, 50%)" />
<rect x="42" y="36" width="2" height="2" fill="hsl(20, 90%, 50%)" />
<rect x="52" y="36" width="2" height="2" fill="hsl(20, 90%, 50%)" />
<rect x="54" y="36" width="2" height="2" fill="hsl(20, 90%, 50%)" />
<rect x="78" y="36" width="2" height="2" fill="hsl(20, 90%, 50%)" />
<rect x="86" y="36" width="2" height="2" fill="hsl(20, 90%, 50%)" />
<rect x="8" y="38" width="2" height="2" fill="hsl(20, 90%, 50%)" />
<rect x="42" y="38" width="2" height="2" fill="hsl(20, 90%, 50%)" />
<rect x="52" y="38" width="2" height="2" fill="hsl(20, 90%, 50%)" />
<rect x="86" y="38" width="2" height="2" fill="hsl(20, 90%, 50%)" />
<rect x="8" y="40" width="2" height="2" fill="hsl(20, 90%, 50%)" />
<rect x="14" y="40" width="2" height="2" fill="hsl(20, 90%, 50%)" />
<rect x="80" y="40" width="2" height="2" fill="hsl(20, 90%, 50%)" />
<rect x="86" y="40" width="2" height="2" fill="hsl(20, 90%, 50%)" />
<rect x="10" y="42" width="2" height="2" fill="hsl(20, 90%, 50%)" />
<rect x="84" y="42" width="2" height="2" fill="hsl(20, 90%, 50%)" />
<rect x="6" y="44" width="2" height="2" fill="hsl(20, 90%, 50%)" />
<rect x="10" y="44" width="2" height="2" fill="hsl(20, 90%, 50%)" />
<rect x="14" y="44" width="2" height="2" fill="hsl(20, 90%, 50%)" />
<rect x="80" y="44" width="2" height="2" fill="hsl(20, 90%, 50%)" />
<rect x="84" y="44" width="2" height="2" fill="hsl(20, 90%, 50%)" />
<rect x="88" y="44" width="2" height="2" fill="hsl(20, 90%, 50%)" />
<rect x="4" y="46" width="2" height="2" fill="hsl(20, 90%, 50%)" />
<rect x="8" y="46" width="2" height="2" fill="hsl(20, 90%, 50%)" />
<rect x="12" y="46" width="2" height="2" fill="hsl(20, 90%, 50%)" />
<rect x="14" y="46" width="2" height="2" fill="hsl(20, 90%, 50%)" />
<rect x="80" y="46" width="2" height="2" fill="hsl(20, 90%, 50%)" />
<rect x="82" y="46" width="2" height="2" fill="hsl(20, 90%, 50%)" />
<rect x="86" y="46" width="2" height="2" fill="hsl(20, 90%, 50%)" />
<rect x="90" y="46" width="2" height="2" fill="hsl(20, 90%, 50%)" />
<rect x="4" y="48" width="2" height="2" fill="hsl(20, 90%, 50%)" />
<rect x="8" y="48" width="2" height="2" fill="hsl(20, 90%, 50%)" />
<rect x="86" y="48" width="2" height="2" fill="hsl(20, 90%, 50%)" />
<rect x="90" y="48" width="2" height="2" fill="hsl(20, 90%, 50%)" />
<rect x="6" y="50" width="2" height="2" fill="hsl(20, 90%, 50%)" />
<rect x="8" y="50" width="2" height="2" fill="hsl(20, 90%, 50%)" />
<rect x="86" y="50" width="2" height="2" fill="hsl(20, 90%, 50%)" />
<rect x="88" y="50" width="2" height="2" fill="hsl(20, 90%, 50%)" />
<rect x="34" y="58" width="2" height="2" fill="hsl(20, 90%, 50%)" />
<rect x="36" y="58" width="2" height="2" fill="hsl(20, 90%, 50%)" />
<rect x="36" y="60" width="2" height="2" fill="hsl(20, 90%, 50%)" />
<rect x="30" y="62" width="2" height="2" fill="hsl(20, 90%, 50%)" />
<rect x="32" y="62" width="2" height="2" fill="hsl(20, 90%, 50%)" />
<rect x="34" y="62" width="2" height="2" fill="hsl(20, 90%, 50%)" />
<rect x="30" y="64" width="2" height="2" fill="hsl(20, 90%, 50%)" />
<rect x="72" y="64" width="2" height="2" fill="hsl(20, 90%, 50%)" />
<rect x="74" y="64" width="2" height="2" fill="hsl(20, 90%, 50%)" />
<rect x="40" y="66" width="2" height="2" fill="hsl(20, 90%, 50%)" />
<rect x="42" y="66" width="2" height="2" fill="hsl(20, 90%, 50%)" />
<rect x="72" y="66" width="2" height="2" fill="hsl(20, 90%, 50%)" />
<rect x="76" y="66" width="2" height="2" fill="hsl(20, 90%, 50%)" />
<rect x="40" y="68" width="2" height="2" fill="hsl(20, 90%, 50%)" />
<rect x="42" y="68" width="2" height="2" fill="hsl(20, 90%, 50%)" />
<rect x="76" y="68" width="2" height="2" fill="hsl(20, 90%, 50%)" />
<rect x="76" y="70" width="2" height="2" fill="hsl(20, 90%, 50%)" />
<rect x="78" y="70" width="2" height="2" fill="hsl(20, 90%, 50%)" />
<rect x="44" y="78" width="2" height="2" fill="hsl(20, 90%, 50%)" />
<rect x="46" y="78" width="2" height="2" fill="hsl(20, 90%, 50%)" />
<rect x="42" y="80" width="2" height="2" fill="hsl(20, 90%, 50%)" />
<rect x="46" y="80" width="2" height="2" fill="hsl(20, 90%, 50%)" />
<rect x="42" y="82" width="2" height="2" fill="hsl(20, 90%, 50%)" />
<rect x="40" y="84" width="2" height="2" fill="hsl(20, 90%, 50%)" />
<rect x="42" y="84" width="2" height="2" fill="hsl(20, 90%, 50%)" />
</svg>