<?xml version="1.0" encoding="utf-8"?>
<svg xmlns="http://www.w3.org/2000/svg" width="78" height="84" viewBox="0 0 78 84">
<rect width="100%" height="100%" fill="transparent" />
<rect x="12" y="4" width="2" height="2" fill="hsl(20, 90%, 50%)" />
<rect x="14" y="4" width="2" height="2" fill="hsl(20, 90%, 50%)" />
<rect x="14" y="6" width="2" height="2" fill="hsl(20, 90%, 50%)" />
<rect x="14" y="8" width="2" height="2" fill="hsl(20, 90%, 50%)" />
<rect x="18" y="8" width="2" height="2" fill="hsl(20, 90%, 50%)" />
<rect x="16" y="10" width="2" height="2" fill="hsl(20, 90%, 50%)" />
<rect x="18" y="10" width="2" height="2" fill="hsl(20, 90%, 50%)" />
<rect x="24" y="10" width="2" height="2" fill="hsl(20, 90%, 50%)" />
<rect x="26" y="10" width="2" height="2" fill="hsl(20, 90%, 50%)" />
<rect x="24" y="12" width="2" height="2" fill="hsl(20, 90%, 50%)" />
<rect x="26" y="12" width="2" height="2" fill="hsl(20, 90%, 50%)" />
<rect x="4" y="26" width="2" height="2" fill="hsl(20, 90%, 50%)" />
<rect x="4" y="28" width="2" height="2" fill="hsl(20, 90%, 50%)" />
<rect x="6" y="28" width="2" height="2" fill="hsl(20, 90%, 50%)" />
<rect x="8" y="28" width="2" height="2" fill="hsl(20, 90%, 50%)" />
<rect x="24" y="28" width="2" height="2" fill="hsl(20, 90%, 50%)" />
<rect x="26" y="28" width="2" height="2" fill="hsl(20, 90%, 50%)" />
<rect x="10" y="30" width="2" height="2" fill="hsl(20, 90%, 50%)" />
<rect x="24" y="30" width="2" height="2" fill="hsl(20, 90%, 50%)" />
<rect x="28" y="30" width="2" height="2" fill="hsl(20, 90%, 50%)" />
<rect x="8" y="32" width="2" height="2" fill="hsl(20, 90%, 50%)" />
<rect x="12" y="32" width="2" height="2" fill="hsl(20, 90%, 50%)" />
<rect x="28" y="32" width="2" height="2" fill="hsl(20, 90%, 50%)" />
<rect x="8" y="34" width="2" height="2" fill="hsl(20, 90%, 50%)" />
<rect x="10" y="34" width="2" height="2" fill="hsl(20, 90%, 50%)" />
<rect x="24" y="34" width="2" height="2" fill="hsl(20, 90%, 50%)" />
<rect x="28" y="34" width="2" height="2" fill="hsl(20, 90%, 50%)" />
<rect x="24" y="36" width="2" height="2" fill="hsl(20, 90%, 50%)" />
<rect x="26" y="36" width="2" height="2" fill="hsl(20, 90%, 50%)" />
<rect x="8" y="38" width="2" height="2" fill="hsl(20, 90%, 50%)" />
<rect x="10" y="38" width="2" height="2" fill="hsl(20, 90%, 50%)" />
<rect x="8" y="40" width="2" height="2" fill="hsl(20, 90%, 50%)" />
<rect x="10" y="42" width="2" height="2" fill="hsl(20, 90%, 50%)" />
<rect x="12" y="42" width="2" height="2" fill="hsl(20, 90%, 50%)" />
<rect x="14" y="42" width="2" height="2" fill="hsl(20, 90%, 50%)" />
<rect x="14" y="44" width="2" height="2" fill="hsl(20, 90%, 50%)" />
<rect x="20" y="46" width="2" height="2" fill="hsl(20, 90%, 50%)" />
<rect x="22" y="46" width="2" height="2" fill="hsl(20, 90%, 50%)" />
<rect x="22" y="48" width="2" height="2" fill="hsl(20, 90%, 50%)" />
<rect x="16" y="50" width="2" height="2" fill="hsl(20, 90%, 50%)" />
<rect x="18" y="50" width="2" height="2" fill="hsl(20, 90%, 50%)" />
<rect x="20" y="50" width="2" height="2" fill="hsl(20, 90%, 50%)" />
<rect x="50" y="50" width="2" height="2" fill="hsl(20, 90%, 50%)" />
<rect x="52" y="50" width="2" height="2" fill="hsl(20, 90%, 50%)" />
<rect x="54" y="50" width="2" height="2" fill="hsl(20, 90%, 50%)" />
<rect x="16" y="52" width="2" height="2" fill="hsl(20, 90%, 50%)" />
<rect x="48" y="52" width="2" height="2" fill="hsl(20, 90%, 50%)" />
<rect x="56" y="52" width="2" height="2" fill="hsl(20, 90%, 50%)" />
<rect x="46" y="54" width="2" height="2" fill="hsl(20, 90%, 50%)" />
<rect x="58" y="54" width="2" height="2" fill="hsl(20, 90%, 50%)" />
<rect x="30" y="56" width="2" height="2" fill="hsl(20, 90%, 50%)" />
<rect x="32" y="56" width="2" height="2" fill="hsl(20, 90%, 50%)" />
<rect x="46" y="56" width="2" height="2" fill="hsl(20, 90%, 50%)" />
<rect x="58" y="56" width="2" height="2" fill="hsl(20, 90%, 50%)" />
<rect x="30" y="58" width="2" height="2" fill="hsl(20, 90%, 50%)" />
<rect x="32" y="58" width="2" height="2" fill="hsl(20, 90%, 50%)" />
<rect x="46" y="58" width="2" height="2" fill="hsl(20, 90%, 50%)" />
<rect x="48" y="58" width="2" height="2" fill="hsl(20, 90%, 50%)" />
<rect x="50" y="58" width="2" height="2" fill="hsl(20, 90%, 50%)" />
<rect x="54" y="58" width="2" height="2" fill="hsl(20, 90%, 50%)" />
<rect x="56" y="58" width="2" height="2" fill="hsl(20, 90%, 50%)" />
<rect x="58" y="58" width="2" height="2" fill="hsl(20, 90%, 50%)" />
<rect x="66" y="60" width="2" height="2" fill="hsl(20, 90%, 50%)" />
<rect x="68" y="60" width="2" height="2" fill="hsl(20, 90%, 50%)" />
<rect x="66" y="62" width="2" height="2" fill="hsl(20, 90%, 50%)" />
<rect x="70" y="62" width="2" height="2" fill="hsl(20, 90%, 50%)" />
<rect x="28" y="64" width="2" height="2" fill="hsl(20, 90%, 50%)" />
<rect x="30" y="64" width="2" height="2" fill="hsl(20, 90%, 50%)" />
<rect x="70" y="64" width="2" height="2" fill="hsl(20, 90%, 50%)" />
<rect x="30" y="66" width="2" height="2" fill="hsl(20, 90%, 50%)" />
<rect x="70" y="66" width="2" height="2" fill="hsl(20, 90%, 50%)" />
<rect x="72" y="66" width="2" height="2" fill="hsl(20, 90%, 50%)" />
<rect x="24" y="68" width="2" height="2" fill="hsl(20, 90%, 50%)" />
<rect x="26" y="68" width="2" height="2" fill="hsl(20, 90%, 50%)" />
<rect x="28" y="68" width="2" height="2" fill="hsl(20, 90%, 50%)" />
<rect x="62" y="68" width="2" height="2" fill="hsl(20, 90%, 50%)" />
<rect x="64" y="68" width="2" height="2" fill="hsl(20, 90%, 50%)" />
<rect x="24" y="70" width="2" height="2" fill="hsl(20, 90%, 50%)" />
<rect x="52" y="70" width="2" height="2" fill="hsl(20, 90%, 50%)" />
<rect x="62" y="70" width="2" height="2" fill="hsl(20, 90%, 50%)" />
<rect x="50" y="72" width="2" height="2" fill="hsl(20, 90%, 50%)" />
<rect x="54" y="72" width="2" height="2" fill="hsl(20, 90%, 50%)" />
<rect x="58" y="72" width="2" height="2" fill="hsl(20, 90%, 50%)" />
<rect x="62" y="72" width="2" height="2" fill="hsl(20, 90%, 50%)" />
<rect x="48" y="74" width="2" height="2" fill="hsl(20, 90%, 50%)" />
<rect x="52" y="74" width="2" height="2" fill="hsl(20, 90%, 50%)" />
<rect x="54" y="74" width="2" height="2" fill="hsl(20, 90%, 50%)" />
<rect x="58" y="74" width="2" height="2" fill="hsl(20, 90%, 50%)" />
<rect x="60" y="74" width="2" height="2" fill="hsl(20, 90%, 50%)" />
<rect x="48" y="76" width="2" height="2" fill="hsl(20, 90%, 50%)" />
<rect x="46" y="78" width="2" height="2" fill="hsl(20, 90%, 50%)" />
<rect x="48" y="78" width="2" height="2" fill="hsl(20, 90%, 50%)" />
</svg>