<?xml version="1.0" encoding="utf-8"?>
<svg xmlns="http://www.w3.org/2000/svg" width="95" height="95" viewBox="0 0 95 95">
<rect width="100%" height="100%" fill="transparent" />
<rect x="82" y="4" width="3" height="3" fill="hsl(20, 90%, 50%)" />
<rect x="76" y="7" width="3" height="3" fill="hsl(20, 90%, 50%)" />
<rect x="79" y="7" width="3" height="3" fill="hsl(20, 90%, 50%)" />
<rect x="79" y="10" width="3" height="3" fill="hsl(20, 90%, 50%)" />
<rect x="82" y="10" width="3" height="3" fill="hsl(20, 90%, 50%)" />
<rect x="28" y="19" width="3" height="3" fill="hsl(20, 90%, 50%)" />
<rect x="31" y="19" width="3" height="3" fill="hsl(20, 90%, 50%)" />
<rect x="19" y="22" width="3" height="3" fill="hsl(20, 90%, 50%)" />
<rect x="28" y="22" width="3" height="3" fill="hsl(20, 90%, 50%)" />
<rect x="34" y="22" width="3" height="3" fill="hsl(20, 90%, 50%)" />
<rect x="61" y="22" width="3" height="3" fill="hsl(20, 90%, 50%)" />
<rect x="16" y="25" width="3" height="3" fill="hsl(20, 90%, 50%)" />
<rect x="22" y="25" width="3" height="3" fill="hsl(20, 90%, 50%)" />
<rect x="28" y="25" width="3" height="3" fill="hsl(20, 90%, 50%)" />
<rect x="34" y="25" width="3" height="3" fill="hsl(20, 90%, 50%)" />
<rect x="58" y="25" width="3" height="3" fill="hsl(20, 90%, 50%)" />
<rect x="13" y="28" width="3" height="3" fill="hsl(20, 90%, 50%)" />
<rect x="19" y="28" width="3" height="3" fill="hsl(20, 90%, 50%)" />
<rect x="25" y="28" width="3" height="3" fill="hsl(20, 90%, 50%)" />
<rect x="34" y="28" width="3" height="3" fill="hsl(20, 90%, 50%)" />
<rect x="37" y="28" width="3" height="3" fill="hsl(20, 90%, 50%)" />
<rect x="58" y="28" width="3" height="3" fill="hsl(20, 90%, 50%)" />
<rect x="61" y="28" width="3" height="3" fill="hsl(20, 90%, 50%)" />
<rect x="64" y="28" width="3" height="3" fill="hsl(20, 90%, 50%)" />
<rect x="13" y="31" width="3" height="3" fill="hsl(20, 90%, 50%)" />
<rect x="25" y="31" width="3" height="3" fill="hsl(20, 90%, 50%)" />
<rect x="31" y="31" width="3" height="3" fill="hsl(20, 90%, 50%)" />
<rect x="40" y="31" width="3" height="3" fill="hsl(20, 90%, 50%)" />
<rect x="4" y="34" width="3" height="3" fill="hsl(20, 90%, 50%)" />
<rect x="7" y="34" width="3" height="3" fill="hsl(20, 90%, 50%)" />
<rect x="13" y="34" width="3" height="3" fill="hsl(20, 90%, 50%)" />
<rect x="16" y="34" width="3" height="3" fill="hsl(20, 90%, 50%)" />
<rect x="25" y="34" width="3" height="3" fill="hsl(20, 90%, 50%)" />
<rect x="31" y="34" width="3" height="3" fill="hsl(20, 90%, 50%)" />
<rect x="37" y="34" width="3" height="3" fill="hsl(20, 90%, 50%)" />
<rect x="70" y="34" width="3" height="3" fill="hsl(20, 90%, 50%)" />
<rect x="73" y="34" width="3" height="3" fill="hsl(20, 90%, 50%)" />
<rect x="4" y="37" width="3" height="3" fill="hsl(20, 90%, 50%)" />
<rect x="10" y="37" width="3" height="3" fill="hsl(20, 90%, 50%)" />
<rect x="25" y="37" width="3" height="3" fill="hsl(20, 90%, 50%)" />
<rect x="28" y="37" width="3" height="3" fill="hsl(20, 90%, 50%)" />
<rect x="31" y="37" width="3" height="3" fill="hsl(20, 90%, 50%)" />
<rect x="40" y="37" width="3" height="3" fill="hsl(20, 90%, 50%)" />
<rect x="58" y="37" width="3" height="3" fill="hsl(20, 90%, 50%)" />
<rect x="61" y="37" width="3" height="3" fill="hsl(20, 90%, 50%)" />
<rect x="70" y="37" width="3" height="3" fill="hsl(20, 90%, 50%)" />
<rect x="73" y="37" width="3" height="3" fill="hsl(20, 90%, 50%)" />
<rect x="10" y="40" width="3" height="3" fill="hsl(20, 90%, 50%)" />
<rect x="16" y="40" width="3" height="3" fill="hsl(20, 90%, 50%)" />
<rect x="19" y="40" width="3" height="3" fill="hsl(20, 90%, 50%)" />
<rect x="22" y="40" width="3" height="3" fill="hsl(20, 90%, 50%)" />
<rect x="34" y="40" width="3" height="3" fill="hsl(20, 90%, 50%)" />
<rect x="37" y="40" width="3" height="3" fill="hsl(20, 90%, 50%)" />
<rect x="55" y="40" width="3" height="3" fill="hsl(20, 90%, 50%)" />
<rect x="61" y="40" width="3" height="3" fill="hsl(20, 90%, 50%)" />
<rect x="10" y="43" width="3" height="3" fill="hsl(20, 90%, 50%)" />
<rect x="19" y="43" width="3" height="3" fill="hsl(20, 90%, 50%)" />
<rect x="37" y="43" width="3" height="3" fill="hsl(20, 90%, 50%)" />
<rect x="58" y="43" width="3" height="3" fill="hsl(20, 90%, 50%)" />
<rect x="13" y="46" width="3" height="3" fill="hsl(20, 90%, 50%)" />
<rect x="25" y="46" width="3" height="3" fill="hsl(20, 90%, 50%)" />
<rect x="31" y="46" width="3" height="3" fill="hsl(20, 90%, 50%)" />
<rect x="40" y="46" width="3" height="3" fill="hsl(20, 90%, 50%)" />
<rect x="79" y="46" width="3" height="3" fill="hsl(20, 90%, 50%)" />
<rect x="82" y="46" width="3" height="3" fill="hsl(20, 90%, 50%)" />
<rect x="16" y="49" width="3" height="3" fill="hsl(20, 90%, 50%)" />
<rect x="19" y="49" width="3" height="3" fill="hsl(20, 90%, 50%)" />
<rect x="22" y="49" width="3" height="3" fill="hsl(20, 90%, 50%)" />
<rect x="28" y="49" width="3" height="3" fill="hsl(20, 90%, 50%)" />
<rect x="31" y="49" width="3" height="3" fill="hsl(20, 90%, 50%)" />
<rect x="37" y="49" width="3" height="3" fill="hsl(20, 90%, 50%)" />
<rect x="40" y="49" width="3" height="3" fill="hsl(20, 90%, 50%)" />
<rect x="64" y="49" width="3" height="3" fill="hsl(20, 90%, 50%)" />
<rect x="67" y="49" width="3" height="3" fill="hsl(20, 90%, 50%)" />
<rect x="82" y="49" width="3" height="3" fill="hsl(20, 90%, 50%)" />
<rect x="22" y="52" width="3" height="3" fill="hsl(20, 90%, 50%)" />
<rect x="37" y="52" width="3" height="3" fill="hsl(20, 90%, 50%)" />
<rect x="64" y="52" width="3" height="3" fill="hsl(20, 90%, 50%)" />
<rect x="67" y="52" width="3" height="3" fill="hsl(20, 90%, 50%)" />
<rect x="76" y="52" width="3" height="3" fill="hsl(20, 90%, 50%)" />
<rect x="79" y="52" width="3" height="3" fill="hsl(20, 90%, 50%)" />
<rect x="82" y="52" width="3" height="3" fill="hsl(20, 90%, 50%)" />
<rect x="25" y="55" width="3" height="3" fill="hsl(20, 90%, 50%)" />
<rect x="28" y="55" width="3" height="3" fill="hsl(20, 90%, 50%)" />
<rect x="31" y="55" width="3" height="3" fill="hsl(20, 90%, 50%)" />
<rect x="37" y="55" width="3" height="3" fill="hsl(20, 90%, 50%)" />
<rect x="55" y="55" width="3" height="3" fill="hsl(20, 90%, 50%)" />
<rect x="58" y="55" width="3" height="3" fill="hsl(20, 90%, 50%)" />
<rect x="76" y="55" width="3" height="3" fill="hsl(20, 90%, 50%)" />
<rect x="79" y="55" width="3" height="3" fill="hsl(20, 90%, 50%)" />
<rect x="82" y="55" width="3" height="3" fill="hsl(20, 90%, 50%)" />
<rect x="34" y="58" width="3" height="3" fill="hsl(20, 90%, 50%)" />
<rect x="40" y="58" width="3" height="3" fill="hsl(20, 90%, 50%)" />
<rect x="43" y="58" width="3" height="3" fill="hsl(20, 90%, 50%)" />
<rect x="55" y="58" width="3" height="3" fill="hsl(20, 90%, 50%)" />
<rect x="58" y="58" width="3" height="3" fill="hsl(20, 90%, 50%)" />
<rect x="76" y="58" width="3" height="3" fill="hsl(20, 90%, 50%)" />
<rect x="79" y="58" width="3" height="3" fill="hsl(20, 90%, 50%)" />
<rect x="31" y="61" width="3" height="3" fill="hsl(20, 90%, 50%)" />
<rect x="40" y="61" width="3" height="3" fill="hsl(20, 90%, 50%)" />
<rect x="49" y="61" width="3" height="3" fill="hsl(20, 90%, 50%)" />
<rect x="52" y="61" width="3" height="3" fill="hsl(20, 90%, 50%)" />
<rect x="55" y="61" width="3" height="3" fill="hsl(20, 90%, 50%)" />
<rect x="61" y="61" width="3" height="3" fill="hsl(20, 90%, 50%)" />
<rect x="88" y="61" width="3" height="3" fill="hsl(20, 90%, 50%)" />
<rect x="31" y="64" width="3" height="3" fill="hsl(20, 90%, 50%)" />
<rect x="34" y="64" width="3" height="3" fill="hsl(20, 90%, 50%)" />
<rect x="43" y="64" width="3" height="3" fill="hsl(20, 90%, 50%)" />
<rect x="46" y="64" width="3" height="3" fill="hsl(20, 90%, 50%)" />
<rect x="49" y="64" width="3" height="3" fill="hsl(20, 90%, 50%)" />
<rect x="85" y="64" width="3" height="3" fill="hsl(20, 90%, 50%)" />
<rect x="88" y="64" width="3" height="3" fill="hsl(20, 90%, 50%)" />
<rect x="52" y="67" width="3" height="3" fill="hsl(20, 90%, 50%)" />
<rect x="43" y="70" width="3" height="3" fill="hsl(20, 90%, 50%)" />
<rect x="46" y="70" width="3" height="3" fill="hsl(20, 90%, 50%)" />
<rect x="49" y="70" width="3" height="3" fill="hsl(20, 90%, 50%)" />
<rect x="52" y="70" width="3" height="3" fill="hsl(20, 90%, 50%)" />
<rect x="58" y="70" width="3" height="3" fill="hsl(20, 90%, 50%)" />
<rect x="40" y="73" width="3" height="3" fill="hsl(20, 90%, 50%)" />
<rect x="49" y="73" width="3" height="3" fill="hsl(20, 90%, 50%)" />
<rect x="61" y="73" width="3" height="3" fill="hsl(20, 90%, 50%)" />
<rect x="40" y="76" width="3" height="3" fill="hsl(20, 90%, 50%)" />
<rect x="43" y="76" width="3" height="3" fill="hsl(20, 90%, 50%)" />
<rect x="55" y="76" width="3" height="3" fill="hsl(20, 90%, 50%)" />
<rect x="61" y="76" width="3" height="3" fill="hsl(20, 90%, 50%)" />
<rect x="64" y="76" width="3" height="3" fill="hsl(20, 90%, 50%)" />
<rect x="67" y="76" width="3" height="3" fill="hsl(20, 90%, 50%)" />
<rect x="43" y="79" width="3" height="3" fill="hsl(20, 90%, 50%)" />
<rect x="49" y="79" width="3" height="3" fill="hsl(20, 90%, 50%)" />
<rect x="58" y="79" width="3" height="3" fill="hsl(20, 90%, 50%)" />
<rect x="70" y="79" width="3" height="3" fill="hsl(20, 90%, 50%)" />
<rect x="43" y="82" width="3" height="3" fill="hsl(20, 90%, 50%)" />
<rect x="49" y="82" width="3" height="3" fill="hsl(20, 90%, 50%)" />
<rect x="52" y="82" width="3" height="3" fill="hsl(20, 90%, 50%)" />
<rect x="58" y="82" width="3" height="3" fill="hsl(20, 90%, 50%)" />
<rect x="67" y="82" width="3" height="3" fill="hsl(20, 90%, 50%)" />
<rect x="70" y="82" width="3" height="3" fill="hsl(20, 90%, 50%)" />
<rect x="46" y="85" width="3" height="3" fill="hsl(20, 90%, 50%)" />
<rect x="55" y="85" width="3" height="3" fill="hsl(20, 90%, 50%)" />
<rect x="49" y="88" width="3" height="3" fill="hsl(20, 90%, 50%)" />
<rect x="52" y="88" width="3" height="3" fill="hsl(20, 90%, 50%)" />
</svg>