<?xml version="1.0" encoding="utf-8"?>
<svg xmlns="http://www.w3.org/2000/svg" width="80" height="96" viewBox="0 0 80 96">
<rect width="100%" height="100%" fill="transparent" />
<rect x="68" y="4" width="4" height="4" fill="hsl(20, 90%, 50%)" />
<rect x="64" y="8" width="4" height="4" fill="hsl(20, 90%, 50%)" />
<rect x="64" y="12" width="4" height="4" fill="hsl(20, 90%, 50%)" />
<rect x="68" y="12" width="4" height="4" fill="hsl(20, 90%, 50%)" />
<rect x="72" y="12" width="4" height="4" fill="hsl(20, 90%, 50%)" />
<rect x="44" y="28" width="4" height="4" fill="hsl(20, 90%, 50%)" />
<rect x="40" y="32" width="4" height="4" fill="hsl(20, 90%, 50%)" />
<rect x="40" y="36" width="4" height="4" fill="hsl(20, 90%, 50%)" />
<rect x="44" y="36" width="4" height="4" fill="hsl(20, 90%, 50%)" />
<rect x="48" y="36" width="4" height="4" fill="hsl(20, 90%, 50%)" />
<rect x="56" y="44" width="4" height="4" fill="hsl(20, 90%, 50%)" />
<rect x="60" y="44" width="4" height="4" fill="hsl(20, 90%, 50%)" />
<rect x="40" y="48" width="4" height="4" fill="hsl(20, 90%, 50%)" />
<rect x="44" y="48" width="4" height="4" fill="hsl(20, 90%, 50%)" />
<rect x="56" y="48" width="4" height="4" fill="hsl(20, 90%, 50%)" />
<rect x="60" y="48" width="4" height="4" fill="hsl(20, 90%, 50%)" />
<rect x="36" y="52" width="4" height="4" fill="hsl(20, 90%, 50%)" />
<rect x="44" y="52" width="4" height="4" fill="hsl(20, 90%, 50%)" />
<rect x="40" y="56" width="4" height="4" fill="hsl(20, 90%, 50%)" />
<rect x="24" y="60" width="4" height="4" fill="hsl(20, 90%, 50%)" />
<rect x="20" y="64" width="4" height="4" fill="hsl(20, 90%, 50%)" />
<rect x="28" y="64" width="4" height="4" fill="hsl(20, 90%, 50%)" />
<rect x="48" y="64" width="4" height="4" fill="hsl(20, 90%, 50%)" />
<rect x="52" y="64" width="4" height="4" fill="hsl(20, 90%, 50%)" />
<rect x="16" y="68" width="4" height="4" fill="hsl(20, 90%, 50%)" />
<rect x="32" y="68" width="4" height="4" fill="hsl(20, 90%, 50%)" />
<rect x="48" y="68" width="4" height="4" fill="hsl(20, 90%, 50%)" />
<rect x="12" y="72" width="4" height="4" fill="hsl(20, 90%, 50%)" />
<rect x="28" y="72" width="4" height="4" fill="hsl(20, 90%, 50%)" />
<rect x="52" y="72" width="4" height="4" fill="hsl(20, 90%, 50%)" />
<rect x="56" y="72" width="4" height="4" fill="hsl(20, 90%, 50%)" />
<rect x="60" y="72" width="4" height="4" fill="hsl(20, 90%, 50%)" />
<rect x="8" y="76" width="4" height="4" fill="hsl(20, 90%, 50%)" />
<rect x="24" y="76" width="4" height="4" fill="hsl(20, 90%, 50%)" />
<rect x="60" y="76" width="4" height="4" fill="hsl(20, 90%, 50%)" />
<rect x="4" y="80" width="4" height="4" fill="hsl(20, 90%, 50%)" />
<rect x="20" y="80" width="4" height="4" fill="hsl(20, 90%, 50%)" />
<rect x="8" y="84" width="4" height="4" fill="hsl(20, 90%, 50%)" />
<rect x="16" y="84" width="4" height="4" fill="hsl(20, 90%, 50%)" />
<rect x="12" y="88" width="4" height="4" fill="hsl(20, 90%, 50%)" />
</svg>