<?xml version="1.0" encoding="utf-8"?>
<svg xmlns="http://www.w3.org/2000/svg" width="76" height="76" viewBox="0 0 76 76">
<rect width="100%" height="100%" fill="transparent" />
<rect x="12" y="4" width="2" height="2" fill="hsl(20, 90%, 50%)" />
<rect x="32" y="4" width="2" height="2" fill="hsl(20, 90%, 50%)" />
<rect x="12" y="6" width="2" height="2" fill="hsl(20, 90%, 50%)" />
<rect x="14" y="6" width="2" height="2" fill="hsl(20, 90%, 50%)" />
<rect x="16" y="6" width="2" height="2" fill="hsl(20, 90%, 50%)" />
<rect x="28" y="6" width="2" height="2" fill="hsl(20, 90%, 50%)" />
<rect x="30" y="6" width="2" height="2" fill="hsl(20, 90%, 50%)" />
<rect x="32" y="6" width="2" height="2" fill="hsl(20, 90%, 50%)" />
<rect x="18" y="8" width="2" height="2" fill="hsl(20, 90%, 50%)" />
<rect x="26" y="8" width="2" height="2" fill="hsl(20, 90%, 50%)" />
<rect x="8" y="10" width="2" height="2" fill="hsl(20, 90%, 50%)" />
<rect x="16" y="10" width="2" height="2" fill="hsl(20, 90%, 50%)" />
<rect x="18" y="10" width="2" height="2" fill="hsl(20, 90%, 50%)" />
<rect x="26" y="10" width="2" height="2" fill="hsl(20, 90%, 50%)" />
<rect x="28" y="10" width="2" height="2" fill="hsl(20, 90%, 50%)" />
<rect x="10" y="12" width="2" height="2" fill="hsl(20, 90%, 50%)" />
<rect x="6" y="14" width="2" height="2" fill="hsl(20, 90%, 50%)" />
<rect x="8" y="14" width="2" height="2" fill="hsl(20, 90%, 50%)" />
<rect x="10" y="14" width="2" height="2" fill="hsl(20, 90%, 50%)" />
<rect x="66" y="22" width="2" height="2" fill="hsl(20, 90%, 50%)" />
<rect x="66" y="24" width="2" height="2" fill="hsl(20, 90%, 50%)" />
<rect x="44" y="26" width="2" height="2" fill="hsl(20, 90%, 50%)" />
<rect x="46" y="26" width="2" height="2" fill="hsl(20, 90%, 50%)" />
<rect x="66" y="26" width="2" height="2" fill="hsl(20, 90%, 50%)" />
<rect x="68" y="26" width="2" height="2" fill="hsl(20, 90%, 50%)" />
<rect x="70" y="26" width="2" height="2" fill="hsl(20, 90%, 50%)" />
<rect x="44" y="28" width="2" height="2" fill="hsl(20, 90%, 50%)" />
<rect x="46" y="28" width="2" height="2" fill="hsl(20, 90%, 50%)" />
<rect x="70" y="28" width="2" height="2" fill="hsl(20, 90%, 50%)" />
<rect x="20" y="30" width="2" height="2" fill="hsl(20, 90%, 50%)" />
<rect x="22" y="30" width="2" height="2" fill="hsl(20, 90%, 50%)" />
<rect x="18" y="32" width="2" height="2" fill="hsl(20, 90%, 50%)" />
<rect x="24" y="32" width="2" height="2" fill="hsl(20, 90%, 50%)" />
<rect x="8" y="34" width="2" height="2" fill="hsl(20, 90%, 50%)" />
<rect x="10" y="34" width="2" height="2" fill="hsl(20, 90%, 50%)" />
<rect x="20" y="34" width="2" height="2" fill="hsl(20, 90%, 50%)" />
<rect x="22" y="34" width="2" height="2" fill="hsl(20, 90%, 50%)" />
<rect x="6" y="36" width="2" height="2" fill="hsl(20, 90%, 50%)" />
<rect x="10" y="36" width="2" height="2" fill="hsl(20, 90%, 50%)" />
<rect x="6" y="38" width="2" height="2" fill="hsl(20, 90%, 50%)" />
<rect x="4" y="40" width="2" height="2" fill="hsl(20, 90%, 50%)" />
<rect x="6" y="40" width="2" height="2" fill="hsl(20, 90%, 50%)" />
<rect x="24" y="42" width="2" height="2" fill="hsl(20, 90%, 50%)" />
<rect x="26" y="42" width="2" height="2" fill="hsl(20, 90%, 50%)" />
<rect x="24" y="44" width="2" height="2" fill="hsl(20, 90%, 50%)" />
<rect x="26" y="46" width="2" height="2" fill="hsl(20, 90%, 50%)" />
<rect x="28" y="46" width="2" height="2" fill="hsl(20, 90%, 50%)" />
<rect x="30" y="46" width="2" height="2" fill="hsl(20, 90%, 50%)" />
<rect x="30" y="48" width="2" height="2" fill="hsl(20, 90%, 50%)" />
<rect x="54" y="48" width="2" height="2" fill="hsl(20, 90%, 50%)" />
<rect x="56" y="48" width="2" height="2" fill="hsl(20, 90%, 50%)" />
<rect x="46" y="50" width="2" height="2" fill="hsl(20, 90%, 50%)" />
<rect x="48" y="50" width="2" height="2" fill="hsl(20, 90%, 50%)" />
<rect x="54" y="50" width="2" height="2" fill="hsl(20, 90%, 50%)" />
<rect x="56" y="50" width="2" height="2" fill="hsl(20, 90%, 50%)" />
<rect x="44" y="52" width="2" height="2" fill="hsl(20, 90%, 50%)" />
<rect x="48" y="52" width="2" height="2" fill="hsl(20, 90%, 50%)" />
<rect x="46" y="54" width="2" height="2" fill="hsl(20, 90%, 50%)" />
<rect x="38" y="56" width="2" height="2" fill="hsl(20, 90%, 50%)" />
<rect x="36" y="58" width="2" height="2" fill="hsl(20, 90%, 50%)" />
<rect x="40" y="58" width="2" height="2" fill="hsl(20, 90%, 50%)" />
<rect x="50" y="58" width="2" height="2" fill="hsl(20, 90%, 50%)" />
<rect x="52" y="58" width="2" height="2" fill="hsl(20, 90%, 50%)" />
<rect x="34" y="60" width="2" height="2" fill="hsl(20, 90%, 50%)" />
<rect x="42" y="60" width="2" height="2" fill="hsl(20, 90%, 50%)" />
<rect x="50" y="60" width="2" height="2" fill="hsl(20, 90%, 50%)" />
<rect x="32" y="62" width="2" height="2" fill="hsl(20, 90%, 50%)" />
<rect x="40" y="62" width="2" height="2" fill="hsl(20, 90%, 50%)" />
<rect x="52" y="62" width="2" height="2" fill="hsl(20, 90%, 50%)" />
<rect x="54" y="62" width="2" height="2" fill="hsl(20, 90%, 50%)" />
<rect x="56" y="62" width="2" height="2" fill="hsl(20, 90%, 50%)" />
<rect x="30" y="64" width="2" height="2" fill="hsl(20, 90%, 50%)" />
<rect x="38" y="64" width="2" height="2" fill="hsl(20, 90%, 50%)" />
<rect x="56" y="64" width="2" height="2" fill="hsl(20, 90%, 50%)" />
<rect x="28" y="66" width="2" height="2" fill="hsl(20, 90%, 50%)" />
<rect x="36" y="66" width="2" height="2" fill="hsl(20, 90%, 50%)" />
<rect x="30" y="68" width="2" height="2" fill="hsl(20, 90%, 50%)" />
<rect x="34" y="68" width="2" height="2" fill="hsl(20, 90%, 50%)" />
<rect x="32" y="70" width="2" height="2" fill="hsl(20, 90%, 50%)" />
</svg>