<?xml version="1.0" encoding="utf-8"?>
<svg xmlns="http://www.w3.org/2000/svg" width="54" height="33" viewBox="0 0 54 33">
<rect width="100%" height="100%" fill="transparent" />
<rect x="8" y="4" width="1" height="1" fill="hsl(20, 90%, 50%)" />
<rect x="9" y="4" width="1" height="1" fill="hsl(20, 90%, 50%)" />
<rect x="24" y="4" width="1" height="1" fill="hsl(20, 90%, 50%)" />
<rect x="9" y="5" width="1" height="1" fill="hsl(20, 90%, 50%)" />
<rect x="23" y="5" width="1" height="1" fill="hsl(20, 90%, 50%)" />
<rect x="25" y="5" width="1" height="1" fill="hsl(20, 90%, 50%)" />
<rect x="9" y="6" width="1" height="1" fill="hsl(20, 90%, 50%)" />
<rect x="11" y="6" width="1" height="1" fill="hsl(20, 90%, 50%)" />
<rect x="23" y="6" width="1" height="1" fill="hsl(20, 90%, 50%)" />
<rect x="25" y="6" width="1" height="1" fill="hsl(20, 90%, 50%)" />
<rect x="10" y="7" width="1" height="1" fill="hsl(20, 90%, 50%)" />
<rect x="11" y="7" width="1" height="1" fill="hsl(20, 90%, 50%)" />
<rect x="14" y="7" width="1" height="1" fill="hsl(20, 90%, 50%)" />
<rect x="15" y="7" width="1" height="1" fill="hsl(20, 90%, 50%)" />
<rect x="21" y="7" width="1" height="1" fill="hsl(20, 90%, 50%)" />
<rect x="22" y="7" width="1" height="1" fill="hsl(20, 90%, 50%)" />
<rect x="23" y="7" width="1" height="1" fill="hsl(20, 90%, 50%)" />
<rect x="25" y="7" width="1" height="1" fill="hsl(20, 90%, 50%)" />
<rect x="26" y="7" width="1" height="1" fill="hsl(20, 90%, 50%)" />
<rect x="47" y="7" width="1" height="1" fill="hsl(20, 90%, 50%)" />
<rect x="48" y="7" width="1" height="1" fill="hsl(20, 90%, 50%)" />
<rect x="14" y="8" width="1" height="1" fill="hsl(20, 90%, 50%)" />
<rect x="15" y="8" width="1" height="1" fill="hsl(20, 90%, 50%)" />
<rect x="20" y="8" width="1" height="1" fill="hsl(20, 90%, 50%)" />
<rect x="47" y="8" width="1" height="1" fill="hsl(20, 90%, 50%)" />
<rect x="48" y="8" width="1" height="1" fill="hsl(20, 90%, 50%)" />
<rect x="21" y="9" width="1" height="1" fill="hsl(20, 90%, 50%)" />
<rect x="22" y="9" width="1" height="1" fill="hsl(20, 90%, 50%)" />
<rect x="23" y="9" width="1" height="1" fill="hsl(20, 90%, 50%)" />
<rect x="25" y="9" width="1" height="1" fill="hsl(20, 90%, 50%)" />
<rect x="26" y="9" width="1" height="1" fill="hsl(20, 90%, 50%)" />
<rect x="35" y="9" width="1" height="1" fill="hsl(20, 90%, 50%)" />
<rect x="23" y="10" width="1" height="1" fill="hsl(20, 90%, 50%)" />
<rect x="25" y="10" width="1" height="1" fill="hsl(20, 90%, 50%)" />
<rect x="26" y="10" width="1" height="1" fill="hsl(20, 90%, 50%)" />
<rect x="31" y="10" width="1" height="1" fill="hsl(20, 90%, 50%)" />
<rect x="32" y="10" width="1" height="1" fill="hsl(20, 90%, 50%)" />
<rect x="35" y="10" width="1" height="1" fill="hsl(20, 90%, 50%)" />
<rect x="11" y="11" width="1" height="1" fill="hsl(20, 90%, 50%)" />
<rect x="12" y="11" width="1" height="1" fill="hsl(20, 90%, 50%)" />
<rect x="14" y="11" width="1" height="1" fill="hsl(20, 90%, 50%)" />
<rect x="16" y="11" width="1" height="1" fill="hsl(20, 90%, 50%)" />
<rect x="30" y="11" width="1" height="1" fill="hsl(20, 90%, 50%)" />
<rect x="36" y="11" width="1" height="1" fill="hsl(20, 90%, 50%)" />
<rect x="48" y="11" width="1" height="1" fill="hsl(20, 90%, 50%)" />
<rect x="49" y="11" width="1" height="1" fill="hsl(20, 90%, 50%)" />
<rect x="11" y="12" width="1" height="1" fill="hsl(20, 90%, 50%)" />
<rect x="12" y="12" width="1" height="1" fill="hsl(20, 90%, 50%)" />
<rect x="14" y="12" width="1" height="1" fill="hsl(20, 90%, 50%)" />
<rect x="16" y="12" width="1" height="1" fill="hsl(20, 90%, 50%)" />
<rect x="29" y="12" width="1" height="1" fill="hsl(20, 90%, 50%)" />
<rect x="30" y="12" width="1" height="1" fill="hsl(20, 90%, 50%)" />
<rect x="33" y="12" width="1" height="1" fill="hsl(20, 90%, 50%)" />
<rect x="35" y="12" width="1" height="1" fill="hsl(20, 90%, 50%)" />
<rect x="48" y="12" width="1" height="1" fill="hsl(20, 90%, 50%)" />
<rect x="49" y="12" width="1" height="1" fill="hsl(20, 90%, 50%)" />
<rect x="11" y="13" width="1" height="1" fill="hsl(20, 90%, 50%)" />
<rect x="12" y="13" width="1" height="1" fill="hsl(20, 90%, 50%)" />
<rect x="16" y="13" width="1" height="1" fill="hsl(20, 90%, 50%)" />
<rect x="30" y="13" width="1" height="1" fill="hsl(20, 90%, 50%)" />
<rect x="31" y="13" width="1" height="1" fill="hsl(20, 90%, 50%)" />
<rect x="35" y="13" width="1" height="1" fill="hsl(20, 90%, 50%)" />
<rect x="11" y="14" width="1" height="1" fill="hsl(20, 90%, 50%)" />
<rect x="12" y="14" width="1" height="1" fill="hsl(20, 90%, 50%)" />
<rect x="17" y="14" width="1" height="1" fill="hsl(20, 90%, 50%)" />
<rect x="18" y="14" width="1" height="1" fill="hsl(20, 90%, 50%)" />
<rect x="25" y="14" width="1" height="1" fill="hsl(20, 90%, 50%)" />
<rect x="26" y="14" width="1" height="1" fill="hsl(20, 90%, 50%)" />
<rect x="31" y="14" width="1" height="1" fill="hsl(20, 90%, 50%)" />
<rect x="32" y="14" width="1" height="1" fill="hsl(20, 90%, 50%)" />
<rect x="33" y="14" width="1" height="1" fill="hsl(20, 90%, 50%)" />
<rect x="4" y="15" width="1" height="1" fill="hsl(20, 90%, 50%)" />
<rect x="11" y="15" width="1" height="1" fill="hsl(20, 90%, 50%)" />
<rect x="12" y="15" width="1" height="1" fill="hsl(20, 90%, 50%)" />
<rect x="18" y="15" width="1" height="1" fill="hsl(20, 90%, 50%)" />
<rect x="19" y="15" width="1" height="1" fill="hsl(20, 90%, 50%)" />
<rect x="25" y="15" width="1" height="1" fill="hsl(20, 90%, 50%)" />
<rect x="26" y="15" width="1" height="1" fill="hsl(20, 90%, 50%)" />
<rect x="4" y="16" width="1" height="1" fill="hsl(20, 90%, 50%)" />
<rect x="5" y="16" width="1" height="1" fill="hsl(20, 90%, 50%)" />
<rect x="6" y="16" width="1" height="1" fill="hsl(20, 90%, 50%)" />
<rect x="14" y="16" width="1" height="1" fill="hsl(20, 90%, 50%)" />
<rect x="15" y="16" width="1" height="1" fill="hsl(20, 90%, 50%)" />
<rect x="16" y="16" width="1" height="1" fill="hsl(20, 90%, 50%)" />
<rect x="18" y="16" width="1" height="1" fill="hsl(20, 90%, 50%)" />
<rect x="31" y="16" width="1" height="1" fill="hsl(20, 90%, 50%)" />
<rect x="32" y="16" width="1" height="1" fill="hsl(20, 90%, 50%)" />
<rect x="33" y="16" width="1" height="1" fill="hsl(20, 90%, 50%)" />
<rect x="7" y="17" width="1" height="1" fill="hsl(20, 90%, 50%)" />
<rect x="13" y="17" width="1" height="1" fill="hsl(20, 90%, 50%)" />
<rect x="14" y="17" width="1" height="1" fill="hsl(20, 90%, 50%)" />
<rect x="18" y="17" width="1" height="1" fill="hsl(20, 90%, 50%)" />
<rect x="20" y="17" width="1" height="1" fill="hsl(20, 90%, 50%)" />
<rect x="22" y="17" width="1" height="1" fill="hsl(20, 90%, 50%)" />
<rect x="30" y="17" width="1" height="1" fill="hsl(20, 90%, 50%)" />
<rect x="31" y="17" width="1" height="1" fill="hsl(20, 90%, 50%)" />
<rect x="35" y="17" width="1" height="1" fill="hsl(20, 90%, 50%)" />
<rect x="6" y="18" width="1" height="1" fill="hsl(20, 90%, 50%)" />
<rect x="8" y="18" width="1" height="1" fill="hsl(20, 90%, 50%)" />
<rect x="15" y="18" width="1" height="1" fill="hsl(20, 90%, 50%)" />
<rect x="18" y="18" width="1" height="1" fill="hsl(20, 90%, 50%)" />
<rect x="22" y="18" width="1" height="1" fill="hsl(20, 90%, 50%)" />
<rect x="29" y="18" width="1" height="1" fill="hsl(20, 90%, 50%)" />
<rect x="30" y="18" width="1" height="1" fill="hsl(20, 90%, 50%)" />
<rect x="33" y="18" width="1" height="1" fill="hsl(20, 90%, 50%)" />
<rect x="35" y="18" width="1" height="1" fill="hsl(20, 90%, 50%)" />
<rect x="48" y="18" width="1" height="1" fill="hsl(20, 90%, 50%)" />
<rect x="49" y="18" width="1" height="1" fill="hsl(20, 90%, 50%)" />
<rect x="6" y="19" width="1" height="1" fill="hsl(20, 90%, 50%)" />
<rect x="7" y="19" width="1" height="1" fill="hsl(20, 90%, 50%)" />
<rect x="15" y="19" width="1" height="1" fill="hsl(20, 90%, 50%)" />
<rect x="17" y="19" width="1" height="1" fill="hsl(20, 90%, 50%)" />
<rect x="20" y="19" width="1" height="1" fill="hsl(20, 90%, 50%)" />
<rect x="22" y="19" width="1" height="1" fill="hsl(20, 90%, 50%)" />
<rect x="30" y="19" width="1" height="1" fill="hsl(20, 90%, 50%)" />
<rect x="36" y="19" width="1" height="1" fill="hsl(20, 90%, 50%)" />
<rect x="48" y="19" width="1" height="1" fill="hsl(20, 90%, 50%)" />
<rect x="49" y="19" width="1" height="1" fill="hsl(20, 90%, 50%)" />
<rect x="31" y="20" width="1" height="1" fill="hsl(20, 90%, 50%)" />
<rect x="32" y="20" width="1" height="1" fill="hsl(20, 90%, 50%)" />
<rect x="35" y="20" width="1" height="1" fill="hsl(20, 90%, 50%)" />
<rect x="6" y="21" width="1" height="1" fill="hsl(20, 90%, 50%)" />
<rect x="7" y="21" width="1" height="1" fill="hsl(20, 90%, 50%)" />
<rect x="35" y="21" width="1" height="1" fill="hsl(20, 90%, 50%)" />
<rect x="6" y="22" width="1" height="1" fill="hsl(20, 90%, 50%)" />
<rect x="47" y="22" width="1" height="1" fill="hsl(20, 90%, 50%)" />
<rect x="48" y="22" width="1" height="1" fill="hsl(20, 90%, 50%)" />
<rect x="8" y="23" width="1" height="1" fill="hsl(20, 90%, 50%)" />
<rect x="47" y="23" width="1" height="1" fill="hsl(20, 90%, 50%)" />
<rect x="48" y="23" width="1" height="1" fill="hsl(20, 90%, 50%)" />
<rect x="7" y="24" width="1" height="1" fill="hsl(20, 90%, 50%)" />
<rect x="8" y="24" width="1" height="1" fill="hsl(20, 90%, 50%)" />
<rect x="12" y="25" width="1" height="1" fill="hsl(20, 90%, 50%)" />
<rect x="13" y="25" width="1" height="1" fill="hsl(20, 90%, 50%)" />
<rect x="13" y="26" width="1" height="1" fill="hsl(20, 90%, 50%)" />
<rect x="35" y="26" width="1" height="1" fill="hsl(20, 90%, 50%)" />
<rect x="10" y="27" width="1" height="1" fill="hsl(20, 90%, 50%)" />
<rect x="11" y="27" width="1" height="1" fill="hsl(20, 90%, 50%)" />
<rect x="12" y="27" width="1" height="1" fill="hsl(20, 90%, 50%)" />
<rect x="36" y="27" width="1" height="1" fill="hsl(20, 90%, 50%)" />
<rect x="10" y="28" width="1" height="1" fill="hsl(20, 90%, 50%)" />
<rect x="34" y="28" width="1" height="1" fill="hsl(20, 90%, 50%)" />
<rect x="35" y="28" width="1" height="1" fill="hsl(20, 90%, 50%)" />
<rect x="36" y="28" width="1" height="1" fill="hsl(20, 90%, 50%)" />
</svg>