<?xml version="1.0" encoding="utf-8"?>
<svg xmlns="http://www.w3.org/2000/svg" width="78" height="92" viewBox="0 0 78 92">
<rect width="100%" height="100%" fill="transparent" />
<rect x="32" y="4" width="14" height="14" fill="hsl(20, 90%, 50%)" />
<rect x="46" y="4" width="14" height="14" fill="hsl(20, 90%, 50%)" />
<rect x="18" y="18" width="14" height="14" fill="hsl(20, 90%, 50%)" />
<rect x="60" y="18" width="14" height="14" fill="hsl(20, 90%, 50%)" />
<rect x="18" y="32" width="14" height="14" fill="hsl(20, 90%, 50%)" />
<rect x="46" y="32" width="14" height="14" fill="hsl(20, 90%, 50%)" />
<rect x="60" y="32" width="14" height="14" fill="hsl(20, 90%, 50%)" />
<rect x="4" y="46" width="14" height="14" fill="hsl(20, 90%, 50%)" />
<rect x="18" y="46" width="14" height="14" fill="hsl(20, 90%, 50%)" />
<rect x="46" y="46" width="14" height="14" fill="hsl(20, 90%, 50%)" />
<rect x="4" y="60" width="14" height="14" fill="hsl(20, 90%, 50%)" />
<rect x="46" y="60" width="14" height="14" fill="hsl(20, 90%, 50%)" />
<rect x="18" y="74" width="14" height="14" fill="hsl(20, 90%, 50%)" />
<rect x="32" y="74" width="14" height="14" fill="hsl(20, 90%, 50%)" />
</svg>