<?xml version="1.0" encoding="utf-8"?>
<svg xmlns="http://www.w3.org/2000/svg" width="67" height="42" viewBox="0 0 67 42">
<rect width="100%" height="100%" fill="transparent" />
<rect x="5" y="4" width="1" height="1" fill="hsl(20, 90%, 50%)" />
<rect x="6" y="4" width="1" height="1" fill="hsl(20, 90%, 50%)" />
<rect x="6" y="5" width="1" height="1" fill="hsl(20, 90%, 50%)" />
<rect x="5" y="6" width="1" height="1" fill="hsl(20, 90%, 50%)" />
<rect x="5" y="7" width="1" height="1" fill="hsl(20, 90%, 50%)" />
<rect x="6" y="7" width="1" height="1" fill="hsl(20, 90%, 50%)" />
<rect x="54" y="7" width="1" height="1" fill="hsl(20, 90%, 50%)" />
<rect x="55" y="7" width="1" height="1" fill="hsl(20, 90%, 50%)" />
<rect x="55" y="8" width="1" height="1" fill="hsl(20, 90%, 50%)" />
<rect x="54" y="9" width="1" height="1" fill="hsl(20, 90%, 50%)" />
<rect x="54" y="10" width="1" height="1" fill="hsl(20, 90%, 50%)" />
<rect x="55" y="10" width="1" height="1" fill="hsl(20, 90%, 50%)" />
<rect x="38" y="11" width="1" height="1" fill="hsl(20, 90%, 50%)" />
<rect x="38" y="12" width="1" height="1" fill="hsl(20, 90%, 50%)" />
<rect x="40" y="12" width="1" height="1" fill="hsl(20, 90%, 50%)" />
<rect x="4" y="13" width="1" height="1" fill="hsl(20, 90%, 50%)" />
<rect x="8" y="13" width="1" height="1" fill="hsl(20, 90%, 50%)" />
<rect x="9" y="13" width="1" height="1" fill="hsl(20, 90%, 50%)" />
<rect x="38" y="13" width="1" height="1" fill="hsl(20, 90%, 50%)" />
<rect x="39" y="13" width="1" height="1" fill="hsl(20, 90%, 50%)" />
<rect x="4" y="14" width="1" height="1" fill="hsl(20, 90%, 50%)" />
<rect x="5" y="14" width="1" height="1" fill="hsl(20, 90%, 50%)" />
<rect x="8" y="14" width="1" height="1" fill="hsl(20, 90%, 50%)" />
<rect x="9" y="14" width="1" height="1" fill="hsl(20, 90%, 50%)" />
<rect x="5" y="15" width="1" height="1" fill="hsl(20, 90%, 50%)" />
<rect x="6" y="15" width="1" height="1" fill="hsl(20, 90%, 50%)" />
<rect x="29" y="15" width="1" height="1" fill="hsl(20, 90%, 50%)" />
<rect x="30" y="15" width="1" height="1" fill="hsl(20, 90%, 50%)" />
<rect x="4" y="16" width="1" height="1" fill="hsl(20, 90%, 50%)" />
<rect x="5" y="16" width="1" height="1" fill="hsl(20, 90%, 50%)" />
<rect x="29" y="16" width="1" height="1" fill="hsl(20, 90%, 50%)" />
<rect x="30" y="16" width="1" height="1" fill="hsl(20, 90%, 50%)" />
<rect x="57" y="16" width="1" height="1" fill="hsl(20, 90%, 50%)" />
<rect x="58" y="16" width="1" height="1" fill="hsl(20, 90%, 50%)" />
<rect x="57" y="17" width="1" height="1" fill="hsl(20, 90%, 50%)" />
<rect x="58" y="17" width="1" height="1" fill="hsl(20, 90%, 50%)" />
<rect x="17" y="22" width="1" height="1" fill="hsl(20, 90%, 50%)" />
<rect x="18" y="22" width="1" height="1" fill="hsl(20, 90%, 50%)" />
<rect x="16" y="23" width="1" height="1" fill="hsl(20, 90%, 50%)" />
<rect x="18" y="23" width="1" height="1" fill="hsl(20, 90%, 50%)" />
<rect x="27" y="23" width="1" height="1" fill="hsl(20, 90%, 50%)" />
<rect x="28" y="23" width="1" height="1" fill="hsl(20, 90%, 50%)" />
<rect x="18" y="24" width="1" height="1" fill="hsl(20, 90%, 50%)" />
<rect x="26" y="24" width="1" height="1" fill="hsl(20, 90%, 50%)" />
<rect x="28" y="24" width="1" height="1" fill="hsl(20, 90%, 50%)" />
<rect x="26" y="25" width="1" height="1" fill="hsl(20, 90%, 50%)" />
<rect x="25" y="26" width="1" height="1" fill="hsl(20, 90%, 50%)" />
<rect x="26" y="26" width="1" height="1" fill="hsl(20, 90%, 50%)" />
<rect x="52" y="26" width="1" height="1" fill="hsl(20, 90%, 50%)" />
<rect x="53" y="26" width="1" height="1" fill="hsl(20, 90%, 50%)" />
<rect x="52" y="27" width="1" height="1" fill="hsl(20, 90%, 50%)" />
<rect x="53" y="27" width="1" height="1" fill="hsl(20, 90%, 50%)" />
<rect x="38" y="30" width="1" height="1" fill="hsl(20, 90%, 50%)" />
<rect x="39" y="30" width="1" height="1" fill="hsl(20, 90%, 50%)" />
<rect x="61" y="30" width="1" height="1" fill="hsl(20, 90%, 50%)" />
<rect x="62" y="30" width="1" height="1" fill="hsl(20, 90%, 50%)" />
<rect x="39" y="31" width="1" height="1" fill="hsl(20, 90%, 50%)" />
<rect x="62" y="31" width="1" height="1" fill="hsl(20, 90%, 50%)" />
<rect x="36" y="32" width="1" height="1" fill="hsl(20, 90%, 50%)" />
<rect x="37" y="32" width="1" height="1" fill="hsl(20, 90%, 50%)" />
<rect x="38" y="32" width="1" height="1" fill="hsl(20, 90%, 50%)" />
<rect x="59" y="32" width="1" height="1" fill="hsl(20, 90%, 50%)" />
<rect x="60" y="32" width="1" height="1" fill="hsl(20, 90%, 50%)" />
<rect x="61" y="32" width="1" height="1" fill="hsl(20, 90%, 50%)" />
<rect x="36" y="33" width="1" height="1" fill="hsl(20, 90%, 50%)" />
<rect x="59" y="33" width="1" height="1" fill="hsl(20, 90%, 50%)" />
<rect x="48" y="34" width="1" height="1" fill="hsl(20, 90%, 50%)" />
<rect x="49" y="34" width="1" height="1" fill="hsl(20, 90%, 50%)" />
<rect x="48" y="35" width="1" height="1" fill="hsl(20, 90%, 50%)" />
<rect x="49" y="36" width="1" height="1" fill="hsl(20, 90%, 50%)" />
<rect x="50" y="36" width="1" height="1" fill="hsl(20, 90%, 50%)" />
<rect x="51" y="36" width="1" height="1" fill="hsl(20, 90%, 50%)" />
<rect x="51" y="37" width="1" height="1" fill="hsl(20, 90%, 50%)" />
</svg>