<?xml version="1.0" encoding="utf-8"?>
<svg xmlns="http://www.w3.org/2000/svg" width="80" height="64" viewBox="0 0 80 64">
<rect width="100%" height="100%" fill="transparent" />
<rect x="12" y="4" width="2" height="2" fill="hsl(20, 90%, 50%)" />
<rect x="8" y="6" width="2" height="2" fill="hsl(20, 90%, 50%)" />
<rect x="12" y="6" width="2" height="2" fill="hsl(20, 90%, 50%)" />
<rect x="16" y="8" width="2" height="2" fill="hsl(20, 90%, 50%)" />
<rect x="4" y="10" width="2" height="2" fill="hsl(20, 90%, 50%)" />
<rect x="6" y="10" width="2" height="2" fill="hsl(20, 90%, 50%)" />
<rect x="16" y="12" width="2" height="2" fill="hsl(20, 90%, 50%)" />
<rect x="18" y="12" width="2" height="2" fill="hsl(20, 90%, 50%)" />
<rect x="6" y="14" width="2" height="2" fill="hsl(20, 90%, 50%)" />
<rect x="10" y="16" width="2" height="2" fill="hsl(20, 90%, 50%)" />
<rect x="14" y="16" width="2" height="2" fill="hsl(20, 90%, 50%)" />
<rect x="10" y="18" width="2" height="2" fill="hsl(20, 90%, 50%)" />
<rect x="46" y="20" width="2" height="2" fill="hsl(20, 90%, 50%)" />
<rect x="62" y="20" width="2" height="2" fill="hsl(20, 90%, 50%)" />
<rect x="46" y="22" width="2" height="2" fill="hsl(20, 90%, 50%)" />
<rect x="50" y="22" width="2" height="2" fill="hsl(20, 90%, 50%)" />
<rect x="62" y="22" width="2" height="2" fill="hsl(20, 90%, 50%)" />
<rect x="66" y="22" width="2" height="2" fill="hsl(20, 90%, 50%)" />
<rect x="38" y="24" width="2" height="2" fill="hsl(20, 90%, 50%)" />
<rect x="42" y="24" width="2" height="2" fill="hsl(20, 90%, 50%)" />
<rect x="54" y="24" width="2" height="2" fill="hsl(20, 90%, 50%)" />
<rect x="58" y="24" width="2" height="2" fill="hsl(20, 90%, 50%)" />
<rect x="38" y="26" width="2" height="2" fill="hsl(20, 90%, 50%)" />
<rect x="54" y="26" width="2" height="2" fill="hsl(20, 90%, 50%)" />
<rect x="68" y="26" width="2" height="2" fill="hsl(20, 90%, 50%)" />
<rect x="70" y="26" width="2" height="2" fill="hsl(20, 90%, 50%)" />
<rect x="14" y="28" width="2" height="2" fill="hsl(20, 90%, 50%)" />
<rect x="30" y="28" width="2" height="2" fill="hsl(20, 90%, 50%)" />
<rect x="34" y="28" width="2" height="2" fill="hsl(20, 90%, 50%)" />
<rect x="14" y="30" width="2" height="2" fill="hsl(20, 90%, 50%)" />
<rect x="18" y="30" width="2" height="2" fill="hsl(20, 90%, 50%)" />
<rect x="30" y="30" width="2" height="2" fill="hsl(20, 90%, 50%)" />
<rect x="70" y="30" width="2" height="2" fill="hsl(20, 90%, 50%)" />
<rect x="10" y="32" width="2" height="2" fill="hsl(20, 90%, 50%)" />
<rect x="22" y="32" width="2" height="2" fill="hsl(20, 90%, 50%)" />
<rect x="26" y="32" width="2" height="2" fill="hsl(20, 90%, 50%)" />
<rect x="22" y="34" width="2" height="2" fill="hsl(20, 90%, 50%)" />
<rect x="72" y="34" width="2" height="2" fill="hsl(20, 90%, 50%)" />
<rect x="74" y="34" width="2" height="2" fill="hsl(20, 90%, 50%)" />
<rect x="8" y="36" width="2" height="2" fill="hsl(20, 90%, 50%)" />
<rect x="10" y="36" width="2" height="2" fill="hsl(20, 90%, 50%)" />
<rect x="72" y="38" width="2" height="2" fill="hsl(20, 90%, 50%)" />
<rect x="6" y="40" width="2" height="2" fill="hsl(20, 90%, 50%)" />
<rect x="68" y="42" width="2" height="2" fill="hsl(20, 90%, 50%)" />
<rect x="70" y="42" width="2" height="2" fill="hsl(20, 90%, 50%)" />
<rect x="4" y="44" width="2" height="2" fill="hsl(20, 90%, 50%)" />
<rect x="6" y="44" width="2" height="2" fill="hsl(20, 90%, 50%)" />
<rect x="56" y="44" width="2" height="2" fill="hsl(20, 90%, 50%)" />
<rect x="52" y="46" width="2" height="2" fill="hsl(20, 90%, 50%)" />
<rect x="56" y="46" width="2" height="2" fill="hsl(20, 90%, 50%)" />
<rect x="68" y="46" width="2" height="2" fill="hsl(20, 90%, 50%)" />
<rect x="8" y="48" width="2" height="2" fill="hsl(20, 90%, 50%)" />
<rect x="48" y="48" width="2" height="2" fill="hsl(20, 90%, 50%)" />
<rect x="60" y="48" width="2" height="2" fill="hsl(20, 90%, 50%)" />
<rect x="64" y="48" width="2" height="2" fill="hsl(20, 90%, 50%)" />
<rect x="44" y="50" width="2" height="2" fill="hsl(20, 90%, 50%)" />
<rect x="48" y="50" width="2" height="2" fill="hsl(20, 90%, 50%)" />
<rect x="64" y="50" width="2" height="2" fill="hsl(20, 90%, 50%)" />
<rect x="8" y="52" width="2" height="2" fill="hsl(20, 90%, 50%)" />
<rect x="10" y="52" width="2" height="2" fill="hsl(20, 90%, 50%)" />
<rect x="24" y="52" width="2" height="2" fill="hsl(20, 90%, 50%)" />
<rect x="40" y="52" width="2" height="2" fill="hsl(20, 90%, 50%)" />
<rect x="20" y="54" width="2" height="2" fill="hsl(20, 90%, 50%)" />
<rect x="24" y="54" width="2" height="2" fill="hsl(20, 90%, 50%)" />
<rect x="36" y="54" width="2" height="2" fill="hsl(20, 90%, 50%)" />
<rect x="40" y="54" width="2" height="2" fill="hsl(20, 90%, 50%)" />
<rect x="12" y="56" width="2" height="2" fill="hsl(20, 90%, 50%)" />
<rect x="16" y="56" width="2" height="2" fill="hsl(20, 90%, 50%)" />
<rect x="28" y="56" width="2" height="2" fill="hsl(20, 90%, 50%)" />
<rect x="32" y="56" width="2" height="2" fill="hsl(20, 90%, 50%)" />
<rect x="16" y="58" width="2" height="2" fill="hsl(20, 90%, 50%)" />
<rect x="32" y="58" width="2" height="2" fill="hsl(20, 90%, 50%)" />
</svg>