<?xml version="1.0" encoding="utf-8"?>
<svg xmlns="http://www.w3.org/2000/svg" width="65" height="11" viewBox="0 0 65 11">
<rect width="100%" height="100%" fill="transparent" />
<rect x="4" y="4" width="1" height="1" fill="hsl(20, 90%, 50%)" />
<rect x="5" y="4" width="1" height="1" fill="hsl(20, 90%, 50%)" />
<rect x="6" y="4" width="1" height="1" fill="hsl(20, 90%, 50%)" />
<rect x="22" y="4" width="1" height="1" fill="hsl(20, 90%, 50%)" />
<rect x="23" y="4" width="1" height="1" fill="hsl(20, 90%, 50%)" />
<rect x="24" y="4" width="1" height="1" fill="hsl(20, 90%, 50%)" />
<rect x="40" y="4" width="1" height="1" fill="hsl(20, 90%, 50%)" />
<rect x="41" y="4" width="1" height="1" fill="hsl(20, 90%, 50%)" />
<rect x="42" y="4" width="1" height="1" fill="hsl(20, 90%, 50%)" />
<rect x="58" y="4" width="1" height="1" fill="hsl(20, 90%, 50%)" />
<rect x="59" y="4" width="1" height="1" fill="hsl(20, 90%, 50%)" />
<rect x="60" y="4" width="1" height="1" fill="hsl(20, 90%, 50%)" />
<rect x="4" y="5" width="1" height="1" fill="hsl(20, 90%, 50%)" />
<rect x="6" y="5" width="1" height="1" fill="hsl(20, 90%, 50%)" />
<rect x="22" y="5" width="1" height="1" fill="hsl(20, 90%, 50%)" />
<rect x="24" y="5" width="1" height="1" fill="hsl(20, 90%, 50%)" />
<rect x="40" y="5" width="1" height="1" fill="hsl(20, 90%, 50%)" />
<rect x="42" y="5" width="1" height="1" fill="hsl(20, 90%, 50%)" />
<rect x="58" y="5" width="1" height="1" fill="hsl(20, 90%, 50%)" />
<rect x="60" y="5" width="1" height="1" fill="hsl(20, 90%, 50%)" />
<rect x="4" y="6" width="1" height="1" fill="hsl(20, 90%, 50%)" />
<rect x="6" y="6" width="1" height="1" fill="hsl(20, 90%, 50%)" />
<rect x="22" y="6" width="1" height="1" fill="hsl(20, 90%, 50%)" />
<rect x="24" y="6" width="1" height="1" fill="hsl(20, 90%, 50%)" />
<rect x="40" y="6" width="1" height="1" fill="hsl(20, 90%, 50%)" />
<rect x="42" y="6" width="1" height="1" fill="hsl(20, 90%, 50%)" />
<rect x="58" y="6" width="1" height="1" fill="hsl(20, 90%, 50%)" />
<rect x="60" y="6" width="1" height="1" fill="hsl(20, 90%, 50%)" />
</svg>