<?xml version="1.0" encoding="utf-8"?>
<svg xmlns="http://www.w3.org/2000/svg" width="59" height="40" viewBox="0 0 59 40">
<rect width="100%" height="100%" fill="transparent" />
<rect x="11" y="4" width="1" height="1" fill="hsl(20, 90%, 50%)" />
<rect x="19" y="4" width="1" height="1" fill="hsl(20, 90%, 50%)" />
<rect x="38" y="4" width="1" height="1" fill="hsl(20, 90%, 50%)" />
<rect x="46" y="4" width="1" height="1" fill="hsl(20, 90%, 50%)" />
<rect x="10" y="5" width="1" height="1" fill="hsl(20, 90%, 50%)" />
<rect x="11" y="5" width="1" height="1" fill="hsl(20, 90%, 50%)" />
<rect x="12" y="5" width="1" height="1" fill="hsl(20, 90%, 50%)" />
<rect x="18" y="5" width="1" height="1" fill="hsl(20, 90%, 50%)" />
<rect x="19" y="5" width="1" height="1" fill="hsl(20, 90%, 50%)" />
<rect x="20" y="5" width="1" height="1" fill="hsl(20, 90%, 50%)" />
<rect x="37" y="5" width="1" height="1" fill="hsl(20, 90%, 50%)" />
<rect x="38" y="5" width="1" height="1" fill="hsl(20, 90%, 50%)" />
<rect x="39" y="5" width="1" height="1" fill="hsl(20, 90%, 50%)" />
<rect x="45" y="5" width="1" height="1" fill="hsl(20, 90%, 50%)" />
<rect x="46" y="5" width="1" height="1" fill="hsl(20, 90%, 50%)" />
<rect x="47" y="5" width="1" height="1" fill="hsl(20, 90%, 50%)" />
<rect x="9" y="6" width="1" height="1" fill="hsl(20, 90%, 50%)" />
<rect x="12" y="6" width="1" height="1" fill="hsl(20, 90%, 50%)" />
<rect x="13" y="6" width="1" height="1" fill="hsl(20, 90%, 50%)" />
<rect x="17" y="6" width="1" height="1" fill="hsl(20, 90%, 50%)" />
<rect x="18" y="6" width="1" height="1" fill="hsl(20, 90%, 50%)" />
<rect x="21" y="6" width="1" height="1" fill="hsl(20, 90%, 50%)" />
<rect x="36" y="6" width="1" height="1" fill="hsl(20, 90%, 50%)" />
<rect x="37" y="6" width="1" height="1" fill="hsl(20, 90%, 50%)" />
<rect x="39" y="6" width="1" height="1" fill="hsl(20, 90%, 50%)" />
<rect x="45" y="6" width="1" height="1" fill="hsl(20, 90%, 50%)" />
<rect x="47" y="6" width="1" height="1" fill="hsl(20, 90%, 50%)" />
<rect x="48" y="6" width="1" height="1" fill="hsl(20, 90%, 50%)" />
<rect x="9" y="7" width="1" height="1" fill="hsl(20, 90%, 50%)" />
<rect x="13" y="7" width="1" height="1" fill="hsl(20, 90%, 50%)" />
<rect x="17" y="7" width="1" height="1" fill="hsl(20, 90%, 50%)" />
<rect x="21" y="7" width="1" height="1" fill="hsl(20, 90%, 50%)" />
<rect x="37" y="7" width="1" height="1" fill="hsl(20, 90%, 50%)" />
<rect x="38" y="7" width="1" height="1" fill="hsl(20, 90%, 50%)" />
<rect x="40" y="7" width="1" height="1" fill="hsl(20, 90%, 50%)" />
<rect x="44" y="7" width="1" height="1" fill="hsl(20, 90%, 50%)" />
<rect x="46" y="7" width="1" height="1" fill="hsl(20, 90%, 50%)" />
<rect x="47" y="7" width="1" height="1" fill="hsl(20, 90%, 50%)" />
<rect x="10" y="8" width="1" height="1" fill="hsl(20, 90%, 50%)" />
<rect x="11" y="8" width="1" height="1" fill="hsl(20, 90%, 50%)" />
<rect x="13" y="8" width="1" height="1" fill="hsl(20, 90%, 50%)" />
<rect x="14" y="8" width="1" height="1" fill="hsl(20, 90%, 50%)" />
<rect x="16" y="8" width="1" height="1" fill="hsl(20, 90%, 50%)" />
<rect x="17" y="8" width="1" height="1" fill="hsl(20, 90%, 50%)" />
<rect x="19" y="8" width="1" height="1" fill="hsl(20, 90%, 50%)" />
<rect x="20" y="8" width="1" height="1" fill="hsl(20, 90%, 50%)" />
<rect x="35" y="8" width="1" height="1" fill="hsl(20, 90%, 50%)" />
<rect x="37" y="8" width="1" height="1" fill="hsl(20, 90%, 50%)" />
<rect x="38" y="8" width="1" height="1" fill="hsl(20, 90%, 50%)" />
<rect x="46" y="8" width="1" height="1" fill="hsl(20, 90%, 50%)" />
<rect x="47" y="8" width="1" height="1" fill="hsl(20, 90%, 50%)" />
<rect x="49" y="8" width="1" height="1" fill="hsl(20, 90%, 50%)" />
<rect x="10" y="9" width="1" height="1" fill="hsl(20, 90%, 50%)" />
<rect x="11" y="9" width="1" height="1" fill="hsl(20, 90%, 50%)" />
<rect x="13" y="9" width="1" height="1" fill="hsl(20, 90%, 50%)" />
<rect x="17" y="9" width="1" height="1" fill="hsl(20, 90%, 50%)" />
<rect x="19" y="9" width="1" height="1" fill="hsl(20, 90%, 50%)" />
<rect x="20" y="9" width="1" height="1" fill="hsl(20, 90%, 50%)" />
<rect x="34" y="9" width="1" height="1" fill="hsl(20, 90%, 50%)" />
<rect x="36" y="9" width="1" height="1" fill="hsl(20, 90%, 50%)" />
<rect x="39" y="9" width="1" height="1" fill="hsl(20, 90%, 50%)" />
<rect x="41" y="9" width="1" height="1" fill="hsl(20, 90%, 50%)" />
<rect x="43" y="9" width="1" height="1" fill="hsl(20, 90%, 50%)" />
<rect x="45" y="9" width="1" height="1" fill="hsl(20, 90%, 50%)" />
<rect x="48" y="9" width="1" height="1" fill="hsl(20, 90%, 50%)" />
<rect x="50" y="9" width="1" height="1" fill="hsl(20, 90%, 50%)" />
<rect x="12" y="10" width="1" height="1" fill="hsl(20, 90%, 50%)" />
<rect x="18" y="10" width="1" height="1" fill="hsl(20, 90%, 50%)" />
<rect x="34" y="10" width="1" height="1" fill="hsl(20, 90%, 50%)" />
<rect x="36" y="10" width="1" height="1" fill="hsl(20, 90%, 50%)" />
<rect x="40" y="10" width="1" height="1" fill="hsl(20, 90%, 50%)" />
<rect x="41" y="10" width="1" height="1" fill="hsl(20, 90%, 50%)" />
<rect x="43" y="10" width="1" height="1" fill="hsl(20, 90%, 50%)" />
<rect x="44" y="10" width="1" height="1" fill="hsl(20, 90%, 50%)" />
<rect x="48" y="10" width="1" height="1" fill="hsl(20, 90%, 50%)" />
<rect x="50" y="10" width="1" height="1" fill="hsl(20, 90%, 50%)" />
<rect x="13" y="11" width="1" height="1" fill="hsl(20, 90%, 50%)" />
<rect x="14" y="11" width="1" height="1" fill="hsl(20, 90%, 50%)" />
<rect x="16" y="11" width="1" height="1" fill="hsl(20, 90%, 50%)" />
<rect x="17" y="11" width="1" height="1" fill="hsl(20, 90%, 50%)" />
<rect x="35" y="11" width="1" height="1" fill="hsl(20, 90%, 50%)" />
<rect x="36" y="11" width="1" height="1" fill="hsl(20, 90%, 50%)" />
<rect x="37" y="11" width="1" height="1" fill="hsl(20, 90%, 50%)" />
<rect x="39" y="11" width="1" height="1" fill="hsl(20, 90%, 50%)" />
<rect x="45" y="11" width="1" height="1" fill="hsl(20, 90%, 50%)" />
<rect x="47" y="11" width="1" height="1" fill="hsl(20, 90%, 50%)" />
<rect x="48" y="11" width="1" height="1" fill="hsl(20, 90%, 50%)" />
<rect x="49" y="11" width="1" height="1" fill="hsl(20, 90%, 50%)" />
<rect x="8" y="12" width="1" height="1" fill="hsl(20, 90%, 50%)" />
<rect x="9" y="12" width="1" height="1" fill="hsl(20, 90%, 50%)" />
<rect x="12" y="12" width="1" height="1" fill="hsl(20, 90%, 50%)" />
<rect x="18" y="12" width="1" height="1" fill="hsl(20, 90%, 50%)" />
<rect x="21" y="12" width="1" height="1" fill="hsl(20, 90%, 50%)" />
<rect x="22" y="12" width="1" height="1" fill="hsl(20, 90%, 50%)" />
<rect x="36" y="12" width="1" height="1" fill="hsl(20, 90%, 50%)" />
<rect x="37" y="12" width="1" height="1" fill="hsl(20, 90%, 50%)" />
<rect x="38" y="12" width="1" height="1" fill="hsl(20, 90%, 50%)" />
<rect x="46" y="12" width="1" height="1" fill="hsl(20, 90%, 50%)" />
<rect x="47" y="12" width="1" height="1" fill="hsl(20, 90%, 50%)" />
<rect x="48" y="12" width="1" height="1" fill="hsl(20, 90%, 50%)" />
<rect x="8" y="13" width="1" height="1" fill="hsl(20, 90%, 50%)" />
<rect x="9" y="13" width="1" height="1" fill="hsl(20, 90%, 50%)" />
<rect x="12" y="13" width="1" height="1" fill="hsl(20, 90%, 50%)" />
<rect x="18" y="13" width="1" height="1" fill="hsl(20, 90%, 50%)" />
<rect x="21" y="13" width="1" height="1" fill="hsl(20, 90%, 50%)" />
<rect x="22" y="13" width="1" height="1" fill="hsl(20, 90%, 50%)" />
<rect x="36" y="13" width="1" height="1" fill="hsl(20, 90%, 50%)" />
<rect x="37" y="13" width="1" height="1" fill="hsl(20, 90%, 50%)" />
<rect x="47" y="13" width="1" height="1" fill="hsl(20, 90%, 50%)" />
<rect x="48" y="13" width="1" height="1" fill="hsl(20, 90%, 50%)" />
<rect x="36" y="14" width="1" height="1" fill="hsl(20, 90%, 50%)" />
<rect x="48" y="14" width="1" height="1" fill="hsl(20, 90%, 50%)" />
<rect x="12" y="15" width="1" height="1" fill="hsl(20, 90%, 50%)" />
<rect x="14" y="15" width="1" height="1" fill="hsl(20, 90%, 50%)" />
<rect x="16" y="15" width="1" height="1" fill="hsl(20, 90%, 50%)" />
<rect x="18" y="15" width="1" height="1" fill="hsl(20, 90%, 50%)" />
<rect x="35" y="15" width="1" height="1" fill="hsl(20, 90%, 50%)" />
<rect x="36" y="15" width="1" height="1" fill="hsl(20, 90%, 50%)" />
<rect x="48" y="15" width="1" height="1" fill="hsl(20, 90%, 50%)" />
<rect x="49" y="15" width="1" height="1" fill="hsl(20, 90%, 50%)" />
<rect x="12" y="16" width="1" height="1" fill="hsl(20, 90%, 50%)" />
<rect x="13" y="16" width="1" height="1" fill="hsl(20, 90%, 50%)" />
<rect x="17" y="16" width="1" height="1" fill="hsl(20, 90%, 50%)" />
<rect x="18" y="16" width="1" height="1" fill="hsl(20, 90%, 50%)" />
<rect x="35" y="16" width="1" height="1" fill="hsl(20, 90%, 50%)" />
<rect x="36" y="16" width="1" height="1" fill="hsl(20, 90%, 50%)" />
<rect x="48" y="16" width="1" height="1" fill="hsl(20, 90%, 50%)" />
<rect x="49" y="16" width="1" height="1" fill="hsl(20, 90%, 50%)" />
<rect x="39" y="18" width="1" height="1" fill="hsl(20, 90%, 50%)" />
<rect x="40" y="18" width="1" height="1" fill="hsl(20, 90%, 50%)" />
<rect x="44" y="18" width="1" height="1" fill="hsl(20, 90%, 50%)" />
<rect x="45" y="18" width="1" height="1" fill="hsl(20, 90%, 50%)" />
<rect x="23" y="19" width="1" height="1" fill="hsl(20, 90%, 50%)" />
<rect x="34" y="19" width="1" height="1" fill="hsl(20, 90%, 50%)" />
<rect x="39" y="19" width="1" height="1" fill="hsl(20, 90%, 50%)" />
<rect x="40" y="19" width="1" height="1" fill="hsl(20, 90%, 50%)" />
<rect x="44" y="19" width="1" height="1" fill="hsl(20, 90%, 50%)" />
<rect x="45" y="19" width="1" height="1" fill="hsl(20, 90%, 50%)" />
<rect x="7" y="20" width="1" height="1" fill="hsl(20, 90%, 50%)" />
<rect x="22" y="20" width="1" height="1" fill="hsl(20, 90%, 50%)" />
<rect x="23" y="20" width="1" height="1" fill="hsl(20, 90%, 50%)" />
<rect x="24" y="20" width="1" height="1" fill="hsl(20, 90%, 50%)" />
<rect x="33" y="20" width="1" height="1" fill="hsl(20, 90%, 50%)" />
<rect x="34" y="20" width="1" height="1" fill="hsl(20, 90%, 50%)" />
<rect x="35" y="20" width="1" height="1" fill="hsl(20, 90%, 50%)" />
<rect x="50" y="20" width="1" height="1" fill="hsl(20, 90%, 50%)" />
<rect x="6" y="21" width="1" height="1" fill="hsl(20, 90%, 50%)" />
<rect x="7" y="21" width="1" height="1" fill="hsl(20, 90%, 50%)" />
<rect x="8" y="21" width="1" height="1" fill="hsl(20, 90%, 50%)" />
<rect x="12" y="21" width="1" height="1" fill="hsl(20, 90%, 50%)" />
<rect x="13" y="21" width="1" height="1" fill="hsl(20, 90%, 50%)" />
<rect x="17" y="21" width="1" height="1" fill="hsl(20, 90%, 50%)" />
<rect x="19" y="21" width="1" height="1" fill="hsl(20, 90%, 50%)" />
<rect x="21" y="21" width="1" height="1" fill="hsl(20, 90%, 50%)" />
<rect x="22" y="21" width="1" height="1" fill="hsl(20, 90%, 50%)" />
<rect x="24" y="21" width="1" height="1" fill="hsl(20, 90%, 50%)" />
<rect x="32" y="21" width="1" height="1" fill="hsl(20, 90%, 50%)" />
<rect x="33" y="21" width="1" height="1" fill="hsl(20, 90%, 50%)" />
<rect x="35" y="21" width="1" height="1" fill="hsl(20, 90%, 50%)" />
<rect x="49" y="21" width="1" height="1" fill="hsl(20, 90%, 50%)" />
<rect x="50" y="21" width="1" height="1" fill="hsl(20, 90%, 50%)" />
<rect x="51" y="21" width="1" height="1" fill="hsl(20, 90%, 50%)" />
<rect x="5" y="22" width="1" height="1" fill="hsl(20, 90%, 50%)" />
<rect x="6" y="22" width="1" height="1" fill="hsl(20, 90%, 50%)" />
<rect x="9" y="22" width="1" height="1" fill="hsl(20, 90%, 50%)" />
<rect x="12" y="22" width="1" height="1" fill="hsl(20, 90%, 50%)" />
<rect x="13" y="22" width="1" height="1" fill="hsl(20, 90%, 50%)" />
<rect x="23" y="22" width="1" height="1" fill="hsl(20, 90%, 50%)" />
<rect x="32" y="22" width="1" height="1" fill="hsl(20, 90%, 50%)" />
<rect x="33" y="22" width="1" height="1" fill="hsl(20, 90%, 50%)" />
<rect x="34" y="22" width="1" height="1" fill="hsl(20, 90%, 50%)" />
<rect x="48" y="22" width="1" height="1" fill="hsl(20, 90%, 50%)" />
<rect x="49" y="22" width="1" height="1" fill="hsl(20, 90%, 50%)" />
<rect x="51" y="22" width="1" height="1" fill="hsl(20, 90%, 50%)" />
<rect x="5" y="23" width="1" height="1" fill="hsl(20, 90%, 50%)" />
<rect x="6" y="23" width="1" height="1" fill="hsl(20, 90%, 50%)" />
<rect x="7" y="23" width="1" height="1" fill="hsl(20, 90%, 50%)" />
<rect x="8" y="23" width="1" height="1" fill="hsl(20, 90%, 50%)" />
<rect x="10" y="23" width="1" height="1" fill="hsl(20, 90%, 50%)" />
<rect x="17" y="23" width="1" height="1" fill="hsl(20, 90%, 50%)" />
<rect x="21" y="23" width="1" height="1" fill="hsl(20, 90%, 50%)" />
<rect x="23" y="23" width="1" height="1" fill="hsl(20, 90%, 50%)" />
<rect x="32" y="23" width="1" height="1" fill="hsl(20, 90%, 50%)" />
<rect x="33" y="23" width="1" height="1" fill="hsl(20, 90%, 50%)" />
<rect x="34" y="23" width="1" height="1" fill="hsl(20, 90%, 50%)" />
<rect x="48" y="23" width="1" height="1" fill="hsl(20, 90%, 50%)" />
<rect x="49" y="23" width="1" height="1" fill="hsl(20, 90%, 50%)" />
<rect x="4" y="24" width="1" height="1" fill="hsl(20, 90%, 50%)" />
<rect x="5" y="24" width="1" height="1" fill="hsl(20, 90%, 50%)" />
<rect x="11" y="24" width="1" height="1" fill="hsl(20, 90%, 50%)" />
<rect x="19" y="24" width="1" height="1" fill="hsl(20, 90%, 50%)" />
<rect x="20" y="24" width="1" height="1" fill="hsl(20, 90%, 50%)" />
<rect x="23" y="24" width="1" height="1" fill="hsl(20, 90%, 50%)" />
<rect x="24" y="24" width="1" height="1" fill="hsl(20, 90%, 50%)" />
<rect x="32" y="24" width="1" height="1" fill="hsl(20, 90%, 50%)" />
<rect x="33" y="24" width="1" height="1" fill="hsl(20, 90%, 50%)" />
<rect x="34" y="24" width="1" height="1" fill="hsl(20, 90%, 50%)" />
<rect x="35" y="24" width="1" height="1" fill="hsl(20, 90%, 50%)" />
<rect x="50" y="24" width="1" height="1" fill="hsl(20, 90%, 50%)" />
<rect x="51" y="24" width="1" height="1" fill="hsl(20, 90%, 50%)" />
<rect x="5" y="25" width="1" height="1" fill="hsl(20, 90%, 50%)" />
<rect x="22" y="25" width="1" height="1" fill="hsl(20, 90%, 50%)" />
<rect x="25" y="25" width="1" height="1" fill="hsl(20, 90%, 50%)" />
<rect x="32" y="25" width="1" height="1" fill="hsl(20, 90%, 50%)" />
<rect x="35" y="25" width="1" height="1" fill="hsl(20, 90%, 50%)" />
<rect x="47" y="25" width="1" height="1" fill="hsl(20, 90%, 50%)" />
<rect x="50" y="25" width="1" height="1" fill="hsl(20, 90%, 50%)" />
<rect x="51" y="25" width="1" height="1" fill="hsl(20, 90%, 50%)" />
<rect x="5" y="26" width="1" height="1" fill="hsl(20, 90%, 50%)" />
<rect x="7" y="26" width="1" height="1" fill="hsl(20, 90%, 50%)" />
<rect x="8" y="26" width="1" height="1" fill="hsl(20, 90%, 50%)" />
<rect x="9" y="26" width="1" height="1" fill="hsl(20, 90%, 50%)" />
<rect x="12" y="26" width="1" height="1" fill="hsl(20, 90%, 50%)" />
<rect x="17" y="26" width="1" height="1" fill="hsl(20, 90%, 50%)" />
<rect x="19" y="26" width="1" height="1" fill="hsl(20, 90%, 50%)" />
<rect x="22" y="26" width="1" height="1" fill="hsl(20, 90%, 50%)" />
<rect x="23" y="26" width="1" height="1" fill="hsl(20, 90%, 50%)" />
<rect x="31" y="26" width="1" height="1" fill="hsl(20, 90%, 50%)" />
<rect x="32" y="26" width="1" height="1" fill="hsl(20, 90%, 50%)" />
<rect x="47" y="26" width="1" height="1" fill="hsl(20, 90%, 50%)" />
<rect x="52" y="26" width="1" height="1" fill="hsl(20, 90%, 50%)" />
<rect x="5" y="27" width="1" height="1" fill="hsl(20, 90%, 50%)" />
<rect x="7" y="27" width="1" height="1" fill="hsl(20, 90%, 50%)" />
<rect x="11" y="27" width="1" height="1" fill="hsl(20, 90%, 50%)" />
<rect x="12" y="27" width="1" height="1" fill="hsl(20, 90%, 50%)" />
<rect x="17" y="27" width="1" height="1" fill="hsl(20, 90%, 50%)" />
<rect x="19" y="27" width="1" height="1" fill="hsl(20, 90%, 50%)" />
<rect x="22" y="27" width="1" height="1" fill="hsl(20, 90%, 50%)" />
<rect x="23" y="27" width="1" height="1" fill="hsl(20, 90%, 50%)" />
<rect x="27" y="27" width="1" height="1" fill="hsl(20, 90%, 50%)" />
<rect x="32" y="27" width="1" height="1" fill="hsl(20, 90%, 50%)" />
<rect x="34" y="27" width="1" height="1" fill="hsl(20, 90%, 50%)" />
<rect x="46" y="27" width="1" height="1" fill="hsl(20, 90%, 50%)" />
<rect x="49" y="27" width="1" height="1" fill="hsl(20, 90%, 50%)" />
<rect x="51" y="27" width="1" height="1" fill="hsl(20, 90%, 50%)" />
<rect x="5" y="28" width="1" height="1" fill="hsl(20, 90%, 50%)" />
<rect x="6" y="28" width="1" height="1" fill="hsl(20, 90%, 50%)" />
<rect x="13" y="28" width="1" height="1" fill="hsl(20, 90%, 50%)" />
<rect x="16" y="28" width="1" height="1" fill="hsl(20, 90%, 50%)" />
<rect x="24" y="28" width="1" height="1" fill="hsl(20, 90%, 50%)" />
<rect x="27" y="28" width="1" height="1" fill="hsl(20, 90%, 50%)" />
<rect x="32" y="28" width="1" height="1" fill="hsl(20, 90%, 50%)" />
<rect x="33" y="28" width="1" height="1" fill="hsl(20, 90%, 50%)" />
<rect x="34" y="28" width="1" height="1" fill="hsl(20, 90%, 50%)" />
<rect x="45" y="28" width="1" height="1" fill="hsl(20, 90%, 50%)" />
<rect x="46" y="28" width="1" height="1" fill="hsl(20, 90%, 50%)" />
<rect x="50" y="28" width="1" height="1" fill="hsl(20, 90%, 50%)" />
<rect x="51" y="28" width="1" height="1" fill="hsl(20, 90%, 50%)" />
<rect x="4" y="29" width="1" height="1" fill="hsl(20, 90%, 50%)" />
<rect x="10" y="29" width="1" height="1" fill="hsl(20, 90%, 50%)" />
<rect x="12" y="29" width="1" height="1" fill="hsl(20, 90%, 50%)" />
<rect x="17" y="29" width="1" height="1" fill="hsl(20, 90%, 50%)" />
<rect x="19" y="29" width="1" height="1" fill="hsl(20, 90%, 50%)" />
<rect x="24" y="29" width="1" height="1" fill="hsl(20, 90%, 50%)" />
<rect x="26" y="29" width="1" height="1" fill="hsl(20, 90%, 50%)" />
<rect x="27" y="29" width="1" height="1" fill="hsl(20, 90%, 50%)" />
<rect x="44" y="29" width="1" height="1" fill="hsl(20, 90%, 50%)" />
<rect x="5" y="30" width="1" height="1" fill="hsl(20, 90%, 50%)" />
<rect x="6" y="30" width="1" height="1" fill="hsl(20, 90%, 50%)" />
<rect x="9" y="30" width="1" height="1" fill="hsl(20, 90%, 50%)" />
<rect x="12" y="30" width="1" height="1" fill="hsl(20, 90%, 50%)" />
<rect x="17" y="30" width="1" height="1" fill="hsl(20, 90%, 50%)" />
<rect x="24" y="30" width="1" height="1" fill="hsl(20, 90%, 50%)" />
<rect x="26" y="30" width="1" height="1" fill="hsl(20, 90%, 50%)" />
<rect x="27" y="30" width="1" height="1" fill="hsl(20, 90%, 50%)" />
<rect x="40" y="30" width="1" height="1" fill="hsl(20, 90%, 50%)" />
<rect x="45" y="30" width="1" height="1" fill="hsl(20, 90%, 50%)" />
<rect x="46" y="30" width="1" height="1" fill="hsl(20, 90%, 50%)" />
<rect x="5" y="31" width="1" height="1" fill="hsl(20, 90%, 50%)" />
<rect x="6" y="31" width="1" height="1" fill="hsl(20, 90%, 50%)" />
<rect x="10" y="31" width="1" height="1" fill="hsl(20, 90%, 50%)" />
<rect x="11" y="31" width="1" height="1" fill="hsl(20, 90%, 50%)" />
<rect x="19" y="31" width="1" height="1" fill="hsl(20, 90%, 50%)" />
<rect x="20" y="31" width="1" height="1" fill="hsl(20, 90%, 50%)" />
<rect x="24" y="31" width="1" height="1" fill="hsl(20, 90%, 50%)" />
<rect x="25" y="31" width="1" height="1" fill="hsl(20, 90%, 50%)" />
<rect x="27" y="31" width="1" height="1" fill="hsl(20, 90%, 50%)" />
<rect x="28" y="31" width="1" height="1" fill="hsl(20, 90%, 50%)" />
<rect x="31" y="31" width="1" height="1" fill="hsl(20, 90%, 50%)" />
<rect x="32" y="31" width="1" height="1" fill="hsl(20, 90%, 50%)" />
<rect x="39" y="31" width="1" height="1" fill="hsl(20, 90%, 50%)" />
<rect x="40" y="31" width="1" height="1" fill="hsl(20, 90%, 50%)" />
<rect x="41" y="31" width="1" height="1" fill="hsl(20, 90%, 50%)" />
<rect x="42" y="31" width="1" height="1" fill="hsl(20, 90%, 50%)" />
<rect x="43" y="31" width="1" height="1" fill="hsl(20, 90%, 50%)" />
<rect x="44" y="31" width="1" height="1" fill="hsl(20, 90%, 50%)" />
<rect x="28" y="32" width="1" height="1" fill="hsl(20, 90%, 50%)" />
<rect x="33" y="32" width="1" height="1" fill="hsl(20, 90%, 50%)" />
<rect x="38" y="32" width="1" height="1" fill="hsl(20, 90%, 50%)" />
<rect x="40" y="32" width="1" height="1" fill="hsl(20, 90%, 50%)" />
<rect x="42" y="32" width="1" height="1" fill="hsl(20, 90%, 50%)" />
<rect x="44" y="32" width="1" height="1" fill="hsl(20, 90%, 50%)" />
<rect x="52" y="32" width="1" height="1" fill="hsl(20, 90%, 50%)" />
<rect x="53" y="32" width="1" height="1" fill="hsl(20, 90%, 50%)" />
<rect x="54" y="32" width="1" height="1" fill="hsl(20, 90%, 50%)" />
<rect x="34" y="33" width="1" height="1" fill="hsl(20, 90%, 50%)" />
<rect x="38" y="33" width="1" height="1" fill="hsl(20, 90%, 50%)" />
<rect x="41" y="33" width="1" height="1" fill="hsl(20, 90%, 50%)" />
<rect x="51" y="33" width="1" height="1" fill="hsl(20, 90%, 50%)" />
<rect x="34" y="34" width="1" height="1" fill="hsl(20, 90%, 50%)" />
<rect x="39" y="34" width="1" height="1" fill="hsl(20, 90%, 50%)" />
<rect x="50" y="34" width="1" height="1" fill="hsl(20, 90%, 50%)" />
<rect x="33" y="35" width="1" height="1" fill="hsl(20, 90%, 50%)" />
<rect x="51" y="35" width="1" height="1" fill="hsl(20, 90%, 50%)" />
<rect x="53" y="35" width="1" height="1" fill="hsl(20, 90%, 50%)" />
</svg>