<?xml version="1.0" encoding="utf-8"?>
<svg xmlns="http://www.w3.org/2000/svg" width="64" height="45" viewBox="0 0 64 45">
<rect width="100%" height="100%" fill="transparent" />
<rect x="20" y="4" width="1" height="1" fill="hsl(20, 90%, 50%)" />
<rect x="21" y="4" width="1" height="1" fill="hsl(20, 90%, 50%)" />
<rect x="33" y="4" width="1" height="1" fill="hsl(20, 90%, 50%)" />
<rect x="40" y="4" width="1" height="1" fill="hsl(20, 90%, 50%)" />
<rect x="41" y="4" width="1" height="1" fill="hsl(20, 90%, 50%)" />
<rect x="20" y="5" width="1" height="1" fill="hsl(20, 90%, 50%)" />
<rect x="21" y="5" width="1" height="1" fill="hsl(20, 90%, 50%)" />
<rect x="32" y="5" width="1" height="1" fill="hsl(20, 90%, 50%)" />
<rect x="34" y="5" width="1" height="1" fill="hsl(20, 90%, 50%)" />
<rect x="39" y="5" width="1" height="1" fill="hsl(20, 90%, 50%)" />
<rect x="42" y="5" width="1" height="1" fill="hsl(20, 90%, 50%)" />
<rect x="32" y="6" width="1" height="1" fill="hsl(20, 90%, 50%)" />
<rect x="34" y="6" width="1" height="1" fill="hsl(20, 90%, 50%)" />
<rect x="38" y="6" width="1" height="1" fill="hsl(20, 90%, 50%)" />
<rect x="40" y="6" width="1" height="1" fill="hsl(20, 90%, 50%)" />
<rect x="41" y="6" width="1" height="1" fill="hsl(20, 90%, 50%)" />
<rect x="42" y="6" width="1" height="1" fill="hsl(20, 90%, 50%)" />
<rect x="45" y="6" width="1" height="1" fill="hsl(20, 90%, 50%)" />
<rect x="46" y="6" width="1" height="1" fill="hsl(20, 90%, 50%)" />
<rect x="31" y="7" width="1" height="1" fill="hsl(20, 90%, 50%)" />
<rect x="32" y="7" width="1" height="1" fill="hsl(20, 90%, 50%)" />
<rect x="34" y="7" width="1" height="1" fill="hsl(20, 90%, 50%)" />
<rect x="35" y="7" width="1" height="1" fill="hsl(20, 90%, 50%)" />
<rect x="37" y="7" width="1" height="1" fill="hsl(20, 90%, 50%)" />
<rect x="39" y="7" width="1" height="1" fill="hsl(20, 90%, 50%)" />
<rect x="46" y="7" width="1" height="1" fill="hsl(20, 90%, 50%)" />
<rect x="35" y="8" width="1" height="1" fill="hsl(20, 90%, 50%)" />
<rect x="37" y="8" width="1" height="1" fill="hsl(20, 90%, 50%)" />
<rect x="41" y="8" width="1" height="1" fill="hsl(20, 90%, 50%)" />
<rect x="42" y="8" width="1" height="1" fill="hsl(20, 90%, 50%)" />
<rect x="46" y="8" width="1" height="1" fill="hsl(20, 90%, 50%)" />
<rect x="48" y="8" width="1" height="1" fill="hsl(20, 90%, 50%)" />
<rect x="31" y="9" width="1" height="1" fill="hsl(20, 90%, 50%)" />
<rect x="32" y="9" width="1" height="1" fill="hsl(20, 90%, 50%)" />
<rect x="34" y="9" width="1" height="1" fill="hsl(20, 90%, 50%)" />
<rect x="37" y="9" width="1" height="1" fill="hsl(20, 90%, 50%)" />
<rect x="38" y="9" width="1" height="1" fill="hsl(20, 90%, 50%)" />
<rect x="39" y="9" width="1" height="1" fill="hsl(20, 90%, 50%)" />
<rect x="40" y="9" width="1" height="1" fill="hsl(20, 90%, 50%)" />
<rect x="42" y="9" width="1" height="1" fill="hsl(20, 90%, 50%)" />
<rect x="47" y="9" width="1" height="1" fill="hsl(20, 90%, 50%)" />
<rect x="48" y="9" width="1" height="1" fill="hsl(20, 90%, 50%)" />
<rect x="31" y="10" width="1" height="1" fill="hsl(20, 90%, 50%)" />
<rect x="32" y="10" width="1" height="1" fill="hsl(20, 90%, 50%)" />
<rect x="34" y="10" width="1" height="1" fill="hsl(20, 90%, 50%)" />
<rect x="36" y="10" width="1" height="1" fill="hsl(20, 90%, 50%)" />
<rect x="40" y="10" width="1" height="1" fill="hsl(20, 90%, 50%)" />
<rect x="35" y="11" width="1" height="1" fill="hsl(20, 90%, 50%)" />
<rect x="37" y="11" width="1" height="1" fill="hsl(20, 90%, 50%)" />
<rect x="41" y="11" width="1" height="1" fill="hsl(20, 90%, 50%)" />
<rect x="36" y="12" width="1" height="1" fill="hsl(20, 90%, 50%)" />
<rect x="38" y="12" width="1" height="1" fill="hsl(20, 90%, 50%)" />
<rect x="42" y="12" width="1" height="1" fill="hsl(20, 90%, 50%)" />
<rect x="37" y="13" width="1" height="1" fill="hsl(20, 90%, 50%)" />
<rect x="41" y="13" width="1" height="1" fill="hsl(20, 90%, 50%)" />
<rect x="42" y="13" width="1" height="1" fill="hsl(20, 90%, 50%)" />
<rect x="57" y="13" width="1" height="1" fill="hsl(20, 90%, 50%)" />
<rect x="56" y="14" width="1" height="1" fill="hsl(20, 90%, 50%)" />
<rect x="58" y="14" width="1" height="1" fill="hsl(20, 90%, 50%)" />
<rect x="57" y="15" width="1" height="1" fill="hsl(20, 90%, 50%)" />
<rect x="28" y="17" width="1" height="1" fill="hsl(20, 90%, 50%)" />
<rect x="29" y="17" width="1" height="1" fill="hsl(20, 90%, 50%)" />
<rect x="28" y="18" width="1" height="1" fill="hsl(20, 90%, 50%)" />
<rect x="29" y="18" width="1" height="1" fill="hsl(20, 90%, 50%)" />
<rect x="13" y="19" width="1" height="1" fill="hsl(20, 90%, 50%)" />
<rect x="14" y="19" width="1" height="1" fill="hsl(20, 90%, 50%)" />
<rect x="12" y="20" width="1" height="1" fill="hsl(20, 90%, 50%)" />
<rect x="15" y="20" width="1" height="1" fill="hsl(20, 90%, 50%)" />
<rect x="11" y="21" width="1" height="1" fill="hsl(20, 90%, 50%)" />
<rect x="13" y="21" width="1" height="1" fill="hsl(20, 90%, 50%)" />
<rect x="14" y="21" width="1" height="1" fill="hsl(20, 90%, 50%)" />
<rect x="57" y="21" width="1" height="1" fill="hsl(20, 90%, 50%)" />
<rect x="58" y="21" width="1" height="1" fill="hsl(20, 90%, 50%)" />
<rect x="11" y="22" width="1" height="1" fill="hsl(20, 90%, 50%)" />
<rect x="57" y="22" width="1" height="1" fill="hsl(20, 90%, 50%)" />
<rect x="58" y="22" width="1" height="1" fill="hsl(20, 90%, 50%)" />
<rect x="10" y="23" width="1" height="1" fill="hsl(20, 90%, 50%)" />
<rect x="11" y="23" width="1" height="1" fill="hsl(20, 90%, 50%)" />
<rect x="25" y="24" width="1" height="1" fill="hsl(20, 90%, 50%)" />
<rect x="26" y="24" width="1" height="1" fill="hsl(20, 90%, 50%)" />
<rect x="25" y="25" width="1" height="1" fill="hsl(20, 90%, 50%)" />
<rect x="26" y="26" width="1" height="1" fill="hsl(20, 90%, 50%)" />
<rect x="27" y="26" width="1" height="1" fill="hsl(20, 90%, 50%)" />
<rect x="28" y="26" width="1" height="1" fill="hsl(20, 90%, 50%)" />
<rect x="28" y="27" width="1" height="1" fill="hsl(20, 90%, 50%)" />
<rect x="34" y="27" width="1" height="1" fill="hsl(20, 90%, 50%)" />
<rect x="35" y="27" width="1" height="1" fill="hsl(20, 90%, 50%)" />
<rect x="33" y="28" width="1" height="1" fill="hsl(20, 90%, 50%)" />
<rect x="35" y="28" width="1" height="1" fill="hsl(20, 90%, 50%)" />
<rect x="33" y="29" width="1" height="1" fill="hsl(20, 90%, 50%)" />
<rect x="32" y="30" width="1" height="1" fill="hsl(20, 90%, 50%)" />
<rect x="33" y="30" width="1" height="1" fill="hsl(20, 90%, 50%)" />
<rect x="40" y="33" width="1" height="1" fill="hsl(20, 90%, 50%)" />
<rect x="56" y="33" width="1" height="1" fill="hsl(20, 90%, 50%)" />
<rect x="57" y="33" width="1" height="1" fill="hsl(20, 90%, 50%)" />
<rect x="39" y="34" width="1" height="1" fill="hsl(20, 90%, 50%)" />
<rect x="41" y="34" width="1" height="1" fill="hsl(20, 90%, 50%)" />
<rect x="56" y="34" width="1" height="1" fill="hsl(20, 90%, 50%)" />
<rect x="58" y="34" width="1" height="1" fill="hsl(20, 90%, 50%)" />
<rect x="39" y="35" width="1" height="1" fill="hsl(20, 90%, 50%)" />
<rect x="41" y="35" width="1" height="1" fill="hsl(20, 90%, 50%)" />
<rect x="58" y="35" width="1" height="1" fill="hsl(20, 90%, 50%)" />
<rect x="40" y="36" width="1" height="1" fill="hsl(20, 90%, 50%)" />
<rect x="58" y="36" width="1" height="1" fill="hsl(20, 90%, 50%)" />
<rect x="59" y="36" width="1" height="1" fill="hsl(20, 90%, 50%)" />
<rect x="4" y="37" width="1" height="1" fill="hsl(20, 90%, 50%)" />
<rect x="5" y="37" width="1" height="1" fill="hsl(20, 90%, 50%)" />
<rect x="6" y="37" width="1" height="1" fill="hsl(20, 90%, 50%)" />
<rect x="44" y="37" width="1" height="1" fill="hsl(20, 90%, 50%)" />
<rect x="45" y="37" width="1" height="1" fill="hsl(20, 90%, 50%)" />
<rect x="6" y="38" width="1" height="1" fill="hsl(20, 90%, 50%)" />
<rect x="44" y="38" width="1" height="1" fill="hsl(20, 90%, 50%)" />
<rect x="46" y="38" width="1" height="1" fill="hsl(20, 90%, 50%)" />
<rect x="5" y="39" width="1" height="1" fill="hsl(20, 90%, 50%)" />
<rect x="46" y="39" width="1" height="1" fill="hsl(20, 90%, 50%)" />
<rect x="46" y="40" width="1" height="1" fill="hsl(20, 90%, 50%)" />
<rect x="47" y="40" width="1" height="1" fill="hsl(20, 90%, 50%)" />
</svg>