<?xml version="1.0" encoding="utf-8"?>
<svg xmlns="http://www.w3.org/2000/svg" width="57" height="20" viewBox="0 0 57 20">
<rect width="100%" height="100%" fill="transparent" />
<rect x="18" y="4" width="1" height="1" fill="hsl(20, 90%, 50%)" />
<rect x="19" y="4" width="1" height="1" fill="hsl(20, 90%, 50%)" />
<rect x="26" y="4" width="1" height="1" fill="hsl(20, 90%, 50%)" />
<rect x="27" y="4" width="1" height="1" fill="hsl(20, 90%, 50%)" />
<rect x="34" y="4" width="1" height="1" fill="hsl(20, 90%, 50%)" />
<rect x="35" y="4" width="1" height="1" fill="hsl(20, 90%, 50%)" />
<rect x="39" y="4" width="1" height="1" fill="hsl(20, 90%, 50%)" />
<rect x="41" y="4" width="1" height="1" fill="hsl(20, 90%, 50%)" />
<rect x="42" y="4" width="1" height="1" fill="hsl(20, 90%, 50%)" />
<rect x="8" y="5" width="1" height="1" fill="hsl(20, 90%, 50%)" />
<rect x="17" y="5" width="1" height="1" fill="hsl(20, 90%, 50%)" />
<rect x="20" y="5" width="1" height="1" fill="hsl(20, 90%, 50%)" />
<rect x="25" y="5" width="1" height="1" fill="hsl(20, 90%, 50%)" />
<rect x="28" y="5" width="1" height="1" fill="hsl(20, 90%, 50%)" />
<rect x="33" y="5" width="1" height="1" fill="hsl(20, 90%, 50%)" />
<rect x="36" y="5" width="1" height="1" fill="hsl(20, 90%, 50%)" />
<rect x="39" y="5" width="1" height="1" fill="hsl(20, 90%, 50%)" />
<rect x="40" y="5" width="1" height="1" fill="hsl(20, 90%, 50%)" />
<rect x="42" y="5" width="1" height="1" fill="hsl(20, 90%, 50%)" />
<rect x="4" y="6" width="1" height="1" fill="hsl(20, 90%, 50%)" />
<rect x="7" y="6" width="1" height="1" fill="hsl(20, 90%, 50%)" />
<rect x="9" y="6" width="1" height="1" fill="hsl(20, 90%, 50%)" />
<rect x="14" y="6" width="1" height="1" fill="hsl(20, 90%, 50%)" />
<rect x="18" y="6" width="1" height="1" fill="hsl(20, 90%, 50%)" />
<rect x="19" y="6" width="1" height="1" fill="hsl(20, 90%, 50%)" />
<rect x="22" y="6" width="1" height="1" fill="hsl(20, 90%, 50%)" />
<rect x="26" y="6" width="1" height="1" fill="hsl(20, 90%, 50%)" />
<rect x="27" y="6" width="1" height="1" fill="hsl(20, 90%, 50%)" />
<rect x="30" y="6" width="1" height="1" fill="hsl(20, 90%, 50%)" />
<rect x="34" y="6" width="1" height="1" fill="hsl(20, 90%, 50%)" />
<rect x="36" y="6" width="1" height="1" fill="hsl(20, 90%, 50%)" />
<rect x="42" y="6" width="1" height="1" fill="hsl(20, 90%, 50%)" />
<rect x="44" y="6" width="1" height="1" fill="hsl(20, 90%, 50%)" />
<rect x="45" y="6" width="1" height="1" fill="hsl(20, 90%, 50%)" />
<rect x="4" y="7" width="1" height="1" fill="hsl(20, 90%, 50%)" />
<rect x="5" y="7" width="1" height="1" fill="hsl(20, 90%, 50%)" />
<rect x="6" y="7" width="1" height="1" fill="hsl(20, 90%, 50%)" />
<rect x="7" y="7" width="1" height="1" fill="hsl(20, 90%, 50%)" />
<rect x="9" y="7" width="1" height="1" fill="hsl(20, 90%, 50%)" />
<rect x="12" y="7" width="1" height="1" fill="hsl(20, 90%, 50%)" />
<rect x="13" y="7" width="1" height="1" fill="hsl(20, 90%, 50%)" />
<rect x="14" y="7" width="1" height="1" fill="hsl(20, 90%, 50%)" />
<rect x="15" y="7" width="1" height="1" fill="hsl(20, 90%, 50%)" />
<rect x="16" y="7" width="1" height="1" fill="hsl(20, 90%, 50%)" />
<rect x="17" y="7" width="1" height="1" fill="hsl(20, 90%, 50%)" />
<rect x="20" y="7" width="1" height="1" fill="hsl(20, 90%, 50%)" />
<rect x="21" y="7" width="1" height="1" fill="hsl(20, 90%, 50%)" />
<rect x="22" y="7" width="1" height="1" fill="hsl(20, 90%, 50%)" />
<rect x="23" y="7" width="1" height="1" fill="hsl(20, 90%, 50%)" />
<rect x="24" y="7" width="1" height="1" fill="hsl(20, 90%, 50%)" />
<rect x="25" y="7" width="1" height="1" fill="hsl(20, 90%, 50%)" />
<rect x="28" y="7" width="1" height="1" fill="hsl(20, 90%, 50%)" />
<rect x="29" y="7" width="1" height="1" fill="hsl(20, 90%, 50%)" />
<rect x="30" y="7" width="1" height="1" fill="hsl(20, 90%, 50%)" />
<rect x="31" y="7" width="1" height="1" fill="hsl(20, 90%, 50%)" />
<rect x="32" y="7" width="1" height="1" fill="hsl(20, 90%, 50%)" />
<rect x="33" y="7" width="1" height="1" fill="hsl(20, 90%, 50%)" />
<rect x="36" y="7" width="1" height="1" fill="hsl(20, 90%, 50%)" />
<rect x="37" y="7" width="1" height="1" fill="hsl(20, 90%, 50%)" />
<rect x="38" y="7" width="1" height="1" fill="hsl(20, 90%, 50%)" />
<rect x="39" y="7" width="1" height="1" fill="hsl(20, 90%, 50%)" />
<rect x="40" y="7" width="1" height="1" fill="hsl(20, 90%, 50%)" />
<rect x="41" y="7" width="1" height="1" fill="hsl(20, 90%, 50%)" />
<rect x="43" y="7" width="1" height="1" fill="hsl(20, 90%, 50%)" />
<rect x="45" y="7" width="1" height="1" fill="hsl(20, 90%, 50%)" />
<rect x="9" y="8" width="1" height="1" fill="hsl(20, 90%, 50%)" />
<rect x="11" y="8" width="1" height="1" fill="hsl(20, 90%, 50%)" />
<rect x="17" y="8" width="1" height="1" fill="hsl(20, 90%, 50%)" />
<rect x="19" y="8" width="1" height="1" fill="hsl(20, 90%, 50%)" />
<rect x="25" y="8" width="1" height="1" fill="hsl(20, 90%, 50%)" />
<rect x="27" y="8" width="1" height="1" fill="hsl(20, 90%, 50%)" />
<rect x="33" y="8" width="1" height="1" fill="hsl(20, 90%, 50%)" />
<rect x="35" y="8" width="1" height="1" fill="hsl(20, 90%, 50%)" />
<rect x="41" y="8" width="1" height="1" fill="hsl(20, 90%, 50%)" />
<rect x="43" y="8" width="1" height="1" fill="hsl(20, 90%, 50%)" />
<rect x="50" y="8" width="1" height="1" fill="hsl(20, 90%, 50%)" />
<rect x="51" y="8" width="1" height="1" fill="hsl(20, 90%, 50%)" />
<rect x="6" y="9" width="1" height="1" fill="hsl(20, 90%, 50%)" />
<rect x="7" y="9" width="1" height="1" fill="hsl(20, 90%, 50%)" />
<rect x="9" y="9" width="1" height="1" fill="hsl(20, 90%, 50%)" />
<rect x="11" y="9" width="1" height="1" fill="hsl(20, 90%, 50%)" />
<rect x="13" y="9" width="1" height="1" fill="hsl(20, 90%, 50%)" />
<rect x="15" y="9" width="1" height="1" fill="hsl(20, 90%, 50%)" />
<rect x="19" y="9" width="1" height="1" fill="hsl(20, 90%, 50%)" />
<rect x="21" y="9" width="1" height="1" fill="hsl(20, 90%, 50%)" />
<rect x="23" y="9" width="1" height="1" fill="hsl(20, 90%, 50%)" />
<rect x="27" y="9" width="1" height="1" fill="hsl(20, 90%, 50%)" />
<rect x="29" y="9" width="1" height="1" fill="hsl(20, 90%, 50%)" />
<rect x="31" y="9" width="1" height="1" fill="hsl(20, 90%, 50%)" />
<rect x="35" y="9" width="1" height="1" fill="hsl(20, 90%, 50%)" />
<rect x="37" y="9" width="1" height="1" fill="hsl(20, 90%, 50%)" />
<rect x="39" y="9" width="1" height="1" fill="hsl(20, 90%, 50%)" />
<rect x="43" y="9" width="1" height="1" fill="hsl(20, 90%, 50%)" />
<rect x="45" y="9" width="1" height="1" fill="hsl(20, 90%, 50%)" />
<rect x="51" y="9" width="1" height="1" fill="hsl(20, 90%, 50%)" />
<rect x="5" y="10" width="1" height="1" fill="hsl(20, 90%, 50%)" />
<rect x="11" y="10" width="1" height="1" fill="hsl(20, 90%, 50%)" />
<rect x="13" y="10" width="1" height="1" fill="hsl(20, 90%, 50%)" />
<rect x="17" y="10" width="1" height="1" fill="hsl(20, 90%, 50%)" />
<rect x="19" y="10" width="1" height="1" fill="hsl(20, 90%, 50%)" />
<rect x="21" y="10" width="1" height="1" fill="hsl(20, 90%, 50%)" />
<rect x="25" y="10" width="1" height="1" fill="hsl(20, 90%, 50%)" />
<rect x="27" y="10" width="1" height="1" fill="hsl(20, 90%, 50%)" />
<rect x="29" y="10" width="1" height="1" fill="hsl(20, 90%, 50%)" />
<rect x="33" y="10" width="1" height="1" fill="hsl(20, 90%, 50%)" />
<rect x="35" y="10" width="1" height="1" fill="hsl(20, 90%, 50%)" />
<rect x="37" y="10" width="1" height="1" fill="hsl(20, 90%, 50%)" />
<rect x="41" y="10" width="1" height="1" fill="hsl(20, 90%, 50%)" />
<rect x="43" y="10" width="1" height="1" fill="hsl(20, 90%, 50%)" />
<rect x="45" y="10" width="1" height="1" fill="hsl(20, 90%, 50%)" />
<rect x="47" y="10" width="1" height="1" fill="hsl(20, 90%, 50%)" />
<rect x="49" y="10" width="1" height="1" fill="hsl(20, 90%, 50%)" />
<rect x="50" y="10" width="1" height="1" fill="hsl(20, 90%, 50%)" />
<rect x="5" y="11" width="1" height="1" fill="hsl(20, 90%, 50%)" />
<rect x="6" y="11" width="1" height="1" fill="hsl(20, 90%, 50%)" />
<rect x="13" y="11" width="1" height="1" fill="hsl(20, 90%, 50%)" />
<rect x="15" y="11" width="1" height="1" fill="hsl(20, 90%, 50%)" />
<rect x="21" y="11" width="1" height="1" fill="hsl(20, 90%, 50%)" />
<rect x="23" y="11" width="1" height="1" fill="hsl(20, 90%, 50%)" />
<rect x="29" y="11" width="1" height="1" fill="hsl(20, 90%, 50%)" />
<rect x="31" y="11" width="1" height="1" fill="hsl(20, 90%, 50%)" />
<rect x="37" y="11" width="1" height="1" fill="hsl(20, 90%, 50%)" />
<rect x="39" y="11" width="1" height="1" fill="hsl(20, 90%, 50%)" />
<rect x="45" y="11" width="1" height="1" fill="hsl(20, 90%, 50%)" />
<rect x="47" y="11" width="1" height="1" fill="hsl(20, 90%, 50%)" />
<rect x="11" y="12" width="1" height="1" fill="hsl(20, 90%, 50%)" />
<rect x="13" y="12" width="1" height="1" fill="hsl(20, 90%, 50%)" />
<rect x="15" y="12" width="1" height="1" fill="hsl(20, 90%, 50%)" />
<rect x="16" y="12" width="1" height="1" fill="hsl(20, 90%, 50%)" />
<rect x="17" y="12" width="1" height="1" fill="hsl(20, 90%, 50%)" />
<rect x="18" y="12" width="1" height="1" fill="hsl(20, 90%, 50%)" />
<rect x="19" y="12" width="1" height="1" fill="hsl(20, 90%, 50%)" />
<rect x="20" y="12" width="1" height="1" fill="hsl(20, 90%, 50%)" />
<rect x="23" y="12" width="1" height="1" fill="hsl(20, 90%, 50%)" />
<rect x="24" y="12" width="1" height="1" fill="hsl(20, 90%, 50%)" />
<rect x="25" y="12" width="1" height="1" fill="hsl(20, 90%, 50%)" />
<rect x="26" y="12" width="1" height="1" fill="hsl(20, 90%, 50%)" />
<rect x="27" y="12" width="1" height="1" fill="hsl(20, 90%, 50%)" />
<rect x="28" y="12" width="1" height="1" fill="hsl(20, 90%, 50%)" />
<rect x="31" y="12" width="1" height="1" fill="hsl(20, 90%, 50%)" />
<rect x="32" y="12" width="1" height="1" fill="hsl(20, 90%, 50%)" />
<rect x="33" y="12" width="1" height="1" fill="hsl(20, 90%, 50%)" />
<rect x="34" y="12" width="1" height="1" fill="hsl(20, 90%, 50%)" />
<rect x="35" y="12" width="1" height="1" fill="hsl(20, 90%, 50%)" />
<rect x="36" y="12" width="1" height="1" fill="hsl(20, 90%, 50%)" />
<rect x="39" y="12" width="1" height="1" fill="hsl(20, 90%, 50%)" />
<rect x="40" y="12" width="1" height="1" fill="hsl(20, 90%, 50%)" />
<rect x="41" y="12" width="1" height="1" fill="hsl(20, 90%, 50%)" />
<rect x="42" y="12" width="1" height="1" fill="hsl(20, 90%, 50%)" />
<rect x="43" y="12" width="1" height="1" fill="hsl(20, 90%, 50%)" />
<rect x="44" y="12" width="1" height="1" fill="hsl(20, 90%, 50%)" />
<rect x="47" y="12" width="1" height="1" fill="hsl(20, 90%, 50%)" />
<rect x="49" y="12" width="1" height="1" fill="hsl(20, 90%, 50%)" />
<rect x="50" y="12" width="1" height="1" fill="hsl(20, 90%, 50%)" />
<rect x="51" y="12" width="1" height="1" fill="hsl(20, 90%, 50%)" />
<rect x="52" y="12" width="1" height="1" fill="hsl(20, 90%, 50%)" />
<rect x="11" y="13" width="1" height="1" fill="hsl(20, 90%, 50%)" />
<rect x="12" y="13" width="1" height="1" fill="hsl(20, 90%, 50%)" />
<rect x="14" y="13" width="1" height="1" fill="hsl(20, 90%, 50%)" />
<rect x="20" y="13" width="1" height="1" fill="hsl(20, 90%, 50%)" />
<rect x="22" y="13" width="1" height="1" fill="hsl(20, 90%, 50%)" />
<rect x="26" y="13" width="1" height="1" fill="hsl(20, 90%, 50%)" />
<rect x="29" y="13" width="1" height="1" fill="hsl(20, 90%, 50%)" />
<rect x="30" y="13" width="1" height="1" fill="hsl(20, 90%, 50%)" />
<rect x="34" y="13" width="1" height="1" fill="hsl(20, 90%, 50%)" />
<rect x="37" y="13" width="1" height="1" fill="hsl(20, 90%, 50%)" />
<rect x="38" y="13" width="1" height="1" fill="hsl(20, 90%, 50%)" />
<rect x="42" y="13" width="1" height="1" fill="hsl(20, 90%, 50%)" />
<rect x="47" y="13" width="1" height="1" fill="hsl(20, 90%, 50%)" />
<rect x="49" y="13" width="1" height="1" fill="hsl(20, 90%, 50%)" />
<rect x="52" y="13" width="1" height="1" fill="hsl(20, 90%, 50%)" />
<rect x="14" y="14" width="1" height="1" fill="hsl(20, 90%, 50%)" />
<rect x="16" y="14" width="1" height="1" fill="hsl(20, 90%, 50%)" />
<rect x="17" y="14" width="1" height="1" fill="hsl(20, 90%, 50%)" />
<rect x="20" y="14" width="1" height="1" fill="hsl(20, 90%, 50%)" />
<rect x="23" y="14" width="1" height="1" fill="hsl(20, 90%, 50%)" />
<rect x="28" y="14" width="1" height="1" fill="hsl(20, 90%, 50%)" />
<rect x="31" y="14" width="1" height="1" fill="hsl(20, 90%, 50%)" />
<rect x="36" y="14" width="1" height="1" fill="hsl(20, 90%, 50%)" />
<rect x="39" y="14" width="1" height="1" fill="hsl(20, 90%, 50%)" />
<rect x="48" y="14" width="1" height="1" fill="hsl(20, 90%, 50%)" />
<rect x="14" y="15" width="1" height="1" fill="hsl(20, 90%, 50%)" />
<rect x="15" y="15" width="1" height="1" fill="hsl(20, 90%, 50%)" />
<rect x="17" y="15" width="1" height="1" fill="hsl(20, 90%, 50%)" />
<rect x="21" y="15" width="1" height="1" fill="hsl(20, 90%, 50%)" />
<rect x="22" y="15" width="1" height="1" fill="hsl(20, 90%, 50%)" />
<rect x="29" y="15" width="1" height="1" fill="hsl(20, 90%, 50%)" />
<rect x="30" y="15" width="1" height="1" fill="hsl(20, 90%, 50%)" />
<rect x="37" y="15" width="1" height="1" fill="hsl(20, 90%, 50%)" />
<rect x="38" y="15" width="1" height="1" fill="hsl(20, 90%, 50%)" />
</svg>