<?xml version="1.0" encoding="utf-8"?>
<svg xmlns="http://www.w3.org/2000/svg" width="95" height="89" viewBox="0 0 95 89">
<rect width="100%" height="100%" fill="transparent" />
<rect x="28" y="4" width="3" height="3" fill="hsl(20, 90%, 50%)" />
<rect x="64" y="4" width="3" height="3" fill="hsl(20, 90%, 50%)" />
<rect x="25" y="7" width="3" height="3" fill="hsl(20, 90%, 50%)" />
<rect x="31" y="7" width="3" height="3" fill="hsl(20, 90%, 50%)" />
<rect x="61" y="7" width="3" height="3" fill="hsl(20, 90%, 50%)" />
<rect x="67" y="7" width="3" height="3" fill="hsl(20, 90%, 50%)" />
<rect x="28" y="10" width="3" height="3" fill="hsl(20, 90%, 50%)" />
<rect x="64" y="10" width="3" height="3" fill="hsl(20, 90%, 50%)" />
<rect x="22" y="16" width="3" height="3" fill="hsl(20, 90%, 50%)" />
<rect x="25" y="16" width="3" height="3" fill="hsl(20, 90%, 50%)" />
<rect x="28" y="16" width="3" height="3" fill="hsl(20, 90%, 50%)" />
<rect x="31" y="16" width="3" height="3" fill="hsl(20, 90%, 50%)" />
<rect x="34" y="16" width="3" height="3" fill="hsl(20, 90%, 50%)" />
<rect x="58" y="16" width="3" height="3" fill="hsl(20, 90%, 50%)" />
<rect x="61" y="16" width="3" height="3" fill="hsl(20, 90%, 50%)" />
<rect x="64" y="16" width="3" height="3" fill="hsl(20, 90%, 50%)" />
<rect x="67" y="16" width="3" height="3" fill="hsl(20, 90%, 50%)" />
<rect x="70" y="16" width="3" height="3" fill="hsl(20, 90%, 50%)" />
<rect x="19" y="19" width="3" height="3" fill="hsl(20, 90%, 50%)" />
<rect x="34" y="19" width="3" height="3" fill="hsl(20, 90%, 50%)" />
<rect x="58" y="19" width="3" height="3" fill="hsl(20, 90%, 50%)" />
<rect x="73" y="19" width="3" height="3" fill="hsl(20, 90%, 50%)" />
<rect x="16" y="22" width="3" height="3" fill="hsl(20, 90%, 50%)" />
<rect x="25" y="22" width="3" height="3" fill="hsl(20, 90%, 50%)" />
<rect x="67" y="22" width="3" height="3" fill="hsl(20, 90%, 50%)" />
<rect x="76" y="22" width="3" height="3" fill="hsl(20, 90%, 50%)" />
<rect x="7" y="25" width="3" height="3" fill="hsl(20, 90%, 50%)" />
<rect x="16" y="25" width="3" height="3" fill="hsl(20, 90%, 50%)" />
<rect x="22" y="25" width="3" height="3" fill="hsl(20, 90%, 50%)" />
<rect x="25" y="25" width="3" height="3" fill="hsl(20, 90%, 50%)" />
<rect x="67" y="25" width="3" height="3" fill="hsl(20, 90%, 50%)" />
<rect x="70" y="25" width="3" height="3" fill="hsl(20, 90%, 50%)" />
<rect x="76" y="25" width="3" height="3" fill="hsl(20, 90%, 50%)" />
<rect x="85" y="25" width="3" height="3" fill="hsl(20, 90%, 50%)" />
<rect x="4" y="28" width="3" height="3" fill="hsl(20, 90%, 50%)" />
<rect x="10" y="28" width="3" height="3" fill="hsl(20, 90%, 50%)" />
<rect x="16" y="28" width="3" height="3" fill="hsl(20, 90%, 50%)" />
<rect x="34" y="28" width="3" height="3" fill="hsl(20, 90%, 50%)" />
<rect x="58" y="28" width="3" height="3" fill="hsl(20, 90%, 50%)" />
<rect x="76" y="28" width="3" height="3" fill="hsl(20, 90%, 50%)" />
<rect x="82" y="28" width="3" height="3" fill="hsl(20, 90%, 50%)" />
<rect x="88" y="28" width="3" height="3" fill="hsl(20, 90%, 50%)" />
<rect x="7" y="31" width="3" height="3" fill="hsl(20, 90%, 50%)" />
<rect x="16" y="31" width="3" height="3" fill="hsl(20, 90%, 50%)" />
<rect x="31" y="31" width="3" height="3" fill="hsl(20, 90%, 50%)" />
<rect x="37" y="31" width="3" height="3" fill="hsl(20, 90%, 50%)" />
<rect x="55" y="31" width="3" height="3" fill="hsl(20, 90%, 50%)" />
<rect x="61" y="31" width="3" height="3" fill="hsl(20, 90%, 50%)" />
<rect x="76" y="31" width="3" height="3" fill="hsl(20, 90%, 50%)" />
<rect x="85" y="31" width="3" height="3" fill="hsl(20, 90%, 50%)" />
<rect x="16" y="34" width="3" height="3" fill="hsl(20, 90%, 50%)" />
<rect x="19" y="34" width="3" height="3" fill="hsl(20, 90%, 50%)" />
<rect x="28" y="34" width="3" height="3" fill="hsl(20, 90%, 50%)" />
<rect x="37" y="34" width="3" height="3" fill="hsl(20, 90%, 50%)" />
<rect x="55" y="34" width="3" height="3" fill="hsl(20, 90%, 50%)" />
<rect x="64" y="34" width="3" height="3" fill="hsl(20, 90%, 50%)" />
<rect x="73" y="34" width="3" height="3" fill="hsl(20, 90%, 50%)" />
<rect x="76" y="34" width="3" height="3" fill="hsl(20, 90%, 50%)" />
<rect x="31" y="37" width="3" height="3" fill="hsl(20, 90%, 50%)" />
<rect x="34" y="37" width="3" height="3" fill="hsl(20, 90%, 50%)" />
<rect x="58" y="37" width="3" height="3" fill="hsl(20, 90%, 50%)" />
<rect x="61" y="37" width="3" height="3" fill="hsl(20, 90%, 50%)" />
<rect x="43" y="40" width="3" height="3" fill="hsl(20, 90%, 50%)" />
<rect x="46" y="40" width="3" height="3" fill="hsl(20, 90%, 50%)" />
<rect x="43" y="43" width="3" height="3" fill="hsl(20, 90%, 50%)" />
<rect x="49" y="43" width="3" height="3" fill="hsl(20, 90%, 50%)" />
<rect x="28" y="46" width="3" height="3" fill="hsl(20, 90%, 50%)" />
<rect x="37" y="46" width="3" height="3" fill="hsl(20, 90%, 50%)" />
<rect x="46" y="46" width="3" height="3" fill="hsl(20, 90%, 50%)" />
<rect x="25" y="49" width="3" height="3" fill="hsl(20, 90%, 50%)" />
<rect x="19" y="52" width="3" height="3" fill="hsl(20, 90%, 50%)" />
<rect x="22" y="52" width="3" height="3" fill="hsl(20, 90%, 50%)" />
<rect x="55" y="52" width="3" height="3" fill="hsl(20, 90%, 50%)" />
<rect x="58" y="52" width="3" height="3" fill="hsl(20, 90%, 50%)" />
<rect x="61" y="52" width="3" height="3" fill="hsl(20, 90%, 50%)" />
<rect x="10" y="55" width="3" height="3" fill="hsl(20, 90%, 50%)" />
<rect x="31" y="55" width="3" height="3" fill="hsl(20, 90%, 50%)" />
<rect x="34" y="55" width="3" height="3" fill="hsl(20, 90%, 50%)" />
<rect x="40" y="55" width="3" height="3" fill="hsl(20, 90%, 50%)" />
<rect x="55" y="55" width="3" height="3" fill="hsl(20, 90%, 50%)" />
<rect x="58" y="55" width="3" height="3" fill="hsl(20, 90%, 50%)" />
<rect x="61" y="55" width="3" height="3" fill="hsl(20, 90%, 50%)" />
<rect x="19" y="58" width="3" height="3" fill="hsl(20, 90%, 50%)" />
<rect x="31" y="58" width="3" height="3" fill="hsl(20, 90%, 50%)" />
<rect x="40" y="58" width="3" height="3" fill="hsl(20, 90%, 50%)" />
<rect x="55" y="58" width="3" height="3" fill="hsl(20, 90%, 50%)" />
<rect x="58" y="58" width="3" height="3" fill="hsl(20, 90%, 50%)" />
<rect x="61" y="58" width="3" height="3" fill="hsl(20, 90%, 50%)" />
<rect x="19" y="61" width="3" height="3" fill="hsl(20, 90%, 50%)" />
<rect x="22" y="61" width="3" height="3" fill="hsl(20, 90%, 50%)" />
<rect x="25" y="61" width="3" height="3" fill="hsl(20, 90%, 50%)" />
<rect x="31" y="61" width="3" height="3" fill="hsl(20, 90%, 50%)" />
<rect x="43" y="61" width="3" height="3" fill="hsl(20, 90%, 50%)" />
<rect x="64" y="61" width="3" height="3" fill="hsl(20, 90%, 50%)" />
<rect x="67" y="61" width="3" height="3" fill="hsl(20, 90%, 50%)" />
<rect x="70" y="61" width="3" height="3" fill="hsl(20, 90%, 50%)" />
<rect x="10" y="64" width="3" height="3" fill="hsl(20, 90%, 50%)" />
<rect x="46" y="64" width="3" height="3" fill="hsl(20, 90%, 50%)" />
<rect x="64" y="64" width="3" height="3" fill="hsl(20, 90%, 50%)" />
<rect x="67" y="64" width="3" height="3" fill="hsl(20, 90%, 50%)" />
<rect x="70" y="64" width="3" height="3" fill="hsl(20, 90%, 50%)" />
<rect x="13" y="67" width="3" height="3" fill="hsl(20, 90%, 50%)" />
<rect x="25" y="67" width="3" height="3" fill="hsl(20, 90%, 50%)" />
<rect x="31" y="67" width="3" height="3" fill="hsl(20, 90%, 50%)" />
<rect x="34" y="67" width="3" height="3" fill="hsl(20, 90%, 50%)" />
<rect x="37" y="67" width="3" height="3" fill="hsl(20, 90%, 50%)" />
<rect x="64" y="67" width="3" height="3" fill="hsl(20, 90%, 50%)" />
<rect x="67" y="67" width="3" height="3" fill="hsl(20, 90%, 50%)" />
<rect x="70" y="67" width="3" height="3" fill="hsl(20, 90%, 50%)" />
<rect x="16" y="70" width="3" height="3" fill="hsl(20, 90%, 50%)" />
<rect x="25" y="70" width="3" height="3" fill="hsl(20, 90%, 50%)" />
<rect x="37" y="70" width="3" height="3" fill="hsl(20, 90%, 50%)" />
<rect x="16" y="73" width="3" height="3" fill="hsl(20, 90%, 50%)" />
<rect x="22" y="73" width="3" height="3" fill="hsl(20, 90%, 50%)" />
<rect x="25" y="73" width="3" height="3" fill="hsl(20, 90%, 50%)" />
<rect x="46" y="73" width="3" height="3" fill="hsl(20, 90%, 50%)" />
<rect x="34" y="76" width="3" height="3" fill="hsl(20, 90%, 50%)" />
<rect x="37" y="76" width="3" height="3" fill="hsl(20, 90%, 50%)" />
<rect x="31" y="79" width="3" height="3" fill="hsl(20, 90%, 50%)" />
<rect x="19" y="82" width="3" height="3" fill="hsl(20, 90%, 50%)" />
<rect x="28" y="82" width="3" height="3" fill="hsl(20, 90%, 50%)" />
</svg>