<?xml version="1.0" encoding="utf-8"?>
<svg xmlns="http://www.w3.org/2000/svg" width="76" height="78" viewBox="0 0 76 78">
<rect width="100%" height="100%" fill="transparent" />
<rect x="10" y="4" width="2" height="2" fill="hsl(20, 90%, 50%)" />
<rect x="16" y="4" width="2" height="2" fill="hsl(20, 90%, 50%)" />
<rect x="18" y="4" width="2" height="2" fill="hsl(20, 90%, 50%)" />
<rect x="6" y="6" width="2" height="2" fill="hsl(20, 90%, 50%)" />
<rect x="8" y="6" width="2" height="2" fill="hsl(20, 90%, 50%)" />
<rect x="10" y="6" width="2" height="2" fill="hsl(20, 90%, 50%)" />
<rect x="14" y="6" width="2" height="2" fill="hsl(20, 90%, 50%)" />
<rect x="18" y="6" width="2" height="2" fill="hsl(20, 90%, 50%)" />
<rect x="22" y="6" width="2" height="2" fill="hsl(20, 90%, 50%)" />
<rect x="6" y="8" width="2" height="2" fill="hsl(20, 90%, 50%)" />
<rect x="12" y="8" width="2" height="2" fill="hsl(20, 90%, 50%)" />
<rect x="14" y="8" width="2" height="2" fill="hsl(20, 90%, 50%)" />
<rect x="16" y="8" width="2" height="2" fill="hsl(20, 90%, 50%)" />
<rect x="22" y="8" width="2" height="2" fill="hsl(20, 90%, 50%)" />
<rect x="24" y="8" width="2" height="2" fill="hsl(20, 90%, 50%)" />
<rect x="4" y="10" width="2" height="2" fill="hsl(20, 90%, 50%)" />
<rect x="10" y="10" width="2" height="2" fill="hsl(20, 90%, 50%)" />
<rect x="12" y="10" width="2" height="2" fill="hsl(20, 90%, 50%)" />
<rect x="14" y="10" width="2" height="2" fill="hsl(20, 90%, 50%)" />
<rect x="16" y="10" width="2" height="2" fill="hsl(20, 90%, 50%)" />
<rect x="18" y="10" width="2" height="2" fill="hsl(20, 90%, 50%)" />
<rect x="20" y="10" width="2" height="2" fill="hsl(20, 90%, 50%)" />
<rect x="24" y="10" width="2" height="2" fill="hsl(20, 90%, 50%)" />
<rect x="28" y="10" width="2" height="2" fill="hsl(20, 90%, 50%)" />
<rect x="30" y="10" width="2" height="2" fill="hsl(20, 90%, 50%)" />
<rect x="32" y="10" width="2" height="2" fill="hsl(20, 90%, 50%)" />
<rect x="6" y="12" width="2" height="2" fill="hsl(20, 90%, 50%)" />
<rect x="12" y="12" width="2" height="2" fill="hsl(20, 90%, 50%)" />
<rect x="14" y="12" width="2" height="2" fill="hsl(20, 90%, 50%)" />
<rect x="16" y="12" width="2" height="2" fill="hsl(20, 90%, 50%)" />
<rect x="20" y="12" width="2" height="2" fill="hsl(20, 90%, 50%)" />
<rect x="24" y="12" width="2" height="2" fill="hsl(20, 90%, 50%)" />
<rect x="26" y="12" width="2" height="2" fill="hsl(20, 90%, 50%)" />
<rect x="28" y="12" width="2" height="2" fill="hsl(20, 90%, 50%)" />
<rect x="30" y="12" width="2" height="2" fill="hsl(20, 90%, 50%)" />
<rect x="32" y="12" width="2" height="2" fill="hsl(20, 90%, 50%)" />
<rect x="16" y="14" width="2" height="2" fill="hsl(20, 90%, 50%)" />
<rect x="20" y="14" width="2" height="2" fill="hsl(20, 90%, 50%)" />
<rect x="24" y="14" width="2" height="2" fill="hsl(20, 90%, 50%)" />
<rect x="28" y="14" width="2" height="2" fill="hsl(20, 90%, 50%)" />
<rect x="4" y="16" width="2" height="2" fill="hsl(20, 90%, 50%)" />
<rect x="8" y="16" width="2" height="2" fill="hsl(20, 90%, 50%)" />
<rect x="16" y="16" width="2" height="2" fill="hsl(20, 90%, 50%)" />
<rect x="20" y="16" width="2" height="2" fill="hsl(20, 90%, 50%)" />
<rect x="24" y="16" width="2" height="2" fill="hsl(20, 90%, 50%)" />
<rect x="26" y="16" width="2" height="2" fill="hsl(20, 90%, 50%)" />
<rect x="28" y="16" width="2" height="2" fill="hsl(20, 90%, 50%)" />
<rect x="30" y="16" width="2" height="2" fill="hsl(20, 90%, 50%)" />
<rect x="32" y="16" width="2" height="2" fill="hsl(20, 90%, 50%)" />
<rect x="4" y="18" width="2" height="2" fill="hsl(20, 90%, 50%)" />
<rect x="10" y="18" width="2" height="2" fill="hsl(20, 90%, 50%)" />
<rect x="14" y="18" width="2" height="2" fill="hsl(20, 90%, 50%)" />
<rect x="20" y="18" width="2" height="2" fill="hsl(20, 90%, 50%)" />
<rect x="24" y="18" width="2" height="2" fill="hsl(20, 90%, 50%)" />
<rect x="26" y="18" width="2" height="2" fill="hsl(20, 90%, 50%)" />
<rect x="34" y="18" width="2" height="2" fill="hsl(20, 90%, 50%)" />
<rect x="10" y="20" width="2" height="2" fill="hsl(20, 90%, 50%)" />
<rect x="16" y="20" width="2" height="2" fill="hsl(20, 90%, 50%)" />
<rect x="18" y="20" width="2" height="2" fill="hsl(20, 90%, 50%)" />
<rect x="34" y="20" width="2" height="2" fill="hsl(20, 90%, 50%)" />
<rect x="36" y="20" width="2" height="2" fill="hsl(20, 90%, 50%)" />
<rect x="38" y="20" width="2" height="2" fill="hsl(20, 90%, 50%)" />
<rect x="6" y="22" width="2" height="2" fill="hsl(20, 90%, 50%)" />
<rect x="14" y="22" width="2" height="2" fill="hsl(20, 90%, 50%)" />
<rect x="16" y="22" width="2" height="2" fill="hsl(20, 90%, 50%)" />
<rect x="18" y="22" width="2" height="2" fill="hsl(20, 90%, 50%)" />
<rect x="20" y="22" width="2" height="2" fill="hsl(20, 90%, 50%)" />
<rect x="22" y="22" width="2" height="2" fill="hsl(20, 90%, 50%)" />
<rect x="26" y="22" width="2" height="2" fill="hsl(20, 90%, 50%)" />
<rect x="28" y="22" width="2" height="2" fill="hsl(20, 90%, 50%)" />
<rect x="30" y="22" width="2" height="2" fill="hsl(20, 90%, 50%)" />
<rect x="36" y="22" width="2" height="2" fill="hsl(20, 90%, 50%)" />
<rect x="38" y="22" width="2" height="2" fill="hsl(20, 90%, 50%)" />
<rect x="12" y="24" width="2" height="2" fill="hsl(20, 90%, 50%)" />
<rect x="32" y="24" width="2" height="2" fill="hsl(20, 90%, 50%)" />
<rect x="8" y="26" width="2" height="2" fill="hsl(20, 90%, 50%)" />
<rect x="12" y="26" width="2" height="2" fill="hsl(20, 90%, 50%)" />
<rect x="32" y="26" width="2" height="2" fill="hsl(20, 90%, 50%)" />
<rect x="12" y="28" width="2" height="2" fill="hsl(20, 90%, 50%)" />
<rect x="14" y="28" width="2" height="2" fill="hsl(20, 90%, 50%)" />
<rect x="18" y="28" width="2" height="2" fill="hsl(20, 90%, 50%)" />
<rect x="20" y="28" width="2" height="2" fill="hsl(20, 90%, 50%)" />
<rect x="22" y="28" width="2" height="2" fill="hsl(20, 90%, 50%)" />
<rect x="24" y="28" width="2" height="2" fill="hsl(20, 90%, 50%)" />
<rect x="26" y="28" width="2" height="2" fill="hsl(20, 90%, 50%)" />
<rect x="34" y="28" width="2" height="2" fill="hsl(20, 90%, 50%)" />
<rect x="16" y="30" width="2" height="2" fill="hsl(20, 90%, 50%)" />
<rect x="20" y="30" width="2" height="2" fill="hsl(20, 90%, 50%)" />
<rect x="22" y="30" width="2" height="2" fill="hsl(20, 90%, 50%)" />
<rect x="24" y="30" width="2" height="2" fill="hsl(20, 90%, 50%)" />
<rect x="30" y="30" width="2" height="2" fill="hsl(20, 90%, 50%)" />
<rect x="42" y="30" width="2" height="2" fill="hsl(20, 90%, 50%)" />
<rect x="44" y="30" width="2" height="2" fill="hsl(20, 90%, 50%)" />
<rect x="16" y="32" width="2" height="2" fill="hsl(20, 90%, 50%)" />
<rect x="22" y="32" width="2" height="2" fill="hsl(20, 90%, 50%)" />
<rect x="30" y="32" width="2" height="2" fill="hsl(20, 90%, 50%)" />
<rect x="34" y="32" width="2" height="2" fill="hsl(20, 90%, 50%)" />
<rect x="36" y="32" width="2" height="2" fill="hsl(20, 90%, 50%)" />
<rect x="38" y="32" width="2" height="2" fill="hsl(20, 90%, 50%)" />
<rect x="42" y="32" width="2" height="2" fill="hsl(20, 90%, 50%)" />
<rect x="44" y="32" width="2" height="2" fill="hsl(20, 90%, 50%)" />
<rect x="20" y="34" width="2" height="2" fill="hsl(20, 90%, 50%)" />
<rect x="22" y="34" width="2" height="2" fill="hsl(20, 90%, 50%)" />
<rect x="30" y="34" width="2" height="2" fill="hsl(20, 90%, 50%)" />
<rect x="32" y="34" width="2" height="2" fill="hsl(20, 90%, 50%)" />
<rect x="34" y="34" width="2" height="2" fill="hsl(20, 90%, 50%)" />
<rect x="38" y="34" width="2" height="2" fill="hsl(20, 90%, 50%)" />
<rect x="44" y="34" width="2" height="2" fill="hsl(20, 90%, 50%)" />
<rect x="52" y="34" width="2" height="2" fill="hsl(20, 90%, 50%)" />
<rect x="20" y="36" width="2" height="2" fill="hsl(20, 90%, 50%)" />
<rect x="22" y="36" width="2" height="2" fill="hsl(20, 90%, 50%)" />
<rect x="32" y="36" width="2" height="2" fill="hsl(20, 90%, 50%)" />
<rect x="34" y="36" width="2" height="2" fill="hsl(20, 90%, 50%)" />
<rect x="38" y="36" width="2" height="2" fill="hsl(20, 90%, 50%)" />
<rect x="40" y="36" width="2" height="2" fill="hsl(20, 90%, 50%)" />
<rect x="42" y="36" width="2" height="2" fill="hsl(20, 90%, 50%)" />
<rect x="44" y="36" width="2" height="2" fill="hsl(20, 90%, 50%)" />
<rect x="52" y="36" width="2" height="2" fill="hsl(20, 90%, 50%)" />
<rect x="54" y="36" width="2" height="2" fill="hsl(20, 90%, 50%)" />
<rect x="56" y="36" width="2" height="2" fill="hsl(20, 90%, 50%)" />
<rect x="42" y="38" width="2" height="2" fill="hsl(20, 90%, 50%)" />
<rect x="46" y="38" width="2" height="2" fill="hsl(20, 90%, 50%)" />
<rect x="52" y="38" width="2" height="2" fill="hsl(20, 90%, 50%)" />
<rect x="30" y="40" width="2" height="2" fill="hsl(20, 90%, 50%)" />
<rect x="34" y="40" width="2" height="2" fill="hsl(20, 90%, 50%)" />
<rect x="46" y="40" width="2" height="2" fill="hsl(20, 90%, 50%)" />
<rect x="48" y="40" width="2" height="2" fill="hsl(20, 90%, 50%)" />
<rect x="54" y="40" width="2" height="2" fill="hsl(20, 90%, 50%)" />
<rect x="56" y="40" width="2" height="2" fill="hsl(20, 90%, 50%)" />
<rect x="30" y="42" width="2" height="2" fill="hsl(20, 90%, 50%)" />
<rect x="36" y="42" width="2" height="2" fill="hsl(20, 90%, 50%)" />
<rect x="48" y="42" width="2" height="2" fill="hsl(20, 90%, 50%)" />
<rect x="52" y="42" width="2" height="2" fill="hsl(20, 90%, 50%)" />
<rect x="54" y="42" width="2" height="2" fill="hsl(20, 90%, 50%)" />
<rect x="56" y="42" width="2" height="2" fill="hsl(20, 90%, 50%)" />
<rect x="68" y="42" width="2" height="2" fill="hsl(20, 90%, 50%)" />
<rect x="30" y="44" width="2" height="2" fill="hsl(20, 90%, 50%)" />
<rect x="38" y="44" width="2" height="2" fill="hsl(20, 90%, 50%)" />
<rect x="48" y="44" width="2" height="2" fill="hsl(20, 90%, 50%)" />
<rect x="50" y="44" width="2" height="2" fill="hsl(20, 90%, 50%)" />
<rect x="56" y="44" width="2" height="2" fill="hsl(20, 90%, 50%)" />
<rect x="64" y="44" width="2" height="2" fill="hsl(20, 90%, 50%)" />
<rect x="70" y="44" width="2" height="2" fill="hsl(20, 90%, 50%)" />
<rect x="34" y="46" width="2" height="2" fill="hsl(20, 90%, 50%)" />
<rect x="36" y="46" width="2" height="2" fill="hsl(20, 90%, 50%)" />
<rect x="38" y="46" width="2" height="2" fill="hsl(20, 90%, 50%)" />
<rect x="50" y="46" width="2" height="2" fill="hsl(20, 90%, 50%)" />
<rect x="52" y="46" width="2" height="2" fill="hsl(20, 90%, 50%)" />
<rect x="70" y="46" width="2" height="2" fill="hsl(20, 90%, 50%)" />
<rect x="34" y="48" width="2" height="2" fill="hsl(20, 90%, 50%)" />
<rect x="38" y="48" width="2" height="2" fill="hsl(20, 90%, 50%)" />
<rect x="44" y="48" width="2" height="2" fill="hsl(20, 90%, 50%)" />
<rect x="50" y="48" width="2" height="2" fill="hsl(20, 90%, 50%)" />
<rect x="62" y="48" width="2" height="2" fill="hsl(20, 90%, 50%)" />
<rect x="64" y="48" width="2" height="2" fill="hsl(20, 90%, 50%)" />
<rect x="70" y="48" width="2" height="2" fill="hsl(20, 90%, 50%)" />
<rect x="38" y="50" width="2" height="2" fill="hsl(20, 90%, 50%)" />
<rect x="44" y="50" width="2" height="2" fill="hsl(20, 90%, 50%)" />
<rect x="46" y="50" width="2" height="2" fill="hsl(20, 90%, 50%)" />
<rect x="50" y="50" width="2" height="2" fill="hsl(20, 90%, 50%)" />
<rect x="52" y="50" width="2" height="2" fill="hsl(20, 90%, 50%)" />
<rect x="56" y="50" width="2" height="2" fill="hsl(20, 90%, 50%)" />
<rect x="62" y="50" width="2" height="2" fill="hsl(20, 90%, 50%)" />
<rect x="36" y="52" width="2" height="2" fill="hsl(20, 90%, 50%)" />
<rect x="52" y="52" width="2" height="2" fill="hsl(20, 90%, 50%)" />
<rect x="56" y="52" width="2" height="2" fill="hsl(20, 90%, 50%)" />
<rect x="38" y="54" width="2" height="2" fill="hsl(20, 90%, 50%)" />
<rect x="46" y="54" width="2" height="2" fill="hsl(20, 90%, 50%)" />
<rect x="48" y="54" width="2" height="2" fill="hsl(20, 90%, 50%)" />
<rect x="50" y="54" width="2" height="2" fill="hsl(20, 90%, 50%)" />
<rect x="52" y="54" width="2" height="2" fill="hsl(20, 90%, 50%)" />
<rect x="40" y="56" width="2" height="2" fill="hsl(20, 90%, 50%)" />
<rect x="48" y="56" width="2" height="2" fill="hsl(20, 90%, 50%)" />
<rect x="50" y="60" width="2" height="2" fill="hsl(20, 90%, 50%)" />
<rect x="48" y="62" width="2" height="2" fill="hsl(20, 90%, 50%)" />
<rect x="52" y="62" width="2" height="2" fill="hsl(20, 90%, 50%)" />
<rect x="46" y="64" width="2" height="2" fill="hsl(20, 90%, 50%)" />
<rect x="48" y="64" width="2" height="2" fill="hsl(20, 90%, 50%)" />
<rect x="46" y="66" width="2" height="2" fill="hsl(20, 90%, 50%)" />
<rect x="50" y="66" width="2" height="2" fill="hsl(20, 90%, 50%)" />
<rect x="46" y="68" width="2" height="2" fill="hsl(20, 90%, 50%)" />
<rect x="48" y="68" width="2" height="2" fill="hsl(20, 90%, 50%)" />
<rect x="50" y="70" width="2" height="2" fill="hsl(20, 90%, 50%)" />
<rect x="48" y="72" width="2" height="2" fill="hsl(20, 90%, 50%)" />
</svg>