<?xml version="1.0" encoding="utf-8"?>
<svg xmlns="http://www.w3.org/2000/svg" width="92" height="71" viewBox="0 0 92 71">
<rect width="100%" height="100%" fill="transparent" />
<rect x="4" y="4" width="7" height="7" fill="hsl(20, 90%, 50%)" />
<rect x="11" y="4" width="7" height="7" fill="hsl(20, 90%, 50%)" />
<rect x="4" y="11" width="7" height="7" fill="hsl(20, 90%, 50%)" />
<rect x="11" y="11" width="7" height="7" fill="hsl(20, 90%, 50%)" />
<rect x="67" y="39" width="7" height="7" fill="hsl(20, 90%, 50%)" />
<rect x="74" y="39" width="7" height="7" fill="hsl(20, 90%, 50%)" />
<rect x="81" y="39" width="7" height="7" fill="hsl(20, 90%, 50%)" />
<rect x="4" y="46" width="7" height="7" fill="hsl(20, 90%, 50%)" />
<rect x="11" y="46" width="7" height="7" fill="hsl(20, 90%, 50%)" />
<rect x="18" y="46" width="7" height="7" fill="hsl(20, 90%, 50%)" />
<rect x="67" y="46" width="7" height="7" fill="hsl(20, 90%, 50%)" />
<rect x="4" y="53" width="7" height="7" fill="hsl(20, 90%, 50%)" />
<rect x="74" y="53" width="7" height="7" fill="hsl(20, 90%, 50%)" />
<rect x="11" y="60" width="7" height="7" fill="hsl(20, 90%, 50%)" />
</svg>