<?xml version="1.0" encoding="utf-8"?>
<svg xmlns="http://www.w3.org/2000/svg" width="84" height="50" viewBox="0 0 84 50">
<rect width="100%" height="100%" fill="transparent" />
<rect x="6" y="4" width="2" height="2" fill="hsl(20, 90%, 50%)" />
<rect x="6" y="6" width="2" height="2" fill="hsl(20, 90%, 50%)" />
<rect x="4" y="8" width="2" height="2" fill="hsl(20, 90%, 50%)" />
<rect x="6" y="10" width="2" height="2" fill="hsl(20, 90%, 50%)" />
<rect x="8" y="10" width="2" height="2" fill="hsl(20, 90%, 50%)" />
<rect x="10" y="10" width="2" height="2" fill="hsl(20, 90%, 50%)" />
<rect x="46" y="10" width="2" height="2" fill="hsl(20, 90%, 50%)" />
<rect x="48" y="10" width="2" height="2" fill="hsl(20, 90%, 50%)" />
<rect x="50" y="10" width="2" height="2" fill="hsl(20, 90%, 50%)" />
<rect x="58" y="10" width="2" height="2" fill="hsl(20, 90%, 50%)" />
<rect x="60" y="10" width="2" height="2" fill="hsl(20, 90%, 50%)" />
<rect x="62" y="10" width="2" height="2" fill="hsl(20, 90%, 50%)" />
<rect x="6" y="12" width="2" height="2" fill="hsl(20, 90%, 50%)" />
<rect x="8" y="12" width="2" height="2" fill="hsl(20, 90%, 50%)" />
<rect x="12" y="12" width="2" height="2" fill="hsl(20, 90%, 50%)" />
<rect x="32" y="12" width="2" height="2" fill="hsl(20, 90%, 50%)" />
<rect x="40" y="12" width="2" height="2" fill="hsl(20, 90%, 50%)" />
<rect x="44" y="12" width="2" height="2" fill="hsl(20, 90%, 50%)" />
<rect x="58" y="12" width="2" height="2" fill="hsl(20, 90%, 50%)" />
<rect x="60" y="12" width="2" height="2" fill="hsl(20, 90%, 50%)" />
<rect x="62" y="12" width="2" height="2" fill="hsl(20, 90%, 50%)" />
<rect x="8" y="14" width="2" height="2" fill="hsl(20, 90%, 50%)" />
<rect x="32" y="14" width="2" height="2" fill="hsl(20, 90%, 50%)" />
<rect x="34" y="14" width="2" height="2" fill="hsl(20, 90%, 50%)" />
<rect x="38" y="14" width="2" height="2" fill="hsl(20, 90%, 50%)" />
<rect x="54" y="14" width="2" height="2" fill="hsl(20, 90%, 50%)" />
<rect x="64" y="14" width="2" height="2" fill="hsl(20, 90%, 50%)" />
<rect x="66" y="14" width="2" height="2" fill="hsl(20, 90%, 50%)" />
<rect x="68" y="14" width="2" height="2" fill="hsl(20, 90%, 50%)" />
<rect x="70" y="14" width="2" height="2" fill="hsl(20, 90%, 50%)" />
<rect x="16" y="16" width="2" height="2" fill="hsl(20, 90%, 50%)" />
<rect x="30" y="16" width="2" height="2" fill="hsl(20, 90%, 50%)" />
<rect x="38" y="16" width="2" height="2" fill="hsl(20, 90%, 50%)" />
<rect x="42" y="16" width="2" height="2" fill="hsl(20, 90%, 50%)" />
<rect x="50" y="16" width="2" height="2" fill="hsl(20, 90%, 50%)" />
<rect x="52" y="16" width="2" height="2" fill="hsl(20, 90%, 50%)" />
<rect x="56" y="16" width="2" height="2" fill="hsl(20, 90%, 50%)" />
<rect x="68" y="16" width="2" height="2" fill="hsl(20, 90%, 50%)" />
<rect x="70" y="16" width="2" height="2" fill="hsl(20, 90%, 50%)" />
<rect x="10" y="18" width="2" height="2" fill="hsl(20, 90%, 50%)" />
<rect x="16" y="18" width="2" height="2" fill="hsl(20, 90%, 50%)" />
<rect x="20" y="18" width="2" height="2" fill="hsl(20, 90%, 50%)" />
<rect x="22" y="18" width="2" height="2" fill="hsl(20, 90%, 50%)" />
<rect x="24" y="18" width="2" height="2" fill="hsl(20, 90%, 50%)" />
<rect x="32" y="18" width="2" height="2" fill="hsl(20, 90%, 50%)" />
<rect x="34" y="18" width="2" height="2" fill="hsl(20, 90%, 50%)" />
<rect x="54" y="18" width="2" height="2" fill="hsl(20, 90%, 50%)" />
<rect x="72" y="18" width="2" height="2" fill="hsl(20, 90%, 50%)" />
<rect x="74" y="18" width="2" height="2" fill="hsl(20, 90%, 50%)" />
<rect x="78" y="18" width="2" height="2" fill="hsl(20, 90%, 50%)" />
<rect x="10" y="20" width="2" height="2" fill="hsl(20, 90%, 50%)" />
<rect x="12" y="20" width="2" height="2" fill="hsl(20, 90%, 50%)" />
<rect x="16" y="20" width="2" height="2" fill="hsl(20, 90%, 50%)" />
<rect x="28" y="20" width="2" height="2" fill="hsl(20, 90%, 50%)" />
<rect x="40" y="20" width="2" height="2" fill="hsl(20, 90%, 50%)" />
<rect x="76" y="20" width="2" height="2" fill="hsl(20, 90%, 50%)" />
<rect x="22" y="22" width="2" height="2" fill="hsl(20, 90%, 50%)" />
<rect x="26" y="22" width="2" height="2" fill="hsl(20, 90%, 50%)" />
<rect x="28" y="22" width="2" height="2" fill="hsl(20, 90%, 50%)" />
<rect x="30" y="22" width="2" height="2" fill="hsl(20, 90%, 50%)" />
<rect x="32" y="22" width="2" height="2" fill="hsl(20, 90%, 50%)" />
<rect x="34" y="22" width="2" height="2" fill="hsl(20, 90%, 50%)" />
<rect x="36" y="22" width="2" height="2" fill="hsl(20, 90%, 50%)" />
<rect x="38" y="22" width="2" height="2" fill="hsl(20, 90%, 50%)" />
<rect x="22" y="26" width="2" height="2" fill="hsl(20, 90%, 50%)" />
<rect x="26" y="26" width="2" height="2" fill="hsl(20, 90%, 50%)" />
<rect x="28" y="26" width="2" height="2" fill="hsl(20, 90%, 50%)" />
<rect x="30" y="26" width="2" height="2" fill="hsl(20, 90%, 50%)" />
<rect x="32" y="26" width="2" height="2" fill="hsl(20, 90%, 50%)" />
<rect x="34" y="26" width="2" height="2" fill="hsl(20, 90%, 50%)" />
<rect x="36" y="26" width="2" height="2" fill="hsl(20, 90%, 50%)" />
<rect x="38" y="26" width="2" height="2" fill="hsl(20, 90%, 50%)" />
<rect x="10" y="28" width="2" height="2" fill="hsl(20, 90%, 50%)" />
<rect x="12" y="28" width="2" height="2" fill="hsl(20, 90%, 50%)" />
<rect x="16" y="28" width="2" height="2" fill="hsl(20, 90%, 50%)" />
<rect x="28" y="28" width="2" height="2" fill="hsl(20, 90%, 50%)" />
<rect x="40" y="28" width="2" height="2" fill="hsl(20, 90%, 50%)" />
<rect x="76" y="28" width="2" height="2" fill="hsl(20, 90%, 50%)" />
<rect x="10" y="30" width="2" height="2" fill="hsl(20, 90%, 50%)" />
<rect x="16" y="30" width="2" height="2" fill="hsl(20, 90%, 50%)" />
<rect x="20" y="30" width="2" height="2" fill="hsl(20, 90%, 50%)" />
<rect x="22" y="30" width="2" height="2" fill="hsl(20, 90%, 50%)" />
<rect x="24" y="30" width="2" height="2" fill="hsl(20, 90%, 50%)" />
<rect x="32" y="30" width="2" height="2" fill="hsl(20, 90%, 50%)" />
<rect x="34" y="30" width="2" height="2" fill="hsl(20, 90%, 50%)" />
<rect x="54" y="30" width="2" height="2" fill="hsl(20, 90%, 50%)" />
<rect x="72" y="30" width="2" height="2" fill="hsl(20, 90%, 50%)" />
<rect x="74" y="30" width="2" height="2" fill="hsl(20, 90%, 50%)" />
<rect x="78" y="30" width="2" height="2" fill="hsl(20, 90%, 50%)" />
<rect x="16" y="32" width="2" height="2" fill="hsl(20, 90%, 50%)" />
<rect x="30" y="32" width="2" height="2" fill="hsl(20, 90%, 50%)" />
<rect x="38" y="32" width="2" height="2" fill="hsl(20, 90%, 50%)" />
<rect x="42" y="32" width="2" height="2" fill="hsl(20, 90%, 50%)" />
<rect x="50" y="32" width="2" height="2" fill="hsl(20, 90%, 50%)" />
<rect x="52" y="32" width="2" height="2" fill="hsl(20, 90%, 50%)" />
<rect x="56" y="32" width="2" height="2" fill="hsl(20, 90%, 50%)" />
<rect x="68" y="32" width="2" height="2" fill="hsl(20, 90%, 50%)" />
<rect x="70" y="32" width="2" height="2" fill="hsl(20, 90%, 50%)" />
<rect x="8" y="34" width="2" height="2" fill="hsl(20, 90%, 50%)" />
<rect x="32" y="34" width="2" height="2" fill="hsl(20, 90%, 50%)" />
<rect x="34" y="34" width="2" height="2" fill="hsl(20, 90%, 50%)" />
<rect x="38" y="34" width="2" height="2" fill="hsl(20, 90%, 50%)" />
<rect x="54" y="34" width="2" height="2" fill="hsl(20, 90%, 50%)" />
<rect x="64" y="34" width="2" height="2" fill="hsl(20, 90%, 50%)" />
<rect x="66" y="34" width="2" height="2" fill="hsl(20, 90%, 50%)" />
<rect x="68" y="34" width="2" height="2" fill="hsl(20, 90%, 50%)" />
<rect x="70" y="34" width="2" height="2" fill="hsl(20, 90%, 50%)" />
<rect x="6" y="36" width="2" height="2" fill="hsl(20, 90%, 50%)" />
<rect x="8" y="36" width="2" height="2" fill="hsl(20, 90%, 50%)" />
<rect x="12" y="36" width="2" height="2" fill="hsl(20, 90%, 50%)" />
<rect x="32" y="36" width="2" height="2" fill="hsl(20, 90%, 50%)" />
<rect x="40" y="36" width="2" height="2" fill="hsl(20, 90%, 50%)" />
<rect x="44" y="36" width="2" height="2" fill="hsl(20, 90%, 50%)" />
<rect x="58" y="36" width="2" height="2" fill="hsl(20, 90%, 50%)" />
<rect x="60" y="36" width="2" height="2" fill="hsl(20, 90%, 50%)" />
<rect x="62" y="36" width="2" height="2" fill="hsl(20, 90%, 50%)" />
<rect x="6" y="38" width="2" height="2" fill="hsl(20, 90%, 50%)" />
<rect x="8" y="38" width="2" height="2" fill="hsl(20, 90%, 50%)" />
<rect x="10" y="38" width="2" height="2" fill="hsl(20, 90%, 50%)" />
<rect x="46" y="38" width="2" height="2" fill="hsl(20, 90%, 50%)" />
<rect x="48" y="38" width="2" height="2" fill="hsl(20, 90%, 50%)" />
<rect x="50" y="38" width="2" height="2" fill="hsl(20, 90%, 50%)" />
<rect x="58" y="38" width="2" height="2" fill="hsl(20, 90%, 50%)" />
<rect x="60" y="38" width="2" height="2" fill="hsl(20, 90%, 50%)" />
<rect x="62" y="38" width="2" height="2" fill="hsl(20, 90%, 50%)" />
<rect x="4" y="40" width="2" height="2" fill="hsl(20, 90%, 50%)" />
<rect x="6" y="42" width="2" height="2" fill="hsl(20, 90%, 50%)" />
<rect x="6" y="44" width="2" height="2" fill="hsl(20, 90%, 50%)" />
</svg>