<?xml version="1.0" encoding="utf-8"?>
<svg xmlns="http://www.w3.org/2000/svg" width="80" height="52" viewBox="0 0 80 52">
<rect width="100%" height="100%" fill="transparent" />
<rect x="16" y="4" width="4" height="4" fill="hsl(20, 90%, 50%)" />
<rect x="20" y="4" width="4" height="4" fill="hsl(20, 90%, 50%)" />
<rect x="56" y="4" width="4" height="4" fill="hsl(20, 90%, 50%)" />
<rect x="60" y="4" width="4" height="4" fill="hsl(20, 90%, 50%)" />
<rect x="16" y="8" width="4" height="4" fill="hsl(20, 90%, 50%)" />
<rect x="24" y="8" width="4" height="4" fill="hsl(20, 90%, 50%)" />
<rect x="52" y="8" width="4" height="4" fill="hsl(20, 90%, 50%)" />
<rect x="60" y="8" width="4" height="4" fill="hsl(20, 90%, 50%)" />
<rect x="24" y="12" width="4" height="4" fill="hsl(20, 90%, 50%)" />
<rect x="52" y="12" width="4" height="4" fill="hsl(20, 90%, 50%)" />
<rect x="16" y="16" width="4" height="4" fill="hsl(20, 90%, 50%)" />
<rect x="24" y="16" width="4" height="4" fill="hsl(20, 90%, 50%)" />
<rect x="28" y="16" width="4" height="4" fill="hsl(20, 90%, 50%)" />
<rect x="48" y="16" width="4" height="4" fill="hsl(20, 90%, 50%)" />
<rect x="52" y="16" width="4" height="4" fill="hsl(20, 90%, 50%)" />
<rect x="60" y="16" width="4" height="4" fill="hsl(20, 90%, 50%)" />
<rect x="8" y="20" width="4" height="4" fill="hsl(20, 90%, 50%)" />
<rect x="12" y="20" width="4" height="4" fill="hsl(20, 90%, 50%)" />
<rect x="16" y="20" width="4" height="4" fill="hsl(20, 90%, 50%)" />
<rect x="60" y="20" width="4" height="4" fill="hsl(20, 90%, 50%)" />
<rect x="64" y="20" width="4" height="4" fill="hsl(20, 90%, 50%)" />
<rect x="68" y="20" width="4" height="4" fill="hsl(20, 90%, 50%)" />
<rect x="4" y="24" width="4" height="4" fill="hsl(20, 90%, 50%)" />
<rect x="20" y="24" width="4" height="4" fill="hsl(20, 90%, 50%)" />
<rect x="28" y="24" width="4" height="4" fill="hsl(20, 90%, 50%)" />
<rect x="48" y="24" width="4" height="4" fill="hsl(20, 90%, 50%)" />
<rect x="56" y="24" width="4" height="4" fill="hsl(20, 90%, 50%)" />
<rect x="72" y="24" width="4" height="4" fill="hsl(20, 90%, 50%)" />
<rect x="8" y="28" width="4" height="4" fill="hsl(20, 90%, 50%)" />
<rect x="12" y="28" width="4" height="4" fill="hsl(20, 90%, 50%)" />
<rect x="16" y="28" width="4" height="4" fill="hsl(20, 90%, 50%)" />
<rect x="60" y="28" width="4" height="4" fill="hsl(20, 90%, 50%)" />
<rect x="64" y="28" width="4" height="4" fill="hsl(20, 90%, 50%)" />
<rect x="68" y="28" width="4" height="4" fill="hsl(20, 90%, 50%)" />
<rect x="16" y="32" width="4" height="4" fill="hsl(20, 90%, 50%)" />
<rect x="24" y="32" width="4" height="4" fill="hsl(20, 90%, 50%)" />
<rect x="28" y="32" width="4" height="4" fill="hsl(20, 90%, 50%)" />
<rect x="48" y="32" width="4" height="4" fill="hsl(20, 90%, 50%)" />
<rect x="52" y="32" width="4" height="4" fill="hsl(20, 90%, 50%)" />
<rect x="60" y="32" width="4" height="4" fill="hsl(20, 90%, 50%)" />
<rect x="24" y="36" width="4" height="4" fill="hsl(20, 90%, 50%)" />
<rect x="52" y="36" width="4" height="4" fill="hsl(20, 90%, 50%)" />
<rect x="16" y="40" width="4" height="4" fill="hsl(20, 90%, 50%)" />
<rect x="24" y="40" width="4" height="4" fill="hsl(20, 90%, 50%)" />
<rect x="52" y="40" width="4" height="4" fill="hsl(20, 90%, 50%)" />
<rect x="60" y="40" width="4" height="4" fill="hsl(20, 90%, 50%)" />
<rect x="16" y="44" width="4" height="4" fill="hsl(20, 90%, 50%)" />
<rect x="20" y="44" width="4" height="4" fill="hsl(20, 90%, 50%)" />
<rect x="56" y="44" width="4" height="4" fill="hsl(20, 90%, 50%)" />
<rect x="60" y="44" width="4" height="4" fill="hsl(20, 90%, 50%)" />
</svg>