<?xml version="1.0" encoding="utf-8"?>
<svg xmlns="http://www.w3.org/2000/svg" width="89" height="89" viewBox="0 0 89 89">
<rect width="100%" height="100%" fill="transparent" />
<rect x="58" y="4" width="3" height="3" fill="hsl(20, 90%, 50%)" />
<rect x="55" y="7" width="3" height="3" fill="hsl(20, 90%, 50%)" />
<rect x="58" y="7" width="3" height="3" fill="hsl(20, 90%, 50%)" />
<rect x="61" y="7" width="3" height="3" fill="hsl(20, 90%, 50%)" />
<rect x="40" y="10" width="3" height="3" fill="hsl(20, 90%, 50%)" />
<rect x="43" y="10" width="3" height="3" fill="hsl(20, 90%, 50%)" />
<rect x="46" y="10" width="3" height="3" fill="hsl(20, 90%, 50%)" />
<rect x="61" y="10" width="3" height="3" fill="hsl(20, 90%, 50%)" />
<rect x="64" y="10" width="3" height="3" fill="hsl(20, 90%, 50%)" />
<rect x="37" y="13" width="3" height="3" fill="hsl(20, 90%, 50%)" />
<rect x="46" y="13" width="3" height="3" fill="hsl(20, 90%, 50%)" />
<rect x="49" y="13" width="3" height="3" fill="hsl(20, 90%, 50%)" />
<rect x="52" y="13" width="3" height="3" fill="hsl(20, 90%, 50%)" />
<rect x="61" y="13" width="3" height="3" fill="hsl(20, 90%, 50%)" />
<rect x="67" y="13" width="3" height="3" fill="hsl(20, 90%, 50%)" />
<rect x="70" y="13" width="3" height="3" fill="hsl(20, 90%, 50%)" />
<rect x="34" y="16" width="3" height="3" fill="hsl(20, 90%, 50%)" />
<rect x="46" y="16" width="3" height="3" fill="hsl(20, 90%, 50%)" />
<rect x="52" y="16" width="3" height="3" fill="hsl(20, 90%, 50%)" />
<rect x="61" y="16" width="3" height="3" fill="hsl(20, 90%, 50%)" />
<rect x="67" y="16" width="3" height="3" fill="hsl(20, 90%, 50%)" />
<rect x="34" y="19" width="3" height="3" fill="hsl(20, 90%, 50%)" />
<rect x="49" y="19" width="3" height="3" fill="hsl(20, 90%, 50%)" />
<rect x="55" y="19" width="3" height="3" fill="hsl(20, 90%, 50%)" />
<rect x="61" y="19" width="3" height="3" fill="hsl(20, 90%, 50%)" />
<rect x="67" y="19" width="3" height="3" fill="hsl(20, 90%, 50%)" />
<rect x="73" y="19" width="3" height="3" fill="hsl(20, 90%, 50%)" />
<rect x="76" y="19" width="3" height="3" fill="hsl(20, 90%, 50%)" />
<rect x="40" y="22" width="3" height="3" fill="hsl(20, 90%, 50%)" />
<rect x="55" y="22" width="3" height="3" fill="hsl(20, 90%, 50%)" />
<rect x="61" y="22" width="3" height="3" fill="hsl(20, 90%, 50%)" />
<rect x="73" y="22" width="3" height="3" fill="hsl(20, 90%, 50%)" />
<rect x="76" y="22" width="3" height="3" fill="hsl(20, 90%, 50%)" />
<rect x="4" y="25" width="3" height="3" fill="hsl(20, 90%, 50%)" />
<rect x="7" y="25" width="3" height="3" fill="hsl(20, 90%, 50%)" />
<rect x="10" y="25" width="3" height="3" fill="hsl(20, 90%, 50%)" />
<rect x="13" y="25" width="3" height="3" fill="hsl(20, 90%, 50%)" />
<rect x="31" y="25" width="3" height="3" fill="hsl(20, 90%, 50%)" />
<rect x="37" y="25" width="3" height="3" fill="hsl(20, 90%, 50%)" />
<rect x="52" y="25" width="3" height="3" fill="hsl(20, 90%, 50%)" />
<rect x="64" y="25" width="3" height="3" fill="hsl(20, 90%, 50%)" />
<rect x="70" y="25" width="3" height="3" fill="hsl(20, 90%, 50%)" />
<rect x="73" y="25" width="3" height="3" fill="hsl(20, 90%, 50%)" />
<rect x="76" y="25" width="3" height="3" fill="hsl(20, 90%, 50%)" />
<rect x="4" y="28" width="3" height="3" fill="hsl(20, 90%, 50%)" />
<rect x="16" y="28" width="3" height="3" fill="hsl(20, 90%, 50%)" />
<rect x="19" y="28" width="3" height="3" fill="hsl(20, 90%, 50%)" />
<rect x="25" y="28" width="3" height="3" fill="hsl(20, 90%, 50%)" />
<rect x="31" y="28" width="3" height="3" fill="hsl(20, 90%, 50%)" />
<rect x="34" y="28" width="3" height="3" fill="hsl(20, 90%, 50%)" />
<rect x="37" y="28" width="3" height="3" fill="hsl(20, 90%, 50%)" />
<rect x="43" y="28" width="3" height="3" fill="hsl(20, 90%, 50%)" />
<rect x="46" y="28" width="3" height="3" fill="hsl(20, 90%, 50%)" />
<rect x="76" y="28" width="3" height="3" fill="hsl(20, 90%, 50%)" />
<rect x="79" y="28" width="3" height="3" fill="hsl(20, 90%, 50%)" />
<rect x="4" y="31" width="3" height="3" fill="hsl(20, 90%, 50%)" />
<rect x="22" y="31" width="3" height="3" fill="hsl(20, 90%, 50%)" />
<rect x="25" y="31" width="3" height="3" fill="hsl(20, 90%, 50%)" />
<rect x="43" y="31" width="3" height="3" fill="hsl(20, 90%, 50%)" />
<rect x="7" y="34" width="3" height="3" fill="hsl(20, 90%, 50%)" />
<rect x="16" y="34" width="3" height="3" fill="hsl(20, 90%, 50%)" />
<rect x="19" y="34" width="3" height="3" fill="hsl(20, 90%, 50%)" />
<rect x="25" y="34" width="3" height="3" fill="hsl(20, 90%, 50%)" />
<rect x="34" y="34" width="3" height="3" fill="hsl(20, 90%, 50%)" />
<rect x="43" y="34" width="3" height="3" fill="hsl(20, 90%, 50%)" />
<rect x="49" y="34" width="3" height="3" fill="hsl(20, 90%, 50%)" />
<rect x="52" y="34" width="3" height="3" fill="hsl(20, 90%, 50%)" />
<rect x="25" y="37" width="3" height="3" fill="hsl(20, 90%, 50%)" />
<rect x="31" y="37" width="3" height="3" fill="hsl(20, 90%, 50%)" />
<rect x="37" y="37" width="3" height="3" fill="hsl(20, 90%, 50%)" />
<rect x="43" y="37" width="3" height="3" fill="hsl(20, 90%, 50%)" />
<rect x="49" y="37" width="3" height="3" fill="hsl(20, 90%, 50%)" />
<rect x="55" y="37" width="3" height="3" fill="hsl(20, 90%, 50%)" />
<rect x="73" y="37" width="3" height="3" fill="hsl(20, 90%, 50%)" />
<rect x="76" y="37" width="3" height="3" fill="hsl(20, 90%, 50%)" />
<rect x="79" y="37" width="3" height="3" fill="hsl(20, 90%, 50%)" />
<rect x="82" y="37" width="3" height="3" fill="hsl(20, 90%, 50%)" />
<rect x="7" y="40" width="3" height="3" fill="hsl(20, 90%, 50%)" />
<rect x="16" y="40" width="3" height="3" fill="hsl(20, 90%, 50%)" />
<rect x="19" y="40" width="3" height="3" fill="hsl(20, 90%, 50%)" />
<rect x="25" y="40" width="3" height="3" fill="hsl(20, 90%, 50%)" />
<rect x="34" y="40" width="3" height="3" fill="hsl(20, 90%, 50%)" />
<rect x="43" y="40" width="3" height="3" fill="hsl(20, 90%, 50%)" />
<rect x="52" y="40" width="3" height="3" fill="hsl(20, 90%, 50%)" />
<rect x="55" y="40" width="3" height="3" fill="hsl(20, 90%, 50%)" />
<rect x="61" y="40" width="3" height="3" fill="hsl(20, 90%, 50%)" />
<rect x="67" y="40" width="3" height="3" fill="hsl(20, 90%, 50%)" />
<rect x="70" y="40" width="3" height="3" fill="hsl(20, 90%, 50%)" />
<rect x="82" y="40" width="3" height="3" fill="hsl(20, 90%, 50%)" />
<rect x="4" y="43" width="3" height="3" fill="hsl(20, 90%, 50%)" />
<rect x="22" y="43" width="3" height="3" fill="hsl(20, 90%, 50%)" />
<rect x="25" y="43" width="3" height="3" fill="hsl(20, 90%, 50%)" />
<rect x="37" y="43" width="3" height="3" fill="hsl(20, 90%, 50%)" />
<rect x="43" y="43" width="3" height="3" fill="hsl(20, 90%, 50%)" />
<rect x="49" y="43" width="3" height="3" fill="hsl(20, 90%, 50%)" />
<rect x="61" y="43" width="3" height="3" fill="hsl(20, 90%, 50%)" />
<rect x="64" y="43" width="3" height="3" fill="hsl(20, 90%, 50%)" />
<rect x="82" y="43" width="3" height="3" fill="hsl(20, 90%, 50%)" />
<rect x="4" y="46" width="3" height="3" fill="hsl(20, 90%, 50%)" />
<rect x="16" y="46" width="3" height="3" fill="hsl(20, 90%, 50%)" />
<rect x="19" y="46" width="3" height="3" fill="hsl(20, 90%, 50%)" />
<rect x="25" y="46" width="3" height="3" fill="hsl(20, 90%, 50%)" />
<rect x="31" y="46" width="3" height="3" fill="hsl(20, 90%, 50%)" />
<rect x="34" y="46" width="3" height="3" fill="hsl(20, 90%, 50%)" />
<rect x="43" y="46" width="3" height="3" fill="hsl(20, 90%, 50%)" />
<rect x="52" y="46" width="3" height="3" fill="hsl(20, 90%, 50%)" />
<rect x="61" y="46" width="3" height="3" fill="hsl(20, 90%, 50%)" />
<rect x="67" y="46" width="3" height="3" fill="hsl(20, 90%, 50%)" />
<rect x="70" y="46" width="3" height="3" fill="hsl(20, 90%, 50%)" />
<rect x="79" y="46" width="3" height="3" fill="hsl(20, 90%, 50%)" />
<rect x="4" y="49" width="3" height="3" fill="hsl(20, 90%, 50%)" />
<rect x="7" y="49" width="3" height="3" fill="hsl(20, 90%, 50%)" />
<rect x="10" y="49" width="3" height="3" fill="hsl(20, 90%, 50%)" />
<rect x="13" y="49" width="3" height="3" fill="hsl(20, 90%, 50%)" />
<rect x="31" y="49" width="3" height="3" fill="hsl(20, 90%, 50%)" />
<rect x="37" y="49" width="3" height="3" fill="hsl(20, 90%, 50%)" />
<rect x="43" y="49" width="3" height="3" fill="hsl(20, 90%, 50%)" />
<rect x="49" y="49" width="3" height="3" fill="hsl(20, 90%, 50%)" />
<rect x="55" y="49" width="3" height="3" fill="hsl(20, 90%, 50%)" />
<rect x="61" y="49" width="3" height="3" fill="hsl(20, 90%, 50%)" />
<rect x="34" y="52" width="3" height="3" fill="hsl(20, 90%, 50%)" />
<rect x="37" y="52" width="3" height="3" fill="hsl(20, 90%, 50%)" />
<rect x="43" y="52" width="3" height="3" fill="hsl(20, 90%, 50%)" />
<rect x="52" y="52" width="3" height="3" fill="hsl(20, 90%, 50%)" />
<rect x="61" y="52" width="3" height="3" fill="hsl(20, 90%, 50%)" />
<rect x="67" y="52" width="3" height="3" fill="hsl(20, 90%, 50%)" />
<rect x="70" y="52" width="3" height="3" fill="hsl(20, 90%, 50%)" />
<rect x="79" y="52" width="3" height="3" fill="hsl(20, 90%, 50%)" />
<rect x="43" y="55" width="3" height="3" fill="hsl(20, 90%, 50%)" />
<rect x="61" y="55" width="3" height="3" fill="hsl(20, 90%, 50%)" />
<rect x="64" y="55" width="3" height="3" fill="hsl(20, 90%, 50%)" />
<rect x="82" y="55" width="3" height="3" fill="hsl(20, 90%, 50%)" />
<rect x="7" y="58" width="3" height="3" fill="hsl(20, 90%, 50%)" />
<rect x="10" y="58" width="3" height="3" fill="hsl(20, 90%, 50%)" />
<rect x="40" y="58" width="3" height="3" fill="hsl(20, 90%, 50%)" />
<rect x="43" y="58" width="3" height="3" fill="hsl(20, 90%, 50%)" />
<rect x="49" y="58" width="3" height="3" fill="hsl(20, 90%, 50%)" />
<rect x="52" y="58" width="3" height="3" fill="hsl(20, 90%, 50%)" />
<rect x="55" y="58" width="3" height="3" fill="hsl(20, 90%, 50%)" />
<rect x="61" y="58" width="3" height="3" fill="hsl(20, 90%, 50%)" />
<rect x="67" y="58" width="3" height="3" fill="hsl(20, 90%, 50%)" />
<rect x="70" y="58" width="3" height="3" fill="hsl(20, 90%, 50%)" />
<rect x="82" y="58" width="3" height="3" fill="hsl(20, 90%, 50%)" />
<rect x="10" y="61" width="3" height="3" fill="hsl(20, 90%, 50%)" />
<rect x="13" y="61" width="3" height="3" fill="hsl(20, 90%, 50%)" />
<rect x="16" y="61" width="3" height="3" fill="hsl(20, 90%, 50%)" />
<rect x="22" y="61" width="3" height="3" fill="hsl(20, 90%, 50%)" />
<rect x="34" y="61" width="3" height="3" fill="hsl(20, 90%, 50%)" />
<rect x="49" y="61" width="3" height="3" fill="hsl(20, 90%, 50%)" />
<rect x="55" y="61" width="3" height="3" fill="hsl(20, 90%, 50%)" />
<rect x="73" y="61" width="3" height="3" fill="hsl(20, 90%, 50%)" />
<rect x="76" y="61" width="3" height="3" fill="hsl(20, 90%, 50%)" />
<rect x="79" y="61" width="3" height="3" fill="hsl(20, 90%, 50%)" />
<rect x="82" y="61" width="3" height="3" fill="hsl(20, 90%, 50%)" />
<rect x="10" y="64" width="3" height="3" fill="hsl(20, 90%, 50%)" />
<rect x="13" y="64" width="3" height="3" fill="hsl(20, 90%, 50%)" />
<rect x="25" y="64" width="3" height="3" fill="hsl(20, 90%, 50%)" />
<rect x="31" y="64" width="3" height="3" fill="hsl(20, 90%, 50%)" />
<rect x="46" y="64" width="3" height="3" fill="hsl(20, 90%, 50%)" />
<rect x="10" y="67" width="3" height="3" fill="hsl(20, 90%, 50%)" />
<rect x="13" y="67" width="3" height="3" fill="hsl(20, 90%, 50%)" />
<rect x="19" y="67" width="3" height="3" fill="hsl(20, 90%, 50%)" />
<rect x="25" y="67" width="3" height="3" fill="hsl(20, 90%, 50%)" />
<rect x="31" y="67" width="3" height="3" fill="hsl(20, 90%, 50%)" />
<rect x="37" y="67" width="3" height="3" fill="hsl(20, 90%, 50%)" />
<rect x="52" y="67" width="3" height="3" fill="hsl(20, 90%, 50%)" />
<rect x="19" y="70" width="3" height="3" fill="hsl(20, 90%, 50%)" />
<rect x="25" y="70" width="3" height="3" fill="hsl(20, 90%, 50%)" />
<rect x="34" y="70" width="3" height="3" fill="hsl(20, 90%, 50%)" />
<rect x="40" y="70" width="3" height="3" fill="hsl(20, 90%, 50%)" />
<rect x="52" y="70" width="3" height="3" fill="hsl(20, 90%, 50%)" />
<rect x="16" y="73" width="3" height="3" fill="hsl(20, 90%, 50%)" />
<rect x="19" y="73" width="3" height="3" fill="hsl(20, 90%, 50%)" />
<rect x="25" y="73" width="3" height="3" fill="hsl(20, 90%, 50%)" />
<rect x="34" y="73" width="3" height="3" fill="hsl(20, 90%, 50%)" />
<rect x="37" y="73" width="3" height="3" fill="hsl(20, 90%, 50%)" />
<rect x="40" y="73" width="3" height="3" fill="hsl(20, 90%, 50%)" />
<rect x="49" y="73" width="3" height="3" fill="hsl(20, 90%, 50%)" />
<rect x="22" y="76" width="3" height="3" fill="hsl(20, 90%, 50%)" />
<rect x="25" y="76" width="3" height="3" fill="hsl(20, 90%, 50%)" />
<rect x="40" y="76" width="3" height="3" fill="hsl(20, 90%, 50%)" />
<rect x="43" y="76" width="3" height="3" fill="hsl(20, 90%, 50%)" />
<rect x="46" y="76" width="3" height="3" fill="hsl(20, 90%, 50%)" />
<rect x="25" y="79" width="3" height="3" fill="hsl(20, 90%, 50%)" />
<rect x="28" y="79" width="3" height="3" fill="hsl(20, 90%, 50%)" />
<rect x="31" y="79" width="3" height="3" fill="hsl(20, 90%, 50%)" />
<rect x="28" y="82" width="3" height="3" fill="hsl(20, 90%, 50%)" />
</svg>