<?xml version="1.0" encoding="utf-8"?>
<svg xmlns="http://www.w3.org/2000/svg" width="70" height="34" viewBox="0 0 70 34">
<rect width="100%" height="100%" fill="transparent" />
<rect x="24" y="4" width="2" height="2" fill="hsl(20, 90%, 50%)" />
<rect x="24" y="6" width="2" height="2" fill="hsl(20, 90%, 50%)" />
<rect x="56" y="6" width="2" height="2" fill="hsl(20, 90%, 50%)" />
<rect x="58" y="6" width="2" height="2" fill="hsl(20, 90%, 50%)" />
<rect x="16" y="8" width="2" height="2" fill="hsl(20, 90%, 50%)" />
<rect x="18" y="8" width="2" height="2" fill="hsl(20, 90%, 50%)" />
<rect x="22" y="8" width="2" height="2" fill="hsl(20, 90%, 50%)" />
<rect x="26" y="8" width="2" height="2" fill="hsl(20, 90%, 50%)" />
<rect x="28" y="8" width="2" height="2" fill="hsl(20, 90%, 50%)" />
<rect x="30" y="8" width="2" height="2" fill="hsl(20, 90%, 50%)" />
<rect x="52" y="8" width="2" height="2" fill="hsl(20, 90%, 50%)" />
<rect x="54" y="8" width="2" height="2" fill="hsl(20, 90%, 50%)" />
<rect x="62" y="8" width="2" height="2" fill="hsl(20, 90%, 50%)" />
<rect x="4" y="10" width="2" height="2" fill="hsl(20, 90%, 50%)" />
<rect x="8" y="10" width="2" height="2" fill="hsl(20, 90%, 50%)" />
<rect x="10" y="10" width="2" height="2" fill="hsl(20, 90%, 50%)" />
<rect x="14" y="10" width="2" height="2" fill="hsl(20, 90%, 50%)" />
<rect x="16" y="10" width="2" height="2" fill="hsl(20, 90%, 50%)" />
<rect x="20" y="10" width="2" height="2" fill="hsl(20, 90%, 50%)" />
<rect x="22" y="10" width="2" height="2" fill="hsl(20, 90%, 50%)" />
<rect x="28" y="10" width="2" height="2" fill="hsl(20, 90%, 50%)" />
<rect x="32" y="10" width="2" height="2" fill="hsl(20, 90%, 50%)" />
<rect x="40" y="10" width="2" height="2" fill="hsl(20, 90%, 50%)" />
<rect x="42" y="10" width="2" height="2" fill="hsl(20, 90%, 50%)" />
<rect x="46" y="10" width="2" height="2" fill="hsl(20, 90%, 50%)" />
<rect x="48" y="10" width="2" height="2" fill="hsl(20, 90%, 50%)" />
<rect x="50" y="10" width="2" height="2" fill="hsl(20, 90%, 50%)" />
<rect x="52" y="10" width="2" height="2" fill="hsl(20, 90%, 50%)" />
<rect x="4" y="12" width="2" height="2" fill="hsl(20, 90%, 50%)" />
<rect x="12" y="12" width="2" height="2" fill="hsl(20, 90%, 50%)" />
<rect x="14" y="12" width="2" height="2" fill="hsl(20, 90%, 50%)" />
<rect x="20" y="12" width="2" height="2" fill="hsl(20, 90%, 50%)" />
<rect x="24" y="12" width="2" height="2" fill="hsl(20, 90%, 50%)" />
<rect x="26" y="12" width="2" height="2" fill="hsl(20, 90%, 50%)" />
<rect x="32" y="12" width="2" height="2" fill="hsl(20, 90%, 50%)" />
<rect x="34" y="12" width="2" height="2" fill="hsl(20, 90%, 50%)" />
<rect x="36" y="12" width="2" height="2" fill="hsl(20, 90%, 50%)" />
<rect x="42" y="12" width="2" height="2" fill="hsl(20, 90%, 50%)" />
<rect x="46" y="12" width="2" height="2" fill="hsl(20, 90%, 50%)" />
<rect x="48" y="12" width="2" height="2" fill="hsl(20, 90%, 50%)" />
<rect x="54" y="12" width="2" height="2" fill="hsl(20, 90%, 50%)" />
<rect x="56" y="12" width="2" height="2" fill="hsl(20, 90%, 50%)" />
<rect x="64" y="12" width="2" height="2" fill="hsl(20, 90%, 50%)" />
<rect x="4" y="14" width="2" height="2" fill="hsl(20, 90%, 50%)" />
<rect x="8" y="14" width="2" height="2" fill="hsl(20, 90%, 50%)" />
<rect x="10" y="14" width="2" height="2" fill="hsl(20, 90%, 50%)" />
<rect x="20" y="14" width="2" height="2" fill="hsl(20, 90%, 50%)" />
<rect x="22" y="14" width="2" height="2" fill="hsl(20, 90%, 50%)" />
<rect x="24" y="14" width="2" height="2" fill="hsl(20, 90%, 50%)" />
<rect x="28" y="14" width="2" height="2" fill="hsl(20, 90%, 50%)" />
<rect x="32" y="14" width="2" height="2" fill="hsl(20, 90%, 50%)" />
<rect x="34" y="14" width="2" height="2" fill="hsl(20, 90%, 50%)" />
<rect x="36" y="14" width="2" height="2" fill="hsl(20, 90%, 50%)" />
<rect x="50" y="14" width="2" height="2" fill="hsl(20, 90%, 50%)" />
<rect x="52" y="14" width="2" height="2" fill="hsl(20, 90%, 50%)" />
<rect x="58" y="14" width="2" height="2" fill="hsl(20, 90%, 50%)" />
<rect x="20" y="16" width="2" height="2" fill="hsl(20, 90%, 50%)" />
<rect x="22" y="16" width="2" height="2" fill="hsl(20, 90%, 50%)" />
<rect x="26" y="16" width="2" height="2" fill="hsl(20, 90%, 50%)" />
<rect x="58" y="16" width="2" height="2" fill="hsl(20, 90%, 50%)" />
<rect x="64" y="16" width="2" height="2" fill="hsl(20, 90%, 50%)" />
<rect x="4" y="18" width="2" height="2" fill="hsl(20, 90%, 50%)" />
<rect x="8" y="18" width="2" height="2" fill="hsl(20, 90%, 50%)" />
<rect x="10" y="18" width="2" height="2" fill="hsl(20, 90%, 50%)" />
<rect x="20" y="18" width="2" height="2" fill="hsl(20, 90%, 50%)" />
<rect x="22" y="18" width="2" height="2" fill="hsl(20, 90%, 50%)" />
<rect x="24" y="18" width="2" height="2" fill="hsl(20, 90%, 50%)" />
<rect x="28" y="18" width="2" height="2" fill="hsl(20, 90%, 50%)" />
<rect x="32" y="18" width="2" height="2" fill="hsl(20, 90%, 50%)" />
<rect x="34" y="18" width="2" height="2" fill="hsl(20, 90%, 50%)" />
<rect x="36" y="18" width="2" height="2" fill="hsl(20, 90%, 50%)" />
<rect x="50" y="18" width="2" height="2" fill="hsl(20, 90%, 50%)" />
<rect x="52" y="18" width="2" height="2" fill="hsl(20, 90%, 50%)" />
<rect x="58" y="18" width="2" height="2" fill="hsl(20, 90%, 50%)" />
<rect x="4" y="20" width="2" height="2" fill="hsl(20, 90%, 50%)" />
<rect x="12" y="20" width="2" height="2" fill="hsl(20, 90%, 50%)" />
<rect x="14" y="20" width="2" height="2" fill="hsl(20, 90%, 50%)" />
<rect x="20" y="20" width="2" height="2" fill="hsl(20, 90%, 50%)" />
<rect x="24" y="20" width="2" height="2" fill="hsl(20, 90%, 50%)" />
<rect x="26" y="20" width="2" height="2" fill="hsl(20, 90%, 50%)" />
<rect x="32" y="20" width="2" height="2" fill="hsl(20, 90%, 50%)" />
<rect x="34" y="20" width="2" height="2" fill="hsl(20, 90%, 50%)" />
<rect x="36" y="20" width="2" height="2" fill="hsl(20, 90%, 50%)" />
<rect x="42" y="20" width="2" height="2" fill="hsl(20, 90%, 50%)" />
<rect x="46" y="20" width="2" height="2" fill="hsl(20, 90%, 50%)" />
<rect x="48" y="20" width="2" height="2" fill="hsl(20, 90%, 50%)" />
<rect x="54" y="20" width="2" height="2" fill="hsl(20, 90%, 50%)" />
<rect x="56" y="20" width="2" height="2" fill="hsl(20, 90%, 50%)" />
<rect x="64" y="20" width="2" height="2" fill="hsl(20, 90%, 50%)" />
<rect x="4" y="22" width="2" height="2" fill="hsl(20, 90%, 50%)" />
<rect x="8" y="22" width="2" height="2" fill="hsl(20, 90%, 50%)" />
<rect x="10" y="22" width="2" height="2" fill="hsl(20, 90%, 50%)" />
<rect x="14" y="22" width="2" height="2" fill="hsl(20, 90%, 50%)" />
<rect x="16" y="22" width="2" height="2" fill="hsl(20, 90%, 50%)" />
<rect x="20" y="22" width="2" height="2" fill="hsl(20, 90%, 50%)" />
<rect x="22" y="22" width="2" height="2" fill="hsl(20, 90%, 50%)" />
<rect x="28" y="22" width="2" height="2" fill="hsl(20, 90%, 50%)" />
<rect x="32" y="22" width="2" height="2" fill="hsl(20, 90%, 50%)" />
<rect x="40" y="22" width="2" height="2" fill="hsl(20, 90%, 50%)" />
<rect x="42" y="22" width="2" height="2" fill="hsl(20, 90%, 50%)" />
<rect x="46" y="22" width="2" height="2" fill="hsl(20, 90%, 50%)" />
<rect x="48" y="22" width="2" height="2" fill="hsl(20, 90%, 50%)" />
<rect x="50" y="22" width="2" height="2" fill="hsl(20, 90%, 50%)" />
<rect x="52" y="22" width="2" height="2" fill="hsl(20, 90%, 50%)" />
<rect x="16" y="24" width="2" height="2" fill="hsl(20, 90%, 50%)" />
<rect x="18" y="24" width="2" height="2" fill="hsl(20, 90%, 50%)" />
<rect x="22" y="24" width="2" height="2" fill="hsl(20, 90%, 50%)" />
<rect x="26" y="24" width="2" height="2" fill="hsl(20, 90%, 50%)" />
<rect x="28" y="24" width="2" height="2" fill="hsl(20, 90%, 50%)" />
<rect x="30" y="24" width="2" height="2" fill="hsl(20, 90%, 50%)" />
<rect x="52" y="24" width="2" height="2" fill="hsl(20, 90%, 50%)" />
<rect x="54" y="24" width="2" height="2" fill="hsl(20, 90%, 50%)" />
<rect x="62" y="24" width="2" height="2" fill="hsl(20, 90%, 50%)" />
<rect x="24" y="26" width="2" height="2" fill="hsl(20, 90%, 50%)" />
<rect x="56" y="26" width="2" height="2" fill="hsl(20, 90%, 50%)" />
<rect x="58" y="26" width="2" height="2" fill="hsl(20, 90%, 50%)" />
<rect x="24" y="28" width="2" height="2" fill="hsl(20, 90%, 50%)" />
</svg>