<?xml version="1.0" encoding="utf-8"?>
<svg xmlns="http://www.w3.org/2000/svg" width="55" height="31" viewBox="0 0 55 31">
<rect width="100%" height="100%" fill="transparent" />
<rect x="5" y="4" width="1" height="1" fill="hsl(20, 90%, 50%)" />
<rect x="12" y="4" width="1" height="1" fill="hsl(20, 90%, 50%)" />
<rect x="14" y="4" width="1" height="1" fill="hsl(20, 90%, 50%)" />
<rect x="20" y="4" width="1" height="1" fill="hsl(20, 90%, 50%)" />
<rect x="25" y="4" width="1" height="1" fill="hsl(20, 90%, 50%)" />
<rect x="27" y="4" width="1" height="1" fill="hsl(20, 90%, 50%)" />
<rect x="29" y="4" width="1" height="1" fill="hsl(20, 90%, 50%)" />
<rect x="49" y="4" width="1" height="1" fill="hsl(20, 90%, 50%)" />
<rect x="48" y="5" width="1" height="1" fill="hsl(20, 90%, 50%)" />
<rect x="5" y="6" width="1" height="1" fill="hsl(20, 90%, 50%)" />
<rect x="11" y="6" width="1" height="1" fill="hsl(20, 90%, 50%)" />
<rect x="15" y="6" width="1" height="1" fill="hsl(20, 90%, 50%)" />
<rect x="19" y="6" width="1" height="1" fill="hsl(20, 90%, 50%)" />
<rect x="21" y="6" width="1" height="1" fill="hsl(20, 90%, 50%)" />
<rect x="25" y="6" width="1" height="1" fill="hsl(20, 90%, 50%)" />
<rect x="48" y="6" width="1" height="1" fill="hsl(20, 90%, 50%)" />
<rect x="49" y="6" width="1" height="1" fill="hsl(20, 90%, 50%)" />
<rect x="50" y="6" width="1" height="1" fill="hsl(20, 90%, 50%)" />
<rect x="5" y="8" width="1" height="1" fill="hsl(20, 90%, 50%)" />
<rect x="11" y="8" width="1" height="1" fill="hsl(20, 90%, 50%)" />
<rect x="15" y="8" width="1" height="1" fill="hsl(20, 90%, 50%)" />
<rect x="18" y="8" width="1" height="1" fill="hsl(20, 90%, 50%)" />
<rect x="22" y="8" width="1" height="1" fill="hsl(20, 90%, 50%)" />
<rect x="25" y="8" width="1" height="1" fill="hsl(20, 90%, 50%)" />
<rect x="27" y="8" width="1" height="1" fill="hsl(20, 90%, 50%)" />
<rect x="29" y="8" width="1" height="1" fill="hsl(20, 90%, 50%)" />
<rect x="5" y="10" width="1" height="1" fill="hsl(20, 90%, 50%)" />
<rect x="11" y="10" width="1" height="1" fill="hsl(20, 90%, 50%)" />
<rect x="15" y="10" width="1" height="1" fill="hsl(20, 90%, 50%)" />
<rect x="18" y="10" width="1" height="1" fill="hsl(20, 90%, 50%)" />
<rect x="20" y="10" width="1" height="1" fill="hsl(20, 90%, 50%)" />
<rect x="22" y="10" width="1" height="1" fill="hsl(20, 90%, 50%)" />
<rect x="25" y="10" width="1" height="1" fill="hsl(20, 90%, 50%)" />
<rect x="44" y="11" width="1" height="1" fill="hsl(20, 90%, 50%)" />
<rect x="45" y="11" width="1" height="1" fill="hsl(20, 90%, 50%)" />
<rect x="5" y="12" width="1" height="1" fill="hsl(20, 90%, 50%)" />
<rect x="7" y="12" width="1" height="1" fill="hsl(20, 90%, 50%)" />
<rect x="9" y="12" width="1" height="1" fill="hsl(20, 90%, 50%)" />
<rect x="12" y="12" width="1" height="1" fill="hsl(20, 90%, 50%)" />
<rect x="14" y="12" width="1" height="1" fill="hsl(20, 90%, 50%)" />
<rect x="18" y="12" width="1" height="1" fill="hsl(20, 90%, 50%)" />
<rect x="22" y="12" width="1" height="1" fill="hsl(20, 90%, 50%)" />
<rect x="25" y="12" width="1" height="1" fill="hsl(20, 90%, 50%)" />
<rect x="43" y="12" width="1" height="1" fill="hsl(20, 90%, 50%)" />
<rect x="45" y="12" width="1" height="1" fill="hsl(20, 90%, 50%)" />
<rect x="45" y="13" width="1" height="1" fill="hsl(20, 90%, 50%)" />
<rect x="49" y="16" width="1" height="1" fill="hsl(20, 90%, 50%)" />
<rect x="48" y="17" width="1" height="1" fill="hsl(20, 90%, 50%)" />
<rect x="4" y="18" width="1" height="1" fill="hsl(20, 90%, 50%)" />
<rect x="6" y="18" width="1" height="1" fill="hsl(20, 90%, 50%)" />
<rect x="8" y="18" width="1" height="1" fill="hsl(20, 90%, 50%)" />
<rect x="13" y="18" width="1" height="1" fill="hsl(20, 90%, 50%)" />
<rect x="18" y="18" width="1" height="1" fill="hsl(20, 90%, 50%)" />
<rect x="20" y="18" width="1" height="1" fill="hsl(20, 90%, 50%)" />
<rect x="22" y="18" width="1" height="1" fill="hsl(20, 90%, 50%)" />
<rect x="25" y="18" width="1" height="1" fill="hsl(20, 90%, 50%)" />
<rect x="27" y="18" width="1" height="1" fill="hsl(20, 90%, 50%)" />
<rect x="29" y="18" width="1" height="1" fill="hsl(20, 90%, 50%)" />
<rect x="32" y="18" width="1" height="1" fill="hsl(20, 90%, 50%)" />
<rect x="34" y="18" width="1" height="1" fill="hsl(20, 90%, 50%)" />
<rect x="48" y="18" width="1" height="1" fill="hsl(20, 90%, 50%)" />
<rect x="49" y="18" width="1" height="1" fill="hsl(20, 90%, 50%)" />
<rect x="50" y="18" width="1" height="1" fill="hsl(20, 90%, 50%)" />
<rect x="36" y="19" width="1" height="1" fill="hsl(20, 90%, 50%)" />
<rect x="4" y="20" width="1" height="1" fill="hsl(20, 90%, 50%)" />
<rect x="12" y="20" width="1" height="1" fill="hsl(20, 90%, 50%)" />
<rect x="14" y="20" width="1" height="1" fill="hsl(20, 90%, 50%)" />
<rect x="20" y="20" width="1" height="1" fill="hsl(20, 90%, 50%)" />
<rect x="25" y="20" width="1" height="1" fill="hsl(20, 90%, 50%)" />
<rect x="32" y="20" width="1" height="1" fill="hsl(20, 90%, 50%)" />
<rect x="36" y="21" width="1" height="1" fill="hsl(20, 90%, 50%)" />
<rect x="4" y="22" width="1" height="1" fill="hsl(20, 90%, 50%)" />
<rect x="6" y="22" width="1" height="1" fill="hsl(20, 90%, 50%)" />
<rect x="8" y="22" width="1" height="1" fill="hsl(20, 90%, 50%)" />
<rect x="11" y="22" width="1" height="1" fill="hsl(20, 90%, 50%)" />
<rect x="15" y="22" width="1" height="1" fill="hsl(20, 90%, 50%)" />
<rect x="20" y="22" width="1" height="1" fill="hsl(20, 90%, 50%)" />
<rect x="25" y="22" width="1" height="1" fill="hsl(20, 90%, 50%)" />
<rect x="27" y="22" width="1" height="1" fill="hsl(20, 90%, 50%)" />
<rect x="29" y="22" width="1" height="1" fill="hsl(20, 90%, 50%)" />
<rect x="32" y="22" width="1" height="1" fill="hsl(20, 90%, 50%)" />
<rect x="34" y="22" width="1" height="1" fill="hsl(20, 90%, 50%)" />
<rect x="4" y="24" width="1" height="1" fill="hsl(20, 90%, 50%)" />
<rect x="11" y="24" width="1" height="1" fill="hsl(20, 90%, 50%)" />
<rect x="13" y="24" width="1" height="1" fill="hsl(20, 90%, 50%)" />
<rect x="15" y="24" width="1" height="1" fill="hsl(20, 90%, 50%)" />
<rect x="20" y="24" width="1" height="1" fill="hsl(20, 90%, 50%)" />
<rect x="25" y="24" width="1" height="1" fill="hsl(20, 90%, 50%)" />
<rect x="32" y="24" width="1" height="1" fill="hsl(20, 90%, 50%)" />
<rect x="35" y="24" width="1" height="1" fill="hsl(20, 90%, 50%)" />
<rect x="47" y="24" width="1" height="1" fill="hsl(20, 90%, 50%)" />
<rect x="46" y="25" width="1" height="1" fill="hsl(20, 90%, 50%)" />
<rect x="47" y="25" width="1" height="1" fill="hsl(20, 90%, 50%)" />
<rect x="4" y="26" width="1" height="1" fill="hsl(20, 90%, 50%)" />
<rect x="6" y="26" width="1" height="1" fill="hsl(20, 90%, 50%)" />
<rect x="8" y="26" width="1" height="1" fill="hsl(20, 90%, 50%)" />
<rect x="11" y="26" width="1" height="1" fill="hsl(20, 90%, 50%)" />
<rect x="15" y="26" width="1" height="1" fill="hsl(20, 90%, 50%)" />
<rect x="20" y="26" width="1" height="1" fill="hsl(20, 90%, 50%)" />
<rect x="25" y="26" width="1" height="1" fill="hsl(20, 90%, 50%)" />
<rect x="27" y="26" width="1" height="1" fill="hsl(20, 90%, 50%)" />
<rect x="29" y="26" width="1" height="1" fill="hsl(20, 90%, 50%)" />
<rect x="32" y="26" width="1" height="1" fill="hsl(20, 90%, 50%)" />
<rect x="36" y="26" width="1" height="1" fill="hsl(20, 90%, 50%)" />
<rect x="46" y="26" width="1" height="1" fill="hsl(20, 90%, 50%)" />
<rect x="48" y="26" width="1" height="1" fill="hsl(20, 90%, 50%)" />
</svg>