<?xml version="1.0" encoding="utf-8"?>
<svg xmlns="http://www.w3.org/2000/svg" width="80" height="44" viewBox="0 0 80 44">
<rect width="100%" height="100%" fill="transparent" />
<rect x="7" y="4" width="3" height="3" fill="hsl(20, 90%, 50%)" />
<rect x="40" y="4" width="3" height="3" fill="hsl(20, 90%, 50%)" />
<rect x="43" y="4" width="3" height="3" fill="hsl(20, 90%, 50%)" />
<rect x="4" y="7" width="3" height="3" fill="hsl(20, 90%, 50%)" />
<rect x="7" y="7" width="3" height="3" fill="hsl(20, 90%, 50%)" />
<rect x="10" y="7" width="3" height="3" fill="hsl(20, 90%, 50%)" />
<rect x="13" y="7" width="3" height="3" fill="hsl(20, 90%, 50%)" />
<rect x="16" y="7" width="3" height="3" fill="hsl(20, 90%, 50%)" />
<rect x="37" y="7" width="3" height="3" fill="hsl(20, 90%, 50%)" />
<rect x="40" y="7" width="3" height="3" fill="hsl(20, 90%, 50%)" />
<rect x="4" y="10" width="3" height="3" fill="hsl(20, 90%, 50%)" />
<rect x="13" y="10" width="3" height="3" fill="hsl(20, 90%, 50%)" />
<rect x="16" y="10" width="3" height="3" fill="hsl(20, 90%, 50%)" />
<rect x="43" y="10" width="3" height="3" fill="hsl(20, 90%, 50%)" />
<rect x="67" y="10" width="3" height="3" fill="hsl(20, 90%, 50%)" />
<rect x="70" y="10" width="3" height="3" fill="hsl(20, 90%, 50%)" />
<rect x="10" y="13" width="3" height="3" fill="hsl(20, 90%, 50%)" />
<rect x="13" y="13" width="3" height="3" fill="hsl(20, 90%, 50%)" />
<rect x="19" y="13" width="3" height="3" fill="hsl(20, 90%, 50%)" />
<rect x="37" y="13" width="3" height="3" fill="hsl(20, 90%, 50%)" />
<rect x="40" y="13" width="3" height="3" fill="hsl(20, 90%, 50%)" />
<rect x="61" y="13" width="3" height="3" fill="hsl(20, 90%, 50%)" />
<rect x="64" y="13" width="3" height="3" fill="hsl(20, 90%, 50%)" />
<rect x="67" y="13" width="3" height="3" fill="hsl(20, 90%, 50%)" />
<rect x="73" y="13" width="3" height="3" fill="hsl(20, 90%, 50%)" />
<rect x="37" y="16" width="3" height="3" fill="hsl(20, 90%, 50%)" />
<rect x="40" y="16" width="3" height="3" fill="hsl(20, 90%, 50%)" />
<rect x="52" y="16" width="3" height="3" fill="hsl(20, 90%, 50%)" />
<rect x="58" y="16" width="3" height="3" fill="hsl(20, 90%, 50%)" />
<rect x="61" y="16" width="3" height="3" fill="hsl(20, 90%, 50%)" />
<rect x="19" y="19" width="3" height="3" fill="hsl(20, 90%, 50%)" />
<rect x="25" y="19" width="3" height="3" fill="hsl(20, 90%, 50%)" />
<rect x="46" y="19" width="3" height="3" fill="hsl(20, 90%, 50%)" />
<rect x="49" y="19" width="3" height="3" fill="hsl(20, 90%, 50%)" />
<rect x="34" y="22" width="3" height="3" fill="hsl(20, 90%, 50%)" />
<rect x="37" y="22" width="3" height="3" fill="hsl(20, 90%, 50%)" />
<rect x="40" y="22" width="3" height="3" fill="hsl(20, 90%, 50%)" />
<rect x="46" y="22" width="3" height="3" fill="hsl(20, 90%, 50%)" />
<rect x="61" y="22" width="3" height="3" fill="hsl(20, 90%, 50%)" />
<rect x="25" y="25" width="3" height="3" fill="hsl(20, 90%, 50%)" />
<rect x="28" y="25" width="3" height="3" fill="hsl(20, 90%, 50%)" />
<rect x="31" y="25" width="3" height="3" fill="hsl(20, 90%, 50%)" />
<rect x="43" y="25" width="3" height="3" fill="hsl(20, 90%, 50%)" />
<rect x="58" y="25" width="3" height="3" fill="hsl(20, 90%, 50%)" />
<rect x="28" y="28" width="3" height="3" fill="hsl(20, 90%, 50%)" />
<rect x="52" y="28" width="3" height="3" fill="hsl(20, 90%, 50%)" />
<rect x="28" y="31" width="3" height="3" fill="hsl(20, 90%, 50%)" />
<rect x="49" y="31" width="3" height="3" fill="hsl(20, 90%, 50%)" />
<rect x="37" y="37" width="3" height="3" fill="hsl(20, 90%, 50%)" />
</svg>