<?xml version="1.0" encoding="utf-8"?>
<svg xmlns="http://www.w3.org/2000/svg" width="84" height="52" viewBox="0 0 84 52">
<rect width="100%" height="100%" fill="transparent" />
<rect x="28" y="4" width="4" height="4" fill="hsl(20, 90%, 50%)" />
<rect x="32" y="4" width="4" height="4" fill="hsl(20, 90%, 50%)" />
<rect x="48" y="4" width="4" height="4" fill="hsl(20, 90%, 50%)" />
<rect x="52" y="4" width="4" height="4" fill="hsl(20, 90%, 50%)" />
<rect x="28" y="8" width="4" height="4" fill="hsl(20, 90%, 50%)" />
<rect x="36" y="8" width="4" height="4" fill="hsl(20, 90%, 50%)" />
<rect x="44" y="8" width="4" height="4" fill="hsl(20, 90%, 50%)" />
<rect x="52" y="8" width="4" height="4" fill="hsl(20, 90%, 50%)" />
<rect x="32" y="12" width="4" height="4" fill="hsl(20, 90%, 50%)" />
<rect x="48" y="12" width="4" height="4" fill="hsl(20, 90%, 50%)" />
<rect x="12" y="20" width="4" height="4" fill="hsl(20, 90%, 50%)" />
<rect x="20" y="20" width="4" height="4" fill="hsl(20, 90%, 50%)" />
<rect x="28" y="20" width="4" height="4" fill="hsl(20, 90%, 50%)" />
<rect x="52" y="20" width="4" height="4" fill="hsl(20, 90%, 50%)" />
<rect x="60" y="20" width="4" height="4" fill="hsl(20, 90%, 50%)" />
<rect x="68" y="20" width="4" height="4" fill="hsl(20, 90%, 50%)" />
<rect x="4" y="24" width="4" height="4" fill="hsl(20, 90%, 50%)" />
<rect x="8" y="24" width="4" height="4" fill="hsl(20, 90%, 50%)" />
<rect x="12" y="24" width="4" height="4" fill="hsl(20, 90%, 50%)" />
<rect x="20" y="24" width="4" height="4" fill="hsl(20, 90%, 50%)" />
<rect x="28" y="24" width="4" height="4" fill="hsl(20, 90%, 50%)" />
<rect x="32" y="24" width="4" height="4" fill="hsl(20, 90%, 50%)" />
<rect x="48" y="24" width="4" height="4" fill="hsl(20, 90%, 50%)" />
<rect x="52" y="24" width="4" height="4" fill="hsl(20, 90%, 50%)" />
<rect x="60" y="24" width="4" height="4" fill="hsl(20, 90%, 50%)" />
<rect x="68" y="24" width="4" height="4" fill="hsl(20, 90%, 50%)" />
<rect x="72" y="24" width="4" height="4" fill="hsl(20, 90%, 50%)" />
<rect x="76" y="24" width="4" height="4" fill="hsl(20, 90%, 50%)" />
<rect x="12" y="28" width="4" height="4" fill="hsl(20, 90%, 50%)" />
<rect x="20" y="28" width="4" height="4" fill="hsl(20, 90%, 50%)" />
<rect x="28" y="28" width="4" height="4" fill="hsl(20, 90%, 50%)" />
<rect x="52" y="28" width="4" height="4" fill="hsl(20, 90%, 50%)" />
<rect x="60" y="28" width="4" height="4" fill="hsl(20, 90%, 50%)" />
<rect x="68" y="28" width="4" height="4" fill="hsl(20, 90%, 50%)" />
<rect x="32" y="36" width="4" height="4" fill="hsl(20, 90%, 50%)" />
<rect x="48" y="36" width="4" height="4" fill="hsl(20, 90%, 50%)" />
<rect x="28" y="40" width="4" height="4" fill="hsl(20, 90%, 50%)" />
<rect x="36" y="40" width="4" height="4" fill="hsl(20, 90%, 50%)" />
<rect x="44" y="40" width="4" height="4" fill="hsl(20, 90%, 50%)" />
<rect x="52" y="40" width="4" height="4" fill="hsl(20, 90%, 50%)" />
<rect x="28" y="44" width="4" height="4" fill="hsl(20, 90%, 50%)" />
<rect x="32" y="44" width="4" height="4" fill="hsl(20, 90%, 50%)" />
<rect x="48" y="44" width="4" height="4" fill="hsl(20, 90%, 50%)" />
<rect x="52" y="44" width="4" height="4" fill="hsl(20, 90%, 50%)" />
</svg>