<?xml version="1.0" encoding="utf-8"?>
<svg xmlns="http://www.w3.org/2000/svg" width="90" height="42" viewBox="0 0 90 42">
<rect width="100%" height="100%" fill="transparent" />
<rect x="14" y="4" width="2" height="2" fill="hsl(20, 90%, 50%)" />
<rect x="16" y="4" width="2" height="2" fill="hsl(20, 90%, 50%)" />
<rect x="48" y="4" width="2" height="2" fill="hsl(20, 90%, 50%)" />
<rect x="50" y="4" width="2" height="2" fill="hsl(20, 90%, 50%)" />
<rect x="54" y="4" width="2" height="2" fill="hsl(20, 90%, 50%)" />
<rect x="56" y="4" width="2" height="2" fill="hsl(20, 90%, 50%)" />
<rect x="68" y="4" width="2" height="2" fill="hsl(20, 90%, 50%)" />
<rect x="8" y="6" width="2" height="2" fill="hsl(20, 90%, 50%)" />
<rect x="14" y="6" width="2" height="2" fill="hsl(20, 90%, 50%)" />
<rect x="34" y="6" width="2" height="2" fill="hsl(20, 90%, 50%)" />
<rect x="36" y="6" width="2" height="2" fill="hsl(20, 90%, 50%)" />
<rect x="40" y="6" width="2" height="2" fill="hsl(20, 90%, 50%)" />
<rect x="44" y="6" width="2" height="2" fill="hsl(20, 90%, 50%)" />
<rect x="46" y="6" width="2" height="2" fill="hsl(20, 90%, 50%)" />
<rect x="48" y="6" width="2" height="2" fill="hsl(20, 90%, 50%)" />
<rect x="52" y="6" width="2" height="2" fill="hsl(20, 90%, 50%)" />
<rect x="54" y="6" width="2" height="2" fill="hsl(20, 90%, 50%)" />
<rect x="68" y="6" width="2" height="2" fill="hsl(20, 90%, 50%)" />
<rect x="6" y="8" width="2" height="2" fill="hsl(20, 90%, 50%)" />
<rect x="10" y="8" width="2" height="2" fill="hsl(20, 90%, 50%)" />
<rect x="14" y="8" width="2" height="2" fill="hsl(20, 90%, 50%)" />
<rect x="26" y="8" width="2" height="2" fill="hsl(20, 90%, 50%)" />
<rect x="36" y="8" width="2" height="2" fill="hsl(20, 90%, 50%)" />
<rect x="40" y="8" width="2" height="2" fill="hsl(20, 90%, 50%)" />
<rect x="44" y="8" width="2" height="2" fill="hsl(20, 90%, 50%)" />
<rect x="46" y="8" width="2" height="2" fill="hsl(20, 90%, 50%)" />
<rect x="48" y="8" width="2" height="2" fill="hsl(20, 90%, 50%)" />
<rect x="62" y="8" width="2" height="2" fill="hsl(20, 90%, 50%)" />
<rect x="64" y="8" width="2" height="2" fill="hsl(20, 90%, 50%)" />
<rect x="68" y="8" width="2" height="2" fill="hsl(20, 90%, 50%)" />
<rect x="4" y="10" width="2" height="2" fill="hsl(20, 90%, 50%)" />
<rect x="10" y="10" width="2" height="2" fill="hsl(20, 90%, 50%)" />
<rect x="14" y="10" width="2" height="2" fill="hsl(20, 90%, 50%)" />
<rect x="18" y="10" width="2" height="2" fill="hsl(20, 90%, 50%)" />
<rect x="20" y="10" width="2" height="2" fill="hsl(20, 90%, 50%)" />
<rect x="22" y="10" width="2" height="2" fill="hsl(20, 90%, 50%)" />
<rect x="24" y="10" width="2" height="2" fill="hsl(20, 90%, 50%)" />
<rect x="26" y="10" width="2" height="2" fill="hsl(20, 90%, 50%)" />
<rect x="28" y="10" width="2" height="2" fill="hsl(20, 90%, 50%)" />
<rect x="40" y="10" width="2" height="2" fill="hsl(20, 90%, 50%)" />
<rect x="50" y="10" width="2" height="2" fill="hsl(20, 90%, 50%)" />
<rect x="54" y="10" width="2" height="2" fill="hsl(20, 90%, 50%)" />
<rect x="62" y="10" width="2" height="2" fill="hsl(20, 90%, 50%)" />
<rect x="64" y="10" width="2" height="2" fill="hsl(20, 90%, 50%)" />
<rect x="68" y="10" width="2" height="2" fill="hsl(20, 90%, 50%)" />
<rect x="6" y="12" width="2" height="2" fill="hsl(20, 90%, 50%)" />
<rect x="8" y="12" width="2" height="2" fill="hsl(20, 90%, 50%)" />
<rect x="12" y="12" width="2" height="2" fill="hsl(20, 90%, 50%)" />
<rect x="16" y="12" width="2" height="2" fill="hsl(20, 90%, 50%)" />
<rect x="22" y="12" width="2" height="2" fill="hsl(20, 90%, 50%)" />
<rect x="30" y="12" width="2" height="2" fill="hsl(20, 90%, 50%)" />
<rect x="32" y="12" width="2" height="2" fill="hsl(20, 90%, 50%)" />
<rect x="34" y="12" width="2" height="2" fill="hsl(20, 90%, 50%)" />
<rect x="40" y="12" width="2" height="2" fill="hsl(20, 90%, 50%)" />
<rect x="44" y="12" width="2" height="2" fill="hsl(20, 90%, 50%)" />
<rect x="46" y="12" width="2" height="2" fill="hsl(20, 90%, 50%)" />
<rect x="48" y="12" width="2" height="2" fill="hsl(20, 90%, 50%)" />
<rect x="50" y="12" width="2" height="2" fill="hsl(20, 90%, 50%)" />
<rect x="56" y="12" width="2" height="2" fill="hsl(20, 90%, 50%)" />
<rect x="60" y="12" width="2" height="2" fill="hsl(20, 90%, 50%)" />
<rect x="64" y="12" width="2" height="2" fill="hsl(20, 90%, 50%)" />
<rect x="66" y="12" width="2" height="2" fill="hsl(20, 90%, 50%)" />
<rect x="70" y="12" width="2" height="2" fill="hsl(20, 90%, 50%)" />
<rect x="72" y="12" width="2" height="2" fill="hsl(20, 90%, 50%)" />
<rect x="8" y="14" width="2" height="2" fill="hsl(20, 90%, 50%)" />
<rect x="12" y="14" width="2" height="2" fill="hsl(20, 90%, 50%)" />
<rect x="18" y="14" width="2" height="2" fill="hsl(20, 90%, 50%)" />
<rect x="20" y="14" width="2" height="2" fill="hsl(20, 90%, 50%)" />
<rect x="24" y="14" width="2" height="2" fill="hsl(20, 90%, 50%)" />
<rect x="30" y="14" width="2" height="2" fill="hsl(20, 90%, 50%)" />
<rect x="36" y="14" width="2" height="2" fill="hsl(20, 90%, 50%)" />
<rect x="40" y="14" width="2" height="2" fill="hsl(20, 90%, 50%)" />
<rect x="42" y="14" width="2" height="2" fill="hsl(20, 90%, 50%)" />
<rect x="52" y="14" width="2" height="2" fill="hsl(20, 90%, 50%)" />
<rect x="54" y="14" width="2" height="2" fill="hsl(20, 90%, 50%)" />
<rect x="56" y="14" width="2" height="2" fill="hsl(20, 90%, 50%)" />
<rect x="60" y="14" width="2" height="2" fill="hsl(20, 90%, 50%)" />
<rect x="64" y="14" width="2" height="2" fill="hsl(20, 90%, 50%)" />
<rect x="74" y="14" width="2" height="2" fill="hsl(20, 90%, 50%)" />
<rect x="76" y="14" width="2" height="2" fill="hsl(20, 90%, 50%)" />
<rect x="6" y="16" width="2" height="2" fill="hsl(20, 90%, 50%)" />
<rect x="12" y="16" width="2" height="2" fill="hsl(20, 90%, 50%)" />
<rect x="20" y="16" width="2" height="2" fill="hsl(20, 90%, 50%)" />
<rect x="26" y="16" width="2" height="2" fill="hsl(20, 90%, 50%)" />
<rect x="30" y="16" width="2" height="2" fill="hsl(20, 90%, 50%)" />
<rect x="34" y="16" width="2" height="2" fill="hsl(20, 90%, 50%)" />
<rect x="36" y="16" width="2" height="2" fill="hsl(20, 90%, 50%)" />
<rect x="46" y="16" width="2" height="2" fill="hsl(20, 90%, 50%)" />
<rect x="48" y="16" width="2" height="2" fill="hsl(20, 90%, 50%)" />
<rect x="50" y="16" width="2" height="2" fill="hsl(20, 90%, 50%)" />
<rect x="58" y="16" width="2" height="2" fill="hsl(20, 90%, 50%)" />
<rect x="6" y="18" width="2" height="2" fill="hsl(20, 90%, 50%)" />
<rect x="10" y="18" width="2" height="2" fill="hsl(20, 90%, 50%)" />
<rect x="14" y="18" width="2" height="2" fill="hsl(20, 90%, 50%)" />
<rect x="22" y="18" width="2" height="2" fill="hsl(20, 90%, 50%)" />
<rect x="24" y="18" width="2" height="2" fill="hsl(20, 90%, 50%)" />
<rect x="26" y="18" width="2" height="2" fill="hsl(20, 90%, 50%)" />
<rect x="30" y="18" width="2" height="2" fill="hsl(20, 90%, 50%)" />
<rect x="38" y="18" width="2" height="2" fill="hsl(20, 90%, 50%)" />
<rect x="40" y="18" width="2" height="2" fill="hsl(20, 90%, 50%)" />
<rect x="42" y="18" width="2" height="2" fill="hsl(20, 90%, 50%)" />
<rect x="44" y="18" width="2" height="2" fill="hsl(20, 90%, 50%)" />
<rect x="52" y="18" width="2" height="2" fill="hsl(20, 90%, 50%)" />
<rect x="58" y="18" width="2" height="2" fill="hsl(20, 90%, 50%)" />
<rect x="62" y="18" width="2" height="2" fill="hsl(20, 90%, 50%)" />
<rect x="68" y="18" width="2" height="2" fill="hsl(20, 90%, 50%)" />
<rect x="70" y="18" width="2" height="2" fill="hsl(20, 90%, 50%)" />
<rect x="74" y="18" width="2" height="2" fill="hsl(20, 90%, 50%)" />
<rect x="80" y="18" width="2" height="2" fill="hsl(20, 90%, 50%)" />
<rect x="4" y="20" width="2" height="2" fill="hsl(20, 90%, 50%)" />
<rect x="6" y="20" width="2" height="2" fill="hsl(20, 90%, 50%)" />
<rect x="10" y="20" width="2" height="2" fill="hsl(20, 90%, 50%)" />
<rect x="30" y="20" width="2" height="2" fill="hsl(20, 90%, 50%)" />
<rect x="32" y="20" width="2" height="2" fill="hsl(20, 90%, 50%)" />
<rect x="36" y="20" width="2" height="2" fill="hsl(20, 90%, 50%)" />
<rect x="46" y="20" width="2" height="2" fill="hsl(20, 90%, 50%)" />
<rect x="50" y="20" width="2" height="2" fill="hsl(20, 90%, 50%)" />
<rect x="54" y="20" width="2" height="2" fill="hsl(20, 90%, 50%)" />
<rect x="58" y="20" width="2" height="2" fill="hsl(20, 90%, 50%)" />
<rect x="76" y="20" width="2" height="2" fill="hsl(20, 90%, 50%)" />
<rect x="80" y="20" width="2" height="2" fill="hsl(20, 90%, 50%)" />
<rect x="82" y="20" width="2" height="2" fill="hsl(20, 90%, 50%)" />
<rect x="84" y="20" width="2" height="2" fill="hsl(20, 90%, 50%)" />
<rect x="6" y="22" width="2" height="2" fill="hsl(20, 90%, 50%)" />
<rect x="10" y="22" width="2" height="2" fill="hsl(20, 90%, 50%)" />
<rect x="14" y="22" width="2" height="2" fill="hsl(20, 90%, 50%)" />
<rect x="22" y="22" width="2" height="2" fill="hsl(20, 90%, 50%)" />
<rect x="24" y="22" width="2" height="2" fill="hsl(20, 90%, 50%)" />
<rect x="26" y="22" width="2" height="2" fill="hsl(20, 90%, 50%)" />
<rect x="30" y="22" width="2" height="2" fill="hsl(20, 90%, 50%)" />
<rect x="38" y="22" width="2" height="2" fill="hsl(20, 90%, 50%)" />
<rect x="40" y="22" width="2" height="2" fill="hsl(20, 90%, 50%)" />
<rect x="42" y="22" width="2" height="2" fill="hsl(20, 90%, 50%)" />
<rect x="44" y="22" width="2" height="2" fill="hsl(20, 90%, 50%)" />
<rect x="52" y="22" width="2" height="2" fill="hsl(20, 90%, 50%)" />
<rect x="58" y="22" width="2" height="2" fill="hsl(20, 90%, 50%)" />
<rect x="62" y="22" width="2" height="2" fill="hsl(20, 90%, 50%)" />
<rect x="68" y="22" width="2" height="2" fill="hsl(20, 90%, 50%)" />
<rect x="70" y="22" width="2" height="2" fill="hsl(20, 90%, 50%)" />
<rect x="74" y="22" width="2" height="2" fill="hsl(20, 90%, 50%)" />
<rect x="80" y="22" width="2" height="2" fill="hsl(20, 90%, 50%)" />
<rect x="6" y="24" width="2" height="2" fill="hsl(20, 90%, 50%)" />
<rect x="12" y="24" width="2" height="2" fill="hsl(20, 90%, 50%)" />
<rect x="20" y="24" width="2" height="2" fill="hsl(20, 90%, 50%)" />
<rect x="26" y="24" width="2" height="2" fill="hsl(20, 90%, 50%)" />
<rect x="30" y="24" width="2" height="2" fill="hsl(20, 90%, 50%)" />
<rect x="34" y="24" width="2" height="2" fill="hsl(20, 90%, 50%)" />
<rect x="36" y="24" width="2" height="2" fill="hsl(20, 90%, 50%)" />
<rect x="46" y="24" width="2" height="2" fill="hsl(20, 90%, 50%)" />
<rect x="48" y="24" width="2" height="2" fill="hsl(20, 90%, 50%)" />
<rect x="50" y="24" width="2" height="2" fill="hsl(20, 90%, 50%)" />
<rect x="58" y="24" width="2" height="2" fill="hsl(20, 90%, 50%)" />
<rect x="8" y="26" width="2" height="2" fill="hsl(20, 90%, 50%)" />
<rect x="12" y="26" width="2" height="2" fill="hsl(20, 90%, 50%)" />
<rect x="18" y="26" width="2" height="2" fill="hsl(20, 90%, 50%)" />
<rect x="20" y="26" width="2" height="2" fill="hsl(20, 90%, 50%)" />
<rect x="24" y="26" width="2" height="2" fill="hsl(20, 90%, 50%)" />
<rect x="30" y="26" width="2" height="2" fill="hsl(20, 90%, 50%)" />
<rect x="36" y="26" width="2" height="2" fill="hsl(20, 90%, 50%)" />
<rect x="40" y="26" width="2" height="2" fill="hsl(20, 90%, 50%)" />
<rect x="42" y="26" width="2" height="2" fill="hsl(20, 90%, 50%)" />
<rect x="52" y="26" width="2" height="2" fill="hsl(20, 90%, 50%)" />
<rect x="54" y="26" width="2" height="2" fill="hsl(20, 90%, 50%)" />
<rect x="56" y="26" width="2" height="2" fill="hsl(20, 90%, 50%)" />
<rect x="60" y="26" width="2" height="2" fill="hsl(20, 90%, 50%)" />
<rect x="64" y="26" width="2" height="2" fill="hsl(20, 90%, 50%)" />
<rect x="74" y="26" width="2" height="2" fill="hsl(20, 90%, 50%)" />
<rect x="76" y="26" width="2" height="2" fill="hsl(20, 90%, 50%)" />
<rect x="6" y="28" width="2" height="2" fill="hsl(20, 90%, 50%)" />
<rect x="8" y="28" width="2" height="2" fill="hsl(20, 90%, 50%)" />
<rect x="12" y="28" width="2" height="2" fill="hsl(20, 90%, 50%)" />
<rect x="16" y="28" width="2" height="2" fill="hsl(20, 90%, 50%)" />
<rect x="22" y="28" width="2" height="2" fill="hsl(20, 90%, 50%)" />
<rect x="30" y="28" width="2" height="2" fill="hsl(20, 90%, 50%)" />
<rect x="32" y="28" width="2" height="2" fill="hsl(20, 90%, 50%)" />
<rect x="34" y="28" width="2" height="2" fill="hsl(20, 90%, 50%)" />
<rect x="40" y="28" width="2" height="2" fill="hsl(20, 90%, 50%)" />
<rect x="44" y="28" width="2" height="2" fill="hsl(20, 90%, 50%)" />
<rect x="46" y="28" width="2" height="2" fill="hsl(20, 90%, 50%)" />
<rect x="48" y="28" width="2" height="2" fill="hsl(20, 90%, 50%)" />
<rect x="50" y="28" width="2" height="2" fill="hsl(20, 90%, 50%)" />
<rect x="56" y="28" width="2" height="2" fill="hsl(20, 90%, 50%)" />
<rect x="60" y="28" width="2" height="2" fill="hsl(20, 90%, 50%)" />
<rect x="64" y="28" width="2" height="2" fill="hsl(20, 90%, 50%)" />
<rect x="66" y="28" width="2" height="2" fill="hsl(20, 90%, 50%)" />
<rect x="70" y="28" width="2" height="2" fill="hsl(20, 90%, 50%)" />
<rect x="72" y="28" width="2" height="2" fill="hsl(20, 90%, 50%)" />
<rect x="4" y="30" width="2" height="2" fill="hsl(20, 90%, 50%)" />
<rect x="10" y="30" width="2" height="2" fill="hsl(20, 90%, 50%)" />
<rect x="14" y="30" width="2" height="2" fill="hsl(20, 90%, 50%)" />
<rect x="18" y="30" width="2" height="2" fill="hsl(20, 90%, 50%)" />
<rect x="20" y="30" width="2" height="2" fill="hsl(20, 90%, 50%)" />
<rect x="22" y="30" width="2" height="2" fill="hsl(20, 90%, 50%)" />
<rect x="24" y="30" width="2" height="2" fill="hsl(20, 90%, 50%)" />
<rect x="26" y="30" width="2" height="2" fill="hsl(20, 90%, 50%)" />
<rect x="28" y="30" width="2" height="2" fill="hsl(20, 90%, 50%)" />
<rect x="40" y="30" width="2" height="2" fill="hsl(20, 90%, 50%)" />
<rect x="50" y="30" width="2" height="2" fill="hsl(20, 90%, 50%)" />
<rect x="54" y="30" width="2" height="2" fill="hsl(20, 90%, 50%)" />
<rect x="62" y="30" width="2" height="2" fill="hsl(20, 90%, 50%)" />
<rect x="64" y="30" width="2" height="2" fill="hsl(20, 90%, 50%)" />
<rect x="68" y="30" width="2" height="2" fill="hsl(20, 90%, 50%)" />
<rect x="6" y="32" width="2" height="2" fill="hsl(20, 90%, 50%)" />
<rect x="10" y="32" width="2" height="2" fill="hsl(20, 90%, 50%)" />
<rect x="14" y="32" width="2" height="2" fill="hsl(20, 90%, 50%)" />
<rect x="26" y="32" width="2" height="2" fill="hsl(20, 90%, 50%)" />
<rect x="36" y="32" width="2" height="2" fill="hsl(20, 90%, 50%)" />
<rect x="40" y="32" width="2" height="2" fill="hsl(20, 90%, 50%)" />
<rect x="44" y="32" width="2" height="2" fill="hsl(20, 90%, 50%)" />
<rect x="46" y="32" width="2" height="2" fill="hsl(20, 90%, 50%)" />
<rect x="48" y="32" width="2" height="2" fill="hsl(20, 90%, 50%)" />
<rect x="62" y="32" width="2" height="2" fill="hsl(20, 90%, 50%)" />
<rect x="64" y="32" width="2" height="2" fill="hsl(20, 90%, 50%)" />
<rect x="68" y="32" width="2" height="2" fill="hsl(20, 90%, 50%)" />
<rect x="8" y="34" width="2" height="2" fill="hsl(20, 90%, 50%)" />
<rect x="14" y="34" width="2" height="2" fill="hsl(20, 90%, 50%)" />
<rect x="34" y="34" width="2" height="2" fill="hsl(20, 90%, 50%)" />
<rect x="36" y="34" width="2" height="2" fill="hsl(20, 90%, 50%)" />
<rect x="40" y="34" width="2" height="2" fill="hsl(20, 90%, 50%)" />
<rect x="44" y="34" width="2" height="2" fill="hsl(20, 90%, 50%)" />
<rect x="46" y="34" width="2" height="2" fill="hsl(20, 90%, 50%)" />
<rect x="48" y="34" width="2" height="2" fill="hsl(20, 90%, 50%)" />
<rect x="52" y="34" width="2" height="2" fill="hsl(20, 90%, 50%)" />
<rect x="54" y="34" width="2" height="2" fill="hsl(20, 90%, 50%)" />
<rect x="68" y="34" width="2" height="2" fill="hsl(20, 90%, 50%)" />
<rect x="14" y="36" width="2" height="2" fill="hsl(20, 90%, 50%)" />
<rect x="16" y="36" width="2" height="2" fill="hsl(20, 90%, 50%)" />
<rect x="48" y="36" width="2" height="2" fill="hsl(20, 90%, 50%)" />
<rect x="50" y="36" width="2" height="2" fill="hsl(20, 90%, 50%)" />
<rect x="54" y="36" width="2" height="2" fill="hsl(20, 90%, 50%)" />
<rect x="56" y="36" width="2" height="2" fill="hsl(20, 90%, 50%)" />
<rect x="68" y="36" width="2" height="2" fill="hsl(20, 90%, 50%)" />
</svg>