<?xml version="1.0" encoding="utf-8"?>
<svg xmlns="http://www.w3.org/2000/svg" width="86" height="12" viewBox="0 0 86 12">
<rect width="100%" height="100%" fill="transparent" />
<rect x="4" y="4" width="2" height="2" fill="hsl(20, 90%, 50%)" />
<rect x="6" y="4" width="2" height="2" fill="hsl(20, 90%, 50%)" />
<rect x="20" y="4" width="2" height="2" fill="hsl(20, 90%, 50%)" />
<rect x="22" y="4" width="2" height="2" fill="hsl(20, 90%, 50%)" />
<rect x="24" y="4" width="2" height="2" fill="hsl(20, 90%, 50%)" />
<rect x="38" y="4" width="2" height="2" fill="hsl(20, 90%, 50%)" />
<rect x="40" y="4" width="2" height="2" fill="hsl(20, 90%, 50%)" />
<rect x="42" y="4" width="2" height="2" fill="hsl(20, 90%, 50%)" />
<rect x="44" y="4" width="2" height="2" fill="hsl(20, 90%, 50%)" />
<rect x="58" y="4" width="2" height="2" fill="hsl(20, 90%, 50%)" />
<rect x="60" y="4" width="2" height="2" fill="hsl(20, 90%, 50%)" />
<rect x="62" y="4" width="2" height="2" fill="hsl(20, 90%, 50%)" />
<rect x="76" y="4" width="2" height="2" fill="hsl(20, 90%, 50%)" />
<rect x="78" y="4" width="2" height="2" fill="hsl(20, 90%, 50%)" />
<rect x="4" y="6" width="2" height="2" fill="hsl(20, 90%, 50%)" />
<rect x="6" y="6" width="2" height="2" fill="hsl(20, 90%, 50%)" />
<rect x="22" y="6" width="2" height="2" fill="hsl(20, 90%, 50%)" />
<rect x="62" y="6" width="2" height="2" fill="hsl(20, 90%, 50%)" />
<rect x="78" y="6" width="2" height="2" fill="hsl(20, 90%, 50%)" />
<rect x="80" y="6" width="2" height="2" fill="hsl(20, 90%, 50%)" />
</svg>