<?xml version="1.0" encoding="utf-8"?>
<svg xmlns="http://www.w3.org/2000/svg" width="83" height="38" viewBox="0 0 83 38">
<rect width="100%" height="100%" fill="transparent" />
<rect x="9" y="4" width="5" height="5" fill="hsl(20, 90%, 50%)" />
<rect x="69" y="4" width="5" height="5" fill="hsl(20, 90%, 50%)" />
<rect x="74" y="4" width="5" height="5" fill="hsl(20, 90%, 50%)" />
<rect x="4" y="9" width="5" height="5" fill="hsl(20, 90%, 50%)" />
<rect x="14" y="9" width="5" height="5" fill="hsl(20, 90%, 50%)" />
<rect x="39" y="9" width="5" height="5" fill="hsl(20, 90%, 50%)" />
<rect x="74" y="9" width="5" height="5" fill="hsl(20, 90%, 50%)" />
<rect x="39" y="14" width="5" height="5" fill="hsl(20, 90%, 50%)" />
<rect x="64" y="14" width="5" height="5" fill="hsl(20, 90%, 50%)" />
<rect x="14" y="19" width="5" height="5" fill="hsl(20, 90%, 50%)" />
<rect x="29" y="19" width="5" height="5" fill="hsl(20, 90%, 50%)" />
<rect x="49" y="19" width="5" height="5" fill="hsl(20, 90%, 50%)" />
<rect x="64" y="19" width="5" height="5" fill="hsl(20, 90%, 50%)" />
<rect x="14" y="24" width="5" height="5" fill="hsl(20, 90%, 50%)" />
<rect x="19" y="24" width="5" height="5" fill="hsl(20, 90%, 50%)" />
<rect x="54" y="24" width="5" height="5" fill="hsl(20, 90%, 50%)" />
<rect x="19" y="29" width="5" height="5" fill="hsl(20, 90%, 50%)" />
</svg>