<?xml version="1.0" encoding="utf-8"?>
<svg xmlns="http://www.w3.org/2000/svg" width="55" height="16" viewBox="0 0 55 16">
<rect width="100%" height="100%" fill="transparent" />
<rect x="25" y="4" width="1" height="1" fill="hsl(20, 90%, 50%)" />
<rect x="28" y="4" width="1" height="1" fill="hsl(20, 90%, 50%)" />
<rect x="9" y="5" width="1" height="1" fill="hsl(20, 90%, 50%)" />
<rect x="10" y="5" width="1" height="1" fill="hsl(20, 90%, 50%)" />
<rect x="11" y="5" width="1" height="1" fill="hsl(20, 90%, 50%)" />
<rect x="12" y="5" width="1" height="1" fill="hsl(20, 90%, 50%)" />
<rect x="24" y="5" width="1" height="1" fill="hsl(20, 90%, 50%)" />
<rect x="39" y="5" width="1" height="1" fill="hsl(20, 90%, 50%)" />
<rect x="40" y="5" width="1" height="1" fill="hsl(20, 90%, 50%)" />
<rect x="41" y="5" width="1" height="1" fill="hsl(20, 90%, 50%)" />
<rect x="42" y="5" width="1" height="1" fill="hsl(20, 90%, 50%)" />
<rect x="9" y="6" width="1" height="1" fill="hsl(20, 90%, 50%)" />
<rect x="13" y="6" width="1" height="1" fill="hsl(20, 90%, 50%)" />
<rect x="24" y="6" width="1" height="1" fill="hsl(20, 90%, 50%)" />
<rect x="28" y="6" width="1" height="1" fill="hsl(20, 90%, 50%)" />
<rect x="39" y="6" width="1" height="1" fill="hsl(20, 90%, 50%)" />
<rect x="43" y="6" width="1" height="1" fill="hsl(20, 90%, 50%)" />
<rect x="9" y="7" width="1" height="1" fill="hsl(20, 90%, 50%)" />
<rect x="18" y="7" width="1" height="1" fill="hsl(20, 90%, 50%)" />
<rect x="19" y="7" width="1" height="1" fill="hsl(20, 90%, 50%)" />
<rect x="24" y="7" width="1" height="1" fill="hsl(20, 90%, 50%)" />
<rect x="25" y="7" width="1" height="1" fill="hsl(20, 90%, 50%)" />
<rect x="26" y="7" width="1" height="1" fill="hsl(20, 90%, 50%)" />
<rect x="27" y="7" width="1" height="1" fill="hsl(20, 90%, 50%)" />
<rect x="39" y="7" width="1" height="1" fill="hsl(20, 90%, 50%)" />
<rect x="48" y="7" width="1" height="1" fill="hsl(20, 90%, 50%)" />
<rect x="49" y="7" width="1" height="1" fill="hsl(20, 90%, 50%)" />
<rect x="5" y="8" width="1" height="1" fill="hsl(20, 90%, 50%)" />
<rect x="6" y="8" width="1" height="1" fill="hsl(20, 90%, 50%)" />
<rect x="10" y="8" width="1" height="1" fill="hsl(20, 90%, 50%)" />
<rect x="13" y="8" width="1" height="1" fill="hsl(20, 90%, 50%)" />
<rect x="17" y="8" width="1" height="1" fill="hsl(20, 90%, 50%)" />
<rect x="18" y="8" width="1" height="1" fill="hsl(20, 90%, 50%)" />
<rect x="19" y="8" width="1" height="1" fill="hsl(20, 90%, 50%)" />
<rect x="20" y="8" width="1" height="1" fill="hsl(20, 90%, 50%)" />
<rect x="32" y="8" width="1" height="1" fill="hsl(20, 90%, 50%)" />
<rect x="33" y="8" width="1" height="1" fill="hsl(20, 90%, 50%)" />
<rect x="40" y="8" width="1" height="1" fill="hsl(20, 90%, 50%)" />
<rect x="43" y="8" width="1" height="1" fill="hsl(20, 90%, 50%)" />
<rect x="47" y="8" width="1" height="1" fill="hsl(20, 90%, 50%)" />
<rect x="48" y="8" width="1" height="1" fill="hsl(20, 90%, 50%)" />
<rect x="49" y="8" width="1" height="1" fill="hsl(20, 90%, 50%)" />
<rect x="50" y="8" width="1" height="1" fill="hsl(20, 90%, 50%)" />
<rect x="4" y="9" width="1" height="1" fill="hsl(20, 90%, 50%)" />
<rect x="7" y="9" width="1" height="1" fill="hsl(20, 90%, 50%)" />
<rect x="16" y="9" width="1" height="1" fill="hsl(20, 90%, 50%)" />
<rect x="17" y="9" width="1" height="1" fill="hsl(20, 90%, 50%)" />
<rect x="19" y="9" width="1" height="1" fill="hsl(20, 90%, 50%)" />
<rect x="20" y="9" width="1" height="1" fill="hsl(20, 90%, 50%)" />
<rect x="31" y="9" width="1" height="1" fill="hsl(20, 90%, 50%)" />
<rect x="32" y="9" width="1" height="1" fill="hsl(20, 90%, 50%)" />
<rect x="34" y="9" width="1" height="1" fill="hsl(20, 90%, 50%)" />
<rect x="35" y="9" width="1" height="1" fill="hsl(20, 90%, 50%)" />
<rect x="46" y="9" width="1" height="1" fill="hsl(20, 90%, 50%)" />
<rect x="47" y="9" width="1" height="1" fill="hsl(20, 90%, 50%)" />
<rect x="49" y="9" width="1" height="1" fill="hsl(20, 90%, 50%)" />
<rect x="50" y="9" width="1" height="1" fill="hsl(20, 90%, 50%)" />
<rect x="4" y="10" width="1" height="1" fill="hsl(20, 90%, 50%)" />
<rect x="6" y="10" width="1" height="1" fill="hsl(20, 90%, 50%)" />
<rect x="17" y="10" width="1" height="1" fill="hsl(20, 90%, 50%)" />
<rect x="18" y="10" width="1" height="1" fill="hsl(20, 90%, 50%)" />
<rect x="32" y="10" width="1" height="1" fill="hsl(20, 90%, 50%)" />
<rect x="33" y="10" width="1" height="1" fill="hsl(20, 90%, 50%)" />
<rect x="34" y="10" width="1" height="1" fill="hsl(20, 90%, 50%)" />
<rect x="35" y="10" width="1" height="1" fill="hsl(20, 90%, 50%)" />
<rect x="47" y="10" width="1" height="1" fill="hsl(20, 90%, 50%)" />
<rect x="48" y="10" width="1" height="1" fill="hsl(20, 90%, 50%)" />
<rect x="5" y="11" width="1" height="1" fill="hsl(20, 90%, 50%)" />
<rect x="33" y="11" width="1" height="1" fill="hsl(20, 90%, 50%)" />
<rect x="34" y="11" width="1" height="1" fill="hsl(20, 90%, 50%)" />
</svg>