<?xml version="1.0" encoding="utf-8"?>
<svg xmlns="http://www.w3.org/2000/svg" width="89" height="59" viewBox="0 0 89 59">
<rect width="100%" height="100%" fill="transparent" />
<rect x="7" y="4" width="3" height="3" fill="hsl(20, 90%, 50%)" />
<rect x="10" y="4" width="3" height="3" fill="hsl(20, 90%, 50%)" />
<rect x="7" y="7" width="3" height="3" fill="hsl(20, 90%, 50%)" />
<rect x="10" y="7" width="3" height="3" fill="hsl(20, 90%, 50%)" />
<rect x="49" y="13" width="3" height="3" fill="hsl(20, 90%, 50%)" />
<rect x="4" y="16" width="3" height="3" fill="hsl(20, 90%, 50%)" />
<rect x="7" y="16" width="3" height="3" fill="hsl(20, 90%, 50%)" />
<rect x="49" y="16" width="3" height="3" fill="hsl(20, 90%, 50%)" />
<rect x="52" y="16" width="3" height="3" fill="hsl(20, 90%, 50%)" />
<rect x="79" y="16" width="3" height="3" fill="hsl(20, 90%, 50%)" />
<rect x="82" y="16" width="3" height="3" fill="hsl(20, 90%, 50%)" />
<rect x="4" y="19" width="3" height="3" fill="hsl(20, 90%, 50%)" />
<rect x="7" y="19" width="3" height="3" fill="hsl(20, 90%, 50%)" />
<rect x="52" y="19" width="3" height="3" fill="hsl(20, 90%, 50%)" />
<rect x="55" y="19" width="3" height="3" fill="hsl(20, 90%, 50%)" />
<rect x="79" y="19" width="3" height="3" fill="hsl(20, 90%, 50%)" />
<rect x="82" y="19" width="3" height="3" fill="hsl(20, 90%, 50%)" />
<rect x="37" y="22" width="3" height="3" fill="hsl(20, 90%, 50%)" />
<rect x="40" y="22" width="3" height="3" fill="hsl(20, 90%, 50%)" />
<rect x="49" y="22" width="3" height="3" fill="hsl(20, 90%, 50%)" />
<rect x="52" y="22" width="3" height="3" fill="hsl(20, 90%, 50%)" />
<rect x="37" y="34" width="3" height="3" fill="hsl(20, 90%, 50%)" />
<rect x="40" y="34" width="3" height="3" fill="hsl(20, 90%, 50%)" />
<rect x="49" y="34" width="3" height="3" fill="hsl(20, 90%, 50%)" />
<rect x="52" y="34" width="3" height="3" fill="hsl(20, 90%, 50%)" />
<rect x="4" y="37" width="3" height="3" fill="hsl(20, 90%, 50%)" />
<rect x="7" y="37" width="3" height="3" fill="hsl(20, 90%, 50%)" />
<rect x="52" y="37" width="3" height="3" fill="hsl(20, 90%, 50%)" />
<rect x="55" y="37" width="3" height="3" fill="hsl(20, 90%, 50%)" />
<rect x="4" y="40" width="3" height="3" fill="hsl(20, 90%, 50%)" />
<rect x="7" y="40" width="3" height="3" fill="hsl(20, 90%, 50%)" />
<rect x="49" y="40" width="3" height="3" fill="hsl(20, 90%, 50%)" />
<rect x="52" y="40" width="3" height="3" fill="hsl(20, 90%, 50%)" />
<rect x="49" y="43" width="3" height="3" fill="hsl(20, 90%, 50%)" />
<rect x="7" y="49" width="3" height="3" fill="hsl(20, 90%, 50%)" />
<rect x="10" y="49" width="3" height="3" fill="hsl(20, 90%, 50%)" />
<rect x="7" y="52" width="3" height="3" fill="hsl(20, 90%, 50%)" />
<rect x="10" y="52" width="3" height="3" fill="hsl(20, 90%, 50%)" />
</svg>