<?xml version="1.0" encoding="utf-8"?>
<svg xmlns="http://www.w3.org/2000/svg" width="89" height="80" viewBox="0 0 89 80">
<rect width="100%" height="100%" fill="transparent" />
<rect x="4" y="4" width="9" height="9" fill="hsl(20, 90%, 50%)" />
<rect x="13" y="4" width="9" height="9" fill="hsl(20, 90%, 50%)" />
<rect x="13" y="13" width="9" height="9" fill="hsl(20, 90%, 50%)" />
<rect x="13" y="22" width="9" height="9" fill="hsl(20, 90%, 50%)" />
<rect x="31" y="22" width="9" height="9" fill="hsl(20, 90%, 50%)" />
<rect x="22" y="31" width="9" height="9" fill="hsl(20, 90%, 50%)" />
<rect x="31" y="31" width="9" height="9" fill="hsl(20, 90%, 50%)" />
<rect x="49" y="40" width="9" height="9" fill="hsl(20, 90%, 50%)" />
<rect x="58" y="40" width="9" height="9" fill="hsl(20, 90%, 50%)" />
<rect x="49" y="49" width="9" height="9" fill="hsl(20, 90%, 50%)" />
<rect x="67" y="49" width="9" height="9" fill="hsl(20, 90%, 50%)" />
<rect x="67" y="58" width="9" height="9" fill="hsl(20, 90%, 50%)" />
<rect x="67" y="67" width="9" height="9" fill="hsl(20, 90%, 50%)" />
<rect x="76" y="67" width="9" height="9" fill="hsl(20, 90%, 50%)" />
</svg>