<?xml version="1.0" encoding="utf-8"?>
<svg xmlns="http://www.w3.org/2000/svg" width="57" height="24" viewBox="0 0 57 24">
<rect width="100%" height="100%" fill="transparent" />
<rect x="21" y="4" width="1" height="1" fill="hsl(20, 90%, 50%)" />
<rect x="22" y="4" width="1" height="1" fill="hsl(20, 90%, 50%)" />
<rect x="17" y="5" width="1" height="1" fill="hsl(20, 90%, 50%)" />
<rect x="18" y="5" width="1" height="1" fill="hsl(20, 90%, 50%)" />
<rect x="23" y="5" width="1" height="1" fill="hsl(20, 90%, 50%)" />
<rect x="16" y="6" width="1" height="1" fill="hsl(20, 90%, 50%)" />
<rect x="17" y="6" width="1" height="1" fill="hsl(20, 90%, 50%)" />
<rect x="18" y="6" width="1" height="1" fill="hsl(20, 90%, 50%)" />
<rect x="20" y="6" width="1" height="1" fill="hsl(20, 90%, 50%)" />
<rect x="4" y="7" width="1" height="1" fill="hsl(20, 90%, 50%)" />
<rect x="6" y="7" width="1" height="1" fill="hsl(20, 90%, 50%)" />
<rect x="7" y="7" width="1" height="1" fill="hsl(20, 90%, 50%)" />
<rect x="10" y="7" width="1" height="1" fill="hsl(20, 90%, 50%)" />
<rect x="11" y="7" width="1" height="1" fill="hsl(20, 90%, 50%)" />
<rect x="15" y="7" width="1" height="1" fill="hsl(20, 90%, 50%)" />
<rect x="19" y="7" width="1" height="1" fill="hsl(20, 90%, 50%)" />
<rect x="20" y="7" width="1" height="1" fill="hsl(20, 90%, 50%)" />
<rect x="21" y="7" width="1" height="1" fill="hsl(20, 90%, 50%)" />
<rect x="22" y="7" width="1" height="1" fill="hsl(20, 90%, 50%)" />
<rect x="24" y="7" width="1" height="1" fill="hsl(20, 90%, 50%)" />
<rect x="26" y="7" width="1" height="1" fill="hsl(20, 90%, 50%)" />
<rect x="31" y="7" width="1" height="1" fill="hsl(20, 90%, 50%)" />
<rect x="32" y="7" width="1" height="1" fill="hsl(20, 90%, 50%)" />
<rect x="40" y="7" width="1" height="1" fill="hsl(20, 90%, 50%)" />
<rect x="41" y="7" width="1" height="1" fill="hsl(20, 90%, 50%)" />
<rect x="4" y="8" width="1" height="1" fill="hsl(20, 90%, 50%)" />
<rect x="9" y="8" width="1" height="1" fill="hsl(20, 90%, 50%)" />
<rect x="10" y="8" width="1" height="1" fill="hsl(20, 90%, 50%)" />
<rect x="13" y="8" width="1" height="1" fill="hsl(20, 90%, 50%)" />
<rect x="22" y="8" width="1" height="1" fill="hsl(20, 90%, 50%)" />
<rect x="24" y="8" width="1" height="1" fill="hsl(20, 90%, 50%)" />
<rect x="25" y="8" width="1" height="1" fill="hsl(20, 90%, 50%)" />
<rect x="26" y="8" width="1" height="1" fill="hsl(20, 90%, 50%)" />
<rect x="31" y="8" width="1" height="1" fill="hsl(20, 90%, 50%)" />
<rect x="36" y="8" width="1" height="1" fill="hsl(20, 90%, 50%)" />
<rect x="37" y="8" width="1" height="1" fill="hsl(20, 90%, 50%)" />
<rect x="39" y="8" width="1" height="1" fill="hsl(20, 90%, 50%)" />
<rect x="42" y="8" width="1" height="1" fill="hsl(20, 90%, 50%)" />
<rect x="44" y="8" width="1" height="1" fill="hsl(20, 90%, 50%)" />
<rect x="45" y="8" width="1" height="1" fill="hsl(20, 90%, 50%)" />
<rect x="47" y="8" width="1" height="1" fill="hsl(20, 90%, 50%)" />
<rect x="4" y="9" width="1" height="1" fill="hsl(20, 90%, 50%)" />
<rect x="6" y="9" width="1" height="1" fill="hsl(20, 90%, 50%)" />
<rect x="7" y="9" width="1" height="1" fill="hsl(20, 90%, 50%)" />
<rect x="12" y="9" width="1" height="1" fill="hsl(20, 90%, 50%)" />
<rect x="13" y="9" width="1" height="1" fill="hsl(20, 90%, 50%)" />
<rect x="15" y="9" width="1" height="1" fill="hsl(20, 90%, 50%)" />
<rect x="16" y="9" width="1" height="1" fill="hsl(20, 90%, 50%)" />
<rect x="21" y="9" width="1" height="1" fill="hsl(20, 90%, 50%)" />
<rect x="33" y="9" width="1" height="1" fill="hsl(20, 90%, 50%)" />
<rect x="37" y="9" width="1" height="1" fill="hsl(20, 90%, 50%)" />
<rect x="39" y="9" width="1" height="1" fill="hsl(20, 90%, 50%)" />
<rect x="41" y="9" width="1" height="1" fill="hsl(20, 90%, 50%)" />
<rect x="42" y="9" width="1" height="1" fill="hsl(20, 90%, 50%)" />
<rect x="44" y="9" width="1" height="1" fill="hsl(20, 90%, 50%)" />
<rect x="46" y="9" width="1" height="1" fill="hsl(20, 90%, 50%)" />
<rect x="47" y="9" width="1" height="1" fill="hsl(20, 90%, 50%)" />
<rect x="10" y="10" width="1" height="1" fill="hsl(20, 90%, 50%)" />
<rect x="18" y="10" width="1" height="1" fill="hsl(20, 90%, 50%)" />
<rect x="32" y="10" width="1" height="1" fill="hsl(20, 90%, 50%)" />
<rect x="33" y="10" width="1" height="1" fill="hsl(20, 90%, 50%)" />
<rect x="39" y="10" width="1" height="1" fill="hsl(20, 90%, 50%)" />
<rect x="42" y="10" width="1" height="1" fill="hsl(20, 90%, 50%)" />
<rect x="44" y="10" width="1" height="1" fill="hsl(20, 90%, 50%)" />
<rect x="48" y="10" width="1" height="1" fill="hsl(20, 90%, 50%)" />
<rect x="49" y="10" width="1" height="1" fill="hsl(20, 90%, 50%)" />
<rect x="9" y="11" width="1" height="1" fill="hsl(20, 90%, 50%)" />
<rect x="19" y="11" width="1" height="1" fill="hsl(20, 90%, 50%)" />
<rect x="21" y="11" width="1" height="1" fill="hsl(20, 90%, 50%)" />
<rect x="26" y="11" width="1" height="1" fill="hsl(20, 90%, 50%)" />
<rect x="27" y="11" width="1" height="1" fill="hsl(20, 90%, 50%)" />
<rect x="28" y="11" width="1" height="1" fill="hsl(20, 90%, 50%)" />
<rect x="32" y="11" width="1" height="1" fill="hsl(20, 90%, 50%)" />
<rect x="37" y="11" width="1" height="1" fill="hsl(20, 90%, 50%)" />
<rect x="40" y="11" width="1" height="1" fill="hsl(20, 90%, 50%)" />
<rect x="42" y="11" width="1" height="1" fill="hsl(20, 90%, 50%)" />
<rect x="44" y="11" width="1" height="1" fill="hsl(20, 90%, 50%)" />
<rect x="45" y="11" width="1" height="1" fill="hsl(20, 90%, 50%)" />
<rect x="46" y="11" width="1" height="1" fill="hsl(20, 90%, 50%)" />
<rect x="50" y="11" width="1" height="1" fill="hsl(20, 90%, 50%)" />
<rect x="9" y="12" width="1" height="1" fill="hsl(20, 90%, 50%)" />
<rect x="19" y="12" width="1" height="1" fill="hsl(20, 90%, 50%)" />
<rect x="21" y="12" width="1" height="1" fill="hsl(20, 90%, 50%)" />
<rect x="26" y="12" width="1" height="1" fill="hsl(20, 90%, 50%)" />
<rect x="27" y="12" width="1" height="1" fill="hsl(20, 90%, 50%)" />
<rect x="28" y="12" width="1" height="1" fill="hsl(20, 90%, 50%)" />
<rect x="30" y="12" width="1" height="1" fill="hsl(20, 90%, 50%)" />
<rect x="31" y="12" width="1" height="1" fill="hsl(20, 90%, 50%)" />
<rect x="33" y="12" width="1" height="1" fill="hsl(20, 90%, 50%)" />
<rect x="36" y="12" width="1" height="1" fill="hsl(20, 90%, 50%)" />
<rect x="37" y="12" width="1" height="1" fill="hsl(20, 90%, 50%)" />
<rect x="39" y="12" width="1" height="1" fill="hsl(20, 90%, 50%)" />
<rect x="41" y="12" width="1" height="1" fill="hsl(20, 90%, 50%)" />
<rect x="45" y="12" width="1" height="1" fill="hsl(20, 90%, 50%)" />
<rect x="48" y="12" width="1" height="1" fill="hsl(20, 90%, 50%)" />
<rect x="49" y="12" width="1" height="1" fill="hsl(20, 90%, 50%)" />
<rect x="51" y="12" width="1" height="1" fill="hsl(20, 90%, 50%)" />
<rect x="10" y="13" width="1" height="1" fill="hsl(20, 90%, 50%)" />
<rect x="18" y="13" width="1" height="1" fill="hsl(20, 90%, 50%)" />
<rect x="32" y="13" width="1" height="1" fill="hsl(20, 90%, 50%)" />
<rect x="33" y="13" width="1" height="1" fill="hsl(20, 90%, 50%)" />
<rect x="35" y="13" width="1" height="1" fill="hsl(20, 90%, 50%)" />
<rect x="39" y="13" width="1" height="1" fill="hsl(20, 90%, 50%)" />
<rect x="40" y="13" width="1" height="1" fill="hsl(20, 90%, 50%)" />
<rect x="45" y="13" width="1" height="1" fill="hsl(20, 90%, 50%)" />
<rect x="46" y="13" width="1" height="1" fill="hsl(20, 90%, 50%)" />
<rect x="51" y="13" width="1" height="1" fill="hsl(20, 90%, 50%)" />
<rect x="4" y="14" width="1" height="1" fill="hsl(20, 90%, 50%)" />
<rect x="6" y="14" width="1" height="1" fill="hsl(20, 90%, 50%)" />
<rect x="7" y="14" width="1" height="1" fill="hsl(20, 90%, 50%)" />
<rect x="12" y="14" width="1" height="1" fill="hsl(20, 90%, 50%)" />
<rect x="13" y="14" width="1" height="1" fill="hsl(20, 90%, 50%)" />
<rect x="15" y="14" width="1" height="1" fill="hsl(20, 90%, 50%)" />
<rect x="16" y="14" width="1" height="1" fill="hsl(20, 90%, 50%)" />
<rect x="21" y="14" width="1" height="1" fill="hsl(20, 90%, 50%)" />
<rect x="32" y="14" width="1" height="1" fill="hsl(20, 90%, 50%)" />
<rect x="41" y="14" width="1" height="1" fill="hsl(20, 90%, 50%)" />
<rect x="42" y="14" width="1" height="1" fill="hsl(20, 90%, 50%)" />
<rect x="44" y="14" width="1" height="1" fill="hsl(20, 90%, 50%)" />
<rect x="46" y="14" width="1" height="1" fill="hsl(20, 90%, 50%)" />
<rect x="48" y="14" width="1" height="1" fill="hsl(20, 90%, 50%)" />
<rect x="49" y="14" width="1" height="1" fill="hsl(20, 90%, 50%)" />
<rect x="51" y="14" width="1" height="1" fill="hsl(20, 90%, 50%)" />
<rect x="52" y="14" width="1" height="1" fill="hsl(20, 90%, 50%)" />
<rect x="4" y="15" width="1" height="1" fill="hsl(20, 90%, 50%)" />
<rect x="9" y="15" width="1" height="1" fill="hsl(20, 90%, 50%)" />
<rect x="10" y="15" width="1" height="1" fill="hsl(20, 90%, 50%)" />
<rect x="13" y="15" width="1" height="1" fill="hsl(20, 90%, 50%)" />
<rect x="22" y="15" width="1" height="1" fill="hsl(20, 90%, 50%)" />
<rect x="24" y="15" width="1" height="1" fill="hsl(20, 90%, 50%)" />
<rect x="25" y="15" width="1" height="1" fill="hsl(20, 90%, 50%)" />
<rect x="26" y="15" width="1" height="1" fill="hsl(20, 90%, 50%)" />
<rect x="35" y="15" width="1" height="1" fill="hsl(20, 90%, 50%)" />
<rect x="39" y="15" width="1" height="1" fill="hsl(20, 90%, 50%)" />
<rect x="43" y="15" width="1" height="1" fill="hsl(20, 90%, 50%)" />
<rect x="44" y="15" width="1" height="1" fill="hsl(20, 90%, 50%)" />
<rect x="46" y="15" width="1" height="1" fill="hsl(20, 90%, 50%)" />
<rect x="49" y="15" width="1" height="1" fill="hsl(20, 90%, 50%)" />
<rect x="51" y="15" width="1" height="1" fill="hsl(20, 90%, 50%)" />
<rect x="4" y="16" width="1" height="1" fill="hsl(20, 90%, 50%)" />
<rect x="6" y="16" width="1" height="1" fill="hsl(20, 90%, 50%)" />
<rect x="7" y="16" width="1" height="1" fill="hsl(20, 90%, 50%)" />
<rect x="10" y="16" width="1" height="1" fill="hsl(20, 90%, 50%)" />
<rect x="11" y="16" width="1" height="1" fill="hsl(20, 90%, 50%)" />
<rect x="15" y="16" width="1" height="1" fill="hsl(20, 90%, 50%)" />
<rect x="19" y="16" width="1" height="1" fill="hsl(20, 90%, 50%)" />
<rect x="20" y="16" width="1" height="1" fill="hsl(20, 90%, 50%)" />
<rect x="21" y="16" width="1" height="1" fill="hsl(20, 90%, 50%)" />
<rect x="22" y="16" width="1" height="1" fill="hsl(20, 90%, 50%)" />
<rect x="24" y="16" width="1" height="1" fill="hsl(20, 90%, 50%)" />
<rect x="26" y="16" width="1" height="1" fill="hsl(20, 90%, 50%)" />
<rect x="34" y="16" width="1" height="1" fill="hsl(20, 90%, 50%)" />
<rect x="36" y="16" width="1" height="1" fill="hsl(20, 90%, 50%)" />
<rect x="40" y="16" width="1" height="1" fill="hsl(20, 90%, 50%)" />
<rect x="41" y="16" width="1" height="1" fill="hsl(20, 90%, 50%)" />
<rect x="46" y="16" width="1" height="1" fill="hsl(20, 90%, 50%)" />
<rect x="49" y="16" width="1" height="1" fill="hsl(20, 90%, 50%)" />
<rect x="51" y="16" width="1" height="1" fill="hsl(20, 90%, 50%)" />
<rect x="16" y="17" width="1" height="1" fill="hsl(20, 90%, 50%)" />
<rect x="17" y="17" width="1" height="1" fill="hsl(20, 90%, 50%)" />
<rect x="18" y="17" width="1" height="1" fill="hsl(20, 90%, 50%)" />
<rect x="20" y="17" width="1" height="1" fill="hsl(20, 90%, 50%)" />
<rect x="35" y="17" width="1" height="1" fill="hsl(20, 90%, 50%)" />
<rect x="41" y="17" width="1" height="1" fill="hsl(20, 90%, 50%)" />
<rect x="43" y="17" width="1" height="1" fill="hsl(20, 90%, 50%)" />
<rect x="44" y="17" width="1" height="1" fill="hsl(20, 90%, 50%)" />
<rect x="45" y="17" width="1" height="1" fill="hsl(20, 90%, 50%)" />
<rect x="50" y="17" width="1" height="1" fill="hsl(20, 90%, 50%)" />
<rect x="17" y="18" width="1" height="1" fill="hsl(20, 90%, 50%)" />
<rect x="18" y="18" width="1" height="1" fill="hsl(20, 90%, 50%)" />
<rect x="23" y="18" width="1" height="1" fill="hsl(20, 90%, 50%)" />
<rect x="41" y="18" width="1" height="1" fill="hsl(20, 90%, 50%)" />
<rect x="43" y="18" width="1" height="1" fill="hsl(20, 90%, 50%)" />
<rect x="21" y="19" width="1" height="1" fill="hsl(20, 90%, 50%)" />
<rect x="22" y="19" width="1" height="1" fill="hsl(20, 90%, 50%)" />
<rect x="42" y="19" width="1" height="1" fill="hsl(20, 90%, 50%)" />
</svg>