<?xml version="1.0" encoding="utf-8"?>
<svg xmlns="http://www.w3.org/2000/svg" width="80" height="96" viewBox="0 0 80 96">
<rect width="100%" height="100%" fill="transparent" />
<rect x="20" y="4" width="8" height="8" fill="hsl(20, 90%, 50%)" />
<rect x="4" y="12" width="8" height="8" fill="hsl(20, 90%, 50%)" />
<rect x="12" y="12" width="8" height="8" fill="hsl(20, 90%, 50%)" />
<rect x="4" y="20" width="8" height="8" fill="hsl(20, 90%, 50%)" />
<rect x="28" y="20" width="8" height="8" fill="hsl(20, 90%, 50%)" />
<rect x="36" y="20" width="8" height="8" fill="hsl(20, 90%, 50%)" />
<rect x="44" y="20" width="8" height="8" fill="hsl(20, 90%, 50%)" />
<rect x="68" y="20" width="8" height="8" fill="hsl(20, 90%, 50%)" />
<rect x="4" y="28" width="8" height="8" fill="hsl(20, 90%, 50%)" />
<rect x="44" y="28" width="8" height="8" fill="hsl(20, 90%, 50%)" />
<rect x="52" y="28" width="8" height="8" fill="hsl(20, 90%, 50%)" />
<rect x="60" y="28" width="8" height="8" fill="hsl(20, 90%, 50%)" />
<rect x="12" y="36" width="8" height="8" fill="hsl(20, 90%, 50%)" />
<rect x="20" y="36" width="8" height="8" fill="hsl(20, 90%, 50%)" />
<rect x="28" y="36" width="8" height="8" fill="hsl(20, 90%, 50%)" />
<rect x="52" y="36" width="8" height="8" fill="hsl(20, 90%, 50%)" />
<rect x="60" y="36" width="8" height="8" fill="hsl(20, 90%, 50%)" />
<rect x="12" y="52" width="8" height="8" fill="hsl(20, 90%, 50%)" />
<rect x="20" y="52" width="8" height="8" fill="hsl(20, 90%, 50%)" />
<rect x="28" y="52" width="8" height="8" fill="hsl(20, 90%, 50%)" />
<rect x="52" y="52" width="8" height="8" fill="hsl(20, 90%, 50%)" />
<rect x="60" y="52" width="8" height="8" fill="hsl(20, 90%, 50%)" />
<rect x="4" y="60" width="8" height="8" fill="hsl(20, 90%, 50%)" />
<rect x="44" y="60" width="8" height="8" fill="hsl(20, 90%, 50%)" />
<rect x="52" y="60" width="8" height="8" fill="hsl(20, 90%, 50%)" />
<rect x="60" y="60" width="8" height="8" fill="hsl(20, 90%, 50%)" />
<rect x="4" y="68" width="8" height="8" fill="hsl(20, 90%, 50%)" />
<rect x="28" y="68" width="8" height="8" fill="hsl(20, 90%, 50%)" />
<rect x="36" y="68" width="8" height="8" fill="hsl(20, 90%, 50%)" />
<rect x="44" y="68" width="8" height="8" fill="hsl(20, 90%, 50%)" />
<rect x="68" y="68" width="8" height="8" fill="hsl(20, 90%, 50%)" />
<rect x="4" y="76" width="8" height="8" fill="hsl(20, 90%, 50%)" />
<rect x="12" y="76" width="8" height="8" fill="hsl(20, 90%, 50%)" />
<rect x="20" y="84" width="8" height="8" fill="hsl(20, 90%, 50%)" />
</svg>