<?xml version="1.0" encoding="utf-8"?>
<svg xmlns="http://www.w3.org/2000/svg" width="89" height="71" viewBox="0 0 89 71">
<rect width="100%" height="100%" fill="transparent" />
<rect x="10" y="4" width="3" height="3" fill="hsl(20, 90%, 50%)" />
<rect x="13" y="4" width="3" height="3" fill="hsl(20, 90%, 50%)" />
<rect x="10" y="7" width="3" height="3" fill="hsl(20, 90%, 50%)" />
<rect x="16" y="10" width="3" height="3" fill="hsl(20, 90%, 50%)" />
<rect x="25" y="10" width="3" height="3" fill="hsl(20, 90%, 50%)" />
<rect x="34" y="10" width="3" height="3" fill="hsl(20, 90%, 50%)" />
<rect x="43" y="10" width="3" height="3" fill="hsl(20, 90%, 50%)" />
<rect x="52" y="10" width="3" height="3" fill="hsl(20, 90%, 50%)" />
<rect x="61" y="10" width="3" height="3" fill="hsl(20, 90%, 50%)" />
<rect x="70" y="10" width="3" height="3" fill="hsl(20, 90%, 50%)" />
<rect x="13" y="13" width="3" height="3" fill="hsl(20, 90%, 50%)" />
<rect x="16" y="13" width="3" height="3" fill="hsl(20, 90%, 50%)" />
<rect x="19" y="13" width="3" height="3" fill="hsl(20, 90%, 50%)" />
<rect x="22" y="13" width="3" height="3" fill="hsl(20, 90%, 50%)" />
<rect x="25" y="13" width="3" height="3" fill="hsl(20, 90%, 50%)" />
<rect x="28" y="13" width="3" height="3" fill="hsl(20, 90%, 50%)" />
<rect x="31" y="13" width="3" height="3" fill="hsl(20, 90%, 50%)" />
<rect x="34" y="13" width="3" height="3" fill="hsl(20, 90%, 50%)" />
<rect x="37" y="13" width="3" height="3" fill="hsl(20, 90%, 50%)" />
<rect x="40" y="13" width="3" height="3" fill="hsl(20, 90%, 50%)" />
<rect x="43" y="13" width="3" height="3" fill="hsl(20, 90%, 50%)" />
<rect x="46" y="13" width="3" height="3" fill="hsl(20, 90%, 50%)" />
<rect x="49" y="13" width="3" height="3" fill="hsl(20, 90%, 50%)" />
<rect x="52" y="13" width="3" height="3" fill="hsl(20, 90%, 50%)" />
<rect x="55" y="13" width="3" height="3" fill="hsl(20, 90%, 50%)" />
<rect x="58" y="13" width="3" height="3" fill="hsl(20, 90%, 50%)" />
<rect x="61" y="13" width="3" height="3" fill="hsl(20, 90%, 50%)" />
<rect x="64" y="13" width="3" height="3" fill="hsl(20, 90%, 50%)" />
<rect x="67" y="13" width="3" height="3" fill="hsl(20, 90%, 50%)" />
<rect x="70" y="13" width="3" height="3" fill="hsl(20, 90%, 50%)" />
<rect x="10" y="16" width="3" height="3" fill="hsl(20, 90%, 50%)" />
<rect x="13" y="19" width="3" height="3" fill="hsl(20, 90%, 50%)" />
<rect x="16" y="19" width="3" height="3" fill="hsl(20, 90%, 50%)" />
<rect x="19" y="19" width="3" height="3" fill="hsl(20, 90%, 50%)" />
<rect x="22" y="19" width="3" height="3" fill="hsl(20, 90%, 50%)" />
<rect x="25" y="19" width="3" height="3" fill="hsl(20, 90%, 50%)" />
<rect x="28" y="19" width="3" height="3" fill="hsl(20, 90%, 50%)" />
<rect x="31" y="19" width="3" height="3" fill="hsl(20, 90%, 50%)" />
<rect x="34" y="19" width="3" height="3" fill="hsl(20, 90%, 50%)" />
<rect x="37" y="19" width="3" height="3" fill="hsl(20, 90%, 50%)" />
<rect x="40" y="19" width="3" height="3" fill="hsl(20, 90%, 50%)" />
<rect x="43" y="19" width="3" height="3" fill="hsl(20, 90%, 50%)" />
<rect x="46" y="19" width="3" height="3" fill="hsl(20, 90%, 50%)" />
<rect x="49" y="19" width="3" height="3" fill="hsl(20, 90%, 50%)" />
<rect x="52" y="19" width="3" height="3" fill="hsl(20, 90%, 50%)" />
<rect x="55" y="19" width="3" height="3" fill="hsl(20, 90%, 50%)" />
<rect x="58" y="19" width="3" height="3" fill="hsl(20, 90%, 50%)" />
<rect x="61" y="19" width="3" height="3" fill="hsl(20, 90%, 50%)" />
<rect x="64" y="19" width="3" height="3" fill="hsl(20, 90%, 50%)" />
<rect x="67" y="22" width="3" height="3" fill="hsl(20, 90%, 50%)" />
<rect x="7" y="25" width="3" height="3" fill="hsl(20, 90%, 50%)" />
<rect x="10" y="25" width="3" height="3" fill="hsl(20, 90%, 50%)" />
<rect x="13" y="25" width="3" height="3" fill="hsl(20, 90%, 50%)" />
<rect x="16" y="25" width="3" height="3" fill="hsl(20, 90%, 50%)" />
<rect x="19" y="25" width="3" height="3" fill="hsl(20, 90%, 50%)" />
<rect x="22" y="25" width="3" height="3" fill="hsl(20, 90%, 50%)" />
<rect x="25" y="25" width="3" height="3" fill="hsl(20, 90%, 50%)" />
<rect x="28" y="25" width="3" height="3" fill="hsl(20, 90%, 50%)" />
<rect x="31" y="25" width="3" height="3" fill="hsl(20, 90%, 50%)" />
<rect x="34" y="25" width="3" height="3" fill="hsl(20, 90%, 50%)" />
<rect x="37" y="25" width="3" height="3" fill="hsl(20, 90%, 50%)" />
<rect x="40" y="25" width="3" height="3" fill="hsl(20, 90%, 50%)" />
<rect x="43" y="25" width="3" height="3" fill="hsl(20, 90%, 50%)" />
<rect x="46" y="25" width="3" height="3" fill="hsl(20, 90%, 50%)" />
<rect x="49" y="25" width="3" height="3" fill="hsl(20, 90%, 50%)" />
<rect x="52" y="25" width="3" height="3" fill="hsl(20, 90%, 50%)" />
<rect x="55" y="25" width="3" height="3" fill="hsl(20, 90%, 50%)" />
<rect x="58" y="25" width="3" height="3" fill="hsl(20, 90%, 50%)" />
<rect x="61" y="25" width="3" height="3" fill="hsl(20, 90%, 50%)" />
<rect x="64" y="25" width="3" height="3" fill="hsl(20, 90%, 50%)" />
<rect x="4" y="28" width="3" height="3" fill="hsl(20, 90%, 50%)" />
<rect x="7" y="31" width="3" height="3" fill="hsl(20, 90%, 50%)" />
<rect x="10" y="31" width="3" height="3" fill="hsl(20, 90%, 50%)" />
<rect x="13" y="31" width="3" height="3" fill="hsl(20, 90%, 50%)" />
<rect x="16" y="31" width="3" height="3" fill="hsl(20, 90%, 50%)" />
<rect x="19" y="31" width="3" height="3" fill="hsl(20, 90%, 50%)" />
<rect x="22" y="31" width="3" height="3" fill="hsl(20, 90%, 50%)" />
<rect x="25" y="31" width="3" height="3" fill="hsl(20, 90%, 50%)" />
<rect x="28" y="31" width="3" height="3" fill="hsl(20, 90%, 50%)" />
<rect x="31" y="31" width="3" height="3" fill="hsl(20, 90%, 50%)" />
<rect x="34" y="31" width="3" height="3" fill="hsl(20, 90%, 50%)" />
<rect x="37" y="31" width="3" height="3" fill="hsl(20, 90%, 50%)" />
<rect x="40" y="31" width="3" height="3" fill="hsl(20, 90%, 50%)" />
<rect x="43" y="31" width="3" height="3" fill="hsl(20, 90%, 50%)" />
<rect x="46" y="31" width="3" height="3" fill="hsl(20, 90%, 50%)" />
<rect x="49" y="31" width="3" height="3" fill="hsl(20, 90%, 50%)" />
<rect x="52" y="31" width="3" height="3" fill="hsl(20, 90%, 50%)" />
<rect x="55" y="31" width="3" height="3" fill="hsl(20, 90%, 50%)" />
<rect x="58" y="31" width="3" height="3" fill="hsl(20, 90%, 50%)" />
<rect x="61" y="31" width="3" height="3" fill="hsl(20, 90%, 50%)" />
<rect x="64" y="31" width="3" height="3" fill="hsl(20, 90%, 50%)" />
<rect x="67" y="31" width="3" height="3" fill="hsl(20, 90%, 50%)" />
<rect x="70" y="31" width="3" height="3" fill="hsl(20, 90%, 50%)" />
<rect x="73" y="34" width="3" height="3" fill="hsl(20, 90%, 50%)" />
<rect x="79" y="34" width="3" height="3" fill="hsl(20, 90%, 50%)" />
<rect x="82" y="34" width="3" height="3" fill="hsl(20, 90%, 50%)" />
<rect x="7" y="37" width="3" height="3" fill="hsl(20, 90%, 50%)" />
<rect x="10" y="37" width="3" height="3" fill="hsl(20, 90%, 50%)" />
<rect x="13" y="37" width="3" height="3" fill="hsl(20, 90%, 50%)" />
<rect x="16" y="37" width="3" height="3" fill="hsl(20, 90%, 50%)" />
<rect x="19" y="37" width="3" height="3" fill="hsl(20, 90%, 50%)" />
<rect x="22" y="37" width="3" height="3" fill="hsl(20, 90%, 50%)" />
<rect x="25" y="37" width="3" height="3" fill="hsl(20, 90%, 50%)" />
<rect x="28" y="37" width="3" height="3" fill="hsl(20, 90%, 50%)" />
<rect x="31" y="37" width="3" height="3" fill="hsl(20, 90%, 50%)" />
<rect x="34" y="37" width="3" height="3" fill="hsl(20, 90%, 50%)" />
<rect x="37" y="37" width="3" height="3" fill="hsl(20, 90%, 50%)" />
<rect x="40" y="37" width="3" height="3" fill="hsl(20, 90%, 50%)" />
<rect x="43" y="37" width="3" height="3" fill="hsl(20, 90%, 50%)" />
<rect x="46" y="37" width="3" height="3" fill="hsl(20, 90%, 50%)" />
<rect x="49" y="37" width="3" height="3" fill="hsl(20, 90%, 50%)" />
<rect x="52" y="37" width="3" height="3" fill="hsl(20, 90%, 50%)" />
<rect x="55" y="37" width="3" height="3" fill="hsl(20, 90%, 50%)" />
<rect x="58" y="37" width="3" height="3" fill="hsl(20, 90%, 50%)" />
<rect x="61" y="37" width="3" height="3" fill="hsl(20, 90%, 50%)" />
<rect x="64" y="37" width="3" height="3" fill="hsl(20, 90%, 50%)" />
<rect x="73" y="37" width="3" height="3" fill="hsl(20, 90%, 50%)" />
<rect x="79" y="37" width="3" height="3" fill="hsl(20, 90%, 50%)" />
<rect x="82" y="37" width="3" height="3" fill="hsl(20, 90%, 50%)" />
<rect x="4" y="40" width="3" height="3" fill="hsl(20, 90%, 50%)" />
<rect x="67" y="40" width="3" height="3" fill="hsl(20, 90%, 50%)" />
<rect x="73" y="40" width="3" height="3" fill="hsl(20, 90%, 50%)" />
<rect x="7" y="43" width="3" height="3" fill="hsl(20, 90%, 50%)" />
<rect x="10" y="43" width="3" height="3" fill="hsl(20, 90%, 50%)" />
<rect x="13" y="43" width="3" height="3" fill="hsl(20, 90%, 50%)" />
<rect x="16" y="43" width="3" height="3" fill="hsl(20, 90%, 50%)" />
<rect x="19" y="43" width="3" height="3" fill="hsl(20, 90%, 50%)" />
<rect x="22" y="43" width="3" height="3" fill="hsl(20, 90%, 50%)" />
<rect x="25" y="43" width="3" height="3" fill="hsl(20, 90%, 50%)" />
<rect x="28" y="43" width="3" height="3" fill="hsl(20, 90%, 50%)" />
<rect x="31" y="43" width="3" height="3" fill="hsl(20, 90%, 50%)" />
<rect x="34" y="43" width="3" height="3" fill="hsl(20, 90%, 50%)" />
<rect x="37" y="43" width="3" height="3" fill="hsl(20, 90%, 50%)" />
<rect x="40" y="43" width="3" height="3" fill="hsl(20, 90%, 50%)" />
<rect x="43" y="43" width="3" height="3" fill="hsl(20, 90%, 50%)" />
<rect x="46" y="43" width="3" height="3" fill="hsl(20, 90%, 50%)" />
<rect x="49" y="43" width="3" height="3" fill="hsl(20, 90%, 50%)" />
<rect x="52" y="43" width="3" height="3" fill="hsl(20, 90%, 50%)" />
<rect x="55" y="43" width="3" height="3" fill="hsl(20, 90%, 50%)" />
<rect x="58" y="43" width="3" height="3" fill="hsl(20, 90%, 50%)" />
<rect x="61" y="43" width="3" height="3" fill="hsl(20, 90%, 50%)" />
<rect x="64" y="43" width="3" height="3" fill="hsl(20, 90%, 50%)" />
<rect x="73" y="43" width="3" height="3" fill="hsl(20, 90%, 50%)" />
<rect x="73" y="46" width="3" height="3" fill="hsl(20, 90%, 50%)" />
<rect x="76" y="46" width="3" height="3" fill="hsl(20, 90%, 50%)" />
<rect x="13" y="49" width="3" height="3" fill="hsl(20, 90%, 50%)" />
<rect x="16" y="49" width="3" height="3" fill="hsl(20, 90%, 50%)" />
<rect x="19" y="49" width="3" height="3" fill="hsl(20, 90%, 50%)" />
<rect x="22" y="49" width="3" height="3" fill="hsl(20, 90%, 50%)" />
<rect x="25" y="49" width="3" height="3" fill="hsl(20, 90%, 50%)" />
<rect x="28" y="49" width="3" height="3" fill="hsl(20, 90%, 50%)" />
<rect x="31" y="49" width="3" height="3" fill="hsl(20, 90%, 50%)" />
<rect x="34" y="49" width="3" height="3" fill="hsl(20, 90%, 50%)" />
<rect x="37" y="49" width="3" height="3" fill="hsl(20, 90%, 50%)" />
<rect x="40" y="49" width="3" height="3" fill="hsl(20, 90%, 50%)" />
<rect x="43" y="49" width="3" height="3" fill="hsl(20, 90%, 50%)" />
<rect x="46" y="49" width="3" height="3" fill="hsl(20, 90%, 50%)" />
<rect x="49" y="49" width="3" height="3" fill="hsl(20, 90%, 50%)" />
<rect x="52" y="49" width="3" height="3" fill="hsl(20, 90%, 50%)" />
<rect x="55" y="49" width="3" height="3" fill="hsl(20, 90%, 50%)" />
<rect x="58" y="49" width="3" height="3" fill="hsl(20, 90%, 50%)" />
<rect x="61" y="49" width="3" height="3" fill="hsl(20, 90%, 50%)" />
<rect x="64" y="49" width="3" height="3" fill="hsl(20, 90%, 50%)" />
<rect x="10" y="52" width="3" height="3" fill="hsl(20, 90%, 50%)" />
<rect x="67" y="52" width="3" height="3" fill="hsl(20, 90%, 50%)" />
<rect x="13" y="55" width="3" height="3" fill="hsl(20, 90%, 50%)" />
<rect x="16" y="55" width="3" height="3" fill="hsl(20, 90%, 50%)" />
<rect x="19" y="55" width="3" height="3" fill="hsl(20, 90%, 50%)" />
<rect x="22" y="55" width="3" height="3" fill="hsl(20, 90%, 50%)" />
<rect x="25" y="55" width="3" height="3" fill="hsl(20, 90%, 50%)" />
<rect x="28" y="55" width="3" height="3" fill="hsl(20, 90%, 50%)" />
<rect x="31" y="55" width="3" height="3" fill="hsl(20, 90%, 50%)" />
<rect x="34" y="55" width="3" height="3" fill="hsl(20, 90%, 50%)" />
<rect x="37" y="55" width="3" height="3" fill="hsl(20, 90%, 50%)" />
<rect x="40" y="55" width="3" height="3" fill="hsl(20, 90%, 50%)" />
<rect x="43" y="55" width="3" height="3" fill="hsl(20, 90%, 50%)" />
<rect x="46" y="55" width="3" height="3" fill="hsl(20, 90%, 50%)" />
<rect x="49" y="55" width="3" height="3" fill="hsl(20, 90%, 50%)" />
<rect x="52" y="55" width="3" height="3" fill="hsl(20, 90%, 50%)" />
<rect x="55" y="55" width="3" height="3" fill="hsl(20, 90%, 50%)" />
<rect x="58" y="55" width="3" height="3" fill="hsl(20, 90%, 50%)" />
<rect x="61" y="55" width="3" height="3" fill="hsl(20, 90%, 50%)" />
<rect x="64" y="55" width="3" height="3" fill="hsl(20, 90%, 50%)" />
<rect x="19" y="61" width="3" height="3" fill="hsl(20, 90%, 50%)" />
<rect x="22" y="61" width="3" height="3" fill="hsl(20, 90%, 50%)" />
<rect x="31" y="61" width="3" height="3" fill="hsl(20, 90%, 50%)" />
<rect x="34" y="61" width="3" height="3" fill="hsl(20, 90%, 50%)" />
<rect x="40" y="61" width="3" height="3" fill="hsl(20, 90%, 50%)" />
<rect x="46" y="61" width="3" height="3" fill="hsl(20, 90%, 50%)" />
<rect x="49" y="61" width="3" height="3" fill="hsl(20, 90%, 50%)" />
<rect x="52" y="61" width="3" height="3" fill="hsl(20, 90%, 50%)" />
<rect x="55" y="61" width="3" height="3" fill="hsl(20, 90%, 50%)" />
<rect x="61" y="61" width="3" height="3" fill="hsl(20, 90%, 50%)" />
<rect x="64" y="61" width="3" height="3" fill="hsl(20, 90%, 50%)" />
<rect x="19" y="64" width="3" height="3" fill="hsl(20, 90%, 50%)" />
<rect x="22" y="64" width="3" height="3" fill="hsl(20, 90%, 50%)" />
<rect x="31" y="64" width="3" height="3" fill="hsl(20, 90%, 50%)" />
<rect x="37" y="64" width="3" height="3" fill="hsl(20, 90%, 50%)" />
<rect x="40" y="64" width="3" height="3" fill="hsl(20, 90%, 50%)" />
<rect x="46" y="64" width="3" height="3" fill="hsl(20, 90%, 50%)" />
<rect x="55" y="64" width="3" height="3" fill="hsl(20, 90%, 50%)" />
<rect x="61" y="64" width="3" height="3" fill="hsl(20, 90%, 50%)" />
<rect x="64" y="64" width="3" height="3" fill="hsl(20, 90%, 50%)" />
</svg>