<?xml version="1.0" encoding="utf-8"?>
<svg xmlns="http://www.w3.org/2000/svg" width="78" height="46" viewBox="0 0 78 46">
<rect width="100%" height="100%" fill="transparent" />
<rect x="70" y="4" width="2" height="2" fill="hsl(0, 100%, 60%)" />
<rect x="36" y="6" width="2" height="2" fill="hsl(0, 100%, 60%)" />
<rect x="68" y="6" width="2" height="2" fill="hsl(0, 100%, 60%)" />
<rect x="72" y="6" width="2" height="2" fill="hsl(0, 100%, 60%)" />
<rect x="16" y="8" width="2" height="2" fill="hsl(0, 100%, 60%)" />
<rect x="20" y="8" width="2" height="2" fill="hsl(0, 100%, 60%)" />
<rect x="34" y="8" width="2" height="2" fill="hsl(0, 100%, 60%)" />
<rect x="46" y="8" width="2" height="2" fill="hsl(0, 100%, 60%)" />
<rect x="48" y="8" width="2" height="2" fill="hsl(0, 100%, 60%)" />
<rect x="66" y="8" width="2" height="2" fill="hsl(0, 100%, 60%)" />
<rect x="16" y="10" width="2" height="2" fill="hsl(0, 100%, 60%)" />
<rect x="26" y="10" width="2" height="2" fill="hsl(0, 100%, 60%)" />
<rect x="36" y="10" width="2" height="2" fill="hsl(0, 100%, 60%)" />
<rect x="40" y="10" width="2" height="2" fill="hsl(0, 100%, 60%)" />
<rect x="42" y="10" width="2" height="2" fill="hsl(0, 100%, 60%)" />
<rect x="44" y="10" width="2" height="2" fill="hsl(0, 100%, 60%)" />
<rect x="46" y="10" width="2" height="2" fill="hsl(0, 100%, 60%)" />
<rect x="48" y="10" width="2" height="2" fill="hsl(0, 100%, 60%)" />
<rect x="50" y="10" width="2" height="2" fill="hsl(0, 100%, 60%)" />
<rect x="60" y="10" width="2" height="2" fill="hsl(0, 100%, 60%)" />
<rect x="62" y="10" width="2" height="2" fill="hsl(0, 100%, 60%)" />
<rect x="16" y="12" width="2" height="2" fill="hsl(0, 100%, 60%)" />
<rect x="20" y="12" width="2" height="2" fill="hsl(0, 100%, 60%)" />
<rect x="22" y="12" width="2" height="2" fill="hsl(0, 100%, 60%)" />
<rect x="24" y="12" width="2" height="2" fill="hsl(0, 100%, 60%)" />
<rect x="26" y="12" width="2" height="2" fill="hsl(0, 100%, 60%)" />
<rect x="28" y="12" width="2" height="2" fill="hsl(0, 100%, 60%)" />
<rect x="30" y="12" width="2" height="2" fill="hsl(0, 100%, 60%)" />
<rect x="32" y="12" width="2" height="2" fill="hsl(0, 100%, 60%)" />
<rect x="34" y="12" width="2" height="2" fill="hsl(0, 100%, 60%)" />
<rect x="56" y="12" width="2" height="2" fill="hsl(0, 100%, 60%)" />
<rect x="62" y="12" width="2" height="2" fill="hsl(0, 100%, 60%)" />
<rect x="66" y="12" width="2" height="2" fill="hsl(0, 100%, 60%)" />
<rect x="68" y="12" width="2" height="2" fill="hsl(0, 100%, 60%)" />
<rect x="70" y="12" width="2" height="2" fill="hsl(0, 100%, 60%)" />
<rect x="22" y="14" width="2" height="2" fill="hsl(0, 100%, 60%)" />
<rect x="34" y="14" width="2" height="2" fill="hsl(0, 100%, 60%)" />
<rect x="50" y="14" width="2" height="2" fill="hsl(0, 100%, 60%)" />
<rect x="52" y="14" width="2" height="2" fill="hsl(0, 100%, 60%)" />
<rect x="54" y="14" width="2" height="2" fill="hsl(0, 100%, 60%)" />
<rect x="56" y="14" width="2" height="2" fill="hsl(0, 100%, 60%)" />
<rect x="66" y="14" width="2" height="2" fill="hsl(0, 100%, 60%)" />
<rect x="68" y="14" width="2" height="2" fill="hsl(0, 100%, 60%)" />
<rect x="70" y="14" width="2" height="2" fill="hsl(0, 100%, 60%)" />
<rect x="12" y="16" width="2" height="2" fill="hsl(0, 100%, 60%)" />
<rect x="14" y="16" width="2" height="2" fill="hsl(0, 100%, 60%)" />
<rect x="50" y="16" width="2" height="2" fill="hsl(0, 100%, 60%)" />
<rect x="52" y="16" width="2" height="2" fill="hsl(0, 100%, 60%)" />
<rect x="54" y="16" width="2" height="2" fill="hsl(0, 100%, 60%)" />
<rect x="58" y="16" width="2" height="2" fill="hsl(0, 100%, 60%)" />
<rect x="6" y="18" width="2" height="2" fill="hsl(0, 100%, 60%)" />
<rect x="12" y="18" width="2" height="2" fill="hsl(0, 100%, 60%)" />
<rect x="14" y="18" width="2" height="2" fill="hsl(0, 100%, 60%)" />
<rect x="30" y="18" width="2" height="2" fill="hsl(0, 100%, 60%)" />
<rect x="32" y="18" width="2" height="2" fill="hsl(0, 100%, 60%)" />
<rect x="50" y="18" width="2" height="2" fill="hsl(0, 100%, 60%)" />
<rect x="52" y="18" width="2" height="2" fill="hsl(0, 100%, 60%)" />
<rect x="6" y="20" width="2" height="2" fill="hsl(0, 100%, 60%)" />
<rect x="12" y="20" width="2" height="2" fill="hsl(0, 100%, 60%)" />
<rect x="4" y="22" width="2" height="2" fill="hsl(0, 100%, 60%)" />
<rect x="6" y="24" width="2" height="2" fill="hsl(0, 100%, 60%)" />
<rect x="12" y="24" width="2" height="2" fill="hsl(0, 100%, 60%)" />
<rect x="6" y="26" width="2" height="2" fill="hsl(0, 100%, 60%)" />
<rect x="12" y="26" width="2" height="2" fill="hsl(0, 100%, 60%)" />
<rect x="14" y="26" width="2" height="2" fill="hsl(0, 100%, 60%)" />
<rect x="30" y="26" width="2" height="2" fill="hsl(0, 100%, 60%)" />
<rect x="32" y="26" width="2" height="2" fill="hsl(0, 100%, 60%)" />
<rect x="50" y="26" width="2" height="2" fill="hsl(0, 100%, 60%)" />
<rect x="52" y="26" width="2" height="2" fill="hsl(0, 100%, 60%)" />
<rect x="12" y="28" width="2" height="2" fill="hsl(0, 100%, 60%)" />
<rect x="14" y="28" width="2" height="2" fill="hsl(0, 100%, 60%)" />
<rect x="50" y="28" width="2" height="2" fill="hsl(0, 100%, 60%)" />
<rect x="52" y="28" width="2" height="2" fill="hsl(0, 100%, 60%)" />
<rect x="54" y="28" width="2" height="2" fill="hsl(0, 100%, 60%)" />
<rect x="58" y="28" width="2" height="2" fill="hsl(0, 100%, 60%)" />
<rect x="22" y="30" width="2" height="2" fill="hsl(0, 100%, 60%)" />
<rect x="34" y="30" width="2" height="2" fill="hsl(0, 100%, 60%)" />
<rect x="50" y="30" width="2" height="2" fill="hsl(0, 100%, 60%)" />
<rect x="52" y="30" width="2" height="2" fill="hsl(0, 100%, 60%)" />
<rect x="54" y="30" width="2" height="2" fill="hsl(0, 100%, 60%)" />
<rect x="56" y="30" width="2" height="2" fill="hsl(0, 100%, 60%)" />
<rect x="66" y="30" width="2" height="2" fill="hsl(0, 100%, 60%)" />
<rect x="68" y="30" width="2" height="2" fill="hsl(0, 100%, 60%)" />
<rect x="70" y="30" width="2" height="2" fill="hsl(0, 100%, 60%)" />
<rect x="16" y="32" width="2" height="2" fill="hsl(0, 100%, 60%)" />
<rect x="20" y="32" width="2" height="2" fill="hsl(0, 100%, 60%)" />
<rect x="22" y="32" width="2" height="2" fill="hsl(0, 100%, 60%)" />
<rect x="24" y="32" width="2" height="2" fill="hsl(0, 100%, 60%)" />
<rect x="26" y="32" width="2" height="2" fill="hsl(0, 100%, 60%)" />
<rect x="28" y="32" width="2" height="2" fill="hsl(0, 100%, 60%)" />
<rect x="30" y="32" width="2" height="2" fill="hsl(0, 100%, 60%)" />
<rect x="32" y="32" width="2" height="2" fill="hsl(0, 100%, 60%)" />
<rect x="34" y="32" width="2" height="2" fill="hsl(0, 100%, 60%)" />
<rect x="56" y="32" width="2" height="2" fill="hsl(0, 100%, 60%)" />
<rect x="62" y="32" width="2" height="2" fill="hsl(0, 100%, 60%)" />
<rect x="66" y="32" width="2" height="2" fill="hsl(0, 100%, 60%)" />
<rect x="68" y="32" width="2" height="2" fill="hsl(0, 100%, 60%)" />
<rect x="70" y="32" width="2" height="2" fill="hsl(0, 100%, 60%)" />
<rect x="16" y="34" width="2" height="2" fill="hsl(0, 100%, 60%)" />
<rect x="26" y="34" width="2" height="2" fill="hsl(0, 100%, 60%)" />
<rect x="36" y="34" width="2" height="2" fill="hsl(0, 100%, 60%)" />
<rect x="40" y="34" width="2" height="2" fill="hsl(0, 100%, 60%)" />
<rect x="42" y="34" width="2" height="2" fill="hsl(0, 100%, 60%)" />
<rect x="44" y="34" width="2" height="2" fill="hsl(0, 100%, 60%)" />
<rect x="46" y="34" width="2" height="2" fill="hsl(0, 100%, 60%)" />
<rect x="48" y="34" width="2" height="2" fill="hsl(0, 100%, 60%)" />
<rect x="50" y="34" width="2" height="2" fill="hsl(0, 100%, 60%)" />
<rect x="60" y="34" width="2" height="2" fill="hsl(0, 100%, 60%)" />
<rect x="62" y="34" width="2" height="2" fill="hsl(0, 100%, 60%)" />
<rect x="16" y="36" width="2" height="2" fill="hsl(0, 100%, 60%)" />
<rect x="20" y="36" width="2" height="2" fill="hsl(0, 100%, 60%)" />
<rect x="34" y="36" width="2" height="2" fill="hsl(0, 100%, 60%)" />
<rect x="46" y="36" width="2" height="2" fill="hsl(0, 100%, 60%)" />
<rect x="48" y="36" width="2" height="2" fill="hsl(0, 100%, 60%)" />
<rect x="66" y="36" width="2" height="2" fill="hsl(0, 100%, 60%)" />
<rect x="36" y="38" width="2" height="2" fill="hsl(0, 100%, 60%)" />
<rect x="68" y="38" width="2" height="2" fill="hsl(0, 100%, 60%)" />
<rect x="72" y="38" width="2" height="2" fill="hsl(0, 100%, 60%)" />
<rect x="70" y="40" width="2" height="2" fill="hsl(0, 100%, 60%)" />
</svg>