<?xml version="1.0" encoding="utf-8"?>
<svg xmlns="http://www.w3.org/2000/svg" width="49" height="57" viewBox="0 0 49 57">
<rect width="100%" height="100%" fill="transparent" />
<rect x="16" y="4" width="1" height="1" fill="hsl(0, 100%, 60%)" />
<rect x="16" y="5" width="1" height="1" fill="hsl(0, 100%, 60%)" />
<rect x="22" y="5" width="1" height="1" fill="hsl(0, 100%, 60%)" />
<rect x="23" y="5" width="1" height="1" fill="hsl(0, 100%, 60%)" />
<rect x="24" y="5" width="1" height="1" fill="hsl(0, 100%, 60%)" />
<rect x="15" y="6" width="1" height="1" fill="hsl(0, 100%, 60%)" />
<rect x="17" y="6" width="1" height="1" fill="hsl(0, 100%, 60%)" />
<rect x="21" y="6" width="1" height="1" fill="hsl(0, 100%, 60%)" />
<rect x="22" y="6" width="1" height="1" fill="hsl(0, 100%, 60%)" />
<rect x="25" y="6" width="1" height="1" fill="hsl(0, 100%, 60%)" />
<rect x="16" y="7" width="1" height="1" fill="hsl(0, 100%, 60%)" />
<rect x="20" y="7" width="1" height="1" fill="hsl(0, 100%, 60%)" />
<rect x="26" y="7" width="1" height="1" fill="hsl(0, 100%, 60%)" />
<rect x="16" y="8" width="1" height="1" fill="hsl(0, 100%, 60%)" />
<rect x="20" y="8" width="1" height="1" fill="hsl(0, 100%, 60%)" />
<rect x="21" y="9" width="1" height="1" fill="hsl(0, 100%, 60%)" />
<rect x="24" y="9" width="1" height="1" fill="hsl(0, 100%, 60%)" />
<rect x="25" y="9" width="1" height="1" fill="hsl(0, 100%, 60%)" />
<rect x="22" y="10" width="1" height="1" fill="hsl(0, 100%, 60%)" />
<rect x="23" y="10" width="1" height="1" fill="hsl(0, 100%, 60%)" />
<rect x="35" y="10" width="1" height="1" fill="hsl(0, 100%, 60%)" />
<rect x="36" y="10" width="1" height="1" fill="hsl(0, 100%, 60%)" />
<rect x="35" y="11" width="1" height="1" fill="hsl(0, 100%, 60%)" />
<rect x="36" y="11" width="1" height="1" fill="hsl(0, 100%, 60%)" />
<rect x="5" y="18" width="1" height="1" fill="hsl(0, 100%, 60%)" />
<rect x="6" y="18" width="1" height="1" fill="hsl(0, 100%, 60%)" />
<rect x="7" y="18" width="1" height="1" fill="hsl(0, 100%, 60%)" />
<rect x="43" y="18" width="1" height="1" fill="hsl(0, 100%, 60%)" />
<rect x="44" y="18" width="1" height="1" fill="hsl(0, 100%, 60%)" />
<rect x="5" y="19" width="1" height="1" fill="hsl(0, 100%, 60%)" />
<rect x="6" y="19" width="1" height="1" fill="hsl(0, 100%, 60%)" />
<rect x="7" y="19" width="1" height="1" fill="hsl(0, 100%, 60%)" />
<rect x="29" y="19" width="1" height="1" fill="hsl(0, 100%, 60%)" />
<rect x="43" y="19" width="1" height="1" fill="hsl(0, 100%, 60%)" />
<rect x="44" y="19" width="1" height="1" fill="hsl(0, 100%, 60%)" />
<rect x="6" y="20" width="1" height="1" fill="hsl(0, 100%, 60%)" />
<rect x="19" y="20" width="1" height="1" fill="hsl(0, 100%, 60%)" />
<rect x="20" y="20" width="1" height="1" fill="hsl(0, 100%, 60%)" />
<rect x="30" y="20" width="1" height="1" fill="hsl(0, 100%, 60%)" />
<rect x="31" y="20" width="1" height="1" fill="hsl(0, 100%, 60%)" />
<rect x="7" y="21" width="1" height="1" fill="hsl(0, 100%, 60%)" />
<rect x="8" y="21" width="1" height="1" fill="hsl(0, 100%, 60%)" />
<rect x="18" y="21" width="1" height="1" fill="hsl(0, 100%, 60%)" />
<rect x="20" y="21" width="1" height="1" fill="hsl(0, 100%, 60%)" />
<rect x="21" y="21" width="1" height="1" fill="hsl(0, 100%, 60%)" />
<rect x="22" y="21" width="1" height="1" fill="hsl(0, 100%, 60%)" />
<rect x="31" y="21" width="1" height="1" fill="hsl(0, 100%, 60%)" />
<rect x="32" y="21" width="1" height="1" fill="hsl(0, 100%, 60%)" />
<rect x="8" y="22" width="1" height="1" fill="hsl(0, 100%, 60%)" />
<rect x="18" y="22" width="1" height="1" fill="hsl(0, 100%, 60%)" />
<rect x="22" y="22" width="1" height="1" fill="hsl(0, 100%, 60%)" />
<rect x="33" y="22" width="1" height="1" fill="hsl(0, 100%, 60%)" />
<rect x="7" y="23" width="1" height="1" fill="hsl(0, 100%, 60%)" />
<rect x="19" y="23" width="1" height="1" fill="hsl(0, 100%, 60%)" />
<rect x="20" y="23" width="1" height="1" fill="hsl(0, 100%, 60%)" />
<rect x="22" y="23" width="1" height="1" fill="hsl(0, 100%, 60%)" />
<rect x="28" y="23" width="1" height="1" fill="hsl(0, 100%, 60%)" />
<rect x="29" y="23" width="1" height="1" fill="hsl(0, 100%, 60%)" />
<rect x="30" y="23" width="1" height="1" fill="hsl(0, 100%, 60%)" />
<rect x="31" y="23" width="1" height="1" fill="hsl(0, 100%, 60%)" />
<rect x="32" y="23" width="1" height="1" fill="hsl(0, 100%, 60%)" />
<rect x="20" y="24" width="1" height="1" fill="hsl(0, 100%, 60%)" />
<rect x="31" y="24" width="1" height="1" fill="hsl(0, 100%, 60%)" />
<rect x="5" y="27" width="1" height="1" fill="hsl(0, 100%, 60%)" />
<rect x="6" y="27" width="1" height="1" fill="hsl(0, 100%, 60%)" />
<rect x="5" y="28" width="1" height="1" fill="hsl(0, 100%, 60%)" />
<rect x="6" y="28" width="1" height="1" fill="hsl(0, 100%, 60%)" />
<rect x="6" y="29" width="1" height="1" fill="hsl(0, 100%, 60%)" />
<rect x="6" y="30" width="1" height="1" fill="hsl(0, 100%, 60%)" />
<rect x="5" y="31" width="1" height="1" fill="hsl(0, 100%, 60%)" />
<rect x="7" y="31" width="1" height="1" fill="hsl(0, 100%, 60%)" />
<rect x="4" y="32" width="1" height="1" fill="hsl(0, 100%, 60%)" />
<rect x="5" y="33" width="1" height="1" fill="hsl(0, 100%, 60%)" />
<rect x="8" y="33" width="1" height="1" fill="hsl(0, 100%, 60%)" />
<rect x="9" y="33" width="1" height="1" fill="hsl(0, 100%, 60%)" />
<rect x="6" y="34" width="1" height="1" fill="hsl(0, 100%, 60%)" />
<rect x="10" y="34" width="1" height="1" fill="hsl(0, 100%, 60%)" />
<rect x="8" y="35" width="1" height="1" fill="hsl(0, 100%, 60%)" />
<rect x="9" y="35" width="1" height="1" fill="hsl(0, 100%, 60%)" />
<rect x="8" y="36" width="1" height="1" fill="hsl(0, 100%, 60%)" />
<rect x="10" y="43" width="1" height="1" fill="hsl(0, 100%, 60%)" />
<rect x="11" y="43" width="1" height="1" fill="hsl(0, 100%, 60%)" />
<rect x="10" y="44" width="1" height="1" fill="hsl(0, 100%, 60%)" />
<rect x="11" y="44" width="1" height="1" fill="hsl(0, 100%, 60%)" />
<rect x="23" y="45" width="1" height="1" fill="hsl(0, 100%, 60%)" />
<rect x="23" y="46" width="1" height="1" fill="hsl(0, 100%, 60%)" />
<rect x="24" y="46" width="1" height="1" fill="hsl(0, 100%, 60%)" />
<rect x="25" y="46" width="1" height="1" fill="hsl(0, 100%, 60%)" />
<rect x="24" y="47" width="1" height="1" fill="hsl(0, 100%, 60%)" />
<rect x="25" y="47" width="1" height="1" fill="hsl(0, 100%, 60%)" />
<rect x="24" y="48" width="1" height="1" fill="hsl(0, 100%, 60%)" />
<rect x="22" y="50" width="1" height="1" fill="hsl(0, 100%, 60%)" />
<rect x="23" y="50" width="1" height="1" fill="hsl(0, 100%, 60%)" />
<rect x="25" y="50" width="1" height="1" fill="hsl(0, 100%, 60%)" />
<rect x="22" y="51" width="1" height="1" fill="hsl(0, 100%, 60%)" />
<rect x="23" y="51" width="1" height="1" fill="hsl(0, 100%, 60%)" />
<rect x="24" y="51" width="1" height="1" fill="hsl(0, 100%, 60%)" />
<rect x="25" y="51" width="1" height="1" fill="hsl(0, 100%, 60%)" />
<rect x="24" y="52" width="1" height="1" fill="hsl(0, 100%, 60%)" />
<rect x="25" y="52" width="1" height="1" fill="hsl(0, 100%, 60%)" />
</svg>