<?xml version="1.0" encoding="utf-8"?>
<svg xmlns="http://www.w3.org/2000/svg" width="92" height="92" viewBox="0 0 92 92">
<rect width="100%" height="100%" fill="transparent" />
<rect x="44" y="4" width="2" height="2" fill="hsl(0, 100%, 60%)" />
<rect x="46" y="4" width="2" height="2" fill="hsl(0, 100%, 60%)" />
<rect x="44" y="6" width="2" height="2" fill="hsl(0, 100%, 60%)" />
<rect x="46" y="6" width="2" height="2" fill="hsl(0, 100%, 60%)" />
<rect x="66" y="14" width="2" height="2" fill="hsl(0, 100%, 60%)" />
<rect x="68" y="14" width="2" height="2" fill="hsl(0, 100%, 60%)" />
<rect x="48" y="16" width="2" height="2" fill="hsl(0, 100%, 60%)" />
<rect x="50" y="16" width="2" height="2" fill="hsl(0, 100%, 60%)" />
<rect x="64" y="16" width="2" height="2" fill="hsl(0, 100%, 60%)" />
<rect x="70" y="16" width="2" height="2" fill="hsl(0, 100%, 60%)" />
<rect x="48" y="18" width="2" height="2" fill="hsl(0, 100%, 60%)" />
<rect x="66" y="18" width="2" height="2" fill="hsl(0, 100%, 60%)" />
<rect x="68" y="18" width="2" height="2" fill="hsl(0, 100%, 60%)" />
<rect x="16" y="20" width="2" height="2" fill="hsl(0, 100%, 60%)" />
<rect x="48" y="20" width="2" height="2" fill="hsl(0, 100%, 60%)" />
<rect x="14" y="22" width="2" height="2" fill="hsl(0, 100%, 60%)" />
<rect x="18" y="22" width="2" height="2" fill="hsl(0, 100%, 60%)" />
<rect x="50" y="22" width="2" height="2" fill="hsl(0, 100%, 60%)" />
<rect x="14" y="24" width="2" height="2" fill="hsl(0, 100%, 60%)" />
<rect x="18" y="24" width="2" height="2" fill="hsl(0, 100%, 60%)" />
<rect x="16" y="26" width="2" height="2" fill="hsl(0, 100%, 60%)" />
<rect x="68" y="40" width="2" height="2" fill="hsl(0, 100%, 60%)" />
<rect x="74" y="40" width="2" height="2" fill="hsl(0, 100%, 60%)" />
<rect x="70" y="42" width="2" height="2" fill="hsl(0, 100%, 60%)" />
<rect x="72" y="42" width="2" height="2" fill="hsl(0, 100%, 60%)" />
<rect x="74" y="42" width="2" height="2" fill="hsl(0, 100%, 60%)" />
<rect x="4" y="44" width="2" height="2" fill="hsl(0, 100%, 60%)" />
<rect x="6" y="44" width="2" height="2" fill="hsl(0, 100%, 60%)" />
<rect x="84" y="44" width="2" height="2" fill="hsl(0, 100%, 60%)" />
<rect x="86" y="44" width="2" height="2" fill="hsl(0, 100%, 60%)" />
<rect x="4" y="46" width="2" height="2" fill="hsl(0, 100%, 60%)" />
<rect x="6" y="46" width="2" height="2" fill="hsl(0, 100%, 60%)" />
<rect x="84" y="46" width="2" height="2" fill="hsl(0, 100%, 60%)" />
<rect x="86" y="46" width="2" height="2" fill="hsl(0, 100%, 60%)" />
<rect x="16" y="48" width="2" height="2" fill="hsl(0, 100%, 60%)" />
<rect x="18" y="48" width="2" height="2" fill="hsl(0, 100%, 60%)" />
<rect x="20" y="48" width="2" height="2" fill="hsl(0, 100%, 60%)" />
<rect x="16" y="50" width="2" height="2" fill="hsl(0, 100%, 60%)" />
<rect x="22" y="50" width="2" height="2" fill="hsl(0, 100%, 60%)" />
<rect x="74" y="64" width="2" height="2" fill="hsl(0, 100%, 60%)" />
<rect x="72" y="66" width="2" height="2" fill="hsl(0, 100%, 60%)" />
<rect x="76" y="66" width="2" height="2" fill="hsl(0, 100%, 60%)" />
<rect x="40" y="68" width="2" height="2" fill="hsl(0, 100%, 60%)" />
<rect x="72" y="68" width="2" height="2" fill="hsl(0, 100%, 60%)" />
<rect x="76" y="68" width="2" height="2" fill="hsl(0, 100%, 60%)" />
<rect x="42" y="70" width="2" height="2" fill="hsl(0, 100%, 60%)" />
<rect x="74" y="70" width="2" height="2" fill="hsl(0, 100%, 60%)" />
<rect x="22" y="72" width="2" height="2" fill="hsl(0, 100%, 60%)" />
<rect x="24" y="72" width="2" height="2" fill="hsl(0, 100%, 60%)" />
<rect x="42" y="72" width="2" height="2" fill="hsl(0, 100%, 60%)" />
<rect x="20" y="74" width="2" height="2" fill="hsl(0, 100%, 60%)" />
<rect x="26" y="74" width="2" height="2" fill="hsl(0, 100%, 60%)" />
<rect x="40" y="74" width="2" height="2" fill="hsl(0, 100%, 60%)" />
<rect x="42" y="74" width="2" height="2" fill="hsl(0, 100%, 60%)" />
<rect x="22" y="76" width="2" height="2" fill="hsl(0, 100%, 60%)" />
<rect x="24" y="76" width="2" height="2" fill="hsl(0, 100%, 60%)" />
<rect x="44" y="84" width="2" height="2" fill="hsl(0, 100%, 60%)" />
<rect x="46" y="84" width="2" height="2" fill="hsl(0, 100%, 60%)" />
<rect x="44" y="86" width="2" height="2" fill="hsl(0, 100%, 60%)" />
<rect x="46" y="86" width="2" height="2" fill="hsl(0, 100%, 60%)" />
</svg>