<?xml version="1.0" encoding="utf-8"?>
<svg xmlns="http://www.w3.org/2000/svg" width="77" height="41" viewBox="0 0 77 41">
<rect width="100%" height="100%" fill="transparent" />
<rect x="4" y="4" width="3" height="3" fill="hsl(0, 100%, 60%)" />
<rect x="7" y="4" width="3" height="3" fill="hsl(0, 100%, 60%)" />
<rect x="37" y="4" width="3" height="3" fill="hsl(0, 100%, 60%)" />
<rect x="40" y="4" width="3" height="3" fill="hsl(0, 100%, 60%)" />
<rect x="4" y="7" width="3" height="3" fill="hsl(0, 100%, 60%)" />
<rect x="7" y="7" width="3" height="3" fill="hsl(0, 100%, 60%)" />
<rect x="10" y="7" width="3" height="3" fill="hsl(0, 100%, 60%)" />
<rect x="13" y="7" width="3" height="3" fill="hsl(0, 100%, 60%)" />
<rect x="19" y="7" width="3" height="3" fill="hsl(0, 100%, 60%)" />
<rect x="37" y="7" width="3" height="3" fill="hsl(0, 100%, 60%)" />
<rect x="40" y="7" width="3" height="3" fill="hsl(0, 100%, 60%)" />
<rect x="4" y="10" width="3" height="3" fill="hsl(0, 100%, 60%)" />
<rect x="10" y="10" width="3" height="3" fill="hsl(0, 100%, 60%)" />
<rect x="19" y="10" width="3" height="3" fill="hsl(0, 100%, 60%)" />
<rect x="22" y="10" width="3" height="3" fill="hsl(0, 100%, 60%)" />
<rect x="25" y="10" width="3" height="3" fill="hsl(0, 100%, 60%)" />
<rect x="37" y="13" width="3" height="3" fill="hsl(0, 100%, 60%)" />
<rect x="16" y="16" width="3" height="3" fill="hsl(0, 100%, 60%)" />
<rect x="19" y="16" width="3" height="3" fill="hsl(0, 100%, 60%)" />
<rect x="34" y="16" width="3" height="3" fill="hsl(0, 100%, 60%)" />
<rect x="40" y="16" width="3" height="3" fill="hsl(0, 100%, 60%)" />
<rect x="16" y="19" width="3" height="3" fill="hsl(0, 100%, 60%)" />
<rect x="34" y="19" width="3" height="3" fill="hsl(0, 100%, 60%)" />
<rect x="43" y="19" width="3" height="3" fill="hsl(0, 100%, 60%)" />
<rect x="58" y="19" width="3" height="3" fill="hsl(0, 100%, 60%)" />
<rect x="37" y="22" width="3" height="3" fill="hsl(0, 100%, 60%)" />
<rect x="40" y="22" width="3" height="3" fill="hsl(0, 100%, 60%)" />
<rect x="55" y="22" width="3" height="3" fill="hsl(0, 100%, 60%)" />
<rect x="58" y="22" width="3" height="3" fill="hsl(0, 100%, 60%)" />
<rect x="49" y="28" width="3" height="3" fill="hsl(0, 100%, 60%)" />
<rect x="52" y="28" width="3" height="3" fill="hsl(0, 100%, 60%)" />
<rect x="55" y="28" width="3" height="3" fill="hsl(0, 100%, 60%)" />
<rect x="64" y="28" width="3" height="3" fill="hsl(0, 100%, 60%)" />
<rect x="70" y="28" width="3" height="3" fill="hsl(0, 100%, 60%)" />
<rect x="34" y="31" width="3" height="3" fill="hsl(0, 100%, 60%)" />
<rect x="37" y="31" width="3" height="3" fill="hsl(0, 100%, 60%)" />
<rect x="55" y="31" width="3" height="3" fill="hsl(0, 100%, 60%)" />
<rect x="61" y="31" width="3" height="3" fill="hsl(0, 100%, 60%)" />
<rect x="64" y="31" width="3" height="3" fill="hsl(0, 100%, 60%)" />
<rect x="67" y="31" width="3" height="3" fill="hsl(0, 100%, 60%)" />
<rect x="70" y="31" width="3" height="3" fill="hsl(0, 100%, 60%)" />
<rect x="34" y="34" width="3" height="3" fill="hsl(0, 100%, 60%)" />
<rect x="37" y="34" width="3" height="3" fill="hsl(0, 100%, 60%)" />
<rect x="67" y="34" width="3" height="3" fill="hsl(0, 100%, 60%)" />
<rect x="70" y="34" width="3" height="3" fill="hsl(0, 100%, 60%)" />
</svg>