<?xml version="1.0" encoding="utf-8"?>
<svg xmlns="http://www.w3.org/2000/svg" width="88" height="72" viewBox="0 0 88 72">
<rect width="100%" height="100%" fill="transparent" />
<rect x="44" y="4" width="4" height="4" fill="hsl(0, 100%, 60%)" />
<rect x="52" y="4" width="4" height="4" fill="hsl(0, 100%, 60%)" />
<rect x="48" y="8" width="4" height="4" fill="hsl(0, 100%, 60%)" />
<rect x="52" y="8" width="4" height="4" fill="hsl(0, 100%, 60%)" />
<rect x="8" y="12" width="4" height="4" fill="hsl(0, 100%, 60%)" />
<rect x="48" y="12" width="4" height="4" fill="hsl(0, 100%, 60%)" />
<rect x="72" y="12" width="4" height="4" fill="hsl(0, 100%, 60%)" />
<rect x="12" y="16" width="4" height="4" fill="hsl(0, 100%, 60%)" />
<rect x="72" y="16" width="4" height="4" fill="hsl(0, 100%, 60%)" />
<rect x="80" y="16" width="4" height="4" fill="hsl(0, 100%, 60%)" />
<rect x="4" y="20" width="4" height="4" fill="hsl(0, 100%, 60%)" />
<rect x="8" y="20" width="4" height="4" fill="hsl(0, 100%, 60%)" />
<rect x="12" y="20" width="4" height="4" fill="hsl(0, 100%, 60%)" />
<rect x="72" y="20" width="4" height="4" fill="hsl(0, 100%, 60%)" />
<rect x="76" y="20" width="4" height="4" fill="hsl(0, 100%, 60%)" />
<rect x="72" y="36" width="4" height="4" fill="hsl(0, 100%, 60%)" />
<rect x="68" y="40" width="4" height="4" fill="hsl(0, 100%, 60%)" />
<rect x="72" y="40" width="4" height="4" fill="hsl(0, 100%, 60%)" />
<rect x="68" y="44" width="4" height="4" fill="hsl(0, 100%, 60%)" />
<rect x="76" y="44" width="4" height="4" fill="hsl(0, 100%, 60%)" />
<rect x="36" y="48" width="4" height="4" fill="hsl(0, 100%, 60%)" />
<rect x="40" y="48" width="4" height="4" fill="hsl(0, 100%, 60%)" />
<rect x="32" y="52" width="4" height="4" fill="hsl(0, 100%, 60%)" />
<rect x="40" y="52" width="4" height="4" fill="hsl(0, 100%, 60%)" />
<rect x="24" y="60" width="4" height="4" fill="hsl(0, 100%, 60%)" />
<rect x="32" y="60" width="4" height="4" fill="hsl(0, 100%, 60%)" />
<rect x="24" y="64" width="4" height="4" fill="hsl(0, 100%, 60%)" />
<rect x="28" y="64" width="4" height="4" fill="hsl(0, 100%, 60%)" />
</svg>