<?xml version="1.0" encoding="utf-8"?>
<svg xmlns="http://www.w3.org/2000/svg" width="55" height="13" viewBox="0 0 55 13">
<rect width="100%" height="100%" fill="transparent" />
<rect x="4" y="4" width="1" height="1" fill="hsl(0, 100%, 60%)" />
<rect x="5" y="4" width="1" height="1" fill="hsl(0, 100%, 60%)" />
<rect x="8" y="4" width="1" height="1" fill="hsl(0, 100%, 60%)" />
<rect x="9" y="4" width="1" height="1" fill="hsl(0, 100%, 60%)" />
<rect x="12" y="4" width="1" height="1" fill="hsl(0, 100%, 60%)" />
<rect x="13" y="4" width="1" height="1" fill="hsl(0, 100%, 60%)" />
<rect x="16" y="4" width="1" height="1" fill="hsl(0, 100%, 60%)" />
<rect x="17" y="4" width="1" height="1" fill="hsl(0, 100%, 60%)" />
<rect x="20" y="4" width="1" height="1" fill="hsl(0, 100%, 60%)" />
<rect x="21" y="4" width="1" height="1" fill="hsl(0, 100%, 60%)" />
<rect x="24" y="4" width="1" height="1" fill="hsl(0, 100%, 60%)" />
<rect x="25" y="4" width="1" height="1" fill="hsl(0, 100%, 60%)" />
<rect x="28" y="4" width="1" height="1" fill="hsl(0, 100%, 60%)" />
<rect x="29" y="4" width="1" height="1" fill="hsl(0, 100%, 60%)" />
<rect x="32" y="4" width="1" height="1" fill="hsl(0, 100%, 60%)" />
<rect x="33" y="4" width="1" height="1" fill="hsl(0, 100%, 60%)" />
<rect x="36" y="4" width="1" height="1" fill="hsl(0, 100%, 60%)" />
<rect x="37" y="4" width="1" height="1" fill="hsl(0, 100%, 60%)" />
<rect x="40" y="4" width="1" height="1" fill="hsl(0, 100%, 60%)" />
<rect x="41" y="4" width="1" height="1" fill="hsl(0, 100%, 60%)" />
<rect x="44" y="4" width="1" height="1" fill="hsl(0, 100%, 60%)" />
<rect x="45" y="4" width="1" height="1" fill="hsl(0, 100%, 60%)" />
<rect x="48" y="4" width="1" height="1" fill="hsl(0, 100%, 60%)" />
<rect x="49" y="4" width="1" height="1" fill="hsl(0, 100%, 60%)" />
<rect x="4" y="5" width="1" height="1" fill="hsl(0, 100%, 60%)" />
<rect x="5" y="5" width="1" height="1" fill="hsl(0, 100%, 60%)" />
<rect x="8" y="5" width="1" height="1" fill="hsl(0, 100%, 60%)" />
<rect x="9" y="5" width="1" height="1" fill="hsl(0, 100%, 60%)" />
<rect x="12" y="5" width="1" height="1" fill="hsl(0, 100%, 60%)" />
<rect x="13" y="5" width="1" height="1" fill="hsl(0, 100%, 60%)" />
<rect x="16" y="5" width="1" height="1" fill="hsl(0, 100%, 60%)" />
<rect x="17" y="5" width="1" height="1" fill="hsl(0, 100%, 60%)" />
<rect x="20" y="5" width="1" height="1" fill="hsl(0, 100%, 60%)" />
<rect x="21" y="5" width="1" height="1" fill="hsl(0, 100%, 60%)" />
<rect x="24" y="5" width="1" height="1" fill="hsl(0, 100%, 60%)" />
<rect x="25" y="5" width="1" height="1" fill="hsl(0, 100%, 60%)" />
<rect x="28" y="5" width="1" height="1" fill="hsl(0, 100%, 60%)" />
<rect x="29" y="5" width="1" height="1" fill="hsl(0, 100%, 60%)" />
<rect x="32" y="5" width="1" height="1" fill="hsl(0, 100%, 60%)" />
<rect x="33" y="5" width="1" height="1" fill="hsl(0, 100%, 60%)" />
<rect x="36" y="5" width="1" height="1" fill="hsl(0, 100%, 60%)" />
<rect x="37" y="5" width="1" height="1" fill="hsl(0, 100%, 60%)" />
<rect x="40" y="5" width="1" height="1" fill="hsl(0, 100%, 60%)" />
<rect x="41" y="5" width="1" height="1" fill="hsl(0, 100%, 60%)" />
<rect x="44" y="5" width="1" height="1" fill="hsl(0, 100%, 60%)" />
<rect x="45" y="5" width="1" height="1" fill="hsl(0, 100%, 60%)" />
<rect x="47" y="5" width="1" height="1" fill="hsl(0, 100%, 60%)" />
<rect x="50" y="5" width="1" height="1" fill="hsl(0, 100%, 60%)" />
<rect x="48" y="6" width="1" height="1" fill="hsl(0, 100%, 60%)" />
<rect x="49" y="6" width="1" height="1" fill="hsl(0, 100%, 60%)" />
<rect x="4" y="7" width="1" height="1" fill="hsl(0, 100%, 60%)" />
<rect x="5" y="7" width="1" height="1" fill="hsl(0, 100%, 60%)" />
<rect x="8" y="7" width="1" height="1" fill="hsl(0, 100%, 60%)" />
<rect x="9" y="7" width="1" height="1" fill="hsl(0, 100%, 60%)" />
<rect x="12" y="7" width="1" height="1" fill="hsl(0, 100%, 60%)" />
<rect x="13" y="7" width="1" height="1" fill="hsl(0, 100%, 60%)" />
<rect x="16" y="7" width="1" height="1" fill="hsl(0, 100%, 60%)" />
<rect x="17" y="7" width="1" height="1" fill="hsl(0, 100%, 60%)" />
<rect x="20" y="7" width="1" height="1" fill="hsl(0, 100%, 60%)" />
<rect x="21" y="7" width="1" height="1" fill="hsl(0, 100%, 60%)" />
<rect x="24" y="7" width="1" height="1" fill="hsl(0, 100%, 60%)" />
<rect x="25" y="7" width="1" height="1" fill="hsl(0, 100%, 60%)" />
<rect x="28" y="7" width="1" height="1" fill="hsl(0, 100%, 60%)" />
<rect x="29" y="7" width="1" height="1" fill="hsl(0, 100%, 60%)" />
<rect x="32" y="7" width="1" height="1" fill="hsl(0, 100%, 60%)" />
<rect x="33" y="7" width="1" height="1" fill="hsl(0, 100%, 60%)" />
<rect x="36" y="7" width="1" height="1" fill="hsl(0, 100%, 60%)" />
<rect x="37" y="7" width="1" height="1" fill="hsl(0, 100%, 60%)" />
<rect x="40" y="7" width="1" height="1" fill="hsl(0, 100%, 60%)" />
<rect x="41" y="7" width="1" height="1" fill="hsl(0, 100%, 60%)" />
<rect x="44" y="7" width="1" height="1" fill="hsl(0, 100%, 60%)" />
<rect x="45" y="7" width="1" height="1" fill="hsl(0, 100%, 60%)" />
<rect x="4" y="8" width="1" height="1" fill="hsl(0, 100%, 60%)" />
<rect x="5" y="8" width="1" height="1" fill="hsl(0, 100%, 60%)" />
<rect x="8" y="8" width="1" height="1" fill="hsl(0, 100%, 60%)" />
<rect x="9" y="8" width="1" height="1" fill="hsl(0, 100%, 60%)" />
<rect x="12" y="8" width="1" height="1" fill="hsl(0, 100%, 60%)" />
<rect x="13" y="8" width="1" height="1" fill="hsl(0, 100%, 60%)" />
<rect x="16" y="8" width="1" height="1" fill="hsl(0, 100%, 60%)" />
<rect x="17" y="8" width="1" height="1" fill="hsl(0, 100%, 60%)" />
<rect x="20" y="8" width="1" height="1" fill="hsl(0, 100%, 60%)" />
<rect x="21" y="8" width="1" height="1" fill="hsl(0, 100%, 60%)" />
<rect x="24" y="8" width="1" height="1" fill="hsl(0, 100%, 60%)" />
<rect x="25" y="8" width="1" height="1" fill="hsl(0, 100%, 60%)" />
<rect x="28" y="8" width="1" height="1" fill="hsl(0, 100%, 60%)" />
<rect x="29" y="8" width="1" height="1" fill="hsl(0, 100%, 60%)" />
<rect x="32" y="8" width="1" height="1" fill="hsl(0, 100%, 60%)" />
<rect x="33" y="8" width="1" height="1" fill="hsl(0, 100%, 60%)" />
<rect x="36" y="8" width="1" height="1" fill="hsl(0, 100%, 60%)" />
<rect x="37" y="8" width="1" height="1" fill="hsl(0, 100%, 60%)" />
<rect x="40" y="8" width="1" height="1" fill="hsl(0, 100%, 60%)" />
<rect x="41" y="8" width="1" height="1" fill="hsl(0, 100%, 60%)" />
<rect x="44" y="8" width="1" height="1" fill="hsl(0, 100%, 60%)" />
<rect x="45" y="8" width="1" height="1" fill="hsl(0, 100%, 60%)" />
</svg>