<?xml version="1.0" encoding="utf-8"?>
<svg xmlns="http://www.w3.org/2000/svg" width="65" height="56" viewBox="0 0 65 56">
<rect width="100%" height="100%" fill="transparent" />
<rect x="36" y="4" width="1" height="1" fill="hsl(0, 100%, 60%)" />
<rect x="36" y="5" width="1" height="1" fill="hsl(0, 100%, 60%)" />
<rect x="37" y="5" width="1" height="1" fill="hsl(0, 100%, 60%)" />
<rect x="38" y="5" width="1" height="1" fill="hsl(0, 100%, 60%)" />
<rect x="39" y="6" width="1" height="1" fill="hsl(0, 100%, 60%)" />
<rect x="38" y="7" width="1" height="1" fill="hsl(0, 100%, 60%)" />
<rect x="39" y="7" width="1" height="1" fill="hsl(0, 100%, 60%)" />
<rect x="5" y="8" width="1" height="1" fill="hsl(0, 100%, 60%)" />
<rect x="6" y="9" width="1" height="1" fill="hsl(0, 100%, 60%)" />
<rect x="31" y="9" width="1" height="1" fill="hsl(0, 100%, 60%)" />
<rect x="32" y="9" width="1" height="1" fill="hsl(0, 100%, 60%)" />
<rect x="50" y="9" width="1" height="1" fill="hsl(0, 100%, 60%)" />
<rect x="51" y="9" width="1" height="1" fill="hsl(0, 100%, 60%)" />
<rect x="4" y="10" width="1" height="1" fill="hsl(0, 100%, 60%)" />
<rect x="5" y="10" width="1" height="1" fill="hsl(0, 100%, 60%)" />
<rect x="6" y="10" width="1" height="1" fill="hsl(0, 100%, 60%)" />
<rect x="32" y="10" width="1" height="1" fill="hsl(0, 100%, 60%)" />
<rect x="50" y="10" width="1" height="1" fill="hsl(0, 100%, 60%)" />
<rect x="32" y="11" width="1" height="1" fill="hsl(0, 100%, 60%)" />
<rect x="34" y="11" width="1" height="1" fill="hsl(0, 100%, 60%)" />
<rect x="48" y="11" width="1" height="1" fill="hsl(0, 100%, 60%)" />
<rect x="50" y="11" width="1" height="1" fill="hsl(0, 100%, 60%)" />
<rect x="33" y="12" width="1" height="1" fill="hsl(0, 100%, 60%)" />
<rect x="34" y="12" width="1" height="1" fill="hsl(0, 100%, 60%)" />
<rect x="48" y="12" width="1" height="1" fill="hsl(0, 100%, 60%)" />
<rect x="49" y="12" width="1" height="1" fill="hsl(0, 100%, 60%)" />
<rect x="41" y="17" width="1" height="1" fill="hsl(0, 100%, 60%)" />
<rect x="40" y="18" width="1" height="1" fill="hsl(0, 100%, 60%)" />
<rect x="42" y="18" width="1" height="1" fill="hsl(0, 100%, 60%)" />
<rect x="40" y="19" width="1" height="1" fill="hsl(0, 100%, 60%)" />
<rect x="42" y="19" width="1" height="1" fill="hsl(0, 100%, 60%)" />
<rect x="41" y="20" width="1" height="1" fill="hsl(0, 100%, 60%)" />
<rect x="47" y="32" width="1" height="1" fill="hsl(0, 100%, 60%)" />
<rect x="59" y="32" width="1" height="1" fill="hsl(0, 100%, 60%)" />
<rect x="60" y="32" width="1" height="1" fill="hsl(0, 100%, 60%)" />
<rect x="48" y="33" width="1" height="1" fill="hsl(0, 100%, 60%)" />
<rect x="59" y="33" width="1" height="1" fill="hsl(0, 100%, 60%)" />
<rect x="60" y="33" width="1" height="1" fill="hsl(0, 100%, 60%)" />
<rect x="46" y="34" width="1" height="1" fill="hsl(0, 100%, 60%)" />
<rect x="47" y="34" width="1" height="1" fill="hsl(0, 100%, 60%)" />
<rect x="48" y="34" width="1" height="1" fill="hsl(0, 100%, 60%)" />
<rect x="47" y="37" width="1" height="1" fill="hsl(0, 100%, 60%)" />
<rect x="46" y="38" width="1" height="1" fill="hsl(0, 100%, 60%)" />
<rect x="48" y="38" width="1" height="1" fill="hsl(0, 100%, 60%)" />
<rect x="47" y="39" width="1" height="1" fill="hsl(0, 100%, 60%)" />
<rect x="48" y="39" width="1" height="1" fill="hsl(0, 100%, 60%)" />
<rect x="35" y="48" width="1" height="1" fill="hsl(0, 100%, 60%)" />
<rect x="36" y="48" width="1" height="1" fill="hsl(0, 100%, 60%)" />
<rect x="34" y="49" width="1" height="1" fill="hsl(0, 100%, 60%)" />
<rect x="36" y="49" width="1" height="1" fill="hsl(0, 100%, 60%)" />
<rect x="34" y="50" width="1" height="1" fill="hsl(0, 100%, 60%)" />
<rect x="33" y="51" width="1" height="1" fill="hsl(0, 100%, 60%)" />
<rect x="34" y="51" width="1" height="1" fill="hsl(0, 100%, 60%)" />
</svg>