<?xml version="1.0" encoding="utf-8"?>
<svg xmlns="http://www.w3.org/2000/svg" width="62" height="15" viewBox="0 0 62 15">
<rect width="100%" height="100%" fill="transparent" />
<rect x="56" y="4" width="1" height="1" fill="hsl(0, 100%, 60%)" />
<rect x="49" y="5" width="1" height="1" fill="hsl(0, 100%, 60%)" />
<rect x="50" y="5" width="1" height="1" fill="hsl(0, 100%, 60%)" />
<rect x="52" y="5" width="1" height="1" fill="hsl(0, 100%, 60%)" />
<rect x="55" y="5" width="1" height="1" fill="hsl(0, 100%, 60%)" />
<rect x="57" y="5" width="1" height="1" fill="hsl(0, 100%, 60%)" />
<rect x="48" y="6" width="1" height="1" fill="hsl(0, 100%, 60%)" />
<rect x="50" y="6" width="1" height="1" fill="hsl(0, 100%, 60%)" />
<rect x="52" y="6" width="1" height="1" fill="hsl(0, 100%, 60%)" />
<rect x="53" y="6" width="1" height="1" fill="hsl(0, 100%, 60%)" />
<rect x="54" y="6" width="1" height="1" fill="hsl(0, 100%, 60%)" />
<rect x="55" y="6" width="1" height="1" fill="hsl(0, 100%, 60%)" />
<rect x="57" y="6" width="1" height="1" fill="hsl(0, 100%, 60%)" />
<rect x="4" y="7" width="1" height="1" fill="hsl(0, 100%, 60%)" />
<rect x="5" y="7" width="1" height="1" fill="hsl(0, 100%, 60%)" />
<rect x="6" y="7" width="1" height="1" fill="hsl(0, 100%, 60%)" />
<rect x="8" y="7" width="1" height="1" fill="hsl(0, 100%, 60%)" />
<rect x="9" y="7" width="1" height="1" fill="hsl(0, 100%, 60%)" />
<rect x="10" y="7" width="1" height="1" fill="hsl(0, 100%, 60%)" />
<rect x="12" y="7" width="1" height="1" fill="hsl(0, 100%, 60%)" />
<rect x="13" y="7" width="1" height="1" fill="hsl(0, 100%, 60%)" />
<rect x="14" y="7" width="1" height="1" fill="hsl(0, 100%, 60%)" />
<rect x="16" y="7" width="1" height="1" fill="hsl(0, 100%, 60%)" />
<rect x="17" y="7" width="1" height="1" fill="hsl(0, 100%, 60%)" />
<rect x="18" y="7" width="1" height="1" fill="hsl(0, 100%, 60%)" />
<rect x="20" y="7" width="1" height="1" fill="hsl(0, 100%, 60%)" />
<rect x="21" y="7" width="1" height="1" fill="hsl(0, 100%, 60%)" />
<rect x="22" y="7" width="1" height="1" fill="hsl(0, 100%, 60%)" />
<rect x="24" y="7" width="1" height="1" fill="hsl(0, 100%, 60%)" />
<rect x="25" y="7" width="1" height="1" fill="hsl(0, 100%, 60%)" />
<rect x="26" y="7" width="1" height="1" fill="hsl(0, 100%, 60%)" />
<rect x="28" y="7" width="1" height="1" fill="hsl(0, 100%, 60%)" />
<rect x="29" y="7" width="1" height="1" fill="hsl(0, 100%, 60%)" />
<rect x="30" y="7" width="1" height="1" fill="hsl(0, 100%, 60%)" />
<rect x="32" y="7" width="1" height="1" fill="hsl(0, 100%, 60%)" />
<rect x="33" y="7" width="1" height="1" fill="hsl(0, 100%, 60%)" />
<rect x="34" y="7" width="1" height="1" fill="hsl(0, 100%, 60%)" />
<rect x="36" y="7" width="1" height="1" fill="hsl(0, 100%, 60%)" />
<rect x="37" y="7" width="1" height="1" fill="hsl(0, 100%, 60%)" />
<rect x="38" y="7" width="1" height="1" fill="hsl(0, 100%, 60%)" />
<rect x="40" y="7" width="1" height="1" fill="hsl(0, 100%, 60%)" />
<rect x="41" y="7" width="1" height="1" fill="hsl(0, 100%, 60%)" />
<rect x="42" y="7" width="1" height="1" fill="hsl(0, 100%, 60%)" />
<rect x="44" y="7" width="1" height="1" fill="hsl(0, 100%, 60%)" />
<rect x="45" y="7" width="1" height="1" fill="hsl(0, 100%, 60%)" />
<rect x="46" y="7" width="1" height="1" fill="hsl(0, 100%, 60%)" />
<rect x="48" y="7" width="1" height="1" fill="hsl(0, 100%, 60%)" />
<rect x="48" y="8" width="1" height="1" fill="hsl(0, 100%, 60%)" />
<rect x="50" y="8" width="1" height="1" fill="hsl(0, 100%, 60%)" />
<rect x="52" y="8" width="1" height="1" fill="hsl(0, 100%, 60%)" />
<rect x="53" y="8" width="1" height="1" fill="hsl(0, 100%, 60%)" />
<rect x="54" y="8" width="1" height="1" fill="hsl(0, 100%, 60%)" />
<rect x="55" y="8" width="1" height="1" fill="hsl(0, 100%, 60%)" />
<rect x="57" y="8" width="1" height="1" fill="hsl(0, 100%, 60%)" />
<rect x="49" y="9" width="1" height="1" fill="hsl(0, 100%, 60%)" />
<rect x="50" y="9" width="1" height="1" fill="hsl(0, 100%, 60%)" />
<rect x="52" y="9" width="1" height="1" fill="hsl(0, 100%, 60%)" />
<rect x="55" y="9" width="1" height="1" fill="hsl(0, 100%, 60%)" />
<rect x="57" y="9" width="1" height="1" fill="hsl(0, 100%, 60%)" />
<rect x="56" y="10" width="1" height="1" fill="hsl(0, 100%, 60%)" />
</svg>