<?xml version="1.0" encoding="utf-8"?>
<svg xmlns="http://www.w3.org/2000/svg" width="77" height="38" viewBox="0 0 77 38">
<rect width="100%" height="100%" fill="transparent" />
<rect x="4" y="4" width="3" height="3" fill="hsl(0, 100%, 60%)" />
<rect x="7" y="4" width="3" height="3" fill="hsl(0, 100%, 60%)" />
<rect x="4" y="7" width="3" height="3" fill="hsl(0, 100%, 60%)" />
<rect x="7" y="7" width="3" height="3" fill="hsl(0, 100%, 60%)" />
<rect x="7" y="16" width="3" height="3" fill="hsl(0, 100%, 60%)" />
<rect x="10" y="16" width="3" height="3" fill="hsl(0, 100%, 60%)" />
<rect x="64" y="16" width="3" height="3" fill="hsl(0, 100%, 60%)" />
<rect x="67" y="16" width="3" height="3" fill="hsl(0, 100%, 60%)" />
<rect x="7" y="19" width="3" height="3" fill="hsl(0, 100%, 60%)" />
<rect x="10" y="19" width="3" height="3" fill="hsl(0, 100%, 60%)" />
<rect x="64" y="19" width="3" height="3" fill="hsl(0, 100%, 60%)" />
<rect x="67" y="19" width="3" height="3" fill="hsl(0, 100%, 60%)" />
<rect x="67" y="28" width="3" height="3" fill="hsl(0, 100%, 60%)" />
<rect x="70" y="28" width="3" height="3" fill="hsl(0, 100%, 60%)" />
<rect x="67" y="31" width="3" height="3" fill="hsl(0, 100%, 60%)" />
<rect x="70" y="31" width="3" height="3" fill="hsl(0, 100%, 60%)" />
</svg>