<?xml version="1.0" encoding="utf-8"?>
<svg xmlns="http://www.w3.org/2000/svg" width="70" height="60" viewBox="0 0 70 60">
<rect width="100%" height="100%" fill="transparent" />
<rect x="25" y="4" width="1" height="1" fill="hsl(0, 100%, 60%)" />
<rect x="43" y="4" width="1" height="1" fill="hsl(0, 100%, 60%)" />
<rect x="24" y="5" width="1" height="1" fill="hsl(0, 100%, 60%)" />
<rect x="25" y="5" width="1" height="1" fill="hsl(0, 100%, 60%)" />
<rect x="26" y="5" width="1" height="1" fill="hsl(0, 100%, 60%)" />
<rect x="42" y="5" width="1" height="1" fill="hsl(0, 100%, 60%)" />
<rect x="43" y="5" width="1" height="1" fill="hsl(0, 100%, 60%)" />
<rect x="44" y="5" width="1" height="1" fill="hsl(0, 100%, 60%)" />
<rect x="22" y="6" width="1" height="1" fill="hsl(0, 100%, 60%)" />
<rect x="23" y="6" width="1" height="1" fill="hsl(0, 100%, 60%)" />
<rect x="25" y="6" width="1" height="1" fill="hsl(0, 100%, 60%)" />
<rect x="26" y="6" width="1" height="1" fill="hsl(0, 100%, 60%)" />
<rect x="27" y="6" width="1" height="1" fill="hsl(0, 100%, 60%)" />
<rect x="41" y="6" width="1" height="1" fill="hsl(0, 100%, 60%)" />
<rect x="42" y="6" width="1" height="1" fill="hsl(0, 100%, 60%)" />
<rect x="43" y="6" width="1" height="1" fill="hsl(0, 100%, 60%)" />
<rect x="45" y="6" width="1" height="1" fill="hsl(0, 100%, 60%)" />
<rect x="46" y="6" width="1" height="1" fill="hsl(0, 100%, 60%)" />
<rect x="23" y="7" width="1" height="1" fill="hsl(0, 100%, 60%)" />
<rect x="26" y="7" width="1" height="1" fill="hsl(0, 100%, 60%)" />
<rect x="28" y="7" width="1" height="1" fill="hsl(0, 100%, 60%)" />
<rect x="29" y="7" width="1" height="1" fill="hsl(0, 100%, 60%)" />
<rect x="34" y="7" width="1" height="1" fill="hsl(0, 100%, 60%)" />
<rect x="39" y="7" width="1" height="1" fill="hsl(0, 100%, 60%)" />
<rect x="40" y="7" width="1" height="1" fill="hsl(0, 100%, 60%)" />
<rect x="42" y="7" width="1" height="1" fill="hsl(0, 100%, 60%)" />
<rect x="45" y="7" width="1" height="1" fill="hsl(0, 100%, 60%)" />
<rect x="20" y="8" width="1" height="1" fill="hsl(0, 100%, 60%)" />
<rect x="21" y="8" width="1" height="1" fill="hsl(0, 100%, 60%)" />
<rect x="23" y="8" width="1" height="1" fill="hsl(0, 100%, 60%)" />
<rect x="28" y="8" width="1" height="1" fill="hsl(0, 100%, 60%)" />
<rect x="30" y="8" width="1" height="1" fill="hsl(0, 100%, 60%)" />
<rect x="32" y="8" width="1" height="1" fill="hsl(0, 100%, 60%)" />
<rect x="33" y="8" width="1" height="1" fill="hsl(0, 100%, 60%)" />
<rect x="35" y="8" width="1" height="1" fill="hsl(0, 100%, 60%)" />
<rect x="36" y="8" width="1" height="1" fill="hsl(0, 100%, 60%)" />
<rect x="38" y="8" width="1" height="1" fill="hsl(0, 100%, 60%)" />
<rect x="40" y="8" width="1" height="1" fill="hsl(0, 100%, 60%)" />
<rect x="45" y="8" width="1" height="1" fill="hsl(0, 100%, 60%)" />
<rect x="47" y="8" width="1" height="1" fill="hsl(0, 100%, 60%)" />
<rect x="48" y="8" width="1" height="1" fill="hsl(0, 100%, 60%)" />
<rect x="20" y="9" width="1" height="1" fill="hsl(0, 100%, 60%)" />
<rect x="21" y="9" width="1" height="1" fill="hsl(0, 100%, 60%)" />
<rect x="23" y="9" width="1" height="1" fill="hsl(0, 100%, 60%)" />
<rect x="25" y="9" width="1" height="1" fill="hsl(0, 100%, 60%)" />
<rect x="28" y="9" width="1" height="1" fill="hsl(0, 100%, 60%)" />
<rect x="30" y="9" width="1" height="1" fill="hsl(0, 100%, 60%)" />
<rect x="38" y="9" width="1" height="1" fill="hsl(0, 100%, 60%)" />
<rect x="40" y="9" width="1" height="1" fill="hsl(0, 100%, 60%)" />
<rect x="43" y="9" width="1" height="1" fill="hsl(0, 100%, 60%)" />
<rect x="45" y="9" width="1" height="1" fill="hsl(0, 100%, 60%)" />
<rect x="47" y="9" width="1" height="1" fill="hsl(0, 100%, 60%)" />
<rect x="48" y="9" width="1" height="1" fill="hsl(0, 100%, 60%)" />
<rect x="20" y="10" width="1" height="1" fill="hsl(0, 100%, 60%)" />
<rect x="29" y="10" width="1" height="1" fill="hsl(0, 100%, 60%)" />
<rect x="30" y="10" width="1" height="1" fill="hsl(0, 100%, 60%)" />
<rect x="31" y="10" width="1" height="1" fill="hsl(0, 100%, 60%)" />
<rect x="33" y="10" width="1" height="1" fill="hsl(0, 100%, 60%)" />
<rect x="35" y="10" width="1" height="1" fill="hsl(0, 100%, 60%)" />
<rect x="37" y="10" width="1" height="1" fill="hsl(0, 100%, 60%)" />
<rect x="38" y="10" width="1" height="1" fill="hsl(0, 100%, 60%)" />
<rect x="39" y="10" width="1" height="1" fill="hsl(0, 100%, 60%)" />
<rect x="48" y="10" width="1" height="1" fill="hsl(0, 100%, 60%)" />
<rect x="53" y="10" width="1" height="1" fill="hsl(0, 100%, 60%)" />
<rect x="54" y="10" width="1" height="1" fill="hsl(0, 100%, 60%)" />
<rect x="55" y="10" width="1" height="1" fill="hsl(0, 100%, 60%)" />
<rect x="19" y="11" width="1" height="1" fill="hsl(0, 100%, 60%)" />
<rect x="20" y="11" width="1" height="1" fill="hsl(0, 100%, 60%)" />
<rect x="28" y="11" width="1" height="1" fill="hsl(0, 100%, 60%)" />
<rect x="29" y="11" width="1" height="1" fill="hsl(0, 100%, 60%)" />
<rect x="39" y="11" width="1" height="1" fill="hsl(0, 100%, 60%)" />
<rect x="40" y="11" width="1" height="1" fill="hsl(0, 100%, 60%)" />
<rect x="48" y="11" width="1" height="1" fill="hsl(0, 100%, 60%)" />
<rect x="49" y="11" width="1" height="1" fill="hsl(0, 100%, 60%)" />
<rect x="52" y="11" width="1" height="1" fill="hsl(0, 100%, 60%)" />
<rect x="56" y="11" width="1" height="1" fill="hsl(0, 100%, 60%)" />
<rect x="19" y="12" width="1" height="1" fill="hsl(0, 100%, 60%)" />
<rect x="51" y="12" width="1" height="1" fill="hsl(0, 100%, 60%)" />
<rect x="56" y="12" width="1" height="1" fill="hsl(0, 100%, 60%)" />
<rect x="57" y="12" width="1" height="1" fill="hsl(0, 100%, 60%)" />
<rect x="12" y="13" width="1" height="1" fill="hsl(0, 100%, 60%)" />
<rect x="13" y="13" width="1" height="1" fill="hsl(0, 100%, 60%)" />
<rect x="14" y="13" width="1" height="1" fill="hsl(0, 100%, 60%)" />
<rect x="19" y="13" width="1" height="1" fill="hsl(0, 100%, 60%)" />
<rect x="20" y="13" width="1" height="1" fill="hsl(0, 100%, 60%)" />
<rect x="21" y="13" width="1" height="1" fill="hsl(0, 100%, 60%)" />
<rect x="22" y="13" width="1" height="1" fill="hsl(0, 100%, 60%)" />
<rect x="48" y="13" width="1" height="1" fill="hsl(0, 100%, 60%)" />
<rect x="49" y="13" width="1" height="1" fill="hsl(0, 100%, 60%)" />
<rect x="50" y="13" width="1" height="1" fill="hsl(0, 100%, 60%)" />
<rect x="51" y="13" width="1" height="1" fill="hsl(0, 100%, 60%)" />
<rect x="54" y="13" width="1" height="1" fill="hsl(0, 100%, 60%)" />
<rect x="55" y="13" width="1" height="1" fill="hsl(0, 100%, 60%)" />
<rect x="57" y="13" width="1" height="1" fill="hsl(0, 100%, 60%)" />
<rect x="11" y="14" width="1" height="1" fill="hsl(0, 100%, 60%)" />
<rect x="15" y="14" width="1" height="1" fill="hsl(0, 100%, 60%)" />
<rect x="18" y="14" width="1" height="1" fill="hsl(0, 100%, 60%)" />
<rect x="19" y="14" width="1" height="1" fill="hsl(0, 100%, 60%)" />
<rect x="22" y="14" width="1" height="1" fill="hsl(0, 100%, 60%)" />
<rect x="23" y="14" width="1" height="1" fill="hsl(0, 100%, 60%)" />
<rect x="50" y="14" width="1" height="1" fill="hsl(0, 100%, 60%)" />
<rect x="52" y="14" width="1" height="1" fill="hsl(0, 100%, 60%)" />
<rect x="57" y="14" width="1" height="1" fill="hsl(0, 100%, 60%)" />
<rect x="58" y="14" width="1" height="1" fill="hsl(0, 100%, 60%)" />
<rect x="10" y="15" width="1" height="1" fill="hsl(0, 100%, 60%)" />
<rect x="11" y="15" width="1" height="1" fill="hsl(0, 100%, 60%)" />
<rect x="16" y="15" width="1" height="1" fill="hsl(0, 100%, 60%)" />
<rect x="23" y="15" width="1" height="1" fill="hsl(0, 100%, 60%)" />
<rect x="28" y="15" width="1" height="1" fill="hsl(0, 100%, 60%)" />
<rect x="29" y="15" width="1" height="1" fill="hsl(0, 100%, 60%)" />
<rect x="30" y="15" width="1" height="1" fill="hsl(0, 100%, 60%)" />
<rect x="56" y="15" width="1" height="1" fill="hsl(0, 100%, 60%)" />
<rect x="10" y="16" width="1" height="1" fill="hsl(0, 100%, 60%)" />
<rect x="12" y="16" width="1" height="1" fill="hsl(0, 100%, 60%)" />
<rect x="13" y="16" width="1" height="1" fill="hsl(0, 100%, 60%)" />
<rect x="16" y="16" width="1" height="1" fill="hsl(0, 100%, 60%)" />
<rect x="17" y="16" width="1" height="1" fill="hsl(0, 100%, 60%)" />
<rect x="18" y="16" width="1" height="1" fill="hsl(0, 100%, 60%)" />
<rect x="19" y="16" width="1" height="1" fill="hsl(0, 100%, 60%)" />
<rect x="23" y="16" width="1" height="1" fill="hsl(0, 100%, 60%)" />
<rect x="24" y="16" width="1" height="1" fill="hsl(0, 100%, 60%)" />
<rect x="27" y="16" width="1" height="1" fill="hsl(0, 100%, 60%)" />
<rect x="31" y="16" width="1" height="1" fill="hsl(0, 100%, 60%)" />
<rect x="58" y="16" width="1" height="1" fill="hsl(0, 100%, 60%)" />
<rect x="59" y="16" width="1" height="1" fill="hsl(0, 100%, 60%)" />
<rect x="60" y="16" width="1" height="1" fill="hsl(0, 100%, 60%)" />
<rect x="9" y="17" width="1" height="1" fill="hsl(0, 100%, 60%)" />
<rect x="10" y="17" width="1" height="1" fill="hsl(0, 100%, 60%)" />
<rect x="15" y="17" width="1" height="1" fill="hsl(0, 100%, 60%)" />
<rect x="17" y="17" width="1" height="1" fill="hsl(0, 100%, 60%)" />
<rect x="26" y="17" width="1" height="1" fill="hsl(0, 100%, 60%)" />
<rect x="31" y="17" width="1" height="1" fill="hsl(0, 100%, 60%)" />
<rect x="32" y="17" width="1" height="1" fill="hsl(0, 100%, 60%)" />
<rect x="60" y="17" width="1" height="1" fill="hsl(0, 100%, 60%)" />
<rect x="61" y="17" width="1" height="1" fill="hsl(0, 100%, 60%)" />
<rect x="11" y="18" width="1" height="1" fill="hsl(0, 100%, 60%)" />
<rect x="23" y="18" width="1" height="1" fill="hsl(0, 100%, 60%)" />
<rect x="24" y="18" width="1" height="1" fill="hsl(0, 100%, 60%)" />
<rect x="25" y="18" width="1" height="1" fill="hsl(0, 100%, 60%)" />
<rect x="26" y="18" width="1" height="1" fill="hsl(0, 100%, 60%)" />
<rect x="29" y="18" width="1" height="1" fill="hsl(0, 100%, 60%)" />
<rect x="30" y="18" width="1" height="1" fill="hsl(0, 100%, 60%)" />
<rect x="32" y="18" width="1" height="1" fill="hsl(0, 100%, 60%)" />
<rect x="61" y="18" width="1" height="1" fill="hsl(0, 100%, 60%)" />
<rect x="7" y="19" width="1" height="1" fill="hsl(0, 100%, 60%)" />
<rect x="8" y="19" width="1" height="1" fill="hsl(0, 100%, 60%)" />
<rect x="9" y="19" width="1" height="1" fill="hsl(0, 100%, 60%)" />
<rect x="25" y="19" width="1" height="1" fill="hsl(0, 100%, 60%)" />
<rect x="27" y="19" width="1" height="1" fill="hsl(0, 100%, 60%)" />
<rect x="32" y="19" width="1" height="1" fill="hsl(0, 100%, 60%)" />
<rect x="33" y="19" width="1" height="1" fill="hsl(0, 100%, 60%)" />
<rect x="61" y="19" width="1" height="1" fill="hsl(0, 100%, 60%)" />
<rect x="62" y="19" width="1" height="1" fill="hsl(0, 100%, 60%)" />
<rect x="6" y="20" width="1" height="1" fill="hsl(0, 100%, 60%)" />
<rect x="7" y="20" width="1" height="1" fill="hsl(0, 100%, 60%)" />
<rect x="31" y="20" width="1" height="1" fill="hsl(0, 100%, 60%)" />
<rect x="6" y="21" width="1" height="1" fill="hsl(0, 100%, 60%)" />
<rect x="33" y="21" width="1" height="1" fill="hsl(0, 100%, 60%)" />
<rect x="34" y="21" width="1" height="1" fill="hsl(0, 100%, 60%)" />
<rect x="35" y="21" width="1" height="1" fill="hsl(0, 100%, 60%)" />
<rect x="5" y="22" width="1" height="1" fill="hsl(0, 100%, 60%)" />
<rect x="6" y="22" width="1" height="1" fill="hsl(0, 100%, 60%)" />
<rect x="35" y="22" width="1" height="1" fill="hsl(0, 100%, 60%)" />
<rect x="36" y="22" width="1" height="1" fill="hsl(0, 100%, 60%)" />
<rect x="5" y="23" width="1" height="1" fill="hsl(0, 100%, 60%)" />
<rect x="36" y="23" width="1" height="1" fill="hsl(0, 100%, 60%)" />
<rect x="41" y="23" width="1" height="1" fill="hsl(0, 100%, 60%)" />
<rect x="42" y="23" width="1" height="1" fill="hsl(0, 100%, 60%)" />
<rect x="43" y="23" width="1" height="1" fill="hsl(0, 100%, 60%)" />
<rect x="5" y="24" width="1" height="1" fill="hsl(0, 100%, 60%)" />
<rect x="6" y="24" width="1" height="1" fill="hsl(0, 100%, 60%)" />
<rect x="7" y="24" width="1" height="1" fill="hsl(0, 100%, 60%)" />
<rect x="8" y="24" width="1" height="1" fill="hsl(0, 100%, 60%)" />
<rect x="36" y="24" width="1" height="1" fill="hsl(0, 100%, 60%)" />
<rect x="37" y="24" width="1" height="1" fill="hsl(0, 100%, 60%)" />
<rect x="40" y="24" width="1" height="1" fill="hsl(0, 100%, 60%)" />
<rect x="44" y="24" width="1" height="1" fill="hsl(0, 100%, 60%)" />
<rect x="4" y="25" width="1" height="1" fill="hsl(0, 100%, 60%)" />
<rect x="5" y="25" width="1" height="1" fill="hsl(0, 100%, 60%)" />
<rect x="8" y="25" width="1" height="1" fill="hsl(0, 100%, 60%)" />
<rect x="9" y="25" width="1" height="1" fill="hsl(0, 100%, 60%)" />
<rect x="39" y="25" width="1" height="1" fill="hsl(0, 100%, 60%)" />
<rect x="44" y="25" width="1" height="1" fill="hsl(0, 100%, 60%)" />
<rect x="45" y="25" width="1" height="1" fill="hsl(0, 100%, 60%)" />
<rect x="9" y="26" width="1" height="1" fill="hsl(0, 100%, 60%)" />
<rect x="14" y="26" width="1" height="1" fill="hsl(0, 100%, 60%)" />
<rect x="15" y="26" width="1" height="1" fill="hsl(0, 100%, 60%)" />
<rect x="16" y="26" width="1" height="1" fill="hsl(0, 100%, 60%)" />
<rect x="36" y="26" width="1" height="1" fill="hsl(0, 100%, 60%)" />
<rect x="37" y="26" width="1" height="1" fill="hsl(0, 100%, 60%)" />
<rect x="38" y="26" width="1" height="1" fill="hsl(0, 100%, 60%)" />
<rect x="39" y="26" width="1" height="1" fill="hsl(0, 100%, 60%)" />
<rect x="42" y="26" width="1" height="1" fill="hsl(0, 100%, 60%)" />
<rect x="43" y="26" width="1" height="1" fill="hsl(0, 100%, 60%)" />
<rect x="45" y="26" width="1" height="1" fill="hsl(0, 100%, 60%)" />
<rect x="9" y="27" width="1" height="1" fill="hsl(0, 100%, 60%)" />
<rect x="10" y="27" width="1" height="1" fill="hsl(0, 100%, 60%)" />
<rect x="13" y="27" width="1" height="1" fill="hsl(0, 100%, 60%)" />
<rect x="17" y="27" width="1" height="1" fill="hsl(0, 100%, 60%)" />
<rect x="38" y="27" width="1" height="1" fill="hsl(0, 100%, 60%)" />
<rect x="40" y="27" width="1" height="1" fill="hsl(0, 100%, 60%)" />
<rect x="45" y="27" width="1" height="1" fill="hsl(0, 100%, 60%)" />
<rect x="46" y="27" width="1" height="1" fill="hsl(0, 100%, 60%)" />
<rect x="12" y="28" width="1" height="1" fill="hsl(0, 100%, 60%)" />
<rect x="17" y="28" width="1" height="1" fill="hsl(0, 100%, 60%)" />
<rect x="18" y="28" width="1" height="1" fill="hsl(0, 100%, 60%)" />
<rect x="44" y="28" width="1" height="1" fill="hsl(0, 100%, 60%)" />
<rect x="9" y="29" width="1" height="1" fill="hsl(0, 100%, 60%)" />
<rect x="10" y="29" width="1" height="1" fill="hsl(0, 100%, 60%)" />
<rect x="11" y="29" width="1" height="1" fill="hsl(0, 100%, 60%)" />
<rect x="12" y="29" width="1" height="1" fill="hsl(0, 100%, 60%)" />
<rect x="15" y="29" width="1" height="1" fill="hsl(0, 100%, 60%)" />
<rect x="16" y="29" width="1" height="1" fill="hsl(0, 100%, 60%)" />
<rect x="18" y="29" width="1" height="1" fill="hsl(0, 100%, 60%)" />
<rect x="46" y="29" width="1" height="1" fill="hsl(0, 100%, 60%)" />
<rect x="47" y="29" width="1" height="1" fill="hsl(0, 100%, 60%)" />
<rect x="48" y="29" width="1" height="1" fill="hsl(0, 100%, 60%)" />
<rect x="11" y="30" width="1" height="1" fill="hsl(0, 100%, 60%)" />
<rect x="13" y="30" width="1" height="1" fill="hsl(0, 100%, 60%)" />
<rect x="18" y="30" width="1" height="1" fill="hsl(0, 100%, 60%)" />
<rect x="19" y="30" width="1" height="1" fill="hsl(0, 100%, 60%)" />
<rect x="48" y="30" width="1" height="1" fill="hsl(0, 100%, 60%)" />
<rect x="49" y="30" width="1" height="1" fill="hsl(0, 100%, 60%)" />
<rect x="17" y="31" width="1" height="1" fill="hsl(0, 100%, 60%)" />
<rect x="49" y="31" width="1" height="1" fill="hsl(0, 100%, 60%)" />
<rect x="19" y="32" width="1" height="1" fill="hsl(0, 100%, 60%)" />
<rect x="20" y="32" width="1" height="1" fill="hsl(0, 100%, 60%)" />
<rect x="21" y="32" width="1" height="1" fill="hsl(0, 100%, 60%)" />
<rect x="49" y="32" width="1" height="1" fill="hsl(0, 100%, 60%)" />
<rect x="50" y="32" width="1" height="1" fill="hsl(0, 100%, 60%)" />
<rect x="21" y="33" width="1" height="1" fill="hsl(0, 100%, 60%)" />
<rect x="22" y="33" width="1" height="1" fill="hsl(0, 100%, 60%)" />
<rect x="50" y="33" width="1" height="1" fill="hsl(0, 100%, 60%)" />
<rect x="22" y="34" width="1" height="1" fill="hsl(0, 100%, 60%)" />
<rect x="47" y="34" width="1" height="1" fill="hsl(0, 100%, 60%)" />
<rect x="48" y="34" width="1" height="1" fill="hsl(0, 100%, 60%)" />
<rect x="49" y="34" width="1" height="1" fill="hsl(0, 100%, 60%)" />
<rect x="50" y="34" width="1" height="1" fill="hsl(0, 100%, 60%)" />
<rect x="55" y="34" width="1" height="1" fill="hsl(0, 100%, 60%)" />
<rect x="56" y="34" width="1" height="1" fill="hsl(0, 100%, 60%)" />
<rect x="57" y="34" width="1" height="1" fill="hsl(0, 100%, 60%)" />
<rect x="22" y="35" width="1" height="1" fill="hsl(0, 100%, 60%)" />
<rect x="23" y="35" width="1" height="1" fill="hsl(0, 100%, 60%)" />
<rect x="46" y="35" width="1" height="1" fill="hsl(0, 100%, 60%)" />
<rect x="47" y="35" width="1" height="1" fill="hsl(0, 100%, 60%)" />
<rect x="50" y="35" width="1" height="1" fill="hsl(0, 100%, 60%)" />
<rect x="51" y="35" width="1" height="1" fill="hsl(0, 100%, 60%)" />
<rect x="54" y="35" width="1" height="1" fill="hsl(0, 100%, 60%)" />
<rect x="58" y="35" width="1" height="1" fill="hsl(0, 100%, 60%)" />
<rect x="23" y="36" width="1" height="1" fill="hsl(0, 100%, 60%)" />
<rect x="39" y="36" width="1" height="1" fill="hsl(0, 100%, 60%)" />
<rect x="40" y="36" width="1" height="1" fill="hsl(0, 100%, 60%)" />
<rect x="41" y="36" width="1" height="1" fill="hsl(0, 100%, 60%)" />
<rect x="46" y="36" width="1" height="1" fill="hsl(0, 100%, 60%)" />
<rect x="53" y="36" width="1" height="1" fill="hsl(0, 100%, 60%)" />
<rect x="58" y="36" width="1" height="1" fill="hsl(0, 100%, 60%)" />
<rect x="59" y="36" width="1" height="1" fill="hsl(0, 100%, 60%)" />
<rect x="20" y="37" width="1" height="1" fill="hsl(0, 100%, 60%)" />
<rect x="21" y="37" width="1" height="1" fill="hsl(0, 100%, 60%)" />
<rect x="22" y="37" width="1" height="1" fill="hsl(0, 100%, 60%)" />
<rect x="23" y="37" width="1" height="1" fill="hsl(0, 100%, 60%)" />
<rect x="38" y="37" width="1" height="1" fill="hsl(0, 100%, 60%)" />
<rect x="42" y="37" width="1" height="1" fill="hsl(0, 100%, 60%)" />
<rect x="45" y="37" width="1" height="1" fill="hsl(0, 100%, 60%)" />
<rect x="46" y="37" width="1" height="1" fill="hsl(0, 100%, 60%)" />
<rect x="50" y="37" width="1" height="1" fill="hsl(0, 100%, 60%)" />
<rect x="51" y="37" width="1" height="1" fill="hsl(0, 100%, 60%)" />
<rect x="52" y="37" width="1" height="1" fill="hsl(0, 100%, 60%)" />
<rect x="53" y="37" width="1" height="1" fill="hsl(0, 100%, 60%)" />
<rect x="56" y="37" width="1" height="1" fill="hsl(0, 100%, 60%)" />
<rect x="57" y="37" width="1" height="1" fill="hsl(0, 100%, 60%)" />
<rect x="59" y="37" width="1" height="1" fill="hsl(0, 100%, 60%)" />
<rect x="19" y="38" width="1" height="1" fill="hsl(0, 100%, 60%)" />
<rect x="20" y="38" width="1" height="1" fill="hsl(0, 100%, 60%)" />
<rect x="23" y="38" width="1" height="1" fill="hsl(0, 100%, 60%)" />
<rect x="24" y="38" width="1" height="1" fill="hsl(0, 100%, 60%)" />
<rect x="37" y="38" width="1" height="1" fill="hsl(0, 100%, 60%)" />
<rect x="38" y="38" width="1" height="1" fill="hsl(0, 100%, 60%)" />
<rect x="43" y="38" width="1" height="1" fill="hsl(0, 100%, 60%)" />
<rect x="52" y="38" width="1" height="1" fill="hsl(0, 100%, 60%)" />
<rect x="54" y="38" width="1" height="1" fill="hsl(0, 100%, 60%)" />
<rect x="59" y="38" width="1" height="1" fill="hsl(0, 100%, 60%)" />
<rect x="60" y="38" width="1" height="1" fill="hsl(0, 100%, 60%)" />
<rect x="19" y="39" width="1" height="1" fill="hsl(0, 100%, 60%)" />
<rect x="37" y="39" width="1" height="1" fill="hsl(0, 100%, 60%)" />
<rect x="39" y="39" width="1" height="1" fill="hsl(0, 100%, 60%)" />
<rect x="40" y="39" width="1" height="1" fill="hsl(0, 100%, 60%)" />
<rect x="43" y="39" width="1" height="1" fill="hsl(0, 100%, 60%)" />
<rect x="44" y="39" width="1" height="1" fill="hsl(0, 100%, 60%)" />
<rect x="45" y="39" width="1" height="1" fill="hsl(0, 100%, 60%)" />
<rect x="46" y="39" width="1" height="1" fill="hsl(0, 100%, 60%)" />
<rect x="58" y="39" width="1" height="1" fill="hsl(0, 100%, 60%)" />
<rect x="18" y="40" width="1" height="1" fill="hsl(0, 100%, 60%)" />
<rect x="19" y="40" width="1" height="1" fill="hsl(0, 100%, 60%)" />
<rect x="36" y="40" width="1" height="1" fill="hsl(0, 100%, 60%)" />
<rect x="37" y="40" width="1" height="1" fill="hsl(0, 100%, 60%)" />
<rect x="42" y="40" width="1" height="1" fill="hsl(0, 100%, 60%)" />
<rect x="44" y="40" width="1" height="1" fill="hsl(0, 100%, 60%)" />
<rect x="60" y="40" width="1" height="1" fill="hsl(0, 100%, 60%)" />
<rect x="61" y="40" width="1" height="1" fill="hsl(0, 100%, 60%)" />
<rect x="62" y="40" width="1" height="1" fill="hsl(0, 100%, 60%)" />
<rect x="18" y="41" width="1" height="1" fill="hsl(0, 100%, 60%)" />
<rect x="38" y="41" width="1" height="1" fill="hsl(0, 100%, 60%)" />
<rect x="62" y="41" width="1" height="1" fill="hsl(0, 100%, 60%)" />
<rect x="63" y="41" width="1" height="1" fill="hsl(0, 100%, 60%)" />
<rect x="18" y="42" width="1" height="1" fill="hsl(0, 100%, 60%)" />
<rect x="19" y="42" width="1" height="1" fill="hsl(0, 100%, 60%)" />
<rect x="20" y="42" width="1" height="1" fill="hsl(0, 100%, 60%)" />
<rect x="21" y="42" width="1" height="1" fill="hsl(0, 100%, 60%)" />
<rect x="34" y="42" width="1" height="1" fill="hsl(0, 100%, 60%)" />
<rect x="35" y="42" width="1" height="1" fill="hsl(0, 100%, 60%)" />
<rect x="36" y="42" width="1" height="1" fill="hsl(0, 100%, 60%)" />
<rect x="63" y="42" width="1" height="1" fill="hsl(0, 100%, 60%)" />
<rect x="17" y="43" width="1" height="1" fill="hsl(0, 100%, 60%)" />
<rect x="18" y="43" width="1" height="1" fill="hsl(0, 100%, 60%)" />
<rect x="21" y="43" width="1" height="1" fill="hsl(0, 100%, 60%)" />
<rect x="22" y="43" width="1" height="1" fill="hsl(0, 100%, 60%)" />
<rect x="33" y="43" width="1" height="1" fill="hsl(0, 100%, 60%)" />
<rect x="34" y="43" width="1" height="1" fill="hsl(0, 100%, 60%)" />
<rect x="63" y="43" width="1" height="1" fill="hsl(0, 100%, 60%)" />
<rect x="64" y="43" width="1" height="1" fill="hsl(0, 100%, 60%)" />
<rect x="22" y="44" width="1" height="1" fill="hsl(0, 100%, 60%)" />
<rect x="33" y="44" width="1" height="1" fill="hsl(0, 100%, 60%)" />
<rect x="64" y="44" width="1" height="1" fill="hsl(0, 100%, 60%)" />
<rect x="22" y="45" width="1" height="1" fill="hsl(0, 100%, 60%)" />
<rect x="23" y="45" width="1" height="1" fill="hsl(0, 100%, 60%)" />
<rect x="32" y="45" width="1" height="1" fill="hsl(0, 100%, 60%)" />
<rect x="33" y="45" width="1" height="1" fill="hsl(0, 100%, 60%)" />
<rect x="61" y="45" width="1" height="1" fill="hsl(0, 100%, 60%)" />
<rect x="62" y="45" width="1" height="1" fill="hsl(0, 100%, 60%)" />
<rect x="63" y="45" width="1" height="1" fill="hsl(0, 100%, 60%)" />
<rect x="64" y="45" width="1" height="1" fill="hsl(0, 100%, 60%)" />
<rect x="23" y="46" width="1" height="1" fill="hsl(0, 100%, 60%)" />
<rect x="32" y="46" width="1" height="1" fill="hsl(0, 100%, 60%)" />
<rect x="60" y="46" width="1" height="1" fill="hsl(0, 100%, 60%)" />
<rect x="61" y="46" width="1" height="1" fill="hsl(0, 100%, 60%)" />
<rect x="64" y="46" width="1" height="1" fill="hsl(0, 100%, 60%)" />
<rect x="65" y="46" width="1" height="1" fill="hsl(0, 100%, 60%)" />
<rect x="20" y="47" width="1" height="1" fill="hsl(0, 100%, 60%)" />
<rect x="21" y="47" width="1" height="1" fill="hsl(0, 100%, 60%)" />
<rect x="22" y="47" width="1" height="1" fill="hsl(0, 100%, 60%)" />
<rect x="23" y="47" width="1" height="1" fill="hsl(0, 100%, 60%)" />
<rect x="32" y="47" width="1" height="1" fill="hsl(0, 100%, 60%)" />
<rect x="33" y="47" width="1" height="1" fill="hsl(0, 100%, 60%)" />
<rect x="34" y="47" width="1" height="1" fill="hsl(0, 100%, 60%)" />
<rect x="35" y="47" width="1" height="1" fill="hsl(0, 100%, 60%)" />
<rect x="60" y="47" width="1" height="1" fill="hsl(0, 100%, 60%)" />
<rect x="19" y="48" width="1" height="1" fill="hsl(0, 100%, 60%)" />
<rect x="20" y="48" width="1" height="1" fill="hsl(0, 100%, 60%)" />
<rect x="23" y="48" width="1" height="1" fill="hsl(0, 100%, 60%)" />
<rect x="24" y="48" width="1" height="1" fill="hsl(0, 100%, 60%)" />
<rect x="31" y="48" width="1" height="1" fill="hsl(0, 100%, 60%)" />
<rect x="32" y="48" width="1" height="1" fill="hsl(0, 100%, 60%)" />
<rect x="35" y="48" width="1" height="1" fill="hsl(0, 100%, 60%)" />
<rect x="36" y="48" width="1" height="1" fill="hsl(0, 100%, 60%)" />
<rect x="59" y="48" width="1" height="1" fill="hsl(0, 100%, 60%)" />
<rect x="60" y="48" width="1" height="1" fill="hsl(0, 100%, 60%)" />
<rect x="19" y="49" width="1" height="1" fill="hsl(0, 100%, 60%)" />
<rect x="36" y="49" width="1" height="1" fill="hsl(0, 100%, 60%)" />
<rect x="59" y="49" width="1" height="1" fill="hsl(0, 100%, 60%)" />
<rect x="18" y="50" width="1" height="1" fill="hsl(0, 100%, 60%)" />
<rect x="19" y="50" width="1" height="1" fill="hsl(0, 100%, 60%)" />
<rect x="36" y="50" width="1" height="1" fill="hsl(0, 100%, 60%)" />
<rect x="37" y="50" width="1" height="1" fill="hsl(0, 100%, 60%)" />
<rect x="59" y="50" width="1" height="1" fill="hsl(0, 100%, 60%)" />
<rect x="60" y="50" width="1" height="1" fill="hsl(0, 100%, 60%)" />
<rect x="61" y="50" width="1" height="1" fill="hsl(0, 100%, 60%)" />
<rect x="62" y="50" width="1" height="1" fill="hsl(0, 100%, 60%)" />
<rect x="18" y="51" width="1" height="1" fill="hsl(0, 100%, 60%)" />
<rect x="58" y="51" width="1" height="1" fill="hsl(0, 100%, 60%)" />
<rect x="59" y="51" width="1" height="1" fill="hsl(0, 100%, 60%)" />
<rect x="62" y="51" width="1" height="1" fill="hsl(0, 100%, 60%)" />
<rect x="63" y="51" width="1" height="1" fill="hsl(0, 100%, 60%)" />
<rect x="18" y="52" width="1" height="1" fill="hsl(0, 100%, 60%)" />
<rect x="19" y="52" width="1" height="1" fill="hsl(0, 100%, 60%)" />
<rect x="20" y="52" width="1" height="1" fill="hsl(0, 100%, 60%)" />
<rect x="21" y="52" width="1" height="1" fill="hsl(0, 100%, 60%)" />
<rect x="63" y="52" width="1" height="1" fill="hsl(0, 100%, 60%)" />
<rect x="17" y="53" width="1" height="1" fill="hsl(0, 100%, 60%)" />
<rect x="18" y="53" width="1" height="1" fill="hsl(0, 100%, 60%)" />
<rect x="21" y="53" width="1" height="1" fill="hsl(0, 100%, 60%)" />
<rect x="22" y="53" width="1" height="1" fill="hsl(0, 100%, 60%)" />
<rect x="63" y="53" width="1" height="1" fill="hsl(0, 100%, 60%)" />
<rect x="64" y="53" width="1" height="1" fill="hsl(0, 100%, 60%)" />
<rect x="22" y="54" width="1" height="1" fill="hsl(0, 100%, 60%)" />
<rect x="22" y="55" width="1" height="1" fill="hsl(0, 100%, 60%)" />
<rect x="23" y="55" width="1" height="1" fill="hsl(0, 100%, 60%)" />
</svg>