<?xml version="1.0" encoding="utf-8"?>
<svg xmlns="http://www.w3.org/2000/svg" width="84" height="22" viewBox="0 0 84 22">
<rect width="100%" height="100%" fill="transparent" />
<rect x="70" y="4" width="2" height="2" fill="hsl(0, 100%, 60%)" />
<rect x="78" y="4" width="2" height="2" fill="hsl(0, 100%, 60%)" />
<rect x="4" y="6" width="2" height="2" fill="hsl(0, 100%, 60%)" />
<rect x="6" y="6" width="2" height="2" fill="hsl(0, 100%, 60%)" />
<rect x="14" y="6" width="2" height="2" fill="hsl(0, 100%, 60%)" />
<rect x="16" y="6" width="2" height="2" fill="hsl(0, 100%, 60%)" />
<rect x="70" y="6" width="2" height="2" fill="hsl(0, 100%, 60%)" />
<rect x="72" y="6" width="2" height="2" fill="hsl(0, 100%, 60%)" />
<rect x="74" y="6" width="2" height="2" fill="hsl(0, 100%, 60%)" />
<rect x="76" y="6" width="2" height="2" fill="hsl(0, 100%, 60%)" />
<rect x="78" y="6" width="2" height="2" fill="hsl(0, 100%, 60%)" />
<rect x="6" y="8" width="2" height="2" fill="hsl(0, 100%, 60%)" />
<rect x="10" y="8" width="2" height="2" fill="hsl(0, 100%, 60%)" />
<rect x="14" y="8" width="2" height="2" fill="hsl(0, 100%, 60%)" />
<rect x="22" y="8" width="2" height="2" fill="hsl(0, 100%, 60%)" />
<rect x="28" y="8" width="2" height="2" fill="hsl(0, 100%, 60%)" />
<rect x="42" y="8" width="2" height="2" fill="hsl(0, 100%, 60%)" />
<rect x="44" y="8" width="2" height="2" fill="hsl(0, 100%, 60%)" />
<rect x="52" y="8" width="2" height="2" fill="hsl(0, 100%, 60%)" />
<rect x="58" y="8" width="2" height="2" fill="hsl(0, 100%, 60%)" />
<rect x="74" y="8" width="2" height="2" fill="hsl(0, 100%, 60%)" />
<rect x="6" y="10" width="2" height="2" fill="hsl(0, 100%, 60%)" />
<rect x="8" y="10" width="2" height="2" fill="hsl(0, 100%, 60%)" />
<rect x="12" y="10" width="2" height="2" fill="hsl(0, 100%, 60%)" />
<rect x="14" y="10" width="2" height="2" fill="hsl(0, 100%, 60%)" />
<rect x="20" y="10" width="2" height="2" fill="hsl(0, 100%, 60%)" />
<rect x="22" y="10" width="2" height="2" fill="hsl(0, 100%, 60%)" />
<rect x="30" y="10" width="2" height="2" fill="hsl(0, 100%, 60%)" />
<rect x="32" y="10" width="2" height="2" fill="hsl(0, 100%, 60%)" />
<rect x="42" y="10" width="2" height="2" fill="hsl(0, 100%, 60%)" />
<rect x="44" y="10" width="2" height="2" fill="hsl(0, 100%, 60%)" />
<rect x="50" y="10" width="2" height="2" fill="hsl(0, 100%, 60%)" />
<rect x="52" y="10" width="2" height="2" fill="hsl(0, 100%, 60%)" />
<rect x="60" y="10" width="2" height="2" fill="hsl(0, 100%, 60%)" />
<rect x="62" y="10" width="2" height="2" fill="hsl(0, 100%, 60%)" />
<rect x="72" y="10" width="2" height="2" fill="hsl(0, 100%, 60%)" />
<rect x="76" y="10" width="2" height="2" fill="hsl(0, 100%, 60%)" />
<rect x="6" y="12" width="2" height="2" fill="hsl(0, 100%, 60%)" />
<rect x="10" y="12" width="2" height="2" fill="hsl(0, 100%, 60%)" />
<rect x="14" y="12" width="2" height="2" fill="hsl(0, 100%, 60%)" />
<rect x="22" y="12" width="2" height="2" fill="hsl(0, 100%, 60%)" />
<rect x="28" y="12" width="2" height="2" fill="hsl(0, 100%, 60%)" />
<rect x="42" y="12" width="2" height="2" fill="hsl(0, 100%, 60%)" />
<rect x="44" y="12" width="2" height="2" fill="hsl(0, 100%, 60%)" />
<rect x="52" y="12" width="2" height="2" fill="hsl(0, 100%, 60%)" />
<rect x="58" y="12" width="2" height="2" fill="hsl(0, 100%, 60%)" />
<rect x="74" y="12" width="2" height="2" fill="hsl(0, 100%, 60%)" />
<rect x="4" y="14" width="2" height="2" fill="hsl(0, 100%, 60%)" />
<rect x="6" y="14" width="2" height="2" fill="hsl(0, 100%, 60%)" />
<rect x="14" y="14" width="2" height="2" fill="hsl(0, 100%, 60%)" />
<rect x="16" y="14" width="2" height="2" fill="hsl(0, 100%, 60%)" />
<rect x="70" y="14" width="2" height="2" fill="hsl(0, 100%, 60%)" />
<rect x="72" y="14" width="2" height="2" fill="hsl(0, 100%, 60%)" />
<rect x="74" y="14" width="2" height="2" fill="hsl(0, 100%, 60%)" />
<rect x="76" y="14" width="2" height="2" fill="hsl(0, 100%, 60%)" />
<rect x="78" y="14" width="2" height="2" fill="hsl(0, 100%, 60%)" />
<rect x="70" y="16" width="2" height="2" fill="hsl(0, 100%, 60%)" />
<rect x="78" y="16" width="2" height="2" fill="hsl(0, 100%, 60%)" />
</svg>