<?xml version="1.0" encoding="utf-8"?>
<svg xmlns="http://www.w3.org/2000/svg" width="84" height="84" viewBox="0 0 84 84">
<rect width="100%" height="100%" fill="transparent" />
<rect x="28" y="4" width="4" height="4" fill="hsl(0, 100%, 60%)" />
<rect x="72" y="4" width="4" height="4" fill="hsl(0, 100%, 60%)" />
<rect x="76" y="4" width="4" height="4" fill="hsl(0, 100%, 60%)" />
<rect x="32" y="8" width="4" height="4" fill="hsl(0, 100%, 60%)" />
<rect x="36" y="8" width="4" height="4" fill="hsl(0, 100%, 60%)" />
<rect x="72" y="8" width="4" height="4" fill="hsl(0, 100%, 60%)" />
<rect x="28" y="12" width="4" height="4" fill="hsl(0, 100%, 60%)" />
<rect x="32" y="12" width="4" height="4" fill="hsl(0, 100%, 60%)" />
<rect x="64" y="12" width="4" height="4" fill="hsl(0, 100%, 60%)" />
<rect x="72" y="12" width="4" height="4" fill="hsl(0, 100%, 60%)" />
<rect x="64" y="16" width="4" height="4" fill="hsl(0, 100%, 60%)" />
<rect x="68" y="16" width="4" height="4" fill="hsl(0, 100%, 60%)" />
<rect x="44" y="20" width="4" height="4" fill="hsl(0, 100%, 60%)" />
<rect x="4" y="24" width="4" height="4" fill="hsl(0, 100%, 60%)" />
<rect x="8" y="24" width="4" height="4" fill="hsl(0, 100%, 60%)" />
<rect x="48" y="24" width="4" height="4" fill="hsl(0, 100%, 60%)" />
<rect x="52" y="24" width="4" height="4" fill="hsl(0, 100%, 60%)" />
<rect x="4" y="28" width="4" height="4" fill="hsl(0, 100%, 60%)" />
<rect x="8" y="28" width="4" height="4" fill="hsl(0, 100%, 60%)" />
<rect x="44" y="28" width="4" height="4" fill="hsl(0, 100%, 60%)" />
<rect x="48" y="28" width="4" height="4" fill="hsl(0, 100%, 60%)" />
<rect x="72" y="40" width="4" height="4" fill="hsl(0, 100%, 60%)" />
<rect x="76" y="40" width="4" height="4" fill="hsl(0, 100%, 60%)" />
<rect x="44" y="44" width="4" height="4" fill="hsl(0, 100%, 60%)" />
<rect x="48" y="44" width="4" height="4" fill="hsl(0, 100%, 60%)" />
<rect x="72" y="44" width="4" height="4" fill="hsl(0, 100%, 60%)" />
<rect x="76" y="44" width="4" height="4" fill="hsl(0, 100%, 60%)" />
<rect x="44" y="48" width="4" height="4" fill="hsl(0, 100%, 60%)" />
<rect x="48" y="48" width="4" height="4" fill="hsl(0, 100%, 60%)" />
<rect x="24" y="56" width="4" height="4" fill="hsl(0, 100%, 60%)" />
<rect x="20" y="60" width="4" height="4" fill="hsl(0, 100%, 60%)" />
<rect x="28" y="60" width="4" height="4" fill="hsl(0, 100%, 60%)" />
<rect x="20" y="64" width="4" height="4" fill="hsl(0, 100%, 60%)" />
<rect x="24" y="64" width="4" height="4" fill="hsl(0, 100%, 60%)" />
<rect x="52" y="64" width="4" height="4" fill="hsl(0, 100%, 60%)" />
<rect x="56" y="64" width="4" height="4" fill="hsl(0, 100%, 60%)" />
<rect x="52" y="68" width="4" height="4" fill="hsl(0, 100%, 60%)" />
<rect x="56" y="72" width="4" height="4" fill="hsl(0, 100%, 60%)" />
<rect x="60" y="72" width="4" height="4" fill="hsl(0, 100%, 60%)" />
<rect x="64" y="72" width="4" height="4" fill="hsl(0, 100%, 60%)" />
<rect x="64" y="76" width="4" height="4" fill="hsl(0, 100%, 60%)" />
</svg>