<?xml version="1.0" encoding="utf-8"?>
<svg xmlns="http://www.w3.org/2000/svg" width="70" height="42" viewBox="0 0 70 42">
<rect width="100%" height="100%" fill="transparent" />
<rect x="48" y="4" width="2" height="2" fill="hsl(0, 100%, 60%)" />
<rect x="50" y="4" width="2" height="2" fill="hsl(0, 100%, 60%)" />
<rect x="50" y="6" width="2" height="2" fill="hsl(0, 100%, 60%)" />
<rect x="50" y="8" width="2" height="2" fill="hsl(0, 100%, 60%)" />
<rect x="54" y="8" width="2" height="2" fill="hsl(0, 100%, 60%)" />
<rect x="52" y="10" width="2" height="2" fill="hsl(0, 100%, 60%)" />
<rect x="56" y="10" width="2" height="2" fill="hsl(0, 100%, 60%)" />
<rect x="54" y="12" width="2" height="2" fill="hsl(0, 100%, 60%)" />
<rect x="62" y="12" width="2" height="2" fill="hsl(0, 100%, 60%)" />
<rect x="64" y="12" width="2" height="2" fill="hsl(0, 100%, 60%)" />
<rect x="62" y="14" width="2" height="2" fill="hsl(0, 100%, 60%)" />
<rect x="64" y="14" width="2" height="2" fill="hsl(0, 100%, 60%)" />
<rect x="4" y="24" width="2" height="2" fill="hsl(0, 100%, 60%)" />
<rect x="6" y="24" width="2" height="2" fill="hsl(0, 100%, 60%)" />
<rect x="4" y="26" width="2" height="2" fill="hsl(0, 100%, 60%)" />
<rect x="6" y="26" width="2" height="2" fill="hsl(0, 100%, 60%)" />
<rect x="46" y="32" width="2" height="2" fill="hsl(0, 100%, 60%)" />
<rect x="44" y="34" width="2" height="2" fill="hsl(0, 100%, 60%)" />
<rect x="46" y="34" width="2" height="2" fill="hsl(0, 100%, 60%)" />
<rect x="48" y="34" width="2" height="2" fill="hsl(0, 100%, 60%)" />
<rect x="48" y="36" width="2" height="2" fill="hsl(0, 100%, 60%)" />
<rect x="50" y="36" width="2" height="2" fill="hsl(0, 100%, 60%)" />
</svg>