<?xml version="1.0" encoding="utf-8"?>
<svg xmlns="http://www.w3.org/2000/svg" width="56" height="26" viewBox="0 0 56 26">
<rect width="100%" height="100%" fill="transparent" />
<rect x="11" y="4" width="1" height="1" fill="hsl(0, 100%, 60%)" />
<rect x="31" y="4" width="1" height="1" fill="hsl(0, 100%, 60%)" />
<rect x="51" y="4" width="1" height="1" fill="hsl(0, 100%, 60%)" />
<rect x="9" y="5" width="1" height="1" fill="hsl(0, 100%, 60%)" />
<rect x="10" y="5" width="1" height="1" fill="hsl(0, 100%, 60%)" />
<rect x="29" y="5" width="1" height="1" fill="hsl(0, 100%, 60%)" />
<rect x="30" y="5" width="1" height="1" fill="hsl(0, 100%, 60%)" />
<rect x="49" y="5" width="1" height="1" fill="hsl(0, 100%, 60%)" />
<rect x="50" y="5" width="1" height="1" fill="hsl(0, 100%, 60%)" />
<rect x="10" y="6" width="1" height="1" fill="hsl(0, 100%, 60%)" />
<rect x="11" y="6" width="1" height="1" fill="hsl(0, 100%, 60%)" />
<rect x="30" y="6" width="1" height="1" fill="hsl(0, 100%, 60%)" />
<rect x="31" y="6" width="1" height="1" fill="hsl(0, 100%, 60%)" />
<rect x="50" y="6" width="1" height="1" fill="hsl(0, 100%, 60%)" />
<rect x="51" y="6" width="1" height="1" fill="hsl(0, 100%, 60%)" />
<rect x="6" y="8" width="1" height="1" fill="hsl(0, 100%, 60%)" />
<rect x="26" y="8" width="1" height="1" fill="hsl(0, 100%, 60%)" />
<rect x="46" y="8" width="1" height="1" fill="hsl(0, 100%, 60%)" />
<rect x="4" y="9" width="1" height="1" fill="hsl(0, 100%, 60%)" />
<rect x="6" y="9" width="1" height="1" fill="hsl(0, 100%, 60%)" />
<rect x="24" y="9" width="1" height="1" fill="hsl(0, 100%, 60%)" />
<rect x="26" y="9" width="1" height="1" fill="hsl(0, 100%, 60%)" />
<rect x="44" y="9" width="1" height="1" fill="hsl(0, 100%, 60%)" />
<rect x="46" y="9" width="1" height="1" fill="hsl(0, 100%, 60%)" />
<rect x="5" y="10" width="1" height="1" fill="hsl(0, 100%, 60%)" />
<rect x="6" y="10" width="1" height="1" fill="hsl(0, 100%, 60%)" />
<rect x="9" y="10" width="1" height="1" fill="hsl(0, 100%, 60%)" />
<rect x="25" y="10" width="1" height="1" fill="hsl(0, 100%, 60%)" />
<rect x="26" y="10" width="1" height="1" fill="hsl(0, 100%, 60%)" />
<rect x="29" y="10" width="1" height="1" fill="hsl(0, 100%, 60%)" />
<rect x="45" y="10" width="1" height="1" fill="hsl(0, 100%, 60%)" />
<rect x="46" y="10" width="1" height="1" fill="hsl(0, 100%, 60%)" />
<rect x="49" y="10" width="1" height="1" fill="hsl(0, 100%, 60%)" />
<rect x="9" y="11" width="1" height="1" fill="hsl(0, 100%, 60%)" />
<rect x="11" y="11" width="1" height="1" fill="hsl(0, 100%, 60%)" />
<rect x="29" y="11" width="1" height="1" fill="hsl(0, 100%, 60%)" />
<rect x="31" y="11" width="1" height="1" fill="hsl(0, 100%, 60%)" />
<rect x="49" y="11" width="1" height="1" fill="hsl(0, 100%, 60%)" />
<rect x="51" y="11" width="1" height="1" fill="hsl(0, 100%, 60%)" />
<rect x="9" y="12" width="1" height="1" fill="hsl(0, 100%, 60%)" />
<rect x="10" y="12" width="1" height="1" fill="hsl(0, 100%, 60%)" />
<rect x="29" y="12" width="1" height="1" fill="hsl(0, 100%, 60%)" />
<rect x="30" y="12" width="1" height="1" fill="hsl(0, 100%, 60%)" />
<rect x="49" y="12" width="1" height="1" fill="hsl(0, 100%, 60%)" />
<rect x="50" y="12" width="1" height="1" fill="hsl(0, 100%, 60%)" />
<rect x="24" y="15" width="1" height="1" fill="hsl(0, 100%, 60%)" />
<rect x="7" y="16" width="1" height="1" fill="hsl(0, 100%, 60%)" />
<rect x="10" y="16" width="1" height="1" fill="hsl(0, 100%, 60%)" />
<rect x="23" y="16" width="1" height="1" fill="hsl(0, 100%, 60%)" />
<rect x="25" y="16" width="1" height="1" fill="hsl(0, 100%, 60%)" />
<rect x="27" y="16" width="1" height="1" fill="hsl(0, 100%, 60%)" />
<rect x="30" y="16" width="1" height="1" fill="hsl(0, 100%, 60%)" />
<rect x="43" y="16" width="1" height="1" fill="hsl(0, 100%, 60%)" />
<rect x="44" y="16" width="1" height="1" fill="hsl(0, 100%, 60%)" />
<rect x="47" y="16" width="1" height="1" fill="hsl(0, 100%, 60%)" />
<rect x="50" y="16" width="1" height="1" fill="hsl(0, 100%, 60%)" />
<rect x="7" y="17" width="1" height="1" fill="hsl(0, 100%, 60%)" />
<rect x="8" y="17" width="1" height="1" fill="hsl(0, 100%, 60%)" />
<rect x="9" y="17" width="1" height="1" fill="hsl(0, 100%, 60%)" />
<rect x="10" y="17" width="1" height="1" fill="hsl(0, 100%, 60%)" />
<rect x="24" y="17" width="1" height="1" fill="hsl(0, 100%, 60%)" />
<rect x="25" y="17" width="1" height="1" fill="hsl(0, 100%, 60%)" />
<rect x="27" y="17" width="1" height="1" fill="hsl(0, 100%, 60%)" />
<rect x="28" y="17" width="1" height="1" fill="hsl(0, 100%, 60%)" />
<rect x="29" y="17" width="1" height="1" fill="hsl(0, 100%, 60%)" />
<rect x="30" y="17" width="1" height="1" fill="hsl(0, 100%, 60%)" />
<rect x="43" y="17" width="1" height="1" fill="hsl(0, 100%, 60%)" />
<rect x="47" y="17" width="1" height="1" fill="hsl(0, 100%, 60%)" />
<rect x="48" y="17" width="1" height="1" fill="hsl(0, 100%, 60%)" />
<rect x="49" y="17" width="1" height="1" fill="hsl(0, 100%, 60%)" />
<rect x="50" y="17" width="1" height="1" fill="hsl(0, 100%, 60%)" />
<rect x="26" y="18" width="1" height="1" fill="hsl(0, 100%, 60%)" />
<rect x="44" y="18" width="1" height="1" fill="hsl(0, 100%, 60%)" />
<rect x="45" y="18" width="1" height="1" fill="hsl(0, 100%, 60%)" />
<rect x="46" y="18" width="1" height="1" fill="hsl(0, 100%, 60%)" />
<rect x="9" y="19" width="1" height="1" fill="hsl(0, 100%, 60%)" />
<rect x="10" y="19" width="1" height="1" fill="hsl(0, 100%, 60%)" />
<rect x="26" y="19" width="1" height="1" fill="hsl(0, 100%, 60%)" />
<rect x="28" y="19" width="1" height="1" fill="hsl(0, 100%, 60%)" />
<rect x="46" y="19" width="1" height="1" fill="hsl(0, 100%, 60%)" />
<rect x="48" y="19" width="1" height="1" fill="hsl(0, 100%, 60%)" />
<rect x="9" y="20" width="1" height="1" fill="hsl(0, 100%, 60%)" />
<rect x="10" y="20" width="1" height="1" fill="hsl(0, 100%, 60%)" />
<rect x="27" y="20" width="1" height="1" fill="hsl(0, 100%, 60%)" />
<rect x="29" y="20" width="1" height="1" fill="hsl(0, 100%, 60%)" />
<rect x="47" y="20" width="1" height="1" fill="hsl(0, 100%, 60%)" />
<rect x="48" y="20" width="1" height="1" fill="hsl(0, 100%, 60%)" />
<rect x="28" y="21" width="1" height="1" fill="hsl(0, 100%, 60%)" />
</svg>