<?xml version="1.0" encoding="utf-8"?>
<svg xmlns="http://www.w3.org/2000/svg" width="50" height="92" viewBox="0 0 50 92">
<rect width="100%" height="100%" fill="transparent" />
<rect x="11" y="4" width="7" height="7" fill="hsl(0, 100%, 60%)" />
<rect x="18" y="4" width="7" height="7" fill="hsl(0, 100%, 60%)" />
<rect x="25" y="4" width="7" height="7" fill="hsl(0, 100%, 60%)" />
<rect x="32" y="4" width="7" height="7" fill="hsl(0, 100%, 60%)" />
<rect x="11" y="18" width="7" height="7" fill="hsl(0, 100%, 60%)" />
<rect x="32" y="18" width="7" height="7" fill="hsl(0, 100%, 60%)" />
<rect x="4" y="25" width="7" height="7" fill="hsl(0, 100%, 60%)" />
<rect x="18" y="25" width="7" height="7" fill="hsl(0, 100%, 60%)" />
<rect x="25" y="25" width="7" height="7" fill="hsl(0, 100%, 60%)" />
<rect x="39" y="25" width="7" height="7" fill="hsl(0, 100%, 60%)" />
<rect x="4" y="32" width="7" height="7" fill="hsl(0, 100%, 60%)" />
<rect x="39" y="32" width="7" height="7" fill="hsl(0, 100%, 60%)" />
<rect x="4" y="46" width="7" height="7" fill="hsl(0, 100%, 60%)" />
<rect x="39" y="46" width="7" height="7" fill="hsl(0, 100%, 60%)" />
<rect x="4" y="53" width="7" height="7" fill="hsl(0, 100%, 60%)" />
<rect x="11" y="53" width="7" height="7" fill="hsl(0, 100%, 60%)" />
<rect x="32" y="53" width="7" height="7" fill="hsl(0, 100%, 60%)" />
<rect x="39" y="53" width="7" height="7" fill="hsl(0, 100%, 60%)" />
<rect x="4" y="60" width="7" height="7" fill="hsl(0, 100%, 60%)" />
<rect x="11" y="60" width="7" height="7" fill="hsl(0, 100%, 60%)" />
<rect x="18" y="60" width="7" height="7" fill="hsl(0, 100%, 60%)" />
<rect x="25" y="60" width="7" height="7" fill="hsl(0, 100%, 60%)" />
<rect x="32" y="60" width="7" height="7" fill="hsl(0, 100%, 60%)" />
<rect x="39" y="60" width="7" height="7" fill="hsl(0, 100%, 60%)" />
<rect x="11" y="67" width="7" height="7" fill="hsl(0, 100%, 60%)" />
<rect x="32" y="67" width="7" height="7" fill="hsl(0, 100%, 60%)" />
<rect x="18" y="74" width="7" height="7" fill="hsl(0, 100%, 60%)" />
<rect x="25" y="74" width="7" height="7" fill="hsl(0, 100%, 60%)" />
<rect x="18" y="81" width="7" height="7" fill="hsl(0, 100%, 60%)" />
<rect x="25" y="81" width="7" height="7" fill="hsl(0, 100%, 60%)" />
</svg>