<?xml version="1.0" encoding="utf-8"?>
<svg xmlns="http://www.w3.org/2000/svg" width="60" height="92" viewBox="0 0 60 92">
<rect width="100%" height="100%" fill="transparent" />
<rect x="12" y="4" width="4" height="4" fill="hsl(0, 100%, 60%)" />
<rect x="16" y="4" width="4" height="4" fill="hsl(0, 100%, 60%)" />
<rect x="20" y="4" width="4" height="4" fill="hsl(0, 100%, 60%)" />
<rect x="24" y="4" width="4" height="4" fill="hsl(0, 100%, 60%)" />
<rect x="12" y="8" width="4" height="4" fill="hsl(0, 100%, 60%)" />
<rect x="24" y="8" width="4" height="4" fill="hsl(0, 100%, 60%)" />
<rect x="4" y="12" width="4" height="4" fill="hsl(0, 100%, 60%)" />
<rect x="8" y="12" width="4" height="4" fill="hsl(0, 100%, 60%)" />
<rect x="12" y="12" width="4" height="4" fill="hsl(0, 100%, 60%)" />
<rect x="24" y="12" width="4" height="4" fill="hsl(0, 100%, 60%)" />
<rect x="28" y="12" width="4" height="4" fill="hsl(0, 100%, 60%)" />
<rect x="32" y="12" width="4" height="4" fill="hsl(0, 100%, 60%)" />
<rect x="4" y="16" width="4" height="4" fill="hsl(0, 100%, 60%)" />
<rect x="32" y="16" width="4" height="4" fill="hsl(0, 100%, 60%)" />
<rect x="4" y="20" width="4" height="4" fill="hsl(0, 100%, 60%)" />
<rect x="32" y="20" width="4" height="4" fill="hsl(0, 100%, 60%)" />
<rect x="4" y="24" width="4" height="4" fill="hsl(0, 100%, 60%)" />
<rect x="8" y="24" width="4" height="4" fill="hsl(0, 100%, 60%)" />
<rect x="12" y="24" width="4" height="4" fill="hsl(0, 100%, 60%)" />
<rect x="24" y="24" width="4" height="4" fill="hsl(0, 100%, 60%)" />
<rect x="28" y="24" width="4" height="4" fill="hsl(0, 100%, 60%)" />
<rect x="32" y="24" width="4" height="4" fill="hsl(0, 100%, 60%)" />
<rect x="12" y="28" width="4" height="4" fill="hsl(0, 100%, 60%)" />
<rect x="24" y="28" width="4" height="4" fill="hsl(0, 100%, 60%)" />
<rect x="12" y="32" width="4" height="4" fill="hsl(0, 100%, 60%)" />
<rect x="16" y="32" width="4" height="4" fill="hsl(0, 100%, 60%)" />
<rect x="20" y="32" width="4" height="4" fill="hsl(0, 100%, 60%)" />
<rect x="24" y="32" width="4" height="4" fill="hsl(0, 100%, 60%)" />
<rect x="12" y="36" width="4" height="4" fill="hsl(0, 100%, 60%)" />
<rect x="16" y="36" width="4" height="4" fill="hsl(0, 100%, 60%)" />
<rect x="20" y="36" width="4" height="4" fill="hsl(0, 100%, 60%)" />
<rect x="24" y="36" width="4" height="4" fill="hsl(0, 100%, 60%)" />
<rect x="32" y="36" width="4" height="4" fill="hsl(0, 100%, 60%)" />
<rect x="36" y="36" width="4" height="4" fill="hsl(0, 100%, 60%)" />
<rect x="40" y="36" width="4" height="4" fill="hsl(0, 100%, 60%)" />
<rect x="44" y="36" width="4" height="4" fill="hsl(0, 100%, 60%)" />
<rect x="12" y="40" width="4" height="4" fill="hsl(0, 100%, 60%)" />
<rect x="24" y="40" width="4" height="4" fill="hsl(0, 100%, 60%)" />
<rect x="32" y="40" width="4" height="4" fill="hsl(0, 100%, 60%)" />
<rect x="44" y="40" width="4" height="4" fill="hsl(0, 100%, 60%)" />
<rect x="4" y="44" width="4" height="4" fill="hsl(0, 100%, 60%)" />
<rect x="8" y="44" width="4" height="4" fill="hsl(0, 100%, 60%)" />
<rect x="12" y="44" width="4" height="4" fill="hsl(0, 100%, 60%)" />
<rect x="24" y="44" width="4" height="4" fill="hsl(0, 100%, 60%)" />
<rect x="28" y="44" width="4" height="4" fill="hsl(0, 100%, 60%)" />
<rect x="32" y="44" width="4" height="4" fill="hsl(0, 100%, 60%)" />
<rect x="44" y="44" width="4" height="4" fill="hsl(0, 100%, 60%)" />
<rect x="48" y="44" width="4" height="4" fill="hsl(0, 100%, 60%)" />
<rect x="52" y="44" width="4" height="4" fill="hsl(0, 100%, 60%)" />
<rect x="4" y="48" width="4" height="4" fill="hsl(0, 100%, 60%)" />
<rect x="52" y="48" width="4" height="4" fill="hsl(0, 100%, 60%)" />
<rect x="4" y="52" width="4" height="4" fill="hsl(0, 100%, 60%)" />
<rect x="52" y="52" width="4" height="4" fill="hsl(0, 100%, 60%)" />
<rect x="4" y="56" width="4" height="4" fill="hsl(0, 100%, 60%)" />
<rect x="8" y="56" width="4" height="4" fill="hsl(0, 100%, 60%)" />
<rect x="12" y="56" width="4" height="4" fill="hsl(0, 100%, 60%)" />
<rect x="44" y="56" width="4" height="4" fill="hsl(0, 100%, 60%)" />
<rect x="48" y="56" width="4" height="4" fill="hsl(0, 100%, 60%)" />
<rect x="52" y="56" width="4" height="4" fill="hsl(0, 100%, 60%)" />
<rect x="12" y="60" width="4" height="4" fill="hsl(0, 100%, 60%)" />
<rect x="44" y="60" width="4" height="4" fill="hsl(0, 100%, 60%)" />
<rect x="4" y="64" width="4" height="4" fill="hsl(0, 100%, 60%)" />
<rect x="8" y="64" width="4" height="4" fill="hsl(0, 100%, 60%)" />
<rect x="12" y="64" width="4" height="4" fill="hsl(0, 100%, 60%)" />
<rect x="44" y="64" width="4" height="4" fill="hsl(0, 100%, 60%)" />
<rect x="48" y="64" width="4" height="4" fill="hsl(0, 100%, 60%)" />
<rect x="52" y="64" width="4" height="4" fill="hsl(0, 100%, 60%)" />
<rect x="4" y="68" width="4" height="4" fill="hsl(0, 100%, 60%)" />
<rect x="52" y="68" width="4" height="4" fill="hsl(0, 100%, 60%)" />
<rect x="4" y="72" width="4" height="4" fill="hsl(0, 100%, 60%)" />
<rect x="52" y="72" width="4" height="4" fill="hsl(0, 100%, 60%)" />
<rect x="4" y="76" width="4" height="4" fill="hsl(0, 100%, 60%)" />
<rect x="8" y="76" width="4" height="4" fill="hsl(0, 100%, 60%)" />
<rect x="12" y="76" width="4" height="4" fill="hsl(0, 100%, 60%)" />
<rect x="24" y="76" width="4" height="4" fill="hsl(0, 100%, 60%)" />
<rect x="28" y="76" width="4" height="4" fill="hsl(0, 100%, 60%)" />
<rect x="32" y="76" width="4" height="4" fill="hsl(0, 100%, 60%)" />
<rect x="44" y="76" width="4" height="4" fill="hsl(0, 100%, 60%)" />
<rect x="48" y="76" width="4" height="4" fill="hsl(0, 100%, 60%)" />
<rect x="52" y="76" width="4" height="4" fill="hsl(0, 100%, 60%)" />
<rect x="12" y="80" width="4" height="4" fill="hsl(0, 100%, 60%)" />
<rect x="24" y="80" width="4" height="4" fill="hsl(0, 100%, 60%)" />
<rect x="32" y="80" width="4" height="4" fill="hsl(0, 100%, 60%)" />
<rect x="44" y="80" width="4" height="4" fill="hsl(0, 100%, 60%)" />
<rect x="12" y="84" width="4" height="4" fill="hsl(0, 100%, 60%)" />
<rect x="16" y="84" width="4" height="4" fill="hsl(0, 100%, 60%)" />
<rect x="20" y="84" width="4" height="4" fill="hsl(0, 100%, 60%)" />
<rect x="24" y="84" width="4" height="4" fill="hsl(0, 100%, 60%)" />
<rect x="32" y="84" width="4" height="4" fill="hsl(0, 100%, 60%)" />
<rect x="36" y="84" width="4" height="4" fill="hsl(0, 100%, 60%)" />
<rect x="40" y="84" width="4" height="4" fill="hsl(0, 100%, 60%)" />
<rect x="44" y="84" width="4" height="4" fill="hsl(0, 100%, 60%)" />
</svg>