<?xml version="1.0" encoding="utf-8"?>
<svg xmlns="http://www.w3.org/2000/svg" width="95" height="83" viewBox="0 0 95 83">
<rect width="100%" height="100%" fill="transparent" />
<rect x="19" y="4" width="3" height="3" fill="hsl(0, 100%, 60%)" />
<rect x="22" y="4" width="3" height="3" fill="hsl(0, 100%, 60%)" />
<rect x="73" y="4" width="3" height="3" fill="hsl(0, 100%, 60%)" />
<rect x="76" y="4" width="3" height="3" fill="hsl(0, 100%, 60%)" />
<rect x="22" y="7" width="3" height="3" fill="hsl(0, 100%, 60%)" />
<rect x="73" y="7" width="3" height="3" fill="hsl(0, 100%, 60%)" />
<rect x="22" y="10" width="3" height="3" fill="hsl(0, 100%, 60%)" />
<rect x="28" y="10" width="3" height="3" fill="hsl(0, 100%, 60%)" />
<rect x="67" y="10" width="3" height="3" fill="hsl(0, 100%, 60%)" />
<rect x="73" y="10" width="3" height="3" fill="hsl(0, 100%, 60%)" />
<rect x="25" y="13" width="3" height="3" fill="hsl(0, 100%, 60%)" />
<rect x="28" y="13" width="3" height="3" fill="hsl(0, 100%, 60%)" />
<rect x="67" y="13" width="3" height="3" fill="hsl(0, 100%, 60%)" />
<rect x="70" y="13" width="3" height="3" fill="hsl(0, 100%, 60%)" />
<rect x="16" y="19" width="3" height="3" fill="hsl(0, 100%, 60%)" />
<rect x="19" y="19" width="3" height="3" fill="hsl(0, 100%, 60%)" />
<rect x="76" y="19" width="3" height="3" fill="hsl(0, 100%, 60%)" />
<rect x="79" y="19" width="3" height="3" fill="hsl(0, 100%, 60%)" />
<rect x="16" y="22" width="3" height="3" fill="hsl(0, 100%, 60%)" />
<rect x="22" y="22" width="3" height="3" fill="hsl(0, 100%, 60%)" />
<rect x="55" y="22" width="3" height="3" fill="hsl(0, 100%, 60%)" />
<rect x="58" y="22" width="3" height="3" fill="hsl(0, 100%, 60%)" />
<rect x="73" y="22" width="3" height="3" fill="hsl(0, 100%, 60%)" />
<rect x="79" y="22" width="3" height="3" fill="hsl(0, 100%, 60%)" />
<rect x="19" y="25" width="3" height="3" fill="hsl(0, 100%, 60%)" />
<rect x="52" y="25" width="3" height="3" fill="hsl(0, 100%, 60%)" />
<rect x="58" y="25" width="3" height="3" fill="hsl(0, 100%, 60%)" />
<rect x="76" y="25" width="3" height="3" fill="hsl(0, 100%, 60%)" />
<rect x="10" y="28" width="3" height="3" fill="hsl(0, 100%, 60%)" />
<rect x="52" y="28" width="3" height="3" fill="hsl(0, 100%, 60%)" />
<rect x="55" y="28" width="3" height="3" fill="hsl(0, 100%, 60%)" />
<rect x="85" y="28" width="3" height="3" fill="hsl(0, 100%, 60%)" />
<rect x="10" y="31" width="3" height="3" fill="hsl(0, 100%, 60%)" />
<rect x="13" y="31" width="3" height="3" fill="hsl(0, 100%, 60%)" />
<rect x="16" y="31" width="3" height="3" fill="hsl(0, 100%, 60%)" />
<rect x="19" y="31" width="3" height="3" fill="hsl(0, 100%, 60%)" />
<rect x="22" y="31" width="3" height="3" fill="hsl(0, 100%, 60%)" />
<rect x="25" y="31" width="3" height="3" fill="hsl(0, 100%, 60%)" />
<rect x="52" y="31" width="3" height="3" fill="hsl(0, 100%, 60%)" />
<rect x="70" y="31" width="3" height="3" fill="hsl(0, 100%, 60%)" />
<rect x="73" y="31" width="3" height="3" fill="hsl(0, 100%, 60%)" />
<rect x="76" y="31" width="3" height="3" fill="hsl(0, 100%, 60%)" />
<rect x="79" y="31" width="3" height="3" fill="hsl(0, 100%, 60%)" />
<rect x="82" y="31" width="3" height="3" fill="hsl(0, 100%, 60%)" />
<rect x="85" y="31" width="3" height="3" fill="hsl(0, 100%, 60%)" />
<rect x="25" y="34" width="3" height="3" fill="hsl(0, 100%, 60%)" />
<rect x="70" y="34" width="3" height="3" fill="hsl(0, 100%, 60%)" />
<rect x="16" y="37" width="3" height="3" fill="hsl(0, 100%, 60%)" />
<rect x="19" y="37" width="3" height="3" fill="hsl(0, 100%, 60%)" />
<rect x="76" y="37" width="3" height="3" fill="hsl(0, 100%, 60%)" />
<rect x="79" y="37" width="3" height="3" fill="hsl(0, 100%, 60%)" />
<rect x="16" y="40" width="3" height="3" fill="hsl(0, 100%, 60%)" />
<rect x="79" y="40" width="3" height="3" fill="hsl(0, 100%, 60%)" />
<rect x="19" y="43" width="3" height="3" fill="hsl(0, 100%, 60%)" />
<rect x="76" y="43" width="3" height="3" fill="hsl(0, 100%, 60%)" />
<rect x="10" y="46" width="3" height="3" fill="hsl(0, 100%, 60%)" />
<rect x="13" y="46" width="3" height="3" fill="hsl(0, 100%, 60%)" />
<rect x="16" y="46" width="3" height="3" fill="hsl(0, 100%, 60%)" />
<rect x="25" y="46" width="3" height="3" fill="hsl(0, 100%, 60%)" />
<rect x="70" y="46" width="3" height="3" fill="hsl(0, 100%, 60%)" />
<rect x="79" y="46" width="3" height="3" fill="hsl(0, 100%, 60%)" />
<rect x="82" y="46" width="3" height="3" fill="hsl(0, 100%, 60%)" />
<rect x="85" y="46" width="3" height="3" fill="hsl(0, 100%, 60%)" />
<rect x="10" y="49" width="3" height="3" fill="hsl(0, 100%, 60%)" />
<rect x="19" y="49" width="3" height="3" fill="hsl(0, 100%, 60%)" />
<rect x="22" y="49" width="3" height="3" fill="hsl(0, 100%, 60%)" />
<rect x="25" y="49" width="3" height="3" fill="hsl(0, 100%, 60%)" />
<rect x="52" y="49" width="3" height="3" fill="hsl(0, 100%, 60%)" />
<rect x="70" y="49" width="3" height="3" fill="hsl(0, 100%, 60%)" />
<rect x="73" y="49" width="3" height="3" fill="hsl(0, 100%, 60%)" />
<rect x="76" y="49" width="3" height="3" fill="hsl(0, 100%, 60%)" />
<rect x="88" y="49" width="3" height="3" fill="hsl(0, 100%, 60%)" />
<rect x="13" y="52" width="3" height="3" fill="hsl(0, 100%, 60%)" />
<rect x="52" y="52" width="3" height="3" fill="hsl(0, 100%, 60%)" />
<rect x="55" y="52" width="3" height="3" fill="hsl(0, 100%, 60%)" />
<rect x="79" y="52" width="3" height="3" fill="hsl(0, 100%, 60%)" />
<rect x="82" y="52" width="3" height="3" fill="hsl(0, 100%, 60%)" />
<rect x="85" y="52" width="3" height="3" fill="hsl(0, 100%, 60%)" />
<rect x="16" y="55" width="3" height="3" fill="hsl(0, 100%, 60%)" />
<rect x="19" y="55" width="3" height="3" fill="hsl(0, 100%, 60%)" />
<rect x="52" y="55" width="3" height="3" fill="hsl(0, 100%, 60%)" />
<rect x="58" y="55" width="3" height="3" fill="hsl(0, 100%, 60%)" />
<rect x="76" y="55" width="3" height="3" fill="hsl(0, 100%, 60%)" />
<rect x="22" y="58" width="3" height="3" fill="hsl(0, 100%, 60%)" />
<rect x="55" y="58" width="3" height="3" fill="hsl(0, 100%, 60%)" />
<rect x="58" y="58" width="3" height="3" fill="hsl(0, 100%, 60%)" />
<rect x="73" y="58" width="3" height="3" fill="hsl(0, 100%, 60%)" />
<rect x="82" y="58" width="3" height="3" fill="hsl(0, 100%, 60%)" />
<rect x="85" y="58" width="3" height="3" fill="hsl(0, 100%, 60%)" />
<rect x="16" y="61" width="3" height="3" fill="hsl(0, 100%, 60%)" />
<rect x="19" y="61" width="3" height="3" fill="hsl(0, 100%, 60%)" />
<rect x="76" y="61" width="3" height="3" fill="hsl(0, 100%, 60%)" />
<rect x="79" y="61" width="3" height="3" fill="hsl(0, 100%, 60%)" />
<rect x="85" y="61" width="3" height="3" fill="hsl(0, 100%, 60%)" />
<rect x="7" y="64" width="3" height="3" fill="hsl(0, 100%, 60%)" />
<rect x="16" y="64" width="3" height="3" fill="hsl(0, 100%, 60%)" />
<rect x="79" y="64" width="3" height="3" fill="hsl(0, 100%, 60%)" />
<rect x="4" y="67" width="3" height="3" fill="hsl(0, 100%, 60%)" />
<rect x="10" y="67" width="3" height="3" fill="hsl(0, 100%, 60%)" />
<rect x="16" y="67" width="3" height="3" fill="hsl(0, 100%, 60%)" />
<rect x="25" y="67" width="3" height="3" fill="hsl(0, 100%, 60%)" />
<rect x="28" y="67" width="3" height="3" fill="hsl(0, 100%, 60%)" />
<rect x="67" y="67" width="3" height="3" fill="hsl(0, 100%, 60%)" />
<rect x="70" y="67" width="3" height="3" fill="hsl(0, 100%, 60%)" />
<rect x="79" y="67" width="3" height="3" fill="hsl(0, 100%, 60%)" />
<rect x="7" y="70" width="3" height="3" fill="hsl(0, 100%, 60%)" />
<rect x="16" y="70" width="3" height="3" fill="hsl(0, 100%, 60%)" />
<rect x="22" y="70" width="3" height="3" fill="hsl(0, 100%, 60%)" />
<rect x="28" y="70" width="3" height="3" fill="hsl(0, 100%, 60%)" />
<rect x="67" y="70" width="3" height="3" fill="hsl(0, 100%, 60%)" />
<rect x="73" y="70" width="3" height="3" fill="hsl(0, 100%, 60%)" />
<rect x="79" y="70" width="3" height="3" fill="hsl(0, 100%, 60%)" />
<rect x="82" y="70" width="3" height="3" fill="hsl(0, 100%, 60%)" />
<rect x="16" y="73" width="3" height="3" fill="hsl(0, 100%, 60%)" />
<rect x="22" y="73" width="3" height="3" fill="hsl(0, 100%, 60%)" />
<rect x="73" y="73" width="3" height="3" fill="hsl(0, 100%, 60%)" />
<rect x="82" y="73" width="3" height="3" fill="hsl(0, 100%, 60%)" />
<rect x="19" y="76" width="3" height="3" fill="hsl(0, 100%, 60%)" />
<rect x="22" y="76" width="3" height="3" fill="hsl(0, 100%, 60%)" />
<rect x="73" y="76" width="3" height="3" fill="hsl(0, 100%, 60%)" />
<rect x="76" y="76" width="3" height="3" fill="hsl(0, 100%, 60%)" />
</svg>