<?xml version="1.0" encoding="utf-8"?>
<svg xmlns="http://www.w3.org/2000/svg" width="68" height="36" viewBox="0 0 68 36">
<rect width="100%" height="100%" fill="transparent" />
<rect x="30" y="4" width="2" height="2" fill="hsl(0, 100%, 60%)" />
<rect x="36" y="4" width="2" height="2" fill="hsl(0, 100%, 60%)" />
<rect x="38" y="4" width="2" height="2" fill="hsl(0, 100%, 60%)" />
<rect x="52" y="4" width="2" height="2" fill="hsl(0, 100%, 60%)" />
<rect x="58" y="4" width="2" height="2" fill="hsl(0, 100%, 60%)" />
<rect x="60" y="4" width="2" height="2" fill="hsl(0, 100%, 60%)" />
<rect x="62" y="4" width="2" height="2" fill="hsl(0, 100%, 60%)" />
<rect x="14" y="6" width="2" height="2" fill="hsl(0, 100%, 60%)" />
<rect x="22" y="6" width="2" height="2" fill="hsl(0, 100%, 60%)" />
<rect x="24" y="6" width="2" height="2" fill="hsl(0, 100%, 60%)" />
<rect x="26" y="6" width="2" height="2" fill="hsl(0, 100%, 60%)" />
<rect x="28" y="6" width="2" height="2" fill="hsl(0, 100%, 60%)" />
<rect x="32" y="6" width="2" height="2" fill="hsl(0, 100%, 60%)" />
<rect x="34" y="6" width="2" height="2" fill="hsl(0, 100%, 60%)" />
<rect x="36" y="6" width="2" height="2" fill="hsl(0, 100%, 60%)" />
<rect x="38" y="6" width="2" height="2" fill="hsl(0, 100%, 60%)" />
<rect x="40" y="6" width="2" height="2" fill="hsl(0, 100%, 60%)" />
<rect x="42" y="6" width="2" height="2" fill="hsl(0, 100%, 60%)" />
<rect x="52" y="6" width="2" height="2" fill="hsl(0, 100%, 60%)" />
<rect x="58" y="6" width="2" height="2" fill="hsl(0, 100%, 60%)" />
<rect x="60" y="6" width="2" height="2" fill="hsl(0, 100%, 60%)" />
<rect x="62" y="6" width="2" height="2" fill="hsl(0, 100%, 60%)" />
<rect x="6" y="8" width="2" height="2" fill="hsl(0, 100%, 60%)" />
<rect x="8" y="8" width="2" height="2" fill="hsl(0, 100%, 60%)" />
<rect x="10" y="8" width="2" height="2" fill="hsl(0, 100%, 60%)" />
<rect x="12" y="8" width="2" height="2" fill="hsl(0, 100%, 60%)" />
<rect x="14" y="8" width="2" height="2" fill="hsl(0, 100%, 60%)" />
<rect x="24" y="8" width="2" height="2" fill="hsl(0, 100%, 60%)" />
<rect x="34" y="8" width="2" height="2" fill="hsl(0, 100%, 60%)" />
<rect x="44" y="8" width="2" height="2" fill="hsl(0, 100%, 60%)" />
<rect x="46" y="8" width="2" height="2" fill="hsl(0, 100%, 60%)" />
<rect x="48" y="8" width="2" height="2" fill="hsl(0, 100%, 60%)" />
<rect x="4" y="10" width="2" height="2" fill="hsl(0, 100%, 60%)" />
<rect x="18" y="10" width="2" height="2" fill="hsl(0, 100%, 60%)" />
<rect x="20" y="10" width="2" height="2" fill="hsl(0, 100%, 60%)" />
<rect x="24" y="10" width="2" height="2" fill="hsl(0, 100%, 60%)" />
<rect x="38" y="10" width="2" height="2" fill="hsl(0, 100%, 60%)" />
<rect x="40" y="10" width="2" height="2" fill="hsl(0, 100%, 60%)" />
<rect x="44" y="10" width="2" height="2" fill="hsl(0, 100%, 60%)" />
<rect x="46" y="10" width="2" height="2" fill="hsl(0, 100%, 60%)" />
<rect x="48" y="10" width="2" height="2" fill="hsl(0, 100%, 60%)" />
<rect x="54" y="10" width="2" height="2" fill="hsl(0, 100%, 60%)" />
<rect x="58" y="10" width="2" height="2" fill="hsl(0, 100%, 60%)" />
<rect x="60" y="10" width="2" height="2" fill="hsl(0, 100%, 60%)" />
<rect x="62" y="10" width="2" height="2" fill="hsl(0, 100%, 60%)" />
<rect x="6" y="12" width="2" height="2" fill="hsl(0, 100%, 60%)" />
<rect x="8" y="12" width="2" height="2" fill="hsl(0, 100%, 60%)" />
<rect x="10" y="12" width="2" height="2" fill="hsl(0, 100%, 60%)" />
<rect x="12" y="12" width="2" height="2" fill="hsl(0, 100%, 60%)" />
<rect x="14" y="12" width="2" height="2" fill="hsl(0, 100%, 60%)" />
<rect x="18" y="12" width="2" height="2" fill="hsl(0, 100%, 60%)" />
<rect x="20" y="12" width="2" height="2" fill="hsl(0, 100%, 60%)" />
<rect x="22" y="12" width="2" height="2" fill="hsl(0, 100%, 60%)" />
<rect x="40" y="12" width="2" height="2" fill="hsl(0, 100%, 60%)" />
<rect x="42" y="12" width="2" height="2" fill="hsl(0, 100%, 60%)" />
<rect x="44" y="12" width="2" height="2" fill="hsl(0, 100%, 60%)" />
<rect x="46" y="12" width="2" height="2" fill="hsl(0, 100%, 60%)" />
<rect x="54" y="12" width="2" height="2" fill="hsl(0, 100%, 60%)" />
<rect x="58" y="12" width="2" height="2" fill="hsl(0, 100%, 60%)" />
<rect x="60" y="12" width="2" height="2" fill="hsl(0, 100%, 60%)" />
<rect x="62" y="12" width="2" height="2" fill="hsl(0, 100%, 60%)" />
<rect x="14" y="14" width="2" height="2" fill="hsl(0, 100%, 60%)" />
<rect x="20" y="14" width="2" height="2" fill="hsl(0, 100%, 60%)" />
<rect x="50" y="14" width="2" height="2" fill="hsl(0, 100%, 60%)" />
<rect x="20" y="16" width="2" height="2" fill="hsl(0, 100%, 60%)" />
<rect x="22" y="16" width="2" height="2" fill="hsl(0, 100%, 60%)" />
<rect x="44" y="16" width="2" height="2" fill="hsl(0, 100%, 60%)" />
<rect x="46" y="16" width="2" height="2" fill="hsl(0, 100%, 60%)" />
<rect x="50" y="16" width="2" height="2" fill="hsl(0, 100%, 60%)" />
<rect x="52" y="16" width="2" height="2" fill="hsl(0, 100%, 60%)" />
<rect x="20" y="18" width="2" height="2" fill="hsl(0, 100%, 60%)" />
<rect x="22" y="18" width="2" height="2" fill="hsl(0, 100%, 60%)" />
<rect x="44" y="18" width="2" height="2" fill="hsl(0, 100%, 60%)" />
<rect x="46" y="18" width="2" height="2" fill="hsl(0, 100%, 60%)" />
<rect x="50" y="18" width="2" height="2" fill="hsl(0, 100%, 60%)" />
<rect x="52" y="18" width="2" height="2" fill="hsl(0, 100%, 60%)" />
<rect x="14" y="20" width="2" height="2" fill="hsl(0, 100%, 60%)" />
<rect x="20" y="20" width="2" height="2" fill="hsl(0, 100%, 60%)" />
<rect x="50" y="20" width="2" height="2" fill="hsl(0, 100%, 60%)" />
<rect x="6" y="22" width="2" height="2" fill="hsl(0, 100%, 60%)" />
<rect x="8" y="22" width="2" height="2" fill="hsl(0, 100%, 60%)" />
<rect x="10" y="22" width="2" height="2" fill="hsl(0, 100%, 60%)" />
<rect x="12" y="22" width="2" height="2" fill="hsl(0, 100%, 60%)" />
<rect x="14" y="22" width="2" height="2" fill="hsl(0, 100%, 60%)" />
<rect x="18" y="22" width="2" height="2" fill="hsl(0, 100%, 60%)" />
<rect x="20" y="22" width="2" height="2" fill="hsl(0, 100%, 60%)" />
<rect x="22" y="22" width="2" height="2" fill="hsl(0, 100%, 60%)" />
<rect x="40" y="22" width="2" height="2" fill="hsl(0, 100%, 60%)" />
<rect x="42" y="22" width="2" height="2" fill="hsl(0, 100%, 60%)" />
<rect x="44" y="22" width="2" height="2" fill="hsl(0, 100%, 60%)" />
<rect x="46" y="22" width="2" height="2" fill="hsl(0, 100%, 60%)" />
<rect x="54" y="22" width="2" height="2" fill="hsl(0, 100%, 60%)" />
<rect x="58" y="22" width="2" height="2" fill="hsl(0, 100%, 60%)" />
<rect x="60" y="22" width="2" height="2" fill="hsl(0, 100%, 60%)" />
<rect x="62" y="22" width="2" height="2" fill="hsl(0, 100%, 60%)" />
<rect x="4" y="24" width="2" height="2" fill="hsl(0, 100%, 60%)" />
<rect x="18" y="24" width="2" height="2" fill="hsl(0, 100%, 60%)" />
<rect x="20" y="24" width="2" height="2" fill="hsl(0, 100%, 60%)" />
<rect x="24" y="24" width="2" height="2" fill="hsl(0, 100%, 60%)" />
<rect x="38" y="24" width="2" height="2" fill="hsl(0, 100%, 60%)" />
<rect x="40" y="24" width="2" height="2" fill="hsl(0, 100%, 60%)" />
<rect x="44" y="24" width="2" height="2" fill="hsl(0, 100%, 60%)" />
<rect x="46" y="24" width="2" height="2" fill="hsl(0, 100%, 60%)" />
<rect x="48" y="24" width="2" height="2" fill="hsl(0, 100%, 60%)" />
<rect x="54" y="24" width="2" height="2" fill="hsl(0, 100%, 60%)" />
<rect x="58" y="24" width="2" height="2" fill="hsl(0, 100%, 60%)" />
<rect x="60" y="24" width="2" height="2" fill="hsl(0, 100%, 60%)" />
<rect x="62" y="24" width="2" height="2" fill="hsl(0, 100%, 60%)" />
<rect x="6" y="26" width="2" height="2" fill="hsl(0, 100%, 60%)" />
<rect x="8" y="26" width="2" height="2" fill="hsl(0, 100%, 60%)" />
<rect x="10" y="26" width="2" height="2" fill="hsl(0, 100%, 60%)" />
<rect x="12" y="26" width="2" height="2" fill="hsl(0, 100%, 60%)" />
<rect x="14" y="26" width="2" height="2" fill="hsl(0, 100%, 60%)" />
<rect x="24" y="26" width="2" height="2" fill="hsl(0, 100%, 60%)" />
<rect x="34" y="26" width="2" height="2" fill="hsl(0, 100%, 60%)" />
<rect x="44" y="26" width="2" height="2" fill="hsl(0, 100%, 60%)" />
<rect x="46" y="26" width="2" height="2" fill="hsl(0, 100%, 60%)" />
<rect x="48" y="26" width="2" height="2" fill="hsl(0, 100%, 60%)" />
<rect x="14" y="28" width="2" height="2" fill="hsl(0, 100%, 60%)" />
<rect x="22" y="28" width="2" height="2" fill="hsl(0, 100%, 60%)" />
<rect x="24" y="28" width="2" height="2" fill="hsl(0, 100%, 60%)" />
<rect x="26" y="28" width="2" height="2" fill="hsl(0, 100%, 60%)" />
<rect x="28" y="28" width="2" height="2" fill="hsl(0, 100%, 60%)" />
<rect x="32" y="28" width="2" height="2" fill="hsl(0, 100%, 60%)" />
<rect x="34" y="28" width="2" height="2" fill="hsl(0, 100%, 60%)" />
<rect x="36" y="28" width="2" height="2" fill="hsl(0, 100%, 60%)" />
<rect x="38" y="28" width="2" height="2" fill="hsl(0, 100%, 60%)" />
<rect x="40" y="28" width="2" height="2" fill="hsl(0, 100%, 60%)" />
<rect x="42" y="28" width="2" height="2" fill="hsl(0, 100%, 60%)" />
<rect x="52" y="28" width="2" height="2" fill="hsl(0, 100%, 60%)" />
<rect x="58" y="28" width="2" height="2" fill="hsl(0, 100%, 60%)" />
<rect x="60" y="28" width="2" height="2" fill="hsl(0, 100%, 60%)" />
<rect x="62" y="28" width="2" height="2" fill="hsl(0, 100%, 60%)" />
<rect x="30" y="30" width="2" height="2" fill="hsl(0, 100%, 60%)" />
<rect x="36" y="30" width="2" height="2" fill="hsl(0, 100%, 60%)" />
<rect x="38" y="30" width="2" height="2" fill="hsl(0, 100%, 60%)" />
<rect x="52" y="30" width="2" height="2" fill="hsl(0, 100%, 60%)" />
<rect x="58" y="30" width="2" height="2" fill="hsl(0, 100%, 60%)" />
<rect x="60" y="30" width="2" height="2" fill="hsl(0, 100%, 60%)" />
<rect x="62" y="30" width="2" height="2" fill="hsl(0, 100%, 60%)" />
</svg>