<?xml version="1.0" encoding="utf-8"?>
<svg xmlns="http://www.w3.org/2000/svg" width="95" height="44" viewBox="0 0 95 44">
<rect width="100%" height="100%" fill="transparent" />
<rect x="4" y="4" width="3" height="3" fill="hsl(0, 100%, 60%)" />
<rect x="7" y="4" width="3" height="3" fill="hsl(0, 100%, 60%)" />
<rect x="4" y="7" width="3" height="3" fill="hsl(0, 100%, 60%)" />
<rect x="7" y="10" width="3" height="3" fill="hsl(0, 100%, 60%)" />
<rect x="10" y="10" width="3" height="3" fill="hsl(0, 100%, 60%)" />
<rect x="13" y="10" width="3" height="3" fill="hsl(0, 100%, 60%)" />
<rect x="13" y="13" width="3" height="3" fill="hsl(0, 100%, 60%)" />
<rect x="85" y="16" width="3" height="3" fill="hsl(0, 100%, 60%)" />
<rect x="88" y="16" width="3" height="3" fill="hsl(0, 100%, 60%)" />
<rect x="85" y="19" width="3" height="3" fill="hsl(0, 100%, 60%)" />
<rect x="10" y="22" width="3" height="3" fill="hsl(0, 100%, 60%)" />
<rect x="79" y="22" width="3" height="3" fill="hsl(0, 100%, 60%)" />
<rect x="85" y="22" width="3" height="3" fill="hsl(0, 100%, 60%)" />
<rect x="4" y="25" width="3" height="3" fill="hsl(0, 100%, 60%)" />
<rect x="16" y="25" width="3" height="3" fill="hsl(0, 100%, 60%)" />
<rect x="46" y="25" width="3" height="3" fill="hsl(0, 100%, 60%)" />
<rect x="79" y="25" width="3" height="3" fill="hsl(0, 100%, 60%)" />
<rect x="82" y="25" width="3" height="3" fill="hsl(0, 100%, 60%)" />
<rect x="19" y="28" width="3" height="3" fill="hsl(0, 100%, 60%)" />
<rect x="49" y="28" width="3" height="3" fill="hsl(0, 100%, 60%)" />
<rect x="4" y="31" width="3" height="3" fill="hsl(0, 100%, 60%)" />
<rect x="19" y="31" width="3" height="3" fill="hsl(0, 100%, 60%)" />
<rect x="37" y="31" width="3" height="3" fill="hsl(0, 100%, 60%)" />
<rect x="49" y="31" width="3" height="3" fill="hsl(0, 100%, 60%)" />
<rect x="67" y="31" width="3" height="3" fill="hsl(0, 100%, 60%)" />
<rect x="70" y="31" width="3" height="3" fill="hsl(0, 100%, 60%)" />
<rect x="73" y="31" width="3" height="3" fill="hsl(0, 100%, 60%)" />
<rect x="7" y="34" width="3" height="3" fill="hsl(0, 100%, 60%)" />
<rect x="10" y="34" width="3" height="3" fill="hsl(0, 100%, 60%)" />
<rect x="13" y="34" width="3" height="3" fill="hsl(0, 100%, 60%)" />
<rect x="16" y="34" width="3" height="3" fill="hsl(0, 100%, 60%)" />
<rect x="19" y="34" width="3" height="3" fill="hsl(0, 100%, 60%)" />
<rect x="40" y="34" width="3" height="3" fill="hsl(0, 100%, 60%)" />
<rect x="43" y="34" width="3" height="3" fill="hsl(0, 100%, 60%)" />
<rect x="46" y="34" width="3" height="3" fill="hsl(0, 100%, 60%)" />
<rect x="49" y="34" width="3" height="3" fill="hsl(0, 100%, 60%)" />
<rect x="73" y="34" width="3" height="3" fill="hsl(0, 100%, 60%)" />
<rect x="70" y="37" width="3" height="3" fill="hsl(0, 100%, 60%)" />
</svg>