<?xml version="1.0" encoding="utf-8"?>
<svg xmlns="http://www.w3.org/2000/svg" width="69" height="23" viewBox="0 0 69 23">
<rect width="100%" height="100%" fill="transparent" />
<rect x="14" y="4" width="1" height="1" fill="hsl(0, 100%, 60%)" />
<rect x="13" y="5" width="1" height="1" fill="hsl(0, 100%, 60%)" />
<rect x="15" y="5" width="1" height="1" fill="hsl(0, 100%, 60%)" />
<rect x="40" y="5" width="1" height="1" fill="hsl(0, 100%, 60%)" />
<rect x="41" y="5" width="1" height="1" fill="hsl(0, 100%, 60%)" />
<rect x="6" y="6" width="1" height="1" fill="hsl(0, 100%, 60%)" />
<rect x="11" y="6" width="1" height="1" fill="hsl(0, 100%, 60%)" />
<rect x="12" y="6" width="1" height="1" fill="hsl(0, 100%, 60%)" />
<rect x="13" y="6" width="1" height="1" fill="hsl(0, 100%, 60%)" />
<rect x="15" y="6" width="1" height="1" fill="hsl(0, 100%, 60%)" />
<rect x="21" y="6" width="1" height="1" fill="hsl(0, 100%, 60%)" />
<rect x="41" y="6" width="1" height="1" fill="hsl(0, 100%, 60%)" />
<rect x="45" y="6" width="1" height="1" fill="hsl(0, 100%, 60%)" />
<rect x="48" y="6" width="1" height="1" fill="hsl(0, 100%, 60%)" />
<rect x="55" y="6" width="1" height="1" fill="hsl(0, 100%, 60%)" />
<rect x="61" y="6" width="1" height="1" fill="hsl(0, 100%, 60%)" />
<rect x="62" y="6" width="1" height="1" fill="hsl(0, 100%, 60%)" />
<rect x="5" y="7" width="1" height="1" fill="hsl(0, 100%, 60%)" />
<rect x="7" y="7" width="1" height="1" fill="hsl(0, 100%, 60%)" />
<rect x="10" y="7" width="1" height="1" fill="hsl(0, 100%, 60%)" />
<rect x="15" y="7" width="1" height="1" fill="hsl(0, 100%, 60%)" />
<rect x="16" y="7" width="1" height="1" fill="hsl(0, 100%, 60%)" />
<rect x="20" y="7" width="1" height="1" fill="hsl(0, 100%, 60%)" />
<rect x="22" y="7" width="1" height="1" fill="hsl(0, 100%, 60%)" />
<rect x="41" y="7" width="1" height="1" fill="hsl(0, 100%, 60%)" />
<rect x="43" y="7" width="1" height="1" fill="hsl(0, 100%, 60%)" />
<rect x="44" y="7" width="1" height="1" fill="hsl(0, 100%, 60%)" />
<rect x="45" y="7" width="1" height="1" fill="hsl(0, 100%, 60%)" />
<rect x="48" y="7" width="1" height="1" fill="hsl(0, 100%, 60%)" />
<rect x="49" y="7" width="1" height="1" fill="hsl(0, 100%, 60%)" />
<rect x="50" y="7" width="1" height="1" fill="hsl(0, 100%, 60%)" />
<rect x="54" y="7" width="1" height="1" fill="hsl(0, 100%, 60%)" />
<rect x="56" y="7" width="1" height="1" fill="hsl(0, 100%, 60%)" />
<rect x="61" y="7" width="1" height="1" fill="hsl(0, 100%, 60%)" />
<rect x="5" y="8" width="1" height="1" fill="hsl(0, 100%, 60%)" />
<rect x="7" y="8" width="1" height="1" fill="hsl(0, 100%, 60%)" />
<rect x="10" y="8" width="1" height="1" fill="hsl(0, 100%, 60%)" />
<rect x="12" y="8" width="1" height="1" fill="hsl(0, 100%, 60%)" />
<rect x="13" y="8" width="1" height="1" fill="hsl(0, 100%, 60%)" />
<rect x="21" y="8" width="1" height="1" fill="hsl(0, 100%, 60%)" />
<rect x="42" y="8" width="1" height="1" fill="hsl(0, 100%, 60%)" />
<rect x="46" y="8" width="1" height="1" fill="hsl(0, 100%, 60%)" />
<rect x="47" y="8" width="1" height="1" fill="hsl(0, 100%, 60%)" />
<rect x="51" y="8" width="1" height="1" fill="hsl(0, 100%, 60%)" />
<rect x="53" y="8" width="1" height="1" fill="hsl(0, 100%, 60%)" />
<rect x="56" y="8" width="1" height="1" fill="hsl(0, 100%, 60%)" />
<rect x="63" y="8" width="1" height="1" fill="hsl(0, 100%, 60%)" />
<rect x="4" y="9" width="1" height="1" fill="hsl(0, 100%, 60%)" />
<rect x="5" y="9" width="1" height="1" fill="hsl(0, 100%, 60%)" />
<rect x="7" y="9" width="1" height="1" fill="hsl(0, 100%, 60%)" />
<rect x="8" y="9" width="1" height="1" fill="hsl(0, 100%, 60%)" />
<rect x="10" y="9" width="1" height="1" fill="hsl(0, 100%, 60%)" />
<rect x="12" y="9" width="1" height="1" fill="hsl(0, 100%, 60%)" />
<rect x="14" y="9" width="1" height="1" fill="hsl(0, 100%, 60%)" />
<rect x="15" y="9" width="1" height="1" fill="hsl(0, 100%, 60%)" />
<rect x="16" y="9" width="1" height="1" fill="hsl(0, 100%, 60%)" />
<rect x="17" y="9" width="1" height="1" fill="hsl(0, 100%, 60%)" />
<rect x="18" y="9" width="1" height="1" fill="hsl(0, 100%, 60%)" />
<rect x="24" y="9" width="1" height="1" fill="hsl(0, 100%, 60%)" />
<rect x="43" y="9" width="1" height="1" fill="hsl(0, 100%, 60%)" />
<rect x="44" y="9" width="1" height="1" fill="hsl(0, 100%, 60%)" />
<rect x="48" y="9" width="1" height="1" fill="hsl(0, 100%, 60%)" />
<rect x="51" y="9" width="1" height="1" fill="hsl(0, 100%, 60%)" />
<rect x="53" y="9" width="1" height="1" fill="hsl(0, 100%, 60%)" />
<rect x="55" y="9" width="1" height="1" fill="hsl(0, 100%, 60%)" />
<rect x="56" y="9" width="1" height="1" fill="hsl(0, 100%, 60%)" />
<rect x="58" y="9" width="1" height="1" fill="hsl(0, 100%, 60%)" />
<rect x="59" y="9" width="1" height="1" fill="hsl(0, 100%, 60%)" />
<rect x="62" y="9" width="1" height="1" fill="hsl(0, 100%, 60%)" />
<rect x="63" y="9" width="1" height="1" fill="hsl(0, 100%, 60%)" />
<rect x="5" y="10" width="1" height="1" fill="hsl(0, 100%, 60%)" />
<rect x="7" y="10" width="1" height="1" fill="hsl(0, 100%, 60%)" />
<rect x="10" y="10" width="1" height="1" fill="hsl(0, 100%, 60%)" />
<rect x="14" y="10" width="1" height="1" fill="hsl(0, 100%, 60%)" />
<rect x="17" y="10" width="1" height="1" fill="hsl(0, 100%, 60%)" />
<rect x="20" y="10" width="1" height="1" fill="hsl(0, 100%, 60%)" />
<rect x="28" y="10" width="1" height="1" fill="hsl(0, 100%, 60%)" />
<rect x="29" y="10" width="1" height="1" fill="hsl(0, 100%, 60%)" />
<rect x="33" y="10" width="1" height="1" fill="hsl(0, 100%, 60%)" />
<rect x="34" y="10" width="1" height="1" fill="hsl(0, 100%, 60%)" />
<rect x="38" y="10" width="1" height="1" fill="hsl(0, 100%, 60%)" />
<rect x="39" y="10" width="1" height="1" fill="hsl(0, 100%, 60%)" />
<rect x="44" y="10" width="1" height="1" fill="hsl(0, 100%, 60%)" />
<rect x="45" y="10" width="1" height="1" fill="hsl(0, 100%, 60%)" />
<rect x="47" y="10" width="1" height="1" fill="hsl(0, 100%, 60%)" />
<rect x="48" y="10" width="1" height="1" fill="hsl(0, 100%, 60%)" />
<rect x="51" y="10" width="1" height="1" fill="hsl(0, 100%, 60%)" />
<rect x="53" y="10" width="1" height="1" fill="hsl(0, 100%, 60%)" />
<rect x="56" y="10" width="1" height="1" fill="hsl(0, 100%, 60%)" />
<rect x="58" y="10" width="1" height="1" fill="hsl(0, 100%, 60%)" />
<rect x="60" y="10" width="1" height="1" fill="hsl(0, 100%, 60%)" />
<rect x="5" y="11" width="1" height="1" fill="hsl(0, 100%, 60%)" />
<rect x="8" y="11" width="1" height="1" fill="hsl(0, 100%, 60%)" />
<rect x="9" y="11" width="1" height="1" fill="hsl(0, 100%, 60%)" />
<rect x="14" y="11" width="1" height="1" fill="hsl(0, 100%, 60%)" />
<rect x="15" y="11" width="1" height="1" fill="hsl(0, 100%, 60%)" />
<rect x="22" y="11" width="1" height="1" fill="hsl(0, 100%, 60%)" />
<rect x="23" y="11" width="1" height="1" fill="hsl(0, 100%, 60%)" />
<rect x="24" y="11" width="1" height="1" fill="hsl(0, 100%, 60%)" />
<rect x="26" y="11" width="1" height="1" fill="hsl(0, 100%, 60%)" />
<rect x="27" y="11" width="1" height="1" fill="hsl(0, 100%, 60%)" />
<rect x="31" y="11" width="1" height="1" fill="hsl(0, 100%, 60%)" />
<rect x="32" y="11" width="1" height="1" fill="hsl(0, 100%, 60%)" />
<rect x="36" y="11" width="1" height="1" fill="hsl(0, 100%, 60%)" />
<rect x="37" y="11" width="1" height="1" fill="hsl(0, 100%, 60%)" />
<rect x="41" y="11" width="1" height="1" fill="hsl(0, 100%, 60%)" />
<rect x="42" y="11" width="1" height="1" fill="hsl(0, 100%, 60%)" />
<rect x="43" y="11" width="1" height="1" fill="hsl(0, 100%, 60%)" />
<rect x="49" y="11" width="1" height="1" fill="hsl(0, 100%, 60%)" />
<rect x="50" y="11" width="1" height="1" fill="hsl(0, 100%, 60%)" />
<rect x="51" y="11" width="1" height="1" fill="hsl(0, 100%, 60%)" />
<rect x="52" y="11" width="1" height="1" fill="hsl(0, 100%, 60%)" />
<rect x="54" y="11" width="1" height="1" fill="hsl(0, 100%, 60%)" />
<rect x="55" y="11" width="1" height="1" fill="hsl(0, 100%, 60%)" />
<rect x="56" y="11" width="1" height="1" fill="hsl(0, 100%, 60%)" />
<rect x="58" y="11" width="1" height="1" fill="hsl(0, 100%, 60%)" />
<rect x="62" y="11" width="1" height="1" fill="hsl(0, 100%, 60%)" />
<rect x="63" y="11" width="1" height="1" fill="hsl(0, 100%, 60%)" />
<rect x="6" y="12" width="1" height="1" fill="hsl(0, 100%, 60%)" />
<rect x="9" y="12" width="1" height="1" fill="hsl(0, 100%, 60%)" />
<rect x="10" y="12" width="1" height="1" fill="hsl(0, 100%, 60%)" />
<rect x="11" y="12" width="1" height="1" fill="hsl(0, 100%, 60%)" />
<rect x="14" y="12" width="1" height="1" fill="hsl(0, 100%, 60%)" />
<rect x="17" y="12" width="1" height="1" fill="hsl(0, 100%, 60%)" />
<rect x="19" y="12" width="1" height="1" fill="hsl(0, 100%, 60%)" />
<rect x="20" y="12" width="1" height="1" fill="hsl(0, 100%, 60%)" />
<rect x="21" y="12" width="1" height="1" fill="hsl(0, 100%, 60%)" />
<rect x="22" y="12" width="1" height="1" fill="hsl(0, 100%, 60%)" />
<rect x="26" y="12" width="1" height="1" fill="hsl(0, 100%, 60%)" />
<rect x="27" y="12" width="1" height="1" fill="hsl(0, 100%, 60%)" />
<rect x="31" y="12" width="1" height="1" fill="hsl(0, 100%, 60%)" />
<rect x="32" y="12" width="1" height="1" fill="hsl(0, 100%, 60%)" />
<rect x="36" y="12" width="1" height="1" fill="hsl(0, 100%, 60%)" />
<rect x="37" y="12" width="1" height="1" fill="hsl(0, 100%, 60%)" />
<rect x="41" y="12" width="1" height="1" fill="hsl(0, 100%, 60%)" />
<rect x="42" y="12" width="1" height="1" fill="hsl(0, 100%, 60%)" />
<rect x="43" y="12" width="1" height="1" fill="hsl(0, 100%, 60%)" />
<rect x="45" y="12" width="1" height="1" fill="hsl(0, 100%, 60%)" />
<rect x="46" y="12" width="1" height="1" fill="hsl(0, 100%, 60%)" />
<rect x="49" y="12" width="1" height="1" fill="hsl(0, 100%, 60%)" />
<rect x="54" y="12" width="1" height="1" fill="hsl(0, 100%, 60%)" />
<rect x="56" y="12" width="1" height="1" fill="hsl(0, 100%, 60%)" />
<rect x="61" y="12" width="1" height="1" fill="hsl(0, 100%, 60%)" />
<rect x="64" y="12" width="1" height="1" fill="hsl(0, 100%, 60%)" />
<rect x="7" y="13" width="1" height="1" fill="hsl(0, 100%, 60%)" />
<rect x="8" y="13" width="1" height="1" fill="hsl(0, 100%, 60%)" />
<rect x="12" y="13" width="1" height="1" fill="hsl(0, 100%, 60%)" />
<rect x="14" y="13" width="1" height="1" fill="hsl(0, 100%, 60%)" />
<rect x="17" y="13" width="1" height="1" fill="hsl(0, 100%, 60%)" />
<rect x="23" y="13" width="1" height="1" fill="hsl(0, 100%, 60%)" />
<rect x="24" y="13" width="1" height="1" fill="hsl(0, 100%, 60%)" />
<rect x="28" y="13" width="1" height="1" fill="hsl(0, 100%, 60%)" />
<rect x="29" y="13" width="1" height="1" fill="hsl(0, 100%, 60%)" />
<rect x="33" y="13" width="1" height="1" fill="hsl(0, 100%, 60%)" />
<rect x="34" y="13" width="1" height="1" fill="hsl(0, 100%, 60%)" />
<rect x="38" y="13" width="1" height="1" fill="hsl(0, 100%, 60%)" />
<rect x="39" y="13" width="1" height="1" fill="hsl(0, 100%, 60%)" />
<rect x="46" y="13" width="1" height="1" fill="hsl(0, 100%, 60%)" />
<rect x="59" y="13" width="1" height="1" fill="hsl(0, 100%, 60%)" />
<rect x="63" y="13" width="1" height="1" fill="hsl(0, 100%, 60%)" />
<rect x="64" y="13" width="1" height="1" fill="hsl(0, 100%, 60%)" />
<rect x="9" y="14" width="1" height="1" fill="hsl(0, 100%, 60%)" />
<rect x="10" y="14" width="1" height="1" fill="hsl(0, 100%, 60%)" />
<rect x="12" y="14" width="1" height="1" fill="hsl(0, 100%, 60%)" />
<rect x="14" y="14" width="1" height="1" fill="hsl(0, 100%, 60%)" />
<rect x="15" y="14" width="1" height="1" fill="hsl(0, 100%, 60%)" />
<rect x="17" y="14" width="1" height="1" fill="hsl(0, 100%, 60%)" />
<rect x="19" y="14" width="1" height="1" fill="hsl(0, 100%, 60%)" />
<rect x="20" y="14" width="1" height="1" fill="hsl(0, 100%, 60%)" />
<rect x="23" y="14" width="1" height="1" fill="hsl(0, 100%, 60%)" />
<rect x="46" y="14" width="1" height="1" fill="hsl(0, 100%, 60%)" />
<rect x="55" y="14" width="1" height="1" fill="hsl(0, 100%, 60%)" />
<rect x="56" y="14" width="1" height="1" fill="hsl(0, 100%, 60%)" />
<rect x="58" y="14" width="1" height="1" fill="hsl(0, 100%, 60%)" />
<rect x="9" y="15" width="1" height="1" fill="hsl(0, 100%, 60%)" />
<rect x="11" y="15" width="1" height="1" fill="hsl(0, 100%, 60%)" />
<rect x="12" y="15" width="1" height="1" fill="hsl(0, 100%, 60%)" />
<rect x="14" y="15" width="1" height="1" fill="hsl(0, 100%, 60%)" />
<rect x="17" y="15" width="1" height="1" fill="hsl(0, 100%, 60%)" />
<rect x="19" y="15" width="1" height="1" fill="hsl(0, 100%, 60%)" />
<rect x="20" y="15" width="1" height="1" fill="hsl(0, 100%, 60%)" />
<rect x="25" y="15" width="1" height="1" fill="hsl(0, 100%, 60%)" />
<rect x="43" y="15" width="1" height="1" fill="hsl(0, 100%, 60%)" />
<rect x="44" y="15" width="1" height="1" fill="hsl(0, 100%, 60%)" />
<rect x="46" y="15" width="1" height="1" fill="hsl(0, 100%, 60%)" />
<rect x="48" y="15" width="1" height="1" fill="hsl(0, 100%, 60%)" />
<rect x="15" y="16" width="1" height="1" fill="hsl(0, 100%, 60%)" />
<rect x="16" y="16" width="1" height="1" fill="hsl(0, 100%, 60%)" />
<rect x="24" y="16" width="1" height="1" fill="hsl(0, 100%, 60%)" />
<rect x="25" y="16" width="1" height="1" fill="hsl(0, 100%, 60%)" />
<rect x="44" y="16" width="1" height="1" fill="hsl(0, 100%, 60%)" />
<rect x="47" y="16" width="1" height="1" fill="hsl(0, 100%, 60%)" />
<rect x="48" y="16" width="1" height="1" fill="hsl(0, 100%, 60%)" />
<rect x="42" y="17" width="1" height="1" fill="hsl(0, 100%, 60%)" />
<rect x="44" y="17" width="1" height="1" fill="hsl(0, 100%, 60%)" />
<rect x="42" y="18" width="1" height="1" fill="hsl(0, 100%, 60%)" />
<rect x="43" y="18" width="1" height="1" fill="hsl(0, 100%, 60%)" />
</svg>