<?xml version="1.0" encoding="utf-8"?>
<svg xmlns="http://www.w3.org/2000/svg" width="78" height="64" viewBox="0 0 78 64">
<rect width="100%" height="100%" fill="transparent" />
<rect x="20" y="4" width="2" height="2" fill="hsl(0, 100%, 60%)" />
<rect x="20" y="6" width="2" height="2" fill="hsl(0, 100%, 60%)" />
<rect x="22" y="6" width="2" height="2" fill="hsl(0, 100%, 60%)" />
<rect x="24" y="6" width="2" height="2" fill="hsl(0, 100%, 60%)" />
<rect x="26" y="8" width="2" height="2" fill="hsl(0, 100%, 60%)" />
<rect x="24" y="10" width="2" height="2" fill="hsl(0, 100%, 60%)" />
<rect x="26" y="10" width="2" height="2" fill="hsl(0, 100%, 60%)" />
<rect x="4" y="32" width="2" height="2" fill="hsl(0, 100%, 60%)" />
<rect x="4" y="34" width="2" height="2" fill="hsl(0, 100%, 60%)" />
<rect x="8" y="34" width="2" height="2" fill="hsl(0, 100%, 60%)" />
<rect x="68" y="34" width="2" height="2" fill="hsl(0, 100%, 60%)" />
<rect x="4" y="36" width="2" height="2" fill="hsl(0, 100%, 60%)" />
<rect x="6" y="36" width="2" height="2" fill="hsl(0, 100%, 60%)" />
<rect x="8" y="36" width="2" height="2" fill="hsl(0, 100%, 60%)" />
<rect x="68" y="36" width="2" height="2" fill="hsl(0, 100%, 60%)" />
<rect x="8" y="38" width="2" height="2" fill="hsl(0, 100%, 60%)" />
<rect x="68" y="38" width="2" height="2" fill="hsl(0, 100%, 60%)" />
<rect x="70" y="38" width="2" height="2" fill="hsl(0, 100%, 60%)" />
<rect x="72" y="38" width="2" height="2" fill="hsl(0, 100%, 60%)" />
<rect x="72" y="40" width="2" height="2" fill="hsl(0, 100%, 60%)" />
<rect x="54" y="50" width="2" height="2" fill="hsl(0, 100%, 60%)" />
<rect x="56" y="50" width="2" height="2" fill="hsl(0, 100%, 60%)" />
<rect x="42" y="52" width="2" height="2" fill="hsl(0, 100%, 60%)" />
<rect x="44" y="52" width="2" height="2" fill="hsl(0, 100%, 60%)" />
<rect x="56" y="52" width="2" height="2" fill="hsl(0, 100%, 60%)" />
<rect x="42" y="54" width="2" height="2" fill="hsl(0, 100%, 60%)" />
<rect x="46" y="54" width="2" height="2" fill="hsl(0, 100%, 60%)" />
<rect x="50" y="54" width="2" height="2" fill="hsl(0, 100%, 60%)" />
<rect x="52" y="54" width="2" height="2" fill="hsl(0, 100%, 60%)" />
<rect x="54" y="54" width="2" height="2" fill="hsl(0, 100%, 60%)" />
<rect x="28" y="56" width="2" height="2" fill="hsl(0, 100%, 60%)" />
<rect x="30" y="56" width="2" height="2" fill="hsl(0, 100%, 60%)" />
<rect x="46" y="56" width="2" height="2" fill="hsl(0, 100%, 60%)" />
<rect x="50" y="56" width="2" height="2" fill="hsl(0, 100%, 60%)" />
<rect x="28" y="58" width="2" height="2" fill="hsl(0, 100%, 60%)" />
<rect x="30" y="58" width="2" height="2" fill="hsl(0, 100%, 60%)" />
<rect x="46" y="58" width="2" height="2" fill="hsl(0, 100%, 60%)" />
<rect x="48" y="58" width="2" height="2" fill="hsl(0, 100%, 60%)" />
</svg>