<?xml version="1.0" encoding="utf-8"?>
<svg xmlns="http://www.w3.org/2000/svg" width="53" height="30" viewBox="0 0 53 30">
<rect width="100%" height="100%" fill="transparent" />
<rect x="26" y="4" width="1" height="1" fill="hsl(0, 100%, 60%)" />
<rect x="27" y="4" width="1" height="1" fill="hsl(0, 100%, 60%)" />
<rect x="27" y="5" width="1" height="1" fill="hsl(0, 100%, 60%)" />
<rect x="14" y="6" width="1" height="1" fill="hsl(0, 100%, 60%)" />
<rect x="26" y="6" width="1" height="1" fill="hsl(0, 100%, 60%)" />
<rect x="14" y="7" width="1" height="1" fill="hsl(0, 100%, 60%)" />
<rect x="15" y="7" width="1" height="1" fill="hsl(0, 100%, 60%)" />
<rect x="16" y="7" width="1" height="1" fill="hsl(0, 100%, 60%)" />
<rect x="26" y="7" width="1" height="1" fill="hsl(0, 100%, 60%)" />
<rect x="27" y="7" width="1" height="1" fill="hsl(0, 100%, 60%)" />
<rect x="17" y="8" width="1" height="1" fill="hsl(0, 100%, 60%)" />
<rect x="4" y="9" width="1" height="1" fill="hsl(0, 100%, 60%)" />
<rect x="5" y="9" width="1" height="1" fill="hsl(0, 100%, 60%)" />
<rect x="16" y="9" width="1" height="1" fill="hsl(0, 100%, 60%)" />
<rect x="17" y="9" width="1" height="1" fill="hsl(0, 100%, 60%)" />
<rect x="5" y="10" width="1" height="1" fill="hsl(0, 100%, 60%)" />
<rect x="5" y="11" width="1" height="1" fill="hsl(0, 100%, 60%)" />
<rect x="7" y="11" width="1" height="1" fill="hsl(0, 100%, 60%)" />
<rect x="6" y="12" width="1" height="1" fill="hsl(0, 100%, 60%)" />
<rect x="7" y="12" width="1" height="1" fill="hsl(0, 100%, 60%)" />
<rect x="29" y="13" width="1" height="1" fill="hsl(0, 100%, 60%)" />
<rect x="30" y="13" width="1" height="1" fill="hsl(0, 100%, 60%)" />
<rect x="46" y="13" width="1" height="1" fill="hsl(0, 100%, 60%)" />
<rect x="29" y="14" width="1" height="1" fill="hsl(0, 100%, 60%)" />
<rect x="30" y="14" width="1" height="1" fill="hsl(0, 100%, 60%)" />
<rect x="46" y="14" width="1" height="1" fill="hsl(0, 100%, 60%)" />
<rect x="46" y="15" width="1" height="1" fill="hsl(0, 100%, 60%)" />
<rect x="47" y="15" width="1" height="1" fill="hsl(0, 100%, 60%)" />
<rect x="48" y="15" width="1" height="1" fill="hsl(0, 100%, 60%)" />
<rect x="48" y="16" width="1" height="1" fill="hsl(0, 100%, 60%)" />
<rect x="6" y="19" width="1" height="1" fill="hsl(0, 100%, 60%)" />
<rect x="6" y="20" width="1" height="1" fill="hsl(0, 100%, 60%)" />
<rect x="8" y="20" width="1" height="1" fill="hsl(0, 100%, 60%)" />
<rect x="6" y="21" width="1" height="1" fill="hsl(0, 100%, 60%)" />
<rect x="7" y="21" width="1" height="1" fill="hsl(0, 100%, 60%)" />
<rect x="8" y="21" width="1" height="1" fill="hsl(0, 100%, 60%)" />
<rect x="8" y="22" width="1" height="1" fill="hsl(0, 100%, 60%)" />
<rect x="20" y="22" width="1" height="1" fill="hsl(0, 100%, 60%)" />
<rect x="21" y="22" width="1" height="1" fill="hsl(0, 100%, 60%)" />
<rect x="20" y="23" width="1" height="1" fill="hsl(0, 100%, 60%)" />
<rect x="21" y="24" width="1" height="1" fill="hsl(0, 100%, 60%)" />
<rect x="22" y="24" width="1" height="1" fill="hsl(0, 100%, 60%)" />
<rect x="23" y="24" width="1" height="1" fill="hsl(0, 100%, 60%)" />
<rect x="23" y="25" width="1" height="1" fill="hsl(0, 100%, 60%)" />
</svg>