<?xml version="1.0" encoding="utf-8"?>
<svg xmlns="http://www.w3.org/2000/svg" width="64" height="39" viewBox="0 0 64 39">
<rect width="100%" height="100%" fill="transparent" />
<rect x="37" y="4" width="1" height="1" fill="hsl(0, 100%, 60%)" />
<rect x="38" y="4" width="1" height="1" fill="hsl(0, 100%, 60%)" />
<rect x="38" y="5" width="1" height="1" fill="hsl(0, 100%, 60%)" />
<rect x="37" y="6" width="1" height="1" fill="hsl(0, 100%, 60%)" />
<rect x="37" y="7" width="1" height="1" fill="hsl(0, 100%, 60%)" />
<rect x="38" y="7" width="1" height="1" fill="hsl(0, 100%, 60%)" />
<rect x="5" y="10" width="1" height="1" fill="hsl(0, 100%, 60%)" />
<rect x="6" y="10" width="1" height="1" fill="hsl(0, 100%, 60%)" />
<rect x="4" y="11" width="1" height="1" fill="hsl(0, 100%, 60%)" />
<rect x="5" y="11" width="1" height="1" fill="hsl(0, 100%, 60%)" />
<rect x="6" y="11" width="1" height="1" fill="hsl(0, 100%, 60%)" />
<rect x="8" y="11" width="1" height="1" fill="hsl(0, 100%, 60%)" />
<rect x="9" y="11" width="1" height="1" fill="hsl(0, 100%, 60%)" />
<rect x="5" y="12" width="1" height="1" fill="hsl(0, 100%, 60%)" />
<rect x="6" y="12" width="1" height="1" fill="hsl(0, 100%, 60%)" />
<rect x="8" y="12" width="1" height="1" fill="hsl(0, 100%, 60%)" />
<rect x="9" y="12" width="1" height="1" fill="hsl(0, 100%, 60%)" />
<rect x="10" y="12" width="1" height="1" fill="hsl(0, 100%, 60%)" />
<rect x="12" y="12" width="1" height="1" fill="hsl(0, 100%, 60%)" />
<rect x="13" y="12" width="1" height="1" fill="hsl(0, 100%, 60%)" />
<rect x="4" y="13" width="1" height="1" fill="hsl(0, 100%, 60%)" />
<rect x="5" y="13" width="1" height="1" fill="hsl(0, 100%, 60%)" />
<rect x="6" y="13" width="1" height="1" fill="hsl(0, 100%, 60%)" />
<rect x="8" y="13" width="1" height="1" fill="hsl(0, 100%, 60%)" />
<rect x="9" y="13" width="1" height="1" fill="hsl(0, 100%, 60%)" />
<rect x="12" y="13" width="1" height="1" fill="hsl(0, 100%, 60%)" />
<rect x="13" y="13" width="1" height="1" fill="hsl(0, 100%, 60%)" />
<rect x="40" y="13" width="1" height="1" fill="hsl(0, 100%, 60%)" />
<rect x="41" y="13" width="1" height="1" fill="hsl(0, 100%, 60%)" />
<rect x="57" y="13" width="1" height="1" fill="hsl(0, 100%, 60%)" />
<rect x="4" y="14" width="1" height="1" fill="hsl(0, 100%, 60%)" />
<rect x="5" y="14" width="1" height="1" fill="hsl(0, 100%, 60%)" />
<rect x="40" y="14" width="1" height="1" fill="hsl(0, 100%, 60%)" />
<rect x="41" y="14" width="1" height="1" fill="hsl(0, 100%, 60%)" />
<rect x="57" y="14" width="1" height="1" fill="hsl(0, 100%, 60%)" />
<rect x="57" y="15" width="1" height="1" fill="hsl(0, 100%, 60%)" />
<rect x="58" y="15" width="1" height="1" fill="hsl(0, 100%, 60%)" />
<rect x="59" y="15" width="1" height="1" fill="hsl(0, 100%, 60%)" />
<rect x="59" y="16" width="1" height="1" fill="hsl(0, 100%, 60%)" />
<rect x="10" y="20" width="1" height="1" fill="hsl(0, 100%, 60%)" />
<rect x="11" y="20" width="1" height="1" fill="hsl(0, 100%, 60%)" />
<rect x="9" y="21" width="1" height="1" fill="hsl(0, 100%, 60%)" />
<rect x="11" y="21" width="1" height="1" fill="hsl(0, 100%, 60%)" />
<rect x="50" y="21" width="1" height="1" fill="hsl(0, 100%, 60%)" />
<rect x="51" y="21" width="1" height="1" fill="hsl(0, 100%, 60%)" />
<rect x="9" y="22" width="1" height="1" fill="hsl(0, 100%, 60%)" />
<rect x="51" y="22" width="1" height="1" fill="hsl(0, 100%, 60%)" />
<rect x="8" y="23" width="1" height="1" fill="hsl(0, 100%, 60%)" />
<rect x="9" y="23" width="1" height="1" fill="hsl(0, 100%, 60%)" />
<rect x="35" y="23" width="1" height="1" fill="hsl(0, 100%, 60%)" />
<rect x="36" y="23" width="1" height="1" fill="hsl(0, 100%, 60%)" />
<rect x="48" y="23" width="1" height="1" fill="hsl(0, 100%, 60%)" />
<rect x="49" y="23" width="1" height="1" fill="hsl(0, 100%, 60%)" />
<rect x="50" y="23" width="1" height="1" fill="hsl(0, 100%, 60%)" />
<rect x="35" y="24" width="1" height="1" fill="hsl(0, 100%, 60%)" />
<rect x="36" y="24" width="1" height="1" fill="hsl(0, 100%, 60%)" />
<rect x="48" y="24" width="1" height="1" fill="hsl(0, 100%, 60%)" />
<rect x="21" y="27" width="1" height="1" fill="hsl(0, 100%, 60%)" />
<rect x="22" y="27" width="1" height="1" fill="hsl(0, 100%, 60%)" />
<rect x="22" y="28" width="1" height="1" fill="hsl(0, 100%, 60%)" />
<rect x="19" y="29" width="1" height="1" fill="hsl(0, 100%, 60%)" />
<rect x="20" y="29" width="1" height="1" fill="hsl(0, 100%, 60%)" />
<rect x="21" y="29" width="1" height="1" fill="hsl(0, 100%, 60%)" />
<rect x="19" y="30" width="1" height="1" fill="hsl(0, 100%, 60%)" />
<rect x="31" y="31" width="1" height="1" fill="hsl(0, 100%, 60%)" />
<rect x="32" y="31" width="1" height="1" fill="hsl(0, 100%, 60%)" />
<rect x="31" y="32" width="1" height="1" fill="hsl(0, 100%, 60%)" />
<rect x="32" y="33" width="1" height="1" fill="hsl(0, 100%, 60%)" />
<rect x="33" y="33" width="1" height="1" fill="hsl(0, 100%, 60%)" />
<rect x="34" y="33" width="1" height="1" fill="hsl(0, 100%, 60%)" />
<rect x="34" y="34" width="1" height="1" fill="hsl(0, 100%, 60%)" />
</svg>