<?xml version="1.0" encoding="utf-8"?>
<svg xmlns="http://www.w3.org/2000/svg" width="74" height="40" viewBox="0 0 74 40">
<rect width="100%" height="100%" fill="transparent" />
<rect x="50" y="4" width="2" height="2" fill="hsl(0, 100%, 60%)" />
<rect x="48" y="6" width="2" height="2" fill="hsl(0, 100%, 60%)" />
<rect x="52" y="6" width="2" height="2" fill="hsl(0, 100%, 60%)" />
<rect x="50" y="8" width="2" height="2" fill="hsl(0, 100%, 60%)" />
<rect x="36" y="16" width="2" height="2" fill="hsl(0, 100%, 60%)" />
<rect x="38" y="16" width="2" height="2" fill="hsl(0, 100%, 60%)" />
<rect x="40" y="16" width="2" height="2" fill="hsl(0, 100%, 60%)" />
<rect x="4" y="18" width="2" height="2" fill="hsl(0, 100%, 60%)" />
<rect x="6" y="18" width="2" height="2" fill="hsl(0, 100%, 60%)" />
<rect x="8" y="18" width="2" height="2" fill="hsl(0, 100%, 60%)" />
<rect x="36" y="18" width="2" height="2" fill="hsl(0, 100%, 60%)" />
<rect x="42" y="18" width="2" height="2" fill="hsl(0, 100%, 60%)" />
<rect x="4" y="20" width="2" height="2" fill="hsl(0, 100%, 60%)" />
<rect x="10" y="20" width="2" height="2" fill="hsl(0, 100%, 60%)" />
<rect x="20" y="20" width="2" height="2" fill="hsl(0, 100%, 60%)" />
<rect x="22" y="20" width="2" height="2" fill="hsl(0, 100%, 60%)" />
<rect x="24" y="20" width="2" height="2" fill="hsl(0, 100%, 60%)" />
<rect x="36" y="20" width="2" height="2" fill="hsl(0, 100%, 60%)" />
<rect x="60" y="20" width="2" height="2" fill="hsl(0, 100%, 60%)" />
<rect x="62" y="20" width="2" height="2" fill="hsl(0, 100%, 60%)" />
<rect x="64" y="20" width="2" height="2" fill="hsl(0, 100%, 60%)" />
<rect x="4" y="22" width="2" height="2" fill="hsl(0, 100%, 60%)" />
<rect x="20" y="22" width="2" height="2" fill="hsl(0, 100%, 60%)" />
<rect x="26" y="22" width="2" height="2" fill="hsl(0, 100%, 60%)" />
<rect x="36" y="22" width="2" height="2" fill="hsl(0, 100%, 60%)" />
<rect x="44" y="22" width="2" height="2" fill="hsl(0, 100%, 60%)" />
<rect x="60" y="22" width="2" height="2" fill="hsl(0, 100%, 60%)" />
<rect x="66" y="22" width="2" height="2" fill="hsl(0, 100%, 60%)" />
<rect x="4" y="24" width="2" height="2" fill="hsl(0, 100%, 60%)" />
<rect x="12" y="24" width="2" height="2" fill="hsl(0, 100%, 60%)" />
<rect x="18" y="24" width="2" height="2" fill="hsl(0, 100%, 60%)" />
<rect x="26" y="24" width="2" height="2" fill="hsl(0, 100%, 60%)" />
<rect x="36" y="24" width="2" height="2" fill="hsl(0, 100%, 60%)" />
<rect x="44" y="24" width="2" height="2" fill="hsl(0, 100%, 60%)" />
<rect x="60" y="24" width="2" height="2" fill="hsl(0, 100%, 60%)" />
<rect x="4" y="26" width="2" height="2" fill="hsl(0, 100%, 60%)" />
<rect x="18" y="26" width="2" height="2" fill="hsl(0, 100%, 60%)" />
<rect x="22" y="26" width="2" height="2" fill="hsl(0, 100%, 60%)" />
<rect x="30" y="26" width="2" height="2" fill="hsl(0, 100%, 60%)" />
<rect x="36" y="26" width="2" height="2" fill="hsl(0, 100%, 60%)" />
<rect x="60" y="26" width="2" height="2" fill="hsl(0, 100%, 60%)" />
<rect x="68" y="26" width="2" height="2" fill="hsl(0, 100%, 60%)" />
<rect x="6" y="28" width="2" height="2" fill="hsl(0, 100%, 60%)" />
<rect x="12" y="28" width="2" height="2" fill="hsl(0, 100%, 60%)" />
<rect x="14" y="28" width="2" height="2" fill="hsl(0, 100%, 60%)" />
<rect x="32" y="28" width="2" height="2" fill="hsl(0, 100%, 60%)" />
<rect x="36" y="28" width="2" height="2" fill="hsl(0, 100%, 60%)" />
<rect x="60" y="28" width="2" height="2" fill="hsl(0, 100%, 60%)" />
<rect x="68" y="28" width="2" height="2" fill="hsl(0, 100%, 60%)" />
<rect x="6" y="30" width="2" height="2" fill="hsl(0, 100%, 60%)" />
<rect x="8" y="30" width="2" height="2" fill="hsl(0, 100%, 60%)" />
<rect x="10" y="30" width="2" height="2" fill="hsl(0, 100%, 60%)" />
<rect x="12" y="30" width="2" height="2" fill="hsl(0, 100%, 60%)" />
<rect x="14" y="30" width="2" height="2" fill="hsl(0, 100%, 60%)" />
<rect x="32" y="30" width="2" height="2" fill="hsl(0, 100%, 60%)" />
<rect x="60" y="30" width="2" height="2" fill="hsl(0, 100%, 60%)" />
<rect x="12" y="32" width="2" height="2" fill="hsl(0, 100%, 60%)" />
<rect x="14" y="32" width="2" height="2" fill="hsl(0, 100%, 60%)" />
<rect x="28" y="32" width="2" height="2" fill="hsl(0, 100%, 60%)" />
<rect x="36" y="32" width="2" height="2" fill="hsl(0, 100%, 60%)" />
<rect x="38" y="32" width="2" height="2" fill="hsl(0, 100%, 60%)" />
<rect x="40" y="32" width="2" height="2" fill="hsl(0, 100%, 60%)" />
<rect x="62" y="32" width="2" height="2" fill="hsl(0, 100%, 60%)" />
<rect x="66" y="32" width="2" height="2" fill="hsl(0, 100%, 60%)" />
<rect x="6" y="34" width="2" height="2" fill="hsl(0, 100%, 60%)" />
<rect x="8" y="34" width="2" height="2" fill="hsl(0, 100%, 60%)" />
</svg>