<?xml version="1.0" encoding="utf-8"?>
<svg xmlns="http://www.w3.org/2000/svg" width="53" height="45" viewBox="0 0 53 45">
<rect width="100%" height="100%" fill="transparent" />
<rect x="5" y="4" width="1" height="1" fill="hsl(0, 100%, 60%)" />
<rect x="6" y="5" width="1" height="1" fill="hsl(0, 100%, 60%)" />
<rect x="4" y="6" width="1" height="1" fill="hsl(0, 100%, 60%)" />
<rect x="5" y="6" width="1" height="1" fill="hsl(0, 100%, 60%)" />
<rect x="6" y="6" width="1" height="1" fill="hsl(0, 100%, 60%)" />
<rect x="39" y="9" width="1" height="1" fill="hsl(0, 100%, 60%)" />
<rect x="38" y="10" width="1" height="1" fill="hsl(0, 100%, 60%)" />
<rect x="38" y="11" width="1" height="1" fill="hsl(0, 100%, 60%)" />
<rect x="39" y="11" width="1" height="1" fill="hsl(0, 100%, 60%)" />
<rect x="40" y="11" width="1" height="1" fill="hsl(0, 100%, 60%)" />
<rect x="35" y="13" width="1" height="1" fill="hsl(0, 100%, 60%)" />
<rect x="35" y="14" width="1" height="1" fill="hsl(0, 100%, 60%)" />
<rect x="37" y="14" width="1" height="1" fill="hsl(0, 100%, 60%)" />
<rect x="23" y="15" width="1" height="1" fill="hsl(0, 100%, 60%)" />
<rect x="24" y="15" width="1" height="1" fill="hsl(0, 100%, 60%)" />
<rect x="35" y="15" width="1" height="1" fill="hsl(0, 100%, 60%)" />
<rect x="36" y="15" width="1" height="1" fill="hsl(0, 100%, 60%)" />
<rect x="23" y="16" width="1" height="1" fill="hsl(0, 100%, 60%)" />
<rect x="24" y="16" width="1" height="1" fill="hsl(0, 100%, 60%)" />
<rect x="23" y="24" width="1" height="1" fill="hsl(0, 100%, 60%)" />
<rect x="24" y="24" width="1" height="1" fill="hsl(0, 100%, 60%)" />
<rect x="22" y="25" width="1" height="1" fill="hsl(0, 100%, 60%)" />
<rect x="25" y="25" width="1" height="1" fill="hsl(0, 100%, 60%)" />
<rect x="23" y="26" width="1" height="1" fill="hsl(0, 100%, 60%)" />
<rect x="24" y="26" width="1" height="1" fill="hsl(0, 100%, 60%)" />
<rect x="30" y="27" width="1" height="1" fill="hsl(0, 100%, 60%)" />
<rect x="31" y="27" width="1" height="1" fill="hsl(0, 100%, 60%)" />
<rect x="30" y="28" width="1" height="1" fill="hsl(0, 100%, 60%)" />
<rect x="31" y="28" width="1" height="1" fill="hsl(0, 100%, 60%)" />
<rect x="47" y="29" width="1" height="1" fill="hsl(0, 100%, 60%)" />
<rect x="48" y="29" width="1" height="1" fill="hsl(0, 100%, 60%)" />
<rect x="12" y="30" width="1" height="1" fill="hsl(0, 100%, 60%)" />
<rect x="13" y="30" width="1" height="1" fill="hsl(0, 100%, 60%)" />
<rect x="47" y="30" width="1" height="1" fill="hsl(0, 100%, 60%)" />
<rect x="11" y="31" width="1" height="1" fill="hsl(0, 100%, 60%)" />
<rect x="13" y="31" width="1" height="1" fill="hsl(0, 100%, 60%)" />
<rect x="45" y="31" width="1" height="1" fill="hsl(0, 100%, 60%)" />
<rect x="47" y="31" width="1" height="1" fill="hsl(0, 100%, 60%)" />
<rect x="11" y="32" width="1" height="1" fill="hsl(0, 100%, 60%)" />
<rect x="45" y="32" width="1" height="1" fill="hsl(0, 100%, 60%)" />
<rect x="46" y="32" width="1" height="1" fill="hsl(0, 100%, 60%)" />
<rect x="10" y="33" width="1" height="1" fill="hsl(0, 100%, 60%)" />
<rect x="11" y="33" width="1" height="1" fill="hsl(0, 100%, 60%)" />
<rect x="21" y="37" width="1" height="1" fill="hsl(0, 100%, 60%)" />
<rect x="22" y="37" width="1" height="1" fill="hsl(0, 100%, 60%)" />
<rect x="20" y="38" width="1" height="1" fill="hsl(0, 100%, 60%)" />
<rect x="22" y="38" width="1" height="1" fill="hsl(0, 100%, 60%)" />
<rect x="20" y="39" width="1" height="1" fill="hsl(0, 100%, 60%)" />
<rect x="19" y="40" width="1" height="1" fill="hsl(0, 100%, 60%)" />
<rect x="20" y="40" width="1" height="1" fill="hsl(0, 100%, 60%)" />
</svg>