<?xml version="1.0" encoding="utf-8"?>
<svg xmlns="http://www.w3.org/2000/svg" width="88" height="66" viewBox="0 0 88 66">
<rect width="100%" height="100%" fill="transparent" />
<rect x="16" y="4" width="2" height="2" fill="hsl(0, 100%, 60%)" />
<rect x="16" y="6" width="2" height="2" fill="hsl(0, 100%, 60%)" />
<rect x="18" y="6" width="2" height="2" fill="hsl(0, 100%, 60%)" />
<rect x="20" y="6" width="2" height="2" fill="hsl(0, 100%, 60%)" />
<rect x="22" y="8" width="2" height="2" fill="hsl(0, 100%, 60%)" />
<rect x="20" y="10" width="2" height="2" fill="hsl(0, 100%, 60%)" />
<rect x="22" y="10" width="2" height="2" fill="hsl(0, 100%, 60%)" />
<rect x="14" y="12" width="2" height="2" fill="hsl(0, 100%, 60%)" />
<rect x="10" y="14" width="2" height="2" fill="hsl(0, 100%, 60%)" />
<rect x="12" y="14" width="2" height="2" fill="hsl(0, 100%, 60%)" />
<rect x="14" y="14" width="2" height="2" fill="hsl(0, 100%, 60%)" />
<rect x="8" y="16" width="2" height="2" fill="hsl(0, 100%, 60%)" />
<rect x="8" y="18" width="2" height="2" fill="hsl(0, 100%, 60%)" />
<rect x="10" y="18" width="2" height="2" fill="hsl(0, 100%, 60%)" />
<rect x="8" y="22" width="2" height="2" fill="hsl(0, 100%, 60%)" />
<rect x="10" y="22" width="2" height="2" fill="hsl(0, 100%, 60%)" />
<rect x="26" y="22" width="2" height="2" fill="hsl(0, 100%, 60%)" />
<rect x="30" y="22" width="2" height="2" fill="hsl(0, 100%, 60%)" />
<rect x="36" y="22" width="2" height="2" fill="hsl(0, 100%, 60%)" />
<rect x="40" y="22" width="2" height="2" fill="hsl(0, 100%, 60%)" />
<rect x="8" y="24" width="2" height="2" fill="hsl(0, 100%, 60%)" />
<rect x="12" y="24" width="2" height="2" fill="hsl(0, 100%, 60%)" />
<rect x="26" y="24" width="2" height="2" fill="hsl(0, 100%, 60%)" />
<rect x="32" y="24" width="2" height="2" fill="hsl(0, 100%, 60%)" />
<rect x="40" y="24" width="2" height="2" fill="hsl(0, 100%, 60%)" />
<rect x="10" y="26" width="2" height="2" fill="hsl(0, 100%, 60%)" />
<rect x="22" y="26" width="2" height="2" fill="hsl(0, 100%, 60%)" />
<rect x="24" y="26" width="2" height="2" fill="hsl(0, 100%, 60%)" />
<rect x="32" y="26" width="2" height="2" fill="hsl(0, 100%, 60%)" />
<rect x="36" y="26" width="2" height="2" fill="hsl(0, 100%, 60%)" />
<rect x="40" y="26" width="2" height="2" fill="hsl(0, 100%, 60%)" />
<rect x="4" y="28" width="2" height="2" fill="hsl(0, 100%, 60%)" />
<rect x="6" y="28" width="2" height="2" fill="hsl(0, 100%, 60%)" />
<rect x="8" y="28" width="2" height="2" fill="hsl(0, 100%, 60%)" />
<rect x="24" y="28" width="2" height="2" fill="hsl(0, 100%, 60%)" />
<rect x="26" y="28" width="2" height="2" fill="hsl(0, 100%, 60%)" />
<rect x="28" y="28" width="2" height="2" fill="hsl(0, 100%, 60%)" />
<rect x="32" y="28" width="2" height="2" fill="hsl(0, 100%, 60%)" />
<rect x="4" y="30" width="2" height="2" fill="hsl(0, 100%, 60%)" />
<rect x="18" y="30" width="2" height="2" fill="hsl(0, 100%, 60%)" />
<rect x="20" y="30" width="2" height="2" fill="hsl(0, 100%, 60%)" />
<rect x="32" y="30" width="2" height="2" fill="hsl(0, 100%, 60%)" />
<rect x="34" y="30" width="2" height="2" fill="hsl(0, 100%, 60%)" />
<rect x="52" y="30" width="2" height="2" fill="hsl(0, 100%, 60%)" />
<rect x="54" y="30" width="2" height="2" fill="hsl(0, 100%, 60%)" />
<rect x="56" y="30" width="2" height="2" fill="hsl(0, 100%, 60%)" />
<rect x="18" y="32" width="2" height="2" fill="hsl(0, 100%, 60%)" />
<rect x="20" y="32" width="2" height="2" fill="hsl(0, 100%, 60%)" />
<rect x="30" y="32" width="2" height="2" fill="hsl(0, 100%, 60%)" />
<rect x="32" y="32" width="2" height="2" fill="hsl(0, 100%, 60%)" />
<rect x="50" y="32" width="2" height="2" fill="hsl(0, 100%, 60%)" />
<rect x="58" y="32" width="2" height="2" fill="hsl(0, 100%, 60%)" />
<rect x="18" y="34" width="2" height="2" fill="hsl(0, 100%, 60%)" />
<rect x="20" y="34" width="2" height="2" fill="hsl(0, 100%, 60%)" />
<rect x="28" y="34" width="2" height="2" fill="hsl(0, 100%, 60%)" />
<rect x="48" y="34" width="2" height="2" fill="hsl(0, 100%, 60%)" />
<rect x="60" y="34" width="2" height="2" fill="hsl(0, 100%, 60%)" />
<rect x="18" y="36" width="2" height="2" fill="hsl(0, 100%, 60%)" />
<rect x="20" y="36" width="2" height="2" fill="hsl(0, 100%, 60%)" />
<rect x="24" y="36" width="2" height="2" fill="hsl(0, 100%, 60%)" />
<rect x="28" y="36" width="2" height="2" fill="hsl(0, 100%, 60%)" />
<rect x="46" y="36" width="2" height="2" fill="hsl(0, 100%, 60%)" />
<rect x="54" y="36" width="2" height="2" fill="hsl(0, 100%, 60%)" />
<rect x="62" y="36" width="2" height="2" fill="hsl(0, 100%, 60%)" />
<rect x="18" y="38" width="2" height="2" fill="hsl(0, 100%, 60%)" />
<rect x="20" y="38" width="2" height="2" fill="hsl(0, 100%, 60%)" />
<rect x="24" y="38" width="2" height="2" fill="hsl(0, 100%, 60%)" />
<rect x="28" y="38" width="2" height="2" fill="hsl(0, 100%, 60%)" />
<rect x="46" y="38" width="2" height="2" fill="hsl(0, 100%, 60%)" />
<rect x="62" y="38" width="2" height="2" fill="hsl(0, 100%, 60%)" />
<rect x="74" y="38" width="2" height="2" fill="hsl(0, 100%, 60%)" />
<rect x="76" y="38" width="2" height="2" fill="hsl(0, 100%, 60%)" />
<rect x="46" y="40" width="2" height="2" fill="hsl(0, 100%, 60%)" />
<rect x="50" y="40" width="2" height="2" fill="hsl(0, 100%, 60%)" />
<rect x="58" y="40" width="2" height="2" fill="hsl(0, 100%, 60%)" />
<rect x="62" y="40" width="2" height="2" fill="hsl(0, 100%, 60%)" />
<rect x="74" y="40" width="2" height="2" fill="hsl(0, 100%, 60%)" />
<rect x="76" y="40" width="2" height="2" fill="hsl(0, 100%, 60%)" />
<rect x="38" y="42" width="2" height="2" fill="hsl(0, 100%, 60%)" />
<rect x="40" y="42" width="2" height="2" fill="hsl(0, 100%, 60%)" />
<rect x="48" y="42" width="2" height="2" fill="hsl(0, 100%, 60%)" />
<rect x="50" y="42" width="2" height="2" fill="hsl(0, 100%, 60%)" />
<rect x="58" y="42" width="2" height="2" fill="hsl(0, 100%, 60%)" />
<rect x="60" y="42" width="2" height="2" fill="hsl(0, 100%, 60%)" />
<rect x="24" y="44" width="2" height="2" fill="hsl(0, 100%, 60%)" />
<rect x="26" y="44" width="2" height="2" fill="hsl(0, 100%, 60%)" />
<rect x="36" y="44" width="2" height="2" fill="hsl(0, 100%, 60%)" />
<rect x="40" y="44" width="2" height="2" fill="hsl(0, 100%, 60%)" />
<rect x="16" y="46" width="2" height="2" fill="hsl(0, 100%, 60%)" />
<rect x="18" y="46" width="2" height="2" fill="hsl(0, 100%, 60%)" />
<rect x="24" y="46" width="2" height="2" fill="hsl(0, 100%, 60%)" />
<rect x="26" y="46" width="2" height="2" fill="hsl(0, 100%, 60%)" />
<rect x="36" y="46" width="2" height="2" fill="hsl(0, 100%, 60%)" />
<rect x="76" y="46" width="2" height="2" fill="hsl(0, 100%, 60%)" />
<rect x="78" y="46" width="2" height="2" fill="hsl(0, 100%, 60%)" />
<rect x="14" y="48" width="2" height="2" fill="hsl(0, 100%, 60%)" />
<rect x="18" y="48" width="2" height="2" fill="hsl(0, 100%, 60%)" />
<rect x="34" y="48" width="2" height="2" fill="hsl(0, 100%, 60%)" />
<rect x="36" y="48" width="2" height="2" fill="hsl(0, 100%, 60%)" />
<rect x="76" y="48" width="2" height="2" fill="hsl(0, 100%, 60%)" />
<rect x="14" y="50" width="2" height="2" fill="hsl(0, 100%, 60%)" />
<rect x="42" y="50" width="2" height="2" fill="hsl(0, 100%, 60%)" />
<rect x="44" y="50" width="2" height="2" fill="hsl(0, 100%, 60%)" />
<rect x="78" y="50" width="2" height="2" fill="hsl(0, 100%, 60%)" />
<rect x="80" y="50" width="2" height="2" fill="hsl(0, 100%, 60%)" />
<rect x="82" y="50" width="2" height="2" fill="hsl(0, 100%, 60%)" />
<rect x="12" y="52" width="2" height="2" fill="hsl(0, 100%, 60%)" />
<rect x="14" y="52" width="2" height="2" fill="hsl(0, 100%, 60%)" />
<rect x="44" y="52" width="2" height="2" fill="hsl(0, 100%, 60%)" />
<rect x="54" y="52" width="2" height="2" fill="hsl(0, 100%, 60%)" />
<rect x="82" y="52" width="2" height="2" fill="hsl(0, 100%, 60%)" />
<rect x="44" y="54" width="2" height="2" fill="hsl(0, 100%, 60%)" />
<rect x="48" y="54" width="2" height="2" fill="hsl(0, 100%, 60%)" />
<rect x="52" y="54" width="2" height="2" fill="hsl(0, 100%, 60%)" />
<rect x="56" y="54" width="2" height="2" fill="hsl(0, 100%, 60%)" />
<rect x="46" y="56" width="2" height="2" fill="hsl(0, 100%, 60%)" />
<rect x="48" y="56" width="2" height="2" fill="hsl(0, 100%, 60%)" />
<rect x="52" y="56" width="2" height="2" fill="hsl(0, 100%, 60%)" />
<rect x="54" y="56" width="2" height="2" fill="hsl(0, 100%, 60%)" />
<rect x="58" y="56" width="2" height="2" fill="hsl(0, 100%, 60%)" />
<rect x="58" y="58" width="2" height="2" fill="hsl(0, 100%, 60%)" />
<rect x="58" y="60" width="2" height="2" fill="hsl(0, 100%, 60%)" />
<rect x="60" y="60" width="2" height="2" fill="hsl(0, 100%, 60%)" />
</svg>