<?xml version="1.0" encoding="utf-8"?>
<svg xmlns="http://www.w3.org/2000/svg" width="88" height="84" viewBox="0 0 88 84">
<rect width="100%" height="100%" fill="transparent" />
<rect x="44" y="4" width="4" height="4" fill="hsl(0, 100%, 60%)" />
<rect x="76" y="4" width="4" height="4" fill="hsl(0, 100%, 60%)" />
<rect x="80" y="4" width="4" height="4" fill="hsl(0, 100%, 60%)" />
<rect x="4" y="8" width="4" height="4" fill="hsl(0, 100%, 60%)" />
<rect x="8" y="8" width="4" height="4" fill="hsl(0, 100%, 60%)" />
<rect x="36" y="8" width="4" height="4" fill="hsl(0, 100%, 60%)" />
<rect x="44" y="8" width="4" height="4" fill="hsl(0, 100%, 60%)" />
<rect x="76" y="8" width="4" height="4" fill="hsl(0, 100%, 60%)" />
<rect x="80" y="8" width="4" height="4" fill="hsl(0, 100%, 60%)" />
<rect x="4" y="12" width="4" height="4" fill="hsl(0, 100%, 60%)" />
<rect x="8" y="12" width="4" height="4" fill="hsl(0, 100%, 60%)" />
<rect x="40" y="12" width="4" height="4" fill="hsl(0, 100%, 60%)" />
<rect x="44" y="12" width="4" height="4" fill="hsl(0, 100%, 60%)" />
<rect x="48" y="28" width="4" height="4" fill="hsl(0, 100%, 60%)" />
<rect x="52" y="28" width="4" height="4" fill="hsl(0, 100%, 60%)" />
<rect x="48" y="32" width="4" height="4" fill="hsl(0, 100%, 60%)" />
<rect x="52" y="32" width="4" height="4" fill="hsl(0, 100%, 60%)" />
<rect x="60" y="44" width="4" height="4" fill="hsl(0, 100%, 60%)" />
<rect x="64" y="44" width="4" height="4" fill="hsl(0, 100%, 60%)" />
<rect x="64" y="48" width="4" height="4" fill="hsl(0, 100%, 60%)" />
<rect x="64" y="52" width="4" height="4" fill="hsl(0, 100%, 60%)" />
<rect x="72" y="52" width="4" height="4" fill="hsl(0, 100%, 60%)" />
<rect x="68" y="56" width="4" height="4" fill="hsl(0, 100%, 60%)" />
<rect x="72" y="56" width="4" height="4" fill="hsl(0, 100%, 60%)" />
<rect x="36" y="72" width="4" height="4" fill="hsl(0, 100%, 60%)" />
<rect x="40" y="72" width="4" height="4" fill="hsl(0, 100%, 60%)" />
<rect x="36" y="76" width="4" height="4" fill="hsl(0, 100%, 60%)" />
<rect x="40" y="76" width="4" height="4" fill="hsl(0, 100%, 60%)" />
</svg>