<?xml version="1.0" encoding="utf-8"?>
<svg xmlns="http://www.w3.org/2000/svg" width="70" height="58" viewBox="0 0 70 58">
<rect width="100%" height="100%" fill="transparent" />
<rect x="62" y="4" width="2" height="2" fill="hsl(0, 100%, 60%)" />
<rect x="60" y="6" width="2" height="2" fill="hsl(0, 100%, 60%)" />
<rect x="60" y="8" width="2" height="2" fill="hsl(0, 100%, 60%)" />
<rect x="62" y="8" width="2" height="2" fill="hsl(0, 100%, 60%)" />
<rect x="64" y="8" width="2" height="2" fill="hsl(0, 100%, 60%)" />
<rect x="44" y="24" width="2" height="2" fill="hsl(0, 100%, 60%)" />
<rect x="46" y="24" width="2" height="2" fill="hsl(0, 100%, 60%)" />
<rect x="42" y="26" width="2" height="2" fill="hsl(0, 100%, 60%)" />
<rect x="48" y="26" width="2" height="2" fill="hsl(0, 100%, 60%)" />
<rect x="42" y="28" width="2" height="2" fill="hsl(0, 100%, 60%)" />
<rect x="46" y="28" width="2" height="2" fill="hsl(0, 100%, 60%)" />
<rect x="38" y="30" width="2" height="2" fill="hsl(0, 100%, 60%)" />
<rect x="40" y="30" width="2" height="2" fill="hsl(0, 100%, 60%)" />
<rect x="44" y="30" width="2" height="2" fill="hsl(0, 100%, 60%)" />
<rect x="20" y="32" width="2" height="2" fill="hsl(0, 100%, 60%)" />
<rect x="36" y="32" width="2" height="2" fill="hsl(0, 100%, 60%)" />
<rect x="42" y="32" width="2" height="2" fill="hsl(0, 100%, 60%)" />
<rect x="16" y="34" width="2" height="2" fill="hsl(0, 100%, 60%)" />
<rect x="18" y="34" width="2" height="2" fill="hsl(0, 100%, 60%)" />
<rect x="36" y="34" width="2" height="2" fill="hsl(0, 100%, 60%)" />
<rect x="40" y="34" width="2" height="2" fill="hsl(0, 100%, 60%)" />
<rect x="18" y="36" width="2" height="2" fill="hsl(0, 100%, 60%)" />
<rect x="20" y="36" width="2" height="2" fill="hsl(0, 100%, 60%)" />
<rect x="38" y="36" width="2" height="2" fill="hsl(0, 100%, 60%)" />
<rect x="12" y="40" width="2" height="2" fill="hsl(0, 100%, 60%)" />
<rect x="14" y="40" width="2" height="2" fill="hsl(0, 100%, 60%)" />
<rect x="10" y="42" width="2" height="2" fill="hsl(0, 100%, 60%)" />
<rect x="16" y="42" width="2" height="2" fill="hsl(0, 100%, 60%)" />
<rect x="10" y="44" width="2" height="2" fill="hsl(0, 100%, 60%)" />
<rect x="14" y="44" width="2" height="2" fill="hsl(0, 100%, 60%)" />
<rect x="6" y="46" width="2" height="2" fill="hsl(0, 100%, 60%)" />
<rect x="8" y="46" width="2" height="2" fill="hsl(0, 100%, 60%)" />
<rect x="12" y="46" width="2" height="2" fill="hsl(0, 100%, 60%)" />
<rect x="4" y="48" width="2" height="2" fill="hsl(0, 100%, 60%)" />
<rect x="10" y="48" width="2" height="2" fill="hsl(0, 100%, 60%)" />
<rect x="4" y="50" width="2" height="2" fill="hsl(0, 100%, 60%)" />
<rect x="8" y="50" width="2" height="2" fill="hsl(0, 100%, 60%)" />
<rect x="6" y="52" width="2" height="2" fill="hsl(0, 100%, 60%)" />
</svg>