<?xml version="1.0" encoding="utf-8"?>
<svg xmlns="http://www.w3.org/2000/svg" width="93" height="93" viewBox="0 0 93 93">
<rect width="100%" height="100%" fill="transparent" />
<rect x="29" y="4" width="5" height="5" fill="hsl(0, 100%, 60%)" />
<rect x="34" y="4" width="5" height="5" fill="hsl(0, 100%, 60%)" />
<rect x="54" y="4" width="5" height="5" fill="hsl(0, 100%, 60%)" />
<rect x="59" y="4" width="5" height="5" fill="hsl(0, 100%, 60%)" />
<rect x="29" y="9" width="5" height="5" fill="hsl(0, 100%, 60%)" />
<rect x="39" y="9" width="5" height="5" fill="hsl(0, 100%, 60%)" />
<rect x="49" y="9" width="5" height="5" fill="hsl(0, 100%, 60%)" />
<rect x="59" y="9" width="5" height="5" fill="hsl(0, 100%, 60%)" />
<rect x="34" y="14" width="5" height="5" fill="hsl(0, 100%, 60%)" />
<rect x="54" y="14" width="5" height="5" fill="hsl(0, 100%, 60%)" />
<rect x="29" y="24" width="5" height="5" fill="hsl(0, 100%, 60%)" />
<rect x="34" y="24" width="5" height="5" fill="hsl(0, 100%, 60%)" />
<rect x="54" y="24" width="5" height="5" fill="hsl(0, 100%, 60%)" />
<rect x="59" y="24" width="5" height="5" fill="hsl(0, 100%, 60%)" />
<rect x="4" y="29" width="5" height="5" fill="hsl(0, 100%, 60%)" />
<rect x="9" y="29" width="5" height="5" fill="hsl(0, 100%, 60%)" />
<rect x="24" y="29" width="5" height="5" fill="hsl(0, 100%, 60%)" />
<rect x="34" y="29" width="5" height="5" fill="hsl(0, 100%, 60%)" />
<rect x="54" y="29" width="5" height="5" fill="hsl(0, 100%, 60%)" />
<rect x="64" y="29" width="5" height="5" fill="hsl(0, 100%, 60%)" />
<rect x="79" y="29" width="5" height="5" fill="hsl(0, 100%, 60%)" />
<rect x="84" y="29" width="5" height="5" fill="hsl(0, 100%, 60%)" />
<rect x="4" y="34" width="5" height="5" fill="hsl(0, 100%, 60%)" />
<rect x="14" y="34" width="5" height="5" fill="hsl(0, 100%, 60%)" />
<rect x="24" y="34" width="5" height="5" fill="hsl(0, 100%, 60%)" />
<rect x="29" y="34" width="5" height="5" fill="hsl(0, 100%, 60%)" />
<rect x="59" y="34" width="5" height="5" fill="hsl(0, 100%, 60%)" />
<rect x="64" y="34" width="5" height="5" fill="hsl(0, 100%, 60%)" />
<rect x="74" y="34" width="5" height="5" fill="hsl(0, 100%, 60%)" />
<rect x="84" y="34" width="5" height="5" fill="hsl(0, 100%, 60%)" />
<rect x="9" y="39" width="5" height="5" fill="hsl(0, 100%, 60%)" />
<rect x="79" y="39" width="5" height="5" fill="hsl(0, 100%, 60%)" />
<rect x="9" y="49" width="5" height="5" fill="hsl(0, 100%, 60%)" />
<rect x="79" y="49" width="5" height="5" fill="hsl(0, 100%, 60%)" />
<rect x="4" y="54" width="5" height="5" fill="hsl(0, 100%, 60%)" />
<rect x="14" y="54" width="5" height="5" fill="hsl(0, 100%, 60%)" />
<rect x="24" y="54" width="5" height="5" fill="hsl(0, 100%, 60%)" />
<rect x="29" y="54" width="5" height="5" fill="hsl(0, 100%, 60%)" />
<rect x="59" y="54" width="5" height="5" fill="hsl(0, 100%, 60%)" />
<rect x="64" y="54" width="5" height="5" fill="hsl(0, 100%, 60%)" />
<rect x="74" y="54" width="5" height="5" fill="hsl(0, 100%, 60%)" />
<rect x="84" y="54" width="5" height="5" fill="hsl(0, 100%, 60%)" />
<rect x="4" y="59" width="5" height="5" fill="hsl(0, 100%, 60%)" />
<rect x="9" y="59" width="5" height="5" fill="hsl(0, 100%, 60%)" />
<rect x="24" y="59" width="5" height="5" fill="hsl(0, 100%, 60%)" />
<rect x="34" y="59" width="5" height="5" fill="hsl(0, 100%, 60%)" />
<rect x="54" y="59" width="5" height="5" fill="hsl(0, 100%, 60%)" />
<rect x="64" y="59" width="5" height="5" fill="hsl(0, 100%, 60%)" />
<rect x="79" y="59" width="5" height="5" fill="hsl(0, 100%, 60%)" />
<rect x="84" y="59" width="5" height="5" fill="hsl(0, 100%, 60%)" />
<rect x="29" y="64" width="5" height="5" fill="hsl(0, 100%, 60%)" />
<rect x="34" y="64" width="5" height="5" fill="hsl(0, 100%, 60%)" />
<rect x="54" y="64" width="5" height="5" fill="hsl(0, 100%, 60%)" />
<rect x="59" y="64" width="5" height="5" fill="hsl(0, 100%, 60%)" />
<rect x="34" y="74" width="5" height="5" fill="hsl(0, 100%, 60%)" />
<rect x="54" y="74" width="5" height="5" fill="hsl(0, 100%, 60%)" />
<rect x="29" y="79" width="5" height="5" fill="hsl(0, 100%, 60%)" />
<rect x="39" y="79" width="5" height="5" fill="hsl(0, 100%, 60%)" />
<rect x="49" y="79" width="5" height="5" fill="hsl(0, 100%, 60%)" />
<rect x="59" y="79" width="5" height="5" fill="hsl(0, 100%, 60%)" />
<rect x="29" y="84" width="5" height="5" fill="hsl(0, 100%, 60%)" />
<rect x="34" y="84" width="5" height="5" fill="hsl(0, 100%, 60%)" />
<rect x="54" y="84" width="5" height="5" fill="hsl(0, 100%, 60%)" />
<rect x="59" y="84" width="5" height="5" fill="hsl(0, 100%, 60%)" />
</svg>