<?xml version="1.0" encoding="utf-8"?>
<svg xmlns="http://www.w3.org/2000/svg" width="86" height="86" viewBox="0 0 86 86">
<rect width="100%" height="100%" fill="transparent" />
<rect x="48" y="4" width="2" height="2" fill="hsl(0, 100%, 60%)" />
<rect x="50" y="4" width="2" height="2" fill="hsl(0, 100%, 60%)" />
<rect x="48" y="6" width="2" height="2" fill="hsl(0, 100%, 60%)" />
<rect x="50" y="6" width="2" height="2" fill="hsl(0, 100%, 60%)" />
<rect x="22" y="28" width="2" height="2" fill="hsl(0, 100%, 60%)" />
<rect x="44" y="28" width="2" height="2" fill="hsl(0, 100%, 60%)" />
<rect x="46" y="28" width="2" height="2" fill="hsl(0, 100%, 60%)" />
<rect x="54" y="28" width="2" height="2" fill="hsl(0, 100%, 60%)" />
<rect x="56" y="28" width="2" height="2" fill="hsl(0, 100%, 60%)" />
<rect x="18" y="30" width="2" height="2" fill="hsl(0, 100%, 60%)" />
<rect x="22" y="30" width="2" height="2" fill="hsl(0, 100%, 60%)" />
<rect x="48" y="30" width="2" height="2" fill="hsl(0, 100%, 60%)" />
<rect x="50" y="30" width="2" height="2" fill="hsl(0, 100%, 60%)" />
<rect x="52" y="30" width="2" height="2" fill="hsl(0, 100%, 60%)" />
<rect x="16" y="32" width="2" height="2" fill="hsl(0, 100%, 60%)" />
<rect x="20" y="32" width="2" height="2" fill="hsl(0, 100%, 60%)" />
<rect x="46" y="32" width="2" height="2" fill="hsl(0, 100%, 60%)" />
<rect x="54" y="32" width="2" height="2" fill="hsl(0, 100%, 60%)" />
<rect x="4" y="34" width="2" height="2" fill="hsl(0, 100%, 60%)" />
<rect x="6" y="34" width="2" height="2" fill="hsl(0, 100%, 60%)" />
<rect x="14" y="34" width="2" height="2" fill="hsl(0, 100%, 60%)" />
<rect x="20" y="34" width="2" height="2" fill="hsl(0, 100%, 60%)" />
<rect x="48" y="34" width="2" height="2" fill="hsl(0, 100%, 60%)" />
<rect x="52" y="34" width="2" height="2" fill="hsl(0, 100%, 60%)" />
<rect x="4" y="36" width="2" height="2" fill="hsl(0, 100%, 60%)" />
<rect x="6" y="36" width="2" height="2" fill="hsl(0, 100%, 60%)" />
<rect x="16" y="36" width="2" height="2" fill="hsl(0, 100%, 60%)" />
<rect x="20" y="36" width="2" height="2" fill="hsl(0, 100%, 60%)" />
<rect x="50" y="36" width="2" height="2" fill="hsl(0, 100%, 60%)" />
<rect x="18" y="38" width="2" height="2" fill="hsl(0, 100%, 60%)" />
<rect x="22" y="38" width="2" height="2" fill="hsl(0, 100%, 60%)" />
<rect x="36" y="38" width="2" height="2" fill="hsl(0, 100%, 60%)" />
<rect x="40" y="38" width="2" height="2" fill="hsl(0, 100%, 60%)" />
<rect x="22" y="40" width="2" height="2" fill="hsl(0, 100%, 60%)" />
<rect x="36" y="40" width="2" height="2" fill="hsl(0, 100%, 60%)" />
<rect x="38" y="40" width="2" height="2" fill="hsl(0, 100%, 60%)" />
<rect x="38" y="42" width="2" height="2" fill="hsl(0, 100%, 60%)" />
<rect x="46" y="42" width="2" height="2" fill="hsl(0, 100%, 60%)" />
<rect x="46" y="44" width="2" height="2" fill="hsl(0, 100%, 60%)" />
<rect x="48" y="44" width="2" height="2" fill="hsl(0, 100%, 60%)" />
<rect x="62" y="44" width="2" height="2" fill="hsl(0, 100%, 60%)" />
<rect x="44" y="46" width="2" height="2" fill="hsl(0, 100%, 60%)" />
<rect x="48" y="46" width="2" height="2" fill="hsl(0, 100%, 60%)" />
<rect x="62" y="46" width="2" height="2" fill="hsl(0, 100%, 60%)" />
<rect x="66" y="46" width="2" height="2" fill="hsl(0, 100%, 60%)" />
<rect x="34" y="48" width="2" height="2" fill="hsl(0, 100%, 60%)" />
<rect x="64" y="48" width="2" height="2" fill="hsl(0, 100%, 60%)" />
<rect x="68" y="48" width="2" height="2" fill="hsl(0, 100%, 60%)" />
<rect x="78" y="48" width="2" height="2" fill="hsl(0, 100%, 60%)" />
<rect x="80" y="48" width="2" height="2" fill="hsl(0, 100%, 60%)" />
<rect x="32" y="50" width="2" height="2" fill="hsl(0, 100%, 60%)" />
<rect x="36" y="50" width="2" height="2" fill="hsl(0, 100%, 60%)" />
<rect x="64" y="50" width="2" height="2" fill="hsl(0, 100%, 60%)" />
<rect x="70" y="50" width="2" height="2" fill="hsl(0, 100%, 60%)" />
<rect x="78" y="50" width="2" height="2" fill="hsl(0, 100%, 60%)" />
<rect x="80" y="50" width="2" height="2" fill="hsl(0, 100%, 60%)" />
<rect x="30" y="52" width="2" height="2" fill="hsl(0, 100%, 60%)" />
<rect x="38" y="52" width="2" height="2" fill="hsl(0, 100%, 60%)" />
<rect x="64" y="52" width="2" height="2" fill="hsl(0, 100%, 60%)" />
<rect x="68" y="52" width="2" height="2" fill="hsl(0, 100%, 60%)" />
<rect x="32" y="54" width="2" height="2" fill="hsl(0, 100%, 60%)" />
<rect x="34" y="54" width="2" height="2" fill="hsl(0, 100%, 60%)" />
<rect x="36" y="54" width="2" height="2" fill="hsl(0, 100%, 60%)" />
<rect x="62" y="54" width="2" height="2" fill="hsl(0, 100%, 60%)" />
<rect x="66" y="54" width="2" height="2" fill="hsl(0, 100%, 60%)" />
<rect x="28" y="56" width="2" height="2" fill="hsl(0, 100%, 60%)" />
<rect x="30" y="56" width="2" height="2" fill="hsl(0, 100%, 60%)" />
<rect x="38" y="56" width="2" height="2" fill="hsl(0, 100%, 60%)" />
<rect x="40" y="56" width="2" height="2" fill="hsl(0, 100%, 60%)" />
<rect x="62" y="56" width="2" height="2" fill="hsl(0, 100%, 60%)" />
<rect x="34" y="78" width="2" height="2" fill="hsl(0, 100%, 60%)" />
<rect x="36" y="78" width="2" height="2" fill="hsl(0, 100%, 60%)" />
<rect x="34" y="80" width="2" height="2" fill="hsl(0, 100%, 60%)" />
<rect x="36" y="80" width="2" height="2" fill="hsl(0, 100%, 60%)" />
</svg>