<?xml version="1.0" encoding="utf-8"?>
<svg xmlns="http://www.w3.org/2000/svg" width="60" height="30" viewBox="0 0 60 30">
<rect width="100%" height="100%" fill="transparent" />
<rect x="14" y="4" width="1" height="1" fill="hsl(0, 100%, 60%)" />
<rect x="45" y="4" width="1" height="1" fill="hsl(0, 100%, 60%)" />
<rect x="14" y="5" width="1" height="1" fill="hsl(0, 100%, 60%)" />
<rect x="15" y="5" width="1" height="1" fill="hsl(0, 100%, 60%)" />
<rect x="16" y="5" width="1" height="1" fill="hsl(0, 100%, 60%)" />
<rect x="43" y="5" width="1" height="1" fill="hsl(0, 100%, 60%)" />
<rect x="44" y="5" width="1" height="1" fill="hsl(0, 100%, 60%)" />
<rect x="45" y="5" width="1" height="1" fill="hsl(0, 100%, 60%)" />
<rect x="17" y="6" width="1" height="1" fill="hsl(0, 100%, 60%)" />
<rect x="42" y="6" width="1" height="1" fill="hsl(0, 100%, 60%)" />
<rect x="4" y="7" width="1" height="1" fill="hsl(0, 100%, 60%)" />
<rect x="5" y="7" width="1" height="1" fill="hsl(0, 100%, 60%)" />
<rect x="16" y="7" width="1" height="1" fill="hsl(0, 100%, 60%)" />
<rect x="17" y="7" width="1" height="1" fill="hsl(0, 100%, 60%)" />
<rect x="42" y="7" width="1" height="1" fill="hsl(0, 100%, 60%)" />
<rect x="43" y="7" width="1" height="1" fill="hsl(0, 100%, 60%)" />
<rect x="54" y="7" width="1" height="1" fill="hsl(0, 100%, 60%)" />
<rect x="55" y="7" width="1" height="1" fill="hsl(0, 100%, 60%)" />
<rect x="5" y="8" width="1" height="1" fill="hsl(0, 100%, 60%)" />
<rect x="54" y="8" width="1" height="1" fill="hsl(0, 100%, 60%)" />
<rect x="5" y="9" width="1" height="1" fill="hsl(0, 100%, 60%)" />
<rect x="7" y="9" width="1" height="1" fill="hsl(0, 100%, 60%)" />
<rect x="52" y="9" width="1" height="1" fill="hsl(0, 100%, 60%)" />
<rect x="54" y="9" width="1" height="1" fill="hsl(0, 100%, 60%)" />
<rect x="6" y="10" width="1" height="1" fill="hsl(0, 100%, 60%)" />
<rect x="7" y="10" width="1" height="1" fill="hsl(0, 100%, 60%)" />
<rect x="52" y="10" width="1" height="1" fill="hsl(0, 100%, 60%)" />
<rect x="53" y="10" width="1" height="1" fill="hsl(0, 100%, 60%)" />
<rect x="25" y="11" width="1" height="1" fill="hsl(0, 100%, 60%)" />
<rect x="34" y="11" width="1" height="1" fill="hsl(0, 100%, 60%)" />
<rect x="25" y="12" width="1" height="1" fill="hsl(0, 100%, 60%)" />
<rect x="26" y="12" width="1" height="1" fill="hsl(0, 100%, 60%)" />
<rect x="33" y="12" width="1" height="1" fill="hsl(0, 100%, 60%)" />
<rect x="34" y="12" width="1" height="1" fill="hsl(0, 100%, 60%)" />
<rect x="26" y="13" width="1" height="1" fill="hsl(0, 100%, 60%)" />
<rect x="27" y="13" width="1" height="1" fill="hsl(0, 100%, 60%)" />
<rect x="32" y="13" width="1" height="1" fill="hsl(0, 100%, 60%)" />
<rect x="33" y="13" width="1" height="1" fill="hsl(0, 100%, 60%)" />
<rect x="26" y="14" width="1" height="1" fill="hsl(0, 100%, 60%)" />
<rect x="33" y="14" width="1" height="1" fill="hsl(0, 100%, 60%)" />
<rect x="25" y="15" width="1" height="1" fill="hsl(0, 100%, 60%)" />
<rect x="34" y="15" width="1" height="1" fill="hsl(0, 100%, 60%)" />
<rect x="6" y="17" width="1" height="1" fill="hsl(0, 100%, 60%)" />
<rect x="53" y="17" width="1" height="1" fill="hsl(0, 100%, 60%)" />
<rect x="6" y="18" width="1" height="1" fill="hsl(0, 100%, 60%)" />
<rect x="8" y="18" width="1" height="1" fill="hsl(0, 100%, 60%)" />
<rect x="51" y="18" width="1" height="1" fill="hsl(0, 100%, 60%)" />
<rect x="53" y="18" width="1" height="1" fill="hsl(0, 100%, 60%)" />
<rect x="6" y="19" width="1" height="1" fill="hsl(0, 100%, 60%)" />
<rect x="7" y="19" width="1" height="1" fill="hsl(0, 100%, 60%)" />
<rect x="8" y="19" width="1" height="1" fill="hsl(0, 100%, 60%)" />
<rect x="51" y="19" width="1" height="1" fill="hsl(0, 100%, 60%)" />
<rect x="52" y="19" width="1" height="1" fill="hsl(0, 100%, 60%)" />
<rect x="53" y="19" width="1" height="1" fill="hsl(0, 100%, 60%)" />
<rect x="8" y="20" width="1" height="1" fill="hsl(0, 100%, 60%)" />
<rect x="20" y="20" width="1" height="1" fill="hsl(0, 100%, 60%)" />
<rect x="21" y="20" width="1" height="1" fill="hsl(0, 100%, 60%)" />
<rect x="39" y="20" width="1" height="1" fill="hsl(0, 100%, 60%)" />
<rect x="40" y="20" width="1" height="1" fill="hsl(0, 100%, 60%)" />
<rect x="51" y="20" width="1" height="1" fill="hsl(0, 100%, 60%)" />
<rect x="20" y="21" width="1" height="1" fill="hsl(0, 100%, 60%)" />
<rect x="39" y="21" width="1" height="1" fill="hsl(0, 100%, 60%)" />
<rect x="40" y="21" width="1" height="1" fill="hsl(0, 100%, 60%)" />
<rect x="21" y="22" width="1" height="1" fill="hsl(0, 100%, 60%)" />
<rect x="22" y="22" width="1" height="1" fill="hsl(0, 100%, 60%)" />
<rect x="23" y="22" width="1" height="1" fill="hsl(0, 100%, 60%)" />
<rect x="43" y="22" width="1" height="1" fill="hsl(0, 100%, 60%)" />
<rect x="44" y="22" width="1" height="1" fill="hsl(0, 100%, 60%)" />
<rect x="23" y="23" width="1" height="1" fill="hsl(0, 100%, 60%)" />
<rect x="43" y="23" width="1" height="1" fill="hsl(0, 100%, 60%)" />
<rect x="44" y="24" width="1" height="1" fill="hsl(0, 100%, 60%)" />
<rect x="45" y="24" width="1" height="1" fill="hsl(0, 100%, 60%)" />
<rect x="46" y="24" width="1" height="1" fill="hsl(0, 100%, 60%)" />
<rect x="46" y="25" width="1" height="1" fill="hsl(0, 100%, 60%)" />
</svg>