<?xml version="1.0" encoding="utf-8"?>
<svg xmlns="http://www.w3.org/2000/svg" width="52" height="62" viewBox="0 0 52 62">
<rect width="100%" height="100%" fill="transparent" />
<rect x="26" y="4" width="1" height="1" fill="hsl(0, 100%, 60%)" />
<rect x="38" y="4" width="1" height="1" fill="hsl(0, 100%, 60%)" />
<rect x="26" y="5" width="1" height="1" fill="hsl(0, 100%, 60%)" />
<rect x="27" y="5" width="1" height="1" fill="hsl(0, 100%, 60%)" />
<rect x="28" y="5" width="1" height="1" fill="hsl(0, 100%, 60%)" />
<rect x="36" y="5" width="1" height="1" fill="hsl(0, 100%, 60%)" />
<rect x="38" y="5" width="1" height="1" fill="hsl(0, 100%, 60%)" />
<rect x="13" y="6" width="1" height="1" fill="hsl(0, 100%, 60%)" />
<rect x="14" y="6" width="1" height="1" fill="hsl(0, 100%, 60%)" />
<rect x="18" y="6" width="1" height="1" fill="hsl(0, 100%, 60%)" />
<rect x="19" y="6" width="1" height="1" fill="hsl(0, 100%, 60%)" />
<rect x="29" y="6" width="1" height="1" fill="hsl(0, 100%, 60%)" />
<rect x="37" y="6" width="1" height="1" fill="hsl(0, 100%, 60%)" />
<rect x="38" y="6" width="1" height="1" fill="hsl(0, 100%, 60%)" />
<rect x="13" y="7" width="1" height="1" fill="hsl(0, 100%, 60%)" />
<rect x="14" y="7" width="1" height="1" fill="hsl(0, 100%, 60%)" />
<rect x="18" y="7" width="1" height="1" fill="hsl(0, 100%, 60%)" />
<rect x="19" y="7" width="1" height="1" fill="hsl(0, 100%, 60%)" />
<rect x="28" y="7" width="1" height="1" fill="hsl(0, 100%, 60%)" />
<rect x="29" y="7" width="1" height="1" fill="hsl(0, 100%, 60%)" />
<rect x="6" y="10" width="1" height="1" fill="hsl(0, 100%, 60%)" />
<rect x="7" y="10" width="1" height="1" fill="hsl(0, 100%, 60%)" />
<rect x="7" y="11" width="1" height="1" fill="hsl(0, 100%, 60%)" />
<rect x="7" y="12" width="1" height="1" fill="hsl(0, 100%, 60%)" />
<rect x="9" y="12" width="1" height="1" fill="hsl(0, 100%, 60%)" />
<rect x="8" y="13" width="1" height="1" fill="hsl(0, 100%, 60%)" />
<rect x="9" y="13" width="1" height="1" fill="hsl(0, 100%, 60%)" />
<rect x="11" y="20" width="1" height="1" fill="hsl(0, 100%, 60%)" />
<rect x="12" y="20" width="1" height="1" fill="hsl(0, 100%, 60%)" />
<rect x="12" y="21" width="1" height="1" fill="hsl(0, 100%, 60%)" />
<rect x="9" y="22" width="1" height="1" fill="hsl(0, 100%, 60%)" />
<rect x="10" y="22" width="1" height="1" fill="hsl(0, 100%, 60%)" />
<rect x="11" y="22" width="1" height="1" fill="hsl(0, 100%, 60%)" />
<rect x="9" y="23" width="1" height="1" fill="hsl(0, 100%, 60%)" />
<rect x="24" y="30" width="1" height="1" fill="hsl(0, 100%, 60%)" />
<rect x="25" y="30" width="1" height="1" fill="hsl(0, 100%, 60%)" />
<rect x="24" y="31" width="1" height="1" fill="hsl(0, 100%, 60%)" />
<rect x="25" y="31" width="1" height="1" fill="hsl(0, 100%, 60%)" />
<rect x="16" y="32" width="1" height="1" fill="hsl(0, 100%, 60%)" />
<rect x="17" y="32" width="1" height="1" fill="hsl(0, 100%, 60%)" />
<rect x="17" y="33" width="1" height="1" fill="hsl(0, 100%, 60%)" />
<rect x="4" y="34" width="1" height="1" fill="hsl(0, 100%, 60%)" />
<rect x="14" y="34" width="1" height="1" fill="hsl(0, 100%, 60%)" />
<rect x="15" y="34" width="1" height="1" fill="hsl(0, 100%, 60%)" />
<rect x="16" y="34" width="1" height="1" fill="hsl(0, 100%, 60%)" />
<rect x="4" y="35" width="1" height="1" fill="hsl(0, 100%, 60%)" />
<rect x="5" y="35" width="1" height="1" fill="hsl(0, 100%, 60%)" />
<rect x="6" y="35" width="1" height="1" fill="hsl(0, 100%, 60%)" />
<rect x="14" y="35" width="1" height="1" fill="hsl(0, 100%, 60%)" />
<rect x="7" y="36" width="1" height="1" fill="hsl(0, 100%, 60%)" />
<rect x="6" y="37" width="1" height="1" fill="hsl(0, 100%, 60%)" />
<rect x="7" y="37" width="1" height="1" fill="hsl(0, 100%, 60%)" />
<rect x="15" y="42" width="1" height="1" fill="hsl(0, 100%, 60%)" />
<rect x="27" y="42" width="1" height="1" fill="hsl(0, 100%, 60%)" />
<rect x="28" y="42" width="1" height="1" fill="hsl(0, 100%, 60%)" />
<rect x="44" y="42" width="1" height="1" fill="hsl(0, 100%, 60%)" />
<rect x="45" y="42" width="1" height="1" fill="hsl(0, 100%, 60%)" />
<rect x="13" y="43" width="1" height="1" fill="hsl(0, 100%, 60%)" />
<rect x="14" y="43" width="1" height="1" fill="hsl(0, 100%, 60%)" />
<rect x="15" y="43" width="1" height="1" fill="hsl(0, 100%, 60%)" />
<rect x="26" y="43" width="1" height="1" fill="hsl(0, 100%, 60%)" />
<rect x="28" y="43" width="1" height="1" fill="hsl(0, 100%, 60%)" />
<rect x="44" y="43" width="1" height="1" fill="hsl(0, 100%, 60%)" />
<rect x="45" y="43" width="1" height="1" fill="hsl(0, 100%, 60%)" />
<rect x="13" y="44" width="1" height="1" fill="hsl(0, 100%, 60%)" />
<rect x="15" y="44" width="1" height="1" fill="hsl(0, 100%, 60%)" />
<rect x="28" y="44" width="1" height="1" fill="hsl(0, 100%, 60%)" />
<rect x="13" y="45" width="1" height="1" fill="hsl(0, 100%, 60%)" />
<rect x="35" y="45" width="1" height="1" fill="hsl(0, 100%, 60%)" />
<rect x="36" y="45" width="1" height="1" fill="hsl(0, 100%, 60%)" />
<rect x="38" y="45" width="1" height="1" fill="hsl(0, 100%, 60%)" />
<rect x="46" y="45" width="1" height="1" fill="hsl(0, 100%, 60%)" />
<rect x="35" y="46" width="1" height="1" fill="hsl(0, 100%, 60%)" />
<rect x="37" y="46" width="1" height="1" fill="hsl(0, 100%, 60%)" />
<rect x="38" y="46" width="1" height="1" fill="hsl(0, 100%, 60%)" />
<rect x="45" y="46" width="1" height="1" fill="hsl(0, 100%, 60%)" />
<rect x="46" y="46" width="1" height="1" fill="hsl(0, 100%, 60%)" />
<rect x="47" y="46" width="1" height="1" fill="hsl(0, 100%, 60%)" />
<rect x="44" y="47" width="1" height="1" fill="hsl(0, 100%, 60%)" />
<rect x="45" y="47" width="1" height="1" fill="hsl(0, 100%, 60%)" />
<rect x="47" y="47" width="1" height="1" fill="hsl(0, 100%, 60%)" />
<rect x="33" y="49" width="1" height="1" fill="hsl(0, 100%, 60%)" />
<rect x="34" y="49" width="1" height="1" fill="hsl(0, 100%, 60%)" />
<rect x="33" y="50" width="1" height="1" fill="hsl(0, 100%, 60%)" />
<rect x="34" y="50" width="1" height="1" fill="hsl(0, 100%, 60%)" />
<rect x="27" y="51" width="1" height="1" fill="hsl(0, 100%, 60%)" />
<rect x="28" y="51" width="1" height="1" fill="hsl(0, 100%, 60%)" />
<rect x="27" y="52" width="1" height="1" fill="hsl(0, 100%, 60%)" />
<rect x="28" y="52" width="1" height="1" fill="hsl(0, 100%, 60%)" />
<rect x="29" y="55" width="1" height="1" fill="hsl(0, 100%, 60%)" />
<rect x="30" y="55" width="1" height="1" fill="hsl(0, 100%, 60%)" />
<rect x="22" y="56" width="1" height="1" fill="hsl(0, 100%, 60%)" />
<rect x="23" y="56" width="1" height="1" fill="hsl(0, 100%, 60%)" />
<rect x="29" y="56" width="1" height="1" fill="hsl(0, 100%, 60%)" />
<rect x="30" y="56" width="1" height="1" fill="hsl(0, 100%, 60%)" />
<rect x="22" y="57" width="1" height="1" fill="hsl(0, 100%, 60%)" />
<rect x="23" y="57" width="1" height="1" fill="hsl(0, 100%, 60%)" />
</svg>