<?xml version="1.0" encoding="utf-8"?>
<svg xmlns="http://www.w3.org/2000/svg" width="59" height="86" viewBox="0 0 59 86">
<rect width="100%" height="100%" fill="transparent" />
<rect x="7" y="4" width="3" height="3" fill="hsl(0, 100%, 60%)" />
<rect x="10" y="7" width="3" height="3" fill="hsl(0, 100%, 60%)" />
<rect x="4" y="10" width="3" height="3" fill="hsl(0, 100%, 60%)" />
<rect x="7" y="10" width="3" height="3" fill="hsl(0, 100%, 60%)" />
<rect x="10" y="10" width="3" height="3" fill="hsl(0, 100%, 60%)" />
<rect x="40" y="16" width="3" height="3" fill="hsl(0, 100%, 60%)" />
<rect x="43" y="16" width="3" height="3" fill="hsl(0, 100%, 60%)" />
<rect x="46" y="16" width="3" height="3" fill="hsl(0, 100%, 60%)" />
<rect x="49" y="16" width="3" height="3" fill="hsl(0, 100%, 60%)" />
<rect x="40" y="19" width="3" height="3" fill="hsl(0, 100%, 60%)" />
<rect x="52" y="19" width="3" height="3" fill="hsl(0, 100%, 60%)" />
<rect x="40" y="22" width="3" height="3" fill="hsl(0, 100%, 60%)" />
<rect x="43" y="25" width="3" height="3" fill="hsl(0, 100%, 60%)" />
<rect x="52" y="25" width="3" height="3" fill="hsl(0, 100%, 60%)" />
<rect x="34" y="31" width="3" height="3" fill="hsl(0, 100%, 60%)" />
<rect x="37" y="31" width="3" height="3" fill="hsl(0, 100%, 60%)" />
<rect x="31" y="34" width="3" height="3" fill="hsl(0, 100%, 60%)" />
<rect x="40" y="34" width="3" height="3" fill="hsl(0, 100%, 60%)" />
<rect x="31" y="37" width="3" height="3" fill="hsl(0, 100%, 60%)" />
<rect x="40" y="37" width="3" height="3" fill="hsl(0, 100%, 60%)" />
<rect x="34" y="40" width="3" height="3" fill="hsl(0, 100%, 60%)" />
<rect x="37" y="40" width="3" height="3" fill="hsl(0, 100%, 60%)" />
<rect x="31" y="49" width="3" height="3" fill="hsl(0, 100%, 60%)" />
<rect x="34" y="49" width="3" height="3" fill="hsl(0, 100%, 60%)" />
<rect x="31" y="52" width="3" height="3" fill="hsl(0, 100%, 60%)" />
<rect x="34" y="52" width="3" height="3" fill="hsl(0, 100%, 60%)" />
<rect x="10" y="55" width="3" height="3" fill="hsl(0, 100%, 60%)" />
<rect x="13" y="55" width="3" height="3" fill="hsl(0, 100%, 60%)" />
<rect x="4" y="58" width="3" height="3" fill="hsl(0, 100%, 60%)" />
<rect x="19" y="58" width="3" height="3" fill="hsl(0, 100%, 60%)" />
<rect x="40" y="58" width="3" height="3" fill="hsl(0, 100%, 60%)" />
<rect x="43" y="58" width="3" height="3" fill="hsl(0, 100%, 60%)" />
<rect x="22" y="61" width="3" height="3" fill="hsl(0, 100%, 60%)" />
<rect x="37" y="61" width="3" height="3" fill="hsl(0, 100%, 60%)" />
<rect x="46" y="61" width="3" height="3" fill="hsl(0, 100%, 60%)" />
<rect x="4" y="64" width="3" height="3" fill="hsl(0, 100%, 60%)" />
<rect x="22" y="64" width="3" height="3" fill="hsl(0, 100%, 60%)" />
<rect x="37" y="64" width="3" height="3" fill="hsl(0, 100%, 60%)" />
<rect x="46" y="64" width="3" height="3" fill="hsl(0, 100%, 60%)" />
<rect x="7" y="67" width="3" height="3" fill="hsl(0, 100%, 60%)" />
<rect x="10" y="67" width="3" height="3" fill="hsl(0, 100%, 60%)" />
<rect x="13" y="67" width="3" height="3" fill="hsl(0, 100%, 60%)" />
<rect x="16" y="67" width="3" height="3" fill="hsl(0, 100%, 60%)" />
<rect x="19" y="67" width="3" height="3" fill="hsl(0, 100%, 60%)" />
<rect x="22" y="67" width="3" height="3" fill="hsl(0, 100%, 60%)" />
<rect x="40" y="67" width="3" height="3" fill="hsl(0, 100%, 60%)" />
<rect x="43" y="67" width="3" height="3" fill="hsl(0, 100%, 60%)" />
<rect x="37" y="76" width="3" height="3" fill="hsl(0, 100%, 60%)" />
<rect x="40" y="76" width="3" height="3" fill="hsl(0, 100%, 60%)" />
<rect x="37" y="79" width="3" height="3" fill="hsl(0, 100%, 60%)" />
<rect x="40" y="79" width="3" height="3" fill="hsl(0, 100%, 60%)" />
</svg>