<?xml version="1.0" encoding="utf-8"?>
<svg xmlns="http://www.w3.org/2000/svg" width="77" height="71" viewBox="0 0 77 71">
<rect width="100%" height="100%" fill="transparent" />
<rect x="10" y="4" width="3" height="3" fill="hsl(0, 100%, 60%)" />
<rect x="16" y="4" width="3" height="3" fill="hsl(0, 100%, 60%)" />
<rect x="13" y="7" width="3" height="3" fill="hsl(0, 100%, 60%)" />
<rect x="16" y="7" width="3" height="3" fill="hsl(0, 100%, 60%)" />
<rect x="13" y="10" width="3" height="3" fill="hsl(0, 100%, 60%)" />
<rect x="67" y="10" width="3" height="3" fill="hsl(0, 100%, 60%)" />
<rect x="64" y="13" width="3" height="3" fill="hsl(0, 100%, 60%)" />
<rect x="64" y="16" width="3" height="3" fill="hsl(0, 100%, 60%)" />
<rect x="67" y="16" width="3" height="3" fill="hsl(0, 100%, 60%)" />
<rect x="70" y="16" width="3" height="3" fill="hsl(0, 100%, 60%)" />
<rect x="34" y="25" width="3" height="3" fill="hsl(0, 100%, 60%)" />
<rect x="37" y="28" width="3" height="3" fill="hsl(0, 100%, 60%)" />
<rect x="40" y="28" width="3" height="3" fill="hsl(0, 100%, 60%)" />
<rect x="34" y="31" width="3" height="3" fill="hsl(0, 100%, 60%)" />
<rect x="37" y="31" width="3" height="3" fill="hsl(0, 100%, 60%)" />
<rect x="7" y="37" width="3" height="3" fill="hsl(0, 100%, 60%)" />
<rect x="10" y="37" width="3" height="3" fill="hsl(0, 100%, 60%)" />
<rect x="4" y="40" width="3" height="3" fill="hsl(0, 100%, 60%)" />
<rect x="10" y="40" width="3" height="3" fill="hsl(0, 100%, 60%)" />
<rect x="19" y="40" width="3" height="3" fill="hsl(0, 100%, 60%)" />
<rect x="22" y="40" width="3" height="3" fill="hsl(0, 100%, 60%)" />
<rect x="10" y="43" width="3" height="3" fill="hsl(0, 100%, 60%)" />
<rect x="16" y="43" width="3" height="3" fill="hsl(0, 100%, 60%)" />
<rect x="19" y="43" width="3" height="3" fill="hsl(0, 100%, 60%)" />
<rect x="22" y="46" width="3" height="3" fill="hsl(0, 100%, 60%)" />
<rect x="19" y="58" width="3" height="3" fill="hsl(0, 100%, 60%)" />
<rect x="22" y="58" width="3" height="3" fill="hsl(0, 100%, 60%)" />
<rect x="22" y="61" width="3" height="3" fill="hsl(0, 100%, 60%)" />
<rect x="25" y="61" width="3" height="3" fill="hsl(0, 100%, 60%)" />
<rect x="19" y="64" width="3" height="3" fill="hsl(0, 100%, 60%)" />
</svg>