<?xml version="1.0" encoding="utf-8"?>
<svg xmlns="http://www.w3.org/2000/svg" width="80" height="34" viewBox="0 0 80 34">
<rect width="100%" height="100%" fill="transparent" />
<rect x="36" y="4" width="2" height="2" fill="hsl(0, 100%, 60%)" />
<rect x="38" y="6" width="2" height="2" fill="hsl(0, 100%, 60%)" />
<rect x="34" y="8" width="2" height="2" fill="hsl(0, 100%, 60%)" />
<rect x="36" y="8" width="2" height="2" fill="hsl(0, 100%, 60%)" />
<rect x="38" y="8" width="2" height="2" fill="hsl(0, 100%, 60%)" />
<rect x="50" y="12" width="2" height="2" fill="hsl(0, 100%, 60%)" />
<rect x="54" y="12" width="2" height="2" fill="hsl(0, 100%, 60%)" />
<rect x="46" y="14" width="2" height="2" fill="hsl(0, 100%, 60%)" />
<rect x="54" y="14" width="2" height="2" fill="hsl(0, 100%, 60%)" />
<rect x="30" y="16" width="2" height="2" fill="hsl(0, 100%, 60%)" />
<rect x="46" y="16" width="2" height="2" fill="hsl(0, 100%, 60%)" />
<rect x="28" y="18" width="2" height="2" fill="hsl(0, 100%, 60%)" />
<rect x="30" y="18" width="2" height="2" fill="hsl(0, 100%, 60%)" />
<rect x="32" y="18" width="2" height="2" fill="hsl(0, 100%, 60%)" />
<rect x="34" y="18" width="2" height="2" fill="hsl(0, 100%, 60%)" />
<rect x="44" y="18" width="2" height="2" fill="hsl(0, 100%, 60%)" />
<rect x="54" y="18" width="2" height="2" fill="hsl(0, 100%, 60%)" />
<rect x="72" y="18" width="2" height="2" fill="hsl(0, 100%, 60%)" />
<rect x="74" y="18" width="2" height="2" fill="hsl(0, 100%, 60%)" />
<rect x="26" y="20" width="2" height="2" fill="hsl(0, 100%, 60%)" />
<rect x="28" y="20" width="2" height="2" fill="hsl(0, 100%, 60%)" />
<rect x="32" y="20" width="2" height="2" fill="hsl(0, 100%, 60%)" />
<rect x="36" y="20" width="2" height="2" fill="hsl(0, 100%, 60%)" />
<rect x="46" y="20" width="2" height="2" fill="hsl(0, 100%, 60%)" />
<rect x="72" y="20" width="2" height="2" fill="hsl(0, 100%, 60%)" />
<rect x="74" y="20" width="2" height="2" fill="hsl(0, 100%, 60%)" />
<rect x="4" y="22" width="2" height="2" fill="hsl(0, 100%, 60%)" />
<rect x="6" y="22" width="2" height="2" fill="hsl(0, 100%, 60%)" />
<rect x="24" y="22" width="2" height="2" fill="hsl(0, 100%, 60%)" />
<rect x="26" y="22" width="2" height="2" fill="hsl(0, 100%, 60%)" />
<rect x="28" y="22" width="2" height="2" fill="hsl(0, 100%, 60%)" />
<rect x="32" y="22" width="2" height="2" fill="hsl(0, 100%, 60%)" />
<rect x="38" y="22" width="2" height="2" fill="hsl(0, 100%, 60%)" />
<rect x="46" y="22" width="2" height="2" fill="hsl(0, 100%, 60%)" />
<rect x="54" y="22" width="2" height="2" fill="hsl(0, 100%, 60%)" />
<rect x="4" y="24" width="2" height="2" fill="hsl(0, 100%, 60%)" />
<rect x="6" y="24" width="2" height="2" fill="hsl(0, 100%, 60%)" />
<rect x="26" y="24" width="2" height="2" fill="hsl(0, 100%, 60%)" />
<rect x="28" y="24" width="2" height="2" fill="hsl(0, 100%, 60%)" />
<rect x="32" y="24" width="2" height="2" fill="hsl(0, 100%, 60%)" />
<rect x="36" y="24" width="2" height="2" fill="hsl(0, 100%, 60%)" />
<rect x="50" y="24" width="2" height="2" fill="hsl(0, 100%, 60%)" />
<rect x="54" y="24" width="2" height="2" fill="hsl(0, 100%, 60%)" />
<rect x="28" y="26" width="2" height="2" fill="hsl(0, 100%, 60%)" />
<rect x="30" y="26" width="2" height="2" fill="hsl(0, 100%, 60%)" />
<rect x="32" y="26" width="2" height="2" fill="hsl(0, 100%, 60%)" />
<rect x="34" y="26" width="2" height="2" fill="hsl(0, 100%, 60%)" />
<rect x="30" y="28" width="2" height="2" fill="hsl(0, 100%, 60%)" />
</svg>