<?xml version="1.0" encoding="utf-8"?>
<svg xmlns="http://www.w3.org/2000/svg" width="96" height="76" viewBox="0 0 96 76">
<rect width="100%" height="100%" fill="transparent" />
<rect x="72" y="4" width="4" height="4" fill="hsl(0, 100%, 60%)" />
<rect x="68" y="8" width="4" height="4" fill="hsl(0, 100%, 60%)" />
<rect x="80" y="8" width="4" height="4" fill="hsl(0, 100%, 60%)" />
<rect x="72" y="12" width="4" height="4" fill="hsl(0, 100%, 60%)" />
<rect x="76" y="12" width="4" height="4" fill="hsl(0, 100%, 60%)" />
<rect x="80" y="12" width="4" height="4" fill="hsl(0, 100%, 60%)" />
<rect x="72" y="16" width="4" height="4" fill="hsl(0, 100%, 60%)" />
<rect x="84" y="16" width="4" height="4" fill="hsl(0, 100%, 60%)" />
<rect x="4" y="24" width="4" height="4" fill="hsl(0, 100%, 60%)" />
<rect x="8" y="24" width="4" height="4" fill="hsl(0, 100%, 60%)" />
<rect x="76" y="24" width="4" height="4" fill="hsl(0, 100%, 60%)" />
<rect x="8" y="28" width="4" height="4" fill="hsl(0, 100%, 60%)" />
<rect x="76" y="28" width="4" height="4" fill="hsl(0, 100%, 60%)" />
<rect x="76" y="32" width="4" height="4" fill="hsl(0, 100%, 60%)" />
<rect x="80" y="64" width="4" height="4" fill="hsl(0, 100%, 60%)" />
<rect x="84" y="64" width="4" height="4" fill="hsl(0, 100%, 60%)" />
<rect x="88" y="64" width="4" height="4" fill="hsl(0, 100%, 60%)" />
<rect x="48" y="68" width="4" height="4" fill="hsl(0, 100%, 60%)" />
<rect x="52" y="68" width="4" height="4" fill="hsl(0, 100%, 60%)" />
<rect x="56" y="68" width="4" height="4" fill="hsl(0, 100%, 60%)" />
</svg>