<?xml version="1.0" encoding="utf-8"?>
<svg xmlns="http://www.w3.org/2000/svg" width="68" height="68" viewBox="0 0 68 68">
<rect width="100%" height="100%" fill="transparent" />
<rect x="29" y="4" width="1" height="1" fill="hsl(0, 100%, 60%)" />
<rect x="30" y="4" width="1" height="1" fill="hsl(0, 100%, 60%)" />
<rect x="16" y="5" width="1" height="1" fill="hsl(0, 100%, 60%)" />
<rect x="17" y="5" width="1" height="1" fill="hsl(0, 100%, 60%)" />
<rect x="29" y="5" width="1" height="1" fill="hsl(0, 100%, 60%)" />
<rect x="14" y="6" width="1" height="1" fill="hsl(0, 100%, 60%)" />
<rect x="15" y="6" width="1" height="1" fill="hsl(0, 100%, 60%)" />
<rect x="17" y="6" width="1" height="1" fill="hsl(0, 100%, 60%)" />
<rect x="18" y="6" width="1" height="1" fill="hsl(0, 100%, 60%)" />
<rect x="30" y="6" width="1" height="1" fill="hsl(0, 100%, 60%)" />
<rect x="14" y="7" width="1" height="1" fill="hsl(0, 100%, 60%)" />
<rect x="15" y="7" width="1" height="1" fill="hsl(0, 100%, 60%)" />
<rect x="16" y="7" width="1" height="1" fill="hsl(0, 100%, 60%)" />
<rect x="17" y="7" width="1" height="1" fill="hsl(0, 100%, 60%)" />
<rect x="31" y="7" width="1" height="1" fill="hsl(0, 100%, 60%)" />
<rect x="15" y="8" width="1" height="1" fill="hsl(0, 100%, 60%)" />
<rect x="16" y="8" width="1" height="1" fill="hsl(0, 100%, 60%)" />
<rect x="32" y="8" width="1" height="1" fill="hsl(0, 100%, 60%)" />
<rect x="20" y="9" width="1" height="1" fill="hsl(0, 100%, 60%)" />
<rect x="21" y="9" width="1" height="1" fill="hsl(0, 100%, 60%)" />
<rect x="33" y="9" width="1" height="1" fill="hsl(0, 100%, 60%)" />
<rect x="19" y="10" width="1" height="1" fill="hsl(0, 100%, 60%)" />
<rect x="21" y="10" width="1" height="1" fill="hsl(0, 100%, 60%)" />
<rect x="34" y="10" width="1" height="1" fill="hsl(0, 100%, 60%)" />
<rect x="21" y="11" width="1" height="1" fill="hsl(0, 100%, 60%)" />
<rect x="35" y="11" width="1" height="1" fill="hsl(0, 100%, 60%)" />
<rect x="36" y="12" width="1" height="1" fill="hsl(0, 100%, 60%)" />
<rect x="37" y="13" width="1" height="1" fill="hsl(0, 100%, 60%)" />
<rect x="38" y="14" width="1" height="1" fill="hsl(0, 100%, 60%)" />
<rect x="39" y="15" width="1" height="1" fill="hsl(0, 100%, 60%)" />
<rect x="27" y="16" width="1" height="1" fill="hsl(0, 100%, 60%)" />
<rect x="40" y="16" width="1" height="1" fill="hsl(0, 100%, 60%)" />
<rect x="26" y="17" width="1" height="1" fill="hsl(0, 100%, 60%)" />
<rect x="27" y="17" width="1" height="1" fill="hsl(0, 100%, 60%)" />
<rect x="28" y="17" width="1" height="1" fill="hsl(0, 100%, 60%)" />
<rect x="41" y="17" width="1" height="1" fill="hsl(0, 100%, 60%)" />
<rect x="26" y="18" width="1" height="1" fill="hsl(0, 100%, 60%)" />
<rect x="28" y="18" width="1" height="1" fill="hsl(0, 100%, 60%)" />
<rect x="29" y="18" width="1" height="1" fill="hsl(0, 100%, 60%)" />
<rect x="42" y="18" width="1" height="1" fill="hsl(0, 100%, 60%)" />
<rect x="4" y="19" width="1" height="1" fill="hsl(0, 100%, 60%)" />
<rect x="7" y="19" width="1" height="1" fill="hsl(0, 100%, 60%)" />
<rect x="27" y="19" width="1" height="1" fill="hsl(0, 100%, 60%)" />
<rect x="28" y="19" width="1" height="1" fill="hsl(0, 100%, 60%)" />
<rect x="29" y="19" width="1" height="1" fill="hsl(0, 100%, 60%)" />
<rect x="43" y="19" width="1" height="1" fill="hsl(0, 100%, 60%)" />
<rect x="8" y="20" width="1" height="1" fill="hsl(0, 100%, 60%)" />
<rect x="27" y="20" width="1" height="1" fill="hsl(0, 100%, 60%)" />
<rect x="28" y="20" width="1" height="1" fill="hsl(0, 100%, 60%)" />
<rect x="44" y="20" width="1" height="1" fill="hsl(0, 100%, 60%)" />
<rect x="4" y="21" width="1" height="1" fill="hsl(0, 100%, 60%)" />
<rect x="8" y="21" width="1" height="1" fill="hsl(0, 100%, 60%)" />
<rect x="45" y="21" width="1" height="1" fill="hsl(0, 100%, 60%)" />
<rect x="5" y="22" width="1" height="1" fill="hsl(0, 100%, 60%)" />
<rect x="6" y="22" width="1" height="1" fill="hsl(0, 100%, 60%)" />
<rect x="7" y="22" width="1" height="1" fill="hsl(0, 100%, 60%)" />
<rect x="8" y="22" width="1" height="1" fill="hsl(0, 100%, 60%)" />
<rect x="46" y="22" width="1" height="1" fill="hsl(0, 100%, 60%)" />
<rect x="47" y="23" width="1" height="1" fill="hsl(0, 100%, 60%)" />
<rect x="48" y="24" width="1" height="1" fill="hsl(0, 100%, 60%)" />
<rect x="49" y="25" width="1" height="1" fill="hsl(0, 100%, 60%)" />
<rect x="39" y="26" width="1" height="1" fill="hsl(0, 100%, 60%)" />
<rect x="40" y="26" width="1" height="1" fill="hsl(0, 100%, 60%)" />
<rect x="50" y="26" width="1" height="1" fill="hsl(0, 100%, 60%)" />
<rect x="40" y="27" width="1" height="1" fill="hsl(0, 100%, 60%)" />
<rect x="41" y="27" width="1" height="1" fill="hsl(0, 100%, 60%)" />
<rect x="51" y="27" width="1" height="1" fill="hsl(0, 100%, 60%)" />
<rect x="39" y="28" width="1" height="1" fill="hsl(0, 100%, 60%)" />
<rect x="52" y="28" width="1" height="1" fill="hsl(0, 100%, 60%)" />
<rect x="53" y="29" width="1" height="1" fill="hsl(0, 100%, 60%)" />
<rect x="54" y="30" width="1" height="1" fill="hsl(0, 100%, 60%)" />
<rect x="41" y="31" width="1" height="1" fill="hsl(0, 100%, 60%)" />
<rect x="42" y="31" width="1" height="1" fill="hsl(0, 100%, 60%)" />
<rect x="43" y="31" width="1" height="1" fill="hsl(0, 100%, 60%)" />
<rect x="55" y="31" width="1" height="1" fill="hsl(0, 100%, 60%)" />
<rect x="40" y="32" width="1" height="1" fill="hsl(0, 100%, 60%)" />
<rect x="43" y="32" width="1" height="1" fill="hsl(0, 100%, 60%)" />
<rect x="56" y="32" width="1" height="1" fill="hsl(0, 100%, 60%)" />
<rect x="43" y="33" width="1" height="1" fill="hsl(0, 100%, 60%)" />
<rect x="57" y="33" width="1" height="1" fill="hsl(0, 100%, 60%)" />
<rect x="43" y="34" width="1" height="1" fill="hsl(0, 100%, 60%)" />
<rect x="58" y="34" width="1" height="1" fill="hsl(0, 100%, 60%)" />
<rect x="40" y="35" width="1" height="1" fill="hsl(0, 100%, 60%)" />
<rect x="42" y="35" width="1" height="1" fill="hsl(0, 100%, 60%)" />
<rect x="59" y="35" width="1" height="1" fill="hsl(0, 100%, 60%)" />
<rect x="60" y="36" width="1" height="1" fill="hsl(0, 100%, 60%)" />
<rect x="61" y="37" width="1" height="1" fill="hsl(0, 100%, 60%)" />
<rect x="63" y="37" width="1" height="1" fill="hsl(0, 100%, 60%)" />
<rect x="11" y="38" width="1" height="1" fill="hsl(0, 100%, 60%)" />
<rect x="12" y="38" width="1" height="1" fill="hsl(0, 100%, 60%)" />
<rect x="13" y="38" width="1" height="1" fill="hsl(0, 100%, 60%)" />
<rect x="62" y="38" width="1" height="1" fill="hsl(0, 100%, 60%)" />
<rect x="63" y="38" width="1" height="1" fill="hsl(0, 100%, 60%)" />
<rect x="13" y="39" width="1" height="1" fill="hsl(0, 100%, 60%)" />
<rect x="26" y="39" width="1" height="1" fill="hsl(0, 100%, 60%)" />
<rect x="27" y="39" width="1" height="1" fill="hsl(0, 100%, 60%)" />
<rect x="34" y="39" width="1" height="1" fill="hsl(0, 100%, 60%)" />
<rect x="35" y="39" width="1" height="1" fill="hsl(0, 100%, 60%)" />
<rect x="36" y="39" width="1" height="1" fill="hsl(0, 100%, 60%)" />
<rect x="47" y="39" width="1" height="1" fill="hsl(0, 100%, 60%)" />
<rect x="48" y="39" width="1" height="1" fill="hsl(0, 100%, 60%)" />
<rect x="49" y="39" width="1" height="1" fill="hsl(0, 100%, 60%)" />
<rect x="50" y="39" width="1" height="1" fill="hsl(0, 100%, 60%)" />
<rect x="12" y="40" width="1" height="1" fill="hsl(0, 100%, 60%)" />
<rect x="25" y="40" width="1" height="1" fill="hsl(0, 100%, 60%)" />
<rect x="27" y="40" width="1" height="1" fill="hsl(0, 100%, 60%)" />
<rect x="36" y="40" width="1" height="1" fill="hsl(0, 100%, 60%)" />
<rect x="46" y="40" width="1" height="1" fill="hsl(0, 100%, 60%)" />
<rect x="50" y="40" width="1" height="1" fill="hsl(0, 100%, 60%)" />
<rect x="27" y="41" width="1" height="1" fill="hsl(0, 100%, 60%)" />
<rect x="35" y="41" width="1" height="1" fill="hsl(0, 100%, 60%)" />
<rect x="50" y="41" width="1" height="1" fill="hsl(0, 100%, 60%)" />
<rect x="46" y="42" width="1" height="1" fill="hsl(0, 100%, 60%)" />
<rect x="49" y="42" width="1" height="1" fill="hsl(0, 100%, 60%)" />
<rect x="56" y="46" width="1" height="1" fill="hsl(0, 100%, 60%)" />
<rect x="57" y="46" width="1" height="1" fill="hsl(0, 100%, 60%)" />
<rect x="57" y="47" width="1" height="1" fill="hsl(0, 100%, 60%)" />
<rect x="58" y="47" width="1" height="1" fill="hsl(0, 100%, 60%)" />
<rect x="56" y="48" width="1" height="1" fill="hsl(0, 100%, 60%)" />
<rect x="60" y="50" width="1" height="1" fill="hsl(0, 100%, 60%)" />
<rect x="61" y="50" width="1" height="1" fill="hsl(0, 100%, 60%)" />
<rect x="62" y="50" width="1" height="1" fill="hsl(0, 100%, 60%)" />
<rect x="60" y="51" width="1" height="1" fill="hsl(0, 100%, 60%)" />
<rect x="63" y="51" width="1" height="1" fill="hsl(0, 100%, 60%)" />
<rect x="60" y="52" width="1" height="1" fill="hsl(0, 100%, 60%)" />
<rect x="60" y="53" width="1" height="1" fill="hsl(0, 100%, 60%)" />
<rect x="61" y="54" width="1" height="1" fill="hsl(0, 100%, 60%)" />
<rect x="63" y="54" width="1" height="1" fill="hsl(0, 100%, 60%)" />
<rect x="27" y="55" width="1" height="1" fill="hsl(0, 100%, 60%)" />
<rect x="28" y="55" width="1" height="1" fill="hsl(0, 100%, 60%)" />
<rect x="26" y="56" width="1" height="1" fill="hsl(0, 100%, 60%)" />
<rect x="28" y="56" width="1" height="1" fill="hsl(0, 100%, 60%)" />
<rect x="28" y="57" width="1" height="1" fill="hsl(0, 100%, 60%)" />
<rect x="46" y="59" width="1" height="1" fill="hsl(0, 100%, 60%)" />
<rect x="45" y="60" width="1" height="1" fill="hsl(0, 100%, 60%)" />
<rect x="46" y="60" width="1" height="1" fill="hsl(0, 100%, 60%)" />
<rect x="47" y="60" width="1" height="1" fill="hsl(0, 100%, 60%)" />
<rect x="45" y="61" width="1" height="1" fill="hsl(0, 100%, 60%)" />
<rect x="47" y="61" width="1" height="1" fill="hsl(0, 100%, 60%)" />
<rect x="48" y="61" width="1" height="1" fill="hsl(0, 100%, 60%)" />
<rect x="46" y="62" width="1" height="1" fill="hsl(0, 100%, 60%)" />
<rect x="47" y="62" width="1" height="1" fill="hsl(0, 100%, 60%)" />
<rect x="48" y="62" width="1" height="1" fill="hsl(0, 100%, 60%)" />
<rect x="46" y="63" width="1" height="1" fill="hsl(0, 100%, 60%)" />
<rect x="47" y="63" width="1" height="1" fill="hsl(0, 100%, 60%)" />
</svg>