<?xml version="1.0" encoding="utf-8"?>
<svg xmlns="http://www.w3.org/2000/svg" width="50" height="92" viewBox="0 0 50 92">
<rect width="100%" height="100%" fill="transparent" />
<rect x="10" y="4" width="6" height="6" fill="hsl(0, 100%, 60%)" />
<rect x="28" y="4" width="6" height="6" fill="hsl(0, 100%, 60%)" />
<rect x="4" y="10" width="6" height="6" fill="hsl(0, 100%, 60%)" />
<rect x="4" y="16" width="6" height="6" fill="hsl(0, 100%, 60%)" />
<rect x="28" y="16" width="6" height="6" fill="hsl(0, 100%, 60%)" />
<rect x="4" y="22" width="6" height="6" fill="hsl(0, 100%, 60%)" />
<rect x="10" y="22" width="6" height="6" fill="hsl(0, 100%, 60%)" />
<rect x="16" y="22" width="6" height="6" fill="hsl(0, 100%, 60%)" />
<rect x="22" y="22" width="6" height="6" fill="hsl(0, 100%, 60%)" />
<rect x="10" y="28" width="6" height="6" fill="hsl(0, 100%, 60%)" />
<rect x="4" y="34" width="6" height="6" fill="hsl(0, 100%, 60%)" />
<rect x="4" y="40" width="6" height="6" fill="hsl(0, 100%, 60%)" />
<rect x="10" y="40" width="6" height="6" fill="hsl(0, 100%, 60%)" />
<rect x="16" y="40" width="6" height="6" fill="hsl(0, 100%, 60%)" />
<rect x="34" y="46" width="6" height="6" fill="hsl(0, 100%, 60%)" />
<rect x="40" y="46" width="6" height="6" fill="hsl(0, 100%, 60%)" />
<rect x="28" y="52" width="6" height="6" fill="hsl(0, 100%, 60%)" />
<rect x="34" y="52" width="6" height="6" fill="hsl(0, 100%, 60%)" />
<rect x="40" y="58" width="6" height="6" fill="hsl(0, 100%, 60%)" />
<rect x="16" y="70" width="6" height="6" fill="hsl(0, 100%, 60%)" />
<rect x="22" y="70" width="6" height="6" fill="hsl(0, 100%, 60%)" />
<rect x="22" y="76" width="6" height="6" fill="hsl(0, 100%, 60%)" />
<rect x="28" y="76" width="6" height="6" fill="hsl(0, 100%, 60%)" />
<rect x="16" y="82" width="6" height="6" fill="hsl(0, 100%, 60%)" />
</svg>