<?xml version="1.0" encoding="utf-8"?>
<svg xmlns="http://www.w3.org/2000/svg" width="88" height="88" viewBox="0 0 88 88">
<rect width="100%" height="100%" fill="transparent" />
<rect x="39" y="4" width="5" height="5" fill="hsl(0, 100%, 60%)" />
<rect x="44" y="4" width="5" height="5" fill="hsl(0, 100%, 60%)" />
<rect x="39" y="9" width="5" height="5" fill="hsl(0, 100%, 60%)" />
<rect x="44" y="9" width="5" height="5" fill="hsl(0, 100%, 60%)" />
<rect x="34" y="19" width="5" height="5" fill="hsl(0, 100%, 60%)" />
<rect x="39" y="19" width="5" height="5" fill="hsl(0, 100%, 60%)" />
<rect x="44" y="19" width="5" height="5" fill="hsl(0, 100%, 60%)" />
<rect x="49" y="19" width="5" height="5" fill="hsl(0, 100%, 60%)" />
<rect x="29" y="24" width="5" height="5" fill="hsl(0, 100%, 60%)" />
<rect x="54" y="24" width="5" height="5" fill="hsl(0, 100%, 60%)" />
<rect x="24" y="29" width="5" height="5" fill="hsl(0, 100%, 60%)" />
<rect x="59" y="29" width="5" height="5" fill="hsl(0, 100%, 60%)" />
<rect x="19" y="34" width="5" height="5" fill="hsl(0, 100%, 60%)" />
<rect x="64" y="34" width="5" height="5" fill="hsl(0, 100%, 60%)" />
<rect x="4" y="39" width="5" height="5" fill="hsl(0, 100%, 60%)" />
<rect x="9" y="39" width="5" height="5" fill="hsl(0, 100%, 60%)" />
<rect x="19" y="39" width="5" height="5" fill="hsl(0, 100%, 60%)" />
<rect x="64" y="39" width="5" height="5" fill="hsl(0, 100%, 60%)" />
<rect x="74" y="39" width="5" height="5" fill="hsl(0, 100%, 60%)" />
<rect x="79" y="39" width="5" height="5" fill="hsl(0, 100%, 60%)" />
<rect x="4" y="44" width="5" height="5" fill="hsl(0, 100%, 60%)" />
<rect x="9" y="44" width="5" height="5" fill="hsl(0, 100%, 60%)" />
<rect x="19" y="44" width="5" height="5" fill="hsl(0, 100%, 60%)" />
<rect x="64" y="44" width="5" height="5" fill="hsl(0, 100%, 60%)" />
<rect x="74" y="44" width="5" height="5" fill="hsl(0, 100%, 60%)" />
<rect x="79" y="44" width="5" height="5" fill="hsl(0, 100%, 60%)" />
<rect x="19" y="49" width="5" height="5" fill="hsl(0, 100%, 60%)" />
<rect x="64" y="49" width="5" height="5" fill="hsl(0, 100%, 60%)" />
<rect x="24" y="54" width="5" height="5" fill="hsl(0, 100%, 60%)" />
<rect x="59" y="54" width="5" height="5" fill="hsl(0, 100%, 60%)" />
<rect x="29" y="59" width="5" height="5" fill="hsl(0, 100%, 60%)" />
<rect x="54" y="59" width="5" height="5" fill="hsl(0, 100%, 60%)" />
<rect x="34" y="64" width="5" height="5" fill="hsl(0, 100%, 60%)" />
<rect x="39" y="64" width="5" height="5" fill="hsl(0, 100%, 60%)" />
<rect x="44" y="64" width="5" height="5" fill="hsl(0, 100%, 60%)" />
<rect x="49" y="64" width="5" height="5" fill="hsl(0, 100%, 60%)" />
<rect x="39" y="74" width="5" height="5" fill="hsl(0, 100%, 60%)" />
<rect x="44" y="74" width="5" height="5" fill="hsl(0, 100%, 60%)" />
<rect x="39" y="79" width="5" height="5" fill="hsl(0, 100%, 60%)" />
<rect x="44" y="79" width="5" height="5" fill="hsl(0, 100%, 60%)" />
</svg>