<?xml version="1.0" encoding="utf-8"?>
<svg xmlns="http://www.w3.org/2000/svg" width="70" height="72" viewBox="0 0 70 72">
<rect width="100%" height="100%" fill="transparent" />
<rect x="60" y="4" width="2" height="2" fill="hsl(0, 100%, 60%)" />
<rect x="60" y="6" width="2" height="2" fill="hsl(0, 100%, 60%)" />
<rect x="64" y="6" width="2" height="2" fill="hsl(0, 100%, 60%)" />
<rect x="60" y="8" width="2" height="2" fill="hsl(0, 100%, 60%)" />
<rect x="62" y="8" width="2" height="2" fill="hsl(0, 100%, 60%)" />
<rect x="38" y="26" width="2" height="2" fill="hsl(0, 100%, 60%)" />
<rect x="38" y="28" width="2" height="2" fill="hsl(0, 100%, 60%)" />
<rect x="42" y="28" width="2" height="2" fill="hsl(0, 100%, 60%)" />
<rect x="38" y="30" width="2" height="2" fill="hsl(0, 100%, 60%)" />
<rect x="40" y="30" width="2" height="2" fill="hsl(0, 100%, 60%)" />
<rect x="22" y="34" width="2" height="2" fill="hsl(0, 100%, 60%)" />
<rect x="24" y="34" width="2" height="2" fill="hsl(0, 100%, 60%)" />
<rect x="34" y="34" width="2" height="2" fill="hsl(0, 100%, 60%)" />
<rect x="36" y="34" width="2" height="2" fill="hsl(0, 100%, 60%)" />
<rect x="22" y="36" width="2" height="2" fill="hsl(0, 100%, 60%)" />
<rect x="24" y="36" width="2" height="2" fill="hsl(0, 100%, 60%)" />
<rect x="32" y="36" width="2" height="2" fill="hsl(0, 100%, 60%)" />
<rect x="38" y="36" width="2" height="2" fill="hsl(0, 100%, 60%)" />
<rect x="10" y="38" width="2" height="2" fill="hsl(0, 100%, 60%)" />
<rect x="12" y="38" width="2" height="2" fill="hsl(0, 100%, 60%)" />
<rect x="22" y="38" width="2" height="2" fill="hsl(0, 100%, 60%)" />
<rect x="24" y="38" width="2" height="2" fill="hsl(0, 100%, 60%)" />
<rect x="34" y="38" width="2" height="2" fill="hsl(0, 100%, 60%)" />
<rect x="38" y="38" width="2" height="2" fill="hsl(0, 100%, 60%)" />
<rect x="12" y="40" width="2" height="2" fill="hsl(0, 100%, 60%)" />
<rect x="24" y="40" width="2" height="2" fill="hsl(0, 100%, 60%)" />
<rect x="26" y="40" width="2" height="2" fill="hsl(0, 100%, 60%)" />
<rect x="36" y="40" width="2" height="2" fill="hsl(0, 100%, 60%)" />
<rect x="8" y="42" width="2" height="2" fill="hsl(0, 100%, 60%)" />
<rect x="20" y="42" width="2" height="2" fill="hsl(0, 100%, 60%)" />
<rect x="24" y="42" width="2" height="2" fill="hsl(0, 100%, 60%)" />
<rect x="26" y="42" width="2" height="2" fill="hsl(0, 100%, 60%)" />
<rect x="8" y="44" width="2" height="2" fill="hsl(0, 100%, 60%)" />
<rect x="10" y="44" width="2" height="2" fill="hsl(0, 100%, 60%)" />
<rect x="16" y="44" width="2" height="2" fill="hsl(0, 100%, 60%)" />
<rect x="18" y="44" width="2" height="2" fill="hsl(0, 100%, 60%)" />
<rect x="20" y="44" width="2" height="2" fill="hsl(0, 100%, 60%)" />
<rect x="44" y="44" width="2" height="2" fill="hsl(0, 100%, 60%)" />
<rect x="46" y="44" width="2" height="2" fill="hsl(0, 100%, 60%)" />
<rect x="14" y="46" width="2" height="2" fill="hsl(0, 100%, 60%)" />
<rect x="24" y="46" width="2" height="2" fill="hsl(0, 100%, 60%)" />
<rect x="28" y="46" width="2" height="2" fill="hsl(0, 100%, 60%)" />
<rect x="44" y="46" width="2" height="2" fill="hsl(0, 100%, 60%)" />
<rect x="8" y="48" width="2" height="2" fill="hsl(0, 100%, 60%)" />
<rect x="10" y="48" width="2" height="2" fill="hsl(0, 100%, 60%)" />
<rect x="12" y="48" width="2" height="2" fill="hsl(0, 100%, 60%)" />
<rect x="16" y="48" width="2" height="2" fill="hsl(0, 100%, 60%)" />
<rect x="18" y="48" width="2" height="2" fill="hsl(0, 100%, 60%)" />
<rect x="22" y="48" width="2" height="2" fill="hsl(0, 100%, 60%)" />
<rect x="24" y="48" width="2" height="2" fill="hsl(0, 100%, 60%)" />
<rect x="28" y="48" width="2" height="2" fill="hsl(0, 100%, 60%)" />
<rect x="30" y="48" width="2" height="2" fill="hsl(0, 100%, 60%)" />
<rect x="32" y="48" width="2" height="2" fill="hsl(0, 100%, 60%)" />
<rect x="46" y="48" width="2" height="2" fill="hsl(0, 100%, 60%)" />
<rect x="48" y="48" width="2" height="2" fill="hsl(0, 100%, 60%)" />
<rect x="50" y="48" width="2" height="2" fill="hsl(0, 100%, 60%)" />
<rect x="6" y="50" width="2" height="2" fill="hsl(0, 100%, 60%)" />
<rect x="16" y="50" width="2" height="2" fill="hsl(0, 100%, 60%)" />
<rect x="26" y="50" width="2" height="2" fill="hsl(0, 100%, 60%)" />
<rect x="34" y="50" width="2" height="2" fill="hsl(0, 100%, 60%)" />
<rect x="50" y="50" width="2" height="2" fill="hsl(0, 100%, 60%)" />
<rect x="4" y="52" width="2" height="2" fill="hsl(0, 100%, 60%)" />
<rect x="8" y="52" width="2" height="2" fill="hsl(0, 100%, 60%)" />
<rect x="12" y="52" width="2" height="2" fill="hsl(0, 100%, 60%)" />
<rect x="20" y="52" width="2" height="2" fill="hsl(0, 100%, 60%)" />
<rect x="22" y="52" width="2" height="2" fill="hsl(0, 100%, 60%)" />
<rect x="26" y="52" width="2" height="2" fill="hsl(0, 100%, 60%)" />
<rect x="32" y="52" width="2" height="2" fill="hsl(0, 100%, 60%)" />
<rect x="4" y="54" width="2" height="2" fill="hsl(0, 100%, 60%)" />
<rect x="8" y="54" width="2" height="2" fill="hsl(0, 100%, 60%)" />
<rect x="22" y="54" width="2" height="2" fill="hsl(0, 100%, 60%)" />
<rect x="26" y="54" width="2" height="2" fill="hsl(0, 100%, 60%)" />
<rect x="30" y="54" width="2" height="2" fill="hsl(0, 100%, 60%)" />
<rect x="6" y="56" width="2" height="2" fill="hsl(0, 100%, 60%)" />
<rect x="12" y="56" width="2" height="2" fill="hsl(0, 100%, 60%)" />
<rect x="14" y="56" width="2" height="2" fill="hsl(0, 100%, 60%)" />
<rect x="16" y="56" width="2" height="2" fill="hsl(0, 100%, 60%)" />
<rect x="18" y="56" width="2" height="2" fill="hsl(0, 100%, 60%)" />
<rect x="20" y="56" width="2" height="2" fill="hsl(0, 100%, 60%)" />
<rect x="26" y="56" width="2" height="2" fill="hsl(0, 100%, 60%)" />
<rect x="28" y="56" width="2" height="2" fill="hsl(0, 100%, 60%)" />
<rect x="8" y="58" width="2" height="2" fill="hsl(0, 100%, 60%)" />
<rect x="10" y="58" width="2" height="2" fill="hsl(0, 100%, 60%)" />
<rect x="20" y="58" width="2" height="2" fill="hsl(0, 100%, 60%)" />
<rect x="24" y="58" width="2" height="2" fill="hsl(0, 100%, 60%)" />
<rect x="12" y="60" width="2" height="2" fill="hsl(0, 100%, 60%)" />
<rect x="14" y="60" width="2" height="2" fill="hsl(0, 100%, 60%)" />
<rect x="16" y="60" width="2" height="2" fill="hsl(0, 100%, 60%)" />
<rect x="18" y="60" width="2" height="2" fill="hsl(0, 100%, 60%)" />
<rect x="24" y="60" width="2" height="2" fill="hsl(0, 100%, 60%)" />
<rect x="8" y="62" width="2" height="2" fill="hsl(0, 100%, 60%)" />
<rect x="10" y="62" width="2" height="2" fill="hsl(0, 100%, 60%)" />
<rect x="24" y="62" width="2" height="2" fill="hsl(0, 100%, 60%)" />
<rect x="26" y="62" width="2" height="2" fill="hsl(0, 100%, 60%)" />
<rect x="8" y="64" width="2" height="2" fill="hsl(0, 100%, 60%)" />
<rect x="14" y="64" width="2" height="2" fill="hsl(0, 100%, 60%)" />
<rect x="12" y="66" width="2" height="2" fill="hsl(0, 100%, 60%)" />
<rect x="14" y="66" width="2" height="2" fill="hsl(0, 100%, 60%)" />
</svg>