<?xml version="1.0" encoding="utf-8"?>
<svg xmlns="http://www.w3.org/2000/svg" width="58" height="57" viewBox="0 0 58 57">
<rect width="100%" height="100%" fill="transparent" />
<rect x="52" y="4" width="1" height="1" fill="hsl(0, 100%, 60%)" />
<rect x="50" y="5" width="1" height="1" fill="hsl(0, 100%, 60%)" />
<rect x="51" y="5" width="1" height="1" fill="hsl(0, 100%, 60%)" />
<rect x="52" y="5" width="1" height="1" fill="hsl(0, 100%, 60%)" />
<rect x="49" y="6" width="1" height="1" fill="hsl(0, 100%, 60%)" />
<rect x="49" y="7" width="1" height="1" fill="hsl(0, 100%, 60%)" />
<rect x="50" y="7" width="1" height="1" fill="hsl(0, 100%, 60%)" />
<rect x="37" y="14" width="1" height="1" fill="hsl(0, 100%, 60%)" />
<rect x="38" y="14" width="1" height="1" fill="hsl(0, 100%, 60%)" />
<rect x="36" y="15" width="1" height="1" fill="hsl(0, 100%, 60%)" />
<rect x="39" y="15" width="1" height="1" fill="hsl(0, 100%, 60%)" />
<rect x="36" y="16" width="1" height="1" fill="hsl(0, 100%, 60%)" />
<rect x="38" y="16" width="1" height="1" fill="hsl(0, 100%, 60%)" />
<rect x="40" y="16" width="1" height="1" fill="hsl(0, 100%, 60%)" />
<rect x="37" y="17" width="1" height="1" fill="hsl(0, 100%, 60%)" />
<rect x="40" y="17" width="1" height="1" fill="hsl(0, 100%, 60%)" />
<rect x="41" y="17" width="1" height="1" fill="hsl(0, 100%, 60%)" />
<rect x="42" y="17" width="1" height="1" fill="hsl(0, 100%, 60%)" />
<rect x="39" y="19" width="1" height="1" fill="hsl(0, 100%, 60%)" />
<rect x="40" y="19" width="1" height="1" fill="hsl(0, 100%, 60%)" />
<rect x="46" y="19" width="1" height="1" fill="hsl(0, 100%, 60%)" />
<rect x="47" y="19" width="1" height="1" fill="hsl(0, 100%, 60%)" />
<rect x="39" y="20" width="1" height="1" fill="hsl(0, 100%, 60%)" />
<rect x="45" y="20" width="1" height="1" fill="hsl(0, 100%, 60%)" />
<rect x="47" y="20" width="1" height="1" fill="hsl(0, 100%, 60%)" />
<rect x="48" y="20" width="1" height="1" fill="hsl(0, 100%, 60%)" />
<rect x="45" y="21" width="1" height="1" fill="hsl(0, 100%, 60%)" />
<rect x="48" y="21" width="1" height="1" fill="hsl(0, 100%, 60%)" />
<rect x="46" y="22" width="1" height="1" fill="hsl(0, 100%, 60%)" />
<rect x="47" y="22" width="1" height="1" fill="hsl(0, 100%, 60%)" />
<rect x="48" y="22" width="1" height="1" fill="hsl(0, 100%, 60%)" />
<rect x="42" y="23" width="1" height="1" fill="hsl(0, 100%, 60%)" />
<rect x="43" y="23" width="1" height="1" fill="hsl(0, 100%, 60%)" />
<rect x="46" y="23" width="1" height="1" fill="hsl(0, 100%, 60%)" />
<rect x="47" y="23" width="1" height="1" fill="hsl(0, 100%, 60%)" />
<rect x="41" y="24" width="1" height="1" fill="hsl(0, 100%, 60%)" />
<rect x="42" y="24" width="1" height="1" fill="hsl(0, 100%, 60%)" />
<rect x="43" y="24" width="1" height="1" fill="hsl(0, 100%, 60%)" />
<rect x="41" y="25" width="1" height="1" fill="hsl(0, 100%, 60%)" />
<rect x="44" y="25" width="1" height="1" fill="hsl(0, 100%, 60%)" />
<rect x="41" y="26" width="1" height="1" fill="hsl(0, 100%, 60%)" />
<rect x="42" y="26" width="1" height="1" fill="hsl(0, 100%, 60%)" />
<rect x="44" y="26" width="1" height="1" fill="hsl(0, 100%, 60%)" />
<rect x="50" y="26" width="1" height="1" fill="hsl(0, 100%, 60%)" />
<rect x="42" y="27" width="1" height="1" fill="hsl(0, 100%, 60%)" />
<rect x="43" y="27" width="1" height="1" fill="hsl(0, 100%, 60%)" />
<rect x="49" y="27" width="1" height="1" fill="hsl(0, 100%, 60%)" />
<rect x="50" y="27" width="1" height="1" fill="hsl(0, 100%, 60%)" />
<rect x="30" y="28" width="1" height="1" fill="hsl(0, 100%, 60%)" />
<rect x="31" y="28" width="1" height="1" fill="hsl(0, 100%, 60%)" />
<rect x="4" y="29" width="1" height="1" fill="hsl(0, 100%, 60%)" />
<rect x="5" y="29" width="1" height="1" fill="hsl(0, 100%, 60%)" />
<rect x="29" y="29" width="1" height="1" fill="hsl(0, 100%, 60%)" />
<rect x="32" y="29" width="1" height="1" fill="hsl(0, 100%, 60%)" />
<rect x="47" y="29" width="1" height="1" fill="hsl(0, 100%, 60%)" />
<rect x="48" y="29" width="1" height="1" fill="hsl(0, 100%, 60%)" />
<rect x="49" y="29" width="1" height="1" fill="hsl(0, 100%, 60%)" />
<rect x="52" y="29" width="1" height="1" fill="hsl(0, 100%, 60%)" />
<rect x="5" y="30" width="1" height="1" fill="hsl(0, 100%, 60%)" />
<rect x="30" y="30" width="1" height="1" fill="hsl(0, 100%, 60%)" />
<rect x="32" y="30" width="1" height="1" fill="hsl(0, 100%, 60%)" />
<rect x="49" y="30" width="1" height="1" fill="hsl(0, 100%, 60%)" />
<rect x="51" y="30" width="1" height="1" fill="hsl(0, 100%, 60%)" />
<rect x="53" y="30" width="1" height="1" fill="hsl(0, 100%, 60%)" />
<rect x="5" y="31" width="1" height="1" fill="hsl(0, 100%, 60%)" />
<rect x="7" y="31" width="1" height="1" fill="hsl(0, 100%, 60%)" />
<rect x="26" y="31" width="1" height="1" fill="hsl(0, 100%, 60%)" />
<rect x="27" y="31" width="1" height="1" fill="hsl(0, 100%, 60%)" />
<rect x="31" y="31" width="1" height="1" fill="hsl(0, 100%, 60%)" />
<rect x="50" y="31" width="1" height="1" fill="hsl(0, 100%, 60%)" />
<rect x="53" y="31" width="1" height="1" fill="hsl(0, 100%, 60%)" />
<rect x="6" y="32" width="1" height="1" fill="hsl(0, 100%, 60%)" />
<rect x="7" y="32" width="1" height="1" fill="hsl(0, 100%, 60%)" />
<rect x="18" y="32" width="1" height="1" fill="hsl(0, 100%, 60%)" />
<rect x="27" y="32" width="1" height="1" fill="hsl(0, 100%, 60%)" />
<rect x="29" y="32" width="1" height="1" fill="hsl(0, 100%, 60%)" />
<rect x="30" y="32" width="1" height="1" fill="hsl(0, 100%, 60%)" />
<rect x="51" y="32" width="1" height="1" fill="hsl(0, 100%, 60%)" />
<rect x="52" y="32" width="1" height="1" fill="hsl(0, 100%, 60%)" />
<rect x="17" y="33" width="1" height="1" fill="hsl(0, 100%, 60%)" />
<rect x="18" y="33" width="1" height="1" fill="hsl(0, 100%, 60%)" />
<rect x="29" y="33" width="1" height="1" fill="hsl(0, 100%, 60%)" />
<rect x="16" y="34" width="1" height="1" fill="hsl(0, 100%, 60%)" />
<rect x="17" y="34" width="1" height="1" fill="hsl(0, 100%, 60%)" />
<rect x="19" y="34" width="1" height="1" fill="hsl(0, 100%, 60%)" />
<rect x="29" y="34" width="1" height="1" fill="hsl(0, 100%, 60%)" />
<rect x="17" y="35" width="1" height="1" fill="hsl(0, 100%, 60%)" />
<rect x="19" y="35" width="1" height="1" fill="hsl(0, 100%, 60%)" />
<rect x="18" y="36" width="1" height="1" fill="hsl(0, 100%, 60%)" />
<rect x="19" y="36" width="1" height="1" fill="hsl(0, 100%, 60%)" />
<rect x="27" y="37" width="1" height="1" fill="hsl(0, 100%, 60%)" />
<rect x="28" y="37" width="1" height="1" fill="hsl(0, 100%, 60%)" />
<rect x="27" y="38" width="1" height="1" fill="hsl(0, 100%, 60%)" />
<rect x="29" y="38" width="1" height="1" fill="hsl(0, 100%, 60%)" />
<rect x="17" y="39" width="1" height="1" fill="hsl(0, 100%, 60%)" />
<rect x="27" y="39" width="1" height="1" fill="hsl(0, 100%, 60%)" />
<rect x="29" y="39" width="1" height="1" fill="hsl(0, 100%, 60%)" />
<rect x="30" y="39" width="1" height="1" fill="hsl(0, 100%, 60%)" />
<rect x="17" y="40" width="1" height="1" fill="hsl(0, 100%, 60%)" />
<rect x="28" y="40" width="1" height="1" fill="hsl(0, 100%, 60%)" />
<rect x="29" y="40" width="1" height="1" fill="hsl(0, 100%, 60%)" />
<rect x="16" y="41" width="1" height="1" fill="hsl(0, 100%, 60%)" />
<rect x="17" y="41" width="1" height="1" fill="hsl(0, 100%, 60%)" />
<rect x="19" y="41" width="1" height="1" fill="hsl(0, 100%, 60%)" />
<rect x="28" y="41" width="1" height="1" fill="hsl(0, 100%, 60%)" />
<rect x="15" y="42" width="1" height="1" fill="hsl(0, 100%, 60%)" />
<rect x="19" y="42" width="1" height="1" fill="hsl(0, 100%, 60%)" />
<rect x="20" y="42" width="1" height="1" fill="hsl(0, 100%, 60%)" />
<rect x="14" y="43" width="1" height="1" fill="hsl(0, 100%, 60%)" />
<rect x="16" y="43" width="1" height="1" fill="hsl(0, 100%, 60%)" />
<rect x="14" y="44" width="1" height="1" fill="hsl(0, 100%, 60%)" />
<rect x="17" y="44" width="1" height="1" fill="hsl(0, 100%, 60%)" />
<rect x="15" y="45" width="1" height="1" fill="hsl(0, 100%, 60%)" />
<rect x="16" y="45" width="1" height="1" fill="hsl(0, 100%, 60%)" />
<rect x="28" y="45" width="1" height="1" fill="hsl(0, 100%, 60%)" />
<rect x="40" y="45" width="1" height="1" fill="hsl(0, 100%, 60%)" />
<rect x="41" y="45" width="1" height="1" fill="hsl(0, 100%, 60%)" />
<rect x="27" y="46" width="1" height="1" fill="hsl(0, 100%, 60%)" />
<rect x="29" y="46" width="1" height="1" fill="hsl(0, 100%, 60%)" />
<rect x="41" y="46" width="1" height="1" fill="hsl(0, 100%, 60%)" />
<rect x="27" y="47" width="1" height="1" fill="hsl(0, 100%, 60%)" />
<rect x="29" y="47" width="1" height="1" fill="hsl(0, 100%, 60%)" />
<rect x="32" y="47" width="1" height="1" fill="hsl(0, 100%, 60%)" />
<rect x="33" y="47" width="1" height="1" fill="hsl(0, 100%, 60%)" />
<rect x="34" y="47" width="1" height="1" fill="hsl(0, 100%, 60%)" />
<rect x="35" y="47" width="1" height="1" fill="hsl(0, 100%, 60%)" />
<rect x="36" y="47" width="1" height="1" fill="hsl(0, 100%, 60%)" />
<rect x="37" y="47" width="1" height="1" fill="hsl(0, 100%, 60%)" />
<rect x="38" y="47" width="1" height="1" fill="hsl(0, 100%, 60%)" />
<rect x="39" y="47" width="1" height="1" fill="hsl(0, 100%, 60%)" />
<rect x="40" y="47" width="1" height="1" fill="hsl(0, 100%, 60%)" />
<rect x="24" y="48" width="1" height="1" fill="hsl(0, 100%, 60%)" />
<rect x="25" y="48" width="1" height="1" fill="hsl(0, 100%, 60%)" />
<rect x="27" y="48" width="1" height="1" fill="hsl(0, 100%, 60%)" />
<rect x="30" y="48" width="1" height="1" fill="hsl(0, 100%, 60%)" />
<rect x="32" y="48" width="1" height="1" fill="hsl(0, 100%, 60%)" />
<rect x="33" y="48" width="1" height="1" fill="hsl(0, 100%, 60%)" />
<rect x="34" y="48" width="1" height="1" fill="hsl(0, 100%, 60%)" />
<rect x="35" y="48" width="1" height="1" fill="hsl(0, 100%, 60%)" />
<rect x="36" y="48" width="1" height="1" fill="hsl(0, 100%, 60%)" />
<rect x="37" y="48" width="1" height="1" fill="hsl(0, 100%, 60%)" />
<rect x="38" y="48" width="1" height="1" fill="hsl(0, 100%, 60%)" />
<rect x="41" y="48" width="1" height="1" fill="hsl(0, 100%, 60%)" />
<rect x="42" y="48" width="1" height="1" fill="hsl(0, 100%, 60%)" />
<rect x="43" y="48" width="1" height="1" fill="hsl(0, 100%, 60%)" />
<rect x="24" y="49" width="1" height="1" fill="hsl(0, 100%, 60%)" />
<rect x="25" y="49" width="1" height="1" fill="hsl(0, 100%, 60%)" />
<rect x="27" y="49" width="1" height="1" fill="hsl(0, 100%, 60%)" />
<rect x="32" y="49" width="1" height="1" fill="hsl(0, 100%, 60%)" />
<rect x="33" y="49" width="1" height="1" fill="hsl(0, 100%, 60%)" />
<rect x="34" y="49" width="1" height="1" fill="hsl(0, 100%, 60%)" />
<rect x="35" y="49" width="1" height="1" fill="hsl(0, 100%, 60%)" />
<rect x="36" y="49" width="1" height="1" fill="hsl(0, 100%, 60%)" />
<rect x="37" y="49" width="1" height="1" fill="hsl(0, 100%, 60%)" />
<rect x="40" y="49" width="1" height="1" fill="hsl(0, 100%, 60%)" />
<rect x="43" y="49" width="1" height="1" fill="hsl(0, 100%, 60%)" />
<rect x="27" y="50" width="1" height="1" fill="hsl(0, 100%, 60%)" />
<rect x="41" y="50" width="1" height="1" fill="hsl(0, 100%, 60%)" />
<rect x="42" y="50" width="1" height="1" fill="hsl(0, 100%, 60%)" />
<rect x="27" y="51" width="1" height="1" fill="hsl(0, 100%, 60%)" />
<rect x="29" y="51" width="1" height="1" fill="hsl(0, 100%, 60%)" />
<rect x="34" y="51" width="1" height="1" fill="hsl(0, 100%, 60%)" />
<rect x="35" y="51" width="1" height="1" fill="hsl(0, 100%, 60%)" />
<rect x="28" y="52" width="1" height="1" fill="hsl(0, 100%, 60%)" />
<rect x="29" y="52" width="1" height="1" fill="hsl(0, 100%, 60%)" />
<rect x="34" y="52" width="1" height="1" fill="hsl(0, 100%, 60%)" />
<rect x="35" y="52" width="1" height="1" fill="hsl(0, 100%, 60%)" />
</svg>