<?xml version="1.0" encoding="utf-8"?>
<svg xmlns="http://www.w3.org/2000/svg" width="58" height="48" viewBox="0 0 58 48">
<rect width="100%" height="100%" fill="transparent" />
<rect x="11" y="4" width="1" height="1" fill="hsl(0, 100%, 60%)" />
<rect x="6" y="5" width="1" height="1" fill="hsl(0, 100%, 60%)" />
<rect x="7" y="5" width="1" height="1" fill="hsl(0, 100%, 60%)" />
<rect x="11" y="5" width="1" height="1" fill="hsl(0, 100%, 60%)" />
<rect x="13" y="5" width="1" height="1" fill="hsl(0, 100%, 60%)" />
<rect x="18" y="5" width="1" height="1" fill="hsl(0, 100%, 60%)" />
<rect x="6" y="6" width="1" height="1" fill="hsl(0, 100%, 60%)" />
<rect x="9" y="6" width="1" height="1" fill="hsl(0, 100%, 60%)" />
<rect x="10" y="6" width="1" height="1" fill="hsl(0, 100%, 60%)" />
<rect x="13" y="6" width="1" height="1" fill="hsl(0, 100%, 60%)" />
<rect x="15" y="6" width="1" height="1" fill="hsl(0, 100%, 60%)" />
<rect x="17" y="6" width="1" height="1" fill="hsl(0, 100%, 60%)" />
<rect x="18" y="6" width="1" height="1" fill="hsl(0, 100%, 60%)" />
<rect x="20" y="6" width="1" height="1" fill="hsl(0, 100%, 60%)" />
<rect x="23" y="6" width="1" height="1" fill="hsl(0, 100%, 60%)" />
<rect x="24" y="6" width="1" height="1" fill="hsl(0, 100%, 60%)" />
<rect x="25" y="6" width="1" height="1" fill="hsl(0, 100%, 60%)" />
<rect x="28" y="6" width="1" height="1" fill="hsl(0, 100%, 60%)" />
<rect x="29" y="6" width="1" height="1" fill="hsl(0, 100%, 60%)" />
<rect x="8" y="7" width="1" height="1" fill="hsl(0, 100%, 60%)" />
<rect x="9" y="7" width="1" height="1" fill="hsl(0, 100%, 60%)" />
<rect x="17" y="7" width="1" height="1" fill="hsl(0, 100%, 60%)" />
<rect x="18" y="7" width="1" height="1" fill="hsl(0, 100%, 60%)" />
<rect x="20" y="7" width="1" height="1" fill="hsl(0, 100%, 60%)" />
<rect x="22" y="7" width="1" height="1" fill="hsl(0, 100%, 60%)" />
<rect x="24" y="7" width="1" height="1" fill="hsl(0, 100%, 60%)" />
<rect x="25" y="7" width="1" height="1" fill="hsl(0, 100%, 60%)" />
<rect x="28" y="7" width="1" height="1" fill="hsl(0, 100%, 60%)" />
<rect x="29" y="7" width="1" height="1" fill="hsl(0, 100%, 60%)" />
<rect x="7" y="8" width="1" height="1" fill="hsl(0, 100%, 60%)" />
<rect x="8" y="8" width="1" height="1" fill="hsl(0, 100%, 60%)" />
<rect x="9" y="8" width="1" height="1" fill="hsl(0, 100%, 60%)" />
<rect x="17" y="8" width="1" height="1" fill="hsl(0, 100%, 60%)" />
<rect x="25" y="8" width="1" height="1" fill="hsl(0, 100%, 60%)" />
<rect x="26" y="8" width="1" height="1" fill="hsl(0, 100%, 60%)" />
<rect x="27" y="8" width="1" height="1" fill="hsl(0, 100%, 60%)" />
<rect x="37" y="8" width="1" height="1" fill="hsl(0, 100%, 60%)" />
<rect x="27" y="9" width="1" height="1" fill="hsl(0, 100%, 60%)" />
<rect x="35" y="9" width="1" height="1" fill="hsl(0, 100%, 60%)" />
<rect x="36" y="9" width="1" height="1" fill="hsl(0, 100%, 60%)" />
<rect x="37" y="9" width="1" height="1" fill="hsl(0, 100%, 60%)" />
<rect x="27" y="10" width="1" height="1" fill="hsl(0, 100%, 60%)" />
<rect x="34" y="10" width="1" height="1" fill="hsl(0, 100%, 60%)" />
<rect x="43" y="10" width="1" height="1" fill="hsl(0, 100%, 60%)" />
<rect x="44" y="10" width="1" height="1" fill="hsl(0, 100%, 60%)" />
<rect x="45" y="10" width="1" height="1" fill="hsl(0, 100%, 60%)" />
<rect x="34" y="11" width="1" height="1" fill="hsl(0, 100%, 60%)" />
<rect x="35" y="11" width="1" height="1" fill="hsl(0, 100%, 60%)" />
<rect x="43" y="11" width="1" height="1" fill="hsl(0, 100%, 60%)" />
<rect x="46" y="11" width="1" height="1" fill="hsl(0, 100%, 60%)" />
<rect x="13" y="12" width="1" height="1" fill="hsl(0, 100%, 60%)" />
<rect x="14" y="12" width="1" height="1" fill="hsl(0, 100%, 60%)" />
<rect x="29" y="12" width="1" height="1" fill="hsl(0, 100%, 60%)" />
<rect x="43" y="12" width="1" height="1" fill="hsl(0, 100%, 60%)" />
<rect x="13" y="13" width="1" height="1" fill="hsl(0, 100%, 60%)" />
<rect x="14" y="13" width="1" height="1" fill="hsl(0, 100%, 60%)" />
<rect x="28" y="13" width="1" height="1" fill="hsl(0, 100%, 60%)" />
<rect x="43" y="13" width="1" height="1" fill="hsl(0, 100%, 60%)" />
<rect x="47" y="13" width="1" height="1" fill="hsl(0, 100%, 60%)" />
<rect x="29" y="14" width="1" height="1" fill="hsl(0, 100%, 60%)" />
<rect x="30" y="14" width="1" height="1" fill="hsl(0, 100%, 60%)" />
<rect x="43" y="14" width="1" height="1" fill="hsl(0, 100%, 60%)" />
<rect x="28" y="15" width="1" height="1" fill="hsl(0, 100%, 60%)" />
<rect x="30" y="15" width="1" height="1" fill="hsl(0, 100%, 60%)" />
<rect x="44" y="15" width="1" height="1" fill="hsl(0, 100%, 60%)" />
<rect x="46" y="15" width="1" height="1" fill="hsl(0, 100%, 60%)" />
<rect x="27" y="17" width="1" height="1" fill="hsl(0, 100%, 60%)" />
<rect x="29" y="17" width="1" height="1" fill="hsl(0, 100%, 60%)" />
<rect x="35" y="17" width="1" height="1" fill="hsl(0, 100%, 60%)" />
<rect x="36" y="17" width="1" height="1" fill="hsl(0, 100%, 60%)" />
<rect x="37" y="17" width="1" height="1" fill="hsl(0, 100%, 60%)" />
<rect x="28" y="18" width="1" height="1" fill="hsl(0, 100%, 60%)" />
<rect x="34" y="18" width="1" height="1" fill="hsl(0, 100%, 60%)" />
<rect x="37" y="18" width="1" height="1" fill="hsl(0, 100%, 60%)" />
<rect x="52" y="18" width="1" height="1" fill="hsl(0, 100%, 60%)" />
<rect x="53" y="18" width="1" height="1" fill="hsl(0, 100%, 60%)" />
<rect x="4" y="19" width="1" height="1" fill="hsl(0, 100%, 60%)" />
<rect x="5" y="19" width="1" height="1" fill="hsl(0, 100%, 60%)" />
<rect x="18" y="19" width="1" height="1" fill="hsl(0, 100%, 60%)" />
<rect x="19" y="19" width="1" height="1" fill="hsl(0, 100%, 60%)" />
<rect x="20" y="19" width="1" height="1" fill="hsl(0, 100%, 60%)" />
<rect x="28" y="19" width="1" height="1" fill="hsl(0, 100%, 60%)" />
<rect x="35" y="19" width="1" height="1" fill="hsl(0, 100%, 60%)" />
<rect x="36" y="19" width="1" height="1" fill="hsl(0, 100%, 60%)" />
<rect x="48" y="19" width="1" height="1" fill="hsl(0, 100%, 60%)" />
<rect x="49" y="19" width="1" height="1" fill="hsl(0, 100%, 60%)" />
<rect x="51" y="19" width="1" height="1" fill="hsl(0, 100%, 60%)" />
<rect x="53" y="19" width="1" height="1" fill="hsl(0, 100%, 60%)" />
<rect x="4" y="20" width="1" height="1" fill="hsl(0, 100%, 60%)" />
<rect x="5" y="20" width="1" height="1" fill="hsl(0, 100%, 60%)" />
<rect x="17" y="20" width="1" height="1" fill="hsl(0, 100%, 60%)" />
<rect x="21" y="20" width="1" height="1" fill="hsl(0, 100%, 60%)" />
<rect x="48" y="20" width="1" height="1" fill="hsl(0, 100%, 60%)" />
<rect x="49" y="20" width="1" height="1" fill="hsl(0, 100%, 60%)" />
<rect x="51" y="20" width="1" height="1" fill="hsl(0, 100%, 60%)" />
<rect x="17" y="21" width="1" height="1" fill="hsl(0, 100%, 60%)" />
<rect x="18" y="21" width="1" height="1" fill="hsl(0, 100%, 60%)" />
<rect x="20" y="21" width="1" height="1" fill="hsl(0, 100%, 60%)" />
<rect x="21" y="21" width="1" height="1" fill="hsl(0, 100%, 60%)" />
<rect x="52" y="21" width="1" height="1" fill="hsl(0, 100%, 60%)" />
<rect x="37" y="22" width="1" height="1" fill="hsl(0, 100%, 60%)" />
<rect x="38" y="22" width="1" height="1" fill="hsl(0, 100%, 60%)" />
<rect x="48" y="22" width="1" height="1" fill="hsl(0, 100%, 60%)" />
<rect x="49" y="22" width="1" height="1" fill="hsl(0, 100%, 60%)" />
<rect x="51" y="22" width="1" height="1" fill="hsl(0, 100%, 60%)" />
<rect x="52" y="22" width="1" height="1" fill="hsl(0, 100%, 60%)" />
<rect x="34" y="23" width="1" height="1" fill="hsl(0, 100%, 60%)" />
<rect x="35" y="23" width="1" height="1" fill="hsl(0, 100%, 60%)" />
<rect x="49" y="23" width="1" height="1" fill="hsl(0, 100%, 60%)" />
<rect x="51" y="23" width="1" height="1" fill="hsl(0, 100%, 60%)" />
<rect x="49" y="24" width="1" height="1" fill="hsl(0, 100%, 60%)" />
<rect x="51" y="24" width="1" height="1" fill="hsl(0, 100%, 60%)" />
<rect x="50" y="25" width="1" height="1" fill="hsl(0, 100%, 60%)" />
<rect x="17" y="26" width="1" height="1" fill="hsl(0, 100%, 60%)" />
<rect x="18" y="26" width="1" height="1" fill="hsl(0, 100%, 60%)" />
<rect x="20" y="26" width="1" height="1" fill="hsl(0, 100%, 60%)" />
<rect x="21" y="26" width="1" height="1" fill="hsl(0, 100%, 60%)" />
<rect x="35" y="26" width="1" height="1" fill="hsl(0, 100%, 60%)" />
<rect x="37" y="26" width="1" height="1" fill="hsl(0, 100%, 60%)" />
<rect x="4" y="27" width="1" height="1" fill="hsl(0, 100%, 60%)" />
<rect x="5" y="27" width="1" height="1" fill="hsl(0, 100%, 60%)" />
<rect x="17" y="27" width="1" height="1" fill="hsl(0, 100%, 60%)" />
<rect x="21" y="27" width="1" height="1" fill="hsl(0, 100%, 60%)" />
<rect x="35" y="27" width="1" height="1" fill="hsl(0, 100%, 60%)" />
<rect x="36" y="27" width="1" height="1" fill="hsl(0, 100%, 60%)" />
<rect x="4" y="28" width="1" height="1" fill="hsl(0, 100%, 60%)" />
<rect x="5" y="28" width="1" height="1" fill="hsl(0, 100%, 60%)" />
<rect x="18" y="28" width="1" height="1" fill="hsl(0, 100%, 60%)" />
<rect x="19" y="28" width="1" height="1" fill="hsl(0, 100%, 60%)" />
<rect x="20" y="28" width="1" height="1" fill="hsl(0, 100%, 60%)" />
<rect x="31" y="29" width="1" height="1" fill="hsl(0, 100%, 60%)" />
<rect x="32" y="29" width="1" height="1" fill="hsl(0, 100%, 60%)" />
<rect x="31" y="30" width="1" height="1" fill="hsl(0, 100%, 60%)" />
<rect x="33" y="30" width="1" height="1" fill="hsl(0, 100%, 60%)" />
<rect x="33" y="31" width="1" height="1" fill="hsl(0, 100%, 60%)" />
<rect x="33" y="32" width="1" height="1" fill="hsl(0, 100%, 60%)" />
<rect x="34" y="32" width="1" height="1" fill="hsl(0, 100%, 60%)" />
<rect x="13" y="34" width="1" height="1" fill="hsl(0, 100%, 60%)" />
<rect x="14" y="34" width="1" height="1" fill="hsl(0, 100%, 60%)" />
<rect x="13" y="35" width="1" height="1" fill="hsl(0, 100%, 60%)" />
<rect x="14" y="35" width="1" height="1" fill="hsl(0, 100%, 60%)" />
<rect x="27" y="37" width="1" height="1" fill="hsl(0, 100%, 60%)" />
<rect x="27" y="38" width="1" height="1" fill="hsl(0, 100%, 60%)" />
<rect x="7" y="39" width="1" height="1" fill="hsl(0, 100%, 60%)" />
<rect x="8" y="39" width="1" height="1" fill="hsl(0, 100%, 60%)" />
<rect x="9" y="39" width="1" height="1" fill="hsl(0, 100%, 60%)" />
<rect x="17" y="39" width="1" height="1" fill="hsl(0, 100%, 60%)" />
<rect x="25" y="39" width="1" height="1" fill="hsl(0, 100%, 60%)" />
<rect x="26" y="39" width="1" height="1" fill="hsl(0, 100%, 60%)" />
<rect x="27" y="39" width="1" height="1" fill="hsl(0, 100%, 60%)" />
<rect x="8" y="40" width="1" height="1" fill="hsl(0, 100%, 60%)" />
<rect x="9" y="40" width="1" height="1" fill="hsl(0, 100%, 60%)" />
<rect x="17" y="40" width="1" height="1" fill="hsl(0, 100%, 60%)" />
<rect x="18" y="40" width="1" height="1" fill="hsl(0, 100%, 60%)" />
<rect x="20" y="40" width="1" height="1" fill="hsl(0, 100%, 60%)" />
<rect x="22" y="40" width="1" height="1" fill="hsl(0, 100%, 60%)" />
<rect x="24" y="40" width="1" height="1" fill="hsl(0, 100%, 60%)" />
<rect x="25" y="40" width="1" height="1" fill="hsl(0, 100%, 60%)" />
<rect x="28" y="40" width="1" height="1" fill="hsl(0, 100%, 60%)" />
<rect x="29" y="40" width="1" height="1" fill="hsl(0, 100%, 60%)" />
<rect x="6" y="41" width="1" height="1" fill="hsl(0, 100%, 60%)" />
<rect x="9" y="41" width="1" height="1" fill="hsl(0, 100%, 60%)" />
<rect x="10" y="41" width="1" height="1" fill="hsl(0, 100%, 60%)" />
<rect x="13" y="41" width="1" height="1" fill="hsl(0, 100%, 60%)" />
<rect x="15" y="41" width="1" height="1" fill="hsl(0, 100%, 60%)" />
<rect x="17" y="41" width="1" height="1" fill="hsl(0, 100%, 60%)" />
<rect x="18" y="41" width="1" height="1" fill="hsl(0, 100%, 60%)" />
<rect x="20" y="41" width="1" height="1" fill="hsl(0, 100%, 60%)" />
<rect x="23" y="41" width="1" height="1" fill="hsl(0, 100%, 60%)" />
<rect x="24" y="41" width="1" height="1" fill="hsl(0, 100%, 60%)" />
<rect x="25" y="41" width="1" height="1" fill="hsl(0, 100%, 60%)" />
<rect x="28" y="41" width="1" height="1" fill="hsl(0, 100%, 60%)" />
<rect x="29" y="41" width="1" height="1" fill="hsl(0, 100%, 60%)" />
<rect x="6" y="42" width="1" height="1" fill="hsl(0, 100%, 60%)" />
<rect x="7" y="42" width="1" height="1" fill="hsl(0, 100%, 60%)" />
<rect x="11" y="42" width="1" height="1" fill="hsl(0, 100%, 60%)" />
<rect x="13" y="42" width="1" height="1" fill="hsl(0, 100%, 60%)" />
<rect x="18" y="42" width="1" height="1" fill="hsl(0, 100%, 60%)" />
<rect x="11" y="43" width="1" height="1" fill="hsl(0, 100%, 60%)" />
</svg>