<?xml version="1.0" encoding="utf-8"?>
<svg xmlns="http://www.w3.org/2000/svg" width="58" height="84" viewBox="0 0 58 84">
<rect width="100%" height="100%" fill="transparent" />
<rect x="4" y="4" width="2" height="2" fill="hsl(0, 100%, 60%)" />
<rect x="4" y="6" width="2" height="2" fill="hsl(0, 100%, 60%)" />
<rect x="6" y="6" width="2" height="2" fill="hsl(0, 100%, 60%)" />
<rect x="8" y="6" width="2" height="2" fill="hsl(0, 100%, 60%)" />
<rect x="10" y="8" width="2" height="2" fill="hsl(0, 100%, 60%)" />
<rect x="8" y="10" width="2" height="2" fill="hsl(0, 100%, 60%)" />
<rect x="10" y="10" width="2" height="2" fill="hsl(0, 100%, 60%)" />
<rect x="16" y="14" width="2" height="2" fill="hsl(0, 100%, 60%)" />
<rect x="14" y="16" width="2" height="2" fill="hsl(0, 100%, 60%)" />
<rect x="16" y="16" width="2" height="2" fill="hsl(0, 100%, 60%)" />
<rect x="18" y="16" width="2" height="2" fill="hsl(0, 100%, 60%)" />
<rect x="20" y="16" width="2" height="2" fill="hsl(0, 100%, 60%)" />
<rect x="16" y="18" width="2" height="2" fill="hsl(0, 100%, 60%)" />
<rect x="22" y="18" width="2" height="2" fill="hsl(0, 100%, 60%)" />
<rect x="18" y="20" width="2" height="2" fill="hsl(0, 100%, 60%)" />
<rect x="20" y="20" width="2" height="2" fill="hsl(0, 100%, 60%)" />
<rect x="22" y="20" width="2" height="2" fill="hsl(0, 100%, 60%)" />
<rect x="24" y="24" width="2" height="2" fill="hsl(0, 100%, 60%)" />
<rect x="26" y="24" width="2" height="2" fill="hsl(0, 100%, 60%)" />
<rect x="24" y="26" width="2" height="2" fill="hsl(0, 100%, 60%)" />
<rect x="26" y="28" width="2" height="2" fill="hsl(0, 100%, 60%)" />
<rect x="28" y="28" width="2" height="2" fill="hsl(0, 100%, 60%)" />
<rect x="30" y="28" width="2" height="2" fill="hsl(0, 100%, 60%)" />
<rect x="30" y="30" width="2" height="2" fill="hsl(0, 100%, 60%)" />
<rect x="4" y="32" width="2" height="2" fill="hsl(0, 100%, 60%)" />
<rect x="4" y="34" width="2" height="2" fill="hsl(0, 100%, 60%)" />
<rect x="6" y="34" width="2" height="2" fill="hsl(0, 100%, 60%)" />
<rect x="8" y="34" width="2" height="2" fill="hsl(0, 100%, 60%)" />
<rect x="10" y="36" width="2" height="2" fill="hsl(0, 100%, 60%)" />
<rect x="8" y="38" width="2" height="2" fill="hsl(0, 100%, 60%)" />
<rect x="10" y="38" width="2" height="2" fill="hsl(0, 100%, 60%)" />
<rect x="16" y="42" width="2" height="2" fill="hsl(0, 100%, 60%)" />
<rect x="14" y="44" width="2" height="2" fill="hsl(0, 100%, 60%)" />
<rect x="16" y="44" width="2" height="2" fill="hsl(0, 100%, 60%)" />
<rect x="18" y="44" width="2" height="2" fill="hsl(0, 100%, 60%)" />
<rect x="20" y="44" width="2" height="2" fill="hsl(0, 100%, 60%)" />
<rect x="16" y="46" width="2" height="2" fill="hsl(0, 100%, 60%)" />
<rect x="22" y="46" width="2" height="2" fill="hsl(0, 100%, 60%)" />
<rect x="18" y="48" width="2" height="2" fill="hsl(0, 100%, 60%)" />
<rect x="20" y="48" width="2" height="2" fill="hsl(0, 100%, 60%)" />
<rect x="22" y="48" width="2" height="2" fill="hsl(0, 100%, 60%)" />
<rect x="24" y="52" width="2" height="2" fill="hsl(0, 100%, 60%)" />
<rect x="26" y="52" width="2" height="2" fill="hsl(0, 100%, 60%)" />
<rect x="28" y="52" width="2" height="2" fill="hsl(0, 100%, 60%)" />
<rect x="24" y="54" width="2" height="2" fill="hsl(0, 100%, 60%)" />
<rect x="30" y="54" width="2" height="2" fill="hsl(0, 100%, 60%)" />
<rect x="26" y="56" width="2" height="2" fill="hsl(0, 100%, 60%)" />
<rect x="28" y="56" width="2" height="2" fill="hsl(0, 100%, 60%)" />
<rect x="30" y="56" width="2" height="2" fill="hsl(0, 100%, 60%)" />
<rect x="32" y="56" width="2" height="2" fill="hsl(0, 100%, 60%)" />
<rect x="30" y="58" width="2" height="2" fill="hsl(0, 100%, 60%)" />
<rect x="38" y="62" width="2" height="2" fill="hsl(0, 100%, 60%)" />
<rect x="36" y="64" width="2" height="2" fill="hsl(0, 100%, 60%)" />
<rect x="38" y="64" width="2" height="2" fill="hsl(0, 100%, 60%)" />
<rect x="40" y="64" width="2" height="2" fill="hsl(0, 100%, 60%)" />
<rect x="38" y="66" width="2" height="2" fill="hsl(0, 100%, 60%)" />
<rect x="42" y="66" width="2" height="2" fill="hsl(0, 100%, 60%)" />
<rect x="38" y="68" width="2" height="2" fill="hsl(0, 100%, 60%)" />
<rect x="42" y="68" width="2" height="2" fill="hsl(0, 100%, 60%)" />
<rect x="40" y="70" width="2" height="2" fill="hsl(0, 100%, 60%)" />
<rect x="42" y="70" width="2" height="2" fill="hsl(0, 100%, 60%)" />
<rect x="46" y="72" width="2" height="2" fill="hsl(0, 100%, 60%)" />
<rect x="48" y="72" width="2" height="2" fill="hsl(0, 100%, 60%)" />
<rect x="46" y="74" width="2" height="2" fill="hsl(0, 100%, 60%)" />
<rect x="50" y="74" width="2" height="2" fill="hsl(0, 100%, 60%)" />
<rect x="50" y="76" width="2" height="2" fill="hsl(0, 100%, 60%)" />
<rect x="50" y="78" width="2" height="2" fill="hsl(0, 100%, 60%)" />
<rect x="52" y="78" width="2" height="2" fill="hsl(0, 100%, 60%)" />
</svg>