<?xml version="1.0" encoding="utf-8"?>
<svg xmlns="http://www.w3.org/2000/svg" width="86" height="62" viewBox="0 0 86 62">
<rect width="100%" height="100%" fill="transparent" />
<rect x="60" y="4" width="2" height="2" fill="hsl(0, 100%, 60%)" />
<rect x="60" y="6" width="2" height="2" fill="hsl(0, 100%, 60%)" />
<rect x="64" y="6" width="2" height="2" fill="hsl(0, 100%, 60%)" />
<rect x="26" y="8" width="2" height="2" fill="hsl(0, 100%, 60%)" />
<rect x="28" y="8" width="2" height="2" fill="hsl(0, 100%, 60%)" />
<rect x="66" y="8" width="2" height="2" fill="hsl(0, 100%, 60%)" />
<rect x="68" y="8" width="2" height="2" fill="hsl(0, 100%, 60%)" />
<rect x="22" y="10" width="2" height="2" fill="hsl(0, 100%, 60%)" />
<rect x="30" y="10" width="2" height="2" fill="hsl(0, 100%, 60%)" />
<rect x="66" y="10" width="2" height="2" fill="hsl(0, 100%, 60%)" />
<rect x="68" y="10" width="2" height="2" fill="hsl(0, 100%, 60%)" />
<rect x="78" y="10" width="2" height="2" fill="hsl(0, 100%, 60%)" />
<rect x="80" y="10" width="2" height="2" fill="hsl(0, 100%, 60%)" />
<rect x="10" y="12" width="2" height="2" fill="hsl(0, 100%, 60%)" />
<rect x="12" y="12" width="2" height="2" fill="hsl(0, 100%, 60%)" />
<rect x="20" y="12" width="2" height="2" fill="hsl(0, 100%, 60%)" />
<rect x="32" y="12" width="2" height="2" fill="hsl(0, 100%, 60%)" />
<rect x="66" y="12" width="2" height="2" fill="hsl(0, 100%, 60%)" />
<rect x="68" y="12" width="2" height="2" fill="hsl(0, 100%, 60%)" />
<rect x="78" y="12" width="2" height="2" fill="hsl(0, 100%, 60%)" />
<rect x="80" y="12" width="2" height="2" fill="hsl(0, 100%, 60%)" />
<rect x="10" y="14" width="2" height="2" fill="hsl(0, 100%, 60%)" />
<rect x="12" y="14" width="2" height="2" fill="hsl(0, 100%, 60%)" />
<rect x="18" y="14" width="2" height="2" fill="hsl(0, 100%, 60%)" />
<rect x="20" y="14" width="2" height="2" fill="hsl(0, 100%, 60%)" />
<rect x="24" y="14" width="2" height="2" fill="hsl(0, 100%, 60%)" />
<rect x="32" y="14" width="2" height="2" fill="hsl(0, 100%, 60%)" />
<rect x="60" y="14" width="2" height="2" fill="hsl(0, 100%, 60%)" />
<rect x="64" y="14" width="2" height="2" fill="hsl(0, 100%, 60%)" />
<rect x="20" y="16" width="2" height="2" fill="hsl(0, 100%, 60%)" />
<rect x="32" y="16" width="2" height="2" fill="hsl(0, 100%, 60%)" />
<rect x="60" y="16" width="2" height="2" fill="hsl(0, 100%, 60%)" />
<rect x="22" y="18" width="2" height="2" fill="hsl(0, 100%, 60%)" />
<rect x="30" y="18" width="2" height="2" fill="hsl(0, 100%, 60%)" />
<rect x="26" y="20" width="2" height="2" fill="hsl(0, 100%, 60%)" />
<rect x="28" y="20" width="2" height="2" fill="hsl(0, 100%, 60%)" />
<rect x="24" y="36" width="2" height="2" fill="hsl(0, 100%, 60%)" />
<rect x="28" y="36" width="2" height="2" fill="hsl(0, 100%, 60%)" />
<rect x="22" y="38" width="2" height="2" fill="hsl(0, 100%, 60%)" />
<rect x="28" y="38" width="2" height="2" fill="hsl(0, 100%, 60%)" />
<rect x="36" y="38" width="2" height="2" fill="hsl(0, 100%, 60%)" />
<rect x="38" y="38" width="2" height="2" fill="hsl(0, 100%, 60%)" />
<rect x="4" y="40" width="2" height="2" fill="hsl(0, 100%, 60%)" />
<rect x="6" y="40" width="2" height="2" fill="hsl(0, 100%, 60%)" />
<rect x="20" y="40" width="2" height="2" fill="hsl(0, 100%, 60%)" />
<rect x="22" y="40" width="2" height="2" fill="hsl(0, 100%, 60%)" />
<rect x="34" y="40" width="2" height="2" fill="hsl(0, 100%, 60%)" />
<rect x="36" y="40" width="2" height="2" fill="hsl(0, 100%, 60%)" />
<rect x="38" y="40" width="2" height="2" fill="hsl(0, 100%, 60%)" />
<rect x="42" y="40" width="2" height="2" fill="hsl(0, 100%, 60%)" />
<rect x="44" y="40" width="2" height="2" fill="hsl(0, 100%, 60%)" />
<rect x="50" y="40" width="2" height="2" fill="hsl(0, 100%, 60%)" />
<rect x="52" y="40" width="2" height="2" fill="hsl(0, 100%, 60%)" />
<rect x="4" y="42" width="2" height="2" fill="hsl(0, 100%, 60%)" />
<rect x="6" y="42" width="2" height="2" fill="hsl(0, 100%, 60%)" />
<rect x="16" y="42" width="2" height="2" fill="hsl(0, 100%, 60%)" />
<rect x="18" y="42" width="2" height="2" fill="hsl(0, 100%, 60%)" />
<rect x="26" y="42" width="2" height="2" fill="hsl(0, 100%, 60%)" />
<rect x="34" y="42" width="2" height="2" fill="hsl(0, 100%, 60%)" />
<rect x="42" y="42" width="2" height="2" fill="hsl(0, 100%, 60%)" />
<rect x="50" y="42" width="2" height="2" fill="hsl(0, 100%, 60%)" />
<rect x="54" y="42" width="2" height="2" fill="hsl(0, 100%, 60%)" />
<rect x="20" y="44" width="2" height="2" fill="hsl(0, 100%, 60%)" />
<rect x="22" y="44" width="2" height="2" fill="hsl(0, 100%, 60%)" />
<rect x="34" y="44" width="2" height="2" fill="hsl(0, 100%, 60%)" />
<rect x="38" y="44" width="2" height="2" fill="hsl(0, 100%, 60%)" />
<rect x="56" y="44" width="2" height="2" fill="hsl(0, 100%, 60%)" />
<rect x="22" y="46" width="2" height="2" fill="hsl(0, 100%, 60%)" />
<rect x="28" y="46" width="2" height="2" fill="hsl(0, 100%, 60%)" />
<rect x="34" y="46" width="2" height="2" fill="hsl(0, 100%, 60%)" />
<rect x="36" y="46" width="2" height="2" fill="hsl(0, 100%, 60%)" />
<rect x="50" y="46" width="2" height="2" fill="hsl(0, 100%, 60%)" />
<rect x="56" y="46" width="2" height="2" fill="hsl(0, 100%, 60%)" />
<rect x="24" y="48" width="2" height="2" fill="hsl(0, 100%, 60%)" />
<rect x="28" y="48" width="2" height="2" fill="hsl(0, 100%, 60%)" />
<rect x="56" y="48" width="2" height="2" fill="hsl(0, 100%, 60%)" />
<rect x="50" y="50" width="2" height="2" fill="hsl(0, 100%, 60%)" />
<rect x="54" y="50" width="2" height="2" fill="hsl(0, 100%, 60%)" />
<rect x="70" y="50" width="2" height="2" fill="hsl(0, 100%, 60%)" />
<rect x="72" y="50" width="2" height="2" fill="hsl(0, 100%, 60%)" />
<rect x="50" y="52" width="2" height="2" fill="hsl(0, 100%, 60%)" />
<rect x="52" y="52" width="2" height="2" fill="hsl(0, 100%, 60%)" />
<rect x="70" y="52" width="2" height="2" fill="hsl(0, 100%, 60%)" />
<rect x="74" y="52" width="2" height="2" fill="hsl(0, 100%, 60%)" />
<rect x="74" y="54" width="2" height="2" fill="hsl(0, 100%, 60%)" />
<rect x="74" y="56" width="2" height="2" fill="hsl(0, 100%, 60%)" />
<rect x="76" y="56" width="2" height="2" fill="hsl(0, 100%, 60%)" />
</svg>