<?xml version="1.0" encoding="utf-8"?>
<svg xmlns="http://www.w3.org/2000/svg" width="58" height="68" viewBox="0 0 58 68">
<rect width="100%" height="100%" fill="transparent" />
<rect x="50" y="4" width="2" height="2" fill="hsl(0, 100%, 60%)" />
<rect x="48" y="6" width="2" height="2" fill="hsl(0, 100%, 60%)" />
<rect x="48" y="8" width="2" height="2" fill="hsl(0, 100%, 60%)" />
<rect x="50" y="8" width="2" height="2" fill="hsl(0, 100%, 60%)" />
<rect x="52" y="8" width="2" height="2" fill="hsl(0, 100%, 60%)" />
<rect x="36" y="18" width="2" height="2" fill="hsl(0, 100%, 60%)" />
<rect x="16" y="20" width="2" height="2" fill="hsl(0, 100%, 60%)" />
<rect x="18" y="20" width="2" height="2" fill="hsl(0, 100%, 60%)" />
<rect x="34" y="20" width="2" height="2" fill="hsl(0, 100%, 60%)" />
<rect x="16" y="22" width="2" height="2" fill="hsl(0, 100%, 60%)" />
<rect x="20" y="22" width="2" height="2" fill="hsl(0, 100%, 60%)" />
<rect x="34" y="22" width="2" height="2" fill="hsl(0, 100%, 60%)" />
<rect x="36" y="22" width="2" height="2" fill="hsl(0, 100%, 60%)" />
<rect x="38" y="22" width="2" height="2" fill="hsl(0, 100%, 60%)" />
<rect x="20" y="24" width="2" height="2" fill="hsl(0, 100%, 60%)" />
<rect x="10" y="26" width="2" height="2" fill="hsl(0, 100%, 60%)" />
<rect x="16" y="26" width="2" height="2" fill="hsl(0, 100%, 60%)" />
<rect x="20" y="26" width="2" height="2" fill="hsl(0, 100%, 60%)" />
<rect x="22" y="26" width="2" height="2" fill="hsl(0, 100%, 60%)" />
<rect x="42" y="26" width="2" height="2" fill="hsl(0, 100%, 60%)" />
<rect x="44" y="26" width="2" height="2" fill="hsl(0, 100%, 60%)" />
<rect x="10" y="28" width="2" height="2" fill="hsl(0, 100%, 60%)" />
<rect x="12" y="28" width="2" height="2" fill="hsl(0, 100%, 60%)" />
<rect x="14" y="28" width="2" height="2" fill="hsl(0, 100%, 60%)" />
<rect x="16" y="28" width="2" height="2" fill="hsl(0, 100%, 60%)" />
<rect x="22" y="28" width="2" height="2" fill="hsl(0, 100%, 60%)" />
<rect x="34" y="28" width="2" height="2" fill="hsl(0, 100%, 60%)" />
<rect x="36" y="28" width="2" height="2" fill="hsl(0, 100%, 60%)" />
<rect x="42" y="28" width="2" height="2" fill="hsl(0, 100%, 60%)" />
<rect x="44" y="28" width="2" height="2" fill="hsl(0, 100%, 60%)" />
<rect x="18" y="30" width="2" height="2" fill="hsl(0, 100%, 60%)" />
<rect x="20" y="30" width="2" height="2" fill="hsl(0, 100%, 60%)" />
<rect x="22" y="30" width="2" height="2" fill="hsl(0, 100%, 60%)" />
<rect x="32" y="30" width="2" height="2" fill="hsl(0, 100%, 60%)" />
<rect x="36" y="30" width="2" height="2" fill="hsl(0, 100%, 60%)" />
<rect x="10" y="32" width="2" height="2" fill="hsl(0, 100%, 60%)" />
<rect x="12" y="32" width="2" height="2" fill="hsl(0, 100%, 60%)" />
<rect x="14" y="32" width="2" height="2" fill="hsl(0, 100%, 60%)" />
<rect x="16" y="32" width="2" height="2" fill="hsl(0, 100%, 60%)" />
<rect x="22" y="32" width="2" height="2" fill="hsl(0, 100%, 60%)" />
<rect x="34" y="32" width="2" height="2" fill="hsl(0, 100%, 60%)" />
<rect x="8" y="34" width="2" height="2" fill="hsl(0, 100%, 60%)" />
<rect x="16" y="34" width="2" height="2" fill="hsl(0, 100%, 60%)" />
<rect x="20" y="34" width="2" height="2" fill="hsl(0, 100%, 60%)" />
<rect x="22" y="34" width="2" height="2" fill="hsl(0, 100%, 60%)" />
<rect x="6" y="36" width="2" height="2" fill="hsl(0, 100%, 60%)" />
<rect x="10" y="36" width="2" height="2" fill="hsl(0, 100%, 60%)" />
<rect x="12" y="36" width="2" height="2" fill="hsl(0, 100%, 60%)" />
<rect x="14" y="36" width="2" height="2" fill="hsl(0, 100%, 60%)" />
<rect x="16" y="36" width="2" height="2" fill="hsl(0, 100%, 60%)" />
<rect x="20" y="36" width="2" height="2" fill="hsl(0, 100%, 60%)" />
<rect x="38" y="36" width="2" height="2" fill="hsl(0, 100%, 60%)" />
<rect x="40" y="36" width="2" height="2" fill="hsl(0, 100%, 60%)" />
<rect x="6" y="38" width="2" height="2" fill="hsl(0, 100%, 60%)" />
<rect x="10" y="38" width="2" height="2" fill="hsl(0, 100%, 60%)" />
<rect x="16" y="38" width="2" height="2" fill="hsl(0, 100%, 60%)" />
<rect x="20" y="38" width="2" height="2" fill="hsl(0, 100%, 60%)" />
<rect x="38" y="38" width="2" height="2" fill="hsl(0, 100%, 60%)" />
<rect x="4" y="40" width="2" height="2" fill="hsl(0, 100%, 60%)" />
<rect x="6" y="40" width="2" height="2" fill="hsl(0, 100%, 60%)" />
<rect x="10" y="40" width="2" height="2" fill="hsl(0, 100%, 60%)" />
<rect x="14" y="40" width="2" height="2" fill="hsl(0, 100%, 60%)" />
<rect x="18" y="40" width="2" height="2" fill="hsl(0, 100%, 60%)" />
<rect x="22" y="40" width="2" height="2" fill="hsl(0, 100%, 60%)" />
<rect x="24" y="40" width="2" height="2" fill="hsl(0, 100%, 60%)" />
<rect x="40" y="40" width="2" height="2" fill="hsl(0, 100%, 60%)" />
<rect x="42" y="40" width="2" height="2" fill="hsl(0, 100%, 60%)" />
<rect x="44" y="40" width="2" height="2" fill="hsl(0, 100%, 60%)" />
<rect x="4" y="42" width="2" height="2" fill="hsl(0, 100%, 60%)" />
<rect x="10" y="42" width="2" height="2" fill="hsl(0, 100%, 60%)" />
<rect x="12" y="42" width="2" height="2" fill="hsl(0, 100%, 60%)" />
<rect x="14" y="42" width="2" height="2" fill="hsl(0, 100%, 60%)" />
<rect x="18" y="42" width="2" height="2" fill="hsl(0, 100%, 60%)" />
<rect x="24" y="42" width="2" height="2" fill="hsl(0, 100%, 60%)" />
<rect x="44" y="42" width="2" height="2" fill="hsl(0, 100%, 60%)" />
<rect x="8" y="44" width="2" height="2" fill="hsl(0, 100%, 60%)" />
<rect x="16" y="44" width="2" height="2" fill="hsl(0, 100%, 60%)" />
<rect x="20" y="44" width="2" height="2" fill="hsl(0, 100%, 60%)" />
<rect x="10" y="46" width="2" height="2" fill="hsl(0, 100%, 60%)" />
<rect x="12" y="46" width="2" height="2" fill="hsl(0, 100%, 60%)" />
<rect x="16" y="46" width="2" height="2" fill="hsl(0, 100%, 60%)" />
<rect x="20" y="46" width="2" height="2" fill="hsl(0, 100%, 60%)" />
<rect x="22" y="46" width="2" height="2" fill="hsl(0, 100%, 60%)" />
<rect x="12" y="48" width="2" height="2" fill="hsl(0, 100%, 60%)" />
<rect x="8" y="50" width="2" height="2" fill="hsl(0, 100%, 60%)" />
<rect x="12" y="50" width="2" height="2" fill="hsl(0, 100%, 60%)" />
<rect x="16" y="50" width="2" height="2" fill="hsl(0, 100%, 60%)" />
<rect x="18" y="50" width="2" height="2" fill="hsl(0, 100%, 60%)" />
<rect x="20" y="50" width="2" height="2" fill="hsl(0, 100%, 60%)" />
<rect x="22" y="50" width="2" height="2" fill="hsl(0, 100%, 60%)" />
<rect x="6" y="52" width="2" height="2" fill="hsl(0, 100%, 60%)" />
<rect x="10" y="52" width="2" height="2" fill="hsl(0, 100%, 60%)" />
<rect x="12" y="52" width="2" height="2" fill="hsl(0, 100%, 60%)" />
<rect x="14" y="52" width="2" height="2" fill="hsl(0, 100%, 60%)" />
<rect x="16" y="52" width="2" height="2" fill="hsl(0, 100%, 60%)" />
<rect x="22" y="52" width="2" height="2" fill="hsl(0, 100%, 60%)" />
<rect x="6" y="54" width="2" height="2" fill="hsl(0, 100%, 60%)" />
<rect x="18" y="54" width="2" height="2" fill="hsl(0, 100%, 60%)" />
<rect x="8" y="56" width="2" height="2" fill="hsl(0, 100%, 60%)" />
<rect x="10" y="56" width="2" height="2" fill="hsl(0, 100%, 60%)" />
<rect x="12" y="56" width="2" height="2" fill="hsl(0, 100%, 60%)" />
<rect x="14" y="56" width="2" height="2" fill="hsl(0, 100%, 60%)" />
<rect x="16" y="56" width="2" height="2" fill="hsl(0, 100%, 60%)" />
<rect x="18" y="56" width="2" height="2" fill="hsl(0, 100%, 60%)" />
<rect x="22" y="56" width="2" height="2" fill="hsl(0, 100%, 60%)" />
<rect x="12" y="58" width="2" height="2" fill="hsl(0, 100%, 60%)" />
<rect x="20" y="58" width="2" height="2" fill="hsl(0, 100%, 60%)" />
<rect x="24" y="58" width="2" height="2" fill="hsl(0, 100%, 60%)" />
<rect x="18" y="60" width="2" height="2" fill="hsl(0, 100%, 60%)" />
<rect x="24" y="60" width="2" height="2" fill="hsl(0, 100%, 60%)" />
<rect x="20" y="62" width="2" height="2" fill="hsl(0, 100%, 60%)" />
<rect x="22" y="62" width="2" height="2" fill="hsl(0, 100%, 60%)" />
</svg>