<?xml version="1.0" encoding="utf-8"?>
<svg xmlns="http://www.w3.org/2000/svg" width="82" height="54" viewBox="0 0 82 54">
<rect width="100%" height="100%" fill="transparent" />
<rect x="64" y="4" width="2" height="2" fill="hsl(0, 100%, 60%)" />
<rect x="62" y="6" width="2" height="2" fill="hsl(0, 100%, 60%)" />
<rect x="64" y="6" width="2" height="2" fill="hsl(0, 100%, 60%)" />
<rect x="60" y="8" width="2" height="2" fill="hsl(0, 100%, 60%)" />
<rect x="64" y="8" width="2" height="2" fill="hsl(0, 100%, 60%)" />
<rect x="66" y="8" width="2" height="2" fill="hsl(0, 100%, 60%)" />
<rect x="6" y="10" width="2" height="2" fill="hsl(0, 100%, 60%)" />
<rect x="8" y="10" width="2" height="2" fill="hsl(0, 100%, 60%)" />
<rect x="10" y="10" width="2" height="2" fill="hsl(0, 100%, 60%)" />
<rect x="12" y="10" width="2" height="2" fill="hsl(0, 100%, 60%)" />
<rect x="58" y="10" width="2" height="2" fill="hsl(0, 100%, 60%)" />
<rect x="60" y="10" width="2" height="2" fill="hsl(0, 100%, 60%)" />
<rect x="62" y="10" width="2" height="2" fill="hsl(0, 100%, 60%)" />
<rect x="68" y="10" width="2" height="2" fill="hsl(0, 100%, 60%)" />
<rect x="4" y="12" width="2" height="2" fill="hsl(0, 100%, 60%)" />
<rect x="14" y="12" width="2" height="2" fill="hsl(0, 100%, 60%)" />
<rect x="62" y="12" width="2" height="2" fill="hsl(0, 100%, 60%)" />
<rect x="66" y="12" width="2" height="2" fill="hsl(0, 100%, 60%)" />
<rect x="70" y="12" width="2" height="2" fill="hsl(0, 100%, 60%)" />
<rect x="4" y="14" width="2" height="2" fill="hsl(0, 100%, 60%)" />
<rect x="12" y="14" width="2" height="2" fill="hsl(0, 100%, 60%)" />
<rect x="16" y="14" width="2" height="2" fill="hsl(0, 100%, 60%)" />
<rect x="64" y="14" width="2" height="2" fill="hsl(0, 100%, 60%)" />
<rect x="68" y="14" width="2" height="2" fill="hsl(0, 100%, 60%)" />
<rect x="72" y="14" width="2" height="2" fill="hsl(0, 100%, 60%)" />
<rect x="6" y="16" width="2" height="2" fill="hsl(0, 100%, 60%)" />
<rect x="14" y="16" width="2" height="2" fill="hsl(0, 100%, 60%)" />
<rect x="18" y="16" width="2" height="2" fill="hsl(0, 100%, 60%)" />
<rect x="32" y="16" width="2" height="2" fill="hsl(0, 100%, 60%)" />
<rect x="34" y="16" width="2" height="2" fill="hsl(0, 100%, 60%)" />
<rect x="66" y="16" width="2" height="2" fill="hsl(0, 100%, 60%)" />
<rect x="72" y="16" width="2" height="2" fill="hsl(0, 100%, 60%)" />
<rect x="74" y="16" width="2" height="2" fill="hsl(0, 100%, 60%)" />
<rect x="76" y="16" width="2" height="2" fill="hsl(0, 100%, 60%)" />
<rect x="18" y="18" width="2" height="2" fill="hsl(0, 100%, 60%)" />
<rect x="30" y="18" width="2" height="2" fill="hsl(0, 100%, 60%)" />
<rect x="34" y="18" width="2" height="2" fill="hsl(0, 100%, 60%)" />
<rect x="68" y="18" width="2" height="2" fill="hsl(0, 100%, 60%)" />
<rect x="70" y="18" width="2" height="2" fill="hsl(0, 100%, 60%)" />
<rect x="74" y="18" width="2" height="2" fill="hsl(0, 100%, 60%)" />
<rect x="18" y="20" width="2" height="2" fill="hsl(0, 100%, 60%)" />
<rect x="30" y="20" width="2" height="2" fill="hsl(0, 100%, 60%)" />
<rect x="70" y="20" width="2" height="2" fill="hsl(0, 100%, 60%)" />
<rect x="72" y="20" width="2" height="2" fill="hsl(0, 100%, 60%)" />
<rect x="12" y="22" width="2" height="2" fill="hsl(0, 100%, 60%)" />
<rect x="18" y="22" width="2" height="2" fill="hsl(0, 100%, 60%)" />
<rect x="30" y="22" width="2" height="2" fill="hsl(0, 100%, 60%)" />
<rect x="32" y="22" width="2" height="2" fill="hsl(0, 100%, 60%)" />
<rect x="34" y="22" width="2" height="2" fill="hsl(0, 100%, 60%)" />
<rect x="70" y="22" width="2" height="2" fill="hsl(0, 100%, 60%)" />
<rect x="14" y="24" width="2" height="2" fill="hsl(0, 100%, 60%)" />
<rect x="16" y="24" width="2" height="2" fill="hsl(0, 100%, 60%)" />
<rect x="14" y="28" width="2" height="2" fill="hsl(0, 100%, 60%)" />
<rect x="16" y="28" width="2" height="2" fill="hsl(0, 100%, 60%)" />
<rect x="12" y="30" width="2" height="2" fill="hsl(0, 100%, 60%)" />
<rect x="18" y="30" width="2" height="2" fill="hsl(0, 100%, 60%)" />
<rect x="30" y="30" width="2" height="2" fill="hsl(0, 100%, 60%)" />
<rect x="32" y="30" width="2" height="2" fill="hsl(0, 100%, 60%)" />
<rect x="34" y="30" width="2" height="2" fill="hsl(0, 100%, 60%)" />
<rect x="70" y="30" width="2" height="2" fill="hsl(0, 100%, 60%)" />
<rect x="18" y="32" width="2" height="2" fill="hsl(0, 100%, 60%)" />
<rect x="30" y="32" width="2" height="2" fill="hsl(0, 100%, 60%)" />
<rect x="70" y="32" width="2" height="2" fill="hsl(0, 100%, 60%)" />
<rect x="72" y="32" width="2" height="2" fill="hsl(0, 100%, 60%)" />
<rect x="18" y="34" width="2" height="2" fill="hsl(0, 100%, 60%)" />
<rect x="30" y="34" width="2" height="2" fill="hsl(0, 100%, 60%)" />
<rect x="34" y="34" width="2" height="2" fill="hsl(0, 100%, 60%)" />
<rect x="68" y="34" width="2" height="2" fill="hsl(0, 100%, 60%)" />
<rect x="70" y="34" width="2" height="2" fill="hsl(0, 100%, 60%)" />
<rect x="74" y="34" width="2" height="2" fill="hsl(0, 100%, 60%)" />
<rect x="6" y="36" width="2" height="2" fill="hsl(0, 100%, 60%)" />
<rect x="14" y="36" width="2" height="2" fill="hsl(0, 100%, 60%)" />
<rect x="18" y="36" width="2" height="2" fill="hsl(0, 100%, 60%)" />
<rect x="32" y="36" width="2" height="2" fill="hsl(0, 100%, 60%)" />
<rect x="34" y="36" width="2" height="2" fill="hsl(0, 100%, 60%)" />
<rect x="66" y="36" width="2" height="2" fill="hsl(0, 100%, 60%)" />
<rect x="72" y="36" width="2" height="2" fill="hsl(0, 100%, 60%)" />
<rect x="74" y="36" width="2" height="2" fill="hsl(0, 100%, 60%)" />
<rect x="76" y="36" width="2" height="2" fill="hsl(0, 100%, 60%)" />
<rect x="4" y="38" width="2" height="2" fill="hsl(0, 100%, 60%)" />
<rect x="12" y="38" width="2" height="2" fill="hsl(0, 100%, 60%)" />
<rect x="16" y="38" width="2" height="2" fill="hsl(0, 100%, 60%)" />
<rect x="64" y="38" width="2" height="2" fill="hsl(0, 100%, 60%)" />
<rect x="68" y="38" width="2" height="2" fill="hsl(0, 100%, 60%)" />
<rect x="72" y="38" width="2" height="2" fill="hsl(0, 100%, 60%)" />
<rect x="4" y="40" width="2" height="2" fill="hsl(0, 100%, 60%)" />
<rect x="14" y="40" width="2" height="2" fill="hsl(0, 100%, 60%)" />
<rect x="62" y="40" width="2" height="2" fill="hsl(0, 100%, 60%)" />
<rect x="66" y="40" width="2" height="2" fill="hsl(0, 100%, 60%)" />
<rect x="70" y="40" width="2" height="2" fill="hsl(0, 100%, 60%)" />
<rect x="6" y="42" width="2" height="2" fill="hsl(0, 100%, 60%)" />
<rect x="8" y="42" width="2" height="2" fill="hsl(0, 100%, 60%)" />
<rect x="10" y="42" width="2" height="2" fill="hsl(0, 100%, 60%)" />
<rect x="12" y="42" width="2" height="2" fill="hsl(0, 100%, 60%)" />
<rect x="58" y="42" width="2" height="2" fill="hsl(0, 100%, 60%)" />
<rect x="60" y="42" width="2" height="2" fill="hsl(0, 100%, 60%)" />
<rect x="62" y="42" width="2" height="2" fill="hsl(0, 100%, 60%)" />
<rect x="68" y="42" width="2" height="2" fill="hsl(0, 100%, 60%)" />
<rect x="60" y="44" width="2" height="2" fill="hsl(0, 100%, 60%)" />
<rect x="64" y="44" width="2" height="2" fill="hsl(0, 100%, 60%)" />
<rect x="66" y="44" width="2" height="2" fill="hsl(0, 100%, 60%)" />
<rect x="62" y="46" width="2" height="2" fill="hsl(0, 100%, 60%)" />
<rect x="64" y="46" width="2" height="2" fill="hsl(0, 100%, 60%)" />
<rect x="64" y="48" width="2" height="2" fill="hsl(0, 100%, 60%)" />
</svg>