<?xml version="1.0" encoding="utf-8"?>
<svg xmlns="http://www.w3.org/2000/svg" width="77" height="83" viewBox="0 0 77 83">
<rect width="100%" height="100%" fill="transparent" />
<rect x="64" y="4" width="3" height="3" fill="hsl(0, 100%, 60%)" />
<rect x="64" y="7" width="3" height="3" fill="hsl(0, 100%, 60%)" />
<rect x="70" y="7" width="3" height="3" fill="hsl(0, 100%, 60%)" />
<rect x="64" y="10" width="3" height="3" fill="hsl(0, 100%, 60%)" />
<rect x="67" y="10" width="3" height="3" fill="hsl(0, 100%, 60%)" />
<rect x="34" y="34" width="3" height="3" fill="hsl(0, 100%, 60%)" />
<rect x="34" y="37" width="3" height="3" fill="hsl(0, 100%, 60%)" />
<rect x="40" y="37" width="3" height="3" fill="hsl(0, 100%, 60%)" />
<rect x="34" y="40" width="3" height="3" fill="hsl(0, 100%, 60%)" />
<rect x="37" y="40" width="3" height="3" fill="hsl(0, 100%, 60%)" />
<rect x="28" y="46" width="3" height="3" fill="hsl(0, 100%, 60%)" />
<rect x="31" y="46" width="3" height="3" fill="hsl(0, 100%, 60%)" />
<rect x="7" y="49" width="3" height="3" fill="hsl(0, 100%, 60%)" />
<rect x="10" y="49" width="3" height="3" fill="hsl(0, 100%, 60%)" />
<rect x="25" y="49" width="3" height="3" fill="hsl(0, 100%, 60%)" />
<rect x="34" y="49" width="3" height="3" fill="hsl(0, 100%, 60%)" />
<rect x="7" y="52" width="3" height="3" fill="hsl(0, 100%, 60%)" />
<rect x="10" y="52" width="3" height="3" fill="hsl(0, 100%, 60%)" />
<rect x="28" y="52" width="3" height="3" fill="hsl(0, 100%, 60%)" />
<rect x="34" y="52" width="3" height="3" fill="hsl(0, 100%, 60%)" />
<rect x="7" y="55" width="3" height="3" fill="hsl(0, 100%, 60%)" />
<rect x="10" y="55" width="3" height="3" fill="hsl(0, 100%, 60%)" />
<rect x="31" y="55" width="3" height="3" fill="hsl(0, 100%, 60%)" />
<rect x="10" y="58" width="3" height="3" fill="hsl(0, 100%, 60%)" />
<rect x="7" y="61" width="3" height="3" fill="hsl(0, 100%, 60%)" />
<rect x="13" y="61" width="3" height="3" fill="hsl(0, 100%, 60%)" />
<rect x="43" y="61" width="3" height="3" fill="hsl(0, 100%, 60%)" />
<rect x="46" y="61" width="3" height="3" fill="hsl(0, 100%, 60%)" />
<rect x="4" y="64" width="3" height="3" fill="hsl(0, 100%, 60%)" />
<rect x="7" y="64" width="3" height="3" fill="hsl(0, 100%, 60%)" />
<rect x="13" y="64" width="3" height="3" fill="hsl(0, 100%, 60%)" />
<rect x="43" y="64" width="3" height="3" fill="hsl(0, 100%, 60%)" />
<rect x="46" y="67" width="3" height="3" fill="hsl(0, 100%, 60%)" />
<rect x="49" y="67" width="3" height="3" fill="hsl(0, 100%, 60%)" />
<rect x="52" y="67" width="3" height="3" fill="hsl(0, 100%, 60%)" />
<rect x="52" y="70" width="3" height="3" fill="hsl(0, 100%, 60%)" />
<rect x="7" y="73" width="3" height="3" fill="hsl(0, 100%, 60%)" />
<rect x="10" y="73" width="3" height="3" fill="hsl(0, 100%, 60%)" />
<rect x="7" y="76" width="3" height="3" fill="hsl(0, 100%, 60%)" />
<rect x="10" y="76" width="3" height="3" fill="hsl(0, 100%, 60%)" />
</svg>