<?xml version="1.0" encoding="utf-8"?>
<svg xmlns="http://www.w3.org/2000/svg" width="72" height="34" viewBox="0 0 72 34">
<rect width="100%" height="100%" fill="transparent" />
<rect x="42" y="4" width="1" height="1" fill="hsl(0, 100%, 60%)" />
<rect x="42" y="5" width="1" height="1" fill="hsl(0, 100%, 60%)" />
<rect x="43" y="5" width="1" height="1" fill="hsl(0, 100%, 60%)" />
<rect x="44" y="5" width="1" height="1" fill="hsl(0, 100%, 60%)" />
<rect x="45" y="5" width="1" height="1" fill="hsl(0, 100%, 60%)" />
<rect x="36" y="6" width="1" height="1" fill="hsl(0, 100%, 60%)" />
<rect x="37" y="6" width="1" height="1" fill="hsl(0, 100%, 60%)" />
<rect x="43" y="6" width="1" height="1" fill="hsl(0, 100%, 60%)" />
<rect x="44" y="6" width="1" height="1" fill="hsl(0, 100%, 60%)" />
<rect x="45" y="6" width="1" height="1" fill="hsl(0, 100%, 60%)" />
<rect x="46" y="6" width="1" height="1" fill="hsl(0, 100%, 60%)" />
<rect x="54" y="6" width="1" height="1" fill="hsl(0, 100%, 60%)" />
<rect x="31" y="7" width="1" height="1" fill="hsl(0, 100%, 60%)" />
<rect x="35" y="7" width="1" height="1" fill="hsl(0, 100%, 60%)" />
<rect x="38" y="7" width="1" height="1" fill="hsl(0, 100%, 60%)" />
<rect x="43" y="7" width="1" height="1" fill="hsl(0, 100%, 60%)" />
<rect x="46" y="7" width="1" height="1" fill="hsl(0, 100%, 60%)" />
<rect x="53" y="7" width="1" height="1" fill="hsl(0, 100%, 60%)" />
<rect x="55" y="7" width="1" height="1" fill="hsl(0, 100%, 60%)" />
<rect x="30" y="8" width="1" height="1" fill="hsl(0, 100%, 60%)" />
<rect x="32" y="8" width="1" height="1" fill="hsl(0, 100%, 60%)" />
<rect x="36" y="8" width="1" height="1" fill="hsl(0, 100%, 60%)" />
<rect x="37" y="8" width="1" height="1" fill="hsl(0, 100%, 60%)" />
<rect x="43" y="8" width="1" height="1" fill="hsl(0, 100%, 60%)" />
<rect x="44" y="8" width="1" height="1" fill="hsl(0, 100%, 60%)" />
<rect x="45" y="8" width="1" height="1" fill="hsl(0, 100%, 60%)" />
<rect x="46" y="8" width="1" height="1" fill="hsl(0, 100%, 60%)" />
<rect x="51" y="8" width="1" height="1" fill="hsl(0, 100%, 60%)" />
<rect x="52" y="8" width="1" height="1" fill="hsl(0, 100%, 60%)" />
<rect x="56" y="8" width="1" height="1" fill="hsl(0, 100%, 60%)" />
<rect x="13" y="9" width="1" height="1" fill="hsl(0, 100%, 60%)" />
<rect x="14" y="9" width="1" height="1" fill="hsl(0, 100%, 60%)" />
<rect x="30" y="9" width="1" height="1" fill="hsl(0, 100%, 60%)" />
<rect x="31" y="9" width="1" height="1" fill="hsl(0, 100%, 60%)" />
<rect x="33" y="9" width="1" height="1" fill="hsl(0, 100%, 60%)" />
<rect x="42" y="9" width="1" height="1" fill="hsl(0, 100%, 60%)" />
<rect x="43" y="9" width="1" height="1" fill="hsl(0, 100%, 60%)" />
<rect x="44" y="9" width="1" height="1" fill="hsl(0, 100%, 60%)" />
<rect x="45" y="9" width="1" height="1" fill="hsl(0, 100%, 60%)" />
<rect x="51" y="9" width="1" height="1" fill="hsl(0, 100%, 60%)" />
<rect x="52" y="9" width="1" height="1" fill="hsl(0, 100%, 60%)" />
<rect x="56" y="9" width="1" height="1" fill="hsl(0, 100%, 60%)" />
<rect x="66" y="9" width="1" height="1" fill="hsl(0, 100%, 60%)" />
<rect x="67" y="9" width="1" height="1" fill="hsl(0, 100%, 60%)" />
<rect x="13" y="10" width="1" height="1" fill="hsl(0, 100%, 60%)" />
<rect x="15" y="10" width="1" height="1" fill="hsl(0, 100%, 60%)" />
<rect x="30" y="10" width="1" height="1" fill="hsl(0, 100%, 60%)" />
<rect x="31" y="10" width="1" height="1" fill="hsl(0, 100%, 60%)" />
<rect x="33" y="10" width="1" height="1" fill="hsl(0, 100%, 60%)" />
<rect x="34" y="10" width="1" height="1" fill="hsl(0, 100%, 60%)" />
<rect x="42" y="10" width="1" height="1" fill="hsl(0, 100%, 60%)" />
<rect x="51" y="10" width="1" height="1" fill="hsl(0, 100%, 60%)" />
<rect x="52" y="10" width="1" height="1" fill="hsl(0, 100%, 60%)" />
<rect x="56" y="10" width="1" height="1" fill="hsl(0, 100%, 60%)" />
<rect x="66" y="10" width="1" height="1" fill="hsl(0, 100%, 60%)" />
<rect x="67" y="10" width="1" height="1" fill="hsl(0, 100%, 60%)" />
<rect x="8" y="11" width="1" height="1" fill="hsl(0, 100%, 60%)" />
<rect x="9" y="11" width="1" height="1" fill="hsl(0, 100%, 60%)" />
<rect x="16" y="11" width="1" height="1" fill="hsl(0, 100%, 60%)" />
<rect x="30" y="11" width="1" height="1" fill="hsl(0, 100%, 60%)" />
<rect x="31" y="11" width="1" height="1" fill="hsl(0, 100%, 60%)" />
<rect x="33" y="11" width="1" height="1" fill="hsl(0, 100%, 60%)" />
<rect x="53" y="11" width="1" height="1" fill="hsl(0, 100%, 60%)" />
<rect x="55" y="11" width="1" height="1" fill="hsl(0, 100%, 60%)" />
<rect x="4" y="12" width="1" height="1" fill="hsl(0, 100%, 60%)" />
<rect x="5" y="12" width="1" height="1" fill="hsl(0, 100%, 60%)" />
<rect x="7" y="12" width="1" height="1" fill="hsl(0, 100%, 60%)" />
<rect x="10" y="12" width="1" height="1" fill="hsl(0, 100%, 60%)" />
<rect x="13" y="12" width="1" height="1" fill="hsl(0, 100%, 60%)" />
<rect x="16" y="12" width="1" height="1" fill="hsl(0, 100%, 60%)" />
<rect x="30" y="12" width="1" height="1" fill="hsl(0, 100%, 60%)" />
<rect x="32" y="12" width="1" height="1" fill="hsl(0, 100%, 60%)" />
<rect x="54" y="12" width="1" height="1" fill="hsl(0, 100%, 60%)" />
<rect x="4" y="13" width="1" height="1" fill="hsl(0, 100%, 60%)" />
<rect x="5" y="13" width="1" height="1" fill="hsl(0, 100%, 60%)" />
<rect x="8" y="13" width="1" height="1" fill="hsl(0, 100%, 60%)" />
<rect x="9" y="13" width="1" height="1" fill="hsl(0, 100%, 60%)" />
<rect x="16" y="13" width="1" height="1" fill="hsl(0, 100%, 60%)" />
<rect x="25" y="13" width="1" height="1" fill="hsl(0, 100%, 60%)" />
<rect x="31" y="13" width="1" height="1" fill="hsl(0, 100%, 60%)" />
<rect x="43" y="13" width="1" height="1" fill="hsl(0, 100%, 60%)" />
<rect x="45" y="13" width="1" height="1" fill="hsl(0, 100%, 60%)" />
<rect x="13" y="14" width="1" height="1" fill="hsl(0, 100%, 60%)" />
<rect x="15" y="14" width="1" height="1" fill="hsl(0, 100%, 60%)" />
<rect x="23" y="14" width="1" height="1" fill="hsl(0, 100%, 60%)" />
<rect x="25" y="14" width="1" height="1" fill="hsl(0, 100%, 60%)" />
<rect x="43" y="14" width="1" height="1" fill="hsl(0, 100%, 60%)" />
<rect x="44" y="14" width="1" height="1" fill="hsl(0, 100%, 60%)" />
<rect x="13" y="15" width="1" height="1" fill="hsl(0, 100%, 60%)" />
<rect x="14" y="15" width="1" height="1" fill="hsl(0, 100%, 60%)" />
<rect x="24" y="15" width="1" height="1" fill="hsl(0, 100%, 60%)" />
<rect x="25" y="15" width="1" height="1" fill="hsl(0, 100%, 60%)" />
<rect x="44" y="15" width="1" height="1" fill="hsl(0, 100%, 60%)" />
<rect x="47" y="18" width="1" height="1" fill="hsl(0, 100%, 60%)" />
<rect x="48" y="18" width="1" height="1" fill="hsl(0, 100%, 60%)" />
<rect x="47" y="19" width="1" height="1" fill="hsl(0, 100%, 60%)" />
<rect x="48" y="19" width="1" height="1" fill="hsl(0, 100%, 60%)" />
<rect x="44" y="26" width="1" height="1" fill="hsl(0, 100%, 60%)" />
<rect x="45" y="26" width="1" height="1" fill="hsl(0, 100%, 60%)" />
<rect x="44" y="27" width="1" height="1" fill="hsl(0, 100%, 60%)" />
<rect x="45" y="28" width="1" height="1" fill="hsl(0, 100%, 60%)" />
<rect x="46" y="28" width="1" height="1" fill="hsl(0, 100%, 60%)" />
<rect x="47" y="28" width="1" height="1" fill="hsl(0, 100%, 60%)" />
<rect x="47" y="29" width="1" height="1" fill="hsl(0, 100%, 60%)" />
</svg>