<?xml version="1.0" encoding="utf-8"?>
<svg xmlns="http://www.w3.org/2000/svg" width="77" height="65" viewBox="0 0 77 65">
<rect width="100%" height="100%" fill="transparent" />
<rect x="46" y="4" width="3" height="3" fill="hsl(0, 100%, 60%)" />
<rect x="49" y="4" width="3" height="3" fill="hsl(0, 100%, 60%)" />
<rect x="52" y="4" width="3" height="3" fill="hsl(0, 100%, 60%)" />
<rect x="43" y="10" width="3" height="3" fill="hsl(0, 100%, 60%)" />
<rect x="55" y="10" width="3" height="3" fill="hsl(0, 100%, 60%)" />
<rect x="43" y="13" width="3" height="3" fill="hsl(0, 100%, 60%)" />
<rect x="55" y="13" width="3" height="3" fill="hsl(0, 100%, 60%)" />
<rect x="46" y="19" width="3" height="3" fill="hsl(0, 100%, 60%)" />
<rect x="49" y="19" width="3" height="3" fill="hsl(0, 100%, 60%)" />
<rect x="52" y="19" width="3" height="3" fill="hsl(0, 100%, 60%)" />
<rect x="46" y="28" width="3" height="3" fill="hsl(0, 100%, 60%)" />
<rect x="49" y="28" width="3" height="3" fill="hsl(0, 100%, 60%)" />
<rect x="52" y="28" width="3" height="3" fill="hsl(0, 100%, 60%)" />
<rect x="43" y="34" width="3" height="3" fill="hsl(0, 100%, 60%)" />
<rect x="55" y="34" width="3" height="3" fill="hsl(0, 100%, 60%)" />
<rect x="43" y="37" width="3" height="3" fill="hsl(0, 100%, 60%)" />
<rect x="55" y="37" width="3" height="3" fill="hsl(0, 100%, 60%)" />
<rect x="64" y="40" width="3" height="3" fill="hsl(0, 100%, 60%)" />
<rect x="46" y="43" width="3" height="3" fill="hsl(0, 100%, 60%)" />
<rect x="49" y="43" width="3" height="3" fill="hsl(0, 100%, 60%)" />
<rect x="52" y="43" width="3" height="3" fill="hsl(0, 100%, 60%)" />
<rect x="64" y="43" width="3" height="3" fill="hsl(0, 100%, 60%)" />
<rect x="70" y="43" width="3" height="3" fill="hsl(0, 100%, 60%)" />
<rect x="64" y="46" width="3" height="3" fill="hsl(0, 100%, 60%)" />
<rect x="67" y="46" width="3" height="3" fill="hsl(0, 100%, 60%)" />
<rect x="4" y="52" width="3" height="3" fill="hsl(0, 100%, 60%)" />
<rect x="13" y="52" width="3" height="3" fill="hsl(0, 100%, 60%)" />
<rect x="19" y="52" width="3" height="3" fill="hsl(0, 100%, 60%)" />
<rect x="22" y="52" width="3" height="3" fill="hsl(0, 100%, 60%)" />
<rect x="28" y="52" width="3" height="3" fill="hsl(0, 100%, 60%)" />
<rect x="37" y="52" width="3" height="3" fill="hsl(0, 100%, 60%)" />
<rect x="4" y="55" width="3" height="3" fill="hsl(0, 100%, 60%)" />
<rect x="7" y="55" width="3" height="3" fill="hsl(0, 100%, 60%)" />
<rect x="10" y="55" width="3" height="3" fill="hsl(0, 100%, 60%)" />
<rect x="13" y="55" width="3" height="3" fill="hsl(0, 100%, 60%)" />
<rect x="19" y="55" width="3" height="3" fill="hsl(0, 100%, 60%)" />
<rect x="22" y="55" width="3" height="3" fill="hsl(0, 100%, 60%)" />
<rect x="28" y="55" width="3" height="3" fill="hsl(0, 100%, 60%)" />
<rect x="31" y="55" width="3" height="3" fill="hsl(0, 100%, 60%)" />
<rect x="34" y="55" width="3" height="3" fill="hsl(0, 100%, 60%)" />
<rect x="37" y="55" width="3" height="3" fill="hsl(0, 100%, 60%)" />
<rect x="4" y="58" width="3" height="3" fill="hsl(0, 100%, 60%)" />
<rect x="13" y="58" width="3" height="3" fill="hsl(0, 100%, 60%)" />
<rect x="19" y="58" width="3" height="3" fill="hsl(0, 100%, 60%)" />
<rect x="22" y="58" width="3" height="3" fill="hsl(0, 100%, 60%)" />
<rect x="28" y="58" width="3" height="3" fill="hsl(0, 100%, 60%)" />
<rect x="37" y="58" width="3" height="3" fill="hsl(0, 100%, 60%)" />
</svg>