<?xml version="1.0" encoding="utf-8"?>
<svg xmlns="http://www.w3.org/2000/svg" width="63" height="93" viewBox="0 0 63 93">
<rect width="100%" height="100%" fill="transparent" />
<rect x="29" y="4" width="5" height="5" fill="hsl(0, 100%, 60%)" />
<rect x="24" y="9" width="5" height="5" fill="hsl(0, 100%, 60%)" />
<rect x="34" y="9" width="5" height="5" fill="hsl(0, 100%, 60%)" />
<rect x="9" y="14" width="5" height="5" fill="hsl(0, 100%, 60%)" />
<rect x="24" y="14" width="5" height="5" fill="hsl(0, 100%, 60%)" />
<rect x="29" y="14" width="5" height="5" fill="hsl(0, 100%, 60%)" />
<rect x="9" y="19" width="5" height="5" fill="hsl(0, 100%, 60%)" />
<rect x="14" y="19" width="5" height="5" fill="hsl(0, 100%, 60%)" />
<rect x="19" y="19" width="5" height="5" fill="hsl(0, 100%, 60%)" />
<rect x="29" y="24" width="5" height="5" fill="hsl(0, 100%, 60%)" />
<rect x="34" y="24" width="5" height="5" fill="hsl(0, 100%, 60%)" />
<rect x="39" y="24" width="5" height="5" fill="hsl(0, 100%, 60%)" />
<rect x="19" y="29" width="5" height="5" fill="hsl(0, 100%, 60%)" />
<rect x="24" y="29" width="5" height="5" fill="hsl(0, 100%, 60%)" />
<rect x="44" y="29" width="5" height="5" fill="hsl(0, 100%, 60%)" />
<rect x="14" y="34" width="5" height="5" fill="hsl(0, 100%, 60%)" />
<rect x="39" y="34" width="5" height="5" fill="hsl(0, 100%, 60%)" />
<rect x="54" y="34" width="5" height="5" fill="hsl(0, 100%, 60%)" />
<rect x="9" y="39" width="5" height="5" fill="hsl(0, 100%, 60%)" />
<rect x="19" y="39" width="5" height="5" fill="hsl(0, 100%, 60%)" />
<rect x="29" y="39" width="5" height="5" fill="hsl(0, 100%, 60%)" />
<rect x="39" y="39" width="5" height="5" fill="hsl(0, 100%, 60%)" />
<rect x="49" y="39" width="5" height="5" fill="hsl(0, 100%, 60%)" />
<rect x="54" y="39" width="5" height="5" fill="hsl(0, 100%, 60%)" />
<rect x="9" y="44" width="5" height="5" fill="hsl(0, 100%, 60%)" />
<rect x="19" y="44" width="5" height="5" fill="hsl(0, 100%, 60%)" />
<rect x="39" y="44" width="5" height="5" fill="hsl(0, 100%, 60%)" />
<rect x="49" y="44" width="5" height="5" fill="hsl(0, 100%, 60%)" />
<rect x="4" y="49" width="5" height="5" fill="hsl(0, 100%, 60%)" />
<rect x="9" y="49" width="5" height="5" fill="hsl(0, 100%, 60%)" />
<rect x="19" y="49" width="5" height="5" fill="hsl(0, 100%, 60%)" />
<rect x="29" y="49" width="5" height="5" fill="hsl(0, 100%, 60%)" />
<rect x="39" y="49" width="5" height="5" fill="hsl(0, 100%, 60%)" />
<rect x="49" y="49" width="5" height="5" fill="hsl(0, 100%, 60%)" />
<rect x="4" y="54" width="5" height="5" fill="hsl(0, 100%, 60%)" />
<rect x="19" y="54" width="5" height="5" fill="hsl(0, 100%, 60%)" />
<rect x="44" y="54" width="5" height="5" fill="hsl(0, 100%, 60%)" />
<rect x="14" y="59" width="5" height="5" fill="hsl(0, 100%, 60%)" />
<rect x="34" y="59" width="5" height="5" fill="hsl(0, 100%, 60%)" />
<rect x="39" y="59" width="5" height="5" fill="hsl(0, 100%, 60%)" />
<rect x="19" y="64" width="5" height="5" fill="hsl(0, 100%, 60%)" />
<rect x="24" y="64" width="5" height="5" fill="hsl(0, 100%, 60%)" />
<rect x="29" y="64" width="5" height="5" fill="hsl(0, 100%, 60%)" />
<rect x="39" y="69" width="5" height="5" fill="hsl(0, 100%, 60%)" />
<rect x="44" y="69" width="5" height="5" fill="hsl(0, 100%, 60%)" />
<rect x="49" y="69" width="5" height="5" fill="hsl(0, 100%, 60%)" />
<rect x="29" y="74" width="5" height="5" fill="hsl(0, 100%, 60%)" />
<rect x="34" y="74" width="5" height="5" fill="hsl(0, 100%, 60%)" />
<rect x="49" y="74" width="5" height="5" fill="hsl(0, 100%, 60%)" />
<rect x="24" y="79" width="5" height="5" fill="hsl(0, 100%, 60%)" />
<rect x="34" y="79" width="5" height="5" fill="hsl(0, 100%, 60%)" />
<rect x="29" y="84" width="5" height="5" fill="hsl(0, 100%, 60%)" />
</svg>