<?xml version="1.0" encoding="utf-8"?>
<svg xmlns="http://www.w3.org/2000/svg" width="58" height="66" viewBox="0 0 58 66">
<rect width="100%" height="100%" fill="transparent" />
<rect x="4" y="4" width="1" height="1" fill="hsl(0, 100%, 60%)" />
<rect x="14" y="4" width="1" height="1" fill="hsl(0, 100%, 60%)" />
<rect x="15" y="4" width="1" height="1" fill="hsl(0, 100%, 60%)" />
<rect x="4" y="5" width="1" height="1" fill="hsl(0, 100%, 60%)" />
<rect x="5" y="5" width="1" height="1" fill="hsl(0, 100%, 60%)" />
<rect x="6" y="5" width="1" height="1" fill="hsl(0, 100%, 60%)" />
<rect x="11" y="5" width="1" height="1" fill="hsl(0, 100%, 60%)" />
<rect x="12" y="5" width="1" height="1" fill="hsl(0, 100%, 60%)" />
<rect x="15" y="5" width="1" height="1" fill="hsl(0, 100%, 60%)" />
<rect x="7" y="6" width="1" height="1" fill="hsl(0, 100%, 60%)" />
<rect x="10" y="6" width="1" height="1" fill="hsl(0, 100%, 60%)" />
<rect x="13" y="6" width="1" height="1" fill="hsl(0, 100%, 60%)" />
<rect x="14" y="6" width="1" height="1" fill="hsl(0, 100%, 60%)" />
<rect x="6" y="7" width="1" height="1" fill="hsl(0, 100%, 60%)" />
<rect x="7" y="7" width="1" height="1" fill="hsl(0, 100%, 60%)" />
<rect x="11" y="7" width="1" height="1" fill="hsl(0, 100%, 60%)" />
<rect x="12" y="7" width="1" height="1" fill="hsl(0, 100%, 60%)" />
<rect x="15" y="7" width="1" height="1" fill="hsl(0, 100%, 60%)" />
<rect x="16" y="7" width="1" height="1" fill="hsl(0, 100%, 60%)" />
<rect x="17" y="7" width="1" height="1" fill="hsl(0, 100%, 60%)" />
<rect x="13" y="8" width="1" height="1" fill="hsl(0, 100%, 60%)" />
<rect x="15" y="8" width="1" height="1" fill="hsl(0, 100%, 60%)" />
<rect x="18" y="8" width="1" height="1" fill="hsl(0, 100%, 60%)" />
<rect x="13" y="9" width="1" height="1" fill="hsl(0, 100%, 60%)" />
<rect x="17" y="9" width="1" height="1" fill="hsl(0, 100%, 60%)" />
<rect x="18" y="9" width="1" height="1" fill="hsl(0, 100%, 60%)" />
<rect x="14" y="10" width="1" height="1" fill="hsl(0, 100%, 60%)" />
<rect x="13" y="11" width="1" height="1" fill="hsl(0, 100%, 60%)" />
<rect x="14" y="11" width="1" height="1" fill="hsl(0, 100%, 60%)" />
<rect x="7" y="16" width="1" height="1" fill="hsl(0, 100%, 60%)" />
<rect x="8" y="16" width="1" height="1" fill="hsl(0, 100%, 60%)" />
<rect x="9" y="16" width="1" height="1" fill="hsl(0, 100%, 60%)" />
<rect x="9" y="17" width="1" height="1" fill="hsl(0, 100%, 60%)" />
<rect x="7" y="18" width="1" height="1" fill="hsl(0, 100%, 60%)" />
<rect x="8" y="18" width="1" height="1" fill="hsl(0, 100%, 60%)" />
<rect x="9" y="18" width="1" height="1" fill="hsl(0, 100%, 60%)" />
<rect x="6" y="27" width="1" height="1" fill="hsl(0, 100%, 60%)" />
<rect x="7" y="27" width="1" height="1" fill="hsl(0, 100%, 60%)" />
<rect x="7" y="28" width="1" height="1" fill="hsl(0, 100%, 60%)" />
<rect x="4" y="29" width="1" height="1" fill="hsl(0, 100%, 60%)" />
<rect x="5" y="29" width="1" height="1" fill="hsl(0, 100%, 60%)" />
<rect x="6" y="29" width="1" height="1" fill="hsl(0, 100%, 60%)" />
<rect x="4" y="30" width="1" height="1" fill="hsl(0, 100%, 60%)" />
<rect x="29" y="31" width="1" height="1" fill="hsl(0, 100%, 60%)" />
<rect x="26" y="32" width="1" height="1" fill="hsl(0, 100%, 60%)" />
<rect x="27" y="32" width="1" height="1" fill="hsl(0, 100%, 60%)" />
<rect x="28" y="32" width="1" height="1" fill="hsl(0, 100%, 60%)" />
<rect x="32" y="32" width="1" height="1" fill="hsl(0, 100%, 60%)" />
<rect x="33" y="32" width="1" height="1" fill="hsl(0, 100%, 60%)" />
<rect x="18" y="33" width="1" height="1" fill="hsl(0, 100%, 60%)" />
<rect x="19" y="33" width="1" height="1" fill="hsl(0, 100%, 60%)" />
<rect x="29" y="33" width="1" height="1" fill="hsl(0, 100%, 60%)" />
<rect x="32" y="33" width="1" height="1" fill="hsl(0, 100%, 60%)" />
<rect x="35" y="33" width="1" height="1" fill="hsl(0, 100%, 60%)" />
<rect x="36" y="33" width="1" height="1" fill="hsl(0, 100%, 60%)" />
<rect x="18" y="34" width="1" height="1" fill="hsl(0, 100%, 60%)" />
<rect x="19" y="34" width="1" height="1" fill="hsl(0, 100%, 60%)" />
<rect x="28" y="34" width="1" height="1" fill="hsl(0, 100%, 60%)" />
<rect x="29" y="34" width="1" height="1" fill="hsl(0, 100%, 60%)" />
<rect x="33" y="34" width="1" height="1" fill="hsl(0, 100%, 60%)" />
<rect x="34" y="34" width="1" height="1" fill="hsl(0, 100%, 60%)" />
<rect x="37" y="34" width="1" height="1" fill="hsl(0, 100%, 60%)" />
<rect x="35" y="35" width="1" height="1" fill="hsl(0, 100%, 60%)" />
<rect x="37" y="35" width="1" height="1" fill="hsl(0, 100%, 60%)" />
<rect x="38" y="35" width="1" height="1" fill="hsl(0, 100%, 60%)" />
<rect x="39" y="35" width="1" height="1" fill="hsl(0, 100%, 60%)" />
<rect x="35" y="36" width="1" height="1" fill="hsl(0, 100%, 60%)" />
<rect x="40" y="36" width="1" height="1" fill="hsl(0, 100%, 60%)" />
<rect x="42" y="36" width="1" height="1" fill="hsl(0, 100%, 60%)" />
<rect x="43" y="36" width="1" height="1" fill="hsl(0, 100%, 60%)" />
<rect x="36" y="37" width="1" height="1" fill="hsl(0, 100%, 60%)" />
<rect x="38" y="37" width="1" height="1" fill="hsl(0, 100%, 60%)" />
<rect x="40" y="37" width="1" height="1" fill="hsl(0, 100%, 60%)" />
<rect x="42" y="37" width="1" height="1" fill="hsl(0, 100%, 60%)" />
<rect x="44" y="37" width="1" height="1" fill="hsl(0, 100%, 60%)" />
<rect x="35" y="38" width="1" height="1" fill="hsl(0, 100%, 60%)" />
<rect x="36" y="38" width="1" height="1" fill="hsl(0, 100%, 60%)" />
<rect x="38" y="38" width="1" height="1" fill="hsl(0, 100%, 60%)" />
<rect x="39" y="38" width="1" height="1" fill="hsl(0, 100%, 60%)" />
<rect x="43" y="38" width="1" height="1" fill="hsl(0, 100%, 60%)" />
<rect x="4" y="39" width="1" height="1" fill="hsl(0, 100%, 60%)" />
<rect x="5" y="39" width="1" height="1" fill="hsl(0, 100%, 60%)" />
<rect x="5" y="40" width="1" height="1" fill="hsl(0, 100%, 60%)" />
<rect x="41" y="40" width="1" height="1" fill="hsl(0, 100%, 60%)" />
<rect x="42" y="40" width="1" height="1" fill="hsl(0, 100%, 60%)" />
<rect x="43" y="40" width="1" height="1" fill="hsl(0, 100%, 60%)" />
<rect x="44" y="40" width="1" height="1" fill="hsl(0, 100%, 60%)" />
<rect x="45" y="40" width="1" height="1" fill="hsl(0, 100%, 60%)" />
<rect x="5" y="41" width="1" height="1" fill="hsl(0, 100%, 60%)" />
<rect x="7" y="41" width="1" height="1" fill="hsl(0, 100%, 60%)" />
<rect x="41" y="41" width="1" height="1" fill="hsl(0, 100%, 60%)" />
<rect x="45" y="41" width="1" height="1" fill="hsl(0, 100%, 60%)" />
<rect x="6" y="42" width="1" height="1" fill="hsl(0, 100%, 60%)" />
<rect x="7" y="42" width="1" height="1" fill="hsl(0, 100%, 60%)" />
<rect x="43" y="42" width="1" height="1" fill="hsl(0, 100%, 60%)" />
<rect x="29" y="43" width="1" height="1" fill="hsl(0, 100%, 60%)" />
<rect x="30" y="43" width="1" height="1" fill="hsl(0, 100%, 60%)" />
<rect x="31" y="43" width="1" height="1" fill="hsl(0, 100%, 60%)" />
<rect x="42" y="43" width="1" height="1" fill="hsl(0, 100%, 60%)" />
<rect x="43" y="43" width="1" height="1" fill="hsl(0, 100%, 60%)" />
<rect x="44" y="43" width="1" height="1" fill="hsl(0, 100%, 60%)" />
<rect x="31" y="44" width="1" height="1" fill="hsl(0, 100%, 60%)" />
<rect x="45" y="44" width="1" height="1" fill="hsl(0, 100%, 60%)" />
<rect x="29" y="45" width="1" height="1" fill="hsl(0, 100%, 60%)" />
<rect x="30" y="45" width="1" height="1" fill="hsl(0, 100%, 60%)" />
<rect x="31" y="45" width="1" height="1" fill="hsl(0, 100%, 60%)" />
<rect x="44" y="45" width="1" height="1" fill="hsl(0, 100%, 60%)" />
<rect x="45" y="45" width="1" height="1" fill="hsl(0, 100%, 60%)" />
<rect x="6" y="49" width="1" height="1" fill="hsl(0, 100%, 60%)" />
<rect x="6" y="50" width="1" height="1" fill="hsl(0, 100%, 60%)" />
<rect x="8" y="50" width="1" height="1" fill="hsl(0, 100%, 60%)" />
<rect x="40" y="50" width="1" height="1" fill="hsl(0, 100%, 60%)" />
<rect x="41" y="50" width="1" height="1" fill="hsl(0, 100%, 60%)" />
<rect x="53" y="50" width="1" height="1" fill="hsl(0, 100%, 60%)" />
<rect x="6" y="51" width="1" height="1" fill="hsl(0, 100%, 60%)" />
<rect x="7" y="51" width="1" height="1" fill="hsl(0, 100%, 60%)" />
<rect x="8" y="51" width="1" height="1" fill="hsl(0, 100%, 60%)" />
<rect x="40" y="51" width="1" height="1" fill="hsl(0, 100%, 60%)" />
<rect x="41" y="51" width="1" height="1" fill="hsl(0, 100%, 60%)" />
<rect x="51" y="51" width="1" height="1" fill="hsl(0, 100%, 60%)" />
<rect x="52" y="51" width="1" height="1" fill="hsl(0, 100%, 60%)" />
<rect x="53" y="51" width="1" height="1" fill="hsl(0, 100%, 60%)" />
<rect x="8" y="52" width="1" height="1" fill="hsl(0, 100%, 60%)" />
<rect x="51" y="52" width="1" height="1" fill="hsl(0, 100%, 60%)" />
<rect x="51" y="53" width="1" height="1" fill="hsl(0, 100%, 60%)" />
<rect x="18" y="54" width="1" height="1" fill="hsl(0, 100%, 60%)" />
<rect x="19" y="54" width="1" height="1" fill="hsl(0, 100%, 60%)" />
<rect x="28" y="54" width="1" height="1" fill="hsl(0, 100%, 60%)" />
<rect x="29" y="54" width="1" height="1" fill="hsl(0, 100%, 60%)" />
<rect x="18" y="55" width="1" height="1" fill="hsl(0, 100%, 60%)" />
<rect x="19" y="55" width="1" height="1" fill="hsl(0, 100%, 60%)" />
<rect x="22" y="55" width="1" height="1" fill="hsl(0, 100%, 60%)" />
<rect x="23" y="55" width="1" height="1" fill="hsl(0, 100%, 60%)" />
<rect x="29" y="55" width="1" height="1" fill="hsl(0, 100%, 60%)" />
<rect x="22" y="56" width="1" height="1" fill="hsl(0, 100%, 60%)" />
<rect x="24" y="56" width="1" height="1" fill="hsl(0, 100%, 60%)" />
<rect x="26" y="56" width="1" height="1" fill="hsl(0, 100%, 60%)" />
<rect x="27" y="56" width="1" height="1" fill="hsl(0, 100%, 60%)" />
<rect x="28" y="56" width="1" height="1" fill="hsl(0, 100%, 60%)" />
<rect x="24" y="57" width="1" height="1" fill="hsl(0, 100%, 60%)" />
<rect x="26" y="57" width="1" height="1" fill="hsl(0, 100%, 60%)" />
<rect x="24" y="58" width="1" height="1" fill="hsl(0, 100%, 60%)" />
<rect x="25" y="58" width="1" height="1" fill="hsl(0, 100%, 60%)" />
<rect x="30" y="58" width="1" height="1" fill="hsl(0, 100%, 60%)" />
<rect x="31" y="58" width="1" height="1" fill="hsl(0, 100%, 60%)" />
<rect x="29" y="59" width="1" height="1" fill="hsl(0, 100%, 60%)" />
<rect x="31" y="59" width="1" height="1" fill="hsl(0, 100%, 60%)" />
<rect x="36" y="59" width="1" height="1" fill="hsl(0, 100%, 60%)" />
<rect x="37" y="59" width="1" height="1" fill="hsl(0, 100%, 60%)" />
<rect x="29" y="60" width="1" height="1" fill="hsl(0, 100%, 60%)" />
<rect x="36" y="60" width="1" height="1" fill="hsl(0, 100%, 60%)" />
<rect x="37" y="60" width="1" height="1" fill="hsl(0, 100%, 60%)" />
<rect x="28" y="61" width="1" height="1" fill="hsl(0, 100%, 60%)" />
<rect x="29" y="61" width="1" height="1" fill="hsl(0, 100%, 60%)" />
</svg>