<?xml version="1.0" encoding="utf-8"?>
<svg xmlns="http://www.w3.org/2000/svg" width="89" height="29" viewBox="0 0 89 29">
<rect width="100%" height="100%" fill="transparent" />
<rect x="7" y="4" width="3" height="3" fill="hsl(0, 100%, 60%)" />
<rect x="10" y="4" width="3" height="3" fill="hsl(0, 100%, 60%)" />
<rect x="13" y="4" width="3" height="3" fill="hsl(0, 100%, 60%)" />
<rect x="34" y="4" width="3" height="3" fill="hsl(0, 100%, 60%)" />
<rect x="52" y="4" width="3" height="3" fill="hsl(0, 100%, 60%)" />
<rect x="73" y="4" width="3" height="3" fill="hsl(0, 100%, 60%)" />
<rect x="76" y="4" width="3" height="3" fill="hsl(0, 100%, 60%)" />
<rect x="79" y="4" width="3" height="3" fill="hsl(0, 100%, 60%)" />
<rect x="4" y="7" width="3" height="3" fill="hsl(0, 100%, 60%)" />
<rect x="13" y="7" width="3" height="3" fill="hsl(0, 100%, 60%)" />
<rect x="31" y="7" width="3" height="3" fill="hsl(0, 100%, 60%)" />
<rect x="34" y="7" width="3" height="3" fill="hsl(0, 100%, 60%)" />
<rect x="37" y="7" width="3" height="3" fill="hsl(0, 100%, 60%)" />
<rect x="49" y="7" width="3" height="3" fill="hsl(0, 100%, 60%)" />
<rect x="52" y="7" width="3" height="3" fill="hsl(0, 100%, 60%)" />
<rect x="55" y="7" width="3" height="3" fill="hsl(0, 100%, 60%)" />
<rect x="73" y="7" width="3" height="3" fill="hsl(0, 100%, 60%)" />
<rect x="82" y="7" width="3" height="3" fill="hsl(0, 100%, 60%)" />
<rect x="13" y="10" width="3" height="3" fill="hsl(0, 100%, 60%)" />
<rect x="28" y="10" width="3" height="3" fill="hsl(0, 100%, 60%)" />
<rect x="31" y="10" width="3" height="3" fill="hsl(0, 100%, 60%)" />
<rect x="37" y="10" width="3" height="3" fill="hsl(0, 100%, 60%)" />
<rect x="49" y="10" width="3" height="3" fill="hsl(0, 100%, 60%)" />
<rect x="55" y="10" width="3" height="3" fill="hsl(0, 100%, 60%)" />
<rect x="58" y="10" width="3" height="3" fill="hsl(0, 100%, 60%)" />
<rect x="73" y="10" width="3" height="3" fill="hsl(0, 100%, 60%)" />
<rect x="13" y="13" width="3" height="3" fill="hsl(0, 100%, 60%)" />
<rect x="73" y="13" width="3" height="3" fill="hsl(0, 100%, 60%)" />
<rect x="13" y="16" width="3" height="3" fill="hsl(0, 100%, 60%)" />
<rect x="22" y="16" width="3" height="3" fill="hsl(0, 100%, 60%)" />
<rect x="64" y="16" width="3" height="3" fill="hsl(0, 100%, 60%)" />
<rect x="73" y="16" width="3" height="3" fill="hsl(0, 100%, 60%)" />
<rect x="13" y="19" width="3" height="3" fill="hsl(0, 100%, 60%)" />
<rect x="22" y="19" width="3" height="3" fill="hsl(0, 100%, 60%)" />
<rect x="25" y="19" width="3" height="3" fill="hsl(0, 100%, 60%)" />
<rect x="61" y="19" width="3" height="3" fill="hsl(0, 100%, 60%)" />
<rect x="64" y="19" width="3" height="3" fill="hsl(0, 100%, 60%)" />
<rect x="73" y="19" width="3" height="3" fill="hsl(0, 100%, 60%)" />
<rect x="10" y="22" width="3" height="3" fill="hsl(0, 100%, 60%)" />
<rect x="22" y="22" width="3" height="3" fill="hsl(0, 100%, 60%)" />
<rect x="25" y="22" width="3" height="3" fill="hsl(0, 100%, 60%)" />
<rect x="61" y="22" width="3" height="3" fill="hsl(0, 100%, 60%)" />
<rect x="64" y="22" width="3" height="3" fill="hsl(0, 100%, 60%)" />
<rect x="76" y="22" width="3" height="3" fill="hsl(0, 100%, 60%)" />
</svg>