<?xml version="1.0" encoding="utf-8"?>
<svg xmlns="http://www.w3.org/2000/svg" width="83" height="68" viewBox="0 0 83 68">
<rect width="100%" height="100%" fill="transparent" />
<rect x="19" y="4" width="5" height="5" fill="hsl(0, 100%, 60%)" />
<rect x="59" y="4" width="5" height="5" fill="hsl(0, 100%, 60%)" />
<rect x="14" y="9" width="5" height="5" fill="hsl(0, 100%, 60%)" />
<rect x="19" y="9" width="5" height="5" fill="hsl(0, 100%, 60%)" />
<rect x="24" y="9" width="5" height="5" fill="hsl(0, 100%, 60%)" />
<rect x="54" y="9" width="5" height="5" fill="hsl(0, 100%, 60%)" />
<rect x="59" y="9" width="5" height="5" fill="hsl(0, 100%, 60%)" />
<rect x="64" y="9" width="5" height="5" fill="hsl(0, 100%, 60%)" />
<rect x="9" y="14" width="5" height="5" fill="hsl(0, 100%, 60%)" />
<rect x="14" y="14" width="5" height="5" fill="hsl(0, 100%, 60%)" />
<rect x="29" y="14" width="5" height="5" fill="hsl(0, 100%, 60%)" />
<rect x="49" y="14" width="5" height="5" fill="hsl(0, 100%, 60%)" />
<rect x="64" y="14" width="5" height="5" fill="hsl(0, 100%, 60%)" />
<rect x="69" y="14" width="5" height="5" fill="hsl(0, 100%, 60%)" />
<rect x="19" y="19" width="5" height="5" fill="hsl(0, 100%, 60%)" />
<rect x="24" y="19" width="5" height="5" fill="hsl(0, 100%, 60%)" />
<rect x="29" y="19" width="5" height="5" fill="hsl(0, 100%, 60%)" />
<rect x="49" y="19" width="5" height="5" fill="hsl(0, 100%, 60%)" />
<rect x="54" y="19" width="5" height="5" fill="hsl(0, 100%, 60%)" />
<rect x="59" y="19" width="5" height="5" fill="hsl(0, 100%, 60%)" />
<rect x="24" y="29" width="5" height="5" fill="hsl(0, 100%, 60%)" />
<rect x="54" y="29" width="5" height="5" fill="hsl(0, 100%, 60%)" />
<rect x="14" y="34" width="5" height="5" fill="hsl(0, 100%, 60%)" />
<rect x="29" y="34" width="5" height="5" fill="hsl(0, 100%, 60%)" />
<rect x="49" y="34" width="5" height="5" fill="hsl(0, 100%, 60%)" />
<rect x="64" y="34" width="5" height="5" fill="hsl(0, 100%, 60%)" />
<rect x="4" y="39" width="5" height="5" fill="hsl(0, 100%, 60%)" />
<rect x="34" y="39" width="5" height="5" fill="hsl(0, 100%, 60%)" />
<rect x="44" y="39" width="5" height="5" fill="hsl(0, 100%, 60%)" />
<rect x="74" y="39" width="5" height="5" fill="hsl(0, 100%, 60%)" />
<rect x="4" y="44" width="5" height="5" fill="hsl(0, 100%, 60%)" />
<rect x="9" y="44" width="5" height="5" fill="hsl(0, 100%, 60%)" />
<rect x="34" y="44" width="5" height="5" fill="hsl(0, 100%, 60%)" />
<rect x="44" y="44" width="5" height="5" fill="hsl(0, 100%, 60%)" />
<rect x="69" y="44" width="5" height="5" fill="hsl(0, 100%, 60%)" />
<rect x="74" y="44" width="5" height="5" fill="hsl(0, 100%, 60%)" />
<rect x="34" y="49" width="5" height="5" fill="hsl(0, 100%, 60%)" />
<rect x="44" y="49" width="5" height="5" fill="hsl(0, 100%, 60%)" />
<rect x="19" y="54" width="5" height="5" fill="hsl(0, 100%, 60%)" />
<rect x="29" y="54" width="5" height="5" fill="hsl(0, 100%, 60%)" />
<rect x="49" y="54" width="5" height="5" fill="hsl(0, 100%, 60%)" />
<rect x="59" y="54" width="5" height="5" fill="hsl(0, 100%, 60%)" />
<rect x="24" y="59" width="5" height="5" fill="hsl(0, 100%, 60%)" />
<rect x="54" y="59" width="5" height="5" fill="hsl(0, 100%, 60%)" />
</svg>