<?xml version="1.0" encoding="utf-8"?>
<svg xmlns="http://www.w3.org/2000/svg" width="86" height="83" viewBox="0 0 86 83">
<rect width="100%" height="100%" fill="transparent" />
<rect x="19" y="4" width="3" height="3" fill="hsl(0, 100%, 60%)" />
<rect x="22" y="4" width="3" height="3" fill="hsl(0, 100%, 60%)" />
<rect x="19" y="7" width="3" height="3" fill="hsl(0, 100%, 60%)" />
<rect x="22" y="7" width="3" height="3" fill="hsl(0, 100%, 60%)" />
<rect x="58" y="13" width="3" height="3" fill="hsl(0, 100%, 60%)" />
<rect x="61" y="13" width="3" height="3" fill="hsl(0, 100%, 60%)" />
<rect x="55" y="16" width="3" height="3" fill="hsl(0, 100%, 60%)" />
<rect x="64" y="16" width="3" height="3" fill="hsl(0, 100%, 60%)" />
<rect x="55" y="19" width="3" height="3" fill="hsl(0, 100%, 60%)" />
<rect x="61" y="19" width="3" height="3" fill="hsl(0, 100%, 60%)" />
<rect x="70" y="19" width="3" height="3" fill="hsl(0, 100%, 60%)" />
<rect x="79" y="19" width="3" height="3" fill="hsl(0, 100%, 60%)" />
<rect x="4" y="22" width="3" height="3" fill="hsl(0, 100%, 60%)" />
<rect x="52" y="22" width="3" height="3" fill="hsl(0, 100%, 60%)" />
<rect x="55" y="22" width="3" height="3" fill="hsl(0, 100%, 60%)" />
<rect x="61" y="22" width="3" height="3" fill="hsl(0, 100%, 60%)" />
<rect x="67" y="22" width="3" height="3" fill="hsl(0, 100%, 60%)" />
<rect x="70" y="22" width="3" height="3" fill="hsl(0, 100%, 60%)" />
<rect x="73" y="22" width="3" height="3" fill="hsl(0, 100%, 60%)" />
<rect x="76" y="22" width="3" height="3" fill="hsl(0, 100%, 60%)" />
<rect x="79" y="22" width="3" height="3" fill="hsl(0, 100%, 60%)" />
<rect x="7" y="25" width="3" height="3" fill="hsl(0, 100%, 60%)" />
<rect x="10" y="25" width="3" height="3" fill="hsl(0, 100%, 60%)" />
<rect x="46" y="25" width="3" height="3" fill="hsl(0, 100%, 60%)" />
<rect x="58" y="25" width="3" height="3" fill="hsl(0, 100%, 60%)" />
<rect x="61" y="25" width="3" height="3" fill="hsl(0, 100%, 60%)" />
<rect x="4" y="28" width="3" height="3" fill="hsl(0, 100%, 60%)" />
<rect x="7" y="28" width="3" height="3" fill="hsl(0, 100%, 60%)" />
<rect x="55" y="28" width="3" height="3" fill="hsl(0, 100%, 60%)" />
<rect x="58" y="28" width="3" height="3" fill="hsl(0, 100%, 60%)" />
<rect x="67" y="28" width="3" height="3" fill="hsl(0, 100%, 60%)" />
<rect x="70" y="28" width="3" height="3" fill="hsl(0, 100%, 60%)" />
<rect x="73" y="28" width="3" height="3" fill="hsl(0, 100%, 60%)" />
<rect x="43" y="31" width="3" height="3" fill="hsl(0, 100%, 60%)" />
<rect x="55" y="31" width="3" height="3" fill="hsl(0, 100%, 60%)" />
<rect x="61" y="31" width="3" height="3" fill="hsl(0, 100%, 60%)" />
<rect x="70" y="31" width="3" height="3" fill="hsl(0, 100%, 60%)" />
<rect x="76" y="31" width="3" height="3" fill="hsl(0, 100%, 60%)" />
<rect x="28" y="34" width="3" height="3" fill="hsl(0, 100%, 60%)" />
<rect x="31" y="34" width="3" height="3" fill="hsl(0, 100%, 60%)" />
<rect x="55" y="34" width="3" height="3" fill="hsl(0, 100%, 60%)" />
<rect x="58" y="34" width="3" height="3" fill="hsl(0, 100%, 60%)" />
<rect x="67" y="34" width="3" height="3" fill="hsl(0, 100%, 60%)" />
<rect x="70" y="34" width="3" height="3" fill="hsl(0, 100%, 60%)" />
<rect x="76" y="34" width="3" height="3" fill="hsl(0, 100%, 60%)" />
<rect x="28" y="37" width="3" height="3" fill="hsl(0, 100%, 60%)" />
<rect x="31" y="37" width="3" height="3" fill="hsl(0, 100%, 60%)" />
<rect x="46" y="37" width="3" height="3" fill="hsl(0, 100%, 60%)" />
<rect x="58" y="37" width="3" height="3" fill="hsl(0, 100%, 60%)" />
<rect x="61" y="37" width="3" height="3" fill="hsl(0, 100%, 60%)" />
<rect x="73" y="37" width="3" height="3" fill="hsl(0, 100%, 60%)" />
<rect x="52" y="40" width="3" height="3" fill="hsl(0, 100%, 60%)" />
<rect x="55" y="40" width="3" height="3" fill="hsl(0, 100%, 60%)" />
<rect x="61" y="40" width="3" height="3" fill="hsl(0, 100%, 60%)" />
<rect x="67" y="40" width="3" height="3" fill="hsl(0, 100%, 60%)" />
<rect x="70" y="40" width="3" height="3" fill="hsl(0, 100%, 60%)" />
<rect x="55" y="43" width="3" height="3" fill="hsl(0, 100%, 60%)" />
<rect x="61" y="43" width="3" height="3" fill="hsl(0, 100%, 60%)" />
<rect x="67" y="43" width="3" height="3" fill="hsl(0, 100%, 60%)" />
<rect x="55" y="46" width="3" height="3" fill="hsl(0, 100%, 60%)" />
<rect x="61" y="46" width="3" height="3" fill="hsl(0, 100%, 60%)" />
<rect x="70" y="46" width="3" height="3" fill="hsl(0, 100%, 60%)" />
<rect x="58" y="49" width="3" height="3" fill="hsl(0, 100%, 60%)" />
<rect x="67" y="49" width="3" height="3" fill="hsl(0, 100%, 60%)" />
<rect x="70" y="49" width="3" height="3" fill="hsl(0, 100%, 60%)" />
<rect x="10" y="52" width="3" height="3" fill="hsl(0, 100%, 60%)" />
<rect x="13" y="52" width="3" height="3" fill="hsl(0, 100%, 60%)" />
<rect x="13" y="55" width="3" height="3" fill="hsl(0, 100%, 60%)" />
<rect x="4" y="58" width="3" height="3" fill="hsl(0, 100%, 60%)" />
<rect x="7" y="58" width="3" height="3" fill="hsl(0, 100%, 60%)" />
<rect x="10" y="58" width="3" height="3" fill="hsl(0, 100%, 60%)" />
<rect x="4" y="61" width="3" height="3" fill="hsl(0, 100%, 60%)" />
<rect x="40" y="67" width="3" height="3" fill="hsl(0, 100%, 60%)" />
<rect x="43" y="67" width="3" height="3" fill="hsl(0, 100%, 60%)" />
<rect x="40" y="70" width="3" height="3" fill="hsl(0, 100%, 60%)" />
<rect x="43" y="73" width="3" height="3" fill="hsl(0, 100%, 60%)" />
<rect x="46" y="73" width="3" height="3" fill="hsl(0, 100%, 60%)" />
<rect x="49" y="73" width="3" height="3" fill="hsl(0, 100%, 60%)" />
<rect x="49" y="76" width="3" height="3" fill="hsl(0, 100%, 60%)" />
</svg>