<?xml version="1.0" encoding="utf-8"?>
<svg xmlns="http://www.w3.org/2000/svg" width="80" height="86" viewBox="0 0 80 86">
<rect width="100%" height="100%" fill="transparent" />
<rect x="16" y="4" width="6" height="6" fill="hsl(0, 100%, 60%)" />
<rect x="22" y="4" width="6" height="6" fill="hsl(0, 100%, 60%)" />
<rect x="28" y="4" width="6" height="6" fill="hsl(0, 100%, 60%)" />
<rect x="40" y="4" width="6" height="6" fill="hsl(0, 100%, 60%)" />
<rect x="10" y="10" width="6" height="6" fill="hsl(0, 100%, 60%)" />
<rect x="16" y="10" width="6" height="6" fill="hsl(0, 100%, 60%)" />
<rect x="22" y="10" width="6" height="6" fill="hsl(0, 100%, 60%)" />
<rect x="28" y="10" width="6" height="6" fill="hsl(0, 100%, 60%)" />
<rect x="40" y="10" width="6" height="6" fill="hsl(0, 100%, 60%)" />
<rect x="4" y="16" width="6" height="6" fill="hsl(0, 100%, 60%)" />
<rect x="10" y="16" width="6" height="6" fill="hsl(0, 100%, 60%)" />
<rect x="10" y="22" width="6" height="6" fill="hsl(0, 100%, 60%)" />
<rect x="22" y="22" width="6" height="6" fill="hsl(0, 100%, 60%)" />
<rect x="16" y="28" width="6" height="6" fill="hsl(0, 100%, 60%)" />
<rect x="22" y="28" width="6" height="6" fill="hsl(0, 100%, 60%)" />
<rect x="28" y="28" width="6" height="6" fill="hsl(0, 100%, 60%)" />
<rect x="34" y="28" width="6" height="6" fill="hsl(0, 100%, 60%)" />
<rect x="46" y="28" width="6" height="6" fill="hsl(0, 100%, 60%)" />
<rect x="22" y="34" width="6" height="6" fill="hsl(0, 100%, 60%)" />
<rect x="28" y="34" width="6" height="6" fill="hsl(0, 100%, 60%)" />
<rect x="34" y="34" width="6" height="6" fill="hsl(0, 100%, 60%)" />
<rect x="40" y="52" width="6" height="6" fill="hsl(0, 100%, 60%)" />
<rect x="46" y="52" width="6" height="6" fill="hsl(0, 100%, 60%)" />
<rect x="52" y="52" width="6" height="6" fill="hsl(0, 100%, 60%)" />
<rect x="58" y="52" width="6" height="6" fill="hsl(0, 100%, 60%)" />
<rect x="64" y="52" width="6" height="6" fill="hsl(0, 100%, 60%)" />
<rect x="40" y="58" width="6" height="6" fill="hsl(0, 100%, 60%)" />
<rect x="70" y="58" width="6" height="6" fill="hsl(0, 100%, 60%)" />
<rect x="40" y="64" width="6" height="6" fill="hsl(0, 100%, 60%)" />
<rect x="46" y="70" width="6" height="6" fill="hsl(0, 100%, 60%)" />
<rect x="70" y="70" width="6" height="6" fill="hsl(0, 100%, 60%)" />
<rect x="58" y="76" width="6" height="6" fill="hsl(0, 100%, 60%)" />
</svg>