<?xml version="1.0" encoding="utf-8"?>
<svg xmlns="http://www.w3.org/2000/svg" width="96" height="44" viewBox="0 0 96 44">
<rect width="100%" height="100%" fill="transparent" />
<rect x="40" y="4" width="4" height="4" fill="hsl(0, 100%, 60%)" />
<rect x="32" y="8" width="4" height="4" fill="hsl(0, 100%, 60%)" />
<rect x="40" y="8" width="4" height="4" fill="hsl(0, 100%, 60%)" />
<rect x="28" y="12" width="4" height="4" fill="hsl(0, 100%, 60%)" />
<rect x="36" y="12" width="4" height="4" fill="hsl(0, 100%, 60%)" />
<rect x="4" y="16" width="4" height="4" fill="hsl(0, 100%, 60%)" />
<rect x="8" y="16" width="4" height="4" fill="hsl(0, 100%, 60%)" />
<rect x="24" y="16" width="4" height="4" fill="hsl(0, 100%, 60%)" />
<rect x="36" y="16" width="4" height="4" fill="hsl(0, 100%, 60%)" />
<rect x="4" y="20" width="4" height="4" fill="hsl(0, 100%, 60%)" />
<rect x="8" y="20" width="4" height="4" fill="hsl(0, 100%, 60%)" />
<rect x="28" y="20" width="4" height="4" fill="hsl(0, 100%, 60%)" />
<rect x="36" y="20" width="4" height="4" fill="hsl(0, 100%, 60%)" />
<rect x="32" y="24" width="4" height="4" fill="hsl(0, 100%, 60%)" />
<rect x="40" y="24" width="4" height="4" fill="hsl(0, 100%, 60%)" />
<rect x="76" y="24" width="4" height="4" fill="hsl(0, 100%, 60%)" />
<rect x="80" y="24" width="4" height="4" fill="hsl(0, 100%, 60%)" />
<rect x="40" y="28" width="4" height="4" fill="hsl(0, 100%, 60%)" />
<rect x="76" y="28" width="4" height="4" fill="hsl(0, 100%, 60%)" />
<rect x="84" y="28" width="4" height="4" fill="hsl(0, 100%, 60%)" />
<rect x="84" y="32" width="4" height="4" fill="hsl(0, 100%, 60%)" />
<rect x="84" y="36" width="4" height="4" fill="hsl(0, 100%, 60%)" />
<rect x="88" y="36" width="4" height="4" fill="hsl(0, 100%, 60%)" />
</svg>