<?xml version="1.0" encoding="utf-8"?>
<svg xmlns="http://www.w3.org/2000/svg" width="77" height="86" viewBox="0 0 77 86">
<rect width="100%" height="100%" fill="transparent" />
<rect x="34" y="4" width="3" height="3" fill="hsl(0, 100%, 60%)" />
<rect x="37" y="4" width="3" height="3" fill="hsl(0, 100%, 60%)" />
<rect x="34" y="7" width="3" height="3" fill="hsl(0, 100%, 60%)" />
<rect x="37" y="7" width="3" height="3" fill="hsl(0, 100%, 60%)" />
<rect x="55" y="7" width="3" height="3" fill="hsl(0, 100%, 60%)" />
<rect x="58" y="7" width="3" height="3" fill="hsl(0, 100%, 60%)" />
<rect x="55" y="10" width="3" height="3" fill="hsl(0, 100%, 60%)" />
<rect x="58" y="10" width="3" height="3" fill="hsl(0, 100%, 60%)" />
<rect x="49" y="19" width="3" height="3" fill="hsl(0, 100%, 60%)" />
<rect x="52" y="19" width="3" height="3" fill="hsl(0, 100%, 60%)" />
<rect x="49" y="22" width="3" height="3" fill="hsl(0, 100%, 60%)" />
<rect x="52" y="22" width="3" height="3" fill="hsl(0, 100%, 60%)" />
<rect x="67" y="25" width="3" height="3" fill="hsl(0, 100%, 60%)" />
<rect x="70" y="25" width="3" height="3" fill="hsl(0, 100%, 60%)" />
<rect x="67" y="28" width="3" height="3" fill="hsl(0, 100%, 60%)" />
<rect x="70" y="28" width="3" height="3" fill="hsl(0, 100%, 60%)" />
<rect x="7" y="40" width="3" height="3" fill="hsl(0, 100%, 60%)" />
<rect x="7" y="43" width="3" height="3" fill="hsl(0, 100%, 60%)" />
<rect x="13" y="43" width="3" height="3" fill="hsl(0, 100%, 60%)" />
<rect x="7" y="46" width="3" height="3" fill="hsl(0, 100%, 60%)" />
<rect x="10" y="46" width="3" height="3" fill="hsl(0, 100%, 60%)" />
<rect x="13" y="46" width="3" height="3" fill="hsl(0, 100%, 60%)" />
<rect x="13" y="49" width="3" height="3" fill="hsl(0, 100%, 60%)" />
<rect x="13" y="61" width="3" height="3" fill="hsl(0, 100%, 60%)" />
<rect x="16" y="61" width="3" height="3" fill="hsl(0, 100%, 60%)" />
<rect x="22" y="61" width="3" height="3" fill="hsl(0, 100%, 60%)" />
<rect x="25" y="61" width="3" height="3" fill="hsl(0, 100%, 60%)" />
<rect x="10" y="64" width="3" height="3" fill="hsl(0, 100%, 60%)" />
<rect x="16" y="64" width="3" height="3" fill="hsl(0, 100%, 60%)" />
<rect x="22" y="64" width="3" height="3" fill="hsl(0, 100%, 60%)" />
<rect x="28" y="64" width="3" height="3" fill="hsl(0, 100%, 60%)" />
<rect x="10" y="67" width="3" height="3" fill="hsl(0, 100%, 60%)" />
<rect x="16" y="67" width="3" height="3" fill="hsl(0, 100%, 60%)" />
<rect x="25" y="67" width="3" height="3" fill="hsl(0, 100%, 60%)" />
<rect x="7" y="70" width="3" height="3" fill="hsl(0, 100%, 60%)" />
<rect x="10" y="70" width="3" height="3" fill="hsl(0, 100%, 60%)" />
<rect x="16" y="70" width="3" height="3" fill="hsl(0, 100%, 60%)" />
<rect x="43" y="70" width="3" height="3" fill="hsl(0, 100%, 60%)" />
<rect x="46" y="70" width="3" height="3" fill="hsl(0, 100%, 60%)" />
<rect x="49" y="70" width="3" height="3" fill="hsl(0, 100%, 60%)" />
<rect x="4" y="73" width="3" height="3" fill="hsl(0, 100%, 60%)" />
<rect x="16" y="73" width="3" height="3" fill="hsl(0, 100%, 60%)" />
<rect x="19" y="73" width="3" height="3" fill="hsl(0, 100%, 60%)" />
<rect x="43" y="73" width="3" height="3" fill="hsl(0, 100%, 60%)" />
<rect x="7" y="76" width="3" height="3" fill="hsl(0, 100%, 60%)" />
<rect x="13" y="76" width="3" height="3" fill="hsl(0, 100%, 60%)" />
<rect x="22" y="76" width="3" height="3" fill="hsl(0, 100%, 60%)" />
<rect x="28" y="76" width="3" height="3" fill="hsl(0, 100%, 60%)" />
<rect x="40" y="76" width="3" height="3" fill="hsl(0, 100%, 60%)" />
<rect x="43" y="76" width="3" height="3" fill="hsl(0, 100%, 60%)" />
<rect x="4" y="79" width="3" height="3" fill="hsl(0, 100%, 60%)" />
<rect x="7" y="79" width="3" height="3" fill="hsl(0, 100%, 60%)" />
<rect x="13" y="79" width="3" height="3" fill="hsl(0, 100%, 60%)" />
<rect x="16" y="79" width="3" height="3" fill="hsl(0, 100%, 60%)" />
<rect x="25" y="79" width="3" height="3" fill="hsl(0, 100%, 60%)" />
<rect x="28" y="79" width="3" height="3" fill="hsl(0, 100%, 60%)" />
</svg>