<?xml version="1.0" encoding="utf-8"?>
<svg xmlns="http://www.w3.org/2000/svg" width="78" height="22" viewBox="0 0 78 22">
<rect width="100%" height="100%" fill="transparent" />
<rect x="58" y="4" width="2" height="2" fill="hsl(0, 100%, 60%)" />
<rect x="68" y="4" width="2" height="2" fill="hsl(0, 100%, 60%)" />
<rect x="36" y="6" width="2" height="2" fill="hsl(0, 100%, 60%)" />
<rect x="38" y="6" width="2" height="2" fill="hsl(0, 100%, 60%)" />
<rect x="54" y="6" width="2" height="2" fill="hsl(0, 100%, 60%)" />
<rect x="56" y="6" width="2" height="2" fill="hsl(0, 100%, 60%)" />
<rect x="60" y="6" width="2" height="2" fill="hsl(0, 100%, 60%)" />
<rect x="62" y="6" width="2" height="2" fill="hsl(0, 100%, 60%)" />
<rect x="64" y="6" width="2" height="2" fill="hsl(0, 100%, 60%)" />
<rect x="66" y="6" width="2" height="2" fill="hsl(0, 100%, 60%)" />
<rect x="70" y="6" width="2" height="2" fill="hsl(0, 100%, 60%)" />
<rect x="72" y="6" width="2" height="2" fill="hsl(0, 100%, 60%)" />
<rect x="38" y="8" width="2" height="2" fill="hsl(0, 100%, 60%)" />
<rect x="40" y="8" width="2" height="2" fill="hsl(0, 100%, 60%)" />
<rect x="58" y="8" width="2" height="2" fill="hsl(0, 100%, 60%)" />
<rect x="68" y="8" width="2" height="2" fill="hsl(0, 100%, 60%)" />
<rect x="36" y="10" width="2" height="2" fill="hsl(0, 100%, 60%)" />
<rect x="8" y="12" width="2" height="2" fill="hsl(0, 100%, 60%)" />
<rect x="18" y="12" width="2" height="2" fill="hsl(0, 100%, 60%)" />
<rect x="4" y="14" width="2" height="2" fill="hsl(0, 100%, 60%)" />
<rect x="6" y="14" width="2" height="2" fill="hsl(0, 100%, 60%)" />
<rect x="10" y="14" width="2" height="2" fill="hsl(0, 100%, 60%)" />
<rect x="12" y="14" width="2" height="2" fill="hsl(0, 100%, 60%)" />
<rect x="14" y="14" width="2" height="2" fill="hsl(0, 100%, 60%)" />
<rect x="16" y="14" width="2" height="2" fill="hsl(0, 100%, 60%)" />
<rect x="20" y="14" width="2" height="2" fill="hsl(0, 100%, 60%)" />
<rect x="22" y="14" width="2" height="2" fill="hsl(0, 100%, 60%)" />
<rect x="8" y="16" width="2" height="2" fill="hsl(0, 100%, 60%)" />
<rect x="18" y="16" width="2" height="2" fill="hsl(0, 100%, 60%)" />
</svg>