<?xml version="1.0" encoding="utf-8"?>
<svg xmlns="http://www.w3.org/2000/svg" width="92" height="56" viewBox="0 0 92 56">
<rect width="100%" height="100%" fill="transparent" />
<rect x="4" y="4" width="6" height="6" fill="hsl(0, 100%, 60%)" />
<rect x="82" y="4" width="6" height="6" fill="hsl(0, 100%, 60%)" />
<rect x="4" y="10" width="6" height="6" fill="hsl(0, 100%, 60%)" />
<rect x="10" y="10" width="6" height="6" fill="hsl(0, 100%, 60%)" />
<rect x="16" y="10" width="6" height="6" fill="hsl(0, 100%, 60%)" />
<rect x="46" y="10" width="6" height="6" fill="hsl(0, 100%, 60%)" />
<rect x="70" y="10" width="6" height="6" fill="hsl(0, 100%, 60%)" />
<rect x="76" y="10" width="6" height="6" fill="hsl(0, 100%, 60%)" />
<rect x="82" y="10" width="6" height="6" fill="hsl(0, 100%, 60%)" />
<rect x="22" y="16" width="6" height="6" fill="hsl(0, 100%, 60%)" />
<rect x="34" y="16" width="6" height="6" fill="hsl(0, 100%, 60%)" />
<rect x="46" y="16" width="6" height="6" fill="hsl(0, 100%, 60%)" />
<rect x="64" y="16" width="6" height="6" fill="hsl(0, 100%, 60%)" />
<rect x="16" y="22" width="6" height="6" fill="hsl(0, 100%, 60%)" />
<rect x="58" y="22" width="6" height="6" fill="hsl(0, 100%, 60%)" />
<rect x="70" y="22" width="6" height="6" fill="hsl(0, 100%, 60%)" />
<rect x="16" y="28" width="6" height="6" fill="hsl(0, 100%, 60%)" />
<rect x="28" y="28" width="6" height="6" fill="hsl(0, 100%, 60%)" />
<rect x="70" y="28" width="6" height="6" fill="hsl(0, 100%, 60%)" />
<rect x="22" y="34" width="6" height="6" fill="hsl(0, 100%, 60%)" />
<rect x="40" y="34" width="6" height="6" fill="hsl(0, 100%, 60%)" />
<rect x="52" y="34" width="6" height="6" fill="hsl(0, 100%, 60%)" />
<rect x="64" y="34" width="6" height="6" fill="hsl(0, 100%, 60%)" />
<rect x="4" y="40" width="6" height="6" fill="hsl(0, 100%, 60%)" />
<rect x="10" y="40" width="6" height="6" fill="hsl(0, 100%, 60%)" />
<rect x="16" y="40" width="6" height="6" fill="hsl(0, 100%, 60%)" />
<rect x="40" y="40" width="6" height="6" fill="hsl(0, 100%, 60%)" />
<rect x="70" y="40" width="6" height="6" fill="hsl(0, 100%, 60%)" />
<rect x="76" y="40" width="6" height="6" fill="hsl(0, 100%, 60%)" />
<rect x="82" y="40" width="6" height="6" fill="hsl(0, 100%, 60%)" />
<rect x="4" y="46" width="6" height="6" fill="hsl(0, 100%, 60%)" />
<rect x="82" y="46" width="6" height="6" fill="hsl(0, 100%, 60%)" />
</svg>