<?xml version="1.0" encoding="utf-8"?>
<svg xmlns="http://www.w3.org/2000/svg" width="80" height="82" viewBox="0 0 80 82">
<rect width="100%" height="100%" fill="transparent" />
<rect x="4" y="4" width="2" height="2" fill="hsl(0, 100%, 60%)" />
<rect x="8" y="4" width="2" height="2" fill="hsl(0, 100%, 60%)" />
<rect x="6" y="6" width="2" height="2" fill="hsl(0, 100%, 60%)" />
<rect x="8" y="6" width="2" height="2" fill="hsl(0, 100%, 60%)" />
<rect x="6" y="8" width="2" height="2" fill="hsl(0, 100%, 60%)" />
<rect x="22" y="22" width="2" height="2" fill="hsl(0, 100%, 60%)" />
<rect x="26" y="22" width="2" height="2" fill="hsl(0, 100%, 60%)" />
<rect x="24" y="24" width="2" height="2" fill="hsl(0, 100%, 60%)" />
<rect x="26" y="24" width="2" height="2" fill="hsl(0, 100%, 60%)" />
<rect x="24" y="26" width="2" height="2" fill="hsl(0, 100%, 60%)" />
<rect x="30" y="28" width="2" height="2" fill="hsl(0, 100%, 60%)" />
<rect x="32" y="30" width="2" height="2" fill="hsl(0, 100%, 60%)" />
<rect x="34" y="30" width="2" height="2" fill="hsl(0, 100%, 60%)" />
<rect x="30" y="32" width="2" height="2" fill="hsl(0, 100%, 60%)" />
<rect x="32" y="32" width="2" height="2" fill="hsl(0, 100%, 60%)" />
<rect x="62" y="34" width="2" height="2" fill="hsl(0, 100%, 60%)" />
<rect x="58" y="36" width="2" height="2" fill="hsl(0, 100%, 60%)" />
<rect x="60" y="36" width="2" height="2" fill="hsl(0, 100%, 60%)" />
<rect x="62" y="36" width="2" height="2" fill="hsl(0, 100%, 60%)" />
<rect x="56" y="38" width="2" height="2" fill="hsl(0, 100%, 60%)" />
<rect x="56" y="40" width="2" height="2" fill="hsl(0, 100%, 60%)" />
<rect x="58" y="40" width="2" height="2" fill="hsl(0, 100%, 60%)" />
<rect x="48" y="46" width="2" height="2" fill="hsl(0, 100%, 60%)" />
<rect x="32" y="48" width="2" height="2" fill="hsl(0, 100%, 60%)" />
<rect x="34" y="48" width="2" height="2" fill="hsl(0, 100%, 60%)" />
<rect x="50" y="48" width="2" height="2" fill="hsl(0, 100%, 60%)" />
<rect x="52" y="48" width="2" height="2" fill="hsl(0, 100%, 60%)" />
<rect x="58" y="48" width="2" height="2" fill="hsl(0, 100%, 60%)" />
<rect x="32" y="50" width="2" height="2" fill="hsl(0, 100%, 60%)" />
<rect x="38" y="50" width="2" height="2" fill="hsl(0, 100%, 60%)" />
<rect x="48" y="50" width="2" height="2" fill="hsl(0, 100%, 60%)" />
<rect x="50" y="50" width="2" height="2" fill="hsl(0, 100%, 60%)" />
<rect x="56" y="50" width="2" height="2" fill="hsl(0, 100%, 60%)" />
<rect x="60" y="50" width="2" height="2" fill="hsl(0, 100%, 60%)" />
<rect x="28" y="52" width="2" height="2" fill="hsl(0, 100%, 60%)" />
<rect x="30" y="52" width="2" height="2" fill="hsl(0, 100%, 60%)" />
<rect x="36" y="52" width="2" height="2" fill="hsl(0, 100%, 60%)" />
<rect x="38" y="52" width="2" height="2" fill="hsl(0, 100%, 60%)" />
<rect x="56" y="52" width="2" height="2" fill="hsl(0, 100%, 60%)" />
<rect x="58" y="52" width="2" height="2" fill="hsl(0, 100%, 60%)" />
<rect x="26" y="54" width="2" height="2" fill="hsl(0, 100%, 60%)" />
<rect x="32" y="54" width="2" height="2" fill="hsl(0, 100%, 60%)" />
<rect x="34" y="54" width="2" height="2" fill="hsl(0, 100%, 60%)" />
<rect x="26" y="56" width="2" height="2" fill="hsl(0, 100%, 60%)" />
<rect x="28" y="56" width="2" height="2" fill="hsl(0, 100%, 60%)" />
<rect x="36" y="56" width="2" height="2" fill="hsl(0, 100%, 60%)" />
<rect x="38" y="56" width="2" height="2" fill="hsl(0, 100%, 60%)" />
<rect x="36" y="58" width="2" height="2" fill="hsl(0, 100%, 60%)" />
<rect x="40" y="58" width="2" height="2" fill="hsl(0, 100%, 60%)" />
<rect x="38" y="60" width="2" height="2" fill="hsl(0, 100%, 60%)" />
<rect x="72" y="62" width="2" height="2" fill="hsl(0, 100%, 60%)" />
<rect x="74" y="62" width="2" height="2" fill="hsl(0, 100%, 60%)" />
<rect x="68" y="64" width="2" height="2" fill="hsl(0, 100%, 60%)" />
<rect x="74" y="64" width="2" height="2" fill="hsl(0, 100%, 60%)" />
<rect x="46" y="66" width="2" height="2" fill="hsl(0, 100%, 60%)" />
<rect x="48" y="66" width="2" height="2" fill="hsl(0, 100%, 60%)" />
<rect x="68" y="66" width="2" height="2" fill="hsl(0, 100%, 60%)" />
<rect x="70" y="66" width="2" height="2" fill="hsl(0, 100%, 60%)" />
<rect x="72" y="66" width="2" height="2" fill="hsl(0, 100%, 60%)" />
<rect x="48" y="68" width="2" height="2" fill="hsl(0, 100%, 60%)" />
<rect x="62" y="68" width="2" height="2" fill="hsl(0, 100%, 60%)" />
<rect x="42" y="70" width="2" height="2" fill="hsl(0, 100%, 60%)" />
<rect x="44" y="70" width="2" height="2" fill="hsl(0, 100%, 60%)" />
<rect x="46" y="70" width="2" height="2" fill="hsl(0, 100%, 60%)" />
<rect x="62" y="70" width="2" height="2" fill="hsl(0, 100%, 60%)" />
<rect x="64" y="70" width="2" height="2" fill="hsl(0, 100%, 60%)" />
<rect x="66" y="70" width="2" height="2" fill="hsl(0, 100%, 60%)" />
<rect x="68" y="70" width="2" height="2" fill="hsl(0, 100%, 60%)" />
<rect x="42" y="72" width="2" height="2" fill="hsl(0, 100%, 60%)" />
<rect x="68" y="72" width="2" height="2" fill="hsl(0, 100%, 60%)" />
<rect x="66" y="74" width="2" height="2" fill="hsl(0, 100%, 60%)" />
<rect x="66" y="76" width="2" height="2" fill="hsl(0, 100%, 60%)" />
<rect x="68" y="76" width="2" height="2" fill="hsl(0, 100%, 60%)" />
</svg>