<?xml version="1.0" encoding="utf-8"?>
<svg xmlns="http://www.w3.org/2000/svg" width="96" height="64" viewBox="0 0 96 64">
<rect width="100%" height="100%" fill="transparent" />
<rect x="4" y="4" width="8" height="8" fill="hsl(0, 100%, 60%)" />
<rect x="12" y="4" width="8" height="8" fill="hsl(0, 100%, 60%)" />
<rect x="4" y="12" width="8" height="8" fill="hsl(0, 100%, 60%)" />
<rect x="12" y="20" width="8" height="8" fill="hsl(0, 100%, 60%)" />
<rect x="36" y="20" width="8" height="8" fill="hsl(0, 100%, 60%)" />
<rect x="28" y="28" width="8" height="8" fill="hsl(0, 100%, 60%)" />
<rect x="36" y="28" width="8" height="8" fill="hsl(0, 100%, 60%)" />
<rect x="28" y="36" width="8" height="8" fill="hsl(0, 100%, 60%)" />
<rect x="60" y="36" width="8" height="8" fill="hsl(0, 100%, 60%)" />
<rect x="76" y="36" width="8" height="8" fill="hsl(0, 100%, 60%)" />
<rect x="84" y="36" width="8" height="8" fill="hsl(0, 100%, 60%)" />
<rect x="20" y="44" width="8" height="8" fill="hsl(0, 100%, 60%)" />
<rect x="60" y="44" width="8" height="8" fill="hsl(0, 100%, 60%)" />
<rect x="68" y="44" width="8" height="8" fill="hsl(0, 100%, 60%)" />
<rect x="84" y="44" width="8" height="8" fill="hsl(0, 100%, 60%)" />
<rect x="20" y="52" width="8" height="8" fill="hsl(0, 100%, 60%)" />
<rect x="28" y="52" width="8" height="8" fill="hsl(0, 100%, 60%)" />
</svg>