<?xml version="1.0" encoding="utf-8"?>
<svg xmlns="http://www.w3.org/2000/svg" width="39" height="87" viewBox="0 0 39 87">
<rect width="100%" height="100%" fill="transparent" />
<rect x="8" y="4" width="1" height="1" fill="hsl(0, 100%, 60%)" />
<rect x="9" y="4" width="1" height="1" fill="hsl(0, 100%, 60%)" />
<rect x="8" y="5" width="1" height="1" fill="hsl(0, 100%, 60%)" />
<rect x="11" y="5" width="1" height="1" fill="hsl(0, 100%, 60%)" />
<rect x="8" y="6" width="1" height="1" fill="hsl(0, 100%, 60%)" />
<rect x="12" y="6" width="1" height="1" fill="hsl(0, 100%, 60%)" />
<rect x="10" y="7" width="1" height="1" fill="hsl(0, 100%, 60%)" />
<rect x="11" y="7" width="1" height="1" fill="hsl(0, 100%, 60%)" />
<rect x="12" y="7" width="1" height="1" fill="hsl(0, 100%, 60%)" />
<rect x="6" y="8" width="1" height="1" fill="hsl(0, 100%, 60%)" />
<rect x="7" y="8" width="1" height="1" fill="hsl(0, 100%, 60%)" />
<rect x="14" y="8" width="1" height="1" fill="hsl(0, 100%, 60%)" />
<rect x="15" y="8" width="1" height="1" fill="hsl(0, 100%, 60%)" />
<rect x="16" y="8" width="1" height="1" fill="hsl(0, 100%, 60%)" />
<rect x="17" y="8" width="1" height="1" fill="hsl(0, 100%, 60%)" />
<rect x="6" y="9" width="1" height="1" fill="hsl(0, 100%, 60%)" />
<rect x="8" y="9" width="1" height="1" fill="hsl(0, 100%, 60%)" />
<rect x="9" y="9" width="1" height="1" fill="hsl(0, 100%, 60%)" />
<rect x="14" y="9" width="1" height="1" fill="hsl(0, 100%, 60%)" />
<rect x="15" y="9" width="1" height="1" fill="hsl(0, 100%, 60%)" />
<rect x="16" y="9" width="1" height="1" fill="hsl(0, 100%, 60%)" />
<rect x="17" y="9" width="1" height="1" fill="hsl(0, 100%, 60%)" />
<rect x="5" y="10" width="1" height="1" fill="hsl(0, 100%, 60%)" />
<rect x="10" y="10" width="1" height="1" fill="hsl(0, 100%, 60%)" />
<rect x="17" y="10" width="1" height="1" fill="hsl(0, 100%, 60%)" />
<rect x="18" y="10" width="1" height="1" fill="hsl(0, 100%, 60%)" />
<rect x="19" y="10" width="1" height="1" fill="hsl(0, 100%, 60%)" />
<rect x="6" y="11" width="1" height="1" fill="hsl(0, 100%, 60%)" />
<rect x="7" y="11" width="1" height="1" fill="hsl(0, 100%, 60%)" />
<rect x="8" y="11" width="1" height="1" fill="hsl(0, 100%, 60%)" />
<rect x="9" y="11" width="1" height="1" fill="hsl(0, 100%, 60%)" />
<rect x="14" y="11" width="1" height="1" fill="hsl(0, 100%, 60%)" />
<rect x="15" y="11" width="1" height="1" fill="hsl(0, 100%, 60%)" />
<rect x="19" y="11" width="1" height="1" fill="hsl(0, 100%, 60%)" />
<rect x="4" y="12" width="1" height="1" fill="hsl(0, 100%, 60%)" />
<rect x="14" y="12" width="1" height="1" fill="hsl(0, 100%, 60%)" />
<rect x="15" y="12" width="1" height="1" fill="hsl(0, 100%, 60%)" />
<rect x="5" y="13" width="1" height="1" fill="hsl(0, 100%, 60%)" />
<rect x="9" y="13" width="1" height="1" fill="hsl(0, 100%, 60%)" />
<rect x="10" y="14" width="1" height="1" fill="hsl(0, 100%, 60%)" />
<rect x="11" y="14" width="1" height="1" fill="hsl(0, 100%, 60%)" />
<rect x="12" y="14" width="1" height="1" fill="hsl(0, 100%, 60%)" />
<rect x="15" y="14" width="1" height="1" fill="hsl(0, 100%, 60%)" />
<rect x="16" y="14" width="1" height="1" fill="hsl(0, 100%, 60%)" />
<rect x="19" y="14" width="1" height="1" fill="hsl(0, 100%, 60%)" />
<rect x="6" y="15" width="1" height="1" fill="hsl(0, 100%, 60%)" />
<rect x="7" y="15" width="1" height="1" fill="hsl(0, 100%, 60%)" />
<rect x="15" y="15" width="1" height="1" fill="hsl(0, 100%, 60%)" />
<rect x="20" y="15" width="1" height="1" fill="hsl(0, 100%, 60%)" />
<rect x="17" y="16" width="1" height="1" fill="hsl(0, 100%, 60%)" />
<rect x="19" y="16" width="1" height="1" fill="hsl(0, 100%, 60%)" />
<rect x="20" y="16" width="1" height="1" fill="hsl(0, 100%, 60%)" />
<rect x="14" y="17" width="1" height="1" fill="hsl(0, 100%, 60%)" />
<rect x="15" y="17" width="1" height="1" fill="hsl(0, 100%, 60%)" />
<rect x="22" y="17" width="1" height="1" fill="hsl(0, 100%, 60%)" />
<rect x="15" y="18" width="1" height="1" fill="hsl(0, 100%, 60%)" />
<rect x="16" y="18" width="1" height="1" fill="hsl(0, 100%, 60%)" />
<rect x="18" y="18" width="1" height="1" fill="hsl(0, 100%, 60%)" />
<rect x="19" y="18" width="1" height="1" fill="hsl(0, 100%, 60%)" />
<rect x="20" y="18" width="1" height="1" fill="hsl(0, 100%, 60%)" />
<rect x="22" y="18" width="1" height="1" fill="hsl(0, 100%, 60%)" />
<rect x="14" y="19" width="1" height="1" fill="hsl(0, 100%, 60%)" />
<rect x="15" y="19" width="1" height="1" fill="hsl(0, 100%, 60%)" />
<rect x="19" y="19" width="1" height="1" fill="hsl(0, 100%, 60%)" />
<rect x="22" y="19" width="1" height="1" fill="hsl(0, 100%, 60%)" />
<rect x="14" y="20" width="1" height="1" fill="hsl(0, 100%, 60%)" />
<rect x="16" y="20" width="1" height="1" fill="hsl(0, 100%, 60%)" />
<rect x="19" y="20" width="1" height="1" fill="hsl(0, 100%, 60%)" />
<rect x="20" y="20" width="1" height="1" fill="hsl(0, 100%, 60%)" />
<rect x="14" y="21" width="1" height="1" fill="hsl(0, 100%, 60%)" />
<rect x="17" y="21" width="1" height="1" fill="hsl(0, 100%, 60%)" />
<rect x="19" y="21" width="1" height="1" fill="hsl(0, 100%, 60%)" />
<rect x="21" y="21" width="1" height="1" fill="hsl(0, 100%, 60%)" />
<rect x="14" y="22" width="1" height="1" fill="hsl(0, 100%, 60%)" />
<rect x="15" y="22" width="1" height="1" fill="hsl(0, 100%, 60%)" />
<rect x="16" y="22" width="1" height="1" fill="hsl(0, 100%, 60%)" />
<rect x="23" y="22" width="1" height="1" fill="hsl(0, 100%, 60%)" />
<rect x="15" y="23" width="1" height="1" fill="hsl(0, 100%, 60%)" />
<rect x="17" y="23" width="1" height="1" fill="hsl(0, 100%, 60%)" />
<rect x="19" y="23" width="1" height="1" fill="hsl(0, 100%, 60%)" />
<rect x="23" y="23" width="1" height="1" fill="hsl(0, 100%, 60%)" />
<rect x="18" y="24" width="1" height="1" fill="hsl(0, 100%, 60%)" />
<rect x="19" y="24" width="1" height="1" fill="hsl(0, 100%, 60%)" />
<rect x="21" y="24" width="1" height="1" fill="hsl(0, 100%, 60%)" />
<rect x="23" y="24" width="1" height="1" fill="hsl(0, 100%, 60%)" />
<rect x="15" y="25" width="1" height="1" fill="hsl(0, 100%, 60%)" />
<rect x="22" y="25" width="1" height="1" fill="hsl(0, 100%, 60%)" />
<rect x="23" y="25" width="1" height="1" fill="hsl(0, 100%, 60%)" />
<rect x="24" y="25" width="1" height="1" fill="hsl(0, 100%, 60%)" />
<rect x="15" y="27" width="1" height="1" fill="hsl(0, 100%, 60%)" />
<rect x="25" y="27" width="1" height="1" fill="hsl(0, 100%, 60%)" />
<rect x="15" y="28" width="1" height="1" fill="hsl(0, 100%, 60%)" />
<rect x="19" y="28" width="1" height="1" fill="hsl(0, 100%, 60%)" />
<rect x="26" y="28" width="1" height="1" fill="hsl(0, 100%, 60%)" />
<rect x="16" y="29" width="1" height="1" fill="hsl(0, 100%, 60%)" />
<rect x="22" y="29" width="1" height="1" fill="hsl(0, 100%, 60%)" />
<rect x="23" y="29" width="1" height="1" fill="hsl(0, 100%, 60%)" />
<rect x="24" y="29" width="1" height="1" fill="hsl(0, 100%, 60%)" />
<rect x="25" y="29" width="1" height="1" fill="hsl(0, 100%, 60%)" />
<rect x="26" y="29" width="1" height="1" fill="hsl(0, 100%, 60%)" />
<rect x="16" y="30" width="1" height="1" fill="hsl(0, 100%, 60%)" />
<rect x="17" y="30" width="1" height="1" fill="hsl(0, 100%, 60%)" />
<rect x="18" y="30" width="1" height="1" fill="hsl(0, 100%, 60%)" />
<rect x="20" y="31" width="1" height="1" fill="hsl(0, 100%, 60%)" />
<rect x="21" y="31" width="1" height="1" fill="hsl(0, 100%, 60%)" />
<rect x="17" y="32" width="1" height="1" fill="hsl(0, 100%, 60%)" />
<rect x="18" y="32" width="1" height="1" fill="hsl(0, 100%, 60%)" />
<rect x="19" y="32" width="1" height="1" fill="hsl(0, 100%, 60%)" />
<rect x="22" y="32" width="1" height="1" fill="hsl(0, 100%, 60%)" />
<rect x="15" y="33" width="1" height="1" fill="hsl(0, 100%, 60%)" />
<rect x="17" y="33" width="1" height="1" fill="hsl(0, 100%, 60%)" />
<rect x="18" y="33" width="1" height="1" fill="hsl(0, 100%, 60%)" />
<rect x="19" y="33" width="1" height="1" fill="hsl(0, 100%, 60%)" />
<rect x="21" y="33" width="1" height="1" fill="hsl(0, 100%, 60%)" />
<rect x="14" y="34" width="1" height="1" fill="hsl(0, 100%, 60%)" />
<rect x="18" y="34" width="1" height="1" fill="hsl(0, 100%, 60%)" />
<rect x="21" y="34" width="1" height="1" fill="hsl(0, 100%, 60%)" />
<rect x="15" y="35" width="1" height="1" fill="hsl(0, 100%, 60%)" />
<rect x="20" y="35" width="1" height="1" fill="hsl(0, 100%, 60%)" />
<rect x="21" y="35" width="1" height="1" fill="hsl(0, 100%, 60%)" />
<rect x="23" y="35" width="1" height="1" fill="hsl(0, 100%, 60%)" />
<rect x="24" y="35" width="1" height="1" fill="hsl(0, 100%, 60%)" />
<rect x="25" y="35" width="1" height="1" fill="hsl(0, 100%, 60%)" />
<rect x="17" y="36" width="1" height="1" fill="hsl(0, 100%, 60%)" />
<rect x="18" y="36" width="1" height="1" fill="hsl(0, 100%, 60%)" />
<rect x="19" y="36" width="1" height="1" fill="hsl(0, 100%, 60%)" />
<rect x="20" y="36" width="1" height="1" fill="hsl(0, 100%, 60%)" />
<rect x="22" y="36" width="1" height="1" fill="hsl(0, 100%, 60%)" />
<rect x="27" y="36" width="1" height="1" fill="hsl(0, 100%, 60%)" />
<rect x="28" y="36" width="1" height="1" fill="hsl(0, 100%, 60%)" />
<rect x="17" y="37" width="1" height="1" fill="hsl(0, 100%, 60%)" />
<rect x="19" y="37" width="1" height="1" fill="hsl(0, 100%, 60%)" />
<rect x="20" y="37" width="1" height="1" fill="hsl(0, 100%, 60%)" />
<rect x="21" y="37" width="1" height="1" fill="hsl(0, 100%, 60%)" />
<rect x="22" y="37" width="1" height="1" fill="hsl(0, 100%, 60%)" />
<rect x="27" y="37" width="1" height="1" fill="hsl(0, 100%, 60%)" />
<rect x="28" y="37" width="1" height="1" fill="hsl(0, 100%, 60%)" />
<rect x="23" y="38" width="1" height="1" fill="hsl(0, 100%, 60%)" />
<rect x="24" y="39" width="1" height="1" fill="hsl(0, 100%, 60%)" />
<rect x="27" y="39" width="1" height="1" fill="hsl(0, 100%, 60%)" />
<rect x="28" y="39" width="1" height="1" fill="hsl(0, 100%, 60%)" />
<rect x="24" y="40" width="1" height="1" fill="hsl(0, 100%, 60%)" />
<rect x="25" y="40" width="1" height="1" fill="hsl(0, 100%, 60%)" />
<rect x="25" y="41" width="1" height="1" fill="hsl(0, 100%, 60%)" />
<rect x="26" y="41" width="1" height="1" fill="hsl(0, 100%, 60%)" />
<rect x="27" y="41" width="1" height="1" fill="hsl(0, 100%, 60%)" />
<rect x="28" y="41" width="1" height="1" fill="hsl(0, 100%, 60%)" />
<rect x="29" y="41" width="1" height="1" fill="hsl(0, 100%, 60%)" />
<rect x="29" y="42" width="1" height="1" fill="hsl(0, 100%, 60%)" />
<rect x="30" y="42" width="1" height="1" fill="hsl(0, 100%, 60%)" />
<rect x="23" y="43" width="1" height="1" fill="hsl(0, 100%, 60%)" />
<rect x="24" y="43" width="1" height="1" fill="hsl(0, 100%, 60%)" />
<rect x="25" y="43" width="1" height="1" fill="hsl(0, 100%, 60%)" />
<rect x="32" y="43" width="1" height="1" fill="hsl(0, 100%, 60%)" />
<rect x="24" y="44" width="1" height="1" fill="hsl(0, 100%, 60%)" />
<rect x="26" y="44" width="1" height="1" fill="hsl(0, 100%, 60%)" />
<rect x="30" y="44" width="1" height="1" fill="hsl(0, 100%, 60%)" />
<rect x="32" y="44" width="1" height="1" fill="hsl(0, 100%, 60%)" />
<rect x="23" y="45" width="1" height="1" fill="hsl(0, 100%, 60%)" />
<rect x="27" y="45" width="1" height="1" fill="hsl(0, 100%, 60%)" />
<rect x="31" y="45" width="1" height="1" fill="hsl(0, 100%, 60%)" />
<rect x="23" y="46" width="1" height="1" fill="hsl(0, 100%, 60%)" />
<rect x="27" y="46" width="1" height="1" fill="hsl(0, 100%, 60%)" />
<rect x="28" y="46" width="1" height="1" fill="hsl(0, 100%, 60%)" />
<rect x="22" y="47" width="1" height="1" fill="hsl(0, 100%, 60%)" />
<rect x="29" y="47" width="1" height="1" fill="hsl(0, 100%, 60%)" />
<rect x="31" y="47" width="1" height="1" fill="hsl(0, 100%, 60%)" />
<rect x="32" y="47" width="1" height="1" fill="hsl(0, 100%, 60%)" />
<rect x="33" y="47" width="1" height="1" fill="hsl(0, 100%, 60%)" />
<rect x="23" y="48" width="1" height="1" fill="hsl(0, 100%, 60%)" />
<rect x="24" y="48" width="1" height="1" fill="hsl(0, 100%, 60%)" />
<rect x="28" y="48" width="1" height="1" fill="hsl(0, 100%, 60%)" />
<rect x="32" y="48" width="1" height="1" fill="hsl(0, 100%, 60%)" />
<rect x="33" y="48" width="1" height="1" fill="hsl(0, 100%, 60%)" />
<rect x="24" y="49" width="1" height="1" fill="hsl(0, 100%, 60%)" />
<rect x="25" y="49" width="1" height="1" fill="hsl(0, 100%, 60%)" />
<rect x="26" y="49" width="1" height="1" fill="hsl(0, 100%, 60%)" />
<rect x="27" y="49" width="1" height="1" fill="hsl(0, 100%, 60%)" />
<rect x="30" y="49" width="1" height="1" fill="hsl(0, 100%, 60%)" />
<rect x="33" y="49" width="1" height="1" fill="hsl(0, 100%, 60%)" />
<rect x="26" y="50" width="1" height="1" fill="hsl(0, 100%, 60%)" />
<rect x="27" y="50" width="1" height="1" fill="hsl(0, 100%, 60%)" />
<rect x="31" y="50" width="1" height="1" fill="hsl(0, 100%, 60%)" />
<rect x="25" y="51" width="1" height="1" fill="hsl(0, 100%, 60%)" />
<rect x="25" y="52" width="1" height="1" fill="hsl(0, 100%, 60%)" />
<rect x="26" y="52" width="1" height="1" fill="hsl(0, 100%, 60%)" />
<rect x="28" y="52" width="1" height="1" fill="hsl(0, 100%, 60%)" />
<rect x="24" y="53" width="1" height="1" fill="hsl(0, 100%, 60%)" />
<rect x="23" y="54" width="1" height="1" fill="hsl(0, 100%, 60%)" />
<rect x="24" y="54" width="1" height="1" fill="hsl(0, 100%, 60%)" />
<rect x="25" y="54" width="1" height="1" fill="hsl(0, 100%, 60%)" />
<rect x="26" y="54" width="1" height="1" fill="hsl(0, 100%, 60%)" />
<rect x="27" y="54" width="1" height="1" fill="hsl(0, 100%, 60%)" />
<rect x="23" y="55" width="1" height="1" fill="hsl(0, 100%, 60%)" />
<rect x="28" y="55" width="1" height="1" fill="hsl(0, 100%, 60%)" />
<rect x="22" y="56" width="1" height="1" fill="hsl(0, 100%, 60%)" />
<rect x="23" y="56" width="1" height="1" fill="hsl(0, 100%, 60%)" />
<rect x="24" y="56" width="1" height="1" fill="hsl(0, 100%, 60%)" />
<rect x="26" y="56" width="1" height="1" fill="hsl(0, 100%, 60%)" />
<rect x="27" y="56" width="1" height="1" fill="hsl(0, 100%, 60%)" />
<rect x="28" y="56" width="1" height="1" fill="hsl(0, 100%, 60%)" />
<rect x="22" y="57" width="1" height="1" fill="hsl(0, 100%, 60%)" />
<rect x="24" y="57" width="1" height="1" fill="hsl(0, 100%, 60%)" />
<rect x="25" y="57" width="1" height="1" fill="hsl(0, 100%, 60%)" />
<rect x="26" y="57" width="1" height="1" fill="hsl(0, 100%, 60%)" />
<rect x="27" y="57" width="1" height="1" fill="hsl(0, 100%, 60%)" />
<rect x="28" y="57" width="1" height="1" fill="hsl(0, 100%, 60%)" />
<rect x="22" y="58" width="1" height="1" fill="hsl(0, 100%, 60%)" />
<rect x="24" y="59" width="1" height="1" fill="hsl(0, 100%, 60%)" />
<rect x="20" y="60" width="1" height="1" fill="hsl(0, 100%, 60%)" />
<rect x="25" y="60" width="1" height="1" fill="hsl(0, 100%, 60%)" />
<rect x="26" y="60" width="1" height="1" fill="hsl(0, 100%, 60%)" />
<rect x="27" y="60" width="1" height="1" fill="hsl(0, 100%, 60%)" />
<rect x="28" y="60" width="1" height="1" fill="hsl(0, 100%, 60%)" />
<rect x="24" y="61" width="1" height="1" fill="hsl(0, 100%, 60%)" />
<rect x="25" y="61" width="1" height="1" fill="hsl(0, 100%, 60%)" />
<rect x="26" y="61" width="1" height="1" fill="hsl(0, 100%, 60%)" />
<rect x="27" y="61" width="1" height="1" fill="hsl(0, 100%, 60%)" />
<rect x="29" y="61" width="1" height="1" fill="hsl(0, 100%, 60%)" />
<rect x="30" y="61" width="1" height="1" fill="hsl(0, 100%, 60%)" />
<rect x="21" y="62" width="1" height="1" fill="hsl(0, 100%, 60%)" />
<rect x="22" y="62" width="1" height="1" fill="hsl(0, 100%, 60%)" />
<rect x="23" y="62" width="1" height="1" fill="hsl(0, 100%, 60%)" />
<rect x="28" y="62" width="1" height="1" fill="hsl(0, 100%, 60%)" />
<rect x="28" y="63" width="1" height="1" fill="hsl(0, 100%, 60%)" />
<rect x="30" y="63" width="1" height="1" fill="hsl(0, 100%, 60%)" />
<rect x="32" y="64" width="1" height="1" fill="hsl(0, 100%, 60%)" />
<rect x="28" y="65" width="1" height="1" fill="hsl(0, 100%, 60%)" />
<rect x="31" y="65" width="1" height="1" fill="hsl(0, 100%, 60%)" />
<rect x="32" y="65" width="1" height="1" fill="hsl(0, 100%, 60%)" />
<rect x="29" y="66" width="1" height="1" fill="hsl(0, 100%, 60%)" />
<rect x="30" y="66" width="1" height="1" fill="hsl(0, 100%, 60%)" />
<rect x="31" y="66" width="1" height="1" fill="hsl(0, 100%, 60%)" />
<rect x="26" y="67" width="1" height="1" fill="hsl(0, 100%, 60%)" />
<rect x="27" y="67" width="1" height="1" fill="hsl(0, 100%, 60%)" />
<rect x="25" y="68" width="1" height="1" fill="hsl(0, 100%, 60%)" />
<rect x="26" y="68" width="1" height="1" fill="hsl(0, 100%, 60%)" />
<rect x="27" y="68" width="1" height="1" fill="hsl(0, 100%, 60%)" />
<rect x="33" y="68" width="1" height="1" fill="hsl(0, 100%, 60%)" />
<rect x="28" y="69" width="1" height="1" fill="hsl(0, 100%, 60%)" />
<rect x="29" y="69" width="1" height="1" fill="hsl(0, 100%, 60%)" />
<rect x="32" y="69" width="1" height="1" fill="hsl(0, 100%, 60%)" />
<rect x="34" y="69" width="1" height="1" fill="hsl(0, 100%, 60%)" />
<rect x="25" y="70" width="1" height="1" fill="hsl(0, 100%, 60%)" />
<rect x="28" y="70" width="1" height="1" fill="hsl(0, 100%, 60%)" />
<rect x="29" y="70" width="1" height="1" fill="hsl(0, 100%, 60%)" />
<rect x="30" y="70" width="1" height="1" fill="hsl(0, 100%, 60%)" />
<rect x="32" y="70" width="1" height="1" fill="hsl(0, 100%, 60%)" />
<rect x="34" y="70" width="1" height="1" fill="hsl(0, 100%, 60%)" />
<rect x="26" y="71" width="1" height="1" fill="hsl(0, 100%, 60%)" />
<rect x="27" y="71" width="1" height="1" fill="hsl(0, 100%, 60%)" />
<rect x="29" y="71" width="1" height="1" fill="hsl(0, 100%, 60%)" />
<rect x="32" y="71" width="1" height="1" fill="hsl(0, 100%, 60%)" />
<rect x="28" y="72" width="1" height="1" fill="hsl(0, 100%, 60%)" />
<rect x="30" y="72" width="1" height="1" fill="hsl(0, 100%, 60%)" />
<rect x="33" y="72" width="1" height="1" fill="hsl(0, 100%, 60%)" />
<rect x="34" y="72" width="1" height="1" fill="hsl(0, 100%, 60%)" />
<rect x="30" y="73" width="1" height="1" fill="hsl(0, 100%, 60%)" />
<rect x="31" y="73" width="1" height="1" fill="hsl(0, 100%, 60%)" />
<rect x="26" y="74" width="1" height="1" fill="hsl(0, 100%, 60%)" />
<rect x="27" y="74" width="1" height="1" fill="hsl(0, 100%, 60%)" />
<rect x="28" y="74" width="1" height="1" fill="hsl(0, 100%, 60%)" />
<rect x="33" y="74" width="1" height="1" fill="hsl(0, 100%, 60%)" />
<rect x="26" y="75" width="1" height="1" fill="hsl(0, 100%, 60%)" />
<rect x="27" y="75" width="1" height="1" fill="hsl(0, 100%, 60%)" />
<rect x="28" y="75" width="1" height="1" fill="hsl(0, 100%, 60%)" />
<rect x="33" y="75" width="1" height="1" fill="hsl(0, 100%, 60%)" />
<rect x="27" y="76" width="1" height="1" fill="hsl(0, 100%, 60%)" />
<rect x="28" y="76" width="1" height="1" fill="hsl(0, 100%, 60%)" />
<rect x="32" y="76" width="1" height="1" fill="hsl(0, 100%, 60%)" />
<rect x="33" y="76" width="1" height="1" fill="hsl(0, 100%, 60%)" />
<rect x="34" y="76" width="1" height="1" fill="hsl(0, 100%, 60%)" />
<rect x="28" y="77" width="1" height="1" fill="hsl(0, 100%, 60%)" />
<rect x="29" y="77" width="1" height="1" fill="hsl(0, 100%, 60%)" />
<rect x="31" y="77" width="1" height="1" fill="hsl(0, 100%, 60%)" />
<rect x="32" y="77" width="1" height="1" fill="hsl(0, 100%, 60%)" />
<rect x="29" y="78" width="1" height="1" fill="hsl(0, 100%, 60%)" />
<rect x="30" y="78" width="1" height="1" fill="hsl(0, 100%, 60%)" />
<rect x="29" y="79" width="1" height="1" fill="hsl(0, 100%, 60%)" />
<rect x="28" y="81" width="1" height="1" fill="hsl(0, 100%, 60%)" />
<rect x="29" y="81" width="1" height="1" fill="hsl(0, 100%, 60%)" />
<rect x="30" y="82" width="1" height="1" fill="hsl(0, 100%, 60%)" />
</svg>