<?xml version="1.0" encoding="utf-8"?>
<svg xmlns="http://www.w3.org/2000/svg" width="62" height="48" viewBox="0 0 62 48">
<rect width="100%" height="100%" fill="transparent" />
<rect x="4" y="4" width="1" height="1" fill="hsl(0, 100%, 60%)" />
<rect x="5" y="4" width="1" height="1" fill="hsl(0, 100%, 60%)" />
<rect x="8" y="4" width="1" height="1" fill="hsl(0, 100%, 60%)" />
<rect x="9" y="4" width="1" height="1" fill="hsl(0, 100%, 60%)" />
<rect x="10" y="4" width="1" height="1" fill="hsl(0, 100%, 60%)" />
<rect x="4" y="5" width="1" height="1" fill="hsl(0, 100%, 60%)" />
<rect x="5" y="5" width="1" height="1" fill="hsl(0, 100%, 60%)" />
<rect x="8" y="5" width="1" height="1" fill="hsl(0, 100%, 60%)" />
<rect x="9" y="6" width="1" height="1" fill="hsl(0, 100%, 60%)" />
<rect x="20" y="14" width="1" height="1" fill="hsl(0, 100%, 60%)" />
<rect x="21" y="14" width="1" height="1" fill="hsl(0, 100%, 60%)" />
<rect x="22" y="14" width="1" height="1" fill="hsl(0, 100%, 60%)" />
<rect x="20" y="15" width="1" height="1" fill="hsl(0, 100%, 60%)" />
<rect x="21" y="16" width="1" height="1" fill="hsl(0, 100%, 60%)" />
<rect x="27" y="21" width="1" height="1" fill="hsl(0, 100%, 60%)" />
<rect x="28" y="21" width="1" height="1" fill="hsl(0, 100%, 60%)" />
<rect x="29" y="21" width="1" height="1" fill="hsl(0, 100%, 60%)" />
<rect x="27" y="22" width="1" height="1" fill="hsl(0, 100%, 60%)" />
<rect x="28" y="23" width="1" height="1" fill="hsl(0, 100%, 60%)" />
<rect x="34" y="31" width="1" height="1" fill="hsl(0, 100%, 60%)" />
<rect x="28" y="32" width="1" height="1" fill="hsl(0, 100%, 60%)" />
<rect x="33" y="32" width="1" height="1" fill="hsl(0, 100%, 60%)" />
<rect x="34" y="32" width="1" height="1" fill="hsl(0, 100%, 60%)" />
<rect x="27" y="33" width="1" height="1" fill="hsl(0, 100%, 60%)" />
<rect x="28" y="33" width="1" height="1" fill="hsl(0, 100%, 60%)" />
<rect x="33" y="33" width="1" height="1" fill="hsl(0, 100%, 60%)" />
<rect x="35" y="33" width="1" height="1" fill="hsl(0, 100%, 60%)" />
<rect x="27" y="34" width="1" height="1" fill="hsl(0, 100%, 60%)" />
<rect x="29" y="34" width="1" height="1" fill="hsl(0, 100%, 60%)" />
<rect x="30" y="37" width="1" height="1" fill="hsl(0, 100%, 60%)" />
<rect x="29" y="38" width="1" height="1" fill="hsl(0, 100%, 60%)" />
<rect x="30" y="38" width="1" height="1" fill="hsl(0, 100%, 60%)" />
<rect x="29" y="39" width="1" height="1" fill="hsl(0, 100%, 60%)" />
<rect x="31" y="39" width="1" height="1" fill="hsl(0, 100%, 60%)" />
<rect x="33" y="41" width="1" height="1" fill="hsl(0, 100%, 60%)" />
<rect x="34" y="41" width="1" height="1" fill="hsl(0, 100%, 60%)" />
<rect x="35" y="41" width="1" height="1" fill="hsl(0, 100%, 60%)" />
<rect x="56" y="41" width="1" height="1" fill="hsl(0, 100%, 60%)" />
<rect x="57" y="41" width="1" height="1" fill="hsl(0, 100%, 60%)" />
<rect x="33" y="42" width="1" height="1" fill="hsl(0, 100%, 60%)" />
<rect x="55" y="42" width="1" height="1" fill="hsl(0, 100%, 60%)" />
<rect x="56" y="42" width="1" height="1" fill="hsl(0, 100%, 60%)" />
<rect x="34" y="43" width="1" height="1" fill="hsl(0, 100%, 60%)" />
<rect x="57" y="43" width="1" height="1" fill="hsl(0, 100%, 60%)" />
</svg>