<?xml version="1.0" encoding="utf-8"?>
<svg xmlns="http://www.w3.org/2000/svg" width="76" height="52" viewBox="0 0 76 52">
<rect width="100%" height="100%" fill="transparent" />
<rect x="4" y="4" width="2" height="2" fill="hsl(0, 100%, 60%)" />
<rect x="6" y="4" width="2" height="2" fill="hsl(0, 100%, 60%)" />
<rect x="40" y="4" width="2" height="2" fill="hsl(0, 100%, 60%)" />
<rect x="42" y="4" width="2" height="2" fill="hsl(0, 100%, 60%)" />
<rect x="6" y="6" width="2" height="2" fill="hsl(0, 100%, 60%)" />
<rect x="40" y="6" width="2" height="2" fill="hsl(0, 100%, 60%)" />
<rect x="6" y="8" width="2" height="2" fill="hsl(0, 100%, 60%)" />
<rect x="10" y="8" width="2" height="2" fill="hsl(0, 100%, 60%)" />
<rect x="36" y="8" width="2" height="2" fill="hsl(0, 100%, 60%)" />
<rect x="40" y="8" width="2" height="2" fill="hsl(0, 100%, 60%)" />
<rect x="8" y="10" width="2" height="2" fill="hsl(0, 100%, 60%)" />
<rect x="10" y="10" width="2" height="2" fill="hsl(0, 100%, 60%)" />
<rect x="36" y="10" width="2" height="2" fill="hsl(0, 100%, 60%)" />
<rect x="38" y="10" width="2" height="2" fill="hsl(0, 100%, 60%)" />
<rect x="18" y="12" width="2" height="2" fill="hsl(0, 100%, 60%)" />
<rect x="28" y="12" width="2" height="2" fill="hsl(0, 100%, 60%)" />
<rect x="14" y="14" width="2" height="2" fill="hsl(0, 100%, 60%)" />
<rect x="16" y="14" width="2" height="2" fill="hsl(0, 100%, 60%)" />
<rect x="20" y="14" width="2" height="2" fill="hsl(0, 100%, 60%)" />
<rect x="22" y="14" width="2" height="2" fill="hsl(0, 100%, 60%)" />
<rect x="24" y="14" width="2" height="2" fill="hsl(0, 100%, 60%)" />
<rect x="26" y="14" width="2" height="2" fill="hsl(0, 100%, 60%)" />
<rect x="30" y="14" width="2" height="2" fill="hsl(0, 100%, 60%)" />
<rect x="32" y="14" width="2" height="2" fill="hsl(0, 100%, 60%)" />
<rect x="18" y="16" width="2" height="2" fill="hsl(0, 100%, 60%)" />
<rect x="28" y="16" width="2" height="2" fill="hsl(0, 100%, 60%)" />
<rect x="8" y="18" width="2" height="2" fill="hsl(0, 100%, 60%)" />
<rect x="10" y="18" width="2" height="2" fill="hsl(0, 100%, 60%)" />
<rect x="36" y="18" width="2" height="2" fill="hsl(0, 100%, 60%)" />
<rect x="38" y="18" width="2" height="2" fill="hsl(0, 100%, 60%)" />
<rect x="6" y="20" width="2" height="2" fill="hsl(0, 100%, 60%)" />
<rect x="10" y="20" width="2" height="2" fill="hsl(0, 100%, 60%)" />
<rect x="36" y="20" width="2" height="2" fill="hsl(0, 100%, 60%)" />
<rect x="40" y="20" width="2" height="2" fill="hsl(0, 100%, 60%)" />
<rect x="6" y="22" width="2" height="2" fill="hsl(0, 100%, 60%)" />
<rect x="40" y="22" width="2" height="2" fill="hsl(0, 100%, 60%)" />
<rect x="4" y="24" width="2" height="2" fill="hsl(0, 100%, 60%)" />
<rect x="6" y="24" width="2" height="2" fill="hsl(0, 100%, 60%)" />
<rect x="40" y="24" width="2" height="2" fill="hsl(0, 100%, 60%)" />
<rect x="42" y="24" width="2" height="2" fill="hsl(0, 100%, 60%)" />
<rect x="4" y="26" width="2" height="2" fill="hsl(0, 100%, 60%)" />
<rect x="6" y="26" width="2" height="2" fill="hsl(0, 100%, 60%)" />
<rect x="6" y="28" width="2" height="2" fill="hsl(0, 100%, 60%)" />
<rect x="6" y="30" width="2" height="2" fill="hsl(0, 100%, 60%)" />
<rect x="10" y="30" width="2" height="2" fill="hsl(0, 100%, 60%)" />
<rect x="62" y="30" width="2" height="2" fill="hsl(0, 100%, 60%)" />
<rect x="64" y="30" width="2" height="2" fill="hsl(0, 100%, 60%)" />
<rect x="8" y="32" width="2" height="2" fill="hsl(0, 100%, 60%)" />
<rect x="10" y="32" width="2" height="2" fill="hsl(0, 100%, 60%)" />
<rect x="58" y="32" width="2" height="2" fill="hsl(0, 100%, 60%)" />
<rect x="64" y="32" width="2" height="2" fill="hsl(0, 100%, 60%)" />
<rect x="18" y="34" width="2" height="2" fill="hsl(0, 100%, 60%)" />
<rect x="28" y="34" width="2" height="2" fill="hsl(0, 100%, 60%)" />
<rect x="58" y="34" width="2" height="2" fill="hsl(0, 100%, 60%)" />
<rect x="60" y="34" width="2" height="2" fill="hsl(0, 100%, 60%)" />
<rect x="62" y="34" width="2" height="2" fill="hsl(0, 100%, 60%)" />
<rect x="14" y="36" width="2" height="2" fill="hsl(0, 100%, 60%)" />
<rect x="16" y="36" width="2" height="2" fill="hsl(0, 100%, 60%)" />
<rect x="20" y="36" width="2" height="2" fill="hsl(0, 100%, 60%)" />
<rect x="22" y="36" width="2" height="2" fill="hsl(0, 100%, 60%)" />
<rect x="24" y="36" width="2" height="2" fill="hsl(0, 100%, 60%)" />
<rect x="26" y="36" width="2" height="2" fill="hsl(0, 100%, 60%)" />
<rect x="30" y="36" width="2" height="2" fill="hsl(0, 100%, 60%)" />
<rect x="32" y="36" width="2" height="2" fill="hsl(0, 100%, 60%)" />
<rect x="40" y="36" width="2" height="2" fill="hsl(0, 100%, 60%)" />
<rect x="50" y="36" width="2" height="2" fill="hsl(0, 100%, 60%)" />
<rect x="64" y="36" width="2" height="2" fill="hsl(0, 100%, 60%)" />
<rect x="66" y="36" width="2" height="2" fill="hsl(0, 100%, 60%)" />
<rect x="68" y="36" width="2" height="2" fill="hsl(0, 100%, 60%)" />
<rect x="18" y="38" width="2" height="2" fill="hsl(0, 100%, 60%)" />
<rect x="28" y="38" width="2" height="2" fill="hsl(0, 100%, 60%)" />
<rect x="36" y="38" width="2" height="2" fill="hsl(0, 100%, 60%)" />
<rect x="38" y="38" width="2" height="2" fill="hsl(0, 100%, 60%)" />
<rect x="42" y="38" width="2" height="2" fill="hsl(0, 100%, 60%)" />
<rect x="44" y="38" width="2" height="2" fill="hsl(0, 100%, 60%)" />
<rect x="46" y="38" width="2" height="2" fill="hsl(0, 100%, 60%)" />
<rect x="48" y="38" width="2" height="2" fill="hsl(0, 100%, 60%)" />
<rect x="52" y="38" width="2" height="2" fill="hsl(0, 100%, 60%)" />
<rect x="54" y="38" width="2" height="2" fill="hsl(0, 100%, 60%)" />
<rect x="62" y="38" width="2" height="2" fill="hsl(0, 100%, 60%)" />
<rect x="70" y="38" width="2" height="2" fill="hsl(0, 100%, 60%)" />
<rect x="8" y="40" width="2" height="2" fill="hsl(0, 100%, 60%)" />
<rect x="10" y="40" width="2" height="2" fill="hsl(0, 100%, 60%)" />
<rect x="40" y="40" width="2" height="2" fill="hsl(0, 100%, 60%)" />
<rect x="50" y="40" width="2" height="2" fill="hsl(0, 100%, 60%)" />
<rect x="64" y="40" width="2" height="2" fill="hsl(0, 100%, 60%)" />
<rect x="66" y="40" width="2" height="2" fill="hsl(0, 100%, 60%)" />
<rect x="68" y="40" width="2" height="2" fill="hsl(0, 100%, 60%)" />
<rect x="6" y="42" width="2" height="2" fill="hsl(0, 100%, 60%)" />
<rect x="10" y="42" width="2" height="2" fill="hsl(0, 100%, 60%)" />
<rect x="58" y="42" width="2" height="2" fill="hsl(0, 100%, 60%)" />
<rect x="60" y="42" width="2" height="2" fill="hsl(0, 100%, 60%)" />
<rect x="62" y="42" width="2" height="2" fill="hsl(0, 100%, 60%)" />
<rect x="6" y="44" width="2" height="2" fill="hsl(0, 100%, 60%)" />
<rect x="58" y="44" width="2" height="2" fill="hsl(0, 100%, 60%)" />
<rect x="64" y="44" width="2" height="2" fill="hsl(0, 100%, 60%)" />
<rect x="4" y="46" width="2" height="2" fill="hsl(0, 100%, 60%)" />
<rect x="6" y="46" width="2" height="2" fill="hsl(0, 100%, 60%)" />
<rect x="62" y="46" width="2" height="2" fill="hsl(0, 100%, 60%)" />
<rect x="64" y="46" width="2" height="2" fill="hsl(0, 100%, 60%)" />
</svg>