<?xml version="1.0" encoding="utf-8"?>
<svg xmlns="http://www.w3.org/2000/svg" width="59" height="60" viewBox="0 0 59 60">
<rect width="100%" height="100%" fill="transparent" />
<rect x="33" y="4" width="1" height="1" fill="hsl(0, 100%, 60%)" />
<rect x="34" y="4" width="1" height="1" fill="hsl(0, 100%, 60%)" />
<rect x="32" y="5" width="1" height="1" fill="hsl(0, 100%, 60%)" />
<rect x="34" y="5" width="1" height="1" fill="hsl(0, 100%, 60%)" />
<rect x="26" y="6" width="1" height="1" fill="hsl(0, 100%, 60%)" />
<rect x="27" y="6" width="1" height="1" fill="hsl(0, 100%, 60%)" />
<rect x="32" y="6" width="1" height="1" fill="hsl(0, 100%, 60%)" />
<rect x="24" y="7" width="1" height="1" fill="hsl(0, 100%, 60%)" />
<rect x="27" y="7" width="1" height="1" fill="hsl(0, 100%, 60%)" />
<rect x="30" y="7" width="1" height="1" fill="hsl(0, 100%, 60%)" />
<rect x="31" y="7" width="1" height="1" fill="hsl(0, 100%, 60%)" />
<rect x="33" y="7" width="1" height="1" fill="hsl(0, 100%, 60%)" />
<rect x="34" y="7" width="1" height="1" fill="hsl(0, 100%, 60%)" />
<rect x="35" y="7" width="1" height="1" fill="hsl(0, 100%, 60%)" />
<rect x="36" y="7" width="1" height="1" fill="hsl(0, 100%, 60%)" />
<rect x="24" y="8" width="1" height="1" fill="hsl(0, 100%, 60%)" />
<rect x="25" y="8" width="1" height="1" fill="hsl(0, 100%, 60%)" />
<rect x="27" y="8" width="1" height="1" fill="hsl(0, 100%, 60%)" />
<rect x="29" y="8" width="1" height="1" fill="hsl(0, 100%, 60%)" />
<rect x="31" y="8" width="1" height="1" fill="hsl(0, 100%, 60%)" />
<rect x="33" y="8" width="1" height="1" fill="hsl(0, 100%, 60%)" />
<rect x="36" y="8" width="1" height="1" fill="hsl(0, 100%, 60%)" />
<rect x="27" y="9" width="1" height="1" fill="hsl(0, 100%, 60%)" />
<rect x="29" y="9" width="1" height="1" fill="hsl(0, 100%, 60%)" />
<rect x="31" y="9" width="1" height="1" fill="hsl(0, 100%, 60%)" />
<rect x="33" y="9" width="1" height="1" fill="hsl(0, 100%, 60%)" />
<rect x="27" y="10" width="1" height="1" fill="hsl(0, 100%, 60%)" />
<rect x="29" y="10" width="1" height="1" fill="hsl(0, 100%, 60%)" />
<rect x="31" y="10" width="1" height="1" fill="hsl(0, 100%, 60%)" />
<rect x="32" y="10" width="1" height="1" fill="hsl(0, 100%, 60%)" />
<rect x="28" y="11" width="1" height="1" fill="hsl(0, 100%, 60%)" />
<rect x="41" y="13" width="1" height="1" fill="hsl(0, 100%, 60%)" />
<rect x="42" y="13" width="1" height="1" fill="hsl(0, 100%, 60%)" />
<rect x="32" y="14" width="1" height="1" fill="hsl(0, 100%, 60%)" />
<rect x="33" y="14" width="1" height="1" fill="hsl(0, 100%, 60%)" />
<rect x="41" y="14" width="1" height="1" fill="hsl(0, 100%, 60%)" />
<rect x="32" y="15" width="1" height="1" fill="hsl(0, 100%, 60%)" />
<rect x="33" y="15" width="1" height="1" fill="hsl(0, 100%, 60%)" />
<rect x="39" y="15" width="1" height="1" fill="hsl(0, 100%, 60%)" />
<rect x="41" y="15" width="1" height="1" fill="hsl(0, 100%, 60%)" />
<rect x="13" y="16" width="1" height="1" fill="hsl(0, 100%, 60%)" />
<rect x="39" y="16" width="1" height="1" fill="hsl(0, 100%, 60%)" />
<rect x="40" y="16" width="1" height="1" fill="hsl(0, 100%, 60%)" />
<rect x="13" y="17" width="1" height="1" fill="hsl(0, 100%, 60%)" />
<rect x="14" y="17" width="1" height="1" fill="hsl(0, 100%, 60%)" />
<rect x="15" y="17" width="1" height="1" fill="hsl(0, 100%, 60%)" />
<rect x="16" y="18" width="1" height="1" fill="hsl(0, 100%, 60%)" />
<rect x="25" y="18" width="1" height="1" fill="hsl(0, 100%, 60%)" />
<rect x="15" y="19" width="1" height="1" fill="hsl(0, 100%, 60%)" />
<rect x="16" y="19" width="1" height="1" fill="hsl(0, 100%, 60%)" />
<rect x="24" y="19" width="1" height="1" fill="hsl(0, 100%, 60%)" />
<rect x="24" y="20" width="1" height="1" fill="hsl(0, 100%, 60%)" />
<rect x="25" y="20" width="1" height="1" fill="hsl(0, 100%, 60%)" />
<rect x="26" y="20" width="1" height="1" fill="hsl(0, 100%, 60%)" />
<rect x="7" y="22" width="1" height="1" fill="hsl(0, 100%, 60%)" />
<rect x="8" y="22" width="1" height="1" fill="hsl(0, 100%, 60%)" />
<rect x="7" y="23" width="1" height="1" fill="hsl(0, 100%, 60%)" />
<rect x="29" y="23" width="1" height="1" fill="hsl(0, 100%, 60%)" />
<rect x="30" y="23" width="1" height="1" fill="hsl(0, 100%, 60%)" />
<rect x="4" y="24" width="1" height="1" fill="hsl(0, 100%, 60%)" />
<rect x="5" y="24" width="1" height="1" fill="hsl(0, 100%, 60%)" />
<rect x="7" y="24" width="1" height="1" fill="hsl(0, 100%, 60%)" />
<rect x="30" y="24" width="1" height="1" fill="hsl(0, 100%, 60%)" />
<rect x="4" y="25" width="1" height="1" fill="hsl(0, 100%, 60%)" />
<rect x="7" y="25" width="1" height="1" fill="hsl(0, 100%, 60%)" />
<rect x="8" y="25" width="1" height="1" fill="hsl(0, 100%, 60%)" />
<rect x="9" y="25" width="1" height="1" fill="hsl(0, 100%, 60%)" />
<rect x="14" y="25" width="1" height="1" fill="hsl(0, 100%, 60%)" />
<rect x="15" y="25" width="1" height="1" fill="hsl(0, 100%, 60%)" />
<rect x="27" y="25" width="1" height="1" fill="hsl(0, 100%, 60%)" />
<rect x="28" y="25" width="1" height="1" fill="hsl(0, 100%, 60%)" />
<rect x="29" y="25" width="1" height="1" fill="hsl(0, 100%, 60%)" />
<rect x="5" y="26" width="1" height="1" fill="hsl(0, 100%, 60%)" />
<rect x="6" y="26" width="1" height="1" fill="hsl(0, 100%, 60%)" />
<rect x="10" y="26" width="1" height="1" fill="hsl(0, 100%, 60%)" />
<rect x="14" y="26" width="1" height="1" fill="hsl(0, 100%, 60%)" />
<rect x="15" y="26" width="1" height="1" fill="hsl(0, 100%, 60%)" />
<rect x="27" y="26" width="1" height="1" fill="hsl(0, 100%, 60%)" />
<rect x="50" y="26" width="1" height="1" fill="hsl(0, 100%, 60%)" />
<rect x="7" y="27" width="1" height="1" fill="hsl(0, 100%, 60%)" />
<rect x="8" y="27" width="1" height="1" fill="hsl(0, 100%, 60%)" />
<rect x="9" y="27" width="1" height="1" fill="hsl(0, 100%, 60%)" />
<rect x="10" y="27" width="1" height="1" fill="hsl(0, 100%, 60%)" />
<rect x="32" y="27" width="1" height="1" fill="hsl(0, 100%, 60%)" />
<rect x="33" y="27" width="1" height="1" fill="hsl(0, 100%, 60%)" />
<rect x="48" y="27" width="1" height="1" fill="hsl(0, 100%, 60%)" />
<rect x="49" y="27" width="1" height="1" fill="hsl(0, 100%, 60%)" />
<rect x="50" y="27" width="1" height="1" fill="hsl(0, 100%, 60%)" />
<rect x="51" y="27" width="1" height="1" fill="hsl(0, 100%, 60%)" />
<rect x="52" y="27" width="1" height="1" fill="hsl(0, 100%, 60%)" />
<rect x="7" y="28" width="1" height="1" fill="hsl(0, 100%, 60%)" />
<rect x="23" y="28" width="1" height="1" fill="hsl(0, 100%, 60%)" />
<rect x="24" y="28" width="1" height="1" fill="hsl(0, 100%, 60%)" />
<rect x="33" y="28" width="1" height="1" fill="hsl(0, 100%, 60%)" />
<rect x="47" y="28" width="1" height="1" fill="hsl(0, 100%, 60%)" />
<rect x="53" y="28" width="1" height="1" fill="hsl(0, 100%, 60%)" />
<rect x="8" y="29" width="1" height="1" fill="hsl(0, 100%, 60%)" />
<rect x="9" y="29" width="1" height="1" fill="hsl(0, 100%, 60%)" />
<rect x="10" y="29" width="1" height="1" fill="hsl(0, 100%, 60%)" />
<rect x="23" y="29" width="1" height="1" fill="hsl(0, 100%, 60%)" />
<rect x="25" y="29" width="1" height="1" fill="hsl(0, 100%, 60%)" />
<rect x="33" y="29" width="1" height="1" fill="hsl(0, 100%, 60%)" />
<rect x="35" y="29" width="1" height="1" fill="hsl(0, 100%, 60%)" />
<rect x="48" y="29" width="1" height="1" fill="hsl(0, 100%, 60%)" />
<rect x="49" y="29" width="1" height="1" fill="hsl(0, 100%, 60%)" />
<rect x="50" y="29" width="1" height="1" fill="hsl(0, 100%, 60%)" />
<rect x="53" y="29" width="1" height="1" fill="hsl(0, 100%, 60%)" />
<rect x="11" y="30" width="1" height="1" fill="hsl(0, 100%, 60%)" />
<rect x="25" y="30" width="1" height="1" fill="hsl(0, 100%, 60%)" />
<rect x="34" y="30" width="1" height="1" fill="hsl(0, 100%, 60%)" />
<rect x="35" y="30" width="1" height="1" fill="hsl(0, 100%, 60%)" />
<rect x="51" y="30" width="1" height="1" fill="hsl(0, 100%, 60%)" />
<rect x="53" y="30" width="1" height="1" fill="hsl(0, 100%, 60%)" />
<rect x="54" y="30" width="1" height="1" fill="hsl(0, 100%, 60%)" />
<rect x="6" y="31" width="1" height="1" fill="hsl(0, 100%, 60%)" />
<rect x="7" y="31" width="1" height="1" fill="hsl(0, 100%, 60%)" />
<rect x="8" y="31" width="1" height="1" fill="hsl(0, 100%, 60%)" />
<rect x="9" y="31" width="1" height="1" fill="hsl(0, 100%, 60%)" />
<rect x="10" y="31" width="1" height="1" fill="hsl(0, 100%, 60%)" />
<rect x="25" y="31" width="1" height="1" fill="hsl(0, 100%, 60%)" />
<rect x="26" y="31" width="1" height="1" fill="hsl(0, 100%, 60%)" />
<rect x="48" y="31" width="1" height="1" fill="hsl(0, 100%, 60%)" />
<rect x="49" y="31" width="1" height="1" fill="hsl(0, 100%, 60%)" />
<rect x="50" y="31" width="1" height="1" fill="hsl(0, 100%, 60%)" />
<rect x="51" y="31" width="1" height="1" fill="hsl(0, 100%, 60%)" />
<rect x="54" y="31" width="1" height="1" fill="hsl(0, 100%, 60%)" />
<rect x="5" y="32" width="1" height="1" fill="hsl(0, 100%, 60%)" />
<rect x="8" y="32" width="1" height="1" fill="hsl(0, 100%, 60%)" />
<rect x="31" y="32" width="1" height="1" fill="hsl(0, 100%, 60%)" />
<rect x="43" y="32" width="1" height="1" fill="hsl(0, 100%, 60%)" />
<rect x="44" y="32" width="1" height="1" fill="hsl(0, 100%, 60%)" />
<rect x="48" y="32" width="1" height="1" fill="hsl(0, 100%, 60%)" />
<rect x="52" y="32" width="1" height="1" fill="hsl(0, 100%, 60%)" />
<rect x="53" y="32" width="1" height="1" fill="hsl(0, 100%, 60%)" />
<rect x="5" y="33" width="1" height="1" fill="hsl(0, 100%, 60%)" />
<rect x="6" y="33" width="1" height="1" fill="hsl(0, 100%, 60%)" />
<rect x="29" y="33" width="1" height="1" fill="hsl(0, 100%, 60%)" />
<rect x="30" y="33" width="1" height="1" fill="hsl(0, 100%, 60%)" />
<rect x="31" y="33" width="1" height="1" fill="hsl(0, 100%, 60%)" />
<rect x="43" y="33" width="1" height="1" fill="hsl(0, 100%, 60%)" />
<rect x="44" y="33" width="1" height="1" fill="hsl(0, 100%, 60%)" />
<rect x="49" y="33" width="1" height="1" fill="hsl(0, 100%, 60%)" />
<rect x="50" y="33" width="1" height="1" fill="hsl(0, 100%, 60%)" />
<rect x="51" y="33" width="1" height="1" fill="hsl(0, 100%, 60%)" />
<rect x="28" y="34" width="1" height="1" fill="hsl(0, 100%, 60%)" />
<rect x="51" y="34" width="1" height="1" fill="hsl(0, 100%, 60%)" />
<rect x="28" y="35" width="1" height="1" fill="hsl(0, 100%, 60%)" />
<rect x="29" y="35" width="1" height="1" fill="hsl(0, 100%, 60%)" />
<rect x="51" y="35" width="1" height="1" fill="hsl(0, 100%, 60%)" />
<rect x="53" y="35" width="1" height="1" fill="hsl(0, 100%, 60%)" />
<rect x="54" y="35" width="1" height="1" fill="hsl(0, 100%, 60%)" />
<rect x="50" y="36" width="1" height="1" fill="hsl(0, 100%, 60%)" />
<rect x="51" y="36" width="1" height="1" fill="hsl(0, 100%, 60%)" />
<rect x="53" y="36" width="1" height="1" fill="hsl(0, 100%, 60%)" />
<rect x="54" y="36" width="1" height="1" fill="hsl(0, 100%, 60%)" />
<rect x="42" y="39" width="1" height="1" fill="hsl(0, 100%, 60%)" />
<rect x="43" y="39" width="1" height="1" fill="hsl(0, 100%, 60%)" />
<rect x="42" y="40" width="1" height="1" fill="hsl(0, 100%, 60%)" />
<rect x="43" y="41" width="1" height="1" fill="hsl(0, 100%, 60%)" />
<rect x="44" y="41" width="1" height="1" fill="hsl(0, 100%, 60%)" />
<rect x="45" y="41" width="1" height="1" fill="hsl(0, 100%, 60%)" />
<rect x="18" y="42" width="1" height="1" fill="hsl(0, 100%, 60%)" />
<rect x="19" y="42" width="1" height="1" fill="hsl(0, 100%, 60%)" />
<rect x="45" y="42" width="1" height="1" fill="hsl(0, 100%, 60%)" />
<rect x="17" y="43" width="1" height="1" fill="hsl(0, 100%, 60%)" />
<rect x="19" y="43" width="1" height="1" fill="hsl(0, 100%, 60%)" />
<rect x="25" y="43" width="1" height="1" fill="hsl(0, 100%, 60%)" />
<rect x="26" y="43" width="1" height="1" fill="hsl(0, 100%, 60%)" />
<rect x="17" y="44" width="1" height="1" fill="hsl(0, 100%, 60%)" />
<rect x="25" y="44" width="1" height="1" fill="hsl(0, 100%, 60%)" />
<rect x="26" y="44" width="1" height="1" fill="hsl(0, 100%, 60%)" />
<rect x="16" y="45" width="1" height="1" fill="hsl(0, 100%, 60%)" />
<rect x="17" y="45" width="1" height="1" fill="hsl(0, 100%, 60%)" />
<rect x="30" y="47" width="1" height="1" fill="hsl(0, 100%, 60%)" />
<rect x="20" y="48" width="1" height="1" fill="hsl(0, 100%, 60%)" />
<rect x="21" y="48" width="1" height="1" fill="hsl(0, 100%, 60%)" />
<rect x="26" y="48" width="1" height="1" fill="hsl(0, 100%, 60%)" />
<rect x="27" y="48" width="1" height="1" fill="hsl(0, 100%, 60%)" />
<rect x="29" y="48" width="1" height="1" fill="hsl(0, 100%, 60%)" />
<rect x="31" y="48" width="1" height="1" fill="hsl(0, 100%, 60%)" />
<rect x="19" y="49" width="1" height="1" fill="hsl(0, 100%, 60%)" />
<rect x="22" y="49" width="1" height="1" fill="hsl(0, 100%, 60%)" />
<rect x="25" y="49" width="1" height="1" fill="hsl(0, 100%, 60%)" />
<rect x="27" y="49" width="1" height="1" fill="hsl(0, 100%, 60%)" />
<rect x="29" y="49" width="1" height="1" fill="hsl(0, 100%, 60%)" />
<rect x="31" y="49" width="1" height="1" fill="hsl(0, 100%, 60%)" />
<rect x="20" y="50" width="1" height="1" fill="hsl(0, 100%, 60%)" />
<rect x="21" y="50" width="1" height="1" fill="hsl(0, 100%, 60%)" />
<rect x="25" y="50" width="1" height="1" fill="hsl(0, 100%, 60%)" />
<rect x="27" y="50" width="1" height="1" fill="hsl(0, 100%, 60%)" />
<rect x="29" y="50" width="1" height="1" fill="hsl(0, 100%, 60%)" />
<rect x="31" y="50" width="1" height="1" fill="hsl(0, 100%, 60%)" />
<rect x="32" y="50" width="1" height="1" fill="hsl(0, 100%, 60%)" />
<rect x="22" y="51" width="1" height="1" fill="hsl(0, 100%, 60%)" />
<rect x="23" y="51" width="1" height="1" fill="hsl(0, 100%, 60%)" />
<rect x="24" y="51" width="1" height="1" fill="hsl(0, 100%, 60%)" />
<rect x="25" y="51" width="1" height="1" fill="hsl(0, 100%, 60%)" />
<rect x="27" y="51" width="1" height="1" fill="hsl(0, 100%, 60%)" />
<rect x="28" y="51" width="1" height="1" fill="hsl(0, 100%, 60%)" />
<rect x="31" y="51" width="1" height="1" fill="hsl(0, 100%, 60%)" />
<rect x="22" y="52" width="1" height="1" fill="hsl(0, 100%, 60%)" />
<rect x="26" y="52" width="1" height="1" fill="hsl(0, 100%, 60%)" />
<rect x="31" y="52" width="1" height="1" fill="hsl(0, 100%, 60%)" />
<rect x="23" y="53" width="1" height="1" fill="hsl(0, 100%, 60%)" />
<rect x="26" y="53" width="1" height="1" fill="hsl(0, 100%, 60%)" />
<rect x="28" y="53" width="1" height="1" fill="hsl(0, 100%, 60%)" />
<rect x="29" y="53" width="1" height="1" fill="hsl(0, 100%, 60%)" />
<rect x="30" y="53" width="1" height="1" fill="hsl(0, 100%, 60%)" />
<rect x="24" y="54" width="1" height="1" fill="hsl(0, 100%, 60%)" />
<rect x="26" y="54" width="1" height="1" fill="hsl(0, 100%, 60%)" />
<rect x="28" y="54" width="1" height="1" fill="hsl(0, 100%, 60%)" />
<rect x="25" y="55" width="1" height="1" fill="hsl(0, 100%, 60%)" />
</svg>