<?xml version="1.0" encoding="utf-8"?>
<svg xmlns="http://www.w3.org/2000/svg" width="66" height="67" viewBox="0 0 66 67">
<rect width="100%" height="100%" fill="transparent" />
<rect x="60" y="4" width="1" height="1" fill="hsl(0, 100%, 60%)" />
<rect x="59" y="5" width="1" height="1" fill="hsl(0, 100%, 60%)" />
<rect x="59" y="6" width="1" height="1" fill="hsl(0, 100%, 60%)" />
<rect x="60" y="6" width="1" height="1" fill="hsl(0, 100%, 60%)" />
<rect x="61" y="6" width="1" height="1" fill="hsl(0, 100%, 60%)" />
<rect x="16" y="19" width="1" height="1" fill="hsl(0, 100%, 60%)" />
<rect x="16" y="20" width="1" height="1" fill="hsl(0, 100%, 60%)" />
<rect x="17" y="20" width="1" height="1" fill="hsl(0, 100%, 60%)" />
<rect x="18" y="20" width="1" height="1" fill="hsl(0, 100%, 60%)" />
<rect x="19" y="21" width="1" height="1" fill="hsl(0, 100%, 60%)" />
<rect x="18" y="22" width="1" height="1" fill="hsl(0, 100%, 60%)" />
<rect x="19" y="22" width="1" height="1" fill="hsl(0, 100%, 60%)" />
<rect x="12" y="23" width="1" height="1" fill="hsl(0, 100%, 60%)" />
<rect x="11" y="24" width="1" height="1" fill="hsl(0, 100%, 60%)" />
<rect x="13" y="24" width="1" height="1" fill="hsl(0, 100%, 60%)" />
<rect x="21" y="24" width="1" height="1" fill="hsl(0, 100%, 60%)" />
<rect x="22" y="24" width="1" height="1" fill="hsl(0, 100%, 60%)" />
<rect x="11" y="25" width="1" height="1" fill="hsl(0, 100%, 60%)" />
<rect x="13" y="25" width="1" height="1" fill="hsl(0, 100%, 60%)" />
<rect x="20" y="25" width="1" height="1" fill="hsl(0, 100%, 60%)" />
<rect x="22" y="25" width="1" height="1" fill="hsl(0, 100%, 60%)" />
<rect x="9" y="26" width="1" height="1" fill="hsl(0, 100%, 60%)" />
<rect x="10" y="26" width="1" height="1" fill="hsl(0, 100%, 60%)" />
<rect x="11" y="26" width="1" height="1" fill="hsl(0, 100%, 60%)" />
<rect x="13" y="26" width="1" height="1" fill="hsl(0, 100%, 60%)" />
<rect x="14" y="26" width="1" height="1" fill="hsl(0, 100%, 60%)" />
<rect x="20" y="26" width="1" height="1" fill="hsl(0, 100%, 60%)" />
<rect x="21" y="26" width="1" height="1" fill="hsl(0, 100%, 60%)" />
<rect x="8" y="27" width="1" height="1" fill="hsl(0, 100%, 60%)" />
<rect x="9" y="28" width="1" height="1" fill="hsl(0, 100%, 60%)" />
<rect x="10" y="28" width="1" height="1" fill="hsl(0, 100%, 60%)" />
<rect x="11" y="28" width="1" height="1" fill="hsl(0, 100%, 60%)" />
<rect x="13" y="28" width="1" height="1" fill="hsl(0, 100%, 60%)" />
<rect x="14" y="28" width="1" height="1" fill="hsl(0, 100%, 60%)" />
<rect x="11" y="29" width="1" height="1" fill="hsl(0, 100%, 60%)" />
<rect x="13" y="29" width="1" height="1" fill="hsl(0, 100%, 60%)" />
<rect x="14" y="29" width="1" height="1" fill="hsl(0, 100%, 60%)" />
<rect x="4" y="33" width="1" height="1" fill="hsl(0, 100%, 60%)" />
<rect x="5" y="33" width="1" height="1" fill="hsl(0, 100%, 60%)" />
<rect x="5" y="34" width="1" height="1" fill="hsl(0, 100%, 60%)" />
<rect x="5" y="35" width="1" height="1" fill="hsl(0, 100%, 60%)" />
<rect x="7" y="35" width="1" height="1" fill="hsl(0, 100%, 60%)" />
<rect x="6" y="36" width="1" height="1" fill="hsl(0, 100%, 60%)" />
<rect x="7" y="36" width="1" height="1" fill="hsl(0, 100%, 60%)" />
<rect x="24" y="38" width="1" height="1" fill="hsl(0, 100%, 60%)" />
<rect x="23" y="39" width="1" height="1" fill="hsl(0, 100%, 60%)" />
<rect x="25" y="39" width="1" height="1" fill="hsl(0, 100%, 60%)" />
<rect x="23" y="40" width="1" height="1" fill="hsl(0, 100%, 60%)" />
<rect x="59" y="40" width="1" height="1" fill="hsl(0, 100%, 60%)" />
<rect x="24" y="41" width="1" height="1" fill="hsl(0, 100%, 60%)" />
<rect x="57" y="41" width="1" height="1" fill="hsl(0, 100%, 60%)" />
<rect x="58" y="41" width="1" height="1" fill="hsl(0, 100%, 60%)" />
<rect x="59" y="41" width="1" height="1" fill="hsl(0, 100%, 60%)" />
<rect x="40" y="42" width="1" height="1" fill="hsl(0, 100%, 60%)" />
<rect x="41" y="42" width="1" height="1" fill="hsl(0, 100%, 60%)" />
<rect x="57" y="42" width="1" height="1" fill="hsl(0, 100%, 60%)" />
<rect x="6" y="43" width="1" height="1" fill="hsl(0, 100%, 60%)" />
<rect x="40" y="43" width="1" height="1" fill="hsl(0, 100%, 60%)" />
<rect x="41" y="43" width="1" height="1" fill="hsl(0, 100%, 60%)" />
<rect x="57" y="43" width="1" height="1" fill="hsl(0, 100%, 60%)" />
<rect x="6" y="44" width="1" height="1" fill="hsl(0, 100%, 60%)" />
<rect x="8" y="44" width="1" height="1" fill="hsl(0, 100%, 60%)" />
<rect x="6" y="45" width="1" height="1" fill="hsl(0, 100%, 60%)" />
<rect x="7" y="45" width="1" height="1" fill="hsl(0, 100%, 60%)" />
<rect x="8" y="45" width="1" height="1" fill="hsl(0, 100%, 60%)" />
<rect x="8" y="46" width="1" height="1" fill="hsl(0, 100%, 60%)" />
<rect x="29" y="46" width="1" height="1" fill="hsl(0, 100%, 60%)" />
<rect x="28" y="47" width="1" height="1" fill="hsl(0, 100%, 60%)" />
<rect x="30" y="47" width="1" height="1" fill="hsl(0, 100%, 60%)" />
<rect x="28" y="48" width="1" height="1" fill="hsl(0, 100%, 60%)" />
<rect x="29" y="48" width="1" height="1" fill="hsl(0, 100%, 60%)" />
<rect x="23" y="49" width="1" height="1" fill="hsl(0, 100%, 60%)" />
<rect x="24" y="49" width="1" height="1" fill="hsl(0, 100%, 60%)" />
<rect x="37" y="49" width="1" height="1" fill="hsl(0, 100%, 60%)" />
<rect x="38" y="49" width="1" height="1" fill="hsl(0, 100%, 60%)" />
<rect x="23" y="50" width="1" height="1" fill="hsl(0, 100%, 60%)" />
<rect x="24" y="50" width="1" height="1" fill="hsl(0, 100%, 60%)" />
<rect x="37" y="50" width="1" height="1" fill="hsl(0, 100%, 60%)" />
<rect x="38" y="51" width="1" height="1" fill="hsl(0, 100%, 60%)" />
<rect x="37" y="52" width="1" height="1" fill="hsl(0, 100%, 60%)" />
<rect x="38" y="52" width="1" height="1" fill="hsl(0, 100%, 60%)" />
<rect x="6" y="59" width="1" height="1" fill="hsl(0, 100%, 60%)" />
<rect x="7" y="59" width="1" height="1" fill="hsl(0, 100%, 60%)" />
<rect x="18" y="59" width="1" height="1" fill="hsl(0, 100%, 60%)" />
<rect x="19" y="59" width="1" height="1" fill="hsl(0, 100%, 60%)" />
<rect x="7" y="60" width="1" height="1" fill="hsl(0, 100%, 60%)" />
<rect x="18" y="60" width="1" height="1" fill="hsl(0, 100%, 60%)" />
<rect x="4" y="61" width="1" height="1" fill="hsl(0, 100%, 60%)" />
<rect x="5" y="61" width="1" height="1" fill="hsl(0, 100%, 60%)" />
<rect x="6" y="61" width="1" height="1" fill="hsl(0, 100%, 60%)" />
<rect x="19" y="61" width="1" height="1" fill="hsl(0, 100%, 60%)" />
<rect x="20" y="61" width="1" height="1" fill="hsl(0, 100%, 60%)" />
<rect x="21" y="61" width="1" height="1" fill="hsl(0, 100%, 60%)" />
<rect x="4" y="62" width="1" height="1" fill="hsl(0, 100%, 60%)" />
<rect x="21" y="62" width="1" height="1" fill="hsl(0, 100%, 60%)" />
</svg>