<?xml version="1.0" encoding="utf-8"?>
<svg xmlns="http://www.w3.org/2000/svg" width="92" height="30" viewBox="0 0 92 30">
<rect width="100%" height="100%" fill="transparent" />
<rect x="84" y="4" width="2" height="2" fill="hsl(0, 100%, 60%)" />
<rect x="82" y="6" width="2" height="2" fill="hsl(0, 100%, 60%)" />
<rect x="4" y="8" width="2" height="2" fill="hsl(0, 100%, 60%)" />
<rect x="6" y="8" width="2" height="2" fill="hsl(0, 100%, 60%)" />
<rect x="36" y="8" width="2" height="2" fill="hsl(0, 100%, 60%)" />
<rect x="38" y="8" width="2" height="2" fill="hsl(0, 100%, 60%)" />
<rect x="58" y="8" width="2" height="2" fill="hsl(0, 100%, 60%)" />
<rect x="60" y="8" width="2" height="2" fill="hsl(0, 100%, 60%)" />
<rect x="82" y="8" width="2" height="2" fill="hsl(0, 100%, 60%)" />
<rect x="84" y="8" width="2" height="2" fill="hsl(0, 100%, 60%)" />
<rect x="86" y="8" width="2" height="2" fill="hsl(0, 100%, 60%)" />
<rect x="4" y="10" width="2" height="2" fill="hsl(0, 100%, 60%)" />
<rect x="6" y="10" width="2" height="2" fill="hsl(0, 100%, 60%)" />
<rect x="38" y="10" width="2" height="2" fill="hsl(0, 100%, 60%)" />
<rect x="40" y="10" width="2" height="2" fill="hsl(0, 100%, 60%)" />
<rect x="58" y="10" width="2" height="2" fill="hsl(0, 100%, 60%)" />
<rect x="60" y="10" width="2" height="2" fill="hsl(0, 100%, 60%)" />
<rect x="30" y="12" width="2" height="2" fill="hsl(0, 100%, 60%)" />
<rect x="32" y="12" width="2" height="2" fill="hsl(0, 100%, 60%)" />
<rect x="34" y="12" width="2" height="2" fill="hsl(0, 100%, 60%)" />
<rect x="36" y="12" width="2" height="2" fill="hsl(0, 100%, 60%)" />
<rect x="38" y="12" width="2" height="2" fill="hsl(0, 100%, 60%)" />
<rect x="30" y="14" width="2" height="2" fill="hsl(0, 100%, 60%)" />
<rect x="32" y="14" width="2" height="2" fill="hsl(0, 100%, 60%)" />
<rect x="34" y="14" width="2" height="2" fill="hsl(0, 100%, 60%)" />
<rect x="36" y="14" width="2" height="2" fill="hsl(0, 100%, 60%)" />
<rect x="30" y="18" width="2" height="2" fill="hsl(0, 100%, 60%)" />
<rect x="32" y="18" width="2" height="2" fill="hsl(0, 100%, 60%)" />
<rect x="34" y="18" width="2" height="2" fill="hsl(0, 100%, 60%)" />
<rect x="36" y="18" width="2" height="2" fill="hsl(0, 100%, 60%)" />
<rect x="30" y="20" width="2" height="2" fill="hsl(0, 100%, 60%)" />
<rect x="32" y="20" width="2" height="2" fill="hsl(0, 100%, 60%)" />
<rect x="34" y="20" width="2" height="2" fill="hsl(0, 100%, 60%)" />
<rect x="36" y="20" width="2" height="2" fill="hsl(0, 100%, 60%)" />
<rect x="38" y="20" width="2" height="2" fill="hsl(0, 100%, 60%)" />
<rect x="4" y="22" width="2" height="2" fill="hsl(0, 100%, 60%)" />
<rect x="6" y="22" width="2" height="2" fill="hsl(0, 100%, 60%)" />
<rect x="38" y="22" width="2" height="2" fill="hsl(0, 100%, 60%)" />
<rect x="40" y="22" width="2" height="2" fill="hsl(0, 100%, 60%)" />
<rect x="4" y="24" width="2" height="2" fill="hsl(0, 100%, 60%)" />
<rect x="6" y="24" width="2" height="2" fill="hsl(0, 100%, 60%)" />
<rect x="36" y="24" width="2" height="2" fill="hsl(0, 100%, 60%)" />
<rect x="38" y="24" width="2" height="2" fill="hsl(0, 100%, 60%)" />
</svg>