<?xml version="1.0" encoding="utf-8"?>
<svg xmlns="http://www.w3.org/2000/svg" width="72" height="72" viewBox="0 0 72 72">
<rect width="100%" height="100%" fill="transparent" />
<rect x="32" y="4" width="2" height="2" fill="hsl(0, 100%, 60%)" />
<rect x="34" y="4" width="2" height="2" fill="hsl(0, 100%, 60%)" />
<rect x="30" y="6" width="2" height="2" fill="hsl(0, 100%, 60%)" />
<rect x="34" y="6" width="2" height="2" fill="hsl(0, 100%, 60%)" />
<rect x="32" y="8" width="2" height="2" fill="hsl(0, 100%, 60%)" />
<rect x="18" y="20" width="2" height="2" fill="hsl(0, 100%, 60%)" />
<rect x="20" y="20" width="2" height="2" fill="hsl(0, 100%, 60%)" />
<rect x="22" y="20" width="2" height="2" fill="hsl(0, 100%, 60%)" />
<rect x="48" y="20" width="2" height="2" fill="hsl(0, 100%, 60%)" />
<rect x="50" y="20" width="2" height="2" fill="hsl(0, 100%, 60%)" />
<rect x="20" y="22" width="2" height="2" fill="hsl(0, 100%, 60%)" />
<rect x="26" y="22" width="2" height="2" fill="hsl(0, 100%, 60%)" />
<rect x="46" y="22" width="2" height="2" fill="hsl(0, 100%, 60%)" />
<rect x="50" y="22" width="2" height="2" fill="hsl(0, 100%, 60%)" />
<rect x="28" y="24" width="2" height="2" fill="hsl(0, 100%, 60%)" />
<rect x="48" y="24" width="2" height="2" fill="hsl(0, 100%, 60%)" />
<rect x="22" y="26" width="2" height="2" fill="hsl(0, 100%, 60%)" />
<rect x="26" y="26" width="2" height="2" fill="hsl(0, 100%, 60%)" />
<rect x="64" y="36" width="2" height="2" fill="hsl(0, 100%, 60%)" />
<rect x="66" y="36" width="2" height="2" fill="hsl(0, 100%, 60%)" />
<rect x="62" y="38" width="2" height="2" fill="hsl(0, 100%, 60%)" />
<rect x="66" y="38" width="2" height="2" fill="hsl(0, 100%, 60%)" />
<rect x="64" y="40" width="2" height="2" fill="hsl(0, 100%, 60%)" />
<rect x="6" y="46" width="2" height="2" fill="hsl(0, 100%, 60%)" />
<rect x="4" y="48" width="2" height="2" fill="hsl(0, 100%, 60%)" />
<rect x="8" y="48" width="2" height="2" fill="hsl(0, 100%, 60%)" />
<rect x="4" y="50" width="2" height="2" fill="hsl(0, 100%, 60%)" />
<rect x="6" y="50" width="2" height="2" fill="hsl(0, 100%, 60%)" />
<rect x="22" y="62" width="2" height="2" fill="hsl(0, 100%, 60%)" />
<rect x="20" y="64" width="2" height="2" fill="hsl(0, 100%, 60%)" />
<rect x="24" y="64" width="2" height="2" fill="hsl(0, 100%, 60%)" />
<rect x="20" y="66" width="2" height="2" fill="hsl(0, 100%, 60%)" />
<rect x="22" y="66" width="2" height="2" fill="hsl(0, 100%, 60%)" />
</svg>