<?xml version="1.0" encoding="utf-8"?>
<svg xmlns="http://www.w3.org/2000/svg" width="54" height="36" viewBox="0 0 54 36">
<rect width="100%" height="100%" fill="transparent" />
<rect x="7" y="4" width="1" height="1" fill="hsl(0, 100%, 60%)" />
<rect x="29" y="4" width="1" height="1" fill="hsl(0, 100%, 60%)" />
<rect x="8" y="5" width="1" height="1" fill="hsl(0, 100%, 60%)" />
<rect x="28" y="5" width="1" height="1" fill="hsl(0, 100%, 60%)" />
<rect x="30" y="5" width="1" height="1" fill="hsl(0, 100%, 60%)" />
<rect x="6" y="6" width="1" height="1" fill="hsl(0, 100%, 60%)" />
<rect x="7" y="6" width="1" height="1" fill="hsl(0, 100%, 60%)" />
<rect x="8" y="6" width="1" height="1" fill="hsl(0, 100%, 60%)" />
<rect x="28" y="6" width="1" height="1" fill="hsl(0, 100%, 60%)" />
<rect x="30" y="6" width="1" height="1" fill="hsl(0, 100%, 60%)" />
<rect x="26" y="7" width="1" height="1" fill="hsl(0, 100%, 60%)" />
<rect x="27" y="7" width="1" height="1" fill="hsl(0, 100%, 60%)" />
<rect x="28" y="7" width="1" height="1" fill="hsl(0, 100%, 60%)" />
<rect x="30" y="7" width="1" height="1" fill="hsl(0, 100%, 60%)" />
<rect x="31" y="7" width="1" height="1" fill="hsl(0, 100%, 60%)" />
<rect x="48" y="7" width="1" height="1" fill="hsl(0, 100%, 60%)" />
<rect x="22" y="8" width="1" height="1" fill="hsl(0, 100%, 60%)" />
<rect x="25" y="8" width="1" height="1" fill="hsl(0, 100%, 60%)" />
<rect x="46" y="8" width="1" height="1" fill="hsl(0, 100%, 60%)" />
<rect x="47" y="8" width="1" height="1" fill="hsl(0, 100%, 60%)" />
<rect x="48" y="8" width="1" height="1" fill="hsl(0, 100%, 60%)" />
<rect x="20" y="9" width="1" height="1" fill="hsl(0, 100%, 60%)" />
<rect x="21" y="9" width="1" height="1" fill="hsl(0, 100%, 60%)" />
<rect x="22" y="9" width="1" height="1" fill="hsl(0, 100%, 60%)" />
<rect x="26" y="9" width="1" height="1" fill="hsl(0, 100%, 60%)" />
<rect x="27" y="9" width="1" height="1" fill="hsl(0, 100%, 60%)" />
<rect x="28" y="9" width="1" height="1" fill="hsl(0, 100%, 60%)" />
<rect x="30" y="9" width="1" height="1" fill="hsl(0, 100%, 60%)" />
<rect x="31" y="9" width="1" height="1" fill="hsl(0, 100%, 60%)" />
<rect x="35" y="9" width="1" height="1" fill="hsl(0, 100%, 60%)" />
<rect x="36" y="9" width="1" height="1" fill="hsl(0, 100%, 60%)" />
<rect x="45" y="9" width="1" height="1" fill="hsl(0, 100%, 60%)" />
<rect x="19" y="10" width="1" height="1" fill="hsl(0, 100%, 60%)" />
<rect x="28" y="10" width="1" height="1" fill="hsl(0, 100%, 60%)" />
<rect x="30" y="10" width="1" height="1" fill="hsl(0, 100%, 60%)" />
<rect x="31" y="10" width="1" height="1" fill="hsl(0, 100%, 60%)" />
<rect x="35" y="10" width="1" height="1" fill="hsl(0, 100%, 60%)" />
<rect x="36" y="10" width="1" height="1" fill="hsl(0, 100%, 60%)" />
<rect x="45" y="10" width="1" height="1" fill="hsl(0, 100%, 60%)" />
<rect x="46" y="10" width="1" height="1" fill="hsl(0, 100%, 60%)" />
<rect x="19" y="11" width="1" height="1" fill="hsl(0, 100%, 60%)" />
<rect x="20" y="11" width="1" height="1" fill="hsl(0, 100%, 60%)" />
<rect x="4" y="12" width="1" height="1" fill="hsl(0, 100%, 60%)" />
<rect x="5" y="12" width="1" height="1" fill="hsl(0, 100%, 60%)" />
<rect x="5" y="13" width="1" height="1" fill="hsl(0, 100%, 60%)" />
<rect x="5" y="14" width="1" height="1" fill="hsl(0, 100%, 60%)" />
<rect x="7" y="14" width="1" height="1" fill="hsl(0, 100%, 60%)" />
<rect x="8" y="14" width="1" height="1" fill="hsl(0, 100%, 60%)" />
<rect x="6" y="15" width="1" height="1" fill="hsl(0, 100%, 60%)" />
<rect x="9" y="15" width="1" height="1" fill="hsl(0, 100%, 60%)" />
<rect x="46" y="15" width="1" height="1" fill="hsl(0, 100%, 60%)" />
<rect x="47" y="15" width="1" height="1" fill="hsl(0, 100%, 60%)" />
<rect x="7" y="16" width="1" height="1" fill="hsl(0, 100%, 60%)" />
<rect x="8" y="16" width="1" height="1" fill="hsl(0, 100%, 60%)" />
<rect x="46" y="16" width="1" height="1" fill="hsl(0, 100%, 60%)" />
<rect x="48" y="16" width="1" height="1" fill="hsl(0, 100%, 60%)" />
<rect x="22" y="17" width="1" height="1" fill="hsl(0, 100%, 60%)" />
<rect x="23" y="17" width="1" height="1" fill="hsl(0, 100%, 60%)" />
<rect x="48" y="17" width="1" height="1" fill="hsl(0, 100%, 60%)" />
<rect x="22" y="18" width="1" height="1" fill="hsl(0, 100%, 60%)" />
<rect x="23" y="18" width="1" height="1" fill="hsl(0, 100%, 60%)" />
<rect x="48" y="18" width="1" height="1" fill="hsl(0, 100%, 60%)" />
<rect x="49" y="18" width="1" height="1" fill="hsl(0, 100%, 60%)" />
<rect x="38" y="19" width="1" height="1" fill="hsl(0, 100%, 60%)" />
<rect x="39" y="19" width="1" height="1" fill="hsl(0, 100%, 60%)" />
<rect x="40" y="19" width="1" height="1" fill="hsl(0, 100%, 60%)" />
<rect x="38" y="20" width="1" height="1" fill="hsl(0, 100%, 60%)" />
<rect x="39" y="21" width="1" height="1" fill="hsl(0, 100%, 60%)" />
<rect x="30" y="23" width="1" height="1" fill="hsl(0, 100%, 60%)" />
<rect x="34" y="23" width="1" height="1" fill="hsl(0, 100%, 60%)" />
<rect x="35" y="23" width="1" height="1" fill="hsl(0, 100%, 60%)" />
<rect x="29" y="24" width="1" height="1" fill="hsl(0, 100%, 60%)" />
<rect x="31" y="24" width="1" height="1" fill="hsl(0, 100%, 60%)" />
<rect x="35" y="24" width="1" height="1" fill="hsl(0, 100%, 60%)" />
<rect x="25" y="25" width="1" height="1" fill="hsl(0, 100%, 60%)" />
<rect x="26" y="25" width="1" height="1" fill="hsl(0, 100%, 60%)" />
<rect x="28" y="25" width="1" height="1" fill="hsl(0, 100%, 60%)" />
<rect x="30" y="25" width="1" height="1" fill="hsl(0, 100%, 60%)" />
<rect x="34" y="25" width="1" height="1" fill="hsl(0, 100%, 60%)" />
<rect x="25" y="26" width="1" height="1" fill="hsl(0, 100%, 60%)" />
<rect x="26" y="26" width="1" height="1" fill="hsl(0, 100%, 60%)" />
<rect x="28" y="26" width="1" height="1" fill="hsl(0, 100%, 60%)" />
<rect x="33" y="26" width="1" height="1" fill="hsl(0, 100%, 60%)" />
<rect x="29" y="27" width="1" height="1" fill="hsl(0, 100%, 60%)" />
<rect x="30" y="27" width="1" height="1" fill="hsl(0, 100%, 60%)" />
<rect x="31" y="27" width="1" height="1" fill="hsl(0, 100%, 60%)" />
<rect x="32" y="27" width="1" height="1" fill="hsl(0, 100%, 60%)" />
<rect x="33" y="27" width="1" height="1" fill="hsl(0, 100%, 60%)" />
<rect x="35" y="27" width="1" height="1" fill="hsl(0, 100%, 60%)" />
<rect x="21" y="28" width="1" height="1" fill="hsl(0, 100%, 60%)" />
<rect x="22" y="28" width="1" height="1" fill="hsl(0, 100%, 60%)" />
<rect x="24" y="28" width="1" height="1" fill="hsl(0, 100%, 60%)" />
<rect x="26" y="28" width="1" height="1" fill="hsl(0, 100%, 60%)" />
<rect x="27" y="28" width="1" height="1" fill="hsl(0, 100%, 60%)" />
<rect x="29" y="28" width="1" height="1" fill="hsl(0, 100%, 60%)" />
<rect x="34" y="28" width="1" height="1" fill="hsl(0, 100%, 60%)" />
<rect x="35" y="28" width="1" height="1" fill="hsl(0, 100%, 60%)" />
<rect x="47" y="28" width="1" height="1" fill="hsl(0, 100%, 60%)" />
<rect x="48" y="28" width="1" height="1" fill="hsl(0, 100%, 60%)" />
<rect x="49" y="28" width="1" height="1" fill="hsl(0, 100%, 60%)" />
<rect x="21" y="29" width="1" height="1" fill="hsl(0, 100%, 60%)" />
<rect x="23" y="29" width="1" height="1" fill="hsl(0, 100%, 60%)" />
<rect x="24" y="29" width="1" height="1" fill="hsl(0, 100%, 60%)" />
<rect x="26" y="29" width="1" height="1" fill="hsl(0, 100%, 60%)" />
<rect x="29" y="29" width="1" height="1" fill="hsl(0, 100%, 60%)" />
<rect x="31" y="29" width="1" height="1" fill="hsl(0, 100%, 60%)" />
<rect x="32" y="29" width="1" height="1" fill="hsl(0, 100%, 60%)" />
<rect x="47" y="29" width="1" height="1" fill="hsl(0, 100%, 60%)" />
<rect x="14" y="30" width="1" height="1" fill="hsl(0, 100%, 60%)" />
<rect x="15" y="30" width="1" height="1" fill="hsl(0, 100%, 60%)" />
<rect x="28" y="30" width="1" height="1" fill="hsl(0, 100%, 60%)" />
<rect x="29" y="30" width="1" height="1" fill="hsl(0, 100%, 60%)" />
<rect x="31" y="30" width="1" height="1" fill="hsl(0, 100%, 60%)" />
<rect x="33" y="30" width="1" height="1" fill="hsl(0, 100%, 60%)" />
<rect x="34" y="30" width="1" height="1" fill="hsl(0, 100%, 60%)" />
<rect x="35" y="30" width="1" height="1" fill="hsl(0, 100%, 60%)" />
<rect x="48" y="30" width="1" height="1" fill="hsl(0, 100%, 60%)" />
<rect x="14" y="31" width="1" height="1" fill="hsl(0, 100%, 60%)" />
<rect x="15" y="31" width="1" height="1" fill="hsl(0, 100%, 60%)" />
<rect x="35" y="31" width="1" height="1" fill="hsl(0, 100%, 60%)" />
</svg>