<?xml version="1.0" encoding="utf-8"?>
<svg xmlns="http://www.w3.org/2000/svg" width="80" height="48" viewBox="0 0 80 48">
<rect width="100%" height="100%" fill="transparent" />
<rect x="8" y="4" width="4" height="4" fill="hsl(0, 100%, 60%)" />
<rect x="68" y="4" width="4" height="4" fill="hsl(0, 100%, 60%)" />
<rect x="8" y="8" width="4" height="4" fill="hsl(0, 100%, 60%)" />
<rect x="68" y="8" width="4" height="4" fill="hsl(0, 100%, 60%)" />
<rect x="4" y="12" width="4" height="4" fill="hsl(0, 100%, 60%)" />
<rect x="12" y="12" width="4" height="4" fill="hsl(0, 100%, 60%)" />
<rect x="64" y="12" width="4" height="4" fill="hsl(0, 100%, 60%)" />
<rect x="72" y="12" width="4" height="4" fill="hsl(0, 100%, 60%)" />
<rect x="8" y="16" width="4" height="4" fill="hsl(0, 100%, 60%)" />
<rect x="68" y="16" width="4" height="4" fill="hsl(0, 100%, 60%)" />
<rect x="8" y="20" width="4" height="4" fill="hsl(0, 100%, 60%)" />
<rect x="36" y="20" width="4" height="4" fill="hsl(0, 100%, 60%)" />
<rect x="68" y="20" width="4" height="4" fill="hsl(0, 100%, 60%)" />
<rect x="8" y="24" width="4" height="4" fill="hsl(0, 100%, 60%)" />
<rect x="36" y="24" width="4" height="4" fill="hsl(0, 100%, 60%)" />
<rect x="40" y="24" width="4" height="4" fill="hsl(0, 100%, 60%)" />
<rect x="68" y="24" width="4" height="4" fill="hsl(0, 100%, 60%)" />
<rect x="8" y="28" width="4" height="4" fill="hsl(0, 100%, 60%)" />
<rect x="36" y="28" width="4" height="4" fill="hsl(0, 100%, 60%)" />
<rect x="40" y="28" width="4" height="4" fill="hsl(0, 100%, 60%)" />
<rect x="68" y="28" width="4" height="4" fill="hsl(0, 100%, 60%)" />
<rect x="4" y="32" width="4" height="4" fill="hsl(0, 100%, 60%)" />
<rect x="12" y="32" width="4" height="4" fill="hsl(0, 100%, 60%)" />
<rect x="40" y="32" width="4" height="4" fill="hsl(0, 100%, 60%)" />
<rect x="64" y="32" width="4" height="4" fill="hsl(0, 100%, 60%)" />
<rect x="72" y="32" width="4" height="4" fill="hsl(0, 100%, 60%)" />
<rect x="8" y="36" width="4" height="4" fill="hsl(0, 100%, 60%)" />
<rect x="68" y="36" width="4" height="4" fill="hsl(0, 100%, 60%)" />
<rect x="8" y="40" width="4" height="4" fill="hsl(0, 100%, 60%)" />
<rect x="68" y="40" width="4" height="4" fill="hsl(0, 100%, 60%)" />
</svg>