<?xml version="1.0" encoding="utf-8"?>
<svg xmlns="http://www.w3.org/2000/svg" width="63" height="45" viewBox="0 0 63 45">
<rect width="100%" height="100%" fill="transparent" />
<rect x="15" y="4" width="1" height="1" fill="hsl(0, 100%, 60%)" />
<rect x="16" y="4" width="1" height="1" fill="hsl(0, 100%, 60%)" />
<rect x="53" y="4" width="1" height="1" fill="hsl(0, 100%, 60%)" />
<rect x="54" y="4" width="1" height="1" fill="hsl(0, 100%, 60%)" />
<rect x="10" y="5" width="1" height="1" fill="hsl(0, 100%, 60%)" />
<rect x="11" y="5" width="1" height="1" fill="hsl(0, 100%, 60%)" />
<rect x="14" y="5" width="1" height="1" fill="hsl(0, 100%, 60%)" />
<rect x="16" y="5" width="1" height="1" fill="hsl(0, 100%, 60%)" />
<rect x="48" y="5" width="1" height="1" fill="hsl(0, 100%, 60%)" />
<rect x="49" y="5" width="1" height="1" fill="hsl(0, 100%, 60%)" />
<rect x="52" y="5" width="1" height="1" fill="hsl(0, 100%, 60%)" />
<rect x="54" y="5" width="1" height="1" fill="hsl(0, 100%, 60%)" />
<rect x="10" y="6" width="1" height="1" fill="hsl(0, 100%, 60%)" />
<rect x="14" y="6" width="1" height="1" fill="hsl(0, 100%, 60%)" />
<rect x="19" y="6" width="1" height="1" fill="hsl(0, 100%, 60%)" />
<rect x="48" y="6" width="1" height="1" fill="hsl(0, 100%, 60%)" />
<rect x="52" y="6" width="1" height="1" fill="hsl(0, 100%, 60%)" />
<rect x="57" y="6" width="1" height="1" fill="hsl(0, 100%, 60%)" />
<rect x="11" y="7" width="1" height="1" fill="hsl(0, 100%, 60%)" />
<rect x="12" y="7" width="1" height="1" fill="hsl(0, 100%, 60%)" />
<rect x="13" y="7" width="1" height="1" fill="hsl(0, 100%, 60%)" />
<rect x="15" y="7" width="1" height="1" fill="hsl(0, 100%, 60%)" />
<rect x="16" y="7" width="1" height="1" fill="hsl(0, 100%, 60%)" />
<rect x="17" y="7" width="1" height="1" fill="hsl(0, 100%, 60%)" />
<rect x="18" y="7" width="1" height="1" fill="hsl(0, 100%, 60%)" />
<rect x="19" y="7" width="1" height="1" fill="hsl(0, 100%, 60%)" />
<rect x="49" y="7" width="1" height="1" fill="hsl(0, 100%, 60%)" />
<rect x="50" y="7" width="1" height="1" fill="hsl(0, 100%, 60%)" />
<rect x="51" y="7" width="1" height="1" fill="hsl(0, 100%, 60%)" />
<rect x="53" y="7" width="1" height="1" fill="hsl(0, 100%, 60%)" />
<rect x="54" y="7" width="1" height="1" fill="hsl(0, 100%, 60%)" />
<rect x="55" y="7" width="1" height="1" fill="hsl(0, 100%, 60%)" />
<rect x="56" y="7" width="1" height="1" fill="hsl(0, 100%, 60%)" />
<rect x="57" y="7" width="1" height="1" fill="hsl(0, 100%, 60%)" />
<rect x="13" y="8" width="1" height="1" fill="hsl(0, 100%, 60%)" />
<rect x="15" y="8" width="1" height="1" fill="hsl(0, 100%, 60%)" />
<rect x="51" y="8" width="1" height="1" fill="hsl(0, 100%, 60%)" />
<rect x="53" y="8" width="1" height="1" fill="hsl(0, 100%, 60%)" />
<rect x="13" y="9" width="1" height="1" fill="hsl(0, 100%, 60%)" />
<rect x="15" y="9" width="1" height="1" fill="hsl(0, 100%, 60%)" />
<rect x="17" y="9" width="1" height="1" fill="hsl(0, 100%, 60%)" />
<rect x="18" y="9" width="1" height="1" fill="hsl(0, 100%, 60%)" />
<rect x="19" y="9" width="1" height="1" fill="hsl(0, 100%, 60%)" />
<rect x="51" y="9" width="1" height="1" fill="hsl(0, 100%, 60%)" />
<rect x="53" y="9" width="1" height="1" fill="hsl(0, 100%, 60%)" />
<rect x="55" y="9" width="1" height="1" fill="hsl(0, 100%, 60%)" />
<rect x="56" y="9" width="1" height="1" fill="hsl(0, 100%, 60%)" />
<rect x="57" y="9" width="1" height="1" fill="hsl(0, 100%, 60%)" />
<rect x="14" y="10" width="1" height="1" fill="hsl(0, 100%, 60%)" />
<rect x="15" y="10" width="1" height="1" fill="hsl(0, 100%, 60%)" />
<rect x="17" y="10" width="1" height="1" fill="hsl(0, 100%, 60%)" />
<rect x="20" y="10" width="1" height="1" fill="hsl(0, 100%, 60%)" />
<rect x="52" y="10" width="1" height="1" fill="hsl(0, 100%, 60%)" />
<rect x="53" y="10" width="1" height="1" fill="hsl(0, 100%, 60%)" />
<rect x="55" y="10" width="1" height="1" fill="hsl(0, 100%, 60%)" />
<rect x="58" y="10" width="1" height="1" fill="hsl(0, 100%, 60%)" />
<rect x="19" y="11" width="1" height="1" fill="hsl(0, 100%, 60%)" />
<rect x="20" y="11" width="1" height="1" fill="hsl(0, 100%, 60%)" />
<rect x="57" y="11" width="1" height="1" fill="hsl(0, 100%, 60%)" />
<rect x="58" y="11" width="1" height="1" fill="hsl(0, 100%, 60%)" />
<rect x="49" y="14" width="1" height="1" fill="hsl(0, 100%, 60%)" />
<rect x="50" y="14" width="1" height="1" fill="hsl(0, 100%, 60%)" />
<rect x="49" y="15" width="1" height="1" fill="hsl(0, 100%, 60%)" />
<rect x="50" y="15" width="1" height="1" fill="hsl(0, 100%, 60%)" />
<rect x="4" y="19" width="1" height="1" fill="hsl(0, 100%, 60%)" />
<rect x="5" y="19" width="1" height="1" fill="hsl(0, 100%, 60%)" />
<rect x="42" y="19" width="1" height="1" fill="hsl(0, 100%, 60%)" />
<rect x="43" y="19" width="1" height="1" fill="hsl(0, 100%, 60%)" />
<rect x="4" y="20" width="1" height="1" fill="hsl(0, 100%, 60%)" />
<rect x="5" y="20" width="1" height="1" fill="hsl(0, 100%, 60%)" />
<rect x="42" y="20" width="1" height="1" fill="hsl(0, 100%, 60%)" />
<rect x="43" y="20" width="1" height="1" fill="hsl(0, 100%, 60%)" />
<rect x="13" y="35" width="1" height="1" fill="hsl(0, 100%, 60%)" />
<rect x="14" y="35" width="1" height="1" fill="hsl(0, 100%, 60%)" />
<rect x="51" y="35" width="1" height="1" fill="hsl(0, 100%, 60%)" />
<rect x="52" y="35" width="1" height="1" fill="hsl(0, 100%, 60%)" />
<rect x="13" y="36" width="1" height="1" fill="hsl(0, 100%, 60%)" />
<rect x="14" y="36" width="1" height="1" fill="hsl(0, 100%, 60%)" />
<rect x="51" y="36" width="1" height="1" fill="hsl(0, 100%, 60%)" />
<rect x="52" y="36" width="1" height="1" fill="hsl(0, 100%, 60%)" />
<rect x="4" y="38" width="1" height="1" fill="hsl(0, 100%, 60%)" />
<rect x="5" y="38" width="1" height="1" fill="hsl(0, 100%, 60%)" />
<rect x="7" y="38" width="1" height="1" fill="hsl(0, 100%, 60%)" />
<rect x="15" y="38" width="1" height="1" fill="hsl(0, 100%, 60%)" />
<rect x="42" y="38" width="1" height="1" fill="hsl(0, 100%, 60%)" />
<rect x="43" y="38" width="1" height="1" fill="hsl(0, 100%, 60%)" />
<rect x="45" y="38" width="1" height="1" fill="hsl(0, 100%, 60%)" />
<rect x="53" y="38" width="1" height="1" fill="hsl(0, 100%, 60%)" />
<rect x="4" y="39" width="1" height="1" fill="hsl(0, 100%, 60%)" />
<rect x="6" y="39" width="1" height="1" fill="hsl(0, 100%, 60%)" />
<rect x="7" y="39" width="1" height="1" fill="hsl(0, 100%, 60%)" />
<rect x="14" y="39" width="1" height="1" fill="hsl(0, 100%, 60%)" />
<rect x="15" y="39" width="1" height="1" fill="hsl(0, 100%, 60%)" />
<rect x="16" y="39" width="1" height="1" fill="hsl(0, 100%, 60%)" />
<rect x="42" y="39" width="1" height="1" fill="hsl(0, 100%, 60%)" />
<rect x="44" y="39" width="1" height="1" fill="hsl(0, 100%, 60%)" />
<rect x="45" y="39" width="1" height="1" fill="hsl(0, 100%, 60%)" />
<rect x="52" y="39" width="1" height="1" fill="hsl(0, 100%, 60%)" />
<rect x="53" y="39" width="1" height="1" fill="hsl(0, 100%, 60%)" />
<rect x="54" y="39" width="1" height="1" fill="hsl(0, 100%, 60%)" />
<rect x="13" y="40" width="1" height="1" fill="hsl(0, 100%, 60%)" />
<rect x="14" y="40" width="1" height="1" fill="hsl(0, 100%, 60%)" />
<rect x="17" y="40" width="1" height="1" fill="hsl(0, 100%, 60%)" />
<rect x="51" y="40" width="1" height="1" fill="hsl(0, 100%, 60%)" />
<rect x="52" y="40" width="1" height="1" fill="hsl(0, 100%, 60%)" />
<rect x="55" y="40" width="1" height="1" fill="hsl(0, 100%, 60%)" />
</svg>