<?xml version="1.0" encoding="utf-8"?>
<svg xmlns="http://www.w3.org/2000/svg" width="95" height="32" viewBox="0 0 95 32">
<rect width="100%" height="100%" fill="transparent" />
<rect x="34" y="4" width="3" height="3" fill="hsl(0, 100%, 60%)" />
<rect x="37" y="4" width="3" height="3" fill="hsl(0, 100%, 60%)" />
<rect x="82" y="4" width="3" height="3" fill="hsl(0, 100%, 60%)" />
<rect x="34" y="7" width="3" height="3" fill="hsl(0, 100%, 60%)" />
<rect x="40" y="7" width="3" height="3" fill="hsl(0, 100%, 60%)" />
<rect x="82" y="7" width="3" height="3" fill="hsl(0, 100%, 60%)" />
<rect x="88" y="7" width="3" height="3" fill="hsl(0, 100%, 60%)" />
<rect x="34" y="10" width="3" height="3" fill="hsl(0, 100%, 60%)" />
<rect x="82" y="10" width="3" height="3" fill="hsl(0, 100%, 60%)" />
<rect x="85" y="10" width="3" height="3" fill="hsl(0, 100%, 60%)" />
<rect x="4" y="25" width="3" height="3" fill="hsl(0, 100%, 60%)" />
<rect x="40" y="25" width="3" height="3" fill="hsl(0, 100%, 60%)" />
<rect x="43" y="25" width="3" height="3" fill="hsl(0, 100%, 60%)" />
<rect x="46" y="25" width="3" height="3" fill="hsl(0, 100%, 60%)" />
<rect x="49" y="25" width="3" height="3" fill="hsl(0, 100%, 60%)" />
</svg>