<?xml version="1.0" encoding="utf-8"?>
<svg xmlns="http://www.w3.org/2000/svg" width="83" height="80" viewBox="0 0 83 80">
<rect width="100%" height="100%" fill="transparent" />
<rect x="4" y="4" width="3" height="3" fill="hsl(0, 100%, 60%)" />
<rect x="7" y="4" width="3" height="3" fill="hsl(0, 100%, 60%)" />
<rect x="7" y="7" width="3" height="3" fill="hsl(0, 100%, 60%)" />
<rect x="7" y="10" width="3" height="3" fill="hsl(0, 100%, 60%)" />
<rect x="13" y="10" width="3" height="3" fill="hsl(0, 100%, 60%)" />
<rect x="10" y="13" width="3" height="3" fill="hsl(0, 100%, 60%)" />
<rect x="13" y="13" width="3" height="3" fill="hsl(0, 100%, 60%)" />
<rect x="73" y="25" width="3" height="3" fill="hsl(0, 100%, 60%)" />
<rect x="76" y="25" width="3" height="3" fill="hsl(0, 100%, 60%)" />
<rect x="73" y="28" width="3" height="3" fill="hsl(0, 100%, 60%)" />
<rect x="76" y="28" width="3" height="3" fill="hsl(0, 100%, 60%)" />
<rect x="10" y="34" width="3" height="3" fill="hsl(0, 100%, 60%)" />
<rect x="10" y="37" width="3" height="3" fill="hsl(0, 100%, 60%)" />
<rect x="16" y="37" width="3" height="3" fill="hsl(0, 100%, 60%)" />
<rect x="10" y="40" width="3" height="3" fill="hsl(0, 100%, 60%)" />
<rect x="13" y="40" width="3" height="3" fill="hsl(0, 100%, 60%)" />
<rect x="16" y="40" width="3" height="3" fill="hsl(0, 100%, 60%)" />
<rect x="16" y="43" width="3" height="3" fill="hsl(0, 100%, 60%)" />
<rect x="43" y="70" width="3" height="3" fill="hsl(0, 100%, 60%)" />
<rect x="46" y="70" width="3" height="3" fill="hsl(0, 100%, 60%)" />
<rect x="43" y="73" width="3" height="3" fill="hsl(0, 100%, 60%)" />
<rect x="46" y="73" width="3" height="3" fill="hsl(0, 100%, 60%)" />
</svg>