<?xml version="1.0" encoding="utf-8"?>
<svg xmlns="http://www.w3.org/2000/svg" width="80" height="80" viewBox="0 0 80 80">
<rect width="100%" height="100%" fill="transparent" />
<rect x="25" y="4" width="3" height="3" fill="hsl(0, 100%, 60%)" />
<rect x="28" y="4" width="3" height="3" fill="hsl(0, 100%, 60%)" />
<rect x="40" y="4" width="3" height="3" fill="hsl(0, 100%, 60%)" />
<rect x="43" y="4" width="3" height="3" fill="hsl(0, 100%, 60%)" />
<rect x="22" y="7" width="3" height="3" fill="hsl(0, 100%, 60%)" />
<rect x="46" y="7" width="3" height="3" fill="hsl(0, 100%, 60%)" />
<rect x="31" y="10" width="3" height="3" fill="hsl(0, 100%, 60%)" />
<rect x="37" y="10" width="3" height="3" fill="hsl(0, 100%, 60%)" />
<rect x="25" y="13" width="3" height="3" fill="hsl(0, 100%, 60%)" />
<rect x="28" y="13" width="3" height="3" fill="hsl(0, 100%, 60%)" />
<rect x="40" y="13" width="3" height="3" fill="hsl(0, 100%, 60%)" />
<rect x="43" y="13" width="3" height="3" fill="hsl(0, 100%, 60%)" />
<rect x="67" y="25" width="3" height="3" fill="hsl(0, 100%, 60%)" />
<rect x="70" y="25" width="3" height="3" fill="hsl(0, 100%, 60%)" />
<rect x="73" y="25" width="3" height="3" fill="hsl(0, 100%, 60%)" />
<rect x="64" y="28" width="3" height="3" fill="hsl(0, 100%, 60%)" />
<rect x="67" y="28" width="3" height="3" fill="hsl(0, 100%, 60%)" />
<rect x="70" y="28" width="3" height="3" fill="hsl(0, 100%, 60%)" />
<rect x="43" y="31" width="3" height="3" fill="hsl(0, 100%, 60%)" />
<rect x="4" y="34" width="3" height="3" fill="hsl(0, 100%, 60%)" />
<rect x="7" y="34" width="3" height="3" fill="hsl(0, 100%, 60%)" />
<rect x="10" y="34" width="3" height="3" fill="hsl(0, 100%, 60%)" />
<rect x="40" y="34" width="3" height="3" fill="hsl(0, 100%, 60%)" />
<rect x="43" y="34" width="3" height="3" fill="hsl(0, 100%, 60%)" />
<rect x="46" y="34" width="3" height="3" fill="hsl(0, 100%, 60%)" />
<rect x="7" y="37" width="3" height="3" fill="hsl(0, 100%, 60%)" />
<rect x="10" y="37" width="3" height="3" fill="hsl(0, 100%, 60%)" />
<rect x="13" y="37" width="3" height="3" fill="hsl(0, 100%, 60%)" />
<rect x="64" y="40" width="3" height="3" fill="hsl(0, 100%, 60%)" />
<rect x="67" y="40" width="3" height="3" fill="hsl(0, 100%, 60%)" />
<rect x="70" y="40" width="3" height="3" fill="hsl(0, 100%, 60%)" />
<rect x="67" y="43" width="3" height="3" fill="hsl(0, 100%, 60%)" />
<rect x="70" y="43" width="3" height="3" fill="hsl(0, 100%, 60%)" />
<rect x="73" y="43" width="3" height="3" fill="hsl(0, 100%, 60%)" />
<rect x="7" y="49" width="3" height="3" fill="hsl(0, 100%, 60%)" />
<rect x="10" y="49" width="3" height="3" fill="hsl(0, 100%, 60%)" />
<rect x="13" y="49" width="3" height="3" fill="hsl(0, 100%, 60%)" />
<rect x="4" y="52" width="3" height="3" fill="hsl(0, 100%, 60%)" />
<rect x="7" y="52" width="3" height="3" fill="hsl(0, 100%, 60%)" />
<rect x="10" y="52" width="3" height="3" fill="hsl(0, 100%, 60%)" />
<rect x="40" y="52" width="3" height="3" fill="hsl(0, 100%, 60%)" />
<rect x="43" y="52" width="3" height="3" fill="hsl(0, 100%, 60%)" />
<rect x="46" y="52" width="3" height="3" fill="hsl(0, 100%, 60%)" />
<rect x="43" y="55" width="3" height="3" fill="hsl(0, 100%, 60%)" />
<rect x="34" y="64" width="3" height="3" fill="hsl(0, 100%, 60%)" />
<rect x="37" y="64" width="3" height="3" fill="hsl(0, 100%, 60%)" />
<rect x="49" y="64" width="3" height="3" fill="hsl(0, 100%, 60%)" />
<rect x="52" y="64" width="3" height="3" fill="hsl(0, 100%, 60%)" />
<rect x="40" y="67" width="3" height="3" fill="hsl(0, 100%, 60%)" />
<rect x="46" y="67" width="3" height="3" fill="hsl(0, 100%, 60%)" />
<rect x="31" y="70" width="3" height="3" fill="hsl(0, 100%, 60%)" />
<rect x="55" y="70" width="3" height="3" fill="hsl(0, 100%, 60%)" />
<rect x="34" y="73" width="3" height="3" fill="hsl(0, 100%, 60%)" />
<rect x="37" y="73" width="3" height="3" fill="hsl(0, 100%, 60%)" />
<rect x="49" y="73" width="3" height="3" fill="hsl(0, 100%, 60%)" />
<rect x="52" y="73" width="3" height="3" fill="hsl(0, 100%, 60%)" />
</svg>