<?xml version="1.0" encoding="utf-8"?>
<svg xmlns="http://www.w3.org/2000/svg" width="90" height="58" viewBox="0 0 90 58">
<rect width="100%" height="100%" fill="transparent" />
<rect x="24" y="4" width="2" height="2" fill="hsl(0, 100%, 60%)" />
<rect x="20" y="6" width="2" height="2" fill="hsl(0, 100%, 60%)" />
<rect x="22" y="6" width="2" height="2" fill="hsl(0, 100%, 60%)" />
<rect x="24" y="6" width="2" height="2" fill="hsl(0, 100%, 60%)" />
<rect x="26" y="6" width="2" height="2" fill="hsl(0, 100%, 60%)" />
<rect x="28" y="6" width="2" height="2" fill="hsl(0, 100%, 60%)" />
<rect x="64" y="6" width="2" height="2" fill="hsl(0, 100%, 60%)" />
<rect x="18" y="8" width="2" height="2" fill="hsl(0, 100%, 60%)" />
<rect x="30" y="8" width="2" height="2" fill="hsl(0, 100%, 60%)" />
<rect x="60" y="8" width="2" height="2" fill="hsl(0, 100%, 60%)" />
<rect x="62" y="8" width="2" height="2" fill="hsl(0, 100%, 60%)" />
<rect x="64" y="8" width="2" height="2" fill="hsl(0, 100%, 60%)" />
<rect x="66" y="8" width="2" height="2" fill="hsl(0, 100%, 60%)" />
<rect x="68" y="8" width="2" height="2" fill="hsl(0, 100%, 60%)" />
<rect x="18" y="10" width="2" height="2" fill="hsl(0, 100%, 60%)" />
<rect x="24" y="10" width="2" height="2" fill="hsl(0, 100%, 60%)" />
<rect x="26" y="10" width="2" height="2" fill="hsl(0, 100%, 60%)" />
<rect x="30" y="10" width="2" height="2" fill="hsl(0, 100%, 60%)" />
<rect x="58" y="10" width="2" height="2" fill="hsl(0, 100%, 60%)" />
<rect x="70" y="10" width="2" height="2" fill="hsl(0, 100%, 60%)" />
<rect x="10" y="12" width="2" height="2" fill="hsl(0, 100%, 60%)" />
<rect x="14" y="12" width="2" height="2" fill="hsl(0, 100%, 60%)" />
<rect x="16" y="12" width="2" height="2" fill="hsl(0, 100%, 60%)" />
<rect x="18" y="12" width="2" height="2" fill="hsl(0, 100%, 60%)" />
<rect x="22" y="12" width="2" height="2" fill="hsl(0, 100%, 60%)" />
<rect x="26" y="12" width="2" height="2" fill="hsl(0, 100%, 60%)" />
<rect x="30" y="12" width="2" height="2" fill="hsl(0, 100%, 60%)" />
<rect x="32" y="12" width="2" height="2" fill="hsl(0, 100%, 60%)" />
<rect x="58" y="12" width="2" height="2" fill="hsl(0, 100%, 60%)" />
<rect x="62" y="12" width="2" height="2" fill="hsl(0, 100%, 60%)" />
<rect x="64" y="12" width="2" height="2" fill="hsl(0, 100%, 60%)" />
<rect x="70" y="12" width="2" height="2" fill="hsl(0, 100%, 60%)" />
<rect x="10" y="14" width="2" height="2" fill="hsl(0, 100%, 60%)" />
<rect x="12" y="14" width="2" height="2" fill="hsl(0, 100%, 60%)" />
<rect x="22" y="14" width="2" height="2" fill="hsl(0, 100%, 60%)" />
<rect x="56" y="14" width="2" height="2" fill="hsl(0, 100%, 60%)" />
<rect x="58" y="14" width="2" height="2" fill="hsl(0, 100%, 60%)" />
<rect x="62" y="14" width="2" height="2" fill="hsl(0, 100%, 60%)" />
<rect x="66" y="14" width="2" height="2" fill="hsl(0, 100%, 60%)" />
<rect x="70" y="14" width="2" height="2" fill="hsl(0, 100%, 60%)" />
<rect x="72" y="14" width="2" height="2" fill="hsl(0, 100%, 60%)" />
<rect x="74" y="14" width="2" height="2" fill="hsl(0, 100%, 60%)" />
<rect x="78" y="14" width="2" height="2" fill="hsl(0, 100%, 60%)" />
<rect x="16" y="16" width="2" height="2" fill="hsl(0, 100%, 60%)" />
<rect x="18" y="16" width="2" height="2" fill="hsl(0, 100%, 60%)" />
<rect x="22" y="16" width="2" height="2" fill="hsl(0, 100%, 60%)" />
<rect x="24" y="16" width="2" height="2" fill="hsl(0, 100%, 60%)" />
<rect x="66" y="16" width="2" height="2" fill="hsl(0, 100%, 60%)" />
<rect x="76" y="16" width="2" height="2" fill="hsl(0, 100%, 60%)" />
<rect x="78" y="16" width="2" height="2" fill="hsl(0, 100%, 60%)" />
<rect x="6" y="18" width="2" height="2" fill="hsl(0, 100%, 60%)" />
<rect x="8" y="18" width="2" height="2" fill="hsl(0, 100%, 60%)" />
<rect x="10" y="18" width="2" height="2" fill="hsl(0, 100%, 60%)" />
<rect x="12" y="18" width="2" height="2" fill="hsl(0, 100%, 60%)" />
<rect x="14" y="18" width="2" height="2" fill="hsl(0, 100%, 60%)" />
<rect x="18" y="18" width="2" height="2" fill="hsl(0, 100%, 60%)" />
<rect x="22" y="18" width="2" height="2" fill="hsl(0, 100%, 60%)" />
<rect x="28" y="18" width="2" height="2" fill="hsl(0, 100%, 60%)" />
<rect x="64" y="18" width="2" height="2" fill="hsl(0, 100%, 60%)" />
<rect x="66" y="18" width="2" height="2" fill="hsl(0, 100%, 60%)" />
<rect x="70" y="18" width="2" height="2" fill="hsl(0, 100%, 60%)" />
<rect x="72" y="18" width="2" height="2" fill="hsl(0, 100%, 60%)" />
<rect x="4" y="20" width="2" height="2" fill="hsl(0, 100%, 60%)" />
<rect x="18" y="20" width="2" height="2" fill="hsl(0, 100%, 60%)" />
<rect x="26" y="20" width="2" height="2" fill="hsl(0, 100%, 60%)" />
<rect x="30" y="20" width="2" height="2" fill="hsl(0, 100%, 60%)" />
<rect x="60" y="20" width="2" height="2" fill="hsl(0, 100%, 60%)" />
<rect x="66" y="20" width="2" height="2" fill="hsl(0, 100%, 60%)" />
<rect x="70" y="20" width="2" height="2" fill="hsl(0, 100%, 60%)" />
<rect x="74" y="20" width="2" height="2" fill="hsl(0, 100%, 60%)" />
<rect x="76" y="20" width="2" height="2" fill="hsl(0, 100%, 60%)" />
<rect x="78" y="20" width="2" height="2" fill="hsl(0, 100%, 60%)" />
<rect x="80" y="20" width="2" height="2" fill="hsl(0, 100%, 60%)" />
<rect x="82" y="20" width="2" height="2" fill="hsl(0, 100%, 60%)" />
<rect x="4" y="22" width="2" height="2" fill="hsl(0, 100%, 60%)" />
<rect x="6" y="22" width="2" height="2" fill="hsl(0, 100%, 60%)" />
<rect x="12" y="22" width="2" height="2" fill="hsl(0, 100%, 60%)" />
<rect x="14" y="22" width="2" height="2" fill="hsl(0, 100%, 60%)" />
<rect x="16" y="22" width="2" height="2" fill="hsl(0, 100%, 60%)" />
<rect x="18" y="22" width="2" height="2" fill="hsl(0, 100%, 60%)" />
<rect x="20" y="22" width="2" height="2" fill="hsl(0, 100%, 60%)" />
<rect x="24" y="22" width="2" height="2" fill="hsl(0, 100%, 60%)" />
<rect x="26" y="22" width="2" height="2" fill="hsl(0, 100%, 60%)" />
<rect x="30" y="22" width="2" height="2" fill="hsl(0, 100%, 60%)" />
<rect x="58" y="22" width="2" height="2" fill="hsl(0, 100%, 60%)" />
<rect x="62" y="22" width="2" height="2" fill="hsl(0, 100%, 60%)" />
<rect x="70" y="22" width="2" height="2" fill="hsl(0, 100%, 60%)" />
<rect x="84" y="22" width="2" height="2" fill="hsl(0, 100%, 60%)" />
<rect x="28" y="24" width="2" height="2" fill="hsl(0, 100%, 60%)" />
<rect x="30" y="24" width="2" height="2" fill="hsl(0, 100%, 60%)" />
<rect x="58" y="24" width="2" height="2" fill="hsl(0, 100%, 60%)" />
<rect x="62" y="24" width="2" height="2" fill="hsl(0, 100%, 60%)" />
<rect x="64" y="24" width="2" height="2" fill="hsl(0, 100%, 60%)" />
<rect x="68" y="24" width="2" height="2" fill="hsl(0, 100%, 60%)" />
<rect x="70" y="24" width="2" height="2" fill="hsl(0, 100%, 60%)" />
<rect x="72" y="24" width="2" height="2" fill="hsl(0, 100%, 60%)" />
<rect x="74" y="24" width="2" height="2" fill="hsl(0, 100%, 60%)" />
<rect x="76" y="24" width="2" height="2" fill="hsl(0, 100%, 60%)" />
<rect x="82" y="24" width="2" height="2" fill="hsl(0, 100%, 60%)" />
<rect x="84" y="24" width="2" height="2" fill="hsl(0, 100%, 60%)" />
<rect x="14" y="26" width="2" height="2" fill="hsl(0, 100%, 60%)" />
<rect x="16" y="26" width="2" height="2" fill="hsl(0, 100%, 60%)" />
<rect x="26" y="26" width="2" height="2" fill="hsl(0, 100%, 60%)" />
<rect x="28" y="26" width="2" height="2" fill="hsl(0, 100%, 60%)" />
<rect x="30" y="26" width="2" height="2" fill="hsl(0, 100%, 60%)" />
<rect x="58" y="26" width="2" height="2" fill="hsl(0, 100%, 60%)" />
<rect x="60" y="26" width="2" height="2" fill="hsl(0, 100%, 60%)" />
<rect x="14" y="28" width="2" height="2" fill="hsl(0, 100%, 60%)" />
<rect x="16" y="28" width="2" height="2" fill="hsl(0, 100%, 60%)" />
<rect x="26" y="28" width="2" height="2" fill="hsl(0, 100%, 60%)" />
<rect x="28" y="28" width="2" height="2" fill="hsl(0, 100%, 60%)" />
<rect x="30" y="28" width="2" height="2" fill="hsl(0, 100%, 60%)" />
<rect x="42" y="28" width="2" height="2" fill="hsl(0, 100%, 60%)" />
<rect x="44" y="28" width="2" height="2" fill="hsl(0, 100%, 60%)" />
<rect x="58" y="28" width="2" height="2" fill="hsl(0, 100%, 60%)" />
<rect x="60" y="28" width="2" height="2" fill="hsl(0, 100%, 60%)" />
<rect x="62" y="28" width="2" height="2" fill="hsl(0, 100%, 60%)" />
<rect x="72" y="28" width="2" height="2" fill="hsl(0, 100%, 60%)" />
<rect x="74" y="28" width="2" height="2" fill="hsl(0, 100%, 60%)" />
<rect x="28" y="30" width="2" height="2" fill="hsl(0, 100%, 60%)" />
<rect x="30" y="30" width="2" height="2" fill="hsl(0, 100%, 60%)" />
<rect x="40" y="30" width="2" height="2" fill="hsl(0, 100%, 60%)" />
<rect x="46" y="30" width="2" height="2" fill="hsl(0, 100%, 60%)" />
<rect x="58" y="30" width="2" height="2" fill="hsl(0, 100%, 60%)" />
<rect x="60" y="30" width="2" height="2" fill="hsl(0, 100%, 60%)" />
<rect x="62" y="30" width="2" height="2" fill="hsl(0, 100%, 60%)" />
<rect x="72" y="30" width="2" height="2" fill="hsl(0, 100%, 60%)" />
<rect x="74" y="30" width="2" height="2" fill="hsl(0, 100%, 60%)" />
<rect x="4" y="32" width="2" height="2" fill="hsl(0, 100%, 60%)" />
<rect x="6" y="32" width="2" height="2" fill="hsl(0, 100%, 60%)" />
<rect x="12" y="32" width="2" height="2" fill="hsl(0, 100%, 60%)" />
<rect x="14" y="32" width="2" height="2" fill="hsl(0, 100%, 60%)" />
<rect x="16" y="32" width="2" height="2" fill="hsl(0, 100%, 60%)" />
<rect x="18" y="32" width="2" height="2" fill="hsl(0, 100%, 60%)" />
<rect x="20" y="32" width="2" height="2" fill="hsl(0, 100%, 60%)" />
<rect x="24" y="32" width="2" height="2" fill="hsl(0, 100%, 60%)" />
<rect x="26" y="32" width="2" height="2" fill="hsl(0, 100%, 60%)" />
<rect x="30" y="32" width="2" height="2" fill="hsl(0, 100%, 60%)" />
<rect x="42" y="32" width="2" height="2" fill="hsl(0, 100%, 60%)" />
<rect x="46" y="32" width="2" height="2" fill="hsl(0, 100%, 60%)" />
<rect x="58" y="32" width="2" height="2" fill="hsl(0, 100%, 60%)" />
<rect x="60" y="32" width="2" height="2" fill="hsl(0, 100%, 60%)" />
<rect x="4" y="34" width="2" height="2" fill="hsl(0, 100%, 60%)" />
<rect x="18" y="34" width="2" height="2" fill="hsl(0, 100%, 60%)" />
<rect x="26" y="34" width="2" height="2" fill="hsl(0, 100%, 60%)" />
<rect x="30" y="34" width="2" height="2" fill="hsl(0, 100%, 60%)" />
<rect x="44" y="34" width="2" height="2" fill="hsl(0, 100%, 60%)" />
<rect x="58" y="34" width="2" height="2" fill="hsl(0, 100%, 60%)" />
<rect x="62" y="34" width="2" height="2" fill="hsl(0, 100%, 60%)" />
<rect x="64" y="34" width="2" height="2" fill="hsl(0, 100%, 60%)" />
<rect x="68" y="34" width="2" height="2" fill="hsl(0, 100%, 60%)" />
<rect x="70" y="34" width="2" height="2" fill="hsl(0, 100%, 60%)" />
<rect x="72" y="34" width="2" height="2" fill="hsl(0, 100%, 60%)" />
<rect x="74" y="34" width="2" height="2" fill="hsl(0, 100%, 60%)" />
<rect x="76" y="34" width="2" height="2" fill="hsl(0, 100%, 60%)" />
<rect x="82" y="34" width="2" height="2" fill="hsl(0, 100%, 60%)" />
<rect x="84" y="34" width="2" height="2" fill="hsl(0, 100%, 60%)" />
<rect x="6" y="36" width="2" height="2" fill="hsl(0, 100%, 60%)" />
<rect x="8" y="36" width="2" height="2" fill="hsl(0, 100%, 60%)" />
<rect x="10" y="36" width="2" height="2" fill="hsl(0, 100%, 60%)" />
<rect x="12" y="36" width="2" height="2" fill="hsl(0, 100%, 60%)" />
<rect x="14" y="36" width="2" height="2" fill="hsl(0, 100%, 60%)" />
<rect x="18" y="36" width="2" height="2" fill="hsl(0, 100%, 60%)" />
<rect x="22" y="36" width="2" height="2" fill="hsl(0, 100%, 60%)" />
<rect x="28" y="36" width="2" height="2" fill="hsl(0, 100%, 60%)" />
<rect x="58" y="36" width="2" height="2" fill="hsl(0, 100%, 60%)" />
<rect x="62" y="36" width="2" height="2" fill="hsl(0, 100%, 60%)" />
<rect x="70" y="36" width="2" height="2" fill="hsl(0, 100%, 60%)" />
<rect x="84" y="36" width="2" height="2" fill="hsl(0, 100%, 60%)" />
<rect x="16" y="38" width="2" height="2" fill="hsl(0, 100%, 60%)" />
<rect x="18" y="38" width="2" height="2" fill="hsl(0, 100%, 60%)" />
<rect x="22" y="38" width="2" height="2" fill="hsl(0, 100%, 60%)" />
<rect x="24" y="38" width="2" height="2" fill="hsl(0, 100%, 60%)" />
<rect x="60" y="38" width="2" height="2" fill="hsl(0, 100%, 60%)" />
<rect x="66" y="38" width="2" height="2" fill="hsl(0, 100%, 60%)" />
<rect x="70" y="38" width="2" height="2" fill="hsl(0, 100%, 60%)" />
<rect x="74" y="38" width="2" height="2" fill="hsl(0, 100%, 60%)" />
<rect x="76" y="38" width="2" height="2" fill="hsl(0, 100%, 60%)" />
<rect x="78" y="38" width="2" height="2" fill="hsl(0, 100%, 60%)" />
<rect x="80" y="38" width="2" height="2" fill="hsl(0, 100%, 60%)" />
<rect x="82" y="38" width="2" height="2" fill="hsl(0, 100%, 60%)" />
<rect x="10" y="40" width="2" height="2" fill="hsl(0, 100%, 60%)" />
<rect x="12" y="40" width="2" height="2" fill="hsl(0, 100%, 60%)" />
<rect x="22" y="40" width="2" height="2" fill="hsl(0, 100%, 60%)" />
<rect x="64" y="40" width="2" height="2" fill="hsl(0, 100%, 60%)" />
<rect x="66" y="40" width="2" height="2" fill="hsl(0, 100%, 60%)" />
<rect x="70" y="40" width="2" height="2" fill="hsl(0, 100%, 60%)" />
<rect x="72" y="40" width="2" height="2" fill="hsl(0, 100%, 60%)" />
<rect x="10" y="42" width="2" height="2" fill="hsl(0, 100%, 60%)" />
<rect x="14" y="42" width="2" height="2" fill="hsl(0, 100%, 60%)" />
<rect x="16" y="42" width="2" height="2" fill="hsl(0, 100%, 60%)" />
<rect x="18" y="42" width="2" height="2" fill="hsl(0, 100%, 60%)" />
<rect x="22" y="42" width="2" height="2" fill="hsl(0, 100%, 60%)" />
<rect x="26" y="42" width="2" height="2" fill="hsl(0, 100%, 60%)" />
<rect x="30" y="42" width="2" height="2" fill="hsl(0, 100%, 60%)" />
<rect x="32" y="42" width="2" height="2" fill="hsl(0, 100%, 60%)" />
<rect x="66" y="42" width="2" height="2" fill="hsl(0, 100%, 60%)" />
<rect x="76" y="42" width="2" height="2" fill="hsl(0, 100%, 60%)" />
<rect x="78" y="42" width="2" height="2" fill="hsl(0, 100%, 60%)" />
<rect x="18" y="44" width="2" height="2" fill="hsl(0, 100%, 60%)" />
<rect x="24" y="44" width="2" height="2" fill="hsl(0, 100%, 60%)" />
<rect x="26" y="44" width="2" height="2" fill="hsl(0, 100%, 60%)" />
<rect x="30" y="44" width="2" height="2" fill="hsl(0, 100%, 60%)" />
<rect x="56" y="44" width="2" height="2" fill="hsl(0, 100%, 60%)" />
<rect x="58" y="44" width="2" height="2" fill="hsl(0, 100%, 60%)" />
<rect x="62" y="44" width="2" height="2" fill="hsl(0, 100%, 60%)" />
<rect x="66" y="44" width="2" height="2" fill="hsl(0, 100%, 60%)" />
<rect x="70" y="44" width="2" height="2" fill="hsl(0, 100%, 60%)" />
<rect x="72" y="44" width="2" height="2" fill="hsl(0, 100%, 60%)" />
<rect x="74" y="44" width="2" height="2" fill="hsl(0, 100%, 60%)" />
<rect x="78" y="44" width="2" height="2" fill="hsl(0, 100%, 60%)" />
<rect x="18" y="46" width="2" height="2" fill="hsl(0, 100%, 60%)" />
<rect x="30" y="46" width="2" height="2" fill="hsl(0, 100%, 60%)" />
<rect x="58" y="46" width="2" height="2" fill="hsl(0, 100%, 60%)" />
<rect x="62" y="46" width="2" height="2" fill="hsl(0, 100%, 60%)" />
<rect x="64" y="46" width="2" height="2" fill="hsl(0, 100%, 60%)" />
<rect x="70" y="46" width="2" height="2" fill="hsl(0, 100%, 60%)" />
<rect x="20" y="48" width="2" height="2" fill="hsl(0, 100%, 60%)" />
<rect x="22" y="48" width="2" height="2" fill="hsl(0, 100%, 60%)" />
<rect x="24" y="48" width="2" height="2" fill="hsl(0, 100%, 60%)" />
<rect x="26" y="48" width="2" height="2" fill="hsl(0, 100%, 60%)" />
<rect x="28" y="48" width="2" height="2" fill="hsl(0, 100%, 60%)" />
<rect x="58" y="48" width="2" height="2" fill="hsl(0, 100%, 60%)" />
<rect x="70" y="48" width="2" height="2" fill="hsl(0, 100%, 60%)" />
<rect x="24" y="50" width="2" height="2" fill="hsl(0, 100%, 60%)" />
<rect x="60" y="50" width="2" height="2" fill="hsl(0, 100%, 60%)" />
<rect x="62" y="50" width="2" height="2" fill="hsl(0, 100%, 60%)" />
<rect x="64" y="50" width="2" height="2" fill="hsl(0, 100%, 60%)" />
<rect x="66" y="50" width="2" height="2" fill="hsl(0, 100%, 60%)" />
<rect x="68" y="50" width="2" height="2" fill="hsl(0, 100%, 60%)" />
<rect x="64" y="52" width="2" height="2" fill="hsl(0, 100%, 60%)" />
</svg>