<?xml version="1.0" encoding="utf-8"?>
<svg xmlns="http://www.w3.org/2000/svg" width="90" height="106" viewBox="0 0 90 106">
<rect width="100%" height="100%" fill="transparent" />
<rect x="28" y="4" width="2" height="2" fill="#4aff6c" />
<rect x="28" y="6" width="2" height="2" fill="#4aff6c" />
<rect x="40" y="6" width="2" height="2" fill="#4aff6c" />
<rect x="42" y="6" width="2" height="2" fill="#4aff6c" />
<rect x="44" y="6" width="2" height="2" fill="#4aff6c" />
<rect x="26" y="8" width="2" height="2" fill="#4aff6c" />
<rect x="30" y="8" width="2" height="2" fill="#4aff6c" />
<rect x="38" y="8" width="2" height="2" fill="#4aff6c" />
<rect x="40" y="8" width="2" height="2" fill="#4aff6c" />
<rect x="46" y="8" width="2" height="2" fill="#4aff6c" />
<rect x="28" y="10" width="2" height="2" fill="#4aff6c" />
<rect x="36" y="10" width="2" height="2" fill="#4aff6c" />
<rect x="48" y="10" width="2" height="2" fill="#4aff6c" />
<rect x="28" y="12" width="2" height="2" fill="#4aff6c" />
<rect x="36" y="12" width="2" height="2" fill="#4aff6c" />
<rect x="38" y="14" width="2" height="2" fill="#4aff6c" />
<rect x="44" y="14" width="2" height="2" fill="#4aff6c" />
<rect x="46" y="14" width="2" height="2" fill="#4aff6c" />
<rect x="40" y="16" width="2" height="2" fill="#4aff6c" />
<rect x="42" y="16" width="2" height="2" fill="#4aff6c" />
<rect x="66" y="16" width="2" height="2" fill="#4aff6c" />
<rect x="68" y="16" width="2" height="2" fill="#4aff6c" />
<rect x="66" y="18" width="2" height="2" fill="#4aff6c" />
<rect x="68" y="18" width="2" height="2" fill="#4aff6c" />
<rect x="6" y="32" width="2" height="2" fill="#4aff6c" />
<rect x="8" y="32" width="2" height="2" fill="#4aff6c" />
<rect x="10" y="32" width="2" height="2" fill="#4aff6c" />
<rect x="82" y="32" width="2" height="2" fill="#4aff6c" />
<rect x="84" y="32" width="2" height="2" fill="#4aff6c" />
<rect x="6" y="34" width="2" height="2" fill="#4aff6c" />
<rect x="8" y="34" width="2" height="2" fill="#4aff6c" />
<rect x="10" y="34" width="2" height="2" fill="#4aff6c" />
<rect x="54" y="34" width="2" height="2" fill="#4aff6c" />
<rect x="82" y="34" width="2" height="2" fill="#4aff6c" />
<rect x="84" y="34" width="2" height="2" fill="#4aff6c" />
<rect x="8" y="36" width="2" height="2" fill="#4aff6c" />
<rect x="34" y="36" width="2" height="2" fill="#4aff6c" />
<rect x="36" y="36" width="2" height="2" fill="#4aff6c" />
<rect x="56" y="36" width="2" height="2" fill="#4aff6c" />
<rect x="58" y="36" width="2" height="2" fill="#4aff6c" />
<rect x="10" y="38" width="2" height="2" fill="#4aff6c" />
<rect x="12" y="38" width="2" height="2" fill="#4aff6c" />
<rect x="32" y="38" width="2" height="2" fill="#4aff6c" />
<rect x="36" y="38" width="2" height="2" fill="#4aff6c" />
<rect x="38" y="38" width="2" height="2" fill="#4aff6c" />
<rect x="40" y="38" width="2" height="2" fill="#4aff6c" />
<rect x="58" y="38" width="2" height="2" fill="#4aff6c" />
<rect x="60" y="38" width="2" height="2" fill="#4aff6c" />
<rect x="12" y="40" width="2" height="2" fill="#4aff6c" />
<rect x="32" y="40" width="2" height="2" fill="#4aff6c" />
<rect x="40" y="40" width="2" height="2" fill="#4aff6c" />
<rect x="62" y="40" width="2" height="2" fill="#4aff6c" />
<rect x="10" y="42" width="2" height="2" fill="#4aff6c" />
<rect x="34" y="42" width="2" height="2" fill="#4aff6c" />
<rect x="36" y="42" width="2" height="2" fill="#4aff6c" />
<rect x="40" y="42" width="2" height="2" fill="#4aff6c" />
<rect x="52" y="42" width="2" height="2" fill="#4aff6c" />
<rect x="54" y="42" width="2" height="2" fill="#4aff6c" />
<rect x="56" y="42" width="2" height="2" fill="#4aff6c" />
<rect x="58" y="42" width="2" height="2" fill="#4aff6c" />
<rect x="60" y="42" width="2" height="2" fill="#4aff6c" />
<rect x="36" y="44" width="2" height="2" fill="#4aff6c" />
<rect x="58" y="44" width="2" height="2" fill="#4aff6c" />
<rect x="6" y="50" width="2" height="2" fill="#4aff6c" />
<rect x="8" y="50" width="2" height="2" fill="#4aff6c" />
<rect x="6" y="52" width="2" height="2" fill="#4aff6c" />
<rect x="8" y="52" width="2" height="2" fill="#4aff6c" />
<rect x="8" y="54" width="2" height="2" fill="#4aff6c" />
<rect x="8" y="56" width="2" height="2" fill="#4aff6c" />
<rect x="6" y="58" width="2" height="2" fill="#4aff6c" />
<rect x="10" y="58" width="2" height="2" fill="#4aff6c" />
<rect x="4" y="60" width="2" height="2" fill="#4aff6c" />
<rect x="6" y="62" width="2" height="2" fill="#4aff6c" />
<rect x="12" y="62" width="2" height="2" fill="#4aff6c" />
<rect x="14" y="62" width="2" height="2" fill="#4aff6c" />
<rect x="8" y="64" width="2" height="2" fill="#4aff6c" />
<rect x="16" y="64" width="2" height="2" fill="#4aff6c" />
<rect x="12" y="66" width="2" height="2" fill="#4aff6c" />
<rect x="14" y="66" width="2" height="2" fill="#4aff6c" />
<rect x="12" y="68" width="2" height="2" fill="#4aff6c" />
<rect x="16" y="82" width="2" height="2" fill="#4aff6c" />
<rect x="18" y="82" width="2" height="2" fill="#4aff6c" />
<rect x="16" y="84" width="2" height="2" fill="#4aff6c" />
<rect x="18" y="84" width="2" height="2" fill="#4aff6c" />
<rect x="42" y="86" width="2" height="2" fill="#4aff6c" />
<rect x="42" y="88" width="2" height="2" fill="#4aff6c" />
<rect x="44" y="88" width="2" height="2" fill="#4aff6c" />
<rect x="46" y="88" width="2" height="2" fill="#4aff6c" />
<rect x="44" y="90" width="2" height="2" fill="#4aff6c" />
<rect x="46" y="90" width="2" height="2" fill="#4aff6c" />
<rect x="44" y="92" width="2" height="2" fill="#4aff6c" />
<rect x="40" y="96" width="2" height="2" fill="#4aff6c" />
<rect x="42" y="96" width="2" height="2" fill="#4aff6c" />
<rect x="46" y="96" width="2" height="2" fill="#4aff6c" />
<rect x="40" y="98" width="2" height="2" fill="#4aff6c" />
<rect x="42" y="98" width="2" height="2" fill="#4aff6c" />
<rect x="44" y="98" width="2" height="2" fill="#4aff6c" />
<rect x="46" y="98" width="2" height="2" fill="#4aff6c" />
<rect x="44" y="100" width="2" height="2" fill="#4aff6c" />
<rect x="46" y="100" width="2" height="2" fill="#4aff6c" />
</svg>