<?xml version="1.0" encoding="utf-8"?>
<svg xmlns="http://www.w3.org/2000/svg" width="120" height="43" viewBox="0 0 120 43">
<rect width="100%" height="100%" fill="transparent" />
<rect x="53" y="4" width="7" height="7" fill="#4aff6c" />
<rect x="60" y="4" width="7" height="7" fill="#4aff6c" />
<rect x="74" y="4" width="7" height="7" fill="#4aff6c" />
<rect x="32" y="11" width="7" height="7" fill="#4aff6c" />
<rect x="39" y="11" width="7" height="7" fill="#4aff6c" />
<rect x="53" y="11" width="7" height="7" fill="#4aff6c" />
<rect x="67" y="11" width="7" height="7" fill="#4aff6c" />
<rect x="74" y="11" width="7" height="7" fill="#4aff6c" />
<rect x="88" y="11" width="7" height="7" fill="#4aff6c" />
<rect x="95" y="11" width="7" height="7" fill="#4aff6c" />
<rect x="102" y="11" width="7" height="7" fill="#4aff6c" />
<rect x="11" y="18" width="7" height="7" fill="#4aff6c" />
<rect x="18" y="18" width="7" height="7" fill="#4aff6c" />
<rect x="25" y="18" width="7" height="7" fill="#4aff6c" />
<rect x="32" y="18" width="7" height="7" fill="#4aff6c" />
<rect x="53" y="18" width="7" height="7" fill="#4aff6c" />
<rect x="60" y="18" width="7" height="7" fill="#4aff6c" />
<rect x="109" y="18" width="7" height="7" fill="#4aff6c" />
<rect x="4" y="25" width="7" height="7" fill="#4aff6c" />
<rect x="39" y="25" width="7" height="7" fill="#4aff6c" />
<rect x="67" y="25" width="7" height="7" fill="#4aff6c" />
<rect x="95" y="25" width="7" height="7" fill="#4aff6c" />
<rect x="102" y="25" width="7" height="7" fill="#4aff6c" />
<rect x="11" y="32" width="7" height="7" fill="#4aff6c" />
<rect x="18" y="32" width="7" height="7" fill="#4aff6c" />
</svg>