<?xml version="1.0" encoding="utf-8"?>
<svg xmlns="http://www.w3.org/2000/svg" width="125" height="107" viewBox="0 0 125 107">
<rect width="100%" height="100%" fill="transparent" />
<rect x="40" y="4" width="9" height="9" fill="#4aff6c" />
<rect x="31" y="13" width="9" height="9" fill="#4aff6c" />
<rect x="40" y="13" width="9" height="9" fill="#4aff6c" />
<rect x="49" y="13" width="9" height="9" fill="#4aff6c" />
<rect x="22" y="22" width="9" height="9" fill="#4aff6c" />
<rect x="31" y="22" width="9" height="9" fill="#4aff6c" />
<rect x="49" y="22" width="9" height="9" fill="#4aff6c" />
<rect x="58" y="22" width="9" height="9" fill="#4aff6c" />
<rect x="13" y="40" width="9" height="9" fill="#4aff6c" />
<rect x="31" y="40" width="9" height="9" fill="#4aff6c" />
<rect x="49" y="40" width="9" height="9" fill="#4aff6c" />
<rect x="67" y="40" width="9" height="9" fill="#4aff6c" />
<rect x="94" y="40" width="9" height="9" fill="#4aff6c" />
<rect x="4" y="49" width="9" height="9" fill="#4aff6c" />
<rect x="13" y="49" width="9" height="9" fill="#4aff6c" />
<rect x="49" y="49" width="9" height="9" fill="#4aff6c" />
<rect x="85" y="49" width="9" height="9" fill="#4aff6c" />
<rect x="94" y="49" width="9" height="9" fill="#4aff6c" />
<rect x="103" y="49" width="9" height="9" fill="#4aff6c" />
<rect x="4" y="58" width="9" height="9" fill="#4aff6c" />
<rect x="13" y="58" width="9" height="9" fill="#4aff6c" />
<rect x="49" y="58" width="9" height="9" fill="#4aff6c" />
<rect x="112" y="58" width="9" height="9" fill="#4aff6c" />
<rect x="94" y="67" width="9" height="9" fill="#4aff6c" />
<rect x="112" y="67" width="9" height="9" fill="#4aff6c" />
<rect x="76" y="76" width="9" height="9" fill="#4aff6c" />
<rect x="94" y="76" width="9" height="9" fill="#4aff6c" />
<rect x="85" y="85" width="9" height="9" fill="#4aff6c" />
<rect x="112" y="85" width="9" height="9" fill="#4aff6c" />
<rect x="112" y="94" width="9" height="9" fill="#4aff6c" />
</svg>