<?xml version="1.0" encoding="utf-8"?>
<svg xmlns="http://www.w3.org/2000/svg" width="116" height="104" viewBox="0 0 116 104">
<rect width="100%" height="100%" fill="transparent" />
<rect x="16" y="4" width="6" height="6" fill="#4aff6c" />
<rect x="94" y="4" width="6" height="6" fill="#4aff6c" />
<rect x="10" y="10" width="6" height="6" fill="#4aff6c" />
<rect x="22" y="10" width="6" height="6" fill="#4aff6c" />
<rect x="88" y="10" width="6" height="6" fill="#4aff6c" />
<rect x="100" y="10" width="6" height="6" fill="#4aff6c" />
<rect x="4" y="16" width="6" height="6" fill="#4aff6c" />
<rect x="10" y="16" width="6" height="6" fill="#4aff6c" />
<rect x="22" y="16" width="6" height="6" fill="#4aff6c" />
<rect x="28" y="16" width="6" height="6" fill="#4aff6c" />
<rect x="82" y="16" width="6" height="6" fill="#4aff6c" />
<rect x="88" y="16" width="6" height="6" fill="#4aff6c" />
<rect x="100" y="16" width="6" height="6" fill="#4aff6c" />
<rect x="106" y="16" width="6" height="6" fill="#4aff6c" />
<rect x="4" y="22" width="6" height="6" fill="#4aff6c" />
<rect x="10" y="22" width="6" height="6" fill="#4aff6c" />
<rect x="100" y="22" width="6" height="6" fill="#4aff6c" />
<rect x="106" y="22" width="6" height="6" fill="#4aff6c" />
<rect x="16" y="28" width="6" height="6" fill="#4aff6c" />
<rect x="94" y="28" width="6" height="6" fill="#4aff6c" />
<rect x="16" y="34" width="6" height="6" fill="#4aff6c" />
<rect x="22" y="34" width="6" height="6" fill="#4aff6c" />
<rect x="28" y="34" width="6" height="6" fill="#4aff6c" />
<rect x="34" y="34" width="6" height="6" fill="#4aff6c" />
<rect x="76" y="34" width="6" height="6" fill="#4aff6c" />
<rect x="82" y="34" width="6" height="6" fill="#4aff6c" />
<rect x="88" y="34" width="6" height="6" fill="#4aff6c" />
<rect x="94" y="34" width="6" height="6" fill="#4aff6c" />
<rect x="16" y="40" width="6" height="6" fill="#4aff6c" />
<rect x="34" y="40" width="6" height="6" fill="#4aff6c" />
<rect x="40" y="40" width="6" height="6" fill="#4aff6c" />
<rect x="70" y="40" width="6" height="6" fill="#4aff6c" />
<rect x="76" y="40" width="6" height="6" fill="#4aff6c" />
<rect x="94" y="40" width="6" height="6" fill="#4aff6c" />
<rect x="22" y="46" width="6" height="6" fill="#4aff6c" />
<rect x="28" y="46" width="6" height="6" fill="#4aff6c" />
<rect x="46" y="46" width="6" height="6" fill="#4aff6c" />
<rect x="64" y="46" width="6" height="6" fill="#4aff6c" />
<rect x="82" y="46" width="6" height="6" fill="#4aff6c" />
<rect x="88" y="46" width="6" height="6" fill="#4aff6c" />
<rect x="28" y="52" width="6" height="6" fill="#4aff6c" />
<rect x="34" y="52" width="6" height="6" fill="#4aff6c" />
<rect x="46" y="52" width="6" height="6" fill="#4aff6c" />
<rect x="52" y="52" width="6" height="6" fill="#4aff6c" />
<rect x="58" y="52" width="6" height="6" fill="#4aff6c" />
<rect x="64" y="52" width="6" height="6" fill="#4aff6c" />
<rect x="76" y="52" width="6" height="6" fill="#4aff6c" />
<rect x="82" y="52" width="6" height="6" fill="#4aff6c" />
<rect x="34" y="58" width="6" height="6" fill="#4aff6c" />
<rect x="46" y="58" width="6" height="6" fill="#4aff6c" />
<rect x="64" y="58" width="6" height="6" fill="#4aff6c" />
<rect x="76" y="58" width="6" height="6" fill="#4aff6c" />
<rect x="40" y="64" width="6" height="6" fill="#4aff6c" />
<rect x="70" y="64" width="6" height="6" fill="#4aff6c" />
<rect x="34" y="76" width="6" height="6" fill="#4aff6c" />
<rect x="76" y="76" width="6" height="6" fill="#4aff6c" />
<rect x="22" y="82" width="6" height="6" fill="#4aff6c" />
<rect x="28" y="82" width="6" height="6" fill="#4aff6c" />
<rect x="40" y="82" width="6" height="6" fill="#4aff6c" />
<rect x="46" y="82" width="6" height="6" fill="#4aff6c" />
<rect x="64" y="82" width="6" height="6" fill="#4aff6c" />
<rect x="70" y="82" width="6" height="6" fill="#4aff6c" />
<rect x="82" y="82" width="6" height="6" fill="#4aff6c" />
<rect x="88" y="82" width="6" height="6" fill="#4aff6c" />
<rect x="28" y="88" width="6" height="6" fill="#4aff6c" />
<rect x="82" y="88" width="6" height="6" fill="#4aff6c" />
<rect x="28" y="94" width="6" height="6" fill="#4aff6c" />
<rect x="34" y="94" width="6" height="6" fill="#4aff6c" />
<rect x="76" y="94" width="6" height="6" fill="#4aff6c" />
<rect x="82" y="94" width="6" height="6" fill="#4aff6c" />
</svg>