<?xml version="1.0" encoding="utf-8"?>
<svg xmlns="http://www.w3.org/2000/svg" width="128" height="88" viewBox="0 0 128 88">
<rect width="100%" height="100%" fill="transparent" />
<rect x="4" y="4" width="10" height="10" fill="#4aff6c" />
<rect x="34" y="4" width="10" height="10" fill="#4aff6c" />
<rect x="44" y="4" width="10" height="10" fill="#4aff6c" />
<rect x="94" y="4" width="10" height="10" fill="#4aff6c" />
<rect x="4" y="14" width="10" height="10" fill="#4aff6c" />
<rect x="14" y="14" width="10" height="10" fill="#4aff6c" />
<rect x="44" y="14" width="10" height="10" fill="#4aff6c" />
<rect x="64" y="14" width="10" height="10" fill="#4aff6c" />
<rect x="74" y="14" width="10" height="10" fill="#4aff6c" />
<rect x="94" y="14" width="10" height="10" fill="#4aff6c" />
<rect x="44" y="24" width="10" height="10" fill="#4aff6c" />
<rect x="64" y="24" width="10" height="10" fill="#4aff6c" />
<rect x="54" y="34" width="10" height="10" fill="#4aff6c" />
<rect x="64" y="34" width="10" height="10" fill="#4aff6c" />
<rect x="74" y="44" width="10" height="10" fill="#4aff6c" />
<rect x="74" y="54" width="10" height="10" fill="#4aff6c" />
<rect x="114" y="54" width="10" height="10" fill="#4aff6c" />
<rect x="94" y="64" width="10" height="10" fill="#4aff6c" />
<rect x="114" y="64" width="10" height="10" fill="#4aff6c" />
<rect x="104" y="74" width="10" height="10" fill="#4aff6c" />
</svg>