<?xml version="1.0" encoding="utf-8"?>
<svg xmlns="http://www.w3.org/2000/svg" width="127" height="85" viewBox="0 0 127 85">
<rect width="100%" height="100%" fill="transparent" />
<rect x="11" y="4" width="7" height="7" fill="#4aff6c" />
<rect x="18" y="4" width="7" height="7" fill="#4aff6c" />
<rect x="25" y="4" width="7" height="7" fill="#4aff6c" />
<rect x="95" y="4" width="7" height="7" fill="#4aff6c" />
<rect x="102" y="4" width="7" height="7" fill="#4aff6c" />
<rect x="109" y="4" width="7" height="7" fill="#4aff6c" />
<rect x="4" y="11" width="7" height="7" fill="#4aff6c" />
<rect x="18" y="11" width="7" height="7" fill="#4aff6c" />
<rect x="32" y="11" width="7" height="7" fill="#4aff6c" />
<rect x="39" y="11" width="7" height="7" fill="#4aff6c" />
<rect x="81" y="11" width="7" height="7" fill="#4aff6c" />
<rect x="88" y="11" width="7" height="7" fill="#4aff6c" />
<rect x="102" y="11" width="7" height="7" fill="#4aff6c" />
<rect x="116" y="11" width="7" height="7" fill="#4aff6c" />
<rect x="4" y="18" width="7" height="7" fill="#4aff6c" />
<rect x="18" y="18" width="7" height="7" fill="#4aff6c" />
<rect x="32" y="18" width="7" height="7" fill="#4aff6c" />
<rect x="88" y="18" width="7" height="7" fill="#4aff6c" />
<rect x="102" y="18" width="7" height="7" fill="#4aff6c" />
<rect x="116" y="18" width="7" height="7" fill="#4aff6c" />
<rect x="11" y="25" width="7" height="7" fill="#4aff6c" />
<rect x="25" y="25" width="7" height="7" fill="#4aff6c" />
<rect x="32" y="25" width="7" height="7" fill="#4aff6c" />
<rect x="46" y="25" width="7" height="7" fill="#4aff6c" />
<rect x="53" y="25" width="7" height="7" fill="#4aff6c" />
<rect x="67" y="25" width="7" height="7" fill="#4aff6c" />
<rect x="74" y="25" width="7" height="7" fill="#4aff6c" />
<rect x="88" y="25" width="7" height="7" fill="#4aff6c" />
<rect x="95" y="25" width="7" height="7" fill="#4aff6c" />
<rect x="109" y="25" width="7" height="7" fill="#4aff6c" />
<rect x="39" y="32" width="7" height="7" fill="#4aff6c" />
<rect x="53" y="32" width="7" height="7" fill="#4aff6c" />
<rect x="67" y="32" width="7" height="7" fill="#4aff6c" />
<rect x="81" y="32" width="7" height="7" fill="#4aff6c" />
<rect x="25" y="39" width="7" height="7" fill="#4aff6c" />
<rect x="39" y="39" width="7" height="7" fill="#4aff6c" />
<rect x="53" y="39" width="7" height="7" fill="#4aff6c" />
<rect x="67" y="39" width="7" height="7" fill="#4aff6c" />
<rect x="81" y="39" width="7" height="7" fill="#4aff6c" />
<rect x="95" y="39" width="7" height="7" fill="#4aff6c" />
<rect x="18" y="46" width="7" height="7" fill="#4aff6c" />
<rect x="25" y="46" width="7" height="7" fill="#4aff6c" />
<rect x="39" y="46" width="7" height="7" fill="#4aff6c" />
<rect x="53" y="46" width="7" height="7" fill="#4aff6c" />
<rect x="67" y="46" width="7" height="7" fill="#4aff6c" />
<rect x="81" y="46" width="7" height="7" fill="#4aff6c" />
<rect x="95" y="46" width="7" height="7" fill="#4aff6c" />
<rect x="102" y="46" width="7" height="7" fill="#4aff6c" />
<rect x="18" y="53" width="7" height="7" fill="#4aff6c" />
<rect x="25" y="53" width="7" height="7" fill="#4aff6c" />
<rect x="32" y="53" width="7" height="7" fill="#4aff6c" />
<rect x="53" y="53" width="7" height="7" fill="#4aff6c" />
<rect x="67" y="53" width="7" height="7" fill="#4aff6c" />
<rect x="88" y="53" width="7" height="7" fill="#4aff6c" />
<rect x="95" y="53" width="7" height="7" fill="#4aff6c" />
<rect x="102" y="53" width="7" height="7" fill="#4aff6c" />
<rect x="18" y="60" width="7" height="7" fill="#4aff6c" />
<rect x="25" y="60" width="7" height="7" fill="#4aff6c" />
<rect x="46" y="60" width="7" height="7" fill="#4aff6c" />
<rect x="74" y="60" width="7" height="7" fill="#4aff6c" />
<rect x="95" y="60" width="7" height="7" fill="#4aff6c" />
<rect x="102" y="60" width="7" height="7" fill="#4aff6c" />
<rect x="11" y="67" width="7" height="7" fill="#4aff6c" />
<rect x="46" y="67" width="7" height="7" fill="#4aff6c" />
<rect x="53" y="67" width="7" height="7" fill="#4aff6c" />
<rect x="67" y="67" width="7" height="7" fill="#4aff6c" />
<rect x="74" y="67" width="7" height="7" fill="#4aff6c" />
<rect x="109" y="67" width="7" height="7" fill="#4aff6c" />
<rect x="11" y="74" width="7" height="7" fill="#4aff6c" />
<rect x="109" y="74" width="7" height="7" fill="#4aff6c" />
</svg>