<?xml version="1.0" encoding="utf-8"?>
<svg xmlns="http://www.w3.org/2000/svg" width="128" height="68" viewBox="0 0 128 68">
<rect width="100%" height="100%" fill="transparent" />
<rect x="14" y="4" width="5" height="5" fill="#4aff6c" />
<rect x="4" y="9" width="5" height="5" fill="#4aff6c" />
<rect x="14" y="9" width="5" height="5" fill="#4aff6c" />
<rect x="9" y="14" width="5" height="5" fill="#4aff6c" />
<rect x="14" y="14" width="5" height="5" fill="#4aff6c" />
<rect x="59" y="19" width="5" height="5" fill="#4aff6c" />
<rect x="49" y="24" width="5" height="5" fill="#4aff6c" />
<rect x="59" y="24" width="5" height="5" fill="#4aff6c" />
<rect x="44" y="29" width="5" height="5" fill="#4aff6c" />
<rect x="54" y="29" width="5" height="5" fill="#4aff6c" />
<rect x="39" y="34" width="5" height="5" fill="#4aff6c" />
<rect x="54" y="34" width="5" height="5" fill="#4aff6c" />
<rect x="114" y="34" width="5" height="5" fill="#4aff6c" />
<rect x="119" y="34" width="5" height="5" fill="#4aff6c" />
<rect x="44" y="39" width="5" height="5" fill="#4aff6c" />
<rect x="54" y="39" width="5" height="5" fill="#4aff6c" />
<rect x="114" y="39" width="5" height="5" fill="#4aff6c" />
<rect x="119" y="39" width="5" height="5" fill="#4aff6c" />
<rect x="19" y="44" width="5" height="5" fill="#4aff6c" />
<rect x="24" y="44" width="5" height="5" fill="#4aff6c" />
<rect x="49" y="44" width="5" height="5" fill="#4aff6c" />
<rect x="59" y="44" width="5" height="5" fill="#4aff6c" />
<rect x="14" y="49" width="5" height="5" fill="#4aff6c" />
<rect x="24" y="49" width="5" height="5" fill="#4aff6c" />
<rect x="59" y="49" width="5" height="5" fill="#4aff6c" />
<rect x="14" y="54" width="5" height="5" fill="#4aff6c" />
<rect x="9" y="59" width="5" height="5" fill="#4aff6c" />
<rect x="14" y="59" width="5" height="5" fill="#4aff6c" />
</svg>