<?xml version="1.0" encoding="utf-8"?>
<svg xmlns="http://www.w3.org/2000/svg" width="113" height="103" viewBox="0 0 113 103">
<rect width="100%" height="100%" fill="transparent" />
<rect x="29" y="4" width="5" height="5" fill="#4aff6c" />
<rect x="9" y="9" width="5" height="5" fill="#4aff6c" />
<rect x="19" y="9" width="5" height="5" fill="#4aff6c" />
<rect x="24" y="9" width="5" height="5" fill="#4aff6c" />
<rect x="34" y="9" width="5" height="5" fill="#4aff6c" />
<rect x="44" y="9" width="5" height="5" fill="#4aff6c" />
<rect x="49" y="9" width="5" height="5" fill="#4aff6c" />
<rect x="4" y="14" width="5" height="5" fill="#4aff6c" />
<rect x="14" y="14" width="5" height="5" fill="#4aff6c" />
<rect x="34" y="14" width="5" height="5" fill="#4aff6c" />
<rect x="44" y="14" width="5" height="5" fill="#4aff6c" />
<rect x="49" y="14" width="5" height="5" fill="#4aff6c" />
<rect x="9" y="19" width="5" height="5" fill="#4aff6c" />
<rect x="34" y="19" width="5" height="5" fill="#4aff6c" />
<rect x="29" y="24" width="5" height="5" fill="#4aff6c" />
<rect x="34" y="24" width="5" height="5" fill="#4aff6c" />
<rect x="24" y="29" width="5" height="5" fill="#4aff6c" />
<rect x="84" y="29" width="5" height="5" fill="#4aff6c" />
<rect x="4" y="34" width="5" height="5" fill="#4aff6c" />
<rect x="9" y="34" width="5" height="5" fill="#4aff6c" />
<rect x="19" y="34" width="5" height="5" fill="#4aff6c" />
<rect x="29" y="34" width="5" height="5" fill="#4aff6c" />
<rect x="34" y="34" width="5" height="5" fill="#4aff6c" />
<rect x="44" y="34" width="5" height="5" fill="#4aff6c" />
<rect x="64" y="34" width="5" height="5" fill="#4aff6c" />
<rect x="74" y="34" width="5" height="5" fill="#4aff6c" />
<rect x="79" y="34" width="5" height="5" fill="#4aff6c" />
<rect x="89" y="34" width="5" height="5" fill="#4aff6c" />
<rect x="99" y="34" width="5" height="5" fill="#4aff6c" />
<rect x="104" y="34" width="5" height="5" fill="#4aff6c" />
<rect x="4" y="39" width="5" height="5" fill="#4aff6c" />
<rect x="9" y="39" width="5" height="5" fill="#4aff6c" />
<rect x="19" y="39" width="5" height="5" fill="#4aff6c" />
<rect x="39" y="39" width="5" height="5" fill="#4aff6c" />
<rect x="49" y="39" width="5" height="5" fill="#4aff6c" />
<rect x="59" y="39" width="5" height="5" fill="#4aff6c" />
<rect x="69" y="39" width="5" height="5" fill="#4aff6c" />
<rect x="89" y="39" width="5" height="5" fill="#4aff6c" />
<rect x="99" y="39" width="5" height="5" fill="#4aff6c" />
<rect x="104" y="39" width="5" height="5" fill="#4aff6c" />
<rect x="19" y="44" width="5" height="5" fill="#4aff6c" />
<rect x="44" y="44" width="5" height="5" fill="#4aff6c" />
<rect x="64" y="44" width="5" height="5" fill="#4aff6c" />
<rect x="89" y="44" width="5" height="5" fill="#4aff6c" />
<rect x="19" y="49" width="5" height="5" fill="#4aff6c" />
<rect x="24" y="49" width="5" height="5" fill="#4aff6c" />
<rect x="84" y="49" width="5" height="5" fill="#4aff6c" />
<rect x="89" y="49" width="5" height="5" fill="#4aff6c" />
<rect x="49" y="64" width="5" height="5" fill="#4aff6c" />
<rect x="54" y="64" width="5" height="5" fill="#4aff6c" />
<rect x="59" y="64" width="5" height="5" fill="#4aff6c" />
<rect x="49" y="69" width="5" height="5" fill="#4aff6c" />
<rect x="64" y="69" width="5" height="5" fill="#4aff6c" />
<rect x="49" y="74" width="5" height="5" fill="#4aff6c" />
<rect x="49" y="79" width="5" height="5" fill="#4aff6c" />
<rect x="69" y="79" width="5" height="5" fill="#4aff6c" />
<rect x="49" y="84" width="5" height="5" fill="#4aff6c" />
<rect x="69" y="84" width="5" height="5" fill="#4aff6c" />
<rect x="49" y="89" width="5" height="5" fill="#4aff6c" />
<rect x="54" y="94" width="5" height="5" fill="#4aff6c" />
<rect x="64" y="94" width="5" height="5" fill="#4aff6c" />
</svg>