<?xml version="1.0" encoding="utf-8"?>
<svg xmlns="http://www.w3.org/2000/svg" width="122" height="122" viewBox="0 0 122 122">
<rect width="100%" height="100%" fill="transparent" />
<rect x="40" y="4" width="6" height="6" fill="#4aff6c" />
<rect x="106" y="4" width="6" height="6" fill="#4aff6c" />
<rect x="112" y="4" width="6" height="6" fill="#4aff6c" />
<rect x="46" y="10" width="6" height="6" fill="#4aff6c" />
<rect x="52" y="10" width="6" height="6" fill="#4aff6c" />
<rect x="106" y="10" width="6" height="6" fill="#4aff6c" />
<rect x="40" y="16" width="6" height="6" fill="#4aff6c" />
<rect x="46" y="16" width="6" height="6" fill="#4aff6c" />
<rect x="94" y="16" width="6" height="6" fill="#4aff6c" />
<rect x="106" y="16" width="6" height="6" fill="#4aff6c" />
<rect x="94" y="22" width="6" height="6" fill="#4aff6c" />
<rect x="100" y="22" width="6" height="6" fill="#4aff6c" />
<rect x="64" y="28" width="6" height="6" fill="#4aff6c" />
<rect x="4" y="34" width="6" height="6" fill="#4aff6c" />
<rect x="10" y="34" width="6" height="6" fill="#4aff6c" />
<rect x="70" y="34" width="6" height="6" fill="#4aff6c" />
<rect x="76" y="34" width="6" height="6" fill="#4aff6c" />
<rect x="4" y="40" width="6" height="6" fill="#4aff6c" />
<rect x="10" y="40" width="6" height="6" fill="#4aff6c" />
<rect x="64" y="40" width="6" height="6" fill="#4aff6c" />
<rect x="70" y="40" width="6" height="6" fill="#4aff6c" />
<rect x="106" y="58" width="6" height="6" fill="#4aff6c" />
<rect x="112" y="58" width="6" height="6" fill="#4aff6c" />
<rect x="64" y="64" width="6" height="6" fill="#4aff6c" />
<rect x="70" y="64" width="6" height="6" fill="#4aff6c" />
<rect x="106" y="64" width="6" height="6" fill="#4aff6c" />
<rect x="112" y="64" width="6" height="6" fill="#4aff6c" />
<rect x="64" y="70" width="6" height="6" fill="#4aff6c" />
<rect x="70" y="70" width="6" height="6" fill="#4aff6c" />
<rect x="34" y="82" width="6" height="6" fill="#4aff6c" />
<rect x="28" y="88" width="6" height="6" fill="#4aff6c" />
<rect x="40" y="88" width="6" height="6" fill="#4aff6c" />
<rect x="28" y="94" width="6" height="6" fill="#4aff6c" />
<rect x="34" y="94" width="6" height="6" fill="#4aff6c" />
<rect x="76" y="94" width="6" height="6" fill="#4aff6c" />
<rect x="82" y="94" width="6" height="6" fill="#4aff6c" />
<rect x="76" y="100" width="6" height="6" fill="#4aff6c" />
<rect x="82" y="106" width="6" height="6" fill="#4aff6c" />
<rect x="88" y="106" width="6" height="6" fill="#4aff6c" />
<rect x="94" y="106" width="6" height="6" fill="#4aff6c" />
<rect x="94" y="112" width="6" height="6" fill="#4aff6c" />
</svg>