<?xml version="1.0" encoding="utf-8"?>
<svg xmlns="http://www.w3.org/2000/svg" width="112" height="112" viewBox="0 0 112 112">
<rect width="100%" height="100%" fill="transparent" />
<rect x="8" y="4" width="4" height="4" fill="#4aff6c" />
<rect x="60" y="4" width="4" height="4" fill="#4aff6c" />
<rect x="64" y="4" width="4" height="4" fill="#4aff6c" />
<rect x="12" y="8" width="4" height="4" fill="#4aff6c" />
<rect x="56" y="8" width="4" height="4" fill="#4aff6c" />
<rect x="64" y="8" width="4" height="4" fill="#4aff6c" />
<rect x="4" y="12" width="4" height="4" fill="#4aff6c" />
<rect x="8" y="12" width="4" height="4" fill="#4aff6c" />
<rect x="12" y="12" width="4" height="4" fill="#4aff6c" />
<rect x="36" y="12" width="4" height="4" fill="#4aff6c" />
<rect x="40" y="12" width="4" height="4" fill="#4aff6c" />
<rect x="52" y="12" width="4" height="4" fill="#4aff6c" />
<rect x="36" y="16" width="4" height="4" fill="#4aff6c" />
<rect x="48" y="16" width="4" height="4" fill="#4aff6c" />
<rect x="56" y="16" width="4" height="4" fill="#4aff6c" />
<rect x="60" y="16" width="4" height="4" fill="#4aff6c" />
<rect x="24" y="20" width="4" height="4" fill="#4aff6c" />
<rect x="44" y="20" width="4" height="4" fill="#4aff6c" />
<rect x="48" y="20" width="4" height="4" fill="#4aff6c" />
<rect x="56" y="20" width="4" height="4" fill="#4aff6c" />
<rect x="64" y="20" width="4" height="4" fill="#4aff6c" />
<rect x="16" y="24" width="4" height="4" fill="#4aff6c" />
<rect x="24" y="24" width="4" height="4" fill="#4aff6c" />
<rect x="60" y="24" width="4" height="4" fill="#4aff6c" />
<rect x="20" y="28" width="4" height="4" fill="#4aff6c" />
<rect x="24" y="28" width="4" height="4" fill="#4aff6c" />
<rect x="84" y="28" width="4" height="4" fill="#4aff6c" />
<rect x="88" y="28" width="4" height="4" fill="#4aff6c" />
<rect x="84" y="32" width="4" height="4" fill="#4aff6c" />
<rect x="32" y="36" width="4" height="4" fill="#4aff6c" />
<rect x="36" y="36" width="4" height="4" fill="#4aff6c" />
<rect x="76" y="36" width="4" height="4" fill="#4aff6c" />
<rect x="84" y="36" width="4" height="4" fill="#4aff6c" />
<rect x="32" y="40" width="4" height="4" fill="#4aff6c" />
<rect x="36" y="40" width="4" height="4" fill="#4aff6c" />
<rect x="76" y="40" width="4" height="4" fill="#4aff6c" />
<rect x="80" y="40" width="4" height="4" fill="#4aff6c" />
<rect x="20" y="56" width="4" height="4" fill="#4aff6c" />
<rect x="24" y="56" width="4" height="4" fill="#4aff6c" />
<rect x="44" y="56" width="4" height="4" fill="#4aff6c" />
<rect x="48" y="56" width="4" height="4" fill="#4aff6c" />
<rect x="16" y="60" width="4" height="4" fill="#4aff6c" />
<rect x="24" y="60" width="4" height="4" fill="#4aff6c" />
<rect x="40" y="60" width="4" height="4" fill="#4aff6c" />
<rect x="48" y="60" width="4" height="4" fill="#4aff6c" />
<rect x="16" y="64" width="4" height="4" fill="#4aff6c" />
<rect x="44" y="64" width="4" height="4" fill="#4aff6c" />
<rect x="12" y="68" width="4" height="4" fill="#4aff6c" />
<rect x="16" y="68" width="4" height="4" fill="#4aff6c" />
<rect x="88" y="76" width="4" height="4" fill="#4aff6c" />
<rect x="92" y="76" width="4" height="4" fill="#4aff6c" />
<rect x="80" y="80" width="4" height="4" fill="#4aff6c" />
<rect x="92" y="80" width="4" height="4" fill="#4aff6c" />
<rect x="80" y="84" width="4" height="4" fill="#4aff6c" />
<rect x="84" y="84" width="4" height="4" fill="#4aff6c" />
<rect x="88" y="84" width="4" height="4" fill="#4aff6c" />
<rect x="60" y="92" width="4" height="4" fill="#4aff6c" />
<rect x="64" y="92" width="4" height="4" fill="#4aff6c" />
<rect x="80" y="92" width="4" height="4" fill="#4aff6c" />
<rect x="84" y="92" width="4" height="4" fill="#4aff6c" />
<rect x="92" y="92" width="4" height="4" fill="#4aff6c" />
<rect x="100" y="92" width="4" height="4" fill="#4aff6c" />
<rect x="104" y="92" width="4" height="4" fill="#4aff6c" />
<rect x="60" y="96" width="4" height="4" fill="#4aff6c" />
<rect x="64" y="96" width="4" height="4" fill="#4aff6c" />
<rect x="84" y="96" width="4" height="4" fill="#4aff6c" />
<rect x="92" y="96" width="4" height="4" fill="#4aff6c" />
<rect x="96" y="96" width="4" height="4" fill="#4aff6c" />
<rect x="104" y="96" width="4" height="4" fill="#4aff6c" />
<rect x="84" y="100" width="4" height="4" fill="#4aff6c" />
<rect x="80" y="104" width="4" height="4" fill="#4aff6c" />
<rect x="84" y="104" width="4" height="4" fill="#4aff6c" />
</svg>