<?xml version="1.0" encoding="utf-8"?>
<svg xmlns="http://www.w3.org/2000/svg" width="112" height="42" viewBox="0 0 112 42">
<rect width="100%" height="100%" fill="transparent" />
<rect x="4" y="4" width="2" height="2" fill="#4aff6c" />
<rect x="6" y="4" width="2" height="2" fill="#4aff6c" />
<rect x="104" y="4" width="2" height="2" fill="#4aff6c" />
<rect x="106" y="4" width="2" height="2" fill="#4aff6c" />
<rect x="6" y="6" width="2" height="2" fill="#4aff6c" />
<rect x="104" y="6" width="2" height="2" fill="#4aff6c" />
<rect x="6" y="8" width="2" height="2" fill="#4aff6c" />
<rect x="10" y="8" width="2" height="2" fill="#4aff6c" />
<rect x="54" y="8" width="2" height="2" fill="#4aff6c" />
<rect x="56" y="8" width="2" height="2" fill="#4aff6c" />
<rect x="100" y="8" width="2" height="2" fill="#4aff6c" />
<rect x="104" y="8" width="2" height="2" fill="#4aff6c" />
<rect x="8" y="10" width="2" height="2" fill="#4aff6c" />
<rect x="10" y="10" width="2" height="2" fill="#4aff6c" />
<rect x="28" y="10" width="2" height="2" fill="#4aff6c" />
<rect x="54" y="10" width="2" height="2" fill="#4aff6c" />
<rect x="56" y="10" width="2" height="2" fill="#4aff6c" />
<rect x="82" y="10" width="2" height="2" fill="#4aff6c" />
<rect x="84" y="10" width="2" height="2" fill="#4aff6c" />
<rect x="100" y="10" width="2" height="2" fill="#4aff6c" />
<rect x="102" y="10" width="2" height="2" fill="#4aff6c" />
<rect x="26" y="12" width="2" height="2" fill="#4aff6c" />
<rect x="28" y="12" width="2" height="2" fill="#4aff6c" />
<rect x="82" y="12" width="2" height="2" fill="#4aff6c" />
<rect x="86" y="12" width="2" height="2" fill="#4aff6c" />
<rect x="24" y="14" width="2" height="2" fill="#4aff6c" />
<rect x="26" y="14" width="2" height="2" fill="#4aff6c" />
<rect x="86" y="14" width="2" height="2" fill="#4aff6c" />
<rect x="26" y="16" width="2" height="2" fill="#4aff6c" />
<rect x="28" y="16" width="2" height="2" fill="#4aff6c" />
<rect x="34" y="16" width="2" height="2" fill="#4aff6c" />
<rect x="36" y="16" width="2" height="2" fill="#4aff6c" />
<rect x="82" y="16" width="2" height="2" fill="#4aff6c" />
<rect x="84" y="16" width="2" height="2" fill="#4aff6c" />
<rect x="86" y="16" width="2" height="2" fill="#4aff6c" />
<rect x="26" y="24" width="2" height="2" fill="#4aff6c" />
<rect x="28" y="24" width="2" height="2" fill="#4aff6c" />
<rect x="34" y="24" width="2" height="2" fill="#4aff6c" />
<rect x="36" y="24" width="2" height="2" fill="#4aff6c" />
<rect x="82" y="24" width="2" height="2" fill="#4aff6c" />
<rect x="84" y="24" width="2" height="2" fill="#4aff6c" />
<rect x="86" y="24" width="2" height="2" fill="#4aff6c" />
<rect x="24" y="26" width="2" height="2" fill="#4aff6c" />
<rect x="26" y="26" width="2" height="2" fill="#4aff6c" />
<rect x="86" y="26" width="2" height="2" fill="#4aff6c" />
<rect x="26" y="28" width="2" height="2" fill="#4aff6c" />
<rect x="28" y="28" width="2" height="2" fill="#4aff6c" />
<rect x="82" y="28" width="2" height="2" fill="#4aff6c" />
<rect x="86" y="28" width="2" height="2" fill="#4aff6c" />
<rect x="8" y="30" width="2" height="2" fill="#4aff6c" />
<rect x="10" y="30" width="2" height="2" fill="#4aff6c" />
<rect x="28" y="30" width="2" height="2" fill="#4aff6c" />
<rect x="54" y="30" width="2" height="2" fill="#4aff6c" />
<rect x="56" y="30" width="2" height="2" fill="#4aff6c" />
<rect x="82" y="30" width="2" height="2" fill="#4aff6c" />
<rect x="84" y="30" width="2" height="2" fill="#4aff6c" />
<rect x="100" y="30" width="2" height="2" fill="#4aff6c" />
<rect x="102" y="30" width="2" height="2" fill="#4aff6c" />
<rect x="6" y="32" width="2" height="2" fill="#4aff6c" />
<rect x="10" y="32" width="2" height="2" fill="#4aff6c" />
<rect x="54" y="32" width="2" height="2" fill="#4aff6c" />
<rect x="56" y="32" width="2" height="2" fill="#4aff6c" />
<rect x="100" y="32" width="2" height="2" fill="#4aff6c" />
<rect x="104" y="32" width="2" height="2" fill="#4aff6c" />
<rect x="6" y="34" width="2" height="2" fill="#4aff6c" />
<rect x="104" y="34" width="2" height="2" fill="#4aff6c" />
<rect x="4" y="36" width="2" height="2" fill="#4aff6c" />
<rect x="6" y="36" width="2" height="2" fill="#4aff6c" />
<rect x="104" y="36" width="2" height="2" fill="#4aff6c" />
<rect x="106" y="36" width="2" height="2" fill="#4aff6c" />
</svg>