<?xml version="1.0" encoding="utf-8"?>
<svg xmlns="http://www.w3.org/2000/svg" width="128" height="112" viewBox="0 0 128 112">
<rect width="100%" height="100%" fill="transparent" />
<rect x="60" y="4" width="8" height="8" fill="#4aff6c" />
<rect x="60" y="12" width="8" height="8" fill="#4aff6c" />
<rect x="68" y="12" width="8" height="8" fill="#4aff6c" />
<rect x="76" y="12" width="8" height="8" fill="#4aff6c" />
<rect x="84" y="20" width="8" height="8" fill="#4aff6c" />
<rect x="44" y="28" width="8" height="8" fill="#4aff6c" />
<rect x="52" y="28" width="8" height="8" fill="#4aff6c" />
<rect x="60" y="28" width="8" height="8" fill="#4aff6c" />
<rect x="84" y="28" width="8" height="8" fill="#4aff6c" />
<rect x="108" y="28" width="8" height="8" fill="#4aff6c" />
<rect x="116" y="28" width="8" height="8" fill="#4aff6c" />
<rect x="36" y="36" width="8" height="8" fill="#4aff6c" />
<rect x="52" y="36" width="8" height="8" fill="#4aff6c" />
<rect x="68" y="36" width="8" height="8" fill="#4aff6c" />
<rect x="84" y="36" width="8" height="8" fill="#4aff6c" />
<rect x="100" y="36" width="8" height="8" fill="#4aff6c" />
<rect x="116" y="36" width="8" height="8" fill="#4aff6c" />
<rect x="36" y="44" width="8" height="8" fill="#4aff6c" />
<rect x="68" y="44" width="8" height="8" fill="#4aff6c" />
<rect x="84" y="44" width="8" height="8" fill="#4aff6c" />
<rect x="100" y="44" width="8" height="8" fill="#4aff6c" />
<rect x="12" y="52" width="8" height="8" fill="#4aff6c" />
<rect x="20" y="52" width="8" height="8" fill="#4aff6c" />
<rect x="36" y="52" width="8" height="8" fill="#4aff6c" />
<rect x="84" y="52" width="8" height="8" fill="#4aff6c" />
<rect x="100" y="52" width="8" height="8" fill="#4aff6c" />
<rect x="108" y="52" width="8" height="8" fill="#4aff6c" />
<rect x="20" y="60" width="8" height="8" fill="#4aff6c" />
<rect x="36" y="60" width="8" height="8" fill="#4aff6c" />
<rect x="52" y="60" width="8" height="8" fill="#4aff6c" />
<rect x="84" y="60" width="8" height="8" fill="#4aff6c" />
<rect x="4" y="68" width="8" height="8" fill="#4aff6c" />
<rect x="20" y="68" width="8" height="8" fill="#4aff6c" />
<rect x="36" y="68" width="8" height="8" fill="#4aff6c" />
<rect x="52" y="68" width="8" height="8" fill="#4aff6c" />
<rect x="68" y="68" width="8" height="8" fill="#4aff6c" />
<rect x="84" y="68" width="8" height="8" fill="#4aff6c" />
<rect x="4" y="76" width="8" height="8" fill="#4aff6c" />
<rect x="12" y="76" width="8" height="8" fill="#4aff6c" />
<rect x="36" y="76" width="8" height="8" fill="#4aff6c" />
<rect x="60" y="76" width="8" height="8" fill="#4aff6c" />
<rect x="68" y="76" width="8" height="8" fill="#4aff6c" />
<rect x="76" y="76" width="8" height="8" fill="#4aff6c" />
<rect x="36" y="84" width="8" height="8" fill="#4aff6c" />
<rect x="44" y="92" width="8" height="8" fill="#4aff6c" />
<rect x="52" y="92" width="8" height="8" fill="#4aff6c" />
<rect x="60" y="92" width="8" height="8" fill="#4aff6c" />
<rect x="60" y="100" width="8" height="8" fill="#4aff6c" />
</svg>