<?xml version="1.0" encoding="utf-8"?>
<svg xmlns="http://www.w3.org/2000/svg" width="126" height="122" viewBox="0 0 126 122">
<rect width="100%" height="100%" fill="transparent" />
<rect x="104" y="4" width="2" height="2" fill="#4aff6c" />
<rect x="104" y="6" width="2" height="2" fill="#4aff6c" />
<rect x="108" y="6" width="2" height="2" fill="#4aff6c" />
<rect x="104" y="8" width="2" height="2" fill="#4aff6c" />
<rect x="106" y="8" width="2" height="2" fill="#4aff6c" />
<rect x="98" y="10" width="2" height="2" fill="#4aff6c" />
<rect x="112" y="10" width="2" height="2" fill="#4aff6c" />
<rect x="96" y="12" width="2" height="2" fill="#4aff6c" />
<rect x="110" y="12" width="2" height="2" fill="#4aff6c" />
<rect x="96" y="14" width="2" height="2" fill="#4aff6c" />
<rect x="98" y="14" width="2" height="2" fill="#4aff6c" />
<rect x="100" y="14" width="2" height="2" fill="#4aff6c" />
<rect x="110" y="14" width="2" height="2" fill="#4aff6c" />
<rect x="112" y="14" width="2" height="2" fill="#4aff6c" />
<rect x="114" y="14" width="2" height="2" fill="#4aff6c" />
<rect x="90" y="18" width="2" height="2" fill="#4aff6c" />
<rect x="104" y="18" width="2" height="2" fill="#4aff6c" />
<rect x="90" y="20" width="2" height="2" fill="#4aff6c" />
<rect x="94" y="20" width="2" height="2" fill="#4aff6c" />
<rect x="104" y="20" width="2" height="2" fill="#4aff6c" />
<rect x="108" y="20" width="2" height="2" fill="#4aff6c" />
<rect x="120" y="20" width="2" height="2" fill="#4aff6c" />
<rect x="90" y="22" width="2" height="2" fill="#4aff6c" />
<rect x="92" y="22" width="2" height="2" fill="#4aff6c" />
<rect x="104" y="22" width="2" height="2" fill="#4aff6c" />
<rect x="106" y="22" width="2" height="2" fill="#4aff6c" />
<rect x="116" y="22" width="2" height="2" fill="#4aff6c" />
<rect x="118" y="22" width="2" height="2" fill="#4aff6c" />
<rect x="84" y="24" width="2" height="2" fill="#4aff6c" />
<rect x="100" y="24" width="2" height="2" fill="#4aff6c" />
<rect x="118" y="24" width="2" height="2" fill="#4aff6c" />
<rect x="120" y="24" width="2" height="2" fill="#4aff6c" />
<rect x="82" y="26" width="2" height="2" fill="#4aff6c" />
<rect x="82" y="28" width="2" height="2" fill="#4aff6c" />
<rect x="84" y="28" width="2" height="2" fill="#4aff6c" />
<rect x="86" y="28" width="2" height="2" fill="#4aff6c" />
<rect x="110" y="28" width="2" height="2" fill="#4aff6c" />
<rect x="114" y="28" width="2" height="2" fill="#4aff6c" />
<rect x="110" y="30" width="2" height="2" fill="#4aff6c" />
<rect x="112" y="30" width="2" height="2" fill="#4aff6c" />
<rect x="112" y="32" width="2" height="2" fill="#4aff6c" />
<rect x="4" y="34" width="2" height="2" fill="#4aff6c" />
<rect x="106" y="34" width="2" height="2" fill="#4aff6c" />
<rect x="6" y="36" width="2" height="2" fill="#4aff6c" />
<rect x="8" y="36" width="2" height="2" fill="#4aff6c" />
<rect x="102" y="36" width="2" height="2" fill="#4aff6c" />
<rect x="104" y="36" width="2" height="2" fill="#4aff6c" />
<rect x="4" y="38" width="2" height="2" fill="#4aff6c" />
<rect x="6" y="38" width="2" height="2" fill="#4aff6c" />
<rect x="104" y="38" width="2" height="2" fill="#4aff6c" />
<rect x="106" y="38" width="2" height="2" fill="#4aff6c" />
<rect x="62" y="54" width="2" height="2" fill="#4aff6c" />
<rect x="44" y="56" width="2" height="2" fill="#4aff6c" />
<rect x="58" y="56" width="2" height="2" fill="#4aff6c" />
<rect x="62" y="56" width="2" height="2" fill="#4aff6c" />
<rect x="40" y="58" width="2" height="2" fill="#4aff6c" />
<rect x="44" y="58" width="2" height="2" fill="#4aff6c" />
<rect x="60" y="58" width="2" height="2" fill="#4aff6c" />
<rect x="62" y="58" width="2" height="2" fill="#4aff6c" />
<rect x="42" y="60" width="2" height="2" fill="#4aff6c" />
<rect x="44" y="60" width="2" height="2" fill="#4aff6c" />
<rect x="54" y="62" width="2" height="2" fill="#4aff6c" />
<rect x="56" y="64" width="2" height="2" fill="#4aff6c" />
<rect x="66" y="64" width="2" height="2" fill="#4aff6c" />
<rect x="68" y="64" width="2" height="2" fill="#4aff6c" />
<rect x="70" y="64" width="2" height="2" fill="#4aff6c" />
<rect x="52" y="66" width="2" height="2" fill="#4aff6c" />
<rect x="54" y="66" width="2" height="2" fill="#4aff6c" />
<rect x="56" y="66" width="2" height="2" fill="#4aff6c" />
<rect x="66" y="66" width="2" height="2" fill="#4aff6c" />
<rect x="68" y="68" width="2" height="2" fill="#4aff6c" />
<rect x="78" y="70" width="2" height="2" fill="#4aff6c" />
<rect x="80" y="70" width="2" height="2" fill="#4aff6c" />
<rect x="60" y="72" width="2" height="2" fill="#4aff6c" />
<rect x="62" y="72" width="2" height="2" fill="#4aff6c" />
<rect x="78" y="72" width="2" height="2" fill="#4aff6c" />
<rect x="82" y="72" width="2" height="2" fill="#4aff6c" />
<rect x="60" y="74" width="2" height="2" fill="#4aff6c" />
<rect x="64" y="74" width="2" height="2" fill="#4aff6c" />
<rect x="78" y="74" width="2" height="2" fill="#4aff6c" />
<rect x="60" y="76" width="2" height="2" fill="#4aff6c" />
<rect x="94" y="112" width="2" height="2" fill="#4aff6c" />
<rect x="96" y="112" width="2" height="2" fill="#4aff6c" />
<rect x="94" y="114" width="2" height="2" fill="#4aff6c" />
<rect x="98" y="114" width="2" height="2" fill="#4aff6c" />
<rect x="94" y="116" width="2" height="2" fill="#4aff6c" />
</svg>