<?xml version="1.0" encoding="utf-8"?>
<svg xmlns="http://www.w3.org/2000/svg" width="104" height="44" viewBox="0 0 104 44">
<rect width="100%" height="100%" fill="transparent" />
<rect x="18" y="4" width="2" height="2" fill="#4aff6c" />
<rect x="58" y="4" width="2" height="2" fill="#4aff6c" />
<rect x="98" y="4" width="2" height="2" fill="#4aff6c" />
<rect x="14" y="6" width="2" height="2" fill="#4aff6c" />
<rect x="16" y="6" width="2" height="2" fill="#4aff6c" />
<rect x="54" y="6" width="2" height="2" fill="#4aff6c" />
<rect x="56" y="6" width="2" height="2" fill="#4aff6c" />
<rect x="94" y="6" width="2" height="2" fill="#4aff6c" />
<rect x="96" y="6" width="2" height="2" fill="#4aff6c" />
<rect x="16" y="8" width="2" height="2" fill="#4aff6c" />
<rect x="18" y="8" width="2" height="2" fill="#4aff6c" />
<rect x="56" y="8" width="2" height="2" fill="#4aff6c" />
<rect x="58" y="8" width="2" height="2" fill="#4aff6c" />
<rect x="96" y="8" width="2" height="2" fill="#4aff6c" />
<rect x="98" y="8" width="2" height="2" fill="#4aff6c" />
<rect x="8" y="12" width="2" height="2" fill="#4aff6c" />
<rect x="48" y="12" width="2" height="2" fill="#4aff6c" />
<rect x="88" y="12" width="2" height="2" fill="#4aff6c" />
<rect x="4" y="14" width="2" height="2" fill="#4aff6c" />
<rect x="8" y="14" width="2" height="2" fill="#4aff6c" />
<rect x="44" y="14" width="2" height="2" fill="#4aff6c" />
<rect x="48" y="14" width="2" height="2" fill="#4aff6c" />
<rect x="84" y="14" width="2" height="2" fill="#4aff6c" />
<rect x="88" y="14" width="2" height="2" fill="#4aff6c" />
<rect x="6" y="16" width="2" height="2" fill="#4aff6c" />
<rect x="8" y="16" width="2" height="2" fill="#4aff6c" />
<rect x="14" y="16" width="2" height="2" fill="#4aff6c" />
<rect x="46" y="16" width="2" height="2" fill="#4aff6c" />
<rect x="48" y="16" width="2" height="2" fill="#4aff6c" />
<rect x="54" y="16" width="2" height="2" fill="#4aff6c" />
<rect x="86" y="16" width="2" height="2" fill="#4aff6c" />
<rect x="88" y="16" width="2" height="2" fill="#4aff6c" />
<rect x="94" y="16" width="2" height="2" fill="#4aff6c" />
<rect x="14" y="18" width="2" height="2" fill="#4aff6c" />
<rect x="18" y="18" width="2" height="2" fill="#4aff6c" />
<rect x="54" y="18" width="2" height="2" fill="#4aff6c" />
<rect x="58" y="18" width="2" height="2" fill="#4aff6c" />
<rect x="94" y="18" width="2" height="2" fill="#4aff6c" />
<rect x="98" y="18" width="2" height="2" fill="#4aff6c" />
<rect x="14" y="20" width="2" height="2" fill="#4aff6c" />
<rect x="16" y="20" width="2" height="2" fill="#4aff6c" />
<rect x="54" y="20" width="2" height="2" fill="#4aff6c" />
<rect x="56" y="20" width="2" height="2" fill="#4aff6c" />
<rect x="94" y="20" width="2" height="2" fill="#4aff6c" />
<rect x="96" y="20" width="2" height="2" fill="#4aff6c" />
<rect x="44" y="26" width="2" height="2" fill="#4aff6c" />
<rect x="10" y="28" width="2" height="2" fill="#4aff6c" />
<rect x="16" y="28" width="2" height="2" fill="#4aff6c" />
<rect x="42" y="28" width="2" height="2" fill="#4aff6c" />
<rect x="46" y="28" width="2" height="2" fill="#4aff6c" />
<rect x="50" y="28" width="2" height="2" fill="#4aff6c" />
<rect x="56" y="28" width="2" height="2" fill="#4aff6c" />
<rect x="82" y="28" width="2" height="2" fill="#4aff6c" />
<rect x="84" y="28" width="2" height="2" fill="#4aff6c" />
<rect x="90" y="28" width="2" height="2" fill="#4aff6c" />
<rect x="96" y="28" width="2" height="2" fill="#4aff6c" />
<rect x="10" y="30" width="2" height="2" fill="#4aff6c" />
<rect x="12" y="30" width="2" height="2" fill="#4aff6c" />
<rect x="14" y="30" width="2" height="2" fill="#4aff6c" />
<rect x="16" y="30" width="2" height="2" fill="#4aff6c" />
<rect x="44" y="30" width="2" height="2" fill="#4aff6c" />
<rect x="46" y="30" width="2" height="2" fill="#4aff6c" />
<rect x="50" y="30" width="2" height="2" fill="#4aff6c" />
<rect x="52" y="30" width="2" height="2" fill="#4aff6c" />
<rect x="54" y="30" width="2" height="2" fill="#4aff6c" />
<rect x="56" y="30" width="2" height="2" fill="#4aff6c" />
<rect x="82" y="30" width="2" height="2" fill="#4aff6c" />
<rect x="90" y="30" width="2" height="2" fill="#4aff6c" />
<rect x="92" y="30" width="2" height="2" fill="#4aff6c" />
<rect x="94" y="30" width="2" height="2" fill="#4aff6c" />
<rect x="96" y="30" width="2" height="2" fill="#4aff6c" />
<rect x="48" y="32" width="2" height="2" fill="#4aff6c" />
<rect x="84" y="32" width="2" height="2" fill="#4aff6c" />
<rect x="86" y="32" width="2" height="2" fill="#4aff6c" />
<rect x="88" y="32" width="2" height="2" fill="#4aff6c" />
<rect x="14" y="34" width="2" height="2" fill="#4aff6c" />
<rect x="16" y="34" width="2" height="2" fill="#4aff6c" />
<rect x="48" y="34" width="2" height="2" fill="#4aff6c" />
<rect x="52" y="34" width="2" height="2" fill="#4aff6c" />
<rect x="88" y="34" width="2" height="2" fill="#4aff6c" />
<rect x="92" y="34" width="2" height="2" fill="#4aff6c" />
<rect x="14" y="36" width="2" height="2" fill="#4aff6c" />
<rect x="16" y="36" width="2" height="2" fill="#4aff6c" />
<rect x="50" y="36" width="2" height="2" fill="#4aff6c" />
<rect x="54" y="36" width="2" height="2" fill="#4aff6c" />
<rect x="90" y="36" width="2" height="2" fill="#4aff6c" />
<rect x="92" y="36" width="2" height="2" fill="#4aff6c" />
<rect x="52" y="38" width="2" height="2" fill="#4aff6c" />
</svg>