<?xml version="1.0" encoding="utf-8"?>
<svg xmlns="http://www.w3.org/2000/svg" width="73" height="113" viewBox="0 0 73 113">
<rect width="100%" height="100%" fill="transparent" />
<rect x="14" y="4" width="5" height="5" fill="#4aff6c" />
<rect x="19" y="4" width="5" height="5" fill="#4aff6c" />
<rect x="24" y="4" width="5" height="5" fill="#4aff6c" />
<rect x="29" y="4" width="5" height="5" fill="#4aff6c" />
<rect x="14" y="9" width="5" height="5" fill="#4aff6c" />
<rect x="29" y="9" width="5" height="5" fill="#4aff6c" />
<rect x="4" y="14" width="5" height="5" fill="#4aff6c" />
<rect x="9" y="14" width="5" height="5" fill="#4aff6c" />
<rect x="14" y="14" width="5" height="5" fill="#4aff6c" />
<rect x="29" y="14" width="5" height="5" fill="#4aff6c" />
<rect x="34" y="14" width="5" height="5" fill="#4aff6c" />
<rect x="39" y="14" width="5" height="5" fill="#4aff6c" />
<rect x="4" y="19" width="5" height="5" fill="#4aff6c" />
<rect x="39" y="19" width="5" height="5" fill="#4aff6c" />
<rect x="4" y="24" width="5" height="5" fill="#4aff6c" />
<rect x="39" y="24" width="5" height="5" fill="#4aff6c" />
<rect x="4" y="29" width="5" height="5" fill="#4aff6c" />
<rect x="9" y="29" width="5" height="5" fill="#4aff6c" />
<rect x="14" y="29" width="5" height="5" fill="#4aff6c" />
<rect x="29" y="29" width="5" height="5" fill="#4aff6c" />
<rect x="34" y="29" width="5" height="5" fill="#4aff6c" />
<rect x="39" y="29" width="5" height="5" fill="#4aff6c" />
<rect x="14" y="34" width="5" height="5" fill="#4aff6c" />
<rect x="29" y="34" width="5" height="5" fill="#4aff6c" />
<rect x="14" y="39" width="5" height="5" fill="#4aff6c" />
<rect x="19" y="39" width="5" height="5" fill="#4aff6c" />
<rect x="24" y="39" width="5" height="5" fill="#4aff6c" />
<rect x="29" y="39" width="5" height="5" fill="#4aff6c" />
<rect x="14" y="44" width="5" height="5" fill="#4aff6c" />
<rect x="19" y="44" width="5" height="5" fill="#4aff6c" />
<rect x="24" y="44" width="5" height="5" fill="#4aff6c" />
<rect x="29" y="44" width="5" height="5" fill="#4aff6c" />
<rect x="39" y="44" width="5" height="5" fill="#4aff6c" />
<rect x="44" y="44" width="5" height="5" fill="#4aff6c" />
<rect x="49" y="44" width="5" height="5" fill="#4aff6c" />
<rect x="54" y="44" width="5" height="5" fill="#4aff6c" />
<rect x="14" y="49" width="5" height="5" fill="#4aff6c" />
<rect x="29" y="49" width="5" height="5" fill="#4aff6c" />
<rect x="39" y="49" width="5" height="5" fill="#4aff6c" />
<rect x="54" y="49" width="5" height="5" fill="#4aff6c" />
<rect x="4" y="54" width="5" height="5" fill="#4aff6c" />
<rect x="9" y="54" width="5" height="5" fill="#4aff6c" />
<rect x="14" y="54" width="5" height="5" fill="#4aff6c" />
<rect x="29" y="54" width="5" height="5" fill="#4aff6c" />
<rect x="34" y="54" width="5" height="5" fill="#4aff6c" />
<rect x="39" y="54" width="5" height="5" fill="#4aff6c" />
<rect x="54" y="54" width="5" height="5" fill="#4aff6c" />
<rect x="59" y="54" width="5" height="5" fill="#4aff6c" />
<rect x="64" y="54" width="5" height="5" fill="#4aff6c" />
<rect x="4" y="59" width="5" height="5" fill="#4aff6c" />
<rect x="64" y="59" width="5" height="5" fill="#4aff6c" />
<rect x="4" y="64" width="5" height="5" fill="#4aff6c" />
<rect x="64" y="64" width="5" height="5" fill="#4aff6c" />
<rect x="4" y="69" width="5" height="5" fill="#4aff6c" />
<rect x="9" y="69" width="5" height="5" fill="#4aff6c" />
<rect x="14" y="69" width="5" height="5" fill="#4aff6c" />
<rect x="54" y="69" width="5" height="5" fill="#4aff6c" />
<rect x="59" y="69" width="5" height="5" fill="#4aff6c" />
<rect x="64" y="69" width="5" height="5" fill="#4aff6c" />
<rect x="14" y="74" width="5" height="5" fill="#4aff6c" />
<rect x="54" y="74" width="5" height="5" fill="#4aff6c" />
<rect x="4" y="79" width="5" height="5" fill="#4aff6c" />
<rect x="9" y="79" width="5" height="5" fill="#4aff6c" />
<rect x="14" y="79" width="5" height="5" fill="#4aff6c" />
<rect x="54" y="79" width="5" height="5" fill="#4aff6c" />
<rect x="59" y="79" width="5" height="5" fill="#4aff6c" />
<rect x="64" y="79" width="5" height="5" fill="#4aff6c" />
<rect x="4" y="84" width="5" height="5" fill="#4aff6c" />
<rect x="64" y="84" width="5" height="5" fill="#4aff6c" />
<rect x="4" y="89" width="5" height="5" fill="#4aff6c" />
<rect x="64" y="89" width="5" height="5" fill="#4aff6c" />
<rect x="4" y="94" width="5" height="5" fill="#4aff6c" />
<rect x="9" y="94" width="5" height="5" fill="#4aff6c" />
<rect x="14" y="94" width="5" height="5" fill="#4aff6c" />
<rect x="29" y="94" width="5" height="5" fill="#4aff6c" />
<rect x="34" y="94" width="5" height="5" fill="#4aff6c" />
<rect x="39" y="94" width="5" height="5" fill="#4aff6c" />
<rect x="54" y="94" width="5" height="5" fill="#4aff6c" />
<rect x="59" y="94" width="5" height="5" fill="#4aff6c" />
<rect x="64" y="94" width="5" height="5" fill="#4aff6c" />
<rect x="14" y="99" width="5" height="5" fill="#4aff6c" />
<rect x="29" y="99" width="5" height="5" fill="#4aff6c" />
<rect x="39" y="99" width="5" height="5" fill="#4aff6c" />
<rect x="54" y="99" width="5" height="5" fill="#4aff6c" />
<rect x="14" y="104" width="5" height="5" fill="#4aff6c" />
<rect x="19" y="104" width="5" height="5" fill="#4aff6c" />
<rect x="24" y="104" width="5" height="5" fill="#4aff6c" />
<rect x="29" y="104" width="5" height="5" fill="#4aff6c" />
<rect x="39" y="104" width="5" height="5" fill="#4aff6c" />
<rect x="44" y="104" width="5" height="5" fill="#4aff6c" />
<rect x="49" y="104" width="5" height="5" fill="#4aff6c" />
<rect x="54" y="104" width="5" height="5" fill="#4aff6c" />
</svg>