<?xml version="1.0" encoding="utf-8"?>
<svg xmlns="http://www.w3.org/2000/svg" width="120" height="120" viewBox="0 0 120 120">
<rect width="100%" height="100%" fill="transparent" />
<rect x="92" y="4" width="8" height="8" fill="#4aff6c" />
<rect x="76" y="12" width="8" height="8" fill="#4aff6c" />
<rect x="84" y="12" width="8" height="8" fill="#4aff6c" />
<rect x="92" y="12" width="8" height="8" fill="#4aff6c" />
<rect x="44" y="20" width="8" height="8" fill="#4aff6c" />
<rect x="52" y="20" width="8" height="8" fill="#4aff6c" />
<rect x="68" y="20" width="8" height="8" fill="#4aff6c" />
<rect x="44" y="28" width="8" height="8" fill="#4aff6c" />
<rect x="76" y="28" width="8" height="8" fill="#4aff6c" />
<rect x="60" y="36" width="8" height="8" fill="#4aff6c" />
<rect x="68" y="36" width="8" height="8" fill="#4aff6c" />
<rect x="84" y="36" width="8" height="8" fill="#4aff6c" />
<rect x="28" y="44" width="8" height="8" fill="#4aff6c" />
<rect x="36" y="44" width="8" height="8" fill="#4aff6c" />
<rect x="44" y="44" width="8" height="8" fill="#4aff6c" />
<rect x="52" y="44" width="8" height="8" fill="#4aff6c" />
<rect x="84" y="44" width="8" height="8" fill="#4aff6c" />
<rect x="4" y="52" width="8" height="8" fill="#4aff6c" />
<rect x="20" y="52" width="8" height="8" fill="#4aff6c" />
<rect x="68" y="52" width="8" height="8" fill="#4aff6c" />
<rect x="84" y="52" width="8" height="8" fill="#4aff6c" />
<rect x="100" y="52" width="8" height="8" fill="#4aff6c" />
<rect x="108" y="52" width="8" height="8" fill="#4aff6c" />
<rect x="4" y="60" width="8" height="8" fill="#4aff6c" />
<rect x="12" y="60" width="8" height="8" fill="#4aff6c" />
<rect x="28" y="60" width="8" height="8" fill="#4aff6c" />
<rect x="44" y="60" width="8" height="8" fill="#4aff6c" />
<rect x="92" y="60" width="8" height="8" fill="#4aff6c" />
<rect x="108" y="60" width="8" height="8" fill="#4aff6c" />
<rect x="28" y="68" width="8" height="8" fill="#4aff6c" />
<rect x="60" y="68" width="8" height="8" fill="#4aff6c" />
<rect x="68" y="68" width="8" height="8" fill="#4aff6c" />
<rect x="76" y="68" width="8" height="8" fill="#4aff6c" />
<rect x="84" y="68" width="8" height="8" fill="#4aff6c" />
<rect x="28" y="76" width="8" height="8" fill="#4aff6c" />
<rect x="44" y="76" width="8" height="8" fill="#4aff6c" />
<rect x="52" y="76" width="8" height="8" fill="#4aff6c" />
<rect x="36" y="84" width="8" height="8" fill="#4aff6c" />
<rect x="68" y="84" width="8" height="8" fill="#4aff6c" />
<rect x="44" y="92" width="8" height="8" fill="#4aff6c" />
<rect x="60" y="92" width="8" height="8" fill="#4aff6c" />
<rect x="68" y="92" width="8" height="8" fill="#4aff6c" />
<rect x="20" y="100" width="8" height="8" fill="#4aff6c" />
<rect x="28" y="100" width="8" height="8" fill="#4aff6c" />
<rect x="36" y="100" width="8" height="8" fill="#4aff6c" />
<rect x="20" y="108" width="8" height="8" fill="#4aff6c" />
</svg>