<?xml version="1.0" encoding="utf-8"?>
<svg xmlns="http://www.w3.org/2000/svg" width="107" height="77" viewBox="0 0 107 77">
<rect width="100%" height="100%" fill="transparent" />
<rect x="85" y="4" width="3" height="3" fill="#4aff6c" />
<rect x="28" y="7" width="3" height="3" fill="#4aff6c" />
<rect x="31" y="7" width="3" height="3" fill="#4aff6c" />
<rect x="85" y="7" width="3" height="3" fill="#4aff6c" />
<rect x="91" y="7" width="3" height="3" fill="#4aff6c" />
<rect x="31" y="10" width="3" height="3" fill="#4aff6c" />
<rect x="85" y="10" width="3" height="3" fill="#4aff6c" />
<rect x="88" y="10" width="3" height="3" fill="#4aff6c" />
<rect x="31" y="13" width="3" height="3" fill="#4aff6c" />
<rect x="37" y="13" width="3" height="3" fill="#4aff6c" />
<rect x="34" y="16" width="3" height="3" fill="#4aff6c" />
<rect x="37" y="16" width="3" height="3" fill="#4aff6c" />
<rect x="73" y="19" width="3" height="3" fill="#4aff6c" />
<rect x="76" y="19" width="3" height="3" fill="#4aff6c" />
<rect x="73" y="22" width="3" height="3" fill="#4aff6c" />
<rect x="79" y="22" width="3" height="3" fill="#4aff6c" />
<rect x="76" y="25" width="3" height="3" fill="#4aff6c" />
<rect x="91" y="34" width="3" height="3" fill="#4aff6c" />
<rect x="94" y="34" width="3" height="3" fill="#4aff6c" />
<rect x="34" y="37" width="3" height="3" fill="#4aff6c" />
<rect x="91" y="37" width="3" height="3" fill="#4aff6c" />
<rect x="97" y="37" width="3" height="3" fill="#4aff6c" />
<rect x="34" y="40" width="3" height="3" fill="#4aff6c" />
<rect x="40" y="40" width="3" height="3" fill="#4aff6c" />
<rect x="97" y="40" width="3" height="3" fill="#4aff6c" />
<rect x="34" y="43" width="3" height="3" fill="#4aff6c" />
<rect x="37" y="43" width="3" height="3" fill="#4aff6c" />
<rect x="40" y="43" width="3" height="3" fill="#4aff6c" />
<rect x="79" y="43" width="3" height="3" fill="#4aff6c" />
<rect x="82" y="43" width="3" height="3" fill="#4aff6c" />
<rect x="97" y="43" width="3" height="3" fill="#4aff6c" />
<rect x="100" y="43" width="3" height="3" fill="#4aff6c" />
<rect x="40" y="46" width="3" height="3" fill="#4aff6c" />
<rect x="79" y="46" width="3" height="3" fill="#4aff6c" />
<rect x="85" y="46" width="3" height="3" fill="#4aff6c" />
<rect x="85" y="49" width="3" height="3" fill="#4aff6c" />
<rect x="85" y="52" width="3" height="3" fill="#4aff6c" />
<rect x="88" y="52" width="3" height="3" fill="#4aff6c" />
<rect x="10" y="61" width="3" height="3" fill="#4aff6c" />
<rect x="13" y="61" width="3" height="3" fill="#4aff6c" />
<rect x="7" y="64" width="3" height="3" fill="#4aff6c" />
<rect x="13" y="64" width="3" height="3" fill="#4aff6c" />
<rect x="7" y="67" width="3" height="3" fill="#4aff6c" />
<rect x="4" y="70" width="3" height="3" fill="#4aff6c" />
<rect x="7" y="70" width="3" height="3" fill="#4aff6c" />
</svg>