<?xml version="1.0" encoding="utf-8"?>
<svg xmlns="http://www.w3.org/2000/svg" width="124" height="108" viewBox="0 0 124 108">
<rect width="100%" height="100%" fill="transparent" />
<rect x="24" y="4" width="4" height="4" fill="#4aff6c" />
<rect x="28" y="4" width="4" height="4" fill="#4aff6c" />
<rect x="96" y="4" width="4" height="4" fill="#4aff6c" />
<rect x="100" y="4" width="4" height="4" fill="#4aff6c" />
<rect x="28" y="8" width="4" height="4" fill="#4aff6c" />
<rect x="96" y="8" width="4" height="4" fill="#4aff6c" />
<rect x="28" y="12" width="4" height="4" fill="#4aff6c" />
<rect x="36" y="12" width="4" height="4" fill="#4aff6c" />
<rect x="88" y="12" width="4" height="4" fill="#4aff6c" />
<rect x="96" y="12" width="4" height="4" fill="#4aff6c" />
<rect x="32" y="16" width="4" height="4" fill="#4aff6c" />
<rect x="36" y="16" width="4" height="4" fill="#4aff6c" />
<rect x="88" y="16" width="4" height="4" fill="#4aff6c" />
<rect x="92" y="16" width="4" height="4" fill="#4aff6c" />
<rect x="20" y="24" width="4" height="4" fill="#4aff6c" />
<rect x="24" y="24" width="4" height="4" fill="#4aff6c" />
<rect x="100" y="24" width="4" height="4" fill="#4aff6c" />
<rect x="104" y="24" width="4" height="4" fill="#4aff6c" />
<rect x="20" y="28" width="4" height="4" fill="#4aff6c" />
<rect x="28" y="28" width="4" height="4" fill="#4aff6c" />
<rect x="72" y="28" width="4" height="4" fill="#4aff6c" />
<rect x="76" y="28" width="4" height="4" fill="#4aff6c" />
<rect x="96" y="28" width="4" height="4" fill="#4aff6c" />
<rect x="104" y="28" width="4" height="4" fill="#4aff6c" />
<rect x="24" y="32" width="4" height="4" fill="#4aff6c" />
<rect x="68" y="32" width="4" height="4" fill="#4aff6c" />
<rect x="76" y="32" width="4" height="4" fill="#4aff6c" />
<rect x="100" y="32" width="4" height="4" fill="#4aff6c" />
<rect x="12" y="36" width="4" height="4" fill="#4aff6c" />
<rect x="68" y="36" width="4" height="4" fill="#4aff6c" />
<rect x="72" y="36" width="4" height="4" fill="#4aff6c" />
<rect x="112" y="36" width="4" height="4" fill="#4aff6c" />
<rect x="12" y="40" width="4" height="4" fill="#4aff6c" />
<rect x="16" y="40" width="4" height="4" fill="#4aff6c" />
<rect x="20" y="40" width="4" height="4" fill="#4aff6c" />
<rect x="24" y="40" width="4" height="4" fill="#4aff6c" />
<rect x="28" y="40" width="4" height="4" fill="#4aff6c" />
<rect x="32" y="40" width="4" height="4" fill="#4aff6c" />
<rect x="68" y="40" width="4" height="4" fill="#4aff6c" />
<rect x="92" y="40" width="4" height="4" fill="#4aff6c" />
<rect x="96" y="40" width="4" height="4" fill="#4aff6c" />
<rect x="100" y="40" width="4" height="4" fill="#4aff6c" />
<rect x="104" y="40" width="4" height="4" fill="#4aff6c" />
<rect x="108" y="40" width="4" height="4" fill="#4aff6c" />
<rect x="112" y="40" width="4" height="4" fill="#4aff6c" />
<rect x="32" y="44" width="4" height="4" fill="#4aff6c" />
<rect x="92" y="44" width="4" height="4" fill="#4aff6c" />
<rect x="20" y="48" width="4" height="4" fill="#4aff6c" />
<rect x="24" y="48" width="4" height="4" fill="#4aff6c" />
<rect x="100" y="48" width="4" height="4" fill="#4aff6c" />
<rect x="104" y="48" width="4" height="4" fill="#4aff6c" />
<rect x="20" y="52" width="4" height="4" fill="#4aff6c" />
<rect x="104" y="52" width="4" height="4" fill="#4aff6c" />
<rect x="24" y="56" width="4" height="4" fill="#4aff6c" />
<rect x="100" y="56" width="4" height="4" fill="#4aff6c" />
<rect x="12" y="60" width="4" height="4" fill="#4aff6c" />
<rect x="16" y="60" width="4" height="4" fill="#4aff6c" />
<rect x="20" y="60" width="4" height="4" fill="#4aff6c" />
<rect x="32" y="60" width="4" height="4" fill="#4aff6c" />
<rect x="92" y="60" width="4" height="4" fill="#4aff6c" />
<rect x="104" y="60" width="4" height="4" fill="#4aff6c" />
<rect x="108" y="60" width="4" height="4" fill="#4aff6c" />
<rect x="112" y="60" width="4" height="4" fill="#4aff6c" />
<rect x="12" y="64" width="4" height="4" fill="#4aff6c" />
<rect x="24" y="64" width="4" height="4" fill="#4aff6c" />
<rect x="28" y="64" width="4" height="4" fill="#4aff6c" />
<rect x="32" y="64" width="4" height="4" fill="#4aff6c" />
<rect x="68" y="64" width="4" height="4" fill="#4aff6c" />
<rect x="92" y="64" width="4" height="4" fill="#4aff6c" />
<rect x="96" y="64" width="4" height="4" fill="#4aff6c" />
<rect x="100" y="64" width="4" height="4" fill="#4aff6c" />
<rect x="116" y="64" width="4" height="4" fill="#4aff6c" />
<rect x="16" y="68" width="4" height="4" fill="#4aff6c" />
<rect x="68" y="68" width="4" height="4" fill="#4aff6c" />
<rect x="72" y="68" width="4" height="4" fill="#4aff6c" />
<rect x="104" y="68" width="4" height="4" fill="#4aff6c" />
<rect x="108" y="68" width="4" height="4" fill="#4aff6c" />
<rect x="112" y="68" width="4" height="4" fill="#4aff6c" />
<rect x="20" y="72" width="4" height="4" fill="#4aff6c" />
<rect x="24" y="72" width="4" height="4" fill="#4aff6c" />
<rect x="68" y="72" width="4" height="4" fill="#4aff6c" />
<rect x="76" y="72" width="4" height="4" fill="#4aff6c" />
<rect x="100" y="72" width="4" height="4" fill="#4aff6c" />
<rect x="28" y="76" width="4" height="4" fill="#4aff6c" />
<rect x="72" y="76" width="4" height="4" fill="#4aff6c" />
<rect x="76" y="76" width="4" height="4" fill="#4aff6c" />
<rect x="96" y="76" width="4" height="4" fill="#4aff6c" />
<rect x="108" y="76" width="4" height="4" fill="#4aff6c" />
<rect x="112" y="76" width="4" height="4" fill="#4aff6c" />
<rect x="20" y="80" width="4" height="4" fill="#4aff6c" />
<rect x="24" y="80" width="4" height="4" fill="#4aff6c" />
<rect x="100" y="80" width="4" height="4" fill="#4aff6c" />
<rect x="104" y="80" width="4" height="4" fill="#4aff6c" />
<rect x="112" y="80" width="4" height="4" fill="#4aff6c" />
<rect x="8" y="84" width="4" height="4" fill="#4aff6c" />
<rect x="20" y="84" width="4" height="4" fill="#4aff6c" />
<rect x="104" y="84" width="4" height="4" fill="#4aff6c" />
<rect x="4" y="88" width="4" height="4" fill="#4aff6c" />
<rect x="12" y="88" width="4" height="4" fill="#4aff6c" />
<rect x="20" y="88" width="4" height="4" fill="#4aff6c" />
<rect x="32" y="88" width="4" height="4" fill="#4aff6c" />
<rect x="36" y="88" width="4" height="4" fill="#4aff6c" />
<rect x="88" y="88" width="4" height="4" fill="#4aff6c" />
<rect x="92" y="88" width="4" height="4" fill="#4aff6c" />
<rect x="104" y="88" width="4" height="4" fill="#4aff6c" />
<rect x="8" y="92" width="4" height="4" fill="#4aff6c" />
<rect x="20" y="92" width="4" height="4" fill="#4aff6c" />
<rect x="28" y="92" width="4" height="4" fill="#4aff6c" />
<rect x="36" y="92" width="4" height="4" fill="#4aff6c" />
<rect x="88" y="92" width="4" height="4" fill="#4aff6c" />
<rect x="96" y="92" width="4" height="4" fill="#4aff6c" />
<rect x="104" y="92" width="4" height="4" fill="#4aff6c" />
<rect x="108" y="92" width="4" height="4" fill="#4aff6c" />
<rect x="20" y="96" width="4" height="4" fill="#4aff6c" />
<rect x="28" y="96" width="4" height="4" fill="#4aff6c" />
<rect x="96" y="96" width="4" height="4" fill="#4aff6c" />
<rect x="108" y="96" width="4" height="4" fill="#4aff6c" />
<rect x="24" y="100" width="4" height="4" fill="#4aff6c" />
<rect x="28" y="100" width="4" height="4" fill="#4aff6c" />
<rect x="96" y="100" width="4" height="4" fill="#4aff6c" />
<rect x="100" y="100" width="4" height="4" fill="#4aff6c" />
</svg>