<?xml version="1.0" encoding="utf-8"?>
<svg xmlns="http://www.w3.org/2000/svg" width="128" height="64" viewBox="0 0 128 64">
<rect width="100%" height="100%" fill="transparent" />
<rect x="56" y="4" width="4" height="4" fill="#4aff6c" />
<rect x="68" y="4" width="4" height="4" fill="#4aff6c" />
<rect x="72" y="4" width="4" height="4" fill="#4aff6c" />
<rect x="100" y="4" width="4" height="4" fill="#4aff6c" />
<rect x="112" y="4" width="4" height="4" fill="#4aff6c" />
<rect x="116" y="4" width="4" height="4" fill="#4aff6c" />
<rect x="120" y="4" width="4" height="4" fill="#4aff6c" />
<rect x="24" y="8" width="4" height="4" fill="#4aff6c" />
<rect x="40" y="8" width="4" height="4" fill="#4aff6c" />
<rect x="44" y="8" width="4" height="4" fill="#4aff6c" />
<rect x="48" y="8" width="4" height="4" fill="#4aff6c" />
<rect x="52" y="8" width="4" height="4" fill="#4aff6c" />
<rect x="60" y="8" width="4" height="4" fill="#4aff6c" />
<rect x="64" y="8" width="4" height="4" fill="#4aff6c" />
<rect x="68" y="8" width="4" height="4" fill="#4aff6c" />
<rect x="72" y="8" width="4" height="4" fill="#4aff6c" />
<rect x="76" y="8" width="4" height="4" fill="#4aff6c" />
<rect x="80" y="8" width="4" height="4" fill="#4aff6c" />
<rect x="100" y="8" width="4" height="4" fill="#4aff6c" />
<rect x="112" y="8" width="4" height="4" fill="#4aff6c" />
<rect x="116" y="8" width="4" height="4" fill="#4aff6c" />
<rect x="120" y="8" width="4" height="4" fill="#4aff6c" />
<rect x="8" y="12" width="4" height="4" fill="#4aff6c" />
<rect x="12" y="12" width="4" height="4" fill="#4aff6c" />
<rect x="16" y="12" width="4" height="4" fill="#4aff6c" />
<rect x="20" y="12" width="4" height="4" fill="#4aff6c" />
<rect x="24" y="12" width="4" height="4" fill="#4aff6c" />
<rect x="44" y="12" width="4" height="4" fill="#4aff6c" />
<rect x="64" y="12" width="4" height="4" fill="#4aff6c" />
<rect x="84" y="12" width="4" height="4" fill="#4aff6c" />
<rect x="88" y="12" width="4" height="4" fill="#4aff6c" />
<rect x="92" y="12" width="4" height="4" fill="#4aff6c" />
<rect x="4" y="16" width="4" height="4" fill="#4aff6c" />
<rect x="32" y="16" width="4" height="4" fill="#4aff6c" />
<rect x="36" y="16" width="4" height="4" fill="#4aff6c" />
<rect x="44" y="16" width="4" height="4" fill="#4aff6c" />
<rect x="72" y="16" width="4" height="4" fill="#4aff6c" />
<rect x="76" y="16" width="4" height="4" fill="#4aff6c" />
<rect x="84" y="16" width="4" height="4" fill="#4aff6c" />
<rect x="88" y="16" width="4" height="4" fill="#4aff6c" />
<rect x="92" y="16" width="4" height="4" fill="#4aff6c" />
<rect x="104" y="16" width="4" height="4" fill="#4aff6c" />
<rect x="112" y="16" width="4" height="4" fill="#4aff6c" />
<rect x="116" y="16" width="4" height="4" fill="#4aff6c" />
<rect x="120" y="16" width="4" height="4" fill="#4aff6c" />
<rect x="8" y="20" width="4" height="4" fill="#4aff6c" />
<rect x="12" y="20" width="4" height="4" fill="#4aff6c" />
<rect x="16" y="20" width="4" height="4" fill="#4aff6c" />
<rect x="20" y="20" width="4" height="4" fill="#4aff6c" />
<rect x="24" y="20" width="4" height="4" fill="#4aff6c" />
<rect x="32" y="20" width="4" height="4" fill="#4aff6c" />
<rect x="36" y="20" width="4" height="4" fill="#4aff6c" />
<rect x="40" y="20" width="4" height="4" fill="#4aff6c" />
<rect x="76" y="20" width="4" height="4" fill="#4aff6c" />
<rect x="80" y="20" width="4" height="4" fill="#4aff6c" />
<rect x="84" y="20" width="4" height="4" fill="#4aff6c" />
<rect x="88" y="20" width="4" height="4" fill="#4aff6c" />
<rect x="104" y="20" width="4" height="4" fill="#4aff6c" />
<rect x="112" y="20" width="4" height="4" fill="#4aff6c" />
<rect x="116" y="20" width="4" height="4" fill="#4aff6c" />
<rect x="120" y="20" width="4" height="4" fill="#4aff6c" />
<rect x="24" y="24" width="4" height="4" fill="#4aff6c" />
<rect x="36" y="24" width="4" height="4" fill="#4aff6c" />
<rect x="96" y="24" width="4" height="4" fill="#4aff6c" />
<rect x="36" y="28" width="4" height="4" fill="#4aff6c" />
<rect x="40" y="28" width="4" height="4" fill="#4aff6c" />
<rect x="84" y="28" width="4" height="4" fill="#4aff6c" />
<rect x="88" y="28" width="4" height="4" fill="#4aff6c" />
<rect x="96" y="28" width="4" height="4" fill="#4aff6c" />
<rect x="100" y="28" width="4" height="4" fill="#4aff6c" />
<rect x="36" y="32" width="4" height="4" fill="#4aff6c" />
<rect x="40" y="32" width="4" height="4" fill="#4aff6c" />
<rect x="84" y="32" width="4" height="4" fill="#4aff6c" />
<rect x="88" y="32" width="4" height="4" fill="#4aff6c" />
<rect x="96" y="32" width="4" height="4" fill="#4aff6c" />
<rect x="100" y="32" width="4" height="4" fill="#4aff6c" />
<rect x="24" y="36" width="4" height="4" fill="#4aff6c" />
<rect x="36" y="36" width="4" height="4" fill="#4aff6c" />
<rect x="96" y="36" width="4" height="4" fill="#4aff6c" />
<rect x="8" y="40" width="4" height="4" fill="#4aff6c" />
<rect x="12" y="40" width="4" height="4" fill="#4aff6c" />
<rect x="16" y="40" width="4" height="4" fill="#4aff6c" />
<rect x="20" y="40" width="4" height="4" fill="#4aff6c" />
<rect x="24" y="40" width="4" height="4" fill="#4aff6c" />
<rect x="32" y="40" width="4" height="4" fill="#4aff6c" />
<rect x="36" y="40" width="4" height="4" fill="#4aff6c" />
<rect x="40" y="40" width="4" height="4" fill="#4aff6c" />
<rect x="76" y="40" width="4" height="4" fill="#4aff6c" />
<rect x="80" y="40" width="4" height="4" fill="#4aff6c" />
<rect x="84" y="40" width="4" height="4" fill="#4aff6c" />
<rect x="88" y="40" width="4" height="4" fill="#4aff6c" />
<rect x="104" y="40" width="4" height="4" fill="#4aff6c" />
<rect x="112" y="40" width="4" height="4" fill="#4aff6c" />
<rect x="116" y="40" width="4" height="4" fill="#4aff6c" />
<rect x="120" y="40" width="4" height="4" fill="#4aff6c" />
<rect x="4" y="44" width="4" height="4" fill="#4aff6c" />
<rect x="32" y="44" width="4" height="4" fill="#4aff6c" />
<rect x="36" y="44" width="4" height="4" fill="#4aff6c" />
<rect x="44" y="44" width="4" height="4" fill="#4aff6c" />
<rect x="72" y="44" width="4" height="4" fill="#4aff6c" />
<rect x="76" y="44" width="4" height="4" fill="#4aff6c" />
<rect x="84" y="44" width="4" height="4" fill="#4aff6c" />
<rect x="88" y="44" width="4" height="4" fill="#4aff6c" />
<rect x="92" y="44" width="4" height="4" fill="#4aff6c" />
<rect x="104" y="44" width="4" height="4" fill="#4aff6c" />
<rect x="112" y="44" width="4" height="4" fill="#4aff6c" />
<rect x="116" y="44" width="4" height="4" fill="#4aff6c" />
<rect x="120" y="44" width="4" height="4" fill="#4aff6c" />
<rect x="8" y="48" width="4" height="4" fill="#4aff6c" />
<rect x="12" y="48" width="4" height="4" fill="#4aff6c" />
<rect x="16" y="48" width="4" height="4" fill="#4aff6c" />
<rect x="20" y="48" width="4" height="4" fill="#4aff6c" />
<rect x="24" y="48" width="4" height="4" fill="#4aff6c" />
<rect x="44" y="48" width="4" height="4" fill="#4aff6c" />
<rect x="64" y="48" width="4" height="4" fill="#4aff6c" />
<rect x="84" y="48" width="4" height="4" fill="#4aff6c" />
<rect x="88" y="48" width="4" height="4" fill="#4aff6c" />
<rect x="92" y="48" width="4" height="4" fill="#4aff6c" />
<rect x="24" y="52" width="4" height="4" fill="#4aff6c" />
<rect x="40" y="52" width="4" height="4" fill="#4aff6c" />
<rect x="44" y="52" width="4" height="4" fill="#4aff6c" />
<rect x="48" y="52" width="4" height="4" fill="#4aff6c" />
<rect x="52" y="52" width="4" height="4" fill="#4aff6c" />
<rect x="60" y="52" width="4" height="4" fill="#4aff6c" />
<rect x="64" y="52" width="4" height="4" fill="#4aff6c" />
<rect x="68" y="52" width="4" height="4" fill="#4aff6c" />
<rect x="72" y="52" width="4" height="4" fill="#4aff6c" />
<rect x="76" y="52" width="4" height="4" fill="#4aff6c" />
<rect x="80" y="52" width="4" height="4" fill="#4aff6c" />
<rect x="100" y="52" width="4" height="4" fill="#4aff6c" />
<rect x="112" y="52" width="4" height="4" fill="#4aff6c" />
<rect x="116" y="52" width="4" height="4" fill="#4aff6c" />
<rect x="120" y="52" width="4" height="4" fill="#4aff6c" />
<rect x="56" y="56" width="4" height="4" fill="#4aff6c" />
<rect x="68" y="56" width="4" height="4" fill="#4aff6c" />
<rect x="72" y="56" width="4" height="4" fill="#4aff6c" />
<rect x="100" y="56" width="4" height="4" fill="#4aff6c" />
<rect x="112" y="56" width="4" height="4" fill="#4aff6c" />
<rect x="116" y="56" width="4" height="4" fill="#4aff6c" />
<rect x="120" y="56" width="4" height="4" fill="#4aff6c" />
</svg>