<?xml version="1.0" encoding="utf-8"?>
<svg xmlns="http://www.w3.org/2000/svg" width="84" height="124" viewBox="0 0 84 124">
<rect width="100%" height="100%" fill="transparent" />
<rect x="4" y="4" width="4" height="4" fill="#4aff6c" />
<rect x="8" y="4" width="4" height="4" fill="#4aff6c" />
<rect x="16" y="4" width="4" height="4" fill="#4aff6c" />
<rect x="4" y="8" width="4" height="4" fill="#4aff6c" />
<rect x="8" y="8" width="4" height="4" fill="#4aff6c" />
<rect x="16" y="8" width="4" height="4" fill="#4aff6c" />
<rect x="20" y="8" width="4" height="4" fill="#4aff6c" />
<rect x="24" y="8" width="4" height="4" fill="#4aff6c" />
<rect x="28" y="12" width="4" height="4" fill="#4aff6c" />
<rect x="4" y="16" width="4" height="4" fill="#4aff6c" />
<rect x="8" y="16" width="4" height="4" fill="#4aff6c" />
<rect x="16" y="16" width="4" height="4" fill="#4aff6c" />
<rect x="20" y="16" width="4" height="4" fill="#4aff6c" />
<rect x="24" y="16" width="4" height="4" fill="#4aff6c" />
<rect x="8" y="20" width="4" height="4" fill="#4aff6c" />
<rect x="16" y="20" width="4" height="4" fill="#4aff6c" />
<rect x="8" y="24" width="4" height="4" fill="#4aff6c" />
<rect x="16" y="24" width="4" height="4" fill="#4aff6c" />
<rect x="12" y="28" width="4" height="4" fill="#4aff6c" />
<rect x="8" y="32" width="4" height="4" fill="#4aff6c" />
<rect x="12" y="36" width="4" height="4" fill="#4aff6c" />
<rect x="4" y="40" width="4" height="4" fill="#4aff6c" />
<rect x="8" y="40" width="4" height="4" fill="#4aff6c" />
<rect x="12" y="40" width="4" height="4" fill="#4aff6c" />
<rect x="20" y="48" width="4" height="4" fill="#4aff6c" />
<rect x="24" y="52" width="4" height="4" fill="#4aff6c" />
<rect x="16" y="56" width="4" height="4" fill="#4aff6c" />
<rect x="20" y="56" width="4" height="4" fill="#4aff6c" />
<rect x="24" y="56" width="4" height="4" fill="#4aff6c" />
<rect x="32" y="64" width="4" height="4" fill="#4aff6c" />
<rect x="36" y="68" width="4" height="4" fill="#4aff6c" />
<rect x="28" y="72" width="4" height="4" fill="#4aff6c" />
<rect x="32" y="72" width="4" height="4" fill="#4aff6c" />
<rect x="36" y="72" width="4" height="4" fill="#4aff6c" />
<rect x="44" y="80" width="4" height="4" fill="#4aff6c" />
<rect x="48" y="84" width="4" height="4" fill="#4aff6c" />
<rect x="72" y="84" width="4" height="4" fill="#4aff6c" />
<rect x="76" y="84" width="4" height="4" fill="#4aff6c" />
<rect x="40" y="88" width="4" height="4" fill="#4aff6c" />
<rect x="44" y="88" width="4" height="4" fill="#4aff6c" />
<rect x="48" y="88" width="4" height="4" fill="#4aff6c" />
<rect x="76" y="88" width="4" height="4" fill="#4aff6c" />
<rect x="56" y="92" width="4" height="4" fill="#4aff6c" />
<rect x="60" y="92" width="4" height="4" fill="#4aff6c" />
<rect x="68" y="92" width="4" height="4" fill="#4aff6c" />
<rect x="56" y="96" width="4" height="4" fill="#4aff6c" />
<rect x="60" y="96" width="4" height="4" fill="#4aff6c" />
<rect x="68" y="96" width="4" height="4" fill="#4aff6c" />
<rect x="72" y="96" width="4" height="4" fill="#4aff6c" />
<rect x="56" y="104" width="4" height="4" fill="#4aff6c" />
<rect x="60" y="104" width="4" height="4" fill="#4aff6c" />
<rect x="68" y="104" width="4" height="4" fill="#4aff6c" />
<rect x="72" y="104" width="4" height="4" fill="#4aff6c" />
<rect x="60" y="108" width="4" height="4" fill="#4aff6c" />
<rect x="68" y="108" width="4" height="4" fill="#4aff6c" />
<rect x="60" y="112" width="4" height="4" fill="#4aff6c" />
<rect x="68" y="112" width="4" height="4" fill="#4aff6c" />
<rect x="64" y="116" width="4" height="4" fill="#4aff6c" />
</svg>