<?xml version="1.0" encoding="utf-8"?>
<svg xmlns="http://www.w3.org/2000/svg" width="92" height="72" viewBox="0 0 92 72">
<rect width="100%" height="100%" fill="transparent" />
<rect x="4" y="4" width="2" height="2" fill="#4aff6c" />
<rect x="6" y="4" width="2" height="2" fill="#4aff6c" />
<rect x="32" y="4" width="2" height="2" fill="#4aff6c" />
<rect x="34" y="4" width="2" height="2" fill="#4aff6c" />
<rect x="40" y="4" width="2" height="2" fill="#4aff6c" />
<rect x="50" y="4" width="2" height="2" fill="#4aff6c" />
<rect x="52" y="4" width="2" height="2" fill="#4aff6c" />
<rect x="58" y="4" width="2" height="2" fill="#4aff6c" />
<rect x="60" y="4" width="2" height="2" fill="#4aff6c" />
<rect x="4" y="6" width="2" height="2" fill="#4aff6c" />
<rect x="6" y="6" width="2" height="2" fill="#4aff6c" />
<rect x="32" y="6" width="2" height="2" fill="#4aff6c" />
<rect x="36" y="6" width="2" height="2" fill="#4aff6c" />
<rect x="38" y="6" width="2" height="2" fill="#4aff6c" />
<rect x="52" y="6" width="2" height="2" fill="#4aff6c" />
<rect x="54" y="6" width="2" height="2" fill="#4aff6c" />
<rect x="58" y="6" width="2" height="2" fill="#4aff6c" />
<rect x="60" y="6" width="2" height="2" fill="#4aff6c" />
<rect x="34" y="8" width="2" height="2" fill="#4aff6c" />
<rect x="48" y="8" width="2" height="2" fill="#4aff6c" />
<rect x="52" y="8" width="2" height="2" fill="#4aff6c" />
<rect x="34" y="10" width="2" height="2" fill="#4aff6c" />
<rect x="36" y="10" width="2" height="2" fill="#4aff6c" />
<rect x="38" y="10" width="2" height="2" fill="#4aff6c" />
<rect x="48" y="10" width="2" height="2" fill="#4aff6c" />
<rect x="50" y="10" width="2" height="2" fill="#4aff6c" />
<rect x="34" y="14" width="2" height="2" fill="#4aff6c" />
<rect x="36" y="14" width="2" height="2" fill="#4aff6c" />
<rect x="38" y="14" width="2" height="2" fill="#4aff6c" />
<rect x="48" y="14" width="2" height="2" fill="#4aff6c" />
<rect x="50" y="14" width="2" height="2" fill="#4aff6c" />
<rect x="34" y="16" width="2" height="2" fill="#4aff6c" />
<rect x="48" y="16" width="2" height="2" fill="#4aff6c" />
<rect x="52" y="16" width="2" height="2" fill="#4aff6c" />
<rect x="4" y="18" width="2" height="2" fill="#4aff6c" />
<rect x="6" y="18" width="2" height="2" fill="#4aff6c" />
<rect x="32" y="18" width="2" height="2" fill="#4aff6c" />
<rect x="36" y="18" width="2" height="2" fill="#4aff6c" />
<rect x="38" y="18" width="2" height="2" fill="#4aff6c" />
<rect x="52" y="18" width="2" height="2" fill="#4aff6c" />
<rect x="54" y="18" width="2" height="2" fill="#4aff6c" />
<rect x="4" y="20" width="2" height="2" fill="#4aff6c" />
<rect x="6" y="20" width="2" height="2" fill="#4aff6c" />
<rect x="32" y="20" width="2" height="2" fill="#4aff6c" />
<rect x="34" y="20" width="2" height="2" fill="#4aff6c" />
<rect x="40" y="20" width="2" height="2" fill="#4aff6c" />
<rect x="50" y="20" width="2" height="2" fill="#4aff6c" />
<rect x="52" y="20" width="2" height="2" fill="#4aff6c" />
<rect x="66" y="34" width="2" height="2" fill="#4aff6c" />
<rect x="68" y="34" width="2" height="2" fill="#4aff6c" />
<rect x="70" y="34" width="2" height="2" fill="#4aff6c" />
<rect x="78" y="34" width="2" height="2" fill="#4aff6c" />
<rect x="80" y="34" width="2" height="2" fill="#4aff6c" />
<rect x="82" y="34" width="2" height="2" fill="#4aff6c" />
<rect x="64" y="36" width="2" height="2" fill="#4aff6c" />
<rect x="72" y="36" width="2" height="2" fill="#4aff6c" />
<rect x="76" y="36" width="2" height="2" fill="#4aff6c" />
<rect x="84" y="36" width="2" height="2" fill="#4aff6c" />
<rect x="62" y="38" width="2" height="2" fill="#4aff6c" />
<rect x="70" y="38" width="2" height="2" fill="#4aff6c" />
<rect x="72" y="38" width="2" height="2" fill="#4aff6c" />
<rect x="76" y="38" width="2" height="2" fill="#4aff6c" />
<rect x="78" y="38" width="2" height="2" fill="#4aff6c" />
<rect x="86" y="38" width="2" height="2" fill="#4aff6c" />
<rect x="62" y="40" width="2" height="2" fill="#4aff6c" />
<rect x="66" y="40" width="2" height="2" fill="#4aff6c" />
<rect x="68" y="40" width="2" height="2" fill="#4aff6c" />
<rect x="80" y="40" width="2" height="2" fill="#4aff6c" />
<rect x="82" y="40" width="2" height="2" fill="#4aff6c" />
<rect x="86" y="40" width="2" height="2" fill="#4aff6c" />
<rect x="66" y="42" width="2" height="2" fill="#4aff6c" />
<rect x="82" y="42" width="2" height="2" fill="#4aff6c" />
<rect x="66" y="64" width="2" height="2" fill="#4aff6c" />
<rect x="68" y="64" width="2" height="2" fill="#4aff6c" />
<rect x="80" y="64" width="2" height="2" fill="#4aff6c" />
<rect x="82" y="64" width="2" height="2" fill="#4aff6c" />
<rect x="66" y="66" width="2" height="2" fill="#4aff6c" />
<rect x="68" y="66" width="2" height="2" fill="#4aff6c" />
<rect x="80" y="66" width="2" height="2" fill="#4aff6c" />
<rect x="82" y="66" width="2" height="2" fill="#4aff6c" />
</svg>