<?xml version="1.0" encoding="utf-8"?>
<svg xmlns="http://www.w3.org/2000/svg" width="107" height="113" viewBox="0 0 107 113">
<rect width="100%" height="100%" fill="transparent" />
<rect x="34" y="4" width="3" height="3" fill="#4aff6c" />
<rect x="34" y="7" width="3" height="3" fill="#4aff6c" />
<rect x="37" y="7" width="3" height="3" fill="#4aff6c" />
<rect x="40" y="7" width="3" height="3" fill="#4aff6c" />
<rect x="43" y="10" width="3" height="3" fill="#4aff6c" />
<rect x="40" y="13" width="3" height="3" fill="#4aff6c" />
<rect x="43" y="13" width="3" height="3" fill="#4aff6c" />
<rect x="19" y="16" width="3" height="3" fill="#4aff6c" />
<rect x="19" y="19" width="3" height="3" fill="#4aff6c" />
<rect x="22" y="19" width="3" height="3" fill="#4aff6c" />
<rect x="25" y="19" width="3" height="3" fill="#4aff6c" />
<rect x="28" y="22" width="3" height="3" fill="#4aff6c" />
<rect x="25" y="25" width="3" height="3" fill="#4aff6c" />
<rect x="28" y="25" width="3" height="3" fill="#4aff6c" />
<rect x="94" y="31" width="3" height="3" fill="#4aff6c" />
<rect x="16" y="34" width="3" height="3" fill="#4aff6c" />
<rect x="19" y="34" width="3" height="3" fill="#4aff6c" />
<rect x="94" y="34" width="3" height="3" fill="#4aff6c" />
<rect x="19" y="37" width="3" height="3" fill="#4aff6c" />
<rect x="94" y="37" width="3" height="3" fill="#4aff6c" />
<rect x="97" y="37" width="3" height="3" fill="#4aff6c" />
<rect x="100" y="37" width="3" height="3" fill="#4aff6c" />
<rect x="19" y="40" width="3" height="3" fill="#4aff6c" />
<rect x="25" y="40" width="3" height="3" fill="#4aff6c" />
<rect x="100" y="40" width="3" height="3" fill="#4aff6c" />
<rect x="22" y="43" width="3" height="3" fill="#4aff6c" />
<rect x="25" y="43" width="3" height="3" fill="#4aff6c" />
<rect x="4" y="52" width="3" height="3" fill="#4aff6c" />
<rect x="4" y="55" width="3" height="3" fill="#4aff6c" />
<rect x="7" y="55" width="3" height="3" fill="#4aff6c" />
<rect x="10" y="55" width="3" height="3" fill="#4aff6c" />
<rect x="13" y="58" width="3" height="3" fill="#4aff6c" />
<rect x="10" y="61" width="3" height="3" fill="#4aff6c" />
<rect x="13" y="61" width="3" height="3" fill="#4aff6c" />
<rect x="7" y="82" width="3" height="3" fill="#4aff6c" />
<rect x="7" y="85" width="3" height="3" fill="#4aff6c" />
<rect x="13" y="85" width="3" height="3" fill="#4aff6c" />
<rect x="7" y="88" width="3" height="3" fill="#4aff6c" />
<rect x="10" y="88" width="3" height="3" fill="#4aff6c" />
<rect x="13" y="88" width="3" height="3" fill="#4aff6c" />
<rect x="13" y="91" width="3" height="3" fill="#4aff6c" />
<rect x="34" y="97" width="3" height="3" fill="#4aff6c" />
<rect x="37" y="97" width="3" height="3" fill="#4aff6c" />
<rect x="37" y="100" width="3" height="3" fill="#4aff6c" />
<rect x="28" y="103" width="3" height="3" fill="#4aff6c" />
<rect x="31" y="103" width="3" height="3" fill="#4aff6c" />
<rect x="34" y="103" width="3" height="3" fill="#4aff6c" />
<rect x="28" y="106" width="3" height="3" fill="#4aff6c" />
</svg>