<?xml version="1.0" encoding="utf-8"?>
<svg xmlns="http://www.w3.org/2000/svg" width="112" height="108" viewBox="0 0 112 108">
<rect width="100%" height="100%" fill="transparent" />
<rect x="44" y="4" width="4" height="4" fill="#4aff6c" />
<rect x="48" y="4" width="4" height="4" fill="#4aff6c" />
<rect x="52" y="4" width="4" height="4" fill="#4aff6c" />
<rect x="56" y="4" width="4" height="4" fill="#4aff6c" />
<rect x="20" y="8" width="4" height="4" fill="#4aff6c" />
<rect x="24" y="8" width="4" height="4" fill="#4aff6c" />
<rect x="40" y="8" width="4" height="4" fill="#4aff6c" />
<rect x="44" y="8" width="4" height="4" fill="#4aff6c" />
<rect x="48" y="8" width="4" height="4" fill="#4aff6c" />
<rect x="52" y="8" width="4" height="4" fill="#4aff6c" />
<rect x="56" y="8" width="4" height="4" fill="#4aff6c" />
<rect x="60" y="8" width="4" height="4" fill="#4aff6c" />
<rect x="4" y="12" width="4" height="4" fill="#4aff6c" />
<rect x="8" y="12" width="4" height="4" fill="#4aff6c" />
<rect x="12" y="12" width="4" height="4" fill="#4aff6c" />
<rect x="16" y="12" width="4" height="4" fill="#4aff6c" />
<rect x="24" y="12" width="4" height="4" fill="#4aff6c" />
<rect x="28" y="12" width="4" height="4" fill="#4aff6c" />
<rect x="40" y="12" width="4" height="4" fill="#4aff6c" />
<rect x="44" y="12" width="4" height="4" fill="#4aff6c" />
<rect x="48" y="12" width="4" height="4" fill="#4aff6c" />
<rect x="52" y="12" width="4" height="4" fill="#4aff6c" />
<rect x="60" y="12" width="4" height="4" fill="#4aff6c" />
<rect x="64" y="12" width="4" height="4" fill="#4aff6c" />
<rect x="4" y="16" width="4" height="4" fill="#4aff6c" />
<rect x="8" y="16" width="4" height="4" fill="#4aff6c" />
<rect x="12" y="16" width="4" height="4" fill="#4aff6c" />
<rect x="16" y="16" width="4" height="4" fill="#4aff6c" />
<rect x="20" y="16" width="4" height="4" fill="#4aff6c" />
<rect x="24" y="16" width="4" height="4" fill="#4aff6c" />
<rect x="56" y="16" width="4" height="4" fill="#4aff6c" />
<rect x="60" y="16" width="4" height="4" fill="#4aff6c" />
<rect x="8" y="20" width="4" height="4" fill="#4aff6c" />
<rect x="12" y="20" width="4" height="4" fill="#4aff6c" />
<rect x="16" y="20" width="4" height="4" fill="#4aff6c" />
<rect x="20" y="20" width="4" height="4" fill="#4aff6c" />
<rect x="68" y="28" width="4" height="4" fill="#4aff6c" />
<rect x="72" y="28" width="4" height="4" fill="#4aff6c" />
<rect x="60" y="32" width="4" height="4" fill="#4aff6c" />
<rect x="80" y="32" width="4" height="4" fill="#4aff6c" />
<rect x="56" y="40" width="4" height="4" fill="#4aff6c" />
<rect x="64" y="40" width="4" height="4" fill="#4aff6c" />
<rect x="76" y="40" width="4" height="4" fill="#4aff6c" />
<rect x="84" y="40" width="4" height="4" fill="#4aff6c" />
<rect x="48" y="44" width="4" height="4" fill="#4aff6c" />
<rect x="52" y="44" width="4" height="4" fill="#4aff6c" />
<rect x="56" y="44" width="4" height="4" fill="#4aff6c" />
<rect x="60" y="44" width="4" height="4" fill="#4aff6c" />
<rect x="68" y="44" width="4" height="4" fill="#4aff6c" />
<rect x="72" y="44" width="4" height="4" fill="#4aff6c" />
<rect x="80" y="44" width="4" height="4" fill="#4aff6c" />
<rect x="84" y="44" width="4" height="4" fill="#4aff6c" />
<rect x="88" y="44" width="4" height="4" fill="#4aff6c" />
<rect x="92" y="44" width="4" height="4" fill="#4aff6c" />
<rect x="36" y="48" width="4" height="4" fill="#4aff6c" />
<rect x="44" y="48" width="4" height="4" fill="#4aff6c" />
<rect x="64" y="48" width="4" height="4" fill="#4aff6c" />
<rect x="76" y="48" width="4" height="4" fill="#4aff6c" />
<rect x="96" y="48" width="4" height="4" fill="#4aff6c" />
<rect x="104" y="48" width="4" height="4" fill="#4aff6c" />
<rect x="36" y="52" width="4" height="4" fill="#4aff6c" />
<rect x="40" y="52" width="4" height="4" fill="#4aff6c" />
<rect x="48" y="52" width="4" height="4" fill="#4aff6c" />
<rect x="52" y="52" width="4" height="4" fill="#4aff6c" />
<rect x="60" y="52" width="4" height="4" fill="#4aff6c" />
<rect x="80" y="52" width="4" height="4" fill="#4aff6c" />
<rect x="88" y="52" width="4" height="4" fill="#4aff6c" />
<rect x="92" y="52" width="4" height="4" fill="#4aff6c" />
<rect x="100" y="52" width="4" height="4" fill="#4aff6c" />
<rect x="104" y="52" width="4" height="4" fill="#4aff6c" />
<rect x="48" y="56" width="4" height="4" fill="#4aff6c" />
<rect x="56" y="56" width="4" height="4" fill="#4aff6c" />
<rect x="84" y="56" width="4" height="4" fill="#4aff6c" />
<rect x="92" y="56" width="4" height="4" fill="#4aff6c" />
<rect x="36" y="60" width="4" height="4" fill="#4aff6c" />
<rect x="40" y="60" width="4" height="4" fill="#4aff6c" />
<rect x="48" y="60" width="4" height="4" fill="#4aff6c" />
<rect x="56" y="60" width="4" height="4" fill="#4aff6c" />
<rect x="84" y="60" width="4" height="4" fill="#4aff6c" />
<rect x="92" y="60" width="4" height="4" fill="#4aff6c" />
<rect x="100" y="60" width="4" height="4" fill="#4aff6c" />
<rect x="104" y="60" width="4" height="4" fill="#4aff6c" />
<rect x="36" y="64" width="4" height="4" fill="#4aff6c" />
<rect x="40" y="64" width="4" height="4" fill="#4aff6c" />
<rect x="48" y="64" width="4" height="4" fill="#4aff6c" />
<rect x="92" y="64" width="4" height="4" fill="#4aff6c" />
<rect x="100" y="64" width="4" height="4" fill="#4aff6c" />
<rect x="104" y="64" width="4" height="4" fill="#4aff6c" />
<rect x="48" y="68" width="4" height="4" fill="#4aff6c" />
<rect x="56" y="68" width="4" height="4" fill="#4aff6c" />
<rect x="64" y="68" width="4" height="4" fill="#4aff6c" />
<rect x="68" y="68" width="4" height="4" fill="#4aff6c" />
<rect x="72" y="68" width="4" height="4" fill="#4aff6c" />
<rect x="76" y="68" width="4" height="4" fill="#4aff6c" />
<rect x="84" y="68" width="4" height="4" fill="#4aff6c" />
<rect x="92" y="68" width="4" height="4" fill="#4aff6c" />
<rect x="48" y="72" width="4" height="4" fill="#4aff6c" />
<rect x="56" y="72" width="4" height="4" fill="#4aff6c" />
<rect x="84" y="72" width="4" height="4" fill="#4aff6c" />
<rect x="92" y="72" width="4" height="4" fill="#4aff6c" />
<rect x="44" y="76" width="4" height="4" fill="#4aff6c" />
<rect x="48" y="76" width="4" height="4" fill="#4aff6c" />
<rect x="56" y="76" width="4" height="4" fill="#4aff6c" />
<rect x="64" y="76" width="4" height="4" fill="#4aff6c" />
<rect x="68" y="76" width="4" height="4" fill="#4aff6c" />
<rect x="72" y="76" width="4" height="4" fill="#4aff6c" />
<rect x="76" y="76" width="4" height="4" fill="#4aff6c" />
<rect x="84" y="76" width="4" height="4" fill="#4aff6c" />
<rect x="92" y="76" width="4" height="4" fill="#4aff6c" />
<rect x="96" y="76" width="4" height="4" fill="#4aff6c" />
<rect x="44" y="80" width="4" height="4" fill="#4aff6c" />
<rect x="56" y="80" width="4" height="4" fill="#4aff6c" />
<rect x="60" y="80" width="4" height="4" fill="#4aff6c" />
<rect x="64" y="80" width="4" height="4" fill="#4aff6c" />
<rect x="76" y="80" width="4" height="4" fill="#4aff6c" />
<rect x="80" y="80" width="4" height="4" fill="#4aff6c" />
<rect x="84" y="80" width="4" height="4" fill="#4aff6c" />
<rect x="96" y="80" width="4" height="4" fill="#4aff6c" />
<rect x="52" y="84" width="4" height="4" fill="#4aff6c" />
<rect x="64" y="84" width="4" height="4" fill="#4aff6c" />
<rect x="68" y="84" width="4" height="4" fill="#4aff6c" />
<rect x="72" y="84" width="4" height="4" fill="#4aff6c" />
<rect x="76" y="84" width="4" height="4" fill="#4aff6c" />
<rect x="88" y="84" width="4" height="4" fill="#4aff6c" />
<rect x="48" y="88" width="4" height="4" fill="#4aff6c" />
<rect x="52" y="88" width="4" height="4" fill="#4aff6c" />
<rect x="60" y="88" width="4" height="4" fill="#4aff6c" />
<rect x="80" y="88" width="4" height="4" fill="#4aff6c" />
<rect x="88" y="88" width="4" height="4" fill="#4aff6c" />
<rect x="92" y="88" width="4" height="4" fill="#4aff6c" />
<rect x="48" y="92" width="4" height="4" fill="#4aff6c" />
<rect x="60" y="92" width="4" height="4" fill="#4aff6c" />
<rect x="80" y="92" width="4" height="4" fill="#4aff6c" />
<rect x="92" y="92" width="4" height="4" fill="#4aff6c" />
<rect x="52" y="96" width="4" height="4" fill="#4aff6c" />
<rect x="64" y="96" width="4" height="4" fill="#4aff6c" />
<rect x="76" y="96" width="4" height="4" fill="#4aff6c" />
<rect x="88" y="96" width="4" height="4" fill="#4aff6c" />
<rect x="56" y="100" width="4" height="4" fill="#4aff6c" />
<rect x="60" y="100" width="4" height="4" fill="#4aff6c" />
<rect x="80" y="100" width="4" height="4" fill="#4aff6c" />
<rect x="84" y="100" width="4" height="4" fill="#4aff6c" />
</svg>