<?xml version="1.0" encoding="utf-8"?>
<svg xmlns="http://www.w3.org/2000/svg" width="70" height="32" viewBox="0 0 70 32">
<rect width="100%" height="100%" fill="transparent" />
<rect x="36" y="4" width="1" height="1" fill="#4aff6c" />
<rect x="37" y="5" width="1" height="1" fill="#4aff6c" />
<rect x="35" y="6" width="1" height="1" fill="#4aff6c" />
<rect x="36" y="6" width="1" height="1" fill="#4aff6c" />
<rect x="37" y="6" width="1" height="1" fill="#4aff6c" />
<rect x="43" y="11" width="1" height="1" fill="#4aff6c" />
<rect x="44" y="12" width="1" height="1" fill="#4aff6c" />
<rect x="42" y="13" width="1" height="1" fill="#4aff6c" />
<rect x="43" y="13" width="1" height="1" fill="#4aff6c" />
<rect x="44" y="13" width="1" height="1" fill="#4aff6c" />
<rect x="50" y="18" width="1" height="1" fill="#4aff6c" />
<rect x="51" y="19" width="1" height="1" fill="#4aff6c" />
<rect x="49" y="20" width="1" height="1" fill="#4aff6c" />
<rect x="50" y="20" width="1" height="1" fill="#4aff6c" />
<rect x="51" y="20" width="1" height="1" fill="#4aff6c" />
<rect x="6" y="23" width="1" height="1" fill="#4aff6c" />
<rect x="20" y="23" width="1" height="1" fill="#4aff6c" />
<rect x="48" y="23" width="1" height="1" fill="#4aff6c" />
<rect x="62" y="23" width="1" height="1" fill="#4aff6c" />
<rect x="4" y="24" width="1" height="1" fill="#4aff6c" />
<rect x="8" y="24" width="1" height="1" fill="#4aff6c" />
<rect x="18" y="24" width="1" height="1" fill="#4aff6c" />
<rect x="22" y="24" width="1" height="1" fill="#4aff6c" />
<rect x="46" y="24" width="1" height="1" fill="#4aff6c" />
<rect x="50" y="24" width="1" height="1" fill="#4aff6c" />
<rect x="60" y="24" width="1" height="1" fill="#4aff6c" />
<rect x="64" y="24" width="1" height="1" fill="#4aff6c" />
<rect x="9" y="25" width="1" height="1" fill="#4aff6c" />
<rect x="23" y="25" width="1" height="1" fill="#4aff6c" />
<rect x="51" y="25" width="1" height="1" fill="#4aff6c" />
<rect x="65" y="25" width="1" height="1" fill="#4aff6c" />
<rect x="4" y="26" width="1" height="1" fill="#4aff6c" />
<rect x="9" y="26" width="1" height="1" fill="#4aff6c" />
<rect x="18" y="26" width="1" height="1" fill="#4aff6c" />
<rect x="23" y="26" width="1" height="1" fill="#4aff6c" />
<rect x="46" y="26" width="1" height="1" fill="#4aff6c" />
<rect x="51" y="26" width="1" height="1" fill="#4aff6c" />
<rect x="60" y="26" width="1" height="1" fill="#4aff6c" />
<rect x="65" y="26" width="1" height="1" fill="#4aff6c" />
<rect x="5" y="27" width="1" height="1" fill="#4aff6c" />
<rect x="6" y="27" width="1" height="1" fill="#4aff6c" />
<rect x="7" y="27" width="1" height="1" fill="#4aff6c" />
<rect x="8" y="27" width="1" height="1" fill="#4aff6c" />
<rect x="9" y="27" width="1" height="1" fill="#4aff6c" />
<rect x="19" y="27" width="1" height="1" fill="#4aff6c" />
<rect x="20" y="27" width="1" height="1" fill="#4aff6c" />
<rect x="21" y="27" width="1" height="1" fill="#4aff6c" />
<rect x="22" y="27" width="1" height="1" fill="#4aff6c" />
<rect x="23" y="27" width="1" height="1" fill="#4aff6c" />
<rect x="47" y="27" width="1" height="1" fill="#4aff6c" />
<rect x="48" y="27" width="1" height="1" fill="#4aff6c" />
<rect x="49" y="27" width="1" height="1" fill="#4aff6c" />
<rect x="50" y="27" width="1" height="1" fill="#4aff6c" />
<rect x="51" y="27" width="1" height="1" fill="#4aff6c" />
<rect x="61" y="27" width="1" height="1" fill="#4aff6c" />
<rect x="62" y="27" width="1" height="1" fill="#4aff6c" />
<rect x="63" y="27" width="1" height="1" fill="#4aff6c" />
<rect x="64" y="27" width="1" height="1" fill="#4aff6c" />
<rect x="65" y="27" width="1" height="1" fill="#4aff6c" />
</svg>