<?xml version="1.0" encoding="utf-8"?>
<svg xmlns="http://www.w3.org/2000/svg" width="128" height="104" viewBox="0 0 128 104">
<rect width="100%" height="100%" fill="transparent" />
<rect x="40" y="4" width="12" height="12" fill="#4aff6c" />
<rect x="16" y="16" width="12" height="12" fill="#4aff6c" />
<rect x="28" y="16" width="12" height="12" fill="#4aff6c" />
<rect x="40" y="16" width="12" height="12" fill="#4aff6c" />
<rect x="4" y="28" width="12" height="12" fill="#4aff6c" />
<rect x="16" y="40" width="12" height="12" fill="#4aff6c" />
<rect x="40" y="40" width="12" height="12" fill="#4aff6c" />
<rect x="52" y="40" width="12" height="12" fill="#4aff6c" />
<rect x="64" y="40" width="12" height="12" fill="#4aff6c" />
<rect x="16" y="52" width="12" height="12" fill="#4aff6c" />
<rect x="88" y="52" width="12" height="12" fill="#4aff6c" />
<rect x="28" y="64" width="12" height="12" fill="#4aff6c" />
<rect x="64" y="64" width="12" height="12" fill="#4aff6c" />
<rect x="28" y="76" width="12" height="12" fill="#4aff6c" />
<rect x="52" y="76" width="12" height="12" fill="#4aff6c" />
<rect x="88" y="76" width="12" height="12" fill="#4aff6c" />
<rect x="112" y="76" width="12" height="12" fill="#4aff6c" />
<rect x="100" y="88" width="12" height="12" fill="#4aff6c" />
<rect x="112" y="88" width="12" height="12" fill="#4aff6c" />
</svg>