<?xml version="1.0" encoding="utf-8"?>
<svg xmlns="http://www.w3.org/2000/svg" width="107" height="125" viewBox="0 0 107 125">
<rect width="100%" height="100%" fill="transparent" />
<rect x="22" y="4" width="9" height="9" fill="#4aff6c" />
<rect x="31" y="4" width="9" height="9" fill="#4aff6c" />
<rect x="67" y="4" width="9" height="9" fill="#4aff6c" />
<rect x="76" y="4" width="9" height="9" fill="#4aff6c" />
<rect x="22" y="13" width="9" height="9" fill="#4aff6c" />
<rect x="40" y="13" width="9" height="9" fill="#4aff6c" />
<rect x="58" y="13" width="9" height="9" fill="#4aff6c" />
<rect x="76" y="13" width="9" height="9" fill="#4aff6c" />
<rect x="40" y="22" width="9" height="9" fill="#4aff6c" />
<rect x="58" y="22" width="9" height="9" fill="#4aff6c" />
<rect x="31" y="31" width="9" height="9" fill="#4aff6c" />
<rect x="49" y="31" width="9" height="9" fill="#4aff6c" />
<rect x="67" y="31" width="9" height="9" fill="#4aff6c" />
<rect x="31" y="40" width="9" height="9" fill="#4aff6c" />
<rect x="40" y="40" width="9" height="9" fill="#4aff6c" />
<rect x="58" y="40" width="9" height="9" fill="#4aff6c" />
<rect x="67" y="40" width="9" height="9" fill="#4aff6c" />
<rect x="13" y="49" width="9" height="9" fill="#4aff6c" />
<rect x="22" y="49" width="9" height="9" fill="#4aff6c" />
<rect x="76" y="49" width="9" height="9" fill="#4aff6c" />
<rect x="85" y="49" width="9" height="9" fill="#4aff6c" />
<rect x="4" y="58" width="9" height="9" fill="#4aff6c" />
<rect x="31" y="58" width="9" height="9" fill="#4aff6c" />
<rect x="49" y="58" width="9" height="9" fill="#4aff6c" />
<rect x="67" y="58" width="9" height="9" fill="#4aff6c" />
<rect x="94" y="58" width="9" height="9" fill="#4aff6c" />
<rect x="13" y="67" width="9" height="9" fill="#4aff6c" />
<rect x="31" y="67" width="9" height="9" fill="#4aff6c" />
<rect x="67" y="67" width="9" height="9" fill="#4aff6c" />
<rect x="85" y="67" width="9" height="9" fill="#4aff6c" />
<rect x="4" y="76" width="9" height="9" fill="#4aff6c" />
<rect x="13" y="76" width="9" height="9" fill="#4aff6c" />
<rect x="31" y="76" width="9" height="9" fill="#4aff6c" />
<rect x="67" y="76" width="9" height="9" fill="#4aff6c" />
<rect x="85" y="76" width="9" height="9" fill="#4aff6c" />
<rect x="94" y="76" width="9" height="9" fill="#4aff6c" />
<rect x="40" y="85" width="9" height="9" fill="#4aff6c" />
<rect x="49" y="85" width="9" height="9" fill="#4aff6c" />
<rect x="58" y="85" width="9" height="9" fill="#4aff6c" />
<rect x="31" y="103" width="9" height="9" fill="#4aff6c" />
<rect x="49" y="103" width="9" height="9" fill="#4aff6c" />
<rect x="58" y="103" width="9" height="9" fill="#4aff6c" />
<rect x="31" y="112" width="9" height="9" fill="#4aff6c" />
<rect x="40" y="112" width="9" height="9" fill="#4aff6c" />
<rect x="58" y="112" width="9" height="9" fill="#4aff6c" />
</svg>