<?xml version="1.0" encoding="utf-8"?>
<svg xmlns="http://www.w3.org/2000/svg" width="107" height="77" viewBox="0 0 107 77">
<rect width="100%" height="100%" fill="transparent" />
<rect x="25" y="4" width="3" height="3" fill="#4aff6c" />
<rect x="79" y="4" width="3" height="3" fill="#4aff6c" />
<rect x="22" y="7" width="3" height="3" fill="#4aff6c" />
<rect x="25" y="7" width="3" height="3" fill="#4aff6c" />
<rect x="28" y="7" width="3" height="3" fill="#4aff6c" />
<rect x="76" y="7" width="3" height="3" fill="#4aff6c" />
<rect x="79" y="7" width="3" height="3" fill="#4aff6c" />
<rect x="82" y="7" width="3" height="3" fill="#4aff6c" />
<rect x="19" y="10" width="3" height="3" fill="#4aff6c" />
<rect x="22" y="10" width="3" height="3" fill="#4aff6c" />
<rect x="37" y="10" width="3" height="3" fill="#4aff6c" />
<rect x="40" y="10" width="3" height="3" fill="#4aff6c" />
<rect x="43" y="10" width="3" height="3" fill="#4aff6c" />
<rect x="61" y="10" width="3" height="3" fill="#4aff6c" />
<rect x="64" y="10" width="3" height="3" fill="#4aff6c" />
<rect x="67" y="10" width="3" height="3" fill="#4aff6c" />
<rect x="82" y="10" width="3" height="3" fill="#4aff6c" />
<rect x="85" y="10" width="3" height="3" fill="#4aff6c" />
<rect x="13" y="13" width="3" height="3" fill="#4aff6c" />
<rect x="16" y="13" width="3" height="3" fill="#4aff6c" />
<rect x="22" y="13" width="3" height="3" fill="#4aff6c" />
<rect x="31" y="13" width="3" height="3" fill="#4aff6c" />
<rect x="34" y="13" width="3" height="3" fill="#4aff6c" />
<rect x="37" y="13" width="3" height="3" fill="#4aff6c" />
<rect x="46" y="13" width="3" height="3" fill="#4aff6c" />
<rect x="58" y="13" width="3" height="3" fill="#4aff6c" />
<rect x="67" y="13" width="3" height="3" fill="#4aff6c" />
<rect x="70" y="13" width="3" height="3" fill="#4aff6c" />
<rect x="73" y="13" width="3" height="3" fill="#4aff6c" />
<rect x="82" y="13" width="3" height="3" fill="#4aff6c" />
<rect x="88" y="13" width="3" height="3" fill="#4aff6c" />
<rect x="91" y="13" width="3" height="3" fill="#4aff6c" />
<rect x="16" y="16" width="3" height="3" fill="#4aff6c" />
<rect x="22" y="16" width="3" height="3" fill="#4aff6c" />
<rect x="31" y="16" width="3" height="3" fill="#4aff6c" />
<rect x="37" y="16" width="3" height="3" fill="#4aff6c" />
<rect x="49" y="16" width="3" height="3" fill="#4aff6c" />
<rect x="55" y="16" width="3" height="3" fill="#4aff6c" />
<rect x="67" y="16" width="3" height="3" fill="#4aff6c" />
<rect x="73" y="16" width="3" height="3" fill="#4aff6c" />
<rect x="82" y="16" width="3" height="3" fill="#4aff6c" />
<rect x="88" y="16" width="3" height="3" fill="#4aff6c" />
<rect x="7" y="19" width="3" height="3" fill="#4aff6c" />
<rect x="10" y="19" width="3" height="3" fill="#4aff6c" />
<rect x="16" y="19" width="3" height="3" fill="#4aff6c" />
<rect x="22" y="19" width="3" height="3" fill="#4aff6c" />
<rect x="28" y="19" width="3" height="3" fill="#4aff6c" />
<rect x="34" y="19" width="3" height="3" fill="#4aff6c" />
<rect x="49" y="19" width="3" height="3" fill="#4aff6c" />
<rect x="55" y="19" width="3" height="3" fill="#4aff6c" />
<rect x="70" y="19" width="3" height="3" fill="#4aff6c" />
<rect x="76" y="19" width="3" height="3" fill="#4aff6c" />
<rect x="82" y="19" width="3" height="3" fill="#4aff6c" />
<rect x="88" y="19" width="3" height="3" fill="#4aff6c" />
<rect x="94" y="19" width="3" height="3" fill="#4aff6c" />
<rect x="97" y="19" width="3" height="3" fill="#4aff6c" />
<rect x="7" y="22" width="3" height="3" fill="#4aff6c" />
<rect x="10" y="22" width="3" height="3" fill="#4aff6c" />
<rect x="22" y="22" width="3" height="3" fill="#4aff6c" />
<rect x="28" y="22" width="3" height="3" fill="#4aff6c" />
<rect x="43" y="22" width="3" height="3" fill="#4aff6c" />
<rect x="61" y="22" width="3" height="3" fill="#4aff6c" />
<rect x="76" y="22" width="3" height="3" fill="#4aff6c" />
<rect x="82" y="22" width="3" height="3" fill="#4aff6c" />
<rect x="94" y="22" width="3" height="3" fill="#4aff6c" />
<rect x="97" y="22" width="3" height="3" fill="#4aff6c" />
<rect x="7" y="25" width="3" height="3" fill="#4aff6c" />
<rect x="10" y="25" width="3" height="3" fill="#4aff6c" />
<rect x="13" y="25" width="3" height="3" fill="#4aff6c" />
<rect x="19" y="25" width="3" height="3" fill="#4aff6c" />
<rect x="31" y="25" width="3" height="3" fill="#4aff6c" />
<rect x="46" y="25" width="3" height="3" fill="#4aff6c" />
<rect x="52" y="25" width="3" height="3" fill="#4aff6c" />
<rect x="58" y="25" width="3" height="3" fill="#4aff6c" />
<rect x="73" y="25" width="3" height="3" fill="#4aff6c" />
<rect x="85" y="25" width="3" height="3" fill="#4aff6c" />
<rect x="91" y="25" width="3" height="3" fill="#4aff6c" />
<rect x="94" y="25" width="3" height="3" fill="#4aff6c" />
<rect x="97" y="25" width="3" height="3" fill="#4aff6c" />
<rect x="4" y="28" width="3" height="3" fill="#4aff6c" />
<rect x="7" y="28" width="3" height="3" fill="#4aff6c" />
<rect x="37" y="28" width="3" height="3" fill="#4aff6c" />
<rect x="40" y="28" width="3" height="3" fill="#4aff6c" />
<rect x="46" y="28" width="3" height="3" fill="#4aff6c" />
<rect x="52" y="28" width="3" height="3" fill="#4aff6c" />
<rect x="58" y="28" width="3" height="3" fill="#4aff6c" />
<rect x="64" y="28" width="3" height="3" fill="#4aff6c" />
<rect x="67" y="28" width="3" height="3" fill="#4aff6c" />
<rect x="97" y="28" width="3" height="3" fill="#4aff6c" />
<rect x="100" y="28" width="3" height="3" fill="#4aff6c" />
<rect x="40" y="31" width="3" height="3" fill="#4aff6c" />
<rect x="64" y="31" width="3" height="3" fill="#4aff6c" />
<rect x="31" y="34" width="3" height="3" fill="#4aff6c" />
<rect x="34" y="34" width="3" height="3" fill="#4aff6c" />
<rect x="40" y="34" width="3" height="3" fill="#4aff6c" />
<rect x="64" y="34" width="3" height="3" fill="#4aff6c" />
<rect x="70" y="34" width="3" height="3" fill="#4aff6c" />
<rect x="73" y="34" width="3" height="3" fill="#4aff6c" />
<rect x="34" y="37" width="3" height="3" fill="#4aff6c" />
<rect x="70" y="37" width="3" height="3" fill="#4aff6c" />
<rect x="25" y="40" width="3" height="3" fill="#4aff6c" />
<rect x="28" y="40" width="3" height="3" fill="#4aff6c" />
<rect x="34" y="40" width="3" height="3" fill="#4aff6c" />
<rect x="70" y="40" width="3" height="3" fill="#4aff6c" />
<rect x="76" y="40" width="3" height="3" fill="#4aff6c" />
<rect x="79" y="40" width="3" height="3" fill="#4aff6c" />
<rect x="25" y="43" width="3" height="3" fill="#4aff6c" />
<rect x="28" y="43" width="3" height="3" fill="#4aff6c" />
<rect x="76" y="43" width="3" height="3" fill="#4aff6c" />
<rect x="79" y="43" width="3" height="3" fill="#4aff6c" />
<rect x="25" y="46" width="3" height="3" fill="#4aff6c" />
<rect x="31" y="46" width="3" height="3" fill="#4aff6c" />
<rect x="37" y="46" width="3" height="3" fill="#4aff6c" />
<rect x="43" y="46" width="3" height="3" fill="#4aff6c" />
<rect x="46" y="46" width="3" height="3" fill="#4aff6c" />
<rect x="49" y="46" width="3" height="3" fill="#4aff6c" />
<rect x="55" y="46" width="3" height="3" fill="#4aff6c" />
<rect x="58" y="46" width="3" height="3" fill="#4aff6c" />
<rect x="61" y="46" width="3" height="3" fill="#4aff6c" />
<rect x="67" y="46" width="3" height="3" fill="#4aff6c" />
<rect x="73" y="46" width="3" height="3" fill="#4aff6c" />
<rect x="79" y="46" width="3" height="3" fill="#4aff6c" />
<rect x="22" y="49" width="3" height="3" fill="#4aff6c" />
<rect x="25" y="49" width="3" height="3" fill="#4aff6c" />
<rect x="37" y="49" width="3" height="3" fill="#4aff6c" />
<rect x="49" y="49" width="3" height="3" fill="#4aff6c" />
<rect x="55" y="49" width="3" height="3" fill="#4aff6c" />
<rect x="67" y="49" width="3" height="3" fill="#4aff6c" />
<rect x="79" y="49" width="3" height="3" fill="#4aff6c" />
<rect x="82" y="49" width="3" height="3" fill="#4aff6c" />
<rect x="22" y="52" width="3" height="3" fill="#4aff6c" />
<rect x="31" y="52" width="3" height="3" fill="#4aff6c" />
<rect x="43" y="52" width="3" height="3" fill="#4aff6c" />
<rect x="49" y="52" width="3" height="3" fill="#4aff6c" />
<rect x="55" y="52" width="3" height="3" fill="#4aff6c" />
<rect x="61" y="52" width="3" height="3" fill="#4aff6c" />
<rect x="73" y="52" width="3" height="3" fill="#4aff6c" />
<rect x="82" y="52" width="3" height="3" fill="#4aff6c" />
<rect x="31" y="55" width="3" height="3" fill="#4aff6c" />
<rect x="34" y="55" width="3" height="3" fill="#4aff6c" />
<rect x="49" y="55" width="3" height="3" fill="#4aff6c" />
<rect x="55" y="55" width="3" height="3" fill="#4aff6c" />
<rect x="70" y="55" width="3" height="3" fill="#4aff6c" />
<rect x="73" y="55" width="3" height="3" fill="#4aff6c" />
<rect x="19" y="58" width="3" height="3" fill="#4aff6c" />
<rect x="22" y="58" width="3" height="3" fill="#4aff6c" />
<rect x="37" y="58" width="3" height="3" fill="#4aff6c" />
<rect x="49" y="58" width="3" height="3" fill="#4aff6c" />
<rect x="55" y="58" width="3" height="3" fill="#4aff6c" />
<rect x="67" y="58" width="3" height="3" fill="#4aff6c" />
<rect x="82" y="58" width="3" height="3" fill="#4aff6c" />
<rect x="85" y="58" width="3" height="3" fill="#4aff6c" />
<rect x="31" y="61" width="3" height="3" fill="#4aff6c" />
<rect x="37" y="61" width="3" height="3" fill="#4aff6c" />
<rect x="40" y="61" width="3" height="3" fill="#4aff6c" />
<rect x="46" y="61" width="3" height="3" fill="#4aff6c" />
<rect x="58" y="61" width="3" height="3" fill="#4aff6c" />
<rect x="64" y="61" width="3" height="3" fill="#4aff6c" />
<rect x="67" y="61" width="3" height="3" fill="#4aff6c" />
<rect x="73" y="61" width="3" height="3" fill="#4aff6c" />
<rect x="34" y="64" width="3" height="3" fill="#4aff6c" />
<rect x="40" y="64" width="3" height="3" fill="#4aff6c" />
<rect x="46" y="64" width="3" height="3" fill="#4aff6c" />
<rect x="52" y="64" width="3" height="3" fill="#4aff6c" />
<rect x="58" y="64" width="3" height="3" fill="#4aff6c" />
<rect x="64" y="64" width="3" height="3" fill="#4aff6c" />
<rect x="70" y="64" width="3" height="3" fill="#4aff6c" />
<rect x="40" y="67" width="3" height="3" fill="#4aff6c" />
<rect x="49" y="67" width="3" height="3" fill="#4aff6c" />
<rect x="55" y="67" width="3" height="3" fill="#4aff6c" />
<rect x="64" y="67" width="3" height="3" fill="#4aff6c" />
<rect x="37" y="70" width="3" height="3" fill="#4aff6c" />
<rect x="43" y="70" width="3" height="3" fill="#4aff6c" />
<rect x="61" y="70" width="3" height="3" fill="#4aff6c" />
<rect x="67" y="70" width="3" height="3" fill="#4aff6c" />
</svg>