<?xml version="1.0" encoding="utf-8"?>
<svg xmlns="http://www.w3.org/2000/svg" width="122" height="82" viewBox="0 0 122 82">
<rect width="100%" height="100%" fill="transparent" />
<rect x="22" y="4" width="2" height="2" fill="#4aff6c" />
<rect x="24" y="4" width="2" height="2" fill="#4aff6c" />
<rect x="70" y="4" width="2" height="2" fill="#4aff6c" />
<rect x="72" y="4" width="2" height="2" fill="#4aff6c" />
<rect x="22" y="6" width="2" height="2" fill="#4aff6c" />
<rect x="24" y="6" width="2" height="2" fill="#4aff6c" />
<rect x="70" y="6" width="2" height="2" fill="#4aff6c" />
<rect x="72" y="6" width="2" height="2" fill="#4aff6c" />
<rect x="14" y="12" width="2" height="2" fill="#4aff6c" />
<rect x="16" y="12" width="2" height="2" fill="#4aff6c" />
<rect x="32" y="12" width="2" height="2" fill="#4aff6c" />
<rect x="34" y="12" width="2" height="2" fill="#4aff6c" />
<rect x="62" y="12" width="2" height="2" fill="#4aff6c" />
<rect x="64" y="12" width="2" height="2" fill="#4aff6c" />
<rect x="80" y="12" width="2" height="2" fill="#4aff6c" />
<rect x="82" y="12" width="2" height="2" fill="#4aff6c" />
<rect x="110" y="12" width="2" height="2" fill="#4aff6c" />
<rect x="112" y="12" width="2" height="2" fill="#4aff6c" />
<rect x="6" y="14" width="2" height="2" fill="#4aff6c" />
<rect x="8" y="14" width="2" height="2" fill="#4aff6c" />
<rect x="14" y="14" width="2" height="2" fill="#4aff6c" />
<rect x="16" y="14" width="2" height="2" fill="#4aff6c" />
<rect x="32" y="14" width="2" height="2" fill="#4aff6c" />
<rect x="34" y="14" width="2" height="2" fill="#4aff6c" />
<rect x="54" y="14" width="2" height="2" fill="#4aff6c" />
<rect x="56" y="14" width="2" height="2" fill="#4aff6c" />
<rect x="62" y="14" width="2" height="2" fill="#4aff6c" />
<rect x="64" y="14" width="2" height="2" fill="#4aff6c" />
<rect x="80" y="14" width="2" height="2" fill="#4aff6c" />
<rect x="82" y="14" width="2" height="2" fill="#4aff6c" />
<rect x="102" y="14" width="2" height="2" fill="#4aff6c" />
<rect x="104" y="14" width="2" height="2" fill="#4aff6c" />
<rect x="110" y="14" width="2" height="2" fill="#4aff6c" />
<rect x="112" y="14" width="2" height="2" fill="#4aff6c" />
<rect x="6" y="16" width="2" height="2" fill="#4aff6c" />
<rect x="8" y="16" width="2" height="2" fill="#4aff6c" />
<rect x="42" y="16" width="2" height="2" fill="#4aff6c" />
<rect x="44" y="16" width="2" height="2" fill="#4aff6c" />
<rect x="54" y="16" width="2" height="2" fill="#4aff6c" />
<rect x="56" y="16" width="2" height="2" fill="#4aff6c" />
<rect x="90" y="16" width="2" height="2" fill="#4aff6c" />
<rect x="92" y="16" width="2" height="2" fill="#4aff6c" />
<rect x="102" y="16" width="2" height="2" fill="#4aff6c" />
<rect x="104" y="16" width="2" height="2" fill="#4aff6c" />
<rect x="42" y="18" width="2" height="2" fill="#4aff6c" />
<rect x="44" y="18" width="2" height="2" fill="#4aff6c" />
<rect x="90" y="18" width="2" height="2" fill="#4aff6c" />
<rect x="92" y="18" width="2" height="2" fill="#4aff6c" />
<rect x="28" y="28" width="2" height="2" fill="#4aff6c" />
<rect x="30" y="28" width="2" height="2" fill="#4aff6c" />
<rect x="40" y="28" width="2" height="2" fill="#4aff6c" />
<rect x="42" y="28" width="2" height="2" fill="#4aff6c" />
<rect x="76" y="28" width="2" height="2" fill="#4aff6c" />
<rect x="78" y="28" width="2" height="2" fill="#4aff6c" />
<rect x="88" y="28" width="2" height="2" fill="#4aff6c" />
<rect x="90" y="28" width="2" height="2" fill="#4aff6c" />
<rect x="28" y="30" width="2" height="2" fill="#4aff6c" />
<rect x="30" y="30" width="2" height="2" fill="#4aff6c" />
<rect x="40" y="30" width="2" height="2" fill="#4aff6c" />
<rect x="42" y="30" width="2" height="2" fill="#4aff6c" />
<rect x="76" y="30" width="2" height="2" fill="#4aff6c" />
<rect x="78" y="30" width="2" height="2" fill="#4aff6c" />
<rect x="88" y="30" width="2" height="2" fill="#4aff6c" />
<rect x="90" y="30" width="2" height="2" fill="#4aff6c" />
<rect x="4" y="50" width="2" height="2" fill="#4aff6c" />
<rect x="6" y="50" width="2" height="2" fill="#4aff6c" />
<rect x="16" y="50" width="2" height="2" fill="#4aff6c" />
<rect x="18" y="50" width="2" height="2" fill="#4aff6c" />
<rect x="52" y="50" width="2" height="2" fill="#4aff6c" />
<rect x="54" y="50" width="2" height="2" fill="#4aff6c" />
<rect x="64" y="50" width="2" height="2" fill="#4aff6c" />
<rect x="66" y="50" width="2" height="2" fill="#4aff6c" />
<rect x="100" y="50" width="2" height="2" fill="#4aff6c" />
<rect x="102" y="50" width="2" height="2" fill="#4aff6c" />
<rect x="112" y="50" width="2" height="2" fill="#4aff6c" />
<rect x="114" y="50" width="2" height="2" fill="#4aff6c" />
<rect x="4" y="52" width="2" height="2" fill="#4aff6c" />
<rect x="6" y="52" width="2" height="2" fill="#4aff6c" />
<rect x="16" y="52" width="2" height="2" fill="#4aff6c" />
<rect x="18" y="52" width="2" height="2" fill="#4aff6c" />
<rect x="52" y="52" width="2" height="2" fill="#4aff6c" />
<rect x="54" y="52" width="2" height="2" fill="#4aff6c" />
<rect x="64" y="52" width="2" height="2" fill="#4aff6c" />
<rect x="66" y="52" width="2" height="2" fill="#4aff6c" />
<rect x="100" y="52" width="2" height="2" fill="#4aff6c" />
<rect x="102" y="52" width="2" height="2" fill="#4aff6c" />
<rect x="112" y="52" width="2" height="2" fill="#4aff6c" />
<rect x="114" y="52" width="2" height="2" fill="#4aff6c" />
<rect x="6" y="62" width="2" height="2" fill="#4aff6c" />
<rect x="8" y="62" width="2" height="2" fill="#4aff6c" />
<rect x="18" y="62" width="2" height="2" fill="#4aff6c" />
<rect x="20" y="62" width="2" height="2" fill="#4aff6c" />
<rect x="66" y="62" width="2" height="2" fill="#4aff6c" />
<rect x="68" y="62" width="2" height="2" fill="#4aff6c" />
<rect x="114" y="62" width="2" height="2" fill="#4aff6c" />
<rect x="116" y="62" width="2" height="2" fill="#4aff6c" />
<rect x="4" y="64" width="2" height="2" fill="#4aff6c" />
<rect x="8" y="64" width="2" height="2" fill="#4aff6c" />
<rect x="18" y="64" width="2" height="2" fill="#4aff6c" />
<rect x="20" y="64" width="2" height="2" fill="#4aff6c" />
<rect x="30" y="64" width="2" height="2" fill="#4aff6c" />
<rect x="32" y="64" width="2" height="2" fill="#4aff6c" />
<rect x="66" y="64" width="2" height="2" fill="#4aff6c" />
<rect x="68" y="64" width="2" height="2" fill="#4aff6c" />
<rect x="78" y="64" width="2" height="2" fill="#4aff6c" />
<rect x="80" y="64" width="2" height="2" fill="#4aff6c" />
<rect x="114" y="64" width="2" height="2" fill="#4aff6c" />
<rect x="116" y="64" width="2" height="2" fill="#4aff6c" />
<rect x="8" y="66" width="2" height="2" fill="#4aff6c" />
<rect x="30" y="66" width="2" height="2" fill="#4aff6c" />
<rect x="32" y="66" width="2" height="2" fill="#4aff6c" />
<rect x="38" y="66" width="2" height="2" fill="#4aff6c" />
<rect x="40" y="66" width="2" height="2" fill="#4aff6c" />
<rect x="56" y="66" width="2" height="2" fill="#4aff6c" />
<rect x="58" y="66" width="2" height="2" fill="#4aff6c" />
<rect x="78" y="66" width="2" height="2" fill="#4aff6c" />
<rect x="80" y="66" width="2" height="2" fill="#4aff6c" />
<rect x="86" y="66" width="2" height="2" fill="#4aff6c" />
<rect x="88" y="66" width="2" height="2" fill="#4aff6c" />
<rect x="104" y="66" width="2" height="2" fill="#4aff6c" />
<rect x="106" y="66" width="2" height="2" fill="#4aff6c" />
<rect x="38" y="68" width="2" height="2" fill="#4aff6c" />
<rect x="40" y="68" width="2" height="2" fill="#4aff6c" />
<rect x="56" y="68" width="2" height="2" fill="#4aff6c" />
<rect x="58" y="68" width="2" height="2" fill="#4aff6c" />
<rect x="86" y="68" width="2" height="2" fill="#4aff6c" />
<rect x="88" y="68" width="2" height="2" fill="#4aff6c" />
<rect x="104" y="68" width="2" height="2" fill="#4aff6c" />
<rect x="106" y="68" width="2" height="2" fill="#4aff6c" />
<rect x="46" y="74" width="2" height="2" fill="#4aff6c" />
<rect x="48" y="74" width="2" height="2" fill="#4aff6c" />
<rect x="94" y="74" width="2" height="2" fill="#4aff6c" />
<rect x="96" y="74" width="2" height="2" fill="#4aff6c" />
<rect x="46" y="76" width="2" height="2" fill="#4aff6c" />
<rect x="48" y="76" width="2" height="2" fill="#4aff6c" />
<rect x="94" y="76" width="2" height="2" fill="#4aff6c" />
<rect x="96" y="76" width="2" height="2" fill="#4aff6c" />
</svg>