<?xml version="1.0" encoding="utf-8"?>
<svg xmlns="http://www.w3.org/2000/svg" width="128" height="128" viewBox="0 0 128 128">
<rect width="100%" height="100%" fill="transparent" />
<rect x="40" y="4" width="4" height="4" fill="#4aff6c" />
<rect x="60" y="4" width="4" height="4" fill="#4aff6c" />
<rect x="64" y="4" width="4" height="4" fill="#4aff6c" />
<rect x="36" y="8" width="4" height="4" fill="#4aff6c" />
<rect x="44" y="8" width="4" height="4" fill="#4aff6c" />
<rect x="56" y="8" width="4" height="4" fill="#4aff6c" />
<rect x="64" y="8" width="4" height="4" fill="#4aff6c" />
<rect x="96" y="8" width="4" height="4" fill="#4aff6c" />
<rect x="100" y="8" width="4" height="4" fill="#4aff6c" />
<rect x="32" y="12" width="4" height="4" fill="#4aff6c" />
<rect x="44" y="12" width="4" height="4" fill="#4aff6c" />
<rect x="48" y="12" width="4" height="4" fill="#4aff6c" />
<rect x="52" y="12" width="4" height="4" fill="#4aff6c" />
<rect x="56" y="12" width="4" height="4" fill="#4aff6c" />
<rect x="96" y="12" width="4" height="4" fill="#4aff6c" />
<rect x="32" y="16" width="4" height="4" fill="#4aff6c" />
<rect x="40" y="16" width="4" height="4" fill="#4aff6c" />
<rect x="60" y="16" width="4" height="4" fill="#4aff6c" />
<rect x="88" y="16" width="4" height="4" fill="#4aff6c" />
<rect x="96" y="16" width="4" height="4" fill="#4aff6c" />
<rect x="24" y="20" width="4" height="4" fill="#4aff6c" />
<rect x="28" y="20" width="4" height="4" fill="#4aff6c" />
<rect x="32" y="20" width="4" height="4" fill="#4aff6c" />
<rect x="40" y="20" width="4" height="4" fill="#4aff6c" />
<rect x="44" y="20" width="4" height="4" fill="#4aff6c" />
<rect x="56" y="20" width="4" height="4" fill="#4aff6c" />
<rect x="60" y="20" width="4" height="4" fill="#4aff6c" />
<rect x="88" y="20" width="4" height="4" fill="#4aff6c" />
<rect x="92" y="20" width="4" height="4" fill="#4aff6c" />
<rect x="20" y="24" width="4" height="4" fill="#4aff6c" />
<rect x="8" y="28" width="4" height="4" fill="#4aff6c" />
<rect x="20" y="28" width="4" height="4" fill="#4aff6c" />
<rect x="24" y="28" width="4" height="4" fill="#4aff6c" />
<rect x="28" y="28" width="4" height="4" fill="#4aff6c" />
<rect x="32" y="28" width="4" height="4" fill="#4aff6c" />
<rect x="40" y="28" width="4" height="4" fill="#4aff6c" />
<rect x="44" y="28" width="4" height="4" fill="#4aff6c" />
<rect x="8" y="32" width="4" height="4" fill="#4aff6c" />
<rect x="12" y="32" width="4" height="4" fill="#4aff6c" />
<rect x="16" y="32" width="4" height="4" fill="#4aff6c" />
<rect x="32" y="32" width="4" height="4" fill="#4aff6c" />
<rect x="40" y="32" width="4" height="4" fill="#4aff6c" />
<rect x="44" y="32" width="4" height="4" fill="#4aff6c" />
<rect x="20" y="36" width="4" height="4" fill="#4aff6c" />
<rect x="16" y="40" width="4" height="4" fill="#4aff6c" />
<rect x="20" y="40" width="4" height="4" fill="#4aff6c" />
<rect x="120" y="68" width="4" height="4" fill="#4aff6c" />
<rect x="112" y="72" width="4" height="4" fill="#4aff6c" />
<rect x="116" y="72" width="4" height="4" fill="#4aff6c" />
<rect x="120" y="72" width="4" height="4" fill="#4aff6c" />
<rect x="112" y="76" width="4" height="4" fill="#4aff6c" />
<rect x="112" y="80" width="4" height="4" fill="#4aff6c" />
<rect x="4" y="84" width="4" height="4" fill="#4aff6c" />
<rect x="4" y="88" width="4" height="4" fill="#4aff6c" />
<rect x="12" y="88" width="4" height="4" fill="#4aff6c" />
<rect x="4" y="92" width="4" height="4" fill="#4aff6c" />
<rect x="8" y="92" width="4" height="4" fill="#4aff6c" />
<rect x="12" y="92" width="4" height="4" fill="#4aff6c" />
<rect x="12" y="96" width="4" height="4" fill="#4aff6c" />
<rect x="64" y="104" width="4" height="4" fill="#4aff6c" />
<rect x="68" y="104" width="4" height="4" fill="#4aff6c" />
<rect x="40" y="108" width="4" height="4" fill="#4aff6c" />
<rect x="44" y="108" width="4" height="4" fill="#4aff6c" />
<rect x="64" y="108" width="4" height="4" fill="#4aff6c" />
<rect x="72" y="108" width="4" height="4" fill="#4aff6c" />
<rect x="44" y="112" width="4" height="4" fill="#4aff6c" />
<rect x="72" y="112" width="4" height="4" fill="#4aff6c" />
<rect x="32" y="116" width="4" height="4" fill="#4aff6c" />
<rect x="36" y="116" width="4" height="4" fill="#4aff6c" />
<rect x="40" y="116" width="4" height="4" fill="#4aff6c" />
<rect x="72" y="116" width="4" height="4" fill="#4aff6c" />
<rect x="76" y="116" width="4" height="4" fill="#4aff6c" />
<rect x="32" y="120" width="4" height="4" fill="#4aff6c" />
</svg>