<?xml version="1.0" encoding="utf-8"?>
<svg xmlns="http://www.w3.org/2000/svg" width="108" height="84" viewBox="0 0 108 84">
<rect width="100%" height="100%" fill="transparent" />
<rect x="64" y="4" width="2" height="2" fill="#4aff6c" />
<rect x="66" y="4" width="2" height="2" fill="#4aff6c" />
<rect x="64" y="6" width="2" height="2" fill="#4aff6c" />
<rect x="66" y="6" width="2" height="2" fill="#4aff6c" />
<rect x="38" y="10" width="2" height="2" fill="#4aff6c" />
<rect x="40" y="10" width="2" height="2" fill="#4aff6c" />
<rect x="40" y="12" width="2" height="2" fill="#4aff6c" />
<rect x="40" y="14" width="2" height="2" fill="#4aff6c" />
<rect x="44" y="14" width="2" height="2" fill="#4aff6c" />
<rect x="42" y="16" width="2" height="2" fill="#4aff6c" />
<rect x="44" y="16" width="2" height="2" fill="#4aff6c" />
<rect x="32" y="22" width="2" height="2" fill="#4aff6c" />
<rect x="34" y="22" width="2" height="2" fill="#4aff6c" />
<rect x="16" y="24" width="2" height="2" fill="#4aff6c" />
<rect x="32" y="24" width="2" height="2" fill="#4aff6c" />
<rect x="34" y="24" width="2" height="2" fill="#4aff6c" />
<rect x="16" y="26" width="2" height="2" fill="#4aff6c" />
<rect x="18" y="26" width="2" height="2" fill="#4aff6c" />
<rect x="20" y="26" width="2" height="2" fill="#4aff6c" />
<rect x="22" y="28" width="2" height="2" fill="#4aff6c" />
<rect x="20" y="30" width="2" height="2" fill="#4aff6c" />
<rect x="22" y="30" width="2" height="2" fill="#4aff6c" />
<rect x="4" y="34" width="2" height="2" fill="#4aff6c" />
<rect x="6" y="34" width="2" height="2" fill="#4aff6c" />
<rect x="6" y="36" width="2" height="2" fill="#4aff6c" />
<rect x="6" y="38" width="2" height="2" fill="#4aff6c" />
<rect x="10" y="38" width="2" height="2" fill="#4aff6c" />
<rect x="86" y="38" width="2" height="2" fill="#4aff6c" />
<rect x="88" y="38" width="2" height="2" fill="#4aff6c" />
<rect x="8" y="40" width="2" height="2" fill="#4aff6c" />
<rect x="10" y="40" width="2" height="2" fill="#4aff6c" />
<rect x="88" y="40" width="2" height="2" fill="#4aff6c" />
<rect x="88" y="42" width="2" height="2" fill="#4aff6c" />
<rect x="92" y="42" width="2" height="2" fill="#4aff6c" />
<rect x="90" y="44" width="2" height="2" fill="#4aff6c" />
<rect x="94" y="44" width="2" height="2" fill="#4aff6c" />
<rect x="92" y="46" width="2" height="2" fill="#4aff6c" />
<rect x="100" y="46" width="2" height="2" fill="#4aff6c" />
<rect x="102" y="46" width="2" height="2" fill="#4aff6c" />
<rect x="100" y="48" width="2" height="2" fill="#4aff6c" />
<rect x="102" y="48" width="2" height="2" fill="#4aff6c" />
<rect x="8" y="54" width="2" height="2" fill="#4aff6c" />
<rect x="8" y="56" width="2" height="2" fill="#4aff6c" />
<rect x="12" y="56" width="2" height="2" fill="#4aff6c" />
<rect x="76" y="56" width="2" height="2" fill="#4aff6c" />
<rect x="78" y="56" width="2" height="2" fill="#4aff6c" />
<rect x="102" y="56" width="2" height="2" fill="#4aff6c" />
<rect x="8" y="58" width="2" height="2" fill="#4aff6c" />
<rect x="10" y="58" width="2" height="2" fill="#4aff6c" />
<rect x="12" y="58" width="2" height="2" fill="#4aff6c" />
<rect x="76" y="58" width="2" height="2" fill="#4aff6c" />
<rect x="78" y="58" width="2" height="2" fill="#4aff6c" />
<rect x="98" y="58" width="2" height="2" fill="#4aff6c" />
<rect x="100" y="58" width="2" height="2" fill="#4aff6c" />
<rect x="102" y="58" width="2" height="2" fill="#4aff6c" />
<rect x="12" y="60" width="2" height="2" fill="#4aff6c" />
<rect x="98" y="60" width="2" height="2" fill="#4aff6c" />
<rect x="98" y="62" width="2" height="2" fill="#4aff6c" />
<rect x="32" y="64" width="2" height="2" fill="#4aff6c" />
<rect x="34" y="64" width="2" height="2" fill="#4aff6c" />
<rect x="52" y="64" width="2" height="2" fill="#4aff6c" />
<rect x="54" y="64" width="2" height="2" fill="#4aff6c" />
<rect x="32" y="66" width="2" height="2" fill="#4aff6c" />
<rect x="34" y="66" width="2" height="2" fill="#4aff6c" />
<rect x="40" y="66" width="2" height="2" fill="#4aff6c" />
<rect x="42" y="66" width="2" height="2" fill="#4aff6c" />
<rect x="54" y="66" width="2" height="2" fill="#4aff6c" />
<rect x="40" y="68" width="2" height="2" fill="#4aff6c" />
<rect x="44" y="68" width="2" height="2" fill="#4aff6c" />
<rect x="48" y="68" width="2" height="2" fill="#4aff6c" />
<rect x="50" y="68" width="2" height="2" fill="#4aff6c" />
<rect x="52" y="68" width="2" height="2" fill="#4aff6c" />
<rect x="44" y="70" width="2" height="2" fill="#4aff6c" />
<rect x="48" y="70" width="2" height="2" fill="#4aff6c" />
<rect x="44" y="72" width="2" height="2" fill="#4aff6c" />
<rect x="46" y="72" width="2" height="2" fill="#4aff6c" />
<rect x="56" y="72" width="2" height="2" fill="#4aff6c" />
<rect x="58" y="72" width="2" height="2" fill="#4aff6c" />
<rect x="54" y="74" width="2" height="2" fill="#4aff6c" />
<rect x="58" y="74" width="2" height="2" fill="#4aff6c" />
<rect x="68" y="74" width="2" height="2" fill="#4aff6c" />
<rect x="70" y="74" width="2" height="2" fill="#4aff6c" />
<rect x="54" y="76" width="2" height="2" fill="#4aff6c" />
<rect x="68" y="76" width="2" height="2" fill="#4aff6c" />
<rect x="70" y="76" width="2" height="2" fill="#4aff6c" />
<rect x="52" y="78" width="2" height="2" fill="#4aff6c" />
<rect x="54" y="78" width="2" height="2" fill="#4aff6c" />
</svg>