<?xml version="1.0" encoding="utf-8"?>
<svg xmlns="http://www.w3.org/2000/svg" width="68" height="118" viewBox="0 0 68 118">
<rect width="100%" height="100%" fill="transparent" />
<rect x="14" y="4" width="5" height="5" fill="#4aff6c" />
<rect x="24" y="4" width="5" height="5" fill="#4aff6c" />
<rect x="29" y="4" width="5" height="5" fill="#4aff6c" />
<rect x="34" y="4" width="5" height="5" fill="#4aff6c" />
<rect x="4" y="9" width="5" height="5" fill="#4aff6c" />
<rect x="9" y="9" width="5" height="5" fill="#4aff6c" />
<rect x="19" y="9" width="5" height="5" fill="#4aff6c" />
<rect x="29" y="9" width="5" height="5" fill="#4aff6c" />
<rect x="34" y="9" width="5" height="5" fill="#4aff6c" />
<rect x="39" y="9" width="5" height="5" fill="#4aff6c" />
<rect x="44" y="9" width="5" height="5" fill="#4aff6c" />
<rect x="49" y="9" width="5" height="5" fill="#4aff6c" />
<rect x="59" y="9" width="5" height="5" fill="#4aff6c" />
<rect x="4" y="14" width="5" height="5" fill="#4aff6c" />
<rect x="14" y="14" width="5" height="5" fill="#4aff6c" />
<rect x="24" y="14" width="5" height="5" fill="#4aff6c" />
<rect x="29" y="14" width="5" height="5" fill="#4aff6c" />
<rect x="39" y="14" width="5" height="5" fill="#4aff6c" />
<rect x="49" y="14" width="5" height="5" fill="#4aff6c" />
<rect x="9" y="19" width="5" height="5" fill="#4aff6c" />
<rect x="14" y="19" width="5" height="5" fill="#4aff6c" />
<rect x="19" y="19" width="5" height="5" fill="#4aff6c" />
<rect x="24" y="19" width="5" height="5" fill="#4aff6c" />
<rect x="34" y="19" width="5" height="5" fill="#4aff6c" />
<rect x="44" y="19" width="5" height="5" fill="#4aff6c" />
<rect x="49" y="19" width="5" height="5" fill="#4aff6c" />
<rect x="54" y="19" width="5" height="5" fill="#4aff6c" />
<rect x="4" y="24" width="5" height="5" fill="#4aff6c" />
<rect x="14" y="24" width="5" height="5" fill="#4aff6c" />
<rect x="24" y="24" width="5" height="5" fill="#4aff6c" />
<rect x="29" y="24" width="5" height="5" fill="#4aff6c" />
<rect x="39" y="24" width="5" height="5" fill="#4aff6c" />
<rect x="44" y="24" width="5" height="5" fill="#4aff6c" />
<rect x="49" y="24" width="5" height="5" fill="#4aff6c" />
<rect x="59" y="24" width="5" height="5" fill="#4aff6c" />
<rect x="9" y="29" width="5" height="5" fill="#4aff6c" />
<rect x="14" y="29" width="5" height="5" fill="#4aff6c" />
<rect x="19" y="29" width="5" height="5" fill="#4aff6c" />
<rect x="29" y="29" width="5" height="5" fill="#4aff6c" />
<rect x="34" y="29" width="5" height="5" fill="#4aff6c" />
<rect x="44" y="29" width="5" height="5" fill="#4aff6c" />
<rect x="54" y="29" width="5" height="5" fill="#4aff6c" />
<rect x="14" y="34" width="5" height="5" fill="#4aff6c" />
<rect x="34" y="34" width="5" height="5" fill="#4aff6c" />
<rect x="39" y="34" width="5" height="5" fill="#4aff6c" />
<rect x="44" y="34" width="5" height="5" fill="#4aff6c" />
<rect x="59" y="34" width="5" height="5" fill="#4aff6c" />
<rect x="9" y="39" width="5" height="5" fill="#4aff6c" />
<rect x="19" y="39" width="5" height="5" fill="#4aff6c" />
<rect x="24" y="39" width="5" height="5" fill="#4aff6c" />
<rect x="34" y="39" width="5" height="5" fill="#4aff6c" />
<rect x="44" y="39" width="5" height="5" fill="#4aff6c" />
<rect x="54" y="39" width="5" height="5" fill="#4aff6c" />
<rect x="4" y="44" width="5" height="5" fill="#4aff6c" />
<rect x="9" y="44" width="5" height="5" fill="#4aff6c" />
<rect x="14" y="44" width="5" height="5" fill="#4aff6c" />
<rect x="24" y="44" width="5" height="5" fill="#4aff6c" />
<rect x="29" y="44" width="5" height="5" fill="#4aff6c" />
<rect x="34" y="44" width="5" height="5" fill="#4aff6c" />
<rect x="39" y="44" width="5" height="5" fill="#4aff6c" />
<rect x="49" y="44" width="5" height="5" fill="#4aff6c" />
<rect x="59" y="44" width="5" height="5" fill="#4aff6c" />
<rect x="4" y="49" width="5" height="5" fill="#4aff6c" />
<rect x="9" y="49" width="5" height="5" fill="#4aff6c" />
<rect x="19" y="49" width="5" height="5" fill="#4aff6c" />
<rect x="24" y="49" width="5" height="5" fill="#4aff6c" />
<rect x="29" y="49" width="5" height="5" fill="#4aff6c" />
<rect x="34" y="49" width="5" height="5" fill="#4aff6c" />
<rect x="54" y="49" width="5" height="5" fill="#4aff6c" />
<rect x="9" y="54" width="5" height="5" fill="#4aff6c" />
<rect x="19" y="54" width="5" height="5" fill="#4aff6c" />
<rect x="29" y="54" width="5" height="5" fill="#4aff6c" />
<rect x="34" y="54" width="5" height="5" fill="#4aff6c" />
<rect x="49" y="54" width="5" height="5" fill="#4aff6c" />
<rect x="9" y="59" width="5" height="5" fill="#4aff6c" />
<rect x="14" y="59" width="5" height="5" fill="#4aff6c" />
<rect x="24" y="59" width="5" height="5" fill="#4aff6c" />
<rect x="39" y="59" width="5" height="5" fill="#4aff6c" />
<rect x="44" y="59" width="5" height="5" fill="#4aff6c" />
<rect x="54" y="59" width="5" height="5" fill="#4aff6c" />
<rect x="9" y="64" width="5" height="5" fill="#4aff6c" />
<rect x="19" y="64" width="5" height="5" fill="#4aff6c" />
<rect x="24" y="64" width="5" height="5" fill="#4aff6c" />
<rect x="29" y="64" width="5" height="5" fill="#4aff6c" />
<rect x="39" y="64" width="5" height="5" fill="#4aff6c" />
<rect x="14" y="69" width="5" height="5" fill="#4aff6c" />
<rect x="24" y="69" width="5" height="5" fill="#4aff6c" />
<rect x="34" y="69" width="5" height="5" fill="#4aff6c" />
<rect x="49" y="69" width="5" height="5" fill="#4aff6c" />
<rect x="4" y="74" width="5" height="5" fill="#4aff6c" />
<rect x="14" y="74" width="5" height="5" fill="#4aff6c" />
<rect x="19" y="74" width="5" height="5" fill="#4aff6c" />
<rect x="24" y="74" width="5" height="5" fill="#4aff6c" />
<rect x="39" y="74" width="5" height="5" fill="#4aff6c" />
<rect x="44" y="74" width="5" height="5" fill="#4aff6c" />
<rect x="9" y="79" width="5" height="5" fill="#4aff6c" />
<rect x="19" y="79" width="5" height="5" fill="#4aff6c" />
<rect x="24" y="79" width="5" height="5" fill="#4aff6c" />
<rect x="29" y="79" width="5" height="5" fill="#4aff6c" />
<rect x="34" y="79" width="5" height="5" fill="#4aff6c" />
<rect x="39" y="79" width="5" height="5" fill="#4aff6c" />
<rect x="49" y="79" width="5" height="5" fill="#4aff6c" />
<rect x="4" y="84" width="5" height="5" fill="#4aff6c" />
<rect x="19" y="84" width="5" height="5" fill="#4aff6c" />
<rect x="34" y="84" width="5" height="5" fill="#4aff6c" />
<rect x="39" y="84" width="5" height="5" fill="#4aff6c" />
<rect x="44" y="84" width="5" height="5" fill="#4aff6c" />
<rect x="49" y="84" width="5" height="5" fill="#4aff6c" />
<rect x="4" y="89" width="5" height="5" fill="#4aff6c" />
<rect x="9" y="89" width="5" height="5" fill="#4aff6c" />
<rect x="14" y="89" width="5" height="5" fill="#4aff6c" />
<rect x="19" y="89" width="5" height="5" fill="#4aff6c" />
<rect x="34" y="89" width="5" height="5" fill="#4aff6c" />
<rect x="49" y="89" width="5" height="5" fill="#4aff6c" />
<rect x="4" y="94" width="5" height="5" fill="#4aff6c" />
<rect x="14" y="94" width="5" height="5" fill="#4aff6c" />
<rect x="19" y="94" width="5" height="5" fill="#4aff6c" />
<rect x="24" y="94" width="5" height="5" fill="#4aff6c" />
<rect x="29" y="94" width="5" height="5" fill="#4aff6c" />
<rect x="34" y="94" width="5" height="5" fill="#4aff6c" />
<rect x="44" y="94" width="5" height="5" fill="#4aff6c" />
<rect x="9" y="99" width="5" height="5" fill="#4aff6c" />
<rect x="14" y="99" width="5" height="5" fill="#4aff6c" />
<rect x="29" y="99" width="5" height="5" fill="#4aff6c" />
<rect x="34" y="99" width="5" height="5" fill="#4aff6c" />
<rect x="39" y="99" width="5" height="5" fill="#4aff6c" />
<rect x="49" y="99" width="5" height="5" fill="#4aff6c" />
<rect x="4" y="104" width="5" height="5" fill="#4aff6c" />
<rect x="19" y="104" width="5" height="5" fill="#4aff6c" />
<rect x="29" y="104" width="5" height="5" fill="#4aff6c" />
<rect x="39" y="104" width="5" height="5" fill="#4aff6c" />
<rect x="14" y="109" width="5" height="5" fill="#4aff6c" />
<rect x="24" y="109" width="5" height="5" fill="#4aff6c" />
<rect x="29" y="109" width="5" height="5" fill="#4aff6c" />
<rect x="34" y="109" width="5" height="5" fill="#4aff6c" />
<rect x="44" y="109" width="5" height="5" fill="#4aff6c" />
</svg>