<?xml version="1.0" encoding="utf-8"?>
<svg xmlns="http://www.w3.org/2000/svg" width="104" height="72" viewBox="0 0 104 72">
<rect width="100%" height="100%" fill="transparent" />
<rect x="18" y="4" width="2" height="2" fill="#4aff6c" />
<rect x="28" y="4" width="2" height="2" fill="#4aff6c" />
<rect x="30" y="4" width="2" height="2" fill="#4aff6c" />
<rect x="78" y="4" width="2" height="2" fill="#4aff6c" />
<rect x="80" y="4" width="2" height="2" fill="#4aff6c" />
<rect x="20" y="6" width="2" height="2" fill="#4aff6c" />
<rect x="30" y="6" width="2" height="2" fill="#4aff6c" />
<rect x="78" y="6" width="2" height="2" fill="#4aff6c" />
<rect x="80" y="6" width="2" height="2" fill="#4aff6c" />
<rect x="16" y="8" width="2" height="2" fill="#4aff6c" />
<rect x="18" y="8" width="2" height="2" fill="#4aff6c" />
<rect x="20" y="8" width="2" height="2" fill="#4aff6c" />
<rect x="30" y="8" width="2" height="2" fill="#4aff6c" />
<rect x="34" y="8" width="2" height="2" fill="#4aff6c" />
<rect x="50" y="8" width="2" height="2" fill="#4aff6c" />
<rect x="72" y="8" width="2" height="2" fill="#4aff6c" />
<rect x="74" y="8" width="2" height="2" fill="#4aff6c" />
<rect x="88" y="8" width="2" height="2" fill="#4aff6c" />
<rect x="96" y="8" width="2" height="2" fill="#4aff6c" />
<rect x="98" y="8" width="2" height="2" fill="#4aff6c" />
<rect x="32" y="10" width="2" height="2" fill="#4aff6c" />
<rect x="34" y="10" width="2" height="2" fill="#4aff6c" />
<rect x="50" y="10" width="2" height="2" fill="#4aff6c" />
<rect x="54" y="10" width="2" height="2" fill="#4aff6c" />
<rect x="70" y="10" width="2" height="2" fill="#4aff6c" />
<rect x="72" y="10" width="2" height="2" fill="#4aff6c" />
<rect x="74" y="10" width="2" height="2" fill="#4aff6c" />
<rect x="86" y="10" width="2" height="2" fill="#4aff6c" />
<rect x="94" y="10" width="2" height="2" fill="#4aff6c" />
<rect x="98" y="10" width="2" height="2" fill="#4aff6c" />
<rect x="56" y="12" width="2" height="2" fill="#4aff6c" />
<rect x="58" y="12" width="2" height="2" fill="#4aff6c" />
<rect x="72" y="12" width="2" height="2" fill="#4aff6c" />
<rect x="74" y="12" width="2" height="2" fill="#4aff6c" />
<rect x="88" y="12" width="2" height="2" fill="#4aff6c" />
<rect x="90" y="12" width="2" height="2" fill="#4aff6c" />
<rect x="92" y="12" width="2" height="2" fill="#4aff6c" />
<rect x="94" y="12" width="2" height="2" fill="#4aff6c" />
<rect x="96" y="12" width="2" height="2" fill="#4aff6c" />
<rect x="56" y="14" width="2" height="2" fill="#4aff6c" />
<rect x="58" y="14" width="2" height="2" fill="#4aff6c" />
<rect x="78" y="14" width="2" height="2" fill="#4aff6c" />
<rect x="80" y="14" width="2" height="2" fill="#4aff6c" />
<rect x="90" y="14" width="2" height="2" fill="#4aff6c" />
<rect x="92" y="14" width="2" height="2" fill="#4aff6c" />
<rect x="94" y="14" width="2" height="2" fill="#4aff6c" />
<rect x="56" y="16" width="2" height="2" fill="#4aff6c" />
<rect x="58" y="16" width="2" height="2" fill="#4aff6c" />
<rect x="78" y="16" width="2" height="2" fill="#4aff6c" />
<rect x="80" y="16" width="2" height="2" fill="#4aff6c" />
<rect x="50" y="18" width="2" height="2" fill="#4aff6c" />
<rect x="54" y="18" width="2" height="2" fill="#4aff6c" />
<rect x="50" y="20" width="2" height="2" fill="#4aff6c" />
<rect x="52" y="26" width="2" height="2" fill="#4aff6c" />
<rect x="54" y="26" width="2" height="2" fill="#4aff6c" />
<rect x="52" y="28" width="2" height="2" fill="#4aff6c" />
<rect x="54" y="28" width="2" height="2" fill="#4aff6c" />
<rect x="54" y="36" width="2" height="2" fill="#4aff6c" />
<rect x="56" y="36" width="2" height="2" fill="#4aff6c" />
<rect x="58" y="36" width="2" height="2" fill="#4aff6c" />
<rect x="58" y="38" width="2" height="2" fill="#4aff6c" />
<rect x="56" y="40" width="2" height="2" fill="#4aff6c" />
<rect x="22" y="46" width="2" height="2" fill="#4aff6c" />
<rect x="26" y="46" width="2" height="2" fill="#4aff6c" />
<rect x="18" y="48" width="2" height="2" fill="#4aff6c" />
<rect x="26" y="48" width="2" height="2" fill="#4aff6c" />
<rect x="38" y="48" width="2" height="2" fill="#4aff6c" />
<rect x="40" y="48" width="2" height="2" fill="#4aff6c" />
<rect x="42" y="48" width="2" height="2" fill="#4aff6c" />
<rect x="4" y="50" width="2" height="2" fill="#4aff6c" />
<rect x="6" y="50" width="2" height="2" fill="#4aff6c" />
<rect x="18" y="50" width="2" height="2" fill="#4aff6c" />
<rect x="34" y="50" width="2" height="2" fill="#4aff6c" />
<rect x="38" y="50" width="2" height="2" fill="#4aff6c" />
<rect x="44" y="50" width="2" height="2" fill="#4aff6c" />
<rect x="50" y="50" width="2" height="2" fill="#4aff6c" />
<rect x="52" y="50" width="2" height="2" fill="#4aff6c" />
<rect x="4" y="52" width="2" height="2" fill="#4aff6c" />
<rect x="6" y="52" width="2" height="2" fill="#4aff6c" />
<rect x="16" y="52" width="2" height="2" fill="#4aff6c" />
<rect x="26" y="52" width="2" height="2" fill="#4aff6c" />
<rect x="42" y="52" width="2" height="2" fill="#4aff6c" />
<rect x="44" y="52" width="2" height="2" fill="#4aff6c" />
<rect x="50" y="52" width="2" height="2" fill="#4aff6c" />
<rect x="56" y="52" width="2" height="2" fill="#4aff6c" />
<rect x="18" y="54" width="2" height="2" fill="#4aff6c" />
<rect x="58" y="54" width="2" height="2" fill="#4aff6c" />
<rect x="18" y="56" width="2" height="2" fill="#4aff6c" />
<rect x="26" y="56" width="2" height="2" fill="#4aff6c" />
<rect x="32" y="56" width="2" height="2" fill="#4aff6c" />
<rect x="34" y="56" width="2" height="2" fill="#4aff6c" />
<rect x="36" y="56" width="2" height="2" fill="#4aff6c" />
<rect x="58" y="56" width="2" height="2" fill="#4aff6c" />
<rect x="22" y="58" width="2" height="2" fill="#4aff6c" />
<rect x="26" y="58" width="2" height="2" fill="#4aff6c" />
<rect x="58" y="58" width="2" height="2" fill="#4aff6c" />
<rect x="50" y="60" width="2" height="2" fill="#4aff6c" />
<rect x="56" y="60" width="2" height="2" fill="#4aff6c" />
<rect x="68" y="60" width="2" height="2" fill="#4aff6c" />
<rect x="70" y="60" width="2" height="2" fill="#4aff6c" />
<rect x="50" y="62" width="2" height="2" fill="#4aff6c" />
<rect x="52" y="62" width="2" height="2" fill="#4aff6c" />
<rect x="68" y="62" width="2" height="2" fill="#4aff6c" />
<rect x="72" y="62" width="2" height="2" fill="#4aff6c" />
<rect x="72" y="64" width="2" height="2" fill="#4aff6c" />
<rect x="72" y="66" width="2" height="2" fill="#4aff6c" />
<rect x="74" y="66" width="2" height="2" fill="#4aff6c" />
</svg>