<?xml version="1.0" encoding="utf-8"?>
<svg xmlns="http://www.w3.org/2000/svg" width="98" height="82" viewBox="0 0 98 82">
<rect width="100%" height="100%" fill="transparent" />
<rect x="6" y="4" width="2" height="2" fill="#4aff6c" />
<rect x="8" y="6" width="2" height="2" fill="#4aff6c" />
<rect x="4" y="8" width="2" height="2" fill="#4aff6c" />
<rect x="6" y="8" width="2" height="2" fill="#4aff6c" />
<rect x="8" y="8" width="2" height="2" fill="#4aff6c" />
<rect x="74" y="14" width="2" height="2" fill="#4aff6c" />
<rect x="72" y="16" width="2" height="2" fill="#4aff6c" />
<rect x="72" y="18" width="2" height="2" fill="#4aff6c" />
<rect x="74" y="18" width="2" height="2" fill="#4aff6c" />
<rect x="76" y="18" width="2" height="2" fill="#4aff6c" />
<rect x="66" y="22" width="2" height="2" fill="#4aff6c" />
<rect x="66" y="24" width="2" height="2" fill="#4aff6c" />
<rect x="70" y="24" width="2" height="2" fill="#4aff6c" />
<rect x="42" y="26" width="2" height="2" fill="#4aff6c" />
<rect x="44" y="26" width="2" height="2" fill="#4aff6c" />
<rect x="66" y="26" width="2" height="2" fill="#4aff6c" />
<rect x="68" y="26" width="2" height="2" fill="#4aff6c" />
<rect x="42" y="28" width="2" height="2" fill="#4aff6c" />
<rect x="44" y="28" width="2" height="2" fill="#4aff6c" />
<rect x="42" y="44" width="2" height="2" fill="#4aff6c" />
<rect x="44" y="44" width="2" height="2" fill="#4aff6c" />
<rect x="40" y="46" width="2" height="2" fill="#4aff6c" />
<rect x="46" y="46" width="2" height="2" fill="#4aff6c" />
<rect x="42" y="48" width="2" height="2" fill="#4aff6c" />
<rect x="44" y="48" width="2" height="2" fill="#4aff6c" />
<rect x="56" y="50" width="2" height="2" fill="#4aff6c" />
<rect x="58" y="50" width="2" height="2" fill="#4aff6c" />
<rect x="56" y="52" width="2" height="2" fill="#4aff6c" />
<rect x="58" y="52" width="2" height="2" fill="#4aff6c" />
<rect x="90" y="54" width="2" height="2" fill="#4aff6c" />
<rect x="92" y="54" width="2" height="2" fill="#4aff6c" />
<rect x="20" y="56" width="2" height="2" fill="#4aff6c" />
<rect x="22" y="56" width="2" height="2" fill="#4aff6c" />
<rect x="90" y="56" width="2" height="2" fill="#4aff6c" />
<rect x="18" y="58" width="2" height="2" fill="#4aff6c" />
<rect x="22" y="58" width="2" height="2" fill="#4aff6c" />
<rect x="86" y="58" width="2" height="2" fill="#4aff6c" />
<rect x="90" y="58" width="2" height="2" fill="#4aff6c" />
<rect x="18" y="60" width="2" height="2" fill="#4aff6c" />
<rect x="86" y="60" width="2" height="2" fill="#4aff6c" />
<rect x="88" y="60" width="2" height="2" fill="#4aff6c" />
<rect x="16" y="62" width="2" height="2" fill="#4aff6c" />
<rect x="18" y="62" width="2" height="2" fill="#4aff6c" />
<rect x="38" y="70" width="2" height="2" fill="#4aff6c" />
<rect x="40" y="70" width="2" height="2" fill="#4aff6c" />
<rect x="36" y="72" width="2" height="2" fill="#4aff6c" />
<rect x="40" y="72" width="2" height="2" fill="#4aff6c" />
<rect x="36" y="74" width="2" height="2" fill="#4aff6c" />
<rect x="34" y="76" width="2" height="2" fill="#4aff6c" />
<rect x="36" y="76" width="2" height="2" fill="#4aff6c" />
</svg>