<?xml version="1.0" encoding="utf-8"?>
<svg xmlns="http://www.w3.org/2000/svg" width="128" height="44" viewBox="0 0 128 44">
<rect width="100%" height="100%" fill="transparent" />
<rect x="4" y="4" width="6" height="6" fill="#4aff6c" />
<rect x="22" y="4" width="6" height="6" fill="#4aff6c" />
<rect x="28" y="10" width="6" height="6" fill="#4aff6c" />
<rect x="52" y="10" width="6" height="6" fill="#4aff6c" />
<rect x="58" y="10" width="6" height="6" fill="#4aff6c" />
<rect x="4" y="16" width="6" height="6" fill="#4aff6c" />
<rect x="28" y="16" width="6" height="6" fill="#4aff6c" />
<rect x="46" y="16" width="6" height="6" fill="#4aff6c" />
<rect x="52" y="16" width="6" height="6" fill="#4aff6c" />
<rect x="58" y="16" width="6" height="6" fill="#4aff6c" />
<rect x="94" y="16" width="6" height="6" fill="#4aff6c" />
<rect x="100" y="16" width="6" height="6" fill="#4aff6c" />
<rect x="106" y="16" width="6" height="6" fill="#4aff6c" />
<rect x="112" y="16" width="6" height="6" fill="#4aff6c" />
<rect x="10" y="22" width="6" height="6" fill="#4aff6c" />
<rect x="16" y="22" width="6" height="6" fill="#4aff6c" />
<rect x="22" y="22" width="6" height="6" fill="#4aff6c" />
<rect x="28" y="22" width="6" height="6" fill="#4aff6c" />
<rect x="46" y="22" width="6" height="6" fill="#4aff6c" />
<rect x="52" y="22" width="6" height="6" fill="#4aff6c" />
<rect x="64" y="22" width="6" height="6" fill="#4aff6c" />
<rect x="94" y="22" width="6" height="6" fill="#4aff6c" />
<rect x="118" y="22" width="6" height="6" fill="#4aff6c" />
<rect x="52" y="28" width="6" height="6" fill="#4aff6c" />
<rect x="58" y="28" width="6" height="6" fill="#4aff6c" />
<rect x="64" y="28" width="6" height="6" fill="#4aff6c" />
<rect x="94" y="28" width="6" height="6" fill="#4aff6c" />
<rect x="58" y="34" width="6" height="6" fill="#4aff6c" />
<rect x="100" y="34" width="6" height="6" fill="#4aff6c" />
<rect x="118" y="34" width="6" height="6" fill="#4aff6c" />
</svg>