<?xml version="1.0" encoding="utf-8"?>
<svg xmlns="http://www.w3.org/2000/svg" width="108" height="113" viewBox="0 0 108 113">
<rect width="100%" height="100%" fill="transparent" />
<rect x="74" y="4" width="5" height="5" fill="#4aff6c" />
<rect x="79" y="4" width="5" height="5" fill="#4aff6c" />
<rect x="84" y="4" width="5" height="5" fill="#4aff6c" />
<rect x="14" y="34" width="5" height="5" fill="#4aff6c" />
<rect x="19" y="39" width="5" height="5" fill="#4aff6c" />
<rect x="24" y="39" width="5" height="5" fill="#4aff6c" />
<rect x="19" y="44" width="5" height="5" fill="#4aff6c" />
<rect x="94" y="44" width="5" height="5" fill="#4aff6c" />
<rect x="94" y="49" width="5" height="5" fill="#4aff6c" />
<rect x="94" y="54" width="5" height="5" fill="#4aff6c" />
<rect x="99" y="59" width="5" height="5" fill="#4aff6c" />
<rect x="94" y="64" width="5" height="5" fill="#4aff6c" />
<rect x="99" y="64" width="5" height="5" fill="#4aff6c" />
<rect x="39" y="69" width="5" height="5" fill="#4aff6c" />
<rect x="44" y="69" width="5" height="5" fill="#4aff6c" />
<rect x="44" y="74" width="5" height="5" fill="#4aff6c" />
<rect x="4" y="99" width="5" height="5" fill="#4aff6c" />
<rect x="9" y="99" width="5" height="5" fill="#4aff6c" />
<rect x="9" y="104" width="5" height="5" fill="#4aff6c" />
</svg>