<?xml version="1.0" encoding="utf-8"?>
<svg xmlns="http://www.w3.org/2000/svg" width="118" height="93" viewBox="0 0 118 93">
<rect width="100%" height="100%" fill="transparent" />
<rect x="89" y="4" width="5" height="5" fill="#4aff6c" />
<rect x="84" y="9" width="5" height="5" fill="#4aff6c" />
<rect x="99" y="9" width="5" height="5" fill="#4aff6c" />
<rect x="89" y="14" width="5" height="5" fill="#4aff6c" />
<rect x="94" y="14" width="5" height="5" fill="#4aff6c" />
<rect x="99" y="14" width="5" height="5" fill="#4aff6c" />
<rect x="89" y="19" width="5" height="5" fill="#4aff6c" />
<rect x="104" y="19" width="5" height="5" fill="#4aff6c" />
<rect x="4" y="29" width="5" height="5" fill="#4aff6c" />
<rect x="9" y="29" width="5" height="5" fill="#4aff6c" />
<rect x="94" y="29" width="5" height="5" fill="#4aff6c" />
<rect x="9" y="34" width="5" height="5" fill="#4aff6c" />
<rect x="94" y="34" width="5" height="5" fill="#4aff6c" />
<rect x="94" y="39" width="5" height="5" fill="#4aff6c" />
<rect x="99" y="79" width="5" height="5" fill="#4aff6c" />
<rect x="104" y="79" width="5" height="5" fill="#4aff6c" />
<rect x="109" y="79" width="5" height="5" fill="#4aff6c" />
<rect x="59" y="84" width="5" height="5" fill="#4aff6c" />
<rect x="64" y="84" width="5" height="5" fill="#4aff6c" />
<rect x="69" y="84" width="5" height="5" fill="#4aff6c" />
</svg>