<?xml version="1.0" encoding="utf-8"?>
<svg xmlns="http://www.w3.org/2000/svg" width="66" height="102" viewBox="0 0 66 102">
<rect width="100%" height="100%" fill="transparent" />
<rect x="42" y="4" width="2" height="2" fill="#4aff6c" />
<rect x="44" y="4" width="2" height="2" fill="#4aff6c" />
<rect x="42" y="6" width="2" height="2" fill="#4aff6c" />
<rect x="38" y="8" width="2" height="2" fill="#4aff6c" />
<rect x="40" y="8" width="2" height="2" fill="#4aff6c" />
<rect x="42" y="8" width="2" height="2" fill="#4aff6c" />
<rect x="38" y="40" width="2" height="2" fill="#4aff6c" />
<rect x="40" y="40" width="2" height="2" fill="#4aff6c" />
<rect x="38" y="42" width="2" height="2" fill="#4aff6c" />
<rect x="40" y="42" width="2" height="2" fill="#4aff6c" />
<rect x="20" y="46" width="2" height="2" fill="#4aff6c" />
<rect x="22" y="46" width="2" height="2" fill="#4aff6c" />
<rect x="26" y="46" width="2" height="2" fill="#4aff6c" />
<rect x="20" y="48" width="2" height="2" fill="#4aff6c" />
<rect x="24" y="48" width="2" height="2" fill="#4aff6c" />
<rect x="26" y="48" width="2" height="2" fill="#4aff6c" />
<rect x="56" y="50" width="2" height="2" fill="#4aff6c" />
<rect x="58" y="50" width="2" height="2" fill="#4aff6c" />
<rect x="56" y="52" width="2" height="2" fill="#4aff6c" />
<rect x="52" y="54" width="2" height="2" fill="#4aff6c" />
<rect x="56" y="54" width="2" height="2" fill="#4aff6c" />
<rect x="52" y="56" width="2" height="2" fill="#4aff6c" />
<rect x="54" y="56" width="2" height="2" fill="#4aff6c" />
<rect x="22" y="60" width="2" height="2" fill="#4aff6c" />
<rect x="22" y="62" width="2" height="2" fill="#4aff6c" />
<rect x="24" y="62" width="2" height="2" fill="#4aff6c" />
<rect x="26" y="62" width="2" height="2" fill="#4aff6c" />
<rect x="4" y="64" width="2" height="2" fill="#4aff6c" />
<rect x="28" y="64" width="2" height="2" fill="#4aff6c" />
<rect x="4" y="66" width="2" height="2" fill="#4aff6c" />
<rect x="6" y="66" width="2" height="2" fill="#4aff6c" />
<rect x="8" y="66" width="2" height="2" fill="#4aff6c" />
<rect x="26" y="66" width="2" height="2" fill="#4aff6c" />
<rect x="28" y="66" width="2" height="2" fill="#4aff6c" />
<rect x="58" y="66" width="2" height="2" fill="#4aff6c" />
<rect x="10" y="68" width="2" height="2" fill="#4aff6c" />
<rect x="56" y="68" width="2" height="2" fill="#4aff6c" />
<rect x="60" y="68" width="2" height="2" fill="#4aff6c" />
<rect x="8" y="70" width="2" height="2" fill="#4aff6c" />
<rect x="10" y="70" width="2" height="2" fill="#4aff6c" />
<rect x="58" y="70" width="2" height="2" fill="#4aff6c" />
<rect x="6" y="84" width="2" height="2" fill="#4aff6c" />
<rect x="48" y="84" width="2" height="2" fill="#4aff6c" />
<rect x="50" y="84" width="2" height="2" fill="#4aff6c" />
<rect x="6" y="86" width="2" height="2" fill="#4aff6c" />
<rect x="10" y="86" width="2" height="2" fill="#4aff6c" />
<rect x="48" y="86" width="2" height="2" fill="#4aff6c" />
<rect x="52" y="86" width="2" height="2" fill="#4aff6c" />
<rect x="6" y="88" width="2" height="2" fill="#4aff6c" />
<rect x="8" y="88" width="2" height="2" fill="#4aff6c" />
<rect x="10" y="88" width="2" height="2" fill="#4aff6c" />
<rect x="52" y="88" width="2" height="2" fill="#4aff6c" />
<rect x="10" y="90" width="2" height="2" fill="#4aff6c" />
<rect x="34" y="90" width="2" height="2" fill="#4aff6c" />
<rect x="36" y="90" width="2" height="2" fill="#4aff6c" />
<rect x="52" y="90" width="2" height="2" fill="#4aff6c" />
<rect x="54" y="90" width="2" height="2" fill="#4aff6c" />
<rect x="34" y="92" width="2" height="2" fill="#4aff6c" />
<rect x="36" y="94" width="2" height="2" fill="#4aff6c" />
<rect x="38" y="94" width="2" height="2" fill="#4aff6c" />
<rect x="40" y="94" width="2" height="2" fill="#4aff6c" />
<rect x="40" y="96" width="2" height="2" fill="#4aff6c" />
</svg>