<?xml version="1.0" encoding="utf-8"?>
<svg xmlns="http://www.w3.org/2000/svg" width="110" height="128" viewBox="0 0 110 128">
<rect width="100%" height="100%" fill="transparent" />
<rect x="7" y="4" width="3" height="3" fill="#4aff6c" />
<rect x="10" y="4" width="3" height="3" fill="#4aff6c" />
<rect x="19" y="4" width="3" height="3" fill="#4aff6c" />
<rect x="25" y="4" width="3" height="3" fill="#4aff6c" />
<rect x="28" y="4" width="3" height="3" fill="#4aff6c" />
<rect x="4" y="7" width="3" height="3" fill="#4aff6c" />
<rect x="13" y="7" width="3" height="3" fill="#4aff6c" />
<rect x="22" y="7" width="3" height="3" fill="#4aff6c" />
<rect x="25" y="7" width="3" height="3" fill="#4aff6c" />
<rect x="7" y="10" width="3" height="3" fill="#4aff6c" />
<rect x="13" y="10" width="3" height="3" fill="#4aff6c" />
<rect x="10" y="13" width="3" height="3" fill="#4aff6c" />
<rect x="28" y="16" width="3" height="3" fill="#4aff6c" />
<rect x="22" y="19" width="3" height="3" fill="#4aff6c" />
<rect x="25" y="19" width="3" height="3" fill="#4aff6c" />
<rect x="28" y="19" width="3" height="3" fill="#4aff6c" />
<rect x="19" y="22" width="3" height="3" fill="#4aff6c" />
<rect x="22" y="25" width="3" height="3" fill="#4aff6c" />
<rect x="25" y="28" width="3" height="3" fill="#4aff6c" />
<rect x="28" y="28" width="3" height="3" fill="#4aff6c" />
<rect x="103" y="31" width="3" height="3" fill="#4aff6c" />
<rect x="97" y="34" width="3" height="3" fill="#4aff6c" />
<rect x="100" y="34" width="3" height="3" fill="#4aff6c" />
<rect x="100" y="37" width="3" height="3" fill="#4aff6c" />
<rect x="103" y="37" width="3" height="3" fill="#4aff6c" />
<rect x="31" y="40" width="3" height="3" fill="#4aff6c" />
<rect x="7" y="43" width="3" height="3" fill="#4aff6c" />
<rect x="34" y="43" width="3" height="3" fill="#4aff6c" />
<rect x="10" y="46" width="3" height="3" fill="#4aff6c" />
<rect x="28" y="46" width="3" height="3" fill="#4aff6c" />
<rect x="31" y="46" width="3" height="3" fill="#4aff6c" />
<rect x="34" y="46" width="3" height="3" fill="#4aff6c" />
<rect x="4" y="49" width="3" height="3" fill="#4aff6c" />
<rect x="7" y="49" width="3" height="3" fill="#4aff6c" />
<rect x="10" y="49" width="3" height="3" fill="#4aff6c" />
<rect x="19" y="58" width="3" height="3" fill="#4aff6c" />
<rect x="22" y="61" width="3" height="3" fill="#4aff6c" />
<rect x="16" y="64" width="3" height="3" fill="#4aff6c" />
<rect x="19" y="64" width="3" height="3" fill="#4aff6c" />
<rect x="22" y="64" width="3" height="3" fill="#4aff6c" />
<rect x="76" y="67" width="3" height="3" fill="#4aff6c" />
<rect x="82" y="67" width="3" height="3" fill="#4aff6c" />
<rect x="79" y="70" width="3" height="3" fill="#4aff6c" />
<rect x="82" y="70" width="3" height="3" fill="#4aff6c" />
<rect x="79" y="73" width="3" height="3" fill="#4aff6c" />
<rect x="85" y="79" width="3" height="3" fill="#4aff6c" />
<rect x="91" y="79" width="3" height="3" fill="#4aff6c" />
<rect x="85" y="82" width="3" height="3" fill="#4aff6c" />
<rect x="88" y="82" width="3" height="3" fill="#4aff6c" />
<rect x="88" y="85" width="3" height="3" fill="#4aff6c" />
<rect x="97" y="88" width="3" height="3" fill="#4aff6c" />
<rect x="100" y="88" width="3" height="3" fill="#4aff6c" />
<rect x="103" y="88" width="3" height="3" fill="#4aff6c" />
<rect x="97" y="91" width="3" height="3" fill="#4aff6c" />
<rect x="100" y="94" width="3" height="3" fill="#4aff6c" />
<rect x="19" y="115" width="3" height="3" fill="#4aff6c" />
<rect x="22" y="115" width="3" height="3" fill="#4aff6c" />
<rect x="22" y="118" width="3" height="3" fill="#4aff6c" />
<rect x="25" y="118" width="3" height="3" fill="#4aff6c" />
<rect x="19" y="121" width="3" height="3" fill="#4aff6c" />
</svg>