<?xml version="1.0" encoding="utf-8"?>
<svg xmlns="http://www.w3.org/2000/svg" width="104" height="128" viewBox="0 0 104 128">
<rect width="100%" height="100%" fill="transparent" />
<rect x="92" y="4" width="4" height="4" fill="#4aff6c" />
<rect x="88" y="8" width="4" height="4" fill="#4aff6c" />
<rect x="88" y="12" width="4" height="4" fill="#4aff6c" />
<rect x="92" y="12" width="4" height="4" fill="#4aff6c" />
<rect x="96" y="12" width="4" height="4" fill="#4aff6c" />
<rect x="40" y="24" width="4" height="4" fill="#4aff6c" />
<rect x="48" y="24" width="4" height="4" fill="#4aff6c" />
<rect x="40" y="28" width="4" height="4" fill="#4aff6c" />
<rect x="52" y="28" width="4" height="4" fill="#4aff6c" />
<rect x="4" y="32" width="4" height="4" fill="#4aff6c" />
<rect x="8" y="32" width="4" height="4" fill="#4aff6c" />
<rect x="52" y="32" width="4" height="4" fill="#4aff6c" />
<rect x="56" y="32" width="4" height="4" fill="#4aff6c" />
<rect x="4" y="36" width="4" height="4" fill="#4aff6c" />
<rect x="8" y="36" width="4" height="4" fill="#4aff6c" />
<rect x="44" y="36" width="4" height="4" fill="#4aff6c" />
<rect x="60" y="36" width="4" height="4" fill="#4aff6c" />
<rect x="64" y="36" width="4" height="4" fill="#4aff6c" />
<rect x="24" y="40" width="4" height="4" fill="#4aff6c" />
<rect x="28" y="40" width="4" height="4" fill="#4aff6c" />
<rect x="52" y="40" width="4" height="4" fill="#4aff6c" />
<rect x="56" y="40" width="4" height="4" fill="#4aff6c" />
<rect x="20" y="44" width="4" height="4" fill="#4aff6c" />
<rect x="40" y="44" width="4" height="4" fill="#4aff6c" />
<rect x="52" y="44" width="4" height="4" fill="#4aff6c" />
<rect x="40" y="48" width="4" height="4" fill="#4aff6c" />
<rect x="48" y="48" width="4" height="4" fill="#4aff6c" />
<rect x="68" y="68" width="4" height="4" fill="#4aff6c" />
<rect x="64" y="72" width="4" height="4" fill="#4aff6c" />
<rect x="68" y="72" width="4" height="4" fill="#4aff6c" />
<rect x="72" y="72" width="4" height="4" fill="#4aff6c" />
<rect x="60" y="76" width="4" height="4" fill="#4aff6c" />
<rect x="64" y="76" width="4" height="4" fill="#4aff6c" />
<rect x="68" y="76" width="4" height="4" fill="#4aff6c" />
<rect x="72" y="76" width="4" height="4" fill="#4aff6c" />
<rect x="76" y="76" width="4" height="4" fill="#4aff6c" />
<rect x="56" y="80" width="4" height="4" fill="#4aff6c" />
<rect x="64" y="80" width="4" height="4" fill="#4aff6c" />
<rect x="72" y="80" width="4" height="4" fill="#4aff6c" />
<rect x="80" y="80" width="4" height="4" fill="#4aff6c" />
<rect x="56" y="84" width="4" height="4" fill="#4aff6c" />
<rect x="60" y="84" width="4" height="4" fill="#4aff6c" />
<rect x="76" y="84" width="4" height="4" fill="#4aff6c" />
<rect x="80" y="84" width="4" height="4" fill="#4aff6c" />
<rect x="68" y="96" width="4" height="4" fill="#4aff6c" />
<rect x="64" y="100" width="4" height="4" fill="#4aff6c" />
<rect x="72" y="100" width="4" height="4" fill="#4aff6c" />
<rect x="64" y="104" width="4" height="4" fill="#4aff6c" />
<rect x="72" y="104" width="4" height="4" fill="#4aff6c" />
<rect x="68" y="108" width="4" height="4" fill="#4aff6c" />
<rect x="64" y="112" width="4" height="4" fill="#4aff6c" />
<rect x="68" y="112" width="4" height="4" fill="#4aff6c" />
<rect x="64" y="116" width="4" height="4" fill="#4aff6c" />
<rect x="68" y="116" width="4" height="4" fill="#4aff6c" />
<rect x="64" y="120" width="4" height="4" fill="#4aff6c" />
<rect x="68" y="120" width="4" height="4" fill="#4aff6c" />
</svg>