<?xml version="1.0" encoding="utf-8"?>
<svg xmlns="http://www.w3.org/2000/svg" width="119" height="125" viewBox="0 0 119 125">
<rect width="100%" height="100%" fill="transparent" />
<rect x="58" y="4" width="3" height="3" fill="#4aff6c" />
<rect x="61" y="4" width="3" height="3" fill="#4aff6c" />
<rect x="55" y="7" width="3" height="3" fill="#4aff6c" />
<rect x="61" y="7" width="3" height="3" fill="#4aff6c" />
<rect x="109" y="7" width="3" height="3" fill="#4aff6c" />
<rect x="112" y="7" width="3" height="3" fill="#4aff6c" />
<rect x="55" y="10" width="3" height="3" fill="#4aff6c" />
<rect x="109" y="10" width="3" height="3" fill="#4aff6c" />
<rect x="112" y="10" width="3" height="3" fill="#4aff6c" />
<rect x="55" y="13" width="3" height="3" fill="#4aff6c" />
<rect x="58" y="13" width="3" height="3" fill="#4aff6c" />
<rect x="61" y="13" width="3" height="3" fill="#4aff6c" />
<rect x="55" y="25" width="3" height="3" fill="#4aff6c" />
<rect x="58" y="25" width="3" height="3" fill="#4aff6c" />
<rect x="61" y="25" width="3" height="3" fill="#4aff6c" />
<rect x="28" y="28" width="3" height="3" fill="#4aff6c" />
<rect x="31" y="28" width="3" height="3" fill="#4aff6c" />
<rect x="55" y="28" width="3" height="3" fill="#4aff6c" />
<rect x="109" y="28" width="3" height="3" fill="#4aff6c" />
<rect x="112" y="28" width="3" height="3" fill="#4aff6c" />
<rect x="28" y="31" width="3" height="3" fill="#4aff6c" />
<rect x="31" y="31" width="3" height="3" fill="#4aff6c" />
<rect x="55" y="31" width="3" height="3" fill="#4aff6c" />
<rect x="61" y="31" width="3" height="3" fill="#4aff6c" />
<rect x="109" y="31" width="3" height="3" fill="#4aff6c" />
<rect x="112" y="31" width="3" height="3" fill="#4aff6c" />
<rect x="58" y="34" width="3" height="3" fill="#4aff6c" />
<rect x="61" y="34" width="3" height="3" fill="#4aff6c" />
<rect x="7" y="64" width="3" height="3" fill="#4aff6c" />
<rect x="25" y="64" width="3" height="3" fill="#4aff6c" />
<rect x="4" y="67" width="3" height="3" fill="#4aff6c" />
<rect x="7" y="67" width="3" height="3" fill="#4aff6c" />
<rect x="10" y="67" width="3" height="3" fill="#4aff6c" />
<rect x="22" y="67" width="3" height="3" fill="#4aff6c" />
<rect x="25" y="67" width="3" height="3" fill="#4aff6c" />
<rect x="28" y="67" width="3" height="3" fill="#4aff6c" />
<rect x="4" y="70" width="3" height="3" fill="#4aff6c" />
<rect x="10" y="70" width="3" height="3" fill="#4aff6c" />
<rect x="13" y="70" width="3" height="3" fill="#4aff6c" />
<rect x="19" y="70" width="3" height="3" fill="#4aff6c" />
<rect x="22" y="70" width="3" height="3" fill="#4aff6c" />
<rect x="28" y="70" width="3" height="3" fill="#4aff6c" />
<rect x="10" y="73" width="3" height="3" fill="#4aff6c" />
<rect x="13" y="73" width="3" height="3" fill="#4aff6c" />
<rect x="19" y="73" width="3" height="3" fill="#4aff6c" />
<rect x="22" y="73" width="3" height="3" fill="#4aff6c" />
<rect x="55" y="73" width="3" height="3" fill="#4aff6c" />
<rect x="58" y="73" width="3" height="3" fill="#4aff6c" />
<rect x="10" y="76" width="3" height="3" fill="#4aff6c" />
<rect x="13" y="76" width="3" height="3" fill="#4aff6c" />
<rect x="19" y="76" width="3" height="3" fill="#4aff6c" />
<rect x="22" y="76" width="3" height="3" fill="#4aff6c" />
<rect x="55" y="76" width="3" height="3" fill="#4aff6c" />
<rect x="61" y="76" width="3" height="3" fill="#4aff6c" />
<rect x="10" y="79" width="3" height="3" fill="#4aff6c" />
<rect x="13" y="79" width="3" height="3" fill="#4aff6c" />
<rect x="19" y="79" width="3" height="3" fill="#4aff6c" />
<rect x="22" y="79" width="3" height="3" fill="#4aff6c" />
<rect x="55" y="79" width="3" height="3" fill="#4aff6c" />
<rect x="4" y="115" width="3" height="3" fill="#4aff6c" />
<rect x="7" y="115" width="3" height="3" fill="#4aff6c" />
<rect x="25" y="115" width="3" height="3" fill="#4aff6c" />
<rect x="28" y="115" width="3" height="3" fill="#4aff6c" />
<rect x="4" y="118" width="3" height="3" fill="#4aff6c" />
<rect x="7" y="118" width="3" height="3" fill="#4aff6c" />
<rect x="25" y="118" width="3" height="3" fill="#4aff6c" />
<rect x="28" y="118" width="3" height="3" fill="#4aff6c" />
</svg>