<?xml version="1.0" encoding="utf-8"?>
<svg xmlns="http://www.w3.org/2000/svg" width="108" height="108" viewBox="0 0 108 108">
<rect width="100%" height="100%" fill="transparent" />
<rect x="4" y="4" width="4" height="4" fill="#4aff6c" />
<rect x="8" y="4" width="4" height="4" fill="#4aff6c" />
<rect x="8" y="8" width="4" height="4" fill="#4aff6c" />
<rect x="8" y="12" width="4" height="4" fill="#4aff6c" />
<rect x="16" y="12" width="4" height="4" fill="#4aff6c" />
<rect x="12" y="16" width="4" height="4" fill="#4aff6c" />
<rect x="16" y="16" width="4" height="4" fill="#4aff6c" />
<rect x="96" y="32" width="4" height="4" fill="#4aff6c" />
<rect x="100" y="32" width="4" height="4" fill="#4aff6c" />
<rect x="96" y="36" width="4" height="4" fill="#4aff6c" />
<rect x="100" y="36" width="4" height="4" fill="#4aff6c" />
<rect x="12" y="44" width="4" height="4" fill="#4aff6c" />
<rect x="12" y="48" width="4" height="4" fill="#4aff6c" />
<rect x="20" y="48" width="4" height="4" fill="#4aff6c" />
<rect x="12" y="52" width="4" height="4" fill="#4aff6c" />
<rect x="16" y="52" width="4" height="4" fill="#4aff6c" />
<rect x="20" y="52" width="4" height="4" fill="#4aff6c" />
<rect x="20" y="56" width="4" height="4" fill="#4aff6c" />
<rect x="48" y="88" width="4" height="4" fill="#4aff6c" />
<rect x="52" y="88" width="4" height="4" fill="#4aff6c" />
<rect x="52" y="92" width="4" height="4" fill="#4aff6c" />
<rect x="40" y="96" width="4" height="4" fill="#4aff6c" />
<rect x="44" y="96" width="4" height="4" fill="#4aff6c" />
<rect x="48" y="96" width="4" height="4" fill="#4aff6c" />
<rect x="40" y="100" width="4" height="4" fill="#4aff6c" />
</svg>