<?xml version="1.0" encoding="utf-8"?>
<svg xmlns="http://www.w3.org/2000/svg" width="125" height="71" viewBox="0 0 125 71">
<rect width="100%" height="100%" fill="transparent" />
<rect x="7" y="4" width="3" height="3" fill="#4aff6c" />
<rect x="10" y="4" width="3" height="3" fill="#4aff6c" />
<rect x="37" y="4" width="3" height="3" fill="#4aff6c" />
<rect x="40" y="4" width="3" height="3" fill="#4aff6c" />
<rect x="7" y="7" width="3" height="3" fill="#4aff6c" />
<rect x="10" y="7" width="3" height="3" fill="#4aff6c" />
<rect x="40" y="7" width="3" height="3" fill="#4aff6c" />
<rect x="64" y="7" width="3" height="3" fill="#4aff6c" />
<rect x="7" y="10" width="3" height="3" fill="#4aff6c" />
<rect x="10" y="10" width="3" height="3" fill="#4aff6c" />
<rect x="40" y="10" width="3" height="3" fill="#4aff6c" />
<rect x="46" y="10" width="3" height="3" fill="#4aff6c" />
<rect x="49" y="10" width="3" height="3" fill="#4aff6c" />
<rect x="61" y="10" width="3" height="3" fill="#4aff6c" />
<rect x="67" y="10" width="3" height="3" fill="#4aff6c" />
<rect x="106" y="10" width="3" height="3" fill="#4aff6c" />
<rect x="109" y="10" width="3" height="3" fill="#4aff6c" />
<rect x="7" y="13" width="3" height="3" fill="#4aff6c" />
<rect x="43" y="13" width="3" height="3" fill="#4aff6c" />
<rect x="64" y="13" width="3" height="3" fill="#4aff6c" />
<rect x="106" y="13" width="3" height="3" fill="#4aff6c" />
<rect x="109" y="13" width="3" height="3" fill="#4aff6c" />
<rect x="112" y="13" width="3" height="3" fill="#4aff6c" />
<rect x="4" y="16" width="3" height="3" fill="#4aff6c" />
<rect x="10" y="16" width="3" height="3" fill="#4aff6c" />
<rect x="31" y="16" width="3" height="3" fill="#4aff6c" />
<rect x="34" y="16" width="3" height="3" fill="#4aff6c" />
<rect x="55" y="16" width="3" height="3" fill="#4aff6c" />
<rect x="106" y="16" width="3" height="3" fill="#4aff6c" />
<rect x="109" y="16" width="3" height="3" fill="#4aff6c" />
<rect x="115" y="16" width="3" height="3" fill="#4aff6c" />
<rect x="4" y="19" width="3" height="3" fill="#4aff6c" />
<rect x="10" y="19" width="3" height="3" fill="#4aff6c" />
<rect x="13" y="19" width="3" height="3" fill="#4aff6c" />
<rect x="31" y="19" width="3" height="3" fill="#4aff6c" />
<rect x="34" y="19" width="3" height="3" fill="#4aff6c" />
<rect x="49" y="19" width="3" height="3" fill="#4aff6c" />
<rect x="112" y="19" width="3" height="3" fill="#4aff6c" />
<rect x="118" y="19" width="3" height="3" fill="#4aff6c" />
<rect x="52" y="22" width="3" height="3" fill="#4aff6c" />
<rect x="109" y="22" width="3" height="3" fill="#4aff6c" />
<rect x="118" y="22" width="3" height="3" fill="#4aff6c" />
<rect x="112" y="25" width="3" height="3" fill="#4aff6c" />
<rect x="115" y="25" width="3" height="3" fill="#4aff6c" />
<rect x="7" y="28" width="3" height="3" fill="#4aff6c" />
<rect x="10" y="28" width="3" height="3" fill="#4aff6c" />
<rect x="7" y="31" width="3" height="3" fill="#4aff6c" />
<rect x="10" y="31" width="3" height="3" fill="#4aff6c" />
<rect x="49" y="34" width="3" height="3" fill="#4aff6c" />
<rect x="52" y="34" width="3" height="3" fill="#4aff6c" />
<rect x="52" y="37" width="3" height="3" fill="#4aff6c" />
<rect x="55" y="37" width="3" height="3" fill="#4aff6c" />
<rect x="112" y="37" width="3" height="3" fill="#4aff6c" />
<rect x="115" y="37" width="3" height="3" fill="#4aff6c" />
<rect x="52" y="40" width="3" height="3" fill="#4aff6c" />
<rect x="112" y="40" width="3" height="3" fill="#4aff6c" />
<rect x="115" y="40" width="3" height="3" fill="#4aff6c" />
<rect x="7" y="43" width="3" height="3" fill="#4aff6c" />
<rect x="10" y="43" width="3" height="3" fill="#4aff6c" />
<rect x="31" y="43" width="3" height="3" fill="#4aff6c" />
<rect x="34" y="43" width="3" height="3" fill="#4aff6c" />
<rect x="37" y="43" width="3" height="3" fill="#4aff6c" />
<rect x="112" y="43" width="3" height="3" fill="#4aff6c" />
<rect x="115" y="43" width="3" height="3" fill="#4aff6c" />
<rect x="4" y="46" width="3" height="3" fill="#4aff6c" />
<rect x="13" y="46" width="3" height="3" fill="#4aff6c" />
<rect x="37" y="46" width="3" height="3" fill="#4aff6c" />
<rect x="112" y="46" width="3" height="3" fill="#4aff6c" />
<rect x="4" y="49" width="3" height="3" fill="#4aff6c" />
<rect x="10" y="49" width="3" height="3" fill="#4aff6c" />
<rect x="88" y="49" width="3" height="3" fill="#4aff6c" />
<rect x="91" y="49" width="3" height="3" fill="#4aff6c" />
<rect x="109" y="49" width="3" height="3" fill="#4aff6c" />
<rect x="115" y="49" width="3" height="3" fill="#4aff6c" />
<rect x="7" y="52" width="3" height="3" fill="#4aff6c" />
<rect x="13" y="52" width="3" height="3" fill="#4aff6c" />
<rect x="16" y="52" width="3" height="3" fill="#4aff6c" />
<rect x="88" y="52" width="3" height="3" fill="#4aff6c" />
<rect x="91" y="52" width="3" height="3" fill="#4aff6c" />
<rect x="109" y="52" width="3" height="3" fill="#4aff6c" />
<rect x="115" y="52" width="3" height="3" fill="#4aff6c" />
<rect x="118" y="52" width="3" height="3" fill="#4aff6c" />
<rect x="10" y="55" width="3" height="3" fill="#4aff6c" />
<rect x="13" y="55" width="3" height="3" fill="#4aff6c" />
<rect x="16" y="55" width="3" height="3" fill="#4aff6c" />
<rect x="58" y="55" width="3" height="3" fill="#4aff6c" />
<rect x="13" y="58" width="3" height="3" fill="#4aff6c" />
<rect x="16" y="58" width="3" height="3" fill="#4aff6c" />
<rect x="55" y="58" width="3" height="3" fill="#4aff6c" />
<rect x="61" y="58" width="3" height="3" fill="#4aff6c" />
<rect x="58" y="61" width="3" height="3" fill="#4aff6c" />
<rect x="112" y="61" width="3" height="3" fill="#4aff6c" />
<rect x="115" y="61" width="3" height="3" fill="#4aff6c" />
<rect x="112" y="64" width="3" height="3" fill="#4aff6c" />
<rect x="115" y="64" width="3" height="3" fill="#4aff6c" />
</svg>