<?xml version="1.0" encoding="utf-8"?>
<svg xmlns="http://www.w3.org/2000/svg" width="116" height="96" viewBox="0 0 116 96">
<rect width="100%" height="100%" fill="transparent" />
<rect x="100" y="4" width="4" height="4" fill="#4aff6c" />
<rect x="100" y="8" width="4" height="4" fill="#4aff6c" />
<rect x="108" y="8" width="4" height="4" fill="#4aff6c" />
<rect x="100" y="12" width="4" height="4" fill="#4aff6c" />
<rect x="104" y="12" width="4" height="4" fill="#4aff6c" />
<rect x="72" y="32" width="4" height="4" fill="#4aff6c" />
<rect x="68" y="36" width="4" height="4" fill="#4aff6c" />
<rect x="68" y="40" width="4" height="4" fill="#4aff6c" />
<rect x="72" y="40" width="4" height="4" fill="#4aff6c" />
<rect x="76" y="40" width="4" height="4" fill="#4aff6c" />
<rect x="16" y="48" width="4" height="4" fill="#4aff6c" />
<rect x="20" y="48" width="4" height="4" fill="#4aff6c" />
<rect x="40" y="48" width="4" height="4" fill="#4aff6c" />
<rect x="44" y="48" width="4" height="4" fill="#4aff6c" />
<rect x="84" y="48" width="4" height="4" fill="#4aff6c" />
<rect x="88" y="48" width="4" height="4" fill="#4aff6c" />
<rect x="12" y="52" width="4" height="4" fill="#4aff6c" />
<rect x="24" y="52" width="4" height="4" fill="#4aff6c" />
<rect x="36" y="52" width="4" height="4" fill="#4aff6c" />
<rect x="48" y="52" width="4" height="4" fill="#4aff6c" />
<rect x="68" y="52" width="4" height="4" fill="#4aff6c" />
<rect x="72" y="52" width="4" height="4" fill="#4aff6c" />
<rect x="84" y="52" width="4" height="4" fill="#4aff6c" />
<rect x="88" y="52" width="4" height="4" fill="#4aff6c" />
<rect x="12" y="56" width="4" height="4" fill="#4aff6c" />
<rect x="16" y="56" width="4" height="4" fill="#4aff6c" />
<rect x="44" y="56" width="4" height="4" fill="#4aff6c" />
<rect x="48" y="56" width="4" height="4" fill="#4aff6c" />
<rect x="64" y="56" width="4" height="4" fill="#4aff6c" />
<rect x="72" y="56" width="4" height="4" fill="#4aff6c" />
<rect x="12" y="60" width="4" height="4" fill="#4aff6c" />
<rect x="16" y="60" width="4" height="4" fill="#4aff6c" />
<rect x="44" y="60" width="4" height="4" fill="#4aff6c" />
<rect x="48" y="60" width="4" height="4" fill="#4aff6c" />
<rect x="68" y="60" width="4" height="4" fill="#4aff6c" />
<rect x="20" y="64" width="4" height="4" fill="#4aff6c" />
<rect x="24" y="64" width="4" height="4" fill="#4aff6c" />
<rect x="36" y="64" width="4" height="4" fill="#4aff6c" />
<rect x="40" y="64" width="4" height="4" fill="#4aff6c" />
<rect x="76" y="68" width="4" height="4" fill="#4aff6c" />
<rect x="80" y="68" width="4" height="4" fill="#4aff6c" />
<rect x="76" y="72" width="4" height="4" fill="#4aff6c" />
<rect x="80" y="76" width="4" height="4" fill="#4aff6c" />
<rect x="84" y="76" width="4" height="4" fill="#4aff6c" />
<rect x="88" y="76" width="4" height="4" fill="#4aff6c" />
<rect x="8" y="80" width="4" height="4" fill="#4aff6c" />
<rect x="20" y="80" width="4" height="4" fill="#4aff6c" />
<rect x="28" y="80" width="4" height="4" fill="#4aff6c" />
<rect x="32" y="80" width="4" height="4" fill="#4aff6c" />
<rect x="40" y="80" width="4" height="4" fill="#4aff6c" />
<rect x="52" y="80" width="4" height="4" fill="#4aff6c" />
<rect x="88" y="80" width="4" height="4" fill="#4aff6c" />
<rect x="4" y="84" width="4" height="4" fill="#4aff6c" />
<rect x="8" y="84" width="4" height="4" fill="#4aff6c" />
<rect x="20" y="84" width="4" height="4" fill="#4aff6c" />
<rect x="40" y="84" width="4" height="4" fill="#4aff6c" />
<rect x="52" y="84" width="4" height="4" fill="#4aff6c" />
<rect x="56" y="84" width="4" height="4" fill="#4aff6c" />
<rect x="8" y="88" width="4" height="4" fill="#4aff6c" />
<rect x="20" y="88" width="4" height="4" fill="#4aff6c" />
<rect x="28" y="88" width="4" height="4" fill="#4aff6c" />
<rect x="32" y="88" width="4" height="4" fill="#4aff6c" />
<rect x="40" y="88" width="4" height="4" fill="#4aff6c" />
<rect x="52" y="88" width="4" height="4" fill="#4aff6c" />
</svg>