<?xml version="1.0" encoding="utf-8"?>
<svg xmlns="http://www.w3.org/2000/svg" width="98" height="50" viewBox="0 0 98 50">
<rect width="100%" height="100%" fill="transparent" />
<rect x="40" y="4" width="2" height="2" fill="#4aff6c" />
<rect x="42" y="4" width="2" height="2" fill="#4aff6c" />
<rect x="42" y="6" width="2" height="2" fill="#4aff6c" />
<rect x="58" y="6" width="2" height="2" fill="#4aff6c" />
<rect x="42" y="8" width="2" height="2" fill="#4aff6c" />
<rect x="46" y="8" width="2" height="2" fill="#4aff6c" />
<rect x="76" y="8" width="2" height="2" fill="#4aff6c" />
<rect x="78" y="8" width="2" height="2" fill="#4aff6c" />
<rect x="44" y="10" width="2" height="2" fill="#4aff6c" />
<rect x="46" y="10" width="2" height="2" fill="#4aff6c" />
<rect x="72" y="10" width="2" height="2" fill="#4aff6c" />
<rect x="74" y="10" width="2" height="2" fill="#4aff6c" />
<rect x="80" y="10" width="2" height="2" fill="#4aff6c" />
<rect x="52" y="12" width="2" height="2" fill="#4aff6c" />
<rect x="54" y="12" width="2" height="2" fill="#4aff6c" />
<rect x="56" y="12" width="2" height="2" fill="#4aff6c" />
<rect x="72" y="12" width="2" height="2" fill="#4aff6c" />
<rect x="74" y="12" width="2" height="2" fill="#4aff6c" />
<rect x="78" y="12" width="2" height="2" fill="#4aff6c" />
<rect x="80" y="12" width="2" height="2" fill="#4aff6c" />
<rect x="52" y="14" width="2" height="2" fill="#4aff6c" />
<rect x="54" y="14" width="2" height="2" fill="#4aff6c" />
<rect x="58" y="14" width="2" height="2" fill="#4aff6c" />
<rect x="60" y="14" width="2" height="2" fill="#4aff6c" />
<rect x="76" y="14" width="2" height="2" fill="#4aff6c" />
<rect x="78" y="14" width="2" height="2" fill="#4aff6c" />
<rect x="80" y="14" width="2" height="2" fill="#4aff6c" />
<rect x="52" y="16" width="2" height="2" fill="#4aff6c" />
<rect x="58" y="16" width="2" height="2" fill="#4aff6c" />
<rect x="60" y="16" width="2" height="2" fill="#4aff6c" />
<rect x="86" y="16" width="2" height="2" fill="#4aff6c" />
<rect x="88" y="16" width="2" height="2" fill="#4aff6c" />
<rect x="54" y="18" width="2" height="2" fill="#4aff6c" />
<rect x="56" y="18" width="2" height="2" fill="#4aff6c" />
<rect x="86" y="18" width="2" height="2" fill="#4aff6c" />
<rect x="90" y="18" width="2" height="2" fill="#4aff6c" />
<rect x="74" y="20" width="2" height="2" fill="#4aff6c" />
<rect x="90" y="20" width="2" height="2" fill="#4aff6c" />
<rect x="90" y="22" width="2" height="2" fill="#4aff6c" />
<rect x="92" y="22" width="2" height="2" fill="#4aff6c" />
<rect x="4" y="26" width="2" height="2" fill="#4aff6c" />
<rect x="6" y="26" width="2" height="2" fill="#4aff6c" />
<rect x="6" y="28" width="2" height="2" fill="#4aff6c" />
<rect x="6" y="30" width="2" height="2" fill="#4aff6c" />
<rect x="10" y="30" width="2" height="2" fill="#4aff6c" />
<rect x="38" y="30" width="2" height="2" fill="#4aff6c" />
<rect x="40" y="30" width="2" height="2" fill="#4aff6c" />
<rect x="42" y="30" width="2" height="2" fill="#4aff6c" />
<rect x="8" y="32" width="2" height="2" fill="#4aff6c" />
<rect x="10" y="32" width="2" height="2" fill="#4aff6c" />
<rect x="18" y="32" width="2" height="2" fill="#4aff6c" />
<rect x="36" y="32" width="2" height="2" fill="#4aff6c" />
<rect x="44" y="32" width="2" height="2" fill="#4aff6c" />
<rect x="16" y="34" width="2" height="2" fill="#4aff6c" />
<rect x="20" y="34" width="2" height="2" fill="#4aff6c" />
<rect x="22" y="34" width="2" height="2" fill="#4aff6c" />
<rect x="36" y="34" width="2" height="2" fill="#4aff6c" />
<rect x="46" y="34" width="2" height="2" fill="#4aff6c" />
<rect x="14" y="36" width="2" height="2" fill="#4aff6c" />
<rect x="24" y="36" width="2" height="2" fill="#4aff6c" />
<rect x="38" y="36" width="2" height="2" fill="#4aff6c" />
<rect x="40" y="36" width="2" height="2" fill="#4aff6c" />
<rect x="44" y="36" width="2" height="2" fill="#4aff6c" />
<rect x="16" y="38" width="2" height="2" fill="#4aff6c" />
<rect x="24" y="38" width="2" height="2" fill="#4aff6c" />
<rect x="42" y="38" width="2" height="2" fill="#4aff6c" />
<rect x="50" y="38" width="2" height="2" fill="#4aff6c" />
<rect x="52" y="38" width="2" height="2" fill="#4aff6c" />
<rect x="18" y="40" width="2" height="2" fill="#4aff6c" />
<rect x="20" y="40" width="2" height="2" fill="#4aff6c" />
<rect x="22" y="40" width="2" height="2" fill="#4aff6c" />
<rect x="50" y="40" width="2" height="2" fill="#4aff6c" />
<rect x="54" y="40" width="2" height="2" fill="#4aff6c" />
<rect x="54" y="42" width="2" height="2" fill="#4aff6c" />
<rect x="54" y="44" width="2" height="2" fill="#4aff6c" />
<rect x="56" y="44" width="2" height="2" fill="#4aff6c" />
</svg>