<?xml version="1.0" encoding="utf-8"?>
<svg xmlns="http://www.w3.org/2000/svg" width="94" height="84" viewBox="0 0 94 84">
<rect width="100%" height="100%" fill="transparent" />
<rect x="72" y="4" width="2" height="2" fill="#4aff6c" />
<rect x="72" y="6" width="2" height="2" fill="#4aff6c" />
<rect x="74" y="6" width="2" height="2" fill="#4aff6c" />
<rect x="76" y="6" width="2" height="2" fill="#4aff6c" />
<rect x="68" y="8" width="2" height="2" fill="#4aff6c" />
<rect x="70" y="8" width="2" height="2" fill="#4aff6c" />
<rect x="78" y="8" width="2" height="2" fill="#4aff6c" />
<rect x="66" y="10" width="2" height="2" fill="#4aff6c" />
<rect x="70" y="10" width="2" height="2" fill="#4aff6c" />
<rect x="74" y="10" width="2" height="2" fill="#4aff6c" />
<rect x="76" y="10" width="2" height="2" fill="#4aff6c" />
<rect x="80" y="10" width="2" height="2" fill="#4aff6c" />
<rect x="64" y="12" width="2" height="2" fill="#4aff6c" />
<rect x="70" y="12" width="2" height="2" fill="#4aff6c" />
<rect x="76" y="12" width="2" height="2" fill="#4aff6c" />
<rect x="80" y="12" width="2" height="2" fill="#4aff6c" />
<rect x="76" y="14" width="2" height="2" fill="#4aff6c" />
<rect x="80" y="14" width="2" height="2" fill="#4aff6c" />
<rect x="82" y="14" width="2" height="2" fill="#4aff6c" />
<rect x="72" y="16" width="2" height="2" fill="#4aff6c" />
<rect x="76" y="16" width="2" height="2" fill="#4aff6c" />
<rect x="68" y="18" width="2" height="2" fill="#4aff6c" />
<rect x="72" y="18" width="2" height="2" fill="#4aff6c" />
<rect x="76" y="18" width="2" height="2" fill="#4aff6c" />
<rect x="70" y="20" width="2" height="2" fill="#4aff6c" />
<rect x="72" y="20" width="2" height="2" fill="#4aff6c" />
<rect x="76" y="20" width="2" height="2" fill="#4aff6c" />
<rect x="78" y="20" width="2" height="2" fill="#4aff6c" />
<rect x="4" y="24" width="2" height="2" fill="#4aff6c" />
<rect x="6" y="24" width="2" height="2" fill="#4aff6c" />
<rect x="6" y="26" width="2" height="2" fill="#4aff6c" />
<rect x="6" y="28" width="2" height="2" fill="#4aff6c" />
<rect x="10" y="28" width="2" height="2" fill="#4aff6c" />
<rect x="46" y="28" width="2" height="2" fill="#4aff6c" />
<rect x="48" y="28" width="2" height="2" fill="#4aff6c" />
<rect x="8" y="30" width="2" height="2" fill="#4aff6c" />
<rect x="10" y="30" width="2" height="2" fill="#4aff6c" />
<rect x="48" y="30" width="2" height="2" fill="#4aff6c" />
<rect x="86" y="30" width="2" height="2" fill="#4aff6c" />
<rect x="88" y="30" width="2" height="2" fill="#4aff6c" />
<rect x="44" y="32" width="2" height="2" fill="#4aff6c" />
<rect x="48" y="32" width="2" height="2" fill="#4aff6c" />
<rect x="86" y="32" width="2" height="2" fill="#4aff6c" />
<rect x="44" y="34" width="2" height="2" fill="#4aff6c" />
<rect x="46" y="34" width="2" height="2" fill="#4aff6c" />
<rect x="82" y="34" width="2" height="2" fill="#4aff6c" />
<rect x="86" y="34" width="2" height="2" fill="#4aff6c" />
<rect x="82" y="36" width="2" height="2" fill="#4aff6c" />
<rect x="84" y="36" width="2" height="2" fill="#4aff6c" />
<rect x="62" y="50" width="2" height="2" fill="#4aff6c" />
<rect x="64" y="50" width="2" height="2" fill="#4aff6c" />
<rect x="50" y="52" width="2" height="2" fill="#4aff6c" />
<rect x="62" y="52" width="2" height="2" fill="#4aff6c" />
<rect x="64" y="52" width="2" height="2" fill="#4aff6c" />
<rect x="38" y="54" width="2" height="2" fill="#4aff6c" />
<rect x="40" y="54" width="2" height="2" fill="#4aff6c" />
<rect x="44" y="54" width="2" height="2" fill="#4aff6c" />
<rect x="46" y="54" width="2" height="2" fill="#4aff6c" />
<rect x="48" y="54" width="2" height="2" fill="#4aff6c" />
<rect x="38" y="56" width="2" height="2" fill="#4aff6c" />
<rect x="44" y="56" width="2" height="2" fill="#4aff6c" />
<rect x="46" y="56" width="2" height="2" fill="#4aff6c" />
<rect x="48" y="56" width="2" height="2" fill="#4aff6c" />
<rect x="50" y="56" width="2" height="2" fill="#4aff6c" />
<rect x="38" y="58" width="2" height="2" fill="#4aff6c" />
<rect x="42" y="58" width="2" height="2" fill="#4aff6c" />
<rect x="44" y="58" width="2" height="2" fill="#4aff6c" />
<rect x="14" y="64" width="2" height="2" fill="#4aff6c" />
<rect x="12" y="66" width="2" height="2" fill="#4aff6c" />
<rect x="16" y="66" width="2" height="2" fill="#4aff6c" />
<rect x="18" y="66" width="2" height="2" fill="#4aff6c" />
<rect x="20" y="66" width="2" height="2" fill="#4aff6c" />
<rect x="22" y="66" width="2" height="2" fill="#4aff6c" />
<rect x="10" y="68" width="2" height="2" fill="#4aff6c" />
<rect x="14" y="68" width="2" height="2" fill="#4aff6c" />
<rect x="18" y="68" width="2" height="2" fill="#4aff6c" />
<rect x="20" y="68" width="2" height="2" fill="#4aff6c" />
<rect x="22" y="68" width="2" height="2" fill="#4aff6c" />
<rect x="8" y="70" width="2" height="2" fill="#4aff6c" />
<rect x="12" y="70" width="2" height="2" fill="#4aff6c" />
<rect x="10" y="72" width="2" height="2" fill="#4aff6c" />
<rect x="10" y="74" width="2" height="2" fill="#4aff6c" />
<rect x="12" y="74" width="2" height="2" fill="#4aff6c" />
<rect x="10" y="76" width="2" height="2" fill="#4aff6c" />
<rect x="12" y="76" width="2" height="2" fill="#4aff6c" />
<rect x="10" y="78" width="2" height="2" fill="#4aff6c" />
<rect x="12" y="78" width="2" height="2" fill="#4aff6c" />
</svg>