<?xml version="1.0" encoding="utf-8"?>
<svg xmlns="http://www.w3.org/2000/svg" width="124" height="52" viewBox="0 0 124 52">
<rect width="100%" height="100%" fill="transparent" />
<rect x="24" y="4" width="2" height="2" fill="#4aff6c" />
<rect x="40" y="4" width="2" height="2" fill="#4aff6c" />
<rect x="82" y="4" width="2" height="2" fill="#4aff6c" />
<rect x="98" y="4" width="2" height="2" fill="#4aff6c" />
<rect x="22" y="6" width="2" height="2" fill="#4aff6c" />
<rect x="26" y="6" width="2" height="2" fill="#4aff6c" />
<rect x="38" y="6" width="2" height="2" fill="#4aff6c" />
<rect x="42" y="6" width="2" height="2" fill="#4aff6c" />
<rect x="80" y="6" width="2" height="2" fill="#4aff6c" />
<rect x="84" y="6" width="2" height="2" fill="#4aff6c" />
<rect x="96" y="6" width="2" height="2" fill="#4aff6c" />
<rect x="100" y="6" width="2" height="2" fill="#4aff6c" />
<rect x="24" y="8" width="2" height="2" fill="#4aff6c" />
<rect x="40" y="8" width="2" height="2" fill="#4aff6c" />
<rect x="82" y="8" width="2" height="2" fill="#4aff6c" />
<rect x="98" y="8" width="2" height="2" fill="#4aff6c" />
<rect x="54" y="16" width="2" height="2" fill="#4aff6c" />
<rect x="56" y="16" width="2" height="2" fill="#4aff6c" />
<rect x="66" y="16" width="2" height="2" fill="#4aff6c" />
<rect x="68" y="16" width="2" height="2" fill="#4aff6c" />
<rect x="54" y="18" width="2" height="2" fill="#4aff6c" />
<rect x="56" y="18" width="2" height="2" fill="#4aff6c" />
<rect x="58" y="18" width="2" height="2" fill="#4aff6c" />
<rect x="64" y="18" width="2" height="2" fill="#4aff6c" />
<rect x="66" y="18" width="2" height="2" fill="#4aff6c" />
<rect x="68" y="18" width="2" height="2" fill="#4aff6c" />
<rect x="10" y="20" width="2" height="2" fill="#4aff6c" />
<rect x="12" y="20" width="2" height="2" fill="#4aff6c" />
<rect x="54" y="20" width="2" height="2" fill="#4aff6c" />
<rect x="56" y="20" width="2" height="2" fill="#4aff6c" />
<rect x="66" y="20" width="2" height="2" fill="#4aff6c" />
<rect x="68" y="20" width="2" height="2" fill="#4aff6c" />
<rect x="110" y="20" width="2" height="2" fill="#4aff6c" />
<rect x="112" y="20" width="2" height="2" fill="#4aff6c" />
<rect x="10" y="22" width="2" height="2" fill="#4aff6c" />
<rect x="26" y="22" width="2" height="2" fill="#4aff6c" />
<rect x="38" y="22" width="2" height="2" fill="#4aff6c" />
<rect x="84" y="22" width="2" height="2" fill="#4aff6c" />
<rect x="96" y="22" width="2" height="2" fill="#4aff6c" />
<rect x="112" y="22" width="2" height="2" fill="#4aff6c" />
<rect x="4" y="24" width="2" height="2" fill="#4aff6c" />
<rect x="6" y="24" width="2" height="2" fill="#4aff6c" />
<rect x="10" y="24" width="2" height="2" fill="#4aff6c" />
<rect x="24" y="24" width="2" height="2" fill="#4aff6c" />
<rect x="26" y="24" width="2" height="2" fill="#4aff6c" />
<rect x="28" y="24" width="2" height="2" fill="#4aff6c" />
<rect x="36" y="24" width="2" height="2" fill="#4aff6c" />
<rect x="38" y="24" width="2" height="2" fill="#4aff6c" />
<rect x="40" y="24" width="2" height="2" fill="#4aff6c" />
<rect x="82" y="24" width="2" height="2" fill="#4aff6c" />
<rect x="84" y="24" width="2" height="2" fill="#4aff6c" />
<rect x="86" y="24" width="2" height="2" fill="#4aff6c" />
<rect x="94" y="24" width="2" height="2" fill="#4aff6c" />
<rect x="96" y="24" width="2" height="2" fill="#4aff6c" />
<rect x="98" y="24" width="2" height="2" fill="#4aff6c" />
<rect x="112" y="24" width="2" height="2" fill="#4aff6c" />
<rect x="116" y="24" width="2" height="2" fill="#4aff6c" />
<rect x="118" y="24" width="2" height="2" fill="#4aff6c" />
<rect x="4" y="26" width="2" height="2" fill="#4aff6c" />
<rect x="10" y="26" width="2" height="2" fill="#4aff6c" />
<rect x="12" y="26" width="2" height="2" fill="#4aff6c" />
<rect x="24" y="26" width="2" height="2" fill="#4aff6c" />
<rect x="26" y="26" width="2" height="2" fill="#4aff6c" />
<rect x="28" y="26" width="2" height="2" fill="#4aff6c" />
<rect x="36" y="26" width="2" height="2" fill="#4aff6c" />
<rect x="38" y="26" width="2" height="2" fill="#4aff6c" />
<rect x="40" y="26" width="2" height="2" fill="#4aff6c" />
<rect x="82" y="26" width="2" height="2" fill="#4aff6c" />
<rect x="84" y="26" width="2" height="2" fill="#4aff6c" />
<rect x="86" y="26" width="2" height="2" fill="#4aff6c" />
<rect x="94" y="26" width="2" height="2" fill="#4aff6c" />
<rect x="96" y="26" width="2" height="2" fill="#4aff6c" />
<rect x="98" y="26" width="2" height="2" fill="#4aff6c" />
<rect x="110" y="26" width="2" height="2" fill="#4aff6c" />
<rect x="112" y="26" width="2" height="2" fill="#4aff6c" />
<rect x="118" y="26" width="2" height="2" fill="#4aff6c" />
<rect x="6" y="28" width="2" height="2" fill="#4aff6c" />
<rect x="8" y="28" width="2" height="2" fill="#4aff6c" />
<rect x="18" y="28" width="2" height="2" fill="#4aff6c" />
<rect x="46" y="28" width="2" height="2" fill="#4aff6c" />
<rect x="48" y="28" width="2" height="2" fill="#4aff6c" />
<rect x="74" y="28" width="2" height="2" fill="#4aff6c" />
<rect x="76" y="28" width="2" height="2" fill="#4aff6c" />
<rect x="104" y="28" width="2" height="2" fill="#4aff6c" />
<rect x="114" y="28" width="2" height="2" fill="#4aff6c" />
<rect x="116" y="28" width="2" height="2" fill="#4aff6c" />
<rect x="10" y="30" width="2" height="2" fill="#4aff6c" />
<rect x="12" y="30" width="2" height="2" fill="#4aff6c" />
<rect x="14" y="30" width="2" height="2" fill="#4aff6c" />
<rect x="16" y="30" width="2" height="2" fill="#4aff6c" />
<rect x="18" y="30" width="2" height="2" fill="#4aff6c" />
<rect x="46" y="30" width="2" height="2" fill="#4aff6c" />
<rect x="50" y="30" width="2" height="2" fill="#4aff6c" />
<rect x="72" y="30" width="2" height="2" fill="#4aff6c" />
<rect x="76" y="30" width="2" height="2" fill="#4aff6c" />
<rect x="104" y="30" width="2" height="2" fill="#4aff6c" />
<rect x="106" y="30" width="2" height="2" fill="#4aff6c" />
<rect x="108" y="30" width="2" height="2" fill="#4aff6c" />
<rect x="110" y="30" width="2" height="2" fill="#4aff6c" />
<rect x="112" y="30" width="2" height="2" fill="#4aff6c" />
<rect x="10" y="32" width="2" height="2" fill="#4aff6c" />
<rect x="20" y="32" width="2" height="2" fill="#4aff6c" />
<rect x="22" y="32" width="2" height="2" fill="#4aff6c" />
<rect x="50" y="32" width="2" height="2" fill="#4aff6c" />
<rect x="72" y="32" width="2" height="2" fill="#4aff6c" />
<rect x="100" y="32" width="2" height="2" fill="#4aff6c" />
<rect x="102" y="32" width="2" height="2" fill="#4aff6c" />
<rect x="112" y="32" width="2" height="2" fill="#4aff6c" />
<rect x="12" y="34" width="2" height="2" fill="#4aff6c" />
<rect x="14" y="34" width="2" height="2" fill="#4aff6c" />
<rect x="20" y="34" width="2" height="2" fill="#4aff6c" />
<rect x="36" y="34" width="2" height="2" fill="#4aff6c" />
<rect x="38" y="34" width="2" height="2" fill="#4aff6c" />
<rect x="50" y="34" width="2" height="2" fill="#4aff6c" />
<rect x="52" y="34" width="2" height="2" fill="#4aff6c" />
<rect x="70" y="34" width="2" height="2" fill="#4aff6c" />
<rect x="72" y="34" width="2" height="2" fill="#4aff6c" />
<rect x="84" y="34" width="2" height="2" fill="#4aff6c" />
<rect x="86" y="34" width="2" height="2" fill="#4aff6c" />
<rect x="102" y="34" width="2" height="2" fill="#4aff6c" />
<rect x="108" y="34" width="2" height="2" fill="#4aff6c" />
<rect x="110" y="34" width="2" height="2" fill="#4aff6c" />
<rect x="16" y="36" width="2" height="2" fill="#4aff6c" />
<rect x="20" y="36" width="2" height="2" fill="#4aff6c" />
<rect x="36" y="36" width="2" height="2" fill="#4aff6c" />
<rect x="38" y="36" width="2" height="2" fill="#4aff6c" />
<rect x="84" y="36" width="2" height="2" fill="#4aff6c" />
<rect x="86" y="36" width="2" height="2" fill="#4aff6c" />
<rect x="102" y="36" width="2" height="2" fill="#4aff6c" />
<rect x="106" y="36" width="2" height="2" fill="#4aff6c" />
<rect x="16" y="38" width="2" height="2" fill="#4aff6c" />
<rect x="20" y="38" width="2" height="2" fill="#4aff6c" />
<rect x="24" y="38" width="2" height="2" fill="#4aff6c" />
<rect x="30" y="38" width="2" height="2" fill="#4aff6c" />
<rect x="92" y="38" width="2" height="2" fill="#4aff6c" />
<rect x="98" y="38" width="2" height="2" fill="#4aff6c" />
<rect x="102" y="38" width="2" height="2" fill="#4aff6c" />
<rect x="106" y="38" width="2" height="2" fill="#4aff6c" />
<rect x="18" y="40" width="2" height="2" fill="#4aff6c" />
<rect x="20" y="40" width="2" height="2" fill="#4aff6c" />
<rect x="24" y="40" width="2" height="2" fill="#4aff6c" />
<rect x="26" y="40" width="2" height="2" fill="#4aff6c" />
<rect x="28" y="40" width="2" height="2" fill="#4aff6c" />
<rect x="30" y="40" width="2" height="2" fill="#4aff6c" />
<rect x="92" y="40" width="2" height="2" fill="#4aff6c" />
<rect x="94" y="40" width="2" height="2" fill="#4aff6c" />
<rect x="96" y="40" width="2" height="2" fill="#4aff6c" />
<rect x="98" y="40" width="2" height="2" fill="#4aff6c" />
<rect x="102" y="40" width="2" height="2" fill="#4aff6c" />
<rect x="104" y="40" width="2" height="2" fill="#4aff6c" />
<rect x="22" y="42" width="2" height="2" fill="#4aff6c" />
<rect x="100" y="42" width="2" height="2" fill="#4aff6c" />
<rect x="22" y="44" width="2" height="2" fill="#4aff6c" />
<rect x="26" y="44" width="2" height="2" fill="#4aff6c" />
<rect x="96" y="44" width="2" height="2" fill="#4aff6c" />
<rect x="100" y="44" width="2" height="2" fill="#4aff6c" />
<rect x="24" y="46" width="2" height="2" fill="#4aff6c" />
<rect x="26" y="46" width="2" height="2" fill="#4aff6c" />
<rect x="96" y="46" width="2" height="2" fill="#4aff6c" />
<rect x="98" y="46" width="2" height="2" fill="#4aff6c" />
</svg>