<?xml version="1.0" encoding="utf-8"?>
<svg xmlns="http://www.w3.org/2000/svg" width="108" height="106" viewBox="0 0 108 106">
<rect width="100%" height="100%" fill="transparent" />
<rect x="100" y="4" width="2" height="2" fill="#4aff6c" />
<rect x="96" y="6" width="2" height="2" fill="#4aff6c" />
<rect x="98" y="6" width="2" height="2" fill="#4aff6c" />
<rect x="100" y="6" width="2" height="2" fill="#4aff6c" />
<rect x="94" y="8" width="2" height="2" fill="#4aff6c" />
<rect x="94" y="10" width="2" height="2" fill="#4aff6c" />
<rect x="96" y="10" width="2" height="2" fill="#4aff6c" />
<rect x="70" y="24" width="2" height="2" fill="#4aff6c" />
<rect x="72" y="24" width="2" height="2" fill="#4aff6c" />
<rect x="68" y="26" width="2" height="2" fill="#4aff6c" />
<rect x="74" y="26" width="2" height="2" fill="#4aff6c" />
<rect x="68" y="28" width="2" height="2" fill="#4aff6c" />
<rect x="72" y="28" width="2" height="2" fill="#4aff6c" />
<rect x="76" y="28" width="2" height="2" fill="#4aff6c" />
<rect x="70" y="30" width="2" height="2" fill="#4aff6c" />
<rect x="76" y="30" width="2" height="2" fill="#4aff6c" />
<rect x="78" y="30" width="2" height="2" fill="#4aff6c" />
<rect x="80" y="30" width="2" height="2" fill="#4aff6c" />
<rect x="74" y="34" width="2" height="2" fill="#4aff6c" />
<rect x="76" y="34" width="2" height="2" fill="#4aff6c" />
<rect x="88" y="34" width="2" height="2" fill="#4aff6c" />
<rect x="90" y="34" width="2" height="2" fill="#4aff6c" />
<rect x="74" y="36" width="2" height="2" fill="#4aff6c" />
<rect x="86" y="36" width="2" height="2" fill="#4aff6c" />
<rect x="90" y="36" width="2" height="2" fill="#4aff6c" />
<rect x="92" y="36" width="2" height="2" fill="#4aff6c" />
<rect x="86" y="38" width="2" height="2" fill="#4aff6c" />
<rect x="92" y="38" width="2" height="2" fill="#4aff6c" />
<rect x="88" y="40" width="2" height="2" fill="#4aff6c" />
<rect x="90" y="40" width="2" height="2" fill="#4aff6c" />
<rect x="92" y="40" width="2" height="2" fill="#4aff6c" />
<rect x="80" y="42" width="2" height="2" fill="#4aff6c" />
<rect x="82" y="42" width="2" height="2" fill="#4aff6c" />
<rect x="88" y="42" width="2" height="2" fill="#4aff6c" />
<rect x="90" y="42" width="2" height="2" fill="#4aff6c" />
<rect x="78" y="44" width="2" height="2" fill="#4aff6c" />
<rect x="80" y="44" width="2" height="2" fill="#4aff6c" />
<rect x="82" y="44" width="2" height="2" fill="#4aff6c" />
<rect x="78" y="46" width="2" height="2" fill="#4aff6c" />
<rect x="84" y="46" width="2" height="2" fill="#4aff6c" />
<rect x="78" y="48" width="2" height="2" fill="#4aff6c" />
<rect x="80" y="48" width="2" height="2" fill="#4aff6c" />
<rect x="84" y="48" width="2" height="2" fill="#4aff6c" />
<rect x="96" y="48" width="2" height="2" fill="#4aff6c" />
<rect x="80" y="50" width="2" height="2" fill="#4aff6c" />
<rect x="82" y="50" width="2" height="2" fill="#4aff6c" />
<rect x="94" y="50" width="2" height="2" fill="#4aff6c" />
<rect x="96" y="50" width="2" height="2" fill="#4aff6c" />
<rect x="56" y="52" width="2" height="2" fill="#4aff6c" />
<rect x="58" y="52" width="2" height="2" fill="#4aff6c" />
<rect x="4" y="54" width="2" height="2" fill="#4aff6c" />
<rect x="6" y="54" width="2" height="2" fill="#4aff6c" />
<rect x="54" y="54" width="2" height="2" fill="#4aff6c" />
<rect x="60" y="54" width="2" height="2" fill="#4aff6c" />
<rect x="90" y="54" width="2" height="2" fill="#4aff6c" />
<rect x="92" y="54" width="2" height="2" fill="#4aff6c" />
<rect x="94" y="54" width="2" height="2" fill="#4aff6c" />
<rect x="100" y="54" width="2" height="2" fill="#4aff6c" />
<rect x="6" y="56" width="2" height="2" fill="#4aff6c" />
<rect x="56" y="56" width="2" height="2" fill="#4aff6c" />
<rect x="60" y="56" width="2" height="2" fill="#4aff6c" />
<rect x="94" y="56" width="2" height="2" fill="#4aff6c" />
<rect x="98" y="56" width="2" height="2" fill="#4aff6c" />
<rect x="102" y="56" width="2" height="2" fill="#4aff6c" />
<rect x="6" y="58" width="2" height="2" fill="#4aff6c" />
<rect x="10" y="58" width="2" height="2" fill="#4aff6c" />
<rect x="48" y="58" width="2" height="2" fill="#4aff6c" />
<rect x="50" y="58" width="2" height="2" fill="#4aff6c" />
<rect x="58" y="58" width="2" height="2" fill="#4aff6c" />
<rect x="96" y="58" width="2" height="2" fill="#4aff6c" />
<rect x="102" y="58" width="2" height="2" fill="#4aff6c" />
<rect x="8" y="60" width="2" height="2" fill="#4aff6c" />
<rect x="10" y="60" width="2" height="2" fill="#4aff6c" />
<rect x="32" y="60" width="2" height="2" fill="#4aff6c" />
<rect x="50" y="60" width="2" height="2" fill="#4aff6c" />
<rect x="54" y="60" width="2" height="2" fill="#4aff6c" />
<rect x="56" y="60" width="2" height="2" fill="#4aff6c" />
<rect x="98" y="60" width="2" height="2" fill="#4aff6c" />
<rect x="100" y="60" width="2" height="2" fill="#4aff6c" />
<rect x="30" y="62" width="2" height="2" fill="#4aff6c" />
<rect x="32" y="62" width="2" height="2" fill="#4aff6c" />
<rect x="54" y="62" width="2" height="2" fill="#4aff6c" />
<rect x="28" y="64" width="2" height="2" fill="#4aff6c" />
<rect x="30" y="64" width="2" height="2" fill="#4aff6c" />
<rect x="34" y="64" width="2" height="2" fill="#4aff6c" />
<rect x="54" y="64" width="2" height="2" fill="#4aff6c" />
<rect x="30" y="66" width="2" height="2" fill="#4aff6c" />
<rect x="34" y="66" width="2" height="2" fill="#4aff6c" />
<rect x="32" y="68" width="2" height="2" fill="#4aff6c" />
<rect x="34" y="68" width="2" height="2" fill="#4aff6c" />
<rect x="50" y="70" width="2" height="2" fill="#4aff6c" />
<rect x="52" y="70" width="2" height="2" fill="#4aff6c" />
<rect x="50" y="72" width="2" height="2" fill="#4aff6c" />
<rect x="54" y="72" width="2" height="2" fill="#4aff6c" />
<rect x="30" y="74" width="2" height="2" fill="#4aff6c" />
<rect x="50" y="74" width="2" height="2" fill="#4aff6c" />
<rect x="54" y="74" width="2" height="2" fill="#4aff6c" />
<rect x="56" y="74" width="2" height="2" fill="#4aff6c" />
<rect x="30" y="76" width="2" height="2" fill="#4aff6c" />
<rect x="52" y="76" width="2" height="2" fill="#4aff6c" />
<rect x="54" y="76" width="2" height="2" fill="#4aff6c" />
<rect x="28" y="78" width="2" height="2" fill="#4aff6c" />
<rect x="30" y="78" width="2" height="2" fill="#4aff6c" />
<rect x="34" y="78" width="2" height="2" fill="#4aff6c" />
<rect x="52" y="78" width="2" height="2" fill="#4aff6c" />
<rect x="26" y="80" width="2" height="2" fill="#4aff6c" />
<rect x="34" y="80" width="2" height="2" fill="#4aff6c" />
<rect x="36" y="80" width="2" height="2" fill="#4aff6c" />
<rect x="24" y="82" width="2" height="2" fill="#4aff6c" />
<rect x="28" y="82" width="2" height="2" fill="#4aff6c" />
<rect x="24" y="84" width="2" height="2" fill="#4aff6c" />
<rect x="30" y="84" width="2" height="2" fill="#4aff6c" />
<rect x="26" y="86" width="2" height="2" fill="#4aff6c" />
<rect x="28" y="86" width="2" height="2" fill="#4aff6c" />
<rect x="52" y="86" width="2" height="2" fill="#4aff6c" />
<rect x="76" y="86" width="2" height="2" fill="#4aff6c" />
<rect x="78" y="86" width="2" height="2" fill="#4aff6c" />
<rect x="50" y="88" width="2" height="2" fill="#4aff6c" />
<rect x="54" y="88" width="2" height="2" fill="#4aff6c" />
<rect x="78" y="88" width="2" height="2" fill="#4aff6c" />
<rect x="50" y="90" width="2" height="2" fill="#4aff6c" />
<rect x="54" y="90" width="2" height="2" fill="#4aff6c" />
<rect x="60" y="90" width="2" height="2" fill="#4aff6c" />
<rect x="62" y="90" width="2" height="2" fill="#4aff6c" />
<rect x="64" y="90" width="2" height="2" fill="#4aff6c" />
<rect x="66" y="90" width="2" height="2" fill="#4aff6c" />
<rect x="68" y="90" width="2" height="2" fill="#4aff6c" />
<rect x="70" y="90" width="2" height="2" fill="#4aff6c" />
<rect x="72" y="90" width="2" height="2" fill="#4aff6c" />
<rect x="74" y="90" width="2" height="2" fill="#4aff6c" />
<rect x="76" y="90" width="2" height="2" fill="#4aff6c" />
<rect x="44" y="92" width="2" height="2" fill="#4aff6c" />
<rect x="46" y="92" width="2" height="2" fill="#4aff6c" />
<rect x="50" y="92" width="2" height="2" fill="#4aff6c" />
<rect x="56" y="92" width="2" height="2" fill="#4aff6c" />
<rect x="60" y="92" width="2" height="2" fill="#4aff6c" />
<rect x="62" y="92" width="2" height="2" fill="#4aff6c" />
<rect x="64" y="92" width="2" height="2" fill="#4aff6c" />
<rect x="66" y="92" width="2" height="2" fill="#4aff6c" />
<rect x="68" y="92" width="2" height="2" fill="#4aff6c" />
<rect x="70" y="92" width="2" height="2" fill="#4aff6c" />
<rect x="72" y="92" width="2" height="2" fill="#4aff6c" />
<rect x="78" y="92" width="2" height="2" fill="#4aff6c" />
<rect x="80" y="92" width="2" height="2" fill="#4aff6c" />
<rect x="82" y="92" width="2" height="2" fill="#4aff6c" />
<rect x="44" y="94" width="2" height="2" fill="#4aff6c" />
<rect x="46" y="94" width="2" height="2" fill="#4aff6c" />
<rect x="50" y="94" width="2" height="2" fill="#4aff6c" />
<rect x="60" y="94" width="2" height="2" fill="#4aff6c" />
<rect x="62" y="94" width="2" height="2" fill="#4aff6c" />
<rect x="64" y="94" width="2" height="2" fill="#4aff6c" />
<rect x="66" y="94" width="2" height="2" fill="#4aff6c" />
<rect x="68" y="94" width="2" height="2" fill="#4aff6c" />
<rect x="70" y="94" width="2" height="2" fill="#4aff6c" />
<rect x="76" y="94" width="2" height="2" fill="#4aff6c" />
<rect x="82" y="94" width="2" height="2" fill="#4aff6c" />
<rect x="50" y="96" width="2" height="2" fill="#4aff6c" />
<rect x="78" y="96" width="2" height="2" fill="#4aff6c" />
<rect x="80" y="96" width="2" height="2" fill="#4aff6c" />
<rect x="50" y="98" width="2" height="2" fill="#4aff6c" />
<rect x="54" y="98" width="2" height="2" fill="#4aff6c" />
<rect x="64" y="98" width="2" height="2" fill="#4aff6c" />
<rect x="66" y="98" width="2" height="2" fill="#4aff6c" />
<rect x="52" y="100" width="2" height="2" fill="#4aff6c" />
<rect x="54" y="100" width="2" height="2" fill="#4aff6c" />
<rect x="64" y="100" width="2" height="2" fill="#4aff6c" />
<rect x="66" y="100" width="2" height="2" fill="#4aff6c" />
</svg>