<?xml version="1.0" encoding="utf-8"?>
<svg xmlns="http://www.w3.org/2000/svg" width="124" height="80" viewBox="0 0 124 80">
<rect width="100%" height="100%" fill="transparent" />
<rect x="68" y="4" width="2" height="2" fill="#4aff6c" />
<rect x="66" y="6" width="2" height="2" fill="#4aff6c" />
<rect x="66" y="8" width="2" height="2" fill="#4aff6c" />
<rect x="68" y="8" width="2" height="2" fill="#4aff6c" />
<rect x="70" y="8" width="2" height="2" fill="#4aff6c" />
<rect x="86" y="8" width="2" height="2" fill="#4aff6c" />
<rect x="90" y="8" width="2" height="2" fill="#4aff6c" />
<rect x="84" y="10" width="2" height="2" fill="#4aff6c" />
<rect x="88" y="10" width="2" height="2" fill="#4aff6c" />
<rect x="90" y="10" width="2" height="2" fill="#4aff6c" />
<rect x="80" y="12" width="2" height="2" fill="#4aff6c" />
<rect x="82" y="12" width="2" height="2" fill="#4aff6c" />
<rect x="84" y="12" width="2" height="2" fill="#4aff6c" />
<rect x="96" y="12" width="2" height="2" fill="#4aff6c" />
<rect x="78" y="14" width="2" height="2" fill="#4aff6c" />
<rect x="86" y="14" width="2" height="2" fill="#4aff6c" />
<rect x="88" y="14" width="2" height="2" fill="#4aff6c" />
<rect x="90" y="14" width="2" height="2" fill="#4aff6c" />
<rect x="92" y="14" width="2" height="2" fill="#4aff6c" />
<rect x="94" y="14" width="2" height="2" fill="#4aff6c" />
<rect x="96" y="14" width="2" height="2" fill="#4aff6c" />
<rect x="98" y="14" width="2" height="2" fill="#4aff6c" />
<rect x="100" y="14" width="2" height="2" fill="#4aff6c" />
<rect x="72" y="16" width="2" height="2" fill="#4aff6c" />
<rect x="76" y="16" width="2" height="2" fill="#4aff6c" />
<rect x="80" y="16" width="2" height="2" fill="#4aff6c" />
<rect x="86" y="16" width="2" height="2" fill="#4aff6c" />
<rect x="102" y="16" width="2" height="2" fill="#4aff6c" />
<rect x="32" y="18" width="2" height="2" fill="#4aff6c" />
<rect x="72" y="18" width="2" height="2" fill="#4aff6c" />
<rect x="74" y="18" width="2" height="2" fill="#4aff6c" />
<rect x="76" y="18" width="2" height="2" fill="#4aff6c" />
<rect x="78" y="18" width="2" height="2" fill="#4aff6c" />
<rect x="82" y="18" width="2" height="2" fill="#4aff6c" />
<rect x="84" y="18" width="2" height="2" fill="#4aff6c" />
<rect x="88" y="18" width="2" height="2" fill="#4aff6c" />
<rect x="90" y="18" width="2" height="2" fill="#4aff6c" />
<rect x="92" y="18" width="2" height="2" fill="#4aff6c" />
<rect x="94" y="18" width="2" height="2" fill="#4aff6c" />
<rect x="96" y="18" width="2" height="2" fill="#4aff6c" />
<rect x="98" y="18" width="2" height="2" fill="#4aff6c" />
<rect x="100" y="18" width="2" height="2" fill="#4aff6c" />
<rect x="104" y="18" width="2" height="2" fill="#4aff6c" />
<rect x="32" y="20" width="2" height="2" fill="#4aff6c" />
<rect x="34" y="20" width="2" height="2" fill="#4aff6c" />
<rect x="36" y="20" width="2" height="2" fill="#4aff6c" />
<rect x="74" y="20" width="2" height="2" fill="#4aff6c" />
<rect x="76" y="20" width="2" height="2" fill="#4aff6c" />
<rect x="78" y="20" width="2" height="2" fill="#4aff6c" />
<rect x="90" y="20" width="2" height="2" fill="#4aff6c" />
<rect x="94" y="20" width="2" height="2" fill="#4aff6c" />
<rect x="100" y="20" width="2" height="2" fill="#4aff6c" />
<rect x="104" y="20" width="2" height="2" fill="#4aff6c" />
<rect x="110" y="20" width="2" height="2" fill="#4aff6c" />
<rect x="112" y="20" width="2" height="2" fill="#4aff6c" />
<rect x="38" y="22" width="2" height="2" fill="#4aff6c" />
<rect x="78" y="22" width="2" height="2" fill="#4aff6c" />
<rect x="80" y="22" width="2" height="2" fill="#4aff6c" />
<rect x="82" y="22" width="2" height="2" fill="#4aff6c" />
<rect x="86" y="22" width="2" height="2" fill="#4aff6c" />
<rect x="90" y="22" width="2" height="2" fill="#4aff6c" />
<rect x="98" y="22" width="2" height="2" fill="#4aff6c" />
<rect x="100" y="22" width="2" height="2" fill="#4aff6c" />
<rect x="104" y="22" width="2" height="2" fill="#4aff6c" />
<rect x="108" y="22" width="2" height="2" fill="#4aff6c" />
<rect x="112" y="22" width="2" height="2" fill="#4aff6c" />
<rect x="36" y="24" width="2" height="2" fill="#4aff6c" />
<rect x="38" y="24" width="2" height="2" fill="#4aff6c" />
<rect x="66" y="24" width="2" height="2" fill="#4aff6c" />
<rect x="68" y="24" width="2" height="2" fill="#4aff6c" />
<rect x="70" y="24" width="2" height="2" fill="#4aff6c" />
<rect x="76" y="24" width="2" height="2" fill="#4aff6c" />
<rect x="78" y="24" width="2" height="2" fill="#4aff6c" />
<rect x="82" y="24" width="2" height="2" fill="#4aff6c" />
<rect x="84" y="24" width="2" height="2" fill="#4aff6c" />
<rect x="86" y="24" width="2" height="2" fill="#4aff6c" />
<rect x="88" y="24" width="2" height="2" fill="#4aff6c" />
<rect x="90" y="24" width="2" height="2" fill="#4aff6c" />
<rect x="100" y="24" width="2" height="2" fill="#4aff6c" />
<rect x="104" y="24" width="2" height="2" fill="#4aff6c" />
<rect x="108" y="24" width="2" height="2" fill="#4aff6c" />
<rect x="62" y="26" width="2" height="2" fill="#4aff6c" />
<rect x="66" y="26" width="2" height="2" fill="#4aff6c" />
<rect x="74" y="26" width="2" height="2" fill="#4aff6c" />
<rect x="76" y="26" width="2" height="2" fill="#4aff6c" />
<rect x="78" y="26" width="2" height="2" fill="#4aff6c" />
<rect x="82" y="26" width="2" height="2" fill="#4aff6c" />
<rect x="84" y="26" width="2" height="2" fill="#4aff6c" />
<rect x="88" y="26" width="2" height="2" fill="#4aff6c" />
<rect x="94" y="26" width="2" height="2" fill="#4aff6c" />
<rect x="98" y="26" width="2" height="2" fill="#4aff6c" />
<rect x="100" y="26" width="2" height="2" fill="#4aff6c" />
<rect x="102" y="26" width="2" height="2" fill="#4aff6c" />
<rect x="104" y="26" width="2" height="2" fill="#4aff6c" />
<rect x="110" y="26" width="2" height="2" fill="#4aff6c" />
<rect x="116" y="26" width="2" height="2" fill="#4aff6c" />
<rect x="118" y="26" width="2" height="2" fill="#4aff6c" />
<rect x="58" y="28" width="2" height="2" fill="#4aff6c" />
<rect x="60" y="28" width="2" height="2" fill="#4aff6c" />
<rect x="72" y="28" width="2" height="2" fill="#4aff6c" />
<rect x="82" y="28" width="2" height="2" fill="#4aff6c" />
<rect x="88" y="28" width="2" height="2" fill="#4aff6c" />
<rect x="94" y="28" width="2" height="2" fill="#4aff6c" />
<rect x="102" y="28" width="2" height="2" fill="#4aff6c" />
<rect x="112" y="28" width="2" height="2" fill="#4aff6c" />
<rect x="118" y="28" width="2" height="2" fill="#4aff6c" />
<rect x="42" y="30" width="2" height="2" fill="#4aff6c" />
<rect x="58" y="30" width="2" height="2" fill="#4aff6c" />
<rect x="60" y="30" width="2" height="2" fill="#4aff6c" />
<rect x="64" y="30" width="2" height="2" fill="#4aff6c" />
<rect x="68" y="30" width="2" height="2" fill="#4aff6c" />
<rect x="74" y="30" width="2" height="2" fill="#4aff6c" />
<rect x="88" y="30" width="2" height="2" fill="#4aff6c" />
<rect x="94" y="30" width="2" height="2" fill="#4aff6c" />
<rect x="104" y="30" width="2" height="2" fill="#4aff6c" />
<rect x="106" y="30" width="2" height="2" fill="#4aff6c" />
<rect x="108" y="30" width="2" height="2" fill="#4aff6c" />
<rect x="110" y="30" width="2" height="2" fill="#4aff6c" />
<rect x="112" y="30" width="2" height="2" fill="#4aff6c" />
<rect x="114" y="30" width="2" height="2" fill="#4aff6c" />
<rect x="116" y="30" width="2" height="2" fill="#4aff6c" />
<rect x="40" y="32" width="2" height="2" fill="#4aff6c" />
<rect x="64" y="32" width="2" height="2" fill="#4aff6c" />
<rect x="68" y="32" width="2" height="2" fill="#4aff6c" />
<rect x="74" y="32" width="2" height="2" fill="#4aff6c" />
<rect x="80" y="32" width="2" height="2" fill="#4aff6c" />
<rect x="86" y="32" width="2" height="2" fill="#4aff6c" />
<rect x="106" y="32" width="2" height="2" fill="#4aff6c" />
<rect x="40" y="34" width="2" height="2" fill="#4aff6c" />
<rect x="42" y="34" width="2" height="2" fill="#4aff6c" />
<rect x="44" y="34" width="2" height="2" fill="#4aff6c" />
<rect x="62" y="34" width="2" height="2" fill="#4aff6c" />
<rect x="72" y="34" width="2" height="2" fill="#4aff6c" />
<rect x="78" y="34" width="2" height="2" fill="#4aff6c" />
<rect x="102" y="34" width="2" height="2" fill="#4aff6c" />
<rect x="110" y="34" width="2" height="2" fill="#4aff6c" />
<rect x="112" y="34" width="2" height="2" fill="#4aff6c" />
<rect x="60" y="36" width="2" height="2" fill="#4aff6c" />
<rect x="64" y="36" width="2" height="2" fill="#4aff6c" />
<rect x="66" y="36" width="2" height="2" fill="#4aff6c" />
<rect x="68" y="36" width="2" height="2" fill="#4aff6c" />
<rect x="70" y="36" width="2" height="2" fill="#4aff6c" />
<rect x="72" y="36" width="2" height="2" fill="#4aff6c" />
<rect x="74" y="36" width="2" height="2" fill="#4aff6c" />
<rect x="76" y="36" width="2" height="2" fill="#4aff6c" />
<rect x="94" y="36" width="2" height="2" fill="#4aff6c" />
<rect x="96" y="36" width="2" height="2" fill="#4aff6c" />
<rect x="100" y="36" width="2" height="2" fill="#4aff6c" />
<rect x="104" y="36" width="2" height="2" fill="#4aff6c" />
<rect x="106" y="36" width="2" height="2" fill="#4aff6c" />
<rect x="108" y="36" width="2" height="2" fill="#4aff6c" />
<rect x="112" y="36" width="2" height="2" fill="#4aff6c" />
<rect x="62" y="38" width="2" height="2" fill="#4aff6c" />
<rect x="82" y="38" width="2" height="2" fill="#4aff6c" />
<rect x="86" y="38" width="2" height="2" fill="#4aff6c" />
<rect x="96" y="38" width="2" height="2" fill="#4aff6c" />
<rect x="100" y="38" width="2" height="2" fill="#4aff6c" />
<rect x="104" y="38" width="2" height="2" fill="#4aff6c" />
<rect x="42" y="40" width="2" height="2" fill="#4aff6c" />
<rect x="44" y="40" width="2" height="2" fill="#4aff6c" />
<rect x="66" y="40" width="2" height="2" fill="#4aff6c" />
<rect x="68" y="40" width="2" height="2" fill="#4aff6c" />
<rect x="70" y="40" width="2" height="2" fill="#4aff6c" />
<rect x="72" y="40" width="2" height="2" fill="#4aff6c" />
<rect x="74" y="40" width="2" height="2" fill="#4aff6c" />
<rect x="76" y="40" width="2" height="2" fill="#4aff6c" />
<rect x="78" y="40" width="2" height="2" fill="#4aff6c" />
<rect x="80" y="40" width="2" height="2" fill="#4aff6c" />
<rect x="82" y="40" width="2" height="2" fill="#4aff6c" />
<rect x="86" y="40" width="2" height="2" fill="#4aff6c" />
<rect x="88" y="40" width="2" height="2" fill="#4aff6c" />
<rect x="90" y="40" width="2" height="2" fill="#4aff6c" />
<rect x="96" y="40" width="2" height="2" fill="#4aff6c" />
<rect x="100" y="40" width="2" height="2" fill="#4aff6c" />
<rect x="42" y="42" width="2" height="2" fill="#4aff6c" />
<rect x="44" y="42" width="2" height="2" fill="#4aff6c" />
<rect x="60" y="42" width="2" height="2" fill="#4aff6c" />
<rect x="68" y="42" width="2" height="2" fill="#4aff6c" />
<rect x="84" y="42" width="2" height="2" fill="#4aff6c" />
<rect x="92" y="42" width="2" height="2" fill="#4aff6c" />
<rect x="96" y="42" width="2" height="2" fill="#4aff6c" />
<rect x="100" y="42" width="2" height="2" fill="#4aff6c" />
<rect x="58" y="44" width="2" height="2" fill="#4aff6c" />
<rect x="64" y="44" width="2" height="2" fill="#4aff6c" />
<rect x="72" y="44" width="2" height="2" fill="#4aff6c" />
<rect x="74" y="44" width="2" height="2" fill="#4aff6c" />
<rect x="76" y="44" width="2" height="2" fill="#4aff6c" />
<rect x="78" y="44" width="2" height="2" fill="#4aff6c" />
<rect x="84" y="44" width="2" height="2" fill="#4aff6c" />
<rect x="90" y="44" width="2" height="2" fill="#4aff6c" />
<rect x="94" y="44" width="2" height="2" fill="#4aff6c" />
<rect x="98" y="44" width="2" height="2" fill="#4aff6c" />
<rect x="62" y="46" width="2" height="2" fill="#4aff6c" />
<rect x="64" y="46" width="2" height="2" fill="#4aff6c" />
<rect x="72" y="46" width="2" height="2" fill="#4aff6c" />
<rect x="80" y="46" width="2" height="2" fill="#4aff6c" />
<rect x="84" y="46" width="2" height="2" fill="#4aff6c" />
<rect x="88" y="46" width="2" height="2" fill="#4aff6c" />
<rect x="94" y="46" width="2" height="2" fill="#4aff6c" />
<rect x="62" y="48" width="2" height="2" fill="#4aff6c" />
<rect x="74" y="48" width="2" height="2" fill="#4aff6c" />
<rect x="76" y="48" width="2" height="2" fill="#4aff6c" />
<rect x="78" y="48" width="2" height="2" fill="#4aff6c" />
<rect x="82" y="48" width="2" height="2" fill="#4aff6c" />
<rect x="86" y="48" width="2" height="2" fill="#4aff6c" />
<rect x="90" y="48" width="2" height="2" fill="#4aff6c" />
<rect x="92" y="48" width="2" height="2" fill="#4aff6c" />
<rect x="98" y="48" width="2" height="2" fill="#4aff6c" />
<rect x="20" y="50" width="2" height="2" fill="#4aff6c" />
<rect x="22" y="50" width="2" height="2" fill="#4aff6c" />
<rect x="54" y="50" width="2" height="2" fill="#4aff6c" />
<rect x="62" y="50" width="2" height="2" fill="#4aff6c" />
<rect x="64" y="50" width="2" height="2" fill="#4aff6c" />
<rect x="66" y="50" width="2" height="2" fill="#4aff6c" />
<rect x="78" y="50" width="2" height="2" fill="#4aff6c" />
<rect x="86" y="50" width="2" height="2" fill="#4aff6c" />
<rect x="94" y="50" width="2" height="2" fill="#4aff6c" />
<rect x="96" y="50" width="2" height="2" fill="#4aff6c" />
<rect x="98" y="50" width="2" height="2" fill="#4aff6c" />
<rect x="10" y="52" width="2" height="2" fill="#4aff6c" />
<rect x="12" y="52" width="2" height="2" fill="#4aff6c" />
<rect x="18" y="52" width="2" height="2" fill="#4aff6c" />
<rect x="24" y="52" width="2" height="2" fill="#4aff6c" />
<rect x="62" y="52" width="2" height="2" fill="#4aff6c" />
<rect x="70" y="52" width="2" height="2" fill="#4aff6c" />
<rect x="72" y="52" width="2" height="2" fill="#4aff6c" />
<rect x="78" y="52" width="2" height="2" fill="#4aff6c" />
<rect x="84" y="52" width="2" height="2" fill="#4aff6c" />
<rect x="88" y="52" width="2" height="2" fill="#4aff6c" />
<rect x="90" y="52" width="2" height="2" fill="#4aff6c" />
<rect x="10" y="54" width="2" height="2" fill="#4aff6c" />
<rect x="20" y="54" width="2" height="2" fill="#4aff6c" />
<rect x="24" y="54" width="2" height="2" fill="#4aff6c" />
<rect x="62" y="54" width="2" height="2" fill="#4aff6c" />
<rect x="70" y="54" width="2" height="2" fill="#4aff6c" />
<rect x="72" y="54" width="2" height="2" fill="#4aff6c" />
<rect x="74" y="54" width="2" height="2" fill="#4aff6c" />
<rect x="76" y="54" width="2" height="2" fill="#4aff6c" />
<rect x="84" y="54" width="2" height="2" fill="#4aff6c" />
<rect x="88" y="54" width="2" height="2" fill="#4aff6c" />
<rect x="92" y="54" width="2" height="2" fill="#4aff6c" />
<rect x="94" y="54" width="2" height="2" fill="#4aff6c" />
<rect x="4" y="56" width="2" height="2" fill="#4aff6c" />
<rect x="6" y="56" width="2" height="2" fill="#4aff6c" />
<rect x="10" y="56" width="2" height="2" fill="#4aff6c" />
<rect x="22" y="56" width="2" height="2" fill="#4aff6c" />
<rect x="56" y="56" width="2" height="2" fill="#4aff6c" />
<rect x="58" y="56" width="2" height="2" fill="#4aff6c" />
<rect x="60" y="56" width="2" height="2" fill="#4aff6c" />
<rect x="68" y="56" width="2" height="2" fill="#4aff6c" />
<rect x="82" y="56" width="2" height="2" fill="#4aff6c" />
<rect x="84" y="56" width="2" height="2" fill="#4aff6c" />
<rect x="92" y="56" width="2" height="2" fill="#4aff6c" />
<rect x="96" y="56" width="2" height="2" fill="#4aff6c" />
<rect x="6" y="58" width="2" height="2" fill="#4aff6c" />
<rect x="10" y="58" width="2" height="2" fill="#4aff6c" />
<rect x="14" y="58" width="2" height="2" fill="#4aff6c" />
<rect x="16" y="58" width="2" height="2" fill="#4aff6c" />
<rect x="58" y="58" width="2" height="2" fill="#4aff6c" />
<rect x="60" y="58" width="2" height="2" fill="#4aff6c" />
<rect x="62" y="58" width="2" height="2" fill="#4aff6c" />
<rect x="74" y="58" width="2" height="2" fill="#4aff6c" />
<rect x="80" y="58" width="2" height="2" fill="#4aff6c" />
<rect x="82" y="58" width="2" height="2" fill="#4aff6c" />
<rect x="88" y="58" width="2" height="2" fill="#4aff6c" />
<rect x="92" y="58" width="2" height="2" fill="#4aff6c" />
<rect x="96" y="58" width="2" height="2" fill="#4aff6c" />
<rect x="4" y="60" width="2" height="2" fill="#4aff6c" />
<rect x="10" y="60" width="2" height="2" fill="#4aff6c" />
<rect x="16" y="60" width="2" height="2" fill="#4aff6c" />
<rect x="34" y="60" width="2" height="2" fill="#4aff6c" />
<rect x="36" y="60" width="2" height="2" fill="#4aff6c" />
<rect x="60" y="60" width="2" height="2" fill="#4aff6c" />
<rect x="62" y="60" width="2" height="2" fill="#4aff6c" />
<rect x="64" y="60" width="2" height="2" fill="#4aff6c" />
<rect x="70" y="60" width="2" height="2" fill="#4aff6c" />
<rect x="72" y="60" width="2" height="2" fill="#4aff6c" />
<rect x="74" y="60" width="2" height="2" fill="#4aff6c" />
<rect x="78" y="60" width="2" height="2" fill="#4aff6c" />
<rect x="80" y="60" width="2" height="2" fill="#4aff6c" />
<rect x="82" y="60" width="2" height="2" fill="#4aff6c" />
<rect x="88" y="60" width="2" height="2" fill="#4aff6c" />
<rect x="92" y="60" width="2" height="2" fill="#4aff6c" />
<rect x="96" y="60" width="2" height="2" fill="#4aff6c" />
<rect x="98" y="60" width="2" height="2" fill="#4aff6c" />
<rect x="4" y="62" width="2" height="2" fill="#4aff6c" />
<rect x="6" y="62" width="2" height="2" fill="#4aff6c" />
<rect x="12" y="62" width="2" height="2" fill="#4aff6c" />
<rect x="22" y="62" width="2" height="2" fill="#4aff6c" />
<rect x="34" y="62" width="2" height="2" fill="#4aff6c" />
<rect x="38" y="62" width="2" height="2" fill="#4aff6c" />
<rect x="60" y="62" width="2" height="2" fill="#4aff6c" />
<rect x="66" y="62" width="2" height="2" fill="#4aff6c" />
<rect x="74" y="62" width="2" height="2" fill="#4aff6c" />
<rect x="82" y="62" width="2" height="2" fill="#4aff6c" />
<rect x="88" y="62" width="2" height="2" fill="#4aff6c" />
<rect x="92" y="62" width="2" height="2" fill="#4aff6c" />
<rect x="14" y="64" width="2" height="2" fill="#4aff6c" />
<rect x="16" y="64" width="2" height="2" fill="#4aff6c" />
<rect x="18" y="64" width="2" height="2" fill="#4aff6c" />
<rect x="20" y="64" width="2" height="2" fill="#4aff6c" />
<rect x="22" y="64" width="2" height="2" fill="#4aff6c" />
<rect x="38" y="64" width="2" height="2" fill="#4aff6c" />
<rect x="62" y="64" width="2" height="2" fill="#4aff6c" />
<rect x="66" y="64" width="2" height="2" fill="#4aff6c" />
<rect x="72" y="64" width="2" height="2" fill="#4aff6c" />
<rect x="76" y="64" width="2" height="2" fill="#4aff6c" />
<rect x="78" y="64" width="2" height="2" fill="#4aff6c" />
<rect x="86" y="64" width="2" height="2" fill="#4aff6c" />
<rect x="88" y="64" width="2" height="2" fill="#4aff6c" />
<rect x="90" y="64" width="2" height="2" fill="#4aff6c" />
<rect x="92" y="64" width="2" height="2" fill="#4aff6c" />
<rect x="36" y="66" width="2" height="2" fill="#4aff6c" />
<rect x="58" y="66" width="2" height="2" fill="#4aff6c" />
<rect x="62" y="66" width="2" height="2" fill="#4aff6c" />
<rect x="66" y="66" width="2" height="2" fill="#4aff6c" />
<rect x="70" y="66" width="2" height="2" fill="#4aff6c" />
<rect x="72" y="66" width="2" height="2" fill="#4aff6c" />
<rect x="74" y="66" width="2" height="2" fill="#4aff6c" />
<rect x="78" y="66" width="2" height="2" fill="#4aff6c" />
<rect x="80" y="66" width="2" height="2" fill="#4aff6c" />
<rect x="82" y="66" width="2" height="2" fill="#4aff6c" />
<rect x="86" y="66" width="2" height="2" fill="#4aff6c" />
<rect x="18" y="68" width="2" height="2" fill="#4aff6c" />
<rect x="38" y="68" width="2" height="2" fill="#4aff6c" />
<rect x="40" y="68" width="2" height="2" fill="#4aff6c" />
<rect x="42" y="68" width="2" height="2" fill="#4aff6c" />
<rect x="56" y="68" width="2" height="2" fill="#4aff6c" />
<rect x="60" y="68" width="2" height="2" fill="#4aff6c" />
<rect x="62" y="68" width="2" height="2" fill="#4aff6c" />
<rect x="66" y="68" width="2" height="2" fill="#4aff6c" />
<rect x="72" y="68" width="2" height="2" fill="#4aff6c" />
<rect x="74" y="68" width="2" height="2" fill="#4aff6c" />
<rect x="16" y="70" width="2" height="2" fill="#4aff6c" />
<rect x="20" y="70" width="2" height="2" fill="#4aff6c" />
<rect x="42" y="70" width="2" height="2" fill="#4aff6c" />
<rect x="56" y="70" width="2" height="2" fill="#4aff6c" />
<rect x="68" y="70" width="2" height="2" fill="#4aff6c" />
<rect x="82" y="70" width="2" height="2" fill="#4aff6c" />
<rect x="84" y="70" width="2" height="2" fill="#4aff6c" />
<rect x="88" y="70" width="2" height="2" fill="#4aff6c" />
<rect x="18" y="72" width="2" height="2" fill="#4aff6c" />
<rect x="58" y="72" width="2" height="2" fill="#4aff6c" />
<rect x="60" y="72" width="2" height="2" fill="#4aff6c" />
<rect x="62" y="72" width="2" height="2" fill="#4aff6c" />
<rect x="64" y="72" width="2" height="2" fill="#4aff6c" />
<rect x="66" y="72" width="2" height="2" fill="#4aff6c" />
<rect x="80" y="72" width="2" height="2" fill="#4aff6c" />
<rect x="86" y="72" width="2" height="2" fill="#4aff6c" />
<rect x="88" y="72" width="2" height="2" fill="#4aff6c" />
<rect x="62" y="74" width="2" height="2" fill="#4aff6c" />
<rect x="80" y="74" width="2" height="2" fill="#4aff6c" />
<rect x="82" y="74" width="2" height="2" fill="#4aff6c" />
</svg>