<?xml version="1.0" encoding="utf-8"?>
<svg xmlns="http://www.w3.org/2000/svg" width="98" height="90" viewBox="0 0 98 90">
<rect width="100%" height="100%" fill="transparent" />
<rect x="38" y="4" width="2" height="2" fill="#4aff6c" />
<rect x="40" y="4" width="2" height="2" fill="#4aff6c" />
<rect x="64" y="4" width="2" height="2" fill="#4aff6c" />
<rect x="66" y="4" width="2" height="2" fill="#4aff6c" />
<rect x="36" y="6" width="2" height="2" fill="#4aff6c" />
<rect x="42" y="6" width="2" height="2" fill="#4aff6c" />
<rect x="62" y="6" width="2" height="2" fill="#4aff6c" />
<rect x="68" y="6" width="2" height="2" fill="#4aff6c" />
<rect x="36" y="8" width="2" height="2" fill="#4aff6c" />
<rect x="40" y="8" width="2" height="2" fill="#4aff6c" />
<rect x="48" y="8" width="2" height="2" fill="#4aff6c" />
<rect x="50" y="8" width="2" height="2" fill="#4aff6c" />
<rect x="54" y="8" width="2" height="2" fill="#4aff6c" />
<rect x="56" y="8" width="2" height="2" fill="#4aff6c" />
<rect x="64" y="8" width="2" height="2" fill="#4aff6c" />
<rect x="68" y="8" width="2" height="2" fill="#4aff6c" />
<rect x="32" y="10" width="2" height="2" fill="#4aff6c" />
<rect x="34" y="10" width="2" height="2" fill="#4aff6c" />
<rect x="40" y="10" width="2" height="2" fill="#4aff6c" />
<rect x="44" y="10" width="2" height="2" fill="#4aff6c" />
<rect x="60" y="10" width="2" height="2" fill="#4aff6c" />
<rect x="64" y="10" width="2" height="2" fill="#4aff6c" />
<rect x="70" y="10" width="2" height="2" fill="#4aff6c" />
<rect x="72" y="10" width="2" height="2" fill="#4aff6c" />
<rect x="34" y="12" width="2" height="2" fill="#4aff6c" />
<rect x="38" y="12" width="2" height="2" fill="#4aff6c" />
<rect x="42" y="12" width="2" height="2" fill="#4aff6c" />
<rect x="52" y="12" width="2" height="2" fill="#4aff6c" />
<rect x="62" y="12" width="2" height="2" fill="#4aff6c" />
<rect x="66" y="12" width="2" height="2" fill="#4aff6c" />
<rect x="70" y="12" width="2" height="2" fill="#4aff6c" />
<rect x="32" y="14" width="2" height="2" fill="#4aff6c" />
<rect x="38" y="14" width="2" height="2" fill="#4aff6c" />
<rect x="40" y="14" width="2" height="2" fill="#4aff6c" />
<rect x="46" y="14" width="2" height="2" fill="#4aff6c" />
<rect x="48" y="14" width="2" height="2" fill="#4aff6c" />
<rect x="50" y="14" width="2" height="2" fill="#4aff6c" />
<rect x="52" y="14" width="2" height="2" fill="#4aff6c" />
<rect x="54" y="14" width="2" height="2" fill="#4aff6c" />
<rect x="56" y="14" width="2" height="2" fill="#4aff6c" />
<rect x="58" y="14" width="2" height="2" fill="#4aff6c" />
<rect x="64" y="14" width="2" height="2" fill="#4aff6c" />
<rect x="66" y="14" width="2" height="2" fill="#4aff6c" />
<rect x="72" y="14" width="2" height="2" fill="#4aff6c" />
<rect x="32" y="16" width="2" height="2" fill="#4aff6c" />
<rect x="34" y="16" width="2" height="2" fill="#4aff6c" />
<rect x="46" y="16" width="2" height="2" fill="#4aff6c" />
<rect x="50" y="16" width="2" height="2" fill="#4aff6c" />
<rect x="54" y="16" width="2" height="2" fill="#4aff6c" />
<rect x="58" y="16" width="2" height="2" fill="#4aff6c" />
<rect x="70" y="16" width="2" height="2" fill="#4aff6c" />
<rect x="72" y="16" width="2" height="2" fill="#4aff6c" />
<rect x="50" y="18" width="2" height="2" fill="#4aff6c" />
<rect x="54" y="18" width="2" height="2" fill="#4aff6c" />
<rect x="14" y="20" width="2" height="2" fill="#4aff6c" />
<rect x="20" y="20" width="2" height="2" fill="#4aff6c" />
<rect x="22" y="20" width="2" height="2" fill="#4aff6c" />
<rect x="42" y="20" width="2" height="2" fill="#4aff6c" />
<rect x="44" y="20" width="2" height="2" fill="#4aff6c" />
<rect x="46" y="20" width="2" height="2" fill="#4aff6c" />
<rect x="58" y="20" width="2" height="2" fill="#4aff6c" />
<rect x="60" y="20" width="2" height="2" fill="#4aff6c" />
<rect x="62" y="20" width="2" height="2" fill="#4aff6c" />
<rect x="12" y="22" width="2" height="2" fill="#4aff6c" />
<rect x="16" y="22" width="2" height="2" fill="#4aff6c" />
<rect x="22" y="22" width="2" height="2" fill="#4aff6c" />
<rect x="28" y="22" width="2" height="2" fill="#4aff6c" />
<rect x="40" y="22" width="2" height="2" fill="#4aff6c" />
<rect x="44" y="22" width="2" height="2" fill="#4aff6c" />
<rect x="48" y="22" width="2" height="2" fill="#4aff6c" />
<rect x="56" y="22" width="2" height="2" fill="#4aff6c" />
<rect x="60" y="22" width="2" height="2" fill="#4aff6c" />
<rect x="64" y="22" width="2" height="2" fill="#4aff6c" />
<rect x="12" y="24" width="2" height="2" fill="#4aff6c" />
<rect x="16" y="24" width="2" height="2" fill="#4aff6c" />
<rect x="18" y="24" width="2" height="2" fill="#4aff6c" />
<rect x="22" y="24" width="2" height="2" fill="#4aff6c" />
<rect x="26" y="24" width="2" height="2" fill="#4aff6c" />
<rect x="30" y="24" width="2" height="2" fill="#4aff6c" />
<rect x="40" y="24" width="2" height="2" fill="#4aff6c" />
<rect x="42" y="24" width="2" height="2" fill="#4aff6c" />
<rect x="48" y="24" width="2" height="2" fill="#4aff6c" />
<rect x="50" y="24" width="2" height="2" fill="#4aff6c" />
<rect x="52" y="24" width="2" height="2" fill="#4aff6c" />
<rect x="54" y="24" width="2" height="2" fill="#4aff6c" />
<rect x="56" y="24" width="2" height="2" fill="#4aff6c" />
<rect x="62" y="24" width="2" height="2" fill="#4aff6c" />
<rect x="64" y="24" width="2" height="2" fill="#4aff6c" />
<rect x="10" y="26" width="2" height="2" fill="#4aff6c" />
<rect x="12" y="26" width="2" height="2" fill="#4aff6c" />
<rect x="16" y="26" width="2" height="2" fill="#4aff6c" />
<rect x="22" y="26" width="2" height="2" fill="#4aff6c" />
<rect x="26" y="26" width="2" height="2" fill="#4aff6c" />
<rect x="32" y="26" width="2" height="2" fill="#4aff6c" />
<rect x="10" y="28" width="2" height="2" fill="#4aff6c" />
<rect x="16" y="28" width="2" height="2" fill="#4aff6c" />
<rect x="20" y="28" width="2" height="2" fill="#4aff6c" />
<rect x="22" y="28" width="2" height="2" fill="#4aff6c" />
<rect x="28" y="28" width="2" height="2" fill="#4aff6c" />
<rect x="12" y="30" width="2" height="2" fill="#4aff6c" />
<rect x="14" y="30" width="2" height="2" fill="#4aff6c" />
<rect x="16" y="30" width="2" height="2" fill="#4aff6c" />
<rect x="20" y="30" width="2" height="2" fill="#4aff6c" />
<rect x="24" y="30" width="2" height="2" fill="#4aff6c" />
<rect x="32" y="30" width="2" height="2" fill="#4aff6c" />
<rect x="34" y="30" width="2" height="2" fill="#4aff6c" />
<rect x="36" y="30" width="2" height="2" fill="#4aff6c" />
<rect x="16" y="32" width="2" height="2" fill="#4aff6c" />
<rect x="18" y="32" width="2" height="2" fill="#4aff6c" />
<rect x="22" y="32" width="2" height="2" fill="#4aff6c" />
<rect x="34" y="32" width="2" height="2" fill="#4aff6c" />
<rect x="36" y="32" width="2" height="2" fill="#4aff6c" />
<rect x="8" y="34" width="2" height="2" fill="#4aff6c" />
<rect x="12" y="34" width="2" height="2" fill="#4aff6c" />
<rect x="18" y="34" width="2" height="2" fill="#4aff6c" />
<rect x="22" y="34" width="2" height="2" fill="#4aff6c" />
<rect x="30" y="34" width="2" height="2" fill="#4aff6c" />
<rect x="36" y="34" width="2" height="2" fill="#4aff6c" />
<rect x="46" y="34" width="2" height="2" fill="#4aff6c" />
<rect x="50" y="34" width="2" height="2" fill="#4aff6c" />
<rect x="54" y="34" width="2" height="2" fill="#4aff6c" />
<rect x="8" y="36" width="2" height="2" fill="#4aff6c" />
<rect x="10" y="36" width="2" height="2" fill="#4aff6c" />
<rect x="16" y="36" width="2" height="2" fill="#4aff6c" />
<rect x="18" y="36" width="2" height="2" fill="#4aff6c" />
<rect x="22" y="36" width="2" height="2" fill="#4aff6c" />
<rect x="26" y="36" width="2" height="2" fill="#4aff6c" />
<rect x="28" y="36" width="2" height="2" fill="#4aff6c" />
<rect x="34" y="36" width="2" height="2" fill="#4aff6c" />
<rect x="36" y="36" width="2" height="2" fill="#4aff6c" />
<rect x="38" y="36" width="2" height="2" fill="#4aff6c" />
<rect x="48" y="36" width="2" height="2" fill="#4aff6c" />
<rect x="50" y="36" width="2" height="2" fill="#4aff6c" />
<rect x="52" y="36" width="2" height="2" fill="#4aff6c" />
<rect x="80" y="36" width="2" height="2" fill="#4aff6c" />
<rect x="82" y="36" width="2" height="2" fill="#4aff6c" />
<rect x="20" y="38" width="2" height="2" fill="#4aff6c" />
<rect x="22" y="38" width="2" height="2" fill="#4aff6c" />
<rect x="26" y="38" width="2" height="2" fill="#4aff6c" />
<rect x="34" y="38" width="2" height="2" fill="#4aff6c" />
<rect x="36" y="38" width="2" height="2" fill="#4aff6c" />
<rect x="50" y="38" width="2" height="2" fill="#4aff6c" />
<rect x="78" y="38" width="2" height="2" fill="#4aff6c" />
<rect x="84" y="38" width="2" height="2" fill="#4aff6c" />
<rect x="8" y="40" width="2" height="2" fill="#4aff6c" />
<rect x="10" y="40" width="2" height="2" fill="#4aff6c" />
<rect x="12" y="40" width="2" height="2" fill="#4aff6c" />
<rect x="14" y="40" width="2" height="2" fill="#4aff6c" />
<rect x="16" y="40" width="2" height="2" fill="#4aff6c" />
<rect x="26" y="40" width="2" height="2" fill="#4aff6c" />
<rect x="76" y="40" width="2" height="2" fill="#4aff6c" />
<rect x="78" y="40" width="2" height="2" fill="#4aff6c" />
<rect x="6" y="42" width="2" height="2" fill="#4aff6c" />
<rect x="16" y="42" width="2" height="2" fill="#4aff6c" />
<rect x="20" y="42" width="2" height="2" fill="#4aff6c" />
<rect x="22" y="42" width="2" height="2" fill="#4aff6c" />
<rect x="24" y="42" width="2" height="2" fill="#4aff6c" />
<rect x="60" y="42" width="2" height="2" fill="#4aff6c" />
<rect x="62" y="42" width="2" height="2" fill="#4aff6c" />
<rect x="74" y="42" width="2" height="2" fill="#4aff6c" />
<rect x="76" y="42" width="2" height="2" fill="#4aff6c" />
<rect x="78" y="42" width="2" height="2" fill="#4aff6c" />
<rect x="90" y="42" width="2" height="2" fill="#4aff6c" />
<rect x="6" y="44" width="2" height="2" fill="#4aff6c" />
<rect x="10" y="44" width="2" height="2" fill="#4aff6c" />
<rect x="12" y="44" width="2" height="2" fill="#4aff6c" />
<rect x="16" y="44" width="2" height="2" fill="#4aff6c" />
<rect x="20" y="44" width="2" height="2" fill="#4aff6c" />
<rect x="34" y="44" width="2" height="2" fill="#4aff6c" />
<rect x="36" y="44" width="2" height="2" fill="#4aff6c" />
<rect x="52" y="44" width="2" height="2" fill="#4aff6c" />
<rect x="60" y="44" width="2" height="2" fill="#4aff6c" />
<rect x="64" y="44" width="2" height="2" fill="#4aff6c" />
<rect x="74" y="44" width="2" height="2" fill="#4aff6c" />
<rect x="80" y="44" width="2" height="2" fill="#4aff6c" />
<rect x="88" y="44" width="2" height="2" fill="#4aff6c" />
<rect x="92" y="44" width="2" height="2" fill="#4aff6c" />
<rect x="4" y="46" width="2" height="2" fill="#4aff6c" />
<rect x="6" y="46" width="2" height="2" fill="#4aff6c" />
<rect x="10" y="46" width="2" height="2" fill="#4aff6c" />
<rect x="16" y="46" width="2" height="2" fill="#4aff6c" />
<rect x="30" y="46" width="2" height="2" fill="#4aff6c" />
<rect x="32" y="46" width="2" height="2" fill="#4aff6c" />
<rect x="34" y="46" width="2" height="2" fill="#4aff6c" />
<rect x="36" y="46" width="2" height="2" fill="#4aff6c" />
<rect x="54" y="46" width="2" height="2" fill="#4aff6c" />
<rect x="64" y="46" width="2" height="2" fill="#4aff6c" />
<rect x="76" y="46" width="2" height="2" fill="#4aff6c" />
<rect x="78" y="46" width="2" height="2" fill="#4aff6c" />
<rect x="80" y="46" width="2" height="2" fill="#4aff6c" />
<rect x="88" y="46" width="2" height="2" fill="#4aff6c" />
<rect x="90" y="46" width="2" height="2" fill="#4aff6c" />
<rect x="6" y="48" width="2" height="2" fill="#4aff6c" />
<rect x="10" y="48" width="2" height="2" fill="#4aff6c" />
<rect x="14" y="48" width="2" height="2" fill="#4aff6c" />
<rect x="18" y="48" width="2" height="2" fill="#4aff6c" />
<rect x="30" y="48" width="2" height="2" fill="#4aff6c" />
<rect x="32" y="48" width="2" height="2" fill="#4aff6c" />
<rect x="38" y="48" width="2" height="2" fill="#4aff6c" />
<rect x="50" y="48" width="2" height="2" fill="#4aff6c" />
<rect x="52" y="48" width="2" height="2" fill="#4aff6c" />
<rect x="54" y="48" width="2" height="2" fill="#4aff6c" />
<rect x="64" y="48" width="2" height="2" fill="#4aff6c" />
<rect x="66" y="48" width="2" height="2" fill="#4aff6c" />
<rect x="6" y="50" width="2" height="2" fill="#4aff6c" />
<rect x="10" y="50" width="2" height="2" fill="#4aff6c" />
<rect x="14" y="50" width="2" height="2" fill="#4aff6c" />
<rect x="16" y="50" width="2" height="2" fill="#4aff6c" />
<rect x="20" y="50" width="2" height="2" fill="#4aff6c" />
<rect x="26" y="50" width="2" height="2" fill="#4aff6c" />
<rect x="76" y="50" width="2" height="2" fill="#4aff6c" />
<rect x="78" y="50" width="2" height="2" fill="#4aff6c" />
<rect x="80" y="50" width="2" height="2" fill="#4aff6c" />
<rect x="88" y="50" width="2" height="2" fill="#4aff6c" />
<rect x="90" y="50" width="2" height="2" fill="#4aff6c" />
<rect x="4" y="52" width="2" height="2" fill="#4aff6c" />
<rect x="6" y="52" width="2" height="2" fill="#4aff6c" />
<rect x="10" y="52" width="2" height="2" fill="#4aff6c" />
<rect x="12" y="52" width="2" height="2" fill="#4aff6c" />
<rect x="18" y="52" width="2" height="2" fill="#4aff6c" />
<rect x="20" y="52" width="2" height="2" fill="#4aff6c" />
<rect x="28" y="52" width="2" height="2" fill="#4aff6c" />
<rect x="30" y="52" width="2" height="2" fill="#4aff6c" />
<rect x="32" y="52" width="2" height="2" fill="#4aff6c" />
<rect x="34" y="52" width="2" height="2" fill="#4aff6c" />
<rect x="74" y="52" width="2" height="2" fill="#4aff6c" />
<rect x="80" y="52" width="2" height="2" fill="#4aff6c" />
<rect x="88" y="52" width="2" height="2" fill="#4aff6c" />
<rect x="92" y="52" width="2" height="2" fill="#4aff6c" />
<rect x="10" y="54" width="2" height="2" fill="#4aff6c" />
<rect x="16" y="54" width="2" height="2" fill="#4aff6c" />
<rect x="18" y="54" width="2" height="2" fill="#4aff6c" />
<rect x="20" y="54" width="2" height="2" fill="#4aff6c" />
<rect x="26" y="54" width="2" height="2" fill="#4aff6c" />
<rect x="32" y="54" width="2" height="2" fill="#4aff6c" />
<rect x="34" y="54" width="2" height="2" fill="#4aff6c" />
<rect x="44" y="54" width="2" height="2" fill="#4aff6c" />
<rect x="74" y="54" width="2" height="2" fill="#4aff6c" />
<rect x="76" y="54" width="2" height="2" fill="#4aff6c" />
<rect x="78" y="54" width="2" height="2" fill="#4aff6c" />
<rect x="90" y="54" width="2" height="2" fill="#4aff6c" />
<rect x="10" y="56" width="2" height="2" fill="#4aff6c" />
<rect x="14" y="56" width="2" height="2" fill="#4aff6c" />
<rect x="18" y="56" width="2" height="2" fill="#4aff6c" />
<rect x="20" y="56" width="2" height="2" fill="#4aff6c" />
<rect x="32" y="56" width="2" height="2" fill="#4aff6c" />
<rect x="42" y="56" width="2" height="2" fill="#4aff6c" />
<rect x="46" y="56" width="2" height="2" fill="#4aff6c" />
<rect x="64" y="56" width="2" height="2" fill="#4aff6c" />
<rect x="76" y="56" width="2" height="2" fill="#4aff6c" />
<rect x="78" y="56" width="2" height="2" fill="#4aff6c" />
<rect x="8" y="58" width="2" height="2" fill="#4aff6c" />
<rect x="10" y="58" width="2" height="2" fill="#4aff6c" />
<rect x="14" y="58" width="2" height="2" fill="#4aff6c" />
<rect x="20" y="58" width="2" height="2" fill="#4aff6c" />
<rect x="22" y="58" width="2" height="2" fill="#4aff6c" />
<rect x="26" y="58" width="2" height="2" fill="#4aff6c" />
<rect x="32" y="58" width="2" height="2" fill="#4aff6c" />
<rect x="40" y="58" width="2" height="2" fill="#4aff6c" />
<rect x="48" y="58" width="2" height="2" fill="#4aff6c" />
<rect x="66" y="58" width="2" height="2" fill="#4aff6c" />
<rect x="78" y="58" width="2" height="2" fill="#4aff6c" />
<rect x="84" y="58" width="2" height="2" fill="#4aff6c" />
<rect x="12" y="60" width="2" height="2" fill="#4aff6c" />
<rect x="20" y="60" width="2" height="2" fill="#4aff6c" />
<rect x="22" y="60" width="2" height="2" fill="#4aff6c" />
<rect x="28" y="60" width="2" height="2" fill="#4aff6c" />
<rect x="34" y="60" width="2" height="2" fill="#4aff6c" />
<rect x="42" y="60" width="2" height="2" fill="#4aff6c" />
<rect x="46" y="60" width="2" height="2" fill="#4aff6c" />
<rect x="62" y="60" width="2" height="2" fill="#4aff6c" />
<rect x="64" y="60" width="2" height="2" fill="#4aff6c" />
<rect x="66" y="60" width="2" height="2" fill="#4aff6c" />
<rect x="80" y="60" width="2" height="2" fill="#4aff6c" />
<rect x="82" y="60" width="2" height="2" fill="#4aff6c" />
<rect x="12" y="62" width="2" height="2" fill="#4aff6c" />
<rect x="16" y="62" width="2" height="2" fill="#4aff6c" />
<rect x="32" y="62" width="2" height="2" fill="#4aff6c" />
<rect x="44" y="62" width="2" height="2" fill="#4aff6c" />
<rect x="10" y="64" width="2" height="2" fill="#4aff6c" />
<rect x="12" y="64" width="2" height="2" fill="#4aff6c" />
<rect x="16" y="64" width="2" height="2" fill="#4aff6c" />
<rect x="18" y="64" width="2" height="2" fill="#4aff6c" />
<rect x="40" y="64" width="2" height="2" fill="#4aff6c" />
<rect x="42" y="64" width="2" height="2" fill="#4aff6c" />
<rect x="44" y="64" width="2" height="2" fill="#4aff6c" />
<rect x="24" y="66" width="2" height="2" fill="#4aff6c" />
<rect x="26" y="66" width="2" height="2" fill="#4aff6c" />
<rect x="36" y="66" width="2" height="2" fill="#4aff6c" />
<rect x="38" y="66" width="2" height="2" fill="#4aff6c" />
<rect x="40" y="66" width="2" height="2" fill="#4aff6c" />
<rect x="42" y="66" width="2" height="2" fill="#4aff6c" />
<rect x="44" y="66" width="2" height="2" fill="#4aff6c" />
<rect x="46" y="66" width="2" height="2" fill="#4aff6c" />
<rect x="48" y="66" width="2" height="2" fill="#4aff6c" />
<rect x="58" y="66" width="2" height="2" fill="#4aff6c" />
<rect x="60" y="66" width="2" height="2" fill="#4aff6c" />
<rect x="24" y="68" width="2" height="2" fill="#4aff6c" />
<rect x="30" y="68" width="2" height="2" fill="#4aff6c" />
<rect x="36" y="68" width="2" height="2" fill="#4aff6c" />
<rect x="38" y="68" width="2" height="2" fill="#4aff6c" />
<rect x="42" y="68" width="2" height="2" fill="#4aff6c" />
<rect x="46" y="68" width="2" height="2" fill="#4aff6c" />
<rect x="48" y="68" width="2" height="2" fill="#4aff6c" />
<rect x="54" y="68" width="2" height="2" fill="#4aff6c" />
<rect x="60" y="68" width="2" height="2" fill="#4aff6c" />
<rect x="26" y="70" width="2" height="2" fill="#4aff6c" />
<rect x="28" y="70" width="2" height="2" fill="#4aff6c" />
<rect x="32" y="70" width="2" height="2" fill="#4aff6c" />
<rect x="34" y="70" width="2" height="2" fill="#4aff6c" />
<rect x="36" y="70" width="2" height="2" fill="#4aff6c" />
<rect x="38" y="70" width="2" height="2" fill="#4aff6c" />
<rect x="46" y="70" width="2" height="2" fill="#4aff6c" />
<rect x="48" y="70" width="2" height="2" fill="#4aff6c" />
<rect x="50" y="70" width="2" height="2" fill="#4aff6c" />
<rect x="52" y="70" width="2" height="2" fill="#4aff6c" />
<rect x="56" y="70" width="2" height="2" fill="#4aff6c" />
<rect x="58" y="70" width="2" height="2" fill="#4aff6c" />
<rect x="20" y="72" width="2" height="2" fill="#4aff6c" />
<rect x="22" y="72" width="2" height="2" fill="#4aff6c" />
<rect x="24" y="72" width="2" height="2" fill="#4aff6c" />
<rect x="30" y="72" width="2" height="2" fill="#4aff6c" />
<rect x="54" y="72" width="2" height="2" fill="#4aff6c" />
<rect x="60" y="72" width="2" height="2" fill="#4aff6c" />
<rect x="62" y="72" width="2" height="2" fill="#4aff6c" />
<rect x="64" y="72" width="2" height="2" fill="#4aff6c" />
<rect x="18" y="74" width="2" height="2" fill="#4aff6c" />
<rect x="26" y="74" width="2" height="2" fill="#4aff6c" />
<rect x="28" y="74" width="2" height="2" fill="#4aff6c" />
<rect x="32" y="74" width="2" height="2" fill="#4aff6c" />
<rect x="34" y="74" width="2" height="2" fill="#4aff6c" />
<rect x="50" y="74" width="2" height="2" fill="#4aff6c" />
<rect x="52" y="74" width="2" height="2" fill="#4aff6c" />
<rect x="56" y="74" width="2" height="2" fill="#4aff6c" />
<rect x="58" y="74" width="2" height="2" fill="#4aff6c" />
<rect x="66" y="74" width="2" height="2" fill="#4aff6c" />
<rect x="18" y="76" width="2" height="2" fill="#4aff6c" />
<rect x="20" y="76" width="2" height="2" fill="#4aff6c" />
<rect x="24" y="76" width="2" height="2" fill="#4aff6c" />
<rect x="32" y="76" width="2" height="2" fill="#4aff6c" />
<rect x="34" y="76" width="2" height="2" fill="#4aff6c" />
<rect x="50" y="76" width="2" height="2" fill="#4aff6c" />
<rect x="52" y="76" width="2" height="2" fill="#4aff6c" />
<rect x="60" y="76" width="2" height="2" fill="#4aff6c" />
<rect x="64" y="76" width="2" height="2" fill="#4aff6c" />
<rect x="66" y="76" width="2" height="2" fill="#4aff6c" />
<rect x="20" y="78" width="2" height="2" fill="#4aff6c" />
<rect x="24" y="78" width="2" height="2" fill="#4aff6c" />
<rect x="26" y="78" width="2" height="2" fill="#4aff6c" />
<rect x="28" y="78" width="2" height="2" fill="#4aff6c" />
<rect x="36" y="78" width="2" height="2" fill="#4aff6c" />
<rect x="48" y="78" width="2" height="2" fill="#4aff6c" />
<rect x="56" y="78" width="2" height="2" fill="#4aff6c" />
<rect x="58" y="78" width="2" height="2" fill="#4aff6c" />
<rect x="60" y="78" width="2" height="2" fill="#4aff6c" />
<rect x="64" y="78" width="2" height="2" fill="#4aff6c" />
<rect x="18" y="80" width="2" height="2" fill="#4aff6c" />
<rect x="32" y="80" width="2" height="2" fill="#4aff6c" />
<rect x="34" y="80" width="2" height="2" fill="#4aff6c" />
<rect x="50" y="80" width="2" height="2" fill="#4aff6c" />
<rect x="52" y="80" width="2" height="2" fill="#4aff6c" />
<rect x="66" y="80" width="2" height="2" fill="#4aff6c" />
<rect x="88" y="80" width="2" height="2" fill="#4aff6c" />
<rect x="20" y="82" width="2" height="2" fill="#4aff6c" />
<rect x="22" y="82" width="2" height="2" fill="#4aff6c" />
<rect x="24" y="82" width="2" height="2" fill="#4aff6c" />
<rect x="26" y="82" width="2" height="2" fill="#4aff6c" />
<rect x="28" y="82" width="2" height="2" fill="#4aff6c" />
<rect x="30" y="82" width="2" height="2" fill="#4aff6c" />
<rect x="54" y="82" width="2" height="2" fill="#4aff6c" />
<rect x="56" y="82" width="2" height="2" fill="#4aff6c" />
<rect x="58" y="82" width="2" height="2" fill="#4aff6c" />
<rect x="60" y="82" width="2" height="2" fill="#4aff6c" />
<rect x="62" y="82" width="2" height="2" fill="#4aff6c" />
<rect x="64" y="82" width="2" height="2" fill="#4aff6c" />
<rect x="90" y="82" width="2" height="2" fill="#4aff6c" />
<rect x="24" y="84" width="2" height="2" fill="#4aff6c" />
<rect x="30" y="84" width="2" height="2" fill="#4aff6c" />
<rect x="54" y="84" width="2" height="2" fill="#4aff6c" />
<rect x="60" y="84" width="2" height="2" fill="#4aff6c" />
<rect x="86" y="84" width="2" height="2" fill="#4aff6c" />
<rect x="88" y="84" width="2" height="2" fill="#4aff6c" />
<rect x="90" y="84" width="2" height="2" fill="#4aff6c" />
</svg>