<?xml version="1.0" encoding="utf-8"?>
<svg xmlns="http://www.w3.org/2000/svg" width="108" height="84" viewBox="0 0 108 84">
<rect width="100%" height="100%" fill="transparent" />
<rect x="96" y="4" width="4" height="4" fill="#4aff6c" />
<rect x="92" y="8" width="4" height="4" fill="#4aff6c" />
<rect x="92" y="12" width="4" height="4" fill="#4aff6c" />
<rect x="96" y="12" width="4" height="4" fill="#4aff6c" />
<rect x="100" y="12" width="4" height="4" fill="#4aff6c" />
<rect x="16" y="16" width="4" height="4" fill="#4aff6c" />
<rect x="20" y="16" width="4" height="4" fill="#4aff6c" />
<rect x="16" y="20" width="4" height="4" fill="#4aff6c" />
<rect x="24" y="24" width="4" height="4" fill="#4aff6c" />
<rect x="20" y="28" width="4" height="4" fill="#4aff6c" />
<rect x="24" y="28" width="4" height="4" fill="#4aff6c" />
<rect x="28" y="28" width="4" height="4" fill="#4aff6c" />
<rect x="32" y="28" width="4" height="4" fill="#4aff6c" />
<rect x="72" y="28" width="4" height="4" fill="#4aff6c" />
<rect x="16" y="32" width="4" height="4" fill="#4aff6c" />
<rect x="36" y="32" width="4" height="4" fill="#4aff6c" />
<rect x="68" y="32" width="4" height="4" fill="#4aff6c" />
<rect x="16" y="36" width="4" height="4" fill="#4aff6c" />
<rect x="20" y="36" width="4" height="4" fill="#4aff6c" />
<rect x="24" y="36" width="4" height="4" fill="#4aff6c" />
<rect x="28" y="36" width="4" height="4" fill="#4aff6c" />
<rect x="32" y="36" width="4" height="4" fill="#4aff6c" />
<rect x="40" y="36" width="4" height="4" fill="#4aff6c" />
<rect x="68" y="36" width="4" height="4" fill="#4aff6c" />
<rect x="72" y="36" width="4" height="4" fill="#4aff6c" />
<rect x="76" y="36" width="4" height="4" fill="#4aff6c" />
<rect x="8" y="40" width="4" height="4" fill="#4aff6c" />
<rect x="12" y="40" width="4" height="4" fill="#4aff6c" />
<rect x="32" y="40" width="4" height="4" fill="#4aff6c" />
<rect x="40" y="40" width="4" height="4" fill="#4aff6c" />
<rect x="4" y="44" width="4" height="4" fill="#4aff6c" />
<rect x="16" y="44" width="4" height="4" fill="#4aff6c" />
<rect x="40" y="44" width="4" height="4" fill="#4aff6c" />
<rect x="44" y="44" width="4" height="4" fill="#4aff6c" />
<rect x="84" y="44" width="4" height="4" fill="#4aff6c" />
<rect x="88" y="44" width="4" height="4" fill="#4aff6c" />
<rect x="4" y="48" width="4" height="4" fill="#4aff6c" />
<rect x="8" y="48" width="4" height="4" fill="#4aff6c" />
<rect x="16" y="48" width="4" height="4" fill="#4aff6c" />
<rect x="24" y="48" width="4" height="4" fill="#4aff6c" />
<rect x="32" y="48" width="4" height="4" fill="#4aff6c" />
<rect x="44" y="48" width="4" height="4" fill="#4aff6c" />
<rect x="68" y="48" width="4" height="4" fill="#4aff6c" />
<rect x="72" y="48" width="4" height="4" fill="#4aff6c" />
<rect x="84" y="48" width="4" height="4" fill="#4aff6c" />
<rect x="88" y="48" width="4" height="4" fill="#4aff6c" />
<rect x="16" y="52" width="4" height="4" fill="#4aff6c" />
<rect x="28" y="52" width="4" height="4" fill="#4aff6c" />
<rect x="36" y="52" width="4" height="4" fill="#4aff6c" />
<rect x="40" y="52" width="4" height="4" fill="#4aff6c" />
<rect x="44" y="52" width="4" height="4" fill="#4aff6c" />
<rect x="64" y="52" width="4" height="4" fill="#4aff6c" />
<rect x="72" y="52" width="4" height="4" fill="#4aff6c" />
<rect x="16" y="56" width="4" height="4" fill="#4aff6c" />
<rect x="20" y="56" width="4" height="4" fill="#4aff6c" />
<rect x="28" y="56" width="4" height="4" fill="#4aff6c" />
<rect x="44" y="56" width="4" height="4" fill="#4aff6c" />
<rect x="68" y="56" width="4" height="4" fill="#4aff6c" />
<rect x="24" y="60" width="4" height="4" fill="#4aff6c" />
<rect x="32" y="60" width="4" height="4" fill="#4aff6c" />
<rect x="40" y="60" width="4" height="4" fill="#4aff6c" />
<rect x="44" y="60" width="4" height="4" fill="#4aff6c" />
<rect x="24" y="64" width="4" height="4" fill="#4aff6c" />
<rect x="32" y="64" width="4" height="4" fill="#4aff6c" />
<rect x="40" y="64" width="4" height="4" fill="#4aff6c" />
<rect x="76" y="64" width="4" height="4" fill="#4aff6c" />
<rect x="80" y="64" width="4" height="4" fill="#4aff6c" />
<rect x="28" y="68" width="4" height="4" fill="#4aff6c" />
<rect x="40" y="68" width="4" height="4" fill="#4aff6c" />
<rect x="76" y="68" width="4" height="4" fill="#4aff6c" />
<rect x="32" y="72" width="4" height="4" fill="#4aff6c" />
<rect x="36" y="72" width="4" height="4" fill="#4aff6c" />
<rect x="80" y="72" width="4" height="4" fill="#4aff6c" />
<rect x="84" y="72" width="4" height="4" fill="#4aff6c" />
<rect x="88" y="72" width="4" height="4" fill="#4aff6c" />
<rect x="88" y="76" width="4" height="4" fill="#4aff6c" />
</svg>