<?xml version="1.0" encoding="utf-8"?>
<svg xmlns="http://www.w3.org/2000/svg" width="108" height="60" viewBox="0 0 108 60">
<rect width="100%" height="100%" fill="transparent" />
<rect x="28" y="4" width="4" height="4" fill="#4aff6c" />
<rect x="20" y="8" width="4" height="4" fill="#4aff6c" />
<rect x="28" y="8" width="4" height="4" fill="#4aff6c" />
<rect x="60" y="8" width="4" height="4" fill="#4aff6c" />
<rect x="64" y="8" width="4" height="4" fill="#4aff6c" />
<rect x="88" y="8" width="4" height="4" fill="#4aff6c" />
<rect x="92" y="8" width="4" height="4" fill="#4aff6c" />
<rect x="24" y="12" width="4" height="4" fill="#4aff6c" />
<rect x="28" y="12" width="4" height="4" fill="#4aff6c" />
<rect x="56" y="12" width="4" height="4" fill="#4aff6c" />
<rect x="68" y="12" width="4" height="4" fill="#4aff6c" />
<rect x="84" y="12" width="4" height="4" fill="#4aff6c" />
<rect x="96" y="12" width="4" height="4" fill="#4aff6c" />
<rect x="32" y="20" width="4" height="4" fill="#4aff6c" />
<rect x="36" y="20" width="4" height="4" fill="#4aff6c" />
<rect x="68" y="20" width="4" height="4" fill="#4aff6c" />
<rect x="84" y="20" width="4" height="4" fill="#4aff6c" />
<rect x="28" y="24" width="4" height="4" fill="#4aff6c" />
<rect x="40" y="24" width="4" height="4" fill="#4aff6c" />
<rect x="60" y="24" width="4" height="4" fill="#4aff6c" />
<rect x="92" y="24" width="4" height="4" fill="#4aff6c" />
<rect x="28" y="28" width="4" height="4" fill="#4aff6c" />
<rect x="36" y="28" width="4" height="4" fill="#4aff6c" />
<rect x="60" y="28" width="4" height="4" fill="#4aff6c" />
<rect x="64" y="28" width="4" height="4" fill="#4aff6c" />
<rect x="88" y="28" width="4" height="4" fill="#4aff6c" />
<rect x="92" y="28" width="4" height="4" fill="#4aff6c" />
<rect x="32" y="32" width="4" height="4" fill="#4aff6c" />
<rect x="72" y="32" width="4" height="4" fill="#4aff6c" />
<rect x="80" y="32" width="4" height="4" fill="#4aff6c" />
<rect x="56" y="36" width="4" height="4" fill="#4aff6c" />
<rect x="68" y="36" width="4" height="4" fill="#4aff6c" />
<rect x="72" y="36" width="4" height="4" fill="#4aff6c" />
<rect x="80" y="36" width="4" height="4" fill="#4aff6c" />
<rect x="84" y="36" width="4" height="4" fill="#4aff6c" />
<rect x="96" y="36" width="4" height="4" fill="#4aff6c" />
<rect x="12" y="40" width="4" height="4" fill="#4aff6c" />
<rect x="16" y="40" width="4" height="4" fill="#4aff6c" />
<rect x="52" y="40" width="4" height="4" fill="#4aff6c" />
<rect x="60" y="40" width="4" height="4" fill="#4aff6c" />
<rect x="72" y="40" width="4" height="4" fill="#4aff6c" />
<rect x="80" y="40" width="4" height="4" fill="#4aff6c" />
<rect x="92" y="40" width="4" height="4" fill="#4aff6c" />
<rect x="100" y="40" width="4" height="4" fill="#4aff6c" />
<rect x="16" y="44" width="4" height="4" fill="#4aff6c" />
<rect x="52" y="44" width="4" height="4" fill="#4aff6c" />
<rect x="64" y="44" width="4" height="4" fill="#4aff6c" />
<rect x="72" y="44" width="4" height="4" fill="#4aff6c" />
<rect x="80" y="44" width="4" height="4" fill="#4aff6c" />
<rect x="88" y="44" width="4" height="4" fill="#4aff6c" />
<rect x="100" y="44" width="4" height="4" fill="#4aff6c" />
<rect x="4" y="48" width="4" height="4" fill="#4aff6c" />
<rect x="8" y="48" width="4" height="4" fill="#4aff6c" />
<rect x="12" y="48" width="4" height="4" fill="#4aff6c" />
<rect x="68" y="48" width="4" height="4" fill="#4aff6c" />
<rect x="84" y="48" width="4" height="4" fill="#4aff6c" />
<rect x="4" y="52" width="4" height="4" fill="#4aff6c" />
</svg>