<?xml version="1.0" encoding="utf-8"?>
<svg xmlns="http://www.w3.org/2000/svg" width="90" height="82" viewBox="0 0 90 82">
<rect width="100%" height="100%" fill="transparent" />
<rect x="36" y="4" width="2" height="2" fill="#4aff6c" />
<rect x="20" y="6" width="2" height="2" fill="#4aff6c" />
<rect x="36" y="6" width="2" height="2" fill="#4aff6c" />
<rect x="6" y="8" width="2" height="2" fill="#4aff6c" />
<rect x="8" y="8" width="2" height="2" fill="#4aff6c" />
<rect x="16" y="8" width="2" height="2" fill="#4aff6c" />
<rect x="18" y="8" width="2" height="2" fill="#4aff6c" />
<rect x="20" y="8" width="2" height="2" fill="#4aff6c" />
<rect x="26" y="8" width="2" height="2" fill="#4aff6c" />
<rect x="8" y="10" width="2" height="2" fill="#4aff6c" />
<rect x="14" y="10" width="2" height="2" fill="#4aff6c" />
<rect x="22" y="10" width="2" height="2" fill="#4aff6c" />
<rect x="24" y="10" width="2" height="2" fill="#4aff6c" />
<rect x="26" y="10" width="2" height="2" fill="#4aff6c" />
<rect x="32" y="10" width="2" height="2" fill="#4aff6c" />
<rect x="40" y="10" width="2" height="2" fill="#4aff6c" />
<rect x="44" y="10" width="2" height="2" fill="#4aff6c" />
<rect x="46" y="10" width="2" height="2" fill="#4aff6c" />
<rect x="8" y="12" width="2" height="2" fill="#4aff6c" />
<rect x="12" y="12" width="2" height="2" fill="#4aff6c" />
<rect x="16" y="12" width="2" height="2" fill="#4aff6c" />
<rect x="18" y="12" width="2" height="2" fill="#4aff6c" />
<rect x="28" y="12" width="2" height="2" fill="#4aff6c" />
<rect x="30" y="12" width="2" height="2" fill="#4aff6c" />
<rect x="32" y="12" width="2" height="2" fill="#4aff6c" />
<rect x="36" y="12" width="2" height="2" fill="#4aff6c" />
<rect x="40" y="12" width="2" height="2" fill="#4aff6c" />
<rect x="42" y="12" width="2" height="2" fill="#4aff6c" />
<rect x="46" y="12" width="2" height="2" fill="#4aff6c" />
<rect x="4" y="14" width="2" height="2" fill="#4aff6c" />
<rect x="6" y="14" width="2" height="2" fill="#4aff6c" />
<rect x="12" y="14" width="2" height="2" fill="#4aff6c" />
<rect x="16" y="14" width="2" height="2" fill="#4aff6c" />
<rect x="20" y="14" width="2" height="2" fill="#4aff6c" />
<rect x="22" y="14" width="2" height="2" fill="#4aff6c" />
<rect x="24" y="14" width="2" height="2" fill="#4aff6c" />
<rect x="26" y="14" width="2" height="2" fill="#4aff6c" />
<rect x="36" y="14" width="2" height="2" fill="#4aff6c" />
<rect x="6" y="16" width="2" height="2" fill="#4aff6c" />
<rect x="10" y="16" width="2" height="2" fill="#4aff6c" />
<rect x="12" y="16" width="2" height="2" fill="#4aff6c" />
<rect x="30" y="16" width="2" height="2" fill="#4aff6c" />
<rect x="32" y="16" width="2" height="2" fill="#4aff6c" />
<rect x="34" y="16" width="2" height="2" fill="#4aff6c" />
<rect x="38" y="16" width="2" height="2" fill="#4aff6c" />
<rect x="40" y="16" width="2" height="2" fill="#4aff6c" />
<rect x="42" y="16" width="2" height="2" fill="#4aff6c" />
<rect x="44" y="16" width="2" height="2" fill="#4aff6c" />
<rect x="6" y="18" width="2" height="2" fill="#4aff6c" />
<rect x="16" y="18" width="2" height="2" fill="#4aff6c" />
<rect x="20" y="18" width="2" height="2" fill="#4aff6c" />
<rect x="24" y="18" width="2" height="2" fill="#4aff6c" />
<rect x="26" y="18" width="2" height="2" fill="#4aff6c" />
<rect x="34" y="18" width="2" height="2" fill="#4aff6c" />
<rect x="38" y="18" width="2" height="2" fill="#4aff6c" />
<rect x="44" y="18" width="2" height="2" fill="#4aff6c" />
<rect x="4" y="20" width="2" height="2" fill="#4aff6c" />
<rect x="6" y="20" width="2" height="2" fill="#4aff6c" />
<rect x="10" y="20" width="2" height="2" fill="#4aff6c" />
<rect x="14" y="20" width="2" height="2" fill="#4aff6c" />
<rect x="18" y="20" width="2" height="2" fill="#4aff6c" />
<rect x="20" y="20" width="2" height="2" fill="#4aff6c" />
<rect x="30" y="20" width="2" height="2" fill="#4aff6c" />
<rect x="34" y="20" width="2" height="2" fill="#4aff6c" />
<rect x="6" y="22" width="2" height="2" fill="#4aff6c" />
<rect x="10" y="22" width="2" height="2" fill="#4aff6c" />
<rect x="24" y="22" width="2" height="2" fill="#4aff6c" />
<rect x="26" y="22" width="2" height="2" fill="#4aff6c" />
<rect x="28" y="22" width="2" height="2" fill="#4aff6c" />
<rect x="30" y="22" width="2" height="2" fill="#4aff6c" />
<rect x="34" y="22" width="2" height="2" fill="#4aff6c" />
<rect x="6" y="24" width="2" height="2" fill="#4aff6c" />
<rect x="12" y="24" width="2" height="2" fill="#4aff6c" />
<rect x="14" y="24" width="2" height="2" fill="#4aff6c" />
<rect x="16" y="24" width="2" height="2" fill="#4aff6c" />
<rect x="18" y="24" width="2" height="2" fill="#4aff6c" />
<rect x="20" y="24" width="2" height="2" fill="#4aff6c" />
<rect x="22" y="24" width="2" height="2" fill="#4aff6c" />
<rect x="32" y="24" width="2" height="2" fill="#4aff6c" />
<rect x="4" y="26" width="2" height="2" fill="#4aff6c" />
<rect x="6" y="26" width="2" height="2" fill="#4aff6c" />
<rect x="16" y="26" width="2" height="2" fill="#4aff6c" />
<rect x="22" y="26" width="2" height="2" fill="#4aff6c" />
<rect x="28" y="26" width="2" height="2" fill="#4aff6c" />
<rect x="28" y="28" width="2" height="2" fill="#4aff6c" />
<rect x="30" y="28" width="2" height="2" fill="#4aff6c" />
<rect x="14" y="30" width="2" height="2" fill="#4aff6c" />
<rect x="16" y="30" width="2" height="2" fill="#4aff6c" />
<rect x="16" y="32" width="2" height="2" fill="#4aff6c" />
<rect x="18" y="32" width="2" height="2" fill="#4aff6c" />
<rect x="20" y="32" width="2" height="2" fill="#4aff6c" />
<rect x="12" y="34" width="2" height="2" fill="#4aff6c" />
<rect x="22" y="34" width="2" height="2" fill="#4aff6c" />
<rect x="8" y="36" width="2" height="2" fill="#4aff6c" />
<rect x="10" y="36" width="2" height="2" fill="#4aff6c" />
<rect x="12" y="36" width="2" height="2" fill="#4aff6c" />
<rect x="14" y="36" width="2" height="2" fill="#4aff6c" />
<rect x="16" y="36" width="2" height="2" fill="#4aff6c" />
<rect x="18" y="36" width="2" height="2" fill="#4aff6c" />
<rect x="22" y="36" width="2" height="2" fill="#4aff6c" />
<rect x="82" y="36" width="2" height="2" fill="#4aff6c" />
<rect x="6" y="38" width="2" height="2" fill="#4aff6c" />
<rect x="18" y="38" width="2" height="2" fill="#4aff6c" />
<rect x="22" y="38" width="2" height="2" fill="#4aff6c" />
<rect x="24" y="38" width="2" height="2" fill="#4aff6c" />
<rect x="34" y="38" width="2" height="2" fill="#4aff6c" />
<rect x="36" y="38" width="2" height="2" fill="#4aff6c" />
<rect x="80" y="38" width="2" height="2" fill="#4aff6c" />
<rect x="6" y="40" width="2" height="2" fill="#4aff6c" />
<rect x="10" y="40" width="2" height="2" fill="#4aff6c" />
<rect x="12" y="40" width="2" height="2" fill="#4aff6c" />
<rect x="16" y="40" width="2" height="2" fill="#4aff6c" />
<rect x="26" y="40" width="2" height="2" fill="#4aff6c" />
<rect x="32" y="40" width="2" height="2" fill="#4aff6c" />
<rect x="36" y="40" width="2" height="2" fill="#4aff6c" />
<rect x="80" y="40" width="2" height="2" fill="#4aff6c" />
<rect x="82" y="40" width="2" height="2" fill="#4aff6c" />
<rect x="84" y="40" width="2" height="2" fill="#4aff6c" />
<rect x="8" y="42" width="2" height="2" fill="#4aff6c" />
<rect x="16" y="42" width="2" height="2" fill="#4aff6c" />
<rect x="20" y="42" width="2" height="2" fill="#4aff6c" />
<rect x="22" y="42" width="2" height="2" fill="#4aff6c" />
<rect x="26" y="42" width="2" height="2" fill="#4aff6c" />
<rect x="32" y="42" width="2" height="2" fill="#4aff6c" />
<rect x="12" y="44" width="2" height="2" fill="#4aff6c" />
<rect x="16" y="44" width="2" height="2" fill="#4aff6c" />
<rect x="22" y="44" width="2" height="2" fill="#4aff6c" />
<rect x="26" y="44" width="2" height="2" fill="#4aff6c" />
<rect x="28" y="44" width="2" height="2" fill="#4aff6c" />
<rect x="32" y="44" width="2" height="2" fill="#4aff6c" />
<rect x="10" y="46" width="2" height="2" fill="#4aff6c" />
<rect x="12" y="46" width="2" height="2" fill="#4aff6c" />
<rect x="20" y="46" width="2" height="2" fill="#4aff6c" />
<rect x="32" y="46" width="2" height="2" fill="#4aff6c" />
<rect x="34" y="46" width="2" height="2" fill="#4aff6c" />
<rect x="8" y="48" width="2" height="2" fill="#4aff6c" />
<rect x="14" y="48" width="2" height="2" fill="#4aff6c" />
<rect x="16" y="48" width="2" height="2" fill="#4aff6c" />
<rect x="20" y="48" width="2" height="2" fill="#4aff6c" />
<rect x="24" y="48" width="2" height="2" fill="#4aff6c" />
<rect x="26" y="48" width="2" height="2" fill="#4aff6c" />
<rect x="28" y="48" width="2" height="2" fill="#4aff6c" />
<rect x="30" y="48" width="2" height="2" fill="#4aff6c" />
<rect x="36" y="48" width="2" height="2" fill="#4aff6c" />
<rect x="44" y="48" width="2" height="2" fill="#4aff6c" />
<rect x="46" y="48" width="2" height="2" fill="#4aff6c" />
<rect x="4" y="50" width="2" height="2" fill="#4aff6c" />
<rect x="10" y="50" width="2" height="2" fill="#4aff6c" />
<rect x="18" y="50" width="2" height="2" fill="#4aff6c" />
<rect x="22" y="50" width="2" height="2" fill="#4aff6c" />
<rect x="30" y="50" width="2" height="2" fill="#4aff6c" />
<rect x="34" y="50" width="2" height="2" fill="#4aff6c" />
<rect x="42" y="50" width="2" height="2" fill="#4aff6c" />
<rect x="46" y="50" width="2" height="2" fill="#4aff6c" />
<rect x="68" y="50" width="2" height="2" fill="#4aff6c" />
<rect x="4" y="52" width="2" height="2" fill="#4aff6c" />
<rect x="6" y="52" width="2" height="2" fill="#4aff6c" />
<rect x="10" y="52" width="2" height="2" fill="#4aff6c" />
<rect x="18" y="52" width="2" height="2" fill="#4aff6c" />
<rect x="24" y="52" width="2" height="2" fill="#4aff6c" />
<rect x="26" y="52" width="2" height="2" fill="#4aff6c" />
<rect x="30" y="52" width="2" height="2" fill="#4aff6c" />
<rect x="36" y="52" width="2" height="2" fill="#4aff6c" />
<rect x="38" y="52" width="2" height="2" fill="#4aff6c" />
<rect x="40" y="52" width="2" height="2" fill="#4aff6c" />
<rect x="42" y="52" width="2" height="2" fill="#4aff6c" />
<rect x="48" y="52" width="2" height="2" fill="#4aff6c" />
<rect x="50" y="52" width="2" height="2" fill="#4aff6c" />
<rect x="66" y="52" width="2" height="2" fill="#4aff6c" />
<rect x="6" y="54" width="2" height="2" fill="#4aff6c" />
<rect x="10" y="54" width="2" height="2" fill="#4aff6c" />
<rect x="14" y="54" width="2" height="2" fill="#4aff6c" />
<rect x="16" y="54" width="2" height="2" fill="#4aff6c" />
<rect x="20" y="54" width="2" height="2" fill="#4aff6c" />
<rect x="24" y="54" width="2" height="2" fill="#4aff6c" />
<rect x="28" y="54" width="2" height="2" fill="#4aff6c" />
<rect x="32" y="54" width="2" height="2" fill="#4aff6c" />
<rect x="36" y="54" width="2" height="2" fill="#4aff6c" />
<rect x="44" y="54" width="2" height="2" fill="#4aff6c" />
<rect x="46" y="54" width="2" height="2" fill="#4aff6c" />
<rect x="52" y="54" width="2" height="2" fill="#4aff6c" />
<rect x="66" y="54" width="2" height="2" fill="#4aff6c" />
<rect x="68" y="54" width="2" height="2" fill="#4aff6c" />
<rect x="70" y="54" width="2" height="2" fill="#4aff6c" />
<rect x="4" y="56" width="2" height="2" fill="#4aff6c" />
<rect x="10" y="56" width="2" height="2" fill="#4aff6c" />
<rect x="12" y="56" width="2" height="2" fill="#4aff6c" />
<rect x="14" y="56" width="2" height="2" fill="#4aff6c" />
<rect x="20" y="56" width="2" height="2" fill="#4aff6c" />
<rect x="32" y="56" width="2" height="2" fill="#4aff6c" />
<rect x="42" y="56" width="2" height="2" fill="#4aff6c" />
<rect x="48" y="56" width="2" height="2" fill="#4aff6c" />
<rect x="52" y="56" width="2" height="2" fill="#4aff6c" />
<rect x="4" y="58" width="2" height="2" fill="#4aff6c" />
<rect x="8" y="58" width="2" height="2" fill="#4aff6c" />
<rect x="16" y="58" width="2" height="2" fill="#4aff6c" />
<rect x="20" y="58" width="2" height="2" fill="#4aff6c" />
<rect x="22" y="58" width="2" height="2" fill="#4aff6c" />
<rect x="30" y="58" width="2" height="2" fill="#4aff6c" />
<rect x="32" y="58" width="2" height="2" fill="#4aff6c" />
<rect x="42" y="58" width="2" height="2" fill="#4aff6c" />
<rect x="46" y="58" width="2" height="2" fill="#4aff6c" />
<rect x="48" y="58" width="2" height="2" fill="#4aff6c" />
<rect x="52" y="58" width="2" height="2" fill="#4aff6c" />
<rect x="54" y="58" width="2" height="2" fill="#4aff6c" />
<rect x="74" y="58" width="2" height="2" fill="#4aff6c" />
<rect x="76" y="58" width="2" height="2" fill="#4aff6c" />
<rect x="6" y="60" width="2" height="2" fill="#4aff6c" />
<rect x="10" y="60" width="2" height="2" fill="#4aff6c" />
<rect x="12" y="60" width="2" height="2" fill="#4aff6c" />
<rect x="14" y="60" width="2" height="2" fill="#4aff6c" />
<rect x="16" y="60" width="2" height="2" fill="#4aff6c" />
<rect x="22" y="60" width="2" height="2" fill="#4aff6c" />
<rect x="28" y="60" width="2" height="2" fill="#4aff6c" />
<rect x="32" y="60" width="2" height="2" fill="#4aff6c" />
<rect x="42" y="60" width="2" height="2" fill="#4aff6c" />
<rect x="54" y="60" width="2" height="2" fill="#4aff6c" />
<rect x="66" y="60" width="2" height="2" fill="#4aff6c" />
<rect x="68" y="60" width="2" height="2" fill="#4aff6c" />
<rect x="74" y="60" width="2" height="2" fill="#4aff6c" />
<rect x="76" y="60" width="2" height="2" fill="#4aff6c" />
<rect x="10" y="62" width="2" height="2" fill="#4aff6c" />
<rect x="18" y="62" width="2" height="2" fill="#4aff6c" />
<rect x="32" y="62" width="2" height="2" fill="#4aff6c" />
<rect x="34" y="62" width="2" height="2" fill="#4aff6c" />
<rect x="42" y="62" width="2" height="2" fill="#4aff6c" />
<rect x="48" y="62" width="2" height="2" fill="#4aff6c" />
<rect x="50" y="62" width="2" height="2" fill="#4aff6c" />
<rect x="52" y="62" width="2" height="2" fill="#4aff6c" />
<rect x="54" y="62" width="2" height="2" fill="#4aff6c" />
<rect x="64" y="62" width="2" height="2" fill="#4aff6c" />
<rect x="68" y="62" width="2" height="2" fill="#4aff6c" />
<rect x="10" y="64" width="2" height="2" fill="#4aff6c" />
<rect x="14" y="64" width="2" height="2" fill="#4aff6c" />
<rect x="16" y="64" width="2" height="2" fill="#4aff6c" />
<rect x="22" y="64" width="2" height="2" fill="#4aff6c" />
<rect x="28" y="64" width="2" height="2" fill="#4aff6c" />
<rect x="32" y="64" width="2" height="2" fill="#4aff6c" />
<rect x="42" y="64" width="2" height="2" fill="#4aff6c" />
<rect x="54" y="64" width="2" height="2" fill="#4aff6c" />
<rect x="66" y="64" width="2" height="2" fill="#4aff6c" />
<rect x="12" y="66" width="2" height="2" fill="#4aff6c" />
<rect x="16" y="66" width="2" height="2" fill="#4aff6c" />
<rect x="20" y="66" width="2" height="2" fill="#4aff6c" />
<rect x="22" y="66" width="2" height="2" fill="#4aff6c" />
<rect x="30" y="66" width="2" height="2" fill="#4aff6c" />
<rect x="32" y="66" width="2" height="2" fill="#4aff6c" />
<rect x="42" y="66" width="2" height="2" fill="#4aff6c" />
<rect x="46" y="66" width="2" height="2" fill="#4aff6c" />
<rect x="48" y="66" width="2" height="2" fill="#4aff6c" />
<rect x="52" y="66" width="2" height="2" fill="#4aff6c" />
<rect x="54" y="66" width="2" height="2" fill="#4aff6c" />
<rect x="16" y="68" width="2" height="2" fill="#4aff6c" />
<rect x="20" y="68" width="2" height="2" fill="#4aff6c" />
<rect x="32" y="68" width="2" height="2" fill="#4aff6c" />
<rect x="42" y="68" width="2" height="2" fill="#4aff6c" />
<rect x="48" y="68" width="2" height="2" fill="#4aff6c" />
<rect x="52" y="68" width="2" height="2" fill="#4aff6c" />
<rect x="70" y="68" width="2" height="2" fill="#4aff6c" />
<rect x="72" y="68" width="2" height="2" fill="#4aff6c" />
<rect x="16" y="70" width="2" height="2" fill="#4aff6c" />
<rect x="20" y="70" width="2" height="2" fill="#4aff6c" />
<rect x="28" y="70" width="2" height="2" fill="#4aff6c" />
<rect x="32" y="70" width="2" height="2" fill="#4aff6c" />
<rect x="36" y="70" width="2" height="2" fill="#4aff6c" />
<rect x="44" y="70" width="2" height="2" fill="#4aff6c" />
<rect x="46" y="70" width="2" height="2" fill="#4aff6c" />
<rect x="52" y="70" width="2" height="2" fill="#4aff6c" />
<rect x="70" y="70" width="2" height="2" fill="#4aff6c" />
<rect x="18" y="72" width="2" height="2" fill="#4aff6c" />
<rect x="26" y="72" width="2" height="2" fill="#4aff6c" />
<rect x="30" y="72" width="2" height="2" fill="#4aff6c" />
<rect x="36" y="72" width="2" height="2" fill="#4aff6c" />
<rect x="38" y="72" width="2" height="2" fill="#4aff6c" />
<rect x="40" y="72" width="2" height="2" fill="#4aff6c" />
<rect x="42" y="72" width="2" height="2" fill="#4aff6c" />
<rect x="48" y="72" width="2" height="2" fill="#4aff6c" />
<rect x="50" y="72" width="2" height="2" fill="#4aff6c" />
<rect x="72" y="72" width="2" height="2" fill="#4aff6c" />
<rect x="74" y="72" width="2" height="2" fill="#4aff6c" />
<rect x="76" y="72" width="2" height="2" fill="#4aff6c" />
<rect x="26" y="74" width="2" height="2" fill="#4aff6c" />
<rect x="30" y="74" width="2" height="2" fill="#4aff6c" />
<rect x="34" y="74" width="2" height="2" fill="#4aff6c" />
<rect x="42" y="74" width="2" height="2" fill="#4aff6c" />
<rect x="46" y="74" width="2" height="2" fill="#4aff6c" />
<rect x="76" y="74" width="2" height="2" fill="#4aff6c" />
<rect x="28" y="76" width="2" height="2" fill="#4aff6c" />
<rect x="30" y="76" width="2" height="2" fill="#4aff6c" />
<rect x="34" y="76" width="2" height="2" fill="#4aff6c" />
<rect x="36" y="76" width="2" height="2" fill="#4aff6c" />
<rect x="44" y="76" width="2" height="2" fill="#4aff6c" />
<rect x="46" y="76" width="2" height="2" fill="#4aff6c" />
</svg>