<?xml version="1.0" encoding="utf-8"?>
<svg xmlns="http://www.w3.org/2000/svg" width="119" height="77" viewBox="0 0 119 77">
<rect width="100%" height="100%" fill="transparent" />
<rect x="94" y="4" width="3" height="3" fill="#4aff6c" />
<rect x="91" y="7" width="3" height="3" fill="#4aff6c" />
<rect x="94" y="7" width="3" height="3" fill="#4aff6c" />
<rect x="88" y="10" width="3" height="3" fill="#4aff6c" />
<rect x="94" y="10" width="3" height="3" fill="#4aff6c" />
<rect x="97" y="10" width="3" height="3" fill="#4aff6c" />
<rect x="7" y="13" width="3" height="3" fill="#4aff6c" />
<rect x="10" y="13" width="3" height="3" fill="#4aff6c" />
<rect x="13" y="13" width="3" height="3" fill="#4aff6c" />
<rect x="16" y="13" width="3" height="3" fill="#4aff6c" />
<rect x="85" y="13" width="3" height="3" fill="#4aff6c" />
<rect x="88" y="13" width="3" height="3" fill="#4aff6c" />
<rect x="91" y="13" width="3" height="3" fill="#4aff6c" />
<rect x="100" y="13" width="3" height="3" fill="#4aff6c" />
<rect x="4" y="16" width="3" height="3" fill="#4aff6c" />
<rect x="19" y="16" width="3" height="3" fill="#4aff6c" />
<rect x="91" y="16" width="3" height="3" fill="#4aff6c" />
<rect x="97" y="16" width="3" height="3" fill="#4aff6c" />
<rect x="103" y="16" width="3" height="3" fill="#4aff6c" />
<rect x="4" y="19" width="3" height="3" fill="#4aff6c" />
<rect x="16" y="19" width="3" height="3" fill="#4aff6c" />
<rect x="22" y="19" width="3" height="3" fill="#4aff6c" />
<rect x="94" y="19" width="3" height="3" fill="#4aff6c" />
<rect x="100" y="19" width="3" height="3" fill="#4aff6c" />
<rect x="106" y="19" width="3" height="3" fill="#4aff6c" />
<rect x="7" y="22" width="3" height="3" fill="#4aff6c" />
<rect x="19" y="22" width="3" height="3" fill="#4aff6c" />
<rect x="25" y="22" width="3" height="3" fill="#4aff6c" />
<rect x="46" y="22" width="3" height="3" fill="#4aff6c" />
<rect x="49" y="22" width="3" height="3" fill="#4aff6c" />
<rect x="97" y="22" width="3" height="3" fill="#4aff6c" />
<rect x="106" y="22" width="3" height="3" fill="#4aff6c" />
<rect x="109" y="22" width="3" height="3" fill="#4aff6c" />
<rect x="112" y="22" width="3" height="3" fill="#4aff6c" />
<rect x="25" y="25" width="3" height="3" fill="#4aff6c" />
<rect x="43" y="25" width="3" height="3" fill="#4aff6c" />
<rect x="49" y="25" width="3" height="3" fill="#4aff6c" />
<rect x="100" y="25" width="3" height="3" fill="#4aff6c" />
<rect x="103" y="25" width="3" height="3" fill="#4aff6c" />
<rect x="109" y="25" width="3" height="3" fill="#4aff6c" />
<rect x="25" y="28" width="3" height="3" fill="#4aff6c" />
<rect x="43" y="28" width="3" height="3" fill="#4aff6c" />
<rect x="103" y="28" width="3" height="3" fill="#4aff6c" />
<rect x="106" y="28" width="3" height="3" fill="#4aff6c" />
<rect x="16" y="31" width="3" height="3" fill="#4aff6c" />
<rect x="25" y="31" width="3" height="3" fill="#4aff6c" />
<rect x="43" y="31" width="3" height="3" fill="#4aff6c" />
<rect x="46" y="31" width="3" height="3" fill="#4aff6c" />
<rect x="49" y="31" width="3" height="3" fill="#4aff6c" />
<rect x="103" y="31" width="3" height="3" fill="#4aff6c" />
<rect x="19" y="34" width="3" height="3" fill="#4aff6c" />
<rect x="22" y="34" width="3" height="3" fill="#4aff6c" />
<rect x="19" y="40" width="3" height="3" fill="#4aff6c" />
<rect x="22" y="40" width="3" height="3" fill="#4aff6c" />
<rect x="16" y="43" width="3" height="3" fill="#4aff6c" />
<rect x="25" y="43" width="3" height="3" fill="#4aff6c" />
<rect x="43" y="43" width="3" height="3" fill="#4aff6c" />
<rect x="46" y="43" width="3" height="3" fill="#4aff6c" />
<rect x="49" y="43" width="3" height="3" fill="#4aff6c" />
<rect x="103" y="43" width="3" height="3" fill="#4aff6c" />
<rect x="25" y="46" width="3" height="3" fill="#4aff6c" />
<rect x="43" y="46" width="3" height="3" fill="#4aff6c" />
<rect x="103" y="46" width="3" height="3" fill="#4aff6c" />
<rect x="106" y="46" width="3" height="3" fill="#4aff6c" />
<rect x="25" y="49" width="3" height="3" fill="#4aff6c" />
<rect x="43" y="49" width="3" height="3" fill="#4aff6c" />
<rect x="49" y="49" width="3" height="3" fill="#4aff6c" />
<rect x="100" y="49" width="3" height="3" fill="#4aff6c" />
<rect x="103" y="49" width="3" height="3" fill="#4aff6c" />
<rect x="109" y="49" width="3" height="3" fill="#4aff6c" />
<rect x="7" y="52" width="3" height="3" fill="#4aff6c" />
<rect x="19" y="52" width="3" height="3" fill="#4aff6c" />
<rect x="25" y="52" width="3" height="3" fill="#4aff6c" />
<rect x="46" y="52" width="3" height="3" fill="#4aff6c" />
<rect x="49" y="52" width="3" height="3" fill="#4aff6c" />
<rect x="97" y="52" width="3" height="3" fill="#4aff6c" />
<rect x="106" y="52" width="3" height="3" fill="#4aff6c" />
<rect x="109" y="52" width="3" height="3" fill="#4aff6c" />
<rect x="112" y="52" width="3" height="3" fill="#4aff6c" />
<rect x="4" y="55" width="3" height="3" fill="#4aff6c" />
<rect x="16" y="55" width="3" height="3" fill="#4aff6c" />
<rect x="22" y="55" width="3" height="3" fill="#4aff6c" />
<rect x="94" y="55" width="3" height="3" fill="#4aff6c" />
<rect x="100" y="55" width="3" height="3" fill="#4aff6c" />
<rect x="106" y="55" width="3" height="3" fill="#4aff6c" />
<rect x="4" y="58" width="3" height="3" fill="#4aff6c" />
<rect x="19" y="58" width="3" height="3" fill="#4aff6c" />
<rect x="91" y="58" width="3" height="3" fill="#4aff6c" />
<rect x="97" y="58" width="3" height="3" fill="#4aff6c" />
<rect x="103" y="58" width="3" height="3" fill="#4aff6c" />
<rect x="7" y="61" width="3" height="3" fill="#4aff6c" />
<rect x="10" y="61" width="3" height="3" fill="#4aff6c" />
<rect x="13" y="61" width="3" height="3" fill="#4aff6c" />
<rect x="16" y="61" width="3" height="3" fill="#4aff6c" />
<rect x="85" y="61" width="3" height="3" fill="#4aff6c" />
<rect x="88" y="61" width="3" height="3" fill="#4aff6c" />
<rect x="91" y="61" width="3" height="3" fill="#4aff6c" />
<rect x="100" y="61" width="3" height="3" fill="#4aff6c" />
<rect x="88" y="64" width="3" height="3" fill="#4aff6c" />
<rect x="94" y="64" width="3" height="3" fill="#4aff6c" />
<rect x="97" y="64" width="3" height="3" fill="#4aff6c" />
<rect x="91" y="67" width="3" height="3" fill="#4aff6c" />
<rect x="94" y="67" width="3" height="3" fill="#4aff6c" />
<rect x="94" y="70" width="3" height="3" fill="#4aff6c" />
</svg>