<?xml version="1.0" encoding="utf-8"?>
<svg xmlns="http://www.w3.org/2000/svg" width="128" height="88" viewBox="0 0 128 88">
<rect width="100%" height="100%" fill="transparent" />
<rect x="28" y="4" width="8" height="8" fill="#4aff6c" />
<rect x="36" y="4" width="8" height="8" fill="#4aff6c" />
<rect x="84" y="4" width="8" height="8" fill="#4aff6c" />
<rect x="92" y="4" width="8" height="8" fill="#4aff6c" />
<rect x="28" y="12" width="8" height="8" fill="#4aff6c" />
<rect x="92" y="12" width="8" height="8" fill="#4aff6c" />
<rect x="4" y="20" width="8" height="8" fill="#4aff6c" />
<rect x="12" y="20" width="8" height="8" fill="#4aff6c" />
<rect x="28" y="20" width="8" height="8" fill="#4aff6c" />
<rect x="92" y="20" width="8" height="8" fill="#4aff6c" />
<rect x="108" y="20" width="8" height="8" fill="#4aff6c" />
<rect x="116" y="20" width="8" height="8" fill="#4aff6c" />
<rect x="4" y="28" width="8" height="8" fill="#4aff6c" />
<rect x="12" y="28" width="8" height="8" fill="#4aff6c" />
<rect x="28" y="28" width="8" height="8" fill="#4aff6c" />
<rect x="44" y="28" width="8" height="8" fill="#4aff6c" />
<rect x="52" y="28" width="8" height="8" fill="#4aff6c" />
<rect x="60" y="28" width="8" height="8" fill="#4aff6c" />
<rect x="68" y="28" width="8" height="8" fill="#4aff6c" />
<rect x="76" y="28" width="8" height="8" fill="#4aff6c" />
<rect x="92" y="28" width="8" height="8" fill="#4aff6c" />
<rect x="108" y="28" width="8" height="8" fill="#4aff6c" />
<rect x="116" y="28" width="8" height="8" fill="#4aff6c" />
<rect x="36" y="36" width="8" height="8" fill="#4aff6c" />
<rect x="60" y="36" width="8" height="8" fill="#4aff6c" />
<rect x="84" y="36" width="8" height="8" fill="#4aff6c" />
<rect x="44" y="44" width="8" height="8" fill="#4aff6c" />
<rect x="52" y="44" width="8" height="8" fill="#4aff6c" />
<rect x="60" y="44" width="8" height="8" fill="#4aff6c" />
<rect x="68" y="44" width="8" height="8" fill="#4aff6c" />
<rect x="76" y="44" width="8" height="8" fill="#4aff6c" />
<rect x="60" y="60" width="8" height="8" fill="#4aff6c" />
<rect x="52" y="68" width="8" height="8" fill="#4aff6c" />
<rect x="68" y="68" width="8" height="8" fill="#4aff6c" />
<rect x="60" y="76" width="8" height="8" fill="#4aff6c" />
</svg>