<?xml version="1.0" encoding="utf-8"?>
<svg xmlns="http://www.w3.org/2000/svg" width="126" height="76" viewBox="0 0 126 76">
<rect width="100%" height="100%" fill="transparent" />
<rect x="6" y="4" width="2" height="2" fill="#4aff6c" />
<rect x="8" y="4" width="2" height="2" fill="#4aff6c" />
<rect x="8" y="6" width="2" height="2" fill="#4aff6c" />
<rect x="6" y="8" width="2" height="2" fill="#4aff6c" />
<rect x="6" y="10" width="2" height="2" fill="#4aff6c" />
<rect x="8" y="10" width="2" height="2" fill="#4aff6c" />
<rect x="104" y="10" width="2" height="2" fill="#4aff6c" />
<rect x="106" y="10" width="2" height="2" fill="#4aff6c" />
<rect x="106" y="12" width="2" height="2" fill="#4aff6c" />
<rect x="104" y="14" width="2" height="2" fill="#4aff6c" />
<rect x="104" y="16" width="2" height="2" fill="#4aff6c" />
<rect x="106" y="16" width="2" height="2" fill="#4aff6c" />
<rect x="72" y="18" width="2" height="2" fill="#4aff6c" />
<rect x="72" y="20" width="2" height="2" fill="#4aff6c" />
<rect x="76" y="20" width="2" height="2" fill="#4aff6c" />
<rect x="4" y="22" width="2" height="2" fill="#4aff6c" />
<rect x="12" y="22" width="2" height="2" fill="#4aff6c" />
<rect x="14" y="22" width="2" height="2" fill="#4aff6c" />
<rect x="72" y="22" width="2" height="2" fill="#4aff6c" />
<rect x="74" y="22" width="2" height="2" fill="#4aff6c" />
<rect x="4" y="24" width="2" height="2" fill="#4aff6c" />
<rect x="6" y="24" width="2" height="2" fill="#4aff6c" />
<rect x="12" y="24" width="2" height="2" fill="#4aff6c" />
<rect x="14" y="24" width="2" height="2" fill="#4aff6c" />
<rect x="6" y="26" width="2" height="2" fill="#4aff6c" />
<rect x="8" y="26" width="2" height="2" fill="#4aff6c" />
<rect x="54" y="26" width="2" height="2" fill="#4aff6c" />
<rect x="56" y="26" width="2" height="2" fill="#4aff6c" />
<rect x="4" y="28" width="2" height="2" fill="#4aff6c" />
<rect x="6" y="28" width="2" height="2" fill="#4aff6c" />
<rect x="54" y="28" width="2" height="2" fill="#4aff6c" />
<rect x="56" y="28" width="2" height="2" fill="#4aff6c" />
<rect x="110" y="28" width="2" height="2" fill="#4aff6c" />
<rect x="112" y="28" width="2" height="2" fill="#4aff6c" />
<rect x="110" y="30" width="2" height="2" fill="#4aff6c" />
<rect x="112" y="30" width="2" height="2" fill="#4aff6c" />
<rect x="30" y="40" width="2" height="2" fill="#4aff6c" />
<rect x="32" y="40" width="2" height="2" fill="#4aff6c" />
<rect x="28" y="42" width="2" height="2" fill="#4aff6c" />
<rect x="32" y="42" width="2" height="2" fill="#4aff6c" />
<rect x="50" y="42" width="2" height="2" fill="#4aff6c" />
<rect x="52" y="42" width="2" height="2" fill="#4aff6c" />
<rect x="32" y="44" width="2" height="2" fill="#4aff6c" />
<rect x="48" y="44" width="2" height="2" fill="#4aff6c" />
<rect x="52" y="44" width="2" height="2" fill="#4aff6c" />
<rect x="48" y="46" width="2" height="2" fill="#4aff6c" />
<rect x="46" y="48" width="2" height="2" fill="#4aff6c" />
<rect x="48" y="48" width="2" height="2" fill="#4aff6c" />
<rect x="100" y="48" width="2" height="2" fill="#4aff6c" />
<rect x="102" y="48" width="2" height="2" fill="#4aff6c" />
<rect x="100" y="50" width="2" height="2" fill="#4aff6c" />
<rect x="102" y="50" width="2" height="2" fill="#4aff6c" />
<rect x="72" y="56" width="2" height="2" fill="#4aff6c" />
<rect x="74" y="56" width="2" height="2" fill="#4aff6c" />
<rect x="118" y="56" width="2" height="2" fill="#4aff6c" />
<rect x="120" y="56" width="2" height="2" fill="#4aff6c" />
<rect x="74" y="58" width="2" height="2" fill="#4aff6c" />
<rect x="120" y="58" width="2" height="2" fill="#4aff6c" />
<rect x="68" y="60" width="2" height="2" fill="#4aff6c" />
<rect x="70" y="60" width="2" height="2" fill="#4aff6c" />
<rect x="72" y="60" width="2" height="2" fill="#4aff6c" />
<rect x="114" y="60" width="2" height="2" fill="#4aff6c" />
<rect x="116" y="60" width="2" height="2" fill="#4aff6c" />
<rect x="118" y="60" width="2" height="2" fill="#4aff6c" />
<rect x="68" y="62" width="2" height="2" fill="#4aff6c" />
<rect x="114" y="62" width="2" height="2" fill="#4aff6c" />
<rect x="92" y="64" width="2" height="2" fill="#4aff6c" />
<rect x="94" y="64" width="2" height="2" fill="#4aff6c" />
<rect x="92" y="66" width="2" height="2" fill="#4aff6c" />
<rect x="94" y="68" width="2" height="2" fill="#4aff6c" />
<rect x="96" y="68" width="2" height="2" fill="#4aff6c" />
<rect x="98" y="68" width="2" height="2" fill="#4aff6c" />
<rect x="98" y="70" width="2" height="2" fill="#4aff6c" />
</svg>