<?xml version="1.0" encoding="utf-8"?>
<svg xmlns="http://www.w3.org/2000/svg" width="108" height="124" viewBox="0 0 108 124">
<rect width="100%" height="100%" fill="transparent" />
<rect x="4" y="4" width="2" height="2" fill="#4aff6c" />
<rect x="24" y="4" width="2" height="2" fill="#4aff6c" />
<rect x="26" y="4" width="2" height="2" fill="#4aff6c" />
<rect x="4" y="6" width="2" height="2" fill="#4aff6c" />
<rect x="6" y="6" width="2" height="2" fill="#4aff6c" />
<rect x="8" y="6" width="2" height="2" fill="#4aff6c" />
<rect x="18" y="6" width="2" height="2" fill="#4aff6c" />
<rect x="20" y="6" width="2" height="2" fill="#4aff6c" />
<rect x="26" y="6" width="2" height="2" fill="#4aff6c" />
<rect x="10" y="8" width="2" height="2" fill="#4aff6c" />
<rect x="16" y="8" width="2" height="2" fill="#4aff6c" />
<rect x="22" y="8" width="2" height="2" fill="#4aff6c" />
<rect x="24" y="8" width="2" height="2" fill="#4aff6c" />
<rect x="8" y="10" width="2" height="2" fill="#4aff6c" />
<rect x="10" y="10" width="2" height="2" fill="#4aff6c" />
<rect x="18" y="10" width="2" height="2" fill="#4aff6c" />
<rect x="20" y="10" width="2" height="2" fill="#4aff6c" />
<rect x="26" y="10" width="2" height="2" fill="#4aff6c" />
<rect x="28" y="10" width="2" height="2" fill="#4aff6c" />
<rect x="30" y="10" width="2" height="2" fill="#4aff6c" />
<rect x="22" y="12" width="2" height="2" fill="#4aff6c" />
<rect x="26" y="12" width="2" height="2" fill="#4aff6c" />
<rect x="32" y="12" width="2" height="2" fill="#4aff6c" />
<rect x="22" y="14" width="2" height="2" fill="#4aff6c" />
<rect x="30" y="14" width="2" height="2" fill="#4aff6c" />
<rect x="32" y="14" width="2" height="2" fill="#4aff6c" />
<rect x="24" y="16" width="2" height="2" fill="#4aff6c" />
<rect x="22" y="18" width="2" height="2" fill="#4aff6c" />
<rect x="24" y="18" width="2" height="2" fill="#4aff6c" />
<rect x="10" y="28" width="2" height="2" fill="#4aff6c" />
<rect x="12" y="28" width="2" height="2" fill="#4aff6c" />
<rect x="14" y="28" width="2" height="2" fill="#4aff6c" />
<rect x="14" y="30" width="2" height="2" fill="#4aff6c" />
<rect x="10" y="32" width="2" height="2" fill="#4aff6c" />
<rect x="12" y="32" width="2" height="2" fill="#4aff6c" />
<rect x="14" y="32" width="2" height="2" fill="#4aff6c" />
<rect x="8" y="50" width="2" height="2" fill="#4aff6c" />
<rect x="10" y="50" width="2" height="2" fill="#4aff6c" />
<rect x="10" y="52" width="2" height="2" fill="#4aff6c" />
<rect x="4" y="54" width="2" height="2" fill="#4aff6c" />
<rect x="6" y="54" width="2" height="2" fill="#4aff6c" />
<rect x="8" y="54" width="2" height="2" fill="#4aff6c" />
<rect x="4" y="56" width="2" height="2" fill="#4aff6c" />
<rect x="54" y="58" width="2" height="2" fill="#4aff6c" />
<rect x="48" y="60" width="2" height="2" fill="#4aff6c" />
<rect x="50" y="60" width="2" height="2" fill="#4aff6c" />
<rect x="52" y="60" width="2" height="2" fill="#4aff6c" />
<rect x="60" y="60" width="2" height="2" fill="#4aff6c" />
<rect x="62" y="60" width="2" height="2" fill="#4aff6c" />
<rect x="32" y="62" width="2" height="2" fill="#4aff6c" />
<rect x="34" y="62" width="2" height="2" fill="#4aff6c" />
<rect x="54" y="62" width="2" height="2" fill="#4aff6c" />
<rect x="60" y="62" width="2" height="2" fill="#4aff6c" />
<rect x="66" y="62" width="2" height="2" fill="#4aff6c" />
<rect x="68" y="62" width="2" height="2" fill="#4aff6c" />
<rect x="32" y="64" width="2" height="2" fill="#4aff6c" />
<rect x="34" y="64" width="2" height="2" fill="#4aff6c" />
<rect x="52" y="64" width="2" height="2" fill="#4aff6c" />
<rect x="54" y="64" width="2" height="2" fill="#4aff6c" />
<rect x="62" y="64" width="2" height="2" fill="#4aff6c" />
<rect x="64" y="64" width="2" height="2" fill="#4aff6c" />
<rect x="70" y="64" width="2" height="2" fill="#4aff6c" />
<rect x="66" y="66" width="2" height="2" fill="#4aff6c" />
<rect x="70" y="66" width="2" height="2" fill="#4aff6c" />
<rect x="72" y="66" width="2" height="2" fill="#4aff6c" />
<rect x="74" y="66" width="2" height="2" fill="#4aff6c" />
<rect x="66" y="68" width="2" height="2" fill="#4aff6c" />
<rect x="76" y="68" width="2" height="2" fill="#4aff6c" />
<rect x="80" y="68" width="2" height="2" fill="#4aff6c" />
<rect x="82" y="68" width="2" height="2" fill="#4aff6c" />
<rect x="68" y="70" width="2" height="2" fill="#4aff6c" />
<rect x="72" y="70" width="2" height="2" fill="#4aff6c" />
<rect x="76" y="70" width="2" height="2" fill="#4aff6c" />
<rect x="80" y="70" width="2" height="2" fill="#4aff6c" />
<rect x="84" y="70" width="2" height="2" fill="#4aff6c" />
<rect x="66" y="72" width="2" height="2" fill="#4aff6c" />
<rect x="68" y="72" width="2" height="2" fill="#4aff6c" />
<rect x="72" y="72" width="2" height="2" fill="#4aff6c" />
<rect x="74" y="72" width="2" height="2" fill="#4aff6c" />
<rect x="82" y="72" width="2" height="2" fill="#4aff6c" />
<rect x="4" y="74" width="2" height="2" fill="#4aff6c" />
<rect x="6" y="74" width="2" height="2" fill="#4aff6c" />
<rect x="6" y="76" width="2" height="2" fill="#4aff6c" />
<rect x="78" y="76" width="2" height="2" fill="#4aff6c" />
<rect x="80" y="76" width="2" height="2" fill="#4aff6c" />
<rect x="82" y="76" width="2" height="2" fill="#4aff6c" />
<rect x="84" y="76" width="2" height="2" fill="#4aff6c" />
<rect x="86" y="76" width="2" height="2" fill="#4aff6c" />
<rect x="6" y="78" width="2" height="2" fill="#4aff6c" />
<rect x="10" y="78" width="2" height="2" fill="#4aff6c" />
<rect x="78" y="78" width="2" height="2" fill="#4aff6c" />
<rect x="86" y="78" width="2" height="2" fill="#4aff6c" />
<rect x="8" y="80" width="2" height="2" fill="#4aff6c" />
<rect x="10" y="80" width="2" height="2" fill="#4aff6c" />
<rect x="82" y="80" width="2" height="2" fill="#4aff6c" />
<rect x="54" y="82" width="2" height="2" fill="#4aff6c" />
<rect x="56" y="82" width="2" height="2" fill="#4aff6c" />
<rect x="58" y="82" width="2" height="2" fill="#4aff6c" />
<rect x="80" y="82" width="2" height="2" fill="#4aff6c" />
<rect x="82" y="82" width="2" height="2" fill="#4aff6c" />
<rect x="84" y="82" width="2" height="2" fill="#4aff6c" />
<rect x="58" y="84" width="2" height="2" fill="#4aff6c" />
<rect x="86" y="84" width="2" height="2" fill="#4aff6c" />
<rect x="54" y="86" width="2" height="2" fill="#4aff6c" />
<rect x="56" y="86" width="2" height="2" fill="#4aff6c" />
<rect x="58" y="86" width="2" height="2" fill="#4aff6c" />
<rect x="84" y="86" width="2" height="2" fill="#4aff6c" />
<rect x="86" y="86" width="2" height="2" fill="#4aff6c" />
<rect x="8" y="94" width="2" height="2" fill="#4aff6c" />
<rect x="8" y="96" width="2" height="2" fill="#4aff6c" />
<rect x="12" y="96" width="2" height="2" fill="#4aff6c" />
<rect x="76" y="96" width="2" height="2" fill="#4aff6c" />
<rect x="78" y="96" width="2" height="2" fill="#4aff6c" />
<rect x="102" y="96" width="2" height="2" fill="#4aff6c" />
<rect x="8" y="98" width="2" height="2" fill="#4aff6c" />
<rect x="10" y="98" width="2" height="2" fill="#4aff6c" />
<rect x="12" y="98" width="2" height="2" fill="#4aff6c" />
<rect x="76" y="98" width="2" height="2" fill="#4aff6c" />
<rect x="78" y="98" width="2" height="2" fill="#4aff6c" />
<rect x="98" y="98" width="2" height="2" fill="#4aff6c" />
<rect x="100" y="98" width="2" height="2" fill="#4aff6c" />
<rect x="102" y="98" width="2" height="2" fill="#4aff6c" />
<rect x="12" y="100" width="2" height="2" fill="#4aff6c" />
<rect x="98" y="100" width="2" height="2" fill="#4aff6c" />
<rect x="98" y="102" width="2" height="2" fill="#4aff6c" />
<rect x="32" y="104" width="2" height="2" fill="#4aff6c" />
<rect x="34" y="104" width="2" height="2" fill="#4aff6c" />
<rect x="52" y="104" width="2" height="2" fill="#4aff6c" />
<rect x="54" y="104" width="2" height="2" fill="#4aff6c" />
<rect x="32" y="106" width="2" height="2" fill="#4aff6c" />
<rect x="34" y="106" width="2" height="2" fill="#4aff6c" />
<rect x="40" y="106" width="2" height="2" fill="#4aff6c" />
<rect x="42" y="106" width="2" height="2" fill="#4aff6c" />
<rect x="54" y="106" width="2" height="2" fill="#4aff6c" />
<rect x="40" y="108" width="2" height="2" fill="#4aff6c" />
<rect x="44" y="108" width="2" height="2" fill="#4aff6c" />
<rect x="48" y="108" width="2" height="2" fill="#4aff6c" />
<rect x="50" y="108" width="2" height="2" fill="#4aff6c" />
<rect x="52" y="108" width="2" height="2" fill="#4aff6c" />
<rect x="44" y="110" width="2" height="2" fill="#4aff6c" />
<rect x="48" y="110" width="2" height="2" fill="#4aff6c" />
<rect x="44" y="112" width="2" height="2" fill="#4aff6c" />
<rect x="46" y="112" width="2" height="2" fill="#4aff6c" />
<rect x="56" y="112" width="2" height="2" fill="#4aff6c" />
<rect x="58" y="112" width="2" height="2" fill="#4aff6c" />
<rect x="54" y="114" width="2" height="2" fill="#4aff6c" />
<rect x="58" y="114" width="2" height="2" fill="#4aff6c" />
<rect x="68" y="114" width="2" height="2" fill="#4aff6c" />
<rect x="70" y="114" width="2" height="2" fill="#4aff6c" />
<rect x="54" y="116" width="2" height="2" fill="#4aff6c" />
<rect x="68" y="116" width="2" height="2" fill="#4aff6c" />
<rect x="70" y="116" width="2" height="2" fill="#4aff6c" />
<rect x="52" y="118" width="2" height="2" fill="#4aff6c" />
<rect x="54" y="118" width="2" height="2" fill="#4aff6c" />
</svg>