<?xml version="1.0" encoding="utf-8"?>
<svg xmlns="http://www.w3.org/2000/svg" width="122" height="14" viewBox="0 0 122 14">
<rect width="100%" height="100%" fill="transparent" />
<rect x="4" y="4" width="2" height="2" fill="#4aff6c" />
<rect x="6" y="4" width="2" height="2" fill="#4aff6c" />
<rect x="8" y="4" width="2" height="2" fill="#4aff6c" />
<rect x="40" y="4" width="2" height="2" fill="#4aff6c" />
<rect x="42" y="4" width="2" height="2" fill="#4aff6c" />
<rect x="44" y="4" width="2" height="2" fill="#4aff6c" />
<rect x="76" y="4" width="2" height="2" fill="#4aff6c" />
<rect x="78" y="4" width="2" height="2" fill="#4aff6c" />
<rect x="80" y="4" width="2" height="2" fill="#4aff6c" />
<rect x="112" y="4" width="2" height="2" fill="#4aff6c" />
<rect x="114" y="4" width="2" height="2" fill="#4aff6c" />
<rect x="116" y="4" width="2" height="2" fill="#4aff6c" />
<rect x="4" y="6" width="2" height="2" fill="#4aff6c" />
<rect x="8" y="6" width="2" height="2" fill="#4aff6c" />
<rect x="40" y="6" width="2" height="2" fill="#4aff6c" />
<rect x="44" y="6" width="2" height="2" fill="#4aff6c" />
<rect x="76" y="6" width="2" height="2" fill="#4aff6c" />
<rect x="80" y="6" width="2" height="2" fill="#4aff6c" />
<rect x="112" y="6" width="2" height="2" fill="#4aff6c" />
<rect x="116" y="6" width="2" height="2" fill="#4aff6c" />
<rect x="4" y="8" width="2" height="2" fill="#4aff6c" />
<rect x="8" y="8" width="2" height="2" fill="#4aff6c" />
<rect x="40" y="8" width="2" height="2" fill="#4aff6c" />
<rect x="44" y="8" width="2" height="2" fill="#4aff6c" />
<rect x="76" y="8" width="2" height="2" fill="#4aff6c" />
<rect x="80" y="8" width="2" height="2" fill="#4aff6c" />
<rect x="112" y="8" width="2" height="2" fill="#4aff6c" />
<rect x="116" y="8" width="2" height="2" fill="#4aff6c" />
</svg>