<?xml version="1.0" encoding="utf-8"?>
<svg xmlns="http://www.w3.org/2000/svg" width="128" height="128" viewBox="0 0 128 128">
<rect width="100%" height="100%" fill="transparent" />
<rect x="64" y="4" width="10" height="10" fill="#4aff6c" />
<rect x="74" y="4" width="10" height="10" fill="#4aff6c" />
<rect x="64" y="14" width="10" height="10" fill="#4aff6c" />
<rect x="74" y="14" width="10" height="10" fill="#4aff6c" />
<rect x="44" y="34" width="10" height="10" fill="#4aff6c" />
<rect x="54" y="34" width="10" height="10" fill="#4aff6c" />
<rect x="64" y="34" width="10" height="10" fill="#4aff6c" />
<rect x="74" y="34" width="10" height="10" fill="#4aff6c" />
<rect x="4" y="44" width="10" height="10" fill="#4aff6c" />
<rect x="14" y="44" width="10" height="10" fill="#4aff6c" />
<rect x="34" y="44" width="10" height="10" fill="#4aff6c" />
<rect x="84" y="44" width="10" height="10" fill="#4aff6c" />
<rect x="4" y="54" width="10" height="10" fill="#4aff6c" />
<rect x="14" y="54" width="10" height="10" fill="#4aff6c" />
<rect x="34" y="54" width="10" height="10" fill="#4aff6c" />
<rect x="64" y="54" width="10" height="10" fill="#4aff6c" />
<rect x="84" y="54" width="10" height="10" fill="#4aff6c" />
<rect x="34" y="64" width="10" height="10" fill="#4aff6c" />
<rect x="74" y="64" width="10" height="10" fill="#4aff6c" />
<rect x="84" y="64" width="10" height="10" fill="#4aff6c" />
<rect x="104" y="64" width="10" height="10" fill="#4aff6c" />
<rect x="114" y="64" width="10" height="10" fill="#4aff6c" />
<rect x="34" y="74" width="10" height="10" fill="#4aff6c" />
<rect x="54" y="74" width="10" height="10" fill="#4aff6c" />
<rect x="84" y="74" width="10" height="10" fill="#4aff6c" />
<rect x="104" y="74" width="10" height="10" fill="#4aff6c" />
<rect x="114" y="74" width="10" height="10" fill="#4aff6c" />
<rect x="44" y="84" width="10" height="10" fill="#4aff6c" />
<rect x="54" y="84" width="10" height="10" fill="#4aff6c" />
<rect x="64" y="84" width="10" height="10" fill="#4aff6c" />
<rect x="74" y="84" width="10" height="10" fill="#4aff6c" />
<rect x="44" y="104" width="10" height="10" fill="#4aff6c" />
<rect x="54" y="104" width="10" height="10" fill="#4aff6c" />
<rect x="44" y="114" width="10" height="10" fill="#4aff6c" />
<rect x="54" y="114" width="10" height="10" fill="#4aff6c" />
</svg>