<?xml version="1.0" encoding="utf-8"?>
<svg xmlns="http://www.w3.org/2000/svg" width="108" height="116" viewBox="0 0 108 116">
<rect width="100%" height="100%" fill="transparent" />
<rect x="96" y="4" width="4" height="4" fill="#4aff6c" />
<rect x="92" y="8" width="4" height="4" fill="#4aff6c" />
<rect x="92" y="12" width="4" height="4" fill="#4aff6c" />
<rect x="96" y="12" width="4" height="4" fill="#4aff6c" />
<rect x="100" y="12" width="4" height="4" fill="#4aff6c" />
<rect x="56" y="20" width="4" height="4" fill="#4aff6c" />
<rect x="52" y="24" width="4" height="4" fill="#4aff6c" />
<rect x="60" y="24" width="4" height="4" fill="#4aff6c" />
<rect x="52" y="28" width="4" height="4" fill="#4aff6c" />
<rect x="56" y="28" width="4" height="4" fill="#4aff6c" />
<rect x="64" y="28" width="4" height="4" fill="#4aff6c" />
<rect x="52" y="32" width="4" height="4" fill="#4aff6c" />
<rect x="56" y="32" width="4" height="4" fill="#4aff6c" />
<rect x="64" y="32" width="4" height="4" fill="#4aff6c" />
<rect x="68" y="32" width="4" height="4" fill="#4aff6c" />
<rect x="52" y="36" width="4" height="4" fill="#4aff6c" />
<rect x="56" y="36" width="4" height="4" fill="#4aff6c" />
<rect x="64" y="36" width="4" height="4" fill="#4aff6c" />
<rect x="12" y="40" width="4" height="4" fill="#4aff6c" />
<rect x="16" y="40" width="4" height="4" fill="#4aff6c" />
<rect x="52" y="40" width="4" height="4" fill="#4aff6c" />
<rect x="60" y="40" width="4" height="4" fill="#4aff6c" />
<rect x="8" y="44" width="4" height="4" fill="#4aff6c" />
<rect x="16" y="44" width="4" height="4" fill="#4aff6c" />
<rect x="56" y="44" width="4" height="4" fill="#4aff6c" />
<rect x="76" y="44" width="4" height="4" fill="#4aff6c" />
<rect x="80" y="44" width="4" height="4" fill="#4aff6c" />
<rect x="84" y="44" width="4" height="4" fill="#4aff6c" />
<rect x="8" y="48" width="4" height="4" fill="#4aff6c" />
<rect x="76" y="48" width="4" height="4" fill="#4aff6c" />
<rect x="80" y="48" width="4" height="4" fill="#4aff6c" />
<rect x="84" y="48" width="4" height="4" fill="#4aff6c" />
<rect x="4" y="52" width="4" height="4" fill="#4aff6c" />
<rect x="8" y="52" width="4" height="4" fill="#4aff6c" />
<rect x="72" y="52" width="4" height="4" fill="#4aff6c" />
<rect x="88" y="52" width="4" height="4" fill="#4aff6c" />
<rect x="68" y="56" width="4" height="4" fill="#4aff6c" />
<rect x="92" y="56" width="4" height="4" fill="#4aff6c" />
<rect x="72" y="60" width="4" height="4" fill="#4aff6c" />
<rect x="88" y="60" width="4" height="4" fill="#4aff6c" />
<rect x="76" y="64" width="4" height="4" fill="#4aff6c" />
<rect x="80" y="64" width="4" height="4" fill="#4aff6c" />
<rect x="84" y="64" width="4" height="4" fill="#4aff6c" />
<rect x="68" y="96" width="4" height="4" fill="#4aff6c" />
<rect x="72" y="96" width="4" height="4" fill="#4aff6c" />
<rect x="72" y="100" width="4" height="4" fill="#4aff6c" />
<rect x="60" y="104" width="4" height="4" fill="#4aff6c" />
<rect x="64" y="104" width="4" height="4" fill="#4aff6c" />
<rect x="68" y="104" width="4" height="4" fill="#4aff6c" />
<rect x="60" y="108" width="4" height="4" fill="#4aff6c" />
</svg>