<?xml version="1.0" encoding="utf-8"?>
<svg xmlns="http://www.w3.org/2000/svg" width="120" height="82" viewBox="0 0 120 82">
<rect width="100%" height="100%" fill="transparent" />
<rect x="36" y="4" width="2" height="2" fill="#4aff6c" />
<rect x="38" y="4" width="2" height="2" fill="#4aff6c" />
<rect x="62" y="4" width="2" height="2" fill="#4aff6c" />
<rect x="76" y="4" width="2" height="2" fill="#4aff6c" />
<rect x="78" y="4" width="2" height="2" fill="#4aff6c" />
<rect x="36" y="6" width="2" height="2" fill="#4aff6c" />
<rect x="38" y="6" width="2" height="2" fill="#4aff6c" />
<rect x="60" y="6" width="2" height="2" fill="#4aff6c" />
<rect x="64" y="6" width="2" height="2" fill="#4aff6c" />
<rect x="74" y="6" width="2" height="2" fill="#4aff6c" />
<rect x="80" y="6" width="2" height="2" fill="#4aff6c" />
<rect x="60" y="8" width="2" height="2" fill="#4aff6c" />
<rect x="64" y="8" width="2" height="2" fill="#4aff6c" />
<rect x="72" y="8" width="2" height="2" fill="#4aff6c" />
<rect x="76" y="8" width="2" height="2" fill="#4aff6c" />
<rect x="78" y="8" width="2" height="2" fill="#4aff6c" />
<rect x="80" y="8" width="2" height="2" fill="#4aff6c" />
<rect x="86" y="8" width="2" height="2" fill="#4aff6c" />
<rect x="88" y="8" width="2" height="2" fill="#4aff6c" />
<rect x="58" y="10" width="2" height="2" fill="#4aff6c" />
<rect x="60" y="10" width="2" height="2" fill="#4aff6c" />
<rect x="64" y="10" width="2" height="2" fill="#4aff6c" />
<rect x="66" y="10" width="2" height="2" fill="#4aff6c" />
<rect x="70" y="10" width="2" height="2" fill="#4aff6c" />
<rect x="74" y="10" width="2" height="2" fill="#4aff6c" />
<rect x="88" y="10" width="2" height="2" fill="#4aff6c" />
<rect x="66" y="12" width="2" height="2" fill="#4aff6c" />
<rect x="70" y="12" width="2" height="2" fill="#4aff6c" />
<rect x="78" y="12" width="2" height="2" fill="#4aff6c" />
<rect x="80" y="12" width="2" height="2" fill="#4aff6c" />
<rect x="88" y="12" width="2" height="2" fill="#4aff6c" />
<rect x="92" y="12" width="2" height="2" fill="#4aff6c" />
<rect x="58" y="14" width="2" height="2" fill="#4aff6c" />
<rect x="60" y="14" width="2" height="2" fill="#4aff6c" />
<rect x="64" y="14" width="2" height="2" fill="#4aff6c" />
<rect x="70" y="14" width="2" height="2" fill="#4aff6c" />
<rect x="72" y="14" width="2" height="2" fill="#4aff6c" />
<rect x="74" y="14" width="2" height="2" fill="#4aff6c" />
<rect x="76" y="14" width="2" height="2" fill="#4aff6c" />
<rect x="80" y="14" width="2" height="2" fill="#4aff6c" />
<rect x="90" y="14" width="2" height="2" fill="#4aff6c" />
<rect x="92" y="14" width="2" height="2" fill="#4aff6c" />
<rect x="58" y="16" width="2" height="2" fill="#4aff6c" />
<rect x="60" y="16" width="2" height="2" fill="#4aff6c" />
<rect x="64" y="16" width="2" height="2" fill="#4aff6c" />
<rect x="68" y="16" width="2" height="2" fill="#4aff6c" />
<rect x="76" y="16" width="2" height="2" fill="#4aff6c" />
<rect x="66" y="18" width="2" height="2" fill="#4aff6c" />
<rect x="70" y="18" width="2" height="2" fill="#4aff6c" />
<rect x="78" y="18" width="2" height="2" fill="#4aff6c" />
<rect x="68" y="20" width="2" height="2" fill="#4aff6c" />
<rect x="72" y="20" width="2" height="2" fill="#4aff6c" />
<rect x="80" y="20" width="2" height="2" fill="#4aff6c" />
<rect x="70" y="22" width="2" height="2" fill="#4aff6c" />
<rect x="78" y="22" width="2" height="2" fill="#4aff6c" />
<rect x="80" y="22" width="2" height="2" fill="#4aff6c" />
<rect x="110" y="22" width="2" height="2" fill="#4aff6c" />
<rect x="108" y="24" width="2" height="2" fill="#4aff6c" />
<rect x="112" y="24" width="2" height="2" fill="#4aff6c" />
<rect x="110" y="26" width="2" height="2" fill="#4aff6c" />
<rect x="52" y="30" width="2" height="2" fill="#4aff6c" />
<rect x="54" y="30" width="2" height="2" fill="#4aff6c" />
<rect x="52" y="32" width="2" height="2" fill="#4aff6c" />
<rect x="54" y="32" width="2" height="2" fill="#4aff6c" />
<rect x="22" y="34" width="2" height="2" fill="#4aff6c" />
<rect x="24" y="34" width="2" height="2" fill="#4aff6c" />
<rect x="20" y="36" width="2" height="2" fill="#4aff6c" />
<rect x="26" y="36" width="2" height="2" fill="#4aff6c" />
<rect x="18" y="38" width="2" height="2" fill="#4aff6c" />
<rect x="22" y="38" width="2" height="2" fill="#4aff6c" />
<rect x="24" y="38" width="2" height="2" fill="#4aff6c" />
<rect x="110" y="38" width="2" height="2" fill="#4aff6c" />
<rect x="112" y="38" width="2" height="2" fill="#4aff6c" />
<rect x="18" y="40" width="2" height="2" fill="#4aff6c" />
<rect x="110" y="40" width="2" height="2" fill="#4aff6c" />
<rect x="112" y="40" width="2" height="2" fill="#4aff6c" />
<rect x="16" y="42" width="2" height="2" fill="#4aff6c" />
<rect x="18" y="42" width="2" height="2" fill="#4aff6c" />
<rect x="46" y="44" width="2" height="2" fill="#4aff6c" />
<rect x="48" y="44" width="2" height="2" fill="#4aff6c" />
<rect x="46" y="46" width="2" height="2" fill="#4aff6c" />
<rect x="48" y="48" width="2" height="2" fill="#4aff6c" />
<rect x="50" y="48" width="2" height="2" fill="#4aff6c" />
<rect x="52" y="48" width="2" height="2" fill="#4aff6c" />
<rect x="52" y="50" width="2" height="2" fill="#4aff6c" />
<rect x="64" y="50" width="2" height="2" fill="#4aff6c" />
<rect x="66" y="50" width="2" height="2" fill="#4aff6c" />
<rect x="62" y="52" width="2" height="2" fill="#4aff6c" />
<rect x="66" y="52" width="2" height="2" fill="#4aff6c" />
<rect x="62" y="54" width="2" height="2" fill="#4aff6c" />
<rect x="60" y="56" width="2" height="2" fill="#4aff6c" />
<rect x="62" y="56" width="2" height="2" fill="#4aff6c" />
<rect x="76" y="62" width="2" height="2" fill="#4aff6c" />
<rect x="108" y="62" width="2" height="2" fill="#4aff6c" />
<rect x="110" y="62" width="2" height="2" fill="#4aff6c" />
<rect x="74" y="64" width="2" height="2" fill="#4aff6c" />
<rect x="78" y="64" width="2" height="2" fill="#4aff6c" />
<rect x="108" y="64" width="2" height="2" fill="#4aff6c" />
<rect x="112" y="64" width="2" height="2" fill="#4aff6c" />
<rect x="74" y="66" width="2" height="2" fill="#4aff6c" />
<rect x="78" y="66" width="2" height="2" fill="#4aff6c" />
<rect x="112" y="66" width="2" height="2" fill="#4aff6c" />
<rect x="76" y="68" width="2" height="2" fill="#4aff6c" />
<rect x="112" y="68" width="2" height="2" fill="#4aff6c" />
<rect x="114" y="68" width="2" height="2" fill="#4aff6c" />
<rect x="4" y="70" width="2" height="2" fill="#4aff6c" />
<rect x="6" y="70" width="2" height="2" fill="#4aff6c" />
<rect x="8" y="70" width="2" height="2" fill="#4aff6c" />
<rect x="84" y="70" width="2" height="2" fill="#4aff6c" />
<rect x="86" y="70" width="2" height="2" fill="#4aff6c" />
<rect x="8" y="72" width="2" height="2" fill="#4aff6c" />
<rect x="84" y="72" width="2" height="2" fill="#4aff6c" />
<rect x="88" y="72" width="2" height="2" fill="#4aff6c" />
<rect x="6" y="74" width="2" height="2" fill="#4aff6c" />
<rect x="88" y="74" width="2" height="2" fill="#4aff6c" />
<rect x="88" y="76" width="2" height="2" fill="#4aff6c" />
<rect x="90" y="76" width="2" height="2" fill="#4aff6c" />
</svg>