<?xml version="1.0" encoding="utf-8"?>
<svg xmlns="http://www.w3.org/2000/svg" width="120" height="44" viewBox="0 0 120 44">
<rect width="100%" height="100%" fill="transparent" />
<rect x="28" y="4" width="4" height="4" fill="#4aff6c" />
<rect x="104" y="4" width="4" height="4" fill="#4aff6c" />
<rect x="28" y="8" width="4" height="4" fill="#4aff6c" />
<rect x="32" y="8" width="4" height="4" fill="#4aff6c" />
<rect x="104" y="8" width="4" height="4" fill="#4aff6c" />
<rect x="24" y="12" width="4" height="4" fill="#4aff6c" />
<rect x="28" y="12" width="4" height="4" fill="#4aff6c" />
<rect x="104" y="12" width="4" height="4" fill="#4aff6c" />
<rect x="108" y="12" width="4" height="4" fill="#4aff6c" />
<rect x="112" y="12" width="4" height="4" fill="#4aff6c" />
<rect x="112" y="16" width="4" height="4" fill="#4aff6c" />
<rect x="8" y="24" width="4" height="4" fill="#4aff6c" />
<rect x="12" y="24" width="4" height="4" fill="#4aff6c" />
<rect x="4" y="28" width="4" height="4" fill="#4aff6c" />
<rect x="16" y="28" width="4" height="4" fill="#4aff6c" />
<rect x="4" y="32" width="4" height="4" fill="#4aff6c" />
<rect x="12" y="32" width="4" height="4" fill="#4aff6c" />
<rect x="8" y="36" width="4" height="4" fill="#4aff6c" />
</svg>