<?xml version="1.0" encoding="utf-8"?>
<svg xmlns="http://www.w3.org/2000/svg" width="92" height="98" viewBox="0 0 92 98">
<rect width="100%" height="100%" fill="transparent" />
<rect x="38" y="4" width="2" height="2" fill="#4aff6c" />
<rect x="34" y="6" width="2" height="2" fill="#4aff6c" />
<rect x="36" y="6" width="2" height="2" fill="#4aff6c" />
<rect x="38" y="6" width="2" height="2" fill="#4aff6c" />
<rect x="32" y="8" width="2" height="2" fill="#4aff6c" />
<rect x="10" y="10" width="2" height="2" fill="#4aff6c" />
<rect x="32" y="10" width="2" height="2" fill="#4aff6c" />
<rect x="34" y="10" width="2" height="2" fill="#4aff6c" />
<rect x="8" y="12" width="2" height="2" fill="#4aff6c" />
<rect x="12" y="12" width="2" height="2" fill="#4aff6c" />
<rect x="8" y="14" width="2" height="2" fill="#4aff6c" />
<rect x="12" y="14" width="2" height="2" fill="#4aff6c" />
<rect x="6" y="16" width="2" height="2" fill="#4aff6c" />
<rect x="8" y="16" width="2" height="2" fill="#4aff6c" />
<rect x="12" y="16" width="2" height="2" fill="#4aff6c" />
<rect x="14" y="16" width="2" height="2" fill="#4aff6c" />
<rect x="56" y="16" width="2" height="2" fill="#4aff6c" />
<rect x="6" y="18" width="2" height="2" fill="#4aff6c" />
<rect x="52" y="18" width="2" height="2" fill="#4aff6c" />
<rect x="54" y="18" width="2" height="2" fill="#4aff6c" />
<rect x="56" y="18" width="2" height="2" fill="#4aff6c" />
<rect x="8" y="20" width="2" height="2" fill="#4aff6c" />
<rect x="12" y="20" width="2" height="2" fill="#4aff6c" />
<rect x="14" y="20" width="2" height="2" fill="#4aff6c" />
<rect x="50" y="20" width="2" height="2" fill="#4aff6c" />
<rect x="4" y="22" width="2" height="2" fill="#4aff6c" />
<rect x="8" y="22" width="2" height="2" fill="#4aff6c" />
<rect x="12" y="22" width="2" height="2" fill="#4aff6c" />
<rect x="14" y="22" width="2" height="2" fill="#4aff6c" />
<rect x="50" y="22" width="2" height="2" fill="#4aff6c" />
<rect x="52" y="22" width="2" height="2" fill="#4aff6c" />
<rect x="4" y="24" width="2" height="2" fill="#4aff6c" />
<rect x="6" y="24" width="2" height="2" fill="#4aff6c" />
<rect x="30" y="26" width="2" height="2" fill="#4aff6c" />
<rect x="28" y="28" width="2" height="2" fill="#4aff6c" />
<rect x="30" y="28" width="2" height="2" fill="#4aff6c" />
<rect x="32" y="28" width="2" height="2" fill="#4aff6c" />
<rect x="44" y="28" width="2" height="2" fill="#4aff6c" />
<rect x="46" y="28" width="2" height="2" fill="#4aff6c" />
<rect x="28" y="30" width="2" height="2" fill="#4aff6c" />
<rect x="42" y="30" width="2" height="2" fill="#4aff6c" />
<rect x="48" y="30" width="2" height="2" fill="#4aff6c" />
<rect x="44" y="32" width="2" height="2" fill="#4aff6c" />
<rect x="46" y="32" width="2" height="2" fill="#4aff6c" />
<rect x="68" y="34" width="2" height="2" fill="#4aff6c" />
<rect x="64" y="36" width="2" height="2" fill="#4aff6c" />
<rect x="66" y="36" width="2" height="2" fill="#4aff6c" />
<rect x="68" y="36" width="2" height="2" fill="#4aff6c" />
<rect x="62" y="38" width="2" height="2" fill="#4aff6c" />
<rect x="40" y="40" width="2" height="2" fill="#4aff6c" />
<rect x="62" y="40" width="2" height="2" fill="#4aff6c" />
<rect x="64" y="40" width="2" height="2" fill="#4aff6c" />
<rect x="38" y="42" width="2" height="2" fill="#4aff6c" />
<rect x="42" y="42" width="2" height="2" fill="#4aff6c" />
<rect x="38" y="44" width="2" height="2" fill="#4aff6c" />
<rect x="42" y="44" width="2" height="2" fill="#4aff6c" />
<rect x="34" y="46" width="2" height="2" fill="#4aff6c" />
<rect x="36" y="46" width="2" height="2" fill="#4aff6c" />
<rect x="38" y="46" width="2" height="2" fill="#4aff6c" />
<rect x="42" y="46" width="2" height="2" fill="#4aff6c" />
<rect x="44" y="46" width="2" height="2" fill="#4aff6c" />
<rect x="86" y="46" width="2" height="2" fill="#4aff6c" />
<rect x="32" y="48" width="2" height="2" fill="#4aff6c" />
<rect x="82" y="48" width="2" height="2" fill="#4aff6c" />
<rect x="84" y="48" width="2" height="2" fill="#4aff6c" />
<rect x="86" y="48" width="2" height="2" fill="#4aff6c" />
<rect x="20" y="50" width="2" height="2" fill="#4aff6c" />
<rect x="34" y="50" width="2" height="2" fill="#4aff6c" />
<rect x="36" y="50" width="2" height="2" fill="#4aff6c" />
<rect x="38" y="50" width="2" height="2" fill="#4aff6c" />
<rect x="42" y="50" width="2" height="2" fill="#4aff6c" />
<rect x="44" y="50" width="2" height="2" fill="#4aff6c" />
<rect x="80" y="50" width="2" height="2" fill="#4aff6c" />
<rect x="20" y="52" width="2" height="2" fill="#4aff6c" />
<rect x="22" y="52" width="2" height="2" fill="#4aff6c" />
<rect x="24" y="52" width="2" height="2" fill="#4aff6c" />
<rect x="38" y="52" width="2" height="2" fill="#4aff6c" />
<rect x="42" y="52" width="2" height="2" fill="#4aff6c" />
<rect x="44" y="52" width="2" height="2" fill="#4aff6c" />
<rect x="80" y="52" width="2" height="2" fill="#4aff6c" />
<rect x="82" y="52" width="2" height="2" fill="#4aff6c" />
<rect x="26" y="54" width="2" height="2" fill="#4aff6c" />
<rect x="24" y="56" width="2" height="2" fill="#4aff6c" />
<rect x="26" y="56" width="2" height="2" fill="#4aff6c" />
<rect x="74" y="58" width="2" height="2" fill="#4aff6c" />
<rect x="76" y="58" width="2" height="2" fill="#4aff6c" />
<rect x="72" y="60" width="2" height="2" fill="#4aff6c" />
<rect x="78" y="60" width="2" height="2" fill="#4aff6c" />
<rect x="74" y="62" width="2" height="2" fill="#4aff6c" />
<rect x="76" y="62" width="2" height="2" fill="#4aff6c" />
<rect x="22" y="70" width="2" height="2" fill="#4aff6c" />
<rect x="22" y="72" width="2" height="2" fill="#4aff6c" />
<rect x="26" y="72" width="2" height="2" fill="#4aff6c" />
<rect x="22" y="74" width="2" height="2" fill="#4aff6c" />
<rect x="24" y="74" width="2" height="2" fill="#4aff6c" />
<rect x="26" y="74" width="2" height="2" fill="#4aff6c" />
<rect x="26" y="76" width="2" height="2" fill="#4aff6c" />
<rect x="50" y="76" width="2" height="2" fill="#4aff6c" />
<rect x="52" y="76" width="2" height="2" fill="#4aff6c" />
<rect x="50" y="78" width="2" height="2" fill="#4aff6c" />
<rect x="52" y="80" width="2" height="2" fill="#4aff6c" />
<rect x="54" y="80" width="2" height="2" fill="#4aff6c" />
<rect x="56" y="80" width="2" height="2" fill="#4aff6c" />
<rect x="56" y="82" width="2" height="2" fill="#4aff6c" />
<rect x="8" y="86" width="2" height="2" fill="#4aff6c" />
<rect x="10" y="86" width="2" height="2" fill="#4aff6c" />
<rect x="10" y="88" width="2" height="2" fill="#4aff6c" />
<rect x="4" y="90" width="2" height="2" fill="#4aff6c" />
<rect x="6" y="90" width="2" height="2" fill="#4aff6c" />
<rect x="8" y="90" width="2" height="2" fill="#4aff6c" />
<rect x="4" y="92" width="2" height="2" fill="#4aff6c" />
</svg>