<?xml version="1.0" encoding="utf-8"?>
<svg xmlns="http://www.w3.org/2000/svg" width="106" height="32" viewBox="0 0 106 32">
<rect width="100%" height="100%" fill="transparent" />
<rect x="32" y="4" width="2" height="2" fill="#4aff6c" />
<rect x="34" y="4" width="2" height="2" fill="#4aff6c" />
<rect x="48" y="4" width="2" height="2" fill="#4aff6c" />
<rect x="50" y="4" width="2" height="2" fill="#4aff6c" />
<rect x="64" y="4" width="2" height="2" fill="#4aff6c" />
<rect x="66" y="4" width="2" height="2" fill="#4aff6c" />
<rect x="74" y="4" width="2" height="2" fill="#4aff6c" />
<rect x="78" y="4" width="2" height="2" fill="#4aff6c" />
<rect x="80" y="4" width="2" height="2" fill="#4aff6c" />
<rect x="12" y="6" width="2" height="2" fill="#4aff6c" />
<rect x="30" y="6" width="2" height="2" fill="#4aff6c" />
<rect x="36" y="6" width="2" height="2" fill="#4aff6c" />
<rect x="46" y="6" width="2" height="2" fill="#4aff6c" />
<rect x="52" y="6" width="2" height="2" fill="#4aff6c" />
<rect x="62" y="6" width="2" height="2" fill="#4aff6c" />
<rect x="68" y="6" width="2" height="2" fill="#4aff6c" />
<rect x="74" y="6" width="2" height="2" fill="#4aff6c" />
<rect x="76" y="6" width="2" height="2" fill="#4aff6c" />
<rect x="80" y="6" width="2" height="2" fill="#4aff6c" />
<rect x="4" y="8" width="2" height="2" fill="#4aff6c" />
<rect x="10" y="8" width="2" height="2" fill="#4aff6c" />
<rect x="14" y="8" width="2" height="2" fill="#4aff6c" />
<rect x="24" y="8" width="2" height="2" fill="#4aff6c" />
<rect x="32" y="8" width="2" height="2" fill="#4aff6c" />
<rect x="34" y="8" width="2" height="2" fill="#4aff6c" />
<rect x="40" y="8" width="2" height="2" fill="#4aff6c" />
<rect x="48" y="8" width="2" height="2" fill="#4aff6c" />
<rect x="50" y="8" width="2" height="2" fill="#4aff6c" />
<rect x="56" y="8" width="2" height="2" fill="#4aff6c" />
<rect x="64" y="8" width="2" height="2" fill="#4aff6c" />
<rect x="68" y="8" width="2" height="2" fill="#4aff6c" />
<rect x="80" y="8" width="2" height="2" fill="#4aff6c" />
<rect x="84" y="8" width="2" height="2" fill="#4aff6c" />
<rect x="86" y="8" width="2" height="2" fill="#4aff6c" />
<rect x="4" y="10" width="2" height="2" fill="#4aff6c" />
<rect x="6" y="10" width="2" height="2" fill="#4aff6c" />
<rect x="8" y="10" width="2" height="2" fill="#4aff6c" />
<rect x="10" y="10" width="2" height="2" fill="#4aff6c" />
<rect x="14" y="10" width="2" height="2" fill="#4aff6c" />
<rect x="20" y="10" width="2" height="2" fill="#4aff6c" />
<rect x="22" y="10" width="2" height="2" fill="#4aff6c" />
<rect x="24" y="10" width="2" height="2" fill="#4aff6c" />
<rect x="26" y="10" width="2" height="2" fill="#4aff6c" />
<rect x="28" y="10" width="2" height="2" fill="#4aff6c" />
<rect x="30" y="10" width="2" height="2" fill="#4aff6c" />
<rect x="36" y="10" width="2" height="2" fill="#4aff6c" />
<rect x="38" y="10" width="2" height="2" fill="#4aff6c" />
<rect x="40" y="10" width="2" height="2" fill="#4aff6c" />
<rect x="42" y="10" width="2" height="2" fill="#4aff6c" />
<rect x="44" y="10" width="2" height="2" fill="#4aff6c" />
<rect x="46" y="10" width="2" height="2" fill="#4aff6c" />
<rect x="52" y="10" width="2" height="2" fill="#4aff6c" />
<rect x="54" y="10" width="2" height="2" fill="#4aff6c" />
<rect x="56" y="10" width="2" height="2" fill="#4aff6c" />
<rect x="58" y="10" width="2" height="2" fill="#4aff6c" />
<rect x="60" y="10" width="2" height="2" fill="#4aff6c" />
<rect x="62" y="10" width="2" height="2" fill="#4aff6c" />
<rect x="68" y="10" width="2" height="2" fill="#4aff6c" />
<rect x="70" y="10" width="2" height="2" fill="#4aff6c" />
<rect x="72" y="10" width="2" height="2" fill="#4aff6c" />
<rect x="74" y="10" width="2" height="2" fill="#4aff6c" />
<rect x="76" y="10" width="2" height="2" fill="#4aff6c" />
<rect x="78" y="10" width="2" height="2" fill="#4aff6c" />
<rect x="82" y="10" width="2" height="2" fill="#4aff6c" />
<rect x="86" y="10" width="2" height="2" fill="#4aff6c" />
<rect x="14" y="12" width="2" height="2" fill="#4aff6c" />
<rect x="18" y="12" width="2" height="2" fill="#4aff6c" />
<rect x="30" y="12" width="2" height="2" fill="#4aff6c" />
<rect x="34" y="12" width="2" height="2" fill="#4aff6c" />
<rect x="46" y="12" width="2" height="2" fill="#4aff6c" />
<rect x="50" y="12" width="2" height="2" fill="#4aff6c" />
<rect x="62" y="12" width="2" height="2" fill="#4aff6c" />
<rect x="66" y="12" width="2" height="2" fill="#4aff6c" />
<rect x="78" y="12" width="2" height="2" fill="#4aff6c" />
<rect x="82" y="12" width="2" height="2" fill="#4aff6c" />
<rect x="96" y="12" width="2" height="2" fill="#4aff6c" />
<rect x="98" y="12" width="2" height="2" fill="#4aff6c" />
<rect x="8" y="14" width="2" height="2" fill="#4aff6c" />
<rect x="10" y="14" width="2" height="2" fill="#4aff6c" />
<rect x="14" y="14" width="2" height="2" fill="#4aff6c" />
<rect x="18" y="14" width="2" height="2" fill="#4aff6c" />
<rect x="22" y="14" width="2" height="2" fill="#4aff6c" />
<rect x="26" y="14" width="2" height="2" fill="#4aff6c" />
<rect x="34" y="14" width="2" height="2" fill="#4aff6c" />
<rect x="38" y="14" width="2" height="2" fill="#4aff6c" />
<rect x="42" y="14" width="2" height="2" fill="#4aff6c" />
<rect x="50" y="14" width="2" height="2" fill="#4aff6c" />
<rect x="54" y="14" width="2" height="2" fill="#4aff6c" />
<rect x="58" y="14" width="2" height="2" fill="#4aff6c" />
<rect x="66" y="14" width="2" height="2" fill="#4aff6c" />
<rect x="70" y="14" width="2" height="2" fill="#4aff6c" />
<rect x="74" y="14" width="2" height="2" fill="#4aff6c" />
<rect x="82" y="14" width="2" height="2" fill="#4aff6c" />
<rect x="86" y="14" width="2" height="2" fill="#4aff6c" />
<rect x="98" y="14" width="2" height="2" fill="#4aff6c" />
<rect x="6" y="16" width="2" height="2" fill="#4aff6c" />
<rect x="18" y="16" width="2" height="2" fill="#4aff6c" />
<rect x="22" y="16" width="2" height="2" fill="#4aff6c" />
<rect x="30" y="16" width="2" height="2" fill="#4aff6c" />
<rect x="34" y="16" width="2" height="2" fill="#4aff6c" />
<rect x="38" y="16" width="2" height="2" fill="#4aff6c" />
<rect x="46" y="16" width="2" height="2" fill="#4aff6c" />
<rect x="50" y="16" width="2" height="2" fill="#4aff6c" />
<rect x="54" y="16" width="2" height="2" fill="#4aff6c" />
<rect x="62" y="16" width="2" height="2" fill="#4aff6c" />
<rect x="66" y="16" width="2" height="2" fill="#4aff6c" />
<rect x="70" y="16" width="2" height="2" fill="#4aff6c" />
<rect x="78" y="16" width="2" height="2" fill="#4aff6c" />
<rect x="82" y="16" width="2" height="2" fill="#4aff6c" />
<rect x="86" y="16" width="2" height="2" fill="#4aff6c" />
<rect x="90" y="16" width="2" height="2" fill="#4aff6c" />
<rect x="94" y="16" width="2" height="2" fill="#4aff6c" />
<rect x="96" y="16" width="2" height="2" fill="#4aff6c" />
<rect x="6" y="18" width="2" height="2" fill="#4aff6c" />
<rect x="8" y="18" width="2" height="2" fill="#4aff6c" />
<rect x="22" y="18" width="2" height="2" fill="#4aff6c" />
<rect x="26" y="18" width="2" height="2" fill="#4aff6c" />
<rect x="38" y="18" width="2" height="2" fill="#4aff6c" />
<rect x="42" y="18" width="2" height="2" fill="#4aff6c" />
<rect x="54" y="18" width="2" height="2" fill="#4aff6c" />
<rect x="58" y="18" width="2" height="2" fill="#4aff6c" />
<rect x="70" y="18" width="2" height="2" fill="#4aff6c" />
<rect x="74" y="18" width="2" height="2" fill="#4aff6c" />
<rect x="86" y="18" width="2" height="2" fill="#4aff6c" />
<rect x="90" y="18" width="2" height="2" fill="#4aff6c" />
<rect x="18" y="20" width="2" height="2" fill="#4aff6c" />
<rect x="22" y="20" width="2" height="2" fill="#4aff6c" />
<rect x="26" y="20" width="2" height="2" fill="#4aff6c" />
<rect x="28" y="20" width="2" height="2" fill="#4aff6c" />
<rect x="30" y="20" width="2" height="2" fill="#4aff6c" />
<rect x="32" y="20" width="2" height="2" fill="#4aff6c" />
<rect x="34" y="20" width="2" height="2" fill="#4aff6c" />
<rect x="36" y="20" width="2" height="2" fill="#4aff6c" />
<rect x="42" y="20" width="2" height="2" fill="#4aff6c" />
<rect x="44" y="20" width="2" height="2" fill="#4aff6c" />
<rect x="46" y="20" width="2" height="2" fill="#4aff6c" />
<rect x="48" y="20" width="2" height="2" fill="#4aff6c" />
<rect x="50" y="20" width="2" height="2" fill="#4aff6c" />
<rect x="52" y="20" width="2" height="2" fill="#4aff6c" />
<rect x="58" y="20" width="2" height="2" fill="#4aff6c" />
<rect x="60" y="20" width="2" height="2" fill="#4aff6c" />
<rect x="62" y="20" width="2" height="2" fill="#4aff6c" />
<rect x="64" y="20" width="2" height="2" fill="#4aff6c" />
<rect x="66" y="20" width="2" height="2" fill="#4aff6c" />
<rect x="68" y="20" width="2" height="2" fill="#4aff6c" />
<rect x="74" y="20" width="2" height="2" fill="#4aff6c" />
<rect x="76" y="20" width="2" height="2" fill="#4aff6c" />
<rect x="78" y="20" width="2" height="2" fill="#4aff6c" />
<rect x="80" y="20" width="2" height="2" fill="#4aff6c" />
<rect x="82" y="20" width="2" height="2" fill="#4aff6c" />
<rect x="84" y="20" width="2" height="2" fill="#4aff6c" />
<rect x="90" y="20" width="2" height="2" fill="#4aff6c" />
<rect x="94" y="20" width="2" height="2" fill="#4aff6c" />
<rect x="96" y="20" width="2" height="2" fill="#4aff6c" />
<rect x="98" y="20" width="2" height="2" fill="#4aff6c" />
<rect x="100" y="20" width="2" height="2" fill="#4aff6c" />
<rect x="18" y="22" width="2" height="2" fill="#4aff6c" />
<rect x="20" y="22" width="2" height="2" fill="#4aff6c" />
<rect x="24" y="22" width="2" height="2" fill="#4aff6c" />
<rect x="36" y="22" width="2" height="2" fill="#4aff6c" />
<rect x="40" y="22" width="2" height="2" fill="#4aff6c" />
<rect x="48" y="22" width="2" height="2" fill="#4aff6c" />
<rect x="54" y="22" width="2" height="2" fill="#4aff6c" />
<rect x="56" y="22" width="2" height="2" fill="#4aff6c" />
<rect x="64" y="22" width="2" height="2" fill="#4aff6c" />
<rect x="70" y="22" width="2" height="2" fill="#4aff6c" />
<rect x="72" y="22" width="2" height="2" fill="#4aff6c" />
<rect x="80" y="22" width="2" height="2" fill="#4aff6c" />
<rect x="90" y="22" width="2" height="2" fill="#4aff6c" />
<rect x="94" y="22" width="2" height="2" fill="#4aff6c" />
<rect x="100" y="22" width="2" height="2" fill="#4aff6c" />
<rect x="24" y="24" width="2" height="2" fill="#4aff6c" />
<rect x="28" y="24" width="2" height="2" fill="#4aff6c" />
<rect x="30" y="24" width="2" height="2" fill="#4aff6c" />
<rect x="36" y="24" width="2" height="2" fill="#4aff6c" />
<rect x="42" y="24" width="2" height="2" fill="#4aff6c" />
<rect x="52" y="24" width="2" height="2" fill="#4aff6c" />
<rect x="58" y="24" width="2" height="2" fill="#4aff6c" />
<rect x="68" y="24" width="2" height="2" fill="#4aff6c" />
<rect x="74" y="24" width="2" height="2" fill="#4aff6c" />
<rect x="92" y="24" width="2" height="2" fill="#4aff6c" />
<rect x="24" y="26" width="2" height="2" fill="#4aff6c" />
<rect x="26" y="26" width="2" height="2" fill="#4aff6c" />
<rect x="30" y="26" width="2" height="2" fill="#4aff6c" />
<rect x="38" y="26" width="2" height="2" fill="#4aff6c" />
<rect x="40" y="26" width="2" height="2" fill="#4aff6c" />
<rect x="54" y="26" width="2" height="2" fill="#4aff6c" />
<rect x="56" y="26" width="2" height="2" fill="#4aff6c" />
<rect x="70" y="26" width="2" height="2" fill="#4aff6c" />
<rect x="72" y="26" width="2" height="2" fill="#4aff6c" />
</svg>