<?xml version="1.0" encoding="utf-8"?>
<svg xmlns="http://www.w3.org/2000/svg" width="70" height="118" viewBox="0 0 70 118">
<rect width="100%" height="100%" fill="transparent" />
<rect x="32" y="4" width="2" height="2" fill="#4aff6c" />
<rect x="34" y="4" width="2" height="2" fill="#4aff6c" />
<rect x="26" y="6" width="2" height="2" fill="#4aff6c" />
<rect x="28" y="6" width="2" height="2" fill="#4aff6c" />
<rect x="34" y="6" width="2" height="2" fill="#4aff6c" />
<rect x="22" y="8" width="2" height="2" fill="#4aff6c" />
<rect x="24" y="8" width="2" height="2" fill="#4aff6c" />
<rect x="26" y="8" width="2" height="2" fill="#4aff6c" />
<rect x="30" y="8" width="2" height="2" fill="#4aff6c" />
<rect x="32" y="8" width="2" height="2" fill="#4aff6c" />
<rect x="46" y="8" width="2" height="2" fill="#4aff6c" />
<rect x="20" y="10" width="2" height="2" fill="#4aff6c" />
<rect x="42" y="10" width="2" height="2" fill="#4aff6c" />
<rect x="44" y="10" width="2" height="2" fill="#4aff6c" />
<rect x="46" y="10" width="2" height="2" fill="#4aff6c" />
<rect x="22" y="12" width="2" height="2" fill="#4aff6c" />
<rect x="24" y="12" width="2" height="2" fill="#4aff6c" />
<rect x="26" y="12" width="2" height="2" fill="#4aff6c" />
<rect x="30" y="12" width="2" height="2" fill="#4aff6c" />
<rect x="32" y="12" width="2" height="2" fill="#4aff6c" />
<rect x="40" y="12" width="2" height="2" fill="#4aff6c" />
<rect x="26" y="14" width="2" height="2" fill="#4aff6c" />
<rect x="30" y="14" width="2" height="2" fill="#4aff6c" />
<rect x="32" y="14" width="2" height="2" fill="#4aff6c" />
<rect x="40" y="14" width="2" height="2" fill="#4aff6c" />
<rect x="42" y="14" width="2" height="2" fill="#4aff6c" />
<rect x="50" y="24" width="2" height="2" fill="#4aff6c" />
<rect x="52" y="24" width="2" height="2" fill="#4aff6c" />
<rect x="50" y="26" width="2" height="2" fill="#4aff6c" />
<rect x="46" y="28" width="2" height="2" fill="#4aff6c" />
<rect x="50" y="28" width="2" height="2" fill="#4aff6c" />
<rect x="46" y="30" width="2" height="2" fill="#4aff6c" />
<rect x="48" y="30" width="2" height="2" fill="#4aff6c" />
<rect x="10" y="42" width="2" height="2" fill="#4aff6c" />
<rect x="10" y="44" width="2" height="2" fill="#4aff6c" />
<rect x="14" y="44" width="2" height="2" fill="#4aff6c" />
<rect x="10" y="46" width="2" height="2" fill="#4aff6c" />
<rect x="12" y="46" width="2" height="2" fill="#4aff6c" />
<rect x="14" y="46" width="2" height="2" fill="#4aff6c" />
<rect x="14" y="48" width="2" height="2" fill="#4aff6c" />
<rect x="48" y="50" width="2" height="2" fill="#4aff6c" />
<rect x="50" y="50" width="2" height="2" fill="#4aff6c" />
<rect x="48" y="52" width="2" height="2" fill="#4aff6c" />
<rect x="50" y="52" width="2" height="2" fill="#4aff6c" />
<rect x="4" y="68" width="2" height="2" fill="#4aff6c" />
<rect x="8" y="68" width="2" height="2" fill="#4aff6c" />
<rect x="10" y="68" width="2" height="2" fill="#4aff6c" />
<rect x="4" y="70" width="2" height="2" fill="#4aff6c" />
<rect x="6" y="70" width="2" height="2" fill="#4aff6c" />
<rect x="10" y="70" width="2" height="2" fill="#4aff6c" />
<rect x="46" y="72" width="2" height="2" fill="#4aff6c" />
<rect x="48" y="72" width="2" height="2" fill="#4aff6c" />
<rect x="22" y="74" width="2" height="2" fill="#4aff6c" />
<rect x="24" y="74" width="2" height="2" fill="#4aff6c" />
<rect x="44" y="74" width="2" height="2" fill="#4aff6c" />
<rect x="50" y="74" width="2" height="2" fill="#4aff6c" />
<rect x="56" y="74" width="2" height="2" fill="#4aff6c" />
<rect x="58" y="74" width="2" height="2" fill="#4aff6c" />
<rect x="22" y="76" width="2" height="2" fill="#4aff6c" />
<rect x="24" y="76" width="2" height="2" fill="#4aff6c" />
<rect x="44" y="76" width="2" height="2" fill="#4aff6c" />
<rect x="48" y="76" width="2" height="2" fill="#4aff6c" />
<rect x="58" y="76" width="2" height="2" fill="#4aff6c" />
<rect x="46" y="78" width="2" height="2" fill="#4aff6c" />
<rect x="58" y="78" width="2" height="2" fill="#4aff6c" />
<rect x="62" y="78" width="2" height="2" fill="#4aff6c" />
<rect x="64" y="78" width="2" height="2" fill="#4aff6c" />
<rect x="52" y="80" width="2" height="2" fill="#4aff6c" />
<rect x="54" y="80" width="2" height="2" fill="#4aff6c" />
<rect x="58" y="80" width="2" height="2" fill="#4aff6c" />
<rect x="62" y="80" width="2" height="2" fill="#4aff6c" />
<rect x="52" y="82" width="2" height="2" fill="#4aff6c" />
<rect x="58" y="82" width="2" height="2" fill="#4aff6c" />
<rect x="64" y="82" width="2" height="2" fill="#4aff6c" />
<rect x="46" y="84" width="2" height="2" fill="#4aff6c" />
<rect x="56" y="84" width="2" height="2" fill="#4aff6c" />
<rect x="62" y="84" width="2" height="2" fill="#4aff6c" />
<rect x="64" y="84" width="2" height="2" fill="#4aff6c" />
<rect x="46" y="86" width="2" height="2" fill="#4aff6c" />
<rect x="48" y="86" width="2" height="2" fill="#4aff6c" />
<rect x="50" y="86" width="2" height="2" fill="#4aff6c" />
<rect x="52" y="86" width="2" height="2" fill="#4aff6c" />
<rect x="54" y="86" width="2" height="2" fill="#4aff6c" />
<rect x="42" y="90" width="2" height="2" fill="#4aff6c" />
<rect x="44" y="90" width="2" height="2" fill="#4aff6c" />
<rect x="46" y="90" width="2" height="2" fill="#4aff6c" />
<rect x="48" y="90" width="2" height="2" fill="#4aff6c" />
<rect x="50" y="90" width="2" height="2" fill="#4aff6c" />
<rect x="52" y="90" width="2" height="2" fill="#4aff6c" />
<rect x="54" y="90" width="2" height="2" fill="#4aff6c" />
<rect x="42" y="92" width="2" height="2" fill="#4aff6c" />
<rect x="48" y="92" width="2" height="2" fill="#4aff6c" />
<rect x="54" y="92" width="2" height="2" fill="#4aff6c" />
<rect x="38" y="94" width="2" height="2" fill="#4aff6c" />
<rect x="42" y="94" width="2" height="2" fill="#4aff6c" />
<rect x="38" y="96" width="2" height="2" fill="#4aff6c" />
<rect x="40" y="96" width="2" height="2" fill="#4aff6c" />
<rect x="22" y="108" width="2" height="2" fill="#4aff6c" />
<rect x="24" y="108" width="2" height="2" fill="#4aff6c" />
<rect x="26" y="108" width="2" height="2" fill="#4aff6c" />
<rect x="26" y="110" width="2" height="2" fill="#4aff6c" />
<rect x="26" y="112" width="2" height="2" fill="#4aff6c" />
<rect x="28" y="112" width="2" height="2" fill="#4aff6c" />
</svg>