<?xml version="1.0" encoding="utf-8"?>
<svg xmlns="http://www.w3.org/2000/svg" width="104" height="128" viewBox="0 0 104 128">
<rect width="100%" height="100%" fill="transparent" />
<rect x="16" y="4" width="6" height="6" fill="#4aff6c" />
<rect x="4" y="10" width="6" height="6" fill="#4aff6c" />
<rect x="16" y="10" width="6" height="6" fill="#4aff6c" />
<rect x="10" y="16" width="6" height="6" fill="#4aff6c" />
<rect x="16" y="16" width="6" height="6" fill="#4aff6c" />
<rect x="58" y="40" width="6" height="6" fill="#4aff6c" />
<rect x="52" y="46" width="6" height="6" fill="#4aff6c" />
<rect x="52" y="52" width="6" height="6" fill="#4aff6c" />
<rect x="58" y="52" width="6" height="6" fill="#4aff6c" />
<rect x="64" y="52" width="6" height="6" fill="#4aff6c" />
<rect x="58" y="70" width="6" height="6" fill="#4aff6c" />
<rect x="52" y="76" width="6" height="6" fill="#4aff6c" />
<rect x="64" y="76" width="6" height="6" fill="#4aff6c" />
<rect x="46" y="82" width="6" height="6" fill="#4aff6c" />
<rect x="64" y="82" width="6" height="6" fill="#4aff6c" />
<rect x="88" y="82" width="6" height="6" fill="#4aff6c" />
<rect x="94" y="82" width="6" height="6" fill="#4aff6c" />
<rect x="52" y="88" width="6" height="6" fill="#4aff6c" />
<rect x="58" y="88" width="6" height="6" fill="#4aff6c" />
<rect x="88" y="88" width="6" height="6" fill="#4aff6c" />
<rect x="94" y="88" width="6" height="6" fill="#4aff6c" />
<rect x="28" y="94" width="6" height="6" fill="#4aff6c" />
<rect x="22" y="100" width="6" height="6" fill="#4aff6c" />
<rect x="34" y="100" width="6" height="6" fill="#4aff6c" />
<rect x="22" y="106" width="6" height="6" fill="#4aff6c" />
<rect x="28" y="106" width="6" height="6" fill="#4aff6c" />
<rect x="58" y="112" width="6" height="6" fill="#4aff6c" />
<rect x="64" y="112" width="6" height="6" fill="#4aff6c" />
<rect x="58" y="118" width="6" height="6" fill="#4aff6c" />
<rect x="64" y="118" width="6" height="6" fill="#4aff6c" />
</svg>