<?xml version="1.0" encoding="utf-8"?>
<svg xmlns="http://www.w3.org/2000/svg" width="69" height="29" viewBox="0 0 69 29">
<rect width="100%" height="100%" fill="transparent" />
<rect x="5" y="4" width="1" height="1" fill="#4aff6c" />
<rect x="6" y="4" width="1" height="1" fill="#4aff6c" />
<rect x="4" y="5" width="1" height="1" fill="#4aff6c" />
<rect x="7" y="5" width="1" height="1" fill="#4aff6c" />
<rect x="11" y="5" width="1" height="1" fill="#4aff6c" />
<rect x="15" y="5" width="1" height="1" fill="#4aff6c" />
<rect x="19" y="5" width="1" height="1" fill="#4aff6c" />
<rect x="23" y="5" width="1" height="1" fill="#4aff6c" />
<rect x="27" y="5" width="1" height="1" fill="#4aff6c" />
<rect x="31" y="5" width="1" height="1" fill="#4aff6c" />
<rect x="35" y="5" width="1" height="1" fill="#4aff6c" />
<rect x="39" y="5" width="1" height="1" fill="#4aff6c" />
<rect x="43" y="5" width="1" height="1" fill="#4aff6c" />
<rect x="47" y="5" width="1" height="1" fill="#4aff6c" />
<rect x="51" y="5" width="1" height="1" fill="#4aff6c" />
<rect x="55" y="5" width="1" height="1" fill="#4aff6c" />
<rect x="59" y="5" width="1" height="1" fill="#4aff6c" />
<rect x="63" y="5" width="1" height="1" fill="#4aff6c" />
<rect x="8" y="6" width="1" height="1" fill="#4aff6c" />
<rect x="10" y="6" width="1" height="1" fill="#4aff6c" />
<rect x="12" y="6" width="1" height="1" fill="#4aff6c" />
<rect x="14" y="6" width="1" height="1" fill="#4aff6c" />
<rect x="16" y="6" width="1" height="1" fill="#4aff6c" />
<rect x="18" y="6" width="1" height="1" fill="#4aff6c" />
<rect x="20" y="6" width="1" height="1" fill="#4aff6c" />
<rect x="22" y="6" width="1" height="1" fill="#4aff6c" />
<rect x="24" y="6" width="1" height="1" fill="#4aff6c" />
<rect x="26" y="6" width="1" height="1" fill="#4aff6c" />
<rect x="28" y="6" width="1" height="1" fill="#4aff6c" />
<rect x="30" y="6" width="1" height="1" fill="#4aff6c" />
<rect x="32" y="6" width="1" height="1" fill="#4aff6c" />
<rect x="34" y="6" width="1" height="1" fill="#4aff6c" />
<rect x="36" y="6" width="1" height="1" fill="#4aff6c" />
<rect x="38" y="6" width="1" height="1" fill="#4aff6c" />
<rect x="40" y="6" width="1" height="1" fill="#4aff6c" />
<rect x="42" y="6" width="1" height="1" fill="#4aff6c" />
<rect x="44" y="6" width="1" height="1" fill="#4aff6c" />
<rect x="46" y="6" width="1" height="1" fill="#4aff6c" />
<rect x="48" y="6" width="1" height="1" fill="#4aff6c" />
<rect x="50" y="6" width="1" height="1" fill="#4aff6c" />
<rect x="52" y="6" width="1" height="1" fill="#4aff6c" />
<rect x="54" y="6" width="1" height="1" fill="#4aff6c" />
<rect x="56" y="6" width="1" height="1" fill="#4aff6c" />
<rect x="58" y="6" width="1" height="1" fill="#4aff6c" />
<rect x="60" y="6" width="1" height="1" fill="#4aff6c" />
<rect x="62" y="6" width="1" height="1" fill="#4aff6c" />
<rect x="64" y="6" width="1" height="1" fill="#4aff6c" />
<rect x="4" y="7" width="1" height="1" fill="#4aff6c" />
<rect x="7" y="7" width="1" height="1" fill="#4aff6c" />
<rect x="11" y="7" width="1" height="1" fill="#4aff6c" />
<rect x="15" y="7" width="1" height="1" fill="#4aff6c" />
<rect x="19" y="7" width="1" height="1" fill="#4aff6c" />
<rect x="23" y="7" width="1" height="1" fill="#4aff6c" />
<rect x="27" y="7" width="1" height="1" fill="#4aff6c" />
<rect x="31" y="7" width="1" height="1" fill="#4aff6c" />
<rect x="35" y="7" width="1" height="1" fill="#4aff6c" />
<rect x="39" y="7" width="1" height="1" fill="#4aff6c" />
<rect x="43" y="7" width="1" height="1" fill="#4aff6c" />
<rect x="47" y="7" width="1" height="1" fill="#4aff6c" />
<rect x="51" y="7" width="1" height="1" fill="#4aff6c" />
<rect x="55" y="7" width="1" height="1" fill="#4aff6c" />
<rect x="59" y="7" width="1" height="1" fill="#4aff6c" />
<rect x="63" y="7" width="1" height="1" fill="#4aff6c" />
<rect x="5" y="8" width="1" height="1" fill="#4aff6c" />
<rect x="6" y="8" width="1" height="1" fill="#4aff6c" />
<rect x="7" y="8" width="1" height="1" fill="#4aff6c" />
<rect x="6" y="9" width="1" height="1" fill="#4aff6c" />
<rect x="7" y="9" width="1" height="1" fill="#4aff6c" />
<rect x="6" y="10" width="1" height="1" fill="#4aff6c" />
<rect x="7" y="10" width="1" height="1" fill="#4aff6c" />
<rect x="7" y="11" width="1" height="1" fill="#4aff6c" />
<rect x="7" y="12" width="1" height="1" fill="#4aff6c" />
<rect x="7" y="13" width="1" height="1" fill="#4aff6c" />
<rect x="7" y="14" width="1" height="1" fill="#4aff6c" />
<rect x="7" y="15" width="1" height="1" fill="#4aff6c" />
<rect x="7" y="16" width="1" height="1" fill="#4aff6c" />
<rect x="7" y="17" width="1" height="1" fill="#4aff6c" />
<rect x="6" y="18" width="1" height="1" fill="#4aff6c" />
<rect x="7" y="18" width="1" height="1" fill="#4aff6c" />
<rect x="6" y="19" width="1" height="1" fill="#4aff6c" />
<rect x="7" y="19" width="1" height="1" fill="#4aff6c" />
<rect x="5" y="20" width="1" height="1" fill="#4aff6c" />
<rect x="6" y="20" width="1" height="1" fill="#4aff6c" />
<rect x="7" y="20" width="1" height="1" fill="#4aff6c" />
<rect x="4" y="21" width="1" height="1" fill="#4aff6c" />
<rect x="7" y="21" width="1" height="1" fill="#4aff6c" />
<rect x="11" y="21" width="1" height="1" fill="#4aff6c" />
<rect x="15" y="21" width="1" height="1" fill="#4aff6c" />
<rect x="19" y="21" width="1" height="1" fill="#4aff6c" />
<rect x="23" y="21" width="1" height="1" fill="#4aff6c" />
<rect x="27" y="21" width="1" height="1" fill="#4aff6c" />
<rect x="31" y="21" width="1" height="1" fill="#4aff6c" />
<rect x="35" y="21" width="1" height="1" fill="#4aff6c" />
<rect x="39" y="21" width="1" height="1" fill="#4aff6c" />
<rect x="43" y="21" width="1" height="1" fill="#4aff6c" />
<rect x="47" y="21" width="1" height="1" fill="#4aff6c" />
<rect x="51" y="21" width="1" height="1" fill="#4aff6c" />
<rect x="55" y="21" width="1" height="1" fill="#4aff6c" />
<rect x="59" y="21" width="1" height="1" fill="#4aff6c" />
<rect x="63" y="21" width="1" height="1" fill="#4aff6c" />
<rect x="8" y="22" width="1" height="1" fill="#4aff6c" />
<rect x="10" y="22" width="1" height="1" fill="#4aff6c" />
<rect x="12" y="22" width="1" height="1" fill="#4aff6c" />
<rect x="14" y="22" width="1" height="1" fill="#4aff6c" />
<rect x="16" y="22" width="1" height="1" fill="#4aff6c" />
<rect x="18" y="22" width="1" height="1" fill="#4aff6c" />
<rect x="20" y="22" width="1" height="1" fill="#4aff6c" />
<rect x="22" y="22" width="1" height="1" fill="#4aff6c" />
<rect x="24" y="22" width="1" height="1" fill="#4aff6c" />
<rect x="26" y="22" width="1" height="1" fill="#4aff6c" />
<rect x="28" y="22" width="1" height="1" fill="#4aff6c" />
<rect x="30" y="22" width="1" height="1" fill="#4aff6c" />
<rect x="32" y="22" width="1" height="1" fill="#4aff6c" />
<rect x="34" y="22" width="1" height="1" fill="#4aff6c" />
<rect x="36" y="22" width="1" height="1" fill="#4aff6c" />
<rect x="38" y="22" width="1" height="1" fill="#4aff6c" />
<rect x="40" y="22" width="1" height="1" fill="#4aff6c" />
<rect x="42" y="22" width="1" height="1" fill="#4aff6c" />
<rect x="44" y="22" width="1" height="1" fill="#4aff6c" />
<rect x="46" y="22" width="1" height="1" fill="#4aff6c" />
<rect x="48" y="22" width="1" height="1" fill="#4aff6c" />
<rect x="50" y="22" width="1" height="1" fill="#4aff6c" />
<rect x="52" y="22" width="1" height="1" fill="#4aff6c" />
<rect x="54" y="22" width="1" height="1" fill="#4aff6c" />
<rect x="56" y="22" width="1" height="1" fill="#4aff6c" />
<rect x="58" y="22" width="1" height="1" fill="#4aff6c" />
<rect x="60" y="22" width="1" height="1" fill="#4aff6c" />
<rect x="62" y="22" width="1" height="1" fill="#4aff6c" />
<rect x="64" y="22" width="1" height="1" fill="#4aff6c" />
<rect x="4" y="23" width="1" height="1" fill="#4aff6c" />
<rect x="7" y="23" width="1" height="1" fill="#4aff6c" />
<rect x="11" y="23" width="1" height="1" fill="#4aff6c" />
<rect x="15" y="23" width="1" height="1" fill="#4aff6c" />
<rect x="19" y="23" width="1" height="1" fill="#4aff6c" />
<rect x="23" y="23" width="1" height="1" fill="#4aff6c" />
<rect x="27" y="23" width="1" height="1" fill="#4aff6c" />
<rect x="31" y="23" width="1" height="1" fill="#4aff6c" />
<rect x="35" y="23" width="1" height="1" fill="#4aff6c" />
<rect x="39" y="23" width="1" height="1" fill="#4aff6c" />
<rect x="43" y="23" width="1" height="1" fill="#4aff6c" />
<rect x="47" y="23" width="1" height="1" fill="#4aff6c" />
<rect x="51" y="23" width="1" height="1" fill="#4aff6c" />
<rect x="55" y="23" width="1" height="1" fill="#4aff6c" />
<rect x="59" y="23" width="1" height="1" fill="#4aff6c" />
<rect x="63" y="23" width="1" height="1" fill="#4aff6c" />
<rect x="5" y="24" width="1" height="1" fill="#4aff6c" />
<rect x="6" y="24" width="1" height="1" fill="#4aff6c" />
</svg>