<?xml version="1.0" encoding="utf-8"?>
<svg xmlns="http://www.w3.org/2000/svg" width="70" height="53" viewBox="0 0 70 53">
<rect width="100%" height="100%" fill="transparent" />
<rect x="21" y="4" width="1" height="1" fill="#4aff6c" />
<rect x="22" y="4" width="1" height="1" fill="#4aff6c" />
<rect x="21" y="5" width="1" height="1" fill="#4aff6c" />
<rect x="24" y="5" width="1" height="1" fill="#4aff6c" />
<rect x="25" y="7" width="1" height="1" fill="#4aff6c" />
<rect x="5" y="9" width="1" height="1" fill="#4aff6c" />
<rect x="23" y="9" width="1" height="1" fill="#4aff6c" />
<rect x="24" y="9" width="1" height="1" fill="#4aff6c" />
<rect x="6" y="10" width="1" height="1" fill="#4aff6c" />
<rect x="22" y="10" width="1" height="1" fill="#4aff6c" />
<rect x="4" y="11" width="1" height="1" fill="#4aff6c" />
<rect x="5" y="11" width="1" height="1" fill="#4aff6c" />
<rect x="6" y="11" width="1" height="1" fill="#4aff6c" />
<rect x="19" y="13" width="1" height="1" fill="#4aff6c" />
<rect x="20" y="13" width="1" height="1" fill="#4aff6c" />
<rect x="24" y="13" width="1" height="1" fill="#4aff6c" />
<rect x="25" y="13" width="1" height="1" fill="#4aff6c" />
<rect x="19" y="14" width="1" height="1" fill="#4aff6c" />
<rect x="20" y="14" width="1" height="1" fill="#4aff6c" />
<rect x="24" y="14" width="1" height="1" fill="#4aff6c" />
<rect x="25" y="14" width="1" height="1" fill="#4aff6c" />
<rect x="20" y="15" width="1" height="1" fill="#4aff6c" />
<rect x="21" y="15" width="1" height="1" fill="#4aff6c" />
<rect x="22" y="15" width="1" height="1" fill="#4aff6c" />
<rect x="23" y="15" width="1" height="1" fill="#4aff6c" />
<rect x="24" y="15" width="1" height="1" fill="#4aff6c" />
<rect x="49" y="15" width="1" height="1" fill="#4aff6c" />
<rect x="21" y="16" width="1" height="1" fill="#4aff6c" />
<rect x="23" y="16" width="1" height="1" fill="#4aff6c" />
<rect x="48" y="16" width="1" height="1" fill="#4aff6c" />
<rect x="48" y="17" width="1" height="1" fill="#4aff6c" />
<rect x="49" y="17" width="1" height="1" fill="#4aff6c" />
<rect x="50" y="17" width="1" height="1" fill="#4aff6c" />
<rect x="21" y="18" width="1" height="1" fill="#4aff6c" />
<rect x="22" y="18" width="1" height="1" fill="#4aff6c" />
<rect x="23" y="18" width="1" height="1" fill="#4aff6c" />
<rect x="40" y="19" width="1" height="1" fill="#4aff6c" />
<rect x="42" y="19" width="1" height="1" fill="#4aff6c" />
<rect x="40" y="20" width="1" height="1" fill="#4aff6c" />
<rect x="44" y="20" width="1" height="1" fill="#4aff6c" />
<rect x="44" y="21" width="1" height="1" fill="#4aff6c" />
<rect x="52" y="21" width="1" height="1" fill="#4aff6c" />
<rect x="30" y="22" width="1" height="1" fill="#4aff6c" />
<rect x="31" y="22" width="1" height="1" fill="#4aff6c" />
<rect x="40" y="22" width="1" height="1" fill="#4aff6c" />
<rect x="45" y="22" width="1" height="1" fill="#4aff6c" />
<rect x="50" y="22" width="1" height="1" fill="#4aff6c" />
<rect x="51" y="22" width="1" height="1" fill="#4aff6c" />
<rect x="52" y="22" width="1" height="1" fill="#4aff6c" />
<rect x="53" y="22" width="1" height="1" fill="#4aff6c" />
<rect x="30" y="23" width="1" height="1" fill="#4aff6c" />
<rect x="31" y="23" width="1" height="1" fill="#4aff6c" />
<rect x="44" y="23" width="1" height="1" fill="#4aff6c" />
<rect x="49" y="23" width="1" height="1" fill="#4aff6c" />
<rect x="51" y="23" width="1" height="1" fill="#4aff6c" />
<rect x="53" y="23" width="1" height="1" fill="#4aff6c" />
<rect x="54" y="23" width="1" height="1" fill="#4aff6c" />
<rect x="25" y="24" width="1" height="1" fill="#4aff6c" />
<rect x="40" y="24" width="1" height="1" fill="#4aff6c" />
<rect x="44" y="24" width="1" height="1" fill="#4aff6c" />
<rect x="48" y="24" width="1" height="1" fill="#4aff6c" />
<rect x="51" y="24" width="1" height="1" fill="#4aff6c" />
<rect x="53" y="24" width="1" height="1" fill="#4aff6c" />
<rect x="54" y="24" width="1" height="1" fill="#4aff6c" />
<rect x="55" y="24" width="1" height="1" fill="#4aff6c" />
<rect x="64" y="24" width="1" height="1" fill="#4aff6c" />
<rect x="65" y="24" width="1" height="1" fill="#4aff6c" />
<rect x="26" y="25" width="1" height="1" fill="#4aff6c" />
<rect x="40" y="25" width="1" height="1" fill="#4aff6c" />
<rect x="42" y="25" width="1" height="1" fill="#4aff6c" />
<rect x="49" y="25" width="1" height="1" fill="#4aff6c" />
<rect x="51" y="25" width="1" height="1" fill="#4aff6c" />
<rect x="53" y="25" width="1" height="1" fill="#4aff6c" />
<rect x="54" y="25" width="1" height="1" fill="#4aff6c" />
<rect x="64" y="25" width="1" height="1" fill="#4aff6c" />
<rect x="65" y="25" width="1" height="1" fill="#4aff6c" />
<rect x="24" y="26" width="1" height="1" fill="#4aff6c" />
<rect x="25" y="26" width="1" height="1" fill="#4aff6c" />
<rect x="26" y="26" width="1" height="1" fill="#4aff6c" />
<rect x="50" y="26" width="1" height="1" fill="#4aff6c" />
<rect x="51" y="26" width="1" height="1" fill="#4aff6c" />
<rect x="52" y="26" width="1" height="1" fill="#4aff6c" />
<rect x="53" y="26" width="1" height="1" fill="#4aff6c" />
<rect x="20" y="27" width="1" height="1" fill="#4aff6c" />
<rect x="52" y="27" width="1" height="1" fill="#4aff6c" />
<rect x="19" y="28" width="1" height="1" fill="#4aff6c" />
<rect x="20" y="28" width="1" height="1" fill="#4aff6c" />
<rect x="21" y="28" width="1" height="1" fill="#4aff6c" />
<rect x="41" y="28" width="1" height="1" fill="#4aff6c" />
<rect x="18" y="29" width="1" height="1" fill="#4aff6c" />
<rect x="19" y="29" width="1" height="1" fill="#4aff6c" />
<rect x="20" y="29" width="1" height="1" fill="#4aff6c" />
<rect x="21" y="29" width="1" height="1" fill="#4aff6c" />
<rect x="22" y="29" width="1" height="1" fill="#4aff6c" />
<rect x="41" y="29" width="1" height="1" fill="#4aff6c" />
<rect x="43" y="29" width="1" height="1" fill="#4aff6c" />
<rect x="49" y="29" width="1" height="1" fill="#4aff6c" />
<rect x="17" y="30" width="1" height="1" fill="#4aff6c" />
<rect x="18" y="30" width="1" height="1" fill="#4aff6c" />
<rect x="22" y="30" width="1" height="1" fill="#4aff6c" />
<rect x="23" y="30" width="1" height="1" fill="#4aff6c" />
<rect x="41" y="30" width="1" height="1" fill="#4aff6c" />
<rect x="42" y="30" width="1" height="1" fill="#4aff6c" />
<rect x="47" y="30" width="1" height="1" fill="#4aff6c" />
<rect x="48" y="30" width="1" height="1" fill="#4aff6c" />
<rect x="49" y="30" width="1" height="1" fill="#4aff6c" />
<rect x="46" y="31" width="1" height="1" fill="#4aff6c" />
<rect x="33" y="32" width="1" height="1" fill="#4aff6c" />
<rect x="46" y="32" width="1" height="1" fill="#4aff6c" />
<rect x="47" y="32" width="1" height="1" fill="#4aff6c" />
<rect x="31" y="33" width="1" height="1" fill="#4aff6c" />
<rect x="34" y="33" width="1" height="1" fill="#4aff6c" />
<rect x="44" y="33" width="1" height="1" fill="#4aff6c" />
<rect x="45" y="33" width="1" height="1" fill="#4aff6c" />
<rect x="46" y="33" width="1" height="1" fill="#4aff6c" />
<rect x="19" y="34" width="1" height="1" fill="#4aff6c" />
<rect x="20" y="34" width="1" height="1" fill="#4aff6c" />
<rect x="21" y="34" width="1" height="1" fill="#4aff6c" />
<rect x="32" y="34" width="1" height="1" fill="#4aff6c" />
<rect x="33" y="34" width="1" height="1" fill="#4aff6c" />
<rect x="34" y="34" width="1" height="1" fill="#4aff6c" />
<rect x="44" y="34" width="1" height="1" fill="#4aff6c" />
<rect x="45" y="34" width="1" height="1" fill="#4aff6c" />
<rect x="19" y="35" width="1" height="1" fill="#4aff6c" />
<rect x="20" y="35" width="1" height="1" fill="#4aff6c" />
<rect x="21" y="35" width="1" height="1" fill="#4aff6c" />
<rect x="32" y="35" width="1" height="1" fill="#4aff6c" />
<rect x="43" y="35" width="1" height="1" fill="#4aff6c" />
<rect x="45" y="35" width="1" height="1" fill="#4aff6c" />
<rect x="33" y="36" width="1" height="1" fill="#4aff6c" />
<rect x="33" y="37" width="1" height="1" fill="#4aff6c" />
<rect x="34" y="37" width="1" height="1" fill="#4aff6c" />
<rect x="35" y="37" width="1" height="1" fill="#4aff6c" />
<rect x="20" y="38" width="1" height="1" fill="#4aff6c" />
<rect x="21" y="38" width="1" height="1" fill="#4aff6c" />
<rect x="20" y="39" width="1" height="1" fill="#4aff6c" />
<rect x="21" y="39" width="1" height="1" fill="#4aff6c" />
<rect x="25" y="40" width="1" height="1" fill="#4aff6c" />
<rect x="23" y="41" width="1" height="1" fill="#4aff6c" />
<rect x="24" y="41" width="1" height="1" fill="#4aff6c" />
<rect x="25" y="41" width="1" height="1" fill="#4aff6c" />
<rect x="26" y="41" width="1" height="1" fill="#4aff6c" />
<rect x="33" y="41" width="1" height="1" fill="#4aff6c" />
<rect x="34" y="41" width="1" height="1" fill="#4aff6c" />
<rect x="37" y="41" width="1" height="1" fill="#4aff6c" />
<rect x="38" y="41" width="1" height="1" fill="#4aff6c" />
<rect x="17" y="42" width="1" height="1" fill="#4aff6c" />
<rect x="18" y="42" width="1" height="1" fill="#4aff6c" />
<rect x="22" y="42" width="1" height="1" fill="#4aff6c" />
<rect x="24" y="42" width="1" height="1" fill="#4aff6c" />
<rect x="26" y="42" width="1" height="1" fill="#4aff6c" />
<rect x="27" y="42" width="1" height="1" fill="#4aff6c" />
<rect x="33" y="42" width="1" height="1" fill="#4aff6c" />
<rect x="34" y="42" width="1" height="1" fill="#4aff6c" />
<rect x="35" y="42" width="1" height="1" fill="#4aff6c" />
<rect x="36" y="42" width="1" height="1" fill="#4aff6c" />
<rect x="38" y="42" width="1" height="1" fill="#4aff6c" />
<rect x="41" y="42" width="1" height="1" fill="#4aff6c" />
<rect x="43" y="42" width="1" height="1" fill="#4aff6c" />
<rect x="17" y="43" width="1" height="1" fill="#4aff6c" />
<rect x="18" y="43" width="1" height="1" fill="#4aff6c" />
<rect x="21" y="43" width="1" height="1" fill="#4aff6c" />
<rect x="24" y="43" width="1" height="1" fill="#4aff6c" />
<rect x="26" y="43" width="1" height="1" fill="#4aff6c" />
<rect x="27" y="43" width="1" height="1" fill="#4aff6c" />
<rect x="28" y="43" width="1" height="1" fill="#4aff6c" />
<rect x="34" y="43" width="1" height="1" fill="#4aff6c" />
<rect x="35" y="43" width="1" height="1" fill="#4aff6c" />
<rect x="37" y="43" width="1" height="1" fill="#4aff6c" />
<rect x="41" y="43" width="1" height="1" fill="#4aff6c" />
<rect x="45" y="43" width="1" height="1" fill="#4aff6c" />
<rect x="22" y="44" width="1" height="1" fill="#4aff6c" />
<rect x="24" y="44" width="1" height="1" fill="#4aff6c" />
<rect x="26" y="44" width="1" height="1" fill="#4aff6c" />
<rect x="27" y="44" width="1" height="1" fill="#4aff6c" />
<rect x="32" y="44" width="1" height="1" fill="#4aff6c" />
<rect x="45" y="44" width="1" height="1" fill="#4aff6c" />
<rect x="51" y="44" width="1" height="1" fill="#4aff6c" />
<rect x="52" y="44" width="1" height="1" fill="#4aff6c" />
<rect x="23" y="45" width="1" height="1" fill="#4aff6c" />
<rect x="24" y="45" width="1" height="1" fill="#4aff6c" />
<rect x="25" y="45" width="1" height="1" fill="#4aff6c" />
<rect x="26" y="45" width="1" height="1" fill="#4aff6c" />
<rect x="41" y="45" width="1" height="1" fill="#4aff6c" />
<rect x="46" y="45" width="1" height="1" fill="#4aff6c" />
<rect x="51" y="45" width="1" height="1" fill="#4aff6c" />
<rect x="52" y="45" width="1" height="1" fill="#4aff6c" />
<rect x="25" y="46" width="1" height="1" fill="#4aff6c" />
<rect x="45" y="46" width="1" height="1" fill="#4aff6c" />
<rect x="41" y="47" width="1" height="1" fill="#4aff6c" />
<rect x="45" y="47" width="1" height="1" fill="#4aff6c" />
<rect x="41" y="48" width="1" height="1" fill="#4aff6c" />
<rect x="43" y="48" width="1" height="1" fill="#4aff6c" />
</svg>