<?xml version="1.0" encoding="utf-8"?>
<svg xmlns="http://www.w3.org/2000/svg" width="110" height="89" viewBox="0 0 110 89">
<rect width="100%" height="100%" fill="transparent" />
<rect x="16" y="4" width="3" height="3" fill="#4aff6c" />
<rect x="19" y="7" width="3" height="3" fill="#4aff6c" />
<rect x="13" y="10" width="3" height="3" fill="#4aff6c" />
<rect x="16" y="10" width="3" height="3" fill="#4aff6c" />
<rect x="19" y="10" width="3" height="3" fill="#4aff6c" />
<rect x="58" y="13" width="3" height="3" fill="#4aff6c" />
<rect x="52" y="16" width="3" height="3" fill="#4aff6c" />
<rect x="55" y="16" width="3" height="3" fill="#4aff6c" />
<rect x="58" y="16" width="3" height="3" fill="#4aff6c" />
<rect x="49" y="19" width="3" height="3" fill="#4aff6c" />
<rect x="49" y="22" width="3" height="3" fill="#4aff6c" />
<rect x="52" y="22" width="3" height="3" fill="#4aff6c" />
<rect x="4" y="25" width="3" height="3" fill="#4aff6c" />
<rect x="7" y="25" width="3" height="3" fill="#4aff6c" />
<rect x="7" y="28" width="3" height="3" fill="#4aff6c" />
<rect x="7" y="31" width="3" height="3" fill="#4aff6c" />
<rect x="13" y="31" width="3" height="3" fill="#4aff6c" />
<rect x="16" y="31" width="3" height="3" fill="#4aff6c" />
<rect x="10" y="34" width="3" height="3" fill="#4aff6c" />
<rect x="19" y="34" width="3" height="3" fill="#4aff6c" />
<rect x="91" y="34" width="3" height="3" fill="#4aff6c" />
<rect x="13" y="37" width="3" height="3" fill="#4aff6c" />
<rect x="16" y="37" width="3" height="3" fill="#4aff6c" />
<rect x="91" y="37" width="3" height="3" fill="#4aff6c" />
<rect x="58" y="40" width="3" height="3" fill="#4aff6c" />
<rect x="61" y="40" width="3" height="3" fill="#4aff6c" />
<rect x="91" y="40" width="3" height="3" fill="#4aff6c" />
<rect x="94" y="40" width="3" height="3" fill="#4aff6c" />
<rect x="97" y="40" width="3" height="3" fill="#4aff6c" />
<rect x="58" y="43" width="3" height="3" fill="#4aff6c" />
<rect x="61" y="43" width="3" height="3" fill="#4aff6c" />
<rect x="97" y="43" width="3" height="3" fill="#4aff6c" />
<rect x="85" y="55" width="3" height="3" fill="#4aff6c" />
<rect x="97" y="55" width="3" height="3" fill="#4aff6c" />
<rect x="100" y="55" width="3" height="3" fill="#4aff6c" />
<rect x="82" y="58" width="3" height="3" fill="#4aff6c" />
<rect x="88" y="58" width="3" height="3" fill="#4aff6c" />
<rect x="100" y="58" width="3" height="3" fill="#4aff6c" />
<rect x="79" y="61" width="3" height="3" fill="#4aff6c" />
<rect x="85" y="61" width="3" height="3" fill="#4aff6c" />
<rect x="97" y="61" width="3" height="3" fill="#4aff6c" />
<rect x="67" y="64" width="3" height="3" fill="#4aff6c" />
<rect x="70" y="64" width="3" height="3" fill="#4aff6c" />
<rect x="76" y="64" width="3" height="3" fill="#4aff6c" />
<rect x="82" y="64" width="3" height="3" fill="#4aff6c" />
<rect x="94" y="64" width="3" height="3" fill="#4aff6c" />
<rect x="67" y="67" width="3" height="3" fill="#4aff6c" />
<rect x="70" y="67" width="3" height="3" fill="#4aff6c" />
<rect x="76" y="67" width="3" height="3" fill="#4aff6c" />
<rect x="85" y="67" width="3" height="3" fill="#4aff6c" />
<rect x="88" y="67" width="3" height="3" fill="#4aff6c" />
<rect x="91" y="67" width="3" height="3" fill="#4aff6c" />
<rect x="94" y="67" width="3" height="3" fill="#4aff6c" />
<rect x="100" y="67" width="3" height="3" fill="#4aff6c" />
<rect x="79" y="70" width="3" height="3" fill="#4aff6c" />
<rect x="85" y="70" width="3" height="3" fill="#4aff6c" />
<rect x="97" y="70" width="3" height="3" fill="#4aff6c" />
<rect x="103" y="70" width="3" height="3" fill="#4aff6c" />
<rect x="67" y="73" width="3" height="3" fill="#4aff6c" />
<rect x="70" y="73" width="3" height="3" fill="#4aff6c" />
<rect x="76" y="73" width="3" height="3" fill="#4aff6c" />
<rect x="79" y="73" width="3" height="3" fill="#4aff6c" />
<rect x="88" y="73" width="3" height="3" fill="#4aff6c" />
<rect x="97" y="73" width="3" height="3" fill="#4aff6c" />
<rect x="103" y="73" width="3" height="3" fill="#4aff6c" />
<rect x="70" y="76" width="3" height="3" fill="#4aff6c" />
<rect x="76" y="76" width="3" height="3" fill="#4aff6c" />
<rect x="85" y="76" width="3" height="3" fill="#4aff6c" />
<rect x="88" y="76" width="3" height="3" fill="#4aff6c" />
<rect x="100" y="76" width="3" height="3" fill="#4aff6c" />
<rect x="34" y="79" width="3" height="3" fill="#4aff6c" />
<rect x="37" y="79" width="3" height="3" fill="#4aff6c" />
<rect x="70" y="79" width="3" height="3" fill="#4aff6c" />
<rect x="76" y="79" width="3" height="3" fill="#4aff6c" />
<rect x="34" y="82" width="3" height="3" fill="#4aff6c" />
<rect x="37" y="82" width="3" height="3" fill="#4aff6c" />
<rect x="73" y="82" width="3" height="3" fill="#4aff6c" />
</svg>