<?xml version="1.0" encoding="utf-8"?>
<svg xmlns="http://www.w3.org/2000/svg" width="102" height="56" viewBox="0 0 102 56">
<rect width="100%" height="100%" fill="transparent" />
<rect x="50" y="4" width="2" height="2" fill="#4aff6c" />
<rect x="50" y="6" width="2" height="2" fill="#4aff6c" />
<rect x="48" y="8" width="2" height="2" fill="#4aff6c" />
<rect x="52" y="8" width="2" height="2" fill="#4aff6c" />
<rect x="46" y="12" width="2" height="2" fill="#4aff6c" />
<rect x="54" y="12" width="2" height="2" fill="#4aff6c" />
<rect x="44" y="14" width="2" height="2" fill="#4aff6c" />
<rect x="46" y="14" width="2" height="2" fill="#4aff6c" />
<rect x="54" y="14" width="2" height="2" fill="#4aff6c" />
<rect x="56" y="14" width="2" height="2" fill="#4aff6c" />
<rect x="40" y="16" width="2" height="2" fill="#4aff6c" />
<rect x="42" y="16" width="2" height="2" fill="#4aff6c" />
<rect x="46" y="16" width="2" height="2" fill="#4aff6c" />
<rect x="54" y="16" width="2" height="2" fill="#4aff6c" />
<rect x="58" y="16" width="2" height="2" fill="#4aff6c" />
<rect x="60" y="16" width="2" height="2" fill="#4aff6c" />
<rect x="36" y="18" width="2" height="2" fill="#4aff6c" />
<rect x="38" y="18" width="2" height="2" fill="#4aff6c" />
<rect x="42" y="18" width="2" height="2" fill="#4aff6c" />
<rect x="46" y="18" width="2" height="2" fill="#4aff6c" />
<rect x="54" y="18" width="2" height="2" fill="#4aff6c" />
<rect x="58" y="18" width="2" height="2" fill="#4aff6c" />
<rect x="62" y="18" width="2" height="2" fill="#4aff6c" />
<rect x="64" y="18" width="2" height="2" fill="#4aff6c" />
<rect x="28" y="20" width="2" height="2" fill="#4aff6c" />
<rect x="36" y="20" width="2" height="2" fill="#4aff6c" />
<rect x="38" y="20" width="2" height="2" fill="#4aff6c" />
<rect x="40" y="20" width="2" height="2" fill="#4aff6c" />
<rect x="44" y="20" width="2" height="2" fill="#4aff6c" />
<rect x="56" y="20" width="2" height="2" fill="#4aff6c" />
<rect x="60" y="20" width="2" height="2" fill="#4aff6c" />
<rect x="62" y="20" width="2" height="2" fill="#4aff6c" />
<rect x="64" y="20" width="2" height="2" fill="#4aff6c" />
<rect x="72" y="20" width="2" height="2" fill="#4aff6c" />
<rect x="28" y="22" width="2" height="2" fill="#4aff6c" />
<rect x="30" y="22" width="2" height="2" fill="#4aff6c" />
<rect x="32" y="22" width="2" height="2" fill="#4aff6c" />
<rect x="34" y="22" width="2" height="2" fill="#4aff6c" />
<rect x="36" y="22" width="2" height="2" fill="#4aff6c" />
<rect x="38" y="22" width="2" height="2" fill="#4aff6c" />
<rect x="62" y="22" width="2" height="2" fill="#4aff6c" />
<rect x="64" y="22" width="2" height="2" fill="#4aff6c" />
<rect x="66" y="22" width="2" height="2" fill="#4aff6c" />
<rect x="68" y="22" width="2" height="2" fill="#4aff6c" />
<rect x="70" y="22" width="2" height="2" fill="#4aff6c" />
<rect x="72" y="22" width="2" height="2" fill="#4aff6c" />
<rect x="26" y="24" width="2" height="2" fill="#4aff6c" />
<rect x="32" y="24" width="2" height="2" fill="#4aff6c" />
<rect x="42" y="24" width="2" height="2" fill="#4aff6c" />
<rect x="58" y="24" width="2" height="2" fill="#4aff6c" />
<rect x="68" y="24" width="2" height="2" fill="#4aff6c" />
<rect x="74" y="24" width="2" height="2" fill="#4aff6c" />
<rect x="42" y="26" width="2" height="2" fill="#4aff6c" />
<rect x="58" y="26" width="2" height="2" fill="#4aff6c" />
<rect x="24" y="28" width="2" height="2" fill="#4aff6c" />
<rect x="26" y="28" width="2" height="2" fill="#4aff6c" />
<rect x="28" y="28" width="2" height="2" fill="#4aff6c" />
<rect x="72" y="28" width="2" height="2" fill="#4aff6c" />
<rect x="74" y="28" width="2" height="2" fill="#4aff6c" />
<rect x="76" y="28" width="2" height="2" fill="#4aff6c" />
<rect x="22" y="30" width="2" height="2" fill="#4aff6c" />
<rect x="26" y="30" width="2" height="2" fill="#4aff6c" />
<rect x="28" y="30" width="2" height="2" fill="#4aff6c" />
<rect x="72" y="30" width="2" height="2" fill="#4aff6c" />
<rect x="74" y="30" width="2" height="2" fill="#4aff6c" />
<rect x="78" y="30" width="2" height="2" fill="#4aff6c" />
<rect x="20" y="32" width="2" height="2" fill="#4aff6c" />
<rect x="26" y="32" width="2" height="2" fill="#4aff6c" />
<rect x="74" y="32" width="2" height="2" fill="#4aff6c" />
<rect x="80" y="32" width="2" height="2" fill="#4aff6c" />
<rect x="20" y="34" width="2" height="2" fill="#4aff6c" />
<rect x="80" y="34" width="2" height="2" fill="#4aff6c" />
<rect x="22" y="36" width="2" height="2" fill="#4aff6c" />
<rect x="24" y="36" width="2" height="2" fill="#4aff6c" />
<rect x="76" y="36" width="2" height="2" fill="#4aff6c" />
<rect x="78" y="36" width="2" height="2" fill="#4aff6c" />
<rect x="22" y="38" width="2" height="2" fill="#4aff6c" />
<rect x="24" y="38" width="2" height="2" fill="#4aff6c" />
<rect x="76" y="38" width="2" height="2" fill="#4aff6c" />
<rect x="78" y="38" width="2" height="2" fill="#4aff6c" />
<rect x="4" y="40" width="2" height="2" fill="#4aff6c" />
<rect x="6" y="40" width="2" height="2" fill="#4aff6c" />
<rect x="8" y="40" width="2" height="2" fill="#4aff6c" />
<rect x="22" y="40" width="2" height="2" fill="#4aff6c" />
<rect x="78" y="40" width="2" height="2" fill="#4aff6c" />
<rect x="92" y="40" width="2" height="2" fill="#4aff6c" />
<rect x="94" y="40" width="2" height="2" fill="#4aff6c" />
<rect x="96" y="40" width="2" height="2" fill="#4aff6c" />
<rect x="6" y="42" width="2" height="2" fill="#4aff6c" />
<rect x="20" y="42" width="2" height="2" fill="#4aff6c" />
<rect x="22" y="42" width="2" height="2" fill="#4aff6c" />
<rect x="24" y="42" width="2" height="2" fill="#4aff6c" />
<rect x="76" y="42" width="2" height="2" fill="#4aff6c" />
<rect x="78" y="42" width="2" height="2" fill="#4aff6c" />
<rect x="80" y="42" width="2" height="2" fill="#4aff6c" />
<rect x="94" y="42" width="2" height="2" fill="#4aff6c" />
<rect x="16" y="44" width="2" height="2" fill="#4aff6c" />
<rect x="18" y="44" width="2" height="2" fill="#4aff6c" />
<rect x="24" y="44" width="2" height="2" fill="#4aff6c" />
<rect x="76" y="44" width="2" height="2" fill="#4aff6c" />
<rect x="82" y="44" width="2" height="2" fill="#4aff6c" />
<rect x="84" y="44" width="2" height="2" fill="#4aff6c" />
<rect x="8" y="46" width="2" height="2" fill="#4aff6c" />
<rect x="10" y="46" width="2" height="2" fill="#4aff6c" />
<rect x="14" y="46" width="2" height="2" fill="#4aff6c" />
<rect x="18" y="46" width="2" height="2" fill="#4aff6c" />
<rect x="20" y="46" width="2" height="2" fill="#4aff6c" />
<rect x="22" y="46" width="2" height="2" fill="#4aff6c" />
<rect x="78" y="46" width="2" height="2" fill="#4aff6c" />
<rect x="80" y="46" width="2" height="2" fill="#4aff6c" />
<rect x="82" y="46" width="2" height="2" fill="#4aff6c" />
<rect x="86" y="46" width="2" height="2" fill="#4aff6c" />
<rect x="90" y="46" width="2" height="2" fill="#4aff6c" />
<rect x="92" y="46" width="2" height="2" fill="#4aff6c" />
<rect x="6" y="48" width="2" height="2" fill="#4aff6c" />
<rect x="14" y="48" width="2" height="2" fill="#4aff6c" />
<rect x="18" y="48" width="2" height="2" fill="#4aff6c" />
<rect x="82" y="48" width="2" height="2" fill="#4aff6c" />
<rect x="86" y="48" width="2" height="2" fill="#4aff6c" />
<rect x="94" y="48" width="2" height="2" fill="#4aff6c" />
<rect x="6" y="50" width="2" height="2" fill="#4aff6c" />
<rect x="14" y="50" width="2" height="2" fill="#4aff6c" />
<rect x="16" y="50" width="2" height="2" fill="#4aff6c" />
<rect x="84" y="50" width="2" height="2" fill="#4aff6c" />
<rect x="86" y="50" width="2" height="2" fill="#4aff6c" />
<rect x="94" y="50" width="2" height="2" fill="#4aff6c" />
</svg>