<?xml version="1.0" encoding="utf-8"?>
<svg xmlns="http://www.w3.org/2000/svg" width="124" height="40" viewBox="0 0 124 40">
<rect width="100%" height="100%" fill="transparent" />
<rect x="44" y="4" width="4" height="4" fill="#4aff6c" />
<rect x="48" y="4" width="4" height="4" fill="#4aff6c" />
<rect x="108" y="4" width="4" height="4" fill="#4aff6c" />
<rect x="44" y="8" width="4" height="4" fill="#4aff6c" />
<rect x="52" y="8" width="4" height="4" fill="#4aff6c" />
<rect x="108" y="8" width="4" height="4" fill="#4aff6c" />
<rect x="116" y="8" width="4" height="4" fill="#4aff6c" />
<rect x="44" y="12" width="4" height="4" fill="#4aff6c" />
<rect x="108" y="12" width="4" height="4" fill="#4aff6c" />
<rect x="112" y="12" width="4" height="4" fill="#4aff6c" />
<rect x="4" y="32" width="4" height="4" fill="#4aff6c" />
<rect x="52" y="32" width="4" height="4" fill="#4aff6c" />
<rect x="56" y="32" width="4" height="4" fill="#4aff6c" />
<rect x="60" y="32" width="4" height="4" fill="#4aff6c" />
<rect x="64" y="32" width="4" height="4" fill="#4aff6c" />
</svg>