<?xml version="1.0" encoding="utf-8"?>
<svg xmlns="http://www.w3.org/2000/svg" width="116" height="80" viewBox="0 0 116 80">
<rect width="100%" height="100%" fill="transparent" />
<rect x="48" y="4" width="4" height="4" fill="#4aff6c" />
<rect x="52" y="4" width="4" height="4" fill="#4aff6c" />
<rect x="48" y="8" width="4" height="4" fill="#4aff6c" />
<rect x="76" y="8" width="4" height="4" fill="#4aff6c" />
<rect x="80" y="8" width="4" height="4" fill="#4aff6c" />
<rect x="36" y="12" width="4" height="4" fill="#4aff6c" />
<rect x="40" y="12" width="4" height="4" fill="#4aff6c" />
<rect x="48" y="12" width="4" height="4" fill="#4aff6c" />
<rect x="76" y="12" width="4" height="4" fill="#4aff6c" />
<rect x="88" y="12" width="4" height="4" fill="#4aff6c" />
<rect x="36" y="16" width="4" height="4" fill="#4aff6c" />
<rect x="44" y="16" width="4" height="4" fill="#4aff6c" />
<rect x="52" y="16" width="4" height="4" fill="#4aff6c" />
<rect x="56" y="16" width="4" height="4" fill="#4aff6c" />
<rect x="64" y="16" width="4" height="4" fill="#4aff6c" />
<rect x="68" y="16" width="4" height="4" fill="#4aff6c" />
<rect x="76" y="16" width="4" height="4" fill="#4aff6c" />
<rect x="84" y="16" width="4" height="4" fill="#4aff6c" />
<rect x="88" y="16" width="4" height="4" fill="#4aff6c" />
<rect x="100" y="16" width="4" height="4" fill="#4aff6c" />
<rect x="8" y="20" width="4" height="4" fill="#4aff6c" />
<rect x="44" y="20" width="4" height="4" fill="#4aff6c" />
<rect x="56" y="20" width="4" height="4" fill="#4aff6c" />
<rect x="64" y="20" width="4" height="4" fill="#4aff6c" />
<rect x="76" y="20" width="4" height="4" fill="#4aff6c" />
<rect x="88" y="20" width="4" height="4" fill="#4aff6c" />
<rect x="96" y="20" width="4" height="4" fill="#4aff6c" />
<rect x="104" y="20" width="4" height="4" fill="#4aff6c" />
<rect x="8" y="24" width="4" height="4" fill="#4aff6c" />
<rect x="16" y="24" width="4" height="4" fill="#4aff6c" />
<rect x="40" y="24" width="4" height="4" fill="#4aff6c" />
<rect x="44" y="24" width="4" height="4" fill="#4aff6c" />
<rect x="56" y="24" width="4" height="4" fill="#4aff6c" />
<rect x="64" y="24" width="4" height="4" fill="#4aff6c" />
<rect x="72" y="24" width="4" height="4" fill="#4aff6c" />
<rect x="80" y="24" width="4" height="4" fill="#4aff6c" />
<rect x="84" y="24" width="4" height="4" fill="#4aff6c" />
<rect x="96" y="24" width="4" height="4" fill="#4aff6c" />
<rect x="108" y="24" width="4" height="4" fill="#4aff6c" />
<rect x="8" y="28" width="4" height="4" fill="#4aff6c" />
<rect x="16" y="28" width="4" height="4" fill="#4aff6c" />
<rect x="24" y="28" width="4" height="4" fill="#4aff6c" />
<rect x="60" y="28" width="4" height="4" fill="#4aff6c" />
<rect x="64" y="28" width="4" height="4" fill="#4aff6c" />
<rect x="72" y="28" width="4" height="4" fill="#4aff6c" />
<rect x="80" y="28" width="4" height="4" fill="#4aff6c" />
<rect x="88" y="28" width="4" height="4" fill="#4aff6c" />
<rect x="92" y="28" width="4" height="4" fill="#4aff6c" />
<rect x="100" y="28" width="4" height="4" fill="#4aff6c" />
<rect x="104" y="28" width="4" height="4" fill="#4aff6c" />
<rect x="32" y="32" width="4" height="4" fill="#4aff6c" />
<rect x="40" y="32" width="4" height="4" fill="#4aff6c" />
<rect x="48" y="32" width="4" height="4" fill="#4aff6c" />
<rect x="52" y="32" width="4" height="4" fill="#4aff6c" />
<rect x="56" y="32" width="4" height="4" fill="#4aff6c" />
<rect x="72" y="32" width="4" height="4" fill="#4aff6c" />
<rect x="92" y="32" width="4" height="4" fill="#4aff6c" />
<rect x="96" y="32" width="4" height="4" fill="#4aff6c" />
<rect x="12" y="36" width="4" height="4" fill="#4aff6c" />
<rect x="28" y="36" width="4" height="4" fill="#4aff6c" />
<rect x="48" y="36" width="4" height="4" fill="#4aff6c" />
<rect x="56" y="36" width="4" height="4" fill="#4aff6c" />
<rect x="60" y="36" width="4" height="4" fill="#4aff6c" />
<rect x="96" y="36" width="4" height="4" fill="#4aff6c" />
<rect x="20" y="40" width="4" height="4" fill="#4aff6c" />
<rect x="36" y="40" width="4" height="4" fill="#4aff6c" />
<rect x="40" y="40" width="4" height="4" fill="#4aff6c" />
<rect x="44" y="40" width="4" height="4" fill="#4aff6c" />
<rect x="56" y="40" width="4" height="4" fill="#4aff6c" />
<rect x="60" y="40" width="4" height="4" fill="#4aff6c" />
<rect x="68" y="40" width="4" height="4" fill="#4aff6c" />
<rect x="72" y="40" width="4" height="4" fill="#4aff6c" />
<rect x="76" y="40" width="4" height="4" fill="#4aff6c" />
<rect x="84" y="40" width="4" height="4" fill="#4aff6c" />
<rect x="92" y="40" width="4" height="4" fill="#4aff6c" />
<rect x="100" y="40" width="4" height="4" fill="#4aff6c" />
<rect x="104" y="40" width="4" height="4" fill="#4aff6c" />
<rect x="4" y="44" width="4" height="4" fill="#4aff6c" />
<rect x="8" y="44" width="4" height="4" fill="#4aff6c" />
<rect x="20" y="44" width="4" height="4" fill="#4aff6c" />
<rect x="48" y="44" width="4" height="4" fill="#4aff6c" />
<rect x="92" y="44" width="4" height="4" fill="#4aff6c" />
<rect x="100" y="44" width="4" height="4" fill="#4aff6c" />
<rect x="12" y="48" width="4" height="4" fill="#4aff6c" />
<rect x="60" y="48" width="4" height="4" fill="#4aff6c" />
<rect x="64" y="48" width="4" height="4" fill="#4aff6c" />
<rect x="72" y="48" width="4" height="4" fill="#4aff6c" />
<rect x="76" y="48" width="4" height="4" fill="#4aff6c" />
<rect x="92" y="48" width="4" height="4" fill="#4aff6c" />
<rect x="100" y="48" width="4" height="4" fill="#4aff6c" />
<rect x="36" y="52" width="4" height="4" fill="#4aff6c" />
<rect x="44" y="52" width="4" height="4" fill="#4aff6c" />
<rect x="48" y="52" width="4" height="4" fill="#4aff6c" />
<rect x="52" y="52" width="4" height="4" fill="#4aff6c" />
<rect x="56" y="52" width="4" height="4" fill="#4aff6c" />
<rect x="60" y="52" width="4" height="4" fill="#4aff6c" />
<rect x="76" y="52" width="4" height="4" fill="#4aff6c" />
<rect x="96" y="52" width="4" height="4" fill="#4aff6c" />
<rect x="36" y="56" width="4" height="4" fill="#4aff6c" />
<rect x="40" y="56" width="4" height="4" fill="#4aff6c" />
<rect x="56" y="56" width="4" height="4" fill="#4aff6c" />
<rect x="68" y="56" width="4" height="4" fill="#4aff6c" />
<rect x="80" y="56" width="4" height="4" fill="#4aff6c" />
<rect x="48" y="60" width="4" height="4" fill="#4aff6c" />
<rect x="52" y="60" width="4" height="4" fill="#4aff6c" />
<rect x="56" y="60" width="4" height="4" fill="#4aff6c" />
<rect x="60" y="60" width="4" height="4" fill="#4aff6c" />
<rect x="68" y="60" width="4" height="4" fill="#4aff6c" />
<rect x="72" y="60" width="4" height="4" fill="#4aff6c" />
<rect x="76" y="60" width="4" height="4" fill="#4aff6c" />
<rect x="36" y="64" width="4" height="4" fill="#4aff6c" />
<rect x="40" y="64" width="4" height="4" fill="#4aff6c" />
<rect x="44" y="64" width="4" height="4" fill="#4aff6c" />
<rect x="64" y="64" width="4" height="4" fill="#4aff6c" />
<rect x="36" y="68" width="4" height="4" fill="#4aff6c" />
<rect x="48" y="68" width="4" height="4" fill="#4aff6c" />
<rect x="60" y="68" width="4" height="4" fill="#4aff6c" />
<rect x="72" y="68" width="4" height="4" fill="#4aff6c" />
<rect x="76" y="68" width="4" height="4" fill="#4aff6c" />
<rect x="44" y="72" width="4" height="4" fill="#4aff6c" />
<rect x="48" y="72" width="4" height="4" fill="#4aff6c" />
<rect x="64" y="72" width="4" height="4" fill="#4aff6c" />
<rect x="68" y="72" width="4" height="4" fill="#4aff6c" />
<rect x="76" y="72" width="4" height="4" fill="#4aff6c" />
</svg>