<?xml version="1.0" encoding="utf-8"?>
<svg xmlns="http://www.w3.org/2000/svg" width="124" height="100" viewBox="0 0 124 100">
<rect width="100%" height="100%" fill="transparent" />
<rect x="36" y="4" width="4" height="4" fill="#4aff6c" />
<rect x="32" y="8" width="4" height="4" fill="#4aff6c" />
<rect x="36" y="8" width="4" height="4" fill="#4aff6c" />
<rect x="32" y="12" width="4" height="4" fill="#4aff6c" />
<rect x="40" y="12" width="4" height="4" fill="#4aff6c" />
<rect x="44" y="20" width="4" height="4" fill="#4aff6c" />
<rect x="48" y="20" width="4" height="4" fill="#4aff6c" />
<rect x="44" y="24" width="4" height="4" fill="#4aff6c" />
<rect x="48" y="24" width="4" height="4" fill="#4aff6c" />
<rect x="96" y="28" width="4" height="4" fill="#4aff6c" />
<rect x="100" y="28" width="4" height="4" fill="#4aff6c" />
<rect x="104" y="28" width="4" height="4" fill="#4aff6c" />
<rect x="8" y="32" width="4" height="4" fill="#4aff6c" />
<rect x="36" y="32" width="4" height="4" fill="#4aff6c" />
<rect x="40" y="32" width="4" height="4" fill="#4aff6c" />
<rect x="56" y="32" width="4" height="4" fill="#4aff6c" />
<rect x="96" y="32" width="4" height="4" fill="#4aff6c" />
<rect x="4" y="36" width="4" height="4" fill="#4aff6c" />
<rect x="8" y="36" width="4" height="4" fill="#4aff6c" />
<rect x="32" y="36" width="4" height="4" fill="#4aff6c" />
<rect x="44" y="36" width="4" height="4" fill="#4aff6c" />
<rect x="52" y="36" width="4" height="4" fill="#4aff6c" />
<rect x="60" y="36" width="4" height="4" fill="#4aff6c" />
<rect x="100" y="36" width="4" height="4" fill="#4aff6c" />
<rect x="4" y="40" width="4" height="4" fill="#4aff6c" />
<rect x="12" y="40" width="4" height="4" fill="#4aff6c" />
<rect x="28" y="40" width="4" height="4" fill="#4aff6c" />
<rect x="32" y="40" width="4" height="4" fill="#4aff6c" />
<rect x="40" y="40" width="4" height="4" fill="#4aff6c" />
<rect x="56" y="40" width="4" height="4" fill="#4aff6c" />
<rect x="64" y="40" width="4" height="4" fill="#4aff6c" />
<rect x="108" y="40" width="4" height="4" fill="#4aff6c" />
<rect x="112" y="40" width="4" height="4" fill="#4aff6c" />
<rect x="116" y="40" width="4" height="4" fill="#4aff6c" />
<rect x="20" y="44" width="4" height="4" fill="#4aff6c" />
<rect x="60" y="44" width="4" height="4" fill="#4aff6c" />
<rect x="68" y="44" width="4" height="4" fill="#4aff6c" />
<rect x="16" y="48" width="4" height="4" fill="#4aff6c" />
<rect x="64" y="48" width="4" height="4" fill="#4aff6c" />
<rect x="72" y="48" width="4" height="4" fill="#4aff6c" />
<rect x="96" y="48" width="4" height="4" fill="#4aff6c" />
<rect x="100" y="48" width="4" height="4" fill="#4aff6c" />
<rect x="16" y="52" width="4" height="4" fill="#4aff6c" />
<rect x="28" y="52" width="4" height="4" fill="#4aff6c" />
<rect x="68" y="52" width="4" height="4" fill="#4aff6c" />
<rect x="76" y="52" width="4" height="4" fill="#4aff6c" />
<rect x="96" y="52" width="4" height="4" fill="#4aff6c" />
<rect x="104" y="52" width="4" height="4" fill="#4aff6c" />
<rect x="112" y="52" width="4" height="4" fill="#4aff6c" />
<rect x="72" y="56" width="4" height="4" fill="#4aff6c" />
<rect x="80" y="56" width="4" height="4" fill="#4aff6c" />
<rect x="96" y="56" width="4" height="4" fill="#4aff6c" />
<rect x="112" y="56" width="4" height="4" fill="#4aff6c" />
<rect x="116" y="56" width="4" height="4" fill="#4aff6c" />
<rect x="76" y="60" width="4" height="4" fill="#4aff6c" />
<rect x="100" y="60" width="4" height="4" fill="#4aff6c" />
<rect x="80" y="64" width="4" height="4" fill="#4aff6c" />
<rect x="92" y="64" width="4" height="4" fill="#4aff6c" />
<rect x="96" y="64" width="4" height="4" fill="#4aff6c" />
<rect x="108" y="64" width="4" height="4" fill="#4aff6c" />
<rect x="88" y="68" width="4" height="4" fill="#4aff6c" />
<rect x="96" y="68" width="4" height="4" fill="#4aff6c" />
<rect x="100" y="68" width="4" height="4" fill="#4aff6c" />
<rect x="104" y="68" width="4" height="4" fill="#4aff6c" />
<rect x="108" y="68" width="4" height="4" fill="#4aff6c" />
<rect x="92" y="72" width="4" height="4" fill="#4aff6c" />
<rect x="96" y="72" width="4" height="4" fill="#4aff6c" />
<rect x="100" y="72" width="4" height="4" fill="#4aff6c" />
<rect x="116" y="72" width="4" height="4" fill="#4aff6c" />
<rect x="108" y="76" width="4" height="4" fill="#4aff6c" />
<rect x="112" y="76" width="4" height="4" fill="#4aff6c" />
<rect x="112" y="80" width="4" height="4" fill="#4aff6c" />
<rect x="112" y="84" width="4" height="4" fill="#4aff6c" />
<rect x="116" y="84" width="4" height="4" fill="#4aff6c" />
<rect x="108" y="88" width="4" height="4" fill="#4aff6c" />
<rect x="112" y="92" width="4" height="4" fill="#4aff6c" />
<rect x="116" y="92" width="4" height="4" fill="#4aff6c" />
</svg>