<?xml version="1.0" encoding="utf-8"?>
<svg xmlns="http://www.w3.org/2000/svg" width="86" height="116" viewBox="0 0 86 116">
<rect width="100%" height="100%" fill="transparent" />
<rect x="16" y="4" width="6" height="6" fill="#4aff6c" />
<rect x="22" y="4" width="6" height="6" fill="#4aff6c" />
<rect x="16" y="10" width="6" height="6" fill="#4aff6c" />
<rect x="22" y="10" width="6" height="6" fill="#4aff6c" />
<rect x="10" y="16" width="6" height="6" fill="#4aff6c" />
<rect x="28" y="16" width="6" height="6" fill="#4aff6c" />
<rect x="4" y="22" width="6" height="6" fill="#4aff6c" />
<rect x="16" y="22" width="6" height="6" fill="#4aff6c" />
<rect x="22" y="22" width="6" height="6" fill="#4aff6c" />
<rect x="4" y="28" width="6" height="6" fill="#4aff6c" />
<rect x="16" y="28" width="6" height="6" fill="#4aff6c" />
<rect x="22" y="28" width="6" height="6" fill="#4aff6c" />
<rect x="4" y="34" width="6" height="6" fill="#4aff6c" />
<rect x="22" y="34" width="6" height="6" fill="#4aff6c" />
<rect x="28" y="40" width="6" height="6" fill="#4aff6c" />
<rect x="4" y="46" width="6" height="6" fill="#4aff6c" />
<rect x="28" y="46" width="6" height="6" fill="#4aff6c" />
<rect x="64" y="46" width="6" height="6" fill="#4aff6c" />
<rect x="10" y="52" width="6" height="6" fill="#4aff6c" />
<rect x="16" y="52" width="6" height="6" fill="#4aff6c" />
<rect x="22" y="52" width="6" height="6" fill="#4aff6c" />
<rect x="28" y="52" width="6" height="6" fill="#4aff6c" />
<rect x="58" y="52" width="6" height="6" fill="#4aff6c" />
<rect x="64" y="52" width="6" height="6" fill="#4aff6c" />
<rect x="70" y="52" width="6" height="6" fill="#4aff6c" />
<rect x="52" y="58" width="6" height="6" fill="#4aff6c" />
<rect x="76" y="58" width="6" height="6" fill="#4aff6c" />
<rect x="52" y="64" width="6" height="6" fill="#4aff6c" />
<rect x="58" y="64" width="6" height="6" fill="#4aff6c" />
<rect x="70" y="64" width="6" height="6" fill="#4aff6c" />
<rect x="76" y="64" width="6" height="6" fill="#4aff6c" />
<rect x="52" y="70" width="6" height="6" fill="#4aff6c" />
<rect x="58" y="70" width="6" height="6" fill="#4aff6c" />
<rect x="70" y="70" width="6" height="6" fill="#4aff6c" />
<rect x="76" y="70" width="6" height="6" fill="#4aff6c" />
<rect x="52" y="82" width="6" height="6" fill="#4aff6c" />
<rect x="58" y="82" width="6" height="6" fill="#4aff6c" />
<rect x="70" y="82" width="6" height="6" fill="#4aff6c" />
<rect x="76" y="82" width="6" height="6" fill="#4aff6c" />
<rect x="52" y="88" width="6" height="6" fill="#4aff6c" />
<rect x="58" y="88" width="6" height="6" fill="#4aff6c" />
<rect x="70" y="88" width="6" height="6" fill="#4aff6c" />
<rect x="76" y="88" width="6" height="6" fill="#4aff6c" />
<rect x="52" y="94" width="6" height="6" fill="#4aff6c" />
<rect x="76" y="94" width="6" height="6" fill="#4aff6c" />
<rect x="58" y="100" width="6" height="6" fill="#4aff6c" />
<rect x="64" y="100" width="6" height="6" fill="#4aff6c" />
<rect x="70" y="100" width="6" height="6" fill="#4aff6c" />
<rect x="64" y="106" width="6" height="6" fill="#4aff6c" />
</svg>