<?xml version="1.0" encoding="utf-8"?>
<svg xmlns="http://www.w3.org/2000/svg" width="128" height="128" viewBox="0 0 128 128">
<rect width="100%" height="100%" fill="transparent" />
<rect x="39" y="4" width="5" height="5" fill="#4aff6c" />
<rect x="44" y="4" width="5" height="5" fill="#4aff6c" />
<rect x="64" y="4" width="5" height="5" fill="#4aff6c" />
<rect x="69" y="4" width="5" height="5" fill="#4aff6c" />
<rect x="34" y="9" width="5" height="5" fill="#4aff6c" />
<rect x="74" y="9" width="5" height="5" fill="#4aff6c" />
<rect x="49" y="14" width="5" height="5" fill="#4aff6c" />
<rect x="59" y="14" width="5" height="5" fill="#4aff6c" />
<rect x="39" y="19" width="5" height="5" fill="#4aff6c" />
<rect x="44" y="19" width="5" height="5" fill="#4aff6c" />
<rect x="64" y="19" width="5" height="5" fill="#4aff6c" />
<rect x="69" y="19" width="5" height="5" fill="#4aff6c" />
<rect x="109" y="39" width="5" height="5" fill="#4aff6c" />
<rect x="114" y="39" width="5" height="5" fill="#4aff6c" />
<rect x="119" y="39" width="5" height="5" fill="#4aff6c" />
<rect x="104" y="44" width="5" height="5" fill="#4aff6c" />
<rect x="109" y="44" width="5" height="5" fill="#4aff6c" />
<rect x="114" y="44" width="5" height="5" fill="#4aff6c" />
<rect x="69" y="49" width="5" height="5" fill="#4aff6c" />
<rect x="4" y="54" width="5" height="5" fill="#4aff6c" />
<rect x="9" y="54" width="5" height="5" fill="#4aff6c" />
<rect x="14" y="54" width="5" height="5" fill="#4aff6c" />
<rect x="64" y="54" width="5" height="5" fill="#4aff6c" />
<rect x="69" y="54" width="5" height="5" fill="#4aff6c" />
<rect x="74" y="54" width="5" height="5" fill="#4aff6c" />
<rect x="9" y="59" width="5" height="5" fill="#4aff6c" />
<rect x="14" y="59" width="5" height="5" fill="#4aff6c" />
<rect x="19" y="59" width="5" height="5" fill="#4aff6c" />
<rect x="104" y="64" width="5" height="5" fill="#4aff6c" />
<rect x="109" y="64" width="5" height="5" fill="#4aff6c" />
<rect x="114" y="64" width="5" height="5" fill="#4aff6c" />
<rect x="109" y="69" width="5" height="5" fill="#4aff6c" />
<rect x="114" y="69" width="5" height="5" fill="#4aff6c" />
<rect x="119" y="69" width="5" height="5" fill="#4aff6c" />
<rect x="9" y="79" width="5" height="5" fill="#4aff6c" />
<rect x="14" y="79" width="5" height="5" fill="#4aff6c" />
<rect x="19" y="79" width="5" height="5" fill="#4aff6c" />
<rect x="4" y="84" width="5" height="5" fill="#4aff6c" />
<rect x="9" y="84" width="5" height="5" fill="#4aff6c" />
<rect x="14" y="84" width="5" height="5" fill="#4aff6c" />
<rect x="64" y="84" width="5" height="5" fill="#4aff6c" />
<rect x="69" y="84" width="5" height="5" fill="#4aff6c" />
<rect x="74" y="84" width="5" height="5" fill="#4aff6c" />
<rect x="69" y="89" width="5" height="5" fill="#4aff6c" />
<rect x="54" y="104" width="5" height="5" fill="#4aff6c" />
<rect x="59" y="104" width="5" height="5" fill="#4aff6c" />
<rect x="79" y="104" width="5" height="5" fill="#4aff6c" />
<rect x="84" y="104" width="5" height="5" fill="#4aff6c" />
<rect x="64" y="109" width="5" height="5" fill="#4aff6c" />
<rect x="74" y="109" width="5" height="5" fill="#4aff6c" />
<rect x="49" y="114" width="5" height="5" fill="#4aff6c" />
<rect x="89" y="114" width="5" height="5" fill="#4aff6c" />
<rect x="54" y="119" width="5" height="5" fill="#4aff6c" />
<rect x="59" y="119" width="5" height="5" fill="#4aff6c" />
<rect x="79" y="119" width="5" height="5" fill="#4aff6c" />
<rect x="84" y="119" width="5" height="5" fill="#4aff6c" />
</svg>