<?xml version="1.0" encoding="utf-8"?>
<svg xmlns="http://www.w3.org/2000/svg" width="69" height="53" viewBox="0 0 69 53">
<rect width="100%" height="100%" fill="transparent" />
<rect x="59" y="4" width="1" height="1" fill="#4aff6c" />
<rect x="59" y="5" width="1" height="1" fill="#4aff6c" />
<rect x="60" y="5" width="1" height="1" fill="#4aff6c" />
<rect x="57" y="6" width="1" height="1" fill="#4aff6c" />
<rect x="60" y="6" width="1" height="1" fill="#4aff6c" />
<rect x="56" y="7" width="1" height="1" fill="#4aff6c" />
<rect x="53" y="8" width="1" height="1" fill="#4aff6c" />
<rect x="54" y="8" width="1" height="1" fill="#4aff6c" />
<rect x="57" y="8" width="1" height="1" fill="#4aff6c" />
<rect x="52" y="9" width="1" height="1" fill="#4aff6c" />
<rect x="55" y="9" width="1" height="1" fill="#4aff6c" />
<rect x="53" y="10" width="1" height="1" fill="#4aff6c" />
<rect x="49" y="11" width="1" height="1" fill="#4aff6c" />
<rect x="53" y="11" width="1" height="1" fill="#4aff6c" />
<rect x="54" y="11" width="1" height="1" fill="#4aff6c" />
<rect x="48" y="12" width="1" height="1" fill="#4aff6c" />
<rect x="50" y="12" width="1" height="1" fill="#4aff6c" />
<rect x="51" y="12" width="1" height="1" fill="#4aff6c" />
<rect x="47" y="13" width="1" height="1" fill="#4aff6c" />
<rect x="48" y="13" width="1" height="1" fill="#4aff6c" />
<rect x="51" y="13" width="1" height="1" fill="#4aff6c" />
<rect x="47" y="14" width="1" height="1" fill="#4aff6c" />
<rect x="48" y="14" width="1" height="1" fill="#4aff6c" />
<rect x="50" y="14" width="1" height="1" fill="#4aff6c" />
<rect x="51" y="14" width="1" height="1" fill="#4aff6c" />
<rect x="47" y="15" width="1" height="1" fill="#4aff6c" />
<rect x="50" y="15" width="1" height="1" fill="#4aff6c" />
<rect x="53" y="15" width="1" height="1" fill="#4aff6c" />
<rect x="54" y="15" width="1" height="1" fill="#4aff6c" />
<rect x="46" y="16" width="1" height="1" fill="#4aff6c" />
<rect x="47" y="16" width="1" height="1" fill="#4aff6c" />
<rect x="54" y="16" width="1" height="1" fill="#4aff6c" />
<rect x="55" y="16" width="1" height="1" fill="#4aff6c" />
<rect x="47" y="17" width="1" height="1" fill="#4aff6c" />
<rect x="49" y="17" width="1" height="1" fill="#4aff6c" />
<rect x="50" y="17" width="1" height="1" fill="#4aff6c" />
<rect x="52" y="17" width="1" height="1" fill="#4aff6c" />
<rect x="54" y="17" width="1" height="1" fill="#4aff6c" />
<rect x="55" y="17" width="1" height="1" fill="#4aff6c" />
<rect x="46" y="18" width="1" height="1" fill="#4aff6c" />
<rect x="48" y="18" width="1" height="1" fill="#4aff6c" />
<rect x="49" y="18" width="1" height="1" fill="#4aff6c" />
<rect x="50" y="18" width="1" height="1" fill="#4aff6c" />
<rect x="52" y="18" width="1" height="1" fill="#4aff6c" />
<rect x="46" y="19" width="1" height="1" fill="#4aff6c" />
<rect x="48" y="19" width="1" height="1" fill="#4aff6c" />
<rect x="50" y="19" width="1" height="1" fill="#4aff6c" />
<rect x="52" y="19" width="1" height="1" fill="#4aff6c" />
<rect x="44" y="21" width="1" height="1" fill="#4aff6c" />
<rect x="48" y="21" width="1" height="1" fill="#4aff6c" />
<rect x="43" y="22" width="1" height="1" fill="#4aff6c" />
<rect x="44" y="22" width="1" height="1" fill="#4aff6c" />
<rect x="41" y="23" width="1" height="1" fill="#4aff6c" />
<rect x="42" y="23" width="1" height="1" fill="#4aff6c" />
<rect x="43" y="23" width="1" height="1" fill="#4aff6c" />
<rect x="46" y="23" width="1" height="1" fill="#4aff6c" />
<rect x="38" y="24" width="1" height="1" fill="#4aff6c" />
<rect x="39" y="24" width="1" height="1" fill="#4aff6c" />
<rect x="41" y="24" width="1" height="1" fill="#4aff6c" />
<rect x="42" y="24" width="1" height="1" fill="#4aff6c" />
<rect x="39" y="25" width="1" height="1" fill="#4aff6c" />
<rect x="40" y="26" width="1" height="1" fill="#4aff6c" />
<rect x="42" y="26" width="1" height="1" fill="#4aff6c" />
<rect x="39" y="27" width="1" height="1" fill="#4aff6c" />
<rect x="39" y="28" width="1" height="1" fill="#4aff6c" />
<rect x="42" y="28" width="1" height="1" fill="#4aff6c" />
<rect x="38" y="29" width="1" height="1" fill="#4aff6c" />
<rect x="41" y="30" width="1" height="1" fill="#4aff6c" />
<rect x="38" y="31" width="1" height="1" fill="#4aff6c" />
<rect x="39" y="31" width="1" height="1" fill="#4aff6c" />
<rect x="40" y="31" width="1" height="1" fill="#4aff6c" />
<rect x="41" y="31" width="1" height="1" fill="#4aff6c" />
<rect x="36" y="32" width="1" height="1" fill="#4aff6c" />
<rect x="38" y="32" width="1" height="1" fill="#4aff6c" />
<rect x="39" y="32" width="1" height="1" fill="#4aff6c" />
<rect x="41" y="32" width="1" height="1" fill="#4aff6c" />
<rect x="41" y="33" width="1" height="1" fill="#4aff6c" />
<rect x="36" y="34" width="1" height="1" fill="#4aff6c" />
<rect x="37" y="35" width="1" height="1" fill="#4aff6c" />
<rect x="40" y="35" width="1" height="1" fill="#4aff6c" />
<rect x="39" y="36" width="1" height="1" fill="#4aff6c" />
<rect x="29" y="37" width="1" height="1" fill="#4aff6c" />
<rect x="34" y="37" width="1" height="1" fill="#4aff6c" />
<rect x="35" y="37" width="1" height="1" fill="#4aff6c" />
<rect x="36" y="37" width="1" height="1" fill="#4aff6c" />
<rect x="57" y="37" width="1" height="1" fill="#4aff6c" />
<rect x="58" y="37" width="1" height="1" fill="#4aff6c" />
<rect x="59" y="37" width="1" height="1" fill="#4aff6c" />
<rect x="4" y="38" width="1" height="1" fill="#4aff6c" />
<rect x="5" y="38" width="1" height="1" fill="#4aff6c" />
<rect x="28" y="38" width="1" height="1" fill="#4aff6c" />
<rect x="30" y="38" width="1" height="1" fill="#4aff6c" />
<rect x="31" y="38" width="1" height="1" fill="#4aff6c" />
<rect x="32" y="38" width="1" height="1" fill="#4aff6c" />
<rect x="37" y="38" width="1" height="1" fill="#4aff6c" />
<rect x="60" y="38" width="1" height="1" fill="#4aff6c" />
<rect x="64" y="38" width="1" height="1" fill="#4aff6c" />
<rect x="6" y="39" width="1" height="1" fill="#4aff6c" />
<rect x="7" y="39" width="1" height="1" fill="#4aff6c" />
<rect x="9" y="39" width="1" height="1" fill="#4aff6c" />
<rect x="10" y="39" width="1" height="1" fill="#4aff6c" />
<rect x="28" y="39" width="1" height="1" fill="#4aff6c" />
<rect x="31" y="39" width="1" height="1" fill="#4aff6c" />
<rect x="36" y="39" width="1" height="1" fill="#4aff6c" />
<rect x="57" y="39" width="1" height="1" fill="#4aff6c" />
<rect x="61" y="39" width="1" height="1" fill="#4aff6c" />
<rect x="6" y="40" width="1" height="1" fill="#4aff6c" />
<rect x="7" y="40" width="1" height="1" fill="#4aff6c" />
<rect x="11" y="40" width="1" height="1" fill="#4aff6c" />
<rect x="12" y="40" width="1" height="1" fill="#4aff6c" />
<rect x="14" y="40" width="1" height="1" fill="#4aff6c" />
<rect x="15" y="40" width="1" height="1" fill="#4aff6c" />
<rect x="31" y="40" width="1" height="1" fill="#4aff6c" />
<rect x="34" y="40" width="1" height="1" fill="#4aff6c" />
<rect x="51" y="40" width="1" height="1" fill="#4aff6c" />
<rect x="52" y="40" width="1" height="1" fill="#4aff6c" />
<rect x="54" y="40" width="1" height="1" fill="#4aff6c" />
<rect x="58" y="40" width="1" height="1" fill="#4aff6c" />
<rect x="60" y="40" width="1" height="1" fill="#4aff6c" />
<rect x="61" y="40" width="1" height="1" fill="#4aff6c" />
<rect x="62" y="40" width="1" height="1" fill="#4aff6c" />
<rect x="63" y="40" width="1" height="1" fill="#4aff6c" />
<rect x="4" y="41" width="1" height="1" fill="#4aff6c" />
<rect x="5" y="41" width="1" height="1" fill="#4aff6c" />
<rect x="11" y="41" width="1" height="1" fill="#4aff6c" />
<rect x="12" y="41" width="1" height="1" fill="#4aff6c" />
<rect x="16" y="41" width="1" height="1" fill="#4aff6c" />
<rect x="17" y="41" width="1" height="1" fill="#4aff6c" />
<rect x="19" y="41" width="1" height="1" fill="#4aff6c" />
<rect x="20" y="41" width="1" height="1" fill="#4aff6c" />
<rect x="30" y="41" width="1" height="1" fill="#4aff6c" />
<rect x="31" y="41" width="1" height="1" fill="#4aff6c" />
<rect x="33" y="41" width="1" height="1" fill="#4aff6c" />
<rect x="34" y="41" width="1" height="1" fill="#4aff6c" />
<rect x="35" y="41" width="1" height="1" fill="#4aff6c" />
<rect x="39" y="41" width="1" height="1" fill="#4aff6c" />
<rect x="40" y="41" width="1" height="1" fill="#4aff6c" />
<rect x="43" y="41" width="1" height="1" fill="#4aff6c" />
<rect x="44" y="41" width="1" height="1" fill="#4aff6c" />
<rect x="46" y="41" width="1" height="1" fill="#4aff6c" />
<rect x="47" y="41" width="1" height="1" fill="#4aff6c" />
<rect x="48" y="41" width="1" height="1" fill="#4aff6c" />
<rect x="50" y="41" width="1" height="1" fill="#4aff6c" />
<rect x="55" y="41" width="1" height="1" fill="#4aff6c" />
<rect x="61" y="41" width="1" height="1" fill="#4aff6c" />
<rect x="64" y="41" width="1" height="1" fill="#4aff6c" />
<rect x="9" y="42" width="1" height="1" fill="#4aff6c" />
<rect x="10" y="42" width="1" height="1" fill="#4aff6c" />
<rect x="16" y="42" width="1" height="1" fill="#4aff6c" />
<rect x="17" y="42" width="1" height="1" fill="#4aff6c" />
<rect x="21" y="42" width="1" height="1" fill="#4aff6c" />
<rect x="22" y="42" width="1" height="1" fill="#4aff6c" />
<rect x="24" y="42" width="1" height="1" fill="#4aff6c" />
<rect x="25" y="42" width="1" height="1" fill="#4aff6c" />
<rect x="32" y="42" width="1" height="1" fill="#4aff6c" />
<rect x="34" y="42" width="1" height="1" fill="#4aff6c" />
<rect x="35" y="42" width="1" height="1" fill="#4aff6c" />
<rect x="38" y="42" width="1" height="1" fill="#4aff6c" />
<rect x="40" y="42" width="1" height="1" fill="#4aff6c" />
<rect x="43" y="42" width="1" height="1" fill="#4aff6c" />
<rect x="44" y="42" width="1" height="1" fill="#4aff6c" />
<rect x="45" y="42" width="1" height="1" fill="#4aff6c" />
<rect x="47" y="42" width="1" height="1" fill="#4aff6c" />
<rect x="48" y="42" width="1" height="1" fill="#4aff6c" />
<rect x="50" y="42" width="1" height="1" fill="#4aff6c" />
<rect x="52" y="42" width="1" height="1" fill="#4aff6c" />
<rect x="56" y="42" width="1" height="1" fill="#4aff6c" />
<rect x="63" y="42" width="1" height="1" fill="#4aff6c" />
<rect x="14" y="43" width="1" height="1" fill="#4aff6c" />
<rect x="15" y="43" width="1" height="1" fill="#4aff6c" />
<rect x="21" y="43" width="1" height="1" fill="#4aff6c" />
<rect x="22" y="43" width="1" height="1" fill="#4aff6c" />
<rect x="26" y="43" width="1" height="1" fill="#4aff6c" />
<rect x="27" y="43" width="1" height="1" fill="#4aff6c" />
<rect x="29" y="43" width="1" height="1" fill="#4aff6c" />
<rect x="33" y="43" width="1" height="1" fill="#4aff6c" />
<rect x="38" y="43" width="1" height="1" fill="#4aff6c" />
<rect x="40" y="43" width="1" height="1" fill="#4aff6c" />
<rect x="42" y="43" width="1" height="1" fill="#4aff6c" />
<rect x="45" y="43" width="1" height="1" fill="#4aff6c" />
<rect x="46" y="43" width="1" height="1" fill="#4aff6c" />
<rect x="49" y="43" width="1" height="1" fill="#4aff6c" />
<rect x="52" y="43" width="1" height="1" fill="#4aff6c" />
<rect x="56" y="43" width="1" height="1" fill="#4aff6c" />
<rect x="57" y="43" width="1" height="1" fill="#4aff6c" />
<rect x="58" y="43" width="1" height="1" fill="#4aff6c" />
<rect x="59" y="43" width="1" height="1" fill="#4aff6c" />
<rect x="19" y="44" width="1" height="1" fill="#4aff6c" />
<rect x="20" y="44" width="1" height="1" fill="#4aff6c" />
<rect x="26" y="44" width="1" height="1" fill="#4aff6c" />
<rect x="27" y="44" width="1" height="1" fill="#4aff6c" />
<rect x="30" y="44" width="1" height="1" fill="#4aff6c" />
<rect x="32" y="44" width="1" height="1" fill="#4aff6c" />
<rect x="34" y="44" width="1" height="1" fill="#4aff6c" />
<rect x="35" y="44" width="1" height="1" fill="#4aff6c" />
<rect x="38" y="44" width="1" height="1" fill="#4aff6c" />
<rect x="41" y="44" width="1" height="1" fill="#4aff6c" />
<rect x="24" y="45" width="1" height="1" fill="#4aff6c" />
<rect x="25" y="45" width="1" height="1" fill="#4aff6c" />
<rect x="37" y="45" width="1" height="1" fill="#4aff6c" />
<rect x="42" y="45" width="1" height="1" fill="#4aff6c" />
<rect x="53" y="45" width="1" height="1" fill="#4aff6c" />
<rect x="54" y="45" width="1" height="1" fill="#4aff6c" />
<rect x="58" y="45" width="1" height="1" fill="#4aff6c" />
<rect x="59" y="45" width="1" height="1" fill="#4aff6c" />
<rect x="43" y="46" width="1" height="1" fill="#4aff6c" />
<rect x="54" y="46" width="1" height="1" fill="#4aff6c" />
<rect x="40" y="47" width="1" height="1" fill="#4aff6c" />
<rect x="40" y="48" width="1" height="1" fill="#4aff6c" />
<rect x="41" y="48" width="1" height="1" fill="#4aff6c" />
</svg>