<?xml version="1.0" encoding="utf-8"?>
<svg xmlns="http://www.w3.org/2000/svg" width="116" height="56" viewBox="0 0 116 56">
<rect width="100%" height="100%" fill="transparent" />
<rect x="49" y="4" width="3" height="3" fill="hsl(20, 90%, 50%)" />
<rect x="55" y="4" width="3" height="3" fill="hsl(20, 90%, 50%)" />
<rect x="103" y="4" width="3" height="3" fill="hsl(20, 90%, 50%)" />
<rect x="49" y="7" width="3" height="3" fill="hsl(20, 90%, 50%)" />
<rect x="52" y="7" width="3" height="3" fill="hsl(20, 90%, 50%)" />
<rect x="100" y="7" width="3" height="3" fill="hsl(20, 90%, 50%)" />
<rect x="106" y="7" width="3" height="3" fill="hsl(20, 90%, 50%)" />
<rect x="52" y="10" width="3" height="3" fill="hsl(20, 90%, 50%)" />
<rect x="100" y="10" width="3" height="3" fill="hsl(20, 90%, 50%)" />
<rect x="109" y="10" width="3" height="3" fill="hsl(20, 90%, 50%)" />
<rect x="103" y="13" width="3" height="3" fill="hsl(20, 90%, 50%)" />
<rect x="106" y="13" width="3" height="3" fill="hsl(20, 90%, 50%)" />
<rect x="4" y="40" width="3" height="3" fill="hsl(20, 90%, 50%)" />
<rect x="4" y="43" width="3" height="3" fill="hsl(20, 90%, 50%)" />
<rect x="10" y="43" width="3" height="3" fill="hsl(20, 90%, 50%)" />
<rect x="4" y="46" width="3" height="3" fill="hsl(20, 90%, 50%)" />
<rect x="7" y="46" width="3" height="3" fill="hsl(20, 90%, 50%)" />
<rect x="10" y="46" width="3" height="3" fill="hsl(20, 90%, 50%)" />
<rect x="10" y="49" width="3" height="3" fill="hsl(20, 90%, 50%)" />
</svg>