<?xml version="1.0" encoding="utf-8"?>
<svg xmlns="http://www.w3.org/2000/svg" width="98" height="66" viewBox="0 0 98 66">
<rect width="100%" height="100%" fill="transparent" />
<rect x="4" y="4" width="2" height="2" fill="hsl(20, 90%, 50%)" />
<rect x="8" y="4" width="2" height="2" fill="hsl(20, 90%, 50%)" />
<rect x="6" y="6" width="2" height="2" fill="hsl(20, 90%, 50%)" />
<rect x="8" y="6" width="2" height="2" fill="hsl(20, 90%, 50%)" />
<rect x="6" y="8" width="2" height="2" fill="hsl(20, 90%, 50%)" />
<rect x="38" y="52" width="2" height="2" fill="hsl(20, 90%, 50%)" />
<rect x="34" y="54" width="2" height="2" fill="hsl(20, 90%, 50%)" />
<rect x="38" y="54" width="2" height="2" fill="hsl(20, 90%, 50%)" />
<rect x="44" y="54" width="2" height="2" fill="hsl(20, 90%, 50%)" />
<rect x="36" y="56" width="2" height="2" fill="hsl(20, 90%, 50%)" />
<rect x="38" y="56" width="2" height="2" fill="hsl(20, 90%, 50%)" />
<rect x="44" y="56" width="2" height="2" fill="hsl(20, 90%, 50%)" />
<rect x="48" y="56" width="2" height="2" fill="hsl(20, 90%, 50%)" />
<rect x="90" y="56" width="2" height="2" fill="hsl(20, 90%, 50%)" />
<rect x="44" y="58" width="2" height="2" fill="hsl(20, 90%, 50%)" />
<rect x="46" y="58" width="2" height="2" fill="hsl(20, 90%, 50%)" />
<rect x="88" y="58" width="2" height="2" fill="hsl(20, 90%, 50%)" />
<rect x="90" y="58" width="2" height="2" fill="hsl(20, 90%, 50%)" />
<rect x="88" y="60" width="2" height="2" fill="hsl(20, 90%, 50%)" />
<rect x="92" y="60" width="2" height="2" fill="hsl(20, 90%, 50%)" />
</svg>