<?xml version="1.0" encoding="utf-8"?>
<svg xmlns="http://www.w3.org/2000/svg" width="120" height="84" viewBox="0 0 120 84">
<rect width="100%" height="100%" fill="transparent" />
<rect x="4" y="4" width="4" height="4" fill="hsl(20, 90%, 50%)" />
<rect x="8" y="4" width="4" height="4" fill="hsl(20, 90%, 50%)" />
<rect x="108" y="4" width="4" height="4" fill="hsl(20, 90%, 50%)" />
<rect x="112" y="4" width="4" height="4" fill="hsl(20, 90%, 50%)" />
<rect x="4" y="8" width="4" height="4" fill="hsl(20, 90%, 50%)" />
<rect x="8" y="8" width="4" height="4" fill="hsl(20, 90%, 50%)" />
<rect x="108" y="8" width="4" height="4" fill="hsl(20, 90%, 50%)" />
<rect x="112" y="8" width="4" height="4" fill="hsl(20, 90%, 50%)" />
<rect x="76" y="12" width="4" height="4" fill="hsl(20, 90%, 50%)" />
<rect x="80" y="12" width="4" height="4" fill="hsl(20, 90%, 50%)" />
<rect x="72" y="16" width="4" height="4" fill="hsl(20, 90%, 50%)" />
<rect x="84" y="16" width="4" height="4" fill="hsl(20, 90%, 50%)" />
<rect x="76" y="20" width="4" height="4" fill="hsl(20, 90%, 50%)" />
<rect x="80" y="20" width="4" height="4" fill="hsl(20, 90%, 50%)" />
<rect x="60" y="24" width="4" height="4" fill="hsl(20, 90%, 50%)" />
<rect x="56" y="28" width="4" height="4" fill="hsl(20, 90%, 50%)" />
<rect x="64" y="28" width="4" height="4" fill="hsl(20, 90%, 50%)" />
<rect x="52" y="32" width="4" height="4" fill="hsl(20, 90%, 50%)" />
<rect x="68" y="32" width="4" height="4" fill="hsl(20, 90%, 50%)" />
<rect x="52" y="36" width="4" height="4" fill="hsl(20, 90%, 50%)" />
<rect x="64" y="36" width="4" height="4" fill="hsl(20, 90%, 50%)" />
<rect x="52" y="44" width="4" height="4" fill="hsl(20, 90%, 50%)" />
<rect x="64" y="44" width="4" height="4" fill="hsl(20, 90%, 50%)" />
<rect x="48" y="48" width="4" height="4" fill="hsl(20, 90%, 50%)" />
<rect x="64" y="48" width="4" height="4" fill="hsl(20, 90%, 50%)" />
<rect x="52" y="52" width="4" height="4" fill="hsl(20, 90%, 50%)" />
<rect x="60" y="52" width="4" height="4" fill="hsl(20, 90%, 50%)" />
<rect x="56" y="56" width="4" height="4" fill="hsl(20, 90%, 50%)" />
<rect x="36" y="60" width="4" height="4" fill="hsl(20, 90%, 50%)" />
<rect x="40" y="60" width="4" height="4" fill="hsl(20, 90%, 50%)" />
<rect x="32" y="64" width="4" height="4" fill="hsl(20, 90%, 50%)" />
<rect x="44" y="64" width="4" height="4" fill="hsl(20, 90%, 50%)" />
<rect x="36" y="68" width="4" height="4" fill="hsl(20, 90%, 50%)" />
<rect x="40" y="68" width="4" height="4" fill="hsl(20, 90%, 50%)" />
<rect x="4" y="72" width="4" height="4" fill="hsl(20, 90%, 50%)" />
<rect x="8" y="72" width="4" height="4" fill="hsl(20, 90%, 50%)" />
<rect x="108" y="72" width="4" height="4" fill="hsl(20, 90%, 50%)" />
<rect x="112" y="72" width="4" height="4" fill="hsl(20, 90%, 50%)" />
<rect x="4" y="76" width="4" height="4" fill="hsl(20, 90%, 50%)" />
<rect x="8" y="76" width="4" height="4" fill="hsl(20, 90%, 50%)" />
<rect x="108" y="76" width="4" height="4" fill="hsl(20, 90%, 50%)" />
<rect x="112" y="76" width="4" height="4" fill="hsl(20, 90%, 50%)" />
</svg>