<?xml version="1.0" encoding="utf-8"?>
<svg xmlns="http://www.w3.org/2000/svg" width="104" height="95" viewBox="0 0 104 95">
<rect width="100%" height="100%" fill="transparent" />
<rect x="85" y="4" width="3" height="3" fill="hsl(20, 90%, 50%)" />
<rect x="88" y="7" width="3" height="3" fill="hsl(20, 90%, 50%)" />
<rect x="91" y="10" width="3" height="3" fill="hsl(20, 90%, 50%)" />
<rect x="88" y="13" width="3" height="3" fill="hsl(20, 90%, 50%)" />
<rect x="85" y="16" width="3" height="3" fill="hsl(20, 90%, 50%)" />
<rect x="91" y="19" width="3" height="3" fill="hsl(20, 90%, 50%)" />
<rect x="94" y="19" width="3" height="3" fill="hsl(20, 90%, 50%)" />
<rect x="97" y="19" width="3" height="3" fill="hsl(20, 90%, 50%)" />
<rect x="4" y="79" width="3" height="3" fill="hsl(20, 90%, 50%)" />
<rect x="7" y="79" width="3" height="3" fill="hsl(20, 90%, 50%)" />
<rect x="10" y="82" width="3" height="3" fill="hsl(20, 90%, 50%)" />
<rect x="10" y="85" width="3" height="3" fill="hsl(20, 90%, 50%)" />
<rect x="13" y="88" width="3" height="3" fill="hsl(20, 90%, 50%)" />
<rect x="16" y="88" width="3" height="3" fill="hsl(20, 90%, 50%)" />
<rect x="19" y="88" width="3" height="3" fill="hsl(20, 90%, 50%)" />
<rect x="22" y="88" width="3" height="3" fill="hsl(20, 90%, 50%)" />
</svg>