<?xml version="1.0" encoding="utf-8"?>
<svg xmlns="http://www.w3.org/2000/svg" width="127" height="57" viewBox="0 0 127 57">
<rect width="100%" height="100%" fill="transparent" />
<rect x="53" y="4" width="7" height="7" fill="hsl(20, 90%, 50%)" />
<rect x="60" y="4" width="7" height="7" fill="hsl(20, 90%, 50%)" />
<rect x="67" y="4" width="7" height="7" fill="hsl(20, 90%, 50%)" />
<rect x="53" y="11" width="7" height="7" fill="hsl(20, 90%, 50%)" />
<rect x="4" y="18" width="7" height="7" fill="hsl(20, 90%, 50%)" />
<rect x="11" y="18" width="7" height="7" fill="hsl(20, 90%, 50%)" />
<rect x="18" y="18" width="7" height="7" fill="hsl(20, 90%, 50%)" />
<rect x="67" y="18" width="7" height="7" fill="hsl(20, 90%, 50%)" />
<rect x="4" y="25" width="7" height="7" fill="hsl(20, 90%, 50%)" />
<rect x="53" y="25" width="7" height="7" fill="hsl(20, 90%, 50%)" />
<rect x="67" y="25" width="7" height="7" fill="hsl(20, 90%, 50%)" />
<rect x="11" y="32" width="7" height="7" fill="hsl(20, 90%, 50%)" />
<rect x="46" y="32" width="7" height="7" fill="hsl(20, 90%, 50%)" />
<rect x="53" y="32" width="7" height="7" fill="hsl(20, 90%, 50%)" />
<rect x="67" y="32" width="7" height="7" fill="hsl(20, 90%, 50%)" />
<rect x="74" y="32" width="7" height="7" fill="hsl(20, 90%, 50%)" />
<rect x="81" y="32" width="7" height="7" fill="hsl(20, 90%, 50%)" />
<rect x="88" y="32" width="7" height="7" fill="hsl(20, 90%, 50%)" />
<rect x="25" y="39" width="7" height="7" fill="hsl(20, 90%, 50%)" />
<rect x="32" y="39" width="7" height="7" fill="hsl(20, 90%, 50%)" />
<rect x="39" y="39" width="7" height="7" fill="hsl(20, 90%, 50%)" />
<rect x="46" y="39" width="7" height="7" fill="hsl(20, 90%, 50%)" />
<rect x="60" y="39" width="7" height="7" fill="hsl(20, 90%, 50%)" />
<rect x="67" y="39" width="7" height="7" fill="hsl(20, 90%, 50%)" />
<rect x="74" y="39" width="7" height="7" fill="hsl(20, 90%, 50%)" />
<rect x="81" y="39" width="7" height="7" fill="hsl(20, 90%, 50%)" />
<rect x="88" y="39" width="7" height="7" fill="hsl(20, 90%, 50%)" />
<rect x="102" y="39" width="7" height="7" fill="hsl(20, 90%, 50%)" />
<rect x="109" y="39" width="7" height="7" fill="hsl(20, 90%, 50%)" />
<rect x="32" y="46" width="7" height="7" fill="hsl(20, 90%, 50%)" />
<rect x="39" y="46" width="7" height="7" fill="hsl(20, 90%, 50%)" />
<rect x="95" y="46" width="7" height="7" fill="hsl(20, 90%, 50%)" />
<rect x="102" y="46" width="7" height="7" fill="hsl(20, 90%, 50%)" />
<rect x="116" y="46" width="7" height="7" fill="hsl(20, 90%, 50%)" />
</svg>