<?xml version="1.0" encoding="utf-8"?>
<svg xmlns="http://www.w3.org/2000/svg" width="116" height="80" viewBox="0 0 116 80">
<rect width="100%" height="100%" fill="transparent" />
<rect x="24" y="4" width="4" height="4" fill="hsl(20, 90%, 50%)" />
<rect x="28" y="4" width="4" height="4" fill="hsl(20, 90%, 50%)" />
<rect x="32" y="4" width="4" height="4" fill="hsl(20, 90%, 50%)" />
<rect x="80" y="4" width="4" height="4" fill="hsl(20, 90%, 50%)" />
<rect x="84" y="4" width="4" height="4" fill="hsl(20, 90%, 50%)" />
<rect x="88" y="4" width="4" height="4" fill="hsl(20, 90%, 50%)" />
<rect x="20" y="8" width="4" height="4" fill="hsl(20, 90%, 50%)" />
<rect x="36" y="8" width="4" height="4" fill="hsl(20, 90%, 50%)" />
<rect x="76" y="8" width="4" height="4" fill="hsl(20, 90%, 50%)" />
<rect x="92" y="8" width="4" height="4" fill="hsl(20, 90%, 50%)" />
<rect x="16" y="12" width="4" height="4" fill="hsl(20, 90%, 50%)" />
<rect x="20" y="12" width="4" height="4" fill="hsl(20, 90%, 50%)" />
<rect x="40" y="12" width="4" height="4" fill="hsl(20, 90%, 50%)" />
<rect x="72" y="12" width="4" height="4" fill="hsl(20, 90%, 50%)" />
<rect x="92" y="12" width="4" height="4" fill="hsl(20, 90%, 50%)" />
<rect x="96" y="12" width="4" height="4" fill="hsl(20, 90%, 50%)" />
<rect x="12" y="16" width="4" height="4" fill="hsl(20, 90%, 50%)" />
<rect x="20" y="16" width="4" height="4" fill="hsl(20, 90%, 50%)" />
<rect x="28" y="16" width="4" height="4" fill="hsl(20, 90%, 50%)" />
<rect x="32" y="16" width="4" height="4" fill="hsl(20, 90%, 50%)" />
<rect x="40" y="16" width="4" height="4" fill="hsl(20, 90%, 50%)" />
<rect x="44" y="16" width="4" height="4" fill="hsl(20, 90%, 50%)" />
<rect x="68" y="16" width="4" height="4" fill="hsl(20, 90%, 50%)" />
<rect x="72" y="16" width="4" height="4" fill="hsl(20, 90%, 50%)" />
<rect x="80" y="16" width="4" height="4" fill="hsl(20, 90%, 50%)" />
<rect x="84" y="16" width="4" height="4" fill="hsl(20, 90%, 50%)" />
<rect x="92" y="16" width="4" height="4" fill="hsl(20, 90%, 50%)" />
<rect x="100" y="16" width="4" height="4" fill="hsl(20, 90%, 50%)" />
<rect x="8" y="20" width="4" height="4" fill="hsl(20, 90%, 50%)" />
<rect x="12" y="20" width="4" height="4" fill="hsl(20, 90%, 50%)" />
<rect x="20" y="20" width="4" height="4" fill="hsl(20, 90%, 50%)" />
<rect x="40" y="20" width="4" height="4" fill="hsl(20, 90%, 50%)" />
<rect x="48" y="20" width="4" height="4" fill="hsl(20, 90%, 50%)" />
<rect x="52" y="20" width="4" height="4" fill="hsl(20, 90%, 50%)" />
<rect x="60" y="20" width="4" height="4" fill="hsl(20, 90%, 50%)" />
<rect x="64" y="20" width="4" height="4" fill="hsl(20, 90%, 50%)" />
<rect x="72" y="20" width="4" height="4" fill="hsl(20, 90%, 50%)" />
<rect x="92" y="20" width="4" height="4" fill="hsl(20, 90%, 50%)" />
<rect x="100" y="20" width="4" height="4" fill="hsl(20, 90%, 50%)" />
<rect x="104" y="20" width="4" height="4" fill="hsl(20, 90%, 50%)" />
<rect x="4" y="24" width="4" height="4" fill="hsl(20, 90%, 50%)" />
<rect x="24" y="24" width="4" height="4" fill="hsl(20, 90%, 50%)" />
<rect x="40" y="24" width="4" height="4" fill="hsl(20, 90%, 50%)" />
<rect x="52" y="24" width="4" height="4" fill="hsl(20, 90%, 50%)" />
<rect x="60" y="24" width="4" height="4" fill="hsl(20, 90%, 50%)" />
<rect x="72" y="24" width="4" height="4" fill="hsl(20, 90%, 50%)" />
<rect x="88" y="24" width="4" height="4" fill="hsl(20, 90%, 50%)" />
<rect x="108" y="24" width="4" height="4" fill="hsl(20, 90%, 50%)" />
<rect x="52" y="28" width="4" height="4" fill="hsl(20, 90%, 50%)" />
<rect x="60" y="28" width="4" height="4" fill="hsl(20, 90%, 50%)" />
<rect x="4" y="32" width="4" height="4" fill="hsl(20, 90%, 50%)" />
<rect x="8" y="32" width="4" height="4" fill="hsl(20, 90%, 50%)" />
<rect x="40" y="32" width="4" height="4" fill="hsl(20, 90%, 50%)" />
<rect x="44" y="32" width="4" height="4" fill="hsl(20, 90%, 50%)" />
<rect x="52" y="32" width="4" height="4" fill="hsl(20, 90%, 50%)" />
<rect x="60" y="32" width="4" height="4" fill="hsl(20, 90%, 50%)" />
<rect x="68" y="32" width="4" height="4" fill="hsl(20, 90%, 50%)" />
<rect x="72" y="32" width="4" height="4" fill="hsl(20, 90%, 50%)" />
<rect x="104" y="32" width="4" height="4" fill="hsl(20, 90%, 50%)" />
<rect x="108" y="32" width="4" height="4" fill="hsl(20, 90%, 50%)" />
<rect x="52" y="36" width="4" height="4" fill="hsl(20, 90%, 50%)" />
<rect x="60" y="36" width="4" height="4" fill="hsl(20, 90%, 50%)" />
<rect x="28" y="40" width="4" height="4" fill="hsl(20, 90%, 50%)" />
<rect x="32" y="40" width="4" height="4" fill="hsl(20, 90%, 50%)" />
<rect x="36" y="40" width="4" height="4" fill="hsl(20, 90%, 50%)" />
<rect x="76" y="40" width="4" height="4" fill="hsl(20, 90%, 50%)" />
<rect x="80" y="40" width="4" height="4" fill="hsl(20, 90%, 50%)" />
<rect x="84" y="40" width="4" height="4" fill="hsl(20, 90%, 50%)" />
<rect x="28" y="44" width="4" height="4" fill="hsl(20, 90%, 50%)" />
<rect x="44" y="44" width="4" height="4" fill="hsl(20, 90%, 50%)" />
<rect x="84" y="44" width="4" height="4" fill="hsl(20, 90%, 50%)" />
<rect x="28" y="48" width="4" height="4" fill="hsl(20, 90%, 50%)" />
<rect x="36" y="48" width="4" height="4" fill="hsl(20, 90%, 50%)" />
<rect x="56" y="48" width="4" height="4" fill="hsl(20, 90%, 50%)" />
<rect x="60" y="48" width="4" height="4" fill="hsl(20, 90%, 50%)" />
<rect x="64" y="48" width="4" height="4" fill="hsl(20, 90%, 50%)" />
<rect x="52" y="52" width="4" height="4" fill="hsl(20, 90%, 50%)" />
<rect x="64" y="52" width="4" height="4" fill="hsl(20, 90%, 50%)" />
<rect x="84" y="52" width="4" height="4" fill="hsl(20, 90%, 50%)" />
<rect x="88" y="52" width="4" height="4" fill="hsl(20, 90%, 50%)" />
<rect x="64" y="56" width="4" height="4" fill="hsl(20, 90%, 50%)" />
<rect x="48" y="60" width="4" height="4" fill="hsl(20, 90%, 50%)" />
<rect x="64" y="60" width="4" height="4" fill="hsl(20, 90%, 50%)" />
<rect x="48" y="64" width="4" height="4" fill="hsl(20, 90%, 50%)" />
<rect x="64" y="64" width="4" height="4" fill="hsl(20, 90%, 50%)" />
<rect x="64" y="68" width="4" height="4" fill="hsl(20, 90%, 50%)" />
<rect x="52" y="72" width="4" height="4" fill="hsl(20, 90%, 50%)" />
<rect x="60" y="72" width="4" height="4" fill="hsl(20, 90%, 50%)" />
</svg>