<?xml version="1.0" encoding="utf-8"?>
<svg xmlns="http://www.w3.org/2000/svg" width="128" height="104" viewBox="0 0 128 104">
<rect width="100%" height="100%" fill="transparent" />
<rect x="64" y="4" width="6" height="6" fill="hsl(20, 90%, 50%)" />
<rect x="76" y="4" width="6" height="6" fill="hsl(20, 90%, 50%)" />
<rect x="70" y="10" width="6" height="6" fill="hsl(20, 90%, 50%)" />
<rect x="76" y="10" width="6" height="6" fill="hsl(20, 90%, 50%)" />
<rect x="10" y="16" width="6" height="6" fill="hsl(20, 90%, 50%)" />
<rect x="70" y="16" width="6" height="6" fill="hsl(20, 90%, 50%)" />
<rect x="106" y="16" width="6" height="6" fill="hsl(20, 90%, 50%)" />
<rect x="16" y="22" width="6" height="6" fill="hsl(20, 90%, 50%)" />
<rect x="106" y="22" width="6" height="6" fill="hsl(20, 90%, 50%)" />
<rect x="118" y="22" width="6" height="6" fill="hsl(20, 90%, 50%)" />
<rect x="4" y="28" width="6" height="6" fill="hsl(20, 90%, 50%)" />
<rect x="10" y="28" width="6" height="6" fill="hsl(20, 90%, 50%)" />
<rect x="16" y="28" width="6" height="6" fill="hsl(20, 90%, 50%)" />
<rect x="106" y="28" width="6" height="6" fill="hsl(20, 90%, 50%)" />
<rect x="112" y="28" width="6" height="6" fill="hsl(20, 90%, 50%)" />
<rect x="106" y="52" width="6" height="6" fill="hsl(20, 90%, 50%)" />
<rect x="100" y="58" width="6" height="6" fill="hsl(20, 90%, 50%)" />
<rect x="106" y="58" width="6" height="6" fill="hsl(20, 90%, 50%)" />
<rect x="100" y="64" width="6" height="6" fill="hsl(20, 90%, 50%)" />
<rect x="112" y="64" width="6" height="6" fill="hsl(20, 90%, 50%)" />
<rect x="52" y="70" width="6" height="6" fill="hsl(20, 90%, 50%)" />
<rect x="58" y="70" width="6" height="6" fill="hsl(20, 90%, 50%)" />
<rect x="46" y="76" width="6" height="6" fill="hsl(20, 90%, 50%)" />
<rect x="58" y="76" width="6" height="6" fill="hsl(20, 90%, 50%)" />
<rect x="34" y="88" width="6" height="6" fill="hsl(20, 90%, 50%)" />
<rect x="46" y="88" width="6" height="6" fill="hsl(20, 90%, 50%)" />
<rect x="34" y="94" width="6" height="6" fill="hsl(20, 90%, 50%)" />
<rect x="40" y="94" width="6" height="6" fill="hsl(20, 90%, 50%)" />
</svg>