<?xml version="1.0" encoding="utf-8"?>
<svg xmlns="http://www.w3.org/2000/svg" width="119" height="119" viewBox="0 0 119 119">
<rect width="100%" height="100%" fill="transparent" />
<rect x="49" y="4" width="3" height="3" fill="hsl(20, 90%, 50%)" />
<rect x="52" y="4" width="3" height="3" fill="hsl(20, 90%, 50%)" />
<rect x="64" y="4" width="3" height="3" fill="hsl(20, 90%, 50%)" />
<rect x="67" y="4" width="3" height="3" fill="hsl(20, 90%, 50%)" />
<rect x="22" y="13" width="3" height="3" fill="hsl(20, 90%, 50%)" />
<rect x="25" y="13" width="3" height="3" fill="hsl(20, 90%, 50%)" />
<rect x="91" y="13" width="3" height="3" fill="hsl(20, 90%, 50%)" />
<rect x="94" y="13" width="3" height="3" fill="hsl(20, 90%, 50%)" />
<rect x="22" y="16" width="3" height="3" fill="hsl(20, 90%, 50%)" />
<rect x="25" y="16" width="3" height="3" fill="hsl(20, 90%, 50%)" />
<rect x="91" y="16" width="3" height="3" fill="hsl(20, 90%, 50%)" />
<rect x="94" y="16" width="3" height="3" fill="hsl(20, 90%, 50%)" />
<rect x="13" y="22" width="3" height="3" fill="hsl(20, 90%, 50%)" />
<rect x="16" y="22" width="3" height="3" fill="hsl(20, 90%, 50%)" />
<rect x="100" y="22" width="3" height="3" fill="hsl(20, 90%, 50%)" />
<rect x="103" y="22" width="3" height="3" fill="hsl(20, 90%, 50%)" />
<rect x="13" y="25" width="3" height="3" fill="hsl(20, 90%, 50%)" />
<rect x="16" y="25" width="3" height="3" fill="hsl(20, 90%, 50%)" />
<rect x="46" y="25" width="3" height="3" fill="hsl(20, 90%, 50%)" />
<rect x="49" y="25" width="3" height="3" fill="hsl(20, 90%, 50%)" />
<rect x="67" y="25" width="3" height="3" fill="hsl(20, 90%, 50%)" />
<rect x="70" y="25" width="3" height="3" fill="hsl(20, 90%, 50%)" />
<rect x="100" y="25" width="3" height="3" fill="hsl(20, 90%, 50%)" />
<rect x="103" y="25" width="3" height="3" fill="hsl(20, 90%, 50%)" />
<rect x="31" y="28" width="3" height="3" fill="hsl(20, 90%, 50%)" />
<rect x="34" y="28" width="3" height="3" fill="hsl(20, 90%, 50%)" />
<rect x="37" y="28" width="3" height="3" fill="hsl(20, 90%, 50%)" />
<rect x="43" y="28" width="3" height="3" fill="hsl(20, 90%, 50%)" />
<rect x="46" y="28" width="3" height="3" fill="hsl(20, 90%, 50%)" />
<rect x="70" y="28" width="3" height="3" fill="hsl(20, 90%, 50%)" />
<rect x="73" y="28" width="3" height="3" fill="hsl(20, 90%, 50%)" />
<rect x="79" y="28" width="3" height="3" fill="hsl(20, 90%, 50%)" />
<rect x="82" y="28" width="3" height="3" fill="hsl(20, 90%, 50%)" />
<rect x="85" y="28" width="3" height="3" fill="hsl(20, 90%, 50%)" />
<rect x="28" y="31" width="3" height="3" fill="hsl(20, 90%, 50%)" />
<rect x="34" y="31" width="3" height="3" fill="hsl(20, 90%, 50%)" />
<rect x="82" y="31" width="3" height="3" fill="hsl(20, 90%, 50%)" />
<rect x="88" y="31" width="3" height="3" fill="hsl(20, 90%, 50%)" />
<rect x="28" y="34" width="3" height="3" fill="hsl(20, 90%, 50%)" />
<rect x="31" y="34" width="3" height="3" fill="hsl(20, 90%, 50%)" />
<rect x="85" y="34" width="3" height="3" fill="hsl(20, 90%, 50%)" />
<rect x="88" y="34" width="3" height="3" fill="hsl(20, 90%, 50%)" />
<rect x="28" y="37" width="3" height="3" fill="hsl(20, 90%, 50%)" />
<rect x="88" y="37" width="3" height="3" fill="hsl(20, 90%, 50%)" />
<rect x="28" y="43" width="3" height="3" fill="hsl(20, 90%, 50%)" />
<rect x="88" y="43" width="3" height="3" fill="hsl(20, 90%, 50%)" />
<rect x="25" y="46" width="3" height="3" fill="hsl(20, 90%, 50%)" />
<rect x="28" y="46" width="3" height="3" fill="hsl(20, 90%, 50%)" />
<rect x="88" y="46" width="3" height="3" fill="hsl(20, 90%, 50%)" />
<rect x="91" y="46" width="3" height="3" fill="hsl(20, 90%, 50%)" />
<rect x="4" y="49" width="3" height="3" fill="hsl(20, 90%, 50%)" />
<rect x="25" y="49" width="3" height="3" fill="hsl(20, 90%, 50%)" />
<rect x="91" y="49" width="3" height="3" fill="hsl(20, 90%, 50%)" />
<rect x="112" y="49" width="3" height="3" fill="hsl(20, 90%, 50%)" />
<rect x="4" y="52" width="3" height="3" fill="hsl(20, 90%, 50%)" />
<rect x="112" y="52" width="3" height="3" fill="hsl(20, 90%, 50%)" />
<rect x="4" y="64" width="3" height="3" fill="hsl(20, 90%, 50%)" />
<rect x="112" y="64" width="3" height="3" fill="hsl(20, 90%, 50%)" />
<rect x="4" y="67" width="3" height="3" fill="hsl(20, 90%, 50%)" />
<rect x="25" y="67" width="3" height="3" fill="hsl(20, 90%, 50%)" />
<rect x="91" y="67" width="3" height="3" fill="hsl(20, 90%, 50%)" />
<rect x="112" y="67" width="3" height="3" fill="hsl(20, 90%, 50%)" />
<rect x="25" y="70" width="3" height="3" fill="hsl(20, 90%, 50%)" />
<rect x="28" y="70" width="3" height="3" fill="hsl(20, 90%, 50%)" />
<rect x="88" y="70" width="3" height="3" fill="hsl(20, 90%, 50%)" />
<rect x="91" y="70" width="3" height="3" fill="hsl(20, 90%, 50%)" />
<rect x="28" y="73" width="3" height="3" fill="hsl(20, 90%, 50%)" />
<rect x="88" y="73" width="3" height="3" fill="hsl(20, 90%, 50%)" />
<rect x="28" y="79" width="3" height="3" fill="hsl(20, 90%, 50%)" />
<rect x="88" y="79" width="3" height="3" fill="hsl(20, 90%, 50%)" />
<rect x="28" y="82" width="3" height="3" fill="hsl(20, 90%, 50%)" />
<rect x="31" y="82" width="3" height="3" fill="hsl(20, 90%, 50%)" />
<rect x="85" y="82" width="3" height="3" fill="hsl(20, 90%, 50%)" />
<rect x="88" y="82" width="3" height="3" fill="hsl(20, 90%, 50%)" />
<rect x="28" y="85" width="3" height="3" fill="hsl(20, 90%, 50%)" />
<rect x="34" y="85" width="3" height="3" fill="hsl(20, 90%, 50%)" />
<rect x="82" y="85" width="3" height="3" fill="hsl(20, 90%, 50%)" />
<rect x="88" y="85" width="3" height="3" fill="hsl(20, 90%, 50%)" />
<rect x="31" y="88" width="3" height="3" fill="hsl(20, 90%, 50%)" />
<rect x="34" y="88" width="3" height="3" fill="hsl(20, 90%, 50%)" />
<rect x="37" y="88" width="3" height="3" fill="hsl(20, 90%, 50%)" />
<rect x="43" y="88" width="3" height="3" fill="hsl(20, 90%, 50%)" />
<rect x="46" y="88" width="3" height="3" fill="hsl(20, 90%, 50%)" />
<rect x="70" y="88" width="3" height="3" fill="hsl(20, 90%, 50%)" />
<rect x="73" y="88" width="3" height="3" fill="hsl(20, 90%, 50%)" />
<rect x="79" y="88" width="3" height="3" fill="hsl(20, 90%, 50%)" />
<rect x="82" y="88" width="3" height="3" fill="hsl(20, 90%, 50%)" />
<rect x="85" y="88" width="3" height="3" fill="hsl(20, 90%, 50%)" />
<rect x="13" y="91" width="3" height="3" fill="hsl(20, 90%, 50%)" />
<rect x="16" y="91" width="3" height="3" fill="hsl(20, 90%, 50%)" />
<rect x="46" y="91" width="3" height="3" fill="hsl(20, 90%, 50%)" />
<rect x="49" y="91" width="3" height="3" fill="hsl(20, 90%, 50%)" />
<rect x="67" y="91" width="3" height="3" fill="hsl(20, 90%, 50%)" />
<rect x="70" y="91" width="3" height="3" fill="hsl(20, 90%, 50%)" />
<rect x="100" y="91" width="3" height="3" fill="hsl(20, 90%, 50%)" />
<rect x="103" y="91" width="3" height="3" fill="hsl(20, 90%, 50%)" />
<rect x="13" y="94" width="3" height="3" fill="hsl(20, 90%, 50%)" />
<rect x="16" y="94" width="3" height="3" fill="hsl(20, 90%, 50%)" />
<rect x="100" y="94" width="3" height="3" fill="hsl(20, 90%, 50%)" />
<rect x="103" y="94" width="3" height="3" fill="hsl(20, 90%, 50%)" />
<rect x="22" y="100" width="3" height="3" fill="hsl(20, 90%, 50%)" />
<rect x="25" y="100" width="3" height="3" fill="hsl(20, 90%, 50%)" />
<rect x="91" y="100" width="3" height="3" fill="hsl(20, 90%, 50%)" />
<rect x="94" y="100" width="3" height="3" fill="hsl(20, 90%, 50%)" />
<rect x="22" y="103" width="3" height="3" fill="hsl(20, 90%, 50%)" />
<rect x="25" y="103" width="3" height="3" fill="hsl(20, 90%, 50%)" />
<rect x="91" y="103" width="3" height="3" fill="hsl(20, 90%, 50%)" />
<rect x="94" y="103" width="3" height="3" fill="hsl(20, 90%, 50%)" />
<rect x="49" y="112" width="3" height="3" fill="hsl(20, 90%, 50%)" />
<rect x="52" y="112" width="3" height="3" fill="hsl(20, 90%, 50%)" />
<rect x="64" y="112" width="3" height="3" fill="hsl(20, 90%, 50%)" />
<rect x="67" y="112" width="3" height="3" fill="hsl(20, 90%, 50%)" />
</svg>