<?xml version="1.0" encoding="utf-8"?>
<svg xmlns="http://www.w3.org/2000/svg" width="128" height="78" viewBox="0 0 128 78">
<rect width="100%" height="100%" fill="transparent" />
<rect x="9" y="4" width="5" height="5" fill="hsl(20, 90%, 50%)" />
<rect x="14" y="4" width="5" height="5" fill="hsl(20, 90%, 50%)" />
<rect x="14" y="9" width="5" height="5" fill="hsl(20, 90%, 50%)" />
<rect x="9" y="14" width="5" height="5" fill="hsl(20, 90%, 50%)" />
<rect x="9" y="19" width="5" height="5" fill="hsl(20, 90%, 50%)" />
<rect x="14" y="19" width="5" height="5" fill="hsl(20, 90%, 50%)" />
<rect x="4" y="49" width="5" height="5" fill="hsl(20, 90%, 50%)" />
<rect x="24" y="49" width="5" height="5" fill="hsl(20, 90%, 50%)" />
<rect x="29" y="49" width="5" height="5" fill="hsl(20, 90%, 50%)" />
<rect x="109" y="49" width="5" height="5" fill="hsl(20, 90%, 50%)" />
<rect x="4" y="54" width="5" height="5" fill="hsl(20, 90%, 50%)" />
<rect x="9" y="54" width="5" height="5" fill="hsl(20, 90%, 50%)" />
<rect x="24" y="54" width="5" height="5" fill="hsl(20, 90%, 50%)" />
<rect x="29" y="54" width="5" height="5" fill="hsl(20, 90%, 50%)" />
<rect x="109" y="54" width="5" height="5" fill="hsl(20, 90%, 50%)" />
<rect x="9" y="59" width="5" height="5" fill="hsl(20, 90%, 50%)" />
<rect x="14" y="59" width="5" height="5" fill="hsl(20, 90%, 50%)" />
<rect x="109" y="59" width="5" height="5" fill="hsl(20, 90%, 50%)" />
<rect x="114" y="59" width="5" height="5" fill="hsl(20, 90%, 50%)" />
<rect x="119" y="59" width="5" height="5" fill="hsl(20, 90%, 50%)" />
<rect x="9" y="64" width="5" height="5" fill="hsl(20, 90%, 50%)" />
<rect x="119" y="64" width="5" height="5" fill="hsl(20, 90%, 50%)" />
<rect x="4" y="69" width="5" height="5" fill="hsl(20, 90%, 50%)" />
</svg>