<?xml version="1.0" encoding="utf-8"?>
<svg xmlns="http://www.w3.org/2000/svg" width="122" height="104" viewBox="0 0 122 104">
<rect width="100%" height="100%" fill="transparent" />
<rect x="68" y="4" width="2" height="2" fill="hsl(20, 90%, 50%)" />
<rect x="68" y="6" width="2" height="2" fill="hsl(20, 90%, 50%)" />
<rect x="70" y="6" width="2" height="2" fill="hsl(20, 90%, 50%)" />
<rect x="72" y="6" width="2" height="2" fill="hsl(20, 90%, 50%)" />
<rect x="74" y="8" width="2" height="2" fill="hsl(20, 90%, 50%)" />
<rect x="72" y="10" width="2" height="2" fill="hsl(20, 90%, 50%)" />
<rect x="74" y="10" width="2" height="2" fill="hsl(20, 90%, 50%)" />
<rect x="6" y="12" width="2" height="2" fill="hsl(20, 90%, 50%)" />
<rect x="8" y="14" width="2" height="2" fill="hsl(20, 90%, 50%)" />
<rect x="58" y="14" width="2" height="2" fill="hsl(20, 90%, 50%)" />
<rect x="60" y="14" width="2" height="2" fill="hsl(20, 90%, 50%)" />
<rect x="96" y="14" width="2" height="2" fill="hsl(20, 90%, 50%)" />
<rect x="98" y="14" width="2" height="2" fill="hsl(20, 90%, 50%)" />
<rect x="4" y="16" width="2" height="2" fill="hsl(20, 90%, 50%)" />
<rect x="6" y="16" width="2" height="2" fill="hsl(20, 90%, 50%)" />
<rect x="8" y="16" width="2" height="2" fill="hsl(20, 90%, 50%)" />
<rect x="60" y="16" width="2" height="2" fill="hsl(20, 90%, 50%)" />
<rect x="96" y="16" width="2" height="2" fill="hsl(20, 90%, 50%)" />
<rect x="60" y="18" width="2" height="2" fill="hsl(20, 90%, 50%)" />
<rect x="64" y="18" width="2" height="2" fill="hsl(20, 90%, 50%)" />
<rect x="92" y="18" width="2" height="2" fill="hsl(20, 90%, 50%)" />
<rect x="96" y="18" width="2" height="2" fill="hsl(20, 90%, 50%)" />
<rect x="62" y="20" width="2" height="2" fill="hsl(20, 90%, 50%)" />
<rect x="64" y="20" width="2" height="2" fill="hsl(20, 90%, 50%)" />
<rect x="92" y="20" width="2" height="2" fill="hsl(20, 90%, 50%)" />
<rect x="94" y="20" width="2" height="2" fill="hsl(20, 90%, 50%)" />
<rect x="78" y="30" width="2" height="2" fill="hsl(20, 90%, 50%)" />
<rect x="76" y="32" width="2" height="2" fill="hsl(20, 90%, 50%)" />
<rect x="80" y="32" width="2" height="2" fill="hsl(20, 90%, 50%)" />
<rect x="76" y="34" width="2" height="2" fill="hsl(20, 90%, 50%)" />
<rect x="80" y="34" width="2" height="2" fill="hsl(20, 90%, 50%)" />
<rect x="78" y="36" width="2" height="2" fill="hsl(20, 90%, 50%)" />
<rect x="90" y="60" width="2" height="2" fill="hsl(20, 90%, 50%)" />
<rect x="114" y="60" width="2" height="2" fill="hsl(20, 90%, 50%)" />
<rect x="116" y="60" width="2" height="2" fill="hsl(20, 90%, 50%)" />
<rect x="92" y="62" width="2" height="2" fill="hsl(20, 90%, 50%)" />
<rect x="114" y="62" width="2" height="2" fill="hsl(20, 90%, 50%)" />
<rect x="116" y="62" width="2" height="2" fill="hsl(20, 90%, 50%)" />
<rect x="88" y="64" width="2" height="2" fill="hsl(20, 90%, 50%)" />
<rect x="90" y="64" width="2" height="2" fill="hsl(20, 90%, 50%)" />
<rect x="92" y="64" width="2" height="2" fill="hsl(20, 90%, 50%)" />
<rect x="90" y="70" width="2" height="2" fill="hsl(20, 90%, 50%)" />
<rect x="88" y="72" width="2" height="2" fill="hsl(20, 90%, 50%)" />
<rect x="92" y="72" width="2" height="2" fill="hsl(20, 90%, 50%)" />
<rect x="90" y="74" width="2" height="2" fill="hsl(20, 90%, 50%)" />
<rect x="92" y="74" width="2" height="2" fill="hsl(20, 90%, 50%)" />
<rect x="66" y="92" width="2" height="2" fill="hsl(20, 90%, 50%)" />
<rect x="68" y="92" width="2" height="2" fill="hsl(20, 90%, 50%)" />
<rect x="64" y="94" width="2" height="2" fill="hsl(20, 90%, 50%)" />
<rect x="68" y="94" width="2" height="2" fill="hsl(20, 90%, 50%)" />
<rect x="64" y="96" width="2" height="2" fill="hsl(20, 90%, 50%)" />
<rect x="62" y="98" width="2" height="2" fill="hsl(20, 90%, 50%)" />
<rect x="64" y="98" width="2" height="2" fill="hsl(20, 90%, 50%)" />
</svg>