<?xml version="1.0" encoding="utf-8"?>
<svg xmlns="http://www.w3.org/2000/svg" width="128" height="68" viewBox="0 0 128 68">
<rect width="100%" height="100%" fill="transparent" />
<rect x="76" y="4" width="12" height="12" fill="hsl(20, 90%, 50%)" />
<rect x="100" y="4" width="12" height="12" fill="hsl(20, 90%, 50%)" />
<rect x="64" y="16" width="12" height="12" fill="hsl(20, 90%, 50%)" />
<rect x="4" y="28" width="12" height="12" fill="hsl(20, 90%, 50%)" />
<rect x="16" y="28" width="12" height="12" fill="hsl(20, 90%, 50%)" />
<rect x="52" y="28" width="12" height="12" fill="hsl(20, 90%, 50%)" />
<rect x="112" y="28" width="12" height="12" fill="hsl(20, 90%, 50%)" />
<rect x="4" y="40" width="12" height="12" fill="hsl(20, 90%, 50%)" />
<rect x="16" y="40" width="12" height="12" fill="hsl(20, 90%, 50%)" />
<rect x="40" y="40" width="12" height="12" fill="hsl(20, 90%, 50%)" />
<rect x="76" y="40" width="12" height="12" fill="hsl(20, 90%, 50%)" />
<rect x="100" y="40" width="12" height="12" fill="hsl(20, 90%, 50%)" />
<rect x="112" y="40" width="12" height="12" fill="hsl(20, 90%, 50%)" />
<rect x="52" y="52" width="12" height="12" fill="hsl(20, 90%, 50%)" />
<rect x="64" y="52" width="12" height="12" fill="hsl(20, 90%, 50%)" />
</svg>