<?xml version="1.0" encoding="utf-8"?>
<svg xmlns="http://www.w3.org/2000/svg" width="93" height="118" viewBox="0 0 93 118">
<rect width="100%" height="100%" fill="transparent" />
<rect x="59" y="4" width="5" height="5" fill="hsl(20, 90%, 50%)" />
<rect x="64" y="4" width="5" height="5" fill="hsl(20, 90%, 50%)" />
<rect x="59" y="9" width="5" height="5" fill="hsl(20, 90%, 50%)" />
<rect x="69" y="9" width="5" height="5" fill="hsl(20, 90%, 50%)" />
<rect x="69" y="14" width="5" height="5" fill="hsl(20, 90%, 50%)" />
<rect x="39" y="19" width="5" height="5" fill="hsl(20, 90%, 50%)" />
<rect x="44" y="19" width="5" height="5" fill="hsl(20, 90%, 50%)" />
<rect x="64" y="19" width="5" height="5" fill="hsl(20, 90%, 50%)" />
<rect x="74" y="19" width="5" height="5" fill="hsl(20, 90%, 50%)" />
<rect x="79" y="19" width="5" height="5" fill="hsl(20, 90%, 50%)" />
<rect x="44" y="24" width="5" height="5" fill="hsl(20, 90%, 50%)" />
<rect x="64" y="24" width="5" height="5" fill="hsl(20, 90%, 50%)" />
<rect x="84" y="24" width="5" height="5" fill="hsl(20, 90%, 50%)" />
<rect x="44" y="29" width="5" height="5" fill="hsl(20, 90%, 50%)" />
<rect x="54" y="29" width="5" height="5" fill="hsl(20, 90%, 50%)" />
<rect x="59" y="29" width="5" height="5" fill="hsl(20, 90%, 50%)" />
<rect x="69" y="29" width="5" height="5" fill="hsl(20, 90%, 50%)" />
<rect x="74" y="29" width="5" height="5" fill="hsl(20, 90%, 50%)" />
<rect x="84" y="29" width="5" height="5" fill="hsl(20, 90%, 50%)" />
<rect x="49" y="34" width="5" height="5" fill="hsl(20, 90%, 50%)" />
<rect x="59" y="34" width="5" height="5" fill="hsl(20, 90%, 50%)" />
<rect x="69" y="34" width="5" height="5" fill="hsl(20, 90%, 50%)" />
<rect x="79" y="34" width="5" height="5" fill="hsl(20, 90%, 50%)" />
<rect x="4" y="64" width="5" height="5" fill="hsl(20, 90%, 50%)" />
<rect x="9" y="69" width="5" height="5" fill="hsl(20, 90%, 50%)" />
<rect x="9" y="74" width="5" height="5" fill="hsl(20, 90%, 50%)" />
<rect x="14" y="74" width="5" height="5" fill="hsl(20, 90%, 50%)" />
<rect x="4" y="79" width="5" height="5" fill="hsl(20, 90%, 50%)" />
<rect x="9" y="79" width="5" height="5" fill="hsl(20, 90%, 50%)" />
<rect x="4" y="84" width="5" height="5" fill="hsl(20, 90%, 50%)" />
<rect x="4" y="104" width="5" height="5" fill="hsl(20, 90%, 50%)" />
<rect x="9" y="104" width="5" height="5" fill="hsl(20, 90%, 50%)" />
<rect x="4" y="109" width="5" height="5" fill="hsl(20, 90%, 50%)" />
<rect x="9" y="109" width="5" height="5" fill="hsl(20, 90%, 50%)" />
</svg>