<?xml version="1.0" encoding="utf-8"?>
<svg xmlns="http://www.w3.org/2000/svg" width="116" height="116" viewBox="0 0 116 116">
<rect width="100%" height="100%" fill="transparent" />
<rect x="28" y="4" width="6" height="6" fill="hsl(20, 90%, 50%)" />
<rect x="34" y="4" width="6" height="6" fill="hsl(20, 90%, 50%)" />
<rect x="76" y="4" width="6" height="6" fill="hsl(20, 90%, 50%)" />
<rect x="82" y="4" width="6" height="6" fill="hsl(20, 90%, 50%)" />
<rect x="22" y="10" width="6" height="6" fill="hsl(20, 90%, 50%)" />
<rect x="40" y="10" width="6" height="6" fill="hsl(20, 90%, 50%)" />
<rect x="70" y="10" width="6" height="6" fill="hsl(20, 90%, 50%)" />
<rect x="88" y="10" width="6" height="6" fill="hsl(20, 90%, 50%)" />
<rect x="22" y="16" width="6" height="6" fill="hsl(20, 90%, 50%)" />
<rect x="34" y="16" width="6" height="6" fill="hsl(20, 90%, 50%)" />
<rect x="76" y="16" width="6" height="6" fill="hsl(20, 90%, 50%)" />
<rect x="88" y="16" width="6" height="6" fill="hsl(20, 90%, 50%)" />
<rect x="10" y="22" width="6" height="6" fill="hsl(20, 90%, 50%)" />
<rect x="16" y="22" width="6" height="6" fill="hsl(20, 90%, 50%)" />
<rect x="34" y="22" width="6" height="6" fill="hsl(20, 90%, 50%)" />
<rect x="40" y="22" width="6" height="6" fill="hsl(20, 90%, 50%)" />
<rect x="46" y="22" width="6" height="6" fill="hsl(20, 90%, 50%)" />
<rect x="64" y="22" width="6" height="6" fill="hsl(20, 90%, 50%)" />
<rect x="70" y="22" width="6" height="6" fill="hsl(20, 90%, 50%)" />
<rect x="76" y="22" width="6" height="6" fill="hsl(20, 90%, 50%)" />
<rect x="94" y="22" width="6" height="6" fill="hsl(20, 90%, 50%)" />
<rect x="100" y="22" width="6" height="6" fill="hsl(20, 90%, 50%)" />
<rect x="4" y="28" width="6" height="6" fill="hsl(20, 90%, 50%)" />
<rect x="46" y="28" width="6" height="6" fill="hsl(20, 90%, 50%)" />
<rect x="64" y="28" width="6" height="6" fill="hsl(20, 90%, 50%)" />
<rect x="106" y="28" width="6" height="6" fill="hsl(20, 90%, 50%)" />
<rect x="4" y="34" width="6" height="6" fill="hsl(20, 90%, 50%)" />
<rect x="16" y="34" width="6" height="6" fill="hsl(20, 90%, 50%)" />
<rect x="22" y="34" width="6" height="6" fill="hsl(20, 90%, 50%)" />
<rect x="88" y="34" width="6" height="6" fill="hsl(20, 90%, 50%)" />
<rect x="94" y="34" width="6" height="6" fill="hsl(20, 90%, 50%)" />
<rect x="106" y="34" width="6" height="6" fill="hsl(20, 90%, 50%)" />
<rect x="10" y="40" width="6" height="6" fill="hsl(20, 90%, 50%)" />
<rect x="22" y="40" width="6" height="6" fill="hsl(20, 90%, 50%)" />
<rect x="88" y="40" width="6" height="6" fill="hsl(20, 90%, 50%)" />
<rect x="100" y="40" width="6" height="6" fill="hsl(20, 90%, 50%)" />
<rect x="22" y="46" width="6" height="6" fill="hsl(20, 90%, 50%)" />
<rect x="28" y="46" width="6" height="6" fill="hsl(20, 90%, 50%)" />
<rect x="82" y="46" width="6" height="6" fill="hsl(20, 90%, 50%)" />
<rect x="88" y="46" width="6" height="6" fill="hsl(20, 90%, 50%)" />
<rect x="22" y="64" width="6" height="6" fill="hsl(20, 90%, 50%)" />
<rect x="28" y="64" width="6" height="6" fill="hsl(20, 90%, 50%)" />
<rect x="82" y="64" width="6" height="6" fill="hsl(20, 90%, 50%)" />
<rect x="88" y="64" width="6" height="6" fill="hsl(20, 90%, 50%)" />
<rect x="10" y="70" width="6" height="6" fill="hsl(20, 90%, 50%)" />
<rect x="22" y="70" width="6" height="6" fill="hsl(20, 90%, 50%)" />
<rect x="88" y="70" width="6" height="6" fill="hsl(20, 90%, 50%)" />
<rect x="100" y="70" width="6" height="6" fill="hsl(20, 90%, 50%)" />
<rect x="4" y="76" width="6" height="6" fill="hsl(20, 90%, 50%)" />
<rect x="16" y="76" width="6" height="6" fill="hsl(20, 90%, 50%)" />
<rect x="22" y="76" width="6" height="6" fill="hsl(20, 90%, 50%)" />
<rect x="88" y="76" width="6" height="6" fill="hsl(20, 90%, 50%)" />
<rect x="94" y="76" width="6" height="6" fill="hsl(20, 90%, 50%)" />
<rect x="106" y="76" width="6" height="6" fill="hsl(20, 90%, 50%)" />
<rect x="4" y="82" width="6" height="6" fill="hsl(20, 90%, 50%)" />
<rect x="46" y="82" width="6" height="6" fill="hsl(20, 90%, 50%)" />
<rect x="64" y="82" width="6" height="6" fill="hsl(20, 90%, 50%)" />
<rect x="106" y="82" width="6" height="6" fill="hsl(20, 90%, 50%)" />
<rect x="10" y="88" width="6" height="6" fill="hsl(20, 90%, 50%)" />
<rect x="16" y="88" width="6" height="6" fill="hsl(20, 90%, 50%)" />
<rect x="34" y="88" width="6" height="6" fill="hsl(20, 90%, 50%)" />
<rect x="40" y="88" width="6" height="6" fill="hsl(20, 90%, 50%)" />
<rect x="46" y="88" width="6" height="6" fill="hsl(20, 90%, 50%)" />
<rect x="64" y="88" width="6" height="6" fill="hsl(20, 90%, 50%)" />
<rect x="70" y="88" width="6" height="6" fill="hsl(20, 90%, 50%)" />
<rect x="76" y="88" width="6" height="6" fill="hsl(20, 90%, 50%)" />
<rect x="94" y="88" width="6" height="6" fill="hsl(20, 90%, 50%)" />
<rect x="100" y="88" width="6" height="6" fill="hsl(20, 90%, 50%)" />
<rect x="22" y="94" width="6" height="6" fill="hsl(20, 90%, 50%)" />
<rect x="34" y="94" width="6" height="6" fill="hsl(20, 90%, 50%)" />
<rect x="76" y="94" width="6" height="6" fill="hsl(20, 90%, 50%)" />
<rect x="88" y="94" width="6" height="6" fill="hsl(20, 90%, 50%)" />
<rect x="22" y="100" width="6" height="6" fill="hsl(20, 90%, 50%)" />
<rect x="40" y="100" width="6" height="6" fill="hsl(20, 90%, 50%)" />
<rect x="70" y="100" width="6" height="6" fill="hsl(20, 90%, 50%)" />
<rect x="88" y="100" width="6" height="6" fill="hsl(20, 90%, 50%)" />
<rect x="28" y="106" width="6" height="6" fill="hsl(20, 90%, 50%)" />
<rect x="34" y="106" width="6" height="6" fill="hsl(20, 90%, 50%)" />
<rect x="76" y="106" width="6" height="6" fill="hsl(20, 90%, 50%)" />
<rect x="82" y="106" width="6" height="6" fill="hsl(20, 90%, 50%)" />
</svg>