<?xml version="1.0" encoding="utf-8"?>
<svg xmlns="http://www.w3.org/2000/svg" width="92" height="80" viewBox="0 0 92 80">
<rect width="100%" height="100%" fill="transparent" />
<rect x="30" y="4" width="2" height="2" fill="hsl(20, 90%, 50%)" />
<rect x="12" y="6" width="2" height="2" fill="hsl(20, 90%, 50%)" />
<rect x="14" y="6" width="2" height="2" fill="hsl(20, 90%, 50%)" />
<rect x="26" y="6" width="2" height="2" fill="hsl(20, 90%, 50%)" />
<rect x="28" y="6" width="2" height="2" fill="hsl(20, 90%, 50%)" />
<rect x="30" y="6" width="2" height="2" fill="hsl(20, 90%, 50%)" />
<rect x="46" y="6" width="2" height="2" fill="hsl(20, 90%, 50%)" />
<rect x="48" y="6" width="2" height="2" fill="hsl(20, 90%, 50%)" />
<rect x="14" y="8" width="2" height="2" fill="hsl(20, 90%, 50%)" />
<rect x="24" y="8" width="2" height="2" fill="hsl(20, 90%, 50%)" />
<rect x="46" y="8" width="2" height="2" fill="hsl(20, 90%, 50%)" />
<rect x="14" y="10" width="2" height="2" fill="hsl(20, 90%, 50%)" />
<rect x="18" y="10" width="2" height="2" fill="hsl(20, 90%, 50%)" />
<rect x="26" y="10" width="2" height="2" fill="hsl(20, 90%, 50%)" />
<rect x="48" y="10" width="2" height="2" fill="hsl(20, 90%, 50%)" />
<rect x="16" y="12" width="2" height="2" fill="hsl(20, 90%, 50%)" />
<rect x="20" y="12" width="2" height="2" fill="hsl(20, 90%, 50%)" />
<rect x="28" y="12" width="2" height="2" fill="hsl(20, 90%, 50%)" />
<rect x="46" y="12" width="2" height="2" fill="hsl(20, 90%, 50%)" />
<rect x="48" y="12" width="2" height="2" fill="hsl(20, 90%, 50%)" />
<rect x="18" y="14" width="2" height="2" fill="hsl(20, 90%, 50%)" />
<rect x="26" y="14" width="2" height="2" fill="hsl(20, 90%, 50%)" />
<rect x="28" y="14" width="2" height="2" fill="hsl(20, 90%, 50%)" />
<rect x="64" y="14" width="2" height="2" fill="hsl(20, 90%, 50%)" />
<rect x="78" y="14" width="2" height="2" fill="hsl(20, 90%, 50%)" />
<rect x="60" y="16" width="2" height="2" fill="hsl(20, 90%, 50%)" />
<rect x="62" y="16" width="2" height="2" fill="hsl(20, 90%, 50%)" />
<rect x="64" y="16" width="2" height="2" fill="hsl(20, 90%, 50%)" />
<rect x="76" y="16" width="2" height="2" fill="hsl(20, 90%, 50%)" />
<rect x="80" y="16" width="2" height="2" fill="hsl(20, 90%, 50%)" />
<rect x="58" y="18" width="2" height="2" fill="hsl(20, 90%, 50%)" />
<rect x="76" y="18" width="2" height="2" fill="hsl(20, 90%, 50%)" />
<rect x="80" y="18" width="2" height="2" fill="hsl(20, 90%, 50%)" />
<rect x="58" y="20" width="2" height="2" fill="hsl(20, 90%, 50%)" />
<rect x="60" y="20" width="2" height="2" fill="hsl(20, 90%, 50%)" />
<rect x="74" y="20" width="2" height="2" fill="hsl(20, 90%, 50%)" />
<rect x="76" y="20" width="2" height="2" fill="hsl(20, 90%, 50%)" />
<rect x="80" y="20" width="2" height="2" fill="hsl(20, 90%, 50%)" />
<rect x="82" y="20" width="2" height="2" fill="hsl(20, 90%, 50%)" />
<rect x="84" y="20" width="2" height="2" fill="hsl(20, 90%, 50%)" />
<rect x="86" y="22" width="2" height="2" fill="hsl(20, 90%, 50%)" />
<rect x="8" y="24" width="2" height="2" fill="hsl(20, 90%, 50%)" />
<rect x="40" y="24" width="2" height="2" fill="hsl(20, 90%, 50%)" />
<rect x="42" y="24" width="2" height="2" fill="hsl(20, 90%, 50%)" />
<rect x="74" y="24" width="2" height="2" fill="hsl(20, 90%, 50%)" />
<rect x="76" y="24" width="2" height="2" fill="hsl(20, 90%, 50%)" />
<rect x="80" y="24" width="2" height="2" fill="hsl(20, 90%, 50%)" />
<rect x="82" y="24" width="2" height="2" fill="hsl(20, 90%, 50%)" />
<rect x="84" y="24" width="2" height="2" fill="hsl(20, 90%, 50%)" />
<rect x="8" y="26" width="2" height="2" fill="hsl(20, 90%, 50%)" />
<rect x="40" y="26" width="2" height="2" fill="hsl(20, 90%, 50%)" />
<rect x="42" y="26" width="2" height="2" fill="hsl(20, 90%, 50%)" />
<rect x="74" y="26" width="2" height="2" fill="hsl(20, 90%, 50%)" />
<rect x="76" y="26" width="2" height="2" fill="hsl(20, 90%, 50%)" />
<rect x="80" y="26" width="2" height="2" fill="hsl(20, 90%, 50%)" />
<rect x="4" y="28" width="2" height="2" fill="hsl(20, 90%, 50%)" />
<rect x="6" y="28" width="2" height="2" fill="hsl(20, 90%, 50%)" />
<rect x="8" y="28" width="2" height="2" fill="hsl(20, 90%, 50%)" />
<rect x="4" y="30" width="2" height="2" fill="hsl(20, 90%, 50%)" />
<rect x="84" y="36" width="2" height="2" fill="hsl(20, 90%, 50%)" />
<rect x="86" y="36" width="2" height="2" fill="hsl(20, 90%, 50%)" />
<rect x="84" y="38" width="2" height="2" fill="hsl(20, 90%, 50%)" />
<rect x="80" y="40" width="2" height="2" fill="hsl(20, 90%, 50%)" />
<rect x="84" y="40" width="2" height="2" fill="hsl(20, 90%, 50%)" />
<rect x="80" y="42" width="2" height="2" fill="hsl(20, 90%, 50%)" />
<rect x="82" y="42" width="2" height="2" fill="hsl(20, 90%, 50%)" />
<rect x="16" y="56" width="2" height="2" fill="hsl(20, 90%, 50%)" />
<rect x="16" y="58" width="2" height="2" fill="hsl(20, 90%, 50%)" />
<rect x="20" y="58" width="2" height="2" fill="hsl(20, 90%, 50%)" />
<rect x="16" y="60" width="2" height="2" fill="hsl(20, 90%, 50%)" />
<rect x="18" y="60" width="2" height="2" fill="hsl(20, 90%, 50%)" />
<rect x="20" y="60" width="2" height="2" fill="hsl(20, 90%, 50%)" />
<rect x="20" y="62" width="2" height="2" fill="hsl(20, 90%, 50%)" />
<rect x="62" y="62" width="2" height="2" fill="hsl(20, 90%, 50%)" />
<rect x="64" y="62" width="2" height="2" fill="hsl(20, 90%, 50%)" />
<rect x="62" y="64" width="2" height="2" fill="hsl(20, 90%, 50%)" />
<rect x="40" y="66" width="2" height="2" fill="hsl(20, 90%, 50%)" />
<rect x="42" y="66" width="2" height="2" fill="hsl(20, 90%, 50%)" />
<rect x="64" y="66" width="2" height="2" fill="hsl(20, 90%, 50%)" />
<rect x="40" y="68" width="2" height="2" fill="hsl(20, 90%, 50%)" />
<rect x="42" y="68" width="2" height="2" fill="hsl(20, 90%, 50%)" />
<rect x="48" y="68" width="2" height="2" fill="hsl(20, 90%, 50%)" />
<rect x="50" y="68" width="2" height="2" fill="hsl(20, 90%, 50%)" />
<rect x="62" y="68" width="2" height="2" fill="hsl(20, 90%, 50%)" />
<rect x="64" y="68" width="2" height="2" fill="hsl(20, 90%, 50%)" />
<rect x="48" y="70" width="2" height="2" fill="hsl(20, 90%, 50%)" />
<rect x="52" y="70" width="2" height="2" fill="hsl(20, 90%, 50%)" />
<rect x="52" y="72" width="2" height="2" fill="hsl(20, 90%, 50%)" />
<rect x="52" y="74" width="2" height="2" fill="hsl(20, 90%, 50%)" />
<rect x="54" y="74" width="2" height="2" fill="hsl(20, 90%, 50%)" />
</svg>