<?xml version="1.0" encoding="utf-8"?>
<svg xmlns="http://www.w3.org/2000/svg" width="124" height="46" viewBox="0 0 124 46">
<rect width="100%" height="100%" fill="transparent" />
<rect x="8" y="4" width="2" height="2" fill="hsl(20, 90%, 50%)" />
<rect x="38" y="4" width="2" height="2" fill="hsl(20, 90%, 50%)" />
<rect x="108" y="4" width="2" height="2" fill="hsl(20, 90%, 50%)" />
<rect x="4" y="6" width="2" height="2" fill="hsl(20, 90%, 50%)" />
<rect x="10" y="6" width="2" height="2" fill="hsl(20, 90%, 50%)" />
<rect x="16" y="6" width="2" height="2" fill="hsl(20, 90%, 50%)" />
<rect x="18" y="6" width="2" height="2" fill="hsl(20, 90%, 50%)" />
<rect x="20" y="6" width="2" height="2" fill="hsl(20, 90%, 50%)" />
<rect x="36" y="6" width="2" height="2" fill="hsl(20, 90%, 50%)" />
<rect x="40" y="6" width="2" height="2" fill="hsl(20, 90%, 50%)" />
<rect x="42" y="6" width="2" height="2" fill="hsl(20, 90%, 50%)" />
<rect x="44" y="6" width="2" height="2" fill="hsl(20, 90%, 50%)" />
<rect x="46" y="6" width="2" height="2" fill="hsl(20, 90%, 50%)" />
<rect x="78" y="6" width="2" height="2" fill="hsl(20, 90%, 50%)" />
<rect x="80" y="6" width="2" height="2" fill="hsl(20, 90%, 50%)" />
<rect x="104" y="6" width="2" height="2" fill="hsl(20, 90%, 50%)" />
<rect x="106" y="6" width="2" height="2" fill="hsl(20, 90%, 50%)" />
<rect x="110" y="6" width="2" height="2" fill="hsl(20, 90%, 50%)" />
<rect x="4" y="8" width="2" height="2" fill="hsl(20, 90%, 50%)" />
<rect x="10" y="8" width="2" height="2" fill="hsl(20, 90%, 50%)" />
<rect x="36" y="8" width="2" height="2" fill="hsl(20, 90%, 50%)" />
<rect x="38" y="8" width="2" height="2" fill="hsl(20, 90%, 50%)" />
<rect x="40" y="8" width="2" height="2" fill="hsl(20, 90%, 50%)" />
<rect x="44" y="8" width="2" height="2" fill="hsl(20, 90%, 50%)" />
<rect x="48" y="8" width="2" height="2" fill="hsl(20, 90%, 50%)" />
<rect x="68" y="8" width="2" height="2" fill="hsl(20, 90%, 50%)" />
<rect x="80" y="8" width="2" height="2" fill="hsl(20, 90%, 50%)" />
<rect x="96" y="8" width="2" height="2" fill="hsl(20, 90%, 50%)" />
<rect x="104" y="8" width="2" height="2" fill="hsl(20, 90%, 50%)" />
<rect x="6" y="10" width="2" height="2" fill="hsl(20, 90%, 50%)" />
<rect x="10" y="10" width="2" height="2" fill="hsl(20, 90%, 50%)" />
<rect x="16" y="10" width="2" height="2" fill="hsl(20, 90%, 50%)" />
<rect x="60" y="10" width="2" height="2" fill="hsl(20, 90%, 50%)" />
<rect x="62" y="10" width="2" height="2" fill="hsl(20, 90%, 50%)" />
<rect x="64" y="10" width="2" height="2" fill="hsl(20, 90%, 50%)" />
<rect x="70" y="10" width="2" height="2" fill="hsl(20, 90%, 50%)" />
<rect x="74" y="10" width="2" height="2" fill="hsl(20, 90%, 50%)" />
<rect x="78" y="10" width="2" height="2" fill="hsl(20, 90%, 50%)" />
<rect x="80" y="10" width="2" height="2" fill="hsl(20, 90%, 50%)" />
<rect x="82" y="10" width="2" height="2" fill="hsl(20, 90%, 50%)" />
<rect x="94" y="10" width="2" height="2" fill="hsl(20, 90%, 50%)" />
<rect x="98" y="10" width="2" height="2" fill="hsl(20, 90%, 50%)" />
<rect x="102" y="10" width="2" height="2" fill="hsl(20, 90%, 50%)" />
<rect x="112" y="10" width="2" height="2" fill="hsl(20, 90%, 50%)" />
<rect x="8" y="12" width="2" height="2" fill="hsl(20, 90%, 50%)" />
<rect x="10" y="12" width="2" height="2" fill="hsl(20, 90%, 50%)" />
<rect x="24" y="12" width="2" height="2" fill="hsl(20, 90%, 50%)" />
<rect x="34" y="12" width="2" height="2" fill="hsl(20, 90%, 50%)" />
<rect x="68" y="12" width="2" height="2" fill="hsl(20, 90%, 50%)" />
<rect x="70" y="12" width="2" height="2" fill="hsl(20, 90%, 50%)" />
<rect x="72" y="12" width="2" height="2" fill="hsl(20, 90%, 50%)" />
<rect x="74" y="12" width="2" height="2" fill="hsl(20, 90%, 50%)" />
<rect x="76" y="12" width="2" height="2" fill="hsl(20, 90%, 50%)" />
<rect x="78" y="12" width="2" height="2" fill="hsl(20, 90%, 50%)" />
<rect x="84" y="12" width="2" height="2" fill="hsl(20, 90%, 50%)" />
<rect x="90" y="12" width="2" height="2" fill="hsl(20, 90%, 50%)" />
<rect x="98" y="12" width="2" height="2" fill="hsl(20, 90%, 50%)" />
<rect x="106" y="12" width="2" height="2" fill="hsl(20, 90%, 50%)" />
<rect x="112" y="12" width="2" height="2" fill="hsl(20, 90%, 50%)" />
<rect x="6" y="14" width="2" height="2" fill="hsl(20, 90%, 50%)" />
<rect x="10" y="14" width="2" height="2" fill="hsl(20, 90%, 50%)" />
<rect x="18" y="14" width="2" height="2" fill="hsl(20, 90%, 50%)" />
<rect x="20" y="14" width="2" height="2" fill="hsl(20, 90%, 50%)" />
<rect x="32" y="14" width="2" height="2" fill="hsl(20, 90%, 50%)" />
<rect x="40" y="14" width="2" height="2" fill="hsl(20, 90%, 50%)" />
<rect x="42" y="14" width="2" height="2" fill="hsl(20, 90%, 50%)" />
<rect x="56" y="14" width="2" height="2" fill="hsl(20, 90%, 50%)" />
<rect x="58" y="14" width="2" height="2" fill="hsl(20, 90%, 50%)" />
<rect x="62" y="14" width="2" height="2" fill="hsl(20, 90%, 50%)" />
<rect x="64" y="14" width="2" height="2" fill="hsl(20, 90%, 50%)" />
<rect x="70" y="14" width="2" height="2" fill="hsl(20, 90%, 50%)" />
<rect x="76" y="14" width="2" height="2" fill="hsl(20, 90%, 50%)" />
<rect x="78" y="14" width="2" height="2" fill="hsl(20, 90%, 50%)" />
<rect x="84" y="14" width="2" height="2" fill="hsl(20, 90%, 50%)" />
<rect x="88" y="14" width="2" height="2" fill="hsl(20, 90%, 50%)" />
<rect x="92" y="14" width="2" height="2" fill="hsl(20, 90%, 50%)" />
<rect x="94" y="14" width="2" height="2" fill="hsl(20, 90%, 50%)" />
<rect x="100" y="14" width="2" height="2" fill="hsl(20, 90%, 50%)" />
<rect x="8" y="16" width="2" height="2" fill="hsl(20, 90%, 50%)" />
<rect x="20" y="16" width="2" height="2" fill="hsl(20, 90%, 50%)" />
<rect x="24" y="16" width="2" height="2" fill="hsl(20, 90%, 50%)" />
<rect x="26" y="16" width="2" height="2" fill="hsl(20, 90%, 50%)" />
<rect x="32" y="16" width="2" height="2" fill="hsl(20, 90%, 50%)" />
<rect x="40" y="16" width="2" height="2" fill="hsl(20, 90%, 50%)" />
<rect x="42" y="16" width="2" height="2" fill="hsl(20, 90%, 50%)" />
<rect x="56" y="16" width="2" height="2" fill="hsl(20, 90%, 50%)" />
<rect x="58" y="16" width="2" height="2" fill="hsl(20, 90%, 50%)" />
<rect x="68" y="16" width="2" height="2" fill="hsl(20, 90%, 50%)" />
<rect x="72" y="16" width="2" height="2" fill="hsl(20, 90%, 50%)" />
<rect x="76" y="16" width="2" height="2" fill="hsl(20, 90%, 50%)" />
<rect x="82" y="16" width="2" height="2" fill="hsl(20, 90%, 50%)" />
<rect x="88" y="16" width="2" height="2" fill="hsl(20, 90%, 50%)" />
<rect x="92" y="16" width="2" height="2" fill="hsl(20, 90%, 50%)" />
<rect x="96" y="16" width="2" height="2" fill="hsl(20, 90%, 50%)" />
<rect x="110" y="16" width="2" height="2" fill="hsl(20, 90%, 50%)" />
<rect x="112" y="16" width="2" height="2" fill="hsl(20, 90%, 50%)" />
<rect x="118" y="16" width="2" height="2" fill="hsl(20, 90%, 50%)" />
<rect x="8" y="18" width="2" height="2" fill="hsl(20, 90%, 50%)" />
<rect x="18" y="18" width="2" height="2" fill="hsl(20, 90%, 50%)" />
<rect x="20" y="18" width="2" height="2" fill="hsl(20, 90%, 50%)" />
<rect x="22" y="18" width="2" height="2" fill="hsl(20, 90%, 50%)" />
<rect x="28" y="18" width="2" height="2" fill="hsl(20, 90%, 50%)" />
<rect x="48" y="18" width="2" height="2" fill="hsl(20, 90%, 50%)" />
<rect x="50" y="18" width="2" height="2" fill="hsl(20, 90%, 50%)" />
<rect x="52" y="18" width="2" height="2" fill="hsl(20, 90%, 50%)" />
<rect x="68" y="18" width="2" height="2" fill="hsl(20, 90%, 50%)" />
<rect x="70" y="18" width="2" height="2" fill="hsl(20, 90%, 50%)" />
<rect x="72" y="18" width="2" height="2" fill="hsl(20, 90%, 50%)" />
<rect x="76" y="18" width="2" height="2" fill="hsl(20, 90%, 50%)" />
<rect x="80" y="18" width="2" height="2" fill="hsl(20, 90%, 50%)" />
<rect x="82" y="18" width="2" height="2" fill="hsl(20, 90%, 50%)" />
<rect x="94" y="18" width="2" height="2" fill="hsl(20, 90%, 50%)" />
<rect x="110" y="18" width="2" height="2" fill="hsl(20, 90%, 50%)" />
<rect x="112" y="18" width="2" height="2" fill="hsl(20, 90%, 50%)" />
<rect x="114" y="18" width="2" height="2" fill="hsl(20, 90%, 50%)" />
<rect x="118" y="18" width="2" height="2" fill="hsl(20, 90%, 50%)" />
<rect x="28" y="20" width="2" height="2" fill="hsl(20, 90%, 50%)" />
<rect x="30" y="20" width="2" height="2" fill="hsl(20, 90%, 50%)" />
<rect x="32" y="20" width="2" height="2" fill="hsl(20, 90%, 50%)" />
<rect x="34" y="20" width="2" height="2" fill="hsl(20, 90%, 50%)" />
<rect x="36" y="20" width="2" height="2" fill="hsl(20, 90%, 50%)" />
<rect x="38" y="20" width="2" height="2" fill="hsl(20, 90%, 50%)" />
<rect x="40" y="20" width="2" height="2" fill="hsl(20, 90%, 50%)" />
<rect x="42" y="20" width="2" height="2" fill="hsl(20, 90%, 50%)" />
<rect x="44" y="20" width="2" height="2" fill="hsl(20, 90%, 50%)" />
<rect x="52" y="20" width="2" height="2" fill="hsl(20, 90%, 50%)" />
<rect x="70" y="20" width="2" height="2" fill="hsl(20, 90%, 50%)" />
<rect x="72" y="20" width="2" height="2" fill="hsl(20, 90%, 50%)" />
<rect x="76" y="20" width="2" height="2" fill="hsl(20, 90%, 50%)" />
<rect x="78" y="20" width="2" height="2" fill="hsl(20, 90%, 50%)" />
<rect x="80" y="20" width="2" height="2" fill="hsl(20, 90%, 50%)" />
<rect x="88" y="20" width="2" height="2" fill="hsl(20, 90%, 50%)" />
<rect x="90" y="20" width="2" height="2" fill="hsl(20, 90%, 50%)" />
<rect x="92" y="20" width="2" height="2" fill="hsl(20, 90%, 50%)" />
<rect x="94" y="20" width="2" height="2" fill="hsl(20, 90%, 50%)" />
<rect x="114" y="20" width="2" height="2" fill="hsl(20, 90%, 50%)" />
<rect x="118" y="20" width="2" height="2" fill="hsl(20, 90%, 50%)" />
<rect x="28" y="24" width="2" height="2" fill="hsl(20, 90%, 50%)" />
<rect x="30" y="24" width="2" height="2" fill="hsl(20, 90%, 50%)" />
<rect x="32" y="24" width="2" height="2" fill="hsl(20, 90%, 50%)" />
<rect x="34" y="24" width="2" height="2" fill="hsl(20, 90%, 50%)" />
<rect x="36" y="24" width="2" height="2" fill="hsl(20, 90%, 50%)" />
<rect x="38" y="24" width="2" height="2" fill="hsl(20, 90%, 50%)" />
<rect x="40" y="24" width="2" height="2" fill="hsl(20, 90%, 50%)" />
<rect x="42" y="24" width="2" height="2" fill="hsl(20, 90%, 50%)" />
<rect x="44" y="24" width="2" height="2" fill="hsl(20, 90%, 50%)" />
<rect x="52" y="24" width="2" height="2" fill="hsl(20, 90%, 50%)" />
<rect x="70" y="24" width="2" height="2" fill="hsl(20, 90%, 50%)" />
<rect x="72" y="24" width="2" height="2" fill="hsl(20, 90%, 50%)" />
<rect x="76" y="24" width="2" height="2" fill="hsl(20, 90%, 50%)" />
<rect x="78" y="24" width="2" height="2" fill="hsl(20, 90%, 50%)" />
<rect x="80" y="24" width="2" height="2" fill="hsl(20, 90%, 50%)" />
<rect x="88" y="24" width="2" height="2" fill="hsl(20, 90%, 50%)" />
<rect x="90" y="24" width="2" height="2" fill="hsl(20, 90%, 50%)" />
<rect x="92" y="24" width="2" height="2" fill="hsl(20, 90%, 50%)" />
<rect x="94" y="24" width="2" height="2" fill="hsl(20, 90%, 50%)" />
<rect x="114" y="24" width="2" height="2" fill="hsl(20, 90%, 50%)" />
<rect x="118" y="24" width="2" height="2" fill="hsl(20, 90%, 50%)" />
<rect x="8" y="26" width="2" height="2" fill="hsl(20, 90%, 50%)" />
<rect x="18" y="26" width="2" height="2" fill="hsl(20, 90%, 50%)" />
<rect x="20" y="26" width="2" height="2" fill="hsl(20, 90%, 50%)" />
<rect x="22" y="26" width="2" height="2" fill="hsl(20, 90%, 50%)" />
<rect x="28" y="26" width="2" height="2" fill="hsl(20, 90%, 50%)" />
<rect x="48" y="26" width="2" height="2" fill="hsl(20, 90%, 50%)" />
<rect x="50" y="26" width="2" height="2" fill="hsl(20, 90%, 50%)" />
<rect x="52" y="26" width="2" height="2" fill="hsl(20, 90%, 50%)" />
<rect x="68" y="26" width="2" height="2" fill="hsl(20, 90%, 50%)" />
<rect x="70" y="26" width="2" height="2" fill="hsl(20, 90%, 50%)" />
<rect x="72" y="26" width="2" height="2" fill="hsl(20, 90%, 50%)" />
<rect x="76" y="26" width="2" height="2" fill="hsl(20, 90%, 50%)" />
<rect x="80" y="26" width="2" height="2" fill="hsl(20, 90%, 50%)" />
<rect x="82" y="26" width="2" height="2" fill="hsl(20, 90%, 50%)" />
<rect x="94" y="26" width="2" height="2" fill="hsl(20, 90%, 50%)" />
<rect x="110" y="26" width="2" height="2" fill="hsl(20, 90%, 50%)" />
<rect x="112" y="26" width="2" height="2" fill="hsl(20, 90%, 50%)" />
<rect x="114" y="26" width="2" height="2" fill="hsl(20, 90%, 50%)" />
<rect x="118" y="26" width="2" height="2" fill="hsl(20, 90%, 50%)" />
<rect x="8" y="28" width="2" height="2" fill="hsl(20, 90%, 50%)" />
<rect x="20" y="28" width="2" height="2" fill="hsl(20, 90%, 50%)" />
<rect x="24" y="28" width="2" height="2" fill="hsl(20, 90%, 50%)" />
<rect x="26" y="28" width="2" height="2" fill="hsl(20, 90%, 50%)" />
<rect x="32" y="28" width="2" height="2" fill="hsl(20, 90%, 50%)" />
<rect x="40" y="28" width="2" height="2" fill="hsl(20, 90%, 50%)" />
<rect x="42" y="28" width="2" height="2" fill="hsl(20, 90%, 50%)" />
<rect x="56" y="28" width="2" height="2" fill="hsl(20, 90%, 50%)" />
<rect x="58" y="28" width="2" height="2" fill="hsl(20, 90%, 50%)" />
<rect x="68" y="28" width="2" height="2" fill="hsl(20, 90%, 50%)" />
<rect x="72" y="28" width="2" height="2" fill="hsl(20, 90%, 50%)" />
<rect x="76" y="28" width="2" height="2" fill="hsl(20, 90%, 50%)" />
<rect x="82" y="28" width="2" height="2" fill="hsl(20, 90%, 50%)" />
<rect x="88" y="28" width="2" height="2" fill="hsl(20, 90%, 50%)" />
<rect x="92" y="28" width="2" height="2" fill="hsl(20, 90%, 50%)" />
<rect x="96" y="28" width="2" height="2" fill="hsl(20, 90%, 50%)" />
<rect x="110" y="28" width="2" height="2" fill="hsl(20, 90%, 50%)" />
<rect x="112" y="28" width="2" height="2" fill="hsl(20, 90%, 50%)" />
<rect x="118" y="28" width="2" height="2" fill="hsl(20, 90%, 50%)" />
<rect x="6" y="30" width="2" height="2" fill="hsl(20, 90%, 50%)" />
<rect x="10" y="30" width="2" height="2" fill="hsl(20, 90%, 50%)" />
<rect x="18" y="30" width="2" height="2" fill="hsl(20, 90%, 50%)" />
<rect x="20" y="30" width="2" height="2" fill="hsl(20, 90%, 50%)" />
<rect x="32" y="30" width="2" height="2" fill="hsl(20, 90%, 50%)" />
<rect x="40" y="30" width="2" height="2" fill="hsl(20, 90%, 50%)" />
<rect x="42" y="30" width="2" height="2" fill="hsl(20, 90%, 50%)" />
<rect x="56" y="30" width="2" height="2" fill="hsl(20, 90%, 50%)" />
<rect x="58" y="30" width="2" height="2" fill="hsl(20, 90%, 50%)" />
<rect x="62" y="30" width="2" height="2" fill="hsl(20, 90%, 50%)" />
<rect x="64" y="30" width="2" height="2" fill="hsl(20, 90%, 50%)" />
<rect x="70" y="30" width="2" height="2" fill="hsl(20, 90%, 50%)" />
<rect x="76" y="30" width="2" height="2" fill="hsl(20, 90%, 50%)" />
<rect x="78" y="30" width="2" height="2" fill="hsl(20, 90%, 50%)" />
<rect x="84" y="30" width="2" height="2" fill="hsl(20, 90%, 50%)" />
<rect x="88" y="30" width="2" height="2" fill="hsl(20, 90%, 50%)" />
<rect x="92" y="30" width="2" height="2" fill="hsl(20, 90%, 50%)" />
<rect x="94" y="30" width="2" height="2" fill="hsl(20, 90%, 50%)" />
<rect x="100" y="30" width="2" height="2" fill="hsl(20, 90%, 50%)" />
<rect x="8" y="32" width="2" height="2" fill="hsl(20, 90%, 50%)" />
<rect x="10" y="32" width="2" height="2" fill="hsl(20, 90%, 50%)" />
<rect x="24" y="32" width="2" height="2" fill="hsl(20, 90%, 50%)" />
<rect x="34" y="32" width="2" height="2" fill="hsl(20, 90%, 50%)" />
<rect x="68" y="32" width="2" height="2" fill="hsl(20, 90%, 50%)" />
<rect x="70" y="32" width="2" height="2" fill="hsl(20, 90%, 50%)" />
<rect x="72" y="32" width="2" height="2" fill="hsl(20, 90%, 50%)" />
<rect x="74" y="32" width="2" height="2" fill="hsl(20, 90%, 50%)" />
<rect x="76" y="32" width="2" height="2" fill="hsl(20, 90%, 50%)" />
<rect x="78" y="32" width="2" height="2" fill="hsl(20, 90%, 50%)" />
<rect x="84" y="32" width="2" height="2" fill="hsl(20, 90%, 50%)" />
<rect x="90" y="32" width="2" height="2" fill="hsl(20, 90%, 50%)" />
<rect x="98" y="32" width="2" height="2" fill="hsl(20, 90%, 50%)" />
<rect x="106" y="32" width="2" height="2" fill="hsl(20, 90%, 50%)" />
<rect x="112" y="32" width="2" height="2" fill="hsl(20, 90%, 50%)" />
<rect x="6" y="34" width="2" height="2" fill="hsl(20, 90%, 50%)" />
<rect x="10" y="34" width="2" height="2" fill="hsl(20, 90%, 50%)" />
<rect x="16" y="34" width="2" height="2" fill="hsl(20, 90%, 50%)" />
<rect x="60" y="34" width="2" height="2" fill="hsl(20, 90%, 50%)" />
<rect x="62" y="34" width="2" height="2" fill="hsl(20, 90%, 50%)" />
<rect x="64" y="34" width="2" height="2" fill="hsl(20, 90%, 50%)" />
<rect x="70" y="34" width="2" height="2" fill="hsl(20, 90%, 50%)" />
<rect x="74" y="34" width="2" height="2" fill="hsl(20, 90%, 50%)" />
<rect x="78" y="34" width="2" height="2" fill="hsl(20, 90%, 50%)" />
<rect x="80" y="34" width="2" height="2" fill="hsl(20, 90%, 50%)" />
<rect x="82" y="34" width="2" height="2" fill="hsl(20, 90%, 50%)" />
<rect x="94" y="34" width="2" height="2" fill="hsl(20, 90%, 50%)" />
<rect x="98" y="34" width="2" height="2" fill="hsl(20, 90%, 50%)" />
<rect x="102" y="34" width="2" height="2" fill="hsl(20, 90%, 50%)" />
<rect x="112" y="34" width="2" height="2" fill="hsl(20, 90%, 50%)" />
<rect x="4" y="36" width="2" height="2" fill="hsl(20, 90%, 50%)" />
<rect x="10" y="36" width="2" height="2" fill="hsl(20, 90%, 50%)" />
<rect x="36" y="36" width="2" height="2" fill="hsl(20, 90%, 50%)" />
<rect x="38" y="36" width="2" height="2" fill="hsl(20, 90%, 50%)" />
<rect x="40" y="36" width="2" height="2" fill="hsl(20, 90%, 50%)" />
<rect x="44" y="36" width="2" height="2" fill="hsl(20, 90%, 50%)" />
<rect x="48" y="36" width="2" height="2" fill="hsl(20, 90%, 50%)" />
<rect x="68" y="36" width="2" height="2" fill="hsl(20, 90%, 50%)" />
<rect x="80" y="36" width="2" height="2" fill="hsl(20, 90%, 50%)" />
<rect x="96" y="36" width="2" height="2" fill="hsl(20, 90%, 50%)" />
<rect x="104" y="36" width="2" height="2" fill="hsl(20, 90%, 50%)" />
<rect x="4" y="38" width="2" height="2" fill="hsl(20, 90%, 50%)" />
<rect x="10" y="38" width="2" height="2" fill="hsl(20, 90%, 50%)" />
<rect x="16" y="38" width="2" height="2" fill="hsl(20, 90%, 50%)" />
<rect x="18" y="38" width="2" height="2" fill="hsl(20, 90%, 50%)" />
<rect x="20" y="38" width="2" height="2" fill="hsl(20, 90%, 50%)" />
<rect x="36" y="38" width="2" height="2" fill="hsl(20, 90%, 50%)" />
<rect x="40" y="38" width="2" height="2" fill="hsl(20, 90%, 50%)" />
<rect x="42" y="38" width="2" height="2" fill="hsl(20, 90%, 50%)" />
<rect x="44" y="38" width="2" height="2" fill="hsl(20, 90%, 50%)" />
<rect x="46" y="38" width="2" height="2" fill="hsl(20, 90%, 50%)" />
<rect x="78" y="38" width="2" height="2" fill="hsl(20, 90%, 50%)" />
<rect x="80" y="38" width="2" height="2" fill="hsl(20, 90%, 50%)" />
<rect x="104" y="38" width="2" height="2" fill="hsl(20, 90%, 50%)" />
<rect x="106" y="38" width="2" height="2" fill="hsl(20, 90%, 50%)" />
<rect x="110" y="38" width="2" height="2" fill="hsl(20, 90%, 50%)" />
<rect x="8" y="40" width="2" height="2" fill="hsl(20, 90%, 50%)" />
<rect x="38" y="40" width="2" height="2" fill="hsl(20, 90%, 50%)" />
<rect x="108" y="40" width="2" height="2" fill="hsl(20, 90%, 50%)" />
</svg>