<?xml version="1.0" encoding="utf-8"?>
<svg xmlns="http://www.w3.org/2000/svg" width="110" height="77" viewBox="0 0 110 77">
<rect width="100%" height="100%" fill="transparent" />
<rect x="16" y="4" width="3" height="3" fill="hsl(20, 90%, 50%)" />
<rect x="46" y="4" width="3" height="3" fill="hsl(20, 90%, 50%)" />
<rect x="16" y="7" width="3" height="3" fill="hsl(20, 90%, 50%)" />
<rect x="19" y="7" width="3" height="3" fill="hsl(20, 90%, 50%)" />
<rect x="22" y="7" width="3" height="3" fill="hsl(20, 90%, 50%)" />
<rect x="40" y="7" width="3" height="3" fill="hsl(20, 90%, 50%)" />
<rect x="43" y="7" width="3" height="3" fill="hsl(20, 90%, 50%)" />
<rect x="46" y="7" width="3" height="3" fill="hsl(20, 90%, 50%)" />
<rect x="7" y="10" width="3" height="3" fill="hsl(20, 90%, 50%)" />
<rect x="25" y="10" width="3" height="3" fill="hsl(20, 90%, 50%)" />
<rect x="37" y="10" width="3" height="3" fill="hsl(20, 90%, 50%)" />
<rect x="10" y="13" width="3" height="3" fill="hsl(20, 90%, 50%)" />
<rect x="22" y="13" width="3" height="3" fill="hsl(20, 90%, 50%)" />
<rect x="25" y="13" width="3" height="3" fill="hsl(20, 90%, 50%)" />
<rect x="37" y="13" width="3" height="3" fill="hsl(20, 90%, 50%)" />
<rect x="40" y="13" width="3" height="3" fill="hsl(20, 90%, 50%)" />
<rect x="4" y="16" width="3" height="3" fill="hsl(20, 90%, 50%)" />
<rect x="7" y="16" width="3" height="3" fill="hsl(20, 90%, 50%)" />
<rect x="10" y="16" width="3" height="3" fill="hsl(20, 90%, 50%)" />
<rect x="31" y="19" width="3" height="3" fill="hsl(20, 90%, 50%)" />
<rect x="28" y="22" width="3" height="3" fill="hsl(20, 90%, 50%)" />
<rect x="34" y="22" width="3" height="3" fill="hsl(20, 90%, 50%)" />
<rect x="28" y="25" width="3" height="3" fill="hsl(20, 90%, 50%)" />
<rect x="34" y="25" width="3" height="3" fill="hsl(20, 90%, 50%)" />
<rect x="31" y="28" width="3" height="3" fill="hsl(20, 90%, 50%)" />
<rect x="97" y="31" width="3" height="3" fill="hsl(20, 90%, 50%)" />
<rect x="97" y="34" width="3" height="3" fill="hsl(20, 90%, 50%)" />
<rect x="64" y="37" width="3" height="3" fill="hsl(20, 90%, 50%)" />
<rect x="67" y="37" width="3" height="3" fill="hsl(20, 90%, 50%)" />
<rect x="97" y="37" width="3" height="3" fill="hsl(20, 90%, 50%)" />
<rect x="100" y="37" width="3" height="3" fill="hsl(20, 90%, 50%)" />
<rect x="103" y="37" width="3" height="3" fill="hsl(20, 90%, 50%)" />
<rect x="46" y="40" width="3" height="3" fill="hsl(20, 90%, 50%)" />
<rect x="49" y="40" width="3" height="3" fill="hsl(20, 90%, 50%)" />
<rect x="64" y="40" width="3" height="3" fill="hsl(20, 90%, 50%)" />
<rect x="67" y="40" width="3" height="3" fill="hsl(20, 90%, 50%)" />
<rect x="103" y="40" width="3" height="3" fill="hsl(20, 90%, 50%)" />
<rect x="28" y="43" width="3" height="3" fill="hsl(20, 90%, 50%)" />
<rect x="31" y="43" width="3" height="3" fill="hsl(20, 90%, 50%)" />
<rect x="43" y="43" width="3" height="3" fill="hsl(20, 90%, 50%)" />
<rect x="46" y="43" width="3" height="3" fill="hsl(20, 90%, 50%)" />
<rect x="25" y="46" width="3" height="3" fill="hsl(20, 90%, 50%)" />
<rect x="34" y="46" width="3" height="3" fill="hsl(20, 90%, 50%)" />
<rect x="49" y="46" width="3" height="3" fill="hsl(20, 90%, 50%)" />
<rect x="10" y="49" width="3" height="3" fill="hsl(20, 90%, 50%)" />
<rect x="13" y="49" width="3" height="3" fill="hsl(20, 90%, 50%)" />
<rect x="28" y="49" width="3" height="3" fill="hsl(20, 90%, 50%)" />
<rect x="31" y="49" width="3" height="3" fill="hsl(20, 90%, 50%)" />
<rect x="7" y="52" width="3" height="3" fill="hsl(20, 90%, 50%)" />
<rect x="13" y="52" width="3" height="3" fill="hsl(20, 90%, 50%)" />
<rect x="7" y="55" width="3" height="3" fill="hsl(20, 90%, 50%)" />
<rect x="4" y="58" width="3" height="3" fill="hsl(20, 90%, 50%)" />
<rect x="7" y="58" width="3" height="3" fill="hsl(20, 90%, 50%)" />
<rect x="34" y="61" width="3" height="3" fill="hsl(20, 90%, 50%)" />
<rect x="37" y="61" width="3" height="3" fill="hsl(20, 90%, 50%)" />
<rect x="34" y="64" width="3" height="3" fill="hsl(20, 90%, 50%)" />
<rect x="37" y="67" width="3" height="3" fill="hsl(20, 90%, 50%)" />
<rect x="40" y="67" width="3" height="3" fill="hsl(20, 90%, 50%)" />
<rect x="43" y="67" width="3" height="3" fill="hsl(20, 90%, 50%)" />
<rect x="43" y="70" width="3" height="3" fill="hsl(20, 90%, 50%)" />
</svg>