<?xml version="1.0" encoding="utf-8"?>
<svg xmlns="http://www.w3.org/2000/svg" width="101" height="59" viewBox="0 0 101 59">
<rect width="100%" height="100%" fill="transparent" />
<rect x="70" y="4" width="3" height="3" fill="hsl(20, 90%, 50%)" />
<rect x="73" y="4" width="3" height="3" fill="hsl(20, 90%, 50%)" />
<rect x="73" y="7" width="3" height="3" fill="hsl(20, 90%, 50%)" />
<rect x="73" y="10" width="3" height="3" fill="hsl(20, 90%, 50%)" />
<rect x="79" y="10" width="3" height="3" fill="hsl(20, 90%, 50%)" />
<rect x="76" y="13" width="3" height="3" fill="hsl(20, 90%, 50%)" />
<rect x="82" y="13" width="3" height="3" fill="hsl(20, 90%, 50%)" />
<rect x="79" y="16" width="3" height="3" fill="hsl(20, 90%, 50%)" />
<rect x="91" y="16" width="3" height="3" fill="hsl(20, 90%, 50%)" />
<rect x="94" y="16" width="3" height="3" fill="hsl(20, 90%, 50%)" />
<rect x="91" y="19" width="3" height="3" fill="hsl(20, 90%, 50%)" />
<rect x="94" y="19" width="3" height="3" fill="hsl(20, 90%, 50%)" />
<rect x="4" y="34" width="3" height="3" fill="hsl(20, 90%, 50%)" />
<rect x="7" y="34" width="3" height="3" fill="hsl(20, 90%, 50%)" />
<rect x="4" y="37" width="3" height="3" fill="hsl(20, 90%, 50%)" />
<rect x="7" y="37" width="3" height="3" fill="hsl(20, 90%, 50%)" />
<rect x="67" y="46" width="3" height="3" fill="hsl(20, 90%, 50%)" />
<rect x="64" y="49" width="3" height="3" fill="hsl(20, 90%, 50%)" />
<rect x="67" y="49" width="3" height="3" fill="hsl(20, 90%, 50%)" />
<rect x="70" y="49" width="3" height="3" fill="hsl(20, 90%, 50%)" />
<rect x="70" y="52" width="3" height="3" fill="hsl(20, 90%, 50%)" />
<rect x="73" y="52" width="3" height="3" fill="hsl(20, 90%, 50%)" />
</svg>