<?xml version="1.0" encoding="utf-8"?>
<svg xmlns="http://www.w3.org/2000/svg" width="128" height="104" viewBox="0 0 128 104">
<rect width="100%" height="100%" fill="transparent" />
<rect x="8" y="4" width="4" height="4" fill="hsl(20, 90%, 50%)" />
<rect x="12" y="8" width="4" height="4" fill="hsl(20, 90%, 50%)" />
<rect x="68" y="8" width="4" height="4" fill="hsl(20, 90%, 50%)" />
<rect x="72" y="8" width="4" height="4" fill="hsl(20, 90%, 50%)" />
<rect x="4" y="12" width="4" height="4" fill="hsl(20, 90%, 50%)" />
<rect x="8" y="12" width="4" height="4" fill="hsl(20, 90%, 50%)" />
<rect x="12" y="12" width="4" height="4" fill="hsl(20, 90%, 50%)" />
<rect x="72" y="12" width="4" height="4" fill="hsl(20, 90%, 50%)" />
<rect x="64" y="16" width="4" height="4" fill="hsl(20, 90%, 50%)" />
<rect x="88" y="16" width="4" height="4" fill="hsl(20, 90%, 50%)" />
<rect x="92" y="16" width="4" height="4" fill="hsl(20, 90%, 50%)" />
<rect x="64" y="20" width="4" height="4" fill="hsl(20, 90%, 50%)" />
<rect x="68" y="20" width="4" height="4" fill="hsl(20, 90%, 50%)" />
<rect x="92" y="20" width="4" height="4" fill="hsl(20, 90%, 50%)" />
<rect x="92" y="24" width="4" height="4" fill="hsl(20, 90%, 50%)" />
<rect x="100" y="24" width="4" height="4" fill="hsl(20, 90%, 50%)" />
<rect x="104" y="24" width="4" height="4" fill="hsl(20, 90%, 50%)" />
<rect x="64" y="28" width="4" height="4" fill="hsl(20, 90%, 50%)" />
<rect x="68" y="28" width="4" height="4" fill="hsl(20, 90%, 50%)" />
<rect x="80" y="28" width="4" height="4" fill="hsl(20, 90%, 50%)" />
<rect x="84" y="28" width="4" height="4" fill="hsl(20, 90%, 50%)" />
<rect x="92" y="28" width="4" height="4" fill="hsl(20, 90%, 50%)" />
<rect x="104" y="28" width="4" height="4" fill="hsl(20, 90%, 50%)" />
<rect x="64" y="32" width="4" height="4" fill="hsl(20, 90%, 50%)" />
<rect x="68" y="32" width="4" height="4" fill="hsl(20, 90%, 50%)" />
<rect x="84" y="32" width="4" height="4" fill="hsl(20, 90%, 50%)" />
<rect x="92" y="32" width="4" height="4" fill="hsl(20, 90%, 50%)" />
<rect x="96" y="32" width="4" height="4" fill="hsl(20, 90%, 50%)" />
<rect x="84" y="36" width="4" height="4" fill="hsl(20, 90%, 50%)" />
<rect x="80" y="40" width="4" height="4" fill="hsl(20, 90%, 50%)" />
<rect x="84" y="40" width="4" height="4" fill="hsl(20, 90%, 50%)" />
<rect x="104" y="48" width="4" height="4" fill="hsl(20, 90%, 50%)" />
<rect x="108" y="48" width="4" height="4" fill="hsl(20, 90%, 50%)" />
<rect x="56" y="52" width="4" height="4" fill="hsl(20, 90%, 50%)" />
<rect x="108" y="52" width="4" height="4" fill="hsl(20, 90%, 50%)" />
<rect x="60" y="56" width="4" height="4" fill="hsl(20, 90%, 50%)" />
<rect x="108" y="56" width="4" height="4" fill="hsl(20, 90%, 50%)" />
<rect x="116" y="56" width="4" height="4" fill="hsl(20, 90%, 50%)" />
<rect x="120" y="56" width="4" height="4" fill="hsl(20, 90%, 50%)" />
<rect x="52" y="60" width="4" height="4" fill="hsl(20, 90%, 50%)" />
<rect x="56" y="60" width="4" height="4" fill="hsl(20, 90%, 50%)" />
<rect x="60" y="60" width="4" height="4" fill="hsl(20, 90%, 50%)" />
<rect x="76" y="60" width="4" height="4" fill="hsl(20, 90%, 50%)" />
<rect x="80" y="60" width="4" height="4" fill="hsl(20, 90%, 50%)" />
<rect x="100" y="60" width="4" height="4" fill="hsl(20, 90%, 50%)" />
<rect x="104" y="60" width="4" height="4" fill="hsl(20, 90%, 50%)" />
<rect x="108" y="60" width="4" height="4" fill="hsl(20, 90%, 50%)" />
<rect x="120" y="60" width="4" height="4" fill="hsl(20, 90%, 50%)" />
<rect x="76" y="64" width="4" height="4" fill="hsl(20, 90%, 50%)" />
<rect x="80" y="64" width="4" height="4" fill="hsl(20, 90%, 50%)" />
<rect x="96" y="64" width="4" height="4" fill="hsl(20, 90%, 50%)" />
<rect x="112" y="64" width="4" height="4" fill="hsl(20, 90%, 50%)" />
<rect x="116" y="64" width="4" height="4" fill="hsl(20, 90%, 50%)" />
<rect x="96" y="68" width="4" height="4" fill="hsl(20, 90%, 50%)" />
<rect x="100" y="68" width="4" height="4" fill="hsl(20, 90%, 50%)" />
<rect x="104" y="68" width="4" height="4" fill="hsl(20, 90%, 50%)" />
<rect x="108" y="68" width="4" height="4" fill="hsl(20, 90%, 50%)" />
<rect x="40" y="72" width="4" height="4" fill="hsl(20, 90%, 50%)" />
<rect x="44" y="72" width="4" height="4" fill="hsl(20, 90%, 50%)" />
<rect x="108" y="72" width="4" height="4" fill="hsl(20, 90%, 50%)" />
<rect x="36" y="76" width="4" height="4" fill="hsl(20, 90%, 50%)" />
<rect x="44" y="76" width="4" height="4" fill="hsl(20, 90%, 50%)" />
<rect x="96" y="76" width="4" height="4" fill="hsl(20, 90%, 50%)" />
<rect x="100" y="76" width="4" height="4" fill="hsl(20, 90%, 50%)" />
<rect x="104" y="76" width="4" height="4" fill="hsl(20, 90%, 50%)" />
<rect x="36" y="80" width="4" height="4" fill="hsl(20, 90%, 50%)" />
<rect x="92" y="80" width="4" height="4" fill="hsl(20, 90%, 50%)" />
<rect x="32" y="84" width="4" height="4" fill="hsl(20, 90%, 50%)" />
<rect x="36" y="84" width="4" height="4" fill="hsl(20, 90%, 50%)" />
<rect x="96" y="84" width="4" height="4" fill="hsl(20, 90%, 50%)" />
<rect x="100" y="84" width="4" height="4" fill="hsl(20, 90%, 50%)" />
<rect x="104" y="84" width="4" height="4" fill="hsl(20, 90%, 50%)" />
<rect x="108" y="84" width="4" height="4" fill="hsl(20, 90%, 50%)" />
<rect x="112" y="84" width="4" height="4" fill="hsl(20, 90%, 50%)" />
<rect x="112" y="88" width="4" height="4" fill="hsl(20, 90%, 50%)" />
<rect x="104" y="92" width="4" height="4" fill="hsl(20, 90%, 50%)" />
<rect x="104" y="96" width="4" height="4" fill="hsl(20, 90%, 50%)" />
<rect x="108" y="96" width="4" height="4" fill="hsl(20, 90%, 50%)" />
</svg>