<?xml version="1.0" encoding="utf-8"?>
<svg xmlns="http://www.w3.org/2000/svg" width="88" height="112" viewBox="0 0 88 112">
<rect width="100%" height="100%" fill="transparent" />
<rect x="8" y="4" width="4" height="4" fill="hsl(20, 90%, 50%)" />
<rect x="12" y="4" width="4" height="4" fill="hsl(20, 90%, 50%)" />
<rect x="4" y="8" width="4" height="4" fill="hsl(20, 90%, 50%)" />
<rect x="8" y="8" width="4" height="4" fill="hsl(20, 90%, 50%)" />
<rect x="12" y="12" width="4" height="4" fill="hsl(20, 90%, 50%)" />
<rect x="20" y="16" width="4" height="4" fill="hsl(20, 90%, 50%)" />
<rect x="24" y="16" width="4" height="4" fill="hsl(20, 90%, 50%)" />
<rect x="40" y="16" width="4" height="4" fill="hsl(20, 90%, 50%)" />
<rect x="20" y="20" width="4" height="4" fill="hsl(20, 90%, 50%)" />
<rect x="24" y="20" width="4" height="4" fill="hsl(20, 90%, 50%)" />
<rect x="36" y="20" width="4" height="4" fill="hsl(20, 90%, 50%)" />
<rect x="44" y="20" width="4" height="4" fill="hsl(20, 90%, 50%)" />
<rect x="32" y="24" width="4" height="4" fill="hsl(20, 90%, 50%)" />
<rect x="36" y="24" width="4" height="4" fill="hsl(20, 90%, 50%)" />
<rect x="44" y="24" width="4" height="4" fill="hsl(20, 90%, 50%)" />
<rect x="32" y="28" width="4" height="4" fill="hsl(20, 90%, 50%)" />
<rect x="36" y="28" width="4" height="4" fill="hsl(20, 90%, 50%)" />
<rect x="32" y="32" width="4" height="4" fill="hsl(20, 90%, 50%)" />
<rect x="36" y="32" width="4" height="4" fill="hsl(20, 90%, 50%)" />
<rect x="72" y="36" width="4" height="4" fill="hsl(20, 90%, 50%)" />
<rect x="76" y="36" width="4" height="4" fill="hsl(20, 90%, 50%)" />
<rect x="40" y="40" width="4" height="4" fill="hsl(20, 90%, 50%)" />
<rect x="60" y="40" width="4" height="4" fill="hsl(20, 90%, 50%)" />
<rect x="64" y="40" width="4" height="4" fill="hsl(20, 90%, 50%)" />
<rect x="72" y="40" width="4" height="4" fill="hsl(20, 90%, 50%)" />
<rect x="40" y="44" width="4" height="4" fill="hsl(20, 90%, 50%)" />
<rect x="44" y="44" width="4" height="4" fill="hsl(20, 90%, 50%)" />
<rect x="48" y="44" width="4" height="4" fill="hsl(20, 90%, 50%)" />
<rect x="60" y="44" width="4" height="4" fill="hsl(20, 90%, 50%)" />
<rect x="64" y="44" width="4" height="4" fill="hsl(20, 90%, 50%)" />
<rect x="40" y="48" width="4" height="4" fill="hsl(20, 90%, 50%)" />
<rect x="44" y="48" width="4" height="4" fill="hsl(20, 90%, 50%)" />
<rect x="48" y="48" width="4" height="4" fill="hsl(20, 90%, 50%)" />
<rect x="60" y="48" width="4" height="4" fill="hsl(20, 90%, 50%)" />
<rect x="64" y="48" width="4" height="4" fill="hsl(20, 90%, 50%)" />
<rect x="44" y="52" width="4" height="4" fill="hsl(20, 90%, 50%)" />
<rect x="48" y="52" width="4" height="4" fill="hsl(20, 90%, 50%)" />
<rect x="52" y="60" width="4" height="4" fill="hsl(20, 90%, 50%)" />
<rect x="48" y="64" width="4" height="4" fill="hsl(20, 90%, 50%)" />
<rect x="52" y="64" width="4" height="4" fill="hsl(20, 90%, 50%)" />
<rect x="48" y="68" width="4" height="4" fill="hsl(20, 90%, 50%)" />
<rect x="52" y="72" width="4" height="4" fill="hsl(20, 90%, 50%)" />
<rect x="56" y="80" width="4" height="4" fill="hsl(20, 90%, 50%)" />
<rect x="60" y="80" width="4" height="4" fill="hsl(20, 90%, 50%)" />
<rect x="60" y="84" width="4" height="4" fill="hsl(20, 90%, 50%)" />
<rect x="68" y="84" width="4" height="4" fill="hsl(20, 90%, 50%)" />
<rect x="72" y="84" width="4" height="4" fill="hsl(20, 90%, 50%)" />
<rect x="76" y="88" width="4" height="4" fill="hsl(20, 90%, 50%)" />
<rect x="64" y="92" width="4" height="4" fill="hsl(20, 90%, 50%)" />
<rect x="68" y="92" width="4" height="4" fill="hsl(20, 90%, 50%)" />
<rect x="64" y="96" width="4" height="4" fill="hsl(20, 90%, 50%)" />
<rect x="68" y="96" width="4" height="4" fill="hsl(20, 90%, 50%)" />
<rect x="72" y="100" width="4" height="4" fill="hsl(20, 90%, 50%)" />
<rect x="76" y="104" width="4" height="4" fill="hsl(20, 90%, 50%)" />
<rect x="80" y="104" width="4" height="4" fill="hsl(20, 90%, 50%)" />
</svg>