<?xml version="1.0" encoding="utf-8"?>
<svg xmlns="http://www.w3.org/2000/svg" width="120" height="82" viewBox="0 0 120 82">
<rect width="100%" height="100%" fill="transparent" />
<rect x="110" y="4" width="2" height="2" fill="hsl(20, 90%, 50%)" />
<rect x="114" y="4" width="2" height="2" fill="hsl(20, 90%, 50%)" />
<rect x="110" y="6" width="2" height="2" fill="hsl(20, 90%, 50%)" />
<rect x="112" y="6" width="2" height="2" fill="hsl(20, 90%, 50%)" />
<rect x="112" y="8" width="2" height="2" fill="hsl(20, 90%, 50%)" />
<rect x="100" y="42" width="2" height="2" fill="hsl(20, 90%, 50%)" />
<rect x="102" y="42" width="2" height="2" fill="hsl(20, 90%, 50%)" />
<rect x="100" y="44" width="2" height="2" fill="hsl(20, 90%, 50%)" />
<rect x="96" y="46" width="2" height="2" fill="hsl(20, 90%, 50%)" />
<rect x="100" y="46" width="2" height="2" fill="hsl(20, 90%, 50%)" />
<rect x="96" y="48" width="2" height="2" fill="hsl(20, 90%, 50%)" />
<rect x="98" y="48" width="2" height="2" fill="hsl(20, 90%, 50%)" />
<rect x="64" y="50" width="2" height="2" fill="hsl(20, 90%, 50%)" />
<rect x="68" y="50" width="2" height="2" fill="hsl(20, 90%, 50%)" />
<rect x="64" y="52" width="2" height="2" fill="hsl(20, 90%, 50%)" />
<rect x="66" y="52" width="2" height="2" fill="hsl(20, 90%, 50%)" />
<rect x="66" y="54" width="2" height="2" fill="hsl(20, 90%, 50%)" />
<rect x="50" y="58" width="2" height="2" fill="hsl(20, 90%, 50%)" />
<rect x="52" y="58" width="2" height="2" fill="hsl(20, 90%, 50%)" />
<rect x="54" y="58" width="2" height="2" fill="hsl(20, 90%, 50%)" />
<rect x="4" y="60" width="2" height="2" fill="hsl(20, 90%, 50%)" />
<rect x="6" y="60" width="2" height="2" fill="hsl(20, 90%, 50%)" />
<rect x="24" y="60" width="2" height="2" fill="hsl(20, 90%, 50%)" />
<rect x="26" y="60" width="2" height="2" fill="hsl(20, 90%, 50%)" />
<rect x="28" y="60" width="2" height="2" fill="hsl(20, 90%, 50%)" />
<rect x="46" y="60" width="2" height="2" fill="hsl(20, 90%, 50%)" />
<rect x="48" y="60" width="2" height="2" fill="hsl(20, 90%, 50%)" />
<rect x="52" y="60" width="2" height="2" fill="hsl(20, 90%, 50%)" />
<rect x="56" y="60" width="2" height="2" fill="hsl(20, 90%, 50%)" />
<rect x="58" y="60" width="2" height="2" fill="hsl(20, 90%, 50%)" />
<rect x="4" y="62" width="2" height="2" fill="hsl(20, 90%, 50%)" />
<rect x="6" y="62" width="2" height="2" fill="hsl(20, 90%, 50%)" />
<rect x="24" y="62" width="2" height="2" fill="hsl(20, 90%, 50%)" />
<rect x="32" y="62" width="2" height="2" fill="hsl(20, 90%, 50%)" />
<rect x="44" y="62" width="2" height="2" fill="hsl(20, 90%, 50%)" />
<rect x="56" y="62" width="2" height="2" fill="hsl(20, 90%, 50%)" />
<rect x="58" y="62" width="2" height="2" fill="hsl(20, 90%, 50%)" />
<rect x="24" y="64" width="2" height="2" fill="hsl(20, 90%, 50%)" />
<rect x="34" y="64" width="2" height="2" fill="hsl(20, 90%, 50%)" />
<rect x="46" y="64" width="2" height="2" fill="hsl(20, 90%, 50%)" />
<rect x="48" y="64" width="2" height="2" fill="hsl(20, 90%, 50%)" />
<rect x="52" y="64" width="2" height="2" fill="hsl(20, 90%, 50%)" />
<rect x="56" y="64" width="2" height="2" fill="hsl(20, 90%, 50%)" />
<rect x="58" y="64" width="2" height="2" fill="hsl(20, 90%, 50%)" />
<rect x="26" y="66" width="2" height="2" fill="hsl(20, 90%, 50%)" />
<rect x="34" y="66" width="2" height="2" fill="hsl(20, 90%, 50%)" />
<rect x="50" y="66" width="2" height="2" fill="hsl(20, 90%, 50%)" />
<rect x="52" y="66" width="2" height="2" fill="hsl(20, 90%, 50%)" />
<rect x="54" y="66" width="2" height="2" fill="hsl(20, 90%, 50%)" />
<rect x="26" y="70" width="2" height="2" fill="hsl(20, 90%, 50%)" />
<rect x="34" y="70" width="2" height="2" fill="hsl(20, 90%, 50%)" />
<rect x="24" y="72" width="2" height="2" fill="hsl(20, 90%, 50%)" />
<rect x="34" y="72" width="2" height="2" fill="hsl(20, 90%, 50%)" />
<rect x="4" y="74" width="2" height="2" fill="hsl(20, 90%, 50%)" />
<rect x="6" y="74" width="2" height="2" fill="hsl(20, 90%, 50%)" />
<rect x="24" y="74" width="2" height="2" fill="hsl(20, 90%, 50%)" />
<rect x="32" y="74" width="2" height="2" fill="hsl(20, 90%, 50%)" />
<rect x="58" y="74" width="2" height="2" fill="hsl(20, 90%, 50%)" />
<rect x="60" y="74" width="2" height="2" fill="hsl(20, 90%, 50%)" />
<rect x="4" y="76" width="2" height="2" fill="hsl(20, 90%, 50%)" />
<rect x="6" y="76" width="2" height="2" fill="hsl(20, 90%, 50%)" />
<rect x="24" y="76" width="2" height="2" fill="hsl(20, 90%, 50%)" />
<rect x="26" y="76" width="2" height="2" fill="hsl(20, 90%, 50%)" />
<rect x="28" y="76" width="2" height="2" fill="hsl(20, 90%, 50%)" />
<rect x="58" y="76" width="2" height="2" fill="hsl(20, 90%, 50%)" />
<rect x="60" y="76" width="2" height="2" fill="hsl(20, 90%, 50%)" />
</svg>