<?xml version="1.0" encoding="utf-8"?>
<svg xmlns="http://www.w3.org/2000/svg" width="108" height="38" viewBox="0 0 108 38">
<rect width="100%" height="100%" fill="transparent" />
<rect x="38" y="4" width="2" height="2" fill="hsl(20, 90%, 50%)" />
<rect x="38" y="6" width="2" height="2" fill="hsl(20, 90%, 50%)" />
<rect x="40" y="6" width="2" height="2" fill="hsl(20, 90%, 50%)" />
<rect x="40" y="8" width="2" height="2" fill="hsl(20, 90%, 50%)" />
<rect x="42" y="8" width="2" height="2" fill="hsl(20, 90%, 50%)" />
<rect x="38" y="10" width="2" height="2" fill="hsl(20, 90%, 50%)" />
<rect x="40" y="10" width="2" height="2" fill="hsl(20, 90%, 50%)" />
<rect x="68" y="12" width="2" height="2" fill="hsl(20, 90%, 50%)" />
<rect x="66" y="14" width="2" height="2" fill="hsl(20, 90%, 50%)" />
<rect x="68" y="14" width="2" height="2" fill="hsl(20, 90%, 50%)" />
<rect x="100" y="14" width="2" height="2" fill="hsl(20, 90%, 50%)" />
<rect x="102" y="14" width="2" height="2" fill="hsl(20, 90%, 50%)" />
<rect x="64" y="16" width="2" height="2" fill="hsl(20, 90%, 50%)" />
<rect x="66" y="16" width="2" height="2" fill="hsl(20, 90%, 50%)" />
<rect x="100" y="16" width="2" height="2" fill="hsl(20, 90%, 50%)" />
<rect x="102" y="16" width="2" height="2" fill="hsl(20, 90%, 50%)" />
<rect x="38" y="18" width="2" height="2" fill="hsl(20, 90%, 50%)" />
<rect x="40" y="18" width="2" height="2" fill="hsl(20, 90%, 50%)" />
<rect x="66" y="18" width="2" height="2" fill="hsl(20, 90%, 50%)" />
<rect x="68" y="18" width="2" height="2" fill="hsl(20, 90%, 50%)" />
<rect x="4" y="20" width="2" height="2" fill="hsl(20, 90%, 50%)" />
<rect x="6" y="20" width="2" height="2" fill="hsl(20, 90%, 50%)" />
<rect x="40" y="20" width="2" height="2" fill="hsl(20, 90%, 50%)" />
<rect x="42" y="20" width="2" height="2" fill="hsl(20, 90%, 50%)" />
<rect x="4" y="22" width="2" height="2" fill="hsl(20, 90%, 50%)" />
<rect x="6" y="22" width="2" height="2" fill="hsl(20, 90%, 50%)" />
<rect x="38" y="22" width="2" height="2" fill="hsl(20, 90%, 50%)" />
<rect x="40" y="22" width="2" height="2" fill="hsl(20, 90%, 50%)" />
<rect x="38" y="24" width="2" height="2" fill="hsl(20, 90%, 50%)" />
<rect x="66" y="26" width="2" height="2" fill="hsl(20, 90%, 50%)" />
<rect x="68" y="26" width="2" height="2" fill="hsl(20, 90%, 50%)" />
<rect x="64" y="28" width="2" height="2" fill="hsl(20, 90%, 50%)" />
<rect x="66" y="28" width="2" height="2" fill="hsl(20, 90%, 50%)" />
<rect x="66" y="30" width="2" height="2" fill="hsl(20, 90%, 50%)" />
<rect x="68" y="30" width="2" height="2" fill="hsl(20, 90%, 50%)" />
<rect x="68" y="32" width="2" height="2" fill="hsl(20, 90%, 50%)" />
</svg>