<?xml version="1.0" encoding="utf-8"?>
<svg xmlns="http://www.w3.org/2000/svg" width="128" height="107" viewBox="0 0 128 107">
<rect width="100%" height="100%" fill="transparent" />
<rect x="106" y="4" width="3" height="3" fill="hsl(20, 90%, 50%)" />
<rect x="28" y="7" width="3" height="3" fill="hsl(20, 90%, 50%)" />
<rect x="100" y="7" width="3" height="3" fill="hsl(20, 90%, 50%)" />
<rect x="103" y="7" width="3" height="3" fill="hsl(20, 90%, 50%)" />
<rect x="106" y="7" width="3" height="3" fill="hsl(20, 90%, 50%)" />
<rect x="112" y="7" width="3" height="3" fill="hsl(20, 90%, 50%)" />
<rect x="115" y="7" width="3" height="3" fill="hsl(20, 90%, 50%)" />
<rect x="118" y="7" width="3" height="3" fill="hsl(20, 90%, 50%)" />
<rect x="25" y="10" width="3" height="3" fill="hsl(20, 90%, 50%)" />
<rect x="28" y="10" width="3" height="3" fill="hsl(20, 90%, 50%)" />
<rect x="31" y="10" width="3" height="3" fill="hsl(20, 90%, 50%)" />
<rect x="34" y="10" width="3" height="3" fill="hsl(20, 90%, 50%)" />
<rect x="97" y="10" width="3" height="3" fill="hsl(20, 90%, 50%)" />
<rect x="100" y="10" width="3" height="3" fill="hsl(20, 90%, 50%)" />
<rect x="121" y="10" width="3" height="3" fill="hsl(20, 90%, 50%)" />
<rect x="10" y="13" width="3" height="3" fill="hsl(20, 90%, 50%)" />
<rect x="22" y="13" width="3" height="3" fill="hsl(20, 90%, 50%)" />
<rect x="34" y="13" width="3" height="3" fill="hsl(20, 90%, 50%)" />
<rect x="37" y="13" width="3" height="3" fill="hsl(20, 90%, 50%)" />
<rect x="43" y="13" width="3" height="3" fill="hsl(20, 90%, 50%)" />
<rect x="46" y="13" width="3" height="3" fill="hsl(20, 90%, 50%)" />
<rect x="82" y="13" width="3" height="3" fill="hsl(20, 90%, 50%)" />
<rect x="94" y="13" width="3" height="3" fill="hsl(20, 90%, 50%)" />
<rect x="103" y="13" width="3" height="3" fill="hsl(20, 90%, 50%)" />
<rect x="115" y="13" width="3" height="3" fill="hsl(20, 90%, 50%)" />
<rect x="118" y="13" width="3" height="3" fill="hsl(20, 90%, 50%)" />
<rect x="7" y="16" width="3" height="3" fill="hsl(20, 90%, 50%)" />
<rect x="10" y="16" width="3" height="3" fill="hsl(20, 90%, 50%)" />
<rect x="13" y="16" width="3" height="3" fill="hsl(20, 90%, 50%)" />
<rect x="16" y="16" width="3" height="3" fill="hsl(20, 90%, 50%)" />
<rect x="34" y="16" width="3" height="3" fill="hsl(20, 90%, 50%)" />
<rect x="43" y="16" width="3" height="3" fill="hsl(20, 90%, 50%)" />
<rect x="46" y="16" width="3" height="3" fill="hsl(20, 90%, 50%)" />
<rect x="79" y="16" width="3" height="3" fill="hsl(20, 90%, 50%)" />
<rect x="82" y="16" width="3" height="3" fill="hsl(20, 90%, 50%)" />
<rect x="85" y="16" width="3" height="3" fill="hsl(20, 90%, 50%)" />
<rect x="88" y="16" width="3" height="3" fill="hsl(20, 90%, 50%)" />
<rect x="4" y="19" width="3" height="3" fill="hsl(20, 90%, 50%)" />
<rect x="16" y="19" width="3" height="3" fill="hsl(20, 90%, 50%)" />
<rect x="40" y="19" width="3" height="3" fill="hsl(20, 90%, 50%)" />
<rect x="49" y="19" width="3" height="3" fill="hsl(20, 90%, 50%)" />
<rect x="76" y="19" width="3" height="3" fill="hsl(20, 90%, 50%)" />
<rect x="88" y="19" width="3" height="3" fill="hsl(20, 90%, 50%)" />
<rect x="7" y="22" width="3" height="3" fill="hsl(20, 90%, 50%)" />
<rect x="13" y="22" width="3" height="3" fill="hsl(20, 90%, 50%)" />
<rect x="22" y="22" width="3" height="3" fill="hsl(20, 90%, 50%)" />
<rect x="79" y="22" width="3" height="3" fill="hsl(20, 90%, 50%)" />
<rect x="85" y="22" width="3" height="3" fill="hsl(20, 90%, 50%)" />
<rect x="94" y="22" width="3" height="3" fill="hsl(20, 90%, 50%)" />
<rect x="19" y="25" width="3" height="3" fill="hsl(20, 90%, 50%)" />
<rect x="91" y="25" width="3" height="3" fill="hsl(20, 90%, 50%)" />
<rect x="52" y="28" width="3" height="3" fill="hsl(20, 90%, 50%)" />
<rect x="4" y="31" width="3" height="3" fill="hsl(20, 90%, 50%)" />
<rect x="49" y="31" width="3" height="3" fill="hsl(20, 90%, 50%)" />
<rect x="52" y="31" width="3" height="3" fill="hsl(20, 90%, 50%)" />
<rect x="55" y="31" width="3" height="3" fill="hsl(20, 90%, 50%)" />
<rect x="58" y="31" width="3" height="3" fill="hsl(20, 90%, 50%)" />
<rect x="4" y="34" width="3" height="3" fill="hsl(20, 90%, 50%)" />
<rect x="10" y="34" width="3" height="3" fill="hsl(20, 90%, 50%)" />
<rect x="34" y="34" width="3" height="3" fill="hsl(20, 90%, 50%)" />
<rect x="46" y="34" width="3" height="3" fill="hsl(20, 90%, 50%)" />
<rect x="58" y="34" width="3" height="3" fill="hsl(20, 90%, 50%)" />
<rect x="61" y="34" width="3" height="3" fill="hsl(20, 90%, 50%)" />
<rect x="67" y="34" width="3" height="3" fill="hsl(20, 90%, 50%)" />
<rect x="70" y="34" width="3" height="3" fill="hsl(20, 90%, 50%)" />
<rect x="4" y="37" width="3" height="3" fill="hsl(20, 90%, 50%)" />
<rect x="7" y="37" width="3" height="3" fill="hsl(20, 90%, 50%)" />
<rect x="10" y="37" width="3" height="3" fill="hsl(20, 90%, 50%)" />
<rect x="31" y="37" width="3" height="3" fill="hsl(20, 90%, 50%)" />
<rect x="34" y="37" width="3" height="3" fill="hsl(20, 90%, 50%)" />
<rect x="37" y="37" width="3" height="3" fill="hsl(20, 90%, 50%)" />
<rect x="40" y="37" width="3" height="3" fill="hsl(20, 90%, 50%)" />
<rect x="58" y="37" width="3" height="3" fill="hsl(20, 90%, 50%)" />
<rect x="67" y="37" width="3" height="3" fill="hsl(20, 90%, 50%)" />
<rect x="70" y="37" width="3" height="3" fill="hsl(20, 90%, 50%)" />
<rect x="10" y="40" width="3" height="3" fill="hsl(20, 90%, 50%)" />
<rect x="28" y="40" width="3" height="3" fill="hsl(20, 90%, 50%)" />
<rect x="40" y="40" width="3" height="3" fill="hsl(20, 90%, 50%)" />
<rect x="64" y="40" width="3" height="3" fill="hsl(20, 90%, 50%)" />
<rect x="73" y="40" width="3" height="3" fill="hsl(20, 90%, 50%)" />
<rect x="31" y="43" width="3" height="3" fill="hsl(20, 90%, 50%)" />
<rect x="37" y="43" width="3" height="3" fill="hsl(20, 90%, 50%)" />
<rect x="46" y="43" width="3" height="3" fill="hsl(20, 90%, 50%)" />
<rect x="43" y="46" width="3" height="3" fill="hsl(20, 90%, 50%)" />
<rect x="7" y="49" width="3" height="3" fill="hsl(20, 90%, 50%)" />
<rect x="10" y="49" width="3" height="3" fill="hsl(20, 90%, 50%)" />
<rect x="4" y="52" width="3" height="3" fill="hsl(20, 90%, 50%)" />
<rect x="13" y="52" width="3" height="3" fill="hsl(20, 90%, 50%)" />
<rect x="7" y="55" width="3" height="3" fill="hsl(20, 90%, 50%)" />
<rect x="10" y="55" width="3" height="3" fill="hsl(20, 90%, 50%)" />
<rect x="25" y="61" width="3" height="3" fill="hsl(20, 90%, 50%)" />
<rect x="31" y="61" width="3" height="3" fill="hsl(20, 90%, 50%)" />
<rect x="25" y="64" width="3" height="3" fill="hsl(20, 90%, 50%)" />
<rect x="25" y="67" width="3" height="3" fill="hsl(20, 90%, 50%)" />
<rect x="31" y="67" width="3" height="3" fill="hsl(20, 90%, 50%)" />
<rect x="40" y="67" width="3" height="3" fill="hsl(20, 90%, 50%)" />
<rect x="49" y="67" width="3" height="3" fill="hsl(20, 90%, 50%)" />
<rect x="34" y="70" width="3" height="3" fill="hsl(20, 90%, 50%)" />
<rect x="37" y="73" width="3" height="3" fill="hsl(20, 90%, 50%)" />
<rect x="43" y="73" width="3" height="3" fill="hsl(20, 90%, 50%)" />
<rect x="46" y="73" width="3" height="3" fill="hsl(20, 90%, 50%)" />
<rect x="52" y="73" width="3" height="3" fill="hsl(20, 90%, 50%)" />
<rect x="40" y="76" width="3" height="3" fill="hsl(20, 90%, 50%)" />
<rect x="43" y="76" width="3" height="3" fill="hsl(20, 90%, 50%)" />
<rect x="46" y="76" width="3" height="3" fill="hsl(20, 90%, 50%)" />
<rect x="52" y="76" width="3" height="3" fill="hsl(20, 90%, 50%)" />
<rect x="37" y="79" width="3" height="3" fill="hsl(20, 90%, 50%)" />
<rect x="52" y="79" width="3" height="3" fill="hsl(20, 90%, 50%)" />
<rect x="61" y="79" width="3" height="3" fill="hsl(20, 90%, 50%)" />
<rect x="67" y="79" width="3" height="3" fill="hsl(20, 90%, 50%)" />
<rect x="70" y="79" width="3" height="3" fill="hsl(20, 90%, 50%)" />
<rect x="28" y="82" width="3" height="3" fill="hsl(20, 90%, 50%)" />
<rect x="40" y="82" width="3" height="3" fill="hsl(20, 90%, 50%)" />
<rect x="43" y="82" width="3" height="3" fill="hsl(20, 90%, 50%)" />
<rect x="55" y="82" width="3" height="3" fill="hsl(20, 90%, 50%)" />
<rect x="61" y="82" width="3" height="3" fill="hsl(20, 90%, 50%)" />
<rect x="64" y="82" width="3" height="3" fill="hsl(20, 90%, 50%)" />
<rect x="67" y="82" width="3" height="3" fill="hsl(20, 90%, 50%)" />
<rect x="70" y="82" width="3" height="3" fill="hsl(20, 90%, 50%)" />
<rect x="28" y="85" width="3" height="3" fill="hsl(20, 90%, 50%)" />
<rect x="31" y="85" width="3" height="3" fill="hsl(20, 90%, 50%)" />
<rect x="40" y="85" width="3" height="3" fill="hsl(20, 90%, 50%)" />
<rect x="49" y="85" width="3" height="3" fill="hsl(20, 90%, 50%)" />
<rect x="55" y="85" width="3" height="3" fill="hsl(20, 90%, 50%)" />
<rect x="58" y="85" width="3" height="3" fill="hsl(20, 90%, 50%)" />
<rect x="73" y="85" width="3" height="3" fill="hsl(20, 90%, 50%)" />
<rect x="88" y="85" width="3" height="3" fill="hsl(20, 90%, 50%)" />
<rect x="28" y="88" width="3" height="3" fill="hsl(20, 90%, 50%)" />
<rect x="55" y="88" width="3" height="3" fill="hsl(20, 90%, 50%)" />
<rect x="58" y="88" width="3" height="3" fill="hsl(20, 90%, 50%)" />
<rect x="73" y="88" width="3" height="3" fill="hsl(20, 90%, 50%)" />
<rect x="82" y="88" width="3" height="3" fill="hsl(20, 90%, 50%)" />
<rect x="85" y="88" width="3" height="3" fill="hsl(20, 90%, 50%)" />
<rect x="88" y="88" width="3" height="3" fill="hsl(20, 90%, 50%)" />
<rect x="43" y="91" width="3" height="3" fill="hsl(20, 90%, 50%)" />
<rect x="46" y="91" width="3" height="3" fill="hsl(20, 90%, 50%)" />
<rect x="58" y="91" width="3" height="3" fill="hsl(20, 90%, 50%)" />
<rect x="61" y="91" width="3" height="3" fill="hsl(20, 90%, 50%)" />
<rect x="73" y="91" width="3" height="3" fill="hsl(20, 90%, 50%)" />
<rect x="82" y="91" width="3" height="3" fill="hsl(20, 90%, 50%)" />
<rect x="85" y="91" width="3" height="3" fill="hsl(20, 90%, 50%)" />
<rect x="7" y="94" width="3" height="3" fill="hsl(20, 90%, 50%)" />
<rect x="10" y="94" width="3" height="3" fill="hsl(20, 90%, 50%)" />
<rect x="4" y="97" width="3" height="3" fill="hsl(20, 90%, 50%)" />
<rect x="13" y="97" width="3" height="3" fill="hsl(20, 90%, 50%)" />
<rect x="7" y="100" width="3" height="3" fill="hsl(20, 90%, 50%)" />
<rect x="10" y="100" width="3" height="3" fill="hsl(20, 90%, 50%)" />
</svg>