<?xml version="1.0" encoding="utf-8"?>
<svg xmlns="http://www.w3.org/2000/svg" width="113" height="113" viewBox="0 0 113 113">
<rect width="100%" height="100%" fill="transparent" />
<rect x="39" y="4" width="5" height="5" fill="hsl(20, 90%, 50%)" />
<rect x="44" y="4" width="5" height="5" fill="hsl(20, 90%, 50%)" />
<rect x="49" y="4" width="5" height="5" fill="hsl(20, 90%, 50%)" />
<rect x="29" y="9" width="5" height="5" fill="hsl(20, 90%, 50%)" />
<rect x="39" y="9" width="5" height="5" fill="hsl(20, 90%, 50%)" />
<rect x="44" y="9" width="5" height="5" fill="hsl(20, 90%, 50%)" />
<rect x="24" y="14" width="5" height="5" fill="hsl(20, 90%, 50%)" />
<rect x="29" y="14" width="5" height="5" fill="hsl(20, 90%, 50%)" />
<rect x="34" y="14" width="5" height="5" fill="hsl(20, 90%, 50%)" />
<rect x="39" y="14" width="5" height="5" fill="hsl(20, 90%, 50%)" />
<rect x="19" y="19" width="5" height="5" fill="hsl(20, 90%, 50%)" />
<rect x="24" y="19" width="5" height="5" fill="hsl(20, 90%, 50%)" />
<rect x="54" y="19" width="5" height="5" fill="hsl(20, 90%, 50%)" />
<rect x="14" y="24" width="5" height="5" fill="hsl(20, 90%, 50%)" />
<rect x="19" y="24" width="5" height="5" fill="hsl(20, 90%, 50%)" />
<rect x="24" y="24" width="5" height="5" fill="hsl(20, 90%, 50%)" />
<rect x="39" y="24" width="5" height="5" fill="hsl(20, 90%, 50%)" />
<rect x="49" y="24" width="5" height="5" fill="hsl(20, 90%, 50%)" />
<rect x="59" y="24" width="5" height="5" fill="hsl(20, 90%, 50%)" />
<rect x="9" y="29" width="5" height="5" fill="hsl(20, 90%, 50%)" />
<rect x="14" y="29" width="5" height="5" fill="hsl(20, 90%, 50%)" />
<rect x="34" y="29" width="5" height="5" fill="hsl(20, 90%, 50%)" />
<rect x="44" y="29" width="5" height="5" fill="hsl(20, 90%, 50%)" />
<rect x="59" y="29" width="5" height="5" fill="hsl(20, 90%, 50%)" />
<rect x="9" y="34" width="5" height="5" fill="hsl(20, 90%, 50%)" />
<rect x="19" y="34" width="5" height="5" fill="hsl(20, 90%, 50%)" />
<rect x="29" y="34" width="5" height="5" fill="hsl(20, 90%, 50%)" />
<rect x="34" y="34" width="5" height="5" fill="hsl(20, 90%, 50%)" />
<rect x="39" y="34" width="5" height="5" fill="hsl(20, 90%, 50%)" />
<rect x="44" y="34" width="5" height="5" fill="hsl(20, 90%, 50%)" />
<rect x="49" y="34" width="5" height="5" fill="hsl(20, 90%, 50%)" />
<rect x="4" y="39" width="5" height="5" fill="hsl(20, 90%, 50%)" />
<rect x="9" y="39" width="5" height="5" fill="hsl(20, 90%, 50%)" />
<rect x="19" y="39" width="5" height="5" fill="hsl(20, 90%, 50%)" />
<rect x="29" y="39" width="5" height="5" fill="hsl(20, 90%, 50%)" />
<rect x="49" y="39" width="5" height="5" fill="hsl(20, 90%, 50%)" />
<rect x="4" y="44" width="5" height="5" fill="hsl(20, 90%, 50%)" />
<rect x="49" y="44" width="5" height="5" fill="hsl(20, 90%, 50%)" />
<rect x="54" y="44" width="5" height="5" fill="hsl(20, 90%, 50%)" />
<rect x="9" y="49" width="5" height="5" fill="hsl(20, 90%, 50%)" />
<rect x="14" y="49" width="5" height="5" fill="hsl(20, 90%, 50%)" />
<rect x="29" y="49" width="5" height="5" fill="hsl(20, 90%, 50%)" />
<rect x="49" y="49" width="5" height="5" fill="hsl(20, 90%, 50%)" />
<rect x="59" y="49" width="5" height="5" fill="hsl(20, 90%, 50%)" />
<rect x="24" y="54" width="5" height="5" fill="hsl(20, 90%, 50%)" />
<rect x="29" y="54" width="5" height="5" fill="hsl(20, 90%, 50%)" />
<rect x="44" y="54" width="5" height="5" fill="hsl(20, 90%, 50%)" />
<rect x="54" y="54" width="5" height="5" fill="hsl(20, 90%, 50%)" />
<rect x="59" y="54" width="5" height="5" fill="hsl(20, 90%, 50%)" />
<rect x="94" y="54" width="5" height="5" fill="hsl(20, 90%, 50%)" />
<rect x="59" y="59" width="5" height="5" fill="hsl(20, 90%, 50%)" />
<rect x="64" y="59" width="5" height="5" fill="hsl(20, 90%, 50%)" />
<rect x="94" y="59" width="5" height="5" fill="hsl(20, 90%, 50%)" />
<rect x="99" y="59" width="5" height="5" fill="hsl(20, 90%, 50%)" />
<rect x="104" y="59" width="5" height="5" fill="hsl(20, 90%, 50%)" />
<rect x="64" y="64" width="5" height="5" fill="hsl(20, 90%, 50%)" />
<rect x="79" y="64" width="5" height="5" fill="hsl(20, 90%, 50%)" />
<rect x="84" y="64" width="5" height="5" fill="hsl(20, 90%, 50%)" />
<rect x="89" y="64" width="5" height="5" fill="hsl(20, 90%, 50%)" />
<rect x="104" y="64" width="5" height="5" fill="hsl(20, 90%, 50%)" />
<rect x="64" y="69" width="5" height="5" fill="hsl(20, 90%, 50%)" />
<rect x="79" y="69" width="5" height="5" fill="hsl(20, 90%, 50%)" />
<rect x="94" y="69" width="5" height="5" fill="hsl(20, 90%, 50%)" />
<rect x="99" y="69" width="5" height="5" fill="hsl(20, 90%, 50%)" />
<rect x="69" y="74" width="5" height="5" fill="hsl(20, 90%, 50%)" />
<rect x="79" y="74" width="5" height="5" fill="hsl(20, 90%, 50%)" />
<rect x="84" y="74" width="5" height="5" fill="hsl(20, 90%, 50%)" />
<rect x="64" y="79" width="5" height="5" fill="hsl(20, 90%, 50%)" />
<rect x="69" y="79" width="5" height="5" fill="hsl(20, 90%, 50%)" />
<rect x="64" y="84" width="5" height="5" fill="hsl(20, 90%, 50%)" />
<rect x="69" y="84" width="5" height="5" fill="hsl(20, 90%, 50%)" />
<rect x="59" y="89" width="5" height="5" fill="hsl(20, 90%, 50%)" />
<rect x="64" y="94" width="5" height="5" fill="hsl(20, 90%, 50%)" />
<rect x="74" y="94" width="5" height="5" fill="hsl(20, 90%, 50%)" />
<rect x="59" y="99" width="5" height="5" fill="hsl(20, 90%, 50%)" />
<rect x="74" y="99" width="5" height="5" fill="hsl(20, 90%, 50%)" />
<rect x="69" y="104" width="5" height="5" fill="hsl(20, 90%, 50%)" />
</svg>