<?xml version="1.0" encoding="utf-8"?>
<svg xmlns="http://www.w3.org/2000/svg" width="113" height="92" viewBox="0 0 113 92">
<rect width="100%" height="100%" fill="transparent" />
<rect x="28" y="4" width="3" height="3" fill="hsl(20, 90%, 50%)" />
<rect x="28" y="7" width="3" height="3" fill="hsl(20, 90%, 50%)" />
<rect x="31" y="7" width="3" height="3" fill="hsl(20, 90%, 50%)" />
<rect x="34" y="7" width="3" height="3" fill="hsl(20, 90%, 50%)" />
<rect x="37" y="10" width="3" height="3" fill="hsl(20, 90%, 50%)" />
<rect x="34" y="13" width="3" height="3" fill="hsl(20, 90%, 50%)" />
<rect x="37" y="13" width="3" height="3" fill="hsl(20, 90%, 50%)" />
<rect x="4" y="46" width="3" height="3" fill="hsl(20, 90%, 50%)" />
<rect x="4" y="49" width="3" height="3" fill="hsl(20, 90%, 50%)" />
<rect x="10" y="49" width="3" height="3" fill="hsl(20, 90%, 50%)" />
<rect x="100" y="49" width="3" height="3" fill="hsl(20, 90%, 50%)" />
<rect x="4" y="52" width="3" height="3" fill="hsl(20, 90%, 50%)" />
<rect x="7" y="52" width="3" height="3" fill="hsl(20, 90%, 50%)" />
<rect x="10" y="52" width="3" height="3" fill="hsl(20, 90%, 50%)" />
<rect x="100" y="52" width="3" height="3" fill="hsl(20, 90%, 50%)" />
<rect x="10" y="55" width="3" height="3" fill="hsl(20, 90%, 50%)" />
<rect x="100" y="55" width="3" height="3" fill="hsl(20, 90%, 50%)" />
<rect x="103" y="55" width="3" height="3" fill="hsl(20, 90%, 50%)" />
<rect x="106" y="55" width="3" height="3" fill="hsl(20, 90%, 50%)" />
<rect x="106" y="58" width="3" height="3" fill="hsl(20, 90%, 50%)" />
<rect x="79" y="73" width="3" height="3" fill="hsl(20, 90%, 50%)" />
<rect x="82" y="73" width="3" height="3" fill="hsl(20, 90%, 50%)" />
<rect x="61" y="76" width="3" height="3" fill="hsl(20, 90%, 50%)" />
<rect x="64" y="76" width="3" height="3" fill="hsl(20, 90%, 50%)" />
<rect x="82" y="76" width="3" height="3" fill="hsl(20, 90%, 50%)" />
<rect x="61" y="79" width="3" height="3" fill="hsl(20, 90%, 50%)" />
<rect x="67" y="79" width="3" height="3" fill="hsl(20, 90%, 50%)" />
<rect x="73" y="79" width="3" height="3" fill="hsl(20, 90%, 50%)" />
<rect x="76" y="79" width="3" height="3" fill="hsl(20, 90%, 50%)" />
<rect x="79" y="79" width="3" height="3" fill="hsl(20, 90%, 50%)" />
<rect x="40" y="82" width="3" height="3" fill="hsl(20, 90%, 50%)" />
<rect x="43" y="82" width="3" height="3" fill="hsl(20, 90%, 50%)" />
<rect x="67" y="82" width="3" height="3" fill="hsl(20, 90%, 50%)" />
<rect x="73" y="82" width="3" height="3" fill="hsl(20, 90%, 50%)" />
<rect x="40" y="85" width="3" height="3" fill="hsl(20, 90%, 50%)" />
<rect x="43" y="85" width="3" height="3" fill="hsl(20, 90%, 50%)" />
<rect x="67" y="85" width="3" height="3" fill="hsl(20, 90%, 50%)" />
<rect x="70" y="85" width="3" height="3" fill="hsl(20, 90%, 50%)" />
</svg>