<?xml version="1.0" encoding="utf-8"?>
<svg xmlns="http://www.w3.org/2000/svg" width="110" height="56" viewBox="0 0 110 56">
<rect width="100%" height="100%" fill="transparent" />
<rect x="50" y="4" width="2" height="2" fill="hsl(20, 90%, 50%)" />
<rect x="52" y="4" width="2" height="2" fill="hsl(20, 90%, 50%)" />
<rect x="102" y="4" width="2" height="2" fill="hsl(20, 90%, 50%)" />
<rect x="104" y="4" width="2" height="2" fill="hsl(20, 90%, 50%)" />
<rect x="50" y="6" width="2" height="2" fill="hsl(20, 90%, 50%)" />
<rect x="52" y="6" width="2" height="2" fill="hsl(20, 90%, 50%)" />
<rect x="102" y="6" width="2" height="2" fill="hsl(20, 90%, 50%)" />
<rect x="104" y="6" width="2" height="2" fill="hsl(20, 90%, 50%)" />
<rect x="86" y="8" width="2" height="2" fill="hsl(20, 90%, 50%)" />
<rect x="88" y="8" width="2" height="2" fill="hsl(20, 90%, 50%)" />
<rect x="84" y="10" width="2" height="2" fill="hsl(20, 90%, 50%)" />
<rect x="90" y="10" width="2" height="2" fill="hsl(20, 90%, 50%)" />
<rect x="86" y="12" width="2" height="2" fill="hsl(20, 90%, 50%)" />
<rect x="88" y="12" width="2" height="2" fill="hsl(20, 90%, 50%)" />
<rect x="76" y="16" width="2" height="2" fill="hsl(20, 90%, 50%)" />
<rect x="78" y="16" width="2" height="2" fill="hsl(20, 90%, 50%)" />
<rect x="80" y="16" width="2" height="2" fill="hsl(20, 90%, 50%)" />
<rect x="76" y="18" width="2" height="2" fill="hsl(20, 90%, 50%)" />
<rect x="80" y="18" width="2" height="2" fill="hsl(20, 90%, 50%)" />
<rect x="22" y="20" width="2" height="2" fill="hsl(20, 90%, 50%)" />
<rect x="24" y="20" width="2" height="2" fill="hsl(20, 90%, 50%)" />
<rect x="76" y="20" width="2" height="2" fill="hsl(20, 90%, 50%)" />
<rect x="78" y="20" width="2" height="2" fill="hsl(20, 90%, 50%)" />
<rect x="80" y="20" width="2" height="2" fill="hsl(20, 90%, 50%)" />
<rect x="22" y="22" width="2" height="2" fill="hsl(20, 90%, 50%)" />
<rect x="24" y="22" width="2" height="2" fill="hsl(20, 90%, 50%)" />
<rect x="76" y="22" width="2" height="2" fill="hsl(20, 90%, 50%)" />
<rect x="78" y="22" width="2" height="2" fill="hsl(20, 90%, 50%)" />
<rect x="20" y="24" width="2" height="2" fill="hsl(20, 90%, 50%)" />
<rect x="26" y="24" width="2" height="2" fill="hsl(20, 90%, 50%)" />
<rect x="74" y="24" width="2" height="2" fill="hsl(20, 90%, 50%)" />
<rect x="76" y="24" width="2" height="2" fill="hsl(20, 90%, 50%)" />
<rect x="78" y="24" width="2" height="2" fill="hsl(20, 90%, 50%)" />
<rect x="20" y="26" width="2" height="2" fill="hsl(20, 90%, 50%)" />
<rect x="26" y="26" width="2" height="2" fill="hsl(20, 90%, 50%)" />
<rect x="30" y="26" width="2" height="2" fill="hsl(20, 90%, 50%)" />
<rect x="32" y="26" width="2" height="2" fill="hsl(20, 90%, 50%)" />
<rect x="74" y="26" width="2" height="2" fill="hsl(20, 90%, 50%)" />
<rect x="78" y="26" width="2" height="2" fill="hsl(20, 90%, 50%)" />
<rect x="20" y="28" width="2" height="2" fill="hsl(20, 90%, 50%)" />
<rect x="30" y="28" width="2" height="2" fill="hsl(20, 90%, 50%)" />
<rect x="32" y="28" width="2" height="2" fill="hsl(20, 90%, 50%)" />
<rect x="74" y="28" width="2" height="2" fill="hsl(20, 90%, 50%)" />
<rect x="76" y="28" width="2" height="2" fill="hsl(20, 90%, 50%)" />
<rect x="78" y="28" width="2" height="2" fill="hsl(20, 90%, 50%)" />
<rect x="24" y="30" width="2" height="2" fill="hsl(20, 90%, 50%)" />
<rect x="26" y="30" width="2" height="2" fill="hsl(20, 90%, 50%)" />
<rect x="30" y="30" width="2" height="2" fill="hsl(20, 90%, 50%)" />
<rect x="32" y="30" width="2" height="2" fill="hsl(20, 90%, 50%)" />
<rect x="66" y="32" width="2" height="2" fill="hsl(20, 90%, 50%)" />
<rect x="68" y="32" width="2" height="2" fill="hsl(20, 90%, 50%)" />
<rect x="46" y="34" width="2" height="2" fill="hsl(20, 90%, 50%)" />
<rect x="48" y="34" width="2" height="2" fill="hsl(20, 90%, 50%)" />
<rect x="64" y="34" width="2" height="2" fill="hsl(20, 90%, 50%)" />
<rect x="70" y="34" width="2" height="2" fill="hsl(20, 90%, 50%)" />
<rect x="46" y="36" width="2" height="2" fill="hsl(20, 90%, 50%)" />
<rect x="48" y="36" width="2" height="2" fill="hsl(20, 90%, 50%)" />
<rect x="66" y="36" width="2" height="2" fill="hsl(20, 90%, 50%)" />
<rect x="68" y="36" width="2" height="2" fill="hsl(20, 90%, 50%)" />
<rect x="102" y="38" width="2" height="2" fill="hsl(20, 90%, 50%)" />
<rect x="104" y="38" width="2" height="2" fill="hsl(20, 90%, 50%)" />
<rect x="102" y="40" width="2" height="2" fill="hsl(20, 90%, 50%)" />
<rect x="104" y="40" width="2" height="2" fill="hsl(20, 90%, 50%)" />
<rect x="12" y="44" width="2" height="2" fill="hsl(20, 90%, 50%)" />
<rect x="14" y="44" width="2" height="2" fill="hsl(20, 90%, 50%)" />
<rect x="52" y="44" width="2" height="2" fill="hsl(20, 90%, 50%)" />
<rect x="4" y="46" width="2" height="2" fill="hsl(20, 90%, 50%)" />
<rect x="6" y="46" width="2" height="2" fill="hsl(20, 90%, 50%)" />
<rect x="16" y="46" width="2" height="2" fill="hsl(20, 90%, 50%)" />
<rect x="18" y="46" width="2" height="2" fill="hsl(20, 90%, 50%)" />
<rect x="20" y="46" width="2" height="2" fill="hsl(20, 90%, 50%)" />
<rect x="22" y="46" width="2" height="2" fill="hsl(20, 90%, 50%)" />
<rect x="44" y="46" width="2" height="2" fill="hsl(20, 90%, 50%)" />
<rect x="46" y="46" width="2" height="2" fill="hsl(20, 90%, 50%)" />
<rect x="52" y="46" width="2" height="2" fill="hsl(20, 90%, 50%)" />
<rect x="54" y="46" width="2" height="2" fill="hsl(20, 90%, 50%)" />
<rect x="58" y="46" width="2" height="2" fill="hsl(20, 90%, 50%)" />
<rect x="60" y="46" width="2" height="2" fill="hsl(20, 90%, 50%)" />
<rect x="62" y="46" width="2" height="2" fill="hsl(20, 90%, 50%)" />
<rect x="4" y="48" width="2" height="2" fill="hsl(20, 90%, 50%)" />
<rect x="6" y="48" width="2" height="2" fill="hsl(20, 90%, 50%)" />
<rect x="12" y="48" width="2" height="2" fill="hsl(20, 90%, 50%)" />
<rect x="14" y="48" width="2" height="2" fill="hsl(20, 90%, 50%)" />
<rect x="18" y="48" width="2" height="2" fill="hsl(20, 90%, 50%)" />
<rect x="20" y="48" width="2" height="2" fill="hsl(20, 90%, 50%)" />
<rect x="22" y="48" width="2" height="2" fill="hsl(20, 90%, 50%)" />
<rect x="44" y="48" width="2" height="2" fill="hsl(20, 90%, 50%)" />
<rect x="46" y="48" width="2" height="2" fill="hsl(20, 90%, 50%)" />
<rect x="56" y="48" width="2" height="2" fill="hsl(20, 90%, 50%)" />
<rect x="58" y="48" width="2" height="2" fill="hsl(20, 90%, 50%)" />
<rect x="60" y="48" width="2" height="2" fill="hsl(20, 90%, 50%)" />
<rect x="62" y="48" width="2" height="2" fill="hsl(20, 90%, 50%)" />
<rect x="12" y="50" width="2" height="2" fill="hsl(20, 90%, 50%)" />
<rect x="52" y="50" width="2" height="2" fill="hsl(20, 90%, 50%)" />
<rect x="54" y="50" width="2" height="2" fill="hsl(20, 90%, 50%)" />
</svg>