<?xml version="1.0" encoding="utf-8"?>
<svg xmlns="http://www.w3.org/2000/svg" width="68" height="116" viewBox="0 0 68 116">
<rect width="100%" height="100%" fill="transparent" />
<rect x="22" y="4" width="6" height="6" fill="hsl(20, 90%, 50%)" />
<rect x="28" y="4" width="6" height="6" fill="hsl(20, 90%, 50%)" />
<rect x="22" y="10" width="6" height="6" fill="hsl(20, 90%, 50%)" />
<rect x="28" y="10" width="6" height="6" fill="hsl(20, 90%, 50%)" />
<rect x="52" y="34" width="6" height="6" fill="hsl(20, 90%, 50%)" />
<rect x="58" y="34" width="6" height="6" fill="hsl(20, 90%, 50%)" />
<rect x="4" y="40" width="6" height="6" fill="hsl(20, 90%, 50%)" />
<rect x="10" y="40" width="6" height="6" fill="hsl(20, 90%, 50%)" />
<rect x="52" y="40" width="6" height="6" fill="hsl(20, 90%, 50%)" />
<rect x="58" y="40" width="6" height="6" fill="hsl(20, 90%, 50%)" />
<rect x="4" y="46" width="6" height="6" fill="hsl(20, 90%, 50%)" />
<rect x="10" y="46" width="6" height="6" fill="hsl(20, 90%, 50%)" />
<rect x="34" y="70" width="6" height="6" fill="hsl(20, 90%, 50%)" />
<rect x="40" y="70" width="6" height="6" fill="hsl(20, 90%, 50%)" />
<rect x="34" y="76" width="6" height="6" fill="hsl(20, 90%, 50%)" />
<rect x="40" y="76" width="6" height="6" fill="hsl(20, 90%, 50%)" />
<rect x="10" y="82" width="6" height="6" fill="hsl(20, 90%, 50%)" />
<rect x="16" y="82" width="6" height="6" fill="hsl(20, 90%, 50%)" />
<rect x="4" y="88" width="6" height="6" fill="hsl(20, 90%, 50%)" />
<rect x="16" y="88" width="6" height="6" fill="hsl(20, 90%, 50%)" />
<rect x="16" y="94" width="6" height="6" fill="hsl(20, 90%, 50%)" />
<rect x="34" y="94" width="6" height="6" fill="hsl(20, 90%, 50%)" />
<rect x="34" y="100" width="6" height="6" fill="hsl(20, 90%, 50%)" />
<rect x="46" y="100" width="6" height="6" fill="hsl(20, 90%, 50%)" />
<rect x="34" y="106" width="6" height="6" fill="hsl(20, 90%, 50%)" />
<rect x="40" y="106" width="6" height="6" fill="hsl(20, 90%, 50%)" />
</svg>