<?xml version="1.0" encoding="utf-8"?>
<svg xmlns="http://www.w3.org/2000/svg" width="114" height="54" viewBox="0 0 114 54">
<rect width="100%" height="100%" fill="transparent" />
<rect x="54" y="4" width="2" height="2" fill="hsl(20, 90%, 50%)" />
<rect x="56" y="4" width="2" height="2" fill="hsl(20, 90%, 50%)" />
<rect x="4" y="6" width="2" height="2" fill="hsl(20, 90%, 50%)" />
<rect x="6" y="6" width="2" height="2" fill="hsl(20, 90%, 50%)" />
<rect x="56" y="6" width="2" height="2" fill="hsl(20, 90%, 50%)" />
<rect x="6" y="8" width="2" height="2" fill="hsl(20, 90%, 50%)" />
<rect x="34" y="8" width="2" height="2" fill="hsl(20, 90%, 50%)" />
<rect x="36" y="8" width="2" height="2" fill="hsl(20, 90%, 50%)" />
<rect x="50" y="8" width="2" height="2" fill="hsl(20, 90%, 50%)" />
<rect x="52" y="8" width="2" height="2" fill="hsl(20, 90%, 50%)" />
<rect x="54" y="8" width="2" height="2" fill="hsl(20, 90%, 50%)" />
<rect x="6" y="10" width="2" height="2" fill="hsl(20, 90%, 50%)" />
<rect x="10" y="10" width="2" height="2" fill="hsl(20, 90%, 50%)" />
<rect x="34" y="10" width="2" height="2" fill="hsl(20, 90%, 50%)" />
<rect x="36" y="10" width="2" height="2" fill="hsl(20, 90%, 50%)" />
<rect x="50" y="10" width="2" height="2" fill="hsl(20, 90%, 50%)" />
<rect x="8" y="12" width="2" height="2" fill="hsl(20, 90%, 50%)" />
<rect x="10" y="12" width="2" height="2" fill="hsl(20, 90%, 50%)" />
<rect x="108" y="20" width="2" height="2" fill="hsl(20, 90%, 50%)" />
<rect x="104" y="22" width="2" height="2" fill="hsl(20, 90%, 50%)" />
<rect x="106" y="22" width="2" height="2" fill="hsl(20, 90%, 50%)" />
<rect x="108" y="22" width="2" height="2" fill="hsl(20, 90%, 50%)" />
<rect x="70" y="24" width="2" height="2" fill="hsl(20, 90%, 50%)" />
<rect x="72" y="24" width="2" height="2" fill="hsl(20, 90%, 50%)" />
<rect x="104" y="24" width="2" height="2" fill="hsl(20, 90%, 50%)" />
<rect x="8" y="26" width="2" height="2" fill="hsl(20, 90%, 50%)" />
<rect x="70" y="26" width="2" height="2" fill="hsl(20, 90%, 50%)" />
<rect x="72" y="26" width="2" height="2" fill="hsl(20, 90%, 50%)" />
<rect x="104" y="26" width="2" height="2" fill="hsl(20, 90%, 50%)" />
<rect x="8" y="28" width="2" height="2" fill="hsl(20, 90%, 50%)" />
<rect x="12" y="28" width="2" height="2" fill="hsl(20, 90%, 50%)" />
<rect x="8" y="30" width="2" height="2" fill="hsl(20, 90%, 50%)" />
<rect x="10" y="30" width="2" height="2" fill="hsl(20, 90%, 50%)" />
<rect x="12" y="30" width="2" height="2" fill="hsl(20, 90%, 50%)" />
<rect x="12" y="32" width="2" height="2" fill="hsl(20, 90%, 50%)" />
<rect x="64" y="38" width="2" height="2" fill="hsl(20, 90%, 50%)" />
<rect x="66" y="38" width="2" height="2" fill="hsl(20, 90%, 50%)" />
<rect x="64" y="40" width="2" height="2" fill="hsl(20, 90%, 50%)" />
<rect x="26" y="42" width="2" height="2" fill="hsl(20, 90%, 50%)" />
<rect x="28" y="42" width="2" height="2" fill="hsl(20, 90%, 50%)" />
<rect x="36" y="42" width="2" height="2" fill="hsl(20, 90%, 50%)" />
<rect x="38" y="42" width="2" height="2" fill="hsl(20, 90%, 50%)" />
<rect x="66" y="42" width="2" height="2" fill="hsl(20, 90%, 50%)" />
<rect x="28" y="44" width="2" height="2" fill="hsl(20, 90%, 50%)" />
<rect x="36" y="44" width="2" height="2" fill="hsl(20, 90%, 50%)" />
<rect x="64" y="44" width="2" height="2" fill="hsl(20, 90%, 50%)" />
<rect x="66" y="44" width="2" height="2" fill="hsl(20, 90%, 50%)" />
<rect x="22" y="46" width="2" height="2" fill="hsl(20, 90%, 50%)" />
<rect x="24" y="46" width="2" height="2" fill="hsl(20, 90%, 50%)" />
<rect x="26" y="46" width="2" height="2" fill="hsl(20, 90%, 50%)" />
<rect x="38" y="46" width="2" height="2" fill="hsl(20, 90%, 50%)" />
<rect x="40" y="46" width="2" height="2" fill="hsl(20, 90%, 50%)" />
<rect x="42" y="46" width="2" height="2" fill="hsl(20, 90%, 50%)" />
<rect x="22" y="48" width="2" height="2" fill="hsl(20, 90%, 50%)" />
<rect x="42" y="48" width="2" height="2" fill="hsl(20, 90%, 50%)" />
</svg>