<?xml version="1.0" encoding="utf-8"?>
<svg xmlns="http://www.w3.org/2000/svg" width="108" height="88" viewBox="0 0 108 88">
<rect width="100%" height="100%" fill="transparent" />
<rect x="40" y="4" width="4" height="4" fill="hsl(20, 90%, 50%)" />
<rect x="44" y="4" width="4" height="4" fill="hsl(20, 90%, 50%)" />
<rect x="40" y="8" width="4" height="4" fill="hsl(20, 90%, 50%)" />
<rect x="44" y="8" width="4" height="4" fill="hsl(20, 90%, 50%)" />
<rect x="44" y="16" width="4" height="4" fill="hsl(20, 90%, 50%)" />
<rect x="40" y="20" width="4" height="4" fill="hsl(20, 90%, 50%)" />
<rect x="48" y="20" width="4" height="4" fill="hsl(20, 90%, 50%)" />
<rect x="40" y="24" width="4" height="4" fill="hsl(20, 90%, 50%)" />
<rect x="48" y="24" width="4" height="4" fill="hsl(20, 90%, 50%)" />
<rect x="44" y="28" width="4" height="4" fill="hsl(20, 90%, 50%)" />
<rect x="32" y="40" width="4" height="4" fill="hsl(20, 90%, 50%)" />
<rect x="36" y="40" width="4" height="4" fill="hsl(20, 90%, 50%)" />
<rect x="44" y="40" width="4" height="4" fill="hsl(20, 90%, 50%)" />
<rect x="52" y="40" width="4" height="4" fill="hsl(20, 90%, 50%)" />
<rect x="56" y="40" width="4" height="4" fill="hsl(20, 90%, 50%)" />
<rect x="32" y="44" width="4" height="4" fill="hsl(20, 90%, 50%)" />
<rect x="56" y="44" width="4" height="4" fill="hsl(20, 90%, 50%)" />
<rect x="36" y="48" width="4" height="4" fill="hsl(20, 90%, 50%)" />
<rect x="52" y="48" width="4" height="4" fill="hsl(20, 90%, 50%)" />
<rect x="8" y="52" width="4" height="4" fill="hsl(20, 90%, 50%)" />
<rect x="40" y="52" width="4" height="4" fill="hsl(20, 90%, 50%)" />
<rect x="44" y="52" width="4" height="4" fill="hsl(20, 90%, 50%)" />
<rect x="48" y="52" width="4" height="4" fill="hsl(20, 90%, 50%)" />
<rect x="12" y="56" width="4" height="4" fill="hsl(20, 90%, 50%)" />
<rect x="4" y="60" width="4" height="4" fill="hsl(20, 90%, 50%)" />
<rect x="8" y="60" width="4" height="4" fill="hsl(20, 90%, 50%)" />
<rect x="12" y="60" width="4" height="4" fill="hsl(20, 90%, 50%)" />
<rect x="72" y="72" width="4" height="4" fill="hsl(20, 90%, 50%)" />
<rect x="92" y="72" width="4" height="4" fill="hsl(20, 90%, 50%)" />
<rect x="64" y="76" width="4" height="4" fill="hsl(20, 90%, 50%)" />
<rect x="68" y="76" width="4" height="4" fill="hsl(20, 90%, 50%)" />
<rect x="76" y="76" width="4" height="4" fill="hsl(20, 90%, 50%)" />
<rect x="80" y="76" width="4" height="4" fill="hsl(20, 90%, 50%)" />
<rect x="84" y="76" width="4" height="4" fill="hsl(20, 90%, 50%)" />
<rect x="88" y="76" width="4" height="4" fill="hsl(20, 90%, 50%)" />
<rect x="96" y="76" width="4" height="4" fill="hsl(20, 90%, 50%)" />
<rect x="100" y="76" width="4" height="4" fill="hsl(20, 90%, 50%)" />
<rect x="72" y="80" width="4" height="4" fill="hsl(20, 90%, 50%)" />
<rect x="92" y="80" width="4" height="4" fill="hsl(20, 90%, 50%)" />
</svg>