<?xml version="1.0" encoding="utf-8"?>
<svg xmlns="http://www.w3.org/2000/svg" width="127" height="113" viewBox="0 0 127 113">
<rect width="100%" height="100%" fill="transparent" />
<rect x="60" y="4" width="7" height="7" fill="hsl(20, 90%, 50%)" />
<rect x="67" y="4" width="7" height="7" fill="hsl(20, 90%, 50%)" />
<rect x="53" y="11" width="7" height="7" fill="hsl(20, 90%, 50%)" />
<rect x="60" y="11" width="7" height="7" fill="hsl(20, 90%, 50%)" />
<rect x="67" y="18" width="7" height="7" fill="hsl(20, 90%, 50%)" />
<rect x="81" y="25" width="7" height="7" fill="hsl(20, 90%, 50%)" />
<rect x="88" y="25" width="7" height="7" fill="hsl(20, 90%, 50%)" />
<rect x="74" y="32" width="7" height="7" fill="hsl(20, 90%, 50%)" />
<rect x="67" y="46" width="7" height="7" fill="hsl(20, 90%, 50%)" />
<rect x="88" y="46" width="7" height="7" fill="hsl(20, 90%, 50%)" />
<rect x="95" y="46" width="7" height="7" fill="hsl(20, 90%, 50%)" />
<rect x="11" y="53" width="7" height="7" fill="hsl(20, 90%, 50%)" />
<rect x="18" y="53" width="7" height="7" fill="hsl(20, 90%, 50%)" />
<rect x="60" y="53" width="7" height="7" fill="hsl(20, 90%, 50%)" />
<rect x="67" y="53" width="7" height="7" fill="hsl(20, 90%, 50%)" />
<rect x="102" y="53" width="7" height="7" fill="hsl(20, 90%, 50%)" />
<rect x="4" y="60" width="7" height="7" fill="hsl(20, 90%, 50%)" />
<rect x="11" y="60" width="7" height="7" fill="hsl(20, 90%, 50%)" />
<rect x="53" y="60" width="7" height="7" fill="hsl(20, 90%, 50%)" />
<rect x="95" y="60" width="7" height="7" fill="hsl(20, 90%, 50%)" />
<rect x="18" y="67" width="7" height="7" fill="hsl(20, 90%, 50%)" />
<rect x="53" y="67" width="7" height="7" fill="hsl(20, 90%, 50%)" />
<rect x="67" y="67" width="7" height="7" fill="hsl(20, 90%, 50%)" />
<rect x="95" y="67" width="7" height="7" fill="hsl(20, 90%, 50%)" />
<rect x="102" y="67" width="7" height="7" fill="hsl(20, 90%, 50%)" />
<rect x="32" y="74" width="7" height="7" fill="hsl(20, 90%, 50%)" />
<rect x="53" y="74" width="7" height="7" fill="hsl(20, 90%, 50%)" />
<rect x="88" y="74" width="7" height="7" fill="hsl(20, 90%, 50%)" />
<rect x="95" y="74" width="7" height="7" fill="hsl(20, 90%, 50%)" />
<rect x="109" y="74" width="7" height="7" fill="hsl(20, 90%, 50%)" />
<rect x="32" y="81" width="7" height="7" fill="hsl(20, 90%, 50%)" />
<rect x="39" y="81" width="7" height="7" fill="hsl(20, 90%, 50%)" />
<rect x="95" y="81" width="7" height="7" fill="hsl(20, 90%, 50%)" />
<rect x="102" y="81" width="7" height="7" fill="hsl(20, 90%, 50%)" />
<rect x="60" y="88" width="7" height="7" fill="hsl(20, 90%, 50%)" />
<rect x="95" y="88" width="7" height="7" fill="hsl(20, 90%, 50%)" />
<rect x="109" y="88" width="7" height="7" fill="hsl(20, 90%, 50%)" />
<rect x="116" y="88" width="7" height="7" fill="hsl(20, 90%, 50%)" />
<rect x="53" y="95" width="7" height="7" fill="hsl(20, 90%, 50%)" />
<rect x="67" y="95" width="7" height="7" fill="hsl(20, 90%, 50%)" />
<rect x="88" y="95" width="7" height="7" fill="hsl(20, 90%, 50%)" />
<rect x="102" y="95" width="7" height="7" fill="hsl(20, 90%, 50%)" />
<rect x="109" y="95" width="7" height="7" fill="hsl(20, 90%, 50%)" />
<rect x="60" y="102" width="7" height="7" fill="hsl(20, 90%, 50%)" />
</svg>