<?xml version="1.0" encoding="utf-8"?>
<svg xmlns="http://www.w3.org/2000/svg" width="125" height="125" viewBox="0 0 125 125">
<rect width="100%" height="100%" fill="transparent" />
<rect x="70" y="4" width="3" height="3" fill="hsl(20, 90%, 50%)" />
<rect x="73" y="4" width="3" height="3" fill="hsl(20, 90%, 50%)" />
<rect x="70" y="7" width="3" height="3" fill="hsl(20, 90%, 50%)" />
<rect x="73" y="7" width="3" height="3" fill="hsl(20, 90%, 50%)" />
<rect x="31" y="40" width="3" height="3" fill="hsl(20, 90%, 50%)" />
<rect x="64" y="40" width="3" height="3" fill="hsl(20, 90%, 50%)" />
<rect x="67" y="40" width="3" height="3" fill="hsl(20, 90%, 50%)" />
<rect x="79" y="40" width="3" height="3" fill="hsl(20, 90%, 50%)" />
<rect x="82" y="40" width="3" height="3" fill="hsl(20, 90%, 50%)" />
<rect x="25" y="43" width="3" height="3" fill="hsl(20, 90%, 50%)" />
<rect x="31" y="43" width="3" height="3" fill="hsl(20, 90%, 50%)" />
<rect x="70" y="43" width="3" height="3" fill="hsl(20, 90%, 50%)" />
<rect x="73" y="43" width="3" height="3" fill="hsl(20, 90%, 50%)" />
<rect x="76" y="43" width="3" height="3" fill="hsl(20, 90%, 50%)" />
<rect x="22" y="46" width="3" height="3" fill="hsl(20, 90%, 50%)" />
<rect x="28" y="46" width="3" height="3" fill="hsl(20, 90%, 50%)" />
<rect x="67" y="46" width="3" height="3" fill="hsl(20, 90%, 50%)" />
<rect x="79" y="46" width="3" height="3" fill="hsl(20, 90%, 50%)" />
<rect x="4" y="49" width="3" height="3" fill="hsl(20, 90%, 50%)" />
<rect x="7" y="49" width="3" height="3" fill="hsl(20, 90%, 50%)" />
<rect x="19" y="49" width="3" height="3" fill="hsl(20, 90%, 50%)" />
<rect x="28" y="49" width="3" height="3" fill="hsl(20, 90%, 50%)" />
<rect x="70" y="49" width="3" height="3" fill="hsl(20, 90%, 50%)" />
<rect x="76" y="49" width="3" height="3" fill="hsl(20, 90%, 50%)" />
<rect x="4" y="52" width="3" height="3" fill="hsl(20, 90%, 50%)" />
<rect x="7" y="52" width="3" height="3" fill="hsl(20, 90%, 50%)" />
<rect x="22" y="52" width="3" height="3" fill="hsl(20, 90%, 50%)" />
<rect x="28" y="52" width="3" height="3" fill="hsl(20, 90%, 50%)" />
<rect x="73" y="52" width="3" height="3" fill="hsl(20, 90%, 50%)" />
<rect x="25" y="55" width="3" height="3" fill="hsl(20, 90%, 50%)" />
<rect x="31" y="55" width="3" height="3" fill="hsl(20, 90%, 50%)" />
<rect x="52" y="55" width="3" height="3" fill="hsl(20, 90%, 50%)" />
<rect x="58" y="55" width="3" height="3" fill="hsl(20, 90%, 50%)" />
<rect x="31" y="58" width="3" height="3" fill="hsl(20, 90%, 50%)" />
<rect x="52" y="58" width="3" height="3" fill="hsl(20, 90%, 50%)" />
<rect x="55" y="58" width="3" height="3" fill="hsl(20, 90%, 50%)" />
<rect x="55" y="61" width="3" height="3" fill="hsl(20, 90%, 50%)" />
<rect x="67" y="61" width="3" height="3" fill="hsl(20, 90%, 50%)" />
<rect x="67" y="64" width="3" height="3" fill="hsl(20, 90%, 50%)" />
<rect x="70" y="64" width="3" height="3" fill="hsl(20, 90%, 50%)" />
<rect x="91" y="64" width="3" height="3" fill="hsl(20, 90%, 50%)" />
<rect x="64" y="67" width="3" height="3" fill="hsl(20, 90%, 50%)" />
<rect x="70" y="67" width="3" height="3" fill="hsl(20, 90%, 50%)" />
<rect x="91" y="67" width="3" height="3" fill="hsl(20, 90%, 50%)" />
<rect x="97" y="67" width="3" height="3" fill="hsl(20, 90%, 50%)" />
<rect x="49" y="70" width="3" height="3" fill="hsl(20, 90%, 50%)" />
<rect x="94" y="70" width="3" height="3" fill="hsl(20, 90%, 50%)" />
<rect x="100" y="70" width="3" height="3" fill="hsl(20, 90%, 50%)" />
<rect x="115" y="70" width="3" height="3" fill="hsl(20, 90%, 50%)" />
<rect x="118" y="70" width="3" height="3" fill="hsl(20, 90%, 50%)" />
<rect x="46" y="73" width="3" height="3" fill="hsl(20, 90%, 50%)" />
<rect x="52" y="73" width="3" height="3" fill="hsl(20, 90%, 50%)" />
<rect x="94" y="73" width="3" height="3" fill="hsl(20, 90%, 50%)" />
<rect x="103" y="73" width="3" height="3" fill="hsl(20, 90%, 50%)" />
<rect x="115" y="73" width="3" height="3" fill="hsl(20, 90%, 50%)" />
<rect x="118" y="73" width="3" height="3" fill="hsl(20, 90%, 50%)" />
<rect x="43" y="76" width="3" height="3" fill="hsl(20, 90%, 50%)" />
<rect x="55" y="76" width="3" height="3" fill="hsl(20, 90%, 50%)" />
<rect x="94" y="76" width="3" height="3" fill="hsl(20, 90%, 50%)" />
<rect x="100" y="76" width="3" height="3" fill="hsl(20, 90%, 50%)" />
<rect x="46" y="79" width="3" height="3" fill="hsl(20, 90%, 50%)" />
<rect x="49" y="79" width="3" height="3" fill="hsl(20, 90%, 50%)" />
<rect x="52" y="79" width="3" height="3" fill="hsl(20, 90%, 50%)" />
<rect x="91" y="79" width="3" height="3" fill="hsl(20, 90%, 50%)" />
<rect x="97" y="79" width="3" height="3" fill="hsl(20, 90%, 50%)" />
<rect x="40" y="82" width="3" height="3" fill="hsl(20, 90%, 50%)" />
<rect x="43" y="82" width="3" height="3" fill="hsl(20, 90%, 50%)" />
<rect x="55" y="82" width="3" height="3" fill="hsl(20, 90%, 50%)" />
<rect x="58" y="82" width="3" height="3" fill="hsl(20, 90%, 50%)" />
<rect x="91" y="82" width="3" height="3" fill="hsl(20, 90%, 50%)" />
<rect x="49" y="115" width="3" height="3" fill="hsl(20, 90%, 50%)" />
<rect x="52" y="115" width="3" height="3" fill="hsl(20, 90%, 50%)" />
<rect x="49" y="118" width="3" height="3" fill="hsl(20, 90%, 50%)" />
<rect x="52" y="118" width="3" height="3" fill="hsl(20, 90%, 50%)" />
</svg>