<?xml version="1.0" encoding="utf-8"?>
<svg xmlns="http://www.w3.org/2000/svg" width="53" height="69" viewBox="0 0 53 69">
<rect width="100%" height="100%" fill="transparent" />
<rect x="35" y="4" width="1" height="1" fill="hsl(20, 90%, 50%)" />
<rect x="21" y="5" width="1" height="1" fill="hsl(20, 90%, 50%)" />
<rect x="34" y="5" width="1" height="1" fill="hsl(20, 90%, 50%)" />
<rect x="35" y="5" width="1" height="1" fill="hsl(20, 90%, 50%)" />
<rect x="36" y="5" width="1" height="1" fill="hsl(20, 90%, 50%)" />
<rect x="20" y="6" width="1" height="1" fill="hsl(20, 90%, 50%)" />
<rect x="21" y="6" width="1" height="1" fill="hsl(20, 90%, 50%)" />
<rect x="22" y="6" width="1" height="1" fill="hsl(20, 90%, 50%)" />
<rect x="27" y="6" width="1" height="1" fill="hsl(20, 90%, 50%)" />
<rect x="28" y="6" width="1" height="1" fill="hsl(20, 90%, 50%)" />
<rect x="29" y="6" width="1" height="1" fill="hsl(20, 90%, 50%)" />
<rect x="34" y="6" width="1" height="1" fill="hsl(20, 90%, 50%)" />
<rect x="36" y="6" width="1" height="1" fill="hsl(20, 90%, 50%)" />
<rect x="37" y="6" width="1" height="1" fill="hsl(20, 90%, 50%)" />
<rect x="13" y="7" width="1" height="1" fill="hsl(20, 90%, 50%)" />
<rect x="14" y="7" width="1" height="1" fill="hsl(20, 90%, 50%)" />
<rect x="15" y="7" width="1" height="1" fill="hsl(20, 90%, 50%)" />
<rect x="20" y="7" width="1" height="1" fill="hsl(20, 90%, 50%)" />
<rect x="22" y="7" width="1" height="1" fill="hsl(20, 90%, 50%)" />
<rect x="23" y="7" width="1" height="1" fill="hsl(20, 90%, 50%)" />
<rect x="27" y="7" width="1" height="1" fill="hsl(20, 90%, 50%)" />
<rect x="30" y="7" width="1" height="1" fill="hsl(20, 90%, 50%)" />
<rect x="35" y="7" width="1" height="1" fill="hsl(20, 90%, 50%)" />
<rect x="36" y="7" width="1" height="1" fill="hsl(20, 90%, 50%)" />
<rect x="37" y="7" width="1" height="1" fill="hsl(20, 90%, 50%)" />
<rect x="40" y="7" width="1" height="1" fill="hsl(20, 90%, 50%)" />
<rect x="41" y="7" width="1" height="1" fill="hsl(20, 90%, 50%)" />
<rect x="42" y="7" width="1" height="1" fill="hsl(20, 90%, 50%)" />
<rect x="13" y="8" width="1" height="1" fill="hsl(20, 90%, 50%)" />
<rect x="16" y="8" width="1" height="1" fill="hsl(20, 90%, 50%)" />
<rect x="21" y="8" width="1" height="1" fill="hsl(20, 90%, 50%)" />
<rect x="22" y="8" width="1" height="1" fill="hsl(20, 90%, 50%)" />
<rect x="23" y="8" width="1" height="1" fill="hsl(20, 90%, 50%)" />
<rect x="27" y="8" width="1" height="1" fill="hsl(20, 90%, 50%)" />
<rect x="35" y="8" width="1" height="1" fill="hsl(20, 90%, 50%)" />
<rect x="36" y="8" width="1" height="1" fill="hsl(20, 90%, 50%)" />
<rect x="40" y="8" width="1" height="1" fill="hsl(20, 90%, 50%)" />
<rect x="13" y="9" width="1" height="1" fill="hsl(20, 90%, 50%)" />
<rect x="21" y="9" width="1" height="1" fill="hsl(20, 90%, 50%)" />
<rect x="22" y="9" width="1" height="1" fill="hsl(20, 90%, 50%)" />
<rect x="27" y="9" width="1" height="1" fill="hsl(20, 90%, 50%)" />
<rect x="31" y="9" width="1" height="1" fill="hsl(20, 90%, 50%)" />
<rect x="41" y="9" width="1" height="1" fill="hsl(20, 90%, 50%)" />
<rect x="13" y="10" width="1" height="1" fill="hsl(20, 90%, 50%)" />
<rect x="17" y="10" width="1" height="1" fill="hsl(20, 90%, 50%)" />
<rect x="27" y="10" width="1" height="1" fill="hsl(20, 90%, 50%)" />
<rect x="31" y="10" width="1" height="1" fill="hsl(20, 90%, 50%)" />
<rect x="4" y="11" width="1" height="1" fill="hsl(20, 90%, 50%)" />
<rect x="5" y="11" width="1" height="1" fill="hsl(20, 90%, 50%)" />
<rect x="6" y="11" width="1" height="1" fill="hsl(20, 90%, 50%)" />
<rect x="13" y="11" width="1" height="1" fill="hsl(20, 90%, 50%)" />
<rect x="17" y="11" width="1" height="1" fill="hsl(20, 90%, 50%)" />
<rect x="27" y="11" width="1" height="1" fill="hsl(20, 90%, 50%)" />
<rect x="4" y="12" width="1" height="1" fill="hsl(20, 90%, 50%)" />
<rect x="7" y="12" width="1" height="1" fill="hsl(20, 90%, 50%)" />
<rect x="13" y="12" width="1" height="1" fill="hsl(20, 90%, 50%)" />
<rect x="28" y="12" width="1" height="1" fill="hsl(20, 90%, 50%)" />
<rect x="30" y="12" width="1" height="1" fill="hsl(20, 90%, 50%)" />
<rect x="4" y="13" width="1" height="1" fill="hsl(20, 90%, 50%)" />
<rect x="14" y="13" width="1" height="1" fill="hsl(20, 90%, 50%)" />
<rect x="16" y="13" width="1" height="1" fill="hsl(20, 90%, 50%)" />
<rect x="4" y="14" width="1" height="1" fill="hsl(20, 90%, 50%)" />
<rect x="5" y="15" width="1" height="1" fill="hsl(20, 90%, 50%)" />
<rect x="7" y="15" width="1" height="1" fill="hsl(20, 90%, 50%)" />
<rect x="14" y="18" width="1" height="1" fill="hsl(20, 90%, 50%)" />
<rect x="13" y="19" width="1" height="1" fill="hsl(20, 90%, 50%)" />
<rect x="14" y="19" width="1" height="1" fill="hsl(20, 90%, 50%)" />
<rect x="15" y="19" width="1" height="1" fill="hsl(20, 90%, 50%)" />
<rect x="13" y="20" width="1" height="1" fill="hsl(20, 90%, 50%)" />
<rect x="15" y="20" width="1" height="1" fill="hsl(20, 90%, 50%)" />
<rect x="16" y="20" width="1" height="1" fill="hsl(20, 90%, 50%)" />
<rect x="14" y="21" width="1" height="1" fill="hsl(20, 90%, 50%)" />
<rect x="15" y="21" width="1" height="1" fill="hsl(20, 90%, 50%)" />
<rect x="16" y="21" width="1" height="1" fill="hsl(20, 90%, 50%)" />
<rect x="14" y="22" width="1" height="1" fill="hsl(20, 90%, 50%)" />
<rect x="15" y="22" width="1" height="1" fill="hsl(20, 90%, 50%)" />
<rect x="19" y="25" width="1" height="1" fill="hsl(20, 90%, 50%)" />
<rect x="20" y="25" width="1" height="1" fill="hsl(20, 90%, 50%)" />
<rect x="21" y="25" width="1" height="1" fill="hsl(20, 90%, 50%)" />
<rect x="19" y="26" width="1" height="1" fill="hsl(20, 90%, 50%)" />
<rect x="22" y="26" width="1" height="1" fill="hsl(20, 90%, 50%)" />
<rect x="27" y="26" width="1" height="1" fill="hsl(20, 90%, 50%)" />
<rect x="33" y="26" width="1" height="1" fill="hsl(20, 90%, 50%)" />
<rect x="34" y="26" width="1" height="1" fill="hsl(20, 90%, 50%)" />
<rect x="35" y="26" width="1" height="1" fill="hsl(20, 90%, 50%)" />
<rect x="19" y="27" width="1" height="1" fill="hsl(20, 90%, 50%)" />
<rect x="26" y="27" width="1" height="1" fill="hsl(20, 90%, 50%)" />
<rect x="27" y="27" width="1" height="1" fill="hsl(20, 90%, 50%)" />
<rect x="28" y="27" width="1" height="1" fill="hsl(20, 90%, 50%)" />
<rect x="33" y="27" width="1" height="1" fill="hsl(20, 90%, 50%)" />
<rect x="36" y="27" width="1" height="1" fill="hsl(20, 90%, 50%)" />
<rect x="41" y="27" width="1" height="1" fill="hsl(20, 90%, 50%)" />
<rect x="19" y="28" width="1" height="1" fill="hsl(20, 90%, 50%)" />
<rect x="25" y="28" width="1" height="1" fill="hsl(20, 90%, 50%)" />
<rect x="26" y="28" width="1" height="1" fill="hsl(20, 90%, 50%)" />
<rect x="28" y="28" width="1" height="1" fill="hsl(20, 90%, 50%)" />
<rect x="33" y="28" width="1" height="1" fill="hsl(20, 90%, 50%)" />
<rect x="40" y="28" width="1" height="1" fill="hsl(20, 90%, 50%)" />
<rect x="41" y="28" width="1" height="1" fill="hsl(20, 90%, 50%)" />
<rect x="42" y="28" width="1" height="1" fill="hsl(20, 90%, 50%)" />
<rect x="8" y="29" width="1" height="1" fill="hsl(20, 90%, 50%)" />
<rect x="9" y="29" width="1" height="1" fill="hsl(20, 90%, 50%)" />
<rect x="10" y="29" width="1" height="1" fill="hsl(20, 90%, 50%)" />
<rect x="20" y="29" width="1" height="1" fill="hsl(20, 90%, 50%)" />
<rect x="22" y="29" width="1" height="1" fill="hsl(20, 90%, 50%)" />
<rect x="25" y="29" width="1" height="1" fill="hsl(20, 90%, 50%)" />
<rect x="26" y="29" width="1" height="1" fill="hsl(20, 90%, 50%)" />
<rect x="27" y="29" width="1" height="1" fill="hsl(20, 90%, 50%)" />
<rect x="33" y="29" width="1" height="1" fill="hsl(20, 90%, 50%)" />
<rect x="39" y="29" width="1" height="1" fill="hsl(20, 90%, 50%)" />
<rect x="40" y="29" width="1" height="1" fill="hsl(20, 90%, 50%)" />
<rect x="42" y="29" width="1" height="1" fill="hsl(20, 90%, 50%)" />
<rect x="8" y="30" width="1" height="1" fill="hsl(20, 90%, 50%)" />
<rect x="11" y="30" width="1" height="1" fill="hsl(20, 90%, 50%)" />
<rect x="25" y="30" width="1" height="1" fill="hsl(20, 90%, 50%)" />
<rect x="26" y="30" width="1" height="1" fill="hsl(20, 90%, 50%)" />
<rect x="27" y="30" width="1" height="1" fill="hsl(20, 90%, 50%)" />
<rect x="34" y="30" width="1" height="1" fill="hsl(20, 90%, 50%)" />
<rect x="36" y="30" width="1" height="1" fill="hsl(20, 90%, 50%)" />
<rect x="39" y="30" width="1" height="1" fill="hsl(20, 90%, 50%)" />
<rect x="40" y="30" width="1" height="1" fill="hsl(20, 90%, 50%)" />
<rect x="41" y="30" width="1" height="1" fill="hsl(20, 90%, 50%)" />
<rect x="8" y="31" width="1" height="1" fill="hsl(20, 90%, 50%)" />
<rect x="25" y="31" width="1" height="1" fill="hsl(20, 90%, 50%)" />
<rect x="26" y="31" width="1" height="1" fill="hsl(20, 90%, 50%)" />
<rect x="27" y="31" width="1" height="1" fill="hsl(20, 90%, 50%)" />
<rect x="39" y="31" width="1" height="1" fill="hsl(20, 90%, 50%)" />
<rect x="40" y="31" width="1" height="1" fill="hsl(20, 90%, 50%)" />
<rect x="41" y="31" width="1" height="1" fill="hsl(20, 90%, 50%)" />
<rect x="8" y="32" width="1" height="1" fill="hsl(20, 90%, 50%)" />
<rect x="26" y="32" width="1" height="1" fill="hsl(20, 90%, 50%)" />
<rect x="27" y="32" width="1" height="1" fill="hsl(20, 90%, 50%)" />
<rect x="39" y="32" width="1" height="1" fill="hsl(20, 90%, 50%)" />
<rect x="40" y="32" width="1" height="1" fill="hsl(20, 90%, 50%)" />
<rect x="41" y="32" width="1" height="1" fill="hsl(20, 90%, 50%)" />
<rect x="9" y="33" width="1" height="1" fill="hsl(20, 90%, 50%)" />
<rect x="11" y="33" width="1" height="1" fill="hsl(20, 90%, 50%)" />
<rect x="40" y="33" width="1" height="1" fill="hsl(20, 90%, 50%)" />
<rect x="41" y="33" width="1" height="1" fill="hsl(20, 90%, 50%)" />
<rect x="47" y="34" width="1" height="1" fill="hsl(20, 90%, 50%)" />
<rect x="46" y="35" width="1" height="1" fill="hsl(20, 90%, 50%)" />
<rect x="47" y="35" width="1" height="1" fill="hsl(20, 90%, 50%)" />
<rect x="48" y="35" width="1" height="1" fill="hsl(20, 90%, 50%)" />
<rect x="45" y="36" width="1" height="1" fill="hsl(20, 90%, 50%)" />
<rect x="46" y="36" width="1" height="1" fill="hsl(20, 90%, 50%)" />
<rect x="48" y="36" width="1" height="1" fill="hsl(20, 90%, 50%)" />
<rect x="45" y="37" width="1" height="1" fill="hsl(20, 90%, 50%)" />
<rect x="46" y="37" width="1" height="1" fill="hsl(20, 90%, 50%)" />
<rect x="47" y="37" width="1" height="1" fill="hsl(20, 90%, 50%)" />
<rect x="46" y="38" width="1" height="1" fill="hsl(20, 90%, 50%)" />
<rect x="47" y="38" width="1" height="1" fill="hsl(20, 90%, 50%)" />
<rect x="45" y="45" width="1" height="1" fill="hsl(20, 90%, 50%)" />
<rect x="34" y="46" width="1" height="1" fill="hsl(20, 90%, 50%)" />
<rect x="35" y="46" width="1" height="1" fill="hsl(20, 90%, 50%)" />
<rect x="36" y="46" width="1" height="1" fill="hsl(20, 90%, 50%)" />
<rect x="44" y="46" width="1" height="1" fill="hsl(20, 90%, 50%)" />
<rect x="45" y="46" width="1" height="1" fill="hsl(20, 90%, 50%)" />
<rect x="46" y="46" width="1" height="1" fill="hsl(20, 90%, 50%)" />
<rect x="20" y="47" width="1" height="1" fill="hsl(20, 90%, 50%)" />
<rect x="21" y="47" width="1" height="1" fill="hsl(20, 90%, 50%)" />
<rect x="22" y="47" width="1" height="1" fill="hsl(20, 90%, 50%)" />
<rect x="28" y="47" width="1" height="1" fill="hsl(20, 90%, 50%)" />
<rect x="33" y="47" width="1" height="1" fill="hsl(20, 90%, 50%)" />
<rect x="36" y="47" width="1" height="1" fill="hsl(20, 90%, 50%)" />
<rect x="43" y="47" width="1" height="1" fill="hsl(20, 90%, 50%)" />
<rect x="44" y="47" width="1" height="1" fill="hsl(20, 90%, 50%)" />
<rect x="46" y="47" width="1" height="1" fill="hsl(20, 90%, 50%)" />
<rect x="14" y="48" width="1" height="1" fill="hsl(20, 90%, 50%)" />
<rect x="19" y="48" width="1" height="1" fill="hsl(20, 90%, 50%)" />
<rect x="22" y="48" width="1" height="1" fill="hsl(20, 90%, 50%)" />
<rect x="27" y="48" width="1" height="1" fill="hsl(20, 90%, 50%)" />
<rect x="28" y="48" width="1" height="1" fill="hsl(20, 90%, 50%)" />
<rect x="29" y="48" width="1" height="1" fill="hsl(20, 90%, 50%)" />
<rect x="36" y="48" width="1" height="1" fill="hsl(20, 90%, 50%)" />
<rect x="43" y="48" width="1" height="1" fill="hsl(20, 90%, 50%)" />
<rect x="44" y="48" width="1" height="1" fill="hsl(20, 90%, 50%)" />
<rect x="45" y="48" width="1" height="1" fill="hsl(20, 90%, 50%)" />
<rect x="13" y="49" width="1" height="1" fill="hsl(20, 90%, 50%)" />
<rect x="14" y="49" width="1" height="1" fill="hsl(20, 90%, 50%)" />
<rect x="15" y="49" width="1" height="1" fill="hsl(20, 90%, 50%)" />
<rect x="22" y="49" width="1" height="1" fill="hsl(20, 90%, 50%)" />
<rect x="27" y="49" width="1" height="1" fill="hsl(20, 90%, 50%)" />
<rect x="29" y="49" width="1" height="1" fill="hsl(20, 90%, 50%)" />
<rect x="30" y="49" width="1" height="1" fill="hsl(20, 90%, 50%)" />
<rect x="36" y="49" width="1" height="1" fill="hsl(20, 90%, 50%)" />
<rect x="43" y="49" width="1" height="1" fill="hsl(20, 90%, 50%)" />
<rect x="44" y="49" width="1" height="1" fill="hsl(20, 90%, 50%)" />
<rect x="45" y="49" width="1" height="1" fill="hsl(20, 90%, 50%)" />
<rect x="13" y="50" width="1" height="1" fill="hsl(20, 90%, 50%)" />
<rect x="15" y="50" width="1" height="1" fill="hsl(20, 90%, 50%)" />
<rect x="16" y="50" width="1" height="1" fill="hsl(20, 90%, 50%)" />
<rect x="22" y="50" width="1" height="1" fill="hsl(20, 90%, 50%)" />
<rect x="28" y="50" width="1" height="1" fill="hsl(20, 90%, 50%)" />
<rect x="29" y="50" width="1" height="1" fill="hsl(20, 90%, 50%)" />
<rect x="30" y="50" width="1" height="1" fill="hsl(20, 90%, 50%)" />
<rect x="33" y="50" width="1" height="1" fill="hsl(20, 90%, 50%)" />
<rect x="35" y="50" width="1" height="1" fill="hsl(20, 90%, 50%)" />
<rect x="44" y="50" width="1" height="1" fill="hsl(20, 90%, 50%)" />
<rect x="45" y="50" width="1" height="1" fill="hsl(20, 90%, 50%)" />
<rect x="14" y="51" width="1" height="1" fill="hsl(20, 90%, 50%)" />
<rect x="15" y="51" width="1" height="1" fill="hsl(20, 90%, 50%)" />
<rect x="16" y="51" width="1" height="1" fill="hsl(20, 90%, 50%)" />
<rect x="19" y="51" width="1" height="1" fill="hsl(20, 90%, 50%)" />
<rect x="21" y="51" width="1" height="1" fill="hsl(20, 90%, 50%)" />
<rect x="28" y="51" width="1" height="1" fill="hsl(20, 90%, 50%)" />
<rect x="29" y="51" width="1" height="1" fill="hsl(20, 90%, 50%)" />
<rect x="30" y="51" width="1" height="1" fill="hsl(20, 90%, 50%)" />
<rect x="5" y="52" width="1" height="1" fill="hsl(20, 90%, 50%)" />
<rect x="14" y="52" width="1" height="1" fill="hsl(20, 90%, 50%)" />
<rect x="15" y="52" width="1" height="1" fill="hsl(20, 90%, 50%)" />
<rect x="16" y="52" width="1" height="1" fill="hsl(20, 90%, 50%)" />
<rect x="28" y="52" width="1" height="1" fill="hsl(20, 90%, 50%)" />
<rect x="29" y="52" width="1" height="1" fill="hsl(20, 90%, 50%)" />
<rect x="30" y="52" width="1" height="1" fill="hsl(20, 90%, 50%)" />
<rect x="4" y="53" width="1" height="1" fill="hsl(20, 90%, 50%)" />
<rect x="5" y="53" width="1" height="1" fill="hsl(20, 90%, 50%)" />
<rect x="6" y="53" width="1" height="1" fill="hsl(20, 90%, 50%)" />
<rect x="14" y="53" width="1" height="1" fill="hsl(20, 90%, 50%)" />
<rect x="15" y="53" width="1" height="1" fill="hsl(20, 90%, 50%)" />
<rect x="16" y="53" width="1" height="1" fill="hsl(20, 90%, 50%)" />
<rect x="28" y="53" width="1" height="1" fill="hsl(20, 90%, 50%)" />
<rect x="29" y="53" width="1" height="1" fill="hsl(20, 90%, 50%)" />
<rect x="4" y="54" width="1" height="1" fill="hsl(20, 90%, 50%)" />
<rect x="6" y="54" width="1" height="1" fill="hsl(20, 90%, 50%)" />
<rect x="7" y="54" width="1" height="1" fill="hsl(20, 90%, 50%)" />
<rect x="14" y="54" width="1" height="1" fill="hsl(20, 90%, 50%)" />
<rect x="15" y="54" width="1" height="1" fill="hsl(20, 90%, 50%)" />
<rect x="5" y="55" width="1" height="1" fill="hsl(20, 90%, 50%)" />
<rect x="6" y="55" width="1" height="1" fill="hsl(20, 90%, 50%)" />
<rect x="7" y="55" width="1" height="1" fill="hsl(20, 90%, 50%)" />
<rect x="46" y="55" width="1" height="1" fill="hsl(20, 90%, 50%)" />
<rect x="5" y="56" width="1" height="1" fill="hsl(20, 90%, 50%)" />
<rect x="6" y="56" width="1" height="1" fill="hsl(20, 90%, 50%)" />
<rect x="45" y="56" width="1" height="1" fill="hsl(20, 90%, 50%)" />
<rect x="46" y="56" width="1" height="1" fill="hsl(20, 90%, 50%)" />
<rect x="47" y="56" width="1" height="1" fill="hsl(20, 90%, 50%)" />
<rect x="44" y="57" width="1" height="1" fill="hsl(20, 90%, 50%)" />
<rect x="45" y="57" width="1" height="1" fill="hsl(20, 90%, 50%)" />
<rect x="47" y="57" width="1" height="1" fill="hsl(20, 90%, 50%)" />
<rect x="44" y="58" width="1" height="1" fill="hsl(20, 90%, 50%)" />
<rect x="45" y="58" width="1" height="1" fill="hsl(20, 90%, 50%)" />
<rect x="46" y="58" width="1" height="1" fill="hsl(20, 90%, 50%)" />
<rect x="45" y="59" width="1" height="1" fill="hsl(20, 90%, 50%)" />
<rect x="46" y="59" width="1" height="1" fill="hsl(20, 90%, 50%)" />
<rect x="13" y="60" width="1" height="1" fill="hsl(20, 90%, 50%)" />
<rect x="14" y="60" width="1" height="1" fill="hsl(20, 90%, 50%)" />
<rect x="15" y="60" width="1" height="1" fill="hsl(20, 90%, 50%)" />
<rect x="12" y="61" width="1" height="1" fill="hsl(20, 90%, 50%)" />
<rect x="15" y="61" width="1" height="1" fill="hsl(20, 90%, 50%)" />
<rect x="15" y="62" width="1" height="1" fill="hsl(20, 90%, 50%)" />
<rect x="15" y="63" width="1" height="1" fill="hsl(20, 90%, 50%)" />
<rect x="12" y="64" width="1" height="1" fill="hsl(20, 90%, 50%)" />
<rect x="14" y="64" width="1" height="1" fill="hsl(20, 90%, 50%)" />
</svg>