<?xml version="1.0" encoding="utf-8"?>
<svg xmlns="http://www.w3.org/2000/svg" width="122" height="98" viewBox="0 0 122 98">
<rect width="100%" height="100%" fill="transparent" />
<rect x="112" y="4" width="3" height="3" fill="hsl(20, 90%, 50%)" />
<rect x="115" y="4" width="3" height="3" fill="hsl(20, 90%, 50%)" />
<rect x="79" y="7" width="3" height="3" fill="hsl(20, 90%, 50%)" />
<rect x="112" y="7" width="3" height="3" fill="hsl(20, 90%, 50%)" />
<rect x="79" y="10" width="3" height="3" fill="hsl(20, 90%, 50%)" />
<rect x="82" y="10" width="3" height="3" fill="hsl(20, 90%, 50%)" />
<rect x="85" y="10" width="3" height="3" fill="hsl(20, 90%, 50%)" />
<rect x="115" y="10" width="3" height="3" fill="hsl(20, 90%, 50%)" />
<rect x="88" y="13" width="3" height="3" fill="hsl(20, 90%, 50%)" />
<rect x="112" y="13" width="3" height="3" fill="hsl(20, 90%, 50%)" />
<rect x="115" y="13" width="3" height="3" fill="hsl(20, 90%, 50%)" />
<rect x="85" y="16" width="3" height="3" fill="hsl(20, 90%, 50%)" />
<rect x="88" y="16" width="3" height="3" fill="hsl(20, 90%, 50%)" />
<rect x="28" y="22" width="3" height="3" fill="hsl(20, 90%, 50%)" />
<rect x="28" y="25" width="3" height="3" fill="hsl(20, 90%, 50%)" />
<rect x="31" y="25" width="3" height="3" fill="hsl(20, 90%, 50%)" />
<rect x="34" y="25" width="3" height="3" fill="hsl(20, 90%, 50%)" />
<rect x="37" y="28" width="3" height="3" fill="hsl(20, 90%, 50%)" />
<rect x="34" y="31" width="3" height="3" fill="hsl(20, 90%, 50%)" />
<rect x="37" y="31" width="3" height="3" fill="hsl(20, 90%, 50%)" />
<rect x="73" y="31" width="3" height="3" fill="hsl(20, 90%, 50%)" />
<rect x="76" y="31" width="3" height="3" fill="hsl(20, 90%, 50%)" />
<rect x="112" y="31" width="3" height="3" fill="hsl(20, 90%, 50%)" />
<rect x="73" y="34" width="3" height="3" fill="hsl(20, 90%, 50%)" />
<rect x="76" y="34" width="3" height="3" fill="hsl(20, 90%, 50%)" />
<rect x="106" y="34" width="3" height="3" fill="hsl(20, 90%, 50%)" />
<rect x="109" y="34" width="3" height="3" fill="hsl(20, 90%, 50%)" />
<rect x="112" y="34" width="3" height="3" fill="hsl(20, 90%, 50%)" />
<rect x="106" y="37" width="3" height="3" fill="hsl(20, 90%, 50%)" />
<rect x="106" y="40" width="3" height="3" fill="hsl(20, 90%, 50%)" />
<rect x="82" y="46" width="3" height="3" fill="hsl(20, 90%, 50%)" />
<rect x="82" y="49" width="3" height="3" fill="hsl(20, 90%, 50%)" />
<rect x="85" y="49" width="3" height="3" fill="hsl(20, 90%, 50%)" />
<rect x="31" y="52" width="3" height="3" fill="hsl(20, 90%, 50%)" />
<rect x="79" y="52" width="3" height="3" fill="hsl(20, 90%, 50%)" />
<rect x="85" y="52" width="3" height="3" fill="hsl(20, 90%, 50%)" />
<rect x="31" y="55" width="3" height="3" fill="hsl(20, 90%, 50%)" />
<rect x="37" y="55" width="3" height="3" fill="hsl(20, 90%, 50%)" />
<rect x="31" y="58" width="3" height="3" fill="hsl(20, 90%, 50%)" />
<rect x="34" y="58" width="3" height="3" fill="hsl(20, 90%, 50%)" />
<rect x="37" y="58" width="3" height="3" fill="hsl(20, 90%, 50%)" />
<rect x="37" y="61" width="3" height="3" fill="hsl(20, 90%, 50%)" />
<rect x="109" y="61" width="3" height="3" fill="hsl(20, 90%, 50%)" />
<rect x="112" y="61" width="3" height="3" fill="hsl(20, 90%, 50%)" />
<rect x="112" y="64" width="3" height="3" fill="hsl(20, 90%, 50%)" />
<rect x="103" y="67" width="3" height="3" fill="hsl(20, 90%, 50%)" />
<rect x="106" y="67" width="3" height="3" fill="hsl(20, 90%, 50%)" />
<rect x="109" y="67" width="3" height="3" fill="hsl(20, 90%, 50%)" />
<rect x="103" y="70" width="3" height="3" fill="hsl(20, 90%, 50%)" />
<rect x="10" y="76" width="3" height="3" fill="hsl(20, 90%, 50%)" />
<rect x="13" y="76" width="3" height="3" fill="hsl(20, 90%, 50%)" />
<rect x="13" y="79" width="3" height="3" fill="hsl(20, 90%, 50%)" />
<rect x="4" y="82" width="3" height="3" fill="hsl(20, 90%, 50%)" />
<rect x="7" y="82" width="3" height="3" fill="hsl(20, 90%, 50%)" />
<rect x="10" y="82" width="3" height="3" fill="hsl(20, 90%, 50%)" />
<rect x="73" y="82" width="3" height="3" fill="hsl(20, 90%, 50%)" />
<rect x="76" y="82" width="3" height="3" fill="hsl(20, 90%, 50%)" />
<rect x="4" y="85" width="3" height="3" fill="hsl(20, 90%, 50%)" />
<rect x="73" y="85" width="3" height="3" fill="hsl(20, 90%, 50%)" />
<rect x="76" y="88" width="3" height="3" fill="hsl(20, 90%, 50%)" />
<rect x="79" y="88" width="3" height="3" fill="hsl(20, 90%, 50%)" />
<rect x="82" y="88" width="3" height="3" fill="hsl(20, 90%, 50%)" />
<rect x="82" y="91" width="3" height="3" fill="hsl(20, 90%, 50%)" />
</svg>