<?xml version="1.0" encoding="utf-8"?>
<svg xmlns="http://www.w3.org/2000/svg" width="98" height="128" viewBox="0 0 98 128">
<rect width="100%" height="100%" fill="transparent" />
<rect x="4" y="4" width="3" height="3" fill="hsl(20, 90%, 50%)" />
<rect x="7" y="4" width="3" height="3" fill="hsl(20, 90%, 50%)" />
<rect x="10" y="4" width="3" height="3" fill="hsl(20, 90%, 50%)" />
<rect x="13" y="4" width="3" height="3" fill="hsl(20, 90%, 50%)" />
<rect x="31" y="4" width="3" height="3" fill="hsl(20, 90%, 50%)" />
<rect x="40" y="4" width="3" height="3" fill="hsl(20, 90%, 50%)" />
<rect x="4" y="7" width="3" height="3" fill="hsl(20, 90%, 50%)" />
<rect x="16" y="7" width="3" height="3" fill="hsl(20, 90%, 50%)" />
<rect x="28" y="7" width="3" height="3" fill="hsl(20, 90%, 50%)" />
<rect x="4" y="10" width="3" height="3" fill="hsl(20, 90%, 50%)" />
<rect x="28" y="10" width="3" height="3" fill="hsl(20, 90%, 50%)" />
<rect x="40" y="10" width="3" height="3" fill="hsl(20, 90%, 50%)" />
<rect x="7" y="13" width="3" height="3" fill="hsl(20, 90%, 50%)" />
<rect x="16" y="13" width="3" height="3" fill="hsl(20, 90%, 50%)" />
<rect x="28" y="13" width="3" height="3" fill="hsl(20, 90%, 50%)" />
<rect x="31" y="13" width="3" height="3" fill="hsl(20, 90%, 50%)" />
<rect x="34" y="13" width="3" height="3" fill="hsl(20, 90%, 50%)" />
<rect x="37" y="13" width="3" height="3" fill="hsl(20, 90%, 50%)" />
<rect x="19" y="19" width="3" height="3" fill="hsl(20, 90%, 50%)" />
<rect x="22" y="19" width="3" height="3" fill="hsl(20, 90%, 50%)" />
<rect x="19" y="22" width="3" height="3" fill="hsl(20, 90%, 50%)" />
<rect x="22" y="22" width="3" height="3" fill="hsl(20, 90%, 50%)" />
<rect x="19" y="25" width="3" height="3" fill="hsl(20, 90%, 50%)" />
<rect x="22" y="25" width="3" height="3" fill="hsl(20, 90%, 50%)" />
<rect x="7" y="31" width="3" height="3" fill="hsl(20, 90%, 50%)" />
<rect x="16" y="31" width="3" height="3" fill="hsl(20, 90%, 50%)" />
<rect x="28" y="31" width="3" height="3" fill="hsl(20, 90%, 50%)" />
<rect x="31" y="31" width="3" height="3" fill="hsl(20, 90%, 50%)" />
<rect x="34" y="31" width="3" height="3" fill="hsl(20, 90%, 50%)" />
<rect x="37" y="31" width="3" height="3" fill="hsl(20, 90%, 50%)" />
<rect x="4" y="34" width="3" height="3" fill="hsl(20, 90%, 50%)" />
<rect x="28" y="34" width="3" height="3" fill="hsl(20, 90%, 50%)" />
<rect x="40" y="34" width="3" height="3" fill="hsl(20, 90%, 50%)" />
<rect x="4" y="37" width="3" height="3" fill="hsl(20, 90%, 50%)" />
<rect x="16" y="37" width="3" height="3" fill="hsl(20, 90%, 50%)" />
<rect x="28" y="37" width="3" height="3" fill="hsl(20, 90%, 50%)" />
<rect x="4" y="40" width="3" height="3" fill="hsl(20, 90%, 50%)" />
<rect x="7" y="40" width="3" height="3" fill="hsl(20, 90%, 50%)" />
<rect x="10" y="40" width="3" height="3" fill="hsl(20, 90%, 50%)" />
<rect x="13" y="40" width="3" height="3" fill="hsl(20, 90%, 50%)" />
<rect x="31" y="40" width="3" height="3" fill="hsl(20, 90%, 50%)" />
<rect x="40" y="40" width="3" height="3" fill="hsl(20, 90%, 50%)" />
<rect x="31" y="43" width="3" height="3" fill="hsl(20, 90%, 50%)" />
<rect x="37" y="43" width="3" height="3" fill="hsl(20, 90%, 50%)" />
<rect x="28" y="46" width="3" height="3" fill="hsl(20, 90%, 50%)" />
<rect x="37" y="46" width="3" height="3" fill="hsl(20, 90%, 50%)" />
<rect x="25" y="49" width="3" height="3" fill="hsl(20, 90%, 50%)" />
<rect x="28" y="49" width="3" height="3" fill="hsl(20, 90%, 50%)" />
<rect x="22" y="52" width="3" height="3" fill="hsl(20, 90%, 50%)" />
<rect x="34" y="52" width="3" height="3" fill="hsl(20, 90%, 50%)" />
<rect x="19" y="55" width="3" height="3" fill="hsl(20, 90%, 50%)" />
<rect x="22" y="55" width="3" height="3" fill="hsl(20, 90%, 50%)" />
<rect x="25" y="55" width="3" height="3" fill="hsl(20, 90%, 50%)" />
<rect x="31" y="55" width="3" height="3" fill="hsl(20, 90%, 50%)" />
<rect x="10" y="58" width="3" height="3" fill="hsl(20, 90%, 50%)" />
<rect x="13" y="58" width="3" height="3" fill="hsl(20, 90%, 50%)" />
<rect x="7" y="61" width="3" height="3" fill="hsl(20, 90%, 50%)" />
<rect x="19" y="61" width="3" height="3" fill="hsl(20, 90%, 50%)" />
<rect x="22" y="61" width="3" height="3" fill="hsl(20, 90%, 50%)" />
<rect x="25" y="61" width="3" height="3" fill="hsl(20, 90%, 50%)" />
<rect x="28" y="61" width="3" height="3" fill="hsl(20, 90%, 50%)" />
<rect x="31" y="61" width="3" height="3" fill="hsl(20, 90%, 50%)" />
<rect x="55" y="61" width="3" height="3" fill="hsl(20, 90%, 50%)" />
<rect x="58" y="61" width="3" height="3" fill="hsl(20, 90%, 50%)" />
<rect x="61" y="61" width="3" height="3" fill="hsl(20, 90%, 50%)" />
<rect x="64" y="61" width="3" height="3" fill="hsl(20, 90%, 50%)" />
<rect x="82" y="61" width="3" height="3" fill="hsl(20, 90%, 50%)" />
<rect x="91" y="61" width="3" height="3" fill="hsl(20, 90%, 50%)" />
<rect x="4" y="64" width="3" height="3" fill="hsl(20, 90%, 50%)" />
<rect x="16" y="64" width="3" height="3" fill="hsl(20, 90%, 50%)" />
<rect x="55" y="64" width="3" height="3" fill="hsl(20, 90%, 50%)" />
<rect x="67" y="64" width="3" height="3" fill="hsl(20, 90%, 50%)" />
<rect x="79" y="64" width="3" height="3" fill="hsl(20, 90%, 50%)" />
<rect x="4" y="67" width="3" height="3" fill="hsl(20, 90%, 50%)" />
<rect x="22" y="67" width="3" height="3" fill="hsl(20, 90%, 50%)" />
<rect x="25" y="67" width="3" height="3" fill="hsl(20, 90%, 50%)" />
<rect x="55" y="67" width="3" height="3" fill="hsl(20, 90%, 50%)" />
<rect x="79" y="67" width="3" height="3" fill="hsl(20, 90%, 50%)" />
<rect x="91" y="67" width="3" height="3" fill="hsl(20, 90%, 50%)" />
<rect x="4" y="70" width="3" height="3" fill="hsl(20, 90%, 50%)" />
<rect x="7" y="70" width="3" height="3" fill="hsl(20, 90%, 50%)" />
<rect x="10" y="70" width="3" height="3" fill="hsl(20, 90%, 50%)" />
<rect x="22" y="70" width="3" height="3" fill="hsl(20, 90%, 50%)" />
<rect x="25" y="70" width="3" height="3" fill="hsl(20, 90%, 50%)" />
<rect x="28" y="70" width="3" height="3" fill="hsl(20, 90%, 50%)" />
<rect x="31" y="70" width="3" height="3" fill="hsl(20, 90%, 50%)" />
<rect x="58" y="70" width="3" height="3" fill="hsl(20, 90%, 50%)" />
<rect x="67" y="70" width="3" height="3" fill="hsl(20, 90%, 50%)" />
<rect x="79" y="70" width="3" height="3" fill="hsl(20, 90%, 50%)" />
<rect x="82" y="70" width="3" height="3" fill="hsl(20, 90%, 50%)" />
<rect x="85" y="70" width="3" height="3" fill="hsl(20, 90%, 50%)" />
<rect x="88" y="70" width="3" height="3" fill="hsl(20, 90%, 50%)" />
<rect x="7" y="73" width="3" height="3" fill="hsl(20, 90%, 50%)" />
<rect x="31" y="73" width="3" height="3" fill="hsl(20, 90%, 50%)" />
<rect x="7" y="76" width="3" height="3" fill="hsl(20, 90%, 50%)" />
<rect x="10" y="76" width="3" height="3" fill="hsl(20, 90%, 50%)" />
<rect x="70" y="76" width="3" height="3" fill="hsl(20, 90%, 50%)" />
<rect x="73" y="76" width="3" height="3" fill="hsl(20, 90%, 50%)" />
<rect x="7" y="79" width="3" height="3" fill="hsl(20, 90%, 50%)" />
<rect x="13" y="79" width="3" height="3" fill="hsl(20, 90%, 50%)" />
<rect x="70" y="79" width="3" height="3" fill="hsl(20, 90%, 50%)" />
<rect x="73" y="79" width="3" height="3" fill="hsl(20, 90%, 50%)" />
<rect x="7" y="82" width="3" height="3" fill="hsl(20, 90%, 50%)" />
<rect x="10" y="82" width="3" height="3" fill="hsl(20, 90%, 50%)" />
<rect x="19" y="82" width="3" height="3" fill="hsl(20, 90%, 50%)" />
<rect x="22" y="82" width="3" height="3" fill="hsl(20, 90%, 50%)" />
<rect x="28" y="82" width="3" height="3" fill="hsl(20, 90%, 50%)" />
<rect x="55" y="82" width="3" height="3" fill="hsl(20, 90%, 50%)" />
<rect x="61" y="82" width="3" height="3" fill="hsl(20, 90%, 50%)" />
<rect x="70" y="82" width="3" height="3" fill="hsl(20, 90%, 50%)" />
<rect x="73" y="82" width="3" height="3" fill="hsl(20, 90%, 50%)" />
<rect x="10" y="85" width="3" height="3" fill="hsl(20, 90%, 50%)" />
<rect x="16" y="85" width="3" height="3" fill="hsl(20, 90%, 50%)" />
<rect x="19" y="85" width="3" height="3" fill="hsl(20, 90%, 50%)" />
<rect x="22" y="85" width="3" height="3" fill="hsl(20, 90%, 50%)" />
<rect x="28" y="85" width="3" height="3" fill="hsl(20, 90%, 50%)" />
<rect x="40" y="85" width="3" height="3" fill="hsl(20, 90%, 50%)" />
<rect x="46" y="85" width="3" height="3" fill="hsl(20, 90%, 50%)" />
<rect x="49" y="85" width="3" height="3" fill="hsl(20, 90%, 50%)" />
<rect x="52" y="85" width="3" height="3" fill="hsl(20, 90%, 50%)" />
<rect x="55" y="85" width="3" height="3" fill="hsl(20, 90%, 50%)" />
<rect x="61" y="85" width="3" height="3" fill="hsl(20, 90%, 50%)" />
<rect x="70" y="85" width="3" height="3" fill="hsl(20, 90%, 50%)" />
<rect x="73" y="85" width="3" height="3" fill="hsl(20, 90%, 50%)" />
<rect x="31" y="88" width="3" height="3" fill="hsl(20, 90%, 50%)" />
<rect x="34" y="88" width="3" height="3" fill="hsl(20, 90%, 50%)" />
<rect x="40" y="88" width="3" height="3" fill="hsl(20, 90%, 50%)" />
<rect x="46" y="88" width="3" height="3" fill="hsl(20, 90%, 50%)" />
<rect x="49" y="88" width="3" height="3" fill="hsl(20, 90%, 50%)" />
<rect x="58" y="88" width="3" height="3" fill="hsl(20, 90%, 50%)" />
<rect x="70" y="88" width="3" height="3" fill="hsl(20, 90%, 50%)" />
<rect x="73" y="88" width="3" height="3" fill="hsl(20, 90%, 50%)" />
<rect x="85" y="88" width="3" height="3" fill="hsl(20, 90%, 50%)" />
<rect x="88" y="88" width="3" height="3" fill="hsl(20, 90%, 50%)" />
<rect x="91" y="88" width="3" height="3" fill="hsl(20, 90%, 50%)" />
<rect x="16" y="91" width="3" height="3" fill="hsl(20, 90%, 50%)" />
<rect x="19" y="91" width="3" height="3" fill="hsl(20, 90%, 50%)" />
<rect x="22" y="91" width="3" height="3" fill="hsl(20, 90%, 50%)" />
<rect x="25" y="91" width="3" height="3" fill="hsl(20, 90%, 50%)" />
<rect x="28" y="91" width="3" height="3" fill="hsl(20, 90%, 50%)" />
<rect x="31" y="91" width="3" height="3" fill="hsl(20, 90%, 50%)" />
<rect x="37" y="91" width="3" height="3" fill="hsl(20, 90%, 50%)" />
<rect x="40" y="91" width="3" height="3" fill="hsl(20, 90%, 50%)" />
<rect x="52" y="91" width="3" height="3" fill="hsl(20, 90%, 50%)" />
<rect x="55" y="91" width="3" height="3" fill="hsl(20, 90%, 50%)" />
<rect x="58" y="91" width="3" height="3" fill="hsl(20, 90%, 50%)" />
<rect x="61" y="91" width="3" height="3" fill="hsl(20, 90%, 50%)" />
<rect x="70" y="91" width="3" height="3" fill="hsl(20, 90%, 50%)" />
<rect x="73" y="91" width="3" height="3" fill="hsl(20, 90%, 50%)" />
<rect x="85" y="91" width="3" height="3" fill="hsl(20, 90%, 50%)" />
<rect x="88" y="91" width="3" height="3" fill="hsl(20, 90%, 50%)" />
<rect x="91" y="91" width="3" height="3" fill="hsl(20, 90%, 50%)" />
<rect x="19" y="94" width="3" height="3" fill="hsl(20, 90%, 50%)" />
<rect x="34" y="94" width="3" height="3" fill="hsl(20, 90%, 50%)" />
<rect x="37" y="94" width="3" height="3" fill="hsl(20, 90%, 50%)" />
<rect x="40" y="94" width="3" height="3" fill="hsl(20, 90%, 50%)" />
<rect x="61" y="94" width="3" height="3" fill="hsl(20, 90%, 50%)" />
<rect x="70" y="94" width="3" height="3" fill="hsl(20, 90%, 50%)" />
<rect x="73" y="94" width="3" height="3" fill="hsl(20, 90%, 50%)" />
<rect x="85" y="94" width="3" height="3" fill="hsl(20, 90%, 50%)" />
<rect x="88" y="94" width="3" height="3" fill="hsl(20, 90%, 50%)" />
<rect x="91" y="94" width="3" height="3" fill="hsl(20, 90%, 50%)" />
<rect x="22" y="97" width="3" height="3" fill="hsl(20, 90%, 50%)" />
<rect x="25" y="97" width="3" height="3" fill="hsl(20, 90%, 50%)" />
<rect x="43" y="97" width="3" height="3" fill="hsl(20, 90%, 50%)" />
<rect x="46" y="97" width="3" height="3" fill="hsl(20, 90%, 50%)" />
<rect x="55" y="97" width="3" height="3" fill="hsl(20, 90%, 50%)" />
<rect x="58" y="97" width="3" height="3" fill="hsl(20, 90%, 50%)" />
<rect x="70" y="97" width="3" height="3" fill="hsl(20, 90%, 50%)" />
<rect x="73" y="97" width="3" height="3" fill="hsl(20, 90%, 50%)" />
<rect x="25" y="100" width="3" height="3" fill="hsl(20, 90%, 50%)" />
<rect x="34" y="100" width="3" height="3" fill="hsl(20, 90%, 50%)" />
<rect x="52" y="100" width="3" height="3" fill="hsl(20, 90%, 50%)" />
<rect x="55" y="100" width="3" height="3" fill="hsl(20, 90%, 50%)" />
<rect x="58" y="100" width="3" height="3" fill="hsl(20, 90%, 50%)" />
<rect x="61" y="100" width="3" height="3" fill="hsl(20, 90%, 50%)" />
<rect x="70" y="100" width="3" height="3" fill="hsl(20, 90%, 50%)" />
<rect x="73" y="100" width="3" height="3" fill="hsl(20, 90%, 50%)" />
<rect x="28" y="103" width="3" height="3" fill="hsl(20, 90%, 50%)" />
<rect x="34" y="103" width="3" height="3" fill="hsl(20, 90%, 50%)" />
<rect x="40" y="103" width="3" height="3" fill="hsl(20, 90%, 50%)" />
<rect x="43" y="103" width="3" height="3" fill="hsl(20, 90%, 50%)" />
<rect x="61" y="103" width="3" height="3" fill="hsl(20, 90%, 50%)" />
<rect x="70" y="103" width="3" height="3" fill="hsl(20, 90%, 50%)" />
<rect x="73" y="103" width="3" height="3" fill="hsl(20, 90%, 50%)" />
<rect x="70" y="106" width="3" height="3" fill="hsl(20, 90%, 50%)" />
<rect x="73" y="106" width="3" height="3" fill="hsl(20, 90%, 50%)" />
<rect x="58" y="112" width="3" height="3" fill="hsl(20, 90%, 50%)" />
<rect x="67" y="112" width="3" height="3" fill="hsl(20, 90%, 50%)" />
<rect x="79" y="112" width="3" height="3" fill="hsl(20, 90%, 50%)" />
<rect x="82" y="112" width="3" height="3" fill="hsl(20, 90%, 50%)" />
<rect x="85" y="112" width="3" height="3" fill="hsl(20, 90%, 50%)" />
<rect x="88" y="112" width="3" height="3" fill="hsl(20, 90%, 50%)" />
<rect x="55" y="115" width="3" height="3" fill="hsl(20, 90%, 50%)" />
<rect x="79" y="115" width="3" height="3" fill="hsl(20, 90%, 50%)" />
<rect x="91" y="115" width="3" height="3" fill="hsl(20, 90%, 50%)" />
<rect x="55" y="118" width="3" height="3" fill="hsl(20, 90%, 50%)" />
<rect x="67" y="118" width="3" height="3" fill="hsl(20, 90%, 50%)" />
<rect x="79" y="118" width="3" height="3" fill="hsl(20, 90%, 50%)" />
<rect x="55" y="121" width="3" height="3" fill="hsl(20, 90%, 50%)" />
<rect x="58" y="121" width="3" height="3" fill="hsl(20, 90%, 50%)" />
<rect x="61" y="121" width="3" height="3" fill="hsl(20, 90%, 50%)" />
<rect x="64" y="121" width="3" height="3" fill="hsl(20, 90%, 50%)" />
<rect x="82" y="121" width="3" height="3" fill="hsl(20, 90%, 50%)" />
<rect x="91" y="121" width="3" height="3" fill="hsl(20, 90%, 50%)" />
</svg>