<?xml version="1.0" encoding="utf-8"?>
<svg xmlns="http://www.w3.org/2000/svg" width="76" height="112" viewBox="0 0 76 112">
<rect width="100%" height="100%" fill="transparent" />
<rect x="8" y="4" width="4" height="4" fill="hsl(20, 90%, 50%)" />
<rect x="12" y="8" width="4" height="4" fill="hsl(20, 90%, 50%)" />
<rect x="4" y="12" width="4" height="4" fill="hsl(20, 90%, 50%)" />
<rect x="8" y="12" width="4" height="4" fill="hsl(20, 90%, 50%)" />
<rect x="12" y="12" width="4" height="4" fill="hsl(20, 90%, 50%)" />
<rect x="52" y="20" width="4" height="4" fill="hsl(20, 90%, 50%)" />
<rect x="56" y="20" width="4" height="4" fill="hsl(20, 90%, 50%)" />
<rect x="60" y="20" width="4" height="4" fill="hsl(20, 90%, 50%)" />
<rect x="64" y="20" width="4" height="4" fill="hsl(20, 90%, 50%)" />
<rect x="52" y="24" width="4" height="4" fill="hsl(20, 90%, 50%)" />
<rect x="68" y="24" width="4" height="4" fill="hsl(20, 90%, 50%)" />
<rect x="52" y="28" width="4" height="4" fill="hsl(20, 90%, 50%)" />
<rect x="56" y="32" width="4" height="4" fill="hsl(20, 90%, 50%)" />
<rect x="68" y="32" width="4" height="4" fill="hsl(20, 90%, 50%)" />
<rect x="44" y="40" width="4" height="4" fill="hsl(20, 90%, 50%)" />
<rect x="48" y="40" width="4" height="4" fill="hsl(20, 90%, 50%)" />
<rect x="40" y="44" width="4" height="4" fill="hsl(20, 90%, 50%)" />
<rect x="52" y="44" width="4" height="4" fill="hsl(20, 90%, 50%)" />
<rect x="40" y="48" width="4" height="4" fill="hsl(20, 90%, 50%)" />
<rect x="52" y="48" width="4" height="4" fill="hsl(20, 90%, 50%)" />
<rect x="44" y="52" width="4" height="4" fill="hsl(20, 90%, 50%)" />
<rect x="48" y="52" width="4" height="4" fill="hsl(20, 90%, 50%)" />
<rect x="40" y="64" width="4" height="4" fill="hsl(20, 90%, 50%)" />
<rect x="44" y="64" width="4" height="4" fill="hsl(20, 90%, 50%)" />
<rect x="40" y="68" width="4" height="4" fill="hsl(20, 90%, 50%)" />
<rect x="44" y="68" width="4" height="4" fill="hsl(20, 90%, 50%)" />
<rect x="12" y="72" width="4" height="4" fill="hsl(20, 90%, 50%)" />
<rect x="16" y="72" width="4" height="4" fill="hsl(20, 90%, 50%)" />
<rect x="4" y="76" width="4" height="4" fill="hsl(20, 90%, 50%)" />
<rect x="24" y="76" width="4" height="4" fill="hsl(20, 90%, 50%)" />
<rect x="52" y="76" width="4" height="4" fill="hsl(20, 90%, 50%)" />
<rect x="56" y="76" width="4" height="4" fill="hsl(20, 90%, 50%)" />
<rect x="28" y="80" width="4" height="4" fill="hsl(20, 90%, 50%)" />
<rect x="48" y="80" width="4" height="4" fill="hsl(20, 90%, 50%)" />
<rect x="60" y="80" width="4" height="4" fill="hsl(20, 90%, 50%)" />
<rect x="4" y="84" width="4" height="4" fill="hsl(20, 90%, 50%)" />
<rect x="28" y="84" width="4" height="4" fill="hsl(20, 90%, 50%)" />
<rect x="48" y="84" width="4" height="4" fill="hsl(20, 90%, 50%)" />
<rect x="60" y="84" width="4" height="4" fill="hsl(20, 90%, 50%)" />
<rect x="8" y="88" width="4" height="4" fill="hsl(20, 90%, 50%)" />
<rect x="12" y="88" width="4" height="4" fill="hsl(20, 90%, 50%)" />
<rect x="16" y="88" width="4" height="4" fill="hsl(20, 90%, 50%)" />
<rect x="20" y="88" width="4" height="4" fill="hsl(20, 90%, 50%)" />
<rect x="24" y="88" width="4" height="4" fill="hsl(20, 90%, 50%)" />
<rect x="28" y="88" width="4" height="4" fill="hsl(20, 90%, 50%)" />
<rect x="52" y="88" width="4" height="4" fill="hsl(20, 90%, 50%)" />
<rect x="56" y="88" width="4" height="4" fill="hsl(20, 90%, 50%)" />
<rect x="48" y="100" width="4" height="4" fill="hsl(20, 90%, 50%)" />
<rect x="52" y="100" width="4" height="4" fill="hsl(20, 90%, 50%)" />
<rect x="48" y="104" width="4" height="4" fill="hsl(20, 90%, 50%)" />
<rect x="52" y="104" width="4" height="4" fill="hsl(20, 90%, 50%)" />
</svg>