<?xml version="1.0" encoding="utf-8"?>
<svg xmlns="http://www.w3.org/2000/svg" width="116" height="65" viewBox="0 0 116 65">
<rect width="100%" height="100%" fill="transparent" />
<rect x="31" y="4" width="3" height="3" fill="hsl(20, 90%, 50%)" />
<rect x="28" y="7" width="3" height="3" fill="hsl(20, 90%, 50%)" />
<rect x="34" y="7" width="3" height="3" fill="hsl(20, 90%, 50%)" />
<rect x="22" y="10" width="3" height="3" fill="hsl(20, 90%, 50%)" />
<rect x="25" y="10" width="3" height="3" fill="hsl(20, 90%, 50%)" />
<rect x="28" y="10" width="3" height="3" fill="hsl(20, 90%, 50%)" />
<rect x="34" y="10" width="3" height="3" fill="hsl(20, 90%, 50%)" />
<rect x="19" y="13" width="3" height="3" fill="hsl(20, 90%, 50%)" />
<rect x="34" y="13" width="3" height="3" fill="hsl(20, 90%, 50%)" />
<rect x="37" y="13" width="3" height="3" fill="hsl(20, 90%, 50%)" />
<rect x="43" y="13" width="3" height="3" fill="hsl(20, 90%, 50%)" />
<rect x="19" y="16" width="3" height="3" fill="hsl(20, 90%, 50%)" />
<rect x="25" y="16" width="3" height="3" fill="hsl(20, 90%, 50%)" />
<rect x="28" y="16" width="3" height="3" fill="hsl(20, 90%, 50%)" />
<rect x="40" y="16" width="3" height="3" fill="hsl(20, 90%, 50%)" />
<rect x="43" y="16" width="3" height="3" fill="hsl(20, 90%, 50%)" />
<rect x="64" y="16" width="3" height="3" fill="hsl(20, 90%, 50%)" />
<rect x="67" y="16" width="3" height="3" fill="hsl(20, 90%, 50%)" />
<rect x="16" y="19" width="3" height="3" fill="hsl(20, 90%, 50%)" />
<rect x="19" y="19" width="3" height="3" fill="hsl(20, 90%, 50%)" />
<rect x="25" y="19" width="3" height="3" fill="hsl(20, 90%, 50%)" />
<rect x="31" y="19" width="3" height="3" fill="hsl(20, 90%, 50%)" />
<rect x="34" y="19" width="3" height="3" fill="hsl(20, 90%, 50%)" />
<rect x="64" y="19" width="3" height="3" fill="hsl(20, 90%, 50%)" />
<rect x="70" y="19" width="3" height="3" fill="hsl(20, 90%, 50%)" />
<rect x="31" y="22" width="3" height="3" fill="hsl(20, 90%, 50%)" />
<rect x="37" y="22" width="3" height="3" fill="hsl(20, 90%, 50%)" />
<rect x="40" y="22" width="3" height="3" fill="hsl(20, 90%, 50%)" />
<rect x="43" y="22" width="3" height="3" fill="hsl(20, 90%, 50%)" />
<rect x="46" y="22" width="3" height="3" fill="hsl(20, 90%, 50%)" />
<rect x="49" y="22" width="3" height="3" fill="hsl(20, 90%, 50%)" />
<rect x="70" y="22" width="3" height="3" fill="hsl(20, 90%, 50%)" />
<rect x="79" y="22" width="3" height="3" fill="hsl(20, 90%, 50%)" />
<rect x="85" y="22" width="3" height="3" fill="hsl(20, 90%, 50%)" />
<rect x="88" y="22" width="3" height="3" fill="hsl(20, 90%, 50%)" />
<rect x="10" y="25" width="3" height="3" fill="hsl(20, 90%, 50%)" />
<rect x="16" y="25" width="3" height="3" fill="hsl(20, 90%, 50%)" />
<rect x="19" y="25" width="3" height="3" fill="hsl(20, 90%, 50%)" />
<rect x="25" y="25" width="3" height="3" fill="hsl(20, 90%, 50%)" />
<rect x="28" y="25" width="3" height="3" fill="hsl(20, 90%, 50%)" />
<rect x="34" y="25" width="3" height="3" fill="hsl(20, 90%, 50%)" />
<rect x="52" y="25" width="3" height="3" fill="hsl(20, 90%, 50%)" />
<rect x="67" y="25" width="3" height="3" fill="hsl(20, 90%, 50%)" />
<rect x="70" y="25" width="3" height="3" fill="hsl(20, 90%, 50%)" />
<rect x="76" y="25" width="3" height="3" fill="hsl(20, 90%, 50%)" />
<rect x="82" y="25" width="3" height="3" fill="hsl(20, 90%, 50%)" />
<rect x="85" y="25" width="3" height="3" fill="hsl(20, 90%, 50%)" />
<rect x="91" y="25" width="3" height="3" fill="hsl(20, 90%, 50%)" />
<rect x="19" y="28" width="3" height="3" fill="hsl(20, 90%, 50%)" />
<rect x="22" y="28" width="3" height="3" fill="hsl(20, 90%, 50%)" />
<rect x="40" y="28" width="3" height="3" fill="hsl(20, 90%, 50%)" />
<rect x="43" y="28" width="3" height="3" fill="hsl(20, 90%, 50%)" />
<rect x="46" y="28" width="3" height="3" fill="hsl(20, 90%, 50%)" />
<rect x="49" y="28" width="3" height="3" fill="hsl(20, 90%, 50%)" />
<rect x="76" y="28" width="3" height="3" fill="hsl(20, 90%, 50%)" />
<rect x="91" y="28" width="3" height="3" fill="hsl(20, 90%, 50%)" />
<rect x="4" y="31" width="3" height="3" fill="hsl(20, 90%, 50%)" />
<rect x="16" y="31" width="3" height="3" fill="hsl(20, 90%, 50%)" />
<rect x="22" y="31" width="3" height="3" fill="hsl(20, 90%, 50%)" />
<rect x="31" y="31" width="3" height="3" fill="hsl(20, 90%, 50%)" />
<rect x="43" y="31" width="3" height="3" fill="hsl(20, 90%, 50%)" />
<rect x="49" y="31" width="3" height="3" fill="hsl(20, 90%, 50%)" />
<rect x="64" y="31" width="3" height="3" fill="hsl(20, 90%, 50%)" />
<rect x="67" y="31" width="3" height="3" fill="hsl(20, 90%, 50%)" />
<rect x="73" y="31" width="3" height="3" fill="hsl(20, 90%, 50%)" />
<rect x="79" y="31" width="3" height="3" fill="hsl(20, 90%, 50%)" />
<rect x="82" y="31" width="3" height="3" fill="hsl(20, 90%, 50%)" />
<rect x="85" y="31" width="3" height="3" fill="hsl(20, 90%, 50%)" />
<rect x="88" y="31" width="3" height="3" fill="hsl(20, 90%, 50%)" />
<rect x="94" y="31" width="3" height="3" fill="hsl(20, 90%, 50%)" />
<rect x="97" y="31" width="3" height="3" fill="hsl(20, 90%, 50%)" />
<rect x="4" y="34" width="3" height="3" fill="hsl(20, 90%, 50%)" />
<rect x="16" y="34" width="3" height="3" fill="hsl(20, 90%, 50%)" />
<rect x="22" y="34" width="3" height="3" fill="hsl(20, 90%, 50%)" />
<rect x="31" y="34" width="3" height="3" fill="hsl(20, 90%, 50%)" />
<rect x="34" y="34" width="3" height="3" fill="hsl(20, 90%, 50%)" />
<rect x="40" y="34" width="3" height="3" fill="hsl(20, 90%, 50%)" />
<rect x="46" y="34" width="3" height="3" fill="hsl(20, 90%, 50%)" />
<rect x="49" y="34" width="3" height="3" fill="hsl(20, 90%, 50%)" />
<rect x="55" y="34" width="3" height="3" fill="hsl(20, 90%, 50%)" />
<rect x="58" y="34" width="3" height="3" fill="hsl(20, 90%, 50%)" />
<rect x="73" y="34" width="3" height="3" fill="hsl(20, 90%, 50%)" />
<rect x="79" y="34" width="3" height="3" fill="hsl(20, 90%, 50%)" />
<rect x="94" y="34" width="3" height="3" fill="hsl(20, 90%, 50%)" />
<rect x="100" y="34" width="3" height="3" fill="hsl(20, 90%, 50%)" />
<rect x="19" y="37" width="3" height="3" fill="hsl(20, 90%, 50%)" />
<rect x="22" y="37" width="3" height="3" fill="hsl(20, 90%, 50%)" />
<rect x="34" y="37" width="3" height="3" fill="hsl(20, 90%, 50%)" />
<rect x="37" y="37" width="3" height="3" fill="hsl(20, 90%, 50%)" />
<rect x="40" y="37" width="3" height="3" fill="hsl(20, 90%, 50%)" />
<rect x="46" y="37" width="3" height="3" fill="hsl(20, 90%, 50%)" />
<rect x="49" y="37" width="3" height="3" fill="hsl(20, 90%, 50%)" />
<rect x="55" y="37" width="3" height="3" fill="hsl(20, 90%, 50%)" />
<rect x="61" y="37" width="3" height="3" fill="hsl(20, 90%, 50%)" />
<rect x="64" y="37" width="3" height="3" fill="hsl(20, 90%, 50%)" />
<rect x="67" y="37" width="3" height="3" fill="hsl(20, 90%, 50%)" />
<rect x="73" y="37" width="3" height="3" fill="hsl(20, 90%, 50%)" />
<rect x="82" y="37" width="3" height="3" fill="hsl(20, 90%, 50%)" />
<rect x="85" y="37" width="3" height="3" fill="hsl(20, 90%, 50%)" />
<rect x="88" y="37" width="3" height="3" fill="hsl(20, 90%, 50%)" />
<rect x="100" y="37" width="3" height="3" fill="hsl(20, 90%, 50%)" />
<rect x="10" y="40" width="3" height="3" fill="hsl(20, 90%, 50%)" />
<rect x="16" y="40" width="3" height="3" fill="hsl(20, 90%, 50%)" />
<rect x="19" y="40" width="3" height="3" fill="hsl(20, 90%, 50%)" />
<rect x="25" y="40" width="3" height="3" fill="hsl(20, 90%, 50%)" />
<rect x="28" y="40" width="3" height="3" fill="hsl(20, 90%, 50%)" />
<rect x="34" y="40" width="3" height="3" fill="hsl(20, 90%, 50%)" />
<rect x="37" y="40" width="3" height="3" fill="hsl(20, 90%, 50%)" />
<rect x="79" y="40" width="3" height="3" fill="hsl(20, 90%, 50%)" />
<rect x="85" y="40" width="3" height="3" fill="hsl(20, 90%, 50%)" />
<rect x="94" y="40" width="3" height="3" fill="hsl(20, 90%, 50%)" />
<rect x="100" y="40" width="3" height="3" fill="hsl(20, 90%, 50%)" />
<rect x="106" y="40" width="3" height="3" fill="hsl(20, 90%, 50%)" />
<rect x="109" y="40" width="3" height="3" fill="hsl(20, 90%, 50%)" />
<rect x="37" y="43" width="3" height="3" fill="hsl(20, 90%, 50%)" />
<rect x="58" y="43" width="3" height="3" fill="hsl(20, 90%, 50%)" />
<rect x="64" y="43" width="3" height="3" fill="hsl(20, 90%, 50%)" />
<rect x="70" y="43" width="3" height="3" fill="hsl(20, 90%, 50%)" />
<rect x="76" y="43" width="3" height="3" fill="hsl(20, 90%, 50%)" />
<rect x="85" y="43" width="3" height="3" fill="hsl(20, 90%, 50%)" />
<rect x="88" y="43" width="3" height="3" fill="hsl(20, 90%, 50%)" />
<rect x="94" y="43" width="3" height="3" fill="hsl(20, 90%, 50%)" />
<rect x="100" y="43" width="3" height="3" fill="hsl(20, 90%, 50%)" />
<rect x="106" y="43" width="3" height="3" fill="hsl(20, 90%, 50%)" />
<rect x="16" y="46" width="3" height="3" fill="hsl(20, 90%, 50%)" />
<rect x="19" y="46" width="3" height="3" fill="hsl(20, 90%, 50%)" />
<rect x="25" y="46" width="3" height="3" fill="hsl(20, 90%, 50%)" />
<rect x="31" y="46" width="3" height="3" fill="hsl(20, 90%, 50%)" />
<rect x="37" y="46" width="3" height="3" fill="hsl(20, 90%, 50%)" />
<rect x="40" y="46" width="3" height="3" fill="hsl(20, 90%, 50%)" />
<rect x="61" y="46" width="3" height="3" fill="hsl(20, 90%, 50%)" />
<rect x="64" y="46" width="3" height="3" fill="hsl(20, 90%, 50%)" />
<rect x="70" y="46" width="3" height="3" fill="hsl(20, 90%, 50%)" />
<rect x="76" y="46" width="3" height="3" fill="hsl(20, 90%, 50%)" />
<rect x="82" y="46" width="3" height="3" fill="hsl(20, 90%, 50%)" />
<rect x="94" y="46" width="3" height="3" fill="hsl(20, 90%, 50%)" />
<rect x="100" y="46" width="3" height="3" fill="hsl(20, 90%, 50%)" />
<rect x="106" y="46" width="3" height="3" fill="hsl(20, 90%, 50%)" />
<rect x="19" y="49" width="3" height="3" fill="hsl(20, 90%, 50%)" />
<rect x="25" y="49" width="3" height="3" fill="hsl(20, 90%, 50%)" />
<rect x="28" y="49" width="3" height="3" fill="hsl(20, 90%, 50%)" />
<rect x="34" y="49" width="3" height="3" fill="hsl(20, 90%, 50%)" />
<rect x="43" y="49" width="3" height="3" fill="hsl(20, 90%, 50%)" />
<rect x="67" y="49" width="3" height="3" fill="hsl(20, 90%, 50%)" />
<rect x="73" y="49" width="3" height="3" fill="hsl(20, 90%, 50%)" />
<rect x="76" y="49" width="3" height="3" fill="hsl(20, 90%, 50%)" />
<rect x="85" y="49" width="3" height="3" fill="hsl(20, 90%, 50%)" />
<rect x="88" y="49" width="3" height="3" fill="hsl(20, 90%, 50%)" />
<rect x="91" y="49" width="3" height="3" fill="hsl(20, 90%, 50%)" />
<rect x="94" y="49" width="3" height="3" fill="hsl(20, 90%, 50%)" />
<rect x="100" y="49" width="3" height="3" fill="hsl(20, 90%, 50%)" />
<rect x="103" y="49" width="3" height="3" fill="hsl(20, 90%, 50%)" />
<rect x="19" y="52" width="3" height="3" fill="hsl(20, 90%, 50%)" />
<rect x="34" y="52" width="3" height="3" fill="hsl(20, 90%, 50%)" />
<rect x="40" y="52" width="3" height="3" fill="hsl(20, 90%, 50%)" />
<rect x="67" y="52" width="3" height="3" fill="hsl(20, 90%, 50%)" />
<rect x="79" y="52" width="3" height="3" fill="hsl(20, 90%, 50%)" />
<rect x="82" y="52" width="3" height="3" fill="hsl(20, 90%, 50%)" />
<rect x="16" y="55" width="3" height="3" fill="hsl(20, 90%, 50%)" />
<rect x="19" y="55" width="3" height="3" fill="hsl(20, 90%, 50%)" />
<rect x="34" y="55" width="3" height="3" fill="hsl(20, 90%, 50%)" />
<rect x="37" y="55" width="3" height="3" fill="hsl(20, 90%, 50%)" />
<rect x="64" y="55" width="3" height="3" fill="hsl(20, 90%, 50%)" />
<rect x="67" y="55" width="3" height="3" fill="hsl(20, 90%, 50%)" />
<rect x="79" y="55" width="3" height="3" fill="hsl(20, 90%, 50%)" />
<rect x="88" y="55" width="3" height="3" fill="hsl(20, 90%, 50%)" />
<rect x="85" y="58" width="3" height="3" fill="hsl(20, 90%, 50%)" />
<rect x="88" y="58" width="3" height="3" fill="hsl(20, 90%, 50%)" />
</svg>