<?xml version="1.0" encoding="utf-8"?>
<svg xmlns="http://www.w3.org/2000/svg" width="102" height="80" viewBox="0 0 102 80">
<rect width="100%" height="100%" fill="transparent" />
<rect x="36" y="4" width="2" height="2" fill="hsl(20, 90%, 50%)" />
<rect x="36" y="6" width="2" height="2" fill="hsl(20, 90%, 50%)" />
<rect x="38" y="6" width="2" height="2" fill="hsl(20, 90%, 50%)" />
<rect x="40" y="6" width="2" height="2" fill="hsl(20, 90%, 50%)" />
<rect x="52" y="6" width="2" height="2" fill="hsl(20, 90%, 50%)" />
<rect x="54" y="6" width="2" height="2" fill="hsl(20, 90%, 50%)" />
<rect x="42" y="8" width="2" height="2" fill="hsl(20, 90%, 50%)" />
<rect x="52" y="8" width="2" height="2" fill="hsl(20, 90%, 50%)" />
<rect x="54" y="8" width="2" height="2" fill="hsl(20, 90%, 50%)" />
<rect x="40" y="10" width="2" height="2" fill="hsl(20, 90%, 50%)" />
<rect x="42" y="10" width="2" height="2" fill="hsl(20, 90%, 50%)" />
<rect x="68" y="22" width="2" height="2" fill="hsl(20, 90%, 50%)" />
<rect x="70" y="22" width="2" height="2" fill="hsl(20, 90%, 50%)" />
<rect x="66" y="24" width="2" height="2" fill="hsl(20, 90%, 50%)" />
<rect x="70" y="24" width="2" height="2" fill="hsl(20, 90%, 50%)" />
<rect x="68" y="26" width="2" height="2" fill="hsl(20, 90%, 50%)" />
<rect x="18" y="32" width="2" height="2" fill="hsl(20, 90%, 50%)" />
<rect x="20" y="32" width="2" height="2" fill="hsl(20, 90%, 50%)" />
<rect x="20" y="34" width="2" height="2" fill="hsl(20, 90%, 50%)" />
<rect x="20" y="36" width="2" height="2" fill="hsl(20, 90%, 50%)" />
<rect x="24" y="36" width="2" height="2" fill="hsl(20, 90%, 50%)" />
<rect x="22" y="38" width="2" height="2" fill="hsl(20, 90%, 50%)" />
<rect x="24" y="38" width="2" height="2" fill="hsl(20, 90%, 50%)" />
<rect x="22" y="52" width="2" height="2" fill="hsl(20, 90%, 50%)" />
<rect x="94" y="52" width="2" height="2" fill="hsl(20, 90%, 50%)" />
<rect x="96" y="52" width="2" height="2" fill="hsl(20, 90%, 50%)" />
<rect x="22" y="54" width="2" height="2" fill="hsl(20, 90%, 50%)" />
<rect x="26" y="54" width="2" height="2" fill="hsl(20, 90%, 50%)" />
<rect x="94" y="54" width="2" height="2" fill="hsl(20, 90%, 50%)" />
<rect x="96" y="54" width="2" height="2" fill="hsl(20, 90%, 50%)" />
<rect x="22" y="56" width="2" height="2" fill="hsl(20, 90%, 50%)" />
<rect x="24" y="56" width="2" height="2" fill="hsl(20, 90%, 50%)" />
<rect x="26" y="56" width="2" height="2" fill="hsl(20, 90%, 50%)" />
<rect x="26" y="58" width="2" height="2" fill="hsl(20, 90%, 50%)" />
<rect x="56" y="64" width="2" height="2" fill="hsl(20, 90%, 50%)" />
<rect x="58" y="64" width="2" height="2" fill="hsl(20, 90%, 50%)" />
<rect x="56" y="66" width="2" height="2" fill="hsl(20, 90%, 50%)" />
<rect x="58" y="66" width="2" height="2" fill="hsl(20, 90%, 50%)" />
<rect x="8" y="68" width="2" height="2" fill="hsl(20, 90%, 50%)" />
<rect x="10" y="68" width="2" height="2" fill="hsl(20, 90%, 50%)" />
<rect x="10" y="70" width="2" height="2" fill="hsl(20, 90%, 50%)" />
<rect x="4" y="72" width="2" height="2" fill="hsl(20, 90%, 50%)" />
<rect x="6" y="72" width="2" height="2" fill="hsl(20, 90%, 50%)" />
<rect x="8" y="72" width="2" height="2" fill="hsl(20, 90%, 50%)" />
<rect x="28" y="72" width="2" height="2" fill="hsl(20, 90%, 50%)" />
<rect x="30" y="72" width="2" height="2" fill="hsl(20, 90%, 50%)" />
<rect x="4" y="74" width="2" height="2" fill="hsl(20, 90%, 50%)" />
<rect x="28" y="74" width="2" height="2" fill="hsl(20, 90%, 50%)" />
<rect x="30" y="74" width="2" height="2" fill="hsl(20, 90%, 50%)" />
</svg>