<?xml version="1.0" encoding="utf-8"?>
<svg xmlns="http://www.w3.org/2000/svg" width="120" height="56" viewBox="0 0 120 56">
<rect width="100%" height="100%" fill="transparent" />
<rect x="20" y="4" width="8" height="8" fill="hsl(20, 90%, 50%)" />
<rect x="28" y="4" width="8" height="8" fill="hsl(20, 90%, 50%)" />
<rect x="44" y="4" width="8" height="8" fill="hsl(20, 90%, 50%)" />
<rect x="68" y="4" width="8" height="8" fill="hsl(20, 90%, 50%)" />
<rect x="84" y="4" width="8" height="8" fill="hsl(20, 90%, 50%)" />
<rect x="92" y="4" width="8" height="8" fill="hsl(20, 90%, 50%)" />
<rect x="20" y="12" width="8" height="8" fill="hsl(20, 90%, 50%)" />
<rect x="92" y="12" width="8" height="8" fill="hsl(20, 90%, 50%)" />
<rect x="28" y="20" width="8" height="8" fill="hsl(20, 90%, 50%)" />
<rect x="36" y="20" width="8" height="8" fill="hsl(20, 90%, 50%)" />
<rect x="76" y="20" width="8" height="8" fill="hsl(20, 90%, 50%)" />
<rect x="84" y="20" width="8" height="8" fill="hsl(20, 90%, 50%)" />
<rect x="4" y="28" width="8" height="8" fill="hsl(20, 90%, 50%)" />
<rect x="12" y="28" width="8" height="8" fill="hsl(20, 90%, 50%)" />
<rect x="20" y="28" width="8" height="8" fill="hsl(20, 90%, 50%)" />
<rect x="44" y="28" width="8" height="8" fill="hsl(20, 90%, 50%)" />
<rect x="52" y="28" width="8" height="8" fill="hsl(20, 90%, 50%)" />
<rect x="60" y="28" width="8" height="8" fill="hsl(20, 90%, 50%)" />
<rect x="68" y="28" width="8" height="8" fill="hsl(20, 90%, 50%)" />
<rect x="92" y="28" width="8" height="8" fill="hsl(20, 90%, 50%)" />
<rect x="100" y="28" width="8" height="8" fill="hsl(20, 90%, 50%)" />
<rect x="108" y="28" width="8" height="8" fill="hsl(20, 90%, 50%)" />
<rect x="4" y="36" width="8" height="8" fill="hsl(20, 90%, 50%)" />
<rect x="28" y="36" width="8" height="8" fill="hsl(20, 90%, 50%)" />
<rect x="84" y="36" width="8" height="8" fill="hsl(20, 90%, 50%)" />
<rect x="108" y="36" width="8" height="8" fill="hsl(20, 90%, 50%)" />
<rect x="12" y="44" width="8" height="8" fill="hsl(20, 90%, 50%)" />
<rect x="20" y="44" width="8" height="8" fill="hsl(20, 90%, 50%)" />
<rect x="92" y="44" width="8" height="8" fill="hsl(20, 90%, 50%)" />
<rect x="100" y="44" width="8" height="8" fill="hsl(20, 90%, 50%)" />
</svg>