<?xml version="1.0" encoding="utf-8"?>
<svg xmlns="http://www.w3.org/2000/svg" width="128" height="128" viewBox="0 0 128 128">
<rect width="100%" height="100%" fill="transparent" />
<rect x="84" y="4" width="8" height="8" fill="hsl(20, 90%, 50%)" />
<rect x="100" y="4" width="8" height="8" fill="hsl(20, 90%, 50%)" />
<rect x="76" y="12" width="8" height="8" fill="hsl(20, 90%, 50%)" />
<rect x="84" y="20" width="8" height="8" fill="hsl(20, 90%, 50%)" />
<rect x="108" y="20" width="8" height="8" fill="hsl(20, 90%, 50%)" />
<rect x="100" y="28" width="8" height="8" fill="hsl(20, 90%, 50%)" />
<rect x="108" y="28" width="8" height="8" fill="hsl(20, 90%, 50%)" />
<rect x="116" y="28" width="8" height="8" fill="hsl(20, 90%, 50%)" />
<rect x="12" y="76" width="8" height="8" fill="hsl(20, 90%, 50%)" />
<rect x="4" y="84" width="8" height="8" fill="hsl(20, 90%, 50%)" />
<rect x="20" y="84" width="8" height="8" fill="hsl(20, 90%, 50%)" />
<rect x="4" y="100" width="8" height="8" fill="hsl(20, 90%, 50%)" />
<rect x="28" y="100" width="8" height="8" fill="hsl(20, 90%, 50%)" />
<rect x="20" y="108" width="8" height="8" fill="hsl(20, 90%, 50%)" />
<rect x="28" y="108" width="8" height="8" fill="hsl(20, 90%, 50%)" />
<rect x="28" y="116" width="8" height="8" fill="hsl(20, 90%, 50%)" />
</svg>