<?xml version="1.0" encoding="utf-8"?>
<svg xmlns="http://www.w3.org/2000/svg" width="101" height="104" viewBox="0 0 101 104">
<rect width="100%" height="100%" fill="transparent" />
<rect x="88" y="4" width="3" height="3" fill="hsl(20, 90%, 50%)" />
<rect x="88" y="7" width="3" height="3" fill="hsl(20, 90%, 50%)" />
<rect x="94" y="7" width="3" height="3" fill="hsl(20, 90%, 50%)" />
<rect x="88" y="10" width="3" height="3" fill="hsl(20, 90%, 50%)" />
<rect x="91" y="10" width="3" height="3" fill="hsl(20, 90%, 50%)" />
<rect x="55" y="37" width="3" height="3" fill="hsl(20, 90%, 50%)" />
<rect x="55" y="40" width="3" height="3" fill="hsl(20, 90%, 50%)" />
<rect x="61" y="40" width="3" height="3" fill="hsl(20, 90%, 50%)" />
<rect x="55" y="43" width="3" height="3" fill="hsl(20, 90%, 50%)" />
<rect x="58" y="43" width="3" height="3" fill="hsl(20, 90%, 50%)" />
<rect x="31" y="49" width="3" height="3" fill="hsl(20, 90%, 50%)" />
<rect x="34" y="49" width="3" height="3" fill="hsl(20, 90%, 50%)" />
<rect x="49" y="49" width="3" height="3" fill="hsl(20, 90%, 50%)" />
<rect x="52" y="49" width="3" height="3" fill="hsl(20, 90%, 50%)" />
<rect x="31" y="52" width="3" height="3" fill="hsl(20, 90%, 50%)" />
<rect x="34" y="52" width="3" height="3" fill="hsl(20, 90%, 50%)" />
<rect x="46" y="52" width="3" height="3" fill="hsl(20, 90%, 50%)" />
<rect x="55" y="52" width="3" height="3" fill="hsl(20, 90%, 50%)" />
<rect x="13" y="55" width="3" height="3" fill="hsl(20, 90%, 50%)" />
<rect x="16" y="55" width="3" height="3" fill="hsl(20, 90%, 50%)" />
<rect x="31" y="55" width="3" height="3" fill="hsl(20, 90%, 50%)" />
<rect x="34" y="55" width="3" height="3" fill="hsl(20, 90%, 50%)" />
<rect x="49" y="55" width="3" height="3" fill="hsl(20, 90%, 50%)" />
<rect x="55" y="55" width="3" height="3" fill="hsl(20, 90%, 50%)" />
<rect x="16" y="58" width="3" height="3" fill="hsl(20, 90%, 50%)" />
<rect x="34" y="58" width="3" height="3" fill="hsl(20, 90%, 50%)" />
<rect x="37" y="58" width="3" height="3" fill="hsl(20, 90%, 50%)" />
<rect x="52" y="58" width="3" height="3" fill="hsl(20, 90%, 50%)" />
<rect x="10" y="61" width="3" height="3" fill="hsl(20, 90%, 50%)" />
<rect x="28" y="61" width="3" height="3" fill="hsl(20, 90%, 50%)" />
<rect x="34" y="61" width="3" height="3" fill="hsl(20, 90%, 50%)" />
<rect x="37" y="61" width="3" height="3" fill="hsl(20, 90%, 50%)" />
<rect x="10" y="64" width="3" height="3" fill="hsl(20, 90%, 50%)" />
<rect x="13" y="64" width="3" height="3" fill="hsl(20, 90%, 50%)" />
<rect x="22" y="64" width="3" height="3" fill="hsl(20, 90%, 50%)" />
<rect x="25" y="64" width="3" height="3" fill="hsl(20, 90%, 50%)" />
<rect x="28" y="64" width="3" height="3" fill="hsl(20, 90%, 50%)" />
<rect x="64" y="64" width="3" height="3" fill="hsl(20, 90%, 50%)" />
<rect x="67" y="64" width="3" height="3" fill="hsl(20, 90%, 50%)" />
<rect x="19" y="67" width="3" height="3" fill="hsl(20, 90%, 50%)" />
<rect x="34" y="67" width="3" height="3" fill="hsl(20, 90%, 50%)" />
<rect x="40" y="67" width="3" height="3" fill="hsl(20, 90%, 50%)" />
<rect x="64" y="67" width="3" height="3" fill="hsl(20, 90%, 50%)" />
<rect x="10" y="70" width="3" height="3" fill="hsl(20, 90%, 50%)" />
<rect x="13" y="70" width="3" height="3" fill="hsl(20, 90%, 50%)" />
<rect x="16" y="70" width="3" height="3" fill="hsl(20, 90%, 50%)" />
<rect x="22" y="70" width="3" height="3" fill="hsl(20, 90%, 50%)" />
<rect x="25" y="70" width="3" height="3" fill="hsl(20, 90%, 50%)" />
<rect x="31" y="70" width="3" height="3" fill="hsl(20, 90%, 50%)" />
<rect x="34" y="70" width="3" height="3" fill="hsl(20, 90%, 50%)" />
<rect x="40" y="70" width="3" height="3" fill="hsl(20, 90%, 50%)" />
<rect x="43" y="70" width="3" height="3" fill="hsl(20, 90%, 50%)" />
<rect x="46" y="70" width="3" height="3" fill="hsl(20, 90%, 50%)" />
<rect x="67" y="70" width="3" height="3" fill="hsl(20, 90%, 50%)" />
<rect x="70" y="70" width="3" height="3" fill="hsl(20, 90%, 50%)" />
<rect x="73" y="70" width="3" height="3" fill="hsl(20, 90%, 50%)" />
<rect x="7" y="73" width="3" height="3" fill="hsl(20, 90%, 50%)" />
<rect x="22" y="73" width="3" height="3" fill="hsl(20, 90%, 50%)" />
<rect x="37" y="73" width="3" height="3" fill="hsl(20, 90%, 50%)" />
<rect x="49" y="73" width="3" height="3" fill="hsl(20, 90%, 50%)" />
<rect x="73" y="73" width="3" height="3" fill="hsl(20, 90%, 50%)" />
<rect x="4" y="76" width="3" height="3" fill="hsl(20, 90%, 50%)" />
<rect x="10" y="76" width="3" height="3" fill="hsl(20, 90%, 50%)" />
<rect x="16" y="76" width="3" height="3" fill="hsl(20, 90%, 50%)" />
<rect x="28" y="76" width="3" height="3" fill="hsl(20, 90%, 50%)" />
<rect x="31" y="76" width="3" height="3" fill="hsl(20, 90%, 50%)" />
<rect x="37" y="76" width="3" height="3" fill="hsl(20, 90%, 50%)" />
<rect x="46" y="76" width="3" height="3" fill="hsl(20, 90%, 50%)" />
<rect x="4" y="79" width="3" height="3" fill="hsl(20, 90%, 50%)" />
<rect x="10" y="79" width="3" height="3" fill="hsl(20, 90%, 50%)" />
<rect x="31" y="79" width="3" height="3" fill="hsl(20, 90%, 50%)" />
<rect x="37" y="79" width="3" height="3" fill="hsl(20, 90%, 50%)" />
<rect x="43" y="79" width="3" height="3" fill="hsl(20, 90%, 50%)" />
<rect x="7" y="82" width="3" height="3" fill="hsl(20, 90%, 50%)" />
<rect x="16" y="82" width="3" height="3" fill="hsl(20, 90%, 50%)" />
<rect x="19" y="82" width="3" height="3" fill="hsl(20, 90%, 50%)" />
<rect x="22" y="82" width="3" height="3" fill="hsl(20, 90%, 50%)" />
<rect x="25" y="82" width="3" height="3" fill="hsl(20, 90%, 50%)" />
<rect x="28" y="82" width="3" height="3" fill="hsl(20, 90%, 50%)" />
<rect x="37" y="82" width="3" height="3" fill="hsl(20, 90%, 50%)" />
<rect x="40" y="82" width="3" height="3" fill="hsl(20, 90%, 50%)" />
<rect x="10" y="85" width="3" height="3" fill="hsl(20, 90%, 50%)" />
<rect x="13" y="85" width="3" height="3" fill="hsl(20, 90%, 50%)" />
<rect x="28" y="85" width="3" height="3" fill="hsl(20, 90%, 50%)" />
<rect x="34" y="85" width="3" height="3" fill="hsl(20, 90%, 50%)" />
<rect x="16" y="88" width="3" height="3" fill="hsl(20, 90%, 50%)" />
<rect x="19" y="88" width="3" height="3" fill="hsl(20, 90%, 50%)" />
<rect x="22" y="88" width="3" height="3" fill="hsl(20, 90%, 50%)" />
<rect x="25" y="88" width="3" height="3" fill="hsl(20, 90%, 50%)" />
<rect x="34" y="88" width="3" height="3" fill="hsl(20, 90%, 50%)" />
<rect x="10" y="91" width="3" height="3" fill="hsl(20, 90%, 50%)" />
<rect x="13" y="91" width="3" height="3" fill="hsl(20, 90%, 50%)" />
<rect x="34" y="91" width="3" height="3" fill="hsl(20, 90%, 50%)" />
<rect x="37" y="91" width="3" height="3" fill="hsl(20, 90%, 50%)" />
<rect x="10" y="94" width="3" height="3" fill="hsl(20, 90%, 50%)" />
<rect x="19" y="94" width="3" height="3" fill="hsl(20, 90%, 50%)" />
<rect x="16" y="97" width="3" height="3" fill="hsl(20, 90%, 50%)" />
<rect x="19" y="97" width="3" height="3" fill="hsl(20, 90%, 50%)" />
</svg>