<?xml version="1.0" encoding="utf-8"?>
<svg xmlns="http://www.w3.org/2000/svg" width="100" height="88" viewBox="0 0 100 88">
<rect width="100%" height="100%" fill="transparent" />
<rect x="8" y="4" width="2" height="2" fill="hsl(20, 90%, 50%)" />
<rect x="58" y="4" width="2" height="2" fill="hsl(20, 90%, 50%)" />
<rect x="4" y="6" width="2" height="2" fill="hsl(20, 90%, 50%)" />
<rect x="8" y="6" width="2" height="2" fill="hsl(20, 90%, 50%)" />
<rect x="54" y="6" width="2" height="2" fill="hsl(20, 90%, 50%)" />
<rect x="58" y="6" width="2" height="2" fill="hsl(20, 90%, 50%)" />
<rect x="6" y="8" width="2" height="2" fill="hsl(20, 90%, 50%)" />
<rect x="8" y="8" width="2" height="2" fill="hsl(20, 90%, 50%)" />
<rect x="56" y="8" width="2" height="2" fill="hsl(20, 90%, 50%)" />
<rect x="58" y="8" width="2" height="2" fill="hsl(20, 90%, 50%)" />
<rect x="48" y="10" width="2" height="2" fill="hsl(20, 90%, 50%)" />
<rect x="44" y="12" width="2" height="2" fill="hsl(20, 90%, 50%)" />
<rect x="46" y="12" width="2" height="2" fill="hsl(20, 90%, 50%)" />
<rect x="48" y="12" width="2" height="2" fill="hsl(20, 90%, 50%)" />
<rect x="42" y="14" width="2" height="2" fill="hsl(20, 90%, 50%)" />
<rect x="42" y="16" width="2" height="2" fill="hsl(20, 90%, 50%)" />
<rect x="44" y="16" width="2" height="2" fill="hsl(20, 90%, 50%)" />
<rect x="40" y="18" width="2" height="2" fill="hsl(20, 90%, 50%)" />
<rect x="42" y="18" width="2" height="2" fill="hsl(20, 90%, 50%)" />
<rect x="18" y="20" width="2" height="2" fill="hsl(20, 90%, 50%)" />
<rect x="20" y="20" width="2" height="2" fill="hsl(20, 90%, 50%)" />
<rect x="38" y="20" width="2" height="2" fill="hsl(20, 90%, 50%)" />
<rect x="40" y="20" width="2" height="2" fill="hsl(20, 90%, 50%)" />
<rect x="68" y="20" width="2" height="2" fill="hsl(20, 90%, 50%)" />
<rect x="70" y="20" width="2" height="2" fill="hsl(20, 90%, 50%)" />
<rect x="90" y="20" width="2" height="2" fill="hsl(20, 90%, 50%)" />
<rect x="92" y="20" width="2" height="2" fill="hsl(20, 90%, 50%)" />
<rect x="16" y="22" width="2" height="2" fill="hsl(20, 90%, 50%)" />
<rect x="22" y="22" width="2" height="2" fill="hsl(20, 90%, 50%)" />
<rect x="32" y="22" width="2" height="2" fill="hsl(20, 90%, 50%)" />
<rect x="40" y="22" width="2" height="2" fill="hsl(20, 90%, 50%)" />
<rect x="66" y="22" width="2" height="2" fill="hsl(20, 90%, 50%)" />
<rect x="72" y="22" width="2" height="2" fill="hsl(20, 90%, 50%)" />
<rect x="82" y="22" width="2" height="2" fill="hsl(20, 90%, 50%)" />
<rect x="86" y="22" width="2" height="2" fill="hsl(20, 90%, 50%)" />
<rect x="88" y="22" width="2" height="2" fill="hsl(20, 90%, 50%)" />
<rect x="90" y="22" width="2" height="2" fill="hsl(20, 90%, 50%)" />
<rect x="92" y="22" width="2" height="2" fill="hsl(20, 90%, 50%)" />
<rect x="16" y="24" width="2" height="2" fill="hsl(20, 90%, 50%)" />
<rect x="20" y="24" width="2" height="2" fill="hsl(20, 90%, 50%)" />
<rect x="28" y="24" width="2" height="2" fill="hsl(20, 90%, 50%)" />
<rect x="30" y="24" width="2" height="2" fill="hsl(20, 90%, 50%)" />
<rect x="32" y="24" width="2" height="2" fill="hsl(20, 90%, 50%)" />
<rect x="36" y="24" width="2" height="2" fill="hsl(20, 90%, 50%)" />
<rect x="38" y="24" width="2" height="2" fill="hsl(20, 90%, 50%)" />
<rect x="40" y="24" width="2" height="2" fill="hsl(20, 90%, 50%)" />
<rect x="66" y="24" width="2" height="2" fill="hsl(20, 90%, 50%)" />
<rect x="70" y="24" width="2" height="2" fill="hsl(20, 90%, 50%)" />
<rect x="78" y="24" width="2" height="2" fill="hsl(20, 90%, 50%)" />
<rect x="80" y="24" width="2" height="2" fill="hsl(20, 90%, 50%)" />
<rect x="82" y="24" width="2" height="2" fill="hsl(20, 90%, 50%)" />
<rect x="88" y="24" width="2" height="2" fill="hsl(20, 90%, 50%)" />
<rect x="92" y="24" width="2" height="2" fill="hsl(20, 90%, 50%)" />
<rect x="18" y="26" width="2" height="2" fill="hsl(20, 90%, 50%)" />
<rect x="38" y="26" width="2" height="2" fill="hsl(20, 90%, 50%)" />
<rect x="68" y="26" width="2" height="2" fill="hsl(20, 90%, 50%)" />
<rect x="28" y="28" width="2" height="2" fill="hsl(20, 90%, 50%)" />
<rect x="30" y="28" width="2" height="2" fill="hsl(20, 90%, 50%)" />
<rect x="32" y="28" width="2" height="2" fill="hsl(20, 90%, 50%)" />
<rect x="34" y="28" width="2" height="2" fill="hsl(20, 90%, 50%)" />
<rect x="36" y="28" width="2" height="2" fill="hsl(20, 90%, 50%)" />
<rect x="38" y="28" width="2" height="2" fill="hsl(20, 90%, 50%)" />
<rect x="78" y="28" width="2" height="2" fill="hsl(20, 90%, 50%)" />
<rect x="80" y="28" width="2" height="2" fill="hsl(20, 90%, 50%)" />
<rect x="82" y="28" width="2" height="2" fill="hsl(20, 90%, 50%)" />
<rect x="8" y="30" width="2" height="2" fill="hsl(20, 90%, 50%)" />
<rect x="10" y="30" width="2" height="2" fill="hsl(20, 90%, 50%)" />
<rect x="28" y="30" width="2" height="2" fill="hsl(20, 90%, 50%)" />
<rect x="30" y="30" width="2" height="2" fill="hsl(20, 90%, 50%)" />
<rect x="34" y="30" width="2" height="2" fill="hsl(20, 90%, 50%)" />
<rect x="58" y="30" width="2" height="2" fill="hsl(20, 90%, 50%)" />
<rect x="60" y="30" width="2" height="2" fill="hsl(20, 90%, 50%)" />
<rect x="76" y="30" width="2" height="2" fill="hsl(20, 90%, 50%)" />
<rect x="80" y="30" width="2" height="2" fill="hsl(20, 90%, 50%)" />
<rect x="82" y="30" width="2" height="2" fill="hsl(20, 90%, 50%)" />
<rect x="84" y="30" width="2" height="2" fill="hsl(20, 90%, 50%)" />
<rect x="88" y="30" width="2" height="2" fill="hsl(20, 90%, 50%)" />
<rect x="92" y="30" width="2" height="2" fill="hsl(20, 90%, 50%)" />
<rect x="94" y="30" width="2" height="2" fill="hsl(20, 90%, 50%)" />
<rect x="10" y="32" width="2" height="2" fill="hsl(20, 90%, 50%)" />
<rect x="26" y="32" width="2" height="2" fill="hsl(20, 90%, 50%)" />
<rect x="28" y="32" width="2" height="2" fill="hsl(20, 90%, 50%)" />
<rect x="60" y="32" width="2" height="2" fill="hsl(20, 90%, 50%)" />
<rect x="74" y="32" width="2" height="2" fill="hsl(20, 90%, 50%)" />
<rect x="84" y="32" width="2" height="2" fill="hsl(20, 90%, 50%)" />
<rect x="88" y="32" width="2" height="2" fill="hsl(20, 90%, 50%)" />
<rect x="90" y="32" width="2" height="2" fill="hsl(20, 90%, 50%)" />
<rect x="94" y="32" width="2" height="2" fill="hsl(20, 90%, 50%)" />
<rect x="4" y="34" width="2" height="2" fill="hsl(20, 90%, 50%)" />
<rect x="6" y="34" width="2" height="2" fill="hsl(20, 90%, 50%)" />
<rect x="8" y="34" width="2" height="2" fill="hsl(20, 90%, 50%)" />
<rect x="54" y="34" width="2" height="2" fill="hsl(20, 90%, 50%)" />
<rect x="56" y="34" width="2" height="2" fill="hsl(20, 90%, 50%)" />
<rect x="58" y="34" width="2" height="2" fill="hsl(20, 90%, 50%)" />
<rect x="74" y="34" width="2" height="2" fill="hsl(20, 90%, 50%)" />
<rect x="76" y="34" width="2" height="2" fill="hsl(20, 90%, 50%)" />
<rect x="82" y="34" width="2" height="2" fill="hsl(20, 90%, 50%)" />
<rect x="84" y="34" width="2" height="2" fill="hsl(20, 90%, 50%)" />
<rect x="86" y="34" width="2" height="2" fill="hsl(20, 90%, 50%)" />
<rect x="4" y="36" width="2" height="2" fill="hsl(20, 90%, 50%)" />
<rect x="54" y="36" width="2" height="2" fill="hsl(20, 90%, 50%)" />
<rect x="80" y="36" width="2" height="2" fill="hsl(20, 90%, 50%)" />
<rect x="88" y="36" width="2" height="2" fill="hsl(20, 90%, 50%)" />
<rect x="90" y="36" width="2" height="2" fill="hsl(20, 90%, 50%)" />
<rect x="92" y="36" width="2" height="2" fill="hsl(20, 90%, 50%)" />
<rect x="82" y="38" width="2" height="2" fill="hsl(20, 90%, 50%)" />
<rect x="84" y="38" width="2" height="2" fill="hsl(20, 90%, 50%)" />
<rect x="86" y="38" width="2" height="2" fill="hsl(20, 90%, 50%)" />
<rect x="92" y="38" width="2" height="2" fill="hsl(20, 90%, 50%)" />
<rect x="86" y="40" width="2" height="2" fill="hsl(20, 90%, 50%)" />
<rect x="12" y="42" width="2" height="2" fill="hsl(20, 90%, 50%)" />
<rect x="8" y="44" width="2" height="2" fill="hsl(20, 90%, 50%)" />
<rect x="12" y="44" width="2" height="2" fill="hsl(20, 90%, 50%)" />
<rect x="10" y="46" width="2" height="2" fill="hsl(20, 90%, 50%)" />
<rect x="12" y="46" width="2" height="2" fill="hsl(20, 90%, 50%)" />
<rect x="62" y="58" width="2" height="2" fill="hsl(20, 90%, 50%)" />
<rect x="16" y="60" width="2" height="2" fill="hsl(20, 90%, 50%)" />
<rect x="30" y="60" width="2" height="2" fill="hsl(20, 90%, 50%)" />
<rect x="58" y="60" width="2" height="2" fill="hsl(20, 90%, 50%)" />
<rect x="60" y="60" width="2" height="2" fill="hsl(20, 90%, 50%)" />
<rect x="62" y="60" width="2" height="2" fill="hsl(20, 90%, 50%)" />
<rect x="6" y="62" width="2" height="2" fill="hsl(20, 90%, 50%)" />
<rect x="14" y="62" width="2" height="2" fill="hsl(20, 90%, 50%)" />
<rect x="18" y="62" width="2" height="2" fill="hsl(20, 90%, 50%)" />
<rect x="26" y="62" width="2" height="2" fill="hsl(20, 90%, 50%)" />
<rect x="30" y="62" width="2" height="2" fill="hsl(20, 90%, 50%)" />
<rect x="56" y="62" width="2" height="2" fill="hsl(20, 90%, 50%)" />
<rect x="4" y="64" width="2" height="2" fill="hsl(20, 90%, 50%)" />
<rect x="8" y="64" width="2" height="2" fill="hsl(20, 90%, 50%)" />
<rect x="14" y="64" width="2" height="2" fill="hsl(20, 90%, 50%)" />
<rect x="18" y="64" width="2" height="2" fill="hsl(20, 90%, 50%)" />
<rect x="28" y="64" width="2" height="2" fill="hsl(20, 90%, 50%)" />
<rect x="30" y="64" width="2" height="2" fill="hsl(20, 90%, 50%)" />
<rect x="58" y="64" width="2" height="2" fill="hsl(20, 90%, 50%)" />
<rect x="4" y="66" width="2" height="2" fill="hsl(20, 90%, 50%)" />
<rect x="8" y="66" width="2" height="2" fill="hsl(20, 90%, 50%)" />
<rect x="10" y="66" width="2" height="2" fill="hsl(20, 90%, 50%)" />
<rect x="12" y="66" width="2" height="2" fill="hsl(20, 90%, 50%)" />
<rect x="16" y="66" width="2" height="2" fill="hsl(20, 90%, 50%)" />
<rect x="52" y="66" width="2" height="2" fill="hsl(20, 90%, 50%)" />
<rect x="58" y="66" width="2" height="2" fill="hsl(20, 90%, 50%)" />
<rect x="6" y="68" width="2" height="2" fill="hsl(20, 90%, 50%)" />
<rect x="12" y="68" width="2" height="2" fill="hsl(20, 90%, 50%)" />
<rect x="14" y="68" width="2" height="2" fill="hsl(20, 90%, 50%)" />
<rect x="32" y="68" width="2" height="2" fill="hsl(20, 90%, 50%)" />
<rect x="34" y="68" width="2" height="2" fill="hsl(20, 90%, 50%)" />
<rect x="52" y="68" width="2" height="2" fill="hsl(20, 90%, 50%)" />
<rect x="8" y="70" width="2" height="2" fill="hsl(20, 90%, 50%)" />
<rect x="10" y="70" width="2" height="2" fill="hsl(20, 90%, 50%)" />
<rect x="12" y="70" width="2" height="2" fill="hsl(20, 90%, 50%)" />
<rect x="30" y="70" width="2" height="2" fill="hsl(20, 90%, 50%)" />
<rect x="36" y="70" width="2" height="2" fill="hsl(20, 90%, 50%)" />
<rect x="46" y="70" width="2" height="2" fill="hsl(20, 90%, 50%)" />
<rect x="48" y="70" width="2" height="2" fill="hsl(20, 90%, 50%)" />
<rect x="50" y="70" width="2" height="2" fill="hsl(20, 90%, 50%)" />
<rect x="56" y="70" width="2" height="2" fill="hsl(20, 90%, 50%)" />
<rect x="30" y="72" width="2" height="2" fill="hsl(20, 90%, 50%)" />
<rect x="34" y="72" width="2" height="2" fill="hsl(20, 90%, 50%)" />
<rect x="44" y="72" width="2" height="2" fill="hsl(20, 90%, 50%)" />
<rect x="46" y="72" width="2" height="2" fill="hsl(20, 90%, 50%)" />
<rect x="48" y="72" width="2" height="2" fill="hsl(20, 90%, 50%)" />
<rect x="50" y="72" width="2" height="2" fill="hsl(20, 90%, 50%)" />
<rect x="54" y="72" width="2" height="2" fill="hsl(20, 90%, 50%)" />
<rect x="12" y="74" width="2" height="2" fill="hsl(20, 90%, 50%)" />
<rect x="14" y="74" width="2" height="2" fill="hsl(20, 90%, 50%)" />
<rect x="16" y="74" width="2" height="2" fill="hsl(20, 90%, 50%)" />
<rect x="32" y="74" width="2" height="2" fill="hsl(20, 90%, 50%)" />
<rect x="10" y="76" width="2" height="2" fill="hsl(20, 90%, 50%)" />
<rect x="16" y="76" width="2" height="2" fill="hsl(20, 90%, 50%)" />
<rect x="42" y="76" width="2" height="2" fill="hsl(20, 90%, 50%)" />
<rect x="48" y="76" width="2" height="2" fill="hsl(20, 90%, 50%)" />
<rect x="52" y="76" width="2" height="2" fill="hsl(20, 90%, 50%)" />
<rect x="10" y="78" width="2" height="2" fill="hsl(20, 90%, 50%)" />
<rect x="12" y="78" width="2" height="2" fill="hsl(20, 90%, 50%)" />
<rect x="14" y="78" width="2" height="2" fill="hsl(20, 90%, 50%)" />
<rect x="16" y="78" width="2" height="2" fill="hsl(20, 90%, 50%)" />
<rect x="18" y="78" width="2" height="2" fill="hsl(20, 90%, 50%)" />
<rect x="22" y="78" width="2" height="2" fill="hsl(20, 90%, 50%)" />
<rect x="24" y="78" width="2" height="2" fill="hsl(20, 90%, 50%)" />
<rect x="48" y="78" width="2" height="2" fill="hsl(20, 90%, 50%)" />
<rect x="6" y="80" width="2" height="2" fill="hsl(20, 90%, 50%)" />
<rect x="10" y="80" width="2" height="2" fill="hsl(20, 90%, 50%)" />
<rect x="18" y="80" width="2" height="2" fill="hsl(20, 90%, 50%)" />
<rect x="20" y="80" width="2" height="2" fill="hsl(20, 90%, 50%)" />
<rect x="24" y="80" width="2" height="2" fill="hsl(20, 90%, 50%)" />
<rect x="40" y="80" width="2" height="2" fill="hsl(20, 90%, 50%)" />
<rect x="42" y="80" width="2" height="2" fill="hsl(20, 90%, 50%)" />
<rect x="44" y="80" width="2" height="2" fill="hsl(20, 90%, 50%)" />
<rect x="6" y="82" width="2" height="2" fill="hsl(20, 90%, 50%)" />
<rect x="8" y="82" width="2" height="2" fill="hsl(20, 90%, 50%)" />
<rect x="22" y="82" width="2" height="2" fill="hsl(20, 90%, 50%)" />
</svg>