<?xml version="1.0" encoding="utf-8"?>
<svg xmlns="http://www.w3.org/2000/svg" width="104" height="88" viewBox="0 0 104 88">
<rect width="100%" height="100%" fill="transparent" />
<rect x="34" y="4" width="2" height="2" fill="hsl(20, 90%, 50%)" />
<rect x="40" y="4" width="2" height="2" fill="hsl(20, 90%, 50%)" />
<rect x="46" y="4" width="2" height="2" fill="hsl(20, 90%, 50%)" />
<rect x="34" y="6" width="2" height="2" fill="hsl(20, 90%, 50%)" />
<rect x="36" y="6" width="2" height="2" fill="hsl(20, 90%, 50%)" />
<rect x="38" y="6" width="2" height="2" fill="hsl(20, 90%, 50%)" />
<rect x="40" y="6" width="2" height="2" fill="hsl(20, 90%, 50%)" />
<rect x="42" y="6" width="2" height="2" fill="hsl(20, 90%, 50%)" />
<rect x="44" y="6" width="2" height="2" fill="hsl(20, 90%, 50%)" />
<rect x="46" y="6" width="2" height="2" fill="hsl(20, 90%, 50%)" />
<rect x="34" y="10" width="2" height="2" fill="hsl(20, 90%, 50%)" />
<rect x="36" y="10" width="2" height="2" fill="hsl(20, 90%, 50%)" />
<rect x="38" y="10" width="2" height="2" fill="hsl(20, 90%, 50%)" />
<rect x="40" y="10" width="2" height="2" fill="hsl(20, 90%, 50%)" />
<rect x="42" y="10" width="2" height="2" fill="hsl(20, 90%, 50%)" />
<rect x="44" y="10" width="2" height="2" fill="hsl(20, 90%, 50%)" />
<rect x="46" y="10" width="2" height="2" fill="hsl(20, 90%, 50%)" />
<rect x="34" y="12" width="2" height="2" fill="hsl(20, 90%, 50%)" />
<rect x="40" y="12" width="2" height="2" fill="hsl(20, 90%, 50%)" />
<rect x="46" y="12" width="2" height="2" fill="hsl(20, 90%, 50%)" />
<rect x="36" y="24" width="2" height="2" fill="hsl(20, 90%, 50%)" />
<rect x="42" y="24" width="2" height="2" fill="hsl(20, 90%, 50%)" />
<rect x="28" y="26" width="2" height="2" fill="hsl(20, 90%, 50%)" />
<rect x="30" y="26" width="2" height="2" fill="hsl(20, 90%, 50%)" />
<rect x="36" y="26" width="2" height="2" fill="hsl(20, 90%, 50%)" />
<rect x="42" y="26" width="2" height="2" fill="hsl(20, 90%, 50%)" />
<rect x="28" y="28" width="2" height="2" fill="hsl(20, 90%, 50%)" />
<rect x="30" y="28" width="2" height="2" fill="hsl(20, 90%, 50%)" />
<rect x="36" y="28" width="2" height="2" fill="hsl(20, 90%, 50%)" />
<rect x="42" y="28" width="2" height="2" fill="hsl(20, 90%, 50%)" />
<rect x="58" y="28" width="2" height="2" fill="hsl(20, 90%, 50%)" />
<rect x="60" y="28" width="2" height="2" fill="hsl(20, 90%, 50%)" />
<rect x="58" y="30" width="2" height="2" fill="hsl(20, 90%, 50%)" />
<rect x="60" y="30" width="2" height="2" fill="hsl(20, 90%, 50%)" />
<rect x="70" y="30" width="2" height="2" fill="hsl(20, 90%, 50%)" />
<rect x="72" y="30" width="2" height="2" fill="hsl(20, 90%, 50%)" />
<rect x="80" y="30" width="2" height="2" fill="hsl(20, 90%, 50%)" />
<rect x="86" y="30" width="2" height="2" fill="hsl(20, 90%, 50%)" />
<rect x="94" y="30" width="2" height="2" fill="hsl(20, 90%, 50%)" />
<rect x="96" y="30" width="2" height="2" fill="hsl(20, 90%, 50%)" />
<rect x="70" y="32" width="2" height="2" fill="hsl(20, 90%, 50%)" />
<rect x="72" y="32" width="2" height="2" fill="hsl(20, 90%, 50%)" />
<rect x="74" y="32" width="2" height="2" fill="hsl(20, 90%, 50%)" />
<rect x="76" y="32" width="2" height="2" fill="hsl(20, 90%, 50%)" />
<rect x="78" y="32" width="2" height="2" fill="hsl(20, 90%, 50%)" />
<rect x="88" y="32" width="2" height="2" fill="hsl(20, 90%, 50%)" />
<rect x="90" y="32" width="2" height="2" fill="hsl(20, 90%, 50%)" />
<rect x="92" y="32" width="2" height="2" fill="hsl(20, 90%, 50%)" />
<rect x="94" y="32" width="2" height="2" fill="hsl(20, 90%, 50%)" />
<rect x="96" y="32" width="2" height="2" fill="hsl(20, 90%, 50%)" />
<rect x="70" y="34" width="2" height="2" fill="hsl(20, 90%, 50%)" />
<rect x="72" y="34" width="2" height="2" fill="hsl(20, 90%, 50%)" />
<rect x="80" y="34" width="2" height="2" fill="hsl(20, 90%, 50%)" />
<rect x="86" y="34" width="2" height="2" fill="hsl(20, 90%, 50%)" />
<rect x="94" y="34" width="2" height="2" fill="hsl(20, 90%, 50%)" />
<rect x="96" y="34" width="2" height="2" fill="hsl(20, 90%, 50%)" />
<rect x="58" y="36" width="2" height="2" fill="hsl(20, 90%, 50%)" />
<rect x="60" y="36" width="2" height="2" fill="hsl(20, 90%, 50%)" />
<rect x="62" y="36" width="2" height="2" fill="hsl(20, 90%, 50%)" />
<rect x="4" y="40" width="2" height="2" fill="hsl(20, 90%, 50%)" />
<rect x="6" y="40" width="2" height="2" fill="hsl(20, 90%, 50%)" />
<rect x="10" y="40" width="2" height="2" fill="hsl(20, 90%, 50%)" />
<rect x="12" y="40" width="2" height="2" fill="hsl(20, 90%, 50%)" />
<rect x="6" y="42" width="2" height="2" fill="hsl(20, 90%, 50%)" />
<rect x="10" y="42" width="2" height="2" fill="hsl(20, 90%, 50%)" />
<rect x="58" y="42" width="2" height="2" fill="hsl(20, 90%, 50%)" />
<rect x="60" y="42" width="2" height="2" fill="hsl(20, 90%, 50%)" />
<rect x="62" y="42" width="2" height="2" fill="hsl(20, 90%, 50%)" />
<rect x="6" y="44" width="2" height="2" fill="hsl(20, 90%, 50%)" />
<rect x="10" y="44" width="2" height="2" fill="hsl(20, 90%, 50%)" />
<rect x="24" y="44" width="2" height="2" fill="hsl(20, 90%, 50%)" />
<rect x="26" y="44" width="2" height="2" fill="hsl(20, 90%, 50%)" />
<rect x="28" y="44" width="2" height="2" fill="hsl(20, 90%, 50%)" />
<rect x="4" y="46" width="2" height="2" fill="hsl(20, 90%, 50%)" />
<rect x="6" y="46" width="2" height="2" fill="hsl(20, 90%, 50%)" />
<rect x="10" y="46" width="2" height="2" fill="hsl(20, 90%, 50%)" />
<rect x="12" y="46" width="2" height="2" fill="hsl(20, 90%, 50%)" />
<rect x="72" y="46" width="2" height="2" fill="hsl(20, 90%, 50%)" />
<rect x="76" y="46" width="2" height="2" fill="hsl(20, 90%, 50%)" />
<rect x="6" y="48" width="2" height="2" fill="hsl(20, 90%, 50%)" />
<rect x="10" y="48" width="2" height="2" fill="hsl(20, 90%, 50%)" />
<rect x="74" y="48" width="2" height="2" fill="hsl(20, 90%, 50%)" />
<rect x="76" y="48" width="2" height="2" fill="hsl(20, 90%, 50%)" />
<rect x="6" y="50" width="2" height="2" fill="hsl(20, 90%, 50%)" />
<rect x="10" y="50" width="2" height="2" fill="hsl(20, 90%, 50%)" />
<rect x="24" y="50" width="2" height="2" fill="hsl(20, 90%, 50%)" />
<rect x="26" y="50" width="2" height="2" fill="hsl(20, 90%, 50%)" />
<rect x="28" y="50" width="2" height="2" fill="hsl(20, 90%, 50%)" />
<rect x="74" y="50" width="2" height="2" fill="hsl(20, 90%, 50%)" />
<rect x="4" y="52" width="2" height="2" fill="hsl(20, 90%, 50%)" />
<rect x="6" y="52" width="2" height="2" fill="hsl(20, 90%, 50%)" />
<rect x="10" y="52" width="2" height="2" fill="hsl(20, 90%, 50%)" />
<rect x="12" y="52" width="2" height="2" fill="hsl(20, 90%, 50%)" />
<rect x="26" y="56" width="2" height="2" fill="hsl(20, 90%, 50%)" />
<rect x="28" y="56" width="2" height="2" fill="hsl(20, 90%, 50%)" />
<rect x="26" y="58" width="2" height="2" fill="hsl(20, 90%, 50%)" />
<rect x="28" y="58" width="2" height="2" fill="hsl(20, 90%, 50%)" />
<rect x="44" y="58" width="2" height="2" fill="hsl(20, 90%, 50%)" />
<rect x="50" y="58" width="2" height="2" fill="hsl(20, 90%, 50%)" />
<rect x="56" y="58" width="2" height="2" fill="hsl(20, 90%, 50%)" />
<rect x="58" y="58" width="2" height="2" fill="hsl(20, 90%, 50%)" />
<rect x="44" y="60" width="2" height="2" fill="hsl(20, 90%, 50%)" />
<rect x="50" y="60" width="2" height="2" fill="hsl(20, 90%, 50%)" />
<rect x="56" y="60" width="2" height="2" fill="hsl(20, 90%, 50%)" />
<rect x="58" y="60" width="2" height="2" fill="hsl(20, 90%, 50%)" />
<rect x="44" y="62" width="2" height="2" fill="hsl(20, 90%, 50%)" />
<rect x="50" y="62" width="2" height="2" fill="hsl(20, 90%, 50%)" />
<rect x="98" y="68" width="2" height="2" fill="hsl(20, 90%, 50%)" />
<rect x="94" y="70" width="2" height="2" fill="hsl(20, 90%, 50%)" />
<rect x="98" y="70" width="2" height="2" fill="hsl(20, 90%, 50%)" />
<rect x="96" y="72" width="2" height="2" fill="hsl(20, 90%, 50%)" />
<rect x="98" y="72" width="2" height="2" fill="hsl(20, 90%, 50%)" />
<rect x="40" y="74" width="2" height="2" fill="hsl(20, 90%, 50%)" />
<rect x="46" y="74" width="2" height="2" fill="hsl(20, 90%, 50%)" />
<rect x="52" y="74" width="2" height="2" fill="hsl(20, 90%, 50%)" />
<rect x="40" y="76" width="2" height="2" fill="hsl(20, 90%, 50%)" />
<rect x="42" y="76" width="2" height="2" fill="hsl(20, 90%, 50%)" />
<rect x="44" y="76" width="2" height="2" fill="hsl(20, 90%, 50%)" />
<rect x="46" y="76" width="2" height="2" fill="hsl(20, 90%, 50%)" />
<rect x="48" y="76" width="2" height="2" fill="hsl(20, 90%, 50%)" />
<rect x="50" y="76" width="2" height="2" fill="hsl(20, 90%, 50%)" />
<rect x="52" y="76" width="2" height="2" fill="hsl(20, 90%, 50%)" />
<rect x="40" y="80" width="2" height="2" fill="hsl(20, 90%, 50%)" />
<rect x="42" y="80" width="2" height="2" fill="hsl(20, 90%, 50%)" />
<rect x="44" y="80" width="2" height="2" fill="hsl(20, 90%, 50%)" />
<rect x="46" y="80" width="2" height="2" fill="hsl(20, 90%, 50%)" />
<rect x="48" y="80" width="2" height="2" fill="hsl(20, 90%, 50%)" />
<rect x="50" y="80" width="2" height="2" fill="hsl(20, 90%, 50%)" />
<rect x="52" y="80" width="2" height="2" fill="hsl(20, 90%, 50%)" />
<rect x="40" y="82" width="2" height="2" fill="hsl(20, 90%, 50%)" />
<rect x="46" y="82" width="2" height="2" fill="hsl(20, 90%, 50%)" />
<rect x="52" y="82" width="2" height="2" fill="hsl(20, 90%, 50%)" />
</svg>