<?xml version="1.0" encoding="utf-8"?>
<svg xmlns="http://www.w3.org/2000/svg" width="112" height="96" viewBox="0 0 112 96">
<rect width="100%" height="100%" fill="transparent" />
<rect x="96" y="4" width="4" height="4" fill="hsl(20, 90%, 50%)" />
<rect x="96" y="8" width="4" height="4" fill="hsl(20, 90%, 50%)" />
<rect x="104" y="8" width="4" height="4" fill="hsl(20, 90%, 50%)" />
<rect x="96" y="12" width="4" height="4" fill="hsl(20, 90%, 50%)" />
<rect x="100" y="12" width="4" height="4" fill="hsl(20, 90%, 50%)" />
<rect x="60" y="40" width="4" height="4" fill="hsl(20, 90%, 50%)" />
<rect x="60" y="44" width="4" height="4" fill="hsl(20, 90%, 50%)" />
<rect x="68" y="44" width="4" height="4" fill="hsl(20, 90%, 50%)" />
<rect x="60" y="48" width="4" height="4" fill="hsl(20, 90%, 50%)" />
<rect x="64" y="48" width="4" height="4" fill="hsl(20, 90%, 50%)" />
<rect x="52" y="56" width="4" height="4" fill="hsl(20, 90%, 50%)" />
<rect x="56" y="56" width="4" height="4" fill="hsl(20, 90%, 50%)" />
<rect x="24" y="60" width="4" height="4" fill="hsl(20, 90%, 50%)" />
<rect x="28" y="60" width="4" height="4" fill="hsl(20, 90%, 50%)" />
<rect x="48" y="60" width="4" height="4" fill="hsl(20, 90%, 50%)" />
<rect x="60" y="60" width="4" height="4" fill="hsl(20, 90%, 50%)" />
<rect x="24" y="64" width="4" height="4" fill="hsl(20, 90%, 50%)" />
<rect x="28" y="64" width="4" height="4" fill="hsl(20, 90%, 50%)" />
<rect x="52" y="64" width="4" height="4" fill="hsl(20, 90%, 50%)" />
<rect x="60" y="64" width="4" height="4" fill="hsl(20, 90%, 50%)" />
<rect x="56" y="68" width="4" height="4" fill="hsl(20, 90%, 50%)" />
<rect x="24" y="76" width="4" height="4" fill="hsl(20, 90%, 50%)" />
<rect x="28" y="76" width="4" height="4" fill="hsl(20, 90%, 50%)" />
<rect x="32" y="76" width="4" height="4" fill="hsl(20, 90%, 50%)" />
<rect x="72" y="76" width="4" height="4" fill="hsl(20, 90%, 50%)" />
<rect x="76" y="76" width="4" height="4" fill="hsl(20, 90%, 50%)" />
<rect x="4" y="80" width="4" height="4" fill="hsl(20, 90%, 50%)" />
<rect x="8" y="80" width="4" height="4" fill="hsl(20, 90%, 50%)" />
<rect x="20" y="80" width="4" height="4" fill="hsl(20, 90%, 50%)" />
<rect x="28" y="80" width="4" height="4" fill="hsl(20, 90%, 50%)" />
<rect x="32" y="80" width="4" height="4" fill="hsl(20, 90%, 50%)" />
<rect x="72" y="80" width="4" height="4" fill="hsl(20, 90%, 50%)" />
<rect x="4" y="84" width="4" height="4" fill="hsl(20, 90%, 50%)" />
<rect x="8" y="84" width="4" height="4" fill="hsl(20, 90%, 50%)" />
<rect x="20" y="84" width="4" height="4" fill="hsl(20, 90%, 50%)" />
<rect x="24" y="84" width="4" height="4" fill="hsl(20, 90%, 50%)" />
<rect x="76" y="84" width="4" height="4" fill="hsl(20, 90%, 50%)" />
<rect x="80" y="84" width="4" height="4" fill="hsl(20, 90%, 50%)" />
<rect x="84" y="84" width="4" height="4" fill="hsl(20, 90%, 50%)" />
<rect x="20" y="88" width="4" height="4" fill="hsl(20, 90%, 50%)" />
<rect x="24" y="88" width="4" height="4" fill="hsl(20, 90%, 50%)" />
<rect x="84" y="88" width="4" height="4" fill="hsl(20, 90%, 50%)" />
</svg>