<?xml version="1.0" encoding="utf-8"?>
<svg xmlns="http://www.w3.org/2000/svg" width="112" height="60" viewBox="0 0 112 60">
<rect width="100%" height="100%" fill="transparent" />
<rect x="26" y="4" width="2" height="2" fill="hsl(20, 90%, 50%)" />
<rect x="26" y="6" width="2" height="2" fill="hsl(20, 90%, 50%)" />
<rect x="28" y="6" width="2" height="2" fill="hsl(20, 90%, 50%)" />
<rect x="30" y="6" width="2" height="2" fill="hsl(20, 90%, 50%)" />
<rect x="32" y="8" width="2" height="2" fill="hsl(20, 90%, 50%)" />
<rect x="30" y="10" width="2" height="2" fill="hsl(20, 90%, 50%)" />
<rect x="32" y="10" width="2" height="2" fill="hsl(20, 90%, 50%)" />
<rect x="34" y="20" width="2" height="2" fill="hsl(20, 90%, 50%)" />
<rect x="36" y="20" width="2" height="2" fill="hsl(20, 90%, 50%)" />
<rect x="38" y="20" width="2" height="2" fill="hsl(20, 90%, 50%)" />
<rect x="32" y="22" width="2" height="2" fill="hsl(20, 90%, 50%)" />
<rect x="40" y="22" width="2" height="2" fill="hsl(20, 90%, 50%)" />
<rect x="30" y="26" width="2" height="2" fill="hsl(20, 90%, 50%)" />
<rect x="42" y="26" width="2" height="2" fill="hsl(20, 90%, 50%)" />
<rect x="30" y="28" width="2" height="2" fill="hsl(20, 90%, 50%)" />
<rect x="32" y="28" width="2" height="2" fill="hsl(20, 90%, 50%)" />
<rect x="40" y="28" width="2" height="2" fill="hsl(20, 90%, 50%)" />
<rect x="42" y="28" width="2" height="2" fill="hsl(20, 90%, 50%)" />
<rect x="88" y="32" width="2" height="2" fill="hsl(20, 90%, 50%)" />
<rect x="90" y="32" width="2" height="2" fill="hsl(20, 90%, 50%)" />
<rect x="94" y="32" width="2" height="2" fill="hsl(20, 90%, 50%)" />
<rect x="36" y="34" width="2" height="2" fill="hsl(20, 90%, 50%)" />
<rect x="50" y="34" width="2" height="2" fill="hsl(20, 90%, 50%)" />
<rect x="52" y="34" width="2" height="2" fill="hsl(20, 90%, 50%)" />
<rect x="78" y="34" width="2" height="2" fill="hsl(20, 90%, 50%)" />
<rect x="80" y="34" width="2" height="2" fill="hsl(20, 90%, 50%)" />
<rect x="82" y="34" width="2" height="2" fill="hsl(20, 90%, 50%)" />
<rect x="88" y="34" width="2" height="2" fill="hsl(20, 90%, 50%)" />
<rect x="90" y="34" width="2" height="2" fill="hsl(20, 90%, 50%)" />
<rect x="96" y="34" width="2" height="2" fill="hsl(20, 90%, 50%)" />
<rect x="4" y="36" width="2" height="2" fill="hsl(20, 90%, 50%)" />
<rect x="6" y="36" width="2" height="2" fill="hsl(20, 90%, 50%)" />
<rect x="34" y="36" width="2" height="2" fill="hsl(20, 90%, 50%)" />
<rect x="38" y="36" width="2" height="2" fill="hsl(20, 90%, 50%)" />
<rect x="50" y="36" width="2" height="2" fill="hsl(20, 90%, 50%)" />
<rect x="52" y="36" width="2" height="2" fill="hsl(20, 90%, 50%)" />
<rect x="80" y="36" width="2" height="2" fill="hsl(20, 90%, 50%)" />
<rect x="82" y="36" width="2" height="2" fill="hsl(20, 90%, 50%)" />
<rect x="96" y="36" width="2" height="2" fill="hsl(20, 90%, 50%)" />
<rect x="104" y="36" width="2" height="2" fill="hsl(20, 90%, 50%)" />
<rect x="106" y="36" width="2" height="2" fill="hsl(20, 90%, 50%)" />
<rect x="6" y="38" width="2" height="2" fill="hsl(20, 90%, 50%)" />
<rect x="34" y="38" width="2" height="2" fill="hsl(20, 90%, 50%)" />
<rect x="38" y="38" width="2" height="2" fill="hsl(20, 90%, 50%)" />
<rect x="82" y="38" width="2" height="2" fill="hsl(20, 90%, 50%)" />
<rect x="84" y="38" width="2" height="2" fill="hsl(20, 90%, 50%)" />
<rect x="86" y="38" width="2" height="2" fill="hsl(20, 90%, 50%)" />
<rect x="94" y="38" width="2" height="2" fill="hsl(20, 90%, 50%)" />
<rect x="96" y="38" width="2" height="2" fill="hsl(20, 90%, 50%)" />
<rect x="98" y="38" width="2" height="2" fill="hsl(20, 90%, 50%)" />
<rect x="100" y="38" width="2" height="2" fill="hsl(20, 90%, 50%)" />
<rect x="106" y="38" width="2" height="2" fill="hsl(20, 90%, 50%)" />
<rect x="6" y="40" width="2" height="2" fill="hsl(20, 90%, 50%)" />
<rect x="10" y="40" width="2" height="2" fill="hsl(20, 90%, 50%)" />
<rect x="22" y="40" width="2" height="2" fill="hsl(20, 90%, 50%)" />
<rect x="34" y="40" width="2" height="2" fill="hsl(20, 90%, 50%)" />
<rect x="84" y="40" width="2" height="2" fill="hsl(20, 90%, 50%)" />
<rect x="92" y="40" width="2" height="2" fill="hsl(20, 90%, 50%)" />
<rect x="100" y="40" width="2" height="2" fill="hsl(20, 90%, 50%)" />
<rect x="102" y="40" width="2" height="2" fill="hsl(20, 90%, 50%)" />
<rect x="104" y="40" width="2" height="2" fill="hsl(20, 90%, 50%)" />
<rect x="8" y="42" width="2" height="2" fill="hsl(20, 90%, 50%)" />
<rect x="10" y="42" width="2" height="2" fill="hsl(20, 90%, 50%)" />
<rect x="18" y="42" width="2" height="2" fill="hsl(20, 90%, 50%)" />
<rect x="22" y="42" width="2" height="2" fill="hsl(20, 90%, 50%)" />
<rect x="34" y="42" width="2" height="2" fill="hsl(20, 90%, 50%)" />
<rect x="52" y="42" width="2" height="2" fill="hsl(20, 90%, 50%)" />
<rect x="64" y="42" width="2" height="2" fill="hsl(20, 90%, 50%)" />
<rect x="16" y="44" width="2" height="2" fill="hsl(20, 90%, 50%)" />
<rect x="20" y="44" width="2" height="2" fill="hsl(20, 90%, 50%)" />
<rect x="34" y="44" width="2" height="2" fill="hsl(20, 90%, 50%)" />
<rect x="40" y="44" width="2" height="2" fill="hsl(20, 90%, 50%)" />
<rect x="52" y="44" width="2" height="2" fill="hsl(20, 90%, 50%)" />
<rect x="64" y="44" width="2" height="2" fill="hsl(20, 90%, 50%)" />
<rect x="84" y="44" width="2" height="2" fill="hsl(20, 90%, 50%)" />
<rect x="92" y="44" width="2" height="2" fill="hsl(20, 90%, 50%)" />
<rect x="100" y="44" width="2" height="2" fill="hsl(20, 90%, 50%)" />
<rect x="102" y="44" width="2" height="2" fill="hsl(20, 90%, 50%)" />
<rect x="104" y="44" width="2" height="2" fill="hsl(20, 90%, 50%)" />
<rect x="14" y="46" width="2" height="2" fill="hsl(20, 90%, 50%)" />
<rect x="20" y="46" width="2" height="2" fill="hsl(20, 90%, 50%)" />
<rect x="34" y="46" width="2" height="2" fill="hsl(20, 90%, 50%)" />
<rect x="40" y="46" width="2" height="2" fill="hsl(20, 90%, 50%)" />
<rect x="82" y="46" width="2" height="2" fill="hsl(20, 90%, 50%)" />
<rect x="84" y="46" width="2" height="2" fill="hsl(20, 90%, 50%)" />
<rect x="86" y="46" width="2" height="2" fill="hsl(20, 90%, 50%)" />
<rect x="94" y="46" width="2" height="2" fill="hsl(20, 90%, 50%)" />
<rect x="96" y="46" width="2" height="2" fill="hsl(20, 90%, 50%)" />
<rect x="98" y="46" width="2" height="2" fill="hsl(20, 90%, 50%)" />
<rect x="100" y="46" width="2" height="2" fill="hsl(20, 90%, 50%)" />
<rect x="106" y="46" width="2" height="2" fill="hsl(20, 90%, 50%)" />
<rect x="16" y="48" width="2" height="2" fill="hsl(20, 90%, 50%)" />
<rect x="20" y="48" width="2" height="2" fill="hsl(20, 90%, 50%)" />
<rect x="36" y="48" width="2" height="2" fill="hsl(20, 90%, 50%)" />
<rect x="38" y="48" width="2" height="2" fill="hsl(20, 90%, 50%)" />
<rect x="44" y="48" width="2" height="2" fill="hsl(20, 90%, 50%)" />
<rect x="46" y="48" width="2" height="2" fill="hsl(20, 90%, 50%)" />
<rect x="70" y="48" width="2" height="2" fill="hsl(20, 90%, 50%)" />
<rect x="72" y="48" width="2" height="2" fill="hsl(20, 90%, 50%)" />
<rect x="80" y="48" width="2" height="2" fill="hsl(20, 90%, 50%)" />
<rect x="82" y="48" width="2" height="2" fill="hsl(20, 90%, 50%)" />
<rect x="96" y="48" width="2" height="2" fill="hsl(20, 90%, 50%)" />
<rect x="104" y="48" width="2" height="2" fill="hsl(20, 90%, 50%)" />
<rect x="106" y="48" width="2" height="2" fill="hsl(20, 90%, 50%)" />
<rect x="18" y="50" width="2" height="2" fill="hsl(20, 90%, 50%)" />
<rect x="22" y="50" width="2" height="2" fill="hsl(20, 90%, 50%)" />
<rect x="78" y="50" width="2" height="2" fill="hsl(20, 90%, 50%)" />
<rect x="80" y="50" width="2" height="2" fill="hsl(20, 90%, 50%)" />
<rect x="82" y="50" width="2" height="2" fill="hsl(20, 90%, 50%)" />
<rect x="88" y="50" width="2" height="2" fill="hsl(20, 90%, 50%)" />
<rect x="90" y="50" width="2" height="2" fill="hsl(20, 90%, 50%)" />
<rect x="96" y="50" width="2" height="2" fill="hsl(20, 90%, 50%)" />
<rect x="22" y="52" width="2" height="2" fill="hsl(20, 90%, 50%)" />
<rect x="52" y="52" width="2" height="2" fill="hsl(20, 90%, 50%)" />
<rect x="64" y="52" width="2" height="2" fill="hsl(20, 90%, 50%)" />
<rect x="88" y="52" width="2" height="2" fill="hsl(20, 90%, 50%)" />
<rect x="90" y="52" width="2" height="2" fill="hsl(20, 90%, 50%)" />
<rect x="94" y="52" width="2" height="2" fill="hsl(20, 90%, 50%)" />
<rect x="52" y="54" width="2" height="2" fill="hsl(20, 90%, 50%)" />
<rect x="64" y="54" width="2" height="2" fill="hsl(20, 90%, 50%)" />
</svg>