<?xml version="1.0" encoding="utf-8"?>
<svg xmlns="http://www.w3.org/2000/svg" width="108" height="128" viewBox="0 0 108 128">
<rect width="100%" height="100%" fill="transparent" />
<rect x="96" y="4" width="4" height="4" fill="hsl(20, 90%, 50%)" />
<rect x="92" y="8" width="4" height="4" fill="hsl(20, 90%, 50%)" />
<rect x="92" y="12" width="4" height="4" fill="hsl(20, 90%, 50%)" />
<rect x="96" y="12" width="4" height="4" fill="hsl(20, 90%, 50%)" />
<rect x="100" y="12" width="4" height="4" fill="hsl(20, 90%, 50%)" />
<rect x="68" y="32" width="4" height="4" fill="hsl(20, 90%, 50%)" />
<rect x="28" y="36" width="4" height="4" fill="hsl(20, 90%, 50%)" />
<rect x="32" y="36" width="4" height="4" fill="hsl(20, 90%, 50%)" />
<rect x="64" y="36" width="4" height="4" fill="hsl(20, 90%, 50%)" />
<rect x="28" y="40" width="4" height="4" fill="hsl(20, 90%, 50%)" />
<rect x="36" y="40" width="4" height="4" fill="hsl(20, 90%, 50%)" />
<rect x="64" y="40" width="4" height="4" fill="hsl(20, 90%, 50%)" />
<rect x="68" y="40" width="4" height="4" fill="hsl(20, 90%, 50%)" />
<rect x="72" y="40" width="4" height="4" fill="hsl(20, 90%, 50%)" />
<rect x="36" y="44" width="4" height="4" fill="hsl(20, 90%, 50%)" />
<rect x="16" y="48" width="4" height="4" fill="hsl(20, 90%, 50%)" />
<rect x="28" y="48" width="4" height="4" fill="hsl(20, 90%, 50%)" />
<rect x="36" y="48" width="4" height="4" fill="hsl(20, 90%, 50%)" />
<rect x="40" y="48" width="4" height="4" fill="hsl(20, 90%, 50%)" />
<rect x="80" y="48" width="4" height="4" fill="hsl(20, 90%, 50%)" />
<rect x="84" y="48" width="4" height="4" fill="hsl(20, 90%, 50%)" />
<rect x="16" y="52" width="4" height="4" fill="hsl(20, 90%, 50%)" />
<rect x="20" y="52" width="4" height="4" fill="hsl(20, 90%, 50%)" />
<rect x="24" y="52" width="4" height="4" fill="hsl(20, 90%, 50%)" />
<rect x="28" y="52" width="4" height="4" fill="hsl(20, 90%, 50%)" />
<rect x="40" y="52" width="4" height="4" fill="hsl(20, 90%, 50%)" />
<rect x="64" y="52" width="4" height="4" fill="hsl(20, 90%, 50%)" />
<rect x="68" y="52" width="4" height="4" fill="hsl(20, 90%, 50%)" />
<rect x="80" y="52" width="4" height="4" fill="hsl(20, 90%, 50%)" />
<rect x="84" y="52" width="4" height="4" fill="hsl(20, 90%, 50%)" />
<rect x="32" y="56" width="4" height="4" fill="hsl(20, 90%, 50%)" />
<rect x="36" y="56" width="4" height="4" fill="hsl(20, 90%, 50%)" />
<rect x="40" y="56" width="4" height="4" fill="hsl(20, 90%, 50%)" />
<rect x="60" y="56" width="4" height="4" fill="hsl(20, 90%, 50%)" />
<rect x="68" y="56" width="4" height="4" fill="hsl(20, 90%, 50%)" />
<rect x="16" y="60" width="4" height="4" fill="hsl(20, 90%, 50%)" />
<rect x="20" y="60" width="4" height="4" fill="hsl(20, 90%, 50%)" />
<rect x="24" y="60" width="4" height="4" fill="hsl(20, 90%, 50%)" />
<rect x="28" y="60" width="4" height="4" fill="hsl(20, 90%, 50%)" />
<rect x="40" y="60" width="4" height="4" fill="hsl(20, 90%, 50%)" />
<rect x="64" y="60" width="4" height="4" fill="hsl(20, 90%, 50%)" />
<rect x="12" y="64" width="4" height="4" fill="hsl(20, 90%, 50%)" />
<rect x="28" y="64" width="4" height="4" fill="hsl(20, 90%, 50%)" />
<rect x="36" y="64" width="4" height="4" fill="hsl(20, 90%, 50%)" />
<rect x="40" y="64" width="4" height="4" fill="hsl(20, 90%, 50%)" />
<rect x="8" y="68" width="4" height="4" fill="hsl(20, 90%, 50%)" />
<rect x="16" y="68" width="4" height="4" fill="hsl(20, 90%, 50%)" />
<rect x="20" y="68" width="4" height="4" fill="hsl(20, 90%, 50%)" />
<rect x="24" y="68" width="4" height="4" fill="hsl(20, 90%, 50%)" />
<rect x="28" y="68" width="4" height="4" fill="hsl(20, 90%, 50%)" />
<rect x="36" y="68" width="4" height="4" fill="hsl(20, 90%, 50%)" />
<rect x="72" y="68" width="4" height="4" fill="hsl(20, 90%, 50%)" />
<rect x="76" y="68" width="4" height="4" fill="hsl(20, 90%, 50%)" />
<rect x="8" y="72" width="4" height="4" fill="hsl(20, 90%, 50%)" />
<rect x="16" y="72" width="4" height="4" fill="hsl(20, 90%, 50%)" />
<rect x="28" y="72" width="4" height="4" fill="hsl(20, 90%, 50%)" />
<rect x="36" y="72" width="4" height="4" fill="hsl(20, 90%, 50%)" />
<rect x="72" y="72" width="4" height="4" fill="hsl(20, 90%, 50%)" />
<rect x="4" y="76" width="4" height="4" fill="hsl(20, 90%, 50%)" />
<rect x="8" y="76" width="4" height="4" fill="hsl(20, 90%, 50%)" />
<rect x="16" y="76" width="4" height="4" fill="hsl(20, 90%, 50%)" />
<rect x="24" y="76" width="4" height="4" fill="hsl(20, 90%, 50%)" />
<rect x="32" y="76" width="4" height="4" fill="hsl(20, 90%, 50%)" />
<rect x="40" y="76" width="4" height="4" fill="hsl(20, 90%, 50%)" />
<rect x="44" y="76" width="4" height="4" fill="hsl(20, 90%, 50%)" />
<rect x="76" y="76" width="4" height="4" fill="hsl(20, 90%, 50%)" />
<rect x="80" y="76" width="4" height="4" fill="hsl(20, 90%, 50%)" />
<rect x="84" y="76" width="4" height="4" fill="hsl(20, 90%, 50%)" />
<rect x="4" y="80" width="4" height="4" fill="hsl(20, 90%, 50%)" />
<rect x="16" y="80" width="4" height="4" fill="hsl(20, 90%, 50%)" />
<rect x="20" y="80" width="4" height="4" fill="hsl(20, 90%, 50%)" />
<rect x="24" y="80" width="4" height="4" fill="hsl(20, 90%, 50%)" />
<rect x="32" y="80" width="4" height="4" fill="hsl(20, 90%, 50%)" />
<rect x="44" y="80" width="4" height="4" fill="hsl(20, 90%, 50%)" />
<rect x="84" y="80" width="4" height="4" fill="hsl(20, 90%, 50%)" />
<rect x="12" y="84" width="4" height="4" fill="hsl(20, 90%, 50%)" />
<rect x="28" y="84" width="4" height="4" fill="hsl(20, 90%, 50%)" />
<rect x="36" y="84" width="4" height="4" fill="hsl(20, 90%, 50%)" />
<rect x="16" y="88" width="4" height="4" fill="hsl(20, 90%, 50%)" />
<rect x="20" y="88" width="4" height="4" fill="hsl(20, 90%, 50%)" />
<rect x="28" y="88" width="4" height="4" fill="hsl(20, 90%, 50%)" />
<rect x="36" y="88" width="4" height="4" fill="hsl(20, 90%, 50%)" />
<rect x="40" y="88" width="4" height="4" fill="hsl(20, 90%, 50%)" />
<rect x="20" y="92" width="4" height="4" fill="hsl(20, 90%, 50%)" />
<rect x="12" y="96" width="4" height="4" fill="hsl(20, 90%, 50%)" />
<rect x="20" y="96" width="4" height="4" fill="hsl(20, 90%, 50%)" />
<rect x="28" y="96" width="4" height="4" fill="hsl(20, 90%, 50%)" />
<rect x="32" y="96" width="4" height="4" fill="hsl(20, 90%, 50%)" />
<rect x="36" y="96" width="4" height="4" fill="hsl(20, 90%, 50%)" />
<rect x="40" y="96" width="4" height="4" fill="hsl(20, 90%, 50%)" />
<rect x="8" y="100" width="4" height="4" fill="hsl(20, 90%, 50%)" />
<rect x="16" y="100" width="4" height="4" fill="hsl(20, 90%, 50%)" />
<rect x="20" y="100" width="4" height="4" fill="hsl(20, 90%, 50%)" />
<rect x="24" y="100" width="4" height="4" fill="hsl(20, 90%, 50%)" />
<rect x="28" y="100" width="4" height="4" fill="hsl(20, 90%, 50%)" />
<rect x="40" y="100" width="4" height="4" fill="hsl(20, 90%, 50%)" />
<rect x="8" y="104" width="4" height="4" fill="hsl(20, 90%, 50%)" />
<rect x="32" y="104" width="4" height="4" fill="hsl(20, 90%, 50%)" />
<rect x="12" y="108" width="4" height="4" fill="hsl(20, 90%, 50%)" />
<rect x="16" y="108" width="4" height="4" fill="hsl(20, 90%, 50%)" />
<rect x="20" y="108" width="4" height="4" fill="hsl(20, 90%, 50%)" />
<rect x="24" y="108" width="4" height="4" fill="hsl(20, 90%, 50%)" />
<rect x="28" y="108" width="4" height="4" fill="hsl(20, 90%, 50%)" />
<rect x="32" y="108" width="4" height="4" fill="hsl(20, 90%, 50%)" />
<rect x="40" y="108" width="4" height="4" fill="hsl(20, 90%, 50%)" />
<rect x="20" y="112" width="4" height="4" fill="hsl(20, 90%, 50%)" />
<rect x="36" y="112" width="4" height="4" fill="hsl(20, 90%, 50%)" />
<rect x="44" y="112" width="4" height="4" fill="hsl(20, 90%, 50%)" />
<rect x="32" y="116" width="4" height="4" fill="hsl(20, 90%, 50%)" />
<rect x="44" y="116" width="4" height="4" fill="hsl(20, 90%, 50%)" />
<rect x="36" y="120" width="4" height="4" fill="hsl(20, 90%, 50%)" />
<rect x="40" y="120" width="4" height="4" fill="hsl(20, 90%, 50%)" />
</svg>