<?xml version="1.0" encoding="utf-8"?>
<svg xmlns="http://www.w3.org/2000/svg" width="110" height="110" viewBox="0 0 110 110">
<rect width="100%" height="100%" fill="transparent" />
<rect x="16" y="4" width="3" height="3" fill="hsl(20, 90%, 50%)" />
<rect x="46" y="4" width="3" height="3" fill="hsl(20, 90%, 50%)" />
<rect x="16" y="7" width="3" height="3" fill="hsl(20, 90%, 50%)" />
<rect x="19" y="7" width="3" height="3" fill="hsl(20, 90%, 50%)" />
<rect x="22" y="7" width="3" height="3" fill="hsl(20, 90%, 50%)" />
<rect x="40" y="7" width="3" height="3" fill="hsl(20, 90%, 50%)" />
<rect x="43" y="7" width="3" height="3" fill="hsl(20, 90%, 50%)" />
<rect x="46" y="7" width="3" height="3" fill="hsl(20, 90%, 50%)" />
<rect x="25" y="10" width="3" height="3" fill="hsl(20, 90%, 50%)" />
<rect x="37" y="10" width="3" height="3" fill="hsl(20, 90%, 50%)" />
<rect x="10" y="13" width="3" height="3" fill="hsl(20, 90%, 50%)" />
<rect x="22" y="13" width="3" height="3" fill="hsl(20, 90%, 50%)" />
<rect x="25" y="13" width="3" height="3" fill="hsl(20, 90%, 50%)" />
<rect x="37" y="13" width="3" height="3" fill="hsl(20, 90%, 50%)" />
<rect x="40" y="13" width="3" height="3" fill="hsl(20, 90%, 50%)" />
<rect x="13" y="16" width="3" height="3" fill="hsl(20, 90%, 50%)" />
<rect x="7" y="19" width="3" height="3" fill="hsl(20, 90%, 50%)" />
<rect x="10" y="19" width="3" height="3" fill="hsl(20, 90%, 50%)" />
<rect x="13" y="19" width="3" height="3" fill="hsl(20, 90%, 50%)" />
<rect x="97" y="31" width="3" height="3" fill="hsl(20, 90%, 50%)" />
<rect x="97" y="34" width="3" height="3" fill="hsl(20, 90%, 50%)" />
<rect x="64" y="37" width="3" height="3" fill="hsl(20, 90%, 50%)" />
<rect x="67" y="37" width="3" height="3" fill="hsl(20, 90%, 50%)" />
<rect x="97" y="37" width="3" height="3" fill="hsl(20, 90%, 50%)" />
<rect x="100" y="37" width="3" height="3" fill="hsl(20, 90%, 50%)" />
<rect x="103" y="37" width="3" height="3" fill="hsl(20, 90%, 50%)" />
<rect x="64" y="40" width="3" height="3" fill="hsl(20, 90%, 50%)" />
<rect x="67" y="40" width="3" height="3" fill="hsl(20, 90%, 50%)" />
<rect x="103" y="40" width="3" height="3" fill="hsl(20, 90%, 50%)" />
<rect x="28" y="43" width="3" height="3" fill="hsl(20, 90%, 50%)" />
<rect x="31" y="43" width="3" height="3" fill="hsl(20, 90%, 50%)" />
<rect x="25" y="46" width="3" height="3" fill="hsl(20, 90%, 50%)" />
<rect x="34" y="46" width="3" height="3" fill="hsl(20, 90%, 50%)" />
<rect x="10" y="49" width="3" height="3" fill="hsl(20, 90%, 50%)" />
<rect x="13" y="49" width="3" height="3" fill="hsl(20, 90%, 50%)" />
<rect x="28" y="49" width="3" height="3" fill="hsl(20, 90%, 50%)" />
<rect x="31" y="49" width="3" height="3" fill="hsl(20, 90%, 50%)" />
<rect x="7" y="52" width="3" height="3" fill="hsl(20, 90%, 50%)" />
<rect x="13" y="52" width="3" height="3" fill="hsl(20, 90%, 50%)" />
<rect x="7" y="55" width="3" height="3" fill="hsl(20, 90%, 50%)" />
<rect x="4" y="58" width="3" height="3" fill="hsl(20, 90%, 50%)" />
<rect x="7" y="58" width="3" height="3" fill="hsl(20, 90%, 50%)" />
<rect x="34" y="61" width="3" height="3" fill="hsl(20, 90%, 50%)" />
<rect x="37" y="61" width="3" height="3" fill="hsl(20, 90%, 50%)" />
<rect x="34" y="64" width="3" height="3" fill="hsl(20, 90%, 50%)" />
<rect x="37" y="67" width="3" height="3" fill="hsl(20, 90%, 50%)" />
<rect x="40" y="67" width="3" height="3" fill="hsl(20, 90%, 50%)" />
<rect x="43" y="67" width="3" height="3" fill="hsl(20, 90%, 50%)" />
<rect x="43" y="70" width="3" height="3" fill="hsl(20, 90%, 50%)" />
<rect x="79" y="70" width="3" height="3" fill="hsl(20, 90%, 50%)" />
<rect x="82" y="70" width="3" height="3" fill="hsl(20, 90%, 50%)" />
<rect x="67" y="73" width="3" height="3" fill="hsl(20, 90%, 50%)" />
<rect x="70" y="73" width="3" height="3" fill="hsl(20, 90%, 50%)" />
<rect x="79" y="73" width="3" height="3" fill="hsl(20, 90%, 50%)" />
<rect x="82" y="73" width="3" height="3" fill="hsl(20, 90%, 50%)" />
<rect x="64" y="76" width="3" height="3" fill="hsl(20, 90%, 50%)" />
<rect x="70" y="76" width="3" height="3" fill="hsl(20, 90%, 50%)" />
<rect x="67" y="79" width="3" height="3" fill="hsl(20, 90%, 50%)" />
<rect x="55" y="82" width="3" height="3" fill="hsl(20, 90%, 50%)" />
<rect x="52" y="85" width="3" height="3" fill="hsl(20, 90%, 50%)" />
<rect x="58" y="85" width="3" height="3" fill="hsl(20, 90%, 50%)" />
<rect x="73" y="85" width="3" height="3" fill="hsl(20, 90%, 50%)" />
<rect x="76" y="85" width="3" height="3" fill="hsl(20, 90%, 50%)" />
<rect x="49" y="88" width="3" height="3" fill="hsl(20, 90%, 50%)" />
<rect x="61" y="88" width="3" height="3" fill="hsl(20, 90%, 50%)" />
<rect x="73" y="88" width="3" height="3" fill="hsl(20, 90%, 50%)" />
<rect x="46" y="91" width="3" height="3" fill="hsl(20, 90%, 50%)" />
<rect x="58" y="91" width="3" height="3" fill="hsl(20, 90%, 50%)" />
<rect x="76" y="91" width="3" height="3" fill="hsl(20, 90%, 50%)" />
<rect x="79" y="91" width="3" height="3" fill="hsl(20, 90%, 50%)" />
<rect x="82" y="91" width="3" height="3" fill="hsl(20, 90%, 50%)" />
<rect x="43" y="94" width="3" height="3" fill="hsl(20, 90%, 50%)" />
<rect x="55" y="94" width="3" height="3" fill="hsl(20, 90%, 50%)" />
<rect x="82" y="94" width="3" height="3" fill="hsl(20, 90%, 50%)" />
<rect x="40" y="97" width="3" height="3" fill="hsl(20, 90%, 50%)" />
<rect x="52" y="97" width="3" height="3" fill="hsl(20, 90%, 50%)" />
<rect x="43" y="100" width="3" height="3" fill="hsl(20, 90%, 50%)" />
<rect x="49" y="100" width="3" height="3" fill="hsl(20, 90%, 50%)" />
<rect x="46" y="103" width="3" height="3" fill="hsl(20, 90%, 50%)" />
</svg>