<?xml version="1.0" encoding="utf-8"?>
<svg xmlns="http://www.w3.org/2000/svg" width="116" height="100" viewBox="0 0 116 100">
<rect width="100%" height="100%" fill="transparent" />
<rect x="100" y="4" width="4" height="4" fill="hsl(20, 90%, 50%)" />
<rect x="100" y="8" width="4" height="4" fill="hsl(20, 90%, 50%)" />
<rect x="108" y="8" width="4" height="4" fill="hsl(20, 90%, 50%)" />
<rect x="100" y="12" width="4" height="4" fill="hsl(20, 90%, 50%)" />
<rect x="104" y="12" width="4" height="4" fill="hsl(20, 90%, 50%)" />
<rect x="64" y="40" width="4" height="4" fill="hsl(20, 90%, 50%)" />
<rect x="28" y="44" width="4" height="4" fill="hsl(20, 90%, 50%)" />
<rect x="32" y="44" width="4" height="4" fill="hsl(20, 90%, 50%)" />
<rect x="64" y="44" width="4" height="4" fill="hsl(20, 90%, 50%)" />
<rect x="72" y="44" width="4" height="4" fill="hsl(20, 90%, 50%)" />
<rect x="24" y="48" width="4" height="4" fill="hsl(20, 90%, 50%)" />
<rect x="32" y="48" width="4" height="4" fill="hsl(20, 90%, 50%)" />
<rect x="64" y="48" width="4" height="4" fill="hsl(20, 90%, 50%)" />
<rect x="68" y="48" width="4" height="4" fill="hsl(20, 90%, 50%)" />
<rect x="8" y="52" width="4" height="4" fill="hsl(20, 90%, 50%)" />
<rect x="12" y="52" width="4" height="4" fill="hsl(20, 90%, 50%)" />
<rect x="24" y="52" width="4" height="4" fill="hsl(20, 90%, 50%)" />
<rect x="8" y="56" width="4" height="4" fill="hsl(20, 90%, 50%)" />
<rect x="16" y="56" width="4" height="4" fill="hsl(20, 90%, 50%)" />
<rect x="24" y="56" width="4" height="4" fill="hsl(20, 90%, 50%)" />
<rect x="28" y="56" width="4" height="4" fill="hsl(20, 90%, 50%)" />
<rect x="56" y="56" width="4" height="4" fill="hsl(20, 90%, 50%)" />
<rect x="60" y="56" width="4" height="4" fill="hsl(20, 90%, 50%)" />
<rect x="16" y="60" width="4" height="4" fill="hsl(20, 90%, 50%)" />
<rect x="32" y="60" width="4" height="4" fill="hsl(20, 90%, 50%)" />
<rect x="52" y="60" width="4" height="4" fill="hsl(20, 90%, 50%)" />
<rect x="64" y="60" width="4" height="4" fill="hsl(20, 90%, 50%)" />
<rect x="4" y="64" width="4" height="4" fill="hsl(20, 90%, 50%)" />
<rect x="16" y="64" width="4" height="4" fill="hsl(20, 90%, 50%)" />
<rect x="24" y="64" width="4" height="4" fill="hsl(20, 90%, 50%)" />
<rect x="32" y="64" width="4" height="4" fill="hsl(20, 90%, 50%)" />
<rect x="36" y="64" width="4" height="4" fill="hsl(20, 90%, 50%)" />
<rect x="56" y="64" width="4" height="4" fill="hsl(20, 90%, 50%)" />
<rect x="64" y="64" width="4" height="4" fill="hsl(20, 90%, 50%)" />
<rect x="4" y="68" width="4" height="4" fill="hsl(20, 90%, 50%)" />
<rect x="8" y="68" width="4" height="4" fill="hsl(20, 90%, 50%)" />
<rect x="12" y="68" width="4" height="4" fill="hsl(20, 90%, 50%)" />
<rect x="24" y="68" width="4" height="4" fill="hsl(20, 90%, 50%)" />
<rect x="32" y="68" width="4" height="4" fill="hsl(20, 90%, 50%)" />
<rect x="60" y="68" width="4" height="4" fill="hsl(20, 90%, 50%)" />
<rect x="16" y="72" width="4" height="4" fill="hsl(20, 90%, 50%)" />
<rect x="20" y="72" width="4" height="4" fill="hsl(20, 90%, 50%)" />
<rect x="28" y="72" width="4" height="4" fill="hsl(20, 90%, 50%)" />
<rect x="12" y="76" width="4" height="4" fill="hsl(20, 90%, 50%)" />
<rect x="24" y="76" width="4" height="4" fill="hsl(20, 90%, 50%)" />
<rect x="36" y="76" width="4" height="4" fill="hsl(20, 90%, 50%)" />
<rect x="76" y="76" width="4" height="4" fill="hsl(20, 90%, 50%)" />
<rect x="80" y="76" width="4" height="4" fill="hsl(20, 90%, 50%)" />
<rect x="16" y="80" width="4" height="4" fill="hsl(20, 90%, 50%)" />
<rect x="20" y="80" width="4" height="4" fill="hsl(20, 90%, 50%)" />
<rect x="24" y="80" width="4" height="4" fill="hsl(20, 90%, 50%)" />
<rect x="28" y="80" width="4" height="4" fill="hsl(20, 90%, 50%)" />
<rect x="32" y="80" width="4" height="4" fill="hsl(20, 90%, 50%)" />
<rect x="36" y="80" width="4" height="4" fill="hsl(20, 90%, 50%)" />
<rect x="76" y="80" width="4" height="4" fill="hsl(20, 90%, 50%)" />
<rect x="80" y="84" width="4" height="4" fill="hsl(20, 90%, 50%)" />
<rect x="84" y="84" width="4" height="4" fill="hsl(20, 90%, 50%)" />
<rect x="88" y="84" width="4" height="4" fill="hsl(20, 90%, 50%)" />
<rect x="24" y="88" width="4" height="4" fill="hsl(20, 90%, 50%)" />
<rect x="28" y="88" width="4" height="4" fill="hsl(20, 90%, 50%)" />
<rect x="88" y="88" width="4" height="4" fill="hsl(20, 90%, 50%)" />
<rect x="24" y="92" width="4" height="4" fill="hsl(20, 90%, 50%)" />
<rect x="28" y="92" width="4" height="4" fill="hsl(20, 90%, 50%)" />
</svg>