<?xml version="1.0" encoding="utf-8"?>
<svg xmlns="http://www.w3.org/2000/svg" width="68" height="98" viewBox="0 0 68 98">
<rect width="100%" height="100%" fill="transparent" />
<rect x="16" y="4" width="2" height="2" fill="hsl(20, 90%, 50%)" />
<rect x="44" y="4" width="2" height="2" fill="hsl(20, 90%, 50%)" />
<rect x="14" y="6" width="2" height="2" fill="hsl(20, 90%, 50%)" />
<rect x="16" y="6" width="2" height="2" fill="hsl(20, 90%, 50%)" />
<rect x="18" y="6" width="2" height="2" fill="hsl(20, 90%, 50%)" />
<rect x="42" y="6" width="2" height="2" fill="hsl(20, 90%, 50%)" />
<rect x="44" y="6" width="2" height="2" fill="hsl(20, 90%, 50%)" />
<rect x="46" y="6" width="2" height="2" fill="hsl(20, 90%, 50%)" />
<rect x="10" y="8" width="2" height="2" fill="hsl(20, 90%, 50%)" />
<rect x="12" y="8" width="2" height="2" fill="hsl(20, 90%, 50%)" />
<rect x="16" y="8" width="2" height="2" fill="hsl(20, 90%, 50%)" />
<rect x="18" y="8" width="2" height="2" fill="hsl(20, 90%, 50%)" />
<rect x="20" y="8" width="2" height="2" fill="hsl(20, 90%, 50%)" />
<rect x="40" y="8" width="2" height="2" fill="hsl(20, 90%, 50%)" />
<rect x="42" y="8" width="2" height="2" fill="hsl(20, 90%, 50%)" />
<rect x="44" y="8" width="2" height="2" fill="hsl(20, 90%, 50%)" />
<rect x="48" y="8" width="2" height="2" fill="hsl(20, 90%, 50%)" />
<rect x="50" y="8" width="2" height="2" fill="hsl(20, 90%, 50%)" />
<rect x="12" y="10" width="2" height="2" fill="hsl(20, 90%, 50%)" />
<rect x="18" y="10" width="2" height="2" fill="hsl(20, 90%, 50%)" />
<rect x="22" y="10" width="2" height="2" fill="hsl(20, 90%, 50%)" />
<rect x="24" y="10" width="2" height="2" fill="hsl(20, 90%, 50%)" />
<rect x="36" y="10" width="2" height="2" fill="hsl(20, 90%, 50%)" />
<rect x="38" y="10" width="2" height="2" fill="hsl(20, 90%, 50%)" />
<rect x="42" y="10" width="2" height="2" fill="hsl(20, 90%, 50%)" />
<rect x="48" y="10" width="2" height="2" fill="hsl(20, 90%, 50%)" />
<rect x="6" y="12" width="2" height="2" fill="hsl(20, 90%, 50%)" />
<rect x="8" y="12" width="2" height="2" fill="hsl(20, 90%, 50%)" />
<rect x="12" y="12" width="2" height="2" fill="hsl(20, 90%, 50%)" />
<rect x="22" y="12" width="2" height="2" fill="hsl(20, 90%, 50%)" />
<rect x="26" y="12" width="2" height="2" fill="hsl(20, 90%, 50%)" />
<rect x="34" y="12" width="2" height="2" fill="hsl(20, 90%, 50%)" />
<rect x="38" y="12" width="2" height="2" fill="hsl(20, 90%, 50%)" />
<rect x="48" y="12" width="2" height="2" fill="hsl(20, 90%, 50%)" />
<rect x="52" y="12" width="2" height="2" fill="hsl(20, 90%, 50%)" />
<rect x="54" y="12" width="2" height="2" fill="hsl(20, 90%, 50%)" />
<rect x="6" y="14" width="2" height="2" fill="hsl(20, 90%, 50%)" />
<rect x="8" y="14" width="2" height="2" fill="hsl(20, 90%, 50%)" />
<rect x="12" y="14" width="2" height="2" fill="hsl(20, 90%, 50%)" />
<rect x="16" y="14" width="2" height="2" fill="hsl(20, 90%, 50%)" />
<rect x="22" y="14" width="2" height="2" fill="hsl(20, 90%, 50%)" />
<rect x="26" y="14" width="2" height="2" fill="hsl(20, 90%, 50%)" />
<rect x="28" y="14" width="2" height="2" fill="hsl(20, 90%, 50%)" />
<rect x="32" y="14" width="2" height="2" fill="hsl(20, 90%, 50%)" />
<rect x="34" y="14" width="2" height="2" fill="hsl(20, 90%, 50%)" />
<rect x="38" y="14" width="2" height="2" fill="hsl(20, 90%, 50%)" />
<rect x="44" y="14" width="2" height="2" fill="hsl(20, 90%, 50%)" />
<rect x="48" y="14" width="2" height="2" fill="hsl(20, 90%, 50%)" />
<rect x="52" y="14" width="2" height="2" fill="hsl(20, 90%, 50%)" />
<rect x="54" y="14" width="2" height="2" fill="hsl(20, 90%, 50%)" />
<rect x="6" y="16" width="2" height="2" fill="hsl(20, 90%, 50%)" />
<rect x="24" y="16" width="2" height="2" fill="hsl(20, 90%, 50%)" />
<rect x="28" y="16" width="2" height="2" fill="hsl(20, 90%, 50%)" />
<rect x="32" y="16" width="2" height="2" fill="hsl(20, 90%, 50%)" />
<rect x="36" y="16" width="2" height="2" fill="hsl(20, 90%, 50%)" />
<rect x="54" y="16" width="2" height="2" fill="hsl(20, 90%, 50%)" />
<rect x="4" y="18" width="2" height="2" fill="hsl(20, 90%, 50%)" />
<rect x="6" y="18" width="2" height="2" fill="hsl(20, 90%, 50%)" />
<rect x="22" y="18" width="2" height="2" fill="hsl(20, 90%, 50%)" />
<rect x="24" y="18" width="2" height="2" fill="hsl(20, 90%, 50%)" />
<rect x="28" y="18" width="2" height="2" fill="hsl(20, 90%, 50%)" />
<rect x="32" y="18" width="2" height="2" fill="hsl(20, 90%, 50%)" />
<rect x="36" y="18" width="2" height="2" fill="hsl(20, 90%, 50%)" />
<rect x="38" y="18" width="2" height="2" fill="hsl(20, 90%, 50%)" />
<rect x="54" y="18" width="2" height="2" fill="hsl(20, 90%, 50%)" />
<rect x="56" y="18" width="2" height="2" fill="hsl(20, 90%, 50%)" />
<rect x="28" y="20" width="2" height="2" fill="hsl(20, 90%, 50%)" />
<rect x="32" y="20" width="2" height="2" fill="hsl(20, 90%, 50%)" />
<rect x="18" y="22" width="2" height="2" fill="hsl(20, 90%, 50%)" />
<rect x="20" y="22" width="2" height="2" fill="hsl(20, 90%, 50%)" />
<rect x="22" y="22" width="2" height="2" fill="hsl(20, 90%, 50%)" />
<rect x="26" y="22" width="2" height="2" fill="hsl(20, 90%, 50%)" />
<rect x="34" y="22" width="2" height="2" fill="hsl(20, 90%, 50%)" />
<rect x="38" y="22" width="2" height="2" fill="hsl(20, 90%, 50%)" />
<rect x="40" y="22" width="2" height="2" fill="hsl(20, 90%, 50%)" />
<rect x="42" y="22" width="2" height="2" fill="hsl(20, 90%, 50%)" />
<rect x="16" y="24" width="2" height="2" fill="hsl(20, 90%, 50%)" />
<rect x="18" y="24" width="2" height="2" fill="hsl(20, 90%, 50%)" />
<rect x="42" y="24" width="2" height="2" fill="hsl(20, 90%, 50%)" />
<rect x="44" y="24" width="2" height="2" fill="hsl(20, 90%, 50%)" />
<rect x="16" y="26" width="2" height="2" fill="hsl(20, 90%, 50%)" />
<rect x="28" y="26" width="2" height="2" fill="hsl(20, 90%, 50%)" />
<rect x="38" y="26" width="2" height="2" fill="hsl(20, 90%, 50%)" />
<rect x="40" y="26" width="2" height="2" fill="hsl(20, 90%, 50%)" />
<rect x="46" y="26" width="2" height="2" fill="hsl(20, 90%, 50%)" />
<rect x="14" y="28" width="2" height="2" fill="hsl(20, 90%, 50%)" />
<rect x="16" y="28" width="2" height="2" fill="hsl(20, 90%, 50%)" />
<rect x="26" y="28" width="2" height="2" fill="hsl(20, 90%, 50%)" />
<rect x="28" y="28" width="2" height="2" fill="hsl(20, 90%, 50%)" />
<rect x="30" y="28" width="2" height="2" fill="hsl(20, 90%, 50%)" />
<rect x="38" y="28" width="2" height="2" fill="hsl(20, 90%, 50%)" />
<rect x="40" y="28" width="2" height="2" fill="hsl(20, 90%, 50%)" />
<rect x="46" y="28" width="2" height="2" fill="hsl(20, 90%, 50%)" />
<rect x="26" y="30" width="2" height="2" fill="hsl(20, 90%, 50%)" />
<rect x="30" y="30" width="2" height="2" fill="hsl(20, 90%, 50%)" />
<rect x="32" y="30" width="2" height="2" fill="hsl(20, 90%, 50%)" />
<rect x="40" y="30" width="2" height="2" fill="hsl(20, 90%, 50%)" />
<rect x="42" y="30" width="2" height="2" fill="hsl(20, 90%, 50%)" />
<rect x="44" y="30" width="2" height="2" fill="hsl(20, 90%, 50%)" />
<rect x="28" y="32" width="2" height="2" fill="hsl(20, 90%, 50%)" />
<rect x="30" y="32" width="2" height="2" fill="hsl(20, 90%, 50%)" />
<rect x="32" y="32" width="2" height="2" fill="hsl(20, 90%, 50%)" />
<rect x="42" y="32" width="2" height="2" fill="hsl(20, 90%, 50%)" />
<rect x="28" y="34" width="2" height="2" fill="hsl(20, 90%, 50%)" />
<rect x="30" y="34" width="2" height="2" fill="hsl(20, 90%, 50%)" />
<rect x="32" y="34" width="2" height="2" fill="hsl(20, 90%, 50%)" />
<rect x="28" y="36" width="2" height="2" fill="hsl(20, 90%, 50%)" />
<rect x="30" y="36" width="2" height="2" fill="hsl(20, 90%, 50%)" />
<rect x="32" y="36" width="2" height="2" fill="hsl(20, 90%, 50%)" />
<rect x="28" y="38" width="2" height="2" fill="hsl(20, 90%, 50%)" />
<rect x="30" y="38" width="2" height="2" fill="hsl(20, 90%, 50%)" />
<rect x="42" y="42" width="2" height="2" fill="hsl(20, 90%, 50%)" />
<rect x="46" y="42" width="2" height="2" fill="hsl(20, 90%, 50%)" />
<rect x="44" y="44" width="2" height="2" fill="hsl(20, 90%, 50%)" />
<rect x="46" y="44" width="2" height="2" fill="hsl(20, 90%, 50%)" />
<rect x="34" y="46" width="2" height="2" fill="hsl(20, 90%, 50%)" />
<rect x="36" y="46" width="2" height="2" fill="hsl(20, 90%, 50%)" />
<rect x="44" y="46" width="2" height="2" fill="hsl(20, 90%, 50%)" />
<rect x="20" y="48" width="2" height="2" fill="hsl(20, 90%, 50%)" />
<rect x="22" y="48" width="2" height="2" fill="hsl(20, 90%, 50%)" />
<rect x="36" y="48" width="2" height="2" fill="hsl(20, 90%, 50%)" />
<rect x="38" y="48" width="2" height="2" fill="hsl(20, 90%, 50%)" />
<rect x="18" y="50" width="2" height="2" fill="hsl(20, 90%, 50%)" />
<rect x="20" y="50" width="2" height="2" fill="hsl(20, 90%, 50%)" />
<rect x="34" y="50" width="2" height="2" fill="hsl(20, 90%, 50%)" />
<rect x="22" y="52" width="2" height="2" fill="hsl(20, 90%, 50%)" />
<rect x="38" y="58" width="2" height="2" fill="hsl(20, 90%, 50%)" />
<rect x="40" y="58" width="2" height="2" fill="hsl(20, 90%, 50%)" />
<rect x="24" y="60" width="2" height="2" fill="hsl(20, 90%, 50%)" />
<rect x="38" y="60" width="2" height="2" fill="hsl(20, 90%, 50%)" />
<rect x="40" y="60" width="2" height="2" fill="hsl(20, 90%, 50%)" />
<rect x="42" y="60" width="2" height="2" fill="hsl(20, 90%, 50%)" />
<rect x="22" y="62" width="2" height="2" fill="hsl(20, 90%, 50%)" />
<rect x="24" y="62" width="2" height="2" fill="hsl(20, 90%, 50%)" />
<rect x="26" y="62" width="2" height="2" fill="hsl(20, 90%, 50%)" />
<rect x="30" y="62" width="2" height="2" fill="hsl(20, 90%, 50%)" />
<rect x="38" y="62" width="2" height="2" fill="hsl(20, 90%, 50%)" />
<rect x="40" y="62" width="2" height="2" fill="hsl(20, 90%, 50%)" />
<rect x="42" y="62" width="2" height="2" fill="hsl(20, 90%, 50%)" />
<rect x="20" y="64" width="2" height="2" fill="hsl(20, 90%, 50%)" />
<rect x="22" y="64" width="2" height="2" fill="hsl(20, 90%, 50%)" />
<rect x="26" y="64" width="2" height="2" fill="hsl(20, 90%, 50%)" />
<rect x="38" y="64" width="2" height="2" fill="hsl(20, 90%, 50%)" />
<rect x="40" y="64" width="2" height="2" fill="hsl(20, 90%, 50%)" />
<rect x="42" y="64" width="2" height="2" fill="hsl(20, 90%, 50%)" />
<rect x="20" y="66" width="2" height="2" fill="hsl(20, 90%, 50%)" />
<rect x="22" y="66" width="2" height="2" fill="hsl(20, 90%, 50%)" />
<rect x="36" y="66" width="2" height="2" fill="hsl(20, 90%, 50%)" />
<rect x="40" y="66" width="2" height="2" fill="hsl(20, 90%, 50%)" />
<rect x="42" y="66" width="2" height="2" fill="hsl(20, 90%, 50%)" />
<rect x="20" y="68" width="2" height="2" fill="hsl(20, 90%, 50%)" />
<rect x="22" y="68" width="2" height="2" fill="hsl(20, 90%, 50%)" />
<rect x="36" y="68" width="2" height="2" fill="hsl(20, 90%, 50%)" />
<rect x="38" y="68" width="2" height="2" fill="hsl(20, 90%, 50%)" />
<rect x="40" y="68" width="2" height="2" fill="hsl(20, 90%, 50%)" />
<rect x="50" y="68" width="2" height="2" fill="hsl(20, 90%, 50%)" />
<rect x="52" y="68" width="2" height="2" fill="hsl(20, 90%, 50%)" />
<rect x="20" y="70" width="2" height="2" fill="hsl(20, 90%, 50%)" />
<rect x="22" y="70" width="2" height="2" fill="hsl(20, 90%, 50%)" />
<rect x="26" y="70" width="2" height="2" fill="hsl(20, 90%, 50%)" />
<rect x="28" y="70" width="2" height="2" fill="hsl(20, 90%, 50%)" />
<rect x="38" y="70" width="2" height="2" fill="hsl(20, 90%, 50%)" />
<rect x="50" y="70" width="2" height="2" fill="hsl(20, 90%, 50%)" />
<rect x="22" y="72" width="2" height="2" fill="hsl(20, 90%, 50%)" />
<rect x="24" y="72" width="2" height="2" fill="hsl(20, 90%, 50%)" />
<rect x="48" y="72" width="2" height="2" fill="hsl(20, 90%, 50%)" />
<rect x="50" y="72" width="2" height="2" fill="hsl(20, 90%, 50%)" />
<rect x="24" y="74" width="2" height="2" fill="hsl(20, 90%, 50%)" />
<rect x="26" y="74" width="2" height="2" fill="hsl(20, 90%, 50%)" />
<rect x="28" y="74" width="2" height="2" fill="hsl(20, 90%, 50%)" />
<rect x="32" y="74" width="2" height="2" fill="hsl(20, 90%, 50%)" />
<rect x="40" y="74" width="2" height="2" fill="hsl(20, 90%, 50%)" />
<rect x="44" y="74" width="2" height="2" fill="hsl(20, 90%, 50%)" />
<rect x="46" y="74" width="2" height="2" fill="hsl(20, 90%, 50%)" />
<rect x="48" y="74" width="2" height="2" fill="hsl(20, 90%, 50%)" />
<rect x="34" y="76" width="2" height="2" fill="hsl(20, 90%, 50%)" />
<rect x="38" y="76" width="2" height="2" fill="hsl(20, 90%, 50%)" />
<rect x="10" y="78" width="2" height="2" fill="hsl(20, 90%, 50%)" />
<rect x="12" y="78" width="2" height="2" fill="hsl(20, 90%, 50%)" />
<rect x="28" y="78" width="2" height="2" fill="hsl(20, 90%, 50%)" />
<rect x="30" y="78" width="2" height="2" fill="hsl(20, 90%, 50%)" />
<rect x="34" y="78" width="2" height="2" fill="hsl(20, 90%, 50%)" />
<rect x="38" y="78" width="2" height="2" fill="hsl(20, 90%, 50%)" />
<rect x="42" y="78" width="2" height="2" fill="hsl(20, 90%, 50%)" />
<rect x="44" y="78" width="2" height="2" fill="hsl(20, 90%, 50%)" />
<rect x="60" y="78" width="2" height="2" fill="hsl(20, 90%, 50%)" />
<rect x="62" y="78" width="2" height="2" fill="hsl(20, 90%, 50%)" />
<rect x="12" y="80" width="2" height="2" fill="hsl(20, 90%, 50%)" />
<rect x="30" y="80" width="2" height="2" fill="hsl(20, 90%, 50%)" />
<rect x="34" y="80" width="2" height="2" fill="hsl(20, 90%, 50%)" />
<rect x="38" y="80" width="2" height="2" fill="hsl(20, 90%, 50%)" />
<rect x="42" y="80" width="2" height="2" fill="hsl(20, 90%, 50%)" />
<rect x="60" y="80" width="2" height="2" fill="hsl(20, 90%, 50%)" />
<rect x="12" y="82" width="2" height="2" fill="hsl(20, 90%, 50%)" />
<rect x="14" y="82" width="2" height="2" fill="hsl(20, 90%, 50%)" />
<rect x="18" y="82" width="2" height="2" fill="hsl(20, 90%, 50%)" />
<rect x="22" y="82" width="2" height="2" fill="hsl(20, 90%, 50%)" />
<rect x="28" y="82" width="2" height="2" fill="hsl(20, 90%, 50%)" />
<rect x="32" y="82" width="2" height="2" fill="hsl(20, 90%, 50%)" />
<rect x="34" y="82" width="2" height="2" fill="hsl(20, 90%, 50%)" />
<rect x="38" y="82" width="2" height="2" fill="hsl(20, 90%, 50%)" />
<rect x="40" y="82" width="2" height="2" fill="hsl(20, 90%, 50%)" />
<rect x="44" y="82" width="2" height="2" fill="hsl(20, 90%, 50%)" />
<rect x="50" y="82" width="2" height="2" fill="hsl(20, 90%, 50%)" />
<rect x="54" y="82" width="2" height="2" fill="hsl(20, 90%, 50%)" />
<rect x="58" y="82" width="2" height="2" fill="hsl(20, 90%, 50%)" />
<rect x="60" y="82" width="2" height="2" fill="hsl(20, 90%, 50%)" />
<rect x="12" y="84" width="2" height="2" fill="hsl(20, 90%, 50%)" />
<rect x="14" y="84" width="2" height="2" fill="hsl(20, 90%, 50%)" />
<rect x="18" y="84" width="2" height="2" fill="hsl(20, 90%, 50%)" />
<rect x="28" y="84" width="2" height="2" fill="hsl(20, 90%, 50%)" />
<rect x="32" y="84" width="2" height="2" fill="hsl(20, 90%, 50%)" />
<rect x="40" y="84" width="2" height="2" fill="hsl(20, 90%, 50%)" />
<rect x="44" y="84" width="2" height="2" fill="hsl(20, 90%, 50%)" />
<rect x="54" y="84" width="2" height="2" fill="hsl(20, 90%, 50%)" />
<rect x="58" y="84" width="2" height="2" fill="hsl(20, 90%, 50%)" />
<rect x="60" y="84" width="2" height="2" fill="hsl(20, 90%, 50%)" />
<rect x="18" y="86" width="2" height="2" fill="hsl(20, 90%, 50%)" />
<rect x="24" y="86" width="2" height="2" fill="hsl(20, 90%, 50%)" />
<rect x="28" y="86" width="2" height="2" fill="hsl(20, 90%, 50%)" />
<rect x="30" y="86" width="2" height="2" fill="hsl(20, 90%, 50%)" />
<rect x="42" y="86" width="2" height="2" fill="hsl(20, 90%, 50%)" />
<rect x="44" y="86" width="2" height="2" fill="hsl(20, 90%, 50%)" />
<rect x="48" y="86" width="2" height="2" fill="hsl(20, 90%, 50%)" />
<rect x="54" y="86" width="2" height="2" fill="hsl(20, 90%, 50%)" />
<rect x="16" y="88" width="2" height="2" fill="hsl(20, 90%, 50%)" />
<rect x="18" y="88" width="2" height="2" fill="hsl(20, 90%, 50%)" />
<rect x="22" y="88" width="2" height="2" fill="hsl(20, 90%, 50%)" />
<rect x="24" y="88" width="2" height="2" fill="hsl(20, 90%, 50%)" />
<rect x="26" y="88" width="2" height="2" fill="hsl(20, 90%, 50%)" />
<rect x="46" y="88" width="2" height="2" fill="hsl(20, 90%, 50%)" />
<rect x="48" y="88" width="2" height="2" fill="hsl(20, 90%, 50%)" />
<rect x="50" y="88" width="2" height="2" fill="hsl(20, 90%, 50%)" />
<rect x="54" y="88" width="2" height="2" fill="hsl(20, 90%, 50%)" />
<rect x="56" y="88" width="2" height="2" fill="hsl(20, 90%, 50%)" />
<rect x="20" y="90" width="2" height="2" fill="hsl(20, 90%, 50%)" />
<rect x="22" y="90" width="2" height="2" fill="hsl(20, 90%, 50%)" />
<rect x="24" y="90" width="2" height="2" fill="hsl(20, 90%, 50%)" />
<rect x="48" y="90" width="2" height="2" fill="hsl(20, 90%, 50%)" />
<rect x="50" y="90" width="2" height="2" fill="hsl(20, 90%, 50%)" />
<rect x="52" y="90" width="2" height="2" fill="hsl(20, 90%, 50%)" />
<rect x="22" y="92" width="2" height="2" fill="hsl(20, 90%, 50%)" />
<rect x="50" y="92" width="2" height="2" fill="hsl(20, 90%, 50%)" />
</svg>