<?xml version="1.0" encoding="utf-8"?>
<svg xmlns="http://www.w3.org/2000/svg" width="128" height="128" viewBox="0 0 128 128">
<rect width="100%" height="100%" fill="transparent" />
<rect x="59" y="4" width="5" height="5" fill="hsl(20, 90%, 50%)" />
<rect x="64" y="4" width="5" height="5" fill="hsl(20, 90%, 50%)" />
<rect x="34" y="9" width="5" height="5" fill="hsl(20, 90%, 50%)" />
<rect x="39" y="9" width="5" height="5" fill="hsl(20, 90%, 50%)" />
<rect x="49" y="9" width="5" height="5" fill="hsl(20, 90%, 50%)" />
<rect x="74" y="9" width="5" height="5" fill="hsl(20, 90%, 50%)" />
<rect x="84" y="9" width="5" height="5" fill="hsl(20, 90%, 50%)" />
<rect x="89" y="9" width="5" height="5" fill="hsl(20, 90%, 50%)" />
<rect x="34" y="14" width="5" height="5" fill="hsl(20, 90%, 50%)" />
<rect x="89" y="14" width="5" height="5" fill="hsl(20, 90%, 50%)" />
<rect x="39" y="19" width="5" height="5" fill="hsl(20, 90%, 50%)" />
<rect x="44" y="19" width="5" height="5" fill="hsl(20, 90%, 50%)" />
<rect x="79" y="19" width="5" height="5" fill="hsl(20, 90%, 50%)" />
<rect x="84" y="19" width="5" height="5" fill="hsl(20, 90%, 50%)" />
<rect x="24" y="24" width="5" height="5" fill="hsl(20, 90%, 50%)" />
<rect x="29" y="24" width="5" height="5" fill="hsl(20, 90%, 50%)" />
<rect x="34" y="24" width="5" height="5" fill="hsl(20, 90%, 50%)" />
<rect x="49" y="24" width="5" height="5" fill="hsl(20, 90%, 50%)" />
<rect x="54" y="24" width="5" height="5" fill="hsl(20, 90%, 50%)" />
<rect x="59" y="24" width="5" height="5" fill="hsl(20, 90%, 50%)" />
<rect x="64" y="24" width="5" height="5" fill="hsl(20, 90%, 50%)" />
<rect x="69" y="24" width="5" height="5" fill="hsl(20, 90%, 50%)" />
<rect x="74" y="24" width="5" height="5" fill="hsl(20, 90%, 50%)" />
<rect x="89" y="24" width="5" height="5" fill="hsl(20, 90%, 50%)" />
<rect x="94" y="24" width="5" height="5" fill="hsl(20, 90%, 50%)" />
<rect x="99" y="24" width="5" height="5" fill="hsl(20, 90%, 50%)" />
<rect x="24" y="29" width="5" height="5" fill="hsl(20, 90%, 50%)" />
<rect x="39" y="29" width="5" height="5" fill="hsl(20, 90%, 50%)" />
<rect x="84" y="29" width="5" height="5" fill="hsl(20, 90%, 50%)" />
<rect x="99" y="29" width="5" height="5" fill="hsl(20, 90%, 50%)" />
<rect x="9" y="34" width="5" height="5" fill="hsl(20, 90%, 50%)" />
<rect x="14" y="34" width="5" height="5" fill="hsl(20, 90%, 50%)" />
<rect x="24" y="34" width="5" height="5" fill="hsl(20, 90%, 50%)" />
<rect x="34" y="34" width="5" height="5" fill="hsl(20, 90%, 50%)" />
<rect x="89" y="34" width="5" height="5" fill="hsl(20, 90%, 50%)" />
<rect x="99" y="34" width="5" height="5" fill="hsl(20, 90%, 50%)" />
<rect x="109" y="34" width="5" height="5" fill="hsl(20, 90%, 50%)" />
<rect x="114" y="34" width="5" height="5" fill="hsl(20, 90%, 50%)" />
<rect x="9" y="39" width="5" height="5" fill="hsl(20, 90%, 50%)" />
<rect x="19" y="39" width="5" height="5" fill="hsl(20, 90%, 50%)" />
<rect x="29" y="39" width="5" height="5" fill="hsl(20, 90%, 50%)" />
<rect x="94" y="39" width="5" height="5" fill="hsl(20, 90%, 50%)" />
<rect x="104" y="39" width="5" height="5" fill="hsl(20, 90%, 50%)" />
<rect x="114" y="39" width="5" height="5" fill="hsl(20, 90%, 50%)" />
<rect x="19" y="44" width="5" height="5" fill="hsl(20, 90%, 50%)" />
<rect x="104" y="44" width="5" height="5" fill="hsl(20, 90%, 50%)" />
<rect x="9" y="49" width="5" height="5" fill="hsl(20, 90%, 50%)" />
<rect x="24" y="49" width="5" height="5" fill="hsl(20, 90%, 50%)" />
<rect x="99" y="49" width="5" height="5" fill="hsl(20, 90%, 50%)" />
<rect x="114" y="49" width="5" height="5" fill="hsl(20, 90%, 50%)" />
<rect x="24" y="54" width="5" height="5" fill="hsl(20, 90%, 50%)" />
<rect x="64" y="54" width="5" height="5" fill="hsl(20, 90%, 50%)" />
<rect x="69" y="54" width="5" height="5" fill="hsl(20, 90%, 50%)" />
<rect x="74" y="54" width="5" height="5" fill="hsl(20, 90%, 50%)" />
<rect x="99" y="54" width="5" height="5" fill="hsl(20, 90%, 50%)" />
<rect x="4" y="59" width="5" height="5" fill="hsl(20, 90%, 50%)" />
<rect x="24" y="59" width="5" height="5" fill="hsl(20, 90%, 50%)" />
<rect x="64" y="59" width="5" height="5" fill="hsl(20, 90%, 50%)" />
<rect x="74" y="59" width="5" height="5" fill="hsl(20, 90%, 50%)" />
<rect x="99" y="59" width="5" height="5" fill="hsl(20, 90%, 50%)" />
<rect x="119" y="59" width="5" height="5" fill="hsl(20, 90%, 50%)" />
<rect x="4" y="64" width="5" height="5" fill="hsl(20, 90%, 50%)" />
<rect x="24" y="64" width="5" height="5" fill="hsl(20, 90%, 50%)" />
<rect x="64" y="64" width="5" height="5" fill="hsl(20, 90%, 50%)" />
<rect x="74" y="64" width="5" height="5" fill="hsl(20, 90%, 50%)" />
<rect x="99" y="64" width="5" height="5" fill="hsl(20, 90%, 50%)" />
<rect x="119" y="64" width="5" height="5" fill="hsl(20, 90%, 50%)" />
<rect x="24" y="69" width="5" height="5" fill="hsl(20, 90%, 50%)" />
<rect x="99" y="69" width="5" height="5" fill="hsl(20, 90%, 50%)" />
<rect x="9" y="74" width="5" height="5" fill="hsl(20, 90%, 50%)" />
<rect x="24" y="74" width="5" height="5" fill="hsl(20, 90%, 50%)" />
<rect x="99" y="74" width="5" height="5" fill="hsl(20, 90%, 50%)" />
<rect x="114" y="74" width="5" height="5" fill="hsl(20, 90%, 50%)" />
<rect x="19" y="79" width="5" height="5" fill="hsl(20, 90%, 50%)" />
<rect x="104" y="79" width="5" height="5" fill="hsl(20, 90%, 50%)" />
<rect x="9" y="84" width="5" height="5" fill="hsl(20, 90%, 50%)" />
<rect x="19" y="84" width="5" height="5" fill="hsl(20, 90%, 50%)" />
<rect x="29" y="84" width="5" height="5" fill="hsl(20, 90%, 50%)" />
<rect x="94" y="84" width="5" height="5" fill="hsl(20, 90%, 50%)" />
<rect x="104" y="84" width="5" height="5" fill="hsl(20, 90%, 50%)" />
<rect x="114" y="84" width="5" height="5" fill="hsl(20, 90%, 50%)" />
<rect x="9" y="89" width="5" height="5" fill="hsl(20, 90%, 50%)" />
<rect x="14" y="89" width="5" height="5" fill="hsl(20, 90%, 50%)" />
<rect x="24" y="89" width="5" height="5" fill="hsl(20, 90%, 50%)" />
<rect x="34" y="89" width="5" height="5" fill="hsl(20, 90%, 50%)" />
<rect x="89" y="89" width="5" height="5" fill="hsl(20, 90%, 50%)" />
<rect x="99" y="89" width="5" height="5" fill="hsl(20, 90%, 50%)" />
<rect x="109" y="89" width="5" height="5" fill="hsl(20, 90%, 50%)" />
<rect x="114" y="89" width="5" height="5" fill="hsl(20, 90%, 50%)" />
<rect x="24" y="94" width="5" height="5" fill="hsl(20, 90%, 50%)" />
<rect x="39" y="94" width="5" height="5" fill="hsl(20, 90%, 50%)" />
<rect x="84" y="94" width="5" height="5" fill="hsl(20, 90%, 50%)" />
<rect x="99" y="94" width="5" height="5" fill="hsl(20, 90%, 50%)" />
<rect x="24" y="99" width="5" height="5" fill="hsl(20, 90%, 50%)" />
<rect x="29" y="99" width="5" height="5" fill="hsl(20, 90%, 50%)" />
<rect x="34" y="99" width="5" height="5" fill="hsl(20, 90%, 50%)" />
<rect x="49" y="99" width="5" height="5" fill="hsl(20, 90%, 50%)" />
<rect x="54" y="99" width="5" height="5" fill="hsl(20, 90%, 50%)" />
<rect x="59" y="99" width="5" height="5" fill="hsl(20, 90%, 50%)" />
<rect x="64" y="99" width="5" height="5" fill="hsl(20, 90%, 50%)" />
<rect x="69" y="99" width="5" height="5" fill="hsl(20, 90%, 50%)" />
<rect x="74" y="99" width="5" height="5" fill="hsl(20, 90%, 50%)" />
<rect x="89" y="99" width="5" height="5" fill="hsl(20, 90%, 50%)" />
<rect x="94" y="99" width="5" height="5" fill="hsl(20, 90%, 50%)" />
<rect x="99" y="99" width="5" height="5" fill="hsl(20, 90%, 50%)" />
<rect x="39" y="104" width="5" height="5" fill="hsl(20, 90%, 50%)" />
<rect x="44" y="104" width="5" height="5" fill="hsl(20, 90%, 50%)" />
<rect x="79" y="104" width="5" height="5" fill="hsl(20, 90%, 50%)" />
<rect x="84" y="104" width="5" height="5" fill="hsl(20, 90%, 50%)" />
<rect x="34" y="109" width="5" height="5" fill="hsl(20, 90%, 50%)" />
<rect x="89" y="109" width="5" height="5" fill="hsl(20, 90%, 50%)" />
<rect x="34" y="114" width="5" height="5" fill="hsl(20, 90%, 50%)" />
<rect x="39" y="114" width="5" height="5" fill="hsl(20, 90%, 50%)" />
<rect x="49" y="114" width="5" height="5" fill="hsl(20, 90%, 50%)" />
<rect x="74" y="114" width="5" height="5" fill="hsl(20, 90%, 50%)" />
<rect x="84" y="114" width="5" height="5" fill="hsl(20, 90%, 50%)" />
<rect x="89" y="114" width="5" height="5" fill="hsl(20, 90%, 50%)" />
<rect x="59" y="119" width="5" height="5" fill="hsl(20, 90%, 50%)" />
<rect x="64" y="119" width="5" height="5" fill="hsl(20, 90%, 50%)" />
</svg>