<?xml version="1.0" encoding="utf-8"?>
<svg xmlns="http://www.w3.org/2000/svg" width="118" height="53" viewBox="0 0 118 53">
<rect width="100%" height="100%" fill="transparent" />
<rect x="49" y="4" width="5" height="5" fill="hsl(20, 90%, 50%)" />
<rect x="39" y="9" width="5" height="5" fill="hsl(20, 90%, 50%)" />
<rect x="49" y="9" width="5" height="5" fill="hsl(20, 90%, 50%)" />
<rect x="34" y="14" width="5" height="5" fill="hsl(20, 90%, 50%)" />
<rect x="44" y="14" width="5" height="5" fill="hsl(20, 90%, 50%)" />
<rect x="4" y="19" width="5" height="5" fill="hsl(20, 90%, 50%)" />
<rect x="9" y="19" width="5" height="5" fill="hsl(20, 90%, 50%)" />
<rect x="29" y="19" width="5" height="5" fill="hsl(20, 90%, 50%)" />
<rect x="44" y="19" width="5" height="5" fill="hsl(20, 90%, 50%)" />
<rect x="4" y="24" width="5" height="5" fill="hsl(20, 90%, 50%)" />
<rect x="9" y="24" width="5" height="5" fill="hsl(20, 90%, 50%)" />
<rect x="34" y="24" width="5" height="5" fill="hsl(20, 90%, 50%)" />
<rect x="44" y="24" width="5" height="5" fill="hsl(20, 90%, 50%)" />
<rect x="39" y="29" width="5" height="5" fill="hsl(20, 90%, 50%)" />
<rect x="49" y="29" width="5" height="5" fill="hsl(20, 90%, 50%)" />
<rect x="94" y="29" width="5" height="5" fill="hsl(20, 90%, 50%)" />
<rect x="99" y="29" width="5" height="5" fill="hsl(20, 90%, 50%)" />
<rect x="49" y="34" width="5" height="5" fill="hsl(20, 90%, 50%)" />
<rect x="94" y="34" width="5" height="5" fill="hsl(20, 90%, 50%)" />
<rect x="104" y="34" width="5" height="5" fill="hsl(20, 90%, 50%)" />
<rect x="104" y="39" width="5" height="5" fill="hsl(20, 90%, 50%)" />
<rect x="104" y="44" width="5" height="5" fill="hsl(20, 90%, 50%)" />
<rect x="109" y="44" width="5" height="5" fill="hsl(20, 90%, 50%)" />
</svg>