<?xml version="1.0" encoding="utf-8"?>
<svg xmlns="http://www.w3.org/2000/svg" width="110" height="83" viewBox="0 0 110 83">
<rect width="100%" height="100%" fill="transparent" />
<rect x="34" y="4" width="3" height="3" fill="hsl(20, 90%, 50%)" />
<rect x="31" y="7" width="3" height="3" fill="hsl(20, 90%, 50%)" />
<rect x="37" y="7" width="3" height="3" fill="hsl(20, 90%, 50%)" />
<rect x="31" y="10" width="3" height="3" fill="hsl(20, 90%, 50%)" />
<rect x="37" y="10" width="3" height="3" fill="hsl(20, 90%, 50%)" />
<rect x="34" y="13" width="3" height="3" fill="hsl(20, 90%, 50%)" />
<rect x="49" y="19" width="3" height="3" fill="hsl(20, 90%, 50%)" />
<rect x="52" y="19" width="3" height="3" fill="hsl(20, 90%, 50%)" />
<rect x="55" y="19" width="3" height="3" fill="hsl(20, 90%, 50%)" />
<rect x="97" y="19" width="3" height="3" fill="hsl(20, 90%, 50%)" />
<rect x="100" y="19" width="3" height="3" fill="hsl(20, 90%, 50%)" />
<rect x="103" y="19" width="3" height="3" fill="hsl(20, 90%, 50%)" />
<rect x="46" y="22" width="3" height="3" fill="hsl(20, 90%, 50%)" />
<rect x="55" y="22" width="3" height="3" fill="hsl(20, 90%, 50%)" />
<rect x="73" y="22" width="3" height="3" fill="hsl(20, 90%, 50%)" />
<rect x="76" y="22" width="3" height="3" fill="hsl(20, 90%, 50%)" />
<rect x="79" y="22" width="3" height="3" fill="hsl(20, 90%, 50%)" />
<rect x="94" y="22" width="3" height="3" fill="hsl(20, 90%, 50%)" />
<rect x="103" y="22" width="3" height="3" fill="hsl(20, 90%, 50%)" />
<rect x="55" y="25" width="3" height="3" fill="hsl(20, 90%, 50%)" />
<rect x="70" y="25" width="3" height="3" fill="hsl(20, 90%, 50%)" />
<rect x="79" y="25" width="3" height="3" fill="hsl(20, 90%, 50%)" />
<rect x="103" y="25" width="3" height="3" fill="hsl(20, 90%, 50%)" />
<rect x="43" y="28" width="3" height="3" fill="hsl(20, 90%, 50%)" />
<rect x="55" y="28" width="3" height="3" fill="hsl(20, 90%, 50%)" />
<rect x="70" y="28" width="3" height="3" fill="hsl(20, 90%, 50%)" />
<rect x="82" y="28" width="3" height="3" fill="hsl(20, 90%, 50%)" />
<rect x="91" y="28" width="3" height="3" fill="hsl(20, 90%, 50%)" />
<rect x="103" y="28" width="3" height="3" fill="hsl(20, 90%, 50%)" />
<rect x="55" y="31" width="3" height="3" fill="hsl(20, 90%, 50%)" />
<rect x="64" y="31" width="3" height="3" fill="hsl(20, 90%, 50%)" />
<rect x="76" y="31" width="3" height="3" fill="hsl(20, 90%, 50%)" />
<rect x="82" y="31" width="3" height="3" fill="hsl(20, 90%, 50%)" />
<rect x="103" y="31" width="3" height="3" fill="hsl(20, 90%, 50%)" />
<rect x="10" y="34" width="3" height="3" fill="hsl(20, 90%, 50%)" />
<rect x="13" y="34" width="3" height="3" fill="hsl(20, 90%, 50%)" />
<rect x="16" y="34" width="3" height="3" fill="hsl(20, 90%, 50%)" />
<rect x="55" y="34" width="3" height="3" fill="hsl(20, 90%, 50%)" />
<rect x="61" y="34" width="3" height="3" fill="hsl(20, 90%, 50%)" />
<rect x="88" y="34" width="3" height="3" fill="hsl(20, 90%, 50%)" />
<rect x="91" y="34" width="3" height="3" fill="hsl(20, 90%, 50%)" />
<rect x="100" y="34" width="3" height="3" fill="hsl(20, 90%, 50%)" />
<rect x="7" y="37" width="3" height="3" fill="hsl(20, 90%, 50%)" />
<rect x="16" y="37" width="3" height="3" fill="hsl(20, 90%, 50%)" />
<rect x="61" y="37" width="3" height="3" fill="hsl(20, 90%, 50%)" />
<rect x="88" y="37" width="3" height="3" fill="hsl(20, 90%, 50%)" />
<rect x="91" y="37" width="3" height="3" fill="hsl(20, 90%, 50%)" />
<rect x="94" y="37" width="3" height="3" fill="hsl(20, 90%, 50%)" />
<rect x="97" y="37" width="3" height="3" fill="hsl(20, 90%, 50%)" />
<rect x="100" y="37" width="3" height="3" fill="hsl(20, 90%, 50%)" />
<rect x="16" y="40" width="3" height="3" fill="hsl(20, 90%, 50%)" />
<rect x="49" y="40" width="3" height="3" fill="hsl(20, 90%, 50%)" />
<rect x="52" y="40" width="3" height="3" fill="hsl(20, 90%, 50%)" />
<rect x="55" y="40" width="3" height="3" fill="hsl(20, 90%, 50%)" />
<rect x="67" y="40" width="3" height="3" fill="hsl(20, 90%, 50%)" />
<rect x="88" y="40" width="3" height="3" fill="hsl(20, 90%, 50%)" />
<rect x="91" y="40" width="3" height="3" fill="hsl(20, 90%, 50%)" />
<rect x="4" y="43" width="3" height="3" fill="hsl(20, 90%, 50%)" />
<rect x="16" y="43" width="3" height="3" fill="hsl(20, 90%, 50%)" />
<rect x="97" y="43" width="3" height="3" fill="hsl(20, 90%, 50%)" />
<rect x="100" y="43" width="3" height="3" fill="hsl(20, 90%, 50%)" />
<rect x="4" y="46" width="3" height="3" fill="hsl(20, 90%, 50%)" />
<rect x="16" y="46" width="3" height="3" fill="hsl(20, 90%, 50%)" />
<rect x="16" y="49" width="3" height="3" fill="hsl(20, 90%, 50%)" />
<rect x="7" y="52" width="3" height="3" fill="hsl(20, 90%, 50%)" />
<rect x="13" y="52" width="3" height="3" fill="hsl(20, 90%, 50%)" />
<rect x="61" y="52" width="3" height="3" fill="hsl(20, 90%, 50%)" />
<rect x="58" y="55" width="3" height="3" fill="hsl(20, 90%, 50%)" />
<rect x="61" y="55" width="3" height="3" fill="hsl(20, 90%, 50%)" />
<rect x="64" y="55" width="3" height="3" fill="hsl(20, 90%, 50%)" />
<rect x="55" y="58" width="3" height="3" fill="hsl(20, 90%, 50%)" />
<rect x="58" y="58" width="3" height="3" fill="hsl(20, 90%, 50%)" />
<rect x="64" y="58" width="3" height="3" fill="hsl(20, 90%, 50%)" />
<rect x="16" y="61" width="3" height="3" fill="hsl(20, 90%, 50%)" />
<rect x="55" y="61" width="3" height="3" fill="hsl(20, 90%, 50%)" />
<rect x="58" y="61" width="3" height="3" fill="hsl(20, 90%, 50%)" />
<rect x="61" y="61" width="3" height="3" fill="hsl(20, 90%, 50%)" />
<rect x="13" y="64" width="3" height="3" fill="hsl(20, 90%, 50%)" />
<rect x="16" y="64" width="3" height="3" fill="hsl(20, 90%, 50%)" />
<rect x="19" y="64" width="3" height="3" fill="hsl(20, 90%, 50%)" />
<rect x="55" y="64" width="3" height="3" fill="hsl(20, 90%, 50%)" />
<rect x="58" y="64" width="3" height="3" fill="hsl(20, 90%, 50%)" />
<rect x="61" y="64" width="3" height="3" fill="hsl(20, 90%, 50%)" />
<rect x="13" y="67" width="3" height="3" fill="hsl(20, 90%, 50%)" />
<rect x="19" y="67" width="3" height="3" fill="hsl(20, 90%, 50%)" />
<rect x="22" y="67" width="3" height="3" fill="hsl(20, 90%, 50%)" />
<rect x="55" y="67" width="3" height="3" fill="hsl(20, 90%, 50%)" />
<rect x="58" y="67" width="3" height="3" fill="hsl(20, 90%, 50%)" />
<rect x="61" y="67" width="3" height="3" fill="hsl(20, 90%, 50%)" />
<rect x="16" y="70" width="3" height="3" fill="hsl(20, 90%, 50%)" />
<rect x="19" y="70" width="3" height="3" fill="hsl(20, 90%, 50%)" />
<rect x="22" y="70" width="3" height="3" fill="hsl(20, 90%, 50%)" />
<rect x="58" y="70" width="3" height="3" fill="hsl(20, 90%, 50%)" />
<rect x="61" y="70" width="3" height="3" fill="hsl(20, 90%, 50%)" />
<rect x="16" y="73" width="3" height="3" fill="hsl(20, 90%, 50%)" />
<rect x="19" y="73" width="3" height="3" fill="hsl(20, 90%, 50%)" />
<rect x="22" y="73" width="3" height="3" fill="hsl(20, 90%, 50%)" />
<rect x="16" y="76" width="3" height="3" fill="hsl(20, 90%, 50%)" />
<rect x="19" y="76" width="3" height="3" fill="hsl(20, 90%, 50%)" />
</svg>