<?xml version="1.0" encoding="utf-8"?>
<svg xmlns="http://www.w3.org/2000/svg" width="96" height="88" viewBox="0 0 96 88">
<rect width="100%" height="100%" fill="transparent" />
<rect x="8" y="4" width="2" height="2" fill="hsl(20, 90%, 50%)" />
<rect x="4" y="6" width="2" height="2" fill="hsl(20, 90%, 50%)" />
<rect x="8" y="6" width="2" height="2" fill="hsl(20, 90%, 50%)" />
<rect x="6" y="8" width="2" height="2" fill="hsl(20, 90%, 50%)" />
<rect x="8" y="8" width="2" height="2" fill="hsl(20, 90%, 50%)" />
<rect x="32" y="12" width="2" height="2" fill="hsl(20, 90%, 50%)" />
<rect x="30" y="14" width="2" height="2" fill="hsl(20, 90%, 50%)" />
<rect x="34" y="14" width="2" height="2" fill="hsl(20, 90%, 50%)" />
<rect x="30" y="16" width="2" height="2" fill="hsl(20, 90%, 50%)" />
<rect x="34" y="16" width="2" height="2" fill="hsl(20, 90%, 50%)" />
<rect x="32" y="18" width="2" height="2" fill="hsl(20, 90%, 50%)" />
<rect x="50" y="42" width="2" height="2" fill="hsl(20, 90%, 50%)" />
<rect x="52" y="42" width="2" height="2" fill="hsl(20, 90%, 50%)" />
<rect x="50" y="44" width="2" height="2" fill="hsl(20, 90%, 50%)" />
<rect x="52" y="44" width="2" height="2" fill="hsl(20, 90%, 50%)" />
<rect x="14" y="48" width="2" height="2" fill="hsl(20, 90%, 50%)" />
<rect x="16" y="48" width="2" height="2" fill="hsl(20, 90%, 50%)" />
<rect x="12" y="50" width="2" height="2" fill="hsl(20, 90%, 50%)" />
<rect x="16" y="50" width="2" height="2" fill="hsl(20, 90%, 50%)" />
<rect x="12" y="52" width="2" height="2" fill="hsl(20, 90%, 50%)" />
<rect x="10" y="54" width="2" height="2" fill="hsl(20, 90%, 50%)" />
<rect x="12" y="54" width="2" height="2" fill="hsl(20, 90%, 50%)" />
<rect x="72" y="56" width="2" height="2" fill="hsl(20, 90%, 50%)" />
<rect x="74" y="56" width="2" height="2" fill="hsl(20, 90%, 50%)" />
<rect x="70" y="58" width="2" height="2" fill="hsl(20, 90%, 50%)" />
<rect x="76" y="58" width="2" height="2" fill="hsl(20, 90%, 50%)" />
<rect x="82" y="58" width="2" height="2" fill="hsl(20, 90%, 50%)" />
<rect x="84" y="58" width="2" height="2" fill="hsl(20, 90%, 50%)" />
<rect x="70" y="60" width="2" height="2" fill="hsl(20, 90%, 50%)" />
<rect x="74" y="60" width="2" height="2" fill="hsl(20, 90%, 50%)" />
<rect x="84" y="60" width="2" height="2" fill="hsl(20, 90%, 50%)" />
<rect x="32" y="62" width="2" height="2" fill="hsl(20, 90%, 50%)" />
<rect x="34" y="62" width="2" height="2" fill="hsl(20, 90%, 50%)" />
<rect x="72" y="62" width="2" height="2" fill="hsl(20, 90%, 50%)" />
<rect x="84" y="62" width="2" height="2" fill="hsl(20, 90%, 50%)" />
<rect x="88" y="62" width="2" height="2" fill="hsl(20, 90%, 50%)" />
<rect x="90" y="62" width="2" height="2" fill="hsl(20, 90%, 50%)" />
<rect x="30" y="64" width="2" height="2" fill="hsl(20, 90%, 50%)" />
<rect x="34" y="64" width="2" height="2" fill="hsl(20, 90%, 50%)" />
<rect x="78" y="64" width="2" height="2" fill="hsl(20, 90%, 50%)" />
<rect x="80" y="64" width="2" height="2" fill="hsl(20, 90%, 50%)" />
<rect x="84" y="64" width="2" height="2" fill="hsl(20, 90%, 50%)" />
<rect x="88" y="64" width="2" height="2" fill="hsl(20, 90%, 50%)" />
<rect x="30" y="66" width="2" height="2" fill="hsl(20, 90%, 50%)" />
<rect x="78" y="66" width="2" height="2" fill="hsl(20, 90%, 50%)" />
<rect x="84" y="66" width="2" height="2" fill="hsl(20, 90%, 50%)" />
<rect x="90" y="66" width="2" height="2" fill="hsl(20, 90%, 50%)" />
<rect x="28" y="68" width="2" height="2" fill="hsl(20, 90%, 50%)" />
<rect x="30" y="68" width="2" height="2" fill="hsl(20, 90%, 50%)" />
<rect x="72" y="68" width="2" height="2" fill="hsl(20, 90%, 50%)" />
<rect x="82" y="68" width="2" height="2" fill="hsl(20, 90%, 50%)" />
<rect x="88" y="68" width="2" height="2" fill="hsl(20, 90%, 50%)" />
<rect x="90" y="68" width="2" height="2" fill="hsl(20, 90%, 50%)" />
<rect x="72" y="70" width="2" height="2" fill="hsl(20, 90%, 50%)" />
<rect x="74" y="70" width="2" height="2" fill="hsl(20, 90%, 50%)" />
<rect x="76" y="70" width="2" height="2" fill="hsl(20, 90%, 50%)" />
<rect x="78" y="70" width="2" height="2" fill="hsl(20, 90%, 50%)" />
<rect x="80" y="70" width="2" height="2" fill="hsl(20, 90%, 50%)" />
<rect x="76" y="74" width="2" height="2" fill="hsl(20, 90%, 50%)" />
<rect x="78" y="74" width="2" height="2" fill="hsl(20, 90%, 50%)" />
<rect x="82" y="74" width="2" height="2" fill="hsl(20, 90%, 50%)" />
<rect x="76" y="76" width="2" height="2" fill="hsl(20, 90%, 50%)" />
<rect x="80" y="76" width="2" height="2" fill="hsl(20, 90%, 50%)" />
<rect x="82" y="76" width="2" height="2" fill="hsl(20, 90%, 50%)" />
<rect x="60" y="78" width="2" height="2" fill="hsl(20, 90%, 50%)" />
<rect x="62" y="78" width="2" height="2" fill="hsl(20, 90%, 50%)" />
<rect x="64" y="78" width="2" height="2" fill="hsl(20, 90%, 50%)" />
<rect x="60" y="80" width="2" height="2" fill="hsl(20, 90%, 50%)" />
<rect x="62" y="82" width="2" height="2" fill="hsl(20, 90%, 50%)" />
</svg>