<?xml version="1.0" encoding="utf-8"?>
<svg xmlns="http://www.w3.org/2000/svg" width="96" height="76" viewBox="0 0 96 76">
<rect width="100%" height="100%" fill="transparent" />
<rect x="20" y="4" width="2" height="2" fill="hsl(20, 90%, 50%)" />
<rect x="74" y="4" width="2" height="2" fill="hsl(20, 90%, 50%)" />
<rect x="18" y="6" width="2" height="2" fill="hsl(20, 90%, 50%)" />
<rect x="22" y="6" width="2" height="2" fill="hsl(20, 90%, 50%)" />
<rect x="38" y="6" width="2" height="2" fill="hsl(20, 90%, 50%)" />
<rect x="72" y="6" width="2" height="2" fill="hsl(20, 90%, 50%)" />
<rect x="76" y="6" width="2" height="2" fill="hsl(20, 90%, 50%)" />
<rect x="90" y="6" width="2" height="2" fill="hsl(20, 90%, 50%)" />
<rect x="20" y="8" width="2" height="2" fill="hsl(20, 90%, 50%)" />
<rect x="34" y="8" width="2" height="2" fill="hsl(20, 90%, 50%)" />
<rect x="36" y="8" width="2" height="2" fill="hsl(20, 90%, 50%)" />
<rect x="38" y="8" width="2" height="2" fill="hsl(20, 90%, 50%)" />
<rect x="74" y="8" width="2" height="2" fill="hsl(20, 90%, 50%)" />
<rect x="86" y="8" width="2" height="2" fill="hsl(20, 90%, 50%)" />
<rect x="88" y="8" width="2" height="2" fill="hsl(20, 90%, 50%)" />
<rect x="90" y="8" width="2" height="2" fill="hsl(20, 90%, 50%)" />
<rect x="32" y="10" width="2" height="2" fill="hsl(20, 90%, 50%)" />
<rect x="84" y="10" width="2" height="2" fill="hsl(20, 90%, 50%)" />
<rect x="32" y="12" width="2" height="2" fill="hsl(20, 90%, 50%)" />
<rect x="34" y="12" width="2" height="2" fill="hsl(20, 90%, 50%)" />
<rect x="84" y="12" width="2" height="2" fill="hsl(20, 90%, 50%)" />
<rect x="86" y="12" width="2" height="2" fill="hsl(20, 90%, 50%)" />
<rect x="16" y="18" width="2" height="2" fill="hsl(20, 90%, 50%)" />
<rect x="38" y="18" width="2" height="2" fill="hsl(20, 90%, 50%)" />
<rect x="56" y="18" width="2" height="2" fill="hsl(20, 90%, 50%)" />
<rect x="78" y="18" width="2" height="2" fill="hsl(20, 90%, 50%)" />
<rect x="16" y="20" width="2" height="2" fill="hsl(20, 90%, 50%)" />
<rect x="18" y="20" width="2" height="2" fill="hsl(20, 90%, 50%)" />
<rect x="40" y="20" width="2" height="2" fill="hsl(20, 90%, 50%)" />
<rect x="54" y="20" width="2" height="2" fill="hsl(20, 90%, 50%)" />
<rect x="76" y="20" width="2" height="2" fill="hsl(20, 90%, 50%)" />
<rect x="78" y="20" width="2" height="2" fill="hsl(20, 90%, 50%)" />
<rect x="14" y="22" width="2" height="2" fill="hsl(20, 90%, 50%)" />
<rect x="16" y="22" width="2" height="2" fill="hsl(20, 90%, 50%)" />
<rect x="40" y="22" width="2" height="2" fill="hsl(20, 90%, 50%)" />
<rect x="42" y="22" width="2" height="2" fill="hsl(20, 90%, 50%)" />
<rect x="52" y="22" width="2" height="2" fill="hsl(20, 90%, 50%)" />
<rect x="54" y="22" width="2" height="2" fill="hsl(20, 90%, 50%)" />
<rect x="78" y="22" width="2" height="2" fill="hsl(20, 90%, 50%)" />
<rect x="80" y="22" width="2" height="2" fill="hsl(20, 90%, 50%)" />
<rect x="38" y="24" width="2" height="2" fill="hsl(20, 90%, 50%)" />
<rect x="40" y="24" width="2" height="2" fill="hsl(20, 90%, 50%)" />
<rect x="54" y="24" width="2" height="2" fill="hsl(20, 90%, 50%)" />
<rect x="56" y="24" width="2" height="2" fill="hsl(20, 90%, 50%)" />
<rect x="38" y="26" width="2" height="2" fill="hsl(20, 90%, 50%)" />
<rect x="56" y="26" width="2" height="2" fill="hsl(20, 90%, 50%)" />
<rect x="16" y="52" width="2" height="2" fill="hsl(20, 90%, 50%)" />
<rect x="38" y="52" width="2" height="2" fill="hsl(20, 90%, 50%)" />
<rect x="56" y="52" width="2" height="2" fill="hsl(20, 90%, 50%)" />
<rect x="78" y="52" width="2" height="2" fill="hsl(20, 90%, 50%)" />
<rect x="16" y="54" width="2" height="2" fill="hsl(20, 90%, 50%)" />
<rect x="18" y="54" width="2" height="2" fill="hsl(20, 90%, 50%)" />
<rect x="40" y="54" width="2" height="2" fill="hsl(20, 90%, 50%)" />
<rect x="54" y="54" width="2" height="2" fill="hsl(20, 90%, 50%)" />
<rect x="76" y="54" width="2" height="2" fill="hsl(20, 90%, 50%)" />
<rect x="78" y="54" width="2" height="2" fill="hsl(20, 90%, 50%)" />
<rect x="14" y="56" width="2" height="2" fill="hsl(20, 90%, 50%)" />
<rect x="16" y="56" width="2" height="2" fill="hsl(20, 90%, 50%)" />
<rect x="40" y="56" width="2" height="2" fill="hsl(20, 90%, 50%)" />
<rect x="42" y="56" width="2" height="2" fill="hsl(20, 90%, 50%)" />
<rect x="52" y="56" width="2" height="2" fill="hsl(20, 90%, 50%)" />
<rect x="54" y="56" width="2" height="2" fill="hsl(20, 90%, 50%)" />
<rect x="78" y="56" width="2" height="2" fill="hsl(20, 90%, 50%)" />
<rect x="80" y="56" width="2" height="2" fill="hsl(20, 90%, 50%)" />
<rect x="38" y="58" width="2" height="2" fill="hsl(20, 90%, 50%)" />
<rect x="40" y="58" width="2" height="2" fill="hsl(20, 90%, 50%)" />
<rect x="54" y="58" width="2" height="2" fill="hsl(20, 90%, 50%)" />
<rect x="56" y="58" width="2" height="2" fill="hsl(20, 90%, 50%)" />
<rect x="38" y="60" width="2" height="2" fill="hsl(20, 90%, 50%)" />
<rect x="56" y="60" width="2" height="2" fill="hsl(20, 90%, 50%)" />
<rect x="8" y="64" width="2" height="2" fill="hsl(20, 90%, 50%)" />
<rect x="6" y="66" width="2" height="2" fill="hsl(20, 90%, 50%)" />
<rect x="10" y="66" width="2" height="2" fill="hsl(20, 90%, 50%)" />
<rect x="70" y="66" width="2" height="2" fill="hsl(20, 90%, 50%)" />
<rect x="4" y="68" width="2" height="2" fill="hsl(20, 90%, 50%)" />
<rect x="10" y="68" width="2" height="2" fill="hsl(20, 90%, 50%)" />
<rect x="68" y="68" width="2" height="2" fill="hsl(20, 90%, 50%)" />
<rect x="72" y="68" width="2" height="2" fill="hsl(20, 90%, 50%)" />
<rect x="6" y="70" width="2" height="2" fill="hsl(20, 90%, 50%)" />
<rect x="8" y="70" width="2" height="2" fill="hsl(20, 90%, 50%)" />
<rect x="70" y="70" width="2" height="2" fill="hsl(20, 90%, 50%)" />
<rect x="72" y="70" width="2" height="2" fill="hsl(20, 90%, 50%)" />
</svg>