<?xml version="1.0" encoding="utf-8"?>
<svg xmlns="http://www.w3.org/2000/svg" width="108" height="28" viewBox="0 0 108 28">
<rect width="100%" height="100%" fill="transparent" />
<rect x="24" y="4" width="4" height="4" fill="hsl(20, 90%, 50%)" />
<rect x="40" y="4" width="4" height="4" fill="hsl(20, 90%, 50%)" />
<rect x="44" y="4" width="4" height="4" fill="hsl(20, 90%, 50%)" />
<rect x="4" y="8" width="4" height="4" fill="hsl(20, 90%, 50%)" />
<rect x="8" y="8" width="4" height="4" fill="hsl(20, 90%, 50%)" />
<rect x="44" y="8" width="4" height="4" fill="hsl(20, 90%, 50%)" />
<rect x="60" y="8" width="4" height="4" fill="hsl(20, 90%, 50%)" />
<rect x="68" y="8" width="4" height="4" fill="hsl(20, 90%, 50%)" />
<rect x="72" y="8" width="4" height="4" fill="hsl(20, 90%, 50%)" />
<rect x="92" y="8" width="4" height="4" fill="hsl(20, 90%, 50%)" />
<rect x="100" y="8" width="4" height="4" fill="hsl(20, 90%, 50%)" />
<rect x="44" y="12" width="4" height="4" fill="hsl(20, 90%, 50%)" />
<rect x="68" y="12" width="4" height="4" fill="hsl(20, 90%, 50%)" />
<rect x="100" y="12" width="4" height="4" fill="hsl(20, 90%, 50%)" />
<rect x="48" y="16" width="4" height="4" fill="hsl(20, 90%, 50%)" />
<rect x="64" y="16" width="4" height="4" fill="hsl(20, 90%, 50%)" />
<rect x="52" y="20" width="4" height="4" fill="hsl(20, 90%, 50%)" />
<rect x="56" y="20" width="4" height="4" fill="hsl(20, 90%, 50%)" />
</svg>