<?xml version="1.0" encoding="utf-8"?>
<svg xmlns="http://www.w3.org/2000/svg" width="124" height="116" viewBox="0 0 124 116">
<rect width="100%" height="100%" fill="transparent" />
<rect x="36" y="4" width="4" height="4" fill="hsl(20, 90%, 50%)" />
<rect x="84" y="4" width="4" height="4" fill="hsl(20, 90%, 50%)" />
<rect x="32" y="8" width="4" height="4" fill="hsl(20, 90%, 50%)" />
<rect x="40" y="8" width="4" height="4" fill="hsl(20, 90%, 50%)" />
<rect x="80" y="8" width="4" height="4" fill="hsl(20, 90%, 50%)" />
<rect x="88" y="8" width="4" height="4" fill="hsl(20, 90%, 50%)" />
<rect x="36" y="12" width="4" height="4" fill="hsl(20, 90%, 50%)" />
<rect x="84" y="12" width="4" height="4" fill="hsl(20, 90%, 50%)" />
<rect x="28" y="20" width="4" height="4" fill="hsl(20, 90%, 50%)" />
<rect x="32" y="20" width="4" height="4" fill="hsl(20, 90%, 50%)" />
<rect x="36" y="20" width="4" height="4" fill="hsl(20, 90%, 50%)" />
<rect x="40" y="20" width="4" height="4" fill="hsl(20, 90%, 50%)" />
<rect x="44" y="20" width="4" height="4" fill="hsl(20, 90%, 50%)" />
<rect x="76" y="20" width="4" height="4" fill="hsl(20, 90%, 50%)" />
<rect x="80" y="20" width="4" height="4" fill="hsl(20, 90%, 50%)" />
<rect x="84" y="20" width="4" height="4" fill="hsl(20, 90%, 50%)" />
<rect x="88" y="20" width="4" height="4" fill="hsl(20, 90%, 50%)" />
<rect x="92" y="20" width="4" height="4" fill="hsl(20, 90%, 50%)" />
<rect x="24" y="24" width="4" height="4" fill="hsl(20, 90%, 50%)" />
<rect x="44" y="24" width="4" height="4" fill="hsl(20, 90%, 50%)" />
<rect x="76" y="24" width="4" height="4" fill="hsl(20, 90%, 50%)" />
<rect x="96" y="24" width="4" height="4" fill="hsl(20, 90%, 50%)" />
<rect x="20" y="28" width="4" height="4" fill="hsl(20, 90%, 50%)" />
<rect x="32" y="28" width="4" height="4" fill="hsl(20, 90%, 50%)" />
<rect x="88" y="28" width="4" height="4" fill="hsl(20, 90%, 50%)" />
<rect x="100" y="28" width="4" height="4" fill="hsl(20, 90%, 50%)" />
<rect x="8" y="32" width="4" height="4" fill="hsl(20, 90%, 50%)" />
<rect x="20" y="32" width="4" height="4" fill="hsl(20, 90%, 50%)" />
<rect x="28" y="32" width="4" height="4" fill="hsl(20, 90%, 50%)" />
<rect x="32" y="32" width="4" height="4" fill="hsl(20, 90%, 50%)" />
<rect x="88" y="32" width="4" height="4" fill="hsl(20, 90%, 50%)" />
<rect x="92" y="32" width="4" height="4" fill="hsl(20, 90%, 50%)" />
<rect x="100" y="32" width="4" height="4" fill="hsl(20, 90%, 50%)" />
<rect x="112" y="32" width="4" height="4" fill="hsl(20, 90%, 50%)" />
<rect x="4" y="36" width="4" height="4" fill="hsl(20, 90%, 50%)" />
<rect x="12" y="36" width="4" height="4" fill="hsl(20, 90%, 50%)" />
<rect x="20" y="36" width="4" height="4" fill="hsl(20, 90%, 50%)" />
<rect x="44" y="36" width="4" height="4" fill="hsl(20, 90%, 50%)" />
<rect x="76" y="36" width="4" height="4" fill="hsl(20, 90%, 50%)" />
<rect x="100" y="36" width="4" height="4" fill="hsl(20, 90%, 50%)" />
<rect x="108" y="36" width="4" height="4" fill="hsl(20, 90%, 50%)" />
<rect x="116" y="36" width="4" height="4" fill="hsl(20, 90%, 50%)" />
<rect x="8" y="40" width="4" height="4" fill="hsl(20, 90%, 50%)" />
<rect x="20" y="40" width="4" height="4" fill="hsl(20, 90%, 50%)" />
<rect x="40" y="40" width="4" height="4" fill="hsl(20, 90%, 50%)" />
<rect x="48" y="40" width="4" height="4" fill="hsl(20, 90%, 50%)" />
<rect x="72" y="40" width="4" height="4" fill="hsl(20, 90%, 50%)" />
<rect x="80" y="40" width="4" height="4" fill="hsl(20, 90%, 50%)" />
<rect x="100" y="40" width="4" height="4" fill="hsl(20, 90%, 50%)" />
<rect x="112" y="40" width="4" height="4" fill="hsl(20, 90%, 50%)" />
<rect x="20" y="44" width="4" height="4" fill="hsl(20, 90%, 50%)" />
<rect x="24" y="44" width="4" height="4" fill="hsl(20, 90%, 50%)" />
<rect x="36" y="44" width="4" height="4" fill="hsl(20, 90%, 50%)" />
<rect x="48" y="44" width="4" height="4" fill="hsl(20, 90%, 50%)" />
<rect x="72" y="44" width="4" height="4" fill="hsl(20, 90%, 50%)" />
<rect x="84" y="44" width="4" height="4" fill="hsl(20, 90%, 50%)" />
<rect x="96" y="44" width="4" height="4" fill="hsl(20, 90%, 50%)" />
<rect x="100" y="44" width="4" height="4" fill="hsl(20, 90%, 50%)" />
<rect x="40" y="48" width="4" height="4" fill="hsl(20, 90%, 50%)" />
<rect x="44" y="48" width="4" height="4" fill="hsl(20, 90%, 50%)" />
<rect x="76" y="48" width="4" height="4" fill="hsl(20, 90%, 50%)" />
<rect x="80" y="48" width="4" height="4" fill="hsl(20, 90%, 50%)" />
<rect x="56" y="52" width="4" height="4" fill="hsl(20, 90%, 50%)" />
<rect x="60" y="52" width="4" height="4" fill="hsl(20, 90%, 50%)" />
<rect x="56" y="56" width="4" height="4" fill="hsl(20, 90%, 50%)" />
<rect x="64" y="56" width="4" height="4" fill="hsl(20, 90%, 50%)" />
<rect x="36" y="60" width="4" height="4" fill="hsl(20, 90%, 50%)" />
<rect x="48" y="60" width="4" height="4" fill="hsl(20, 90%, 50%)" />
<rect x="60" y="60" width="4" height="4" fill="hsl(20, 90%, 50%)" />
<rect x="32" y="64" width="4" height="4" fill="hsl(20, 90%, 50%)" />
<rect x="24" y="68" width="4" height="4" fill="hsl(20, 90%, 50%)" />
<rect x="28" y="68" width="4" height="4" fill="hsl(20, 90%, 50%)" />
<rect x="72" y="68" width="4" height="4" fill="hsl(20, 90%, 50%)" />
<rect x="76" y="68" width="4" height="4" fill="hsl(20, 90%, 50%)" />
<rect x="80" y="68" width="4" height="4" fill="hsl(20, 90%, 50%)" />
<rect x="12" y="72" width="4" height="4" fill="hsl(20, 90%, 50%)" />
<rect x="40" y="72" width="4" height="4" fill="hsl(20, 90%, 50%)" />
<rect x="44" y="72" width="4" height="4" fill="hsl(20, 90%, 50%)" />
<rect x="52" y="72" width="4" height="4" fill="hsl(20, 90%, 50%)" />
<rect x="72" y="72" width="4" height="4" fill="hsl(20, 90%, 50%)" />
<rect x="76" y="72" width="4" height="4" fill="hsl(20, 90%, 50%)" />
<rect x="80" y="72" width="4" height="4" fill="hsl(20, 90%, 50%)" />
<rect x="24" y="76" width="4" height="4" fill="hsl(20, 90%, 50%)" />
<rect x="40" y="76" width="4" height="4" fill="hsl(20, 90%, 50%)" />
<rect x="52" y="76" width="4" height="4" fill="hsl(20, 90%, 50%)" />
<rect x="72" y="76" width="4" height="4" fill="hsl(20, 90%, 50%)" />
<rect x="76" y="76" width="4" height="4" fill="hsl(20, 90%, 50%)" />
<rect x="80" y="76" width="4" height="4" fill="hsl(20, 90%, 50%)" />
<rect x="24" y="80" width="4" height="4" fill="hsl(20, 90%, 50%)" />
<rect x="28" y="80" width="4" height="4" fill="hsl(20, 90%, 50%)" />
<rect x="32" y="80" width="4" height="4" fill="hsl(20, 90%, 50%)" />
<rect x="40" y="80" width="4" height="4" fill="hsl(20, 90%, 50%)" />
<rect x="56" y="80" width="4" height="4" fill="hsl(20, 90%, 50%)" />
<rect x="84" y="80" width="4" height="4" fill="hsl(20, 90%, 50%)" />
<rect x="88" y="80" width="4" height="4" fill="hsl(20, 90%, 50%)" />
<rect x="92" y="80" width="4" height="4" fill="hsl(20, 90%, 50%)" />
<rect x="12" y="84" width="4" height="4" fill="hsl(20, 90%, 50%)" />
<rect x="60" y="84" width="4" height="4" fill="hsl(20, 90%, 50%)" />
<rect x="84" y="84" width="4" height="4" fill="hsl(20, 90%, 50%)" />
<rect x="88" y="84" width="4" height="4" fill="hsl(20, 90%, 50%)" />
<rect x="92" y="84" width="4" height="4" fill="hsl(20, 90%, 50%)" />
<rect x="16" y="88" width="4" height="4" fill="hsl(20, 90%, 50%)" />
<rect x="32" y="88" width="4" height="4" fill="hsl(20, 90%, 50%)" />
<rect x="40" y="88" width="4" height="4" fill="hsl(20, 90%, 50%)" />
<rect x="44" y="88" width="4" height="4" fill="hsl(20, 90%, 50%)" />
<rect x="48" y="88" width="4" height="4" fill="hsl(20, 90%, 50%)" />
<rect x="84" y="88" width="4" height="4" fill="hsl(20, 90%, 50%)" />
<rect x="88" y="88" width="4" height="4" fill="hsl(20, 90%, 50%)" />
<rect x="92" y="88" width="4" height="4" fill="hsl(20, 90%, 50%)" />
<rect x="20" y="92" width="4" height="4" fill="hsl(20, 90%, 50%)" />
<rect x="32" y="92" width="4" height="4" fill="hsl(20, 90%, 50%)" />
<rect x="48" y="92" width="4" height="4" fill="hsl(20, 90%, 50%)" />
<rect x="20" y="96" width="4" height="4" fill="hsl(20, 90%, 50%)" />
<rect x="28" y="96" width="4" height="4" fill="hsl(20, 90%, 50%)" />
<rect x="32" y="96" width="4" height="4" fill="hsl(20, 90%, 50%)" />
<rect x="60" y="96" width="4" height="4" fill="hsl(20, 90%, 50%)" />
<rect x="44" y="100" width="4" height="4" fill="hsl(20, 90%, 50%)" />
<rect x="48" y="100" width="4" height="4" fill="hsl(20, 90%, 50%)" />
<rect x="40" y="104" width="4" height="4" fill="hsl(20, 90%, 50%)" />
<rect x="24" y="108" width="4" height="4" fill="hsl(20, 90%, 50%)" />
<rect x="36" y="108" width="4" height="4" fill="hsl(20, 90%, 50%)" />
</svg>