<?xml version="1.0" encoding="utf-8"?>
<svg xmlns="http://www.w3.org/2000/svg" width="70" height="64" viewBox="0 0 70 64">
<rect width="100%" height="100%" fill="transparent" />
<rect x="57" y="4" width="1" height="1" fill="hsl(20, 90%, 50%)" />
<rect x="58" y="4" width="1" height="1" fill="hsl(20, 90%, 50%)" />
<rect x="60" y="4" width="1" height="1" fill="hsl(20, 90%, 50%)" />
<rect x="57" y="5" width="1" height="1" fill="hsl(20, 90%, 50%)" />
<rect x="59" y="5" width="1" height="1" fill="hsl(20, 90%, 50%)" />
<rect x="60" y="5" width="1" height="1" fill="hsl(20, 90%, 50%)" />
<rect x="15" y="7" width="1" height="1" fill="hsl(20, 90%, 50%)" />
<rect x="16" y="7" width="1" height="1" fill="hsl(20, 90%, 50%)" />
<rect x="15" y="8" width="1" height="1" fill="hsl(20, 90%, 50%)" />
<rect x="16" y="8" width="1" height="1" fill="hsl(20, 90%, 50%)" />
<rect x="18" y="11" width="1" height="1" fill="hsl(20, 90%, 50%)" />
<rect x="19" y="11" width="1" height="1" fill="hsl(20, 90%, 50%)" />
<rect x="48" y="11" width="1" height="1" fill="hsl(20, 90%, 50%)" />
<rect x="49" y="11" width="1" height="1" fill="hsl(20, 90%, 50%)" />
<rect x="57" y="11" width="1" height="1" fill="hsl(20, 90%, 50%)" />
<rect x="58" y="11" width="1" height="1" fill="hsl(20, 90%, 50%)" />
<rect x="64" y="11" width="1" height="1" fill="hsl(20, 90%, 50%)" />
<rect x="65" y="11" width="1" height="1" fill="hsl(20, 90%, 50%)" />
<rect x="8" y="12" width="1" height="1" fill="hsl(20, 90%, 50%)" />
<rect x="9" y="12" width="1" height="1" fill="hsl(20, 90%, 50%)" />
<rect x="18" y="12" width="1" height="1" fill="hsl(20, 90%, 50%)" />
<rect x="19" y="12" width="1" height="1" fill="hsl(20, 90%, 50%)" />
<rect x="57" y="12" width="1" height="1" fill="hsl(20, 90%, 50%)" />
<rect x="58" y="12" width="1" height="1" fill="hsl(20, 90%, 50%)" />
<rect x="64" y="12" width="1" height="1" fill="hsl(20, 90%, 50%)" />
<rect x="65" y="12" width="1" height="1" fill="hsl(20, 90%, 50%)" />
<rect x="9" y="13" width="1" height="1" fill="hsl(20, 90%, 50%)" />
<rect x="47" y="13" width="1" height="1" fill="hsl(20, 90%, 50%)" />
<rect x="49" y="13" width="1" height="1" fill="hsl(20, 90%, 50%)" />
<rect x="8" y="14" width="1" height="1" fill="hsl(20, 90%, 50%)" />
<rect x="15" y="14" width="1" height="1" fill="hsl(20, 90%, 50%)" />
<rect x="16" y="14" width="1" height="1" fill="hsl(20, 90%, 50%)" />
<rect x="45" y="14" width="1" height="1" fill="hsl(20, 90%, 50%)" />
<rect x="60" y="14" width="1" height="1" fill="hsl(20, 90%, 50%)" />
<rect x="61" y="14" width="1" height="1" fill="hsl(20, 90%, 50%)" />
<rect x="8" y="15" width="1" height="1" fill="hsl(20, 90%, 50%)" />
<rect x="9" y="15" width="1" height="1" fill="hsl(20, 90%, 50%)" />
<rect x="15" y="15" width="1" height="1" fill="hsl(20, 90%, 50%)" />
<rect x="16" y="15" width="1" height="1" fill="hsl(20, 90%, 50%)" />
<rect x="41" y="15" width="1" height="1" fill="hsl(20, 90%, 50%)" />
<rect x="42" y="15" width="1" height="1" fill="hsl(20, 90%, 50%)" />
<rect x="44" y="15" width="1" height="1" fill="hsl(20, 90%, 50%)" />
<rect x="46" y="15" width="1" height="1" fill="hsl(20, 90%, 50%)" />
<rect x="47" y="15" width="1" height="1" fill="hsl(20, 90%, 50%)" />
<rect x="60" y="15" width="1" height="1" fill="hsl(20, 90%, 50%)" />
<rect x="61" y="15" width="1" height="1" fill="hsl(20, 90%, 50%)" />
<rect x="42" y="16" width="1" height="1" fill="hsl(20, 90%, 50%)" />
<rect x="44" y="16" width="1" height="1" fill="hsl(20, 90%, 50%)" />
<rect x="45" y="16" width="1" height="1" fill="hsl(20, 90%, 50%)" />
<rect x="43" y="17" width="1" height="1" fill="hsl(20, 90%, 50%)" />
<rect x="37" y="19" width="1" height="1" fill="hsl(20, 90%, 50%)" />
<rect x="38" y="19" width="1" height="1" fill="hsl(20, 90%, 50%)" />
<rect x="37" y="20" width="1" height="1" fill="hsl(20, 90%, 50%)" />
<rect x="38" y="20" width="1" height="1" fill="hsl(20, 90%, 50%)" />
<rect x="33" y="22" width="1" height="1" fill="hsl(20, 90%, 50%)" />
<rect x="34" y="22" width="1" height="1" fill="hsl(20, 90%, 50%)" />
<rect x="40" y="22" width="1" height="1" fill="hsl(20, 90%, 50%)" />
<rect x="41" y="22" width="1" height="1" fill="hsl(20, 90%, 50%)" />
<rect x="33" y="23" width="1" height="1" fill="hsl(20, 90%, 50%)" />
<rect x="34" y="23" width="1" height="1" fill="hsl(20, 90%, 50%)" />
<rect x="40" y="23" width="1" height="1" fill="hsl(20, 90%, 50%)" />
<rect x="41" y="23" width="1" height="1" fill="hsl(20, 90%, 50%)" />
<rect x="25" y="27" width="1" height="1" fill="hsl(20, 90%, 50%)" />
<rect x="26" y="27" width="1" height="1" fill="hsl(20, 90%, 50%)" />
<rect x="27" y="27" width="1" height="1" fill="hsl(20, 90%, 50%)" />
<rect x="25" y="28" width="1" height="1" fill="hsl(20, 90%, 50%)" />
<rect x="28" y="28" width="1" height="1" fill="hsl(20, 90%, 50%)" />
<rect x="25" y="29" width="1" height="1" fill="hsl(20, 90%, 50%)" />
<rect x="27" y="29" width="1" height="1" fill="hsl(20, 90%, 50%)" />
<rect x="28" y="29" width="1" height="1" fill="hsl(20, 90%, 50%)" />
<rect x="24" y="33" width="1" height="1" fill="hsl(20, 90%, 50%)" />
<rect x="25" y="33" width="1" height="1" fill="hsl(20, 90%, 50%)" />
<rect x="38" y="33" width="1" height="1" fill="hsl(20, 90%, 50%)" />
<rect x="48" y="33" width="1" height="1" fill="hsl(20, 90%, 50%)" />
<rect x="24" y="34" width="1" height="1" fill="hsl(20, 90%, 50%)" />
<rect x="27" y="34" width="1" height="1" fill="hsl(20, 90%, 50%)" />
<rect x="38" y="34" width="1" height="1" fill="hsl(20, 90%, 50%)" />
<rect x="40" y="34" width="1" height="1" fill="hsl(20, 90%, 50%)" />
<rect x="46" y="34" width="1" height="1" fill="hsl(20, 90%, 50%)" />
<rect x="47" y="34" width="1" height="1" fill="hsl(20, 90%, 50%)" />
<rect x="48" y="34" width="1" height="1" fill="hsl(20, 90%, 50%)" />
<rect x="6" y="35" width="1" height="1" fill="hsl(20, 90%, 50%)" />
<rect x="7" y="35" width="1" height="1" fill="hsl(20, 90%, 50%)" />
<rect x="8" y="35" width="1" height="1" fill="hsl(20, 90%, 50%)" />
<rect x="9" y="35" width="1" height="1" fill="hsl(20, 90%, 50%)" />
<rect x="25" y="35" width="1" height="1" fill="hsl(20, 90%, 50%)" />
<rect x="26" y="35" width="1" height="1" fill="hsl(20, 90%, 50%)" />
<rect x="27" y="35" width="1" height="1" fill="hsl(20, 90%, 50%)" />
<rect x="38" y="35" width="1" height="1" fill="hsl(20, 90%, 50%)" />
<rect x="39" y="35" width="1" height="1" fill="hsl(20, 90%, 50%)" />
<rect x="45" y="35" width="1" height="1" fill="hsl(20, 90%, 50%)" />
<rect x="4" y="36" width="1" height="1" fill="hsl(20, 90%, 50%)" />
<rect x="5" y="36" width="1" height="1" fill="hsl(20, 90%, 50%)" />
<rect x="10" y="36" width="1" height="1" fill="hsl(20, 90%, 50%)" />
<rect x="11" y="36" width="1" height="1" fill="hsl(20, 90%, 50%)" />
<rect x="45" y="36" width="1" height="1" fill="hsl(20, 90%, 50%)" />
<rect x="46" y="36" width="1" height="1" fill="hsl(20, 90%, 50%)" />
<rect x="4" y="37" width="1" height="1" fill="hsl(20, 90%, 50%)" />
<rect x="5" y="37" width="1" height="1" fill="hsl(20, 90%, 50%)" />
<rect x="11" y="37" width="1" height="1" fill="hsl(20, 90%, 50%)" />
<rect x="6" y="38" width="1" height="1" fill="hsl(20, 90%, 50%)" />
<rect x="7" y="38" width="1" height="1" fill="hsl(20, 90%, 50%)" />
<rect x="9" y="38" width="1" height="1" fill="hsl(20, 90%, 50%)" />
<rect x="11" y="38" width="1" height="1" fill="hsl(20, 90%, 50%)" />
<rect x="26" y="38" width="1" height="1" fill="hsl(20, 90%, 50%)" />
<rect x="27" y="38" width="1" height="1" fill="hsl(20, 90%, 50%)" />
<rect x="11" y="39" width="1" height="1" fill="hsl(20, 90%, 50%)" />
<rect x="26" y="39" width="1" height="1" fill="hsl(20, 90%, 50%)" />
<rect x="27" y="39" width="1" height="1" fill="hsl(20, 90%, 50%)" />
<rect x="7" y="40" width="1" height="1" fill="hsl(20, 90%, 50%)" />
<rect x="11" y="40" width="1" height="1" fill="hsl(20, 90%, 50%)" />
<rect x="38" y="40" width="1" height="1" fill="hsl(20, 90%, 50%)" />
<rect x="43" y="40" width="1" height="1" fill="hsl(20, 90%, 50%)" />
<rect x="7" y="41" width="1" height="1" fill="hsl(20, 90%, 50%)" />
<rect x="12" y="41" width="1" height="1" fill="hsl(20, 90%, 50%)" />
<rect x="36" y="41" width="1" height="1" fill="hsl(20, 90%, 50%)" />
<rect x="37" y="41" width="1" height="1" fill="hsl(20, 90%, 50%)" />
<rect x="43" y="41" width="1" height="1" fill="hsl(20, 90%, 50%)" />
<rect x="9" y="42" width="1" height="1" fill="hsl(20, 90%, 50%)" />
<rect x="10" y="42" width="1" height="1" fill="hsl(20, 90%, 50%)" />
<rect x="11" y="42" width="1" height="1" fill="hsl(20, 90%, 50%)" />
<rect x="15" y="42" width="1" height="1" fill="hsl(20, 90%, 50%)" />
<rect x="37" y="42" width="1" height="1" fill="hsl(20, 90%, 50%)" />
<rect x="38" y="42" width="1" height="1" fill="hsl(20, 90%, 50%)" />
<rect x="42" y="42" width="1" height="1" fill="hsl(20, 90%, 50%)" />
<rect x="44" y="42" width="1" height="1" fill="hsl(20, 90%, 50%)" />
<rect x="9" y="43" width="1" height="1" fill="hsl(20, 90%, 50%)" />
<rect x="10" y="43" width="1" height="1" fill="hsl(20, 90%, 50%)" />
<rect x="15" y="43" width="1" height="1" fill="hsl(20, 90%, 50%)" />
<rect x="41" y="43" width="1" height="1" fill="hsl(20, 90%, 50%)" />
<rect x="42" y="43" width="1" height="1" fill="hsl(20, 90%, 50%)" />
<rect x="44" y="43" width="1" height="1" fill="hsl(20, 90%, 50%)" />
<rect x="45" y="43" width="1" height="1" fill="hsl(20, 90%, 50%)" />
<rect x="15" y="44" width="1" height="1" fill="hsl(20, 90%, 50%)" />
<rect x="16" y="44" width="1" height="1" fill="hsl(20, 90%, 50%)" />
<rect x="40" y="44" width="1" height="1" fill="hsl(20, 90%, 50%)" />
<rect x="46" y="44" width="1" height="1" fill="hsl(20, 90%, 50%)" />
<rect x="17" y="45" width="1" height="1" fill="hsl(20, 90%, 50%)" />
<rect x="43" y="45" width="1" height="1" fill="hsl(20, 90%, 50%)" />
<rect x="17" y="46" width="1" height="1" fill="hsl(20, 90%, 50%)" />
<rect x="18" y="46" width="1" height="1" fill="hsl(20, 90%, 50%)" />
<rect x="19" y="46" width="1" height="1" fill="hsl(20, 90%, 50%)" />
<rect x="40" y="46" width="1" height="1" fill="hsl(20, 90%, 50%)" />
<rect x="41" y="46" width="1" height="1" fill="hsl(20, 90%, 50%)" />
<rect x="45" y="46" width="1" height="1" fill="hsl(20, 90%, 50%)" />
<rect x="46" y="46" width="1" height="1" fill="hsl(20, 90%, 50%)" />
<rect x="20" y="49" width="1" height="1" fill="hsl(20, 90%, 50%)" />
<rect x="42" y="49" width="1" height="1" fill="hsl(20, 90%, 50%)" />
<rect x="19" y="50" width="1" height="1" fill="hsl(20, 90%, 50%)" />
<rect x="21" y="50" width="1" height="1" fill="hsl(20, 90%, 50%)" />
<rect x="22" y="50" width="1" height="1" fill="hsl(20, 90%, 50%)" />
<rect x="23" y="50" width="1" height="1" fill="hsl(20, 90%, 50%)" />
<rect x="24" y="50" width="1" height="1" fill="hsl(20, 90%, 50%)" />
<rect x="25" y="50" width="1" height="1" fill="hsl(20, 90%, 50%)" />
<rect x="42" y="50" width="1" height="1" fill="hsl(20, 90%, 50%)" />
<rect x="18" y="51" width="1" height="1" fill="hsl(20, 90%, 50%)" />
<rect x="19" y="51" width="1" height="1" fill="hsl(20, 90%, 50%)" />
<rect x="25" y="51" width="1" height="1" fill="hsl(20, 90%, 50%)" />
<rect x="41" y="51" width="1" height="1" fill="hsl(20, 90%, 50%)" />
<rect x="18" y="52" width="1" height="1" fill="hsl(20, 90%, 50%)" />
<rect x="19" y="52" width="1" height="1" fill="hsl(20, 90%, 50%)" />
<rect x="23" y="52" width="1" height="1" fill="hsl(20, 90%, 50%)" />
<rect x="26" y="52" width="1" height="1" fill="hsl(20, 90%, 50%)" />
<rect x="26" y="53" width="1" height="1" fill="hsl(20, 90%, 50%)" />
<rect x="20" y="54" width="1" height="1" fill="hsl(20, 90%, 50%)" />
<rect x="21" y="54" width="1" height="1" fill="hsl(20, 90%, 50%)" />
<rect x="23" y="54" width="1" height="1" fill="hsl(20, 90%, 50%)" />
<rect x="26" y="54" width="1" height="1" fill="hsl(20, 90%, 50%)" />
<rect x="43" y="54" width="1" height="1" fill="hsl(20, 90%, 50%)" />
<rect x="44" y="54" width="1" height="1" fill="hsl(20, 90%, 50%)" />
<rect x="23" y="55" width="1" height="1" fill="hsl(20, 90%, 50%)" />
<rect x="26" y="55" width="1" height="1" fill="hsl(20, 90%, 50%)" />
<rect x="43" y="55" width="1" height="1" fill="hsl(20, 90%, 50%)" />
<rect x="44" y="55" width="1" height="1" fill="hsl(20, 90%, 50%)" />
<rect x="24" y="56" width="1" height="1" fill="hsl(20, 90%, 50%)" />
<rect x="25" y="56" width="1" height="1" fill="hsl(20, 90%, 50%)" />
<rect x="24" y="57" width="1" height="1" fill="hsl(20, 90%, 50%)" />
<rect x="25" y="57" width="1" height="1" fill="hsl(20, 90%, 50%)" />
<rect x="31" y="57" width="1" height="1" fill="hsl(20, 90%, 50%)" />
<rect x="36" y="57" width="1" height="1" fill="hsl(20, 90%, 50%)" />
<rect x="29" y="58" width="1" height="1" fill="hsl(20, 90%, 50%)" />
<rect x="30" y="58" width="1" height="1" fill="hsl(20, 90%, 50%)" />
<rect x="32" y="58" width="1" height="1" fill="hsl(20, 90%, 50%)" />
<rect x="33" y="58" width="1" height="1" fill="hsl(20, 90%, 50%)" />
<rect x="34" y="58" width="1" height="1" fill="hsl(20, 90%, 50%)" />
<rect x="35" y="58" width="1" height="1" fill="hsl(20, 90%, 50%)" />
<rect x="37" y="58" width="1" height="1" fill="hsl(20, 90%, 50%)" />
<rect x="38" y="58" width="1" height="1" fill="hsl(20, 90%, 50%)" />
<rect x="31" y="59" width="1" height="1" fill="hsl(20, 90%, 50%)" />
<rect x="36" y="59" width="1" height="1" fill="hsl(20, 90%, 50%)" />
</svg>