<?xml version="1.0" encoding="utf-8"?>
<svg xmlns="http://www.w3.org/2000/svg" width="100" height="104" viewBox="0 0 100 104">
<rect width="100%" height="100%" fill="transparent" />
<rect x="74" y="4" width="2" height="2" fill="hsl(20, 90%, 50%)" />
<rect x="72" y="6" width="2" height="2" fill="hsl(20, 90%, 50%)" />
<rect x="72" y="8" width="2" height="2" fill="hsl(20, 90%, 50%)" />
<rect x="74" y="8" width="2" height="2" fill="hsl(20, 90%, 50%)" />
<rect x="76" y="8" width="2" height="2" fill="hsl(20, 90%, 50%)" />
<rect x="30" y="10" width="2" height="2" fill="hsl(20, 90%, 50%)" />
<rect x="32" y="10" width="2" height="2" fill="hsl(20, 90%, 50%)" />
<rect x="32" y="12" width="2" height="2" fill="hsl(20, 90%, 50%)" />
<rect x="32" y="14" width="2" height="2" fill="hsl(20, 90%, 50%)" />
<rect x="36" y="14" width="2" height="2" fill="hsl(20, 90%, 50%)" />
<rect x="34" y="16" width="2" height="2" fill="hsl(20, 90%, 50%)" />
<rect x="36" y="16" width="2" height="2" fill="hsl(20, 90%, 50%)" />
<rect x="10" y="20" width="2" height="2" fill="hsl(20, 90%, 50%)" />
<rect x="8" y="22" width="2" height="2" fill="hsl(20, 90%, 50%)" />
<rect x="12" y="22" width="2" height="2" fill="hsl(20, 90%, 50%)" />
<rect x="6" y="24" width="2" height="2" fill="hsl(20, 90%, 50%)" />
<rect x="10" y="24" width="2" height="2" fill="hsl(20, 90%, 50%)" />
<rect x="6" y="26" width="2" height="2" fill="hsl(20, 90%, 50%)" />
<rect x="8" y="26" width="2" height="2" fill="hsl(20, 90%, 50%)" />
<rect x="32" y="28" width="2" height="2" fill="hsl(20, 90%, 50%)" />
<rect x="34" y="28" width="2" height="2" fill="hsl(20, 90%, 50%)" />
<rect x="30" y="30" width="2" height="2" fill="hsl(20, 90%, 50%)" />
<rect x="34" y="30" width="2" height="2" fill="hsl(20, 90%, 50%)" />
<rect x="30" y="32" width="2" height="2" fill="hsl(20, 90%, 50%)" />
<rect x="32" y="32" width="2" height="2" fill="hsl(20, 90%, 50%)" />
<rect x="44" y="40" width="2" height="2" fill="hsl(20, 90%, 50%)" />
<rect x="46" y="40" width="2" height="2" fill="hsl(20, 90%, 50%)" />
<rect x="42" y="42" width="2" height="2" fill="hsl(20, 90%, 50%)" />
<rect x="46" y="42" width="2" height="2" fill="hsl(20, 90%, 50%)" />
<rect x="24" y="44" width="2" height="2" fill="hsl(20, 90%, 50%)" />
<rect x="44" y="44" width="2" height="2" fill="hsl(20, 90%, 50%)" />
<rect x="22" y="46" width="2" height="2" fill="hsl(20, 90%, 50%)" />
<rect x="26" y="46" width="2" height="2" fill="hsl(20, 90%, 50%)" />
<rect x="36" y="46" width="2" height="2" fill="hsl(20, 90%, 50%)" />
<rect x="24" y="48" width="2" height="2" fill="hsl(20, 90%, 50%)" />
<rect x="26" y="48" width="2" height="2" fill="hsl(20, 90%, 50%)" />
<rect x="34" y="48" width="2" height="2" fill="hsl(20, 90%, 50%)" />
<rect x="38" y="48" width="2" height="2" fill="hsl(20, 90%, 50%)" />
<rect x="32" y="50" width="2" height="2" fill="hsl(20, 90%, 50%)" />
<rect x="36" y="50" width="2" height="2" fill="hsl(20, 90%, 50%)" />
<rect x="32" y="52" width="2" height="2" fill="hsl(20, 90%, 50%)" />
<rect x="34" y="52" width="2" height="2" fill="hsl(20, 90%, 50%)" />
<rect x="94" y="56" width="2" height="2" fill="hsl(20, 90%, 50%)" />
<rect x="54" y="58" width="2" height="2" fill="hsl(20, 90%, 50%)" />
<rect x="56" y="58" width="2" height="2" fill="hsl(20, 90%, 50%)" />
<rect x="90" y="58" width="2" height="2" fill="hsl(20, 90%, 50%)" />
<rect x="92" y="58" width="2" height="2" fill="hsl(20, 90%, 50%)" />
<rect x="94" y="58" width="2" height="2" fill="hsl(20, 90%, 50%)" />
<rect x="44" y="60" width="2" height="2" fill="hsl(20, 90%, 50%)" />
<rect x="46" y="60" width="2" height="2" fill="hsl(20, 90%, 50%)" />
<rect x="54" y="60" width="2" height="2" fill="hsl(20, 90%, 50%)" />
<rect x="56" y="60" width="2" height="2" fill="hsl(20, 90%, 50%)" />
<rect x="88" y="60" width="2" height="2" fill="hsl(20, 90%, 50%)" />
<rect x="42" y="62" width="2" height="2" fill="hsl(20, 90%, 50%)" />
<rect x="48" y="62" width="2" height="2" fill="hsl(20, 90%, 50%)" />
<rect x="88" y="62" width="2" height="2" fill="hsl(20, 90%, 50%)" />
<rect x="90" y="62" width="2" height="2" fill="hsl(20, 90%, 50%)" />
<rect x="6" y="64" width="2" height="2" fill="hsl(20, 90%, 50%)" />
<rect x="42" y="64" width="2" height="2" fill="hsl(20, 90%, 50%)" />
<rect x="48" y="64" width="2" height="2" fill="hsl(20, 90%, 50%)" />
<rect x="4" y="66" width="2" height="2" fill="hsl(20, 90%, 50%)" />
<rect x="8" y="66" width="2" height="2" fill="hsl(20, 90%, 50%)" />
<rect x="44" y="66" width="2" height="2" fill="hsl(20, 90%, 50%)" />
<rect x="46" y="66" width="2" height="2" fill="hsl(20, 90%, 50%)" />
<rect x="6" y="68" width="2" height="2" fill="hsl(20, 90%, 50%)" />
<rect x="8" y="68" width="2" height="2" fill="hsl(20, 90%, 50%)" />
<rect x="46" y="76" width="2" height="2" fill="hsl(20, 90%, 50%)" />
<rect x="48" y="76" width="2" height="2" fill="hsl(20, 90%, 50%)" />
<rect x="46" y="78" width="2" height="2" fill="hsl(20, 90%, 50%)" />
<rect x="50" y="78" width="2" height="2" fill="hsl(20, 90%, 50%)" />
<rect x="60" y="78" width="2" height="2" fill="hsl(20, 90%, 50%)" />
<rect x="62" y="78" width="2" height="2" fill="hsl(20, 90%, 50%)" />
<rect x="48" y="80" width="2" height="2" fill="hsl(20, 90%, 50%)" />
<rect x="60" y="80" width="2" height="2" fill="hsl(20, 90%, 50%)" />
<rect x="64" y="80" width="2" height="2" fill="hsl(20, 90%, 50%)" />
<rect x="62" y="82" width="2" height="2" fill="hsl(20, 90%, 50%)" />
<rect x="64" y="82" width="2" height="2" fill="hsl(20, 90%, 50%)" />
<rect x="70" y="84" width="2" height="2" fill="hsl(20, 90%, 50%)" />
<rect x="72" y="84" width="2" height="2" fill="hsl(20, 90%, 50%)" />
<rect x="70" y="86" width="2" height="2" fill="hsl(20, 90%, 50%)" />
<rect x="72" y="86" width="2" height="2" fill="hsl(20, 90%, 50%)" />
<rect x="48" y="92" width="2" height="2" fill="hsl(20, 90%, 50%)" />
<rect x="50" y="92" width="2" height="2" fill="hsl(20, 90%, 50%)" />
<rect x="46" y="94" width="2" height="2" fill="hsl(20, 90%, 50%)" />
<rect x="52" y="94" width="2" height="2" fill="hsl(20, 90%, 50%)" />
<rect x="46" y="96" width="2" height="2" fill="hsl(20, 90%, 50%)" />
<rect x="52" y="96" width="2" height="2" fill="hsl(20, 90%, 50%)" />
<rect x="48" y="98" width="2" height="2" fill="hsl(20, 90%, 50%)" />
<rect x="50" y="98" width="2" height="2" fill="hsl(20, 90%, 50%)" />
</svg>