<?xml version="1.0" encoding="utf-8"?>
<svg xmlns="http://www.w3.org/2000/svg" width="107" height="68" viewBox="0 0 107 68">
<rect width="100%" height="100%" fill="transparent" />
<rect x="4" y="4" width="3" height="3" fill="hsl(20, 90%, 50%)" />
<rect x="7" y="4" width="3" height="3" fill="hsl(20, 90%, 50%)" />
<rect x="25" y="4" width="3" height="3" fill="hsl(20, 90%, 50%)" />
<rect x="28" y="4" width="3" height="3" fill="hsl(20, 90%, 50%)" />
<rect x="4" y="7" width="3" height="3" fill="hsl(20, 90%, 50%)" />
<rect x="7" y="7" width="3" height="3" fill="hsl(20, 90%, 50%)" />
<rect x="25" y="7" width="3" height="3" fill="hsl(20, 90%, 50%)" />
<rect x="28" y="7" width="3" height="3" fill="hsl(20, 90%, 50%)" />
<rect x="16" y="13" width="3" height="3" fill="hsl(20, 90%, 50%)" />
<rect x="19" y="13" width="3" height="3" fill="hsl(20, 90%, 50%)" />
<rect x="16" y="16" width="3" height="3" fill="hsl(20, 90%, 50%)" />
<rect x="19" y="16" width="3" height="3" fill="hsl(20, 90%, 50%)" />
<rect x="70" y="31" width="3" height="3" fill="hsl(20, 90%, 50%)" />
<rect x="73" y="31" width="3" height="3" fill="hsl(20, 90%, 50%)" />
<rect x="79" y="31" width="3" height="3" fill="hsl(20, 90%, 50%)" />
<rect x="82" y="31" width="3" height="3" fill="hsl(20, 90%, 50%)" />
<rect x="67" y="34" width="3" height="3" fill="hsl(20, 90%, 50%)" />
<rect x="85" y="34" width="3" height="3" fill="hsl(20, 90%, 50%)" />
<rect x="67" y="37" width="3" height="3" fill="hsl(20, 90%, 50%)" />
<rect x="88" y="37" width="3" height="3" fill="hsl(20, 90%, 50%)" />
<rect x="97" y="37" width="3" height="3" fill="hsl(20, 90%, 50%)" />
<rect x="100" y="37" width="3" height="3" fill="hsl(20, 90%, 50%)" />
<rect x="67" y="40" width="3" height="3" fill="hsl(20, 90%, 50%)" />
<rect x="70" y="40" width="3" height="3" fill="hsl(20, 90%, 50%)" />
<rect x="73" y="40" width="3" height="3" fill="hsl(20, 90%, 50%)" />
<rect x="85" y="40" width="3" height="3" fill="hsl(20, 90%, 50%)" />
<rect x="97" y="40" width="3" height="3" fill="hsl(20, 90%, 50%)" />
<rect x="100" y="40" width="3" height="3" fill="hsl(20, 90%, 50%)" />
<rect x="82" y="43" width="3" height="3" fill="hsl(20, 90%, 50%)" />
<rect x="76" y="58" width="3" height="3" fill="hsl(20, 90%, 50%)" />
<rect x="82" y="58" width="3" height="3" fill="hsl(20, 90%, 50%)" />
<rect x="85" y="58" width="3" height="3" fill="hsl(20, 90%, 50%)" />
<rect x="76" y="61" width="3" height="3" fill="hsl(20, 90%, 50%)" />
<rect x="79" y="61" width="3" height="3" fill="hsl(20, 90%, 50%)" />
<rect x="85" y="61" width="3" height="3" fill="hsl(20, 90%, 50%)" />
</svg>