<?xml version="1.0" encoding="utf-8"?>
<svg xmlns="http://www.w3.org/2000/svg" width="110" height="128" viewBox="0 0 110 128">
<rect width="100%" height="100%" fill="transparent" />
<rect x="88" y="4" width="6" height="6" fill="hsl(20, 90%, 50%)" />
<rect x="94" y="4" width="6" height="6" fill="hsl(20, 90%, 50%)" />
<rect x="88" y="10" width="6" height="6" fill="hsl(20, 90%, 50%)" />
<rect x="94" y="10" width="6" height="6" fill="hsl(20, 90%, 50%)" />
<rect x="52" y="16" width="6" height="6" fill="hsl(20, 90%, 50%)" />
<rect x="58" y="16" width="6" height="6" fill="hsl(20, 90%, 50%)" />
<rect x="64" y="16" width="6" height="6" fill="hsl(20, 90%, 50%)" />
<rect x="64" y="22" width="6" height="6" fill="hsl(20, 90%, 50%)" />
<rect x="58" y="28" width="6" height="6" fill="hsl(20, 90%, 50%)" />
<rect x="94" y="28" width="6" height="6" fill="hsl(20, 90%, 50%)" />
<rect x="100" y="28" width="6" height="6" fill="hsl(20, 90%, 50%)" />
<rect x="88" y="34" width="6" height="6" fill="hsl(20, 90%, 50%)" />
<rect x="100" y="34" width="6" height="6" fill="hsl(20, 90%, 50%)" />
<rect x="100" y="40" width="6" height="6" fill="hsl(20, 90%, 50%)" />
<rect x="10" y="106" width="6" height="6" fill="hsl(20, 90%, 50%)" />
<rect x="10" y="112" width="6" height="6" fill="hsl(20, 90%, 50%)" />
<rect x="16" y="112" width="6" height="6" fill="hsl(20, 90%, 50%)" />
<rect x="4" y="118" width="6" height="6" fill="hsl(20, 90%, 50%)" />
<rect x="16" y="118" width="6" height="6" fill="hsl(20, 90%, 50%)" />
</svg>