<?xml version="1.0" encoding="utf-8"?>
<svg xmlns="http://www.w3.org/2000/svg" width="101" height="47" viewBox="0 0 101 47">
<rect width="100%" height="100%" fill="transparent" />
<rect x="34" y="4" width="3" height="3" fill="hsl(20, 90%, 50%)" />
<rect x="34" y="7" width="3" height="3" fill="hsl(20, 90%, 50%)" />
<rect x="82" y="7" width="3" height="3" fill="hsl(20, 90%, 50%)" />
<rect x="85" y="7" width="3" height="3" fill="hsl(20, 90%, 50%)" />
<rect x="22" y="10" width="3" height="3" fill="hsl(20, 90%, 50%)" />
<rect x="25" y="10" width="3" height="3" fill="hsl(20, 90%, 50%)" />
<rect x="31" y="10" width="3" height="3" fill="hsl(20, 90%, 50%)" />
<rect x="37" y="10" width="3" height="3" fill="hsl(20, 90%, 50%)" />
<rect x="40" y="10" width="3" height="3" fill="hsl(20, 90%, 50%)" />
<rect x="43" y="10" width="3" height="3" fill="hsl(20, 90%, 50%)" />
<rect x="76" y="10" width="3" height="3" fill="hsl(20, 90%, 50%)" />
<rect x="79" y="10" width="3" height="3" fill="hsl(20, 90%, 50%)" />
<rect x="91" y="10" width="3" height="3" fill="hsl(20, 90%, 50%)" />
<rect x="4" y="13" width="3" height="3" fill="hsl(20, 90%, 50%)" />
<rect x="10" y="13" width="3" height="3" fill="hsl(20, 90%, 50%)" />
<rect x="13" y="13" width="3" height="3" fill="hsl(20, 90%, 50%)" />
<rect x="19" y="13" width="3" height="3" fill="hsl(20, 90%, 50%)" />
<rect x="22" y="13" width="3" height="3" fill="hsl(20, 90%, 50%)" />
<rect x="28" y="13" width="3" height="3" fill="hsl(20, 90%, 50%)" />
<rect x="31" y="13" width="3" height="3" fill="hsl(20, 90%, 50%)" />
<rect x="40" y="13" width="3" height="3" fill="hsl(20, 90%, 50%)" />
<rect x="46" y="13" width="3" height="3" fill="hsl(20, 90%, 50%)" />
<rect x="58" y="13" width="3" height="3" fill="hsl(20, 90%, 50%)" />
<rect x="61" y="13" width="3" height="3" fill="hsl(20, 90%, 50%)" />
<rect x="67" y="13" width="3" height="3" fill="hsl(20, 90%, 50%)" />
<rect x="70" y="13" width="3" height="3" fill="hsl(20, 90%, 50%)" />
<rect x="73" y="13" width="3" height="3" fill="hsl(20, 90%, 50%)" />
<rect x="76" y="13" width="3" height="3" fill="hsl(20, 90%, 50%)" />
<rect x="4" y="16" width="3" height="3" fill="hsl(20, 90%, 50%)" />
<rect x="16" y="16" width="3" height="3" fill="hsl(20, 90%, 50%)" />
<rect x="19" y="16" width="3" height="3" fill="hsl(20, 90%, 50%)" />
<rect x="28" y="16" width="3" height="3" fill="hsl(20, 90%, 50%)" />
<rect x="34" y="16" width="3" height="3" fill="hsl(20, 90%, 50%)" />
<rect x="37" y="16" width="3" height="3" fill="hsl(20, 90%, 50%)" />
<rect x="46" y="16" width="3" height="3" fill="hsl(20, 90%, 50%)" />
<rect x="49" y="16" width="3" height="3" fill="hsl(20, 90%, 50%)" />
<rect x="52" y="16" width="3" height="3" fill="hsl(20, 90%, 50%)" />
<rect x="61" y="16" width="3" height="3" fill="hsl(20, 90%, 50%)" />
<rect x="67" y="16" width="3" height="3" fill="hsl(20, 90%, 50%)" />
<rect x="70" y="16" width="3" height="3" fill="hsl(20, 90%, 50%)" />
<rect x="79" y="16" width="3" height="3" fill="hsl(20, 90%, 50%)" />
<rect x="82" y="16" width="3" height="3" fill="hsl(20, 90%, 50%)" />
<rect x="94" y="16" width="3" height="3" fill="hsl(20, 90%, 50%)" />
<rect x="4" y="19" width="3" height="3" fill="hsl(20, 90%, 50%)" />
<rect x="10" y="19" width="3" height="3" fill="hsl(20, 90%, 50%)" />
<rect x="13" y="19" width="3" height="3" fill="hsl(20, 90%, 50%)" />
<rect x="28" y="19" width="3" height="3" fill="hsl(20, 90%, 50%)" />
<rect x="31" y="19" width="3" height="3" fill="hsl(20, 90%, 50%)" />
<rect x="34" y="19" width="3" height="3" fill="hsl(20, 90%, 50%)" />
<rect x="40" y="19" width="3" height="3" fill="hsl(20, 90%, 50%)" />
<rect x="46" y="19" width="3" height="3" fill="hsl(20, 90%, 50%)" />
<rect x="49" y="19" width="3" height="3" fill="hsl(20, 90%, 50%)" />
<rect x="52" y="19" width="3" height="3" fill="hsl(20, 90%, 50%)" />
<rect x="73" y="19" width="3" height="3" fill="hsl(20, 90%, 50%)" />
<rect x="76" y="19" width="3" height="3" fill="hsl(20, 90%, 50%)" />
<rect x="85" y="19" width="3" height="3" fill="hsl(20, 90%, 50%)" />
<rect x="28" y="22" width="3" height="3" fill="hsl(20, 90%, 50%)" />
<rect x="31" y="22" width="3" height="3" fill="hsl(20, 90%, 50%)" />
<rect x="37" y="22" width="3" height="3" fill="hsl(20, 90%, 50%)" />
<rect x="85" y="22" width="3" height="3" fill="hsl(20, 90%, 50%)" />
<rect x="94" y="22" width="3" height="3" fill="hsl(20, 90%, 50%)" />
<rect x="4" y="25" width="3" height="3" fill="hsl(20, 90%, 50%)" />
<rect x="10" y="25" width="3" height="3" fill="hsl(20, 90%, 50%)" />
<rect x="13" y="25" width="3" height="3" fill="hsl(20, 90%, 50%)" />
<rect x="28" y="25" width="3" height="3" fill="hsl(20, 90%, 50%)" />
<rect x="31" y="25" width="3" height="3" fill="hsl(20, 90%, 50%)" />
<rect x="34" y="25" width="3" height="3" fill="hsl(20, 90%, 50%)" />
<rect x="40" y="25" width="3" height="3" fill="hsl(20, 90%, 50%)" />
<rect x="46" y="25" width="3" height="3" fill="hsl(20, 90%, 50%)" />
<rect x="49" y="25" width="3" height="3" fill="hsl(20, 90%, 50%)" />
<rect x="52" y="25" width="3" height="3" fill="hsl(20, 90%, 50%)" />
<rect x="73" y="25" width="3" height="3" fill="hsl(20, 90%, 50%)" />
<rect x="76" y="25" width="3" height="3" fill="hsl(20, 90%, 50%)" />
<rect x="85" y="25" width="3" height="3" fill="hsl(20, 90%, 50%)" />
<rect x="4" y="28" width="3" height="3" fill="hsl(20, 90%, 50%)" />
<rect x="16" y="28" width="3" height="3" fill="hsl(20, 90%, 50%)" />
<rect x="19" y="28" width="3" height="3" fill="hsl(20, 90%, 50%)" />
<rect x="28" y="28" width="3" height="3" fill="hsl(20, 90%, 50%)" />
<rect x="34" y="28" width="3" height="3" fill="hsl(20, 90%, 50%)" />
<rect x="37" y="28" width="3" height="3" fill="hsl(20, 90%, 50%)" />
<rect x="46" y="28" width="3" height="3" fill="hsl(20, 90%, 50%)" />
<rect x="49" y="28" width="3" height="3" fill="hsl(20, 90%, 50%)" />
<rect x="52" y="28" width="3" height="3" fill="hsl(20, 90%, 50%)" />
<rect x="61" y="28" width="3" height="3" fill="hsl(20, 90%, 50%)" />
<rect x="67" y="28" width="3" height="3" fill="hsl(20, 90%, 50%)" />
<rect x="70" y="28" width="3" height="3" fill="hsl(20, 90%, 50%)" />
<rect x="79" y="28" width="3" height="3" fill="hsl(20, 90%, 50%)" />
<rect x="82" y="28" width="3" height="3" fill="hsl(20, 90%, 50%)" />
<rect x="94" y="28" width="3" height="3" fill="hsl(20, 90%, 50%)" />
<rect x="4" y="31" width="3" height="3" fill="hsl(20, 90%, 50%)" />
<rect x="10" y="31" width="3" height="3" fill="hsl(20, 90%, 50%)" />
<rect x="13" y="31" width="3" height="3" fill="hsl(20, 90%, 50%)" />
<rect x="19" y="31" width="3" height="3" fill="hsl(20, 90%, 50%)" />
<rect x="22" y="31" width="3" height="3" fill="hsl(20, 90%, 50%)" />
<rect x="28" y="31" width="3" height="3" fill="hsl(20, 90%, 50%)" />
<rect x="31" y="31" width="3" height="3" fill="hsl(20, 90%, 50%)" />
<rect x="40" y="31" width="3" height="3" fill="hsl(20, 90%, 50%)" />
<rect x="46" y="31" width="3" height="3" fill="hsl(20, 90%, 50%)" />
<rect x="58" y="31" width="3" height="3" fill="hsl(20, 90%, 50%)" />
<rect x="61" y="31" width="3" height="3" fill="hsl(20, 90%, 50%)" />
<rect x="67" y="31" width="3" height="3" fill="hsl(20, 90%, 50%)" />
<rect x="70" y="31" width="3" height="3" fill="hsl(20, 90%, 50%)" />
<rect x="73" y="31" width="3" height="3" fill="hsl(20, 90%, 50%)" />
<rect x="76" y="31" width="3" height="3" fill="hsl(20, 90%, 50%)" />
<rect x="22" y="34" width="3" height="3" fill="hsl(20, 90%, 50%)" />
<rect x="25" y="34" width="3" height="3" fill="hsl(20, 90%, 50%)" />
<rect x="31" y="34" width="3" height="3" fill="hsl(20, 90%, 50%)" />
<rect x="37" y="34" width="3" height="3" fill="hsl(20, 90%, 50%)" />
<rect x="40" y="34" width="3" height="3" fill="hsl(20, 90%, 50%)" />
<rect x="43" y="34" width="3" height="3" fill="hsl(20, 90%, 50%)" />
<rect x="76" y="34" width="3" height="3" fill="hsl(20, 90%, 50%)" />
<rect x="79" y="34" width="3" height="3" fill="hsl(20, 90%, 50%)" />
<rect x="91" y="34" width="3" height="3" fill="hsl(20, 90%, 50%)" />
<rect x="34" y="37" width="3" height="3" fill="hsl(20, 90%, 50%)" />
<rect x="82" y="37" width="3" height="3" fill="hsl(20, 90%, 50%)" />
<rect x="85" y="37" width="3" height="3" fill="hsl(20, 90%, 50%)" />
<rect x="34" y="40" width="3" height="3" fill="hsl(20, 90%, 50%)" />
</svg>