<?xml version="1.0" encoding="utf-8"?>
<svg xmlns="http://www.w3.org/2000/svg" width="116" height="41" viewBox="0 0 116 41">
<rect width="100%" height="100%" fill="transparent" />
<rect x="10" y="4" width="3" height="3" fill="hsl(20, 90%, 50%)" />
<rect x="40" y="4" width="3" height="3" fill="hsl(20, 90%, 50%)" />
<rect x="43" y="4" width="3" height="3" fill="hsl(20, 90%, 50%)" />
<rect x="70" y="4" width="3" height="3" fill="hsl(20, 90%, 50%)" />
<rect x="103" y="4" width="3" height="3" fill="hsl(20, 90%, 50%)" />
<rect x="106" y="4" width="3" height="3" fill="hsl(20, 90%, 50%)" />
<rect x="4" y="7" width="3" height="3" fill="hsl(20, 90%, 50%)" />
<rect x="10" y="7" width="3" height="3" fill="hsl(20, 90%, 50%)" />
<rect x="37" y="7" width="3" height="3" fill="hsl(20, 90%, 50%)" />
<rect x="40" y="7" width="3" height="3" fill="hsl(20, 90%, 50%)" />
<rect x="64" y="7" width="3" height="3" fill="hsl(20, 90%, 50%)" />
<rect x="70" y="7" width="3" height="3" fill="hsl(20, 90%, 50%)" />
<rect x="103" y="7" width="3" height="3" fill="hsl(20, 90%, 50%)" />
<rect x="109" y="7" width="3" height="3" fill="hsl(20, 90%, 50%)" />
<rect x="7" y="10" width="3" height="3" fill="hsl(20, 90%, 50%)" />
<rect x="10" y="10" width="3" height="3" fill="hsl(20, 90%, 50%)" />
<rect x="43" y="10" width="3" height="3" fill="hsl(20, 90%, 50%)" />
<rect x="67" y="10" width="3" height="3" fill="hsl(20, 90%, 50%)" />
<rect x="70" y="10" width="3" height="3" fill="hsl(20, 90%, 50%)" />
<rect x="103" y="10" width="3" height="3" fill="hsl(20, 90%, 50%)" />
<rect x="16" y="13" width="3" height="3" fill="hsl(20, 90%, 50%)" />
<rect x="19" y="13" width="3" height="3" fill="hsl(20, 90%, 50%)" />
<rect x="28" y="13" width="3" height="3" fill="hsl(20, 90%, 50%)" />
<rect x="31" y="13" width="3" height="3" fill="hsl(20, 90%, 50%)" />
<rect x="79" y="13" width="3" height="3" fill="hsl(20, 90%, 50%)" />
<rect x="82" y="13" width="3" height="3" fill="hsl(20, 90%, 50%)" />
<rect x="91" y="13" width="3" height="3" fill="hsl(20, 90%, 50%)" />
<rect x="94" y="13" width="3" height="3" fill="hsl(20, 90%, 50%)" />
<rect x="7" y="16" width="3" height="3" fill="hsl(20, 90%, 50%)" />
<rect x="19" y="16" width="3" height="3" fill="hsl(20, 90%, 50%)" />
<rect x="28" y="16" width="3" height="3" fill="hsl(20, 90%, 50%)" />
<rect x="31" y="16" width="3" height="3" fill="hsl(20, 90%, 50%)" />
<rect x="70" y="16" width="3" height="3" fill="hsl(20, 90%, 50%)" />
<rect x="82" y="16" width="3" height="3" fill="hsl(20, 90%, 50%)" />
<rect x="91" y="16" width="3" height="3" fill="hsl(20, 90%, 50%)" />
<rect x="94" y="16" width="3" height="3" fill="hsl(20, 90%, 50%)" />
<rect x="7" y="19" width="3" height="3" fill="hsl(20, 90%, 50%)" />
<rect x="10" y="19" width="3" height="3" fill="hsl(20, 90%, 50%)" />
<rect x="13" y="19" width="3" height="3" fill="hsl(20, 90%, 50%)" />
<rect x="16" y="19" width="3" height="3" fill="hsl(20, 90%, 50%)" />
<rect x="58" y="19" width="3" height="3" fill="hsl(20, 90%, 50%)" />
<rect x="61" y="19" width="3" height="3" fill="hsl(20, 90%, 50%)" />
<rect x="70" y="19" width="3" height="3" fill="hsl(20, 90%, 50%)" />
<rect x="73" y="19" width="3" height="3" fill="hsl(20, 90%, 50%)" />
<rect x="76" y="19" width="3" height="3" fill="hsl(20, 90%, 50%)" />
<rect x="79" y="19" width="3" height="3" fill="hsl(20, 90%, 50%)" />
<rect x="58" y="22" width="3" height="3" fill="hsl(20, 90%, 50%)" />
<rect x="7" y="25" width="3" height="3" fill="hsl(20, 90%, 50%)" />
<rect x="10" y="25" width="3" height="3" fill="hsl(20, 90%, 50%)" />
<rect x="61" y="25" width="3" height="3" fill="hsl(20, 90%, 50%)" />
<rect x="64" y="25" width="3" height="3" fill="hsl(20, 90%, 50%)" />
<rect x="67" y="25" width="3" height="3" fill="hsl(20, 90%, 50%)" />
<rect x="70" y="25" width="3" height="3" fill="hsl(20, 90%, 50%)" />
<rect x="73" y="25" width="3" height="3" fill="hsl(20, 90%, 50%)" />
<rect x="7" y="28" width="3" height="3" fill="hsl(20, 90%, 50%)" />
<rect x="10" y="28" width="3" height="3" fill="hsl(20, 90%, 50%)" />
<rect x="76" y="28" width="3" height="3" fill="hsl(20, 90%, 50%)" />
<rect x="67" y="31" width="3" height="3" fill="hsl(20, 90%, 50%)" />
<rect x="70" y="31" width="3" height="3" fill="hsl(20, 90%, 50%)" />
<rect x="73" y="31" width="3" height="3" fill="hsl(20, 90%, 50%)" />
<rect x="67" y="34" width="3" height="3" fill="hsl(20, 90%, 50%)" />
</svg>