<?xml version="1.0" encoding="utf-8"?>
<svg xmlns="http://www.w3.org/2000/svg" width="98" height="54" viewBox="0 0 98 54">
<rect width="100%" height="100%" fill="transparent" />
<rect x="44" y="4" width="2" height="2" fill="hsl(20, 90%, 50%)" />
<rect x="46" y="6" width="2" height="2" fill="hsl(20, 90%, 50%)" />
<rect x="42" y="8" width="2" height="2" fill="hsl(20, 90%, 50%)" />
<rect x="44" y="8" width="2" height="2" fill="hsl(20, 90%, 50%)" />
<rect x="46" y="8" width="2" height="2" fill="hsl(20, 90%, 50%)" />
<rect x="58" y="12" width="2" height="2" fill="hsl(20, 90%, 50%)" />
<rect x="62" y="12" width="2" height="2" fill="hsl(20, 90%, 50%)" />
<rect x="54" y="14" width="2" height="2" fill="hsl(20, 90%, 50%)" />
<rect x="62" y="14" width="2" height="2" fill="hsl(20, 90%, 50%)" />
<rect x="38" y="16" width="2" height="2" fill="hsl(20, 90%, 50%)" />
<rect x="54" y="16" width="2" height="2" fill="hsl(20, 90%, 50%)" />
<rect x="36" y="18" width="2" height="2" fill="hsl(20, 90%, 50%)" />
<rect x="38" y="18" width="2" height="2" fill="hsl(20, 90%, 50%)" />
<rect x="40" y="18" width="2" height="2" fill="hsl(20, 90%, 50%)" />
<rect x="42" y="18" width="2" height="2" fill="hsl(20, 90%, 50%)" />
<rect x="52" y="18" width="2" height="2" fill="hsl(20, 90%, 50%)" />
<rect x="62" y="18" width="2" height="2" fill="hsl(20, 90%, 50%)" />
<rect x="80" y="18" width="2" height="2" fill="hsl(20, 90%, 50%)" />
<rect x="82" y="18" width="2" height="2" fill="hsl(20, 90%, 50%)" />
<rect x="34" y="20" width="2" height="2" fill="hsl(20, 90%, 50%)" />
<rect x="36" y="20" width="2" height="2" fill="hsl(20, 90%, 50%)" />
<rect x="40" y="20" width="2" height="2" fill="hsl(20, 90%, 50%)" />
<rect x="44" y="20" width="2" height="2" fill="hsl(20, 90%, 50%)" />
<rect x="54" y="20" width="2" height="2" fill="hsl(20, 90%, 50%)" />
<rect x="80" y="20" width="2" height="2" fill="hsl(20, 90%, 50%)" />
<rect x="82" y="20" width="2" height="2" fill="hsl(20, 90%, 50%)" />
<rect x="12" y="22" width="2" height="2" fill="hsl(20, 90%, 50%)" />
<rect x="14" y="22" width="2" height="2" fill="hsl(20, 90%, 50%)" />
<rect x="32" y="22" width="2" height="2" fill="hsl(20, 90%, 50%)" />
<rect x="34" y="22" width="2" height="2" fill="hsl(20, 90%, 50%)" />
<rect x="36" y="22" width="2" height="2" fill="hsl(20, 90%, 50%)" />
<rect x="40" y="22" width="2" height="2" fill="hsl(20, 90%, 50%)" />
<rect x="46" y="22" width="2" height="2" fill="hsl(20, 90%, 50%)" />
<rect x="54" y="22" width="2" height="2" fill="hsl(20, 90%, 50%)" />
<rect x="62" y="22" width="2" height="2" fill="hsl(20, 90%, 50%)" />
<rect x="12" y="24" width="2" height="2" fill="hsl(20, 90%, 50%)" />
<rect x="14" y="24" width="2" height="2" fill="hsl(20, 90%, 50%)" />
<rect x="34" y="24" width="2" height="2" fill="hsl(20, 90%, 50%)" />
<rect x="36" y="24" width="2" height="2" fill="hsl(20, 90%, 50%)" />
<rect x="40" y="24" width="2" height="2" fill="hsl(20, 90%, 50%)" />
<rect x="44" y="24" width="2" height="2" fill="hsl(20, 90%, 50%)" />
<rect x="58" y="24" width="2" height="2" fill="hsl(20, 90%, 50%)" />
<rect x="62" y="24" width="2" height="2" fill="hsl(20, 90%, 50%)" />
<rect x="36" y="26" width="2" height="2" fill="hsl(20, 90%, 50%)" />
<rect x="38" y="26" width="2" height="2" fill="hsl(20, 90%, 50%)" />
<rect x="40" y="26" width="2" height="2" fill="hsl(20, 90%, 50%)" />
<rect x="42" y="26" width="2" height="2" fill="hsl(20, 90%, 50%)" />
<rect x="38" y="28" width="2" height="2" fill="hsl(20, 90%, 50%)" />
<rect x="56" y="30" width="2" height="2" fill="hsl(20, 90%, 50%)" />
<rect x="58" y="30" width="2" height="2" fill="hsl(20, 90%, 50%)" />
<rect x="60" y="30" width="2" height="2" fill="hsl(20, 90%, 50%)" />
<rect x="56" y="32" width="2" height="2" fill="hsl(20, 90%, 50%)" />
<rect x="60" y="32" width="2" height="2" fill="hsl(20, 90%, 50%)" />
<rect x="68" y="32" width="2" height="2" fill="hsl(20, 90%, 50%)" />
<rect x="70" y="32" width="2" height="2" fill="hsl(20, 90%, 50%)" />
<rect x="54" y="34" width="2" height="2" fill="hsl(20, 90%, 50%)" />
<rect x="56" y="34" width="2" height="2" fill="hsl(20, 90%, 50%)" />
<rect x="68" y="34" width="2" height="2" fill="hsl(20, 90%, 50%)" />
<rect x="74" y="34" width="2" height="2" fill="hsl(20, 90%, 50%)" />
<rect x="40" y="36" width="2" height="2" fill="hsl(20, 90%, 50%)" />
<rect x="44" y="36" width="2" height="2" fill="hsl(20, 90%, 50%)" />
<rect x="56" y="36" width="2" height="2" fill="hsl(20, 90%, 50%)" />
<rect x="76" y="36" width="2" height="2" fill="hsl(20, 90%, 50%)" />
<rect x="90" y="36" width="2" height="2" fill="hsl(20, 90%, 50%)" />
<rect x="92" y="36" width="2" height="2" fill="hsl(20, 90%, 50%)" />
<rect x="36" y="38" width="2" height="2" fill="hsl(20, 90%, 50%)" />
<rect x="44" y="38" width="2" height="2" fill="hsl(20, 90%, 50%)" />
<rect x="50" y="38" width="2" height="2" fill="hsl(20, 90%, 50%)" />
<rect x="52" y="38" width="2" height="2" fill="hsl(20, 90%, 50%)" />
<rect x="76" y="38" width="2" height="2" fill="hsl(20, 90%, 50%)" />
<rect x="90" y="38" width="2" height="2" fill="hsl(20, 90%, 50%)" />
<rect x="92" y="38" width="2" height="2" fill="hsl(20, 90%, 50%)" />
<rect x="22" y="40" width="2" height="2" fill="hsl(20, 90%, 50%)" />
<rect x="24" y="40" width="2" height="2" fill="hsl(20, 90%, 50%)" />
<rect x="36" y="40" width="2" height="2" fill="hsl(20, 90%, 50%)" />
<rect x="58" y="40" width="2" height="2" fill="hsl(20, 90%, 50%)" />
<rect x="76" y="40" width="2" height="2" fill="hsl(20, 90%, 50%)" />
<rect x="6" y="42" width="2" height="2" fill="hsl(20, 90%, 50%)" />
<rect x="22" y="42" width="2" height="2" fill="hsl(20, 90%, 50%)" />
<rect x="24" y="42" width="2" height="2" fill="hsl(20, 90%, 50%)" />
<rect x="34" y="42" width="2" height="2" fill="hsl(20, 90%, 50%)" />
<rect x="44" y="42" width="2" height="2" fill="hsl(20, 90%, 50%)" />
<rect x="60" y="42" width="2" height="2" fill="hsl(20, 90%, 50%)" />
<rect x="62" y="42" width="2" height="2" fill="hsl(20, 90%, 50%)" />
<rect x="68" y="42" width="2" height="2" fill="hsl(20, 90%, 50%)" />
<rect x="74" y="42" width="2" height="2" fill="hsl(20, 90%, 50%)" />
<rect x="8" y="44" width="2" height="2" fill="hsl(20, 90%, 50%)" />
<rect x="36" y="44" width="2" height="2" fill="hsl(20, 90%, 50%)" />
<rect x="52" y="44" width="2" height="2" fill="hsl(20, 90%, 50%)" />
<rect x="56" y="44" width="2" height="2" fill="hsl(20, 90%, 50%)" />
<rect x="62" y="44" width="2" height="2" fill="hsl(20, 90%, 50%)" />
<rect x="68" y="44" width="2" height="2" fill="hsl(20, 90%, 50%)" />
<rect x="70" y="44" width="2" height="2" fill="hsl(20, 90%, 50%)" />
<rect x="4" y="46" width="2" height="2" fill="hsl(20, 90%, 50%)" />
<rect x="6" y="46" width="2" height="2" fill="hsl(20, 90%, 50%)" />
<rect x="8" y="46" width="2" height="2" fill="hsl(20, 90%, 50%)" />
<rect x="36" y="46" width="2" height="2" fill="hsl(20, 90%, 50%)" />
<rect x="44" y="46" width="2" height="2" fill="hsl(20, 90%, 50%)" />
<rect x="56" y="46" width="2" height="2" fill="hsl(20, 90%, 50%)" />
<rect x="58" y="46" width="2" height="2" fill="hsl(20, 90%, 50%)" />
<rect x="60" y="46" width="2" height="2" fill="hsl(20, 90%, 50%)" />
<rect x="40" y="48" width="2" height="2" fill="hsl(20, 90%, 50%)" />
<rect x="44" y="48" width="2" height="2" fill="hsl(20, 90%, 50%)" />
</svg>