<?xml version="1.0" encoding="utf-8"?>
<svg xmlns="http://www.w3.org/2000/svg" width="101" height="29" viewBox="0 0 101 29">
<rect width="100%" height="100%" fill="transparent" />
<rect x="22" y="4" width="3" height="3" fill="hsl(20, 90%, 50%)" />
<rect x="34" y="4" width="3" height="3" fill="hsl(20, 90%, 50%)" />
<rect x="37" y="4" width="3" height="3" fill="hsl(20, 90%, 50%)" />
<rect x="40" y="4" width="3" height="3" fill="hsl(20, 90%, 50%)" />
<rect x="58" y="4" width="3" height="3" fill="hsl(20, 90%, 50%)" />
<rect x="61" y="4" width="3" height="3" fill="hsl(20, 90%, 50%)" />
<rect x="64" y="4" width="3" height="3" fill="hsl(20, 90%, 50%)" />
<rect x="76" y="4" width="3" height="3" fill="hsl(20, 90%, 50%)" />
<rect x="13" y="7" width="3" height="3" fill="hsl(20, 90%, 50%)" />
<rect x="16" y="7" width="3" height="3" fill="hsl(20, 90%, 50%)" />
<rect x="22" y="7" width="3" height="3" fill="hsl(20, 90%, 50%)" />
<rect x="25" y="7" width="3" height="3" fill="hsl(20, 90%, 50%)" />
<rect x="28" y="7" width="3" height="3" fill="hsl(20, 90%, 50%)" />
<rect x="31" y="7" width="3" height="3" fill="hsl(20, 90%, 50%)" />
<rect x="34" y="7" width="3" height="3" fill="hsl(20, 90%, 50%)" />
<rect x="40" y="7" width="3" height="3" fill="hsl(20, 90%, 50%)" />
<rect x="43" y="7" width="3" height="3" fill="hsl(20, 90%, 50%)" />
<rect x="55" y="7" width="3" height="3" fill="hsl(20, 90%, 50%)" />
<rect x="58" y="7" width="3" height="3" fill="hsl(20, 90%, 50%)" />
<rect x="64" y="7" width="3" height="3" fill="hsl(20, 90%, 50%)" />
<rect x="67" y="7" width="3" height="3" fill="hsl(20, 90%, 50%)" />
<rect x="70" y="7" width="3" height="3" fill="hsl(20, 90%, 50%)" />
<rect x="73" y="7" width="3" height="3" fill="hsl(20, 90%, 50%)" />
<rect x="76" y="7" width="3" height="3" fill="hsl(20, 90%, 50%)" />
<rect x="82" y="7" width="3" height="3" fill="hsl(20, 90%, 50%)" />
<rect x="85" y="7" width="3" height="3" fill="hsl(20, 90%, 50%)" />
<rect x="7" y="10" width="3" height="3" fill="hsl(20, 90%, 50%)" />
<rect x="13" y="10" width="3" height="3" fill="hsl(20, 90%, 50%)" />
<rect x="16" y="10" width="3" height="3" fill="hsl(20, 90%, 50%)" />
<rect x="22" y="10" width="3" height="3" fill="hsl(20, 90%, 50%)" />
<rect x="40" y="10" width="3" height="3" fill="hsl(20, 90%, 50%)" />
<rect x="46" y="10" width="3" height="3" fill="hsl(20, 90%, 50%)" />
<rect x="52" y="10" width="3" height="3" fill="hsl(20, 90%, 50%)" />
<rect x="58" y="10" width="3" height="3" fill="hsl(20, 90%, 50%)" />
<rect x="76" y="10" width="3" height="3" fill="hsl(20, 90%, 50%)" />
<rect x="82" y="10" width="3" height="3" fill="hsl(20, 90%, 50%)" />
<rect x="85" y="10" width="3" height="3" fill="hsl(20, 90%, 50%)" />
<rect x="91" y="10" width="3" height="3" fill="hsl(20, 90%, 50%)" />
<rect x="4" y="13" width="3" height="3" fill="hsl(20, 90%, 50%)" />
<rect x="16" y="13" width="3" height="3" fill="hsl(20, 90%, 50%)" />
<rect x="22" y="13" width="3" height="3" fill="hsl(20, 90%, 50%)" />
<rect x="34" y="13" width="3" height="3" fill="hsl(20, 90%, 50%)" />
<rect x="37" y="13" width="3" height="3" fill="hsl(20, 90%, 50%)" />
<rect x="40" y="13" width="3" height="3" fill="hsl(20, 90%, 50%)" />
<rect x="43" y="13" width="3" height="3" fill="hsl(20, 90%, 50%)" />
<rect x="46" y="13" width="3" height="3" fill="hsl(20, 90%, 50%)" />
<rect x="52" y="13" width="3" height="3" fill="hsl(20, 90%, 50%)" />
<rect x="55" y="13" width="3" height="3" fill="hsl(20, 90%, 50%)" />
<rect x="58" y="13" width="3" height="3" fill="hsl(20, 90%, 50%)" />
<rect x="61" y="13" width="3" height="3" fill="hsl(20, 90%, 50%)" />
<rect x="64" y="13" width="3" height="3" fill="hsl(20, 90%, 50%)" />
<rect x="76" y="13" width="3" height="3" fill="hsl(20, 90%, 50%)" />
<rect x="82" y="13" width="3" height="3" fill="hsl(20, 90%, 50%)" />
<rect x="94" y="13" width="3" height="3" fill="hsl(20, 90%, 50%)" />
<rect x="16" y="16" width="3" height="3" fill="hsl(20, 90%, 50%)" />
<rect x="19" y="16" width="3" height="3" fill="hsl(20, 90%, 50%)" />
<rect x="22" y="16" width="3" height="3" fill="hsl(20, 90%, 50%)" />
<rect x="40" y="16" width="3" height="3" fill="hsl(20, 90%, 50%)" />
<rect x="43" y="16" width="3" height="3" fill="hsl(20, 90%, 50%)" />
<rect x="55" y="16" width="3" height="3" fill="hsl(20, 90%, 50%)" />
<rect x="58" y="16" width="3" height="3" fill="hsl(20, 90%, 50%)" />
<rect x="76" y="16" width="3" height="3" fill="hsl(20, 90%, 50%)" />
<rect x="79" y="16" width="3" height="3" fill="hsl(20, 90%, 50%)" />
<rect x="82" y="16" width="3" height="3" fill="hsl(20, 90%, 50%)" />
<rect x="7" y="19" width="3" height="3" fill="hsl(20, 90%, 50%)" />
<rect x="16" y="19" width="3" height="3" fill="hsl(20, 90%, 50%)" />
<rect x="22" y="19" width="3" height="3" fill="hsl(20, 90%, 50%)" />
<rect x="25" y="19" width="3" height="3" fill="hsl(20, 90%, 50%)" />
<rect x="28" y="19" width="3" height="3" fill="hsl(20, 90%, 50%)" />
<rect x="70" y="19" width="3" height="3" fill="hsl(20, 90%, 50%)" />
<rect x="73" y="19" width="3" height="3" fill="hsl(20, 90%, 50%)" />
<rect x="76" y="19" width="3" height="3" fill="hsl(20, 90%, 50%)" />
<rect x="82" y="19" width="3" height="3" fill="hsl(20, 90%, 50%)" />
<rect x="91" y="19" width="3" height="3" fill="hsl(20, 90%, 50%)" />
<rect x="13" y="22" width="3" height="3" fill="hsl(20, 90%, 50%)" />
<rect x="85" y="22" width="3" height="3" fill="hsl(20, 90%, 50%)" />
</svg>