<?xml version="1.0" encoding="utf-8"?>
<svg xmlns="http://www.w3.org/2000/svg" width="122" height="110" viewBox="0 0 122 110">
<rect width="100%" height="100%" fill="transparent" />
<rect x="16" y="4" width="6" height="6" fill="hsl(20, 90%, 50%)" />
<rect x="22" y="4" width="6" height="6" fill="hsl(20, 90%, 50%)" />
<rect x="10" y="10" width="6" height="6" fill="hsl(20, 90%, 50%)" />
<rect x="16" y="10" width="6" height="6" fill="hsl(20, 90%, 50%)" />
<rect x="28" y="10" width="6" height="6" fill="hsl(20, 90%, 50%)" />
<rect x="34" y="10" width="6" height="6" fill="hsl(20, 90%, 50%)" />
<rect x="16" y="16" width="6" height="6" fill="hsl(20, 90%, 50%)" />
<rect x="22" y="16" width="6" height="6" fill="hsl(20, 90%, 50%)" />
<rect x="28" y="16" width="6" height="6" fill="hsl(20, 90%, 50%)" />
<rect x="34" y="16" width="6" height="6" fill="hsl(20, 90%, 50%)" />
<rect x="22" y="22" width="6" height="6" fill="hsl(20, 90%, 50%)" />
<rect x="28" y="22" width="6" height="6" fill="hsl(20, 90%, 50%)" />
<rect x="22" y="34" width="6" height="6" fill="hsl(20, 90%, 50%)" />
<rect x="28" y="34" width="6" height="6" fill="hsl(20, 90%, 50%)" />
<rect x="34" y="34" width="6" height="6" fill="hsl(20, 90%, 50%)" />
<rect x="40" y="34" width="6" height="6" fill="hsl(20, 90%, 50%)" />
<rect x="46" y="34" width="6" height="6" fill="hsl(20, 90%, 50%)" />
<rect x="16" y="40" width="6" height="6" fill="hsl(20, 90%, 50%)" />
<rect x="22" y="40" width="6" height="6" fill="hsl(20, 90%, 50%)" />
<rect x="28" y="40" width="6" height="6" fill="hsl(20, 90%, 50%)" />
<rect x="34" y="40" width="6" height="6" fill="hsl(20, 90%, 50%)" />
<rect x="40" y="40" width="6" height="6" fill="hsl(20, 90%, 50%)" />
<rect x="46" y="40" width="6" height="6" fill="hsl(20, 90%, 50%)" />
<rect x="52" y="40" width="6" height="6" fill="hsl(20, 90%, 50%)" />
<rect x="10" y="46" width="6" height="6" fill="hsl(20, 90%, 50%)" />
<rect x="16" y="46" width="6" height="6" fill="hsl(20, 90%, 50%)" />
<rect x="28" y="46" width="6" height="6" fill="hsl(20, 90%, 50%)" />
<rect x="34" y="46" width="6" height="6" fill="hsl(20, 90%, 50%)" />
<rect x="40" y="46" width="6" height="6" fill="hsl(20, 90%, 50%)" />
<rect x="46" y="46" width="6" height="6" fill="hsl(20, 90%, 50%)" />
<rect x="52" y="46" width="6" height="6" fill="hsl(20, 90%, 50%)" />
<rect x="16" y="52" width="6" height="6" fill="hsl(20, 90%, 50%)" />
<rect x="22" y="52" width="6" height="6" fill="hsl(20, 90%, 50%)" />
<rect x="52" y="64" width="6" height="6" fill="hsl(20, 90%, 50%)" />
<rect x="64" y="64" width="6" height="6" fill="hsl(20, 90%, 50%)" />
<rect x="100" y="64" width="6" height="6" fill="hsl(20, 90%, 50%)" />
<rect x="106" y="64" width="6" height="6" fill="hsl(20, 90%, 50%)" />
<rect x="40" y="70" width="6" height="6" fill="hsl(20, 90%, 50%)" />
<rect x="70" y="70" width="6" height="6" fill="hsl(20, 90%, 50%)" />
<rect x="94" y="70" width="6" height="6" fill="hsl(20, 90%, 50%)" />
<rect x="112" y="70" width="6" height="6" fill="hsl(20, 90%, 50%)" />
<rect x="40" y="76" width="6" height="6" fill="hsl(20, 90%, 50%)" />
<rect x="46" y="76" width="6" height="6" fill="hsl(20, 90%, 50%)" />
<rect x="82" y="76" width="6" height="6" fill="hsl(20, 90%, 50%)" />
<rect x="94" y="76" width="6" height="6" fill="hsl(20, 90%, 50%)" />
<rect x="112" y="76" width="6" height="6" fill="hsl(20, 90%, 50%)" />
<rect x="10" y="82" width="6" height="6" fill="hsl(20, 90%, 50%)" />
<rect x="28" y="82" width="6" height="6" fill="hsl(20, 90%, 50%)" />
<rect x="46" y="82" width="6" height="6" fill="hsl(20, 90%, 50%)" />
<rect x="52" y="82" width="6" height="6" fill="hsl(20, 90%, 50%)" />
<rect x="58" y="82" width="6" height="6" fill="hsl(20, 90%, 50%)" />
<rect x="64" y="82" width="6" height="6" fill="hsl(20, 90%, 50%)" />
<rect x="76" y="82" width="6" height="6" fill="hsl(20, 90%, 50%)" />
<rect x="100" y="82" width="6" height="6" fill="hsl(20, 90%, 50%)" />
<rect x="106" y="82" width="6" height="6" fill="hsl(20, 90%, 50%)" />
<rect x="4" y="88" width="6" height="6" fill="hsl(20, 90%, 50%)" />
<rect x="52" y="88" width="6" height="6" fill="hsl(20, 90%, 50%)" />
<rect x="58" y="88" width="6" height="6" fill="hsl(20, 90%, 50%)" />
<rect x="4" y="94" width="6" height="6" fill="hsl(20, 90%, 50%)" />
<rect x="28" y="94" width="6" height="6" fill="hsl(20, 90%, 50%)" />
<rect x="4" y="100" width="6" height="6" fill="hsl(20, 90%, 50%)" />
<rect x="10" y="100" width="6" height="6" fill="hsl(20, 90%, 50%)" />
<rect x="16" y="100" width="6" height="6" fill="hsl(20, 90%, 50%)" />
<rect x="22" y="100" width="6" height="6" fill="hsl(20, 90%, 50%)" />
</svg>