<?xml version="1.0" encoding="utf-8"?>
<svg xmlns="http://www.w3.org/2000/svg" width="120" height="120" viewBox="0 0 120 120">
<rect width="100%" height="100%" fill="transparent" />
<rect x="81" y="4" width="7" height="7" fill="hsl(20, 90%, 50%)" />
<rect x="88" y="4" width="7" height="7" fill="hsl(20, 90%, 50%)" />
<rect x="74" y="11" width="7" height="7" fill="hsl(20, 90%, 50%)" />
<rect x="88" y="11" width="7" height="7" fill="hsl(20, 90%, 50%)" />
<rect x="18" y="18" width="7" height="7" fill="hsl(20, 90%, 50%)" />
<rect x="60" y="18" width="7" height="7" fill="hsl(20, 90%, 50%)" />
<rect x="95" y="18" width="7" height="7" fill="hsl(20, 90%, 50%)" />
<rect x="4" y="25" width="7" height="7" fill="hsl(20, 90%, 50%)" />
<rect x="11" y="25" width="7" height="7" fill="hsl(20, 90%, 50%)" />
<rect x="25" y="25" width="7" height="7" fill="hsl(20, 90%, 50%)" />
<rect x="32" y="25" width="7" height="7" fill="hsl(20, 90%, 50%)" />
<rect x="53" y="25" width="7" height="7" fill="hsl(20, 90%, 50%)" />
<rect x="60" y="25" width="7" height="7" fill="hsl(20, 90%, 50%)" />
<rect x="74" y="25" width="7" height="7" fill="hsl(20, 90%, 50%)" />
<rect x="88" y="25" width="7" height="7" fill="hsl(20, 90%, 50%)" />
<rect x="4" y="32" width="7" height="7" fill="hsl(20, 90%, 50%)" />
<rect x="60" y="32" width="7" height="7" fill="hsl(20, 90%, 50%)" />
<rect x="88" y="32" width="7" height="7" fill="hsl(20, 90%, 50%)" />
<rect x="11" y="39" width="7" height="7" fill="hsl(20, 90%, 50%)" />
<rect x="25" y="39" width="7" height="7" fill="hsl(20, 90%, 50%)" />
<rect x="18" y="53" width="7" height="7" fill="hsl(20, 90%, 50%)" />
<rect x="25" y="53" width="7" height="7" fill="hsl(20, 90%, 50%)" />
<rect x="32" y="53" width="7" height="7" fill="hsl(20, 90%, 50%)" />
<rect x="88" y="53" width="7" height="7" fill="hsl(20, 90%, 50%)" />
<rect x="25" y="60" width="7" height="7" fill="hsl(20, 90%, 50%)" />
<rect x="81" y="60" width="7" height="7" fill="hsl(20, 90%, 50%)" />
<rect x="88" y="60" width="7" height="7" fill="hsl(20, 90%, 50%)" />
<rect x="95" y="60" width="7" height="7" fill="hsl(20, 90%, 50%)" />
<rect x="88" y="74" width="7" height="7" fill="hsl(20, 90%, 50%)" />
<rect x="102" y="74" width="7" height="7" fill="hsl(20, 90%, 50%)" />
<rect x="25" y="81" width="7" height="7" fill="hsl(20, 90%, 50%)" />
<rect x="53" y="81" width="7" height="7" fill="hsl(20, 90%, 50%)" />
<rect x="109" y="81" width="7" height="7" fill="hsl(20, 90%, 50%)" />
<rect x="25" y="88" width="7" height="7" fill="hsl(20, 90%, 50%)" />
<rect x="39" y="88" width="7" height="7" fill="hsl(20, 90%, 50%)" />
<rect x="53" y="88" width="7" height="7" fill="hsl(20, 90%, 50%)" />
<rect x="60" y="88" width="7" height="7" fill="hsl(20, 90%, 50%)" />
<rect x="81" y="88" width="7" height="7" fill="hsl(20, 90%, 50%)" />
<rect x="88" y="88" width="7" height="7" fill="hsl(20, 90%, 50%)" />
<rect x="102" y="88" width="7" height="7" fill="hsl(20, 90%, 50%)" />
<rect x="109" y="88" width="7" height="7" fill="hsl(20, 90%, 50%)" />
<rect x="18" y="95" width="7" height="7" fill="hsl(20, 90%, 50%)" />
<rect x="53" y="95" width="7" height="7" fill="hsl(20, 90%, 50%)" />
<rect x="95" y="95" width="7" height="7" fill="hsl(20, 90%, 50%)" />
<rect x="25" y="102" width="7" height="7" fill="hsl(20, 90%, 50%)" />
<rect x="39" y="102" width="7" height="7" fill="hsl(20, 90%, 50%)" />
<rect x="25" y="109" width="7" height="7" fill="hsl(20, 90%, 50%)" />
<rect x="32" y="109" width="7" height="7" fill="hsl(20, 90%, 50%)" />
</svg>