<?xml version="1.0" encoding="utf-8"?>
<svg xmlns="http://www.w3.org/2000/svg" width="92" height="96" viewBox="0 0 92 96">
<rect width="100%" height="100%" fill="transparent" />
<rect x="74" y="4" width="2" height="2" fill="hsl(20, 90%, 50%)" />
<rect x="76" y="4" width="2" height="2" fill="hsl(20, 90%, 50%)" />
<rect x="74" y="6" width="2" height="2" fill="hsl(20, 90%, 50%)" />
<rect x="70" y="8" width="2" height="2" fill="hsl(20, 90%, 50%)" />
<rect x="74" y="8" width="2" height="2" fill="hsl(20, 90%, 50%)" />
<rect x="62" y="10" width="2" height="2" fill="hsl(20, 90%, 50%)" />
<rect x="64" y="10" width="2" height="2" fill="hsl(20, 90%, 50%)" />
<rect x="70" y="10" width="2" height="2" fill="hsl(20, 90%, 50%)" />
<rect x="72" y="10" width="2" height="2" fill="hsl(20, 90%, 50%)" />
<rect x="62" y="12" width="2" height="2" fill="hsl(20, 90%, 50%)" />
<rect x="64" y="12" width="2" height="2" fill="hsl(20, 90%, 50%)" />
<rect x="14" y="14" width="2" height="2" fill="hsl(20, 90%, 50%)" />
<rect x="16" y="14" width="2" height="2" fill="hsl(20, 90%, 50%)" />
<rect x="14" y="16" width="2" height="2" fill="hsl(20, 90%, 50%)" />
<rect x="16" y="16" width="2" height="2" fill="hsl(20, 90%, 50%)" />
<rect x="62" y="18" width="2" height="2" fill="hsl(20, 90%, 50%)" />
<rect x="64" y="18" width="2" height="2" fill="hsl(20, 90%, 50%)" />
<rect x="62" y="20" width="2" height="2" fill="hsl(20, 90%, 50%)" />
<rect x="64" y="20" width="2" height="2" fill="hsl(20, 90%, 50%)" />
<rect x="22" y="28" width="2" height="2" fill="hsl(20, 90%, 50%)" />
<rect x="24" y="28" width="2" height="2" fill="hsl(20, 90%, 50%)" />
<rect x="22" y="30" width="2" height="2" fill="hsl(20, 90%, 50%)" />
<rect x="24" y="30" width="2" height="2" fill="hsl(20, 90%, 50%)" />
<rect x="4" y="34" width="2" height="2" fill="hsl(20, 90%, 50%)" />
<rect x="54" y="34" width="2" height="2" fill="hsl(20, 90%, 50%)" />
<rect x="4" y="36" width="2" height="2" fill="hsl(20, 90%, 50%)" />
<rect x="8" y="36" width="2" height="2" fill="hsl(20, 90%, 50%)" />
<rect x="54" y="36" width="2" height="2" fill="hsl(20, 90%, 50%)" />
<rect x="58" y="36" width="2" height="2" fill="hsl(20, 90%, 50%)" />
<rect x="4" y="38" width="2" height="2" fill="hsl(20, 90%, 50%)" />
<rect x="6" y="38" width="2" height="2" fill="hsl(20, 90%, 50%)" />
<rect x="8" y="38" width="2" height="2" fill="hsl(20, 90%, 50%)" />
<rect x="54" y="38" width="2" height="2" fill="hsl(20, 90%, 50%)" />
<rect x="56" y="38" width="2" height="2" fill="hsl(20, 90%, 50%)" />
<rect x="58" y="38" width="2" height="2" fill="hsl(20, 90%, 50%)" />
<rect x="8" y="40" width="2" height="2" fill="hsl(20, 90%, 50%)" />
<rect x="58" y="40" width="2" height="2" fill="hsl(20, 90%, 50%)" />
<rect x="84" y="74" width="2" height="2" fill="hsl(20, 90%, 50%)" />
<rect x="26" y="76" width="2" height="2" fill="hsl(20, 90%, 50%)" />
<rect x="82" y="76" width="2" height="2" fill="hsl(20, 90%, 50%)" />
<rect x="86" y="76" width="2" height="2" fill="hsl(20, 90%, 50%)" />
<rect x="24" y="78" width="2" height="2" fill="hsl(20, 90%, 50%)" />
<rect x="28" y="78" width="2" height="2" fill="hsl(20, 90%, 50%)" />
<rect x="84" y="78" width="2" height="2" fill="hsl(20, 90%, 50%)" />
<rect x="86" y="78" width="2" height="2" fill="hsl(20, 90%, 50%)" />
<rect x="24" y="80" width="2" height="2" fill="hsl(20, 90%, 50%)" />
<rect x="28" y="80" width="2" height="2" fill="hsl(20, 90%, 50%)" />
<rect x="26" y="82" width="2" height="2" fill="hsl(20, 90%, 50%)" />
<rect x="84" y="82" width="2" height="2" fill="hsl(20, 90%, 50%)" />
<rect x="86" y="82" width="2" height="2" fill="hsl(20, 90%, 50%)" />
<rect x="4" y="84" width="2" height="2" fill="hsl(20, 90%, 50%)" />
<rect x="54" y="84" width="2" height="2" fill="hsl(20, 90%, 50%)" />
<rect x="82" y="84" width="2" height="2" fill="hsl(20, 90%, 50%)" />
<rect x="86" y="84" width="2" height="2" fill="hsl(20, 90%, 50%)" />
<rect x="4" y="86" width="2" height="2" fill="hsl(20, 90%, 50%)" />
<rect x="8" y="86" width="2" height="2" fill="hsl(20, 90%, 50%)" />
<rect x="54" y="86" width="2" height="2" fill="hsl(20, 90%, 50%)" />
<rect x="58" y="86" width="2" height="2" fill="hsl(20, 90%, 50%)" />
<rect x="84" y="86" width="2" height="2" fill="hsl(20, 90%, 50%)" />
<rect x="4" y="88" width="2" height="2" fill="hsl(20, 90%, 50%)" />
<rect x="6" y="88" width="2" height="2" fill="hsl(20, 90%, 50%)" />
<rect x="8" y="88" width="2" height="2" fill="hsl(20, 90%, 50%)" />
<rect x="54" y="88" width="2" height="2" fill="hsl(20, 90%, 50%)" />
<rect x="56" y="88" width="2" height="2" fill="hsl(20, 90%, 50%)" />
<rect x="58" y="88" width="2" height="2" fill="hsl(20, 90%, 50%)" />
<rect x="8" y="90" width="2" height="2" fill="hsl(20, 90%, 50%)" />
<rect x="58" y="90" width="2" height="2" fill="hsl(20, 90%, 50%)" />
</svg>