<?xml version="1.0" encoding="utf-8"?>
<svg xmlns="http://www.w3.org/2000/svg" width="100" height="64" viewBox="0 0 100 64">
<rect width="100%" height="100%" fill="transparent" />
<rect x="10" y="4" width="2" height="2" fill="hsl(20, 90%, 50%)" />
<rect x="54" y="4" width="2" height="2" fill="hsl(20, 90%, 50%)" />
<rect x="12" y="6" width="2" height="2" fill="hsl(20, 90%, 50%)" />
<rect x="52" y="6" width="2" height="2" fill="hsl(20, 90%, 50%)" />
<rect x="56" y="6" width="2" height="2" fill="hsl(20, 90%, 50%)" />
<rect x="8" y="8" width="2" height="2" fill="hsl(20, 90%, 50%)" />
<rect x="10" y="8" width="2" height="2" fill="hsl(20, 90%, 50%)" />
<rect x="12" y="8" width="2" height="2" fill="hsl(20, 90%, 50%)" />
<rect x="52" y="8" width="2" height="2" fill="hsl(20, 90%, 50%)" />
<rect x="56" y="8" width="2" height="2" fill="hsl(20, 90%, 50%)" />
<rect x="48" y="10" width="2" height="2" fill="hsl(20, 90%, 50%)" />
<rect x="50" y="10" width="2" height="2" fill="hsl(20, 90%, 50%)" />
<rect x="52" y="10" width="2" height="2" fill="hsl(20, 90%, 50%)" />
<rect x="56" y="10" width="2" height="2" fill="hsl(20, 90%, 50%)" />
<rect x="58" y="10" width="2" height="2" fill="hsl(20, 90%, 50%)" />
<rect x="92" y="10" width="2" height="2" fill="hsl(20, 90%, 50%)" />
<rect x="40" y="12" width="2" height="2" fill="hsl(20, 90%, 50%)" />
<rect x="46" y="12" width="2" height="2" fill="hsl(20, 90%, 50%)" />
<rect x="88" y="12" width="2" height="2" fill="hsl(20, 90%, 50%)" />
<rect x="90" y="12" width="2" height="2" fill="hsl(20, 90%, 50%)" />
<rect x="92" y="12" width="2" height="2" fill="hsl(20, 90%, 50%)" />
<rect x="36" y="14" width="2" height="2" fill="hsl(20, 90%, 50%)" />
<rect x="38" y="14" width="2" height="2" fill="hsl(20, 90%, 50%)" />
<rect x="40" y="14" width="2" height="2" fill="hsl(20, 90%, 50%)" />
<rect x="48" y="14" width="2" height="2" fill="hsl(20, 90%, 50%)" />
<rect x="50" y="14" width="2" height="2" fill="hsl(20, 90%, 50%)" />
<rect x="52" y="14" width="2" height="2" fill="hsl(20, 90%, 50%)" />
<rect x="56" y="14" width="2" height="2" fill="hsl(20, 90%, 50%)" />
<rect x="58" y="14" width="2" height="2" fill="hsl(20, 90%, 50%)" />
<rect x="66" y="14" width="2" height="2" fill="hsl(20, 90%, 50%)" />
<rect x="68" y="14" width="2" height="2" fill="hsl(20, 90%, 50%)" />
<rect x="86" y="14" width="2" height="2" fill="hsl(20, 90%, 50%)" />
<rect x="34" y="16" width="2" height="2" fill="hsl(20, 90%, 50%)" />
<rect x="52" y="16" width="2" height="2" fill="hsl(20, 90%, 50%)" />
<rect x="56" y="16" width="2" height="2" fill="hsl(20, 90%, 50%)" />
<rect x="58" y="16" width="2" height="2" fill="hsl(20, 90%, 50%)" />
<rect x="66" y="16" width="2" height="2" fill="hsl(20, 90%, 50%)" />
<rect x="68" y="16" width="2" height="2" fill="hsl(20, 90%, 50%)" />
<rect x="86" y="16" width="2" height="2" fill="hsl(20, 90%, 50%)" />
<rect x="88" y="16" width="2" height="2" fill="hsl(20, 90%, 50%)" />
<rect x="34" y="18" width="2" height="2" fill="hsl(20, 90%, 50%)" />
<rect x="36" y="18" width="2" height="2" fill="hsl(20, 90%, 50%)" />
<rect x="4" y="20" width="2" height="2" fill="hsl(20, 90%, 50%)" />
<rect x="6" y="20" width="2" height="2" fill="hsl(20, 90%, 50%)" />
<rect x="6" y="22" width="2" height="2" fill="hsl(20, 90%, 50%)" />
<rect x="6" y="24" width="2" height="2" fill="hsl(20, 90%, 50%)" />
<rect x="10" y="24" width="2" height="2" fill="hsl(20, 90%, 50%)" />
<rect x="12" y="24" width="2" height="2" fill="hsl(20, 90%, 50%)" />
<rect x="8" y="26" width="2" height="2" fill="hsl(20, 90%, 50%)" />
<rect x="14" y="26" width="2" height="2" fill="hsl(20, 90%, 50%)" />
<rect x="88" y="26" width="2" height="2" fill="hsl(20, 90%, 50%)" />
<rect x="90" y="26" width="2" height="2" fill="hsl(20, 90%, 50%)" />
<rect x="10" y="28" width="2" height="2" fill="hsl(20, 90%, 50%)" />
<rect x="12" y="28" width="2" height="2" fill="hsl(20, 90%, 50%)" />
<rect x="88" y="28" width="2" height="2" fill="hsl(20, 90%, 50%)" />
<rect x="92" y="28" width="2" height="2" fill="hsl(20, 90%, 50%)" />
<rect x="40" y="30" width="2" height="2" fill="hsl(20, 90%, 50%)" />
<rect x="42" y="30" width="2" height="2" fill="hsl(20, 90%, 50%)" />
<rect x="92" y="30" width="2" height="2" fill="hsl(20, 90%, 50%)" />
<rect x="40" y="32" width="2" height="2" fill="hsl(20, 90%, 50%)" />
<rect x="42" y="32" width="2" height="2" fill="hsl(20, 90%, 50%)" />
<rect x="92" y="32" width="2" height="2" fill="hsl(20, 90%, 50%)" />
<rect x="94" y="32" width="2" height="2" fill="hsl(20, 90%, 50%)" />
<rect x="72" y="34" width="2" height="2" fill="hsl(20, 90%, 50%)" />
<rect x="74" y="34" width="2" height="2" fill="hsl(20, 90%, 50%)" />
<rect x="76" y="34" width="2" height="2" fill="hsl(20, 90%, 50%)" />
<rect x="72" y="36" width="2" height="2" fill="hsl(20, 90%, 50%)" />
<rect x="74" y="38" width="2" height="2" fill="hsl(20, 90%, 50%)" />
<rect x="56" y="42" width="2" height="2" fill="hsl(20, 90%, 50%)" />
<rect x="64" y="42" width="2" height="2" fill="hsl(20, 90%, 50%)" />
<rect x="66" y="42" width="2" height="2" fill="hsl(20, 90%, 50%)" />
<rect x="54" y="44" width="2" height="2" fill="hsl(20, 90%, 50%)" />
<rect x="58" y="44" width="2" height="2" fill="hsl(20, 90%, 50%)" />
<rect x="66" y="44" width="2" height="2" fill="hsl(20, 90%, 50%)" />
<rect x="46" y="46" width="2" height="2" fill="hsl(20, 90%, 50%)" />
<rect x="48" y="46" width="2" height="2" fill="hsl(20, 90%, 50%)" />
<rect x="52" y="46" width="2" height="2" fill="hsl(20, 90%, 50%)" />
<rect x="56" y="46" width="2" height="2" fill="hsl(20, 90%, 50%)" />
<rect x="64" y="46" width="2" height="2" fill="hsl(20, 90%, 50%)" />
<rect x="46" y="48" width="2" height="2" fill="hsl(20, 90%, 50%)" />
<rect x="48" y="48" width="2" height="2" fill="hsl(20, 90%, 50%)" />
<rect x="52" y="48" width="2" height="2" fill="hsl(20, 90%, 50%)" />
<rect x="62" y="48" width="2" height="2" fill="hsl(20, 90%, 50%)" />
<rect x="54" y="50" width="2" height="2" fill="hsl(20, 90%, 50%)" />
<rect x="56" y="50" width="2" height="2" fill="hsl(20, 90%, 50%)" />
<rect x="58" y="50" width="2" height="2" fill="hsl(20, 90%, 50%)" />
<rect x="60" y="50" width="2" height="2" fill="hsl(20, 90%, 50%)" />
<rect x="62" y="50" width="2" height="2" fill="hsl(20, 90%, 50%)" />
<rect x="66" y="50" width="2" height="2" fill="hsl(20, 90%, 50%)" />
<rect x="38" y="52" width="2" height="2" fill="hsl(20, 90%, 50%)" />
<rect x="40" y="52" width="2" height="2" fill="hsl(20, 90%, 50%)" />
<rect x="44" y="52" width="2" height="2" fill="hsl(20, 90%, 50%)" />
<rect x="48" y="52" width="2" height="2" fill="hsl(20, 90%, 50%)" />
<rect x="50" y="52" width="2" height="2" fill="hsl(20, 90%, 50%)" />
<rect x="54" y="52" width="2" height="2" fill="hsl(20, 90%, 50%)" />
<rect x="64" y="52" width="2" height="2" fill="hsl(20, 90%, 50%)" />
<rect x="66" y="52" width="2" height="2" fill="hsl(20, 90%, 50%)" />
<rect x="90" y="52" width="2" height="2" fill="hsl(20, 90%, 50%)" />
<rect x="92" y="52" width="2" height="2" fill="hsl(20, 90%, 50%)" />
<rect x="94" y="52" width="2" height="2" fill="hsl(20, 90%, 50%)" />
<rect x="38" y="54" width="2" height="2" fill="hsl(20, 90%, 50%)" />
<rect x="42" y="54" width="2" height="2" fill="hsl(20, 90%, 50%)" />
<rect x="44" y="54" width="2" height="2" fill="hsl(20, 90%, 50%)" />
<rect x="48" y="54" width="2" height="2" fill="hsl(20, 90%, 50%)" />
<rect x="54" y="54" width="2" height="2" fill="hsl(20, 90%, 50%)" />
<rect x="58" y="54" width="2" height="2" fill="hsl(20, 90%, 50%)" />
<rect x="60" y="54" width="2" height="2" fill="hsl(20, 90%, 50%)" />
<rect x="90" y="54" width="2" height="2" fill="hsl(20, 90%, 50%)" />
<rect x="24" y="56" width="2" height="2" fill="hsl(20, 90%, 50%)" />
<rect x="26" y="56" width="2" height="2" fill="hsl(20, 90%, 50%)" />
<rect x="52" y="56" width="2" height="2" fill="hsl(20, 90%, 50%)" />
<rect x="54" y="56" width="2" height="2" fill="hsl(20, 90%, 50%)" />
<rect x="58" y="56" width="2" height="2" fill="hsl(20, 90%, 50%)" />
<rect x="62" y="56" width="2" height="2" fill="hsl(20, 90%, 50%)" />
<rect x="64" y="56" width="2" height="2" fill="hsl(20, 90%, 50%)" />
<rect x="66" y="56" width="2" height="2" fill="hsl(20, 90%, 50%)" />
<rect x="92" y="56" width="2" height="2" fill="hsl(20, 90%, 50%)" />
<rect x="24" y="58" width="2" height="2" fill="hsl(20, 90%, 50%)" />
<rect x="26" y="58" width="2" height="2" fill="hsl(20, 90%, 50%)" />
<rect x="66" y="58" width="2" height="2" fill="hsl(20, 90%, 50%)" />
</svg>