<?xml version="1.0" encoding="utf-8"?>
<svg xmlns="http://www.w3.org/2000/svg" width="84" height="108" viewBox="0 0 84 108">
<rect width="100%" height="100%" fill="transparent" />
<rect x="8" y="4" width="4" height="4" fill="hsl(20, 90%, 50%)" />
<rect x="16" y="4" width="4" height="4" fill="hsl(20, 90%, 50%)" />
<rect x="4" y="8" width="4" height="4" fill="hsl(20, 90%, 50%)" />
<rect x="8" y="12" width="4" height="4" fill="hsl(20, 90%, 50%)" />
<rect x="20" y="12" width="4" height="4" fill="hsl(20, 90%, 50%)" />
<rect x="16" y="16" width="4" height="4" fill="hsl(20, 90%, 50%)" />
<rect x="20" y="16" width="4" height="4" fill="hsl(20, 90%, 50%)" />
<rect x="24" y="16" width="4" height="4" fill="hsl(20, 90%, 50%)" />
<rect x="4" y="20" width="4" height="4" fill="hsl(20, 90%, 50%)" />
<rect x="8" y="20" width="4" height="4" fill="hsl(20, 90%, 50%)" />
<rect x="12" y="20" width="4" height="4" fill="hsl(20, 90%, 50%)" />
<rect x="12" y="24" width="4" height="4" fill="hsl(20, 90%, 50%)" />
<rect x="8" y="28" width="4" height="4" fill="hsl(20, 90%, 50%)" />
<rect x="32" y="36" width="4" height="4" fill="hsl(20, 90%, 50%)" />
<rect x="36" y="36" width="4" height="4" fill="hsl(20, 90%, 50%)" />
<rect x="28" y="40" width="4" height="4" fill="hsl(20, 90%, 50%)" />
<rect x="32" y="40" width="4" height="4" fill="hsl(20, 90%, 50%)" />
<rect x="36" y="44" width="4" height="4" fill="hsl(20, 90%, 50%)" />
<rect x="12" y="76" width="4" height="4" fill="hsl(20, 90%, 50%)" />
<rect x="16" y="76" width="4" height="4" fill="hsl(20, 90%, 50%)" />
<rect x="8" y="80" width="4" height="4" fill="hsl(20, 90%, 50%)" />
<rect x="16" y="80" width="4" height="4" fill="hsl(20, 90%, 50%)" />
<rect x="16" y="84" width="4" height="4" fill="hsl(20, 90%, 50%)" />
<rect x="68" y="92" width="4" height="4" fill="hsl(20, 90%, 50%)" />
<rect x="72" y="92" width="4" height="4" fill="hsl(20, 90%, 50%)" />
<rect x="76" y="92" width="4" height="4" fill="hsl(20, 90%, 50%)" />
<rect x="68" y="96" width="4" height="4" fill="hsl(20, 90%, 50%)" />
<rect x="72" y="100" width="4" height="4" fill="hsl(20, 90%, 50%)" />
</svg>