<?xml version="1.0" encoding="utf-8"?>
<svg xmlns="http://www.w3.org/2000/svg" width="116" height="68" viewBox="0 0 116 68">
<rect width="100%" height="100%" fill="transparent" />
<rect x="10" y="4" width="6" height="6" fill="hsl(20, 90%, 50%)" />
<rect x="100" y="4" width="6" height="6" fill="hsl(20, 90%, 50%)" />
<rect x="10" y="10" width="6" height="6" fill="hsl(20, 90%, 50%)" />
<rect x="100" y="10" width="6" height="6" fill="hsl(20, 90%, 50%)" />
<rect x="4" y="16" width="6" height="6" fill="hsl(20, 90%, 50%)" />
<rect x="16" y="16" width="6" height="6" fill="hsl(20, 90%, 50%)" />
<rect x="94" y="16" width="6" height="6" fill="hsl(20, 90%, 50%)" />
<rect x="106" y="16" width="6" height="6" fill="hsl(20, 90%, 50%)" />
<rect x="10" y="22" width="6" height="6" fill="hsl(20, 90%, 50%)" />
<rect x="100" y="22" width="6" height="6" fill="hsl(20, 90%, 50%)" />
<rect x="10" y="28" width="6" height="6" fill="hsl(20, 90%, 50%)" />
<rect x="52" y="28" width="6" height="6" fill="hsl(20, 90%, 50%)" />
<rect x="100" y="28" width="6" height="6" fill="hsl(20, 90%, 50%)" />
<rect x="10" y="34" width="6" height="6" fill="hsl(20, 90%, 50%)" />
<rect x="52" y="34" width="6" height="6" fill="hsl(20, 90%, 50%)" />
<rect x="58" y="34" width="6" height="6" fill="hsl(20, 90%, 50%)" />
<rect x="100" y="34" width="6" height="6" fill="hsl(20, 90%, 50%)" />
<rect x="10" y="40" width="6" height="6" fill="hsl(20, 90%, 50%)" />
<rect x="52" y="40" width="6" height="6" fill="hsl(20, 90%, 50%)" />
<rect x="58" y="40" width="6" height="6" fill="hsl(20, 90%, 50%)" />
<rect x="100" y="40" width="6" height="6" fill="hsl(20, 90%, 50%)" />
<rect x="4" y="46" width="6" height="6" fill="hsl(20, 90%, 50%)" />
<rect x="16" y="46" width="6" height="6" fill="hsl(20, 90%, 50%)" />
<rect x="58" y="46" width="6" height="6" fill="hsl(20, 90%, 50%)" />
<rect x="94" y="46" width="6" height="6" fill="hsl(20, 90%, 50%)" />
<rect x="106" y="46" width="6" height="6" fill="hsl(20, 90%, 50%)" />
<rect x="10" y="52" width="6" height="6" fill="hsl(20, 90%, 50%)" />
<rect x="100" y="52" width="6" height="6" fill="hsl(20, 90%, 50%)" />
<rect x="10" y="58" width="6" height="6" fill="hsl(20, 90%, 50%)" />
<rect x="100" y="58" width="6" height="6" fill="hsl(20, 90%, 50%)" />
</svg>