<?xml version="1.0" encoding="utf-8"?>
<svg xmlns="http://www.w3.org/2000/svg" width="128" height="104" viewBox="0 0 128 104">
<rect width="100%" height="100%" fill="transparent" />
<rect x="36" y="4" width="8" height="8" fill="hsl(20, 90%, 50%)" />
<rect x="92" y="4" width="8" height="8" fill="hsl(20, 90%, 50%)" />
<rect x="100" y="4" width="8" height="8" fill="hsl(20, 90%, 50%)" />
<rect x="28" y="12" width="8" height="8" fill="hsl(20, 90%, 50%)" />
<rect x="44" y="12" width="8" height="8" fill="hsl(20, 90%, 50%)" />
<rect x="60" y="12" width="8" height="8" fill="hsl(20, 90%, 50%)" />
<rect x="68" y="12" width="8" height="8" fill="hsl(20, 90%, 50%)" />
<rect x="92" y="12" width="8" height="8" fill="hsl(20, 90%, 50%)" />
<rect x="28" y="20" width="8" height="8" fill="hsl(20, 90%, 50%)" />
<rect x="44" y="20" width="8" height="8" fill="hsl(20, 90%, 50%)" />
<rect x="60" y="20" width="8" height="8" fill="hsl(20, 90%, 50%)" />
<rect x="76" y="20" width="8" height="8" fill="hsl(20, 90%, 50%)" />
<rect x="92" y="20" width="8" height="8" fill="hsl(20, 90%, 50%)" />
<rect x="20" y="28" width="8" height="8" fill="hsl(20, 90%, 50%)" />
<rect x="28" y="28" width="8" height="8" fill="hsl(20, 90%, 50%)" />
<rect x="44" y="28" width="8" height="8" fill="hsl(20, 90%, 50%)" />
<rect x="76" y="28" width="8" height="8" fill="hsl(20, 90%, 50%)" />
<rect x="92" y="28" width="8" height="8" fill="hsl(20, 90%, 50%)" />
<rect x="100" y="28" width="8" height="8" fill="hsl(20, 90%, 50%)" />
<rect x="4" y="36" width="8" height="8" fill="hsl(20, 90%, 50%)" />
<rect x="36" y="36" width="8" height="8" fill="hsl(20, 90%, 50%)" />
<rect x="44" y="36" width="8" height="8" fill="hsl(20, 90%, 50%)" />
<rect x="60" y="36" width="8" height="8" fill="hsl(20, 90%, 50%)" />
<rect x="76" y="36" width="8" height="8" fill="hsl(20, 90%, 50%)" />
<rect x="84" y="36" width="8" height="8" fill="hsl(20, 90%, 50%)" />
<rect x="116" y="36" width="8" height="8" fill="hsl(20, 90%, 50%)" />
<rect x="28" y="44" width="8" height="8" fill="hsl(20, 90%, 50%)" />
<rect x="92" y="44" width="8" height="8" fill="hsl(20, 90%, 50%)" />
<rect x="28" y="52" width="8" height="8" fill="hsl(20, 90%, 50%)" />
<rect x="92" y="52" width="8" height="8" fill="hsl(20, 90%, 50%)" />
<rect x="4" y="60" width="8" height="8" fill="hsl(20, 90%, 50%)" />
<rect x="36" y="60" width="8" height="8" fill="hsl(20, 90%, 50%)" />
<rect x="44" y="60" width="8" height="8" fill="hsl(20, 90%, 50%)" />
<rect x="60" y="60" width="8" height="8" fill="hsl(20, 90%, 50%)" />
<rect x="76" y="60" width="8" height="8" fill="hsl(20, 90%, 50%)" />
<rect x="84" y="60" width="8" height="8" fill="hsl(20, 90%, 50%)" />
<rect x="116" y="60" width="8" height="8" fill="hsl(20, 90%, 50%)" />
<rect x="20" y="68" width="8" height="8" fill="hsl(20, 90%, 50%)" />
<rect x="28" y="68" width="8" height="8" fill="hsl(20, 90%, 50%)" />
<rect x="44" y="68" width="8" height="8" fill="hsl(20, 90%, 50%)" />
<rect x="76" y="68" width="8" height="8" fill="hsl(20, 90%, 50%)" />
<rect x="92" y="68" width="8" height="8" fill="hsl(20, 90%, 50%)" />
<rect x="100" y="68" width="8" height="8" fill="hsl(20, 90%, 50%)" />
<rect x="28" y="76" width="8" height="8" fill="hsl(20, 90%, 50%)" />
<rect x="44" y="76" width="8" height="8" fill="hsl(20, 90%, 50%)" />
<rect x="60" y="76" width="8" height="8" fill="hsl(20, 90%, 50%)" />
<rect x="76" y="76" width="8" height="8" fill="hsl(20, 90%, 50%)" />
<rect x="92" y="76" width="8" height="8" fill="hsl(20, 90%, 50%)" />
<rect x="28" y="84" width="8" height="8" fill="hsl(20, 90%, 50%)" />
<rect x="44" y="84" width="8" height="8" fill="hsl(20, 90%, 50%)" />
<rect x="60" y="84" width="8" height="8" fill="hsl(20, 90%, 50%)" />
<rect x="68" y="84" width="8" height="8" fill="hsl(20, 90%, 50%)" />
<rect x="92" y="84" width="8" height="8" fill="hsl(20, 90%, 50%)" />
<rect x="36" y="92" width="8" height="8" fill="hsl(20, 90%, 50%)" />
<rect x="92" y="92" width="8" height="8" fill="hsl(20, 90%, 50%)" />
<rect x="100" y="92" width="8" height="8" fill="hsl(20, 90%, 50%)" />
</svg>