<?xml version="1.0" encoding="utf-8"?>
<svg xmlns="http://www.w3.org/2000/svg" width="120" height="64" viewBox="0 0 120 64">
<rect width="100%" height="100%" fill="transparent" />
<rect x="18" y="4" width="7" height="7" fill="hsl(20, 90%, 50%)" />
<rect x="25" y="4" width="7" height="7" fill="hsl(20, 90%, 50%)" />
<rect x="32" y="4" width="7" height="7" fill="hsl(20, 90%, 50%)" />
<rect x="81" y="11" width="7" height="7" fill="hsl(20, 90%, 50%)" />
<rect x="88" y="11" width="7" height="7" fill="hsl(20, 90%, 50%)" />
<rect x="95" y="11" width="7" height="7" fill="hsl(20, 90%, 50%)" />
<rect x="4" y="18" width="7" height="7" fill="hsl(20, 90%, 50%)" />
<rect x="46" y="18" width="7" height="7" fill="hsl(20, 90%, 50%)" />
<rect x="4" y="25" width="7" height="7" fill="hsl(20, 90%, 50%)" />
<rect x="46" y="25" width="7" height="7" fill="hsl(20, 90%, 50%)" />
<rect x="67" y="25" width="7" height="7" fill="hsl(20, 90%, 50%)" />
<rect x="109" y="25" width="7" height="7" fill="hsl(20, 90%, 50%)" />
<rect x="4" y="32" width="7" height="7" fill="hsl(20, 90%, 50%)" />
<rect x="46" y="32" width="7" height="7" fill="hsl(20, 90%, 50%)" />
<rect x="67" y="32" width="7" height="7" fill="hsl(20, 90%, 50%)" />
<rect x="109" y="32" width="7" height="7" fill="hsl(20, 90%, 50%)" />
<rect x="67" y="39" width="7" height="7" fill="hsl(20, 90%, 50%)" />
<rect x="109" y="39" width="7" height="7" fill="hsl(20, 90%, 50%)" />
<rect x="18" y="46" width="7" height="7" fill="hsl(20, 90%, 50%)" />
<rect x="25" y="46" width="7" height="7" fill="hsl(20, 90%, 50%)" />
<rect x="32" y="46" width="7" height="7" fill="hsl(20, 90%, 50%)" />
<rect x="81" y="53" width="7" height="7" fill="hsl(20, 90%, 50%)" />
<rect x="88" y="53" width="7" height="7" fill="hsl(20, 90%, 50%)" />
<rect x="95" y="53" width="7" height="7" fill="hsl(20, 90%, 50%)" />
</svg>