<?xml version="1.0" encoding="utf-8"?>
<svg xmlns="http://www.w3.org/2000/svg" width="104" height="128" viewBox="0 0 104 128">
<rect width="100%" height="100%" fill="transparent" />
<rect x="76" y="4" width="12" height="12" fill="hsl(20, 90%, 50%)" />
<rect x="88" y="4" width="12" height="12" fill="hsl(20, 90%, 50%)" />
<rect x="28" y="16" width="12" height="12" fill="hsl(20, 90%, 50%)" />
<rect x="52" y="16" width="12" height="12" fill="hsl(20, 90%, 50%)" />
<rect x="88" y="16" width="12" height="12" fill="hsl(20, 90%, 50%)" />
<rect x="16" y="28" width="12" height="12" fill="hsl(20, 90%, 50%)" />
<rect x="40" y="28" width="12" height="12" fill="hsl(20, 90%, 50%)" />
<rect x="52" y="28" width="12" height="12" fill="hsl(20, 90%, 50%)" />
<rect x="76" y="28" width="12" height="12" fill="hsl(20, 90%, 50%)" />
<rect x="16" y="40" width="12" height="12" fill="hsl(20, 90%, 50%)" />
<rect x="76" y="40" width="12" height="12" fill="hsl(20, 90%, 50%)" />
<rect x="88" y="40" width="12" height="12" fill="hsl(20, 90%, 50%)" />
<rect x="4" y="52" width="12" height="12" fill="hsl(20, 90%, 50%)" />
<rect x="16" y="52" width="12" height="12" fill="hsl(20, 90%, 50%)" />
<rect x="40" y="52" width="12" height="12" fill="hsl(20, 90%, 50%)" />
<rect x="52" y="52" width="12" height="12" fill="hsl(20, 90%, 50%)" />
<rect x="40" y="64" width="12" height="12" fill="hsl(20, 90%, 50%)" />
<rect x="52" y="64" width="12" height="12" fill="hsl(20, 90%, 50%)" />
<rect x="76" y="64" width="12" height="12" fill="hsl(20, 90%, 50%)" />
<rect x="88" y="64" width="12" height="12" fill="hsl(20, 90%, 50%)" />
<rect x="4" y="76" width="12" height="12" fill="hsl(20, 90%, 50%)" />
<rect x="16" y="76" width="12" height="12" fill="hsl(20, 90%, 50%)" />
<rect x="76" y="76" width="12" height="12" fill="hsl(20, 90%, 50%)" />
<rect x="16" y="88" width="12" height="12" fill="hsl(20, 90%, 50%)" />
<rect x="40" y="88" width="12" height="12" fill="hsl(20, 90%, 50%)" />
<rect x="52" y="88" width="12" height="12" fill="hsl(20, 90%, 50%)" />
<rect x="76" y="88" width="12" height="12" fill="hsl(20, 90%, 50%)" />
<rect x="4" y="100" width="12" height="12" fill="hsl(20, 90%, 50%)" />
<rect x="40" y="100" width="12" height="12" fill="hsl(20, 90%, 50%)" />
<rect x="64" y="100" width="12" height="12" fill="hsl(20, 90%, 50%)" />
<rect x="4" y="112" width="12" height="12" fill="hsl(20, 90%, 50%)" />
<rect x="16" y="112" width="12" height="12" fill="hsl(20, 90%, 50%)" />
</svg>