<?xml version="1.0" encoding="utf-8"?>
<svg xmlns="http://www.w3.org/2000/svg" width="116" height="92" viewBox="0 0 116 92">
<rect width="100%" height="100%" fill="transparent" />
<rect x="58" y="4" width="6" height="6" fill="hsl(20, 90%, 50%)" />
<rect x="64" y="4" width="6" height="6" fill="hsl(20, 90%, 50%)" />
<rect x="58" y="10" width="6" height="6" fill="hsl(20, 90%, 50%)" />
<rect x="64" y="16" width="6" height="6" fill="hsl(20, 90%, 50%)" />
<rect x="82" y="16" width="6" height="6" fill="hsl(20, 90%, 50%)" />
<rect x="88" y="16" width="6" height="6" fill="hsl(20, 90%, 50%)" />
<rect x="46" y="22" width="6" height="6" fill="hsl(20, 90%, 50%)" />
<rect x="52" y="22" width="6" height="6" fill="hsl(20, 90%, 50%)" />
<rect x="58" y="22" width="6" height="6" fill="hsl(20, 90%, 50%)" />
<rect x="70" y="22" width="6" height="6" fill="hsl(20, 90%, 50%)" />
<rect x="88" y="22" width="6" height="6" fill="hsl(20, 90%, 50%)" />
<rect x="40" y="28" width="6" height="6" fill="hsl(20, 90%, 50%)" />
<rect x="70" y="28" width="6" height="6" fill="hsl(20, 90%, 50%)" />
<rect x="76" y="28" width="6" height="6" fill="hsl(20, 90%, 50%)" />
<rect x="88" y="28" width="6" height="6" fill="hsl(20, 90%, 50%)" />
<rect x="100" y="28" width="6" height="6" fill="hsl(20, 90%, 50%)" />
<rect x="106" y="28" width="6" height="6" fill="hsl(20, 90%, 50%)" />
<rect x="40" y="34" width="6" height="6" fill="hsl(20, 90%, 50%)" />
<rect x="52" y="34" width="6" height="6" fill="hsl(20, 90%, 50%)" />
<rect x="58" y="34" width="6" height="6" fill="hsl(20, 90%, 50%)" />
<rect x="76" y="34" width="6" height="6" fill="hsl(20, 90%, 50%)" />
<rect x="88" y="34" width="6" height="6" fill="hsl(20, 90%, 50%)" />
<rect x="100" y="34" width="6" height="6" fill="hsl(20, 90%, 50%)" />
<rect x="106" y="34" width="6" height="6" fill="hsl(20, 90%, 50%)" />
<rect x="22" y="40" width="6" height="6" fill="hsl(20, 90%, 50%)" />
<rect x="28" y="40" width="6" height="6" fill="hsl(20, 90%, 50%)" />
<rect x="40" y="40" width="6" height="6" fill="hsl(20, 90%, 50%)" />
<rect x="64" y="40" width="6" height="6" fill="hsl(20, 90%, 50%)" />
<rect x="70" y="40" width="6" height="6" fill="hsl(20, 90%, 50%)" />
<rect x="88" y="40" width="6" height="6" fill="hsl(20, 90%, 50%)" />
<rect x="22" y="46" width="6" height="6" fill="hsl(20, 90%, 50%)" />
<rect x="40" y="46" width="6" height="6" fill="hsl(20, 90%, 50%)" />
<rect x="46" y="46" width="6" height="6" fill="hsl(20, 90%, 50%)" />
<rect x="70" y="46" width="6" height="6" fill="hsl(20, 90%, 50%)" />
<rect x="82" y="46" width="6" height="6" fill="hsl(20, 90%, 50%)" />
<rect x="88" y="46" width="6" height="6" fill="hsl(20, 90%, 50%)" />
<rect x="4" y="52" width="6" height="6" fill="hsl(20, 90%, 50%)" />
<rect x="10" y="52" width="6" height="6" fill="hsl(20, 90%, 50%)" />
<rect x="22" y="52" width="6" height="6" fill="hsl(20, 90%, 50%)" />
<rect x="34" y="52" width="6" height="6" fill="hsl(20, 90%, 50%)" />
<rect x="52" y="52" width="6" height="6" fill="hsl(20, 90%, 50%)" />
<rect x="58" y="52" width="6" height="6" fill="hsl(20, 90%, 50%)" />
<rect x="70" y="52" width="6" height="6" fill="hsl(20, 90%, 50%)" />
<rect x="4" y="58" width="6" height="6" fill="hsl(20, 90%, 50%)" />
<rect x="10" y="58" width="6" height="6" fill="hsl(20, 90%, 50%)" />
<rect x="22" y="58" width="6" height="6" fill="hsl(20, 90%, 50%)" />
<rect x="34" y="58" width="6" height="6" fill="hsl(20, 90%, 50%)" />
<rect x="40" y="58" width="6" height="6" fill="hsl(20, 90%, 50%)" />
<rect x="70" y="58" width="6" height="6" fill="hsl(20, 90%, 50%)" />
<rect x="22" y="64" width="6" height="6" fill="hsl(20, 90%, 50%)" />
<rect x="40" y="64" width="6" height="6" fill="hsl(20, 90%, 50%)" />
<rect x="52" y="64" width="6" height="6" fill="hsl(20, 90%, 50%)" />
<rect x="58" y="64" width="6" height="6" fill="hsl(20, 90%, 50%)" />
<rect x="64" y="64" width="6" height="6" fill="hsl(20, 90%, 50%)" />
<rect x="22" y="70" width="6" height="6" fill="hsl(20, 90%, 50%)" />
<rect x="28" y="70" width="6" height="6" fill="hsl(20, 90%, 50%)" />
<rect x="46" y="70" width="6" height="6" fill="hsl(20, 90%, 50%)" />
<rect x="52" y="76" width="6" height="6" fill="hsl(20, 90%, 50%)" />
<rect x="46" y="82" width="6" height="6" fill="hsl(20, 90%, 50%)" />
<rect x="52" y="82" width="6" height="6" fill="hsl(20, 90%, 50%)" />
</svg>