<?xml version="1.0" encoding="utf-8"?>
<svg xmlns="http://www.w3.org/2000/svg" width="120" height="86" viewBox="0 0 120 86">
<rect width="100%" height="100%" fill="transparent" />
<rect x="6" y="4" width="2" height="2" fill="hsl(20, 90%, 50%)" />
<rect x="36" y="4" width="2" height="2" fill="hsl(20, 90%, 50%)" />
<rect x="66" y="4" width="2" height="2" fill="hsl(20, 90%, 50%)" />
<rect x="96" y="4" width="2" height="2" fill="hsl(20, 90%, 50%)" />
<rect x="8" y="6" width="2" height="2" fill="hsl(20, 90%, 50%)" />
<rect x="38" y="6" width="2" height="2" fill="hsl(20, 90%, 50%)" />
<rect x="68" y="6" width="2" height="2" fill="hsl(20, 90%, 50%)" />
<rect x="98" y="6" width="2" height="2" fill="hsl(20, 90%, 50%)" />
<rect x="4" y="8" width="2" height="2" fill="hsl(20, 90%, 50%)" />
<rect x="6" y="8" width="2" height="2" fill="hsl(20, 90%, 50%)" />
<rect x="8" y="8" width="2" height="2" fill="hsl(20, 90%, 50%)" />
<rect x="34" y="8" width="2" height="2" fill="hsl(20, 90%, 50%)" />
<rect x="36" y="8" width="2" height="2" fill="hsl(20, 90%, 50%)" />
<rect x="38" y="8" width="2" height="2" fill="hsl(20, 90%, 50%)" />
<rect x="64" y="8" width="2" height="2" fill="hsl(20, 90%, 50%)" />
<rect x="66" y="8" width="2" height="2" fill="hsl(20, 90%, 50%)" />
<rect x="68" y="8" width="2" height="2" fill="hsl(20, 90%, 50%)" />
<rect x="94" y="8" width="2" height="2" fill="hsl(20, 90%, 50%)" />
<rect x="96" y="8" width="2" height="2" fill="hsl(20, 90%, 50%)" />
<rect x="98" y="8" width="2" height="2" fill="hsl(20, 90%, 50%)" />
<rect x="14" y="16" width="2" height="2" fill="hsl(20, 90%, 50%)" />
<rect x="16" y="16" width="2" height="2" fill="hsl(20, 90%, 50%)" />
<rect x="34" y="16" width="2" height="2" fill="hsl(20, 90%, 50%)" />
<rect x="36" y="16" width="2" height="2" fill="hsl(20, 90%, 50%)" />
<rect x="68" y="16" width="2" height="2" fill="hsl(20, 90%, 50%)" />
<rect x="12" y="18" width="2" height="2" fill="hsl(20, 90%, 50%)" />
<rect x="16" y="18" width="2" height="2" fill="hsl(20, 90%, 50%)" />
<rect x="32" y="18" width="2" height="2" fill="hsl(20, 90%, 50%)" />
<rect x="36" y="18" width="2" height="2" fill="hsl(20, 90%, 50%)" />
<rect x="66" y="18" width="2" height="2" fill="hsl(20, 90%, 50%)" />
<rect x="70" y="18" width="2" height="2" fill="hsl(20, 90%, 50%)" />
<rect x="102" y="18" width="2" height="2" fill="hsl(20, 90%, 50%)" />
<rect x="104" y="18" width="2" height="2" fill="hsl(20, 90%, 50%)" />
<rect x="106" y="18" width="2" height="2" fill="hsl(20, 90%, 50%)" />
<rect x="14" y="20" width="2" height="2" fill="hsl(20, 90%, 50%)" />
<rect x="32" y="20" width="2" height="2" fill="hsl(20, 90%, 50%)" />
<rect x="68" y="20" width="2" height="2" fill="hsl(20, 90%, 50%)" />
<rect x="72" y="20" width="2" height="2" fill="hsl(20, 90%, 50%)" />
<rect x="104" y="20" width="2" height="2" fill="hsl(20, 90%, 50%)" />
<rect x="106" y="20" width="2" height="2" fill="hsl(20, 90%, 50%)" />
<rect x="108" y="20" width="2" height="2" fill="hsl(20, 90%, 50%)" />
<rect x="30" y="22" width="2" height="2" fill="hsl(20, 90%, 50%)" />
<rect x="32" y="22" width="2" height="2" fill="hsl(20, 90%, 50%)" />
<rect x="70" y="22" width="2" height="2" fill="hsl(20, 90%, 50%)" />
<rect x="72" y="22" width="2" height="2" fill="hsl(20, 90%, 50%)" />
<rect x="6" y="34" width="2" height="2" fill="hsl(20, 90%, 50%)" />
<rect x="36" y="34" width="2" height="2" fill="hsl(20, 90%, 50%)" />
<rect x="66" y="34" width="2" height="2" fill="hsl(20, 90%, 50%)" />
<rect x="96" y="34" width="2" height="2" fill="hsl(20, 90%, 50%)" />
<rect x="8" y="36" width="2" height="2" fill="hsl(20, 90%, 50%)" />
<rect x="38" y="36" width="2" height="2" fill="hsl(20, 90%, 50%)" />
<rect x="68" y="36" width="2" height="2" fill="hsl(20, 90%, 50%)" />
<rect x="78" y="36" width="2" height="2" fill="hsl(20, 90%, 50%)" />
<rect x="80" y="36" width="2" height="2" fill="hsl(20, 90%, 50%)" />
<rect x="98" y="36" width="2" height="2" fill="hsl(20, 90%, 50%)" />
<rect x="4" y="38" width="2" height="2" fill="hsl(20, 90%, 50%)" />
<rect x="6" y="38" width="2" height="2" fill="hsl(20, 90%, 50%)" />
<rect x="8" y="38" width="2" height="2" fill="hsl(20, 90%, 50%)" />
<rect x="34" y="38" width="2" height="2" fill="hsl(20, 90%, 50%)" />
<rect x="36" y="38" width="2" height="2" fill="hsl(20, 90%, 50%)" />
<rect x="38" y="38" width="2" height="2" fill="hsl(20, 90%, 50%)" />
<rect x="64" y="38" width="2" height="2" fill="hsl(20, 90%, 50%)" />
<rect x="66" y="38" width="2" height="2" fill="hsl(20, 90%, 50%)" />
<rect x="68" y="38" width="2" height="2" fill="hsl(20, 90%, 50%)" />
<rect x="78" y="38" width="2" height="2" fill="hsl(20, 90%, 50%)" />
<rect x="80" y="38" width="2" height="2" fill="hsl(20, 90%, 50%)" />
<rect x="94" y="38" width="2" height="2" fill="hsl(20, 90%, 50%)" />
<rect x="96" y="38" width="2" height="2" fill="hsl(20, 90%, 50%)" />
<rect x="98" y="38" width="2" height="2" fill="hsl(20, 90%, 50%)" />
<rect x="112" y="40" width="2" height="2" fill="hsl(20, 90%, 50%)" />
<rect x="114" y="40" width="2" height="2" fill="hsl(20, 90%, 50%)" />
<rect x="112" y="42" width="2" height="2" fill="hsl(20, 90%, 50%)" />
<rect x="114" y="42" width="2" height="2" fill="hsl(20, 90%, 50%)" />
<rect x="10" y="46" width="2" height="2" fill="hsl(20, 90%, 50%)" />
<rect x="42" y="46" width="2" height="2" fill="hsl(20, 90%, 50%)" />
<rect x="44" y="46" width="2" height="2" fill="hsl(20, 90%, 50%)" />
<rect x="8" y="48" width="2" height="2" fill="hsl(20, 90%, 50%)" />
<rect x="12" y="48" width="2" height="2" fill="hsl(20, 90%, 50%)" />
<rect x="40" y="48" width="2" height="2" fill="hsl(20, 90%, 50%)" />
<rect x="44" y="48" width="2" height="2" fill="hsl(20, 90%, 50%)" />
<rect x="70" y="48" width="2" height="2" fill="hsl(20, 90%, 50%)" />
<rect x="72" y="48" width="2" height="2" fill="hsl(20, 90%, 50%)" />
<rect x="102" y="48" width="2" height="2" fill="hsl(20, 90%, 50%)" />
<rect x="104" y="48" width="2" height="2" fill="hsl(20, 90%, 50%)" />
<rect x="6" y="50" width="2" height="2" fill="hsl(20, 90%, 50%)" />
<rect x="10" y="50" width="2" height="2" fill="hsl(20, 90%, 50%)" />
<rect x="38" y="50" width="2" height="2" fill="hsl(20, 90%, 50%)" />
<rect x="42" y="50" width="2" height="2" fill="hsl(20, 90%, 50%)" />
<rect x="70" y="50" width="2" height="2" fill="hsl(20, 90%, 50%)" />
<rect x="72" y="50" width="2" height="2" fill="hsl(20, 90%, 50%)" />
<rect x="102" y="50" width="2" height="2" fill="hsl(20, 90%, 50%)" />
<rect x="104" y="50" width="2" height="2" fill="hsl(20, 90%, 50%)" />
<rect x="6" y="52" width="2" height="2" fill="hsl(20, 90%, 50%)" />
<rect x="8" y="52" width="2" height="2" fill="hsl(20, 90%, 50%)" />
<rect x="38" y="52" width="2" height="2" fill="hsl(20, 90%, 50%)" />
<rect x="40" y="52" width="2" height="2" fill="hsl(20, 90%, 50%)" />
<rect x="6" y="64" width="2" height="2" fill="hsl(20, 90%, 50%)" />
<rect x="8" y="66" width="2" height="2" fill="hsl(20, 90%, 50%)" />
<rect x="4" y="68" width="2" height="2" fill="hsl(20, 90%, 50%)" />
<rect x="6" y="68" width="2" height="2" fill="hsl(20, 90%, 50%)" />
<rect x="8" y="68" width="2" height="2" fill="hsl(20, 90%, 50%)" />
<rect x="12" y="76" width="2" height="2" fill="hsl(20, 90%, 50%)" />
<rect x="14" y="76" width="2" height="2" fill="hsl(20, 90%, 50%)" />
<rect x="8" y="78" width="2" height="2" fill="hsl(20, 90%, 50%)" />
<rect x="14" y="78" width="2" height="2" fill="hsl(20, 90%, 50%)" />
<rect x="8" y="80" width="2" height="2" fill="hsl(20, 90%, 50%)" />
<rect x="10" y="80" width="2" height="2" fill="hsl(20, 90%, 50%)" />
</svg>