<?xml version="1.0" encoding="utf-8"?>
<svg xmlns="http://www.w3.org/2000/svg" width="125" height="112" viewBox="0 0 125 112">
<rect width="100%" height="100%" fill="transparent" />
<rect x="4" y="4" width="13" height="13" fill="hsl(20, 90%, 50%)" />
<rect x="17" y="4" width="13" height="13" fill="hsl(20, 90%, 50%)" />
<rect x="17" y="17" width="13" height="13" fill="hsl(20, 90%, 50%)" />
<rect x="17" y="30" width="13" height="13" fill="hsl(20, 90%, 50%)" />
<rect x="43" y="30" width="13" height="13" fill="hsl(20, 90%, 50%)" />
<rect x="30" y="43" width="13" height="13" fill="hsl(20, 90%, 50%)" />
<rect x="43" y="43" width="13" height="13" fill="hsl(20, 90%, 50%)" />
<rect x="69" y="56" width="13" height="13" fill="hsl(20, 90%, 50%)" />
<rect x="82" y="56" width="13" height="13" fill="hsl(20, 90%, 50%)" />
<rect x="69" y="69" width="13" height="13" fill="hsl(20, 90%, 50%)" />
<rect x="95" y="69" width="13" height="13" fill="hsl(20, 90%, 50%)" />
<rect x="95" y="82" width="13" height="13" fill="hsl(20, 90%, 50%)" />
<rect x="95" y="95" width="13" height="13" fill="hsl(20, 90%, 50%)" />
<rect x="108" y="95" width="13" height="13" fill="hsl(20, 90%, 50%)" />
</svg>