<?xml version="1.0" encoding="utf-8"?>
<svg xmlns="http://www.w3.org/2000/svg" width="120" height="18" viewBox="0 0 120 18">
<rect width="100%" height="100%" fill="transparent" />
<rect x="4" y="4" width="2" height="2" fill="hsl(20, 90%, 50%)" />
<rect x="4" y="6" width="2" height="2" fill="hsl(20, 90%, 50%)" />
<rect x="6" y="6" width="2" height="2" fill="hsl(20, 90%, 50%)" />
<rect x="16" y="6" width="2" height="2" fill="hsl(20, 90%, 50%)" />
<rect x="28" y="6" width="2" height="2" fill="hsl(20, 90%, 50%)" />
<rect x="40" y="6" width="2" height="2" fill="hsl(20, 90%, 50%)" />
<rect x="52" y="6" width="2" height="2" fill="hsl(20, 90%, 50%)" />
<rect x="64" y="6" width="2" height="2" fill="hsl(20, 90%, 50%)" />
<rect x="76" y="6" width="2" height="2" fill="hsl(20, 90%, 50%)" />
<rect x="88" y="6" width="2" height="2" fill="hsl(20, 90%, 50%)" />
<rect x="100" y="6" width="2" height="2" fill="hsl(20, 90%, 50%)" />
<rect x="112" y="6" width="2" height="2" fill="hsl(20, 90%, 50%)" />
<rect x="4" y="8" width="2" height="2" fill="hsl(20, 90%, 50%)" />
<rect x="6" y="8" width="2" height="2" fill="hsl(20, 90%, 50%)" />
<rect x="8" y="8" width="2" height="2" fill="hsl(20, 90%, 50%)" />
<rect x="14" y="8" width="2" height="2" fill="hsl(20, 90%, 50%)" />
<rect x="18" y="8" width="2" height="2" fill="hsl(20, 90%, 50%)" />
<rect x="26" y="8" width="2" height="2" fill="hsl(20, 90%, 50%)" />
<rect x="30" y="8" width="2" height="2" fill="hsl(20, 90%, 50%)" />
<rect x="38" y="8" width="2" height="2" fill="hsl(20, 90%, 50%)" />
<rect x="42" y="8" width="2" height="2" fill="hsl(20, 90%, 50%)" />
<rect x="50" y="8" width="2" height="2" fill="hsl(20, 90%, 50%)" />
<rect x="54" y="8" width="2" height="2" fill="hsl(20, 90%, 50%)" />
<rect x="62" y="8" width="2" height="2" fill="hsl(20, 90%, 50%)" />
<rect x="66" y="8" width="2" height="2" fill="hsl(20, 90%, 50%)" />
<rect x="74" y="8" width="2" height="2" fill="hsl(20, 90%, 50%)" />
<rect x="78" y="8" width="2" height="2" fill="hsl(20, 90%, 50%)" />
<rect x="86" y="8" width="2" height="2" fill="hsl(20, 90%, 50%)" />
<rect x="90" y="8" width="2" height="2" fill="hsl(20, 90%, 50%)" />
<rect x="98" y="8" width="2" height="2" fill="hsl(20, 90%, 50%)" />
<rect x="102" y="8" width="2" height="2" fill="hsl(20, 90%, 50%)" />
<rect x="110" y="8" width="2" height="2" fill="hsl(20, 90%, 50%)" />
<rect x="114" y="8" width="2" height="2" fill="hsl(20, 90%, 50%)" />
<rect x="4" y="10" width="2" height="2" fill="hsl(20, 90%, 50%)" />
<rect x="6" y="10" width="2" height="2" fill="hsl(20, 90%, 50%)" />
<rect x="16" y="10" width="2" height="2" fill="hsl(20, 90%, 50%)" />
<rect x="28" y="10" width="2" height="2" fill="hsl(20, 90%, 50%)" />
<rect x="40" y="10" width="2" height="2" fill="hsl(20, 90%, 50%)" />
<rect x="52" y="10" width="2" height="2" fill="hsl(20, 90%, 50%)" />
<rect x="64" y="10" width="2" height="2" fill="hsl(20, 90%, 50%)" />
<rect x="76" y="10" width="2" height="2" fill="hsl(20, 90%, 50%)" />
<rect x="88" y="10" width="2" height="2" fill="hsl(20, 90%, 50%)" />
<rect x="100" y="10" width="2" height="2" fill="hsl(20, 90%, 50%)" />
<rect x="112" y="10" width="2" height="2" fill="hsl(20, 90%, 50%)" />
<rect x="4" y="12" width="2" height="2" fill="hsl(20, 90%, 50%)" />
</svg>