<?xml version="1.0" encoding="utf-8"?>
<svg xmlns="http://www.w3.org/2000/svg" width="104" height="86" viewBox="0 0 104 86">
<rect width="100%" height="100%" fill="transparent" />
<rect x="43" y="7" width="3" height="3" fill="#39ff14" />
<rect x="46" y="10" width="3" height="3" fill="#39ff14" />
<rect x="49" y="10" width="3" height="3" fill="#39ff14" />
<rect x="52" y="10" width="3" height="3" fill="#39ff14" />
<rect x="55" y="13" width="3" height="3" fill="#39ff14" />
<rect x="58" y="13" width="3" height="3" fill="#39ff14" />
<rect x="61" y="16" width="3" height="3" fill="#39ff14" />
<rect x="64" y="16" width="3" height="3" fill="#39ff14" />
<rect x="67" y="16" width="3" height="3" fill="#39ff14" />
<rect x="70" y="19" width="3" height="3" fill="#39ff14" />
<rect x="70" y="16" width="3" height="3" fill="#39ff14" />
<rect x="73" y="19" width="3" height="3" fill="#39ff14" />
<rect x="76" y="19" width="3" height="3" fill="#39ff14" />
<rect x="79" y="19" width="3" height="3" fill="#39ff14" />
<rect x="82" y="22" width="3" height="3" fill="#39ff14" />
<rect x="85" y="22" width="3" height="3" fill="#39ff14" />
<rect x="85" y="25" width="3" height="3" fill="#39ff14" />
<rect x="88" y="25" width="3" height="3" fill="#39ff14" />
<rect x="88" y="28" width="3" height="3" fill="#39ff14" />
<rect x="91" y="28" width="3" height="3" fill="#39ff14" />
<rect x="91" y="31" width="3" height="3" fill="#39ff14" />
<rect x="94" y="31" width="3" height="3" fill="#39ff14" />
<rect x="94" y="34" width="3" height="3" fill="#39ff14" />
<rect x="97" y="34" width="3" height="3" fill="#39ff14" />
<rect x="94" y="37" width="3" height="3" fill="#39ff14" />
<rect x="91" y="37" width="3" height="3" fill="#39ff14" />
<rect x="88" y="37" width="3" height="3" fill="#39ff14" />
<rect x="88" y="40" width="3" height="3" fill="#39ff14" />
<rect x="88" y="43" width="3" height="3" fill="#39ff14" />
<rect x="88" y="46" width="3" height="3" fill="#39ff14" />
<rect x="88" y="49" width="3" height="3" fill="#39ff14" />
<rect x="91" y="52" width="3" height="3" fill="#39ff14" />
<rect x="88" y="52" width="3" height="3" fill="#39ff14" />
<rect x="88" y="55" width="3" height="3" fill="#39ff14" />
<rect x="91" y="55" width="3" height="3" fill="#39ff14" />
<rect x="91" y="58" width="3" height="3" fill="#39ff14" />
<rect x="91" y="61" width="3" height="3" fill="#39ff14" />
<rect x="91" y="64" width="3" height="3" fill="#39ff14" />
<rect x="91" y="67" width="3" height="3" fill="#39ff14" />
<rect x="91" y="70" width="3" height="3" fill="#39ff14" />
<rect x="91" y="73" width="3" height="3" fill="#39ff14" />
<rect x="88" y="73" width="3" height="3" fill="#39ff14" />
<rect x="85" y="73" width="3" height="3" fill="#39ff14" />
<rect x="82" y="73" width="3" height="3" fill="#39ff14" />
<rect x="79" y="73" width="3" height="3" fill="#39ff14" />
<rect x="76" y="73" width="3" height="3" fill="#39ff14" />
<rect x="73" y="73" width="3" height="3" fill="#39ff14" />
<rect x="70" y="73" width="3" height="3" fill="#39ff14" />
<rect x="67" y="73" width="3" height="3" fill="#39ff14" />
<rect x="64" y="73" width="3" height="3" fill="#39ff14" />
<rect x="61" y="73" width="3" height="3" fill="#39ff14" />
<rect x="58" y="76" width="3" height="3" fill="#39ff14" />
<rect x="55" y="76" width="3" height="3" fill="#39ff14" />
<rect x="52" y="76" width="3" height="3" fill="#39ff14" />
<rect x="49" y="76" width="3" height="3" fill="#39ff14" />
<rect x="49" y="79" width="3" height="3" fill="#39ff14" />
<rect x="46" y="79" width="3" height="3" fill="#39ff14" />
<rect x="43" y="79" width="3" height="3" fill="#39ff14" />
<rect x="40" y="79" width="3" height="3" fill="#39ff14" />
<rect x="37" y="79" width="3" height="3" fill="#39ff14" />
<rect x="34" y="79" width="3" height="3" fill="#39ff14" />
<rect x="31" y="79" width="3" height="3" fill="#39ff14" />
<rect x="28" y="79" width="3" height="3" fill="#39ff14" />
<rect x="25" y="79" width="3" height="3" fill="#39ff14" />
<rect x="22" y="79" width="3" height="3" fill="#39ff14" />
<rect x="19" y="79" width="3" height="3" fill="#39ff14" />
<rect x="16" y="79" width="3" height="3" fill="#39ff14" />
<rect x="16" y="76" width="3" height="3" fill="#39ff14" />
<rect x="13" y="73" width="3" height="3" fill="#39ff14" />
<rect x="13" y="70" width="3" height="3" fill="#39ff14" />
<rect x="13" y="67" width="3" height="3" fill="#39ff14" />
<rect x="10" y="64" width="3" height="3" fill="#39ff14" />
<rect x="10" y="61" width="3" height="3" fill="#39ff14" />
<rect x="7" y="61" width="3" height="3" fill="#39ff14" />
<rect x="7" y="58" width="3" height="3" fill="#39ff14" />
<rect x="7" y="55" width="3" height="3" fill="#39ff14" />
<rect x="7" y="52" width="3" height="3" fill="#39ff14" />
<rect x="4" y="52" width="3" height="3" fill="#39ff14" />
<rect x="4" y="49" width="3" height="3" fill="#39ff14" />
<rect x="7" y="49" width="3" height="3" fill="#39ff14" />
<rect x="10" y="49" width="3" height="3" fill="#39ff14" />
<rect x="10" y="46" width="3" height="3" fill="#39ff14" />
<rect x="13" y="46" width="3" height="3" fill="#39ff14" />
<rect x="10" y="43" width="3" height="3" fill="#39ff14" />
<rect x="10" y="40" width="3" height="3" fill="#39ff14" />
<rect x="10" y="37" width="3" height="3" fill="#39ff14" />
<rect x="10" y="34" width="3" height="3" fill="#39ff14" />
<rect x="10" y="31" width="3" height="3" fill="#39ff14" />
<rect x="13" y="28" width="3" height="3" fill="#39ff14" />
<rect x="13" y="25" width="3" height="3" fill="#39ff14" />
<rect x="13" y="22" width="3" height="3" fill="#39ff14" />
<rect x="16" y="22" width="3" height="3" fill="#39ff14" />
<rect x="16" y="19" width="3" height="3" fill="#39ff14" />
<rect x="19" y="19" width="3" height="3" fill="#39ff14" />
<rect x="19" y="16" width="3" height="3" fill="#39ff14" />
<rect x="22" y="16" width="3" height="3" fill="#39ff14" />
<rect x="22" y="13" width="3" height="3" fill="#39ff14" />
<rect x="22" y="10" width="3" height="3" fill="#39ff14" />
<rect x="25" y="10" width="3" height="3" fill="#39ff14" />
<rect x="28" y="10" width="3" height="3" fill="#39ff14" />
<rect x="31" y="10" width="3" height="3" fill="#39ff14" />
<rect x="34" y="10" width="3" height="3" fill="#39ff14" />
<rect x="34" y="7" width="3" height="3" fill="#39ff14" />
<rect x="37" y="7" width="3" height="3" fill="#39ff14" />
<rect x="37" y="4" width="3" height="3" fill="#39ff14" />
</svg>